<?xml version="1.0" encoding="UTF-8" standalone="no"?>
<!DOCTYPE svg PUBLIC "-//W3C//DTD SVG 1.1//EN"
 "http://www.w3.org/Graphics/SVG/1.1/DTD/svg11.dtd">
<!-- Generated by graphviz version 2.43.0 (0)
 -->
<!-- Title: RawData.h Pages: 1 -->
<svg width="408pt" height="196pt"
 viewBox="0.00 0.00 407.50 196.00" xmlns="http://www.w3.org/2000/svg" xmlns:xlink="http://www.w3.org/1999/xlink">
<g id="graph0" class="graph" transform="scale(1 1) rotate(0) translate(4 192)">
<title>RawData.h</title>
<!-- Node1 -->
<g id="node1" class="node">
<title>Node1</title>
<g id="a_node1"><a xlink:title=" ">
<polygon fill="#bfbfbf" stroke="black" points="219,-168.5 219,-187.5 289,-187.5 289,-168.5 219,-168.5"/>
<text text-anchor="middle" x="254" y="-175.5" font-family="Helvetica,sans-Serif" font-size="10.00">RawData.h</text>
</a>
</g>
</g>
<!-- Node2 -->
<g id="node2" class="node">
<title>Node2</title>
<g id="a_node2"><a xlink:href="../../d2/d4d/file_8h.html" target="_top" xlink:title=" ">
<polygon fill="none" stroke="black" points="115.5,-112.5 115.5,-131.5 156.5,-131.5 156.5,-112.5 115.5,-112.5"/>
<text text-anchor="middle" x="136" y="-119.5" font-family="Helvetica,sans-Serif" font-size="10.00">file.h</text>
</a>
</g>
</g>
<!-- Node1&#45;&gt;Node2 -->
<g id="edge1" class="edge">
<title>Node1&#45;&gt;Node2</title>
<path fill="none" stroke="midnightblue" d="M226.1,-164.23C204.03,-154.13 173.82,-140.31 154.61,-131.52"/>
<polygon fill="midnightblue" stroke="midnightblue" points="224.75,-167.46 235.3,-168.44 227.67,-161.1 224.75,-167.46"/>
</g>
<!-- Node4 -->
<g id="node4" class="node">
<title>Node4</title>
<g id="a_node4"><a xlink:href="../../d9/df8/limes__core_8h.html" target="_top" xlink:title=" ">
<polygon fill="none" stroke="red" points="135.5,-0.5 135.5,-19.5 214.5,-19.5 214.5,-0.5 135.5,-0.5"/>
<text text-anchor="middle" x="175" y="-7.5" font-family="Helvetica,sans-Serif" font-size="10.00">limes_core.h</text>
</a>
</g>
</g>
<!-- Node1&#45;&gt;Node4 -->
<g id="edge9" class="edge">
<title>Node1&#45;&gt;Node4</title>
<path fill="none" stroke="midnightblue" d="M255.24,-158.35C256.04,-133.26 254.29,-88.08 235,-56 225.13,-39.6 206.81,-27.19 193,-19.61"/>
<polygon fill="midnightblue" stroke="midnightblue" points="251.75,-158.19 254.76,-168.35 258.74,-158.53 251.75,-158.19"/>
</g>
<!-- Node70 -->
<g id="node6" class="node">
<title>Node70</title>
<g id="a_node6"><a xlink:href="../../d0/dd9/_embedded_binaries_8h.html" target="_top" xlink:title=" ">
<polygon fill="none" stroke="black" points="282.5,-112.5 282.5,-131.5 399.5,-131.5 399.5,-112.5 282.5,-112.5"/>
<text text-anchor="middle" x="341" y="-119.5" font-family="Helvetica,sans-Serif" font-size="10.00">EmbeddedBinaries.h</text>
</a>
</g>
</g>
<!-- Node1&#45;&gt;Node70 -->
<g id="edge7" class="edge">
<title>Node1&#45;&gt;Node70</title>
<path fill="none" stroke="midnightblue" d="M276.72,-162.9C292.67,-153 313.5,-140.07 327.06,-131.65"/>
<polygon fill="midnightblue" stroke="midnightblue" points="274.63,-160.08 267.98,-168.32 278.32,-166.02 274.63,-160.08"/>
</g>
<!-- Node3 -->
<g id="node3" class="node">
<title>Node3</title>
<g id="a_node3"><a xlink:href="../../d9/d0f/directory_8h.html" target="_top" xlink:title=" ">
<polygon fill="none" stroke="black" points="0,-56.5 0,-75.5 68,-75.5 68,-56.5 0,-56.5"/>
<text text-anchor="middle" x="34" y="-63.5" font-family="Helvetica,sans-Serif" font-size="10.00">directory.h</text>
</a>
</g>
</g>
<!-- Node2&#45;&gt;Node3 -->
<g id="edge2" class="edge">
<title>Node2&#45;&gt;Node3</title>
<path fill="none" stroke="midnightblue" d="M110.67,-107.59C91.81,-97.61 66.62,-84.27 50.35,-75.65"/>
<polygon fill="midnightblue" stroke="midnightblue" points="109.14,-110.74 119.61,-112.32 112.41,-104.55 109.14,-110.74"/>
</g>
<!-- Node2&#45;&gt;Node4 -->
<g id="edge6" class="edge">
<title>Node2&#45;&gt;Node4</title>
<path fill="none" stroke="midnightblue" d="M123.45,-103.96C115.2,-90.52 107.24,-71.51 115,-56 123.44,-39.11 141.57,-26.92 155.7,-19.52"/>
<polygon fill="midnightblue" stroke="midnightblue" points="120.55,-105.91 129.02,-112.26 126.36,-102.01 120.55,-105.91"/>
</g>
<!-- Node69 -->
<g id="node5" class="node">
<title>Node69</title>
<g id="a_node5"><a xlink:href="../../d3/d36/_dynamic_library_8h.html" target="_top" xlink:title=" ">
<polygon fill="none" stroke="black" points="124.5,-56.5 124.5,-75.5 225.5,-75.5 225.5,-56.5 124.5,-56.5"/>
<text text-anchor="middle" x="175" y="-63.5" font-family="Helvetica,sans-Serif" font-size="10.00">DynamicLibrary.h</text>
</a>
</g>
</g>
<!-- Node2&#45;&gt;Node69 -->
<g id="edge4" class="edge">
<title>Node2&#45;&gt;Node69</title>
<path fill="none" stroke="midnightblue" d="M148.38,-103.86C155.14,-94.5 163.21,-83.33 168.68,-75.75"/>
<polygon fill="midnightblue" stroke="midnightblue" points="145.46,-101.93 142.44,-112.08 151.13,-106.03 145.46,-101.93"/>
</g>
<!-- Node3&#45;&gt;Node4 -->
<g id="edge3" class="edge">
<title>Node3&#45;&gt;Node4</title>
<path fill="none" stroke="midnightblue" d="M65.93,-52.77C92.41,-42.63 129.39,-28.47 152.76,-19.52"/>
<polygon fill="midnightblue" stroke="midnightblue" points="64.43,-49.6 56.34,-56.44 66.93,-56.14 64.43,-49.6"/>
</g>
<!-- Node69&#45;&gt;Node4 -->
<g id="edge5" class="edge">
<title>Node69&#45;&gt;Node4</title>
<path fill="none" stroke="midnightblue" d="M175,-45.8C175,-36.91 175,-26.78 175,-19.75"/>
<polygon fill="midnightblue" stroke="midnightblue" points="171.5,-46.08 175,-56.08 178.5,-46.08 171.5,-46.08"/>
</g>
<!-- Node70&#45;&gt;Node4 -->
<g id="edge8" class="edge">
<title>Node70&#45;&gt;Node4</title>
<path fill="none" stroke="midnightblue" d="M325.3,-104.67C311.2,-90.6 289.47,-70.34 268,-56 245.18,-40.75 216.42,-27.66 196.97,-19.59"/>
<polygon fill="midnightblue" stroke="midnightblue" points="323.16,-107.48 332.66,-112.15 328.14,-102.57 323.16,-107.48"/>
</g>
</g>
</svg>
