<?xml version="1.0" encoding="UTF-8" standalone="no"?>
<!DOCTYPE svg PUBLIC "-//W3C//DTD SVG 1.1//EN"
 "http://www.w3.org/Graphics/SVG/1.1/DTD/svg11.dtd">
<!-- Generated by graphviz version 2.43.0 (0)
 -->
<!-- Title: time.h Pages: 1 -->
<svg width="1126pt" height="386pt"
 viewBox="0.00 0.00 1126.00 386.00" xmlns="http://www.w3.org/2000/svg" xmlns:xlink="http://www.w3.org/1999/xlink">
<g id="graph0" class="graph" transform="scale(1 1) rotate(0) translate(4 382)">
<title>time.h</title>
<!-- Node1 -->
<g id="node1" class="node">
<title>Node1</title>
<g id="a_node1"><a xlink:title=" ">
<polygon fill="#bfbfbf" stroke="black" points="504,-358.5 504,-377.5 552,-377.5 552,-358.5 504,-358.5"/>
<text text-anchor="middle" x="528" y="-365.5" font-family="Helvetica,sans-Serif" font-size="10.00">time.h</text>
</a>
</g>
</g>
<!-- Node2 -->
<g id="node2" class="node">
<title>Node2</title>
<g id="a_node2"><a xlink:title=" ">
<polygon fill="none" stroke="#bfbfbf" points="606.5,-118 606.5,-137 695.5,-137 695.5,-118 606.5,-118"/>
<text text-anchor="middle" x="651" y="-125" font-family="Helvetica,sans-Serif" font-size="10.00">limes_export.h</text>
</a>
</g>
</g>
<!-- Node1&#45;&gt;Node2 -->
<g id="edge1" class="edge">
<title>Node1&#45;&gt;Node2</title>
<path fill="none" stroke="midnightblue" d="M552.37,-365.73C604.53,-361.54 726.32,-343.5 777,-266 788.24,-248.81 795.2,-214 769,-179 758.91,-165.52 719.6,-150.35 689.09,-140.19"/>
<polygon fill="midnightblue" stroke="midnightblue" points="690.14,-136.85 679.55,-137.08 687.97,-143.51 690.14,-136.85"/>
</g>
<!-- Node3 -->
<g id="node3" class="node">
<title>Node3</title>
<g id="a_node3"><a xlink:href="../../da/d0b/limes__namespace_8h.html" target="_top" xlink:title=" ">
<polygon fill="none" stroke="black" points="147,-118 147,-137 261,-137 261,-118 147,-118"/>
<text text-anchor="middle" x="204" y="-125" font-family="Helvetica,sans-Serif" font-size="10.00">limes_namespace.h</text>
</a>
</g>
</g>
<!-- Node1&#45;&gt;Node3 -->
<g id="edge2" class="edge">
<title>Node1&#45;&gt;Node3</title>
<path fill="none" stroke="midnightblue" d="M503.81,-364.99C422.61,-357.67 162.17,-329.51 114,-266 100.03,-247.58 105.29,-214.88 130,-179 141.11,-162.88 159.18,-150.4 174.69,-141.88"/>
<polygon fill="midnightblue" stroke="midnightblue" points="176.66,-144.8 183.92,-137.09 173.44,-138.59 176.66,-144.8"/>
</g>
<!-- Node4 -->
<g id="node4" class="node">
<title>Node4</title>
<g id="a_node4"><a xlink:href="../../d3/d53/preprocessor_8h.html" target="_top" xlink:title=" ">
<polygon fill="none" stroke="black" points="251.5,-56.5 251.5,-75.5 374.5,-75.5 374.5,-56.5 251.5,-56.5"/>
<text text-anchor="middle" x="313" y="-63.5" font-family="Helvetica,sans-Serif" font-size="10.00">../misc/preprocessor.h</text>
</a>
</g>
</g>
<!-- Node1&#45;&gt;Node4 -->
<g id="edge3" class="edge">
<title>Node1&#45;&gt;Node4</title>
<path fill="none" stroke="midnightblue" d="M503.94,-367.19C400.65,-367.38 0,-361.4 0,-257 0,-257 0,-257 0,-193.5 0,-133.37 53.37,-137.14 108,-112 149.96,-92.69 200.63,-81.47 241.09,-75.06"/>
<polygon fill="midnightblue" stroke="midnightblue" points="241.79,-78.5 251.15,-73.54 240.73,-71.58 241.79,-78.5"/>
</g>
<!-- Node6 -->
<g id="node6" class="node">
<title>Node6</title>
<g id="a_node6"><a xlink:href="../../d4/d37/hour_8h.html" target="_top" xlink:title=" ">
<polygon fill="none" stroke="black" points="452.5,-302.5 452.5,-321.5 499.5,-321.5 499.5,-302.5 452.5,-302.5"/>
<text text-anchor="middle" x="476" y="-309.5" font-family="Helvetica,sans-Serif" font-size="10.00">hour.h</text>
</a>
</g>
</g>
<!-- Node1&#45;&gt;Node6 -->
<g id="edge5" class="edge">
<title>Node1&#45;&gt;Node6</title>
<path fill="none" stroke="midnightblue" d="M519.41,-358.08C511.84,-350.22 500.62,-338.57 491.49,-329.08"/>
<polygon fill="midnightblue" stroke="midnightblue" points="493.88,-326.53 484.43,-321.75 488.84,-331.38 493.88,-326.53"/>
</g>
<!-- Node7 -->
<g id="node7" class="node">
<title>Node7</title>
<g id="a_node7"><a xlink:href="../../d0/d00/compiler__defs_8h.html" target="_top" xlink:title=" ">
<polygon fill="none" stroke="black" points="436.5,-112.5 436.5,-142.5 543.5,-142.5 543.5,-112.5 436.5,-112.5"/>
<text text-anchor="start" x="444.5" y="-130.5" font-family="Helvetica,sans-Serif" font-size="10.00">../system/compiler</text>
<text text-anchor="middle" x="490" y="-119.5" font-family="Helvetica,sans-Serif" font-size="10.00">_defs.h</text>
</a>
</g>
</g>
<!-- Node1&#45;&gt;Node7 -->
<g id="edge27" class="edge">
<title>Node1&#45;&gt;Node7</title>
<path fill="none" stroke="midnightblue" d="M526.6,-358.23C521.28,-324.81 502.14,-204.69 493.86,-152.73"/>
<polygon fill="midnightblue" stroke="midnightblue" points="497.3,-152.06 492.27,-142.74 490.39,-153.16 497.3,-152.06"/>
</g>
<!-- Node8 -->
<g id="node8" class="node">
<title>Node8</title>
<g id="a_node8"><a xlink:title=" ">
<polygon fill="none" stroke="#bfbfbf" points="556,-185 556,-204 600,-204 600,-185 556,-185"/>
<text text-anchor="middle" x="578" y="-192" font-family="Helvetica,sans-Serif" font-size="10.00">ctime</text>
</a>
</g>
</g>
<!-- Node1&#45;&gt;Node8 -->
<g id="edge28" class="edge">
<title>Node1&#45;&gt;Node8</title>
<path fill="none" stroke="midnightblue" d="M530.75,-358.39C533.62,-349.35 538.22,-334.7 542,-322 553.42,-283.67 566.06,-238.56 572.91,-213.9"/>
<polygon fill="midnightblue" stroke="midnightblue" points="576.33,-214.68 575.63,-204.11 569.58,-212.81 576.33,-214.68"/>
</g>
<!-- Node16 -->
<g id="node13" class="node">
<title>Node16</title>
<g id="a_node13"><a xlink:title=" ">
<polygon fill="none" stroke="#bfbfbf" points="1074,-118 1074,-137 1118,-137 1118,-118 1074,-118"/>
<text text-anchor="middle" x="1096" y="-125" font-family="Helvetica,sans-Serif" font-size="10.00">string</text>
</a>
</g>
</g>
<!-- Node1&#45;&gt;Node16 -->
<g id="edge29" class="edge">
<title>Node1&#45;&gt;Node16</title>
<path fill="none" stroke="midnightblue" d="M552.17,-363.59C592.26,-357.56 674.76,-343.58 742,-322 859.86,-284.17 891.56,-274.84 997,-210 1028.72,-190.5 1061.25,-161.69 1079.99,-144.06"/>
<polygon fill="midnightblue" stroke="midnightblue" points="1082.54,-146.47 1087.36,-137.04 1077.71,-141.4 1082.54,-146.47"/>
</g>
<!-- Node17 -->
<g id="node14" class="node">
<title>Node17</title>
<g id="a_node14"><a xlink:href="../../d5/dd4/time__utils_8h.html" target="_top" xlink:title=" ">
<polygon fill="none" stroke="black" points="694,-246.5 694,-265.5 768,-265.5 768,-246.5 694,-246.5"/>
<text text-anchor="middle" x="731" y="-253.5" font-family="Helvetica,sans-Serif" font-size="10.00">time_utils.h</text>
</a>
</g>
</g>
<!-- Node1&#45;&gt;Node17 -->
<g id="edge30" class="edge">
<title>Node1&#45;&gt;Node17</title>
<path fill="none" stroke="midnightblue" d="M546.09,-358.34C564.38,-349.5 593.38,-335.22 618,-322 649.4,-305.14 684.94,-284.42 707.63,-270.97"/>
<polygon fill="midnightblue" stroke="midnightblue" points="709.72,-273.81 716.53,-265.69 706.14,-267.79 709.72,-273.81"/>
</g>
<!-- Node23 -->
<g id="node20" class="node">
<title>Node23</title>
<g id="a_node20"><a xlink:href="../../d3/d09/time__impl_8h.html" target="_top" xlink:title=" ">
<polygon fill="none" stroke="black" points="123,-246.5 123,-265.5 223,-265.5 223,-246.5 123,-246.5"/>
<text text-anchor="middle" x="173" y="-253.5" font-family="Helvetica,sans-Serif" font-size="10.00">impl/time_impl.h</text>
</a>
</g>
</g>
<!-- Node1&#45;&gt;Node23 -->
<g id="edge46" class="edge">
<title>Node1&#45;&gt;Node23</title>
<path fill="none" stroke="midnightblue" d="M503.88,-359.53C443.07,-340.68 283.16,-291.13 210.22,-268.53"/>
<polygon fill="midnightblue" stroke="midnightblue" points="211.12,-265.15 200.53,-265.53 209.04,-271.83 211.12,-265.15"/>
</g>
<!-- Node5 -->
<g id="node5" class="node">
<title>Node5</title>
<g id="a_node5"><a xlink:title=" ">
<polygon fill="none" stroke="#bfbfbf" points="399,-0.5 399,-19.5 499,-19.5 499,-0.5 399,-0.5"/>
<text text-anchor="middle" x="449" y="-7.5" font-family="Helvetica,sans-Serif" font-size="10.00">limes_platform.h</text>
</a>
</g>
</g>
<!-- Node4&#45;&gt;Node5 -->
<g id="edge4" class="edge">
<title>Node4&#45;&gt;Node5</title>
<path fill="none" stroke="midnightblue" d="M334.55,-56.44C357.03,-47.52 392.49,-33.44 417.98,-23.32"/>
<polygon fill="midnightblue" stroke="midnightblue" points="419.55,-26.46 427.55,-19.52 416.97,-19.95 419.55,-26.46"/>
</g>
<!-- Node6&#45;&gt;Node2 -->
<g id="edge6" class="edge">
<title>Node6&#45;&gt;Node2</title>
<path fill="none" stroke="midnightblue" d="M491.86,-302.34C518.93,-286.88 574.47,-252.18 609,-210 624.95,-190.52 637.22,-164 644.27,-146.57"/>
<polygon fill="midnightblue" stroke="midnightblue" points="647.62,-147.63 647.98,-137.04 641.09,-145.1 647.62,-147.63"/>
</g>
<!-- Node6&#45;&gt;Node3 -->
<g id="edge7" class="edge">
<title>Node6&#45;&gt;Node3</title>
<path fill="none" stroke="midnightblue" d="M452.36,-306.28C390.24,-293.34 225.27,-255.21 197,-210 185.09,-190.95 190.57,-164.33 196.5,-146.76"/>
<polygon fill="midnightblue" stroke="midnightblue" points="199.87,-147.74 200.09,-137.15 193.31,-145.29 199.87,-147.74"/>
</g>
<!-- Node6&#45;&gt;Node4 -->
<g id="edge8" class="edge">
<title>Node6&#45;&gt;Node4</title>
<path fill="none" stroke="midnightblue" d="M452.32,-309.84C375.44,-305.84 136.48,-291.45 114,-266 84.6,-232.72 -28.52,-291.41 138,-112 152.37,-96.51 200.07,-84.87 242.05,-77.3"/>
<polygon fill="midnightblue" stroke="midnightblue" points="242.76,-80.73 252.01,-75.57 241.56,-73.84 242.76,-80.73"/>
</g>
<!-- Node6&#45;&gt;Node7 -->
<g id="edge9" class="edge">
<title>Node6&#45;&gt;Node7</title>
<path fill="none" stroke="midnightblue" d="M476.68,-302.2C478.74,-275.33 485,-193.74 488.15,-152.67"/>
<polygon fill="midnightblue" stroke="midnightblue" points="491.64,-152.93 488.91,-142.69 484.66,-152.4 491.64,-152.93"/>
</g>
<!-- Node6&#45;&gt;Node8 -->
<g id="edge12" class="edge">
<title>Node6&#45;&gt;Node8</title>
<path fill="none" stroke="midnightblue" d="M483.67,-302.32C500.65,-283.09 541.67,-236.64 563.6,-211.81"/>
<polygon fill="midnightblue" stroke="midnightblue" points="566.25,-214.09 570.24,-204.28 561,-209.46 566.25,-214.09"/>
</g>
<!-- Node9 -->
<g id="node9" class="node">
<title>Node9</title>
<g id="a_node9"><a xlink:href="../../d5/dab/hour__impl_8h.html" target="_top" xlink:title=" ">
<polygon fill="none" stroke="black" points="320.5,-246.5 320.5,-265.5 419.5,-265.5 419.5,-246.5 320.5,-246.5"/>
<text text-anchor="middle" x="370" y="-253.5" font-family="Helvetica,sans-Serif" font-size="10.00">impl/hour_impl.h</text>
</a>
</g>
</g>
<!-- Node6&#45;&gt;Node9 -->
<g id="edge13" class="edge">
<title>Node6&#45;&gt;Node9</title>
<path fill="none" stroke="midnightblue" d="M458.97,-302.32C441.97,-293.66 415.62,-280.24 396.01,-270.25"/>
<polygon fill="midnightblue" stroke="midnightblue" points="397.49,-267.08 386.99,-265.65 394.31,-273.31 397.49,-267.08"/>
</g>
<!-- Node7&#45;&gt;Node4 -->
<g id="edge11" class="edge">
<title>Node7&#45;&gt;Node4</title>
<path fill="none" stroke="midnightblue" d="M448.05,-112.4C417.6,-102.16 376.87,-88.47 348.13,-78.81"/>
<polygon fill="midnightblue" stroke="midnightblue" points="349.09,-75.44 338.5,-75.57 346.86,-82.07 349.09,-75.44"/>
</g>
<!-- Node7&#45;&gt;Node5 -->
<g id="edge10" class="edge">
<title>Node7&#45;&gt;Node5</title>
<path fill="none" stroke="midnightblue" d="M484.97,-112.34C477.55,-91.43 463.66,-52.31 455.49,-29.27"/>
<polygon fill="midnightblue" stroke="midnightblue" points="458.72,-27.92 452.08,-19.67 452.12,-30.26 458.72,-27.92"/>
</g>
<!-- Node9&#45;&gt;Node3 -->
<g id="edge14" class="edge">
<title>Node9&#45;&gt;Node3</title>
<path fill="none" stroke="midnightblue" d="M320.2,-254.3C285.13,-250.97 239.97,-240.46 214,-210 199.29,-192.75 199,-165.49 200.89,-147.31"/>
<polygon fill="midnightblue" stroke="midnightblue" points="204.36,-147.71 202.23,-137.33 197.43,-146.77 204.36,-147.71"/>
</g>
<!-- Node10 -->
<g id="node10" class="node">
<title>Node10</title>
<g id="a_node10"><a xlink:href="../../d5/dbb/limes__assert_8h.html" target="_top" xlink:title=" ">
<polygon fill="none" stroke="red" points="360.5,-179.5 360.5,-209.5 461.5,-209.5 461.5,-179.5 360.5,-179.5"/>
<text text-anchor="start" x="368.5" y="-197.5" font-family="Helvetica,sans-Serif" font-size="10.00">../../system/limes</text>
<text text-anchor="middle" x="411" y="-186.5" font-family="Helvetica,sans-Serif" font-size="10.00">_assert.h</text>
</a>
</g>
</g>
<!-- Node9&#45;&gt;Node10 -->
<g id="edge15" class="edge">
<title>Node9&#45;&gt;Node10</title>
<path fill="none" stroke="midnightblue" d="M375.87,-246.48C381.01,-239.02 388.71,-227.85 395.59,-217.87"/>
<polygon fill="midnightblue" stroke="midnightblue" points="398.55,-219.74 401.34,-209.52 392.78,-215.77 398.55,-219.74"/>
</g>
<!-- Node15 -->
<g id="node12" class="node">
<title>Node15</title>
<g id="a_node12"><a xlink:href="../../dc/db3/build__date_8h.html" target="_top" xlink:title=" ">
<polygon fill="none" stroke="black" points="256,-185 256,-204 342,-204 342,-185 256,-185"/>
<text text-anchor="middle" x="299" y="-192" font-family="Helvetica,sans-Serif" font-size="10.00">../build_date.h</text>
</a>
</g>
</g>
<!-- Node9&#45;&gt;Node15 -->
<g id="edge22" class="edge">
<title>Node9&#45;&gt;Node15</title>
<path fill="none" stroke="midnightblue" d="M359.83,-246.48C348.65,-237.11 330.48,-221.88 316.91,-210.51"/>
<polygon fill="midnightblue" stroke="midnightblue" points="319.07,-207.75 309.15,-204.01 314.57,-213.11 319.07,-207.75"/>
</g>
<!-- Node10&#45;&gt;Node2 -->
<g id="edge16" class="edge">
<title>Node10&#45;&gt;Node2</title>
<path fill="none" stroke="midnightblue" d="M461.6,-179.79C505.69,-167.85 568.82,-150.76 609.86,-139.64"/>
<polygon fill="midnightblue" stroke="midnightblue" points="610.8,-143.01 619.54,-137.02 608.97,-136.26 610.8,-143.01"/>
</g>
<!-- Node10&#45;&gt;Node3 -->
<g id="edge17" class="edge">
<title>Node10&#45;&gt;Node3</title>
<path fill="none" stroke="midnightblue" d="M366.34,-179.48C328.91,-167.72 276.11,-151.14 241.01,-140.12"/>
<polygon fill="midnightblue" stroke="midnightblue" points="241.75,-136.69 231.16,-137.03 239.65,-143.36 241.75,-136.69"/>
</g>
<!-- Node10&#45;&gt;Node4 -->
<g id="edge18" class="edge">
<title>Node10&#45;&gt;Node4</title>
<path fill="none" stroke="midnightblue" d="M400.14,-179.48C382.03,-156.1 345.73,-109.25 326.19,-84.02"/>
<polygon fill="midnightblue" stroke="midnightblue" points="328.7,-81.55 319.81,-75.79 323.17,-85.84 328.7,-81.55"/>
</g>
<!-- Node10&#45;&gt;Node5 -->
<g id="edge20" class="edge">
<title>Node10&#45;&gt;Node5</title>
<path fill="none" stroke="midnightblue" d="M413.92,-179.48C420.69,-146.96 437.48,-66.34 445.11,-29.68"/>
<polygon fill="midnightblue" stroke="midnightblue" points="448.55,-30.32 447.16,-19.82 441.7,-28.9 448.55,-30.32"/>
</g>
<!-- Node10&#45;&gt;Node7 -->
<g id="edge21" class="edge">
<title>Node10&#45;&gt;Node7</title>
<path fill="none" stroke="midnightblue" d="M428.14,-179.4C438.91,-170.54 452.98,-158.96 464.98,-149.09"/>
<polygon fill="midnightblue" stroke="midnightblue" points="467.39,-151.63 472.89,-142.58 462.95,-146.23 467.39,-151.63"/>
</g>
<!-- Node11 -->
<g id="node11" class="node">
<title>Node11</title>
<g id="a_node11"><a xlink:title=" ">
<polygon fill="none" stroke="#bfbfbf" points="713.5,-118 713.5,-137 782.5,-137 782.5,-118 713.5,-118"/>
<text text-anchor="middle" x="748" y="-125" font-family="Helvetica,sans-Serif" font-size="10.00">type_traits</text>
</a>
</g>
</g>
<!-- Node10&#45;&gt;Node11 -->
<g id="edge19" class="edge">
<title>Node10&#45;&gt;Node11</title>
<path fill="none" stroke="midnightblue" d="M461.7,-187.23C520.69,-179.37 620.77,-164.3 705,-143 708.21,-142.19 711.52,-141.25 714.82,-140.26"/>
<polygon fill="midnightblue" stroke="midnightblue" points="716.08,-143.53 724.54,-137.14 713.95,-136.86 716.08,-143.53"/>
</g>
<!-- Node15&#45;&gt;Node2 -->
<g id="edge23" class="edge">
<title>Node15&#45;&gt;Node2</title>
<path fill="none" stroke="midnightblue" d="M328.03,-185C335.78,-182.88 344.18,-180.73 352,-179 397.54,-168.95 523.25,-148.62 596.36,-137.06"/>
<polygon fill="midnightblue" stroke="midnightblue" points="596.98,-140.5 606.31,-135.49 595.89,-133.59 596.98,-140.5"/>
</g>
<!-- Node15&#45;&gt;Node3 -->
<g id="edge24" class="edge">
<title>Node15&#45;&gt;Node3</title>
<path fill="none" stroke="midnightblue" d="M286.19,-184.73C270.52,-174.01 243.78,-155.72 225.07,-142.91"/>
<polygon fill="midnightblue" stroke="midnightblue" points="226.84,-139.89 216.61,-137.13 222.89,-145.66 226.84,-139.89"/>
</g>
<!-- Node15&#45;&gt;Node4 -->
<g id="edge25" class="edge">
<title>Node15&#45;&gt;Node4</title>
<path fill="none" stroke="midnightblue" d="M299.96,-184.81C302.21,-164.49 307.85,-113.55 310.92,-85.78"/>
<polygon fill="midnightblue" stroke="midnightblue" points="314.41,-86.08 312.03,-75.76 307.45,-85.31 314.41,-86.08"/>
</g>
<!-- Node15&#45;&gt;Node7 -->
<g id="edge26" class="edge">
<title>Node15&#45;&gt;Node7</title>
<path fill="none" stroke="midnightblue" d="M324.36,-184.87C353.52,-174.95 402.12,-158.41 439.15,-145.81"/>
<polygon fill="midnightblue" stroke="midnightblue" points="440.44,-149.06 448.78,-142.53 438.18,-142.44 440.44,-149.06"/>
</g>
<!-- Node17&#45;&gt;Node2 -->
<g id="edge31" class="edge">
<title>Node17&#45;&gt;Node2</title>
<path fill="none" stroke="midnightblue" d="M737.71,-246.41C748.37,-231.64 766.62,-200.94 753,-179 745.16,-166.37 711.28,-151.13 684.69,-140.72"/>
<polygon fill="midnightblue" stroke="midnightblue" points="685.87,-137.43 675.28,-137.12 683.37,-143.96 685.87,-137.43"/>
</g>
<!-- Node17&#45;&gt;Node3 -->
<g id="edge32" class="edge">
<title>Node17&#45;&gt;Node3</title>
<path fill="none" stroke="midnightblue" d="M693.69,-253.56C586.65,-249.16 283.88,-234.64 247,-210 225.22,-195.45 213.71,-166.16 208.24,-146.95"/>
<polygon fill="midnightblue" stroke="midnightblue" points="211.62,-146.04 205.74,-137.22 204.84,-147.78 211.62,-146.04"/>
</g>
<!-- Node17&#45;&gt;Node7 -->
<g id="edge45" class="edge">
<title>Node17&#45;&gt;Node7</title>
<path fill="none" stroke="midnightblue" d="M718.56,-246.34C696.91,-231.48 650.63,-200.63 609,-179 585.75,-166.92 558.97,-155.36 536.7,-146.35"/>
<polygon fill="midnightblue" stroke="midnightblue" points="537.72,-142.99 527.14,-142.53 535.12,-149.49 537.72,-142.99"/>
</g>
<!-- Node17&#45;&gt;Node8 -->
<g id="edge34" class="edge">
<title>Node17&#45;&gt;Node8</title>
<path fill="none" stroke="midnightblue" d="M708.53,-246.48C684.94,-237.5 646.81,-222.91 614,-210 612.36,-209.36 610.68,-208.69 608.99,-208.02"/>
<polygon fill="midnightblue" stroke="midnightblue" points="609.88,-204.61 599.3,-204.14 607.28,-211.11 609.88,-204.61"/>
</g>
<!-- Node17&#45;&gt;Node11 -->
<g id="edge35" class="edge">
<title>Node17&#45;&gt;Node11</title>
<path fill="none" stroke="midnightblue" d="M748.2,-246.39C761.25,-238.79 778.23,-226.39 786,-210 796.7,-187.41 779.16,-161.2 764.51,-144.74"/>
<polygon fill="midnightblue" stroke="midnightblue" points="766.69,-141.95 757.28,-137.08 761.6,-146.75 766.69,-141.95"/>
</g>
<!-- Node18 -->
<g id="node15" class="node">
<title>Node18</title>
<g id="a_node15"><a xlink:title=" ">
<polygon fill="none" stroke="#bfbfbf" points="694,-185 694,-204 744,-204 744,-185 694,-185"/>
<text text-anchor="middle" x="719" y="-192" font-family="Helvetica,sans-Serif" font-size="10.00">chrono</text>
</a>
</g>
</g>
<!-- Node17&#45;&gt;Node18 -->
<g id="edge33" class="edge">
<title>Node17&#45;&gt;Node18</title>
<path fill="none" stroke="midnightblue" d="M729.28,-246.48C727.57,-237.99 724.89,-224.7 722.7,-213.82"/>
<polygon fill="midnightblue" stroke="midnightblue" points="726.12,-213.12 720.72,-204.01 719.26,-214.5 726.12,-213.12"/>
</g>
<!-- Node19 -->
<g id="node16" class="node">
<title>Node19</title>
<g id="a_node16"><a xlink:href="../../d4/dd5/_type_traits_8h.html" target="_top" xlink:title=" ">
<polygon fill="none" stroke="black" points="876,-185 876,-204 988,-204 988,-185 876,-185"/>
<text text-anchor="middle" x="932" y="-192" font-family="Helvetica,sans-Serif" font-size="10.00">../meta/TypeTraits.h</text>
</a>
</g>
</g>
<!-- Node17&#45;&gt;Node19 -->
<g id="edge36" class="edge">
<title>Node17&#45;&gt;Node19</title>
<path fill="none" stroke="midnightblue" d="M759.8,-246.48C794.87,-236.09 854.26,-218.51 893.31,-206.95"/>
<polygon fill="midnightblue" stroke="midnightblue" points="894.66,-210.2 903.26,-204.01 892.67,-203.49 894.66,-210.2"/>
</g>
<!-- Node19&#45;&gt;Node2 -->
<g id="edge40" class="edge">
<title>Node19&#45;&gt;Node2</title>
<path fill="none" stroke="midnightblue" d="M891.28,-185C845.75,-175.36 769.89,-158.92 705,-143 700.64,-141.93 696.09,-140.77 691.57,-139.6"/>
<polygon fill="midnightblue" stroke="midnightblue" points="692.34,-136.18 681.78,-137.01 690.56,-142.95 692.34,-136.18"/>
</g>
<!-- Node19&#45;&gt;Node3 -->
<g id="edge42" class="edge">
<title>Node19&#45;&gt;Node3</title>
<path fill="none" stroke="midnightblue" d="M875.78,-188.48C743.68,-176.69 413.93,-147.24 271.39,-134.52"/>
<polygon fill="midnightblue" stroke="midnightblue" points="271.32,-131 261.05,-133.59 270.7,-137.97 271.32,-131"/>
</g>
<!-- Node19&#45;&gt;Node5 -->
<g id="edge41" class="edge">
<title>Node19&#45;&gt;Node5</title>
<path fill="none" stroke="midnightblue" d="M911.98,-184.98C891.11,-175.76 857.78,-160.07 831,-143 812.33,-131.1 811.65,-122.2 792,-112 699.19,-63.8 579.99,-35.3 509.33,-21.45"/>
<polygon fill="midnightblue" stroke="midnightblue" points="509.75,-17.96 499.27,-19.51 508.42,-24.83 509.75,-17.96"/>
</g>
<!-- Node19&#45;&gt;Node11 -->
<g id="edge37" class="edge">
<title>Node19&#45;&gt;Node11</title>
<path fill="none" stroke="midnightblue" d="M907.57,-184.87C875.31,-173.47 818.35,-153.35 781.93,-140.49"/>
<polygon fill="midnightblue" stroke="midnightblue" points="782.84,-137.09 772.24,-137.06 780.5,-143.69 782.84,-137.09"/>
</g>
<!-- Node19&#45;&gt;Node16 -->
<g id="edge39" class="edge">
<title>Node19&#45;&gt;Node16</title>
<path fill="none" stroke="midnightblue" d="M956.24,-184.91C983.07,-175.27 1027.47,-158.88 1065,-143 1066.37,-142.42 1067.76,-141.82 1069.17,-141.2"/>
<polygon fill="midnightblue" stroke="midnightblue" points="1070.74,-144.33 1078.4,-137.01 1067.84,-137.96 1070.74,-144.33"/>
</g>
<!-- Node20 -->
<g id="node17" class="node">
<title>Node20</title>
<g id="a_node17"><a xlink:title=" ">
<polygon fill="none" stroke="#bfbfbf" points="839.5,-118 839.5,-137 896.5,-137 896.5,-118 839.5,-118"/>
<text text-anchor="middle" x="868" y="-125" font-family="Helvetica,sans-Serif" font-size="10.00">typeinfo</text>
</a>
</g>
</g>
<!-- Node19&#45;&gt;Node20 -->
<g id="edge38" class="edge">
<title>Node19&#45;&gt;Node20</title>
<path fill="none" stroke="midnightblue" d="M923.37,-184.73C913.2,-174.4 896.1,-157.04 883.59,-144.33"/>
<polygon fill="midnightblue" stroke="midnightblue" points="886,-141.8 876.49,-137.13 881.02,-146.71 886,-141.8"/>
</g>
<!-- Node21 -->
<g id="node18" class="node">
<title>Node21</title>
<g id="a_node18"><a xlink:title=" ">
<polygon fill="none" stroke="#bfbfbf" points="914.5,-118 914.5,-137 979.5,-137 979.5,-118 914.5,-118"/>
<text text-anchor="middle" x="947" y="-125" font-family="Helvetica,sans-Serif" font-size="10.00">exception</text>
</a>
</g>
</g>
<!-- Node19&#45;&gt;Node21 -->
<g id="edge43" class="edge">
<title>Node19&#45;&gt;Node21</title>
<path fill="none" stroke="midnightblue" d="M934.02,-184.73C936.25,-175.09 939.89,-159.3 942.75,-146.91"/>
<polygon fill="midnightblue" stroke="midnightblue" points="946.17,-147.66 945.01,-137.13 939.35,-146.08 946.17,-147.66"/>
</g>
<!-- Node22 -->
<g id="node19" class="node">
<title>Node22</title>
<g id="a_node19"><a xlink:title=" ">
<polygon fill="none" stroke="#bfbfbf" points="998,-118 998,-137 1056,-137 1056,-118 998,-118"/>
<text text-anchor="middle" x="1027" y="-125" font-family="Helvetica,sans-Serif" font-size="10.00">cxxabi.h</text>
</a>
</g>
</g>
<!-- Node19&#45;&gt;Node22 -->
<g id="edge44" class="edge">
<title>Node19&#45;&gt;Node22</title>
<path fill="none" stroke="midnightblue" d="M944.81,-184.73C960.48,-174.01 987.22,-155.72 1005.93,-142.91"/>
<polygon fill="midnightblue" stroke="midnightblue" points="1008.11,-145.66 1014.39,-137.13 1004.16,-139.89 1008.11,-145.66"/>
</g>
<!-- Node23&#45;&gt;Node3 -->
<g id="edge47" class="edge">
<title>Node23&#45;&gt;Node3</title>
<path fill="none" stroke="midnightblue" d="M163.44,-246.45C154.91,-238.12 143.01,-224.6 138,-210 133.53,-196.97 131.9,-191.35 138,-179 145.92,-162.98 161.62,-150.64 175.73,-142.17"/>
<polygon fill="midnightblue" stroke="midnightblue" points="177.65,-145.1 184.67,-137.16 174.23,-138.99 177.65,-145.1"/>
</g>
<!-- Node23&#45;&gt;Node15 -->
<g id="edge48" class="edge">
<title>Node23&#45;&gt;Node15</title>
<path fill="none" stroke="midnightblue" d="M191.05,-246.48C212.2,-236.49 247.44,-219.85 271.88,-208.31"/>
<polygon fill="midnightblue" stroke="midnightblue" points="273.43,-211.44 280.98,-204.01 270.44,-205.11 273.43,-211.44"/>
</g>
</g>
</svg>
