<?xml version="1.0" encoding="UTF-8" standalone="no"?>
<!DOCTYPE svg PUBLIC "-//W3C//DTD SVG 1.1//EN"
 "http://www.w3.org/Graphics/SVG/1.1/DTD/svg11.dtd">
<!-- Generated by graphviz version 2.43.0 (0)
 -->
<!-- Title: Mode.h Pages: 1 -->
<svg width="656pt" height="308pt"
 viewBox="0.00 0.00 656.00 308.00" xmlns="http://www.w3.org/2000/svg" xmlns:xlink="http://www.w3.org/1999/xlink">
<g id="graph0" class="graph" transform="scale(1 1) rotate(0) translate(4 304)">
<title>Mode.h</title>
<!-- Node1 -->
<g id="node1" class="node">
<title>Node1</title>
<g id="a_node1"><a xlink:title=" ">
<polygon fill="#bfbfbf" stroke="black" points="336.5,-280.5 336.5,-299.5 389.5,-299.5 389.5,-280.5 336.5,-280.5"/>
<text text-anchor="middle" x="363" y="-287.5" font-family="Helvetica,sans-Serif" font-size="10.00">Mode.h</text>
</a>
</g>
</g>
<!-- Node2 -->
<g id="node2" class="node">
<title>Node2</title>
<g id="a_node2"><a xlink:title=" ">
<polygon fill="none" stroke="#bfbfbf" points="31.5,-0.5 31.5,-19.5 120.5,-19.5 120.5,-0.5 31.5,-0.5"/>
<text text-anchor="middle" x="76" y="-7.5" font-family="Helvetica,sans-Serif" font-size="10.00">limes_export.h</text>
</a>
</g>
</g>
<!-- Node1&#45;&gt;Node2 -->
<g id="edge1" class="edge">
<title>Node1&#45;&gt;Node2</title>
<path fill="none" stroke="midnightblue" d="M336.31,-286.72C252.48,-278.85 0,-249.3 0,-179 0,-179 0,-179 0,-121 0,-81.28 33.96,-45.5 56.48,-26.15"/>
<polygon fill="midnightblue" stroke="midnightblue" points="58.98,-28.63 64.46,-19.57 54.52,-23.24 58.98,-28.63"/>
</g>
<!-- Node3 -->
<g id="node3" class="node">
<title>Node3</title>
<g id="a_node3"><a xlink:href="../../dd/d47/_key_signature_8h.html" target="_top" xlink:title=" ">
<polygon fill="none" stroke="black" points="402,-224.5 402,-243.5 492,-243.5 492,-224.5 402,-224.5"/>
<text text-anchor="middle" x="447" y="-231.5" font-family="Helvetica,sans-Serif" font-size="10.00">KeySignature.h</text>
</a>
</g>
</g>
<!-- Node1&#45;&gt;Node3 -->
<g id="edge2" class="edge">
<title>Node1&#45;&gt;Node3</title>
<path fill="none" stroke="midnightblue" d="M376.5,-280.32C389.6,-271.9 409.71,-258.97 425.11,-249.07"/>
<polygon fill="midnightblue" stroke="midnightblue" points="427.02,-252.01 433.54,-243.65 423.23,-246.12 427.02,-252.01"/>
</g>
<!-- Node4 -->
<g id="node4" class="node">
<title>Node4</title>
<g id="a_node4"><a xlink:href="../../d4/d81/_scale_8h.html" target="_top" xlink:title=" ">
<polygon fill="none" stroke="black" points="242,-168.5 242,-187.5 294,-187.5 294,-168.5 242,-168.5"/>
<text text-anchor="middle" x="268" y="-175.5" font-family="Helvetica,sans-Serif" font-size="10.00">Scale.h</text>
</a>
</g>
</g>
<!-- Node1&#45;&gt;Node4 -->
<g id="edge24" class="edge">
<title>Node1&#45;&gt;Node4</title>
<path fill="none" stroke="midnightblue" d="M355.55,-280.37C339.73,-262.05 302.59,-219.05 282.13,-195.36"/>
<polygon fill="midnightblue" stroke="midnightblue" points="284.6,-192.87 275.42,-187.59 279.31,-197.45 284.6,-192.87"/>
</g>
<!-- Node6 -->
<g id="node6" class="node">
<title>Node6</title>
<g id="a_node6"><a xlink:href="../../d4/dc3/_pitch_class_8h.html" target="_top" xlink:title=" ">
<polygon fill="none" stroke="red" points="294,-56.5 294,-75.5 370,-75.5 370,-56.5 294,-56.5"/>
<text text-anchor="middle" x="332" y="-63.5" font-family="Helvetica,sans-Serif" font-size="10.00">PitchClass.h</text>
</a>
</g>
</g>
<!-- Node1&#45;&gt;Node6 -->
<g id="edge25" class="edge">
<title>Node1&#45;&gt;Node6</title>
<path fill="none" stroke="midnightblue" d="M389.6,-288.98C422,-287.33 475.54,-279.08 501,-244 506.22,-236.81 502.65,-232.73 501,-224 491.05,-171.45 495.36,-149.27 457,-112 436.19,-91.78 405.65,-80.57 379.96,-74.39"/>
<polygon fill="midnightblue" stroke="midnightblue" points="380.54,-70.93 370.02,-72.19 379.03,-77.77 380.54,-70.93"/>
</g>
<!-- Node8 -->
<g id="node7" class="node">
<title>Node8</title>
<g id="a_node7"><a xlink:href="../../da/d0b/limes__namespace_8h.html" target="_top" xlink:title=" ">
<polygon fill="none" stroke="black" points="223,-0.5 223,-19.5 337,-19.5 337,-0.5 223,-0.5"/>
<text text-anchor="middle" x="280" y="-7.5" font-family="Helvetica,sans-Serif" font-size="10.00">limes_namespace.h</text>
</a>
</g>
</g>
<!-- Node1&#45;&gt;Node8 -->
<g id="edge27" class="edge">
<title>Node1&#45;&gt;Node8</title>
<path fill="none" stroke="midnightblue" d="M342.5,-280.43C299.75,-261.26 201.98,-210.36 165,-132 151.76,-103.94 192.86,-56.14 193,-56 207.18,-41.63 226.91,-30.91 244,-23.55"/>
<polygon fill="midnightblue" stroke="midnightblue" points="245.76,-26.61 253.7,-19.6 243.11,-20.13 245.76,-26.61"/>
</g>
<!-- Node9 -->
<g id="node8" class="node">
<title>Node9</title>
<g id="a_node8"><a xlink:href="../../d9/df8/limes__core_8h.html" target="_top" xlink:title=" ">
<polygon fill="none" stroke="red" points="483.5,-0.5 483.5,-19.5 562.5,-19.5 562.5,-0.5 483.5,-0.5"/>
<text text-anchor="middle" x="523" y="-7.5" font-family="Helvetica,sans-Serif" font-size="10.00">limes_core.h</text>
</a>
</g>
</g>
<!-- Node1&#45;&gt;Node9 -->
<g id="edge28" class="edge">
<title>Node1&#45;&gt;Node9</title>
<path fill="none" stroke="midnightblue" d="M389.56,-284.62C460.31,-272.21 648,-234.09 648,-179 648,-179 648,-179 648,-121 648,-72.17 593.58,-39.89 556.56,-23.58"/>
<polygon fill="midnightblue" stroke="midnightblue" points="557.68,-20.25 547.1,-19.59 554.95,-26.7 557.68,-20.25"/>
</g>
<!-- Node131 -->
<g id="node9" class="node">
<title>Node131</title>
<g id="a_node9"><a xlink:href="../../d8/d1d/limes__data__structures_8h_source.html" target="_top" xlink:title=" ">
<polygon fill="none" stroke="red" points="296,-112.5 296,-131.5 430,-131.5 430,-112.5 296,-112.5"/>
<text text-anchor="middle" x="363" y="-119.5" font-family="Helvetica,sans-Serif" font-size="10.00">limes_data_structures.h</text>
</a>
</g>
</g>
<!-- Node1&#45;&gt;Node131 -->
<g id="edge26" class="edge">
<title>Node1&#45;&gt;Node131</title>
<path fill="none" stroke="midnightblue" d="M363,-280.08C363,-253.95 363,-177.21 363,-141.58"/>
<polygon fill="midnightblue" stroke="midnightblue" points="366.5,-141.57 363,-131.57 359.5,-141.57 366.5,-141.57"/>
</g>
<!-- Node3&#45;&gt;Node2 -->
<g id="edge3" class="edge">
<title>Node3&#45;&gt;Node2</title>
<path fill="none" stroke="midnightblue" d="M401.88,-229.62C336.38,-222.45 214.66,-200.23 140,-132 117.23,-111.19 113.41,-103.27 99,-76 91.14,-61.12 84.97,-42.97 81.01,-29.64"/>
<polygon fill="midnightblue" stroke="midnightblue" points="84.31,-28.42 78.22,-19.75 77.57,-30.32 84.31,-28.42"/>
</g>
<!-- Node3&#45;&gt;Node4 -->
<g id="edge4" class="edge">
<title>Node3&#45;&gt;Node4</title>
<path fill="none" stroke="midnightblue" d="M418.64,-224.44C387.64,-215.09 337.89,-200.08 304.12,-189.9"/>
<polygon fill="midnightblue" stroke="midnightblue" points="304.78,-186.44 294.19,-186.9 302.76,-193.14 304.78,-186.44"/>
</g>
<!-- Node3&#45;&gt;Node6 -->
<g id="edge17" class="edge">
<title>Node3&#45;&gt;Node6</title>
<path fill="none" stroke="midnightblue" d="M449.23,-224.38C454.21,-203.04 463.93,-146.97 439,-112 425.2,-92.65 401.41,-81.58 379.76,-75.26"/>
<polygon fill="midnightblue" stroke="midnightblue" points="380.57,-71.86 370,-72.68 378.78,-78.62 380.57,-71.86"/>
</g>
<!-- Node3&#45;&gt;Node8 -->
<g id="edge19" class="edge">
<title>Node3&#45;&gt;Node8</title>
<path fill="none" stroke="midnightblue" d="M452.64,-224.48C458.05,-215.74 465.86,-201.56 469,-188 476.71,-154.68 475.73,-140.61 457,-112 425.79,-64.32 363.77,-36.65 322.08,-22.69"/>
<polygon fill="midnightblue" stroke="midnightblue" points="323.06,-19.33 312.47,-19.6 320.91,-25.99 323.06,-19.33"/>
</g>
<!-- Node3&#45;&gt;Node9 -->
<g id="edge20" class="edge">
<title>Node3&#45;&gt;Node9</title>
<path fill="none" stroke="midnightblue" d="M473.27,-224.37C492.08,-217.1 516.98,-205.13 534,-188 573.36,-148.38 577.97,-130.31 591,-76 593.07,-67.36 595.21,-63.83 591,-56 583.38,-41.82 569.1,-31.35 555.59,-24.1"/>
<polygon fill="midnightblue" stroke="midnightblue" points="556.97,-20.88 546.45,-19.59 553.87,-27.16 556.97,-20.88"/>
</g>
<!-- Node3&#45;&gt;Node131 -->
<g id="edge18" class="edge">
<title>Node3&#45;&gt;Node131</title>
<path fill="none" stroke="midnightblue" d="M440.41,-224.37C426.48,-206.14 393.87,-163.43 375.73,-139.68"/>
<polygon fill="midnightblue" stroke="midnightblue" points="378.41,-137.41 369.56,-131.59 372.85,-141.66 378.41,-137.41"/>
</g>
<!-- Node145 -->
<g id="node10" class="node">
<title>Node145</title>
<g id="a_node10"><a xlink:href="../../d8/d57/_key_signature__impl_8h.html" target="_top" xlink:title=" ">
<polygon fill="none" stroke="black" points="464.5,-56.5 464.5,-75.5 581.5,-75.5 581.5,-56.5 464.5,-56.5"/>
<text text-anchor="middle" x="523" y="-63.5" font-family="Helvetica,sans-Serif" font-size="10.00">KeySignature_impl.h</text>
</a>
</g>
</g>
<!-- Node3&#45;&gt;Node145 -->
<g id="edge21" class="edge">
<title>Node3&#45;&gt;Node145</title>
<path fill="none" stroke="midnightblue" d="M462.49,-224.36C487.27,-209.43 534.45,-176.09 548,-132 553.09,-115.45 544.65,-97.07 536.24,-84.09"/>
<polygon fill="midnightblue" stroke="midnightblue" points="538.94,-81.84 530.31,-75.7 533.22,-85.88 538.94,-81.84"/>
</g>
<!-- Node4&#45;&gt;Node2 -->
<g id="edge5" class="edge">
<title>Node4&#45;&gt;Node2</title>
<path fill="none" stroke="midnightblue" d="M241.85,-169.78C219.72,-162.75 188.02,-150.4 165,-132 128.13,-102.54 98.91,-54.26 84.95,-28.49"/>
<polygon fill="midnightblue" stroke="midnightblue" points="87.98,-26.73 80.22,-19.52 81.79,-30 87.98,-26.73"/>
</g>
<!-- Node5 -->
<g id="node5" class="node">
<title>Node5</title>
<g id="a_node5"><a xlink:href="../../db/ddf/_pitch_8h.html" target="_top" xlink:title=" ">
<polygon fill="none" stroke="red" points="180.5,-112.5 180.5,-131.5 239.5,-131.5 239.5,-112.5 180.5,-112.5"/>
<text text-anchor="middle" x="210" y="-119.5" font-family="Helvetica,sans-Serif" font-size="10.00">../Pitch.h</text>
</a>
</g>
</g>
<!-- Node4&#45;&gt;Node5 -->
<g id="edge6" class="edge">
<title>Node4&#45;&gt;Node5</title>
<path fill="none" stroke="midnightblue" d="M258.68,-168.32C250.11,-160.34 237.19,-148.31 226.81,-138.65"/>
<polygon fill="midnightblue" stroke="midnightblue" points="229.19,-136.09 219.49,-131.83 224.42,-141.21 229.19,-136.09"/>
</g>
<!-- Node4&#45;&gt;Node6 -->
<g id="edge14" class="edge">
<title>Node4&#45;&gt;Node6</title>
<path fill="none" stroke="midnightblue" d="M269.11,-168.46C271.09,-155.5 276.09,-130.41 287,-112 293.64,-100.79 303.71,-90.36 312.64,-82.37"/>
<polygon fill="midnightblue" stroke="midnightblue" points="315.05,-84.92 320.39,-75.77 310.51,-79.59 315.05,-84.92"/>
</g>
<!-- Node4&#45;&gt;Node8 -->
<g id="edge16" class="edge">
<title>Node4&#45;&gt;Node8</title>
<path fill="none" stroke="midnightblue" d="M241.89,-171.64C208.51,-163.37 156.64,-144.88 171,-112 188.18,-72.66 229.07,-41.8 255.59,-25"/>
<polygon fill="midnightblue" stroke="midnightblue" points="257.62,-27.87 264.32,-19.66 253.96,-21.9 257.62,-27.87"/>
</g>
<!-- Node4&#45;&gt;Node131 -->
<g id="edge15" class="edge">
<title>Node4&#45;&gt;Node131</title>
<path fill="none" stroke="midnightblue" d="M283.26,-168.32C298.22,-159.82 321.25,-146.73 338.73,-136.8"/>
<polygon fill="midnightblue" stroke="midnightblue" points="340.81,-139.64 347.77,-131.65 337.35,-133.55 340.81,-139.64"/>
</g>
<!-- Node5&#45;&gt;Node2 -->
<g id="edge11" class="edge">
<title>Node5&#45;&gt;Node2</title>
<path fill="none" stroke="midnightblue" d="M199.49,-112.37C176.78,-93.73 122.94,-49.53 94.44,-26.13"/>
<polygon fill="midnightblue" stroke="midnightblue" points="96.42,-23.23 86.47,-19.59 91.97,-28.64 96.42,-23.23"/>
</g>
<!-- Node5&#45;&gt;Node6 -->
<g id="edge7" class="edge">
<title>Node5&#45;&gt;Node6</title>
<path fill="none" stroke="midnightblue" d="M229.33,-112.44C249.32,-103.6 280.74,-89.69 303.56,-79.59"/>
<polygon fill="midnightblue" stroke="midnightblue" points="305.03,-82.76 312.76,-75.52 302.2,-76.36 305.03,-82.76"/>
</g>
<!-- Node5&#45;&gt;Node8 -->
<g id="edge12" class="edge">
<title>Node5&#45;&gt;Node8</title>
<path fill="none" stroke="midnightblue" d="M215.49,-112.37C226.99,-94.3 253.8,-52.18 268.99,-28.31"/>
<polygon fill="midnightblue" stroke="midnightblue" points="272.12,-29.91 274.53,-19.59 266.21,-26.15 272.12,-29.91"/>
</g>
<!-- Node5&#45;&gt;Node9 -->
<g id="edge13" class="edge">
<title>Node5&#45;&gt;Node9</title>
<path fill="none" stroke="midnightblue" d="M217.28,-112.21C229.63,-97.94 256.15,-69.95 285,-56 345.44,-26.77 423.05,-16.5 472.92,-12.9"/>
<polygon fill="midnightblue" stroke="midnightblue" points="473.37,-16.38 483.12,-12.23 472.91,-9.4 473.37,-16.38"/>
</g>
<!-- Node6&#45;&gt;Node2 -->
<g id="edge8" class="edge">
<title>Node6&#45;&gt;Node2</title>
<path fill="none" stroke="midnightblue" d="M293.95,-56.97C249.39,-47.57 175.41,-31.97 126.18,-21.58"/>
<polygon fill="midnightblue" stroke="midnightblue" points="126.88,-18.16 116.37,-19.52 125.44,-25 126.88,-18.16"/>
</g>
<!-- Node6&#45;&gt;Node8 -->
<g id="edge9" class="edge">
<title>Node6&#45;&gt;Node8</title>
<path fill="none" stroke="midnightblue" d="M323.41,-56.08C315.84,-48.22 304.62,-36.57 295.49,-27.08"/>
<polygon fill="midnightblue" stroke="midnightblue" points="297.88,-24.53 288.43,-19.75 292.84,-29.38 297.88,-24.53"/>
</g>
<!-- Node6&#45;&gt;Node9 -->
<g id="edge10" class="edge">
<title>Node6&#45;&gt;Node9</title>
<path fill="none" stroke="midnightblue" d="M362.26,-56.44C394.96,-47.2 447.18,-32.44 483.18,-22.26"/>
<polygon fill="midnightblue" stroke="midnightblue" points="484.21,-25.61 492.88,-19.52 482.3,-18.87 484.21,-25.61"/>
</g>
<!-- Node145&#45;&gt;Node8 -->
<g id="edge23" class="edge">
<title>Node145&#45;&gt;Node8</title>
<path fill="none" stroke="midnightblue" d="M484.5,-56.44C442.19,-47.04 374.18,-31.93 328.33,-21.74"/>
<polygon fill="midnightblue" stroke="midnightblue" points="328.85,-18.27 318.32,-19.52 327.33,-25.1 328.85,-18.27"/>
</g>
<!-- Node145&#45;&gt;Node9 -->
<g id="edge22" class="edge">
<title>Node145&#45;&gt;Node9</title>
<path fill="none" stroke="midnightblue" d="M523,-56.08C523,-49.01 523,-38.86 523,-29.99"/>
<polygon fill="midnightblue" stroke="midnightblue" points="526.5,-29.75 523,-19.75 519.5,-29.75 526.5,-29.75"/>
</g>
</g>
</svg>
