<?xml version="1.0" encoding="UTF-8" standalone="no"?>
<!DOCTYPE svg PUBLIC "-//W3C//DTD SVG 1.1//EN"
 "http://www.w3.org/Graphics/SVG/1.1/DTD/svg11.dtd">
<!-- Generated by graphviz version 2.43.0 (0)
 -->
<!-- Title: threads::detail::is_rt_safe&lt; std::set&lt; T &gt;, move_tag, Tag &gt; Pages: 1 -->
<svg width="257pt" height="264pt"
 viewBox="0.00 0.00 256.50 264.00" xmlns="http://www.w3.org/2000/svg" xmlns:xlink="http://www.w3.org/1999/xlink">
<g id="graph0" class="graph" transform="scale(1 1) rotate(0) translate(4 260)">
<title>threads::detail::is_rt_safe&lt; std::set&lt; T &gt;, move_tag, Tag &gt;</title>
<!-- Node1 -->
<g id="node1" class="node">
<title>Node1</title>
<g id="a_node1"><a xlink:title=" ">
<polygon fill="#bfbfbf" stroke="black" points="23,-0.5 23,-41.5 148,-41.5 148,-0.5 23,-0.5"/>
<text text-anchor="start" x="31" y="-29.5" font-family="Helvetica,sans-Serif" font-size="10.00">threads::detail::is</text>
<text text-anchor="start" x="31" y="-18.5" font-family="Helvetica,sans-Serif" font-size="10.00">_rt_safe&lt; std::set&lt;</text>
<text text-anchor="middle" x="85.5" y="-7.5" font-family="Helvetica,sans-Serif" font-size="10.00"> T &gt;, move_tag, Tag &gt;</text>
</a>
</g>
</g>
<!-- Node2 -->
<g id="node2" class="node">
<title>Node2</title>
<g id="a_node2"><a xlink:href="../../da/d8b/structthreads_1_1detail_1_1is__rt__safe.html" target="_top" xlink:title=" ">
<polygon fill="none" stroke="black" points="20,-79.5 20,-120.5 151,-120.5 151,-79.5 20,-79.5"/>
<text text-anchor="start" x="28" y="-108.5" font-family="Helvetica,sans-Serif" font-size="10.00">threads::detail::is</text>
<text text-anchor="start" x="28" y="-97.5" font-family="Helvetica,sans-Serif" font-size="10.00">_rt_safe&lt; T, move_tag,</text>
<text text-anchor="middle" x="85.5" y="-86.5" font-family="Helvetica,sans-Serif" font-size="10.00"> Tag &gt;</text>
</a>
</g>
</g>
<!-- Node2&#45;&gt;Node1 -->
<g id="edge1" class="edge">
<title>Node2&#45;&gt;Node1</title>
<path fill="none" stroke="midnightblue" d="M85.5,-68.91C85.5,-59.79 85.5,-50.02 85.5,-41.76"/>
<polygon fill="midnightblue" stroke="midnightblue" points="82,-69.17 85.5,-79.17 89,-69.17 82,-69.17"/>
</g>
<!-- Node3 -->
<g id="node3" class="node">
<title>Node3</title>
<g id="a_node3"><a xlink:title=" ">
<polygon fill="none" stroke="#bfbfbf" points="0,-174 0,-193 89,-193 89,-174 0,-174"/>
<text text-anchor="middle" x="44.5" y="-181" font-family="Helvetica,sans-Serif" font-size="10.00">std::false_type</text>
</a>
</g>
</g>
<!-- Node3&#45;&gt;Node2 -->
<g id="edge2" class="edge">
<title>Node3&#45;&gt;Node2</title>
<path fill="none" stroke="midnightblue" d="M53.54,-164.53C60.06,-151.58 68.85,-134.1 75.56,-120.76"/>
<polygon fill="midnightblue" stroke="midnightblue" points="50.26,-163.27 48.89,-173.78 56.51,-166.42 50.26,-163.27"/>
</g>
<!-- Node4 -->
<g id="node4" class="node">
<title>Node4</title>
<g id="a_node4"><a xlink:href="../../da/d8b/structthreads_1_1detail_1_1is__rt__safe.html" target="_top" xlink:title=" ">
<polygon fill="none" stroke="black" points="107,-168.5 107,-198.5 248,-198.5 248,-168.5 107,-168.5"/>
<text text-anchor="start" x="115" y="-186.5" font-family="Helvetica,sans-Serif" font-size="10.00">threads::detail::is</text>
<text text-anchor="middle" x="177.5" y="-175.5" font-family="Helvetica,sans-Serif" font-size="10.00">_rt_safe&lt; T, Tag1, Tag2 &gt;</text>
</a>
</g>
</g>
<!-- Node4&#45;&gt;Node2 -->
<g id="edge3" class="edge">
<title>Node4&#45;&gt;Node2</title>
<path fill="none" stroke="orange" stroke-dasharray="5,2" d="M153.98,-161.66C139.69,-149 121.56,-132.94 107.54,-120.53"/>
<polygon fill="orange" stroke="orange" points="151.67,-164.29 161.47,-168.3 156.31,-159.05 151.67,-164.29"/>
<text text-anchor="middle" x="194" y="-142" font-family="Helvetica,sans-Serif" font-size="10.00"> &lt; T, move_tag, Tag &gt;</text>
</g>
<!-- Node5 -->
<g id="node5" class="node">
<title>Node5</title>
<g id="a_node5"><a xlink:title=" ">
<polygon fill="none" stroke="#bfbfbf" points="143.5,-236.5 143.5,-255.5 211.5,-255.5 211.5,-236.5 143.5,-236.5"/>
<text text-anchor="middle" x="177.5" y="-243.5" font-family="Helvetica,sans-Serif" font-size="10.00">false_type</text>
</a>
</g>
</g>
<!-- Node5&#45;&gt;Node4 -->
<g id="edge4" class="edge">
<title>Node5&#45;&gt;Node4</title>
<path fill="none" stroke="midnightblue" d="M177.5,-226.22C177.5,-217.36 177.5,-206.96 177.5,-198.76"/>
<polygon fill="midnightblue" stroke="midnightblue" points="174,-226.33 177.5,-236.33 181,-226.33 174,-226.33"/>
</g>
</g>
</svg>
