<?xml version="1.0" encoding="UTF-8" standalone="no"?>
<!DOCTYPE svg PUBLIC "-//W3C//DTD SVG 1.1//EN"
 "http://www.w3.org/Graphics/SVG/1.1/DTD/svg11.dtd">
<!-- Generated by graphviz version 2.43.0 (0)
 -->
<!-- Title: limes::music::scales::Scale Pages: 1 -->
<svg width="276pt" height="235pt"
 viewBox="0.00 0.00 276.00 235.00" xmlns="http://www.w3.org/2000/svg" xmlns:xlink="http://www.w3.org/1999/xlink">
<g id="graph0" class="graph" transform="scale(1 1) rotate(0) translate(4 231)">
<title>limes::music::scales::Scale</title>
<!-- Node1 -->
<g id="node1" class="node">
<title>Node1</title>
<g id="a_node1"><a xlink:title="A base class for any kind of musical scale.">
<polygon fill="#bfbfbf" stroke="black" points="0,-98.5 0,-128.5 116,-128.5 116,-98.5 0,-98.5"/>
<text text-anchor="start" x="8" y="-116.5" font-family="Helvetica,sans-Serif" font-size="10.00">limes::music::scales</text>
<text text-anchor="middle" x="58" y="-105.5" font-family="Helvetica,sans-Serif" font-size="10.00">::Scale</text>
</a>
</g>
</g>
<!-- Node2 -->
<g id="node2" class="node">
<title>Node2</title>
<g id="a_node2"><a xlink:href="../../dc/d53/classlimes_1_1music_1_1scales_1_1_chromatic.html" target="_top" xlink:title="A class representing a chromatic scale.">
<polygon fill="none" stroke="black" points="152,-196.5 152,-226.5 268,-226.5 268,-196.5 152,-196.5"/>
<text text-anchor="start" x="160" y="-214.5" font-family="Helvetica,sans-Serif" font-size="10.00">limes::music::scales</text>
<text text-anchor="middle" x="210" y="-203.5" font-family="Helvetica,sans-Serif" font-size="10.00">::Chromatic</text>
</a>
</g>
</g>
<!-- Node1&#45;&gt;Node2 -->
<g id="edge1" class="edge">
<title>Node1&#45;&gt;Node2</title>
<path fill="none" stroke="midnightblue" d="M82.83,-135.49C100.86,-151.36 126.76,-172.53 152,-187.5 157.45,-190.73 163.41,-193.75 169.37,-196.48"/>
<polygon fill="midnightblue" stroke="midnightblue" points="84.91,-132.66 75.12,-128.61 80.25,-137.88 84.91,-132.66"/>
</g>
<!-- Node3 -->
<g id="node3" class="node">
<title>Node3</title>
<g id="a_node3"><a xlink:href="../../d5/d0e/classlimes_1_1music_1_1scales_1_1_key_signature.html" target="_top" xlink:title="This class represents any traditional Western key signature (eg, major, natural minor,...">
<polygon fill="none" stroke="black" points="152,-147.5 152,-177.5 268,-177.5 268,-147.5 152,-147.5"/>
<text text-anchor="start" x="160" y="-165.5" font-family="Helvetica,sans-Serif" font-size="10.00">limes::music::scales</text>
<text text-anchor="middle" x="210" y="-154.5" font-family="Helvetica,sans-Serif" font-size="10.00">::KeySignature</text>
</a>
</g>
</g>
<!-- Node1&#45;&gt;Node3 -->
<g id="edge2" class="edge">
<title>Node1&#45;&gt;Node3</title>
<path fill="none" stroke="midnightblue" d="M114.9,-131.76C130.72,-136.93 147.75,-142.49 162.92,-147.45"/>
<polygon fill="midnightblue" stroke="midnightblue" points="115.82,-128.38 105.23,-128.6 113.65,-135.03 115.82,-128.38"/>
</g>
<!-- Node4 -->
<g id="node4" class="node">
<title>Node4</title>
<g id="a_node4"><a xlink:href="../../d1/db4/classlimes_1_1music_1_1scales_1_1_mode.html" target="_top" xlink:title="This class represents a church mode scale.">
<polygon fill="none" stroke="black" points="152,-98.5 152,-128.5 268,-128.5 268,-98.5 152,-98.5"/>
<text text-anchor="start" x="160" y="-116.5" font-family="Helvetica,sans-Serif" font-size="10.00">limes::music::scales</text>
<text text-anchor="middle" x="210" y="-105.5" font-family="Helvetica,sans-Serif" font-size="10.00">::Mode</text>
</a>
</g>
</g>
<!-- Node1&#45;&gt;Node4 -->
<g id="edge3" class="edge">
<title>Node1&#45;&gt;Node4</title>
<path fill="none" stroke="midnightblue" d="M126.31,-113.5C134.73,-113.5 143.28,-113.5 151.53,-113.5"/>
<polygon fill="midnightblue" stroke="midnightblue" points="126.14,-110 116.14,-113.5 126.14,-117 126.14,-110"/>
</g>
<!-- Node5 -->
<g id="node5" class="node">
<title>Node5</title>
<g id="a_node5"><a xlink:href="../../d4/dbd/classlimes_1_1music_1_1scales_1_1_octatonic.html" target="_top" xlink:title="Represents an octatonic scale.">
<polygon fill="none" stroke="black" points="152,-49.5 152,-79.5 268,-79.5 268,-49.5 152,-49.5"/>
<text text-anchor="start" x="160" y="-67.5" font-family="Helvetica,sans-Serif" font-size="10.00">limes::music::scales</text>
<text text-anchor="middle" x="210" y="-56.5" font-family="Helvetica,sans-Serif" font-size="10.00">::Octatonic</text>
</a>
</g>
</g>
<!-- Node1&#45;&gt;Node5 -->
<g id="edge4" class="edge">
<title>Node1&#45;&gt;Node5</title>
<path fill="none" stroke="midnightblue" d="M114.9,-95.24C130.72,-90.07 147.75,-84.51 162.92,-79.55"/>
<polygon fill="midnightblue" stroke="midnightblue" points="113.65,-91.97 105.23,-98.4 115.82,-98.62 113.65,-91.97"/>
</g>
<!-- Node6 -->
<g id="node6" class="node">
<title>Node6</title>
<g id="a_node6"><a xlink:href="../../d7/d2a/classlimes_1_1music_1_1scales_1_1_whole_tone.html" target="_top" xlink:title="A class that represents a whole tone scale.">
<polygon fill="none" stroke="black" points="152,-0.5 152,-30.5 268,-30.5 268,-0.5 152,-0.5"/>
<text text-anchor="start" x="160" y="-18.5" font-family="Helvetica,sans-Serif" font-size="10.00">limes::music::scales</text>
<text text-anchor="middle" x="210" y="-7.5" font-family="Helvetica,sans-Serif" font-size="10.00">::WholeTone</text>
</a>
</g>
</g>
<!-- Node1&#45;&gt;Node6 -->
<g id="edge5" class="edge">
<title>Node1&#45;&gt;Node6</title>
<path fill="none" stroke="midnightblue" d="M83.27,-91.66C101.35,-76.1 127.11,-55.4 152,-40.5 157.93,-36.95 164.46,-33.61 170.92,-30.6"/>
<polygon fill="midnightblue" stroke="midnightblue" points="80.77,-89.19 75.54,-98.4 85.37,-94.47 80.77,-89.19"/>
</g>
</g>
</svg>
