<?xml version="1.0" encoding="UTF-8" standalone="no"?>
<!DOCTYPE svg PUBLIC "-//W3C//DTD SVG 1.1//EN"
 "http://www.w3.org/Graphics/SVG/1.1/DTD/svg11.dtd">
<!-- Generated by graphviz version 2.43.0 (0)
 -->
<!-- Title: mathFunctions_impl.h Pages: 1 -->
<svg width="754pt" height="252pt"
 viewBox="0.00 0.00 754.00 252.00" xmlns="http://www.w3.org/2000/svg" xmlns:xlink="http://www.w3.org/1999/xlink">
<g id="graph0" class="graph" transform="scale(1 1) rotate(0) translate(4 248)">
<title>mathFunctions_impl.h</title>
<!-- Node1 -->
<g id="node1" class="node">
<title>Node1</title>
<g id="a_node1"><a xlink:title=" ">
<polygon fill="#bfbfbf" stroke="black" points="307.5,-224.5 307.5,-243.5 432.5,-243.5 432.5,-224.5 307.5,-224.5"/>
<text text-anchor="middle" x="370" y="-231.5" font-family="Helvetica,sans-Serif" font-size="10.00">mathFunctions_impl.h</text>
</a>
</g>
</g>
<!-- Node2 -->
<g id="node2" class="node">
<title>Node2</title>
<g id="a_node2"><a xlink:href="../../dc/d5c/math_functions_8h.html" target="_top" xlink:title=" ">
<polygon fill="none" stroke="black" points="321,-168.5 321,-187.5 419,-187.5 419,-168.5 321,-168.5"/>
<text text-anchor="middle" x="370" y="-175.5" font-family="Helvetica,sans-Serif" font-size="10.00">mathFunctions.h</text>
</a>
</g>
</g>
<!-- Node1&#45;&gt;Node2 -->
<g id="edge1" class="edge">
<title>Node1&#45;&gt;Node2</title>
<path fill="none" stroke="midnightblue" d="M370,-213.8C370,-204.91 370,-194.78 370,-187.75"/>
<polygon fill="midnightblue" stroke="midnightblue" points="366.5,-214.08 370,-224.08 373.5,-214.08 366.5,-214.08"/>
</g>
<!-- Node3 -->
<g id="node3" class="node">
<title>Node3</title>
<g id="a_node3"><a xlink:href="../../d2/d38/year__impl_8h.html" target="_top" xlink:title=" ">
<polygon fill="none" stroke="black" points="462,-112.5 462,-131.5 536,-131.5 536,-112.5 462,-112.5"/>
<text text-anchor="middle" x="499" y="-119.5" font-family="Helvetica,sans-Serif" font-size="10.00">year_impl.h</text>
</a>
</g>
</g>
<!-- Node2&#45;&gt;Node3 -->
<g id="edge2" class="edge">
<title>Node2&#45;&gt;Node3</title>
<path fill="none" stroke="midnightblue" d="M399.85,-164.5C424.04,-154.38 457.46,-140.39 478.66,-131.52"/>
<polygon fill="midnightblue" stroke="midnightblue" points="398.31,-161.35 390.44,-168.44 401.02,-167.81 398.31,-161.35"/>
</g>
<!-- Node12 -->
<g id="node5" class="node">
<title>Node12</title>
<g id="a_node5"><a xlink:href="../../d9/df8/limes__core_8h.html" target="_top" xlink:title=" ">
<polygon fill="none" stroke="red" points="269.5,-0.5 269.5,-19.5 348.5,-19.5 348.5,-0.5 269.5,-0.5"/>
<text text-anchor="middle" x="309" y="-7.5" font-family="Helvetica,sans-Serif" font-size="10.00">limes_core.h</text>
</a>
</g>
</g>
<!-- Node2&#45;&gt;Node12 -->
<g id="edge8" class="edge">
<title>Node2&#45;&gt;Node12</title>
<path fill="none" stroke="midnightblue" d="M387.67,-161.37C412.5,-137.46 452.14,-90.93 428,-56 410.3,-30.38 375.99,-19.33 348.75,-14.57"/>
<polygon fill="midnightblue" stroke="midnightblue" points="385.16,-158.91 380.22,-168.29 389.93,-164.04 385.16,-158.91"/>
</g>
<!-- Node80 -->
<g id="node6" class="node">
<title>Node80</title>
<g id="a_node6"><a xlink:href="../../da/d19/month__impl_8h.html" target="_top" xlink:title=" ">
<polygon fill="none" stroke="black" points="554,-112.5 554,-131.5 638,-131.5 638,-112.5 554,-112.5"/>
<text text-anchor="middle" x="596" y="-119.5" font-family="Helvetica,sans-Serif" font-size="10.00">month_impl.h</text>
</a>
</g>
</g>
<!-- Node2&#45;&gt;Node80 -->
<g id="edge5" class="edge">
<title>Node2&#45;&gt;Node80</title>
<path fill="none" stroke="midnightblue" d="M415.67,-166.09C458.36,-155.89 521.25,-140.86 560.36,-131.52"/>
<polygon fill="midnightblue" stroke="midnightblue" points="414.72,-162.72 405.81,-168.44 416.35,-169.52 414.72,-162.72"/>
</g>
<!-- Node82 -->
<g id="node8" class="node">
<title>Node82</title>
<g id="a_node8"><a xlink:href="../../d3/de1/_fraction_8h.html" target="_top" xlink:title=" ">
<polygon fill="none" stroke="black" points="661.5,-112.5 661.5,-131.5 726.5,-131.5 726.5,-112.5 661.5,-112.5"/>
<text text-anchor="middle" x="694" y="-119.5" font-family="Helvetica,sans-Serif" font-size="10.00">Fraction.h</text>
</a>
</g>
</g>
<!-- Node2&#45;&gt;Node82 -->
<g id="edge9" class="edge">
<title>Node2&#45;&gt;Node82</title>
<path fill="none" stroke="midnightblue" d="M429.22,-167.87C485.37,-159.1 572.03,-145.27 647,-132 651.66,-131.17 656.58,-130.27 661.41,-129.36"/>
<polygon fill="midnightblue" stroke="midnightblue" points="428.45,-164.45 419.11,-169.45 429.53,-171.37 428.45,-164.45"/>
</g>
<!-- Node84 -->
<g id="node10" class="node">
<title>Node84</title>
<g id="a_node10"><a xlink:href="../../d0/d80/_random_8h.html" target="_top" xlink:title=" ">
<polygon fill="none" stroke="black" points="0,-112.5 0,-131.5 66,-131.5 66,-112.5 0,-112.5"/>
<text text-anchor="middle" x="33" y="-119.5" font-family="Helvetica,sans-Serif" font-size="10.00">Random.h</text>
</a>
</g>
</g>
<!-- Node2&#45;&gt;Node84 -->
<g id="edge13" class="edge">
<title>Node2&#45;&gt;Node84</title>
<path fill="none" stroke="midnightblue" d="M310.98,-167.84C253.52,-158.88 163.72,-144.76 86,-132 79.55,-130.94 72.67,-129.79 66.07,-128.67"/>
<polygon fill="midnightblue" stroke="midnightblue" points="310.55,-171.32 320.97,-169.4 311.63,-164.4 310.55,-171.32"/>
</g>
<!-- Node85 -->
<g id="node11" class="node">
<title>Node85</title>
<g id="a_node11"><a xlink:href="../../da/dac/angle_8h.html" target="_top" xlink:title=" ">
<polygon fill="none" stroke="black" points="94.5,-112.5 94.5,-131.5 147.5,-131.5 147.5,-112.5 94.5,-112.5"/>
<text text-anchor="middle" x="121" y="-119.5" font-family="Helvetica,sans-Serif" font-size="10.00">angle.h</text>
</a>
</g>
</g>
<!-- Node2&#45;&gt;Node85 -->
<g id="edge15" class="edge">
<title>Node2&#45;&gt;Node85</title>
<path fill="none" stroke="midnightblue" d="M320.54,-166.27C268.59,-155.01 188.81,-137.71 147.64,-128.78"/>
<polygon fill="midnightblue" stroke="midnightblue" points="320.03,-169.74 330.55,-168.44 321.51,-162.9 320.03,-169.74"/>
</g>
<!-- Node86 -->
<g id="node12" class="node">
<title>Node86</title>
<g id="a_node12"><a xlink:href="../../dd/d6a/triangle_8h.html" target="_top" xlink:title=" ">
<polygon fill="none" stroke="red" points="89.5,-56.5 89.5,-75.5 152.5,-75.5 152.5,-56.5 89.5,-56.5"/>
<text text-anchor="middle" x="121" y="-63.5" font-family="Helvetica,sans-Serif" font-size="10.00">triangle.h</text>
</a>
</g>
</g>
<!-- Node2&#45;&gt;Node86 -->
<g id="edge27" class="edge">
<title>Node2&#45;&gt;Node86</title>
<path fill="none" stroke="midnightblue" d="M339.43,-164.62C317.74,-155.74 287.97,-143.39 262,-132 217.57,-112.51 165.91,-88.29 139.15,-75.63"/>
<polygon fill="midnightblue" stroke="midnightblue" points="338.21,-167.9 348.79,-168.44 340.86,-161.42 338.21,-167.9"/>
</g>
<!-- Node93 -->
<g id="node13" class="node">
<title>Node93</title>
<g id="a_node13"><a xlink:href="../../d3/db6/circle_8h.html" target="_top" xlink:title=" ">
<polygon fill="none" stroke="black" points="271,-112.5 271,-131.5 323,-131.5 323,-112.5 271,-112.5"/>
<text text-anchor="middle" x="297" y="-119.5" font-family="Helvetica,sans-Serif" font-size="10.00">circle.h</text>
</a>
</g>
</g>
<!-- Node2&#45;&gt;Node93 -->
<g id="edge19" class="edge">
<title>Node2&#45;&gt;Node93</title>
<path fill="none" stroke="midnightblue" d="M349.86,-162.1C336.72,-152.38 320.02,-140.03 308.94,-131.83"/>
<polygon fill="midnightblue" stroke="midnightblue" points="348.15,-165.19 358.27,-168.32 352.31,-159.56 348.15,-165.19"/>
</g>
<!-- Node95 -->
<g id="node15" class="node">
<title>Node95</title>
<g id="a_node15"><a xlink:href="../../d0/d67/cylinder_8h.html" target="_top" xlink:title=" ">
<polygon fill="none" stroke="black" points="277,-56.5 277,-75.5 341,-75.5 341,-56.5 277,-56.5"/>
<text text-anchor="middle" x="309" y="-63.5" font-family="Helvetica,sans-Serif" font-size="10.00">cylinder.h</text>
</a>
</g>
</g>
<!-- Node2&#45;&gt;Node95 -->
<g id="edge28" class="edge">
<title>Node2&#45;&gt;Node95</title>
<path fill="none" stroke="midnightblue" d="M360.2,-159.32C346.91,-135.37 323.72,-93.55 313.76,-75.59"/>
<polygon fill="midnightblue" stroke="midnightblue" points="357.3,-161.32 365.21,-168.37 363.42,-157.93 357.3,-161.32"/>
</g>
<!-- Node96 -->
<g id="node16" class="node">
<title>Node96</title>
<g id="a_node16"><a xlink:href="../../d5/d4a/sphere_8h.html" target="_top" xlink:title=" ">
<polygon fill="none" stroke="black" points="359.5,-56.5 359.5,-75.5 418.5,-75.5 418.5,-56.5 359.5,-56.5"/>
<text text-anchor="middle" x="389" y="-63.5" font-family="Helvetica,sans-Serif" font-size="10.00">sphere.h</text>
</a>
</g>
</g>
<!-- Node2&#45;&gt;Node96 -->
<g id="edge29" class="edge">
<title>Node2&#45;&gt;Node96</title>
<path fill="none" stroke="midnightblue" d="M373.22,-158.35C377.38,-134.25 384.46,-93.31 387.52,-75.59"/>
<polygon fill="midnightblue" stroke="midnightblue" points="369.74,-157.92 371.49,-168.37 376.64,-159.11 369.74,-157.92"/>
</g>
<!-- Node4 -->
<g id="node4" class="node">
<title>Node4</title>
<g id="a_node4"><a xlink:href="../../d5/d98/year_8h.html" target="_top" xlink:title=" ">
<polygon fill="none" stroke="red" points="475.5,-56.5 475.5,-75.5 522.5,-75.5 522.5,-56.5 475.5,-56.5"/>
<text text-anchor="middle" x="499" y="-63.5" font-family="Helvetica,sans-Serif" font-size="10.00">year.h</text>
</a>
</g>
</g>
<!-- Node3&#45;&gt;Node4 -->
<g id="edge3" class="edge">
<title>Node3&#45;&gt;Node4</title>
<path fill="none" stroke="midnightblue" d="M499,-101.8C499,-92.91 499,-82.78 499,-75.75"/>
<polygon fill="midnightblue" stroke="midnightblue" points="495.5,-102.08 499,-112.08 502.5,-102.08 495.5,-102.08"/>
</g>
<!-- Node4&#45;&gt;Node12 -->
<g id="edge4" class="edge">
<title>Node4&#45;&gt;Node12</title>
<path fill="none" stroke="midnightblue" d="M465.34,-55.43C429.49,-45.25 373.29,-29.27 338.93,-19.51"/>
<polygon fill="midnightblue" stroke="midnightblue" points="464.74,-58.9 475.32,-58.27 466.66,-52.17 464.74,-58.9"/>
</g>
<!-- Node81 -->
<g id="node7" class="node">
<title>Node81</title>
<g id="a_node7"><a xlink:href="../../d7/d38/month_8h.html" target="_top" xlink:title=" ">
<polygon fill="none" stroke="red" points="540.5,-56.5 540.5,-75.5 597.5,-75.5 597.5,-56.5 540.5,-56.5"/>
<text text-anchor="middle" x="569" y="-63.5" font-family="Helvetica,sans-Serif" font-size="10.00">month.h</text>
</a>
</g>
</g>
<!-- Node80&#45;&gt;Node81 -->
<g id="edge6" class="edge">
<title>Node80&#45;&gt;Node81</title>
<path fill="none" stroke="midnightblue" d="M586.99,-102.98C582.41,-93.82 577.05,-83.09 573.38,-75.75"/>
<polygon fill="midnightblue" stroke="midnightblue" points="583.94,-104.7 591.54,-112.08 590.2,-101.57 583.94,-104.7"/>
</g>
<!-- Node81&#45;&gt;Node12 -->
<g id="edge7" class="edge">
<title>Node81&#45;&gt;Node12</title>
<path fill="none" stroke="midnightblue" d="M530.16,-55.65C461.06,-40.4 391.14,-26.67 348.58,-18.5"/>
<polygon fill="midnightblue" stroke="midnightblue" points="529.82,-59.16 540.34,-57.91 531.34,-52.33 529.82,-59.16"/>
</g>
<!-- Node82&#45;&gt;Node12 -->
<g id="edge10" class="edge">
<title>Node82&#45;&gt;Node12</title>
<path fill="none" stroke="midnightblue" d="M677.72,-104.88C661.32,-89.66 634.55,-67.51 607,-56 519.86,-19.59 407.45,-12.15 348.73,-10.93"/>
<polygon fill="midnightblue" stroke="midnightblue" points="675.65,-107.74 685.3,-112.11 680.48,-102.68 675.65,-107.74"/>
</g>
<!-- Node83 -->
<g id="node9" class="node">
<title>Node83</title>
<g id="a_node9"><a xlink:href="../../d3/db2/_fraction__impl_8h.html" target="_top" xlink:title=" ">
<polygon fill="none" stroke="black" points="654,-56.5 654,-75.5 746,-75.5 746,-56.5 654,-56.5"/>
<text text-anchor="middle" x="700" y="-63.5" font-family="Helvetica,sans-Serif" font-size="10.00">Fraction_impl.h</text>
</a>
</g>
</g>
<!-- Node82&#45;&gt;Node83 -->
<g id="edge11" class="edge">
<title>Node82&#45;&gt;Node83</title>
<path fill="none" stroke="midnightblue" d="M689.64,-101.8C690.03,-92.91 691.61,-82.78 693.9,-75.75"/>
<polygon fill="midnightblue" stroke="midnightblue" points="686.15,-102.15 689.82,-112.08 693.14,-102.02 686.15,-102.15"/>
</g>
<!-- Node83&#45;&gt;Node82 -->
<g id="edge12" class="edge">
<title>Node83&#45;&gt;Node82</title>
<path fill="none" stroke="midnightblue" d="M704.37,-85.99C704,-94.86 702.44,-105.01 700.16,-112.08"/>
<polygon fill="midnightblue" stroke="midnightblue" points="707.86,-85.68 704.16,-75.75 700.86,-85.82 707.86,-85.68"/>
</g>
<!-- Node84&#45;&gt;Node12 -->
<g id="edge14" class="edge">
<title>Node84&#45;&gt;Node12</title>
<path fill="none" stroke="midnightblue" d="M39.23,-102.51C45.25,-87.58 55.84,-67.27 72,-56 103.35,-34.14 210.45,-20.58 269.36,-14.59"/>
<polygon fill="midnightblue" stroke="midnightblue" points="35.83,-101.63 35.65,-112.22 42.4,-104.05 35.83,-101.63"/>
</g>
<!-- Node85&#45;&gt;Node12 -->
<g id="edge16" class="edge">
<title>Node85&#45;&gt;Node12</title>
<path fill="none" stroke="midnightblue" d="M100.48,-105.86C84.47,-92.2 66.94,-71.88 80,-56 103.49,-27.45 209.87,-16.73 269.02,-12.94"/>
<polygon fill="midnightblue" stroke="midnightblue" points="98.56,-108.81 108.55,-112.33 102.95,-103.35 98.56,-108.81"/>
</g>
<!-- Node85&#45;&gt;Node86 -->
<g id="edge17" class="edge">
<title>Node85&#45;&gt;Node86</title>
<path fill="none" stroke="midnightblue" d="M121,-101.8C121,-92.91 121,-82.78 121,-75.75"/>
<polygon fill="midnightblue" stroke="midnightblue" points="117.5,-102.08 121,-112.08 124.5,-102.08 117.5,-102.08"/>
</g>
<!-- Node86&#45;&gt;Node12 -->
<g id="edge18" class="edge">
<title>Node86&#45;&gt;Node12</title>
<path fill="none" stroke="midnightblue" d="M160.8,-53.57C196.27,-43.38 247.37,-28.7 279.35,-19.52"/>
<polygon fill="midnightblue" stroke="midnightblue" points="159.43,-50.32 150.79,-56.44 161.37,-57.05 159.43,-50.32"/>
</g>
<!-- Node93&#45;&gt;Node12 -->
<g id="edge20" class="edge">
<title>Node93&#45;&gt;Node12</title>
<path fill="none" stroke="midnightblue" d="M260.94,-112.29C226.65,-102.17 182.81,-83.28 201,-56 216.15,-33.27 245.2,-22 269.35,-16.43"/>
<polygon fill="midnightblue" stroke="midnightblue" points="260.17,-115.71 270.75,-115.03 262.06,-108.97 260.17,-115.71"/>
</g>
<!-- Node94 -->
<g id="node14" class="node">
<title>Node94</title>
<g id="a_node14"><a xlink:href="../../db/df0/cone_8h.html" target="_top" xlink:title=" ">
<polygon fill="none" stroke="black" points="209.5,-56.5 209.5,-75.5 258.5,-75.5 258.5,-56.5 209.5,-56.5"/>
<text text-anchor="middle" x="234" y="-63.5" font-family="Helvetica,sans-Serif" font-size="10.00">cone.h</text>
</a>
</g>
</g>
<!-- Node93&#45;&gt;Node94 -->
<g id="edge21" class="edge">
<title>Node93&#45;&gt;Node94</title>
<path fill="none" stroke="midnightblue" d="M278.96,-105.54C267.73,-95.91 253.68,-83.87 244.31,-75.83"/>
<polygon fill="midnightblue" stroke="midnightblue" points="277.01,-108.47 286.88,-112.32 281.56,-103.16 277.01,-108.47"/>
</g>
<!-- Node93&#45;&gt;Node95 -->
<g id="edge23" class="edge">
<title>Node93&#45;&gt;Node95</title>
<path fill="none" stroke="midnightblue" d="M301.2,-102.1C303.19,-93.14 305.48,-82.86 307.06,-75.75"/>
<polygon fill="midnightblue" stroke="midnightblue" points="297.73,-101.56 298.98,-112.08 304.57,-103.08 297.73,-101.56"/>
</g>
<!-- Node93&#45;&gt;Node96 -->
<g id="edge25" class="edge">
<title>Node93&#45;&gt;Node96</title>
<path fill="none" stroke="midnightblue" d="M320.55,-107.18C337.48,-97.24 359.78,-84.15 374.26,-75.65"/>
<polygon fill="midnightblue" stroke="midnightblue" points="318.63,-104.24 311.78,-112.32 322.18,-110.28 318.63,-104.24"/>
</g>
<!-- Node94&#45;&gt;Node12 -->
<g id="edge22" class="edge">
<title>Node94&#45;&gt;Node12</title>
<path fill="none" stroke="midnightblue" d="M254.31,-50.38C267.86,-40.62 285.24,-28.11 296.73,-19.83"/>
<polygon fill="midnightblue" stroke="midnightblue" points="252.12,-47.64 246.05,-56.32 256.21,-53.32 252.12,-47.64"/>
</g>
<!-- Node95&#45;&gt;Node12 -->
<g id="edge24" class="edge">
<title>Node95&#45;&gt;Node12</title>
<path fill="none" stroke="midnightblue" d="M309,-45.8C309,-36.91 309,-26.78 309,-19.75"/>
<polygon fill="midnightblue" stroke="midnightblue" points="305.5,-46.08 309,-56.08 312.5,-46.08 305.5,-46.08"/>
</g>
<!-- Node96&#45;&gt;Node12 -->
<g id="edge26" class="edge">
<title>Node96&#45;&gt;Node12</title>
<path fill="none" stroke="midnightblue" d="M367.7,-50.62C353.08,-40.76 334.17,-27.99 321.82,-19.65"/>
<polygon fill="midnightblue" stroke="midnightblue" points="365.9,-53.63 376.15,-56.32 369.82,-47.83 365.9,-53.63"/>
</g>
</g>
</svg>
