<?xml version="1.0" encoding="UTF-8" standalone="no"?>
<!DOCTYPE svg PUBLIC "-//W3C//DTD SVG 1.1//EN"
 "http://www.w3.org/Graphics/SVG/1.1/DTD/svg11.dtd">
<!-- Generated by graphviz version 2.43.0 (0)
 -->
<!-- Title: weekday_impl.h Pages: 1 -->
<svg width="416pt" height="263pt"
 viewBox="0.00 0.00 416.00 263.00" xmlns="http://www.w3.org/2000/svg" xmlns:xlink="http://www.w3.org/1999/xlink">
<g id="graph0" class="graph" transform="scale(1 1) rotate(0) translate(4 259)">
<title>weekday_impl.h</title>
<!-- Node1 -->
<g id="node1" class="node">
<title>Node1</title>
<g id="a_node1"><a xlink:title=" ">
<polygon fill="#bfbfbf" stroke="black" points="164.5,-235.5 164.5,-254.5 261.5,-254.5 261.5,-235.5 164.5,-235.5"/>
<text text-anchor="middle" x="213" y="-242.5" font-family="Helvetica,sans-Serif" font-size="10.00">weekday_impl.h</text>
</a>
</g>
</g>
<!-- Node2 -->
<g id="node2" class="node">
<title>Node2</title>
<g id="a_node2"><a xlink:href="../../dc/db3/build__date_8h.html" target="_top" xlink:title=" ">
<polygon fill="none" stroke="black" points="170,-179.5 170,-198.5 256,-198.5 256,-179.5 170,-179.5"/>
<text text-anchor="middle" x="213" y="-186.5" font-family="Helvetica,sans-Serif" font-size="10.00">../build_date.h</text>
</a>
</g>
</g>
<!-- Node1&#45;&gt;Node2 -->
<g id="edge1" class="edge">
<title>Node1&#45;&gt;Node2</title>
<path fill="none" stroke="midnightblue" d="M213,-235.08C213,-228.01 213,-217.86 213,-208.99"/>
<polygon fill="midnightblue" stroke="midnightblue" points="216.5,-208.75 213,-198.75 209.5,-208.75 216.5,-208.75"/>
</g>
<!-- Node4 -->
<g id="node4" class="node">
<title>Node4</title>
<g id="a_node4"><a xlink:href="../../da/d0b/limes__namespace_8h.html" target="_top" xlink:title=" ">
<polygon fill="none" stroke="black" points="0,-118 0,-137 114,-137 114,-118 0,-118"/>
<text text-anchor="middle" x="57" y="-125" font-family="Helvetica,sans-Serif" font-size="10.00">limes_namespace.h</text>
</a>
</g>
</g>
<!-- Node1&#45;&gt;Node4 -->
<g id="edge9" class="edge">
<title>Node1&#45;&gt;Node4</title>
<path fill="none" stroke="midnightblue" d="M201.27,-235.32C174.85,-215.75 110.37,-168.02 77.3,-143.53"/>
<polygon fill="midnightblue" stroke="midnightblue" points="78.98,-140.42 68.86,-137.28 74.82,-146.05 78.98,-140.42"/>
</g>
<!-- Node6 -->
<g id="node6" class="node">
<title>Node6</title>
<g id="a_node6"><a xlink:title=" ">
<polygon fill="none" stroke="#bfbfbf" points="308,-0.5 308,-19.5 408,-19.5 408,-0.5 308,-0.5"/>
<text text-anchor="middle" x="358" y="-7.5" font-family="Helvetica,sans-Serif" font-size="10.00">limes_platform.h</text>
</a>
</g>
</g>
<!-- Node1&#45;&gt;Node6 -->
<g id="edge10" class="edge">
<title>Node1&#45;&gt;Node6</title>
<path fill="none" stroke="midnightblue" d="M249.88,-235.49C293.39,-223.27 363.74,-196.1 395,-143 417.14,-105.39 388.58,-53.93 370.59,-27.76"/>
<polygon fill="midnightblue" stroke="midnightblue" points="373.43,-25.72 364.77,-19.62 367.74,-29.79 373.43,-25.72"/>
</g>
<!-- Node3 -->
<g id="node3" class="node">
<title>Node3</title>
<g id="a_node3"><a xlink:title=" ">
<polygon fill="none" stroke="#bfbfbf" points="132.5,-118 132.5,-137 221.5,-137 221.5,-118 132.5,-118"/>
<text text-anchor="middle" x="177" y="-125" font-family="Helvetica,sans-Serif" font-size="10.00">limes_export.h</text>
</a>
</g>
</g>
<!-- Node2&#45;&gt;Node3 -->
<g id="edge2" class="edge">
<title>Node2&#45;&gt;Node3</title>
<path fill="none" stroke="midnightblue" d="M207.84,-179.48C202.55,-170.73 194.16,-156.87 187.47,-145.81"/>
<polygon fill="midnightblue" stroke="midnightblue" points="190.32,-143.75 182.15,-137.01 184.33,-147.38 190.32,-143.75"/>
</g>
<!-- Node2&#45;&gt;Node4 -->
<g id="edge3" class="edge">
<title>Node2&#45;&gt;Node4</title>
<path fill="none" stroke="midnightblue" d="M190.65,-179.48C164.01,-169.31 119.29,-152.26 88.99,-140.7"/>
<polygon fill="midnightblue" stroke="midnightblue" points="89.9,-137.3 79.31,-137.01 87.41,-143.84 89.9,-137.3"/>
</g>
<!-- Node5 -->
<g id="node5" class="node">
<title>Node5</title>
<g id="a_node5"><a xlink:href="../../d3/d53/preprocessor_8h.html" target="_top" xlink:title=" ">
<polygon fill="none" stroke="black" points="206.5,-56.5 206.5,-75.5 329.5,-75.5 329.5,-56.5 206.5,-56.5"/>
<text text-anchor="middle" x="268" y="-63.5" font-family="Helvetica,sans-Serif" font-size="10.00">../misc/preprocessor.h</text>
</a>
</g>
</g>
<!-- Node2&#45;&gt;Node5 -->
<g id="edge4" class="edge">
<title>Node2&#45;&gt;Node5</title>
<path fill="none" stroke="midnightblue" d="M216.96,-179.3C225.91,-159.59 247.9,-111.21 259.89,-84.84"/>
<polygon fill="midnightblue" stroke="midnightblue" points="263.13,-86.18 264.08,-75.62 256.76,-83.28 263.13,-86.18"/>
</g>
<!-- Node7 -->
<g id="node7" class="node">
<title>Node7</title>
<g id="a_node7"><a xlink:href="../../d0/d00/compiler__defs_8h.html" target="_top" xlink:title=" ">
<polygon fill="none" stroke="black" points="278.5,-112.5 278.5,-142.5 385.5,-142.5 385.5,-112.5 278.5,-112.5"/>
<text text-anchor="start" x="286.5" y="-130.5" font-family="Helvetica,sans-Serif" font-size="10.00">../system/compiler</text>
<text text-anchor="middle" x="332" y="-119.5" font-family="Helvetica,sans-Serif" font-size="10.00">_defs.h</text>
</a>
</g>
</g>
<!-- Node2&#45;&gt;Node7 -->
<g id="edge6" class="edge">
<title>Node2&#45;&gt;Node7</title>
<path fill="none" stroke="midnightblue" d="M230.05,-179.48C246.92,-171.04 273.29,-157.86 294.98,-147.01"/>
<polygon fill="midnightblue" stroke="midnightblue" points="296.58,-150.13 303.95,-142.52 293.44,-143.86 296.58,-150.13"/>
</g>
<!-- Node5&#45;&gt;Node6 -->
<g id="edge5" class="edge">
<title>Node5&#45;&gt;Node6</title>
<path fill="none" stroke="midnightblue" d="M282.46,-56.32C296.5,-47.9 318.05,-34.97 334.54,-25.07"/>
<polygon fill="midnightblue" stroke="midnightblue" points="336.8,-27.8 343.58,-19.65 333.2,-21.8 336.8,-27.8"/>
</g>
<!-- Node7&#45;&gt;Node5 -->
<g id="edge8" class="edge">
<title>Node7&#45;&gt;Node5</title>
<path fill="none" stroke="midnightblue" d="M316.83,-112.4C307.25,-103.49 294.84,-91.95 284.93,-82.74"/>
<polygon fill="midnightblue" stroke="midnightblue" points="287.02,-79.9 277.31,-75.66 282.25,-85.03 287.02,-79.9"/>
</g>
<!-- Node7&#45;&gt;Node6 -->
<g id="edge7" class="edge">
<title>Node7&#45;&gt;Node6</title>
<path fill="none" stroke="midnightblue" d="M335.19,-112.34C339.87,-91.53 348.62,-52.66 353.82,-29.58"/>
<polygon fill="midnightblue" stroke="midnightblue" points="357.27,-30.19 356.05,-19.67 350.44,-28.66 357.27,-30.19"/>
</g>
</g>
</svg>
