<?xml version="1.0" encoding="UTF-8" standalone="no"?>
<!DOCTYPE svg PUBLIC "-//W3C//DTD SVG 1.1//EN"
 "http://www.w3.org/Graphics/SVG/1.1/DTD/svg11.dtd">
<!-- Generated by graphviz version 2.43.0 (0)
 -->
<!-- Title: time_utils.h Pages: 1 -->
<svg width="181pt" height="252pt"
 viewBox="0.00 0.00 180.54 252.00" xmlns="http://www.w3.org/2000/svg" xmlns:xlink="http://www.w3.org/1999/xlink">
<g id="graph0" class="graph" transform="scale(1 1) rotate(0) translate(4 248)">
<title>time_utils.h</title>
<!-- Node1 -->
<g id="node1" class="node">
<title>Node1</title>
<g id="a_node1"><a xlink:title=" ">
<polygon fill="#bfbfbf" stroke="black" points="31.08,-224.5 31.08,-243.5 105.08,-243.5 105.08,-224.5 31.08,-224.5"/>
<text text-anchor="middle" x="68.08" y="-231.5" font-family="Helvetica,sans-Serif" font-size="10.00">time_utils.h</text>
</a>
</g>
</g>
<!-- Node2 -->
<g id="node2" class="node">
<title>Node2</title>
<g id="a_node2"><a xlink:href="../../de/df7/time_8h.html" target="_top" xlink:title=" ">
<polygon fill="none" stroke="black" points="18.08,-168.5 18.08,-187.5 66.08,-187.5 66.08,-168.5 18.08,-168.5"/>
<text text-anchor="middle" x="42.08" y="-175.5" font-family="Helvetica,sans-Serif" font-size="10.00">time.h</text>
</a>
</g>
</g>
<!-- Node1&#45;&gt;Node2 -->
<g id="edge1" class="edge">
<title>Node1&#45;&gt;Node2</title>
<path fill="none" stroke="midnightblue" d="M59.4,-214.98C54.99,-205.82 49.82,-195.09 46.29,-187.75"/>
<polygon fill="midnightblue" stroke="midnightblue" points="56.29,-216.59 63.78,-224.08 62.6,-213.55 56.29,-216.59"/>
</g>
<!-- Node3 -->
<g id="node3" class="node">
<title>Node3</title>
<g id="a_node3"><a xlink:href="../../df/da8/_date_time_8h.html" target="_top" xlink:title=" ">
<polygon fill="none" stroke="black" points="60.08,-112.5 60.08,-131.5 134.08,-131.5 134.08,-112.5 60.08,-112.5"/>
<text text-anchor="middle" x="97.08" y="-119.5" font-family="Helvetica,sans-Serif" font-size="10.00">DateTime.h</text>
</a>
</g>
</g>
<!-- Node1&#45;&gt;Node3 -->
<g id="edge9" class="edge">
<title>Node1&#45;&gt;Node3</title>
<path fill="none" stroke="midnightblue" d="M72.91,-214.67C79.25,-190.62 90.12,-149.39 94.81,-131.59"/>
<polygon fill="midnightblue" stroke="midnightblue" points="69.52,-213.81 70.35,-224.37 76.28,-215.59 69.52,-213.81"/>
</g>
<!-- Node8 -->
<g id="node5" class="node">
<title>Node8</title>
<g id="a_node5"><a xlink:href="../../d9/df8/limes__core_8h.html" target="_top" xlink:title=" ">
<polygon fill="none" stroke="red" points="21.58,-0.5 21.58,-19.5 100.58,-19.5 100.58,-0.5 21.58,-0.5"/>
<text text-anchor="middle" x="61.08" y="-7.5" font-family="Helvetica,sans-Serif" font-size="10.00">limes_core.h</text>
</a>
</g>
</g>
<!-- Node1&#45;&gt;Node8 -->
<g id="edge10" class="edge">
<title>Node1&#45;&gt;Node8</title>
<path fill="none" stroke="midnightblue" d="M40.25,-219.27C28.34,-211.81 15.68,-201.34 9.08,-188 -20.9,-127.43 33.86,-46.46 54.04,-19.87"/>
<polygon fill="midnightblue" stroke="midnightblue" points="38.68,-222.41 49.09,-224.4 42.19,-216.36 38.68,-222.41"/>
</g>
<!-- Node75 -->
<g id="node6" class="node">
<title>Node75</title>
<g id="a_node6"><a xlink:href="../../db/d96/date_8h.html" target="_top" xlink:title=" ">
<polygon fill="none" stroke="black" points="122.58,-168.5 122.58,-187.5 169.58,-187.5 169.58,-168.5 122.58,-168.5"/>
<text text-anchor="middle" x="146.08" y="-175.5" font-family="Helvetica,sans-Serif" font-size="10.00">date.h</text>
</a>
</g>
</g>
<!-- Node1&#45;&gt;Node75 -->
<g id="edge6" class="edge">
<title>Node1&#45;&gt;Node75</title>
<path fill="none" stroke="midnightblue" d="M88.84,-218.62C103.09,-208.76 121.53,-195.99 133.57,-187.65"/>
<polygon fill="midnightblue" stroke="midnightblue" points="86.84,-215.75 80.61,-224.32 90.82,-221.51 86.84,-215.75"/>
</g>
<!-- Node2&#45;&gt;Node3 -->
<g id="edge2" class="edge">
<title>Node2&#45;&gt;Node3</title>
<path fill="none" stroke="midnightblue" d="M58.37,-161C68.12,-151.43 80.13,-139.64 88.16,-131.75"/>
<polygon fill="midnightblue" stroke="midnightblue" points="55.84,-158.58 51.16,-168.08 60.75,-163.57 55.84,-158.58"/>
</g>
<!-- Node2&#45;&gt;Node8 -->
<g id="edge5" class="edge">
<title>Node2&#45;&gt;Node8</title>
<path fill="none" stroke="midnightblue" d="M39.08,-158.17C35.87,-134.14 32.22,-91.43 40.08,-56 43.06,-42.53 50.52,-28.32 55.69,-19.56"/>
<polygon fill="midnightblue" stroke="midnightblue" points="35.66,-158.96 40.57,-168.35 42.59,-157.95 35.66,-158.96"/>
</g>
<!-- Node4 -->
<g id="node4" class="node">
<title>Node4</title>
<g id="a_node4"><a xlink:href="../../d2/d83/_filesystem_entry_8h.html" target="_top" xlink:title=" ">
<polygon fill="none" stroke="red" points="49.58,-56.5 49.58,-75.5 152.58,-75.5 152.58,-56.5 49.58,-56.5"/>
<text text-anchor="middle" x="101.08" y="-63.5" font-family="Helvetica,sans-Serif" font-size="10.00">FilesystemEntry.h</text>
</a>
</g>
</g>
<!-- Node3&#45;&gt;Node4 -->
<g id="edge3" class="edge">
<title>Node3&#45;&gt;Node4</title>
<path fill="none" stroke="midnightblue" d="M98.48,-102.1C99.14,-93.14 99.9,-82.86 100.43,-75.75"/>
<polygon fill="midnightblue" stroke="midnightblue" points="94.98,-101.85 97.74,-112.08 101.97,-102.37 94.98,-101.85"/>
</g>
<!-- Node4&#45;&gt;Node8 -->
<g id="edge4" class="edge">
<title>Node4&#45;&gt;Node8</title>
<path fill="none" stroke="midnightblue" d="M88.38,-47.86C81.45,-38.5 73.17,-27.33 67.56,-19.75"/>
<polygon fill="midnightblue" stroke="midnightblue" points="85.71,-50.13 94.47,-56.08 91.33,-45.96 85.71,-50.13"/>
</g>
<!-- Node75&#45;&gt;Node3 -->
<g id="edge7" class="edge">
<title>Node75&#45;&gt;Node3</title>
<path fill="none" stroke="midnightblue" d="M131.04,-160.43C122.45,-150.97 112.03,-139.48 105.02,-131.75"/>
<polygon fill="midnightblue" stroke="midnightblue" points="128.67,-163.03 137.98,-168.08 133.86,-158.33 128.67,-163.03"/>
</g>
<!-- Node75&#45;&gt;Node8 -->
<g id="edge8" class="edge">
<title>Node75&#45;&gt;Node8</title>
<path fill="none" stroke="midnightblue" d="M155.27,-159.13C166.78,-133.99 182.66,-87.71 162.08,-56 148.54,-35.15 122.85,-23.88 100.77,-17.83"/>
<polygon fill="midnightblue" stroke="midnightblue" points="152.07,-157.7 150.86,-168.23 158.37,-160.75 152.07,-157.7"/>
</g>
</g>
</svg>
