<?xml version="1.0" encoding="UTF-8" standalone="no"?>
<!DOCTYPE svg PUBLIC "-//W3C//DTD SVG 1.1//EN"
 "http://www.w3.org/Graphics/SVG/1.1/DTD/svg11.dtd">
<!-- Generated by graphviz version 2.43.0 (0)
 -->
<!-- Title: weekday_impl.h Pages: 1 -->
<svg width="180pt" height="196pt"
 viewBox="0.00 0.00 179.50 196.00" xmlns="http://www.w3.org/2000/svg" xmlns:xlink="http://www.w3.org/1999/xlink">
<g id="graph0" class="graph" transform="scale(1 1) rotate(0) translate(4 192)">
<title>weekday_impl.h</title>
<!-- Node1 -->
<g id="node1" class="node">
<title>Node1</title>
<g id="a_node1"><a xlink:title=" ">
<polygon fill="#bfbfbf" stroke="black" points="57.5,-168.5 57.5,-187.5 154.5,-187.5 154.5,-168.5 57.5,-168.5"/>
<text text-anchor="middle" x="106" y="-175.5" font-family="Helvetica,sans-Serif" font-size="10.00">weekday_impl.h</text>
</a>
</g>
</g>
<!-- Node2 -->
<g id="node2" class="node">
<title>Node2</title>
<g id="a_node2"><a xlink:href="../../d0/ddc/weekday_8h.html" target="_top" xlink:title=" ">
<polygon fill="none" stroke="black" points="72,-112.5 72,-131.5 140,-131.5 140,-112.5 72,-112.5"/>
<text text-anchor="middle" x="106" y="-119.5" font-family="Helvetica,sans-Serif" font-size="10.00">weekday.h</text>
</a>
</g>
</g>
<!-- Node1&#45;&gt;Node2 -->
<g id="edge1" class="edge">
<title>Node1&#45;&gt;Node2</title>
<path fill="none" stroke="midnightblue" d="M106,-157.8C106,-148.91 106,-138.78 106,-131.75"/>
<polygon fill="midnightblue" stroke="midnightblue" points="102.5,-158.08 106,-168.08 109.5,-158.08 102.5,-158.08"/>
</g>
<!-- Node3 -->
<g id="node3" class="node">
<title>Node3</title>
<g id="a_node3"><a xlink:href="../../db/d96/date_8h.html" target="_top" xlink:title=" ">
<polygon fill="none" stroke="black" points="56.5,-56.5 56.5,-75.5 103.5,-75.5 103.5,-56.5 56.5,-56.5"/>
<text text-anchor="middle" x="80" y="-63.5" font-family="Helvetica,sans-Serif" font-size="10.00">date.h</text>
</a>
</g>
</g>
<!-- Node2&#45;&gt;Node3 -->
<g id="edge2" class="edge">
<title>Node2&#45;&gt;Node3</title>
<path fill="none" stroke="midnightblue" d="M97.33,-102.98C92.91,-93.82 87.75,-83.09 84.21,-75.75"/>
<polygon fill="midnightblue" stroke="midnightblue" points="94.21,-104.59 101.71,-112.08 100.52,-101.55 94.21,-104.59"/>
</g>
<!-- Node9 -->
<g id="node5" class="node">
<title>Node9</title>
<g id="a_node5"><a xlink:href="../../d9/df8/limes__core_8h.html" target="_top" xlink:title=" ">
<polygon fill="none" stroke="red" points="92.5,-0.5 92.5,-19.5 171.5,-19.5 171.5,-0.5 92.5,-0.5"/>
<text text-anchor="middle" x="132" y="-7.5" font-family="Helvetica,sans-Serif" font-size="10.00">limes_core.h</text>
</a>
</g>
</g>
<!-- Node2&#45;&gt;Node9 -->
<g id="edge5" class="edge">
<title>Node2&#45;&gt;Node9</title>
<path fill="none" stroke="midnightblue" d="M110.41,-102.35C116.1,-78.25 125.78,-37.31 129.97,-19.59"/>
<polygon fill="midnightblue" stroke="midnightblue" points="106.93,-101.83 108.04,-112.37 113.75,-103.44 106.93,-101.83"/>
</g>
<!-- Node4 -->
<g id="node4" class="node">
<title>Node4</title>
<g id="a_node4"><a xlink:href="../../df/da8/_date_time_8h.html" target="_top" xlink:title=" ">
<polygon fill="none" stroke="red" points="0,-0.5 0,-19.5 74,-19.5 74,-0.5 0,-0.5"/>
<text text-anchor="middle" x="37" y="-7.5" font-family="Helvetica,sans-Serif" font-size="10.00">DateTime.h</text>
</a>
</g>
</g>
<!-- Node3&#45;&gt;Node4 -->
<g id="edge3" class="edge">
<title>Node3&#45;&gt;Node4</title>
<path fill="none" stroke="midnightblue" d="M66.58,-48.14C59.09,-38.74 50.06,-27.4 43.97,-19.75"/>
<polygon fill="midnightblue" stroke="midnightblue" points="63.93,-50.44 72.9,-56.08 69.41,-46.08 63.93,-50.44"/>
</g>
<!-- Node3&#45;&gt;Node9 -->
<g id="edge4" class="edge">
<title>Node3&#45;&gt;Node9</title>
<path fill="none" stroke="midnightblue" d="M95.68,-48.72C104.84,-39.2 116.05,-27.56 123.57,-19.75"/>
<polygon fill="midnightblue" stroke="midnightblue" points="93,-46.45 88.59,-56.08 98.04,-51.31 93,-46.45"/>
</g>
</g>
</svg>
