<?xml version="1.0" encoding="UTF-8" standalone="no"?>
<!DOCTYPE svg PUBLIC "-//W3C//DTD SVG 1.1//EN"
 "http://www.w3.org/Graphics/SVG/1.1/DTD/svg11.dtd">
<!-- Generated by graphviz version 2.43.0 (0)
 -->
<!-- Title: Fraction.h Pages: 1 -->
<!--zoomable 375 -->
<svg id="main" version="1.1" xmlns="http://www.w3.org/2000/svg" xmlns:xlink="http://www.w3.org/1999/xlink" xml:space="preserve" onload="init(evt)">
<style type="text/css"><![CDATA[
.edge:hover path { stroke: red; }
.edge:hover polygon { stroke: red; fill: red; }
]]></style>
<script type="text/javascript"><![CDATA[
var edges = document.getElementsByTagName('g');
if (edges && edges.length) {
  for (var i=0;i<edges.length;i++) {
    if (edges[i].id.substr(0,4)=='edge') {
      edges[i].setAttribute('class','edge');
    }
  }
}
]]></script>
        <defs>
                <circle id="rim" cx="0" cy="0" r="7"/>
                <circle id="rim2" cx="0" cy="0" r="3.5"/>
                <g id="zoomPlus">
                        <use xlink:href="#rim" fill="#404040">
                                <set attributeName="fill" to="#808080" begin="zoomplus.mouseover" end="zoomplus.mouseout"/>
                        </use>
                        <path d="M-4,0h8M0,-4v8" fill="none" stroke="white" stroke-width="1.5" pointer-events="none"/>
                </g>
                <g id="zoomMin">
                        <use xlink:href="#rim" fill="#404040">
                                <set attributeName="fill" to="#808080" begin="zoomminus.mouseover" end="zoomminus.mouseout"/>
                        </use>
                        <path d="M-4,0h8" fill="none" stroke="white" stroke-width="1.5" pointer-events="none"/>
                </g>
                <g id="dirArrow">
                        <path fill="none" stroke="white" stroke-width="1.5" d="M0,-3.0v7 M-2.5,-0.5L0,-3.0L2.5,-0.5"/>
                </g>
               <g id="resetDef">
                       <use xlink:href="#rim2" fill="#404040">
                               <set attributeName="fill" to="#808080" begin="reset.mouseover" end="reset.mouseout"/>
                       </use>
               </g>
        </defs>

<script type="text/javascript">
var viewWidth = 863;
var viewHeight = 375;
var sectionId = 'dynsection-0';
</script>
<script xlink:href="../../svgpan.js"/>
<svg id="graph" class="graph">
<g id="viewport">
<title>Fraction.h</title>
<!-- Node1 -->
<g id="node1" class="node">
<title>Node1</title>
<g id="a_node1"><a xlink:title=" ">
<polygon fill="#bfbfbf" stroke="black" points="602.75,-347.5 602.75,-366.5 667.75,-366.5 667.75,-347.5 602.75,-347.5"/>
<text text-anchor="middle" x="635.25" y="-354.5" font-family="Helvetica,sans-Serif" font-size="10.00">Fraction.h</text>
</a>
</g>
</g>
<!-- Node2 -->
<g id="node2" class="node">
<title>Node2</title>
<g id="a_node2"><a xlink:href="../../da/d0b/limes__namespace_8h.html" target="_top" xlink:title=" ">
<polygon fill="none" stroke="black" points="600.25,-118 600.25,-137 714.25,-137 714.25,-118 600.25,-118"/>
<text text-anchor="middle" x="657.25" y="-125" font-family="Helvetica,sans-Serif" font-size="10.00">limes_namespace.h</text>
</a>
</g>
</g>
<!-- Node1&#45;&gt;Node2 -->
<g id="edge1" class="edge">
<title>Node1&#45;&gt;Node2</title>
<path fill="none" stroke="midnightblue" d="M636.93,-347.19C641.35,-323.41 653.29,-255.84 657.25,-199 658.48,-181.47 658.33,-161.42 657.96,-147.19"/>
<polygon fill="midnightblue" stroke="midnightblue" points="661.46,-147.08 657.64,-137.2 654.46,-147.3 661.46,-147.08"/>
</g>
<!-- Node3 -->
<g id="node3" class="node">
<title>Node3</title>
<g id="a_node3"><a xlink:href="../../dc/d5c/math_functions_8h.html" target="_top" xlink:title=" ">
<polygon fill="none" stroke="black" points="326.25,-291.5 326.25,-310.5 424.25,-310.5 424.25,-291.5 326.25,-291.5"/>
<text text-anchor="middle" x="375.25" y="-298.5" font-family="Helvetica,sans-Serif" font-size="10.00">mathFunctions.h</text>
</a>
</g>
</g>
<!-- Node1&#45;&gt;Node3 -->
<g id="edge2" class="edge">
<title>Node1&#45;&gt;Node3</title>
<path fill="none" stroke="midnightblue" d="M602.59,-349.22C558.35,-340.03 478.92,-323.53 426.64,-312.67"/>
<polygon fill="midnightblue" stroke="midnightblue" points="427.07,-309.19 416.57,-310.58 425.65,-316.04 427.07,-309.19"/>
</g>
<!-- Node5 -->
<g id="node5" class="node">
<title>Node5</title>
<g id="a_node5"><a xlink:title=" ">
<polygon fill="none" stroke="#bfbfbf" points="357.75,-118 357.75,-137 446.75,-137 446.75,-118 357.75,-118"/>
<text text-anchor="middle" x="402.25" y="-125" font-family="Helvetica,sans-Serif" font-size="10.00">limes_export.h</text>
</a>
</g>
</g>
<!-- Node1&#45;&gt;Node5 -->
<g id="edge22" class="edge">
<title>Node1&#45;&gt;Node5</title>
<path fill="none" stroke="midnightblue" d="M629.3,-347.31C610.15,-319.83 547.41,-233.46 479.25,-179 462.13,-165.32 441.27,-151.81 425.58,-142.21"/>
<polygon fill="midnightblue" stroke="midnightblue" points="427.38,-139.21 417,-137.04 423.76,-145.2 427.38,-139.21"/>
</g>
<!-- Node8 -->
<g id="node8" class="node">
<title>Node8</title>
<g id="a_node8"><a xlink:href="../../d3/d53/preprocessor_8h.html" target="_top" xlink:title=" ">
<polygon fill="none" stroke="black" points="107.75,-56.5 107.75,-75.5 230.75,-75.5 230.75,-56.5 107.75,-56.5"/>
<text text-anchor="middle" x="169.25" y="-63.5" font-family="Helvetica,sans-Serif" font-size="10.00">../misc/preprocessor.h</text>
</a>
</g>
</g>
<!-- Node1&#45;&gt;Node8 -->
<g id="edge23" class="edge">
<title>Node1&#45;&gt;Node8</title>
<path fill="none" stroke="midnightblue" d="M602.5,-353.82C472.68,-344.77 1.25,-307.65 1.25,-246 1.25,-246 1.25,-246 1.25,-188 1.25,-153.18 -3.76,-137.21 20.25,-112 40.34,-90.92 69.92,-79.61 97.44,-73.58"/>
<polygon fill="midnightblue" stroke="midnightblue" points="98.34,-76.97 107.47,-71.6 96.98,-70.11 98.34,-76.97"/>
</g>
<!-- Node16 -->
<g id="node13" class="node">
<title>Node16</title>
<g id="a_node13"><a xlink:href="../../d3/db2/_fraction__impl_8h.html" target="_top" xlink:title=" ">
<polygon fill="none" stroke="black" points="723.25,-291.5 723.25,-310.5 815.25,-310.5 815.25,-291.5 723.25,-291.5"/>
<text text-anchor="middle" x="769.25" y="-298.5" font-family="Helvetica,sans-Serif" font-size="10.00">Fraction_impl.h</text>
</a>
</g>
</g>
<!-- Node1&#45;&gt;Node16 -->
<g id="edge24" class="edge">
<title>Node1&#45;&gt;Node16</title>
<path fill="none" stroke="midnightblue" d="M651.4,-347.44C671.77,-338.44 706.91,-324.19 733.63,-314.05"/>
<polygon fill="midnightblue" stroke="midnightblue" points="734.91,-317.31 743.04,-310.52 732.45,-310.75 734.91,-317.31"/>
</g>
<!-- Node3&#45;&gt;Node2 -->
<g id="edge3" class="edge">
<title>Node3&#45;&gt;Node2</title>
<path fill="none" stroke="midnightblue" d="M424.35,-295.98C484.93,-288.21 586.27,-265.45 638.25,-199 649.83,-184.2 654.37,-162.91 656.14,-147.6"/>
<polygon fill="midnightblue" stroke="midnightblue" points="659.66,-147.53 657.03,-137.27 652.69,-146.93 659.66,-147.53"/>
</g>
<!-- Node4 -->
<g id="node4" class="node">
<title>Node4</title>
<g id="a_node4"><a xlink:title=" ">
<polygon fill="none" stroke="#bfbfbf" points="193.75,-118 193.75,-137 262.75,-137 262.75,-118 193.75,-118"/>
<text text-anchor="middle" x="228.25" y="-125" font-family="Helvetica,sans-Serif" font-size="10.00">type_traits</text>
</a>
</g>
</g>
<!-- Node3&#45;&gt;Node4 -->
<g id="edge4" class="edge">
<title>Node3&#45;&gt;Node4</title>
<path fill="none" stroke="midnightblue" d="M348.78,-291.48C312.58,-278.23 249.1,-248.89 222.25,-199 213.64,-182.98 216.99,-161.91 221.36,-146.99"/>
<polygon fill="midnightblue" stroke="midnightblue" points="224.72,-147.96 224.56,-137.37 218.08,-145.75 224.72,-147.96"/>
</g>
<!-- Node3&#45;&gt;Node5 -->
<g id="edge5" class="edge">
<title>Node3&#45;&gt;Node5</title>
<path fill="none" stroke="midnightblue" d="M376.63,-291.26C380.82,-264.65 393.48,-184.21 399.29,-147.34"/>
<polygon fill="midnightblue" stroke="midnightblue" points="402.82,-147.44 400.91,-137.02 395.9,-146.35 402.82,-147.44"/>
</g>
<!-- Node6 -->
<g id="node6" class="node">
<title>Node6</title>
<g id="a_node6"><a xlink:href="../../d0/d00/compiler__defs_8h.html" target="_top" xlink:title=" ">
<polygon fill="none" stroke="black" points="29.75,-112.5 29.75,-142.5 136.75,-142.5 136.75,-112.5 29.75,-112.5"/>
<text text-anchor="start" x="37.75" y="-130.5" font-family="Helvetica,sans-Serif" font-size="10.00">../system/compiler</text>
<text text-anchor="middle" x="83.25" y="-119.5" font-family="Helvetica,sans-Serif" font-size="10.00">_defs.h</text>
</a>
</g>
</g>
<!-- Node3&#45;&gt;Node6 -->
<g id="edge6" class="edge">
<title>Node3&#45;&gt;Node6</title>
<path fill="none" stroke="midnightblue" d="M326.08,-295.03C268.76,-288.41 178.42,-275.14 151.25,-255 116.82,-229.48 97.97,-181.2 89.3,-152.23"/>
<polygon fill="midnightblue" stroke="midnightblue" points="92.64,-151.18 86.56,-142.51 85.91,-153.08 92.64,-151.18"/>
</g>
<!-- Node3&#45;&gt;Node8 -->
<g id="edge10" class="edge">
<title>Node3&#45;&gt;Node8</title>
<path fill="none" stroke="midnightblue" d="M330.02,-291.45C304.28,-284.83 272.63,-273.56 249.25,-255 194.88,-211.81 176.89,-124.75 171.43,-86.16"/>
<polygon fill="midnightblue" stroke="midnightblue" points="174.85,-85.32 170.11,-75.84 167.9,-86.21 174.85,-85.32"/>
</g>
<!-- Node9 -->
<g id="node9" class="node">
<title>Node9</title>
<g id="a_node9"><a xlink:href="../../dc/d9b/math_functions__impl_8h.html" target="_top" xlink:title=" ">
<polygon fill="none" stroke="black" points="403.75,-235.5 403.75,-254.5 528.75,-254.5 528.75,-235.5 403.75,-235.5"/>
<text text-anchor="middle" x="466.25" y="-242.5" font-family="Helvetica,sans-Serif" font-size="10.00">mathFunctions_impl.h</text>
</a>
</g>
</g>
<!-- Node3&#45;&gt;Node9 -->
<g id="edge11" class="edge">
<title>Node3&#45;&gt;Node9</title>
<path fill="none" stroke="midnightblue" d="M389.88,-291.32C404.2,-282.82 426.27,-269.73 443,-259.8"/>
<polygon fill="midnightblue" stroke="midnightblue" points="444.86,-262.77 451.67,-254.65 441.28,-256.75 444.86,-262.77"/>
</g>
<!-- Node7 -->
<g id="node7" class="node">
<title>Node7</title>
<g id="a_node7"><a xlink:title=" ">
<polygon fill="none" stroke="#bfbfbf" points="119.25,-0.5 119.25,-19.5 219.25,-19.5 219.25,-0.5 119.25,-0.5"/>
<text text-anchor="middle" x="169.25" y="-7.5" font-family="Helvetica,sans-Serif" font-size="10.00">limes_platform.h</text>
</a>
</g>
</g>
<!-- Node6&#45;&gt;Node7 -->
<g id="edge7" class="edge">
<title>Node6&#45;&gt;Node7</title>
<path fill="none" stroke="midnightblue" d="M83.13,-112.26C83.68,-97.04 86.54,-72.85 98.25,-56 108.03,-41.95 123.75,-31.32 137.92,-23.94"/>
<polygon fill="midnightblue" stroke="midnightblue" points="139.48,-27.08 146.93,-19.55 136.41,-20.78 139.48,-27.08"/>
</g>
<!-- Node6&#45;&gt;Node8 -->
<g id="edge8" class="edge">
<title>Node6&#45;&gt;Node8</title>
<path fill="none" stroke="midnightblue" d="M103.64,-112.4C117.16,-103.04 134.87,-90.79 148.47,-81.38"/>
<polygon fill="midnightblue" stroke="midnightblue" points="150.51,-84.23 156.74,-75.66 146.53,-78.47 150.51,-84.23"/>
</g>
<!-- Node8&#45;&gt;Node7 -->
<g id="edge9" class="edge">
<title>Node8&#45;&gt;Node7</title>
<path fill="none" stroke="midnightblue" d="M169.25,-56.08C169.25,-49.01 169.25,-38.86 169.25,-29.99"/>
<polygon fill="midnightblue" stroke="midnightblue" points="172.75,-29.75 169.25,-19.75 165.75,-29.75 172.75,-29.75"/>
</g>
<!-- Node9&#45;&gt;Node2 -->
<g id="edge12" class="edge">
<title>Node9&#45;&gt;Node2</title>
<path fill="none" stroke="midnightblue" d="M476.95,-235.4C493.42,-222.36 526.25,-197.17 556.25,-179 579.85,-164.71 608.02,-150.87 628.61,-141.31"/>
<polygon fill="midnightblue" stroke="midnightblue" points="630.15,-144.45 637.77,-137.1 627.22,-138.09 630.15,-144.45"/>
</g>
<!-- Node10 -->
<g id="node10" class="node">
<title>Node10</title>
<g id="a_node10"><a xlink:title=" ">
<polygon fill="none" stroke="#bfbfbf" points="423.75,-179.5 423.75,-198.5 470.75,-198.5 470.75,-179.5 423.75,-179.5"/>
<text text-anchor="middle" x="447.25" y="-186.5" font-family="Helvetica,sans-Serif" font-size="10.00">cmath</text>
</a>
</g>
</g>
<!-- Node9&#45;&gt;Node10 -->
<g id="edge13" class="edge">
<title>Node9&#45;&gt;Node10</title>
<path fill="none" stroke="midnightblue" d="M463.12,-235.08C460.57,-227.85 456.9,-217.41 453.73,-208.4"/>
<polygon fill="midnightblue" stroke="midnightblue" points="456.95,-207.02 450.33,-198.75 450.35,-209.35 456.95,-207.02"/>
</g>
<!-- Node11 -->
<g id="node11" class="node">
<title>Node11</title>
<g id="a_node11"><a xlink:title=" ">
<polygon fill="none" stroke="#bfbfbf" points="565.25,-179.5 565.25,-198.5 629.25,-198.5 629.25,-179.5 565.25,-179.5"/>
<text text-anchor="middle" x="597.25" y="-186.5" font-family="Helvetica,sans-Serif" font-size="10.00">algorithm</text>
</a>
</g>
</g>
<!-- Node9&#45;&gt;Node11 -->
<g id="edge14" class="edge">
<title>Node9&#45;&gt;Node11</title>
<path fill="none" stroke="midnightblue" d="M487.01,-235.44C508.57,-226.56 542.52,-212.56 567.05,-202.45"/>
<polygon fill="midnightblue" stroke="midnightblue" points="568.68,-205.56 576.59,-198.52 566.01,-199.09 568.68,-205.56"/>
</g>
<!-- Node12 -->
<g id="node12" class="node">
<title>Node12</title>
<g id="a_node12"><a xlink:href="../../d5/dbb/limes__assert_8h.html" target="_top" xlink:title=" ">
<polygon fill="none" stroke="red" points="231.25,-179.5 231.25,-198.5 367.25,-198.5 367.25,-179.5 231.25,-179.5"/>
<text text-anchor="middle" x="299.25" y="-186.5" font-family="Helvetica,sans-Serif" font-size="10.00">../system/limes_assert.h</text>
</a>
</g>
</g>
<!-- Node9&#45;&gt;Node12 -->
<g id="edge15" class="edge">
<title>Node9&#45;&gt;Node12</title>
<path fill="none" stroke="midnightblue" d="M439.79,-235.44C411.58,-226.32 366.71,-211.81 335.29,-201.65"/>
<polygon fill="midnightblue" stroke="midnightblue" points="336.18,-198.26 325.59,-198.52 334.03,-204.92 336.18,-198.26"/>
</g>
<!-- Node12&#45;&gt;Node2 -->
<g id="edge17" class="edge">
<title>Node12&#45;&gt;Node2</title>
<path fill="none" stroke="midnightblue" d="M350.55,-179.48C415.41,-168.69 526.96,-150.15 596.16,-138.65"/>
<polygon fill="midnightblue" stroke="midnightblue" points="596.77,-142.1 606.06,-137.01 595.62,-135.2 596.77,-142.1"/>
</g>
<!-- Node12&#45;&gt;Node4 -->
<g id="edge19" class="edge">
<title>Node12&#45;&gt;Node4</title>
<path fill="none" stroke="midnightblue" d="M289.08,-179.48C277.9,-170.11 259.74,-154.88 246.16,-143.51"/>
<polygon fill="midnightblue" stroke="midnightblue" points="248.32,-140.75 238.41,-137.01 243.82,-146.11 248.32,-140.75"/>
</g>
<!-- Node12&#45;&gt;Node5 -->
<g id="edge16" class="edge">
<title>Node12&#45;&gt;Node5</title>
<path fill="none" stroke="midnightblue" d="M314.01,-179.48C330.92,-169.71 358.84,-153.58 378.74,-142.08"/>
<polygon fill="midnightblue" stroke="midnightblue" points="380.62,-145.04 387.52,-137.01 377.11,-138.98 380.62,-145.04"/>
</g>
<!-- Node12&#45;&gt;Node6 -->
<g id="edge21" class="edge">
<title>Node12&#45;&gt;Node6</title>
<path fill="none" stroke="midnightblue" d="M268.31,-179.48C235.98,-170.57 184.43,-156.37 143.93,-145.22"/>
<polygon fill="midnightblue" stroke="midnightblue" points="144.73,-141.8 134.16,-142.52 142.87,-148.55 144.73,-141.8"/>
</g>
<!-- Node12&#45;&gt;Node7 -->
<g id="edge20" class="edge">
<title>Node12&#45;&gt;Node7</title>
<path fill="none" stroke="midnightblue" d="M300.59,-179.1C302.39,-164.4 304.31,-134.45 294.25,-112 275.42,-69.95 228.88,-40.13 198.21,-24.25"/>
<polygon fill="midnightblue" stroke="midnightblue" points="199.37,-20.92 188.86,-19.59 196.25,-27.18 199.37,-20.92"/>
</g>
<!-- Node12&#45;&gt;Node8 -->
<g id="edge18" class="edge">
<title>Node12&#45;&gt;Node8</title>
<path fill="none" stroke="midnightblue" d="M298.28,-179.33C296.11,-163.9 289.55,-131.47 271.25,-112 256.52,-96.31 235.33,-85.76 216.09,-78.85"/>
<polygon fill="midnightblue" stroke="midnightblue" points="217.13,-75.5 206.54,-75.64 214.91,-82.14 217.13,-75.5"/>
</g>
<!-- Node16&#45;&gt;Node1 -->
<g id="edge26" class="edge">
<title>Node16&#45;&gt;Node1</title>
<path fill="none" stroke="midnightblue" d="M753.2,-310.52C732.87,-319.51 697.74,-333.75 671,-343.91"/>
<polygon fill="midnightblue" stroke="midnightblue" points="669.71,-340.65 661.58,-347.44 672.17,-347.21 669.71,-340.65"/>
</g>
<!-- Node16&#45;&gt;Node2 -->
<g id="edge25" class="edge">
<title>Node16&#45;&gt;Node2</title>
<path fill="none" stroke="midnightblue" d="M766.1,-291.23C758.39,-270.48 737.17,-217.27 709.25,-179 699.77,-166 686.8,-153.39 676.18,-144.03"/>
<polygon fill="midnightblue" stroke="midnightblue" points="678.15,-141.11 668.28,-137.26 673.6,-146.43 678.15,-141.11"/>
</g>
<!-- Node16&#45;&gt;Node11 -->
<g id="edge28" class="edge">
<title>Node16&#45;&gt;Node11</title>
<path fill="none" stroke="midnightblue" d="M755.76,-291.37C726.24,-272.49 655.71,-227.38 619.52,-204.24"/>
<polygon fill="midnightblue" stroke="midnightblue" points="621,-201.03 610.69,-198.59 617.23,-206.93 621,-201.03"/>
</g>
<!-- Node17 -->
<g id="node14" class="node">
<title>Node17</title>
<g id="a_node14"><a xlink:title=" ">
<polygon fill="none" stroke="#bfbfbf" points="799.25,-235.5 799.25,-254.5 855.25,-254.5 855.25,-235.5 799.25,-235.5"/>
<text text-anchor="middle" x="827.25" y="-242.5" font-family="Helvetica,sans-Serif" font-size="10.00">numeric</text>
</a>
</g>
</g>
<!-- Node16&#45;&gt;Node17 -->
<g id="edge27" class="edge">
<title>Node16&#45;&gt;Node17</title>
<path fill="none" stroke="midnightblue" d="M778.57,-291.32C787.15,-283.34 800.07,-271.31 810.44,-261.65"/>
<polygon fill="midnightblue" stroke="midnightblue" points="812.83,-264.21 817.77,-254.83 808.06,-259.09 812.83,-264.21"/>
</g>
</g>
</svg>
        <g id="navigator" transform="translate(0 0)" fill="#404254">
                <rect fill="#f2f5e9" fill-opacity="0.5" stroke="#606060" stroke-width=".5" x="0" y="0" width="60" height="60"/>
                <use id="zoomplus" xlink:href="#zoomPlus" x="17" y="9" onmousedown="handleZoom(evt,'in')"/>
                <use id="zoomminus" xlink:href="#zoomMin" x="42" y="9" onmousedown="handleZoom(evt,'out')"/>
                <use id="reset" xlink:href="#resetDef" x="30" y="36" onmousedown="handleReset()"/>
                <g id="arrowUp" xlink:href="#dirArrow" transform="translate(30 24)" onmousedown="handlePan(0,-1)">
                  <use xlink:href="#rim" fill="#404040">
                        <set attributeName="fill" to="#808080" begin="arrowUp.mouseover" end="arrowUp.mouseout"/>
                  </use>
                  <path fill="none" stroke="white" stroke-width="1.5" d="M0,-3.0v7 M-2.5,-0.5L0,-3.0L2.5,-0.5"/>
                </g>
                <g id="arrowRight" xlink:href="#dirArrow" transform="rotate(90) translate(36 -43)" onmousedown="handlePan(1,0)">
                  <use xlink:href="#rim" fill="#404040">
                        <set attributeName="fill" to="#808080" begin="arrowRight.mouseover" end="arrowRight.mouseout"/>
                  </use>
                  <path fill="none" stroke="white" stroke-width="1.5" d="M0,-3.0v7 M-2.5,-0.5L0,-3.0L2.5,-0.5"/>
                </g>
                <g id="arrowDown" xlink:href="#dirArrow" transform="rotate(180) translate(-30 -48)" onmousedown="handlePan(0,1)">
                  <use xlink:href="#rim" fill="#404040">
                        <set attributeName="fill" to="#808080" begin="arrowDown.mouseover" end="arrowDown.mouseout"/>
                  </use>
                  <path fill="none" stroke="white" stroke-width="1.5" d="M0,-3.0v7 M-2.5,-0.5L0,-3.0L2.5,-0.5"/>
                </g>
                <g id="arrowLeft" xlink:href="#dirArrow" transform="rotate(270) translate(-36 17)" onmousedown="handlePan(-1,0)">
                  <use xlink:href="#rim" fill="#404040">
                        <set attributeName="fill" to="#808080" begin="arrowLeft.mouseover" end="arrowLeft.mouseout"/>
                  </use>
                  <path fill="none" stroke="white" stroke-width="1.5" d="M0,-3.0v7 M-2.5,-0.5L0,-3.0L2.5,-0.5"/>
                </g>
        </g>
        <svg viewBox="0 0 15 15" width="100%" height="30px" preserveAspectRatio="xMaxYMin meet">
         <g id="arrow_out" transform="scale(0.3 0.3)">
          <a xlink:href="_fraction_8h__incl_org.svg" target="_base">
           <rect id="button" ry="5" rx="5" y="6" x="6" height="38" width="38"
                fill="#f2f5e9" fill-opacity="0.5" stroke="#606060" stroke-width="1.0"/>
           <path id="arrow"
             d="M 11.500037,31.436501 C 11.940474,20.09759 22.043105,11.32322 32.158766,21.979434 L 37.068811,17.246167 C 37.068811,17.246167 37.088388,32 37.088388,32 L 22.160133,31.978069 C 22.160133,31.978069 26.997745,27.140456 26.997745,27.140456 C 18.528582,18.264221 13.291696,25.230495 11.500037,31.436501 z"
             style="fill:#404040;"/>
          </a>
         </g>
        </svg>
</svg>
