<?xml version="1.0" encoding="UTF-8" standalone="no"?>
<!DOCTYPE svg PUBLIC "-//W3C//DTD SVG 1.1//EN"
 "http://www.w3.org/Graphics/SVG/1.1/DTD/svg11.dtd">
<!-- Generated by graphviz version 2.43.0 (0)
 -->
<!-- Title: limes_assert.h Pages: 1 -->
<svg width="651pt" height="196pt"
 viewBox="0.00 0.00 650.86 196.00" xmlns="http://www.w3.org/2000/svg" xmlns:xlink="http://www.w3.org/1999/xlink">
<g id="graph0" class="graph" transform="scale(1 1) rotate(0) translate(4 192)">
<title>limes_assert.h</title>
<!-- Node1 -->
<g id="node1" class="node">
<title>Node1</title>
<g id="a_node1"><a xlink:title=" ">
<polygon fill="#bfbfbf" stroke="black" points="285.5,-168.5 285.5,-187.5 373.5,-187.5 373.5,-168.5 285.5,-168.5"/>
<text text-anchor="middle" x="329.5" y="-175.5" font-family="Helvetica,sans-Serif" font-size="10.00">limes_assert.h</text>
</a>
</g>
</g>
<!-- Node2 -->
<g id="node2" class="node">
<title>Node2</title>
<g id="a_node2"><a xlink:title=" ">
<polygon fill="none" stroke="#bfbfbf" points="0,-56.5 0,-75.5 89,-75.5 89,-56.5 0,-56.5"/>
<text text-anchor="middle" x="44.5" y="-63.5" font-family="Helvetica,sans-Serif" font-size="10.00">limes_export.h</text>
</a>
</g>
</g>
<!-- Node1&#45;&gt;Node2 -->
<g id="edge1" class="edge">
<title>Node1&#45;&gt;Node2</title>
<path fill="none" stroke="midnightblue" d="M285.31,-175.09C218.36,-171.3 95.61,-160.56 63.5,-132 50.48,-120.42 46.17,-100.46 44.84,-85.7"/>
<polygon fill="midnightblue" stroke="midnightblue" points="48.34,-85.47 44.32,-75.66 41.35,-85.83 48.34,-85.47"/>
</g>
<!-- Node3 -->
<g id="node3" class="node">
<title>Node3</title>
<g id="a_node3"><a xlink:href="../../da/d0b/limes__namespace_8h.html" target="_top" xlink:title=" ">
<polygon fill="none" stroke="black" points="145.5,-56.5 145.5,-75.5 259.5,-75.5 259.5,-56.5 145.5,-56.5"/>
<text text-anchor="middle" x="202.5" y="-63.5" font-family="Helvetica,sans-Serif" font-size="10.00">limes_namespace.h</text>
</a>
</g>
</g>
<!-- Node1&#45;&gt;Node3 -->
<g id="edge2" class="edge">
<title>Node1&#45;&gt;Node3</title>
<path fill="none" stroke="midnightblue" d="M310.45,-168.45C294,-160.5 270.16,-147.55 252.5,-132 236.7,-118.09 222.47,-98.56 213.27,-84.55"/>
<polygon fill="midnightblue" stroke="midnightblue" points="216.06,-82.42 207.74,-75.86 210.16,-86.18 216.06,-82.42"/>
</g>
<!-- Node4 -->
<g id="node4" class="node">
<title>Node4</title>
<g id="a_node4"><a xlink:href="../../d3/d53/preprocessor_8h.html" target="_top" xlink:title=" ">
<polygon fill="none" stroke="black" points="431,-56.5 431,-75.5 554,-75.5 554,-56.5 431,-56.5"/>
<text text-anchor="middle" x="492.5" y="-63.5" font-family="Helvetica,sans-Serif" font-size="10.00">../misc/preprocessor.h</text>
</a>
</g>
</g>
<!-- Node1&#45;&gt;Node4 -->
<g id="edge3" class="edge">
<title>Node1&#45;&gt;Node4</title>
<path fill="none" stroke="midnightblue" d="M373.68,-177.26C450.15,-176.68 602.2,-170.55 635.5,-132 661.38,-102.04 611.92,-85.16 564.25,-76.15"/>
<polygon fill="midnightblue" stroke="midnightblue" points="564.59,-72.66 554.13,-74.35 563.36,-79.55 564.59,-72.66"/>
</g>
<!-- Node5 -->
<g id="node5" class="node">
<title>Node5</title>
<g id="a_node5"><a xlink:title=" ">
<polygon fill="none" stroke="#bfbfbf" points="294.5,-0.5 294.5,-19.5 394.5,-19.5 394.5,-0.5 294.5,-0.5"/>
<text text-anchor="middle" x="344.5" y="-7.5" font-family="Helvetica,sans-Serif" font-size="10.00">limes_platform.h</text>
</a>
</g>
</g>
<!-- Node1&#45;&gt;Node5 -->
<g id="edge11" class="edge">
<title>Node1&#45;&gt;Node5</title>
<path fill="none" stroke="midnightblue" d="M316.72,-168.37C306.11,-160.36 291.77,-147.38 285.5,-132 282.14,-123.77 283.18,-120.58 285.5,-112 294.29,-79.51 316.43,-46.75 330.95,-27.69"/>
<polygon fill="midnightblue" stroke="midnightblue" points="333.78,-29.76 337.19,-19.72 328.27,-25.44 333.78,-29.76"/>
</g>
<!-- Node6 -->
<g id="node6" class="node">
<title>Node6</title>
<g id="a_node6"><a xlink:title=" ">
<polygon fill="none" stroke="#bfbfbf" points="295,-112.5 295,-131.5 364,-131.5 364,-112.5 295,-112.5"/>
<text text-anchor="middle" x="329.5" y="-119.5" font-family="Helvetica,sans-Serif" font-size="10.00">type_traits</text>
</a>
</g>
</g>
<!-- Node1&#45;&gt;Node6 -->
<g id="edge5" class="edge">
<title>Node1&#45;&gt;Node6</title>
<path fill="none" stroke="midnightblue" d="M329.5,-168.08C329.5,-161.01 329.5,-150.86 329.5,-141.99"/>
<polygon fill="midnightblue" stroke="midnightblue" points="333,-141.75 329.5,-131.75 326,-141.75 333,-141.75"/>
</g>
<!-- Node7 -->
<g id="node7" class="node">
<title>Node7</title>
<g id="a_node7"><a xlink:title=" ">
<polygon fill="none" stroke="#bfbfbf" points="382,-112.5 382,-131.5 427,-131.5 427,-112.5 382,-112.5"/>
<text text-anchor="middle" x="404.5" y="-119.5" font-family="Helvetica,sans-Serif" font-size="10.00">utility</text>
</a>
</g>
</g>
<!-- Node1&#45;&gt;Node7 -->
<g id="edge6" class="edge">
<title>Node1&#45;&gt;Node7</title>
<path fill="none" stroke="midnightblue" d="M341.55,-168.32C352.96,-160.11 370.33,-147.6 383.93,-137.81"/>
<polygon fill="midnightblue" stroke="midnightblue" points="386.16,-140.52 392.23,-131.83 382.07,-134.84 386.16,-140.52"/>
</g>
<!-- Node8 -->
<g id="node8" class="node">
<title>Node8</title>
<g id="a_node8"><a xlink:href="../../d1/d57/_ignore_unused_8h.html" target="_top" xlink:title=" ">
<polygon fill="none" stroke="black" points="72.5,-112.5 72.5,-131.5 200.5,-131.5 200.5,-112.5 72.5,-112.5"/>
<text text-anchor="middle" x="136.5" y="-119.5" font-family="Helvetica,sans-Serif" font-size="10.00">../misc/IgnoreUnused.h</text>
</a>
</g>
</g>
<!-- Node1&#45;&gt;Node8 -->
<g id="edge7" class="edge">
<title>Node1&#45;&gt;Node8</title>
<path fill="none" stroke="midnightblue" d="M298.92,-168.44C265.89,-159.2 213.11,-144.44 176.73,-134.26"/>
<polygon fill="midnightblue" stroke="midnightblue" points="177.51,-130.84 166.94,-131.52 175.63,-137.58 177.51,-130.84"/>
</g>
<!-- Node9 -->
<g id="node9" class="node">
<title>Node9</title>
<g id="a_node9"><a xlink:title=" ">
<polygon fill="none" stroke="#bfbfbf" points="558.5,-112.5 558.5,-131.5 626.5,-131.5 626.5,-112.5 558.5,-112.5"/>
<text text-anchor="middle" x="592.5" y="-119.5" font-family="Helvetica,sans-Serif" font-size="10.00">filesystem</text>
</a>
</g>
</g>
<!-- Node1&#45;&gt;Node9 -->
<g id="edge12" class="edge">
<title>Node1&#45;&gt;Node9</title>
<path fill="none" stroke="midnightblue" d="M371.17,-168.44C419.45,-158.53 498.66,-142.27 548.08,-132.12"/>
<polygon fill="midnightblue" stroke="midnightblue" points="549.05,-135.49 558.15,-130.05 547.65,-128.64 549.05,-135.49"/>
</g>
<!-- Node10 -->
<g id="node10" class="node">
<title>Node10</title>
<g id="a_node10"><a xlink:href="../../d0/d00/compiler__defs_8h.html" target="_top" xlink:title=" ">
<polygon fill="none" stroke="black" points="445,-112.5 445,-131.5 540,-131.5 540,-112.5 445,-112.5"/>
<text text-anchor="middle" x="492.5" y="-119.5" font-family="Helvetica,sans-Serif" font-size="10.00">compiler_defs.h</text>
</a>
</g>
</g>
<!-- Node1&#45;&gt;Node10 -->
<g id="edge13" class="edge">
<title>Node1&#45;&gt;Node10</title>
<path fill="none" stroke="midnightblue" d="M355.33,-168.44C382.75,-159.36 426.28,-144.94 456.93,-134.78"/>
<polygon fill="midnightblue" stroke="midnightblue" points="458.4,-137.98 466.79,-131.52 456.2,-131.34 458.4,-137.98"/>
</g>
<!-- Node4&#45;&gt;Node5 -->
<g id="edge4" class="edge">
<title>Node4&#45;&gt;Node5</title>
<path fill="none" stroke="midnightblue" d="M469.05,-56.44C444.37,-47.44 405.31,-33.19 377.52,-23.05"/>
<polygon fill="midnightblue" stroke="midnightblue" points="378.44,-19.66 367.84,-19.52 376.04,-26.23 378.44,-19.66"/>
</g>
<!-- Node8&#45;&gt;Node2 -->
<g id="edge8" class="edge">
<title>Node8&#45;&gt;Node2</title>
<path fill="none" stroke="midnightblue" d="M121.72,-112.32C107.23,-103.82 84.93,-90.73 68.01,-80.8"/>
<polygon fill="midnightblue" stroke="midnightblue" points="69.64,-77.7 59.24,-75.65 66.1,-83.74 69.64,-77.7"/>
</g>
<!-- Node8&#45;&gt;Node3 -->
<g id="edge9" class="edge">
<title>Node8&#45;&gt;Node3</title>
<path fill="none" stroke="midnightblue" d="M147.1,-112.32C156.96,-104.26 171.85,-92.08 183.72,-82.37"/>
<polygon fill="midnightblue" stroke="midnightblue" points="186.18,-84.88 191.7,-75.83 181.75,-79.46 186.18,-84.88"/>
</g>
<!-- Node8&#45;&gt;Node5 -->
<g id="edge10" class="edge">
<title>Node8&#45;&gt;Node5</title>
<path fill="none" stroke="midnightblue" d="M133.41,-112.3C129.17,-98.67 123.46,-72.16 136.5,-56 154.79,-33.33 229.47,-21.51 284.12,-15.78"/>
<polygon fill="midnightblue" stroke="midnightblue" points="284.48,-19.26 294.08,-14.78 283.78,-12.3 284.48,-19.26"/>
</g>
<!-- Node10&#45;&gt;Node4 -->
<g id="edge15" class="edge">
<title>Node10&#45;&gt;Node4</title>
<path fill="none" stroke="midnightblue" d="M492.5,-112.08C492.5,-105.01 492.5,-94.86 492.5,-85.99"/>
<polygon fill="midnightblue" stroke="midnightblue" points="496,-85.75 492.5,-75.75 489,-85.75 496,-85.75"/>
</g>
<!-- Node10&#45;&gt;Node5 -->
<g id="edge14" class="edge">
<title>Node10&#45;&gt;Node5</title>
<path fill="none" stroke="midnightblue" d="M477.7,-112.43C463.07,-103.76 440.21,-89.73 421.5,-76 400.08,-60.28 376.97,-40.34 361.72,-26.71"/>
<polygon fill="midnightblue" stroke="midnightblue" points="363.89,-23.95 354.12,-19.86 359.2,-29.15 363.89,-23.95"/>
</g>
</g>
</svg>
