<?xml version="1.0" encoding="UTF-8" standalone="no"?>
<!DOCTYPE svg PUBLIC "-//W3C//DTD SVG 1.1//EN"
 "http://www.w3.org/Graphics/SVG/1.1/DTD/svg11.dtd">
<!-- Generated by graphviz version 2.43.0 (0)
 -->
<!-- Title: RawData.h Pages: 1 -->
<svg width="768pt" height="140pt"
 viewBox="0.00 0.00 768.00 140.00" xmlns="http://www.w3.org/2000/svg" xmlns:xlink="http://www.w3.org/1999/xlink">
<g id="graph0" class="graph" transform="scale(1 1) rotate(0) translate(4 136)">
<title>RawData.h</title>
<!-- Node1 -->
<g id="node1" class="node">
<title>Node1</title>
<g id="a_node1"><a xlink:title=" ">
<polygon fill="#bfbfbf" stroke="black" points="374.5,-112.5 374.5,-131.5 444.5,-131.5 444.5,-112.5 374.5,-112.5"/>
<text text-anchor="middle" x="409.5" y="-119.5" font-family="Helvetica,sans-Serif" font-size="10.00">RawData.h</text>
</a>
</g>
</g>
<!-- Node2 -->
<g id="node2" class="node">
<title>Node2</title>
<g id="a_node2"><a xlink:title=" ">
<polygon fill="none" stroke="#bfbfbf" points="0,-0.5 0,-19.5 89,-19.5 89,-0.5 0,-0.5"/>
<text text-anchor="middle" x="44.5" y="-7.5" font-family="Helvetica,sans-Serif" font-size="10.00">limes_export.h</text>
</a>
</g>
</g>
<!-- Node1&#45;&gt;Node2 -->
<g id="edge1" class="edge">
<title>Node1&#45;&gt;Node2</title>
<path fill="none" stroke="midnightblue" d="M374.27,-113.54C337.02,-105.38 276.67,-91.4 225.5,-76 172.02,-59.91 111.15,-37.09 75.38,-23.21"/>
<polygon fill="midnightblue" stroke="midnightblue" points="76.58,-19.92 65.99,-19.55 74.03,-26.44 76.58,-19.92"/>
</g>
<!-- Node3 -->
<g id="node3" class="node">
<title>Node3</title>
<g id="a_node3"><a xlink:href="../../da/d0b/limes__namespace_8h.html" target="_top" xlink:title=" ">
<polygon fill="none" stroke="black" points="107.5,-0.5 107.5,-19.5 221.5,-19.5 221.5,-0.5 107.5,-0.5"/>
<text text-anchor="middle" x="164.5" y="-7.5" font-family="Helvetica,sans-Serif" font-size="10.00">limes_namespace.h</text>
</a>
</g>
</g>
<!-- Node1&#45;&gt;Node3 -->
<g id="edge2" class="edge">
<title>Node1&#45;&gt;Node3</title>
<path fill="none" stroke="midnightblue" d="M374.25,-113.11C344.02,-105.65 299.74,-93.06 263.5,-76 233.82,-62.03 202.68,-40.22 183.43,-25.77"/>
<polygon fill="midnightblue" stroke="midnightblue" points="185.54,-22.99 175.47,-19.71 181.3,-28.55 185.54,-22.99"/>
</g>
<!-- Node4 -->
<g id="node4" class="node">
<title>Node4</title>
<g id="a_node4"><a xlink:title=" ">
<polygon fill="none" stroke="#bfbfbf" points="240,-0.5 240,-19.5 293,-19.5 293,-0.5 240,-0.5"/>
<text text-anchor="middle" x="266.5" y="-7.5" font-family="Helvetica,sans-Serif" font-size="10.00">cstddef</text>
</a>
</g>
</g>
<!-- Node1&#45;&gt;Node4 -->
<g id="edge3" class="edge">
<title>Node1&#45;&gt;Node4</title>
<path fill="none" stroke="midnightblue" d="M374.48,-118.95C343.87,-115.19 300.64,-104.75 276.5,-76 265.84,-63.31 264.05,-44.1 264.51,-29.86"/>
<polygon fill="midnightblue" stroke="midnightblue" points="268.01,-29.94 265.22,-19.72 261.03,-29.44 268.01,-29.94"/>
</g>
<!-- Node5 -->
<g id="node5" class="node">
<title>Node5</title>
<g id="a_node5"><a xlink:title=" ">
<polygon fill="none" stroke="#bfbfbf" points="475.5,-56.5 475.5,-75.5 535.5,-75.5 535.5,-56.5 475.5,-56.5"/>
<text text-anchor="middle" x="505.5" y="-63.5" font-family="Helvetica,sans-Serif" font-size="10.00">iostream</text>
</a>
</g>
</g>
<!-- Node1&#45;&gt;Node5 -->
<g id="edge4" class="edge">
<title>Node1&#45;&gt;Node5</title>
<path fill="none" stroke="midnightblue" d="M424.92,-112.32C440.04,-103.82 463.32,-90.73 480.97,-80.8"/>
<polygon fill="midnightblue" stroke="midnightblue" points="483.11,-83.61 490.11,-75.65 479.68,-77.51 483.11,-83.61"/>
</g>
<!-- Node6 -->
<g id="node6" class="node">
<title>Node6</title>
<g id="a_node6"><a xlink:title=" ">
<polygon fill="none" stroke="#bfbfbf" points="387.5,-0.5 387.5,-19.5 431.5,-19.5 431.5,-0.5 387.5,-0.5"/>
<text text-anchor="middle" x="409.5" y="-7.5" font-family="Helvetica,sans-Serif" font-size="10.00">string</text>
</a>
</g>
</g>
<!-- Node1&#45;&gt;Node6 -->
<g id="edge5" class="edge">
<title>Node1&#45;&gt;Node6</title>
<path fill="none" stroke="midnightblue" d="M409.5,-112.37C409.5,-94.62 409.5,-53.67 409.5,-29.6"/>
<polygon fill="midnightblue" stroke="midnightblue" points="413,-29.59 409.5,-19.59 406,-29.59 413,-29.59"/>
</g>
<!-- Node7 -->
<g id="node7" class="node">
<title>Node7</title>
<g id="a_node7"><a xlink:title=" ">
<polygon fill="none" stroke="#bfbfbf" points="450,-0.5 450,-19.5 523,-19.5 523,-0.5 450,-0.5"/>
<text text-anchor="middle" x="486.5" y="-7.5" font-family="Helvetica,sans-Serif" font-size="10.00">string_view</text>
</a>
</g>
</g>
<!-- Node1&#45;&gt;Node7 -->
<g id="edge6" class="edge">
<title>Node1&#45;&gt;Node7</title>
<path fill="none" stroke="midnightblue" d="M415.54,-112.37C428.25,-94.22 457.94,-51.8 474.61,-27.99"/>
<polygon fill="midnightblue" stroke="midnightblue" points="477.62,-29.79 480.49,-19.59 471.88,-25.78 477.62,-29.79"/>
</g>
<!-- Node8 -->
<g id="node8" class="node">
<title>Node8</title>
<g id="a_node8"><a xlink:href="../../db/dfb/hash_8h.html" target="_top" xlink:title=" ">
<polygon fill="none" stroke="black" points="286,-56.5 286,-75.5 381,-75.5 381,-56.5 286,-56.5"/>
<text text-anchor="middle" x="333.5" y="-63.5" font-family="Helvetica,sans-Serif" font-size="10.00">../hashes/hash.h</text>
</a>
</g>
</g>
<!-- Node1&#45;&gt;Node8 -->
<g id="edge7" class="edge">
<title>Node1&#45;&gt;Node8</title>
<path fill="none" stroke="midnightblue" d="M397.29,-112.32C385.72,-104.11 368.12,-91.6 354.34,-81.81"/>
<polygon fill="midnightblue" stroke="midnightblue" points="356.11,-78.77 345.93,-75.83 352.06,-84.48 356.11,-78.77"/>
</g>
<!-- Node10 -->
<g id="node10" class="node">
<title>Node10</title>
<g id="a_node10"><a xlink:href="../../d3/d53/preprocessor_8h.html" target="_top" xlink:title=" ">
<polygon fill="none" stroke="black" points="554,-56.5 554,-75.5 677,-75.5 677,-56.5 554,-56.5"/>
<text text-anchor="middle" x="615.5" y="-63.5" font-family="Helvetica,sans-Serif" font-size="10.00">../misc/preprocessor.h</text>
</a>
</g>
</g>
<!-- Node1&#45;&gt;Node10 -->
<g id="edge14" class="edge">
<title>Node1&#45;&gt;Node10</title>
<path fill="none" stroke="midnightblue" d="M442.14,-112.44C477.55,-103.16 534.21,-88.31 573.05,-78.13"/>
<polygon fill="midnightblue" stroke="midnightblue" points="574.23,-81.44 583.01,-75.52 572.45,-74.67 574.23,-81.44"/>
</g>
<!-- Node12 -->
<g id="node12" class="node">
<title>Node12</title>
<g id="a_node12"><a xlink:title=" ">
<polygon fill="none" stroke="#bfbfbf" points="695,-56.5 695,-75.5 760,-75.5 760,-56.5 695,-56.5"/>
<text text-anchor="middle" x="727.5" y="-63.5" font-family="Helvetica,sans-Serif" font-size="10.00">functional</text>
</a>
</g>
</g>
<!-- Node1&#45;&gt;Node12 -->
<g id="edge16" class="edge">
<title>Node1&#45;&gt;Node12</title>
<path fill="none" stroke="midnightblue" d="M444.59,-115.93C495.42,-108.45 592.73,-93.62 684.82,-76.24"/>
<polygon fill="midnightblue" stroke="midnightblue" points="685.69,-79.64 694.86,-74.33 684.38,-72.76 685.69,-79.64"/>
</g>
<!-- Node8&#45;&gt;Node2 -->
<g id="edge8" class="edge">
<title>Node8&#45;&gt;Node2</title>
<path fill="none" stroke="midnightblue" d="M287.71,-56.44C236.46,-46.87 153.5,-31.37 98.97,-21.18"/>
<polygon fill="midnightblue" stroke="midnightblue" points="99.6,-17.74 89.13,-19.34 98.32,-24.62 99.6,-17.74"/>
</g>
<!-- Node8&#45;&gt;Node3 -->
<g id="edge9" class="edge">
<title>Node8&#45;&gt;Node3</title>
<path fill="none" stroke="midnightblue" d="M306.72,-56.44C278.17,-47.32 232.77,-32.81 200.96,-22.65"/>
<polygon fill="midnightblue" stroke="midnightblue" points="201.74,-19.23 191.15,-19.52 199.61,-25.89 201.74,-19.23"/>
</g>
<!-- Node8&#45;&gt;Node4 -->
<g id="edge10" class="edge">
<title>Node8&#45;&gt;Node4</title>
<path fill="none" stroke="midnightblue" d="M322.74,-56.32C312.73,-48.26 297.61,-36.08 285.57,-26.37"/>
<polygon fill="midnightblue" stroke="midnightblue" points="287.44,-23.38 277.46,-19.83 283.05,-28.83 287.44,-23.38"/>
</g>
<!-- Node8&#45;&gt;Node6 -->
<g id="edge11" class="edge">
<title>Node8&#45;&gt;Node6</title>
<path fill="none" stroke="midnightblue" d="M345.71,-56.32C357.28,-48.11 374.88,-35.6 388.66,-25.81"/>
<polygon fill="midnightblue" stroke="midnightblue" points="390.94,-28.48 397.07,-19.83 386.89,-22.77 390.94,-28.48"/>
</g>
<!-- Node8&#45;&gt;Node7 -->
<g id="edge12" class="edge">
<title>Node8&#45;&gt;Node7</title>
<path fill="none" stroke="midnightblue" d="M357.74,-56.44C383.37,-47.4 423.99,-33.06 452.74,-22.92"/>
<polygon fill="midnightblue" stroke="midnightblue" points="454.11,-26.15 462.37,-19.52 451.78,-19.54 454.11,-26.15"/>
</g>
<!-- Node9 -->
<g id="node9" class="node">
<title>Node9</title>
<g id="a_node9"><a xlink:title=" ">
<polygon fill="none" stroke="#bfbfbf" points="311.5,-0.5 311.5,-19.5 369.5,-19.5 369.5,-0.5 311.5,-0.5"/>
<text text-anchor="middle" x="340.5" y="-7.5" font-family="Helvetica,sans-Serif" font-size="10.00">memory</text>
</a>
</g>
</g>
<!-- Node8&#45;&gt;Node9 -->
<g id="edge13" class="edge">
<title>Node8&#45;&gt;Node9</title>
<path fill="none" stroke="midnightblue" d="M334.66,-56.08C335.58,-48.93 336.92,-38.64 338.08,-29.69"/>
<polygon fill="midnightblue" stroke="midnightblue" points="341.55,-30.12 339.37,-19.75 334.61,-29.22 341.55,-30.12"/>
</g>
<!-- Node11 -->
<g id="node11" class="node">
<title>Node11</title>
<g id="a_node11"><a xlink:title=" ">
<polygon fill="none" stroke="#bfbfbf" points="565.5,-0.5 565.5,-19.5 665.5,-19.5 665.5,-0.5 565.5,-0.5"/>
<text text-anchor="middle" x="615.5" y="-7.5" font-family="Helvetica,sans-Serif" font-size="10.00">limes_platform.h</text>
</a>
</g>
</g>
<!-- Node10&#45;&gt;Node11 -->
<g id="edge15" class="edge">
<title>Node10&#45;&gt;Node11</title>
<path fill="none" stroke="midnightblue" d="M615.5,-56.08C615.5,-49.01 615.5,-38.86 615.5,-29.99"/>
<polygon fill="midnightblue" stroke="midnightblue" points="619,-29.75 615.5,-19.75 612,-29.75 619,-29.75"/>
</g>
</g>
</svg>
