<?xml version="1.0" encoding="UTF-8" standalone="no"?>
<!DOCTYPE svg PUBLIC "-//W3C//DTD SVG 1.1//EN"
 "http://www.w3.org/Graphics/SVG/1.1/DTD/svg11.dtd">
<!-- Generated by graphviz version 2.43.0 (0)
 -->
<!-- Title: pyramid.h Pages: 1 -->
<svg width="1517pt" height="476pt"
 viewBox="0.00 0.00 1517.00 476.00" xmlns="http://www.w3.org/2000/svg" xmlns:xlink="http://www.w3.org/1999/xlink">
<g id="graph0" class="graph" transform="scale(1 1) rotate(0) translate(4 472)">
<title>pyramid.h</title>
<!-- Node1 -->
<g id="node1" class="node">
<title>Node1</title>
<g id="a_node1"><a xlink:title=" ">
<polygon fill="#bfbfbf" stroke="black" points="1089,-448.5 1089,-467.5 1155,-467.5 1155,-448.5 1089,-448.5"/>
<text text-anchor="middle" x="1122" y="-455.5" font-family="Helvetica,sans-Serif" font-size="10.00">pyramid.h</text>
</a>
</g>
</g>
<!-- Node2 -->
<g id="node2" class="node">
<title>Node2</title>
<g id="a_node2"><a xlink:href="../../da/d0b/limes__namespace_8h.html" target="_top" xlink:title=" ">
<polygon fill="none" stroke="black" points="513,-56.5 513,-75.5 627,-75.5 627,-56.5 513,-56.5"/>
<text text-anchor="middle" x="570" y="-63.5" font-family="Helvetica,sans-Serif" font-size="10.00">limes_namespace.h</text>
</a>
</g>
</g>
<!-- Node1&#45;&gt;Node2 -->
<g id="edge1" class="edge">
<title>Node1&#45;&gt;Node2</title>
<path fill="none" stroke="midnightblue" d="M1088.85,-456.48C927.06,-453.5 228,-435.5 228,-347 228,-347 228,-347 228,-233 228,-112.08 403.16,-79.22 502.77,-70.3"/>
<polygon fill="midnightblue" stroke="midnightblue" points="503.08,-73.79 512.76,-69.47 502.5,-66.81 503.08,-73.79"/>
</g>
<!-- Node3 -->
<g id="node3" class="node">
<title>Node3</title>
<g id="a_node3"><a xlink:title=" ">
<polygon fill="none" stroke="#bfbfbf" points="259.5,-56.5 259.5,-75.5 348.5,-75.5 348.5,-56.5 259.5,-56.5"/>
<text text-anchor="middle" x="304" y="-63.5" font-family="Helvetica,sans-Serif" font-size="10.00">limes_export.h</text>
</a>
</g>
</g>
<!-- Node1&#45;&gt;Node3 -->
<g id="edge2" class="edge">
<title>Node1&#45;&gt;Node3</title>
<path fill="none" stroke="midnightblue" d="M1088.97,-457.21C939.42,-457.9 324.99,-457.83 139,-412 72.78,-395.68 0,-415.2 0,-347 0,-347 0,-347 0,-233 0,-120.64 161.95,-83.87 249.44,-72.2"/>
<polygon fill="midnightblue" stroke="midnightblue" points="249.99,-75.66 259.47,-70.93 249.11,-68.71 249.99,-75.66"/>
</g>
<!-- Node4 -->
<g id="node4" class="node">
<title>Node4</title>
<g id="a_node4"><a xlink:title=" ">
<polygon fill="none" stroke="#bfbfbf" points="1019,-0.5 1019,-19.5 1119,-19.5 1119,-0.5 1019,-0.5"/>
<text text-anchor="middle" x="1069" y="-7.5" font-family="Helvetica,sans-Serif" font-size="10.00">limes_platform.h</text>
</a>
</g>
</g>
<!-- Node1&#45;&gt;Node4 -->
<g id="edge3" class="edge">
<title>Node1&#45;&gt;Node4</title>
<path fill="none" stroke="midnightblue" d="M1155.24,-457.15C1211.94,-456.3 1330.07,-449.67 1421,-412 1465.92,-393.39 1509,-395.62 1509,-347 1509,-347 1509,-347 1509,-121 1509,-43.63 1249.7,-20.22 1129.22,-13.52"/>
<polygon fill="midnightblue" stroke="midnightblue" points="1129.22,-10.02 1119.05,-12.98 1128.84,-17.01 1129.22,-10.02"/>
</g>
<!-- Node5 -->
<g id="node5" class="node">
<title>Node5</title>
<g id="a_node5"><a xlink:href="../../d3/d53/preprocessor_8h.html" target="_top" xlink:title=" ">
<polygon fill="none" stroke="black" points="1186.5,-56.5 1186.5,-75.5 1327.5,-75.5 1327.5,-56.5 1186.5,-56.5"/>
<text text-anchor="middle" x="1257" y="-63.5" font-family="Helvetica,sans-Serif" font-size="10.00">../../../misc/preprocessor.h</text>
</a>
</g>
</g>
<!-- Node1&#45;&gt;Node5 -->
<g id="edge4" class="edge">
<title>Node1&#45;&gt;Node5</title>
<path fill="none" stroke="midnightblue" d="M1155.15,-453.71C1242.26,-444.17 1471,-412.83 1471,-347 1471,-347 1471,-347 1471,-177 1471,-114.68 1398.32,-87.63 1337.67,-75.92"/>
<polygon fill="midnightblue" stroke="midnightblue" points="1338.13,-72.45 1327.66,-74.1 1336.88,-79.33 1338.13,-72.45"/>
</g>
<!-- Node6 -->
<g id="node6" class="node">
<title>Node6</title>
<g id="a_node6"><a xlink:href="../../dd/d6a/triangle_8h.html" target="_top" xlink:title=" ">
<polygon fill="none" stroke="black" points="674.5,-336.5 674.5,-355.5 763.5,-355.5 763.5,-336.5 674.5,-336.5"/>
<text text-anchor="middle" x="719" y="-343.5" font-family="Helvetica,sans-Serif" font-size="10.00">../2D/triangle.h</text>
</a>
</g>
</g>
<!-- Node1&#45;&gt;Node6 -->
<g id="edge6" class="edge">
<title>Node1&#45;&gt;Node6</title>
<path fill="none" stroke="midnightblue" d="M1090.71,-448.46C1018.62,-428.78 840.83,-380.25 760.08,-358.21"/>
<polygon fill="midnightblue" stroke="midnightblue" points="760.84,-354.79 750.27,-355.53 758.99,-361.54 760.84,-354.79"/>
</g>
<!-- Node10 -->
<g id="node10" class="node">
<title>Node10</title>
<g id="a_node10"><a xlink:title=" ">
<polygon fill="none" stroke="#bfbfbf" points="1257.5,-168.5 1257.5,-187.5 1304.5,-187.5 1304.5,-168.5 1257.5,-168.5"/>
<text text-anchor="middle" x="1281" y="-175.5" font-family="Helvetica,sans-Serif" font-size="10.00">cmath</text>
</a>
</g>
</g>
<!-- Node1&#45;&gt;Node10 -->
<g id="edge54" class="edge">
<title>Node1&#45;&gt;Node10</title>
<path fill="none" stroke="midnightblue" d="M1155.2,-450.9C1227.96,-436.59 1395,-398.16 1395,-347 1395,-347 1395,-347 1395,-289 1395,-242.11 1344.45,-208.89 1310.67,-191.93"/>
<polygon fill="midnightblue" stroke="midnightblue" points="1312.17,-188.77 1301.64,-187.58 1309.13,-195.07 1312.17,-188.77"/>
</g>
<!-- Node18 -->
<g id="node18" class="node">
<title>Node18</title>
<g id="a_node18"><a xlink:href="../../db/dd0/rectangle_8h.html" target="_top" xlink:title=" ">
<polygon fill="none" stroke="black" points="1175.5,-392.5 1175.5,-411.5 1272.5,-411.5 1272.5,-392.5 1175.5,-392.5"/>
<text text-anchor="middle" x="1224" y="-399.5" font-family="Helvetica,sans-Serif" font-size="10.00">../2D/rectangle.h</text>
</a>
</g>
</g>
<!-- Node1&#45;&gt;Node18 -->
<g id="edge43" class="edge">
<title>Node1&#45;&gt;Node18</title>
<path fill="none" stroke="midnightblue" d="M1138.39,-448.32C1154.67,-439.7 1179.87,-426.36 1198.72,-416.39"/>
<polygon fill="midnightblue" stroke="midnightblue" points="1200.45,-419.43 1207.65,-411.65 1197.18,-413.24 1200.45,-419.43"/>
</g>
<!-- Node19 -->
<g id="node19" class="node">
<title>Node19</title>
<g id="a_node19"><a xlink:href="../../d7/d88/3_dshape_8h.html" target="_top" xlink:title=" ">
<polygon fill="none" stroke="black" points="170,-112.5 170,-131.5 238,-131.5 238,-112.5 170,-112.5"/>
<text text-anchor="middle" x="204" y="-119.5" font-family="Helvetica,sans-Serif" font-size="10.00">3Dshape.h</text>
</a>
</g>
</g>
<!-- Node1&#45;&gt;Node19 -->
<g id="edge51" class="edge">
<title>Node1&#45;&gt;Node19</title>
<path fill="none" stroke="midnightblue" d="M1089,-456.38C935.87,-453.38 298.47,-439.33 214,-412 163.57,-395.68 114,-400.01 114,-347 114,-347 114,-347 114,-233 114,-190.66 154.44,-155.66 181.1,-137.18"/>
<polygon fill="midnightblue" stroke="midnightblue" points="183.16,-140.02 189.54,-131.56 179.28,-134.19 183.16,-140.02"/>
</g>
<!-- Node5&#45;&gt;Node4 -->
<g id="edge5" class="edge">
<title>Node5&#45;&gt;Node4</title>
<path fill="none" stroke="midnightblue" d="M1227.21,-56.44C1195.17,-47.24 1144.07,-32.56 1108.65,-22.39"/>
<polygon fill="midnightblue" stroke="midnightblue" points="1109.23,-18.91 1098.65,-19.52 1107.29,-25.64 1109.23,-18.91"/>
</g>
<!-- Node6&#45;&gt;Node2 -->
<g id="edge7" class="edge">
<title>Node6&#45;&gt;Node2</title>
<path fill="none" stroke="midnightblue" d="M674.21,-338.64C618.89,-327.96 532,-300.73 532,-235 532,-235 532,-235 532,-177 532,-142.81 548.6,-105.76 559.86,-84.57"/>
<polygon fill="midnightblue" stroke="midnightblue" points="562.95,-86.22 564.72,-75.77 556.82,-82.83 562.95,-86.22"/>
</g>
<!-- Node6&#45;&gt;Node3 -->
<g id="edge8" class="edge">
<title>Node6&#45;&gt;Node3</title>
<path fill="none" stroke="midnightblue" d="M674.32,-343.61C560.04,-338.84 266,-318.46 266,-235 266,-235 266,-235 266,-177 266,-142.81 282.6,-105.76 293.86,-84.57"/>
<polygon fill="midnightblue" stroke="midnightblue" points="296.95,-86.22 298.72,-75.77 290.82,-82.83 296.95,-86.22"/>
</g>
<!-- Node6&#45;&gt;Node4 -->
<g id="edge9" class="edge">
<title>Node6&#45;&gt;Node4</title>
<path fill="none" stroke="midnightblue" d="M674.4,-345.77C528.49,-346.22 78.68,-330.14 150,-112 159.59,-82.68 163.86,-70.65 191,-56 262.47,-17.42 822.06,-11.88 1008.67,-11.12"/>
<polygon fill="midnightblue" stroke="midnightblue" points="1008.86,-14.62 1018.85,-11.08 1008.83,-7.62 1008.86,-14.62"/>
</g>
<!-- Node6&#45;&gt;Node5 -->
<g id="edge13" class="edge">
<title>Node6&#45;&gt;Node5</title>
<path fill="none" stroke="midnightblue" d="M746.21,-336.45C814.97,-314.54 1000.89,-253.49 1150,-188 1199.5,-166.26 1229.91,-178.2 1258,-132 1266.42,-118.15 1265.08,-99.38 1262.28,-85.58"/>
<polygon fill="midnightblue" stroke="midnightblue" points="1265.65,-84.64 1259.88,-75.75 1258.85,-86.3 1265.65,-84.64"/>
</g>
<!-- Node7 -->
<g id="node7" class="node">
<title>Node7</title>
<g id="a_node7"><a xlink:href="../../d8/d23/2_dshape_8h.html" target="_top" xlink:title=" ">
<polygon fill="none" stroke="black" points="612,-224.5 612,-243.5 680,-243.5 680,-224.5 612,-224.5"/>
<text text-anchor="middle" x="646" y="-231.5" font-family="Helvetica,sans-Serif" font-size="10.00">2Dshape.h</text>
</a>
</g>
</g>
<!-- Node6&#45;&gt;Node7 -->
<g id="edge10" class="edge">
<title>Node6&#45;&gt;Node7</title>
<path fill="none" stroke="midnightblue" d="M713.27,-336.37C701.22,-318.22 673.08,-275.8 657.28,-251.99"/>
<polygon fill="midnightblue" stroke="midnightblue" points="660.15,-249.99 651.7,-243.59 654.31,-253.86 660.15,-249.99"/>
</g>
<!-- Node8 -->
<g id="node8" class="node">
<title>Node8</title>
<g id="a_node8"><a xlink:href="../../da/dac/angle_8h.html" target="_top" xlink:title=" ">
<polygon fill="none" stroke="black" points="429.5,-280.5 429.5,-299.5 482.5,-299.5 482.5,-280.5 429.5,-280.5"/>
<text text-anchor="middle" x="456" y="-287.5" font-family="Helvetica,sans-Serif" font-size="10.00">angle.h</text>
</a>
</g>
</g>
<!-- Node6&#45;&gt;Node8 -->
<g id="edge14" class="edge">
<title>Node6&#45;&gt;Node8</title>
<path fill="none" stroke="midnightblue" d="M677.33,-336.44C626.45,-326 541.22,-308.5 492.72,-298.54"/>
<polygon fill="midnightblue" stroke="midnightblue" points="493.16,-295.06 482.66,-296.47 491.75,-301.91 493.16,-295.06"/>
</g>
<!-- Node9 -->
<g id="node9" class="node">
<title>Node9</title>
<g id="a_node9"><a xlink:href="../../dd/dfb/math_helpers_8h.html" target="_top" xlink:title=" ">
<polygon fill="none" stroke="black" points="772.5,-224.5 772.5,-243.5 879.5,-243.5 879.5,-224.5 772.5,-224.5"/>
<text text-anchor="middle" x="826" y="-231.5" font-family="Helvetica,sans-Serif" font-size="10.00">../../mathHelpers.h</text>
</a>
</g>
</g>
<!-- Node6&#45;&gt;Node9 -->
<g id="edge41" class="edge">
<title>Node6&#45;&gt;Node9</title>
<path fill="none" stroke="midnightblue" d="M727.4,-336.37C745.29,-317.97 787.41,-274.67 810.39,-251.05"/>
<polygon fill="midnightblue" stroke="midnightblue" points="813.18,-253.2 817.64,-243.59 808.16,-248.32 813.18,-253.2"/>
</g>
<!-- Node6&#45;&gt;Node10 -->
<g id="edge42" class="edge">
<title>Node6&#45;&gt;Node10</title>
<path fill="none" stroke="midnightblue" d="M748.03,-336.42C843.32,-308.28 1146.21,-218.81 1247.58,-188.87"/>
<polygon fill="midnightblue" stroke="midnightblue" points="1248.7,-192.19 1257.3,-186 1246.71,-185.48 1248.7,-192.19"/>
</g>
<!-- Node7&#45;&gt;Node2 -->
<g id="edge11" class="edge">
<title>Node7&#45;&gt;Node2</title>
<path fill="none" stroke="midnightblue" d="M641.04,-224.26C631.33,-206.97 609.41,-167.02 594,-132 587.19,-116.52 580.62,-98.43 576.08,-85.27"/>
<polygon fill="midnightblue" stroke="midnightblue" points="579.31,-83.89 572.78,-75.54 572.68,-86.14 579.31,-83.89"/>
</g>
<!-- Node7&#45;&gt;Node3 -->
<g id="edge12" class="edge">
<title>Node7&#45;&gt;Node3</title>
<path fill="none" stroke="midnightblue" d="M611.82,-226.05C556.65,-213.7 446.09,-184.2 366,-132 346.09,-119.03 327.92,-98.47 316.47,-83.95"/>
<polygon fill="midnightblue" stroke="midnightblue" points="319.1,-81.64 310.25,-75.81 313.54,-85.89 319.1,-81.64"/>
</g>
<!-- Node8&#45;&gt;Node2 -->
<g id="edge16" class="edge">
<title>Node8&#45;&gt;Node2</title>
<path fill="none" stroke="midnightblue" d="M457.43,-280.17C462.14,-253.01 479.19,-169.08 518,-112 525.97,-100.28 537.74,-89.75 548.06,-81.83"/>
<polygon fill="midnightblue" stroke="midnightblue" points="550.27,-84.54 556.28,-75.82 546.14,-78.89 550.27,-84.54"/>
</g>
<!-- Node8&#45;&gt;Node3 -->
<g id="edge15" class="edge">
<title>Node8&#45;&gt;Node3</title>
<path fill="none" stroke="midnightblue" d="M448.55,-280.17C429.06,-256.86 375.5,-191.39 338,-132 328.25,-116.55 318.75,-98.01 312.28,-84.69"/>
<polygon fill="midnightblue" stroke="midnightblue" points="315.44,-83.18 307.97,-75.66 309.12,-86.19 315.44,-83.18"/>
</g>
<!-- Node8&#45;&gt;Node4 -->
<g id="edge17" class="edge">
<title>Node8&#45;&gt;Node4</title>
<path fill="none" stroke="midnightblue" d="M429.21,-285.21C345.71,-272.17 99.35,-223.62 161,-112 183.59,-71.09 205.47,-70.18 250,-56 391.16,-11.06 843.83,-9.44 1008.44,-10.41"/>
<polygon fill="midnightblue" stroke="midnightblue" points="1008.83,-13.92 1018.86,-10.48 1008.88,-6.92 1008.83,-13.92"/>
</g>
<!-- Node8&#45;&gt;Node9 -->
<g id="edge18" class="edge">
<title>Node8&#45;&gt;Node9</title>
<path fill="none" stroke="midnightblue" d="M482.61,-285.12C540.67,-276.64 680.08,-256.3 762.31,-244.3"/>
<polygon fill="midnightblue" stroke="midnightblue" points="762.9,-247.75 772.29,-242.84 761.89,-240.82 762.9,-247.75"/>
</g>
<!-- Node9&#45;&gt;Node2 -->
<g id="edge19" class="edge">
<title>Node9&#45;&gt;Node2</title>
<path fill="none" stroke="midnightblue" d="M811.46,-224.34C789.57,-211.44 746.68,-186.69 709,-168 673.34,-150.32 659.11,-155.52 627,-132 608.73,-118.61 592.19,-98.41 581.69,-84.09"/>
<polygon fill="midnightblue" stroke="midnightblue" points="584.34,-81.79 575.7,-75.66 578.64,-85.84 584.34,-81.79"/>
</g>
<!-- Node9&#45;&gt;Node3 -->
<g id="edge22" class="edge">
<title>Node9&#45;&gt;Node3</title>
<path fill="none" stroke="midnightblue" d="M780.1,-224.47C739.47,-216.48 678.76,-203.47 627,-188 516.59,-155 389.65,-103.24 333.42,-79.57"/>
<polygon fill="midnightblue" stroke="midnightblue" points="334.65,-76.29 324.08,-75.62 331.93,-82.74 334.65,-76.29"/>
</g>
<!-- Node9&#45;&gt;Node5 -->
<g id="edge40" class="edge">
<title>Node9&#45;&gt;Node5</title>
<path fill="none" stroke="midnightblue" d="M879.87,-226.78C979.74,-214.16 1188.01,-182.39 1238,-132 1250.02,-119.88 1254.52,-100.6 1256.16,-86.18"/>
<polygon fill="midnightblue" stroke="midnightblue" points="1259.67,-86.13 1256.95,-75.89 1252.69,-85.59 1259.67,-86.13"/>
</g>
<!-- Node9&#45;&gt;Node10 -->
<g id="edge20" class="edge">
<title>Node9&#45;&gt;Node10</title>
<path fill="none" stroke="midnightblue" d="M879.53,-226.65C974.21,-215.41 1168.61,-192.34 1247.06,-183.03"/>
<polygon fill="midnightblue" stroke="midnightblue" points="1247.82,-186.46 1257.34,-181.81 1246.99,-179.51 1247.82,-186.46"/>
</g>
<!-- Node11 -->
<g id="node11" class="node">
<title>Node11</title>
<g id="a_node11"><a xlink:title=" ">
<polygon fill="none" stroke="#bfbfbf" points="1046.5,-112.5 1046.5,-131.5 1115.5,-131.5 1115.5,-112.5 1046.5,-112.5"/>
<text text-anchor="middle" x="1081" y="-119.5" font-family="Helvetica,sans-Serif" font-size="10.00">type_traits</text>
</a>
</g>
</g>
<!-- Node9&#45;&gt;Node11 -->
<g id="edge21" class="edge">
<title>Node9&#45;&gt;Node11</title>
<path fill="none" stroke="midnightblue" d="M866.09,-224.48C897.61,-217.01 942.2,-204.73 979,-188 1009.67,-174.06 1041.96,-152.06 1061.79,-137.58"/>
<polygon fill="midnightblue" stroke="midnightblue" points="1064.03,-140.28 1069.98,-131.52 1059.86,-134.66 1064.03,-140.28"/>
</g>
<!-- Node12 -->
<g id="node12" class="node">
<title>Node12</title>
<g id="a_node12"><a xlink:title=" ">
<polygon fill="none" stroke="#bfbfbf" points="636,-168.5 636,-187.5 700,-187.5 700,-168.5 636,-168.5"/>
<text text-anchor="middle" x="668" y="-175.5" font-family="Helvetica,sans-Serif" font-size="10.00">algorithm</text>
</a>
</g>
</g>
<!-- Node9&#45;&gt;Node12 -->
<g id="edge23" class="edge">
<title>Node9&#45;&gt;Node12</title>
<path fill="none" stroke="midnightblue" d="M800.96,-224.44C774.38,-215.36 732.19,-200.94 702.48,-190.78"/>
<polygon fill="midnightblue" stroke="midnightblue" points="703.51,-187.44 692.92,-187.52 701.25,-194.06 703.51,-187.44"/>
</g>
<!-- Node13 -->
<g id="node13" class="node">
<title>Node13</title>
<g id="a_node13"><a xlink:href="../../d5/dbb/limes__assert_8h.html" target="_top" xlink:title=" ">
<polygon fill="none" stroke="black" points="834,-168.5 834,-187.5 970,-187.5 970,-168.5 834,-168.5"/>
<text text-anchor="middle" x="902" y="-175.5" font-family="Helvetica,sans-Serif" font-size="10.00">../system/limes_assert.h</text>
</a>
</g>
</g>
<!-- Node9&#45;&gt;Node13 -->
<g id="edge24" class="edge">
<title>Node9&#45;&gt;Node13</title>
<path fill="none" stroke="midnightblue" d="M838.21,-224.32C849.78,-216.11 867.38,-203.6 881.16,-193.81"/>
<polygon fill="midnightblue" stroke="midnightblue" points="883.44,-196.48 889.57,-187.83 879.39,-190.77 883.44,-196.48"/>
</g>
<!-- Node17 -->
<g id="node17" class="node">
<title>Node17</title>
<g id="a_node17"><a xlink:href="../../d0/d00/compiler__defs_8h.html" target="_top" xlink:title=" ">
<polygon fill="none" stroke="black" points="1133.5,-112.5 1133.5,-131.5 1228.5,-131.5 1228.5,-112.5 1133.5,-112.5"/>
<text text-anchor="middle" x="1181" y="-119.5" font-family="Helvetica,sans-Serif" font-size="10.00">compiler_defs.h</text>
</a>
</g>
</g>
<!-- Node9&#45;&gt;Node17 -->
<g id="edge39" class="edge">
<title>Node9&#45;&gt;Node17</title>
<path fill="none" stroke="midnightblue" d="M867.32,-224.42C904.88,-216.27 961.64,-203.04 1010,-188 1060.65,-172.25 1117.99,-149.38 1151.74,-135.39"/>
<polygon fill="midnightblue" stroke="midnightblue" points="1153.13,-138.6 1161.01,-131.52 1150.44,-132.14 1153.13,-138.6"/>
</g>
<!-- Node13&#45;&gt;Node2 -->
<g id="edge26" class="edge">
<title>Node13&#45;&gt;Node2</title>
<path fill="none" stroke="midnightblue" d="M909.47,-168.35C920.26,-154.79 937.42,-128.38 923,-112 904.44,-90.93 734.19,-77.09 637.07,-70.84"/>
<polygon fill="midnightblue" stroke="midnightblue" points="637.25,-67.34 627.05,-70.2 636.81,-74.33 637.25,-67.34"/>
</g>
<!-- Node13&#45;&gt;Node3 -->
<g id="edge25" class="edge">
<title>Node13&#45;&gt;Node3</title>
<path fill="none" stroke="midnightblue" d="M846.33,-168.5C790.71,-159.86 702.79,-145.82 627,-132 530.12,-114.33 417.46,-91.03 354.06,-77.66"/>
<polygon fill="midnightblue" stroke="midnightblue" points="354.45,-74.17 343.94,-75.52 353,-81.02 354.45,-74.17"/>
</g>
<!-- Node13&#45;&gt;Node4 -->
<g id="edge34" class="edge">
<title>Node13&#45;&gt;Node4</title>
<path fill="none" stroke="midnightblue" d="M910.98,-168.08C937.95,-141.27 1018.51,-61.19 1053.02,-26.89"/>
<polygon fill="midnightblue" stroke="midnightblue" points="1055.76,-29.1 1060.38,-19.57 1050.82,-24.14 1055.76,-29.1"/>
</g>
<!-- Node13&#45;&gt;Node5 -->
<g id="edge27" class="edge">
<title>Node13&#45;&gt;Node5</title>
<path fill="none" stroke="midnightblue" d="M919.43,-168.38C953.33,-151.65 1025.91,-116.06 1038,-112 1086.13,-95.82 1142.25,-84.43 1185.63,-77.15"/>
<polygon fill="midnightblue" stroke="midnightblue" points="1186.23,-80.6 1195.53,-75.53 1185.1,-73.7 1186.23,-80.6"/>
</g>
<!-- Node13&#45;&gt;Node11 -->
<g id="edge28" class="edge">
<title>Node13&#45;&gt;Node11</title>
<path fill="none" stroke="midnightblue" d="M930.36,-168.44C960.74,-159.28 1009.11,-144.69 1042.82,-134.52"/>
<polygon fill="midnightblue" stroke="midnightblue" points="1044.21,-137.76 1052.77,-131.52 1042.18,-131.05 1044.21,-137.76"/>
</g>
<!-- Node14 -->
<g id="node14" class="node">
<title>Node14</title>
<g id="a_node14"><a xlink:title=" ">
<polygon fill="none" stroke="#bfbfbf" points="782.5,-112.5 782.5,-131.5 827.5,-131.5 827.5,-112.5 782.5,-112.5"/>
<text text-anchor="middle" x="805" y="-119.5" font-family="Helvetica,sans-Serif" font-size="10.00">utility</text>
</a>
</g>
</g>
<!-- Node13&#45;&gt;Node14 -->
<g id="edge29" class="edge">
<title>Node13&#45;&gt;Node14</title>
<path fill="none" stroke="midnightblue" d="M886.42,-168.32C871,-159.74 847.19,-146.49 829.29,-136.52"/>
<polygon fill="midnightblue" stroke="midnightblue" points="830.99,-133.46 820.55,-131.65 827.58,-139.58 830.99,-133.46"/>
</g>
<!-- Node15 -->
<g id="node15" class="node">
<title>Node15</title>
<g id="a_node15"><a xlink:href="../../d1/d57/_ignore_unused_8h.html" target="_top" xlink:title=" ">
<polygon fill="none" stroke="black" points="636,-112.5 636,-131.5 764,-131.5 764,-112.5 636,-112.5"/>
<text text-anchor="middle" x="700" y="-119.5" font-family="Helvetica,sans-Serif" font-size="10.00">../misc/IgnoreUnused.h</text>
</a>
</g>
</g>
<!-- Node13&#45;&gt;Node15 -->
<g id="edge30" class="edge">
<title>Node13&#45;&gt;Node15</title>
<path fill="none" stroke="midnightblue" d="M869.99,-168.44C835.27,-159.16 779.71,-144.31 741.62,-134.13"/>
<polygon fill="midnightblue" stroke="midnightblue" points="742.42,-130.72 731.86,-131.52 740.61,-137.48 742.42,-130.72"/>
</g>
<!-- Node16 -->
<g id="node16" class="node">
<title>Node16</title>
<g id="a_node16"><a xlink:title=" ">
<polygon fill="none" stroke="#bfbfbf" points="846,-112.5 846,-131.5 914,-131.5 914,-112.5 846,-112.5"/>
<text text-anchor="middle" x="880" y="-119.5" font-family="Helvetica,sans-Serif" font-size="10.00">filesystem</text>
</a>
</g>
</g>
<!-- Node13&#45;&gt;Node16 -->
<g id="edge35" class="edge">
<title>Node13&#45;&gt;Node16</title>
<path fill="none" stroke="midnightblue" d="M898.37,-168.08C895.39,-160.77 891.07,-150.18 887.38,-141.1"/>
<polygon fill="midnightblue" stroke="midnightblue" points="890.58,-139.69 883.57,-131.75 884.1,-142.33 890.58,-139.69"/>
</g>
<!-- Node13&#45;&gt;Node17 -->
<g id="edge36" class="edge">
<title>Node13&#45;&gt;Node17</title>
<path fill="none" stroke="midnightblue" d="M946.21,-168.44C995.29,-158.94 1074.51,-143.61 1127.16,-133.42"/>
<polygon fill="midnightblue" stroke="midnightblue" points="1127.85,-136.85 1137,-131.52 1126.52,-129.98 1127.85,-136.85"/>
</g>
<!-- Node15&#45;&gt;Node2 -->
<g id="edge32" class="edge">
<title>Node15&#45;&gt;Node2</title>
<path fill="none" stroke="midnightblue" d="M679.4,-112.44C658.01,-103.56 624.32,-89.56 599.98,-79.45"/>
<polygon fill="midnightblue" stroke="midnightblue" points="601.08,-76.12 590.5,-75.52 598.39,-82.58 601.08,-76.12"/>
</g>
<!-- Node15&#45;&gt;Node3 -->
<g id="edge31" class="edge">
<title>Node15&#45;&gt;Node3</title>
<path fill="none" stroke="midnightblue" d="M637.25,-112.44C560.55,-101.98 431.98,-84.45 358.99,-74.5"/>
<polygon fill="midnightblue" stroke="midnightblue" points="359.02,-70.97 348.63,-73.09 358.07,-77.91 359.02,-70.97"/>
</g>
<!-- Node15&#45;&gt;Node4 -->
<g id="edge33" class="edge">
<title>Node15&#45;&gt;Node4</title>
<path fill="none" stroke="midnightblue" d="M728.65,-112.46C794.39,-92.86 956.13,-44.65 1030.48,-22.48"/>
<polygon fill="midnightblue" stroke="midnightblue" points="1031.79,-25.75 1040.37,-19.53 1029.79,-19.04 1031.79,-25.75"/>
</g>
<!-- Node17&#45;&gt;Node4 -->
<g id="edge37" class="edge">
<title>Node17&#45;&gt;Node4</title>
<path fill="none" stroke="midnightblue" d="M1172.21,-112.37C1153.4,-93.89 1109.01,-50.29 1085.03,-26.74"/>
<polygon fill="midnightblue" stroke="midnightblue" points="1087.33,-24.1 1077.75,-19.59 1082.43,-29.1 1087.33,-24.1"/>
</g>
<!-- Node17&#45;&gt;Node5 -->
<g id="edge38" class="edge">
<title>Node17&#45;&gt;Node5</title>
<path fill="none" stroke="midnightblue" d="M1193.21,-112.32C1204.78,-104.11 1222.38,-91.6 1236.16,-81.81"/>
<polygon fill="midnightblue" stroke="midnightblue" points="1238.44,-84.48 1244.57,-75.83 1234.39,-78.77 1238.44,-84.48"/>
</g>
<!-- Node18&#45;&gt;Node2 -->
<g id="edge44" class="edge">
<title>Node18&#45;&gt;Node2</title>
<path fill="none" stroke="midnightblue" d="M1230.13,-392.34C1236.21,-383.5 1245.53,-369.22 1252,-356 1286.98,-284.51 1300,-266.35 1314,-188 1322.4,-140.98 1282.85,-128.43 1238,-112 1129.15,-72.13 784.39,-67.07 637.42,-66.78"/>
<polygon fill="midnightblue" stroke="midnightblue" points="637.2,-63.28 627.19,-66.77 637.19,-70.28 637.2,-63.28"/>
</g>
<!-- Node18&#45;&gt;Node3 -->
<g id="edge45" class="edge">
<title>Node18&#45;&gt;Node3</title>
<path fill="none" stroke="midnightblue" d="M1175.42,-400.65C1007.39,-398.7 452.85,-385.77 301,-300 210.29,-248.77 99.37,-196 161,-112 171.8,-97.28 213.72,-85.18 249.4,-77.24"/>
<polygon fill="midnightblue" stroke="midnightblue" points="250.23,-80.65 259.27,-75.12 248.75,-73.8 250.23,-80.65"/>
</g>
<!-- Node18&#45;&gt;Node4 -->
<g id="edge46" class="edge">
<title>Node18&#45;&gt;Node4</title>
<path fill="none" stroke="midnightblue" d="M1272.74,-396.59C1334.5,-388.03 1433,-363.06 1433,-291 1433,-291 1433,-291 1433,-121 1433,-58.31 1232.65,-28.09 1129.23,-16.67"/>
<polygon fill="midnightblue" stroke="midnightblue" points="1129.55,-13.19 1119.23,-15.59 1128.8,-20.15 1129.55,-13.19"/>
</g>
<!-- Node18&#45;&gt;Node5 -->
<g id="edge48" class="edge">
<title>Node18&#45;&gt;Node5</title>
<path fill="none" stroke="midnightblue" d="M1272.73,-392.79C1294.68,-386.49 1318.8,-375.42 1333,-356 1397.1,-268.31 1404.11,-204.4 1347,-112 1337.33,-96.35 1320.38,-85.96 1303.78,-79.15"/>
<polygon fill="midnightblue" stroke="midnightblue" points="1304.69,-75.76 1294.1,-75.54 1302.25,-82.32 1304.69,-75.76"/>
</g>
<!-- Node18&#45;&gt;Node6 -->
<g id="edge49" class="edge">
<title>Node18&#45;&gt;Node6</title>
<path fill="none" stroke="midnightblue" d="M1175.12,-395.77C1080.45,-385.65 872.7,-363.43 773.63,-352.84"/>
<polygon fill="midnightblue" stroke="midnightblue" points="773.85,-349.35 763.54,-351.76 773.11,-356.31 773.85,-349.35"/>
</g>
<!-- Node18&#45;&gt;Node7 -->
<g id="edge47" class="edge">
<title>Node18&#45;&gt;Node7</title>
<path fill="none" stroke="midnightblue" d="M1194.14,-392.42C1097.73,-364.74 794.7,-277.71 685.62,-246.38"/>
<polygon fill="midnightblue" stroke="midnightblue" points="686.26,-242.92 675.68,-243.52 684.33,-249.65 686.26,-242.92"/>
</g>
<!-- Node18&#45;&gt;Node10 -->
<g id="edge50" class="edge">
<title>Node18&#45;&gt;Node10</title>
<path fill="none" stroke="midnightblue" d="M1226.23,-392.3C1234.64,-359.56 1264.47,-243.38 1276.21,-197.67"/>
<polygon fill="midnightblue" stroke="midnightblue" points="1279.62,-198.44 1278.72,-187.88 1272.84,-196.7 1279.62,-198.44"/>
</g>
<!-- Node19&#45;&gt;Node2 -->
<g id="edge52" class="edge">
<title>Node19&#45;&gt;Node2</title>
<path fill="none" stroke="midnightblue" d="M238.1,-115.97C298.31,-107.09 424.46,-88.47 502.72,-76.93"/>
<polygon fill="midnightblue" stroke="midnightblue" points="503.58,-80.34 512.96,-75.42 502.56,-73.41 503.58,-80.34"/>
</g>
<!-- Node19&#45;&gt;Node3 -->
<g id="edge53" class="edge">
<title>Node19&#45;&gt;Node3</title>
<path fill="none" stroke="midnightblue" d="M220.07,-112.32C235.96,-103.74 260.51,-90.49 278.96,-80.52"/>
<polygon fill="midnightblue" stroke="midnightblue" points="280.84,-83.49 287.97,-75.65 277.51,-77.33 280.84,-83.49"/>
</g>
</g>
</svg>
