<?xml version="1.0" encoding="UTF-8" standalone="no"?>
<!DOCTYPE svg PUBLIC "-//W3C//DTD SVG 1.1//EN"
 "http://www.w3.org/Graphics/SVG/1.1/DTD/svg11.dtd">
<!-- Generated by graphviz version 2.43.0 (0)
 -->
<!-- Title: pyramid.h Pages: 1 -->
<svg width="858pt" height="364pt"
 viewBox="0.00 0.00 858.00 364.00" xmlns="http://www.w3.org/2000/svg" xmlns:xlink="http://www.w3.org/1999/xlink">
<g id="graph0" class="graph" transform="scale(1 1) rotate(0) translate(4 360)">
<title>pyramid.h</title>
<!-- Node1 -->
<g id="node1" class="node">
<title>Node1</title>
<g id="a_node1"><a xlink:title=" ">
<polygon fill="#bfbfbf" stroke="black" points="577,-336.5 577,-355.5 643,-355.5 643,-336.5 577,-336.5"/>
<text text-anchor="middle" x="610" y="-343.5" font-family="Helvetica,sans-Serif" font-size="10.00">pyramid.h</text>
</a>
</g>
</g>
<!-- Node2 -->
<g id="node2" class="node">
<title>Node2</title>
<g id="a_node2"><a xlink:href="../../da/d0b/limes__namespace_8h.html" target="_top" xlink:title=" ">
<polygon fill="none" stroke="black" points="143,-56.5 143,-75.5 257,-75.5 257,-56.5 143,-56.5"/>
<text text-anchor="middle" x="200" y="-63.5" font-family="Helvetica,sans-Serif" font-size="10.00">limes_namespace.h</text>
</a>
</g>
</g>
<!-- Node1&#45;&gt;Node2 -->
<g id="edge1" class="edge">
<title>Node1&#45;&gt;Node2</title>
<path fill="none" stroke="midnightblue" d="M576.77,-342.56C449.48,-332.8 0,-294.12 0,-235 0,-235 0,-235 0,-177 0,-114.91 74.92,-87.62 133.05,-75.79"/>
<polygon fill="midnightblue" stroke="midnightblue" points="133.8,-79.21 142.96,-73.88 132.48,-72.33 133.8,-79.21"/>
</g>
<!-- Node3 -->
<g id="node3" class="node">
<title>Node3</title>
<g id="a_node3"><a xlink:title=" ">
<polygon fill="none" stroke="#bfbfbf" points="403.5,-56.5 403.5,-75.5 492.5,-75.5 492.5,-56.5 403.5,-56.5"/>
<text text-anchor="middle" x="448" y="-63.5" font-family="Helvetica,sans-Serif" font-size="10.00">limes_export.h</text>
</a>
</g>
</g>
<!-- Node1&#45;&gt;Node3 -->
<g id="edge2" class="edge">
<title>Node1&#45;&gt;Node3</title>
<path fill="none" stroke="midnightblue" d="M604.72,-336.23C594.27,-318.04 572,-274.6 572,-235 572,-235 572,-235 572,-177 572,-128.26 517.73,-95.87 480.99,-79.52"/>
<polygon fill="midnightblue" stroke="midnightblue" points="482.19,-76.23 471.62,-75.52 479.44,-82.67 482.19,-76.23"/>
</g>
<!-- Node4 -->
<g id="node4" class="node">
<title>Node4</title>
<g id="a_node4"><a xlink:title=" ">
<polygon fill="none" stroke="#bfbfbf" points="655,-0.5 655,-19.5 755,-19.5 755,-0.5 655,-0.5"/>
<text text-anchor="middle" x="705" y="-7.5" font-family="Helvetica,sans-Serif" font-size="10.00">limes_platform.h</text>
</a>
</g>
</g>
<!-- Node1&#45;&gt;Node4 -->
<g id="edge3" class="edge">
<title>Node1&#45;&gt;Node4</title>
<path fill="none" stroke="midnightblue" d="M643.12,-344.52C708.96,-341.63 850,-324.95 850,-235 850,-235 850,-235 850,-121 850,-68.53 788.98,-37.84 746.11,-22.76"/>
<polygon fill="midnightblue" stroke="midnightblue" points="747.06,-19.39 736.46,-19.52 744.83,-26.02 747.06,-19.39"/>
</g>
<!-- Node5 -->
<g id="node5" class="node">
<title>Node5</title>
<g id="a_node5"><a xlink:href="../../d3/d53/preprocessor_8h.html" target="_top" xlink:title=" ">
<polygon fill="none" stroke="black" points="634.5,-56.5 634.5,-75.5 775.5,-75.5 775.5,-56.5 634.5,-56.5"/>
<text text-anchor="middle" x="705" y="-63.5" font-family="Helvetica,sans-Serif" font-size="10.00">../../../misc/preprocessor.h</text>
</a>
</g>
</g>
<!-- Node1&#45;&gt;Node5 -->
<g id="edge4" class="edge">
<title>Node1&#45;&gt;Node5</title>
<path fill="none" stroke="midnightblue" d="M643.36,-341.96C700.73,-334.71 812,-310.87 812,-235 812,-235 812,-235 812,-177 812,-131.41 764.2,-97.62 732.49,-80.23"/>
<polygon fill="midnightblue" stroke="midnightblue" points="734.12,-77.13 723.64,-75.56 730.85,-83.32 734.12,-77.13"/>
</g>
<!-- Node6 -->
<g id="node6" class="node">
<title>Node6</title>
<g id="a_node6"><a xlink:href="../../dd/d6a/triangle_8h.html" target="_top" xlink:title=" ">
<polygon fill="none" stroke="black" points="406.5,-224.5 406.5,-243.5 495.5,-243.5 495.5,-224.5 406.5,-224.5"/>
<text text-anchor="middle" x="451" y="-231.5" font-family="Helvetica,sans-Serif" font-size="10.00">../2D/triangle.h</text>
</a>
</g>
</g>
<!-- Node1&#45;&gt;Node6 -->
<g id="edge6" class="edge">
<title>Node1&#45;&gt;Node6</title>
<path fill="none" stroke="midnightblue" d="M597.52,-336.37C570.36,-317.57 505.59,-272.77 472.01,-249.53"/>
<polygon fill="midnightblue" stroke="midnightblue" points="473.63,-246.4 463.42,-243.59 469.65,-252.16 473.63,-246.4"/>
</g>
<!-- Node13 -->
<g id="node10" class="node">
<title>Node13</title>
<g id="a_node10"><a xlink:title=" ">
<polygon fill="none" stroke="#bfbfbf" points="677.5,-168.5 677.5,-187.5 724.5,-187.5 724.5,-168.5 677.5,-168.5"/>
<text text-anchor="middle" x="701" y="-175.5" font-family="Helvetica,sans-Serif" font-size="10.00">cmath</text>
</a>
</g>
</g>
<!-- Node1&#45;&gt;Node13 -->
<g id="edge35" class="edge">
<title>Node1&#45;&gt;Node13</title>
<path fill="none" stroke="midnightblue" d="M643.08,-339.15C665.32,-333.31 693.01,-321.91 707,-300 727.1,-268.51 716.42,-222.47 708,-197.23"/>
<polygon fill="midnightblue" stroke="midnightblue" points="711.28,-196.02 704.62,-187.78 704.69,-198.38 711.28,-196.02"/>
</g>
<!-- Node19 -->
<g id="node11" class="node">
<title>Node19</title>
<g id="a_node11"><a xlink:href="../../db/dd0/rectangle_8h.html" target="_top" xlink:title=" ">
<polygon fill="none" stroke="black" points="600.5,-280.5 600.5,-299.5 697.5,-299.5 697.5,-280.5 600.5,-280.5"/>
<text text-anchor="middle" x="649" y="-287.5" font-family="Helvetica,sans-Serif" font-size="10.00">../2D/rectangle.h</text>
</a>
</g>
</g>
<!-- Node1&#45;&gt;Node19 -->
<g id="edge24" class="edge">
<title>Node1&#45;&gt;Node19</title>
<path fill="none" stroke="midnightblue" d="M616.44,-336.08C621.95,-328.46 630.03,-317.26 636.76,-307.94"/>
<polygon fill="midnightblue" stroke="midnightblue" points="639.66,-309.91 642.68,-299.75 633.99,-305.81 639.66,-309.91"/>
</g>
<!-- Node20 -->
<g id="node12" class="node">
<title>Node20</title>
<g id="a_node12"><a xlink:href="../../d7/d88/3_dshape_8h.html" target="_top" xlink:title=" ">
<polygon fill="none" stroke="black" points="66,-112.5 66,-131.5 134,-131.5 134,-112.5 66,-112.5"/>
<text text-anchor="middle" x="100" y="-119.5" font-family="Helvetica,sans-Serif" font-size="10.00">3Dshape.h</text>
</a>
</g>
</g>
<!-- Node1&#45;&gt;Node20 -->
<g id="edge32" class="edge">
<title>Node1&#45;&gt;Node20</title>
<path fill="none" stroke="midnightblue" d="M576.6,-338.14C515.79,-324.92 383.81,-292.85 281,-244 217.03,-213.6 149.73,-162.88 118.25,-137.87"/>
<polygon fill="midnightblue" stroke="midnightblue" points="120.35,-135.06 110.36,-131.53 115.97,-140.52 120.35,-135.06"/>
</g>
<!-- Node5&#45;&gt;Node4 -->
<g id="edge5" class="edge">
<title>Node5&#45;&gt;Node4</title>
<path fill="none" stroke="midnightblue" d="M705,-56.08C705,-49.01 705,-38.86 705,-29.99"/>
<polygon fill="midnightblue" stroke="midnightblue" points="708.5,-29.75 705,-19.75 701.5,-29.75 708.5,-29.75"/>
</g>
<!-- Node6&#45;&gt;Node2 -->
<g id="edge7" class="edge">
<title>Node6&#45;&gt;Node2</title>
<path fill="none" stroke="midnightblue" d="M406.36,-226.2C372.03,-219.72 324.16,-207.93 286,-188 251.6,-170.04 240.25,-164.47 219,-132 209.85,-118.01 205,-99.51 202.5,-85.82"/>
<polygon fill="midnightblue" stroke="midnightblue" points="205.91,-85 200.91,-75.67 199,-86.09 205.91,-85"/>
</g>
<!-- Node6&#45;&gt;Node3 -->
<g id="edge8" class="edge">
<title>Node6&#45;&gt;Node3</title>
<path fill="none" stroke="midnightblue" d="M442.11,-224.29C426.14,-207.97 393.16,-170.89 381,-132 378.35,-123.52 376.82,-119.84 381,-112 388.55,-97.83 402.76,-87.33 416.16,-80.06"/>
<polygon fill="midnightblue" stroke="midnightblue" points="417.83,-83.13 425.21,-75.53 414.7,-76.87 417.83,-83.13"/>
</g>
<!-- Node6&#45;&gt;Node4 -->
<g id="edge9" class="edge">
<title>Node6&#45;&gt;Node4</title>
<path fill="none" stroke="midnightblue" d="M406.36,-228.29C296.39,-215.63 23.72,-177.36 57,-112 76.2,-74.29 94.3,-70.66 134,-56 226.32,-21.91 517.23,-13.63 644.45,-11.63"/>
<polygon fill="midnightblue" stroke="midnightblue" points="644.84,-15.13 654.78,-11.48 644.73,-8.13 644.84,-15.13"/>
</g>
<!-- Node6&#45;&gt;Node5 -->
<g id="edge13" class="edge">
<title>Node6&#45;&gt;Node5</title>
<path fill="none" stroke="midnightblue" d="M464.3,-224.31C505.62,-197.3 632.06,-114.67 683.2,-81.25"/>
<polygon fill="midnightblue" stroke="midnightblue" points="685.38,-84.01 691.83,-75.61 681.55,-78.15 685.38,-84.01"/>
</g>
<!-- Node7 -->
<g id="node7" class="node">
<title>Node7</title>
<g id="a_node7"><a xlink:href="../../d8/d23/2_dshape_8h.html" target="_top" xlink:title=" ">
<polygon fill="none" stroke="black" points="228,-112.5 228,-131.5 296,-131.5 296,-112.5 228,-112.5"/>
<text text-anchor="middle" x="262" y="-119.5" font-family="Helvetica,sans-Serif" font-size="10.00">2Dshape.h</text>
</a>
</g>
</g>
<!-- Node6&#45;&gt;Node7 -->
<g id="edge10" class="edge">
<title>Node6&#45;&gt;Node7</title>
<path fill="none" stroke="midnightblue" d="M406.47,-226.16C376.98,-219.95 338.61,-208.51 310,-188 292.77,-175.65 279.15,-155.23 270.89,-140.57"/>
<polygon fill="midnightblue" stroke="midnightblue" points="273.85,-138.68 266.05,-131.51 267.68,-141.98 273.85,-138.68"/>
</g>
<!-- Node8 -->
<g id="node8" class="node">
<title>Node8</title>
<g id="a_node8"><a xlink:href="../../da/dac/angle_8h.html" target="_top" xlink:title=" ">
<polygon fill="none" stroke="black" points="452.5,-168.5 452.5,-187.5 505.5,-187.5 505.5,-168.5 452.5,-168.5"/>
<text text-anchor="middle" x="479" y="-175.5" font-family="Helvetica,sans-Serif" font-size="10.00">angle.h</text>
</a>
</g>
</g>
<!-- Node6&#45;&gt;Node8 -->
<g id="edge14" class="edge">
<title>Node6&#45;&gt;Node8</title>
<path fill="none" stroke="midnightblue" d="M455.62,-224.08C459.46,-216.69 465.02,-205.95 469.76,-196.81"/>
<polygon fill="midnightblue" stroke="midnightblue" points="472.97,-198.24 474.46,-187.75 466.75,-195.02 472.97,-198.24"/>
</g>
<!-- Node9 -->
<g id="node9" class="node">
<title>Node9</title>
<g id="a_node9"><a xlink:href="../../dc/d5c/math_functions_8h.html" target="_top" xlink:title=" ">
<polygon fill="none" stroke="red" points="390,-112.5 390,-131.5 506,-131.5 506,-112.5 390,-112.5"/>
<text text-anchor="middle" x="448" y="-119.5" font-family="Helvetica,sans-Serif" font-size="10.00">../../mathFunctions.h</text>
</a>
</g>
</g>
<!-- Node6&#45;&gt;Node9 -->
<g id="edge22" class="edge">
<title>Node6&#45;&gt;Node9</title>
<path fill="none" stroke="midnightblue" d="M449.26,-224.42C447.53,-215.4 444.99,-200.77 444,-188 442.8,-172.48 444.05,-154.86 445.46,-141.88"/>
<polygon fill="midnightblue" stroke="midnightblue" points="448.95,-142.19 446.68,-131.84 442,-141.34 448.95,-142.19"/>
</g>
<!-- Node6&#45;&gt;Node13 -->
<g id="edge23" class="edge">
<title>Node6&#45;&gt;Node13</title>
<path fill="none" stroke="midnightblue" d="M490.61,-224.44C539.41,-213.9 621.45,-196.18 667.34,-186.27"/>
<polygon fill="midnightblue" stroke="midnightblue" points="668.33,-189.64 677.37,-184.1 666.86,-182.79 668.33,-189.64"/>
</g>
<!-- Node7&#45;&gt;Node2 -->
<g id="edge11" class="edge">
<title>Node7&#45;&gt;Node2</title>
<path fill="none" stroke="midnightblue" d="M252.04,-112.32C242.87,-104.34 229.06,-92.31 217.97,-82.65"/>
<polygon fill="midnightblue" stroke="midnightblue" points="219.98,-79.76 210.14,-75.83 215.38,-85.04 219.98,-79.76"/>
</g>
<!-- Node7&#45;&gt;Node3 -->
<g id="edge12" class="edge">
<title>Node7&#45;&gt;Node3</title>
<path fill="none" stroke="midnightblue" d="M291.47,-112.44C323.17,-103.24 373.73,-88.56 408.77,-78.39"/>
<polygon fill="midnightblue" stroke="midnightblue" points="410.04,-81.67 418.67,-75.52 408.09,-74.94 410.04,-81.67"/>
</g>
<!-- Node8&#45;&gt;Node2 -->
<g id="edge16" class="edge">
<title>Node8&#45;&gt;Node2</title>
<path fill="none" stroke="midnightblue" d="M457.11,-168.37C407.91,-148.97 288.44,-101.87 231.37,-79.37"/>
<polygon fill="midnightblue" stroke="midnightblue" points="232.38,-76 221.79,-75.59 229.81,-82.52 232.38,-76"/>
</g>
<!-- Node8&#45;&gt;Node3 -->
<g id="edge15" class="edge">
<title>Node8&#45;&gt;Node3</title>
<path fill="none" stroke="midnightblue" d="M490,-168.22C504.18,-155.77 525.8,-132.26 515,-112 507.45,-97.83 493.24,-87.33 479.84,-80.06"/>
<polygon fill="midnightblue" stroke="midnightblue" points="481.3,-76.87 470.79,-75.53 478.17,-83.13 481.3,-76.87"/>
</g>
<!-- Node8&#45;&gt;Node4 -->
<g id="edge17" class="edge">
<title>Node8&#45;&gt;Node4</title>
<path fill="none" stroke="midnightblue" d="M489.17,-168.24C517.58,-143.84 597.55,-75.6 626,-56 643.01,-44.28 663.27,-32.79 679.01,-24.35"/>
<polygon fill="midnightblue" stroke="midnightblue" points="680.95,-27.28 688.16,-19.51 677.68,-21.09 680.95,-27.28"/>
</g>
<!-- Node8&#45;&gt;Node9 -->
<g id="edge18" class="edge">
<title>Node8&#45;&gt;Node9</title>
<path fill="none" stroke="midnightblue" d="M473.88,-168.08C469.59,-160.61 463.34,-149.72 458.06,-140.52"/>
<polygon fill="midnightblue" stroke="midnightblue" points="461.04,-138.68 453.02,-131.75 454.97,-142.17 461.04,-138.68"/>
</g>
<!-- Node9&#45;&gt;Node2 -->
<g id="edge19" class="edge">
<title>Node9&#45;&gt;Node2</title>
<path fill="none" stroke="midnightblue" d="M408.7,-112.44C365.44,-103.02 295.83,-87.87 249.03,-77.68"/>
<polygon fill="midnightblue" stroke="midnightblue" points="249.63,-74.22 239.11,-75.52 248.14,-81.06 249.63,-74.22"/>
</g>
<!-- Node9&#45;&gt;Node3 -->
<g id="edge20" class="edge">
<title>Node9&#45;&gt;Node3</title>
<path fill="none" stroke="midnightblue" d="M448,-112.08C448,-105.01 448,-94.86 448,-85.99"/>
<polygon fill="midnightblue" stroke="midnightblue" points="451.5,-85.75 448,-75.75 444.5,-85.75 451.5,-85.75"/>
</g>
<!-- Node9&#45;&gt;Node5 -->
<g id="edge21" class="edge">
<title>Node9&#45;&gt;Node5</title>
<path fill="none" stroke="midnightblue" d="M488.72,-112.44C533.65,-103 606,-87.8 654.5,-77.61"/>
<polygon fill="midnightblue" stroke="midnightblue" points="655.4,-81 664.47,-75.52 653.96,-74.15 655.4,-81"/>
</g>
<!-- Node19&#45;&gt;Node2 -->
<g id="edge25" class="edge">
<title>Node19&#45;&gt;Node2</title>
<path fill="none" stroke="midnightblue" d="M600.47,-288.76C536.64,-286.98 421.91,-278.67 331,-244 261.3,-217.42 232.42,-201.76 206,-132 200.41,-117.25 199.13,-99.32 199.12,-86.03"/>
<polygon fill="midnightblue" stroke="midnightblue" points="202.62,-85.82 199.36,-75.74 195.63,-85.66 202.62,-85.82"/>
</g>
<!-- Node19&#45;&gt;Node3 -->
<g id="edge26" class="edge">
<title>Node19&#45;&gt;Node3</title>
<path fill="none" stroke="midnightblue" d="M646.15,-280.33C634.72,-245.63 592.46,-118.29 586,-112 563.73,-90.32 530.88,-79.08 502.82,-73.26"/>
<polygon fill="midnightblue" stroke="midnightblue" points="503.2,-69.77 492.72,-71.35 501.9,-76.65 503.2,-69.77"/>
</g>
<!-- Node19&#45;&gt;Node4 -->
<g id="edge27" class="edge">
<title>Node19&#45;&gt;Node4</title>
<path fill="none" stroke="midnightblue" d="M648.4,-280.38C647.35,-259.51 647.07,-205.25 669,-168 702.38,-111.29 756.37,-135.25 785,-76 796.51,-52.18 768.04,-34.19 741.94,-23.25"/>
<polygon fill="midnightblue" stroke="midnightblue" points="743.09,-19.94 732.5,-19.53 740.53,-26.45 743.09,-19.94"/>
</g>
<!-- Node19&#45;&gt;Node5 -->
<g id="edge29" class="edge">
<title>Node19&#45;&gt;Node5</title>
<path fill="none" stroke="midnightblue" d="M660.46,-280.26C680.14,-264.44 719.62,-228.86 734,-188 746.61,-152.16 728.21,-108.46 715.45,-84.61"/>
<polygon fill="midnightblue" stroke="midnightblue" points="718.39,-82.69 710.44,-75.68 712.28,-86.12 718.39,-82.69"/>
</g>
<!-- Node19&#45;&gt;Node6 -->
<g id="edge30" class="edge">
<title>Node19&#45;&gt;Node6</title>
<path fill="none" stroke="midnightblue" d="M617.63,-280.44C583.74,-271.2 529.6,-256.44 492.28,-246.26"/>
<polygon fill="midnightblue" stroke="midnightblue" points="492.8,-242.77 482.23,-243.52 490.95,-249.52 492.8,-242.77"/>
</g>
<!-- Node19&#45;&gt;Node7 -->
<g id="edge28" class="edge">
<title>Node19&#45;&gt;Node7</title>
<path fill="none" stroke="midnightblue" d="M600.33,-284.45C549.01,-278.69 466.28,-266.67 398,-244 345.18,-226.47 323.13,-229.46 286,-188 274.35,-174.99 268.19,-155.83 265.05,-141.68"/>
<polygon fill="midnightblue" stroke="midnightblue" points="268.44,-140.78 263.12,-131.62 261.56,-142.1 268.44,-140.78"/>
</g>
<!-- Node19&#45;&gt;Node13 -->
<g id="edge31" class="edge">
<title>Node19&#45;&gt;Node13</title>
<path fill="none" stroke="midnightblue" d="M653.08,-280.37C661.55,-262.46 681.18,-220.92 692.52,-196.95"/>
<polygon fill="midnightblue" stroke="midnightblue" points="695.83,-198.13 696.94,-187.59 689.5,-195.14 695.83,-198.13"/>
</g>
<!-- Node20&#45;&gt;Node2 -->
<g id="edge33" class="edge">
<title>Node20&#45;&gt;Node2</title>
<path fill="none" stroke="midnightblue" d="M116.07,-112.32C131.96,-103.74 156.51,-90.49 174.96,-80.52"/>
<polygon fill="midnightblue" stroke="midnightblue" points="176.84,-83.49 183.97,-75.65 173.51,-77.33 176.84,-83.49"/>
</g>
<!-- Node20&#45;&gt;Node3 -->
<g id="edge34" class="edge">
<title>Node20&#45;&gt;Node3</title>
<path fill="none" stroke="midnightblue" d="M134,-115.72C194.36,-106.36 320.69,-86.76 393.37,-75.48"/>
<polygon fill="midnightblue" stroke="midnightblue" points="393.91,-78.94 403.26,-73.94 392.84,-72.02 393.91,-78.94"/>
</g>
</g>
</svg>
