<?xml version="1.0" encoding="UTF-8" standalone="no"?>
<!DOCTYPE svg PUBLIC "-//W3C//DTD SVG 1.1//EN"
 "http://www.w3.org/Graphics/SVG/1.1/DTD/svg11.dtd">
<!-- Generated by graphviz version 2.43.0 (0)
 -->
<!-- Title: AlignedAllocator.h Pages: 1 -->
<svg width="687pt" height="196pt"
 viewBox="0.00 0.00 686.50 196.00" xmlns="http://www.w3.org/2000/svg" xmlns:xlink="http://www.w3.org/1999/xlink">
<g id="graph0" class="graph" transform="scale(1 1) rotate(0) translate(4 192)">
<title>AlignedAllocator.h</title>
<!-- Node1 -->
<g id="node1" class="node">
<title>Node1</title>
<g id="a_node1"><a xlink:title=" ">
<polygon fill="#bfbfbf" stroke="black" points="371.5,-168.5 371.5,-187.5 476.5,-187.5 476.5,-168.5 371.5,-168.5"/>
<text text-anchor="middle" x="424" y="-175.5" font-family="Helvetica,sans-Serif" font-size="10.00">AlignedAllocator.h</text>
</a>
</g>
</g>
<!-- Node2 -->
<g id="node2" class="node">
<title>Node2</title>
<g id="a_node2"><a xlink:href="alignment_8h.html" target="_top" xlink:title=" ">
<polygon fill="none" stroke="black" points="301.5,-112.5 301.5,-131.5 376.5,-131.5 376.5,-112.5 301.5,-112.5"/>
<text text-anchor="middle" x="339" y="-119.5" font-family="Helvetica,sans-Serif" font-size="10.00">alignment.h</text>
</a>
</g>
</g>
<!-- Node1&#45;&gt;Node2 -->
<g id="edge1" class="edge">
<title>Node1&#45;&gt;Node2</title>
<path fill="none" stroke="midnightblue" d="M410.34,-168.32C397.08,-159.9 376.73,-146.97 361.15,-137.07"/>
<polygon fill="midnightblue" stroke="midnightblue" points="362.94,-134.06 352.62,-131.65 359.19,-139.97 362.94,-134.06"/>
</g>
<!-- Node3 -->
<g id="node3" class="node">
<title>Node3</title>
<g id="a_node3"><a xlink:href="limes__namespace_8h.html" target="_top" xlink:title=" ">
<polygon fill="none" stroke="black" points="0,-56.5 0,-75.5 114,-75.5 114,-56.5 0,-56.5"/>
<text text-anchor="middle" x="57" y="-63.5" font-family="Helvetica,sans-Serif" font-size="10.00">limes_namespace.h</text>
</a>
</g>
</g>
<!-- Node1&#45;&gt;Node3 -->
<g id="edge10" class="edge">
<title>Node1&#45;&gt;Node3</title>
<path fill="none" stroke="midnightblue" d="M387.8,-168.44C352.46,-159.9 297.26,-146.05 250,-132 193.38,-115.17 128.46,-92.62 90.19,-78.99"/>
<polygon fill="midnightblue" stroke="midnightblue" points="91.19,-75.63 80.59,-75.56 88.83,-82.22 91.19,-75.63"/>
</g>
<!-- Node4 -->
<g id="node4" class="node">
<title>Node4</title>
<g id="a_node4"><a xlink:title=" ">
<polygon fill="none" stroke="#bfbfbf" points="132.5,-56.5 132.5,-75.5 221.5,-75.5 221.5,-56.5 132.5,-56.5"/>
<text text-anchor="middle" x="177" y="-63.5" font-family="Helvetica,sans-Serif" font-size="10.00">limes_export.h</text>
</a>
</g>
</g>
<!-- Node1&#45;&gt;Node4 -->
<g id="edge11" class="edge">
<title>Node1&#45;&gt;Node4</title>
<path fill="none" stroke="midnightblue" d="M393.77,-168.45C366.61,-160.36 325.91,-147.21 292,-132 258.34,-116.91 221.58,-95.12 198.9,-81.01"/>
<polygon fill="midnightblue" stroke="midnightblue" points="200.71,-78.01 190.38,-75.65 196.98,-83.94 200.71,-78.01"/>
</g>
<!-- Node8 -->
<g id="node8" class="node">
<title>Node8</title>
<g id="a_node8"><a xlink:title=" ">
<polygon fill="none" stroke="#bfbfbf" points="570,-56.5 570,-75.5 628,-75.5 628,-56.5 570,-56.5"/>
<text text-anchor="middle" x="599" y="-63.5" font-family="Helvetica,sans-Serif" font-size="10.00">memory</text>
</a>
</g>
</g>
<!-- Node1&#45;&gt;Node8 -->
<g id="edge16" class="edge">
<title>Node1&#45;&gt;Node8</title>
<path fill="none" stroke="midnightblue" d="M427.03,-168.06C432.22,-154.09 444.09,-127.13 463,-112 478.15,-99.87 525.39,-85.8 559.95,-76.67"/>
<polygon fill="midnightblue" stroke="midnightblue" points="560.97,-80.02 569.77,-74.12 559.21,-73.25 560.97,-80.02"/>
</g>
<!-- Node9 -->
<g id="node9" class="node">
<title>Node9</title>
<g id="a_node9"><a xlink:href="preprocessor_8h.html" target="_top" xlink:title=" ">
<polygon fill="none" stroke="black" points="428.5,-56.5 428.5,-75.5 551.5,-75.5 551.5,-56.5 428.5,-56.5"/>
<text text-anchor="middle" x="490" y="-63.5" font-family="Helvetica,sans-Serif" font-size="10.00">../misc/preprocessor.h</text>
</a>
</g>
</g>
<!-- Node1&#45;&gt;Node9 -->
<g id="edge12" class="edge">
<title>Node1&#45;&gt;Node9</title>
<path fill="none" stroke="midnightblue" d="M422.51,-168.36C420.7,-155.27 419.02,-130.02 429,-112 436.37,-98.7 449.51,-88.24 461.72,-80.76"/>
<polygon fill="midnightblue" stroke="midnightblue" points="463.79,-83.61 470.76,-75.63 460.33,-77.52 463.79,-83.61"/>
</g>
<!-- Node10 -->
<g id="node10" class="node">
<title>Node10</title>
<g id="a_node10"><a xlink:title=" ">
<polygon fill="none" stroke="#bfbfbf" points="471.5,-112.5 471.5,-131.5 508.5,-131.5 508.5,-112.5 471.5,-112.5"/>
<text text-anchor="middle" x="490" y="-119.5" font-family="Helvetica,sans-Serif" font-size="10.00">new</text>
</a>
</g>
</g>
<!-- Node1&#45;&gt;Node10 -->
<g id="edge13" class="edge">
<title>Node1&#45;&gt;Node10</title>
<path fill="none" stroke="midnightblue" d="M434.6,-168.32C444.46,-160.26 459.35,-148.08 471.22,-138.37"/>
<polygon fill="midnightblue" stroke="midnightblue" points="473.68,-140.88 479.2,-131.83 469.25,-135.46 473.68,-140.88"/>
</g>
<!-- Node11 -->
<g id="node11" class="node">
<title>Node11</title>
<g id="a_node11"><a xlink:title=" ">
<polygon fill="none" stroke="#bfbfbf" points="526.5,-112.5 526.5,-131.5 595.5,-131.5 595.5,-112.5 526.5,-112.5"/>
<text text-anchor="middle" x="561" y="-119.5" font-family="Helvetica,sans-Serif" font-size="10.00">type_traits</text>
</a>
</g>
</g>
<!-- Node1&#45;&gt;Node11 -->
<g id="edge14" class="edge">
<title>Node1&#45;&gt;Node11</title>
<path fill="none" stroke="midnightblue" d="M445.71,-168.44C468.35,-159.52 504.07,-145.44 529.75,-135.32"/>
<polygon fill="midnightblue" stroke="midnightblue" points="531.37,-138.44 539.39,-131.52 528.81,-131.93 531.37,-138.44"/>
</g>
<!-- Node12 -->
<g id="node12" class="node">
<title>Node12</title>
<g id="a_node12"><a xlink:title=" ">
<polygon fill="none" stroke="#bfbfbf" points="613.5,-112.5 613.5,-131.5 678.5,-131.5 678.5,-112.5 613.5,-112.5"/>
<text text-anchor="middle" x="646" y="-119.5" font-family="Helvetica,sans-Serif" font-size="10.00">stdexcept</text>
</a>
</g>
</g>
<!-- Node1&#45;&gt;Node12 -->
<g id="edge15" class="edge">
<title>Node1&#45;&gt;Node12</title>
<path fill="none" stroke="midnightblue" d="M459.18,-168.44C498.26,-158.94 561.36,-143.59 603.25,-133.4"/>
<polygon fill="midnightblue" stroke="midnightblue" points="604.27,-136.75 613.16,-130.99 602.62,-129.95 604.27,-136.75"/>
</g>
<!-- Node2&#45;&gt;Node3 -->
<g id="edge2" class="edge">
<title>Node2&#45;&gt;Node3</title>
<path fill="none" stroke="midnightblue" d="M301.26,-113.77C252.52,-104.44 167.32,-88.13 111.54,-77.44"/>
<polygon fill="midnightblue" stroke="midnightblue" points="111.96,-73.96 101.48,-75.52 110.64,-80.84 111.96,-73.96"/>
</g>
<!-- Node2&#45;&gt;Node4 -->
<g id="edge3" class="edge">
<title>Node2&#45;&gt;Node4</title>
<path fill="none" stroke="midnightblue" d="M313.33,-112.44C286.08,-103.36 242.82,-88.94 212.35,-78.78"/>
<polygon fill="midnightblue" stroke="midnightblue" points="213.14,-75.36 202.55,-75.52 210.93,-82 213.14,-75.36"/>
</g>
<!-- Node5 -->
<g id="node5" class="node">
<title>Node5</title>
<g id="a_node5"><a xlink:title=" ">
<polygon fill="none" stroke="#bfbfbf" points="395,-0.5 395,-19.5 495,-19.5 495,-0.5 395,-0.5"/>
<text text-anchor="middle" x="445" y="-7.5" font-family="Helvetica,sans-Serif" font-size="10.00">limes_platform.h</text>
</a>
</g>
</g>
<!-- Node2&#45;&gt;Node5 -->
<g id="edge4" class="edge">
<title>Node2&#45;&gt;Node5</title>
<path fill="none" stroke="midnightblue" d="M347.32,-112.37C365.04,-93.97 406.77,-50.67 429.53,-27.05"/>
<polygon fill="midnightblue" stroke="midnightblue" points="432.3,-29.22 436.72,-19.59 427.26,-24.36 432.3,-29.22"/>
</g>
<!-- Node6 -->
<g id="node6" class="node">
<title>Node6</title>
<g id="a_node6"><a xlink:title=" ">
<polygon fill="none" stroke="#bfbfbf" points="239.5,-56.5 239.5,-75.5 288.5,-75.5 288.5,-56.5 239.5,-56.5"/>
<text text-anchor="middle" x="264" y="-63.5" font-family="Helvetica,sans-Serif" font-size="10.00">cstdlib</text>
</a>
</g>
</g>
<!-- Node2&#45;&gt;Node6 -->
<g id="edge5" class="edge">
<title>Node2&#45;&gt;Node6</title>
<path fill="none" stroke="midnightblue" d="M326.95,-112.32C315.54,-104.11 298.17,-91.6 284.57,-81.81"/>
<polygon fill="midnightblue" stroke="midnightblue" points="286.43,-78.84 276.27,-75.83 282.34,-84.52 286.43,-78.84"/>
</g>
<!-- Node7 -->
<g id="node7" class="node">
<title>Node7</title>
<g id="a_node7"><a xlink:title=" ">
<polygon fill="none" stroke="#bfbfbf" points="306.5,-56.5 306.5,-75.5 371.5,-75.5 371.5,-56.5 306.5,-56.5"/>
<text text-anchor="middle" x="339" y="-63.5" font-family="Helvetica,sans-Serif" font-size="10.00">exception</text>
</a>
</g>
</g>
<!-- Node2&#45;&gt;Node7 -->
<g id="edge6" class="edge">
<title>Node2&#45;&gt;Node7</title>
<path fill="none" stroke="midnightblue" d="M339,-112.08C339,-105.01 339,-94.86 339,-85.99"/>
<polygon fill="midnightblue" stroke="midnightblue" points="342.5,-85.75 339,-75.75 335.5,-85.75 342.5,-85.75"/>
</g>
<!-- Node2&#45;&gt;Node8 -->
<g id="edge7" class="edge">
<title>Node2&#45;&gt;Node8</title>
<path fill="none" stroke="midnightblue" d="M376.79,-113.73C419.04,-105.51 489.76,-91.51 560.06,-76.15"/>
<polygon fill="midnightblue" stroke="midnightblue" points="560.96,-79.54 569.98,-73.98 559.46,-72.7 560.96,-79.54"/>
</g>
<!-- Node2&#45;&gt;Node9 -->
<g id="edge8" class="edge">
<title>Node2&#45;&gt;Node9</title>
<path fill="none" stroke="midnightblue" d="M362.93,-112.44C388.22,-103.4 428.3,-89.06 456.68,-78.92"/>
<polygon fill="midnightblue" stroke="midnightblue" points="457.95,-82.18 466.19,-75.52 455.59,-75.59 457.95,-82.18"/>
</g>
<!-- Node9&#45;&gt;Node5 -->
<g id="edge9" class="edge">
<title>Node9&#45;&gt;Node5</title>
<path fill="none" stroke="midnightblue" d="M482.57,-56.08C476.15,-48.38 466.69,-37.03 458.88,-27.65"/>
<polygon fill="midnightblue" stroke="midnightblue" points="461.38,-25.19 452.29,-19.75 456.01,-29.67 461.38,-25.19"/>
</g>
</g>
</svg>
