<?xml version="1.0" encoding="UTF-8" standalone="no"?>
<!DOCTYPE svg PUBLIC "-//W3C//DTD SVG 1.1//EN"
 "http://www.w3.org/Graphics/SVG/1.1/DTD/svg11.dtd">
<!-- Generated by graphviz version 2.43.0 (0)
 -->
<!-- Title: Fraction_impl.h Pages: 1 -->
<svg width="937pt" height="319pt"
 viewBox="0.00 0.00 936.62 319.00" xmlns="http://www.w3.org/2000/svg" xmlns:xlink="http://www.w3.org/1999/xlink">
<g id="graph0" class="graph" transform="scale(1 1) rotate(0) translate(4 315)">
<title>Fraction_impl.h</title>
<!-- Node1 -->
<g id="node1" class="node">
<title>Node1</title>
<g id="a_node1"><a xlink:title=" ">
<polygon fill="#bfbfbf" stroke="black" points="354.62,-291.5 354.62,-310.5 446.62,-310.5 446.62,-291.5 354.62,-291.5"/>
<text text-anchor="middle" x="400.62" y="-298.5" font-family="Helvetica,sans-Serif" font-size="10.00">Fraction_impl.h</text>
</a>
</g>
</g>
<!-- Node2 -->
<g id="node2" class="node">
<title>Node2</title>
<g id="a_node2"><a xlink:href="limes__namespace_8h.html" target="_top" xlink:title=" ">
<polygon fill="none" stroke="black" points="711.62,-0.5 711.62,-19.5 825.62,-19.5 825.62,-0.5 711.62,-0.5"/>
<text text-anchor="middle" x="768.62" y="-7.5" font-family="Helvetica,sans-Serif" font-size="10.00">limes_namespace.h</text>
</a>
</g>
</g>
<!-- Node1&#45;&gt;Node2 -->
<g id="edge1" class="edge">
<title>Node1&#45;&gt;Node2</title>
<path fill="none" stroke="midnightblue" d="M446.88,-298.31C560.6,-292.92 844.62,-271.3 844.62,-190 844.62,-190 844.62,-190 844.62,-126.5 844.62,-84.81 809.64,-46.53 787.15,-26.22"/>
<polygon fill="midnightblue" stroke="midnightblue" points="789.35,-23.5 779.51,-19.58 784.76,-28.78 789.35,-23.5"/>
</g>
<!-- Node3 -->
<g id="node3" class="node">
<title>Node3</title>
<g id="a_node3"><a xlink:href="_fraction_8h.html" target="_top" xlink:title=" ">
<polygon fill="none" stroke="black" points="368.12,-235.5 368.12,-254.5 433.12,-254.5 433.12,-235.5 368.12,-235.5"/>
<text text-anchor="middle" x="400.62" y="-242.5" font-family="Helvetica,sans-Serif" font-size="10.00">Fraction.h</text>
</a>
</g>
</g>
<!-- Node1&#45;&gt;Node3 -->
<g id="edge2" class="edge">
<title>Node1&#45;&gt;Node3</title>
<path fill="none" stroke="midnightblue" d="M395.46,-291.08C393.95,-283.93 393.52,-273.64 394.16,-264.69"/>
<polygon fill="midnightblue" stroke="midnightblue" points="397.64,-265.13 395.49,-254.75 390.7,-264.2 397.64,-265.13"/>
</g>
<!-- Node8 -->
<g id="node8" class="node">
<title>Node8</title>
<g id="a_node8"><a xlink:title=" ">
<polygon fill="none" stroke="#bfbfbf" points="14.62,-118 14.62,-137 78.62,-137 78.62,-118 14.62,-118"/>
<text text-anchor="middle" x="46.62" y="-125" font-family="Helvetica,sans-Serif" font-size="10.00">algorithm</text>
</a>
</g>
</g>
<!-- Node1&#45;&gt;Node8 -->
<g id="edge29" class="edge">
<title>Node1&#45;&gt;Node8</title>
<path fill="none" stroke="midnightblue" d="M383.07,-291.5C325.62,-263.67 142.98,-175.18 73.66,-141.6"/>
<polygon fill="midnightblue" stroke="midnightblue" points="74.81,-138.27 64.28,-137.06 71.76,-144.57 74.81,-138.27"/>
</g>
<!-- Node16 -->
<g id="node16" class="node">
<title>Node16</title>
<g id="a_node16"><a xlink:title=" ">
<polygon fill="none" stroke="#bfbfbf" points="872.62,-235.5 872.62,-254.5 928.62,-254.5 928.62,-235.5 872.62,-235.5"/>
<text text-anchor="middle" x="900.62" y="-242.5" font-family="Helvetica,sans-Serif" font-size="10.00">numeric</text>
</a>
</g>
</g>
<!-- Node1&#45;&gt;Node16 -->
<g id="edge28" class="edge">
<title>Node1&#45;&gt;Node16</title>
<path fill="none" stroke="midnightblue" d="M446.67,-297.21C529.47,-291.8 708.82,-278.33 858.62,-255 859.86,-254.81 861.13,-254.6 862.4,-254.38"/>
<polygon fill="midnightblue" stroke="midnightblue" points="863.05,-257.82 872.24,-252.54 861.76,-250.94 863.05,-257.82"/>
</g>
<!-- Node3&#45;&gt;Node1 -->
<g id="edge27" class="edge">
<title>Node3&#45;&gt;Node1</title>
<path fill="none" stroke="midnightblue" d="M405.75,-254.75C407.28,-261.86 407.73,-272.14 407.09,-281.1"/>
<polygon fill="midnightblue" stroke="midnightblue" points="403.61,-280.71 405.79,-291.08 410.56,-281.62 403.61,-280.71"/>
</g>
<!-- Node3&#45;&gt;Node2 -->
<g id="edge3" class="edge">
<title>Node3&#45;&gt;Node2</title>
<path fill="none" stroke="midnightblue" d="M433.19,-237.24C489.25,-224.66 606.37,-194.18 693.62,-143 732.17,-120.38 750.36,-116.8 768.62,-76 775.1,-61.52 774.46,-43.33 772.57,-29.88"/>
<polygon fill="midnightblue" stroke="midnightblue" points="775.99,-29.13 770.82,-19.88 769.1,-30.34 775.99,-29.13"/>
</g>
<!-- Node4 -->
<g id="node4" class="node">
<title>Node4</title>
<g id="a_node4"><a xlink:href="math_helpers_8h.html" target="_top" xlink:title=" ">
<polygon fill="none" stroke="black" points="356.12,-179.5 356.12,-198.5 445.12,-198.5 445.12,-179.5 356.12,-179.5"/>
<text text-anchor="middle" x="400.62" y="-186.5" font-family="Helvetica,sans-Serif" font-size="10.00">mathHelpers.h</text>
</a>
</g>
</g>
<!-- Node3&#45;&gt;Node4 -->
<g id="edge4" class="edge">
<title>Node3&#45;&gt;Node4</title>
<path fill="none" stroke="midnightblue" d="M400.62,-235.08C400.62,-228.01 400.62,-217.86 400.62,-208.99"/>
<polygon fill="midnightblue" stroke="midnightblue" points="404.12,-208.75 400.62,-198.75 397.12,-208.75 404.12,-208.75"/>
</g>
<!-- Node7 -->
<g id="node7" class="node">
<title>Node7</title>
<g id="a_node7"><a xlink:title=" ">
<polygon fill="none" stroke="#bfbfbf" points="245.12,-0.5 245.12,-19.5 334.12,-19.5 334.12,-0.5 245.12,-0.5"/>
<text text-anchor="middle" x="289.62" y="-7.5" font-family="Helvetica,sans-Serif" font-size="10.00">limes_export.h</text>
</a>
</g>
</g>
<!-- Node3&#45;&gt;Node7 -->
<g id="edge25" class="edge">
<title>Node3&#45;&gt;Node7</title>
<path fill="none" stroke="midnightblue" d="M388.11,-235.42C366.52,-219.83 322.65,-184.61 302.62,-143 284.79,-105.95 285.51,-56.36 287.58,-29.75"/>
<polygon fill="midnightblue" stroke="midnightblue" points="291.08,-29.85 288.53,-19.56 284.11,-29.2 291.08,-29.85"/>
</g>
<!-- Node10 -->
<g id="node10" class="node">
<title>Node10</title>
<g id="a_node10"><a xlink:href="preprocessor_8h.html" target="_top" xlink:title=" ">
<polygon fill="none" stroke="black" points="5.12,-56.5 5.12,-75.5 128.12,-75.5 128.12,-56.5 5.12,-56.5"/>
<text text-anchor="middle" x="66.62" y="-63.5" font-family="Helvetica,sans-Serif" font-size="10.00">../misc/preprocessor.h</text>
</a>
</g>
</g>
<!-- Node3&#45;&gt;Node10 -->
<g id="edge26" class="edge">
<title>Node3&#45;&gt;Node10</title>
<path fill="none" stroke="midnightblue" d="M367.98,-240.73C281.56,-231.32 50.41,-201.09 5.62,-143 -2.79,-132.09 -0.59,-124.3 5.62,-112 12.43,-98.52 25.39,-88.08 37.62,-80.67"/>
<polygon fill="midnightblue" stroke="midnightblue" points="39.69,-83.52 46.72,-75.59 36.28,-77.41 39.69,-83.52"/>
</g>
<!-- Node4&#45;&gt;Node2 -->
<g id="edge5" class="edge">
<title>Node4&#45;&gt;Node2</title>
<path fill="none" stroke="midnightblue" d="M445.27,-187.18C519.85,-183.28 669.47,-164.16 749.62,-76 761.1,-63.37 765.67,-44.16 767.48,-29.89"/>
<polygon fill="midnightblue" stroke="midnightblue" points="770.98,-30.01 768.41,-19.73 764.01,-29.37 770.98,-30.01"/>
</g>
<!-- Node5 -->
<g id="node5" class="node">
<title>Node5</title>
<g id="a_node5"><a xlink:title=" ">
<polygon fill="none" stroke="#bfbfbf" points="525.12,-118 525.12,-137 572.12,-137 572.12,-118 525.12,-118"/>
<text text-anchor="middle" x="548.62" y="-125" font-family="Helvetica,sans-Serif" font-size="10.00">cmath</text>
</a>
</g>
</g>
<!-- Node4&#45;&gt;Node5 -->
<g id="edge6" class="edge">
<title>Node4&#45;&gt;Node5</title>
<path fill="none" stroke="midnightblue" d="M421.83,-179.48C446.99,-169.36 489.16,-152.4 517.9,-140.85"/>
<polygon fill="midnightblue" stroke="midnightblue" points="519.48,-143.99 527.46,-137.01 516.87,-137.49 519.48,-143.99"/>
</g>
<!-- Node6 -->
<g id="node6" class="node">
<title>Node6</title>
<g id="a_node6"><a xlink:title=" ">
<polygon fill="none" stroke="#bfbfbf" points="671.12,-56.5 671.12,-75.5 740.12,-75.5 740.12,-56.5 671.12,-56.5"/>
<text text-anchor="middle" x="705.62" y="-63.5" font-family="Helvetica,sans-Serif" font-size="10.00">type_traits</text>
</a>
</g>
</g>
<!-- Node4&#45;&gt;Node6 -->
<g id="edge7" class="edge">
<title>Node4&#45;&gt;Node6</title>
<path fill="none" stroke="midnightblue" d="M416.96,-179.34C432.83,-170.72 457.43,-156.82 477.62,-143 495.89,-130.49 496.71,-121.68 516.62,-112 529.56,-105.71 609.21,-87.81 660.9,-76.58"/>
<polygon fill="midnightblue" stroke="midnightblue" points="661.8,-79.96 670.83,-74.42 660.32,-73.12 661.8,-79.96"/>
</g>
<!-- Node4&#45;&gt;Node7 -->
<g id="edge8" class="edge">
<title>Node4&#45;&gt;Node7</title>
<path fill="none" stroke="midnightblue" d="M375.93,-179.46C358.8,-172.3 336.78,-160.42 323.62,-143 297.91,-108.97 291.55,-57.42 290.04,-29.89"/>
<polygon fill="midnightblue" stroke="midnightblue" points="293.53,-29.55 289.64,-19.69 286.53,-29.82 293.53,-29.55"/>
</g>
<!-- Node4&#45;&gt;Node8 -->
<g id="edge9" class="edge">
<title>Node4&#45;&gt;Node8</title>
<path fill="none" stroke="midnightblue" d="M355.94,-184.24C294.91,-178.49 182.36,-165.73 88.62,-143 85.4,-142.22 82.07,-141.29 78.77,-140.29"/>
<polygon fill="midnightblue" stroke="midnightblue" points="79.65,-136.89 69.06,-137.12 77.48,-143.55 79.65,-136.89"/>
</g>
<!-- Node9 -->
<g id="node9" class="node">
<title>Node9</title>
<g id="a_node9"><a xlink:href="limes__assert_8h.html" target="_top" xlink:title=" ">
<polygon fill="none" stroke="black" points="332.62,-118 332.62,-137 468.62,-137 468.62,-118 332.62,-118"/>
<text text-anchor="middle" x="400.62" y="-125" font-family="Helvetica,sans-Serif" font-size="10.00">../system/limes_assert.h</text>
</a>
</g>
</g>
<!-- Node4&#45;&gt;Node9 -->
<g id="edge10" class="edge">
<title>Node4&#45;&gt;Node9</title>
<path fill="none" stroke="midnightblue" d="M400.62,-179.48C400.62,-171.08 400.62,-157.98 400.62,-147.16"/>
<polygon fill="midnightblue" stroke="midnightblue" points="404.12,-147.01 400.62,-137.01 397.12,-147.01 404.12,-147.01"/>
</g>
<!-- Node15 -->
<g id="node15" class="node">
<title>Node15</title>
<g id="a_node15"><a xlink:href="compiler__defs_8h.html" target="_top" xlink:title=" ">
<polygon fill="none" stroke="black" points="97.12,-112.5 97.12,-142.5 204.12,-142.5 204.12,-112.5 97.12,-112.5"/>
<text text-anchor="start" x="105.12" y="-130.5" font-family="Helvetica,sans-Serif" font-size="10.00">../system/compiler</text>
<text text-anchor="middle" x="150.62" y="-119.5" font-family="Helvetica,sans-Serif" font-size="10.00">_defs.h</text>
</a>
</g>
</g>
<!-- Node4&#45;&gt;Node15 -->
<g id="edge22" class="edge">
<title>Node4&#45;&gt;Node15</title>
<path fill="none" stroke="midnightblue" d="M364.8,-179.48C325.6,-170.15 261.98,-155 214.25,-143.64"/>
<polygon fill="midnightblue" stroke="midnightblue" points="214.86,-140.19 204.32,-141.28 213.24,-147 214.86,-140.19"/>
</g>
<!-- Node9&#45;&gt;Node2 -->
<g id="edge12" class="edge">
<title>Node9&#45;&gt;Node2</title>
<path fill="none" stroke="midnightblue" d="M427.04,-117.92C454.93,-108.58 499.99,-92.75 537.62,-76 555.06,-68.24 557.74,-62.67 575.62,-56 617.94,-40.23 667.61,-28.8 705.96,-21.4"/>
<polygon fill="midnightblue" stroke="midnightblue" points="706.78,-24.81 715.95,-19.52 705.48,-17.93 706.78,-24.81"/>
</g>
<!-- Node9&#45;&gt;Node6 -->
<g id="edge15" class="edge">
<title>Node9&#45;&gt;Node6</title>
<path fill="none" stroke="midnightblue" d="M445.45,-117.98C495.43,-108.44 578.96,-92.4 661.04,-76.1"/>
<polygon fill="midnightblue" stroke="midnightblue" points="661.92,-79.49 671.04,-74.11 660.55,-72.63 661.92,-79.49"/>
</g>
<!-- Node9&#45;&gt;Node7 -->
<g id="edge11" class="edge">
<title>Node9&#45;&gt;Node7</title>
<path fill="none" stroke="midnightblue" d="M384.3,-117.98C368.4,-109.1 344.28,-93.97 327.62,-76 314.74,-62.09 304.25,-43.08 297.59,-29.21"/>
<polygon fill="midnightblue" stroke="midnightblue" points="300.61,-27.41 293.26,-19.78 294.25,-30.33 300.61,-27.41"/>
</g>
<!-- Node9&#45;&gt;Node10 -->
<g id="edge13" class="edge">
<title>Node9&#45;&gt;Node10</title>
<path fill="none" stroke="midnightblue" d="M352.77,-117.98C292.5,-107.24 189.03,-88.81 124.41,-77.29"/>
<polygon fill="midnightblue" stroke="midnightblue" points="124.85,-73.82 114.39,-75.51 123.62,-80.71 124.85,-73.82"/>
</g>
<!-- Node11 -->
<g id="node11" class="node">
<title>Node11</title>
<g id="a_node11"><a xlink:title=" ">
<polygon fill="none" stroke="#bfbfbf" points="106.62,-0.5 106.62,-19.5 206.62,-19.5 206.62,-0.5 106.62,-0.5"/>
<text text-anchor="middle" x="156.62" y="-7.5" font-family="Helvetica,sans-Serif" font-size="10.00">limes_platform.h</text>
</a>
</g>
</g>
<!-- Node9&#45;&gt;Node11 -->
<g id="edge20" class="edge">
<title>Node9&#45;&gt;Node11</title>
<path fill="none" stroke="midnightblue" d="M382.28,-117.82C339.79,-97.7 234.38,-47.81 184.12,-24.02"/>
<polygon fill="midnightblue" stroke="midnightblue" points="185.38,-20.74 174.84,-19.62 182.38,-27.07 185.38,-20.74"/>
</g>
<!-- Node12 -->
<g id="node12" class="node">
<title>Node12</title>
<g id="a_node12"><a xlink:title=" ">
<polygon fill="none" stroke="#bfbfbf" points="483.12,-56.5 483.12,-75.5 528.12,-75.5 528.12,-56.5 483.12,-56.5"/>
<text text-anchor="middle" x="505.62" y="-63.5" font-family="Helvetica,sans-Serif" font-size="10.00">utility</text>
</a>
</g>
</g>
<!-- Node9&#45;&gt;Node12 -->
<g id="edge16" class="edge">
<title>Node9&#45;&gt;Node12</title>
<path fill="none" stroke="midnightblue" d="M415.67,-117.98C432.9,-108.21 461.36,-92.08 481.66,-80.58"/>
<polygon fill="midnightblue" stroke="midnightblue" points="483.63,-83.48 490.61,-75.51 480.18,-77.39 483.63,-83.48"/>
</g>
<!-- Node13 -->
<g id="node13" class="node">
<title>Node13</title>
<g id="a_node13"><a xlink:href="_ignore_unused_8h.html" target="_top" xlink:title=" ">
<polygon fill="none" stroke="black" points="336.62,-56.5 336.62,-75.5 464.62,-75.5 464.62,-56.5 336.62,-56.5"/>
<text text-anchor="middle" x="400.62" y="-63.5" font-family="Helvetica,sans-Serif" font-size="10.00">../misc/IgnoreUnused.h</text>
</a>
</g>
</g>
<!-- Node9&#45;&gt;Node13 -->
<g id="edge17" class="edge">
<title>Node9&#45;&gt;Node13</title>
<path fill="none" stroke="midnightblue" d="M400.62,-117.98C400.62,-109.58 400.62,-96.48 400.62,-85.66"/>
<polygon fill="midnightblue" stroke="midnightblue" points="404.12,-85.51 400.62,-75.51 397.12,-85.51 404.12,-85.51"/>
</g>
<!-- Node14 -->
<g id="node14" class="node">
<title>Node14</title>
<g id="a_node14"><a xlink:title=" ">
<polygon fill="none" stroke="#bfbfbf" points="584.62,-56.5 584.62,-75.5 652.62,-75.5 652.62,-56.5 584.62,-56.5"/>
<text text-anchor="middle" x="618.62" y="-63.5" font-family="Helvetica,sans-Serif" font-size="10.00">filesystem</text>
</a>
</g>
</g>
<!-- Node9&#45;&gt;Node14 -->
<g id="edge21" class="edge">
<title>Node9&#45;&gt;Node14</title>
<path fill="none" stroke="midnightblue" d="M431.86,-117.98C470.22,-107.5 535.41,-89.71 577.73,-78.16"/>
<polygon fill="midnightblue" stroke="midnightblue" points="578.72,-81.52 587.45,-75.51 576.88,-74.77 578.72,-81.52"/>
</g>
<!-- Node10&#45;&gt;Node11 -->
<g id="edge14" class="edge">
<title>Node10&#45;&gt;Node11</title>
<path fill="none" stroke="midnightblue" d="M81.08,-56.32C95.12,-47.9 116.67,-34.97 133.16,-25.07"/>
<polygon fill="midnightblue" stroke="midnightblue" points="135.42,-27.8 142.2,-19.65 131.82,-21.8 135.42,-27.8"/>
</g>
<!-- Node13&#45;&gt;Node2 -->
<g id="edge19" class="edge">
<title>Node13&#45;&gt;Node2</title>
<path fill="none" stroke="midnightblue" d="M458.93,-56.44C524.9,-46.76 632.15,-31.03 701.54,-20.84"/>
<polygon fill="midnightblue" stroke="midnightblue" points="702.11,-24.3 711.49,-19.38 701.09,-17.37 702.11,-24.3"/>
</g>
<!-- Node13&#45;&gt;Node7 -->
<g id="edge18" class="edge">
<title>Node13&#45;&gt;Node7</title>
<path fill="none" stroke="midnightblue" d="M382.79,-56.32C364.91,-47.62 337.15,-34.12 316.58,-24.11"/>
<polygon fill="midnightblue" stroke="midnightblue" points="317.93,-20.88 307.41,-19.65 314.87,-27.18 317.93,-20.88"/>
</g>
<!-- Node15&#45;&gt;Node10 -->
<g id="edge24" class="edge">
<title>Node15&#45;&gt;Node10</title>
<path fill="none" stroke="midnightblue" d="M130.71,-112.4C117.63,-103.13 100.54,-91.03 87.3,-81.65"/>
<polygon fill="midnightblue" stroke="midnightblue" points="89.03,-78.58 78.84,-75.66 84.98,-84.29 89.03,-78.58"/>
</g>
<!-- Node15&#45;&gt;Node11 -->
<g id="edge23" class="edge">
<title>Node15&#45;&gt;Node11</title>
<path fill="none" stroke="midnightblue" d="M151.36,-112.34C152.43,-91.62 154.44,-53.02 155.64,-29.9"/>
<polygon fill="midnightblue" stroke="midnightblue" points="159.15,-29.84 156.17,-19.67 152.16,-29.47 159.15,-29.84"/>
</g>
</g>
</svg>
