<?xml version="1.0" encoding="UTF-8" standalone="no"?>
<!DOCTYPE svg PUBLIC "-//W3C//DTD SVG 1.1//EN"
 "http://www.w3.org/Graphics/SVG/1.1/DTD/svg11.dtd">
<!-- Generated by graphviz version 2.43.0 (0)
 -->
<!-- Title: Fraction.h Pages: 1 -->
<!--zoomable 263 -->
<svg id="main" version="1.1" xmlns="http://www.w3.org/2000/svg" xmlns:xlink="http://www.w3.org/1999/xlink" xml:space="preserve" onload="init(evt)">
<style type="text/css"><![CDATA[
.edge:hover path { stroke: red; }
.edge:hover polygon { stroke: red; fill: red; }
]]></style>
<script type="text/javascript"><![CDATA[
var edges = document.getElementsByTagName('g');
if (edges && edges.length) {
  for (var i=0;i<edges.length;i++) {
    if (edges[i].id.substr(0,4)=='edge') {
      edges[i].setAttribute('class','edge');
    }
  }
}
]]></script>
        <defs>
                <circle id="rim" cx="0" cy="0" r="7"/>
                <circle id="rim2" cx="0" cy="0" r="3.5"/>
                <g id="zoomPlus">
                        <use xlink:href="#rim" fill="#404040">
                                <set attributeName="fill" to="#808080" begin="zoomplus.mouseover" end="zoomplus.mouseout"/>
                        </use>
                        <path d="M-4,0h8M0,-4v8" fill="none" stroke="white" stroke-width="1.5" pointer-events="none"/>
                </g>
                <g id="zoomMin">
                        <use xlink:href="#rim" fill="#404040">
                                <set attributeName="fill" to="#808080" begin="zoomminus.mouseover" end="zoomminus.mouseout"/>
                        </use>
                        <path d="M-4,0h8" fill="none" stroke="white" stroke-width="1.5" pointer-events="none"/>
                </g>
                <g id="dirArrow">
                        <path fill="none" stroke="white" stroke-width="1.5" d="M0,-3.0v7 M-2.5,-0.5L0,-3.0L2.5,-0.5"/>
                </g>
               <g id="resetDef">
                       <use xlink:href="#rim2" fill="#404040">
                               <set attributeName="fill" to="#808080" begin="reset.mouseover" end="reset.mouseout"/>
                       </use>
               </g>
        </defs>

<script type="text/javascript">
var viewWidth = 974;
var viewHeight = 263;
var sectionId = 'dynsection-0';
</script>
<script xlink:href="svgpan.js"/>
<svg id="graph" class="graph">
<g id="viewport">
<title>Fraction.h</title>
<!-- Node1 -->
<g id="node1" class="node">
<title>Node1</title>
<g id="a_node1"><a xlink:title=" ">
<polygon fill="#bfbfbf" stroke="black" points="794,-235.5 794,-254.5 859,-254.5 859,-235.5 794,-235.5"/>
<text text-anchor="middle" x="826.5" y="-242.5" font-family="Helvetica,sans-Serif" font-size="10.00">Fraction.h</text>
</a>
</g>
</g>
<!-- Node2 -->
<g id="node2" class="node">
<title>Node2</title>
<g id="a_node2"><a xlink:href="limes__namespace_8h.html" target="_top" xlink:title=" ">
<polygon fill="none" stroke="black" points="668.5,-0.5 668.5,-19.5 782.5,-19.5 782.5,-0.5 668.5,-0.5"/>
<text text-anchor="middle" x="725.5" y="-7.5" font-family="Helvetica,sans-Serif" font-size="10.00">limes_namespace.h</text>
</a>
</g>
</g>
<!-- Node1&#45;&gt;Node2 -->
<g id="edge1" class="edge">
<title>Node1&#45;&gt;Node2</title>
<path fill="none" stroke="midnightblue" d="M829.23,-235.2C837.55,-206.56 859.76,-114.46 821.5,-56 811.12,-40.15 793.57,-29.77 776.29,-23.02"/>
<polygon fill="midnightblue" stroke="midnightblue" points="777.36,-19.69 766.76,-19.64 775.02,-26.28 777.36,-19.69"/>
</g>
<!-- Node3 -->
<g id="node3" class="node">
<title>Node3</title>
<g id="a_node3"><a xlink:href="math_helpers_8h.html" target="_top" xlink:title=" ">
<polygon fill="none" stroke="black" points="579,-179.5 579,-198.5 668,-198.5 668,-179.5 579,-179.5"/>
<text text-anchor="middle" x="623.5" y="-186.5" font-family="Helvetica,sans-Serif" font-size="10.00">mathHelpers.h</text>
</a>
</g>
</g>
<!-- Node1&#45;&gt;Node3 -->
<g id="edge2" class="edge">
<title>Node1&#45;&gt;Node3</title>
<path fill="none" stroke="midnightblue" d="M794.33,-235.44C759.44,-226.16 703.61,-211.31 665.33,-201.13"/>
<polygon fill="midnightblue" stroke="midnightblue" points="666.08,-197.7 655.52,-198.52 664.28,-204.47 666.08,-197.7"/>
</g>
<!-- Node6 -->
<g id="node6" class="node">
<title>Node6</title>
<g id="a_node6"><a xlink:title=" ">
<polygon fill="none" stroke="#bfbfbf" points="537,-0.5 537,-19.5 626,-19.5 626,-0.5 537,-0.5"/>
<text text-anchor="middle" x="581.5" y="-7.5" font-family="Helvetica,sans-Serif" font-size="10.00">limes_export.h</text>
</a>
</g>
</g>
<!-- Node1&#45;&gt;Node6 -->
<g id="edge24" class="edge">
<title>Node1&#45;&gt;Node6</title>
<path fill="none" stroke="midnightblue" d="M826.35,-235.5C825.5,-212.78 820.25,-149.8 788.5,-112 747.32,-62.97 676.68,-35.76 629.54,-22.26"/>
<polygon fill="midnightblue" stroke="midnightblue" points="630.43,-18.87 619.85,-19.58 628.56,-25.62 630.43,-18.87"/>
</g>
<!-- Node9 -->
<g id="node9" class="node">
<title>Node9</title>
<g id="a_node9"><a xlink:href="preprocessor_8h.html" target="_top" xlink:title=" ">
<polygon fill="none" stroke="black" points="0,-56.5 0,-75.5 123,-75.5 123,-56.5 0,-56.5"/>
<text text-anchor="middle" x="61.5" y="-63.5" font-family="Helvetica,sans-Serif" font-size="10.00">../misc/preprocessor.h</text>
</a>
</g>
</g>
<!-- Node1&#45;&gt;Node9 -->
<g id="edge25" class="edge">
<title>Node1&#45;&gt;Node9</title>
<path fill="none" stroke="midnightblue" d="M793.81,-243.9C665.63,-242.86 198.99,-232.85 88.5,-143 71.31,-129.02 65.05,-103.28 62.78,-85.67"/>
<polygon fill="midnightblue" stroke="midnightblue" points="66.27,-85.31 61.81,-75.69 59.3,-85.99 66.27,-85.31"/>
</g>
<!-- Node15 -->
<g id="node15" class="node">
<title>Node15</title>
<g id="a_node15"><a xlink:href="_fraction__impl_8h.html" target="_top" xlink:title=" ">
<polygon fill="none" stroke="black" points="873.5,-179.5 873.5,-198.5 965.5,-198.5 965.5,-179.5 873.5,-179.5"/>
<text text-anchor="middle" x="919.5" y="-186.5" font-family="Helvetica,sans-Serif" font-size="10.00">Fraction_impl.h</text>
</a>
</g>
</g>
<!-- Node1&#45;&gt;Node15 -->
<g id="edge26" class="edge">
<title>Node1&#45;&gt;Node15</title>
<path fill="none" stroke="midnightblue" d="M836.33,-235.32C849.31,-226.7 872.01,-213.36 890.53,-203.39"/>
<polygon fill="midnightblue" stroke="midnightblue" points="892.28,-206.42 899.48,-198.65 889.01,-200.23 892.28,-206.42"/>
</g>
<!-- Node3&#45;&gt;Node2 -->
<g id="edge3" class="edge">
<title>Node3&#45;&gt;Node2</title>
<path fill="none" stroke="midnightblue" d="M629.23,-179.48C635.21,-170.51 644.77,-155.92 652.5,-143 676.58,-102.72 702.72,-54.15 716.24,-28.63"/>
<polygon fill="midnightblue" stroke="midnightblue" points="719.34,-30.24 720.92,-19.76 713.15,-26.97 719.34,-30.24"/>
</g>
<!-- Node4 -->
<g id="node4" class="node">
<title>Node4</title>
<g id="a_node4"><a xlink:title=" ">
<polygon fill="none" stroke="#bfbfbf" points="574,-118 574,-137 621,-137 621,-118 574,-118"/>
<text text-anchor="middle" x="597.5" y="-125" font-family="Helvetica,sans-Serif" font-size="10.00">cmath</text>
</a>
</g>
</g>
<!-- Node3&#45;&gt;Node4 -->
<g id="edge4" class="edge">
<title>Node3&#45;&gt;Node4</title>
<path fill="none" stroke="midnightblue" d="M619.77,-179.48C616.03,-170.9 610.14,-157.43 605.36,-146.48"/>
<polygon fill="midnightblue" stroke="midnightblue" points="608.43,-144.77 601.22,-137.01 602.02,-147.57 608.43,-144.77"/>
</g>
<!-- Node5 -->
<g id="node5" class="node">
<title>Node5</title>
<g id="a_node5"><a xlink:title=" ">
<polygon fill="none" stroke="#bfbfbf" points="180,-56.5 180,-75.5 249,-75.5 249,-56.5 180,-56.5"/>
<text text-anchor="middle" x="214.5" y="-63.5" font-family="Helvetica,sans-Serif" font-size="10.00">type_traits</text>
</a>
</g>
</g>
<!-- Node3&#45;&gt;Node5 -->
<g id="edge5" class="edge">
<title>Node3&#45;&gt;Node5</title>
<path fill="none" stroke="midnightblue" d="M578.89,-185.56C499.97,-180.66 339.36,-167.89 289.5,-143 262.38,-129.46 239.31,-102.22 226.18,-84.29"/>
<polygon fill="midnightblue" stroke="midnightblue" points="228.87,-82.05 220.25,-75.89 223.16,-86.08 228.87,-82.05"/>
</g>
<!-- Node3&#45;&gt;Node6 -->
<g id="edge6" class="edge">
<title>Node3&#45;&gt;Node6</title>
<path fill="none" stroke="midnightblue" d="M626.48,-179.5C633.55,-157.81 649.42,-99.07 630.5,-56 625.11,-43.73 614.54,-33.34 604.6,-25.65"/>
<polygon fill="midnightblue" stroke="midnightblue" points="606.33,-22.58 596.16,-19.6 602.25,-28.27 606.33,-22.58"/>
</g>
<!-- Node7 -->
<g id="node7" class="node">
<title>Node7</title>
<g id="a_node7"><a xlink:title=" ">
<polygon fill="none" stroke="#bfbfbf" points="715.5,-118 715.5,-137 779.5,-137 779.5,-118 715.5,-118"/>
<text text-anchor="middle" x="747.5" y="-125" font-family="Helvetica,sans-Serif" font-size="10.00">algorithm</text>
</a>
</g>
</g>
<!-- Node3&#45;&gt;Node7 -->
<g id="edge7" class="edge">
<title>Node3&#45;&gt;Node7</title>
<path fill="none" stroke="midnightblue" d="M641.27,-179.48C661.98,-169.53 696.45,-152.99 720.49,-141.46"/>
<polygon fill="midnightblue" stroke="midnightblue" points="722.27,-144.49 729.77,-137.01 719.24,-138.18 722.27,-144.49"/>
</g>
<!-- Node8 -->
<g id="node8" class="node">
<title>Node8</title>
<g id="a_node8"><a xlink:href="limes__assert_8h.html" target="_top" xlink:title=" ">
<polygon fill="none" stroke="black" points="298.5,-118 298.5,-137 434.5,-137 434.5,-118 298.5,-118"/>
<text text-anchor="middle" x="366.5" y="-125" font-family="Helvetica,sans-Serif" font-size="10.00">../system/limes_assert.h</text>
</a>
</g>
</g>
<!-- Node3&#45;&gt;Node8 -->
<g id="edge8" class="edge">
<title>Node3&#45;&gt;Node8</title>
<path fill="none" stroke="midnightblue" d="M586.68,-179.48C540.97,-168.89 462.97,-150.84 413.13,-139.3"/>
<polygon fill="midnightblue" stroke="midnightblue" points="413.79,-135.85 403.25,-137.01 412.21,-142.67 413.79,-135.85"/>
</g>
<!-- Node14 -->
<g id="node14" class="node">
<title>Node14</title>
<g id="a_node14"><a xlink:href="compiler__defs_8h.html" target="_top" xlink:title=" ">
<polygon fill="none" stroke="black" points="98,-112.5 98,-142.5 205,-142.5 205,-112.5 98,-112.5"/>
<text text-anchor="start" x="106" y="-130.5" font-family="Helvetica,sans-Serif" font-size="10.00">../system/compiler</text>
<text text-anchor="middle" x="151.5" y="-119.5" font-family="Helvetica,sans-Serif" font-size="10.00">_defs.h</text>
</a>
</g>
</g>
<!-- Node3&#45;&gt;Node14 -->
<g id="edge21" class="edge">
<title>Node3&#45;&gt;Node14</title>
<path fill="none" stroke="midnightblue" d="M578.95,-183.51C507.14,-176.1 361.43,-160.42 238.5,-143 230.93,-141.93 223.01,-140.72 215.15,-139.48"/>
<polygon fill="midnightblue" stroke="midnightblue" points="215.7,-136.02 205.27,-137.88 214.59,-142.93 215.7,-136.02"/>
</g>
<!-- Node8&#45;&gt;Node2 -->
<g id="edge10" class="edge">
<title>Node8&#45;&gt;Node2</title>
<path fill="none" stroke="midnightblue" d="M434.61,-121.2C489.26,-115.15 567.07,-102.41 630.5,-76 659.99,-63.72 689.69,-41.44 707.84,-26.43"/>
<polygon fill="midnightblue" stroke="midnightblue" points="710.4,-28.85 715.77,-19.72 705.88,-23.5 710.4,-28.85"/>
</g>
<!-- Node8&#45;&gt;Node5 -->
<g id="edge13" class="edge">
<title>Node8&#45;&gt;Node5</title>
<path fill="none" stroke="midnightblue" d="M344.72,-117.98C318.76,-107.81 275.19,-90.76 245.67,-79.2"/>
<polygon fill="midnightblue" stroke="midnightblue" points="246.83,-75.9 236.24,-75.51 244.27,-82.41 246.83,-75.9"/>
</g>
<!-- Node8&#45;&gt;Node6 -->
<g id="edge9" class="edge">
<title>Node8&#45;&gt;Node6</title>
<path fill="none" stroke="midnightblue" d="M357.04,-117.88C342.63,-103.72 318.48,-75.2 334.5,-56 358.49,-27.25 461.53,-16.82 526.71,-13.07"/>
<polygon fill="midnightblue" stroke="midnightblue" points="527.03,-16.56 536.83,-12.52 526.65,-9.57 527.03,-16.56"/>
</g>
<!-- Node8&#45;&gt;Node9 -->
<g id="edge11" class="edge">
<title>Node8&#45;&gt;Node9</title>
<path fill="none" stroke="midnightblue" d="M322.8,-117.98C267.99,-107.28 174.06,-88.96 115,-77.44"/>
<polygon fill="midnightblue" stroke="midnightblue" points="115.6,-73.99 105.12,-75.51 114.26,-80.86 115.6,-73.99"/>
</g>
<!-- Node10 -->
<g id="node10" class="node">
<title>Node10</title>
<g id="a_node10"><a xlink:title=" ">
<polygon fill="none" stroke="#bfbfbf" points="164.5,-0.5 164.5,-19.5 264.5,-19.5 264.5,-0.5 164.5,-0.5"/>
<text text-anchor="middle" x="214.5" y="-7.5" font-family="Helvetica,sans-Serif" font-size="10.00">limes_platform.h</text>
</a>
</g>
</g>
<!-- Node8&#45;&gt;Node10 -->
<g id="edge19" class="edge">
<title>Node8&#45;&gt;Node10</title>
<path fill="none" stroke="midnightblue" d="M355.08,-117.82C329.33,-98.25 266.51,-50.52 234.28,-26.03"/>
<polygon fill="midnightblue" stroke="midnightblue" points="236.14,-23.05 226.06,-19.78 231.9,-28.62 236.14,-23.05"/>
</g>
<!-- Node11 -->
<g id="node11" class="node">
<title>Node11</title>
<g id="a_node11"><a xlink:title=" ">
<polygon fill="none" stroke="#bfbfbf" points="344,-56.5 344,-75.5 389,-75.5 389,-56.5 344,-56.5"/>
<text text-anchor="middle" x="366.5" y="-63.5" font-family="Helvetica,sans-Serif" font-size="10.00">utility</text>
</a>
</g>
</g>
<!-- Node8&#45;&gt;Node11 -->
<g id="edge14" class="edge">
<title>Node8&#45;&gt;Node11</title>
<path fill="none" stroke="midnightblue" d="M366.5,-117.98C366.5,-109.58 366.5,-96.48 366.5,-85.66"/>
<polygon fill="midnightblue" stroke="midnightblue" points="370,-85.51 366.5,-75.51 363,-85.51 370,-85.51"/>
</g>
<!-- Node12 -->
<g id="node12" class="node">
<title>Node12</title>
<g id="a_node12"><a xlink:href="_ignore_unused_8h.html" target="_top" xlink:title=" ">
<polygon fill="none" stroke="black" points="493.5,-56.5 493.5,-75.5 621.5,-75.5 621.5,-56.5 493.5,-56.5"/>
<text text-anchor="middle" x="557.5" y="-63.5" font-family="Helvetica,sans-Serif" font-size="10.00">../misc/IgnoreUnused.h</text>
</a>
</g>
</g>
<!-- Node8&#45;&gt;Node12 -->
<g id="edge15" class="edge">
<title>Node8&#45;&gt;Node12</title>
<path fill="none" stroke="midnightblue" d="M393.87,-117.98C427.05,-107.64 483.15,-90.16 520.26,-78.6"/>
<polygon fill="midnightblue" stroke="midnightblue" points="521.68,-81.82 530.19,-75.51 519.6,-75.14 521.68,-81.82"/>
</g>
<!-- Node13 -->
<g id="node13" class="node">
<title>Node13</title>
<g id="a_node13"><a xlink:title=" ">
<polygon fill="none" stroke="#bfbfbf" points="407.5,-56.5 407.5,-75.5 475.5,-75.5 475.5,-56.5 407.5,-56.5"/>
<text text-anchor="middle" x="441.5" y="-63.5" font-family="Helvetica,sans-Serif" font-size="10.00">filesystem</text>
</a>
</g>
</g>
<!-- Node8&#45;&gt;Node13 -->
<g id="edge20" class="edge">
<title>Node8&#45;&gt;Node13</title>
<path fill="none" stroke="midnightblue" d="M377.25,-117.98C389.05,-108.61 408.24,-93.38 422.58,-82.01"/>
<polygon fill="midnightblue" stroke="midnightblue" points="425.12,-84.47 430.77,-75.51 420.76,-78.98 425.12,-84.47"/>
</g>
<!-- Node9&#45;&gt;Node10 -->
<g id="edge12" class="edge">
<title>Node9&#45;&gt;Node10</title>
<path fill="none" stroke="midnightblue" d="M85.74,-56.44C111.37,-47.4 151.99,-33.06 180.74,-22.92"/>
<polygon fill="midnightblue" stroke="midnightblue" points="182.11,-26.15 190.37,-19.52 179.78,-19.54 182.11,-26.15"/>
</g>
<!-- Node12&#45;&gt;Node2 -->
<g id="edge17" class="edge">
<title>Node12&#45;&gt;Node2</title>
<path fill="none" stroke="midnightblue" d="M584.12,-56.44C612.51,-47.32 657.64,-32.81 689.25,-22.65"/>
<polygon fill="midnightblue" stroke="midnightblue" points="690.56,-25.91 699,-19.52 688.41,-19.24 690.56,-25.91"/>
</g>
<!-- Node12&#45;&gt;Node6 -->
<g id="edge16" class="edge">
<title>Node12&#45;&gt;Node6</title>
<path fill="none" stroke="midnightblue" d="M561.46,-56.08C564.71,-48.77 569.42,-38.18 573.45,-29.1"/>
<polygon fill="midnightblue" stroke="midnightblue" points="576.75,-30.31 577.61,-19.75 570.35,-27.47 576.75,-30.31"/>
</g>
<!-- Node12&#45;&gt;Node10 -->
<g id="edge18" class="edge">
<title>Node12&#45;&gt;Node10</title>
<path fill="none" stroke="midnightblue" d="M503.15,-56.44C440.93,-46.65 339.3,-30.65 274.72,-20.48"/>
<polygon fill="midnightblue" stroke="midnightblue" points="275.11,-17 264.69,-18.9 274.02,-23.91 275.11,-17"/>
</g>
<!-- Node14&#45;&gt;Node9 -->
<g id="edge23" class="edge">
<title>Node14&#45;&gt;Node9</title>
<path fill="none" stroke="midnightblue" d="M130.17,-112.4C116.01,-103.04 97.49,-90.79 83.25,-81.38"/>
<polygon fill="midnightblue" stroke="midnightblue" points="84.87,-78.25 74.6,-75.66 81.01,-84.09 84.87,-78.25"/>
</g>
<!-- Node14&#45;&gt;Node10 -->
<g id="edge22" class="edge">
<title>Node14&#45;&gt;Node10</title>
<path fill="none" stroke="midnightblue" d="M153.15,-112.45C155.35,-97.62 160.26,-73.94 170.5,-56 176.89,-44.81 186.72,-34.38 195.48,-26.39"/>
<polygon fill="midnightblue" stroke="midnightblue" points="197.83,-28.98 203.08,-19.78 193.24,-23.7 197.83,-28.98"/>
</g>
<!-- Node15&#45;&gt;Node1 -->
<g id="edge28" class="edge">
<title>Node15&#45;&gt;Node1</title>
<path fill="none" stroke="midnightblue" d="M909.71,-198.65C896.74,-207.27 874.04,-220.61 855.52,-230.59"/>
<polygon fill="midnightblue" stroke="midnightblue" points="853.76,-227.56 846.56,-235.32 857.03,-233.75 853.76,-227.56"/>
</g>
<!-- Node15&#45;&gt;Node2 -->
<g id="edge27" class="edge">
<title>Node15&#45;&gt;Node2</title>
<path fill="none" stroke="midnightblue" d="M925.59,-179.1C934.82,-164.41 950.12,-134.47 938.5,-112 910.75,-58.32 844.15,-32.96 792.75,-21.11"/>
<polygon fill="midnightblue" stroke="midnightblue" points="793.21,-17.63 782.69,-18.92 791.71,-24.47 793.21,-17.63"/>
</g>
<!-- Node15&#45;&gt;Node7 -->
<g id="edge30" class="edge">
<title>Node15&#45;&gt;Node7</title>
<path fill="none" stroke="midnightblue" d="M894.86,-179.48C865.22,-169.22 815.32,-151.96 781.9,-140.4"/>
<polygon fill="midnightblue" stroke="midnightblue" points="782.69,-136.97 772.1,-137.01 780.4,-143.59 782.69,-136.97"/>
</g>
<!-- Node16 -->
<g id="node16" class="node">
<title>Node16</title>
<g id="a_node16"><a xlink:title=" ">
<polygon fill="none" stroke="#bfbfbf" points="873.5,-118 873.5,-137 929.5,-137 929.5,-118 873.5,-118"/>
<text text-anchor="middle" x="901.5" y="-125" font-family="Helvetica,sans-Serif" font-size="10.00">numeric</text>
</a>
</g>
</g>
<!-- Node15&#45;&gt;Node16 -->
<g id="edge29" class="edge">
<title>Node15&#45;&gt;Node16</title>
<path fill="none" stroke="midnightblue" d="M916.92,-179.48C914.35,-170.99 910.33,-157.7 907.04,-146.82"/>
<polygon fill="midnightblue" stroke="midnightblue" points="910.32,-145.57 904.07,-137.01 903.62,-147.59 910.32,-145.57"/>
</g>
</g>
</svg>
        <g id="navigator" transform="translate(0 0)" fill="#404254">
                <rect fill="#f2f5e9" fill-opacity="0.5" stroke="#606060" stroke-width=".5" x="0" y="0" width="60" height="60"/>
                <use id="zoomplus" xlink:href="#zoomPlus" x="17" y="9" onmousedown="handleZoom(evt,'in')"/>
                <use id="zoomminus" xlink:href="#zoomMin" x="42" y="9" onmousedown="handleZoom(evt,'out')"/>
                <use id="reset" xlink:href="#resetDef" x="30" y="36" onmousedown="handleReset()"/>
                <g id="arrowUp" xlink:href="#dirArrow" transform="translate(30 24)" onmousedown="handlePan(0,-1)">
                  <use xlink:href="#rim" fill="#404040">
                        <set attributeName="fill" to="#808080" begin="arrowUp.mouseover" end="arrowUp.mouseout"/>
                  </use>
                  <path fill="none" stroke="white" stroke-width="1.5" d="M0,-3.0v7 M-2.5,-0.5L0,-3.0L2.5,-0.5"/>
                </g>
                <g id="arrowRight" xlink:href="#dirArrow" transform="rotate(90) translate(36 -43)" onmousedown="handlePan(1,0)">
                  <use xlink:href="#rim" fill="#404040">
                        <set attributeName="fill" to="#808080" begin="arrowRight.mouseover" end="arrowRight.mouseout"/>
                  </use>
                  <path fill="none" stroke="white" stroke-width="1.5" d="M0,-3.0v7 M-2.5,-0.5L0,-3.0L2.5,-0.5"/>
                </g>
                <g id="arrowDown" xlink:href="#dirArrow" transform="rotate(180) translate(-30 -48)" onmousedown="handlePan(0,1)">
                  <use xlink:href="#rim" fill="#404040">
                        <set attributeName="fill" to="#808080" begin="arrowDown.mouseover" end="arrowDown.mouseout"/>
                  </use>
                  <path fill="none" stroke="white" stroke-width="1.5" d="M0,-3.0v7 M-2.5,-0.5L0,-3.0L2.5,-0.5"/>
                </g>
                <g id="arrowLeft" xlink:href="#dirArrow" transform="rotate(270) translate(-36 17)" onmousedown="handlePan(-1,0)">
                  <use xlink:href="#rim" fill="#404040">
                        <set attributeName="fill" to="#808080" begin="arrowLeft.mouseover" end="arrowLeft.mouseout"/>
                  </use>
                  <path fill="none" stroke="white" stroke-width="1.5" d="M0,-3.0v7 M-2.5,-0.5L0,-3.0L2.5,-0.5"/>
                </g>
        </g>
        <svg viewBox="0 0 15 15" width="100%" height="30px" preserveAspectRatio="xMaxYMin meet">
         <g id="arrow_out" transform="scale(0.3 0.3)">
          <a xlink:href="_fraction_8h__incl_org.svg" target="_base">
           <rect id="button" ry="5" rx="5" y="6" x="6" height="38" width="38"
                fill="#f2f5e9" fill-opacity="0.5" stroke="#606060" stroke-width="1.0"/>
           <path id="arrow"
             d="M 11.500037,31.436501 C 11.940474,20.09759 22.043105,11.32322 32.158766,21.979434 L 37.068811,17.246167 C 37.068811,17.246167 37.088388,32 37.088388,32 L 22.160133,31.978069 C 22.160133,31.978069 26.997745,27.140456 26.997745,27.140456 C 18.528582,18.264221 13.291696,25.230495 11.500037,31.436501 z"
             style="fill:#404040;"/>
          </a>
         </g>
        </svg>
</svg>
