<?xml version="1.0" encoding="UTF-8" standalone="no"?>
<!DOCTYPE svg PUBLIC "-//W3C//DTD SVG 1.1//EN"
 "http://www.w3.org/Graphics/SVG/1.1/DTD/svg11.dtd">
<!-- Generated by graphviz version 2.43.0 (0)
 -->
<!-- Title: Fraction_impl.h Pages: 1 -->
<!--zoomable 319 -->
<svg id="main" version="1.1" xmlns="http://www.w3.org/2000/svg" xmlns:xlink="http://www.w3.org/1999/xlink" xml:space="preserve" onload="init(evt)">
<style type="text/css"><![CDATA[
.edge:hover path { stroke: red; }
.edge:hover polygon { stroke: red; fill: red; }
]]></style>
<script type="text/javascript"><![CDATA[
var edges = document.getElementsByTagName('g');
if (edges && edges.length) {
  for (var i=0;i<edges.length;i++) {
    if (edges[i].id.substr(0,4)=='edge') {
      edges[i].setAttribute('class','edge');
    }
  }
}
]]></script>
        <defs>
                <circle id="rim" cx="0" cy="0" r="7"/>
                <circle id="rim2" cx="0" cy="0" r="3.5"/>
                <g id="zoomPlus">
                        <use xlink:href="#rim" fill="#404040">
                                <set attributeName="fill" to="#808080" begin="zoomplus.mouseover" end="zoomplus.mouseout"/>
                        </use>
                        <path d="M-4,0h8M0,-4v8" fill="none" stroke="white" stroke-width="1.5" pointer-events="none"/>
                </g>
                <g id="zoomMin">
                        <use xlink:href="#rim" fill="#404040">
                                <set attributeName="fill" to="#808080" begin="zoomminus.mouseover" end="zoomminus.mouseout"/>
                        </use>
                        <path d="M-4,0h8" fill="none" stroke="white" stroke-width="1.5" pointer-events="none"/>
                </g>
                <g id="dirArrow">
                        <path fill="none" stroke="white" stroke-width="1.5" d="M0,-3.0v7 M-2.5,-0.5L0,-3.0L2.5,-0.5"/>
                </g>
               <g id="resetDef">
                       <use xlink:href="#rim2" fill="#404040">
                               <set attributeName="fill" to="#808080" begin="reset.mouseover" end="reset.mouseout"/>
                       </use>
               </g>
        </defs>

<script type="text/javascript">
var viewWidth = 829;
var viewHeight = 319;
var sectionId = 'dynsection-0';
</script>
<script xlink:href="svgpan.js"/>
<svg id="graph" class="graph">
<g id="viewport">
<title>Fraction_impl.h</title>
<!-- Node1 -->
<g id="node1" class="node">
<title>Node1</title>
<g id="a_node1"><a xlink:title=" ">
<polygon fill="#bfbfbf" stroke="black" points="210,-291.5 210,-310.5 302,-310.5 302,-291.5 210,-291.5"/>
<text text-anchor="middle" x="256" y="-298.5" font-family="Helvetica,sans-Serif" font-size="10.00">Fraction_impl.h</text>
</a>
</g>
</g>
<!-- Node2 -->
<g id="node2" class="node">
<title>Node2</title>
<g id="a_node2"><a xlink:href="limes__namespace_8h.html" target="_top" xlink:title=" ">
<polygon fill="none" stroke="black" points="19,-0.5 19,-19.5 133,-19.5 133,-0.5 19,-0.5"/>
<text text-anchor="middle" x="76" y="-7.5" font-family="Helvetica,sans-Serif" font-size="10.00">limes_namespace.h</text>
</a>
</g>
</g>
<!-- Node1&#45;&gt;Node2 -->
<g id="edge1" class="edge">
<title>Node1&#45;&gt;Node2</title>
<path fill="none" stroke="midnightblue" d="M209.94,-300.04C136.23,-297.41 0,-280.34 0,-190 0,-190 0,-190 0,-126.5 0,-84.81 34.98,-46.53 57.48,-26.22"/>
<polygon fill="midnightblue" stroke="midnightblue" points="59.86,-28.78 65.11,-19.58 55.27,-23.5 59.86,-28.78"/>
</g>
<!-- Node3 -->
<g id="node3" class="node">
<title>Node3</title>
<g id="a_node3"><a xlink:href="_fraction_8h.html" target="_top" xlink:title=" ">
<polygon fill="none" stroke="black" points="223.5,-235.5 223.5,-254.5 288.5,-254.5 288.5,-235.5 223.5,-235.5"/>
<text text-anchor="middle" x="256" y="-242.5" font-family="Helvetica,sans-Serif" font-size="10.00">Fraction.h</text>
</a>
</g>
</g>
<!-- Node1&#45;&gt;Node3 -->
<g id="edge2" class="edge">
<title>Node1&#45;&gt;Node3</title>
<path fill="none" stroke="midnightblue" d="M250.83,-291.08C249.32,-283.93 248.89,-273.64 249.54,-264.69"/>
<polygon fill="midnightblue" stroke="midnightblue" points="253.02,-265.13 250.87,-254.75 246.08,-264.2 253.02,-265.13"/>
</g>
<!-- Node8 -->
<g id="node8" class="node">
<title>Node8</title>
<g id="a_node8"><a xlink:title=" ">
<polygon fill="none" stroke="#bfbfbf" points="564,-118 564,-137 628,-137 628,-118 564,-118"/>
<text text-anchor="middle" x="596" y="-125" font-family="Helvetica,sans-Serif" font-size="10.00">algorithm</text>
</a>
</g>
</g>
<!-- Node1&#45;&gt;Node8 -->
<g id="edge30" class="edge">
<title>Node1&#45;&gt;Node8</title>
<path fill="none" stroke="midnightblue" d="M272.86,-291.5C328.03,-263.67 503.45,-175.18 570.03,-141.6"/>
<polygon fill="midnightblue" stroke="midnightblue" points="571.69,-144.68 579.04,-137.06 568.53,-138.43 571.69,-144.68"/>
</g>
<!-- Node16 -->
<g id="node16" class="node">
<title>Node16</title>
<g id="a_node16"><a xlink:title=" ">
<polygon fill="none" stroke="#bfbfbf" points="673,-235.5 673,-254.5 729,-254.5 729,-235.5 673,-235.5"/>
<text text-anchor="middle" x="701" y="-242.5" font-family="Helvetica,sans-Serif" font-size="10.00">numeric</text>
</a>
</g>
</g>
<!-- Node1&#45;&gt;Node16 -->
<g id="edge29" class="edge">
<title>Node1&#45;&gt;Node16</title>
<path fill="none" stroke="midnightblue" d="M302.14,-296.36C377.23,-290.09 530.45,-275.9 659,-255 660.24,-254.8 661.5,-254.58 662.77,-254.36"/>
<polygon fill="midnightblue" stroke="midnightblue" points="663.44,-257.8 672.61,-252.49 662.13,-250.92 663.44,-257.8"/>
</g>
<!-- Node3&#45;&gt;Node1 -->
<g id="edge28" class="edge">
<title>Node3&#45;&gt;Node1</title>
<path fill="none" stroke="midnightblue" d="M261.13,-254.75C262.66,-261.86 263.1,-272.14 262.47,-281.1"/>
<polygon fill="midnightblue" stroke="midnightblue" points="258.99,-280.71 261.17,-291.08 265.93,-281.62 258.99,-280.71"/>
</g>
<!-- Node3&#45;&gt;Node2 -->
<g id="edge3" class="edge">
<title>Node3&#45;&gt;Node2</title>
<path fill="none" stroke="midnightblue" d="M224.8,-235.44C203.52,-228.38 175.74,-216.63 156,-199 108.59,-156.65 103.08,-136.31 83,-76 78.01,-61.01 76.38,-43.1 75.92,-29.88"/>
<polygon fill="midnightblue" stroke="midnightblue" points="79.42,-29.61 75.78,-19.66 72.42,-29.71 79.42,-29.61"/>
</g>
<!-- Node4 -->
<g id="node4" class="node">
<title>Node4</title>
<g id="a_node4"><a xlink:href="math_helpers_8h.html" target="_top" xlink:title=" ">
<polygon fill="none" stroke="black" points="211.5,-179.5 211.5,-198.5 300.5,-198.5 300.5,-179.5 211.5,-179.5"/>
<text text-anchor="middle" x="256" y="-186.5" font-family="Helvetica,sans-Serif" font-size="10.00">mathHelpers.h</text>
</a>
</g>
</g>
<!-- Node3&#45;&gt;Node4 -->
<g id="edge4" class="edge">
<title>Node3&#45;&gt;Node4</title>
<path fill="none" stroke="midnightblue" d="M256,-235.08C256,-228.01 256,-217.86 256,-208.99"/>
<polygon fill="midnightblue" stroke="midnightblue" points="259.5,-208.75 256,-198.75 252.5,-208.75 259.5,-208.75"/>
</g>
<!-- Node7 -->
<g id="node7" class="node">
<title>Node7</title>
<g id="a_node7"><a xlink:title=" ">
<polygon fill="none" stroke="#bfbfbf" points="211.5,-0.5 211.5,-19.5 300.5,-19.5 300.5,-0.5 211.5,-0.5"/>
<text text-anchor="middle" x="256" y="-7.5" font-family="Helvetica,sans-Serif" font-size="10.00">limes_export.h</text>
</a>
</g>
</g>
<!-- Node3&#45;&gt;Node7 -->
<g id="edge26" class="edge">
<title>Node3&#45;&gt;Node7</title>
<path fill="none" stroke="midnightblue" d="M237.44,-235.43C208.77,-221.03 154.73,-188.96 133,-143 127.11,-130.54 129.46,-125.32 133,-112 140.36,-84.29 144.13,-75.65 165,-56 180.37,-41.52 201.29,-30.74 219.19,-23.36"/>
<polygon fill="midnightblue" stroke="midnightblue" points="220.74,-26.52 228.77,-19.62 218.19,-20 220.74,-26.52"/>
</g>
<!-- Node10 -->
<g id="node10" class="node">
<title>Node10</title>
<g id="a_node10"><a xlink:href="preprocessor_8h.html" target="_top" xlink:title=" ">
<polygon fill="none" stroke="black" points="678.5,-56.5 678.5,-75.5 801.5,-75.5 801.5,-56.5 678.5,-56.5"/>
<text text-anchor="middle" x="740" y="-63.5" font-family="Helvetica,sans-Serif" font-size="10.00">../misc/preprocessor.h</text>
</a>
</g>
</g>
<!-- Node3&#45;&gt;Node10 -->
<g id="edge27" class="edge">
<title>Node3&#45;&gt;Node10</title>
<path fill="none" stroke="midnightblue" d="M288.53,-239.6C356.17,-229.55 515.77,-201.17 637,-143 670.33,-127 703.85,-99.7 723.22,-82.54"/>
<polygon fill="midnightblue" stroke="midnightblue" points="725.77,-84.96 730.85,-75.66 721.08,-79.76 725.77,-84.96"/>
</g>
<!-- Node4&#45;&gt;Node2 -->
<g id="edge5" class="edge">
<title>Node4&#45;&gt;Node2</title>
<path fill="none" stroke="midnightblue" d="M211.26,-180.71C185.63,-174.5 154.41,-163.22 133,-143 99.99,-111.81 85.11,-58.29 79.26,-29.92"/>
<polygon fill="midnightblue" stroke="midnightblue" points="82.64,-28.93 77.34,-19.76 75.76,-30.23 82.64,-28.93"/>
</g>
<!-- Node5 -->
<g id="node5" class="node">
<title>Node5</title>
<g id="a_node5"><a xlink:title=" ">
<polygon fill="none" stroke="#bfbfbf" points="142.5,-118 142.5,-137 189.5,-137 189.5,-118 142.5,-118"/>
<text text-anchor="middle" x="166" y="-125" font-family="Helvetica,sans-Serif" font-size="10.00">cmath</text>
</a>
</g>
</g>
<!-- Node4&#45;&gt;Node5 -->
<g id="edge6" class="edge">
<title>Node4&#45;&gt;Node5</title>
<path fill="none" stroke="midnightblue" d="M243.11,-179.48C228.54,-169.84 204.6,-154.02 187.25,-142.55"/>
<polygon fill="midnightblue" stroke="midnightblue" points="189.14,-139.6 178.87,-137.01 185.28,-145.44 189.14,-139.6"/>
</g>
<!-- Node6 -->
<g id="node6" class="node">
<title>Node6</title>
<g id="a_node6"><a xlink:title=" ">
<polygon fill="none" stroke="#bfbfbf" points="180.5,-56.5 180.5,-75.5 249.5,-75.5 249.5,-56.5 180.5,-56.5"/>
<text text-anchor="middle" x="215" y="-63.5" font-family="Helvetica,sans-Serif" font-size="10.00">type_traits</text>
</a>
</g>
</g>
<!-- Node4&#45;&gt;Node6 -->
<g id="edge7" class="edge">
<title>Node4&#45;&gt;Node6</title>
<path fill="none" stroke="midnightblue" d="M253.35,-179.06C249.09,-164.79 240.34,-136.06 232,-112 228.92,-103.11 225.26,-93.33 222.13,-85.17"/>
<polygon fill="midnightblue" stroke="midnightblue" points="225.28,-83.63 218.4,-75.58 218.76,-86.16 225.28,-83.63"/>
</g>
<!-- Node4&#45;&gt;Node7 -->
<g id="edge8" class="edge">
<title>Node4&#45;&gt;Node7</title>
<path fill="none" stroke="midnightblue" d="M249.38,-179.35C229.47,-153.34 171.52,-77.53 171,-76 168.17,-67.58 166.42,-63.62 171,-56 180.29,-40.57 196.83,-30.16 212.87,-23.27"/>
<polygon fill="midnightblue" stroke="midnightblue" points="214.17,-26.52 222.2,-19.61 211.61,-20.01 214.17,-26.52"/>
</g>
<!-- Node4&#45;&gt;Node8 -->
<g id="edge9" class="edge">
<title>Node4&#45;&gt;Node8</title>
<path fill="none" stroke="midnightblue" d="M300.67,-183.83C359.39,-177.75 465.47,-164.77 554,-143 557.22,-142.21 560.54,-141.27 563.85,-140.26"/>
<polygon fill="midnightblue" stroke="midnightblue" points="565.14,-143.53 573.56,-137.09 562.96,-136.87 565.14,-143.53"/>
</g>
<!-- Node9 -->
<g id="node9" class="node">
<title>Node9</title>
<g id="a_node9"><a xlink:href="limes__assert_8h.html" target="_top" xlink:title=" ">
<polygon fill="none" stroke="black" points="284,-118 284,-137 420,-137 420,-118 284,-118"/>
<text text-anchor="middle" x="352" y="-125" font-family="Helvetica,sans-Serif" font-size="10.00">../system/limes_assert.h</text>
</a>
</g>
</g>
<!-- Node4&#45;&gt;Node9 -->
<g id="edge10" class="edge">
<title>Node4&#45;&gt;Node9</title>
<path fill="none" stroke="midnightblue" d="M269.75,-179.48C285.37,-169.8 311.06,-153.87 329.58,-142.39"/>
<polygon fill="midnightblue" stroke="midnightblue" points="331.62,-145.25 338.27,-137.01 327.93,-139.3 331.62,-145.25"/>
</g>
<!-- Node15 -->
<g id="node15" class="node">
<title>Node15</title>
<g id="a_node15"><a xlink:href="compiler__defs_8h.html" target="_top" xlink:title=" ">
<polygon fill="none" stroke="black" points="438.5,-112.5 438.5,-142.5 545.5,-142.5 545.5,-112.5 438.5,-112.5"/>
<text text-anchor="start" x="446.5" y="-130.5" font-family="Helvetica,sans-Serif" font-size="10.00">../system/compiler</text>
<text text-anchor="middle" x="492" y="-119.5" font-family="Helvetica,sans-Serif" font-size="10.00">_defs.h</text>
</a>
</g>
</g>
<!-- Node4&#45;&gt;Node15 -->
<g id="edge23" class="edge">
<title>Node4&#45;&gt;Node15</title>
<path fill="none" stroke="midnightblue" d="M289.81,-179.48C325.83,-170.39 383.7,-155.81 428.31,-144.56"/>
<polygon fill="midnightblue" stroke="midnightblue" points="429.35,-147.91 438.19,-142.07 427.64,-141.12 429.35,-147.91"/>
</g>
<!-- Node9&#45;&gt;Node2 -->
<g id="edge12" class="edge">
<title>Node9&#45;&gt;Node2</title>
<path fill="none" stroke="midnightblue" d="M342.96,-117.7C327.1,-102.75 292.65,-72.44 258,-56 222,-38.92 178.81,-27.89 143.54,-21.02"/>
<polygon fill="midnightblue" stroke="midnightblue" points="143.82,-17.51 133.35,-19.11 142.53,-24.39 143.82,-17.51"/>
</g>
<!-- Node9&#45;&gt;Node6 -->
<g id="edge15" class="edge">
<title>Node9&#45;&gt;Node6</title>
<path fill="none" stroke="midnightblue" d="M332.37,-117.98C309.18,-107.9 270.38,-91.05 243.79,-79.5"/>
<polygon fill="midnightblue" stroke="midnightblue" points="245.16,-76.28 234.59,-75.51 242.37,-82.7 245.16,-76.28"/>
</g>
<!-- Node9&#45;&gt;Node7 -->
<g id="edge11" class="edge">
<title>Node9&#45;&gt;Node7</title>
<path fill="none" stroke="midnightblue" d="M344.78,-117.82C328.87,-98.67 290.53,-52.54 269.82,-27.63"/>
<polygon fill="midnightblue" stroke="midnightblue" points="272.38,-25.24 263.3,-19.78 267,-29.71 272.38,-25.24"/>
</g>
<!-- Node9&#45;&gt;Node10 -->
<g id="edge13" class="edge">
<title>Node9&#45;&gt;Node10</title>
<path fill="none" stroke="midnightblue" d="M395.51,-117.97C406.43,-115.92 418.13,-113.81 429,-112 510.69,-98.4 604.85,-85.11 667.97,-76.54"/>
<polygon fill="midnightblue" stroke="midnightblue" points="668.78,-79.96 678.22,-75.15 667.84,-73.03 668.78,-79.96"/>
</g>
<!-- Node11 -->
<g id="node11" class="node">
<title>Node11</title>
<g id="a_node11"><a xlink:title=" ">
<polygon fill="none" stroke="#bfbfbf" points="570,-0.5 570,-19.5 670,-19.5 670,-0.5 570,-0.5"/>
<text text-anchor="middle" x="620" y="-7.5" font-family="Helvetica,sans-Serif" font-size="10.00">limes_platform.h</text>
</a>
</g>
</g>
<!-- Node9&#45;&gt;Node11 -->
<g id="edge21" class="edge">
<title>Node9&#45;&gt;Node11</title>
<path fill="none" stroke="midnightblue" d="M376.11,-117.98C402.28,-108.51 445.13,-92.4 481,-76 498.36,-68.06 501.83,-64.33 519,-56 542.75,-44.48 570.12,-32.35 590.38,-23.59"/>
<polygon fill="midnightblue" stroke="midnightblue" points="591.9,-26.75 599.7,-19.58 589.13,-20.32 591.9,-26.75"/>
</g>
<!-- Node12 -->
<g id="node12" class="node">
<title>Node12</title>
<g id="a_node12"><a xlink:title=" ">
<polygon fill="none" stroke="#bfbfbf" points="528.5,-56.5 528.5,-75.5 573.5,-75.5 573.5,-56.5 528.5,-56.5"/>
<text text-anchor="middle" x="551" y="-63.5" font-family="Helvetica,sans-Serif" font-size="10.00">utility</text>
</a>
</g>
</g>
<!-- Node9&#45;&gt;Node12 -->
<g id="edge16" class="edge">
<title>Node9&#45;&gt;Node12</title>
<path fill="none" stroke="midnightblue" d="M380.51,-117.98C417.11,-107.03 480.45,-88.09 518.77,-76.64"/>
<polygon fill="midnightblue" stroke="midnightblue" points="519.83,-79.97 528.4,-73.76 517.82,-73.27 519.83,-79.97"/>
</g>
<!-- Node13 -->
<g id="node13" class="node">
<title>Node13</title>
<g id="a_node13"><a xlink:href="_ignore_unused_8h.html" target="_top" xlink:title=" ">
<polygon fill="none" stroke="black" points="344,-56.5 344,-75.5 472,-75.5 472,-56.5 344,-56.5"/>
<text text-anchor="middle" x="408" y="-63.5" font-family="Helvetica,sans-Serif" font-size="10.00">../misc/IgnoreUnused.h</text>
</a>
</g>
</g>
<!-- Node9&#45;&gt;Node13 -->
<g id="edge17" class="edge">
<title>Node9&#45;&gt;Node13</title>
<path fill="none" stroke="midnightblue" d="M360.02,-117.98C368.59,-108.87 382.36,-94.24 392.96,-82.98"/>
<polygon fill="midnightblue" stroke="midnightblue" points="395.69,-85.19 399.99,-75.51 390.59,-80.39 395.69,-85.19"/>
</g>
<!-- Node14 -->
<g id="node14" class="node">
<title>Node14</title>
<g id="a_node14"><a xlink:title=" ">
<polygon fill="none" stroke="#bfbfbf" points="592,-56.5 592,-75.5 660,-75.5 660,-56.5 592,-56.5"/>
<text text-anchor="middle" x="626" y="-63.5" font-family="Helvetica,sans-Serif" font-size="10.00">filesystem</text>
</a>
</g>
</g>
<!-- Node9&#45;&gt;Node14 -->
<g id="edge22" class="edge">
<title>Node9&#45;&gt;Node14</title>
<path fill="none" stroke="midnightblue" d="M391.26,-117.98C441.75,-107.01 529.22,-88.02 581.94,-76.57"/>
<polygon fill="midnightblue" stroke="midnightblue" points="582.97,-79.93 592,-74.38 581.48,-73.09 582.97,-79.93"/>
</g>
<!-- Node10&#45;&gt;Node11 -->
<g id="edge14" class="edge">
<title>Node10&#45;&gt;Node11</title>
<path fill="none" stroke="midnightblue" d="M720.99,-56.44C701.41,-47.64 670.69,-33.81 648.27,-23.72"/>
<polygon fill="midnightblue" stroke="midnightblue" points="649.48,-20.43 638.93,-19.52 646.61,-26.81 649.48,-20.43"/>
</g>
<!-- Node13&#45;&gt;Node2 -->
<g id="edge19" class="edge">
<title>Node13&#45;&gt;Node2</title>
<path fill="none" stroke="midnightblue" d="M355.39,-56.44C296.51,-46.87 201.15,-31.36 138.51,-21.17"/>
<polygon fill="midnightblue" stroke="midnightblue" points="138.79,-17.67 128.36,-19.52 137.67,-24.58 138.79,-17.67"/>
</g>
<!-- Node13&#45;&gt;Node7 -->
<g id="edge18" class="edge">
<title>Node13&#45;&gt;Node7</title>
<path fill="none" stroke="midnightblue" d="M383.92,-56.44C358.46,-47.4 318.11,-33.06 289.54,-22.92"/>
<polygon fill="midnightblue" stroke="midnightblue" points="290.57,-19.57 279.97,-19.52 288.22,-26.16 290.57,-19.57"/>
</g>
<!-- Node13&#45;&gt;Node11 -->
<g id="edge20" class="edge">
<title>Node13&#45;&gt;Node11</title>
<path fill="none" stroke="midnightblue" d="M441.59,-56.44C478.19,-47.12 536.84,-32.18 576.83,-22"/>
<polygon fill="midnightblue" stroke="midnightblue" points="577.74,-25.38 586.57,-19.52 576.01,-18.59 577.74,-25.38"/>
</g>
<!-- Node15&#45;&gt;Node10 -->
<g id="edge25" class="edge">
<title>Node15&#45;&gt;Node10</title>
<path fill="none" stroke="midnightblue" d="M545.51,-113.66C589.97,-103 652.54,-87.98 694.59,-77.89"/>
<polygon fill="midnightblue" stroke="midnightblue" points="695.65,-81.24 704.56,-75.5 694.01,-74.43 695.65,-81.24"/>
</g>
<!-- Node15&#45;&gt;Node11 -->
<g id="edge24" class="edge">
<title>Node15&#45;&gt;Node11</title>
<path fill="none" stroke="midnightblue" d="M545.55,-113.84C548.74,-113.19 551.91,-112.57 555,-112 611.49,-101.55 773.31,-119.36 811,-76 850.64,-30.39 750.12,-16.74 680.34,-12.68"/>
<polygon fill="midnightblue" stroke="midnightblue" points="680.46,-9.18 670.28,-12.15 680.09,-16.17 680.46,-9.18"/>
</g>
</g>
</svg>
        <g id="navigator" transform="translate(0 0)" fill="#404254">
                <rect fill="#f2f5e9" fill-opacity="0.5" stroke="#606060" stroke-width=".5" x="0" y="0" width="60" height="60"/>
                <use id="zoomplus" xlink:href="#zoomPlus" x="17" y="9" onmousedown="handleZoom(evt,'in')"/>
                <use id="zoomminus" xlink:href="#zoomMin" x="42" y="9" onmousedown="handleZoom(evt,'out')"/>
                <use id="reset" xlink:href="#resetDef" x="30" y="36" onmousedown="handleReset()"/>
                <g id="arrowUp" xlink:href="#dirArrow" transform="translate(30 24)" onmousedown="handlePan(0,-1)">
                  <use xlink:href="#rim" fill="#404040">
                        <set attributeName="fill" to="#808080" begin="arrowUp.mouseover" end="arrowUp.mouseout"/>
                  </use>
                  <path fill="none" stroke="white" stroke-width="1.5" d="M0,-3.0v7 M-2.5,-0.5L0,-3.0L2.5,-0.5"/>
                </g>
                <g id="arrowRight" xlink:href="#dirArrow" transform="rotate(90) translate(36 -43)" onmousedown="handlePan(1,0)">
                  <use xlink:href="#rim" fill="#404040">
                        <set attributeName="fill" to="#808080" begin="arrowRight.mouseover" end="arrowRight.mouseout"/>
                  </use>
                  <path fill="none" stroke="white" stroke-width="1.5" d="M0,-3.0v7 M-2.5,-0.5L0,-3.0L2.5,-0.5"/>
                </g>
                <g id="arrowDown" xlink:href="#dirArrow" transform="rotate(180) translate(-30 -48)" onmousedown="handlePan(0,1)">
                  <use xlink:href="#rim" fill="#404040">
                        <set attributeName="fill" to="#808080" begin="arrowDown.mouseover" end="arrowDown.mouseout"/>
                  </use>
                  <path fill="none" stroke="white" stroke-width="1.5" d="M0,-3.0v7 M-2.5,-0.5L0,-3.0L2.5,-0.5"/>
                </g>
                <g id="arrowLeft" xlink:href="#dirArrow" transform="rotate(270) translate(-36 17)" onmousedown="handlePan(-1,0)">
                  <use xlink:href="#rim" fill="#404040">
                        <set attributeName="fill" to="#808080" begin="arrowLeft.mouseover" end="arrowLeft.mouseout"/>
                  </use>
                  <path fill="none" stroke="white" stroke-width="1.5" d="M0,-3.0v7 M-2.5,-0.5L0,-3.0L2.5,-0.5"/>
                </g>
        </g>
        <svg viewBox="0 0 15 15" width="100%" height="30px" preserveAspectRatio="xMaxYMin meet">
         <g id="arrow_out" transform="scale(0.3 0.3)">
          <a xlink:href="_fraction__impl_8h__incl_org.svg" target="_base">
           <rect id="button" ry="5" rx="5" y="6" x="6" height="38" width="38"
                fill="#f2f5e9" fill-opacity="0.5" stroke="#606060" stroke-width="1.0"/>
           <path id="arrow"
             d="M 11.500037,31.436501 C 11.940474,20.09759 22.043105,11.32322 32.158766,21.979434 L 37.068811,17.246167 C 37.068811,17.246167 37.088388,32 37.088388,32 L 22.160133,31.978069 C 22.160133,31.978069 26.997745,27.140456 26.997745,27.140456 C 18.528582,18.264221 13.291696,25.230495 11.500037,31.436501 z"
             style="fill:#404040;"/>
          </a>
         </g>
        </svg>
</svg>
