<?xml version="1.0" encoding="UTF-8" standalone="no"?>
<!DOCTYPE svg PUBLIC "-//W3C//DTD SVG 1.1//EN"
 "http://www.w3.org/Graphics/SVG/1.1/DTD/svg11.dtd">
<!-- Generated by graphviz version 2.43.0 (0)
 -->
<!-- Title: Fraction_impl.h Pages: 1 -->
<!--zoomable 308 -->
<svg id="main" version="1.1" xmlns="http://www.w3.org/2000/svg" xmlns:xlink="http://www.w3.org/1999/xlink" xml:space="preserve" onload="init(evt)">
<style type="text/css"><![CDATA[
.edge:hover path { stroke: red; }
.edge:hover polygon { stroke: red; fill: red; }
]]></style>
<script type="text/javascript"><![CDATA[
var edges = document.getElementsByTagName('g');
if (edges && edges.length) {
  for (var i=0;i<edges.length;i++) {
    if (edges[i].id.substr(0,4)=='edge') {
      edges[i].setAttribute('class','edge');
    }
  }
}
]]></script>
        <defs>
                <circle id="rim" cx="0" cy="0" r="7"/>
                <circle id="rim2" cx="0" cy="0" r="3.5"/>
                <g id="zoomPlus">
                        <use xlink:href="#rim" fill="#404040">
                                <set attributeName="fill" to="#808080" begin="zoomplus.mouseover" end="zoomplus.mouseout"/>
                        </use>
                        <path d="M-4,0h8M0,-4v8" fill="none" stroke="white" stroke-width="1.5" pointer-events="none"/>
                </g>
                <g id="zoomMin">
                        <use xlink:href="#rim" fill="#404040">
                                <set attributeName="fill" to="#808080" begin="zoomminus.mouseover" end="zoomminus.mouseout"/>
                        </use>
                        <path d="M-4,0h8" fill="none" stroke="white" stroke-width="1.5" pointer-events="none"/>
                </g>
                <g id="dirArrow">
                        <path fill="none" stroke="white" stroke-width="1.5" d="M0,-3.0v7 M-2.5,-0.5L0,-3.0L2.5,-0.5"/>
                </g>
               <g id="resetDef">
                       <use xlink:href="#rim2" fill="#404040">
                               <set attributeName="fill" to="#808080" begin="reset.mouseover" end="reset.mouseout"/>
                       </use>
               </g>
        </defs>

<script type="text/javascript">
var viewWidth = 922;
var viewHeight = 308;
var sectionId = 'dynsection-0';
</script>
<script xlink:href="svgpan.js"/>
<svg id="graph" class="graph">
<g id="viewport">
<title>Fraction_impl.h</title>
<!-- Node1 -->
<g id="node1" class="node">
<title>Node1</title>
<g id="a_node1"><a xlink:title=" ">
<polygon fill="#bfbfbf" stroke="black" points="619,-280.5 619,-299.5 711,-299.5 711,-280.5 619,-280.5"/>
<text text-anchor="middle" x="665" y="-287.5" font-family="Helvetica,sans-Serif" font-size="10.00">Fraction_impl.h</text>
</a>
</g>
</g>
<!-- Node2 -->
<g id="node2" class="node">
<title>Node2</title>
<g id="a_node2"><a xlink:href="limes__namespace_8h.html" target="_top" xlink:title=" ">
<polygon fill="none" stroke="black" points="19,-0.5 19,-19.5 133,-19.5 133,-0.5 19,-0.5"/>
<text text-anchor="middle" x="76" y="-7.5" font-family="Helvetica,sans-Serif" font-size="10.00">limes_namespace.h</text>
</a>
</g>
</g>
<!-- Node1&#45;&gt;Node2 -->
<g id="edge1" class="edge">
<title>Node1&#45;&gt;Node2</title>
<path fill="none" stroke="midnightblue" d="M618.77,-286.25C467.96,-276.65 0,-241.83 0,-179 0,-179 0,-179 0,-121 0,-81.28 33.96,-45.5 56.48,-26.15"/>
<polygon fill="midnightblue" stroke="midnightblue" points="58.98,-28.63 64.46,-19.57 54.52,-23.24 58.98,-28.63"/>
</g>
<!-- Node3 -->
<g id="node3" class="node">
<title>Node3</title>
<g id="a_node3"><a xlink:href="_fraction_8h.html" target="_top" xlink:title=" ">
<polygon fill="none" stroke="black" points="632.5,-224.5 632.5,-243.5 697.5,-243.5 697.5,-224.5 632.5,-224.5"/>
<text text-anchor="middle" x="665" y="-231.5" font-family="Helvetica,sans-Serif" font-size="10.00">Fraction.h</text>
</a>
</g>
</g>
<!-- Node1&#45;&gt;Node3 -->
<g id="edge2" class="edge">
<title>Node1&#45;&gt;Node3</title>
<path fill="none" stroke="midnightblue" d="M659.83,-280.08C658.32,-272.93 657.89,-262.64 658.54,-253.69"/>
<polygon fill="midnightblue" stroke="midnightblue" points="662.02,-254.13 659.87,-243.75 655.08,-253.2 662.02,-254.13"/>
</g>
<!-- Node8 -->
<g id="node8" class="node">
<title>Node8</title>
<g id="a_node8"><a xlink:title=" ">
<polygon fill="none" stroke="#bfbfbf" points="820,-112.5 820,-131.5 884,-131.5 884,-112.5 820,-112.5"/>
<text text-anchor="middle" x="852" y="-119.5" font-family="Helvetica,sans-Serif" font-size="10.00">algorithm</text>
</a>
</g>
</g>
<!-- Node1&#45;&gt;Node8 -->
<g id="edge26" class="edge">
<title>Node1&#45;&gt;Node8</title>
<path fill="none" stroke="midnightblue" d="M680.24,-280.41C707.53,-264.55 765.66,-228.57 806,-188 820.28,-173.64 833.27,-154.44 841.78,-140.63"/>
<polygon fill="midnightblue" stroke="midnightblue" points="845.01,-142.06 847.14,-131.68 839,-138.47 845.01,-142.06"/>
</g>
<!-- Node15 -->
<g id="node15" class="node">
<title>Node15</title>
<g id="a_node15"><a xlink:title=" ">
<polygon fill="none" stroke="#bfbfbf" points="858,-224.5 858,-243.5 914,-243.5 914,-224.5 858,-224.5"/>
<text text-anchor="middle" x="886" y="-231.5" font-family="Helvetica,sans-Serif" font-size="10.00">numeric</text>
</a>
</g>
</g>
<!-- Node1&#45;&gt;Node15 -->
<g id="edge25" class="edge">
<title>Node1&#45;&gt;Node15</title>
<path fill="none" stroke="midnightblue" d="M700.02,-280.44C740.38,-270.58 806.49,-254.43 848.06,-244.27"/>
<polygon fill="midnightblue" stroke="midnightblue" points="848.92,-247.66 857.81,-241.89 847.26,-240.86 848.92,-247.66"/>
</g>
<!-- Node3&#45;&gt;Node1 -->
<g id="edge24" class="edge">
<title>Node3&#45;&gt;Node1</title>
<path fill="none" stroke="midnightblue" d="M670.13,-243.75C671.66,-250.86 672.1,-261.14 671.47,-270.1"/>
<polygon fill="midnightblue" stroke="midnightblue" points="667.99,-269.71 670.17,-280.08 674.93,-270.62 667.99,-269.71"/>
</g>
<!-- Node3&#45;&gt;Node2 -->
<g id="edge3" class="edge">
<title>Node3&#45;&gt;Node2</title>
<path fill="none" stroke="midnightblue" d="M632.46,-225.68C594.72,-217.09 530.68,-202.22 476,-188 298.57,-141.87 192.99,-219.59 79,-76 68.8,-63.15 69.21,-43.97 71.47,-29.77"/>
<polygon fill="midnightblue" stroke="midnightblue" points="74.96,-30.16 73.51,-19.67 68.1,-28.78 74.96,-30.16"/>
</g>
<!-- Node4 -->
<g id="node4" class="node">
<title>Node4</title>
<g id="a_node4"><a xlink:href="math_helpers_8h.html" target="_top" xlink:title=" ">
<polygon fill="none" stroke="black" points="620.5,-168.5 620.5,-187.5 709.5,-187.5 709.5,-168.5 620.5,-168.5"/>
<text text-anchor="middle" x="665" y="-175.5" font-family="Helvetica,sans-Serif" font-size="10.00">mathHelpers.h</text>
</a>
</g>
</g>
<!-- Node3&#45;&gt;Node4 -->
<g id="edge4" class="edge">
<title>Node3&#45;&gt;Node4</title>
<path fill="none" stroke="midnightblue" d="M665,-224.08C665,-217.01 665,-206.86 665,-197.99"/>
<polygon fill="midnightblue" stroke="midnightblue" points="668.5,-197.75 665,-187.75 661.5,-197.75 668.5,-197.75"/>
</g>
<!-- Node7 -->
<g id="node7" class="node">
<title>Node7</title>
<g id="a_node7"><a xlink:title=" ">
<polygon fill="none" stroke="#bfbfbf" points="646.5,-0.5 646.5,-19.5 735.5,-19.5 735.5,-0.5 646.5,-0.5"/>
<text text-anchor="middle" x="691" y="-7.5" font-family="Helvetica,sans-Serif" font-size="10.00">limes_export.h</text>
</a>
</g>
</g>
<!-- Node3&#45;&gt;Node7 -->
<g id="edge22" class="edge">
<title>Node3&#45;&gt;Node7</title>
<path fill="none" stroke="midnightblue" d="M679.21,-224.39C691.24,-216.39 708.06,-203.42 718,-188 746.05,-144.49 742.82,-127.27 750,-76 751.23,-67.2 753.94,-63.97 750,-56 743.4,-42.66 730.74,-32.19 718.83,-24.73"/>
<polygon fill="midnightblue" stroke="midnightblue" points="720.39,-21.59 709.98,-19.6 716.88,-27.64 720.39,-21.59"/>
</g>
<!-- Node10 -->
<g id="node10" class="node">
<title>Node10</title>
<g id="a_node10"><a xlink:href="preprocessor_8h.html" target="_top" xlink:title=" ">
<polygon fill="none" stroke="black" points="104.5,-56.5 104.5,-75.5 227.5,-75.5 227.5,-56.5 104.5,-56.5"/>
<text text-anchor="middle" x="166" y="-63.5" font-family="Helvetica,sans-Serif" font-size="10.00">../misc/preprocessor.h</text>
</a>
</g>
</g>
<!-- Node3&#45;&gt;Node10 -->
<g id="edge23" class="edge">
<title>Node3&#45;&gt;Node10</title>
<path fill="none" stroke="midnightblue" d="M639.22,-224.42C556.33,-196.85 296.48,-110.41 201.35,-78.76"/>
<polygon fill="midnightblue" stroke="midnightblue" points="202.22,-75.36 191.62,-75.52 200.01,-82 202.22,-75.36"/>
</g>
<!-- Node4&#45;&gt;Node2 -->
<g id="edge5" class="edge">
<title>Node4&#45;&gt;Node2</title>
<path fill="none" stroke="midnightblue" d="M620.07,-175.13C499.32,-169.19 171.76,-146.76 95,-76 82.19,-64.19 77.84,-44.27 76.45,-29.58"/>
<polygon fill="midnightblue" stroke="midnightblue" points="79.95,-29.38 75.88,-19.6 72.96,-29.78 79.95,-29.38"/>
</g>
<!-- Node5 -->
<g id="node5" class="node">
<title>Node5</title>
<g id="a_node5"><a xlink:title=" ">
<polygon fill="none" stroke="#bfbfbf" points="615.5,-112.5 615.5,-131.5 662.5,-131.5 662.5,-112.5 615.5,-112.5"/>
<text text-anchor="middle" x="639" y="-119.5" font-family="Helvetica,sans-Serif" font-size="10.00">cmath</text>
</a>
</g>
</g>
<!-- Node4&#45;&gt;Node5 -->
<g id="edge6" class="edge">
<title>Node4&#45;&gt;Node5</title>
<path fill="none" stroke="midnightblue" d="M660.71,-168.08C657.15,-160.69 651.98,-149.95 647.58,-140.81"/>
<polygon fill="midnightblue" stroke="midnightblue" points="650.71,-139.24 643.21,-131.75 644.4,-142.28 650.71,-139.24"/>
</g>
<!-- Node6 -->
<g id="node6" class="node">
<title>Node6</title>
<g id="a_node6"><a xlink:title=" ">
<polygon fill="none" stroke="#bfbfbf" points="656.5,-56.5 656.5,-75.5 725.5,-75.5 725.5,-56.5 656.5,-56.5"/>
<text text-anchor="middle" x="691" y="-63.5" font-family="Helvetica,sans-Serif" font-size="10.00">type_traits</text>
</a>
</g>
</g>
<!-- Node4&#45;&gt;Node6 -->
<g id="edge7" class="edge">
<title>Node4&#45;&gt;Node6</title>
<path fill="none" stroke="midnightblue" d="M667.04,-168.37C671.24,-150.62 680.92,-109.67 686.6,-85.6"/>
<polygon fill="midnightblue" stroke="midnightblue" points="690.08,-86.13 688.97,-75.59 683.26,-84.52 690.08,-86.13"/>
</g>
<!-- Node4&#45;&gt;Node7 -->
<g id="edge8" class="edge">
<title>Node4&#45;&gt;Node7</title>
<path fill="none" stroke="midnightblue" d="M673.77,-168.27C689.51,-151.9 722.03,-114.75 734,-76 736.62,-67.51 737.31,-64.25 734,-56 729.32,-44.33 720.01,-33.97 711.24,-26.14"/>
<polygon fill="midnightblue" stroke="midnightblue" points="713.42,-23.4 703.5,-19.7 708.95,-28.78 713.42,-23.4"/>
</g>
<!-- Node4&#45;&gt;Node8 -->
<g id="edge9" class="edge">
<title>Node4&#45;&gt;Node8</title>
<path fill="none" stroke="midnightblue" d="M694.63,-168.44C726.5,-159.24 777.33,-144.56 812.56,-134.39"/>
<polygon fill="midnightblue" stroke="midnightblue" points="813.87,-137.65 822.51,-131.52 811.93,-130.93 813.87,-137.65"/>
</g>
<!-- Node9 -->
<g id="node9" class="node">
<title>Node9</title>
<g id="a_node9"><a xlink:href="limes__assert_8h.html" target="_top" xlink:title=" ">
<polygon fill="none" stroke="black" points="376,-112.5 376,-131.5 512,-131.5 512,-112.5 376,-112.5"/>
<text text-anchor="middle" x="444" y="-119.5" font-family="Helvetica,sans-Serif" font-size="10.00">../system/limes_assert.h</text>
</a>
</g>
</g>
<!-- Node4&#45;&gt;Node9 -->
<g id="edge10" class="edge">
<title>Node4&#45;&gt;Node9</title>
<path fill="none" stroke="midnightblue" d="M629.98,-168.44C591.75,-159.1 530.43,-144.12 488.74,-133.93"/>
<polygon fill="midnightblue" stroke="midnightblue" points="489.4,-130.49 478.85,-131.52 487.74,-137.29 489.4,-130.49"/>
</g>
<!-- Node9&#45;&gt;Node2 -->
<g id="edge12" class="edge">
<title>Node9&#45;&gt;Node2</title>
<path fill="none" stroke="midnightblue" d="M402.24,-112.5C367.55,-104.82 317.23,-92.23 275,-76 256.82,-69.01 254.13,-63.12 236,-56 199.52,-41.68 156.72,-29.89 124.57,-21.98"/>
<polygon fill="midnightblue" stroke="midnightblue" points="125.07,-18.5 114.53,-19.54 123.42,-25.3 125.07,-18.5"/>
</g>
<!-- Node9&#45;&gt;Node6 -->
<g id="edge15" class="edge">
<title>Node9&#45;&gt;Node6</title>
<path fill="none" stroke="midnightblue" d="M483.14,-112.44C527.62,-102.72 600.07,-86.88 646.62,-76.7"/>
<polygon fill="midnightblue" stroke="midnightblue" points="647.41,-80.11 656.43,-74.56 645.91,-73.27 647.41,-80.11"/>
</g>
<!-- Node9&#45;&gt;Node7 -->
<g id="edge11" class="edge">
<title>Node9&#45;&gt;Node7</title>
<path fill="none" stroke="midnightblue" d="M495.77,-112.47C529.3,-105.62 573.23,-94.09 609,-76 634.68,-63.01 659.97,-41.21 675.53,-26.48"/>
<polygon fill="midnightblue" stroke="midnightblue" points="677.98,-28.97 682.72,-19.5 673.11,-23.95 677.98,-28.97"/>
</g>
<!-- Node9&#45;&gt;Node10 -->
<g id="edge13" class="edge">
<title>Node9&#45;&gt;Node10</title>
<path fill="none" stroke="midnightblue" d="M399.95,-112.44C351.15,-102.96 272.44,-87.67 219.97,-77.48"/>
<polygon fill="midnightblue" stroke="midnightblue" points="220.33,-73.99 209.84,-75.52 218.99,-80.86 220.33,-73.99"/>
</g>
<!-- Node11 -->
<g id="node11" class="node">
<title>Node11</title>
<g id="a_node11"><a xlink:title=" ">
<polygon fill="none" stroke="#bfbfbf" points="273,-0.5 273,-19.5 373,-19.5 373,-0.5 273,-0.5"/>
<text text-anchor="middle" x="323" y="-7.5" font-family="Helvetica,sans-Serif" font-size="10.00">limes_platform.h</text>
</a>
</g>
</g>
<!-- Node9&#45;&gt;Node11 -->
<g id="edge20" class="edge">
<title>Node9&#45;&gt;Node11</title>
<path fill="none" stroke="midnightblue" d="M443.72,-112.33C442.84,-98.73 439.26,-72.27 425,-56 411.03,-40.06 390.35,-29.53 371.25,-22.69"/>
<polygon fill="midnightblue" stroke="midnightblue" points="372.34,-19.36 361.75,-19.53 370.14,-26 372.34,-19.36"/>
</g>
<!-- Node12 -->
<g id="node12" class="node">
<title>Node12</title>
<g id="a_node12"><a xlink:title=" ">
<polygon fill="none" stroke="#bfbfbf" points="284.5,-56.5 284.5,-75.5 329.5,-75.5 329.5,-56.5 284.5,-56.5"/>
<text text-anchor="middle" x="307" y="-63.5" font-family="Helvetica,sans-Serif" font-size="10.00">utility</text>
</a>
</g>
</g>
<!-- Node9&#45;&gt;Node12 -->
<g id="edge16" class="edge">
<title>Node9&#45;&gt;Node12</title>
<path fill="none" stroke="midnightblue" d="M422.29,-112.44C399.65,-103.52 363.93,-89.44 338.25,-79.32"/>
<polygon fill="midnightblue" stroke="midnightblue" points="339.19,-75.93 328.61,-75.52 336.63,-82.44 339.19,-75.93"/>
</g>
<!-- Node13 -->
<g id="node13" class="node">
<title>Node13</title>
<g id="a_node13"><a xlink:href="_ignore_unused_8h.html" target="_top" xlink:title=" ">
<polygon fill="none" stroke="black" points="472,-56.5 472,-75.5 600,-75.5 600,-56.5 472,-56.5"/>
<text text-anchor="middle" x="536" y="-63.5" font-family="Helvetica,sans-Serif" font-size="10.00">../misc/IgnoreUnused.h</text>
</a>
</g>
</g>
<!-- Node9&#45;&gt;Node13 -->
<g id="edge17" class="edge">
<title>Node9&#45;&gt;Node13</title>
<path fill="none" stroke="midnightblue" d="M458.78,-112.32C473.27,-103.82 495.57,-90.73 512.49,-80.8"/>
<polygon fill="midnightblue" stroke="midnightblue" points="514.4,-83.74 521.26,-75.65 510.86,-77.7 514.4,-83.74"/>
</g>
<!-- Node14 -->
<g id="node14" class="node">
<title>Node14</title>
<g id="a_node14"><a xlink:title=" ">
<polygon fill="none" stroke="#bfbfbf" points="348,-56.5 348,-75.5 416,-75.5 416,-56.5 348,-56.5"/>
<text text-anchor="middle" x="382" y="-63.5" font-family="Helvetica,sans-Serif" font-size="10.00">filesystem</text>
</a>
</g>
</g>
<!-- Node9&#45;&gt;Node14 -->
<g id="edge21" class="edge">
<title>Node9&#45;&gt;Node14</title>
<path fill="none" stroke="midnightblue" d="M434.04,-112.32C424.87,-104.34 411.06,-92.31 399.97,-82.65"/>
<polygon fill="midnightblue" stroke="midnightblue" points="401.98,-79.76 392.14,-75.83 397.38,-85.04 401.98,-79.76"/>
</g>
<!-- Node10&#45;&gt;Node11 -->
<g id="edge14" class="edge">
<title>Node10&#45;&gt;Node11</title>
<path fill="none" stroke="midnightblue" d="M190.88,-56.44C217.29,-47.36 259.22,-32.94 288.74,-22.78"/>
<polygon fill="midnightblue" stroke="midnightblue" points="289.92,-26.08 298.24,-19.52 287.64,-19.46 289.92,-26.08"/>
</g>
<!-- Node13&#45;&gt;Node2 -->
<g id="edge19" class="edge">
<title>Node13&#45;&gt;Node2</title>
<path fill="none" stroke="midnightblue" d="M471.55,-57.43C384.86,-47.26 231.41,-29.24 143.28,-18.9"/>
<polygon fill="midnightblue" stroke="midnightblue" points="143.47,-15.4 133.13,-17.71 142.65,-22.35 143.47,-15.4"/>
</g>
<!-- Node13&#45;&gt;Node7 -->
<g id="edge18" class="edge">
<title>Node13&#45;&gt;Node7</title>
<path fill="none" stroke="midnightblue" d="M560.56,-56.44C586.52,-47.4 627.67,-33.06 656.8,-22.92"/>
<polygon fill="midnightblue" stroke="midnightblue" points="658.26,-26.11 666.55,-19.52 655.96,-19.5 658.26,-26.11"/>
</g>
</g>
</svg>
        <g id="navigator" transform="translate(0 0)" fill="#404254">
                <rect fill="#f2f5e9" fill-opacity="0.5" stroke="#606060" stroke-width=".5" x="0" y="0" width="60" height="60"/>
                <use id="zoomplus" xlink:href="#zoomPlus" x="17" y="9" onmousedown="handleZoom(evt,'in')"/>
                <use id="zoomminus" xlink:href="#zoomMin" x="42" y="9" onmousedown="handleZoom(evt,'out')"/>
                <use id="reset" xlink:href="#resetDef" x="30" y="36" onmousedown="handleReset()"/>
                <g id="arrowUp" xlink:href="#dirArrow" transform="translate(30 24)" onmousedown="handlePan(0,-1)">
                  <use xlink:href="#rim" fill="#404040">
                        <set attributeName="fill" to="#808080" begin="arrowUp.mouseover" end="arrowUp.mouseout"/>
                  </use>
                  <path fill="none" stroke="white" stroke-width="1.5" d="M0,-3.0v7 M-2.5,-0.5L0,-3.0L2.5,-0.5"/>
                </g>
                <g id="arrowRight" xlink:href="#dirArrow" transform="rotate(90) translate(36 -43)" onmousedown="handlePan(1,0)">
                  <use xlink:href="#rim" fill="#404040">
                        <set attributeName="fill" to="#808080" begin="arrowRight.mouseover" end="arrowRight.mouseout"/>
                  </use>
                  <path fill="none" stroke="white" stroke-width="1.5" d="M0,-3.0v7 M-2.5,-0.5L0,-3.0L2.5,-0.5"/>
                </g>
                <g id="arrowDown" xlink:href="#dirArrow" transform="rotate(180) translate(-30 -48)" onmousedown="handlePan(0,1)">
                  <use xlink:href="#rim" fill="#404040">
                        <set attributeName="fill" to="#808080" begin="arrowDown.mouseover" end="arrowDown.mouseout"/>
                  </use>
                  <path fill="none" stroke="white" stroke-width="1.5" d="M0,-3.0v7 M-2.5,-0.5L0,-3.0L2.5,-0.5"/>
                </g>
                <g id="arrowLeft" xlink:href="#dirArrow" transform="rotate(270) translate(-36 17)" onmousedown="handlePan(-1,0)">
                  <use xlink:href="#rim" fill="#404040">
                        <set attributeName="fill" to="#808080" begin="arrowLeft.mouseover" end="arrowLeft.mouseout"/>
                  </use>
                  <path fill="none" stroke="white" stroke-width="1.5" d="M0,-3.0v7 M-2.5,-0.5L0,-3.0L2.5,-0.5"/>
                </g>
        </g>
        <svg viewBox="0 0 15 15" width="100%" height="30px" preserveAspectRatio="xMaxYMin meet">
         <g id="arrow_out" transform="scale(0.3 0.3)">
          <a xlink:href="_fraction__impl_8h__incl_org.svg" target="_base">
           <rect id="button" ry="5" rx="5" y="6" x="6" height="38" width="38"
                fill="#f2f5e9" fill-opacity="0.5" stroke="#606060" stroke-width="1.0"/>
           <path id="arrow"
             d="M 11.500037,31.436501 C 11.940474,20.09759 22.043105,11.32322 32.158766,21.979434 L 37.068811,17.246167 C 37.068811,17.246167 37.088388,32 37.088388,32 L 22.160133,31.978069 C 22.160133,31.978069 26.997745,27.140456 26.997745,27.140456 C 18.528582,18.264221 13.291696,25.230495 11.500037,31.436501 z"
             style="fill:#404040;"/>
          </a>
         </g>
        </svg>
</svg>
