<?xml version="1.0" encoding="UTF-8" standalone="no"?>
<!DOCTYPE svg PUBLIC "-//W3C//DTD SVG 1.1//EN"
 "http://www.w3.org/Graphics/SVG/1.1/DTD/svg11.dtd">
<!-- Generated by graphviz version 2.43.0 (0)
 -->
<!-- Title: MemoryPoolAllocator.h Pages: 1 -->
<svg width="982pt" height="252pt"
 viewBox="0.00 0.00 982.00 252.00" xmlns="http://www.w3.org/2000/svg" xmlns:xlink="http://www.w3.org/1999/xlink">
<g id="graph0" class="graph" transform="scale(1 1) rotate(0) translate(4 248)">
<title>MemoryPoolAllocator.h</title>
<!-- Node1 -->
<g id="node1" class="node">
<title>Node1</title>
<g id="a_node1"><a xlink:title=" ">
<polygon fill="#bfbfbf" stroke="black" points="653.5,-224.5 653.5,-243.5 783.5,-243.5 783.5,-224.5 653.5,-224.5"/>
<text text-anchor="middle" x="718.5" y="-231.5" font-family="Helvetica,sans-Serif" font-size="10.00">MemoryPoolAllocator.h</text>
</a>
</g>
</g>
<!-- Node2 -->
<g id="node2" class="node">
<title>Node2</title>
<g id="a_node2"><a xlink:href="_memory_pool_8h.html" target="_top" xlink:title=" ">
<polygon fill="none" stroke="black" points="536,-168.5 536,-187.5 623,-187.5 623,-168.5 536,-168.5"/>
<text text-anchor="middle" x="579.5" y="-175.5" font-family="Helvetica,sans-Serif" font-size="10.00">MemoryPool.h</text>
</a>
</g>
</g>
<!-- Node1&#45;&gt;Node2 -->
<g id="edge1" class="edge">
<title>Node1&#45;&gt;Node2</title>
<path fill="none" stroke="midnightblue" d="M696.48,-224.44C673.4,-215.48 636.94,-201.31 610.86,-191.18"/>
<polygon fill="midnightblue" stroke="midnightblue" points="612.01,-187.88 601.42,-187.52 609.48,-194.4 612.01,-187.88"/>
</g>
<!-- Node5 -->
<g id="node5" class="node">
<title>Node5</title>
<g id="a_node5"><a xlink:title=" ">
<polygon fill="none" stroke="#bfbfbf" points="713,-0.5 713,-19.5 802,-19.5 802,-0.5 713,-0.5"/>
<text text-anchor="middle" x="757.5" y="-7.5" font-family="Helvetica,sans-Serif" font-size="10.00">limes_export.h</text>
</a>
</g>
</g>
<!-- Node1&#45;&gt;Node5 -->
<g id="edge25" class="edge">
<title>Node1&#45;&gt;Node5</title>
<path fill="none" stroke="midnightblue" d="M731.44,-224.33C743.43,-215.92 761.35,-202.34 774.5,-188 814.98,-143.84 832.08,-133.32 849.5,-76 852.08,-67.5 854.21,-63.54 849.5,-56 839.74,-40.36 822.8,-30.01 806.1,-23.23"/>
<polygon fill="midnightblue" stroke="midnightblue" points="806.94,-19.81 796.35,-19.64 804.52,-26.38 806.94,-19.81"/>
</g>
<!-- Node6 -->
<g id="node6" class="node">
<title>Node6</title>
<g id="a_node6"><a xlink:href="limes__namespace_8h.html" target="_top" xlink:title=" ">
<polygon fill="none" stroke="black" points="170.5,-0.5 170.5,-19.5 284.5,-19.5 284.5,-0.5 170.5,-0.5"/>
<text text-anchor="middle" x="227.5" y="-7.5" font-family="Helvetica,sans-Serif" font-size="10.00">limes_namespace.h</text>
</a>
</g>
</g>
<!-- Node1&#45;&gt;Node6 -->
<g id="edge24" class="edge">
<title>Node1&#45;&gt;Node6</title>
<path fill="none" stroke="midnightblue" d="M653.03,-230C528.3,-222.77 264.07,-199.66 208.5,-132 184.19,-102.41 203.49,-54.57 217.07,-28.8"/>
<polygon fill="midnightblue" stroke="midnightblue" points="220.27,-30.24 222.06,-19.8 214.15,-26.85 220.27,-30.24"/>
</g>
<!-- Node9 -->
<g id="node9" class="node">
<title>Node9</title>
<g id="a_node9"><a xlink:title=" ">
<polygon fill="none" stroke="#bfbfbf" points="755,-56.5 755,-75.5 824,-75.5 824,-56.5 755,-56.5"/>
<text text-anchor="middle" x="789.5" y="-63.5" font-family="Helvetica,sans-Serif" font-size="10.00">type_traits</text>
</a>
</g>
</g>
<!-- Node1&#45;&gt;Node9 -->
<g id="edge28" class="edge">
<title>Node1&#45;&gt;Node9</title>
<path fill="none" stroke="midnightblue" d="M726.38,-224.36C740.9,-207.85 771.55,-170.08 784.5,-132 789.57,-117.08 790.61,-99.17 790.49,-85.93"/>
<polygon fill="midnightblue" stroke="midnightblue" points="793.99,-85.57 790.17,-75.69 786.99,-85.79 793.99,-85.57"/>
</g>
<!-- Node11 -->
<g id="node11" class="node">
<title>Node11</title>
<g id="a_node11"><a xlink:href="preprocessor_8h.html" target="_top" xlink:title=" ">
<polygon fill="none" stroke="black" points="0,-56.5 0,-75.5 123,-75.5 123,-56.5 0,-56.5"/>
<text text-anchor="middle" x="61.5" y="-63.5" font-family="Helvetica,sans-Serif" font-size="10.00">../misc/preprocessor.h</text>
</a>
</g>
</g>
<!-- Node1&#45;&gt;Node11 -->
<g id="edge27" class="edge">
<title>Node1&#45;&gt;Node11</title>
<path fill="none" stroke="midnightblue" d="M653.47,-231.24C511.05,-226.91 180.79,-214.17 137.5,-188 98.7,-164.55 76.57,-112.92 67.08,-85.29"/>
<polygon fill="midnightblue" stroke="midnightblue" points="70.37,-84.11 63.96,-75.68 63.72,-86.27 70.37,-84.11"/>
</g>
<!-- Node17 -->
<g id="node17" class="node">
<title>Node17</title>
<g id="a_node17"><a xlink:title=" ">
<polygon fill="none" stroke="#bfbfbf" points="925,-168.5 925,-187.5 974,-187.5 974,-168.5 925,-168.5"/>
<text text-anchor="middle" x="949.5" y="-175.5" font-family="Helvetica,sans-Serif" font-size="10.00">cstdlib</text>
</a>
</g>
</g>
<!-- Node1&#45;&gt;Node17 -->
<g id="edge26" class="edge">
<title>Node1&#45;&gt;Node17</title>
<path fill="none" stroke="midnightblue" d="M755.1,-224.44C798.94,-214.2 871.82,-197.16 914.8,-187.11"/>
<polygon fill="midnightblue" stroke="midnightblue" points="915.85,-190.46 924.79,-184.78 914.25,-183.64 915.85,-190.46"/>
</g>
<!-- Node3 -->
<g id="node3" class="node">
<title>Node3</title>
<g id="a_node3"><a xlink:title=" ">
<polygon fill="none" stroke="#bfbfbf" points="217.5,-112.5 217.5,-131.5 275.5,-131.5 275.5,-112.5 217.5,-112.5"/>
<text text-anchor="middle" x="246.5" y="-119.5" font-family="Helvetica,sans-Serif" font-size="10.00">memory</text>
</a>
</g>
</g>
<!-- Node2&#45;&gt;Node3 -->
<g id="edge2" class="edge">
<title>Node2&#45;&gt;Node3</title>
<path fill="none" stroke="midnightblue" d="M535.65,-170.93C478.76,-162.88 376.47,-147.84 289.5,-132 288.23,-131.77 286.95,-131.53 285.65,-131.28"/>
<polygon fill="midnightblue" stroke="midnightblue" points="286.09,-127.8 275.6,-129.31 284.74,-134.67 286.09,-127.8"/>
</g>
<!-- Node4 -->
<g id="node4" class="node">
<title>Node4</title>
<g id="a_node4"><a xlink:title=" ">
<polygon fill="none" stroke="#bfbfbf" points="692,-56.5 692,-75.5 737,-75.5 737,-56.5 692,-56.5"/>
<text text-anchor="middle" x="714.5" y="-63.5" font-family="Helvetica,sans-Serif" font-size="10.00">utility</text>
</a>
</g>
</g>
<!-- Node2&#45;&gt;Node4 -->
<g id="edge3" class="edge">
<title>Node2&#45;&gt;Node4</title>
<path fill="none" stroke="midnightblue" d="M568.37,-168.29C553.14,-155.33 529.24,-130.49 543.5,-112 545.65,-109.21 632.97,-87.2 681.98,-75.03"/>
<polygon fill="midnightblue" stroke="midnightblue" points="682.94,-78.4 691.81,-72.59 681.26,-71.6 682.94,-78.4"/>
</g>
<!-- Node2&#45;&gt;Node5 -->
<g id="edge4" class="edge">
<title>Node2&#45;&gt;Node5</title>
<path fill="none" stroke="midnightblue" d="M623.19,-175.28C666.78,-171.83 734.32,-161.67 784.5,-132 819.09,-111.54 853.4,-90.92 833.5,-56 825.09,-41.25 809.73,-30.84 795.02,-23.77"/>
<polygon fill="midnightblue" stroke="midnightblue" points="796.08,-20.42 785.52,-19.6 793.26,-26.83 796.08,-20.42"/>
</g>
<!-- Node2&#45;&gt;Node6 -->
<g id="edge5" class="edge">
<title>Node2&#45;&gt;Node6</title>
<path fill="none" stroke="midnightblue" d="M535.84,-172.87C489.01,-167.42 413.1,-155.61 351.5,-132 306.09,-114.59 290.04,-112.14 257.5,-76 245.44,-62.6 237.42,-43.52 232.73,-29.5"/>
<polygon fill="midnightblue" stroke="midnightblue" points="236.07,-28.46 229.78,-19.94 229.38,-30.53 236.07,-28.46"/>
</g>
<!-- Node7 -->
<g id="node7" class="node">
<title>Node7</title>
<g id="a_node7"><a xlink:title=" ">
<polygon fill="none" stroke="#bfbfbf" points="553,-112.5 553,-131.5 606,-131.5 606,-112.5 553,-112.5"/>
<text text-anchor="middle" x="579.5" y="-119.5" font-family="Helvetica,sans-Serif" font-size="10.00">cstddef</text>
</a>
</g>
</g>
<!-- Node2&#45;&gt;Node7 -->
<g id="edge6" class="edge">
<title>Node2&#45;&gt;Node7</title>
<path fill="none" stroke="midnightblue" d="M579.5,-168.08C579.5,-161.01 579.5,-150.86 579.5,-141.99"/>
<polygon fill="midnightblue" stroke="midnightblue" points="583,-141.75 579.5,-131.75 576,-141.75 583,-141.75"/>
</g>
<!-- Node8 -->
<g id="node8" class="node">
<title>Node8</title>
<g id="a_node8"><a xlink:title=" ">
<polygon fill="none" stroke="#bfbfbf" points="624,-112.5 624,-131.5 689,-131.5 689,-112.5 624,-112.5"/>
<text text-anchor="middle" x="656.5" y="-119.5" font-family="Helvetica,sans-Serif" font-size="10.00">exception</text>
</a>
</g>
</g>
<!-- Node2&#45;&gt;Node8 -->
<g id="edge7" class="edge">
<title>Node2&#45;&gt;Node8</title>
<path fill="none" stroke="midnightblue" d="M591.87,-168.32C603.66,-160.06 621.63,-147.45 635.64,-137.63"/>
<polygon fill="midnightblue" stroke="midnightblue" points="637.98,-140.26 644.16,-131.65 633.96,-134.53 637.98,-140.26"/>
</g>
<!-- Node2&#45;&gt;Node9 -->
<g id="edge8" class="edge">
<title>Node2&#45;&gt;Node9</title>
<path fill="none" stroke="midnightblue" d="M623.28,-177.2C664.14,-175.11 724.52,-165.85 763.5,-132 777.1,-120.19 783.67,-100.26 786.79,-85.58"/>
<polygon fill="midnightblue" stroke="midnightblue" points="790.26,-86.06 788.56,-75.6 783.37,-84.83 790.26,-86.06"/>
</g>
<!-- Node10 -->
<g id="node10" class="node">
<title>Node10</title>
<g id="a_node10"><a xlink:title=" ">
<polygon fill="none" stroke="#bfbfbf" points="707,-112.5 707,-131.5 754,-131.5 754,-112.5 707,-112.5"/>
<text text-anchor="middle" x="730.5" y="-119.5" font-family="Helvetica,sans-Serif" font-size="10.00">vector</text>
</a>
</g>
</g>
<!-- Node2&#45;&gt;Node10 -->
<g id="edge9" class="edge">
<title>Node2&#45;&gt;Node10</title>
<path fill="none" stroke="midnightblue" d="M603.43,-168.44C628.72,-159.4 668.8,-145.06 697.18,-134.92"/>
<polygon fill="midnightblue" stroke="midnightblue" points="698.45,-138.18 706.69,-131.52 696.09,-131.59 698.45,-138.18"/>
</g>
<!-- Node2&#45;&gt;Node11 -->
<g id="edge10" class="edge">
<title>Node2&#45;&gt;Node11</title>
<path fill="none" stroke="midnightblue" d="M535.85,-175.86C465.67,-173.11 323.92,-163.76 208.5,-132 163.3,-119.56 114.11,-95.45 85.64,-80.35"/>
<polygon fill="midnightblue" stroke="midnightblue" points="87.28,-77.26 76.82,-75.6 83.96,-83.42 87.28,-77.26"/>
</g>
<!-- Node13 -->
<g id="node13" class="node">
<title>Node13</title>
<g id="a_node13"><a xlink:href="limes__assert_8h.html" target="_top" xlink:title=" ">
<polygon fill="none" stroke="black" points="360.5,-112.5 360.5,-131.5 496.5,-131.5 496.5,-112.5 360.5,-112.5"/>
<text text-anchor="middle" x="428.5" y="-119.5" font-family="Helvetica,sans-Serif" font-size="10.00">../system/limes_assert.h</text>
</a>
</g>
</g>
<!-- Node2&#45;&gt;Node13 -->
<g id="edge12" class="edge">
<title>Node2&#45;&gt;Node13</title>
<path fill="none" stroke="midnightblue" d="M555.57,-168.44C530.28,-159.4 490.2,-145.06 461.82,-134.92"/>
<polygon fill="midnightblue" stroke="midnightblue" points="462.91,-131.59 452.31,-131.52 460.55,-138.18 462.91,-131.59"/>
</g>
<!-- Node12 -->
<g id="node12" class="node">
<title>Node12</title>
<g id="a_node12"><a xlink:title=" ">
<polygon fill="none" stroke="#bfbfbf" points="51.5,-0.5 51.5,-19.5 151.5,-19.5 151.5,-0.5 51.5,-0.5"/>
<text text-anchor="middle" x="101.5" y="-7.5" font-family="Helvetica,sans-Serif" font-size="10.00">limes_platform.h</text>
</a>
</g>
</g>
<!-- Node11&#45;&gt;Node12 -->
<g id="edge11" class="edge">
<title>Node11&#45;&gt;Node12</title>
<path fill="none" stroke="midnightblue" d="M68.11,-56.08C73.76,-48.46 82.04,-37.26 88.95,-27.94"/>
<polygon fill="midnightblue" stroke="midnightblue" points="91.88,-29.87 95.02,-19.75 86.25,-25.7 91.88,-29.87"/>
</g>
<!-- Node13&#45;&gt;Node4 -->
<g id="edge17" class="edge">
<title>Node13&#45;&gt;Node4</title>
<path fill="none" stroke="midnightblue" d="M481.14,-112.43C531.66,-103.98 610.03,-90.29 677.5,-76 678.96,-75.69 680.44,-75.37 681.94,-75.03"/>
<polygon fill="midnightblue" stroke="midnightblue" points="682.9,-78.4 691.85,-72.74 681.32,-71.59 682.9,-78.4"/>
</g>
<!-- Node13&#45;&gt;Node5 -->
<g id="edge13" class="edge">
<title>Node13&#45;&gt;Node5</title>
<path fill="none" stroke="midnightblue" d="M496.71,-112.45C540.02,-105.65 596.71,-94.19 644.5,-76 653.84,-72.44 704.14,-42.82 734.39,-24.82"/>
<polygon fill="midnightblue" stroke="midnightblue" points="736.27,-27.77 743.07,-19.64 732.68,-21.76 736.27,-27.77"/>
</g>
<!-- Node13&#45;&gt;Node6 -->
<g id="edge14" class="edge">
<title>Node13&#45;&gt;Node6</title>
<path fill="none" stroke="midnightblue" d="M378.59,-112.45C349.45,-105.8 312.93,-94.5 284.5,-76 265.31,-63.51 248.74,-42.82 238.49,-28.14"/>
<polygon fill="midnightblue" stroke="midnightblue" points="241.18,-25.86 232.71,-19.51 235.37,-29.76 241.18,-25.86"/>
</g>
<!-- Node13&#45;&gt;Node9 -->
<g id="edge16" class="edge">
<title>Node13&#45;&gt;Node9</title>
<path fill="none" stroke="midnightblue" d="M496.63,-112.68C558.89,-104.77 653.73,-91.97 744.86,-76.2"/>
<polygon fill="midnightblue" stroke="midnightblue" points="745.55,-79.63 754.8,-74.47 744.35,-72.74 745.55,-79.63"/>
</g>
<!-- Node13&#45;&gt;Node11 -->
<g id="edge15" class="edge">
<title>Node13&#45;&gt;Node11</title>
<path fill="none" stroke="midnightblue" d="M370.35,-112.44C304.85,-102.81 198.54,-87.16 129.31,-76.98"/>
<polygon fill="midnightblue" stroke="midnightblue" points="129.78,-73.51 119.38,-75.52 128.76,-80.43 129.78,-73.51"/>
</g>
<!-- Node13&#45;&gt;Node12 -->
<g id="edge22" class="edge">
<title>Node13&#45;&gt;Node12</title>
<path fill="none" stroke="midnightblue" d="M390.02,-112.47C355.07,-104.35 302.28,-91.14 257.5,-76 211.6,-60.48 160.01,-37.94 129.16,-23.89"/>
<polygon fill="midnightblue" stroke="midnightblue" points="130.46,-20.63 119.91,-19.65 127.54,-27 130.46,-20.63"/>
</g>
<!-- Node14 -->
<g id="node14" class="node">
<title>Node14</title>
<g id="a_node14"><a xlink:title=" ">
<polygon fill="none" stroke="#bfbfbf" points="294,-56.5 294,-75.5 403,-75.5 403,-56.5 294,-56.5"/>
<text text-anchor="middle" x="348.5" y="-63.5" font-family="Helvetica,sans-Serif" font-size="10.00">limes_build_type.h</text>
</a>
</g>
</g>
<!-- Node13&#45;&gt;Node14 -->
<g id="edge18" class="edge">
<title>Node13&#45;&gt;Node14</title>
<path fill="none" stroke="midnightblue" d="M415.65,-112.32C403.28,-103.98 384.37,-91.21 369.76,-81.35"/>
<polygon fill="midnightblue" stroke="midnightblue" points="371.57,-78.35 361.32,-75.65 367.65,-84.15 371.57,-78.35"/>
</g>
<!-- Node15 -->
<g id="node15" class="node">
<title>Node15</title>
<g id="a_node15"><a xlink:href="_ignore_unused_8h.html" target="_top" xlink:title=" ">
<polygon fill="none" stroke="black" points="507.5,-56.5 507.5,-75.5 635.5,-75.5 635.5,-56.5 507.5,-56.5"/>
<text text-anchor="middle" x="571.5" y="-63.5" font-family="Helvetica,sans-Serif" font-size="10.00">../misc/IgnoreUnused.h</text>
</a>
</g>
</g>
<!-- Node13&#45;&gt;Node15 -->
<g id="edge19" class="edge">
<title>Node13&#45;&gt;Node15</title>
<path fill="none" stroke="midnightblue" d="M451.16,-112.44C474.9,-103.48 512.41,-89.31 539.24,-79.18"/>
<polygon fill="midnightblue" stroke="midnightblue" points="540.83,-82.32 548.95,-75.52 538.36,-75.77 540.83,-82.32"/>
</g>
<!-- Node16 -->
<g id="node16" class="node">
<title>Node16</title>
<g id="a_node16"><a xlink:title=" ">
<polygon fill="none" stroke="#bfbfbf" points="421.5,-56.5 421.5,-75.5 489.5,-75.5 489.5,-56.5 421.5,-56.5"/>
<text text-anchor="middle" x="455.5" y="-63.5" font-family="Helvetica,sans-Serif" font-size="10.00">filesystem</text>
</a>
</g>
</g>
<!-- Node13&#45;&gt;Node16 -->
<g id="edge23" class="edge">
<title>Node13&#45;&gt;Node16</title>
<path fill="none" stroke="midnightblue" d="M432.96,-112.08C436.65,-104.69 442.02,-93.95 446.59,-84.81"/>
<polygon fill="midnightblue" stroke="midnightblue" points="449.78,-86.26 451.12,-75.75 443.52,-83.13 449.78,-86.26"/>
</g>
<!-- Node15&#45;&gt;Node5 -->
<g id="edge20" class="edge">
<title>Node15&#45;&gt;Node5</title>
<path fill="none" stroke="midnightblue" d="M600.97,-56.44C632.67,-47.24 683.23,-32.56 718.27,-22.39"/>
<polygon fill="midnightblue" stroke="midnightblue" points="719.54,-25.67 728.17,-19.52 717.59,-18.94 719.54,-25.67"/>
</g>
<!-- Node15&#45;&gt;Node6 -->
<g id="edge21" class="edge">
<title>Node15&#45;&gt;Node6</title>
<path fill="none" stroke="midnightblue" d="M516.99,-56.44C455.85,-46.85 356.76,-31.29 291.86,-21.1"/>
<polygon fill="midnightblue" stroke="midnightblue" points="292.17,-17.61 281.75,-19.52 291.09,-24.52 292.17,-17.61"/>
</g>
</g>
</svg>
