<?xml version="1.0" encoding="UTF-8" standalone="no"?>
<!DOCTYPE svg PUBLIC "-//W3C//DTD SVG 1.1//EN"
 "http://www.w3.org/Graphics/SVG/1.1/DTD/svg11.dtd">
<!-- Generated by graphviz version 2.43.0 (0)
 -->
<!-- Title: MemoryPool.h Pages: 1 -->
<svg width="908pt" height="196pt"
 viewBox="0.00 0.00 907.50 196.00" xmlns="http://www.w3.org/2000/svg" xmlns:xlink="http://www.w3.org/1999/xlink">
<g id="graph0" class="graph" transform="scale(1 1) rotate(0) translate(4 192)">
<title>MemoryPool.h</title>
<!-- Node1 -->
<g id="node1" class="node">
<title>Node1</title>
<g id="a_node1"><a xlink:title=" ">
<polygon fill="#bfbfbf" stroke="black" points="414.5,-168.5 414.5,-187.5 501.5,-187.5 501.5,-168.5 414.5,-168.5"/>
<text text-anchor="middle" x="458" y="-175.5" font-family="Helvetica,sans-Serif" font-size="10.00">MemoryPool.h</text>
</a>
</g>
</g>
<!-- Node2 -->
<g id="node2" class="node">
<title>Node2</title>
<g id="a_node2"><a xlink:title=" ">
<polygon fill="none" stroke="#bfbfbf" points="0,-112.5 0,-131.5 58,-131.5 58,-112.5 0,-112.5"/>
<text text-anchor="middle" x="29" y="-119.5" font-family="Helvetica,sans-Serif" font-size="10.00">memory</text>
</a>
</g>
</g>
<!-- Node1&#45;&gt;Node2 -->
<g id="edge1" class="edge">
<title>Node1&#45;&gt;Node2</title>
<path fill="none" stroke="midnightblue" d="M414.41,-173.21C342.71,-166.69 195.53,-152.09 72,-132 70.73,-131.79 69.44,-131.57 68.14,-131.35"/>
<polygon fill="midnightblue" stroke="midnightblue" points="68.55,-127.86 58.08,-129.46 67.26,-134.74 68.55,-127.86"/>
</g>
<!-- Node3 -->
<g id="node3" class="node">
<title>Node3</title>
<g id="a_node3"><a xlink:title=" ">
<polygon fill="none" stroke="#bfbfbf" points="152.5,-56.5 152.5,-75.5 197.5,-75.5 197.5,-56.5 152.5,-56.5"/>
<text text-anchor="middle" x="175" y="-63.5" font-family="Helvetica,sans-Serif" font-size="10.00">utility</text>
</a>
</g>
</g>
<!-- Node1&#45;&gt;Node3 -->
<g id="edge2" class="edge">
<title>Node1&#45;&gt;Node3</title>
<path fill="none" stroke="midnightblue" d="M432.98,-168.36C407.65,-159.53 367.43,-145.27 333,-132 288.05,-114.67 236.54,-93.17 204.88,-79.76"/>
<polygon fill="midnightblue" stroke="midnightblue" points="205.91,-76.39 195.34,-75.71 203.17,-82.84 205.91,-76.39"/>
</g>
<!-- Node4 -->
<g id="node4" class="node">
<title>Node4</title>
<g id="a_node4"><a xlink:title=" ">
<polygon fill="none" stroke="#bfbfbf" points="155.5,-0.5 155.5,-19.5 244.5,-19.5 244.5,-0.5 155.5,-0.5"/>
<text text-anchor="middle" x="200" y="-7.5" font-family="Helvetica,sans-Serif" font-size="10.00">limes_export.h</text>
</a>
</g>
</g>
<!-- Node1&#45;&gt;Node4 -->
<g id="edge3" class="edge">
<title>Node1&#45;&gt;Node4</title>
<path fill="none" stroke="midnightblue" d="M414.22,-177.44C359.53,-176.28 264.47,-168.52 193,-132 155.4,-112.79 116.54,-93.47 136,-56 143.15,-42.23 156.67,-31.78 169.45,-24.44"/>
<polygon fill="midnightblue" stroke="midnightblue" points="171.32,-27.41 178.52,-19.64 168.04,-21.23 171.32,-27.41"/>
</g>
<!-- Node5 -->
<g id="node5" class="node">
<title>Node5</title>
<g id="a_node5"><a xlink:href="limes__namespace_8h.html" target="_top" xlink:title=" ">
<polygon fill="none" stroke="black" points="263,-0.5 263,-19.5 377,-19.5 377,-0.5 263,-0.5"/>
<text text-anchor="middle" x="320" y="-7.5" font-family="Helvetica,sans-Serif" font-size="10.00">limes_namespace.h</text>
</a>
</g>
</g>
<!-- Node1&#45;&gt;Node5 -->
<g id="edge4" class="edge">
<title>Node1&#45;&gt;Node5</title>
<path fill="none" stroke="midnightblue" d="M414.25,-169.74C335.16,-155.59 173.75,-121.67 143,-76 138.04,-68.63 137.54,-63.02 143,-56 150.65,-46.16 215.62,-31.44 264.65,-21.54"/>
<polygon fill="midnightblue" stroke="midnightblue" points="265.41,-24.96 274.53,-19.57 264.04,-18.1 265.41,-24.96"/>
</g>
<!-- Node6 -->
<g id="node6" class="node">
<title>Node6</title>
<g id="a_node6"><a xlink:title=" ">
<polygon fill="none" stroke="#bfbfbf" points="572.5,-112.5 572.5,-131.5 625.5,-131.5 625.5,-112.5 572.5,-112.5"/>
<text text-anchor="middle" x="599" y="-119.5" font-family="Helvetica,sans-Serif" font-size="10.00">cstddef</text>
</a>
</g>
</g>
<!-- Node1&#45;&gt;Node6 -->
<g id="edge5" class="edge">
<title>Node1&#45;&gt;Node6</title>
<path fill="none" stroke="midnightblue" d="M480.34,-168.44C503.75,-159.48 540.74,-145.31 567.19,-135.18"/>
<polygon fill="midnightblue" stroke="midnightblue" points="568.68,-138.36 576.76,-131.52 566.17,-131.82 568.68,-138.36"/>
</g>
<!-- Node7 -->
<g id="node7" class="node">
<title>Node7</title>
<g id="a_node7"><a xlink:title=" ">
<polygon fill="none" stroke="#bfbfbf" points="643.5,-112.5 643.5,-131.5 708.5,-131.5 708.5,-112.5 643.5,-112.5"/>
<text text-anchor="middle" x="676" y="-119.5" font-family="Helvetica,sans-Serif" font-size="10.00">exception</text>
</a>
</g>
</g>
<!-- Node1&#45;&gt;Node7 -->
<g id="edge6" class="edge">
<title>Node1&#45;&gt;Node7</title>
<path fill="none" stroke="midnightblue" d="M492.54,-168.44C530.81,-158.96 592.52,-143.68 633.67,-133.49"/>
<polygon fill="midnightblue" stroke="midnightblue" points="634.53,-136.88 643.4,-131.08 632.85,-130.08 634.53,-136.88"/>
</g>
<!-- Node8 -->
<g id="node8" class="node">
<title>Node8</title>
<g id="a_node8"><a xlink:title=" ">
<polygon fill="none" stroke="#bfbfbf" points="830.5,-56.5 830.5,-75.5 899.5,-75.5 899.5,-56.5 830.5,-56.5"/>
<text text-anchor="middle" x="865" y="-63.5" font-family="Helvetica,sans-Serif" font-size="10.00">type_traits</text>
</a>
</g>
</g>
<!-- Node1&#45;&gt;Node8 -->
<g id="edge7" class="edge">
<title>Node1&#45;&gt;Node8</title>
<path fill="none" stroke="midnightblue" d="M471.5,-168.29C497.78,-151.41 554.09,-115.55 564,-112 669.89,-74.02 705.9,-94.62 820.12,-76.19"/>
<polygon fill="midnightblue" stroke="midnightblue" points="821.02,-79.58 830.3,-74.47 819.86,-72.68 821.02,-79.58"/>
</g>
<!-- Node9 -->
<g id="node9" class="node">
<title>Node9</title>
<g id="a_node9"><a xlink:title=" ">
<polygon fill="none" stroke="#bfbfbf" points="726.5,-112.5 726.5,-131.5 773.5,-131.5 773.5,-112.5 726.5,-112.5"/>
<text text-anchor="middle" x="750" y="-119.5" font-family="Helvetica,sans-Serif" font-size="10.00">vector</text>
</a>
</g>
</g>
<!-- Node1&#45;&gt;Node9 -->
<g id="edge8" class="edge">
<title>Node1&#45;&gt;Node9</title>
<path fill="none" stroke="midnightblue" d="M501.51,-170.87C551.34,-163.54 635.59,-150.2 716.46,-132.18"/>
<polygon fill="midnightblue" stroke="midnightblue" points="717.32,-135.57 726.3,-129.96 715.78,-128.74 717.32,-135.57"/>
</g>
<!-- Node10 -->
<g id="node10" class="node">
<title>Node10</title>
<g id="a_node10"><a xlink:href="preprocessor_8h.html" target="_top" xlink:title=" ">
<polygon fill="none" stroke="black" points="689.5,-56.5 689.5,-75.5 812.5,-75.5 812.5,-56.5 689.5,-56.5"/>
<text text-anchor="middle" x="751" y="-63.5" font-family="Helvetica,sans-Serif" font-size="10.00">../misc/preprocessor.h</text>
</a>
</g>
</g>
<!-- Node1&#45;&gt;Node10 -->
<g id="edge9" class="edge">
<title>Node1&#45;&gt;Node10</title>
<path fill="none" stroke="midnightblue" d="M464.93,-168.24C476.7,-154.03 502.04,-126.12 530,-112 556.08,-98.83 626.84,-85.73 681.33,-77.08"/>
<polygon fill="midnightblue" stroke="midnightblue" points="681.96,-80.53 691.3,-75.52 680.88,-73.61 681.96,-80.53"/>
</g>
<!-- Node12 -->
<g id="node12" class="node">
<title>Node12</title>
<g id="a_node12"><a xlink:href="limes__assert_8h.html" target="_top" xlink:title=" ">
<polygon fill="none" stroke="black" points="342,-112.5 342,-131.5 478,-131.5 478,-112.5 342,-112.5"/>
<text text-anchor="middle" x="410" y="-119.5" font-family="Helvetica,sans-Serif" font-size="10.00">../system/limes_assert.h</text>
</a>
</g>
</g>
<!-- Node1&#45;&gt;Node12 -->
<g id="edge11" class="edge">
<title>Node1&#45;&gt;Node12</title>
<path fill="none" stroke="midnightblue" d="M450.07,-168.08C443.15,-160.3 432.93,-148.8 424.55,-139.37"/>
<polygon fill="midnightblue" stroke="midnightblue" points="427.04,-136.9 417.78,-131.75 421.81,-141.55 427.04,-136.9"/>
</g>
<!-- Node11 -->
<g id="node11" class="node">
<title>Node11</title>
<g id="a_node11"><a xlink:title=" ">
<polygon fill="none" stroke="#bfbfbf" points="549,-0.5 549,-19.5 649,-19.5 649,-0.5 549,-0.5"/>
<text text-anchor="middle" x="599" y="-7.5" font-family="Helvetica,sans-Serif" font-size="10.00">limes_platform.h</text>
</a>
</g>
</g>
<!-- Node10&#45;&gt;Node11 -->
<g id="edge10" class="edge">
<title>Node10&#45;&gt;Node11</title>
<path fill="none" stroke="midnightblue" d="M726.92,-56.44C701.46,-47.4 661.11,-33.06 632.54,-22.92"/>
<polygon fill="midnightblue" stroke="midnightblue" points="633.57,-19.57 622.97,-19.52 631.22,-26.16 633.57,-19.57"/>
</g>
<!-- Node12&#45;&gt;Node3 -->
<g id="edge16" class="edge">
<title>Node12&#45;&gt;Node3</title>
<path fill="none" stroke="midnightblue" d="M371.63,-112.46C331.72,-103.53 267.42,-89.04 212,-76 210.55,-75.66 209.07,-75.31 207.58,-74.95"/>
<polygon fill="midnightblue" stroke="midnightblue" points="208.23,-71.51 197.69,-72.58 206.59,-78.32 208.23,-71.51"/>
</g>
<!-- Node12&#45;&gt;Node4 -->
<g id="edge12" class="edge">
<title>Node12&#45;&gt;Node4</title>
<path fill="none" stroke="midnightblue" d="M341.97,-113.35C310.26,-107.19 273.36,-96.06 245,-76 228.07,-64.02 215.44,-43.53 207.94,-28.76"/>
<polygon fill="midnightblue" stroke="midnightblue" points="211.05,-27.13 203.58,-19.61 204.73,-30.15 211.05,-27.13"/>
</g>
<!-- Node12&#45;&gt;Node5 -->
<g id="edge13" class="edge">
<title>Node12&#45;&gt;Node5</title>
<path fill="none" stroke="midnightblue" d="M409.38,-112.13C408.04,-98.74 403.87,-73.1 391,-56 380.56,-42.13 364.5,-31.43 350.29,-23.96"/>
<polygon fill="midnightblue" stroke="midnightblue" points="351.81,-20.81 341.29,-19.51 348.7,-27.08 351.81,-20.81"/>
</g>
<!-- Node12&#45;&gt;Node8 -->
<g id="edge15" class="edge">
<title>Node12&#45;&gt;Node8</title>
<path fill="none" stroke="midnightblue" d="M478.07,-115.61C557.83,-108.84 694.13,-95.85 820.11,-76.17"/>
<polygon fill="midnightblue" stroke="midnightblue" points="820.99,-79.58 830.32,-74.56 819.9,-72.66 820.99,-79.58"/>
</g>
<!-- Node12&#45;&gt;Node10 -->
<g id="edge14" class="edge">
<title>Node12&#45;&gt;Node10</title>
<path fill="none" stroke="midnightblue" d="M464.03,-112.44C524.64,-102.85 622.86,-87.29 687.2,-77.1"/>
<polygon fill="midnightblue" stroke="midnightblue" points="687.89,-80.54 697.22,-75.52 686.8,-73.62 687.89,-80.54"/>
</g>
<!-- Node12&#45;&gt;Node11 -->
<g id="edge21" class="edge">
<title>Node12&#45;&gt;Node11</title>
<path fill="none" stroke="midnightblue" d="M415.54,-112.11C424.64,-98.22 444.05,-71.36 467,-56 490.89,-40.01 521.02,-29.17 546.46,-22.15"/>
<polygon fill="midnightblue" stroke="midnightblue" points="547.54,-25.48 556.31,-19.55 545.75,-18.72 547.54,-25.48"/>
</g>
<!-- Node13 -->
<g id="node13" class="node">
<title>Node13</title>
<g id="a_node13"><a xlink:title=" ">
<polygon fill="none" stroke="#bfbfbf" points="562.5,-56.5 562.5,-75.5 671.5,-75.5 671.5,-56.5 562.5,-56.5"/>
<text text-anchor="middle" x="617" y="-63.5" font-family="Helvetica,sans-Serif" font-size="10.00">limes_build_type.h</text>
</a>
</g>
</g>
<!-- Node12&#45;&gt;Node13 -->
<g id="edge17" class="edge">
<title>Node12&#45;&gt;Node13</title>
<path fill="none" stroke="midnightblue" d="M442.8,-112.44C478.38,-103.16 535.31,-88.31 574.35,-78.13"/>
<polygon fill="midnightblue" stroke="midnightblue" points="575.56,-81.43 584.35,-75.52 573.79,-74.65 575.56,-81.43"/>
</g>
<!-- Node14 -->
<g id="node14" class="node">
<title>Node14</title>
<g id="a_node14"><a xlink:href="_ignore_unused_8h.html" target="_top" xlink:title=" ">
<polygon fill="none" stroke="black" points="254,-56.5 254,-75.5 382,-75.5 382,-56.5 254,-56.5"/>
<text text-anchor="middle" x="318" y="-63.5" font-family="Helvetica,sans-Serif" font-size="10.00">../misc/IgnoreUnused.h</text>
</a>
</g>
</g>
<!-- Node12&#45;&gt;Node14 -->
<g id="edge18" class="edge">
<title>Node12&#45;&gt;Node14</title>
<path fill="none" stroke="midnightblue" d="M395.22,-112.32C380.73,-103.82 358.43,-90.73 341.51,-80.8"/>
<polygon fill="midnightblue" stroke="midnightblue" points="343.14,-77.7 332.74,-75.65 339.6,-83.74 343.14,-77.7"/>
</g>
<!-- Node15 -->
<g id="node15" class="node">
<title>Node15</title>
<g id="a_node15"><a xlink:title=" ">
<polygon fill="none" stroke="#bfbfbf" points="476,-56.5 476,-75.5 544,-75.5 544,-56.5 476,-56.5"/>
<text text-anchor="middle" x="510" y="-63.5" font-family="Helvetica,sans-Serif" font-size="10.00">filesystem</text>
</a>
</g>
</g>
<!-- Node12&#45;&gt;Node15 -->
<g id="edge22" class="edge">
<title>Node12&#45;&gt;Node15</title>
<path fill="none" stroke="midnightblue" d="M426.07,-112.32C441.96,-103.74 466.51,-90.49 484.96,-80.52"/>
<polygon fill="midnightblue" stroke="midnightblue" points="486.84,-83.49 493.97,-75.65 483.51,-77.33 486.84,-83.49"/>
</g>
<!-- Node14&#45;&gt;Node4 -->
<g id="edge19" class="edge">
<title>Node14&#45;&gt;Node4</title>
<path fill="none" stroke="midnightblue" d="M299.3,-56.44C280.06,-47.64 249.85,-33.81 227.8,-23.72"/>
<polygon fill="midnightblue" stroke="midnightblue" points="229.16,-20.5 218.61,-19.52 226.25,-26.86 229.16,-20.5"/>
</g>
<!-- Node14&#45;&gt;Node5 -->
<g id="edge20" class="edge">
<title>Node14&#45;&gt;Node5</title>
<path fill="none" stroke="midnightblue" d="M318.33,-56.08C318.59,-49.01 318.97,-38.86 319.3,-29.99"/>
<polygon fill="midnightblue" stroke="midnightblue" points="322.8,-29.87 319.68,-19.75 315.81,-29.61 322.8,-29.87"/>
</g>
</g>
</svg>
