<?xml version="1.0" encoding="UTF-8" standalone="no"?>
<!DOCTYPE svg PUBLIC "-//W3C//DTD SVG 1.1//EN"
 "http://www.w3.org/Graphics/SVG/1.1/DTD/svg11.dtd">
<!-- Generated by graphviz version 2.43.0 (0)
 -->
<!-- Title: NoteLength_impl.h Pages: 1 -->
<svg width="117pt" height="196pt"
 viewBox="0.00 0.00 117.00 196.00" xmlns="http://www.w3.org/2000/svg" xmlns:xlink="http://www.w3.org/1999/xlink">
<g id="graph0" class="graph" transform="scale(1 1) rotate(0) translate(4 192)">
<title>NoteLength_impl.h</title>
<!-- Node1 -->
<g id="node1" class="node">
<title>Node1</title>
<g id="a_node1"><a xlink:title=" ">
<polygon fill="#bfbfbf" stroke="black" points="0,-168.5 0,-187.5 109,-187.5 109,-168.5 0,-168.5"/>
<text text-anchor="middle" x="54.5" y="-175.5" font-family="Helvetica,sans-Serif" font-size="10.00">NoteLength_impl.h</text>
</a>
</g>
</g>
<!-- Node2 -->
<g id="node2" class="node">
<title>Node2</title>
<g id="a_node2"><a xlink:href="_note_length_8h.html" target="_top" xlink:title=" ">
<polygon fill="none" stroke="black" points="13.5,-112.5 13.5,-131.5 95.5,-131.5 95.5,-112.5 13.5,-112.5"/>
<text text-anchor="middle" x="54.5" y="-119.5" font-family="Helvetica,sans-Serif" font-size="10.00">NoteLength.h</text>
</a>
</g>
</g>
<!-- Node1&#45;&gt;Node2 -->
<g id="edge1" class="edge">
<title>Node1&#45;&gt;Node2</title>
<path fill="none" stroke="midnightblue" d="M48.03,-158.1C47.4,-149.14 47.84,-138.86 49.37,-131.75"/>
<polygon fill="midnightblue" stroke="midnightblue" points="44.57,-158.62 49.33,-168.08 51.51,-157.71 44.57,-158.62"/>
</g>
<!-- Node2&#45;&gt;Node1 -->
<g id="edge4" class="edge">
<title>Node2&#45;&gt;Node1</title>
<path fill="none" stroke="midnightblue" d="M60.96,-141.69C61.61,-150.64 61.18,-160.93 59.67,-168.08"/>
<polygon fill="midnightblue" stroke="midnightblue" points="64.42,-141.2 59.63,-131.75 57.48,-142.13 64.42,-141.2"/>
</g>
<!-- Node3 -->
<g id="node3" class="node">
<title>Node3</title>
<g id="a_node3"><a xlink:href="limes__music_8h.html" target="_top" xlink:title=" ">
<polygon fill="none" stroke="black" points="11,-56.5 11,-75.5 98,-75.5 98,-56.5 11,-56.5"/>
<text text-anchor="middle" x="54.5" y="-63.5" font-family="Helvetica,sans-Serif" font-size="10.00">limes_music.h</text>
</a>
</g>
</g>
<!-- Node2&#45;&gt;Node3 -->
<g id="edge2" class="edge">
<title>Node2&#45;&gt;Node3</title>
<path fill="none" stroke="midnightblue" d="M54.5,-101.8C54.5,-92.91 54.5,-82.78 54.5,-75.75"/>
<polygon fill="midnightblue" stroke="midnightblue" points="51,-102.08 54.5,-112.08 58,-102.08 51,-102.08"/>
</g>
<!-- Node4 -->
<g id="node4" class="node">
<title>Node4</title>
<g id="a_node4"><a xlink:href="limes_8h.html" target="_top" xlink:title=" ">
<polygon fill="none" stroke="black" points="28,-0.5 28,-19.5 81,-19.5 81,-0.5 28,-0.5"/>
<text text-anchor="middle" x="54.5" y="-7.5" font-family="Helvetica,sans-Serif" font-size="10.00">limes.h</text>
</a>
</g>
</g>
<!-- Node3&#45;&gt;Node4 -->
<g id="edge3" class="edge">
<title>Node3&#45;&gt;Node4</title>
<path fill="none" stroke="midnightblue" d="M54.5,-45.8C54.5,-36.91 54.5,-26.78 54.5,-19.75"/>
<polygon fill="midnightblue" stroke="midnightblue" points="51,-46.08 54.5,-56.08 58,-46.08 51,-46.08"/>
</g>
</g>
</svg>
