<?xml version="1.0" encoding="UTF-8" standalone="no"?>
<!DOCTYPE svg PUBLIC "-//W3C//DTD SVG 1.1//EN"
 "http://www.w3.org/Graphics/SVG/1.1/DTD/svg11.dtd">
<!-- Generated by graphviz version 2.43.0 (0)
 -->
<!-- Title: OptionalObject.h Pages: 1 -->
<svg width="445pt" height="84pt"
 viewBox="0.00 0.00 445.00 84.00" xmlns="http://www.w3.org/2000/svg" xmlns:xlink="http://www.w3.org/1999/xlink">
<g id="graph0" class="graph" transform="scale(1 1) rotate(0) translate(4 80)">
<title>OptionalObject.h</title>
<!-- Node1 -->
<g id="node1" class="node">
<title>Node1</title>
<g id="a_node1"><a xlink:title=" ">
<polygon fill="#bfbfbf" stroke="black" points="217,-56.5 217,-75.5 315,-75.5 315,-56.5 217,-56.5"/>
<text text-anchor="middle" x="266" y="-63.5" font-family="Helvetica,sans-Serif" font-size="10.00">OptionalObject.h</text>
</a>
</g>
</g>
<!-- Node2 -->
<g id="node2" class="node">
<title>Node2</title>
<g id="a_node2"><a xlink:href="limes__namespace_8h.html" target="_top" xlink:title=" ">
<polygon fill="none" stroke="black" points="0,-0.5 0,-19.5 114,-19.5 114,-0.5 0,-0.5"/>
<text text-anchor="middle" x="57" y="-7.5" font-family="Helvetica,sans-Serif" font-size="10.00">limes_namespace.h</text>
</a>
</g>
</g>
<!-- Node1&#45;&gt;Node2 -->
<g id="edge1" class="edge">
<title>Node1&#45;&gt;Node2</title>
<path fill="none" stroke="midnightblue" d="M232.88,-56.44C196.88,-47.14 139.23,-32.25 99.81,-22.06"/>
<polygon fill="midnightblue" stroke="midnightblue" points="100.52,-18.63 89.96,-19.52 98.77,-25.41 100.52,-18.63"/>
</g>
<!-- Node3 -->
<g id="node3" class="node">
<title>Node3</title>
<g id="a_node3"><a xlink:title=" ">
<polygon fill="none" stroke="#bfbfbf" points="132.5,-0.5 132.5,-19.5 221.5,-19.5 221.5,-0.5 132.5,-0.5"/>
<text text-anchor="middle" x="177" y="-7.5" font-family="Helvetica,sans-Serif" font-size="10.00">limes_export.h</text>
</a>
</g>
</g>
<!-- Node1&#45;&gt;Node3 -->
<g id="edge2" class="edge">
<title>Node1&#45;&gt;Node3</title>
<path fill="none" stroke="midnightblue" d="M251.7,-56.32C237.82,-47.9 216.51,-34.97 200.2,-25.07"/>
<polygon fill="midnightblue" stroke="midnightblue" points="201.63,-21.85 191.26,-19.65 198,-27.83 201.63,-21.85"/>
</g>
<!-- Node4 -->
<g id="node4" class="node">
<title>Node4</title>
<g id="a_node4"><a xlink:title=" ">
<polygon fill="none" stroke="#bfbfbf" points="239.5,-0.5 239.5,-19.5 292.5,-19.5 292.5,-0.5 239.5,-0.5"/>
<text text-anchor="middle" x="266" y="-7.5" font-family="Helvetica,sans-Serif" font-size="10.00">cstddef</text>
</a>
</g>
</g>
<!-- Node1&#45;&gt;Node4 -->
<g id="edge3" class="edge">
<title>Node1&#45;&gt;Node4</title>
<path fill="none" stroke="midnightblue" d="M266,-56.08C266,-49.01 266,-38.86 266,-29.99"/>
<polygon fill="midnightblue" stroke="midnightblue" points="269.5,-29.75 266,-19.75 262.5,-29.75 269.5,-29.75"/>
</g>
<!-- Node5 -->
<g id="node5" class="node">
<title>Node5</title>
<g id="a_node5"><a xlink:title=" ">
<polygon fill="none" stroke="#bfbfbf" points="311,-0.5 311,-19.5 369,-19.5 369,-0.5 311,-0.5"/>
<text text-anchor="middle" x="340" y="-7.5" font-family="Helvetica,sans-Serif" font-size="10.00">memory</text>
</a>
</g>
</g>
<!-- Node1&#45;&gt;Node5 -->
<g id="edge4" class="edge">
<title>Node1&#45;&gt;Node5</title>
<path fill="none" stroke="midnightblue" d="M277.89,-56.32C289.15,-48.11 306.29,-35.6 319.71,-25.81"/>
<polygon fill="midnightblue" stroke="midnightblue" points="321.88,-28.56 327.89,-19.83 317.75,-22.9 321.88,-28.56"/>
</g>
<!-- Node6 -->
<g id="node6" class="node">
<title>Node6</title>
<g id="a_node6"><a xlink:title=" ">
<polygon fill="none" stroke="#bfbfbf" points="387,-0.5 387,-19.5 437,-19.5 437,-0.5 387,-0.5"/>
<text text-anchor="middle" x="412" y="-7.5" font-family="Helvetica,sans-Serif" font-size="10.00">cstring</text>
</a>
</g>
</g>
<!-- Node1&#45;&gt;Node6 -->
<g id="edge5" class="edge">
<title>Node1&#45;&gt;Node6</title>
<path fill="none" stroke="midnightblue" d="M289.13,-56.44C313.48,-47.44 352.01,-33.19 379.42,-23.05"/>
<polygon fill="midnightblue" stroke="midnightblue" points="380.81,-26.27 388.97,-19.52 378.38,-19.7 380.81,-26.27"/>
</g>
</g>
</svg>
