<?xml version="1.0" encoding="UTF-8" standalone="no"?>
<!DOCTYPE svg PUBLIC "-//W3C//DTD SVG 1.1//EN"
 "http://www.w3.org/Graphics/SVG/1.1/DTD/svg11.dtd">
<!-- Generated by graphviz version 2.43.0 (0)
 -->
<!-- Title: PitchUtils.h Pages: 1 -->
<!--zoomable 364 -->
<svg id="main" version="1.1" xmlns="http://www.w3.org/2000/svg" xmlns:xlink="http://www.w3.org/1999/xlink" xml:space="preserve" onload="init(evt)">
<style type="text/css"><![CDATA[
.edge:hover path { stroke: red; }
.edge:hover polygon { stroke: red; fill: red; }
]]></style>
<script type="text/javascript"><![CDATA[
var edges = document.getElementsByTagName('g');
if (edges && edges.length) {
  for (var i=0;i<edges.length;i++) {
    if (edges[i].id.substr(0,4)=='edge') {
      edges[i].setAttribute('class','edge');
    }
  }
}
]]></script>
        <defs>
                <circle id="rim" cx="0" cy="0" r="7"/>
                <circle id="rim2" cx="0" cy="0" r="3.5"/>
                <g id="zoomPlus">
                        <use xlink:href="#rim" fill="#404040">
                                <set attributeName="fill" to="#808080" begin="zoomplus.mouseover" end="zoomplus.mouseout"/>
                        </use>
                        <path d="M-4,0h8M0,-4v8" fill="none" stroke="white" stroke-width="1.5" pointer-events="none"/>
                </g>
                <g id="zoomMin">
                        <use xlink:href="#rim" fill="#404040">
                                <set attributeName="fill" to="#808080" begin="zoomminus.mouseover" end="zoomminus.mouseout"/>
                        </use>
                        <path d="M-4,0h8" fill="none" stroke="white" stroke-width="1.5" pointer-events="none"/>
                </g>
                <g id="dirArrow">
                        <path fill="none" stroke="white" stroke-width="1.5" d="M0,-3.0v7 M-2.5,-0.5L0,-3.0L2.5,-0.5"/>
                </g>
               <g id="resetDef">
                       <use xlink:href="#rim2" fill="#404040">
                               <set attributeName="fill" to="#808080" begin="reset.mouseover" end="reset.mouseout"/>
                       </use>
               </g>
        </defs>

<script type="text/javascript">
var viewWidth = 674;
var viewHeight = 364;
var sectionId = 'dynsection-1';
</script>
<script xlink:href="svgpan.js"/>
<svg id="graph" class="graph">
<g id="viewport">
<title>PitchUtils.h</title>
<!-- Node1 -->
<g id="node1" class="node">
<title>Node1</title>
<g id="a_node1"><a xlink:title=" ">
<polygon fill="#bfbfbf" stroke="black" points="398,-336.5 398,-355.5 470,-355.5 470,-336.5 398,-336.5"/>
<text text-anchor="middle" x="434" y="-343.5" font-family="Helvetica,sans-Serif" font-size="10.00">PitchUtils.h</text>
</a>
</g>
</g>
<!-- Node2 -->
<g id="node2" class="node">
<title>Node2</title>
<g id="a_node2"><a xlink:href="_pitch_8h.html" target="_top" xlink:title=" ">
<polygon fill="none" stroke="black" points="149,-280.5 149,-299.5 199,-299.5 199,-280.5 149,-280.5"/>
<text text-anchor="middle" x="174" y="-287.5" font-family="Helvetica,sans-Serif" font-size="10.00">Pitch.h</text>
</a>
</g>
</g>
<!-- Node1&#45;&gt;Node2 -->
<g id="edge1" class="edge">
<title>Node1&#45;&gt;Node2</title>
<path fill="none" stroke="midnightblue" d="M388.01,-335.45C333.01,-324.03 242.94,-305.32 199.29,-296.25"/>
<polygon fill="midnightblue" stroke="midnightblue" points="387.35,-338.88 397.85,-337.49 388.77,-332.03 387.35,-338.88"/>
</g>
<!-- Node4 -->
<g id="node4" class="node">
<title>Node4</title>
<g id="a_node4"><a xlink:href="limes__music_8h.html" target="_top" xlink:title=" ">
<polygon fill="none" stroke="black" points="314.5,-56.5 314.5,-75.5 401.5,-75.5 401.5,-56.5 314.5,-56.5"/>
<text text-anchor="middle" x="358" y="-63.5" font-family="Helvetica,sans-Serif" font-size="10.00">limes_music.h</text>
</a>
</g>
</g>
<!-- Node1&#45;&gt;Node4 -->
<g id="edge23" class="edge">
<title>Node1&#45;&gt;Node4</title>
<path fill="none" stroke="midnightblue" d="M480.25,-343.13C547.93,-337.65 666,-316.41 666,-235 666,-235 666,-235 666,-177 666,-142.36 652.03,-130.9 623,-112 587.22,-88.7 467.18,-75.72 401.63,-70.21"/>
<polygon fill="midnightblue" stroke="midnightblue" points="479.97,-339.64 470.25,-343.86 480.48,-346.63 479.97,-339.64"/>
</g>
<!-- Node3 -->
<g id="node3" class="node">
<title>Node3</title>
<g id="a_node3"><a xlink:href="_chord_8h.html" target="_top" xlink:title=" ">
<polygon fill="none" stroke="black" points="0,-224.5 0,-243.5 54,-243.5 54,-224.5 0,-224.5"/>
<text text-anchor="middle" x="27" y="-231.5" font-family="Helvetica,sans-Serif" font-size="10.00">Chord.h</text>
</a>
</g>
</g>
<!-- Node2&#45;&gt;Node3 -->
<g id="edge2" class="edge">
<title>Node2&#45;&gt;Node3</title>
<path fill="none" stroke="midnightblue" d="M141.08,-276.91C113.44,-266.75 74.66,-252.51 50.18,-243.52"/>
<polygon fill="midnightblue" stroke="midnightblue" points="140.11,-280.28 150.71,-280.44 142.53,-273.71 140.11,-280.28"/>
</g>
<!-- Node2&#45;&gt;Node4 -->
<g id="edge22" class="edge">
<title>Node2&#45;&gt;Node4</title>
<path fill="none" stroke="midnightblue" d="M161.4,-272.08C137.58,-237.89 91.74,-159.8 131,-112 153.76,-84.29 255.14,-73.34 314.44,-69.26"/>
<polygon fill="midnightblue" stroke="midnightblue" points="158.76,-274.41 167.44,-280.49 164.45,-270.33 158.76,-274.41"/>
</g>
<!-- Node6 -->
<g id="node6" class="node">
<title>Node6</title>
<g id="a_node6"><a xlink:href="_interval_8h.html" target="_top" xlink:title=" ">
<polygon fill="none" stroke="black" points="142.5,-168.5 142.5,-187.5 205.5,-187.5 205.5,-168.5 142.5,-168.5"/>
<text text-anchor="middle" x="174" y="-175.5" font-family="Helvetica,sans-Serif" font-size="10.00">Interval.h</text>
</a>
</g>
</g>
<!-- Node2&#45;&gt;Node6 -->
<g id="edge5" class="edge">
<title>Node2&#45;&gt;Node6</title>
<path fill="none" stroke="midnightblue" d="M174,-270.35C174,-246.25 174,-205.31 174,-187.59"/>
<polygon fill="midnightblue" stroke="midnightblue" points="170.5,-270.37 174,-280.37 177.5,-270.37 170.5,-270.37"/>
</g>
<!-- Node8 -->
<g id="node8" class="node">
<title>Node8</title>
<g id="a_node8"><a xlink:href="_scale_8h.html" target="_top" xlink:title=" ">
<polygon fill="none" stroke="black" points="393,-224.5 393,-243.5 445,-243.5 445,-224.5 393,-224.5"/>
<text text-anchor="middle" x="419" y="-231.5" font-family="Helvetica,sans-Serif" font-size="10.00">Scale.h</text>
</a>
</g>
</g>
<!-- Node2&#45;&gt;Node8 -->
<g id="edge9" class="edge">
<title>Node2&#45;&gt;Node8</title>
<path fill="none" stroke="midnightblue" d="M209.27,-281.23C258.96,-270.27 348.46,-250.55 392.73,-240.79"/>
<polygon fill="midnightblue" stroke="midnightblue" points="208.31,-277.85 199.3,-283.42 209.82,-284.69 208.31,-277.85"/>
</g>
<!-- Node3&#45;&gt;Node4 -->
<g id="edge3" class="edge">
<title>Node3&#45;&gt;Node4</title>
<path fill="none" stroke="midnightblue" d="M27.61,-214.24C29.56,-187.21 37.4,-137.73 68,-112 104.51,-81.31 242.77,-71.44 314.39,-68.35"/>
<polygon fill="midnightblue" stroke="midnightblue" points="24.11,-214.15 27.08,-224.32 31.1,-214.52 24.11,-214.15"/>
</g>
<!-- Node5 -->
<g id="node5" class="node">
<title>Node5</title>
<g id="a_node5"><a xlink:href="limes_8h.html" target="_top" xlink:title=" ">
<polygon fill="none" stroke="black" points="331.5,-0.5 331.5,-19.5 384.5,-19.5 384.5,-0.5 331.5,-0.5"/>
<text text-anchor="middle" x="358" y="-7.5" font-family="Helvetica,sans-Serif" font-size="10.00">limes.h</text>
</a>
</g>
</g>
<!-- Node4&#45;&gt;Node5 -->
<g id="edge4" class="edge">
<title>Node4&#45;&gt;Node5</title>
<path fill="none" stroke="midnightblue" d="M358,-45.8C358,-36.91 358,-26.78 358,-19.75"/>
<polygon fill="midnightblue" stroke="midnightblue" points="354.5,-46.08 358,-56.08 361.5,-46.08 354.5,-46.08"/>
</g>
<!-- Node6&#45;&gt;Node4 -->
<g id="edge8" class="edge">
<title>Node6&#45;&gt;Node4</title>
<path fill="none" stroke="midnightblue" d="M155.7,-161.43C141.64,-147.6 126.56,-127.25 139,-112 160.65,-85.45 256.55,-74.12 314.02,-69.64"/>
<polygon fill="midnightblue" stroke="midnightblue" points="153.5,-164.17 163.22,-168.38 158.25,-159.02 153.5,-164.17"/>
</g>
<!-- Node7 -->
<g id="node7" class="node">
<title>Node7</title>
<g id="a_node7"><a xlink:href="_compound_interval_8h.html" target="_top" xlink:title=" ">
<polygon fill="none" stroke="black" points="148,-112.5 148,-131.5 264,-131.5 264,-112.5 148,-112.5"/>
<text text-anchor="middle" x="206" y="-119.5" font-family="Helvetica,sans-Serif" font-size="10.00">CompoundInterval.h</text>
</a>
</g>
</g>
<!-- Node6&#45;&gt;Node7 -->
<g id="edge6" class="edge">
<title>Node6&#45;&gt;Node7</title>
<path fill="none" stroke="midnightblue" d="M184.5,-159.27C189.97,-150.05 196.42,-139.17 200.81,-131.75"/>
<polygon fill="midnightblue" stroke="midnightblue" points="181.37,-157.7 179.28,-168.08 187.39,-161.26 181.37,-157.7"/>
</g>
<!-- Node7&#45;&gt;Node4 -->
<g id="edge7" class="edge">
<title>Node7&#45;&gt;Node4</title>
<path fill="none" stroke="midnightblue" d="M239.67,-109.04C268.27,-98.88 308.61,-84.55 334.03,-75.52"/>
<polygon fill="midnightblue" stroke="midnightblue" points="238.34,-105.8 230.08,-112.44 240.68,-112.39 238.34,-105.8"/>
</g>
<!-- Node8&#45;&gt;Node4 -->
<g id="edge21" class="edge">
<title>Node8&#45;&gt;Node4</title>
<path fill="none" stroke="midnightblue" d="M393.61,-219.32C366.31,-202.86 324.95,-172.33 311,-132 308.09,-123.6 307.51,-120.17 311,-112 317.65,-96.42 332.65,-83.65 343.92,-75.74"/>
<polygon fill="midnightblue" stroke="midnightblue" points="391.86,-222.36 402.27,-224.36 395.38,-216.31 391.86,-222.36"/>
</g>
<!-- Node9 -->
<g id="node9" class="node">
<title>Node9</title>
<g id="a_node9"><a xlink:href="_chromatic_8h.html" target="_top" xlink:title=" ">
<polygon fill="none" stroke="black" points="320,-112.5 320,-131.5 396,-131.5 396,-112.5 320,-112.5"/>
<text text-anchor="middle" x="358" y="-119.5" font-family="Helvetica,sans-Serif" font-size="10.00">Chromatic.h</text>
</a>
</g>
</g>
<!-- Node8&#45;&gt;Node9 -->
<g id="edge10" class="edge">
<title>Node8&#45;&gt;Node9</title>
<path fill="none" stroke="midnightblue" d="M394.65,-218.85C383.72,-211.17 371.77,-200.65 365,-188 355.25,-169.79 355.82,-144.62 356.97,-131.59"/>
<polygon fill="midnightblue" stroke="midnightblue" points="392.8,-221.83 403.08,-224.39 396.64,-215.97 392.8,-221.83"/>
</g>
<!-- Node10 -->
<g id="node10" class="node">
<title>Node10</title>
<g id="a_node10"><a xlink:href="_key_signature_8h.html" target="_top" xlink:title=" ">
<polygon fill="none" stroke="black" points="374,-168.5 374,-187.5 464,-187.5 464,-168.5 374,-168.5"/>
<text text-anchor="middle" x="419" y="-175.5" font-family="Helvetica,sans-Serif" font-size="10.00">KeySignature.h</text>
</a>
</g>
</g>
<!-- Node8&#45;&gt;Node10 -->
<g id="edge12" class="edge">
<title>Node8&#45;&gt;Node10</title>
<path fill="none" stroke="midnightblue" d="M419,-213.8C419,-204.91 419,-194.78 419,-187.75"/>
<polygon fill="midnightblue" stroke="midnightblue" points="415.5,-214.08 419,-224.08 422.5,-214.08 415.5,-214.08"/>
</g>
<!-- Node11 -->
<g id="node11" class="node">
<title>Node11</title>
<g id="a_node11"><a xlink:href="_mode_8h.html" target="_top" xlink:title=" ">
<polygon fill="none" stroke="black" points="452.5,-112.5 452.5,-131.5 505.5,-131.5 505.5,-112.5 452.5,-112.5"/>
<text text-anchor="middle" x="479" y="-119.5" font-family="Helvetica,sans-Serif" font-size="10.00">Mode.h</text>
</a>
</g>
</g>
<!-- Node8&#45;&gt;Node11 -->
<g id="edge16" class="edge">
<title>Node8&#45;&gt;Node11</title>
<path fill="none" stroke="midnightblue" d="M443.44,-218.9C454.39,-211.23 466.32,-200.7 473,-188 482.6,-169.74 481.58,-144.59 480.19,-131.58"/>
<polygon fill="midnightblue" stroke="midnightblue" points="441.44,-216.02 434.98,-224.42 445.27,-221.88 441.44,-216.02"/>
</g>
<!-- Node12 -->
<g id="node12" class="node">
<title>Node12</title>
<g id="a_node12"><a xlink:href="_octatonic_8h.html" target="_top" xlink:title=" ">
<polygon fill="none" stroke="black" points="524,-112.5 524,-131.5 596,-131.5 596,-112.5 524,-112.5"/>
<text text-anchor="middle" x="560" y="-119.5" font-family="Helvetica,sans-Serif" font-size="10.00">Octatonic.h</text>
</a>
</g>
</g>
<!-- Node8&#45;&gt;Node12 -->
<g id="edge17" class="edge">
<title>Node8&#45;&gt;Node12</title>
<path fill="none" stroke="midnightblue" d="M443.53,-219.3C457.84,-210.91 475.97,-199.6 491,-188 514.72,-169.7 539.59,-144.57 551.98,-131.57"/>
<polygon fill="midnightblue" stroke="midnightblue" points="441.67,-216.33 434.75,-224.36 445.17,-222.4 441.67,-216.33"/>
</g>
<!-- Node13 -->
<g id="node13" class="node">
<title>Node13</title>
<g id="a_node13"><a xlink:href="_whole_tone_8h.html" target="_top" xlink:title=" ">
<polygon fill="none" stroke="black" points="558.5,-168.5 558.5,-187.5 637.5,-187.5 637.5,-168.5 558.5,-168.5"/>
<text text-anchor="middle" x="598" y="-175.5" font-family="Helvetica,sans-Serif" font-size="10.00">WholeTone.h</text>
</a>
</g>
</g>
<!-- Node8&#45;&gt;Node13 -->
<g id="edge19" class="edge">
<title>Node8&#45;&gt;Node13</title>
<path fill="none" stroke="midnightblue" d="M454.95,-222.16C488.7,-211.97 538.52,-196.95 569.57,-187.58"/>
<polygon fill="midnightblue" stroke="midnightblue" points="453.59,-218.91 445.03,-225.15 455.61,-225.61 453.59,-218.91"/>
</g>
<!-- Node9&#45;&gt;Node4 -->
<g id="edge11" class="edge">
<title>Node9&#45;&gt;Node4</title>
<path fill="none" stroke="midnightblue" d="M358,-101.8C358,-92.91 358,-82.78 358,-75.75"/>
<polygon fill="midnightblue" stroke="midnightblue" points="354.5,-102.08 358,-112.08 361.5,-102.08 354.5,-102.08"/>
</g>
<!-- Node10&#45;&gt;Node4 -->
<g id="edge15" class="edge">
<title>Node10&#45;&gt;Node4</title>
<path fill="none" stroke="midnightblue" d="M417.91,-158.38C416.44,-144.79 413.01,-126.33 405,-112 396.51,-96.81 381.23,-83.61 370.4,-75.51"/>
<polygon fill="midnightblue" stroke="midnightblue" points="414.43,-158.76 418.74,-168.44 421.4,-158.19 414.43,-158.76"/>
</g>
<!-- Node10&#45;&gt;Node11 -->
<g id="edge13" class="edge">
<title>Node10&#45;&gt;Node11</title>
<path fill="none" stroke="midnightblue" d="M436.18,-161.54C446.88,-151.91 460.26,-139.87 469.18,-131.83"/>
<polygon fill="midnightblue" stroke="midnightblue" points="433.73,-159.03 428.64,-168.32 438.41,-164.24 433.73,-159.03"/>
</g>
<!-- Node11&#45;&gt;Node4 -->
<g id="edge14" class="edge">
<title>Node11&#45;&gt;Node4</title>
<path fill="none" stroke="midnightblue" d="M450.69,-108.37C428.03,-98.26 396.87,-84.35 377.08,-75.52"/>
<polygon fill="midnightblue" stroke="midnightblue" points="449.27,-111.56 459.83,-112.44 452.12,-105.17 449.27,-111.56"/>
</g>
<!-- Node12&#45;&gt;Node4 -->
<g id="edge18" class="edge">
<title>Node12&#45;&gt;Node4</title>
<path fill="none" stroke="midnightblue" d="M518.21,-109.83C480.07,-99.63 424.52,-84.78 389.86,-75.52"/>
<polygon fill="midnightblue" stroke="midnightblue" points="517.43,-113.24 527.99,-112.44 519.24,-106.48 517.43,-113.24"/>
</g>
<!-- Node13&#45;&gt;Node4 -->
<g id="edge20" class="edge">
<title>Node13&#45;&gt;Node4</title>
<path fill="none" stroke="midnightblue" d="M606.43,-158.96C611.74,-144.62 615.77,-124.9 605,-112 579.59,-81.54 465.47,-71.65 401.61,-68.47"/>
<polygon fill="midnightblue" stroke="midnightblue" points="603.16,-157.7 602.52,-168.27 609.62,-160.4 603.16,-157.7"/>
</g>
</g>
</svg>
        <g id="navigator" transform="translate(0 0)" fill="#404254">
                <rect fill="#f2f5e9" fill-opacity="0.5" stroke="#606060" stroke-width=".5" x="0" y="0" width="60" height="60"/>
                <use id="zoomplus" xlink:href="#zoomPlus" x="17" y="9" onmousedown="handleZoom(evt,'in')"/>
                <use id="zoomminus" xlink:href="#zoomMin" x="42" y="9" onmousedown="handleZoom(evt,'out')"/>
                <use id="reset" xlink:href="#resetDef" x="30" y="36" onmousedown="handleReset()"/>
                <g id="arrowUp" xlink:href="#dirArrow" transform="translate(30 24)" onmousedown="handlePan(0,-1)">
                  <use xlink:href="#rim" fill="#404040">
                        <set attributeName="fill" to="#808080" begin="arrowUp.mouseover" end="arrowUp.mouseout"/>
                  </use>
                  <path fill="none" stroke="white" stroke-width="1.5" d="M0,-3.0v7 M-2.5,-0.5L0,-3.0L2.5,-0.5"/>
                </g>
                <g id="arrowRight" xlink:href="#dirArrow" transform="rotate(90) translate(36 -43)" onmousedown="handlePan(1,0)">
                  <use xlink:href="#rim" fill="#404040">
                        <set attributeName="fill" to="#808080" begin="arrowRight.mouseover" end="arrowRight.mouseout"/>
                  </use>
                  <path fill="none" stroke="white" stroke-width="1.5" d="M0,-3.0v7 M-2.5,-0.5L0,-3.0L2.5,-0.5"/>
                </g>
                <g id="arrowDown" xlink:href="#dirArrow" transform="rotate(180) translate(-30 -48)" onmousedown="handlePan(0,1)">
                  <use xlink:href="#rim" fill="#404040">
                        <set attributeName="fill" to="#808080" begin="arrowDown.mouseover" end="arrowDown.mouseout"/>
                  </use>
                  <path fill="none" stroke="white" stroke-width="1.5" d="M0,-3.0v7 M-2.5,-0.5L0,-3.0L2.5,-0.5"/>
                </g>
                <g id="arrowLeft" xlink:href="#dirArrow" transform="rotate(270) translate(-36 17)" onmousedown="handlePan(-1,0)">
                  <use xlink:href="#rim" fill="#404040">
                        <set attributeName="fill" to="#808080" begin="arrowLeft.mouseover" end="arrowLeft.mouseout"/>
                  </use>
                  <path fill="none" stroke="white" stroke-width="1.5" d="M0,-3.0v7 M-2.5,-0.5L0,-3.0L2.5,-0.5"/>
                </g>
        </g>
        <svg viewBox="0 0 15 15" width="100%" height="30px" preserveAspectRatio="xMaxYMin meet">
         <g id="arrow_out" transform="scale(0.3 0.3)">
          <a xlink:href="_pitch_utils_8h__dep__incl_org.svg" target="_base">
           <rect id="button" ry="5" rx="5" y="6" x="6" height="38" width="38"
                fill="#f2f5e9" fill-opacity="0.5" stroke="#606060" stroke-width="1.0"/>
           <path id="arrow"
             d="M 11.500037,31.436501 C 11.940474,20.09759 22.043105,11.32322 32.158766,21.979434 L 37.068811,17.246167 C 37.068811,17.246167 37.088388,32 37.088388,32 L 22.160133,31.978069 C 22.160133,31.978069 26.997745,27.140456 26.997745,27.140456 C 18.528582,18.264221 13.291696,25.230495 11.500037,31.436501 z"
             style="fill:#404040;"/>
          </a>
         </g>
        </svg>
</svg>
