<?xml version="1.0" encoding="UTF-8" standalone="no"?>
<!DOCTYPE svg PUBLIC "-//W3C//DTD SVG 1.1//EN"
 "http://www.w3.org/Graphics/SVG/1.1/DTD/svg11.dtd">
<!-- Generated by graphviz version 2.43.0 (0)
 -->
<!-- Title: PitchDetector.h Pages: 1 -->
<svg width="145pt" height="252pt"
 viewBox="0.00 0.00 144.50 252.00" xmlns="http://www.w3.org/2000/svg" xmlns:xlink="http://www.w3.org/1999/xlink">
<g id="graph0" class="graph" transform="scale(1 1) rotate(0) translate(4 248)">
<title>PitchDetector.h</title>
<!-- Node1 -->
<g id="node1" class="node">
<title>Node1</title>
<g id="a_node1"><a xlink:title=" ">
<polygon fill="#bfbfbf" stroke="black" points="0,-224.5 0,-243.5 91,-243.5 91,-224.5 0,-224.5"/>
<text text-anchor="middle" x="45.5" y="-231.5" font-family="Helvetica,sans-Serif" font-size="10.00">PitchDetector.h</text>
</a>
</g>
</g>
<!-- Node2 -->
<g id="node2" class="node">
<title>Node2</title>
<g id="a_node2"><a xlink:href="limes__audio_8h.html" target="_top" xlink:title=" ">
<polygon fill="none" stroke="black" points="10,-56.5 10,-75.5 95,-75.5 95,-56.5 10,-56.5"/>
<text text-anchor="middle" x="52.5" y="-63.5" font-family="Helvetica,sans-Serif" font-size="10.00">limes_audio.h</text>
</a>
</g>
</g>
<!-- Node1&#45;&gt;Node2 -->
<g id="edge1" class="edge">
<title>Node1&#45;&gt;Node2</title>
<path fill="none" stroke="midnightblue" d="M39.37,-214.39C37.03,-206.37 34.66,-196.82 33.5,-188 27.97,-145.83 42.68,-95.7 49.38,-75.78"/>
<polygon fill="midnightblue" stroke="midnightblue" points="36.1,-215.66 42.41,-224.17 42.79,-213.58 36.1,-215.66"/>
</g>
<!-- Node4 -->
<g id="node4" class="node">
<title>Node4</title>
<g id="a_node4"><a xlink:href="analyzer_8h.html" target="_top" xlink:title=" ">
<polygon fill="none" stroke="black" points="43,-168.5 43,-187.5 110,-187.5 110,-168.5 43,-168.5"/>
<text text-anchor="middle" x="76.5" y="-175.5" font-family="Helvetica,sans-Serif" font-size="10.00">analyzer.h</text>
</a>
</g>
</g>
<!-- Node1&#45;&gt;Node4 -->
<g id="edge3" class="edge">
<title>Node1&#45;&gt;Node4</title>
<path fill="none" stroke="midnightblue" d="M55.68,-215.27C60.97,-206.05 67.22,-195.17 71.48,-187.75"/>
<polygon fill="midnightblue" stroke="midnightblue" points="52.56,-213.67 50.62,-224.08 58.63,-217.15 52.56,-213.67"/>
</g>
<!-- Node3 -->
<g id="node3" class="node">
<title>Node3</title>
<g id="a_node3"><a xlink:href="limes_8h.html" target="_top" xlink:title=" ">
<polygon fill="none" stroke="black" points="26,-0.5 26,-19.5 79,-19.5 79,-0.5 26,-0.5"/>
<text text-anchor="middle" x="52.5" y="-7.5" font-family="Helvetica,sans-Serif" font-size="10.00">limes.h</text>
</a>
</g>
</g>
<!-- Node2&#45;&gt;Node3 -->
<g id="edge2" class="edge">
<title>Node2&#45;&gt;Node3</title>
<path fill="none" stroke="midnightblue" d="M52.5,-45.8C52.5,-36.91 52.5,-26.78 52.5,-19.75"/>
<polygon fill="midnightblue" stroke="midnightblue" points="49,-46.08 52.5,-56.08 56,-46.08 49,-46.08"/>
</g>
<!-- Node4&#45;&gt;Node2 -->
<g id="edge4" class="edge">
<title>Node4&#45;&gt;Node2</title>
<path fill="none" stroke="midnightblue" d="M72.43,-158.35C67.17,-134.25 58.24,-93.31 54.37,-75.59"/>
<polygon fill="midnightblue" stroke="midnightblue" points="69.07,-159.34 74.62,-168.37 75.9,-157.85 69.07,-159.34"/>
</g>
<!-- Node5 -->
<g id="node5" class="node">
<title>Node5</title>
<g id="a_node5"><a xlink:href="shifter_8h.html" target="_top" xlink:title=" ">
<polygon fill="none" stroke="black" points="80.5,-112.5 80.5,-131.5 136.5,-131.5 136.5,-112.5 80.5,-112.5"/>
<text text-anchor="middle" x="108.5" y="-119.5" font-family="Helvetica,sans-Serif" font-size="10.00">shifter.h</text>
</a>
</g>
</g>
<!-- Node4&#45;&gt;Node5 -->
<g id="edge5" class="edge">
<title>Node4&#45;&gt;Node5</title>
<path fill="none" stroke="midnightblue" d="M87,-159.27C92.47,-150.05 98.92,-139.17 103.31,-131.75"/>
<polygon fill="midnightblue" stroke="midnightblue" points="83.87,-157.7 81.78,-168.08 89.89,-161.26 83.87,-157.7"/>
</g>
<!-- Node5&#45;&gt;Node2 -->
<g id="edge6" class="edge">
<title>Node5&#45;&gt;Node2</title>
<path fill="none" stroke="midnightblue" d="M92.17,-105.25C82.24,-95.67 69.91,-83.79 61.66,-75.83"/>
<polygon fill="midnightblue" stroke="midnightblue" points="89.87,-107.9 99.5,-112.32 94.73,-102.86 89.87,-107.9"/>
</g>
</g>
</svg>
