<?xml version="1.0" encoding="UTF-8" standalone="no"?>
<!DOCTYPE svg PUBLIC "-//W3C//DTD SVG 1.1//EN"
 "http://www.w3.org/Graphics/SVG/1.1/DTD/svg11.dtd">
<!-- Generated by graphviz version 2.43.0 (0)
 -->
<!-- Title: Random.h Pages: 1 -->
<svg width="766pt" height="263pt"
 viewBox="0.00 0.00 765.76 263.00" xmlns="http://www.w3.org/2000/svg" xmlns:xlink="http://www.w3.org/1999/xlink">
<g id="graph0" class="graph" transform="scale(1 1) rotate(0) translate(4 259)">
<title>Random.h</title>
<!-- Node1 -->
<g id="node1" class="node">
<title>Node1</title>
<g id="a_node1"><a xlink:title=" ">
<polygon fill="#bfbfbf" stroke="black" points="446.26,-235.5 446.26,-254.5 512.26,-254.5 512.26,-235.5 446.26,-235.5"/>
<text text-anchor="middle" x="479.26" y="-242.5" font-family="Helvetica,sans-Serif" font-size="10.00">Random.h</text>
</a>
</g>
</g>
<!-- Node2 -->
<g id="node2" class="node">
<title>Node2</title>
<g id="a_node2"><a xlink:title=" ">
<polygon fill="none" stroke="#bfbfbf" points="12.76,-0.5 12.76,-19.5 101.76,-19.5 101.76,-0.5 12.76,-0.5"/>
<text text-anchor="middle" x="57.26" y="-7.5" font-family="Helvetica,sans-Serif" font-size="10.00">limes_export.h</text>
</a>
</g>
</g>
<!-- Node1&#45;&gt;Node2 -->
<g id="edge1" class="edge">
<title>Node1&#45;&gt;Node2</title>
<path fill="none" stroke="midnightblue" d="M446.15,-239.86C355.87,-228.03 107.82,-191.76 43.26,-143 9.74,-117.67 -11.02,-94.3 6.26,-56 11.88,-43.56 22.83,-33.17 33.14,-25.53"/>
<polygon fill="midnightblue" stroke="midnightblue" points="35.27,-28.31 41.53,-19.76 31.31,-22.54 35.27,-28.31"/>
</g>
<!-- Node3 -->
<g id="node3" class="node">
<title>Node3</title>
<g id="a_node3"><a xlink:href="limes__namespace_8h.html" target="_top" xlink:title=" ">
<polygon fill="none" stroke="black" points="410.26,-0.5 410.26,-19.5 524.26,-19.5 524.26,-0.5 410.26,-0.5"/>
<text text-anchor="middle" x="467.26" y="-7.5" font-family="Helvetica,sans-Serif" font-size="10.00">limes_namespace.h</text>
</a>
</g>
</g>
<!-- Node1&#45;&gt;Node3 -->
<g id="edge2" class="edge">
<title>Node1&#45;&gt;Node3</title>
<path fill="none" stroke="midnightblue" d="M503.73,-235.44C519.83,-228.38 539.64,-216.63 549.26,-199 567.79,-165.06 562.19,-148.44 549.26,-112 536.65,-76.45 505.6,-44.31 485.54,-26.25"/>
<polygon fill="midnightblue" stroke="midnightblue" points="487.78,-23.56 477.94,-19.61 483.17,-28.83 487.78,-23.56"/>
</g>
<!-- Node4 -->
<g id="node4" class="node">
<title>Node4</title>
<g id="a_node4"><a xlink:title=" ">
<polygon fill="none" stroke="#bfbfbf" points="424.26,-179.5 424.26,-198.5 468.26,-198.5 468.26,-179.5 424.26,-179.5"/>
<text text-anchor="middle" x="446.26" y="-186.5" font-family="Helvetica,sans-Serif" font-size="10.00">limits</text>
</a>
</g>
</g>
<!-- Node1&#45;&gt;Node4 -->
<g id="edge3" class="edge">
<title>Node1&#45;&gt;Node4</title>
<path fill="none" stroke="midnightblue" d="M473.81,-235.08C469.25,-227.61 462.6,-216.72 456.97,-207.52"/>
<polygon fill="midnightblue" stroke="midnightblue" points="459.81,-205.46 451.61,-198.75 453.84,-209.11 459.81,-205.46"/>
</g>
<!-- Node5 -->
<g id="node5" class="node">
<title>Node5</title>
<g id="a_node5"><a xlink:title=" ">
<polygon fill="none" stroke="#bfbfbf" points="486.26,-179.5 486.26,-198.5 540.26,-198.5 540.26,-179.5 486.26,-179.5"/>
<text text-anchor="middle" x="513.26" y="-186.5" font-family="Helvetica,sans-Serif" font-size="10.00">random</text>
</a>
</g>
</g>
<!-- Node1&#45;&gt;Node5 -->
<g id="edge4" class="edge">
<title>Node1&#45;&gt;Node5</title>
<path fill="none" stroke="midnightblue" d="M484.88,-235.08C489.63,-227.53 496.58,-216.49 502.42,-207.23"/>
<polygon fill="midnightblue" stroke="midnightblue" points="505.39,-209.08 507.75,-198.75 499.46,-205.35 505.39,-209.08"/>
</g>
<!-- Node6 -->
<g id="node6" class="node">
<title>Node6</title>
<g id="a_node6"><a xlink:href="preprocessor_8h.html" target="_top" xlink:title=" ">
<polygon fill="none" stroke="black" points="634.76,-56.5 634.76,-75.5 757.76,-75.5 757.76,-56.5 634.76,-56.5"/>
<text text-anchor="middle" x="696.26" y="-63.5" font-family="Helvetica,sans-Serif" font-size="10.00">../misc/preprocessor.h</text>
</a>
</g>
</g>
<!-- Node1&#45;&gt;Node6 -->
<g id="edge5" class="edge">
<title>Node1&#45;&gt;Node6</title>
<path fill="none" stroke="midnightblue" d="M512.47,-240.84C565.56,-233.8 668.17,-211.58 713.26,-143 724.83,-125.41 716.04,-101.11 707.38,-84.76"/>
<polygon fill="midnightblue" stroke="midnightblue" points="710.21,-82.66 702.18,-75.74 704.14,-86.15 710.21,-82.66"/>
</g>
<!-- Node8 -->
<g id="node8" class="node">
<title>Node8</title>
<g id="a_node8"><a xlink:href="math_helpers_8h.html" target="_top" xlink:title=" ">
<polygon fill="none" stroke="black" points="317.76,-179.5 317.76,-198.5 406.76,-198.5 406.76,-179.5 317.76,-179.5"/>
<text text-anchor="middle" x="362.26" y="-186.5" font-family="Helvetica,sans-Serif" font-size="10.00">mathHelpers.h</text>
</a>
</g>
</g>
<!-- Node1&#45;&gt;Node8 -->
<g id="edge7" class="edge">
<title>Node1&#45;&gt;Node8</title>
<path fill="none" stroke="midnightblue" d="M460.73,-235.44C441.64,-226.64 411.69,-212.81 389.83,-202.72"/>
<polygon fill="midnightblue" stroke="midnightblue" points="391.26,-199.53 380.72,-198.52 388.33,-205.88 391.26,-199.53"/>
</g>
<!-- Node7 -->
<g id="node7" class="node">
<title>Node7</title>
<g id="a_node7"><a xlink:title=" ">
<polygon fill="none" stroke="#bfbfbf" points="556.26,-0.5 556.26,-19.5 656.26,-19.5 656.26,-0.5 556.26,-0.5"/>
<text text-anchor="middle" x="606.26" y="-7.5" font-family="Helvetica,sans-Serif" font-size="10.00">limes_platform.h</text>
</a>
</g>
</g>
<!-- Node6&#45;&gt;Node7 -->
<g id="edge6" class="edge">
<title>Node6&#45;&gt;Node7</title>
<path fill="none" stroke="midnightblue" d="M681.8,-56.32C667.76,-47.9 646.22,-34.97 629.72,-25.07"/>
<polygon fill="midnightblue" stroke="midnightblue" points="631.06,-21.8 620.69,-19.65 627.46,-27.8 631.06,-21.8"/>
</g>
<!-- Node8&#45;&gt;Node2 -->
<g id="edge11" class="edge">
<title>Node8&#45;&gt;Node2</title>
<path fill="none" stroke="midnightblue" d="M317.44,-182.93C271.46,-176.83 198.36,-164.61 138.26,-143 78.95,-121.67 45.64,-130.08 13.26,-76 2.66,-58.28 20.04,-38.75 35.98,-25.78"/>
<polygon fill="midnightblue" stroke="midnightblue" points="38.2,-28.48 44.03,-19.63 33.96,-22.92 38.2,-28.48"/>
</g>
<!-- Node8&#45;&gt;Node3 -->
<g id="edge8" class="edge">
<title>Node8&#45;&gt;Node3</title>
<path fill="none" stroke="midnightblue" d="M365.11,-179.15C370.32,-164 382.62,-132.73 401.26,-112 420.81,-90.28 440.27,-100.45 456.26,-76 465.17,-62.38 467.58,-43.84 467.96,-30.04"/>
<polygon fill="midnightblue" stroke="midnightblue" points="471.46,-29.76 467.9,-19.78 464.46,-29.81 471.46,-29.76"/>
</g>
<!-- Node9 -->
<g id="node9" class="node">
<title>Node9</title>
<g id="a_node9"><a xlink:title=" ">
<polygon fill="none" stroke="#bfbfbf" points="492.76,-118 492.76,-137 539.76,-137 539.76,-118 492.76,-118"/>
<text text-anchor="middle" x="516.26" y="-125" font-family="Helvetica,sans-Serif" font-size="10.00">cmath</text>
</a>
</g>
</g>
<!-- Node8&#45;&gt;Node9 -->
<g id="edge9" class="edge">
<title>Node8&#45;&gt;Node9</title>
<path fill="none" stroke="midnightblue" d="M386.53,-179.44C411.07,-170.68 450.03,-156.47 483.26,-143 484.68,-142.43 486.12,-141.83 487.58,-141.22"/>
<polygon fill="midnightblue" stroke="midnightblue" points="489.34,-144.28 497.15,-137.12 486.58,-137.84 489.34,-144.28"/>
</g>
<!-- Node10 -->
<g id="node10" class="node">
<title>Node10</title>
<g id="a_node10"><a xlink:title=" ">
<polygon fill="none" stroke="#bfbfbf" points="22.76,-56.5 22.76,-75.5 91.76,-75.5 91.76,-56.5 22.76,-56.5"/>
<text text-anchor="middle" x="57.26" y="-63.5" font-family="Helvetica,sans-Serif" font-size="10.00">type_traits</text>
</a>
</g>
</g>
<!-- Node8&#45;&gt;Node10 -->
<g id="edge10" class="edge">
<title>Node8&#45;&gt;Node10</title>
<path fill="none" stroke="midnightblue" d="M326.73,-179.46C295.33,-171.47 248.56,-158.46 209.26,-143 162.44,-124.58 110.55,-96.97 81.12,-80.59"/>
<polygon fill="midnightblue" stroke="midnightblue" points="82.82,-77.54 72.39,-75.7 79.4,-83.64 82.82,-77.54"/>
</g>
<!-- Node11 -->
<g id="node11" class="node">
<title>Node11</title>
<g id="a_node11"><a xlink:title=" ">
<polygon fill="none" stroke="#bfbfbf" points="410.26,-118 410.26,-137 474.26,-137 474.26,-118 410.26,-118"/>
<text text-anchor="middle" x="442.26" y="-125" font-family="Helvetica,sans-Serif" font-size="10.00">algorithm</text>
</a>
</g>
</g>
<!-- Node8&#45;&gt;Node11 -->
<g id="edge12" class="edge">
<title>Node8&#45;&gt;Node11</title>
<path fill="none" stroke="midnightblue" d="M373.73,-179.48C386.44,-170.02 407.18,-154.6 422.52,-143.19"/>
<polygon fill="midnightblue" stroke="midnightblue" points="424.89,-145.79 430.82,-137.01 420.71,-140.17 424.89,-145.79"/>
</g>
<!-- Node12 -->
<g id="node12" class="node">
<title>Node12</title>
<g id="a_node12"><a xlink:href="limes__assert_8h.html" target="_top" xlink:title=" ">
<polygon fill="none" stroke="black" points="218.26,-118 218.26,-137 354.26,-137 354.26,-118 218.26,-118"/>
<text text-anchor="middle" x="286.26" y="-125" font-family="Helvetica,sans-Serif" font-size="10.00">../system/limes_assert.h</text>
</a>
</g>
</g>
<!-- Node8&#45;&gt;Node12 -->
<g id="edge13" class="edge">
<title>Node8&#45;&gt;Node12</title>
<path fill="none" stroke="midnightblue" d="M351.38,-179.48C339.3,-170.02 319.6,-154.6 305.02,-143.19"/>
<polygon fill="midnightblue" stroke="midnightblue" points="307.16,-140.42 297.13,-137.01 302.85,-145.93 307.16,-140.42"/>
</g>
<!-- Node16 -->
<g id="node16" class="node">
<title>Node16</title>
<g id="a_node16"><a xlink:href="compiler__defs_8h.html" target="_top" xlink:title=" ">
<polygon fill="none" stroke="black" points="596.76,-112.5 596.76,-142.5 703.76,-142.5 703.76,-112.5 596.76,-112.5"/>
<text text-anchor="start" x="604.76" y="-130.5" font-family="Helvetica,sans-Serif" font-size="10.00">../system/compiler</text>
<text text-anchor="middle" x="650.26" y="-119.5" font-family="Helvetica,sans-Serif" font-size="10.00">_defs.h</text>
</a>
</g>
</g>
<!-- Node8&#45;&gt;Node16 -->
<g id="edge24" class="edge">
<title>Node8&#45;&gt;Node16</title>
<path fill="none" stroke="midnightblue" d="M403.53,-179.48C451.33,-169.6 530.66,-153.21 586.44,-141.69"/>
<polygon fill="midnightblue" stroke="midnightblue" points="587.48,-145.04 596.57,-139.59 586.07,-138.19 587.48,-145.04"/>
</g>
<!-- Node12&#45;&gt;Node2 -->
<g id="edge14" class="edge">
<title>Node12&#45;&gt;Node2</title>
<path fill="none" stroke="midnightblue" d="M250.71,-117.93C220.03,-109.7 175.13,-95.62 139.26,-76 114.29,-62.34 89.17,-41.05 73.44,-26.59"/>
<polygon fill="midnightblue" stroke="midnightblue" points="75.81,-24.01 66.12,-19.73 71.02,-29.12 75.81,-24.01"/>
</g>
<!-- Node12&#45;&gt;Node3 -->
<g id="edge15" class="edge">
<title>Node12&#45;&gt;Node3</title>
<path fill="none" stroke="midnightblue" d="M343.58,-117.96C373.76,-110.98 409.7,-98.42 435.26,-76 449.13,-63.84 457.61,-44.29 462.32,-29.8"/>
<polygon fill="midnightblue" stroke="midnightblue" points="465.77,-30.49 465.22,-19.91 459.05,-28.52 465.77,-30.49"/>
</g>
<!-- Node12&#45;&gt;Node6 -->
<g id="edge16" class="edge">
<title>Node12&#45;&gt;Node6</title>
<path fill="none" stroke="midnightblue" d="M345.01,-117.98C419.6,-107.15 548.1,-88.5 627.27,-77.01"/>
<polygon fill="midnightblue" stroke="midnightblue" points="628.24,-80.41 637.63,-75.51 627.23,-73.48 628.24,-80.41"/>
</g>
<!-- Node12&#45;&gt;Node7 -->
<g id="edge22" class="edge">
<title>Node12&#45;&gt;Node7</title>
<path fill="none" stroke="midnightblue" d="M319.23,-117.97C353.76,-108.74 409.39,-93.05 456.26,-76 500.12,-60.05 549.51,-37.78 579.24,-23.88"/>
<polygon fill="midnightblue" stroke="midnightblue" points="580.98,-26.93 588.54,-19.51 578,-20.6 580.98,-26.93"/>
</g>
<!-- Node12&#45;&gt;Node10 -->
<g id="edge17" class="edge">
<title>Node12&#45;&gt;Node10</title>
<path fill="none" stroke="midnightblue" d="M253.45,-117.98C213.07,-107.48 144.39,-89.64 99.94,-78.09"/>
<polygon fill="midnightblue" stroke="midnightblue" points="100.57,-74.64 90.01,-75.51 98.81,-81.41 100.57,-74.64"/>
</g>
<!-- Node13 -->
<g id="node13" class="node">
<title>Node13</title>
<g id="a_node13"><a xlink:title=" ">
<polygon fill="none" stroke="#bfbfbf" points="148.76,-56.5 148.76,-75.5 193.76,-75.5 193.76,-56.5 148.76,-56.5"/>
<text text-anchor="middle" x="171.26" y="-63.5" font-family="Helvetica,sans-Serif" font-size="10.00">utility</text>
</a>
</g>
</g>
<!-- Node12&#45;&gt;Node13 -->
<g id="edge18" class="edge">
<title>Node12&#45;&gt;Node13</title>
<path fill="none" stroke="midnightblue" d="M269.79,-117.98C250.66,-108.08 218.89,-91.64 196.61,-80.12"/>
<polygon fill="midnightblue" stroke="midnightblue" points="198.2,-77 187.71,-75.51 194.98,-83.21 198.2,-77"/>
</g>
<!-- Node14 -->
<g id="node14" class="node">
<title>Node14</title>
<g id="a_node14"><a xlink:href="_ignore_unused_8h.html" target="_top" xlink:title=" ">
<polygon fill="none" stroke="black" points="298.26,-56.5 298.26,-75.5 426.26,-75.5 426.26,-56.5 298.26,-56.5"/>
<text text-anchor="middle" x="362.26" y="-63.5" font-family="Helvetica,sans-Serif" font-size="10.00">../misc/IgnoreUnused.h</text>
</a>
</g>
</g>
<!-- Node12&#45;&gt;Node14 -->
<g id="edge19" class="edge">
<title>Node12&#45;&gt;Node14</title>
<path fill="none" stroke="midnightblue" d="M297.15,-117.98C309.23,-108.52 328.93,-93.1 343.5,-81.69"/>
<polygon fill="midnightblue" stroke="midnightblue" points="345.68,-84.43 351.4,-75.51 341.36,-78.92 345.68,-84.43"/>
</g>
<!-- Node15 -->
<g id="node15" class="node">
<title>Node15</title>
<g id="a_node15"><a xlink:title=" ">
<polygon fill="none" stroke="#bfbfbf" points="212.26,-56.5 212.26,-75.5 280.26,-75.5 280.26,-56.5 212.26,-56.5"/>
<text text-anchor="middle" x="246.26" y="-63.5" font-family="Helvetica,sans-Serif" font-size="10.00">filesystem</text>
</a>
</g>
</g>
<!-- Node12&#45;&gt;Node15 -->
<g id="edge23" class="edge">
<title>Node12&#45;&gt;Node15</title>
<path fill="none" stroke="midnightblue" d="M280.53,-117.98C274.59,-109.14 265.15,-95.09 257.68,-83.98"/>
<polygon fill="midnightblue" stroke="midnightblue" points="260.47,-81.86 251.98,-75.51 254.66,-85.76 260.47,-81.86"/>
</g>
<!-- Node14&#45;&gt;Node2 -->
<g id="edge20" class="edge">
<title>Node14&#45;&gt;Node2</title>
<path fill="none" stroke="midnightblue" d="M313.94,-56.44C258.95,-46.71 169.36,-30.85 111.88,-20.67"/>
<polygon fill="midnightblue" stroke="midnightblue" points="112.35,-17.2 101.89,-18.9 111.13,-24.09 112.35,-17.2"/>
</g>
<!-- Node14&#45;&gt;Node3 -->
<g id="edge21" class="edge">
<title>Node14&#45;&gt;Node3</title>
<path fill="none" stroke="midnightblue" d="M379.13,-56.32C395.97,-47.66 422.07,-34.24 441.5,-24.25"/>
<polygon fill="midnightblue" stroke="midnightblue" points="443.14,-27.34 450.44,-19.65 439.94,-21.12 443.14,-27.34"/>
</g>
<!-- Node16&#45;&gt;Node6 -->
<g id="edge26" class="edge">
<title>Node16&#45;&gt;Node6</title>
<path fill="none" stroke="midnightblue" d="M661.17,-112.4C667.85,-103.75 676.44,-92.64 683.45,-83.58"/>
<polygon fill="midnightblue" stroke="midnightblue" points="686.22,-85.71 689.57,-75.66 680.69,-81.43 686.22,-85.71"/>
</g>
<!-- Node16&#45;&gt;Node7 -->
<g id="edge25" class="edge">
<title>Node16&#45;&gt;Node7</title>
<path fill="none" stroke="midnightblue" d="M642.76,-112.16C637.72,-102.18 631.12,-88.48 626.26,-76 620.24,-60.53 614.8,-42.44 611.12,-29.28"/>
<polygon fill="midnightblue" stroke="midnightblue" points="614.48,-28.28 608.47,-19.55 607.72,-30.12 614.48,-28.28"/>
</g>
</g>
</svg>
