<?xml version="1.0" encoding="UTF-8" standalone="no"?>
<!DOCTYPE svg PUBLIC "-//W3C//DTD SVG 1.1//EN"
 "http://www.w3.org/Graphics/SVG/1.1/DTD/svg11.dtd">
<!-- Generated by graphviz version 2.43.0 (0)
 -->
<!-- Title: Random.h Pages: 1 -->
<!--zoomable 252 -->
<svg id="main" version="1.1" xmlns="http://www.w3.org/2000/svg" xmlns:xlink="http://www.w3.org/1999/xlink" xml:space="preserve" onload="init(evt)">
<style type="text/css"><![CDATA[
.edge:hover path { stroke: red; }
.edge:hover polygon { stroke: red; fill: red; }
]]></style>
<script type="text/javascript"><![CDATA[
var edges = document.getElementsByTagName('g');
if (edges && edges.length) {
  for (var i=0;i<edges.length;i++) {
    if (edges[i].id.substr(0,4)=='edge') {
      edges[i].setAttribute('class','edge');
    }
  }
}
]]></script>
        <defs>
                <circle id="rim" cx="0" cy="0" r="7"/>
                <circle id="rim2" cx="0" cy="0" r="3.5"/>
                <g id="zoomPlus">
                        <use xlink:href="#rim" fill="#404040">
                                <set attributeName="fill" to="#808080" begin="zoomplus.mouseover" end="zoomplus.mouseout"/>
                        </use>
                        <path d="M-4,0h8M0,-4v8" fill="none" stroke="white" stroke-width="1.5" pointer-events="none"/>
                </g>
                <g id="zoomMin">
                        <use xlink:href="#rim" fill="#404040">
                                <set attributeName="fill" to="#808080" begin="zoomminus.mouseover" end="zoomminus.mouseout"/>
                        </use>
                        <path d="M-4,0h8" fill="none" stroke="white" stroke-width="1.5" pointer-events="none"/>
                </g>
                <g id="dirArrow">
                        <path fill="none" stroke="white" stroke-width="1.5" d="M0,-3.0v7 M-2.5,-0.5L0,-3.0L2.5,-0.5"/>
                </g>
               <g id="resetDef">
                       <use xlink:href="#rim2" fill="#404040">
                               <set attributeName="fill" to="#808080" begin="reset.mouseover" end="reset.mouseout"/>
                       </use>
               </g>
        </defs>

<script type="text/javascript">
var viewWidth = 1018;
var viewHeight = 252;
var sectionId = 'dynsection-0';
</script>
<script xlink:href="svgpan.js"/>
<svg id="graph" class="graph">
<g id="viewport">
<title>Random.h</title>
<!-- Node1 -->
<g id="node1" class="node">
<title>Node1</title>
<g id="a_node1"><a xlink:title=" ">
<polygon fill="#bfbfbf" stroke="black" points="610.15,-224.5 610.15,-243.5 676.15,-243.5 676.15,-224.5 610.15,-224.5"/>
<text text-anchor="middle" x="643.15" y="-231.5" font-family="Helvetica,sans-Serif" font-size="10.00">Random.h</text>
</a>
</g>
</g>
<!-- Node2 -->
<g id="node2" class="node">
<title>Node2</title>
<g id="a_node2"><a xlink:title=" ">
<polygon fill="none" stroke="#bfbfbf" points="249.65,-0.5 249.65,-19.5 338.65,-19.5 338.65,-0.5 249.65,-0.5"/>
<text text-anchor="middle" x="294.15" y="-7.5" font-family="Helvetica,sans-Serif" font-size="10.00">limes_export.h</text>
</a>
</g>
</g>
<!-- Node1&#45;&gt;Node2 -->
<g id="edge1" class="edge">
<title>Node1&#45;&gt;Node2</title>
<path fill="none" stroke="midnightblue" d="M609.75,-230.43C488.47,-220.31 74.69,-178.61 4.15,-76 -0.89,-68.68 -1.63,-62.75 4.15,-56 19.22,-38.41 159.19,-23.11 239.03,-15.71"/>
<polygon fill="midnightblue" stroke="midnightblue" points="239.76,-19.16 249.4,-14.77 239.13,-12.19 239.76,-19.16"/>
</g>
<!-- Node3 -->
<g id="node3" class="node">
<title>Node3</title>
<g id="a_node3"><a xlink:href="limes__namespace_8h.html" target="_top" xlink:title=" ">
<polygon fill="none" stroke="black" points="752.15,-0.5 752.15,-19.5 866.15,-19.5 866.15,-0.5 752.15,-0.5"/>
<text text-anchor="middle" x="809.15" y="-7.5" font-family="Helvetica,sans-Serif" font-size="10.00">limes_namespace.h</text>
</a>
</g>
</g>
<!-- Node1&#45;&gt;Node3 -->
<g id="edge2" class="edge">
<title>Node1&#45;&gt;Node3</title>
<path fill="none" stroke="midnightblue" d="M659.1,-224.47C694.87,-204.3 780.85,-149.79 813.15,-76 819.53,-61.43 817.69,-43.26 814.74,-29.83"/>
<polygon fill="midnightblue" stroke="midnightblue" points="818.05,-28.66 812.16,-19.86 811.28,-30.41 818.05,-28.66"/>
</g>
<!-- Node4 -->
<g id="node4" class="node">
<title>Node4</title>
<g id="a_node4"><a xlink:title=" ">
<polygon fill="none" stroke="#bfbfbf" points="894.15,-168.5 894.15,-187.5 938.15,-187.5 938.15,-168.5 894.15,-168.5"/>
<text text-anchor="middle" x="916.15" y="-175.5" font-family="Helvetica,sans-Serif" font-size="10.00">limits</text>
</a>
</g>
</g>
<!-- Node1&#45;&gt;Node4 -->
<g id="edge3" class="edge">
<title>Node1&#45;&gt;Node4</title>
<path fill="none" stroke="midnightblue" d="M676.25,-227.33C722.17,-219.33 807.75,-203.91 880.15,-188 881.42,-187.72 882.72,-187.43 884.03,-187.13"/>
<polygon fill="midnightblue" stroke="midnightblue" points="885.2,-190.45 894.11,-184.72 883.57,-183.64 885.2,-190.45"/>
</g>
<!-- Node5 -->
<g id="node5" class="node">
<title>Node5</title>
<g id="a_node5"><a xlink:title=" ">
<polygon fill="none" stroke="#bfbfbf" points="956.15,-168.5 956.15,-187.5 1010.15,-187.5 1010.15,-168.5 956.15,-168.5"/>
<text text-anchor="middle" x="983.15" y="-175.5" font-family="Helvetica,sans-Serif" font-size="10.00">random</text>
</a>
</g>
</g>
<!-- Node1&#45;&gt;Node5 -->
<g id="edge4" class="edge">
<title>Node1&#45;&gt;Node5</title>
<path fill="none" stroke="midnightblue" d="M676.17,-229.19C730.44,-222.69 842.03,-208.36 946.05,-188.05"/>
<polygon fill="midnightblue" stroke="midnightblue" points="946.96,-191.44 956.09,-186.07 945.6,-184.57 946.96,-191.44"/>
</g>
<!-- Node6 -->
<g id="node6" class="node">
<title>Node6</title>
<g id="a_node6"><a xlink:href="preprocessor_8h.html" target="_top" xlink:title=" ">
<polygon fill="none" stroke="black" points="13.65,-56.5 13.65,-75.5 136.65,-75.5 136.65,-56.5 13.65,-56.5"/>
<text text-anchor="middle" x="75.15" y="-63.5" font-family="Helvetica,sans-Serif" font-size="10.00">../misc/preprocessor.h</text>
</a>
</g>
</g>
<!-- Node1&#45;&gt;Node6 -->
<g id="edge5" class="edge">
<title>Node1&#45;&gt;Node6</title>
<path fill="none" stroke="midnightblue" d="M609.74,-229.46C557.59,-223.51 453.92,-209.94 368.15,-188 295.57,-169.43 278.3,-160.84 209.15,-132 170.47,-115.87 127.05,-94.1 100.4,-80.31"/>
<polygon fill="midnightblue" stroke="midnightblue" points="101.87,-77.13 91.38,-75.61 98.63,-83.34 101.87,-77.13"/>
</g>
<!-- Node8 -->
<g id="node8" class="node">
<title>Node8</title>
<g id="a_node8"><a xlink:href="math_helpers_8h.html" target="_top" xlink:title=" ">
<polygon fill="none" stroke="black" points="376.65,-168.5 376.65,-187.5 465.65,-187.5 465.65,-168.5 376.65,-168.5"/>
<text text-anchor="middle" x="421.15" y="-175.5" font-family="Helvetica,sans-Serif" font-size="10.00">mathHelpers.h</text>
</a>
</g>
</g>
<!-- Node1&#45;&gt;Node8 -->
<g id="edge7" class="edge">
<title>Node1&#45;&gt;Node8</title>
<path fill="none" stroke="midnightblue" d="M609.92,-224.92C571.73,-215.63 508.87,-200.34 466.28,-189.98"/>
<polygon fill="midnightblue" stroke="midnightblue" points="466.99,-186.55 456.45,-187.59 465.34,-193.35 466.99,-186.55"/>
</g>
<!-- Node7 -->
<g id="node7" class="node">
<title>Node7</title>
<g id="a_node7"><a xlink:title=" ">
<polygon fill="none" stroke="#bfbfbf" points="61.15,-0.5 61.15,-19.5 161.15,-19.5 161.15,-0.5 61.15,-0.5"/>
<text text-anchor="middle" x="111.15" y="-7.5" font-family="Helvetica,sans-Serif" font-size="10.00">limes_platform.h</text>
</a>
</g>
</g>
<!-- Node6&#45;&gt;Node7 -->
<g id="edge6" class="edge">
<title>Node6&#45;&gt;Node7</title>
<path fill="none" stroke="midnightblue" d="M81.1,-56.08C86.13,-48.53 93.49,-37.49 99.66,-28.23"/>
<polygon fill="midnightblue" stroke="midnightblue" points="102.68,-30.01 105.32,-19.75 96.86,-26.13 102.68,-30.01"/>
</g>
<!-- Node8&#45;&gt;Node2 -->
<g id="edge11" class="edge">
<title>Node8&#45;&gt;Node2</title>
<path fill="none" stroke="midnightblue" d="M376.6,-174.45C317.89,-168.28 218.1,-147.27 184.15,-76 170.69,-47.75 205.47,-30.89 239.41,-21.46"/>
<polygon fill="midnightblue" stroke="midnightblue" points="240.59,-24.77 249.39,-18.87 238.83,-17.99 240.59,-24.77"/>
</g>
<!-- Node8&#45;&gt;Node3 -->
<g id="edge8" class="edge">
<title>Node8&#45;&gt;Node3</title>
<path fill="none" stroke="midnightblue" d="M465.84,-170.71C554.62,-157.32 748.6,-123.3 794.15,-76 805.81,-63.89 809.07,-44.61 809.71,-30.19"/>
<polygon fill="midnightblue" stroke="midnightblue" points="813.21,-29.91 809.77,-19.89 806.21,-29.87 813.21,-29.91"/>
</g>
<!-- Node9 -->
<g id="node9" class="node">
<title>Node9</title>
<g id="a_node9"><a xlink:title=" ">
<polygon fill="none" stroke="#bfbfbf" points="287.65,-112.5 287.65,-131.5 334.65,-131.5 334.65,-112.5 287.65,-112.5"/>
<text text-anchor="middle" x="311.15" y="-119.5" font-family="Helvetica,sans-Serif" font-size="10.00">cmath</text>
</a>
</g>
</g>
<!-- Node8&#45;&gt;Node9 -->
<g id="edge9" class="edge">
<title>Node8&#45;&gt;Node9</title>
<path fill="none" stroke="midnightblue" d="M403.48,-168.32C385.76,-159.62 358.25,-146.12 337.86,-136.11"/>
<polygon fill="midnightblue" stroke="midnightblue" points="339.3,-132.92 328.78,-131.65 336.21,-139.2 339.3,-132.92"/>
</g>
<!-- Node10 -->
<g id="node10" class="node">
<title>Node10</title>
<g id="a_node10"><a xlink:title=" ">
<polygon fill="none" stroke="#bfbfbf" points="193.65,-56.5 193.65,-75.5 262.65,-75.5 262.65,-56.5 193.65,-56.5"/>
<text text-anchor="middle" x="228.15" y="-63.5" font-family="Helvetica,sans-Serif" font-size="10.00">type_traits</text>
</a>
</g>
</g>
<!-- Node8&#45;&gt;Node10 -->
<g id="edge10" class="edge">
<title>Node8&#45;&gt;Node10</title>
<path fill="none" stroke="midnightblue" d="M376.45,-170.18C346.56,-163.96 307.48,-152.5 278.15,-132 260.52,-119.67 246.28,-99.25 237.57,-84.58"/>
<polygon fill="midnightblue" stroke="midnightblue" points="240.42,-82.51 232.45,-75.52 234.32,-85.95 240.42,-82.51"/>
</g>
<!-- Node11 -->
<g id="node11" class="node">
<title>Node11</title>
<g id="a_node11"><a xlink:title=" ">
<polygon fill="none" stroke="#bfbfbf" points="507.15,-112.5 507.15,-131.5 571.15,-131.5 571.15,-112.5 507.15,-112.5"/>
<text text-anchor="middle" x="539.15" y="-119.5" font-family="Helvetica,sans-Serif" font-size="10.00">algorithm</text>
</a>
</g>
</g>
<!-- Node8&#45;&gt;Node11 -->
<g id="edge12" class="edge">
<title>Node8&#45;&gt;Node11</title>
<path fill="none" stroke="midnightblue" d="M439.85,-168.44C459.1,-159.64 489.3,-145.81 511.35,-135.72"/>
<polygon fill="midnightblue" stroke="midnightblue" points="512.9,-138.86 520.54,-131.52 509.99,-132.5 512.9,-138.86"/>
</g>
<!-- Node12 -->
<g id="node12" class="node">
<title>Node12</title>
<g id="a_node12"><a xlink:href="limes__assert_8h.html" target="_top" xlink:title=" ">
<polygon fill="none" stroke="black" points="353.15,-112.5 353.15,-131.5 489.15,-131.5 489.15,-112.5 353.15,-112.5"/>
<text text-anchor="middle" x="421.15" y="-119.5" font-family="Helvetica,sans-Serif" font-size="10.00">../system/limes_assert.h</text>
</a>
</g>
</g>
<!-- Node8&#45;&gt;Node12 -->
<g id="edge13" class="edge">
<title>Node8&#45;&gt;Node12</title>
<path fill="none" stroke="midnightblue" d="M421.15,-168.08C421.15,-161.01 421.15,-150.86 421.15,-141.99"/>
<polygon fill="midnightblue" stroke="midnightblue" points="424.65,-141.75 421.15,-131.75 417.65,-141.75 424.65,-141.75"/>
</g>
<!-- Node12&#45;&gt;Node2 -->
<g id="edge14" class="edge">
<title>Node12&#45;&gt;Node2</title>
<path fill="none" stroke="midnightblue" d="M403.86,-112.42C388.36,-104.26 365.46,-91.03 348.15,-76 331.61,-61.64 316,-41.92 305.85,-27.98"/>
<polygon fill="midnightblue" stroke="midnightblue" points="308.67,-25.89 300.02,-19.77 302.96,-29.95 308.67,-25.89"/>
</g>
<!-- Node12&#45;&gt;Node3 -->
<g id="edge15" class="edge">
<title>Node12&#45;&gt;Node3</title>
<path fill="none" stroke="midnightblue" d="M489.28,-113C589.45,-101.14 765.32,-79.86 771.15,-76 787.46,-65.2 797.69,-44.81 803.37,-29.74"/>
<polygon fill="midnightblue" stroke="midnightblue" points="806.81,-30.51 806.73,-19.91 800.18,-28.24 806.81,-30.51"/>
</g>
<!-- Node12&#45;&gt;Node6 -->
<g id="edge16" class="edge">
<title>Node12&#45;&gt;Node6</title>
<path fill="none" stroke="midnightblue" d="M366.33,-112.44C304.83,-102.85 205.17,-87.29 139.89,-77.1"/>
<polygon fill="midnightblue" stroke="midnightblue" points="140.14,-73.6 129.72,-75.52 139.06,-80.52 140.14,-73.6"/>
</g>
<!-- Node12&#45;&gt;Node7 -->
<g id="edge23" class="edge">
<title>Node12&#45;&gt;Node7</title>
<path fill="none" stroke="midnightblue" d="M403.45,-112.4C375.71,-99.14 320.09,-73.4 271.15,-56 233.25,-42.53 189.18,-30.38 156.89,-22.12"/>
<polygon fill="midnightblue" stroke="midnightblue" points="157.4,-18.63 146.85,-19.57 155.69,-25.42 157.4,-18.63"/>
</g>
<!-- Node12&#45;&gt;Node10 -->
<g id="edge17" class="edge">
<title>Node12&#45;&gt;Node10</title>
<path fill="none" stroke="midnightblue" d="M390.57,-112.44C357.54,-103.2 304.76,-88.44 268.38,-78.26"/>
<polygon fill="midnightblue" stroke="midnightblue" points="269.16,-74.84 258.59,-75.52 267.28,-81.58 269.16,-74.84"/>
</g>
<!-- Node13 -->
<g id="node13" class="node">
<title>Node13</title>
<g id="a_node13"><a xlink:title=" ">
<polygon fill="none" stroke="#bfbfbf" points="503.65,-56.5 503.65,-75.5 548.65,-75.5 548.65,-56.5 503.65,-56.5"/>
<text text-anchor="middle" x="526.15" y="-63.5" font-family="Helvetica,sans-Serif" font-size="10.00">utility</text>
</a>
</g>
</g>
<!-- Node12&#45;&gt;Node13 -->
<g id="edge18" class="edge">
<title>Node12&#45;&gt;Node13</title>
<path fill="none" stroke="midnightblue" d="M438.02,-112.32C454.86,-103.66 480.96,-90.24 500.39,-80.25"/>
<polygon fill="midnightblue" stroke="midnightblue" points="502.03,-83.34 509.32,-75.65 498.83,-77.12 502.03,-83.34"/>
</g>
<!-- Node14 -->
<g id="node14" class="node">
<title>Node14</title>
<g id="a_node14"><a xlink:title=" ">
<polygon fill="none" stroke="#bfbfbf" points="566.65,-56.5 566.65,-75.5 675.65,-75.5 675.65,-56.5 566.65,-56.5"/>
<text text-anchor="middle" x="621.15" y="-63.5" font-family="Helvetica,sans-Serif" font-size="10.00">limes_build_type.h</text>
</a>
</g>
</g>
<!-- Node12&#45;&gt;Node14 -->
<g id="edge19" class="edge">
<title>Node12&#45;&gt;Node14</title>
<path fill="none" stroke="midnightblue" d="M452.84,-112.44C487.22,-103.16 542.23,-88.31 579.94,-78.13"/>
<polygon fill="midnightblue" stroke="midnightblue" points="580.87,-81.5 589.61,-75.52 579.04,-74.74 580.87,-81.5"/>
</g>
<!-- Node15 -->
<g id="node15" class="node">
<title>Node15</title>
<g id="a_node15"><a xlink:href="_ignore_unused_8h.html" target="_top" xlink:title=" ">
<polygon fill="none" stroke="black" points="357.15,-56.5 357.15,-75.5 485.15,-75.5 485.15,-56.5 357.15,-56.5"/>
<text text-anchor="middle" x="421.15" y="-63.5" font-family="Helvetica,sans-Serif" font-size="10.00">../misc/IgnoreUnused.h</text>
</a>
</g>
</g>
<!-- Node12&#45;&gt;Node15 -->
<g id="edge20" class="edge">
<title>Node12&#45;&gt;Node15</title>
<path fill="none" stroke="midnightblue" d="M421.15,-112.08C421.15,-105.01 421.15,-94.86 421.15,-85.99"/>
<polygon fill="midnightblue" stroke="midnightblue" points="424.65,-85.75 421.15,-75.75 417.65,-85.75 424.65,-85.75"/>
</g>
<!-- Node16 -->
<g id="node16" class="node">
<title>Node16</title>
<g id="a_node16"><a xlink:title=" ">
<polygon fill="none" stroke="#bfbfbf" points="694.15,-56.5 694.15,-75.5 762.15,-75.5 762.15,-56.5 694.15,-56.5"/>
<text text-anchor="middle" x="728.15" y="-63.5" font-family="Helvetica,sans-Serif" font-size="10.00">filesystem</text>
</a>
</g>
</g>
<!-- Node12&#45;&gt;Node16 -->
<g id="edge24" class="edge">
<title>Node12&#45;&gt;Node16</title>
<path fill="none" stroke="midnightblue" d="M474.6,-112.49C525.82,-104.2 605.54,-90.95 683.87,-76.19"/>
<polygon fill="midnightblue" stroke="midnightblue" points="684.73,-79.59 693.91,-74.29 683.43,-72.71 684.73,-79.59"/>
</g>
<!-- Node15&#45;&gt;Node2 -->
<g id="edge21" class="edge">
<title>Node15&#45;&gt;Node2</title>
<path fill="none" stroke="midnightblue" d="M401.03,-56.44C380.13,-47.56 347.22,-33.56 323.43,-23.45"/>
<polygon fill="midnightblue" stroke="midnightblue" points="324.75,-20.21 314.18,-19.52 322.01,-26.65 324.75,-20.21"/>
</g>
<!-- Node15&#45;&gt;Node3 -->
<g id="edge22" class="edge">
<title>Node15&#45;&gt;Node3</title>
<path fill="none" stroke="midnightblue" d="M482.63,-56.44C553.35,-46.6 669.06,-30.5 742.06,-20.34"/>
<polygon fill="midnightblue" stroke="midnightblue" points="742.64,-23.79 752.07,-18.94 741.68,-16.86 742.64,-23.79"/>
</g>
</g>
</svg>
        <g id="navigator" transform="translate(0 0)" fill="#404254">
                <rect fill="#f2f5e9" fill-opacity="0.5" stroke="#606060" stroke-width=".5" x="0" y="0" width="60" height="60"/>
                <use id="zoomplus" xlink:href="#zoomPlus" x="17" y="9" onmousedown="handleZoom(evt,'in')"/>
                <use id="zoomminus" xlink:href="#zoomMin" x="42" y="9" onmousedown="handleZoom(evt,'out')"/>
                <use id="reset" xlink:href="#resetDef" x="30" y="36" onmousedown="handleReset()"/>
                <g id="arrowUp" xlink:href="#dirArrow" transform="translate(30 24)" onmousedown="handlePan(0,-1)">
                  <use xlink:href="#rim" fill="#404040">
                        <set attributeName="fill" to="#808080" begin="arrowUp.mouseover" end="arrowUp.mouseout"/>
                  </use>
                  <path fill="none" stroke="white" stroke-width="1.5" d="M0,-3.0v7 M-2.5,-0.5L0,-3.0L2.5,-0.5"/>
                </g>
                <g id="arrowRight" xlink:href="#dirArrow" transform="rotate(90) translate(36 -43)" onmousedown="handlePan(1,0)">
                  <use xlink:href="#rim" fill="#404040">
                        <set attributeName="fill" to="#808080" begin="arrowRight.mouseover" end="arrowRight.mouseout"/>
                  </use>
                  <path fill="none" stroke="white" stroke-width="1.5" d="M0,-3.0v7 M-2.5,-0.5L0,-3.0L2.5,-0.5"/>
                </g>
                <g id="arrowDown" xlink:href="#dirArrow" transform="rotate(180) translate(-30 -48)" onmousedown="handlePan(0,1)">
                  <use xlink:href="#rim" fill="#404040">
                        <set attributeName="fill" to="#808080" begin="arrowDown.mouseover" end="arrowDown.mouseout"/>
                  </use>
                  <path fill="none" stroke="white" stroke-width="1.5" d="M0,-3.0v7 M-2.5,-0.5L0,-3.0L2.5,-0.5"/>
                </g>
                <g id="arrowLeft" xlink:href="#dirArrow" transform="rotate(270) translate(-36 17)" onmousedown="handlePan(-1,0)">
                  <use xlink:href="#rim" fill="#404040">
                        <set attributeName="fill" to="#808080" begin="arrowLeft.mouseover" end="arrowLeft.mouseout"/>
                  </use>
                  <path fill="none" stroke="white" stroke-width="1.5" d="M0,-3.0v7 M-2.5,-0.5L0,-3.0L2.5,-0.5"/>
                </g>
        </g>
        <svg viewBox="0 0 15 15" width="100%" height="30px" preserveAspectRatio="xMaxYMin meet">
         <g id="arrow_out" transform="scale(0.3 0.3)">
          <a xlink:href="_random_8h__incl_org.svg" target="_base">
           <rect id="button" ry="5" rx="5" y="6" x="6" height="38" width="38"
                fill="#f2f5e9" fill-opacity="0.5" stroke="#606060" stroke-width="1.0"/>
           <path id="arrow"
             d="M 11.500037,31.436501 C 11.940474,20.09759 22.043105,11.32322 32.158766,21.979434 L 37.068811,17.246167 C 37.068811,17.246167 37.088388,32 37.088388,32 L 22.160133,31.978069 C 22.160133,31.978069 26.997745,27.140456 26.997745,27.140456 C 18.528582,18.264221 13.291696,25.230495 11.500037,31.436501 z"
             style="fill:#404040;"/>
          </a>
         </g>
        </svg>
</svg>
