<?xml version="1.0" encoding="UTF-8" standalone="no"?>
<!DOCTYPE svg PUBLIC "-//W3C//DTD SVG 1.1//EN"
 "http://www.w3.org/Graphics/SVG/1.1/DTD/svg11.dtd">
<!-- Generated by graphviz version 2.43.0 (0)
 -->
<!-- Title: RawData.h Pages: 1 -->
<svg width="737pt" height="140pt"
 viewBox="0.00 0.00 737.00 140.00" xmlns="http://www.w3.org/2000/svg" xmlns:xlink="http://www.w3.org/1999/xlink">
<g id="graph0" class="graph" transform="scale(1 1) rotate(0) translate(4 136)">
<title>RawData.h</title>
<!-- Node1 -->
<g id="node1" class="node">
<title>Node1</title>
<g id="a_node1"><a xlink:title=" ">
<polygon fill="#bfbfbf" stroke="black" points="343.5,-112.5 343.5,-131.5 413.5,-131.5 413.5,-112.5 343.5,-112.5"/>
<text text-anchor="middle" x="378.5" y="-119.5" font-family="Helvetica,sans-Serif" font-size="10.00">RawData.h</text>
</a>
</g>
</g>
<!-- Node2 -->
<g id="node2" class="node">
<title>Node2</title>
<g id="a_node2"><a xlink:title=" ">
<polygon fill="none" stroke="#bfbfbf" points="0,-0.5 0,-19.5 89,-19.5 89,-0.5 0,-0.5"/>
<text text-anchor="middle" x="44.5" y="-7.5" font-family="Helvetica,sans-Serif" font-size="10.00">limes_export.h</text>
</a>
</g>
</g>
<!-- Node1&#45;&gt;Node2 -->
<g id="edge1" class="edge">
<title>Node1&#45;&gt;Node2</title>
<path fill="none" stroke="midnightblue" d="M349.18,-112.47C319.24,-103.67 271.47,-89.38 230.5,-76 176.7,-58.43 114.76,-36.42 77.66,-23.05"/>
<polygon fill="midnightblue" stroke="midnightblue" points="78.48,-19.62 67.88,-19.52 76.1,-26.21 78.48,-19.62"/>
</g>
<!-- Node3 -->
<g id="node3" class="node">
<title>Node3</title>
<g id="a_node3"><a xlink:href="limes__namespace_8h.html" target="_top" xlink:title=" ">
<polygon fill="none" stroke="black" points="107.5,-0.5 107.5,-19.5 221.5,-19.5 221.5,-0.5 107.5,-0.5"/>
<text text-anchor="middle" x="164.5" y="-7.5" font-family="Helvetica,sans-Serif" font-size="10.00">limes_namespace.h</text>
</a>
</g>
</g>
<!-- Node1&#45;&gt;Node3 -->
<g id="edge2" class="edge">
<title>Node1&#45;&gt;Node3</title>
<path fill="none" stroke="midnightblue" d="M354.61,-112.42C332.19,-104.08 297.93,-90.55 269.5,-76 239.24,-60.52 206.19,-39.28 185.41,-25.36"/>
<polygon fill="midnightblue" stroke="midnightblue" points="187.29,-22.4 177.04,-19.7 183.36,-28.2 187.29,-22.4"/>
</g>
<!-- Node4 -->
<g id="node4" class="node">
<title>Node4</title>
<g id="a_node4"><a xlink:title=" ">
<polygon fill="none" stroke="#bfbfbf" points="240,-0.5 240,-19.5 293,-19.5 293,-0.5 240,-0.5"/>
<text text-anchor="middle" x="266.5" y="-7.5" font-family="Helvetica,sans-Serif" font-size="10.00">cstddef</text>
</a>
</g>
</g>
<!-- Node1&#45;&gt;Node4 -->
<g id="edge3" class="edge">
<title>Node1&#45;&gt;Node4</title>
<path fill="none" stroke="midnightblue" d="M343.58,-112.46C323.28,-105.76 298.76,-94.41 283.5,-76 272.69,-62.96 268.68,-43.81 267.22,-29.66"/>
<polygon fill="midnightblue" stroke="midnightblue" points="270.71,-29.35 266.53,-19.61 263.73,-29.83 270.71,-29.35"/>
</g>
<!-- Node5 -->
<g id="node5" class="node">
<title>Node5</title>
<g id="a_node5"><a xlink:title=" ">
<polygon fill="none" stroke="#bfbfbf" points="444.5,-56.5 444.5,-75.5 504.5,-75.5 504.5,-56.5 444.5,-56.5"/>
<text text-anchor="middle" x="474.5" y="-63.5" font-family="Helvetica,sans-Serif" font-size="10.00">iostream</text>
</a>
</g>
</g>
<!-- Node1&#45;&gt;Node5 -->
<g id="edge4" class="edge">
<title>Node1&#45;&gt;Node5</title>
<path fill="none" stroke="midnightblue" d="M393.92,-112.32C409.04,-103.82 432.32,-90.73 449.97,-80.8"/>
<polygon fill="midnightblue" stroke="midnightblue" points="452.11,-83.61 459.11,-75.65 448.68,-77.51 452.11,-83.61"/>
</g>
<!-- Node6 -->
<g id="node6" class="node">
<title>Node6</title>
<g id="a_node6"><a xlink:title=" ">
<polygon fill="none" stroke="#bfbfbf" points="479.5,-0.5 479.5,-19.5 523.5,-19.5 523.5,-0.5 479.5,-0.5"/>
<text text-anchor="middle" x="501.5" y="-7.5" font-family="Helvetica,sans-Serif" font-size="10.00">string</text>
</a>
</g>
</g>
<!-- Node1&#45;&gt;Node6 -->
<g id="edge5" class="edge">
<title>Node1&#45;&gt;Node6</title>
<path fill="none" stroke="midnightblue" d="M384.91,-112.39C394.87,-99.32 415.05,-74.11 435.5,-56 448.62,-44.39 464.86,-33.28 477.95,-25"/>
<polygon fill="midnightblue" stroke="midnightblue" points="480.17,-27.74 486.84,-19.51 476.49,-21.79 480.17,-27.74"/>
</g>
<!-- Node7 -->
<g id="node7" class="node">
<title>Node7</title>
<g id="a_node7"><a xlink:href="hash_8h.html" target="_top" xlink:title=" ">
<polygon fill="none" stroke="black" points="293,-56.5 293,-75.5 388,-75.5 388,-56.5 293,-56.5"/>
<text text-anchor="middle" x="340.5" y="-63.5" font-family="Helvetica,sans-Serif" font-size="10.00">../hashes/hash.h</text>
</a>
</g>
</g>
<!-- Node1&#45;&gt;Node7 -->
<g id="edge6" class="edge">
<title>Node1&#45;&gt;Node7</title>
<path fill="none" stroke="midnightblue" d="M372.23,-112.08C366.86,-104.46 358.98,-93.26 352.42,-83.94"/>
<polygon fill="midnightblue" stroke="midnightblue" points="355.28,-81.91 346.66,-75.75 349.55,-85.94 355.28,-81.91"/>
</g>
<!-- Node10 -->
<g id="node10" class="node">
<title>Node10</title>
<g id="a_node10"><a xlink:href="preprocessor_8h.html" target="_top" xlink:title=" ">
<polygon fill="none" stroke="black" points="523,-56.5 523,-75.5 646,-75.5 646,-56.5 523,-56.5"/>
<text text-anchor="middle" x="584.5" y="-63.5" font-family="Helvetica,sans-Serif" font-size="10.00">../misc/preprocessor.h</text>
</a>
</g>
</g>
<!-- Node1&#45;&gt;Node10 -->
<g id="edge13" class="edge">
<title>Node1&#45;&gt;Node10</title>
<path fill="none" stroke="midnightblue" d="M411.14,-112.44C446.55,-103.16 503.21,-88.31 542.05,-78.13"/>
<polygon fill="midnightblue" stroke="midnightblue" points="543.23,-81.44 552.01,-75.52 541.45,-74.67 543.23,-81.44"/>
</g>
<!-- Node12 -->
<g id="node12" class="node">
<title>Node12</title>
<g id="a_node12"><a xlink:title=" ">
<polygon fill="none" stroke="#bfbfbf" points="664,-56.5 664,-75.5 729,-75.5 729,-56.5 664,-56.5"/>
<text text-anchor="middle" x="696.5" y="-63.5" font-family="Helvetica,sans-Serif" font-size="10.00">functional</text>
</a>
</g>
</g>
<!-- Node1&#45;&gt;Node12 -->
<g id="edge15" class="edge">
<title>Node1&#45;&gt;Node12</title>
<path fill="none" stroke="midnightblue" d="M413.59,-115.93C464.42,-108.45 561.73,-93.62 653.82,-76.24"/>
<polygon fill="midnightblue" stroke="midnightblue" points="654.69,-79.64 663.86,-74.33 653.38,-72.76 654.69,-79.64"/>
</g>
<!-- Node7&#45;&gt;Node2 -->
<g id="edge7" class="edge">
<title>Node7&#45;&gt;Node2</title>
<path fill="none" stroke="midnightblue" d="M293.6,-56.44C240.81,-46.81 155.14,-31.18 99.31,-21"/>
<polygon fill="midnightblue" stroke="midnightblue" points="99.71,-17.51 89.25,-19.16 98.45,-24.4 99.71,-17.51"/>
</g>
<!-- Node7&#45;&gt;Node3 -->
<g id="edge8" class="edge">
<title>Node7&#45;&gt;Node3</title>
<path fill="none" stroke="midnightblue" d="M312.61,-56.44C282.75,-47.28 235.19,-32.69 202.04,-22.52"/>
<polygon fill="midnightblue" stroke="midnightblue" points="202.84,-19.1 192.26,-19.52 200.79,-25.8 202.84,-19.1"/>
</g>
<!-- Node7&#45;&gt;Node4 -->
<g id="edge9" class="edge">
<title>Node7&#45;&gt;Node4</title>
<path fill="none" stroke="midnightblue" d="M328.61,-56.32C317.35,-48.11 300.21,-35.6 286.79,-25.81"/>
<polygon fill="midnightblue" stroke="midnightblue" points="288.75,-22.9 278.61,-19.83 284.62,-28.56 288.75,-22.9"/>
</g>
<!-- Node7&#45;&gt;Node6 -->
<g id="edge10" class="edge">
<title>Node7&#45;&gt;Node6</title>
<path fill="none" stroke="midnightblue" d="M366.01,-56.44C394.05,-47.04 439.14,-31.91 469.53,-21.72"/>
<polygon fill="midnightblue" stroke="midnightblue" points="470.85,-24.97 479.22,-18.47 468.63,-18.33 470.85,-24.97"/>
</g>
<!-- Node8 -->
<g id="node8" class="node">
<title>Node8</title>
<g id="a_node8"><a xlink:title=" ">
<polygon fill="none" stroke="#bfbfbf" points="388,-0.5 388,-19.5 461,-19.5 461,-0.5 388,-0.5"/>
<text text-anchor="middle" x="424.5" y="-7.5" font-family="Helvetica,sans-Serif" font-size="10.00">string_view</text>
</a>
</g>
</g>
<!-- Node7&#45;&gt;Node8 -->
<g id="edge11" class="edge">
<title>Node7&#45;&gt;Node8</title>
<path fill="none" stroke="midnightblue" d="M354,-56.32C367.1,-47.9 387.21,-34.97 402.61,-25.07"/>
<polygon fill="midnightblue" stroke="midnightblue" points="404.52,-28.01 411.04,-19.65 400.73,-22.12 404.52,-28.01"/>
</g>
<!-- Node9 -->
<g id="node9" class="node">
<title>Node9</title>
<g id="a_node9"><a xlink:title=" ">
<polygon fill="none" stroke="#bfbfbf" points="311.5,-0.5 311.5,-19.5 369.5,-19.5 369.5,-0.5 311.5,-0.5"/>
<text text-anchor="middle" x="340.5" y="-7.5" font-family="Helvetica,sans-Serif" font-size="10.00">memory</text>
</a>
</g>
</g>
<!-- Node7&#45;&gt;Node9 -->
<g id="edge12" class="edge">
<title>Node7&#45;&gt;Node9</title>
<path fill="none" stroke="midnightblue" d="M340.5,-56.08C340.5,-49.01 340.5,-38.86 340.5,-29.99"/>
<polygon fill="midnightblue" stroke="midnightblue" points="344,-29.75 340.5,-19.75 337,-29.75 344,-29.75"/>
</g>
<!-- Node11 -->
<g id="node11" class="node">
<title>Node11</title>
<g id="a_node11"><a xlink:title=" ">
<polygon fill="none" stroke="#bfbfbf" points="541.5,-0.5 541.5,-19.5 641.5,-19.5 641.5,-0.5 541.5,-0.5"/>
<text text-anchor="middle" x="591.5" y="-7.5" font-family="Helvetica,sans-Serif" font-size="10.00">limes_platform.h</text>
</a>
</g>
</g>
<!-- Node10&#45;&gt;Node11 -->
<g id="edge14" class="edge">
<title>Node10&#45;&gt;Node11</title>
<path fill="none" stroke="midnightblue" d="M585.66,-56.08C586.58,-48.93 587.92,-38.64 589.08,-29.69"/>
<polygon fill="midnightblue" stroke="midnightblue" points="592.55,-30.12 590.37,-19.75 585.61,-29.22 592.55,-30.12"/>
</g>
</g>
</svg>
