<?xml version="1.0" encoding="UTF-8" standalone="no"?>
<!DOCTYPE svg PUBLIC "-//W3C//DTD SVG 1.1//EN"
 "http://www.w3.org/Graphics/SVG/1.1/DTD/svg11.dtd">
<!-- Generated by graphviz version 2.43.0 (0)
 -->
<!-- Title: RealtimeSafeObject_impl.h Pages: 1 -->
<svg width="991pt" height="341pt"
 viewBox="0.00 0.00 991.00 341.00" xmlns="http://www.w3.org/2000/svg" xmlns:xlink="http://www.w3.org/1999/xlink">
<g id="graph0" class="graph" transform="scale(1 1) rotate(0) translate(4 337)">
<title>RealtimeSafeObject_impl.h</title>
<!-- Node1 -->
<g id="node1" class="node">
<title>Node1</title>
<g id="a_node1"><a xlink:title=" ">
<polygon fill="#bfbfbf" stroke="black" points="719,-302.5 719,-332.5 833,-332.5 833,-302.5 719,-302.5"/>
<text text-anchor="start" x="727" y="-320.5" font-family="Helvetica,sans-Serif" font-size="10.00">RealtimeSafeObject</text>
<text text-anchor="middle" x="776" y="-309.5" font-family="Helvetica,sans-Serif" font-size="10.00">_impl.h</text>
</a>
</g>
</g>
<!-- Node2 -->
<g id="node2" class="node">
<title>Node2</title>
<g id="a_node2"><a xlink:href="_thread_safe_object_8h.html" target="_top" xlink:title=" ">
<polygon fill="none" stroke="black" points="766,-118 766,-137 888,-137 888,-118 766,-118"/>
<text text-anchor="middle" x="827" y="-125" font-family="Helvetica,sans-Serif" font-size="10.00">../ThreadSafeObject.h</text>
</a>
</g>
</g>
<!-- Node1&#45;&gt;Node2 -->
<g id="edge1" class="edge">
<title>Node1&#45;&gt;Node2</title>
<path fill="none" stroke="midnightblue" d="M779.95,-302.36C782.77,-292.24 786.64,-278.29 790,-266 801.63,-223.43 815.03,-173.38 822.08,-146.97"/>
<polygon fill="midnightblue" stroke="midnightblue" points="825.49,-147.76 824.69,-137.19 818.73,-145.95 825.49,-147.76"/>
</g>
<!-- Node6 -->
<g id="node6" class="node">
<title>Node6</title>
<g id="a_node6"><a xlink:href="limes__namespace_8h.html" target="_top" xlink:title=" ">
<polygon fill="none" stroke="black" points="599,-56.5 599,-75.5 713,-75.5 713,-56.5 599,-56.5"/>
<text text-anchor="middle" x="656" y="-63.5" font-family="Helvetica,sans-Serif" font-size="10.00">limes_namespace.h</text>
</a>
</g>
</g>
<!-- Node1&#45;&gt;Node6 -->
<g id="edge39" class="edge">
<title>Node1&#45;&gt;Node6</title>
<path fill="none" stroke="midnightblue" d="M771.77,-302.47C761.19,-268.39 731.54,-179.14 692,-112 686.05,-101.89 677.99,-91.6 671.01,-83.42"/>
<polygon fill="midnightblue" stroke="midnightblue" points="673.5,-80.94 664.26,-75.75 668.24,-85.57 673.5,-80.94"/>
</g>
<!-- Node9 -->
<g id="node9" class="node">
<title>Node9</title>
<g id="a_node9"><a xlink:href="_realtime_safe_object_8h.html" target="_top" xlink:title=" ">
<polygon fill="none" stroke="black" points="535,-246.5 535,-265.5 667,-265.5 667,-246.5 535,-246.5"/>
<text text-anchor="middle" x="601" y="-253.5" font-family="Helvetica,sans-Serif" font-size="10.00">../RealtimeSafeObject.h</text>
</a>
</g>
</g>
<!-- Node1&#45;&gt;Node9 -->
<g id="edge8" class="edge">
<title>Node1&#45;&gt;Node9</title>
<path fill="none" stroke="midnightblue" d="M734.53,-302.4C704.42,-292.16 664.15,-278.47 635.73,-268.81"/>
<polygon fill="midnightblue" stroke="midnightblue" points="636.8,-265.48 626.21,-265.57 634.55,-272.1 636.8,-265.48"/>
</g>
<!-- Node3 -->
<g id="node3" class="node">
<title>Node3</title>
<g id="a_node3"><a xlink:title=" ">
<polygon fill="none" stroke="#bfbfbf" points="933,-56.5 933,-75.5 983,-75.5 983,-56.5 933,-56.5"/>
<text text-anchor="middle" x="958" y="-63.5" font-family="Helvetica,sans-Serif" font-size="10.00">atomic</text>
</a>
</g>
</g>
<!-- Node2&#45;&gt;Node3 -->
<g id="edge2" class="edge">
<title>Node2&#45;&gt;Node3</title>
<path fill="none" stroke="midnightblue" d="M845.77,-117.98C867.85,-107.95 904.72,-91.2 930.14,-79.65"/>
<polygon fill="midnightblue" stroke="midnightblue" points="931.61,-82.83 939.27,-75.51 928.71,-76.46 931.61,-82.83"/>
</g>
<!-- Node4 -->
<g id="node4" class="node">
<title>Node4</title>
<g id="a_node4"><a xlink:title=" ">
<polygon fill="none" stroke="#bfbfbf" points="731,-56.5 731,-75.5 773,-75.5 773,-56.5 731,-56.5"/>
<text text-anchor="middle" x="752" y="-63.5" font-family="Helvetica,sans-Serif" font-size="10.00">array</text>
</a>
</g>
</g>
<!-- Node2&#45;&gt;Node4 -->
<g id="edge3" class="edge">
<title>Node2&#45;&gt;Node4</title>
<path fill="none" stroke="midnightblue" d="M816.25,-117.98C804.45,-108.61 785.26,-93.38 770.92,-82.01"/>
<polygon fill="midnightblue" stroke="midnightblue" points="772.74,-78.98 762.73,-75.51 768.38,-84.47 772.74,-78.98"/>
</g>
<!-- Node5 -->
<g id="node5" class="node">
<title>Node5</title>
<g id="a_node5"><a xlink:title=" ">
<polygon fill="none" stroke="#bfbfbf" points="170.5,-56.5 170.5,-75.5 259.5,-75.5 259.5,-56.5 170.5,-56.5"/>
<text text-anchor="middle" x="215" y="-63.5" font-family="Helvetica,sans-Serif" font-size="10.00">limes_export.h</text>
</a>
</g>
</g>
<!-- Node2&#45;&gt;Node5 -->
<g id="edge4" class="edge">
<title>Node2&#45;&gt;Node5</title>
<path fill="none" stroke="midnightblue" d="M765.94,-121.56C645.7,-111.73 381.02,-89.61 270,-76.01"/>
<polygon fill="midnightblue" stroke="midnightblue" points="270.11,-72.5 259.75,-74.72 269.24,-79.44 270.11,-72.5"/>
</g>
<!-- Node2&#45;&gt;Node6 -->
<g id="edge5" class="edge">
<title>Node2&#45;&gt;Node6</title>
<path fill="none" stroke="midnightblue" d="M802.5,-117.98C773.04,-107.72 723.42,-90.46 690.2,-78.9"/>
<polygon fill="midnightblue" stroke="midnightblue" points="691.05,-75.49 680.45,-75.51 688.75,-82.1 691.05,-75.49"/>
</g>
<!-- Node7 -->
<g id="node7" class="node">
<title>Node7</title>
<g id="a_node7"><a xlink:href="preprocessor_8h.html" target="_top" xlink:title=" ">
<polygon fill="none" stroke="black" points="791.5,-56.5 791.5,-75.5 914.5,-75.5 914.5,-56.5 791.5,-56.5"/>
<text text-anchor="middle" x="853" y="-63.5" font-family="Helvetica,sans-Serif" font-size="10.00">../misc/preprocessor.h</text>
</a>
</g>
</g>
<!-- Node2&#45;&gt;Node7 -->
<g id="edge6" class="edge">
<title>Node2&#45;&gt;Node7</title>
<path fill="none" stroke="midnightblue" d="M830.73,-117.98C834.47,-109.4 840.36,-95.93 845.14,-84.98"/>
<polygon fill="midnightblue" stroke="midnightblue" points="848.48,-86.07 849.28,-75.51 842.07,-83.27 848.48,-86.07"/>
</g>
<!-- Node8 -->
<g id="node8" class="node">
<title>Node8</title>
<g id="a_node8"><a xlink:title=" ">
<polygon fill="none" stroke="#bfbfbf" points="803,-0.5 803,-19.5 903,-19.5 903,-0.5 803,-0.5"/>
<text text-anchor="middle" x="853" y="-7.5" font-family="Helvetica,sans-Serif" font-size="10.00">limes_platform.h</text>
</a>
</g>
</g>
<!-- Node7&#45;&gt;Node8 -->
<g id="edge7" class="edge">
<title>Node7&#45;&gt;Node8</title>
<path fill="none" stroke="midnightblue" d="M853,-56.08C853,-49.01 853,-38.86 853,-29.99"/>
<polygon fill="midnightblue" stroke="midnightblue" points="856.5,-29.75 853,-19.75 849.5,-29.75 856.5,-29.75"/>
</g>
<!-- Node9&#45;&gt;Node5 -->
<g id="edge37" class="edge">
<title>Node9&#45;&gt;Node5</title>
<path fill="none" stroke="midnightblue" d="M534.78,-248.93C483.51,-242.85 411.32,-231.23 351,-210 292.28,-189.33 264.21,-193.64 228,-143 216.11,-126.37 213.78,-102.53 213.83,-86"/>
<polygon fill="midnightblue" stroke="midnightblue" points="217.34,-86.01 214.17,-75.9 210.34,-85.78 217.34,-86.01"/>
</g>
<!-- Node9&#45;&gt;Node6 -->
<g id="edge38" class="edge">
<title>Node9&#45;&gt;Node6</title>
<path fill="none" stroke="midnightblue" d="M626.5,-246.47C642.99,-239.48 663.14,-227.79 673,-210 695.34,-169.69 676.69,-113.27 664.5,-84.86"/>
<polygon fill="midnightblue" stroke="midnightblue" points="667.69,-83.41 660.39,-75.74 661.31,-86.29 667.69,-83.41"/>
</g>
<!-- Node9&#45;&gt;Node7 -->
<g id="edge36" class="edge">
<title>Node9&#45;&gt;Node7</title>
<path fill="none" stroke="midnightblue" d="M667.08,-250.88C737.4,-242.56 845.47,-217.59 897,-143 910.98,-122.77 889.87,-97.86 872.35,-82.2"/>
<polygon fill="midnightblue" stroke="midnightblue" points="874.58,-79.5 864.69,-75.71 870.05,-84.84 874.58,-79.5"/>
</g>
<!-- Node10 -->
<g id="node10" class="node">
<title>Node10</title>
<g id="a_node10"><a xlink:href="_realtime_mutatable_object_8h.html" target="_top" xlink:title=" ">
<polygon fill="none" stroke="black" points="360,-179.5 360,-209.5 514,-209.5 514,-179.5 360,-179.5"/>
<text text-anchor="start" x="368" y="-197.5" font-family="Helvetica,sans-Serif" font-size="10.00">RealtimeSafeObject</text>
<text text-anchor="middle" x="437" y="-186.5" font-family="Helvetica,sans-Serif" font-size="10.00">/RealtimeMutatableObject.h</text>
</a>
</g>
</g>
<!-- Node9&#45;&gt;Node10 -->
<g id="edge9" class="edge">
<title>Node9&#45;&gt;Node10</title>
<path fill="none" stroke="midnightblue" d="M577.5,-246.48C553.53,-237.78 515.63,-224.03 485.23,-213"/>
<polygon fill="midnightblue" stroke="midnightblue" points="486.25,-209.64 475.65,-209.52 483.86,-216.22 486.25,-209.64"/>
</g>
<!-- Node18 -->
<g id="node18" class="node">
<title>Node18</title>
<g id="a_node18"><a xlink:href="_nonrealtime_mutatable_object_8h.html" target="_top" xlink:title=" ">
<polygon fill="none" stroke="black" points="0,-112.5 0,-142.5 170,-142.5 170,-112.5 0,-112.5"/>
<text text-anchor="start" x="8" y="-130.5" font-family="Helvetica,sans-Serif" font-size="10.00">RealtimeSafeObject</text>
<text text-anchor="middle" x="85" y="-119.5" font-family="Helvetica,sans-Serif" font-size="10.00">/NonrealtimeMutatableObject.h</text>
</a>
</g>
</g>
<!-- Node9&#45;&gt;Node18 -->
<g id="edge24" class="edge">
<title>Node9&#45;&gt;Node18</title>
<path fill="none" stroke="midnightblue" d="M534.84,-252.47C433.65,-247.82 245.67,-235.94 184,-210 152.08,-196.57 122.39,-169.37 104.02,-150.09"/>
<polygon fill="midnightblue" stroke="midnightblue" points="106.46,-147.58 97.09,-142.63 101.33,-152.34 106.46,-147.58"/>
</g>
<!-- Node21 -->
<g id="node21" class="node">
<title>Node21</title>
<g id="a_node21"><a xlink:href="_atomic_object_holder_8h.html" target="_top" xlink:title=" ">
<polygon fill="none" stroke="black" points="538,-179.5 538,-209.5 664,-209.5 664,-179.5 538,-179.5"/>
<text text-anchor="start" x="546" y="-197.5" font-family="Helvetica,sans-Serif" font-size="10.00">RealtimeSafeObject</text>
<text text-anchor="middle" x="601" y="-186.5" font-family="Helvetica,sans-Serif" font-size="10.00">/AtomicObjectHolder.h</text>
</a>
</g>
</g>
<!-- Node9&#45;&gt;Node21 -->
<g id="edge29" class="edge">
<title>Node9&#45;&gt;Node21</title>
<path fill="none" stroke="midnightblue" d="M601,-246.48C601,-239.47 601,-229.19 601,-219.7"/>
<polygon fill="midnightblue" stroke="midnightblue" points="604.5,-219.52 601,-209.52 597.5,-219.52 604.5,-219.52"/>
</g>
<!-- Node10&#45;&gt;Node5 -->
<g id="edge22" class="edge">
<title>Node10&#45;&gt;Node5</title>
<path fill="none" stroke="midnightblue" d="M359.81,-186.13C324.76,-179.48 284.61,-166.87 255,-143 236.72,-128.26 225.79,-102.89 220.09,-85.55"/>
<polygon fill="midnightblue" stroke="midnightblue" points="223.3,-84.08 217.07,-75.51 216.6,-86.09 223.3,-84.08"/>
</g>
<!-- Node10&#45;&gt;Node6 -->
<g id="edge23" class="edge">
<title>Node10&#45;&gt;Node6</title>
<path fill="none" stroke="midnightblue" d="M456.47,-179.3C470.14,-169.27 488.79,-155.45 505,-143 522.56,-129.51 524.86,-123.13 544,-112 567.67,-98.23 596.35,-86.8 618.77,-78.9"/>
<polygon fill="midnightblue" stroke="midnightblue" points="619.95,-82.19 628.27,-75.63 617.68,-75.57 619.95,-82.19"/>
</g>
<!-- Node11 -->
<g id="node11" class="node">
<title>Node11</title>
<g id="a_node11"><a xlink:href="_object_base_8h.html" target="_top" xlink:title=" ">
<polygon fill="none" stroke="black" points="552.5,-118 552.5,-137 633.5,-137 633.5,-118 552.5,-118"/>
<text text-anchor="middle" x="593" y="-125" font-family="Helvetica,sans-Serif" font-size="10.00">ObjectBase.h</text>
</a>
</g>
</g>
<!-- Node10&#45;&gt;Node11 -->
<g id="edge10" class="edge">
<title>Node10&#45;&gt;Node11</title>
<path fill="none" stroke="midnightblue" d="M470.85,-179.4C498.34,-167.94 536.75,-151.94 563.11,-140.95"/>
<polygon fill="midnightblue" stroke="midnightblue" points="564.7,-144.08 572.58,-137.01 562.01,-137.62 564.7,-144.08"/>
</g>
<!-- Node12 -->
<g id="node12" class="node">
<title>Node12</title>
<g id="a_node12"><a xlink:href="_realtime_type_traits_8h.html" target="_top" xlink:title=" ">
<polygon fill="none" stroke="black" points="368,-118 368,-137 496,-137 496,-118 368,-118"/>
<text text-anchor="middle" x="432" y="-125" font-family="Helvetica,sans-Serif" font-size="10.00">../RealtimeTypeTraits.h</text>
</a>
</g>
</g>
<!-- Node10&#45;&gt;Node12 -->
<g id="edge14" class="edge">
<title>Node10&#45;&gt;Node12</title>
<path fill="none" stroke="midnightblue" d="M435.92,-179.4C435.19,-169.96 434.23,-157.45 433.44,-147.19"/>
<polygon fill="midnightblue" stroke="midnightblue" points="436.93,-146.9 432.67,-137.19 429.95,-147.43 436.93,-146.9"/>
</g>
<!-- Node17 -->
<g id="node17" class="node">
<title>Node17</title>
<g id="a_node17"><a xlink:title=" ">
<polygon fill="none" stroke="#bfbfbf" points="264,-118 264,-137 312,-137 312,-118 264,-118"/>
<text text-anchor="middle" x="288" y="-125" font-family="Helvetica,sans-Serif" font-size="10.00">mutex</text>
</a>
</g>
</g>
<!-- Node10&#45;&gt;Node17 -->
<g id="edge21" class="edge">
<title>Node10&#45;&gt;Node17</title>
<path fill="none" stroke="midnightblue" d="M404.67,-179.4C378.53,-167.99 342.05,-152.08 316.88,-141.1"/>
<polygon fill="midnightblue" stroke="midnightblue" points="318.07,-137.8 307.5,-137.01 315.27,-144.21 318.07,-137.8"/>
</g>
<!-- Node11&#45;&gt;Node5 -->
<g id="edge11" class="edge">
<title>Node11&#45;&gt;Node5</title>
<path fill="none" stroke="midnightblue" d="M552.27,-119.69C537.4,-117.22 520.45,-114.45 505,-112 403.38,-95.88 375.45,-92.9 269.9,-76.12"/>
<polygon fill="midnightblue" stroke="midnightblue" points="270.21,-72.63 259.78,-74.51 269.11,-79.54 270.21,-72.63"/>
</g>
<!-- Node11&#45;&gt;Node6 -->
<g id="edge12" class="edge">
<title>Node11&#45;&gt;Node6</title>
<path fill="none" stroke="midnightblue" d="M602.03,-117.98C611.76,-108.78 627.46,-93.96 639.42,-82.66"/>
<polygon fill="midnightblue" stroke="midnightblue" points="642.12,-84.92 646.99,-75.51 637.32,-79.83 642.12,-84.92"/>
</g>
<!-- Node11&#45;&gt;Node7 -->
<g id="edge13" class="edge">
<title>Node11&#45;&gt;Node7</title>
<path fill="none" stroke="midnightblue" d="M630.25,-117.98C676.49,-107.39 755.4,-89.34 805.82,-77.8"/>
<polygon fill="midnightblue" stroke="midnightblue" points="806.85,-81.15 815.82,-75.51 805.29,-74.33 806.85,-81.15"/>
</g>
<!-- Node12&#45;&gt;Node5 -->
<g id="edge19" class="edge">
<title>Node12&#45;&gt;Node5</title>
<path fill="none" stroke="midnightblue" d="M400.91,-117.98C362.72,-107.5 297.83,-89.71 255.7,-78.16"/>
<polygon fill="midnightblue" stroke="midnightblue" points="256.6,-74.78 246.03,-75.51 254.75,-81.53 256.6,-74.78"/>
</g>
<!-- Node12&#45;&gt;Node6 -->
<g id="edge20" class="edge">
<title>Node12&#45;&gt;Node6</title>
<path fill="none" stroke="midnightblue" d="M464.09,-117.98C503.6,-107.48 570.78,-89.64 614.26,-78.09"/>
<polygon fill="midnightblue" stroke="midnightblue" points="615.2,-81.46 623.97,-75.51 613.4,-74.69 615.2,-81.46"/>
</g>
<!-- Node13 -->
<g id="node13" class="node">
<title>Node13</title>
<g id="a_node13"><a xlink:title=" ">
<polygon fill="none" stroke="#bfbfbf" points="493,-56.5 493,-75.5 525,-75.5 525,-56.5 493,-56.5"/>
<text text-anchor="middle" x="509" y="-63.5" font-family="Helvetica,sans-Serif" font-size="10.00">set</text>
</a>
</g>
</g>
<!-- Node12&#45;&gt;Node13 -->
<g id="edge15" class="edge">
<title>Node12&#45;&gt;Node13</title>
<path fill="none" stroke="midnightblue" d="M443.03,-117.98C455.27,-108.52 475.23,-93.1 489.99,-81.69"/>
<polygon fill="midnightblue" stroke="midnightblue" points="492.22,-84.39 497.99,-75.51 487.94,-78.85 492.22,-84.39"/>
</g>
<!-- Node14 -->
<g id="node14" class="node">
<title>Node14</title>
<g id="a_node14"><a xlink:title=" ">
<polygon fill="none" stroke="#bfbfbf" points="543,-56.5 543,-75.5 581,-75.5 581,-56.5 543,-56.5"/>
<text text-anchor="middle" x="562" y="-63.5" font-family="Helvetica,sans-Serif" font-size="10.00">map</text>
</a>
</g>
</g>
<!-- Node12&#45;&gt;Node14 -->
<g id="edge16" class="edge">
<title>Node12&#45;&gt;Node14</title>
<path fill="none" stroke="midnightblue" d="M450.63,-117.98C472.44,-107.99 508.8,-91.35 534.02,-79.81"/>
<polygon fill="midnightblue" stroke="midnightblue" points="535.77,-82.85 543.41,-75.51 532.86,-76.49 535.77,-82.85"/>
</g>
<!-- Node15 -->
<g id="node15" class="node">
<title>Node15</title>
<g id="a_node15"><a xlink:title=" ">
<polygon fill="none" stroke="#bfbfbf" points="277.5,-56.5 277.5,-75.5 370.5,-75.5 370.5,-56.5 277.5,-56.5"/>
<text text-anchor="middle" x="324" y="-63.5" font-family="Helvetica,sans-Serif" font-size="10.00">unordered_map</text>
</a>
</g>
</g>
<!-- Node12&#45;&gt;Node15 -->
<g id="edge17" class="edge">
<title>Node12&#45;&gt;Node15</title>
<path fill="none" stroke="midnightblue" d="M416.53,-117.98C398.72,-108.17 369.26,-91.93 348.37,-80.42"/>
<polygon fill="midnightblue" stroke="midnightblue" points="349.89,-77.27 339.45,-75.51 346.51,-83.4 349.89,-77.27"/>
</g>
<!-- Node16 -->
<g id="node16" class="node">
<title>Node16</title>
<g id="a_node16"><a xlink:title=" ">
<polygon fill="none" stroke="#bfbfbf" points="389,-56.5 389,-75.5 475,-75.5 475,-56.5 389,-56.5"/>
<text text-anchor="middle" x="432" y="-63.5" font-family="Helvetica,sans-Serif" font-size="10.00">unordered_set</text>
</a>
</g>
</g>
<!-- Node12&#45;&gt;Node16 -->
<g id="edge18" class="edge">
<title>Node12&#45;&gt;Node16</title>
<path fill="none" stroke="midnightblue" d="M432,-117.98C432,-109.58 432,-96.48 432,-85.66"/>
<polygon fill="midnightblue" stroke="midnightblue" points="435.5,-85.51 432,-75.51 428.5,-85.51 435.5,-85.51"/>
</g>
<!-- Node18&#45;&gt;Node5 -->
<g id="edge27" class="edge">
<title>Node18&#45;&gt;Node5</title>
<path fill="none" stroke="midnightblue" d="M115.81,-112.4C137.33,-102.55 165.84,-89.5 186.77,-79.92"/>
<polygon fill="midnightblue" stroke="midnightblue" points="188.45,-83 196.08,-75.66 185.53,-76.64 188.45,-83"/>
</g>
<!-- Node18&#45;&gt;Node6 -->
<g id="edge28" class="edge">
<title>Node18&#45;&gt;Node6</title>
<path fill="none" stroke="midnightblue" d="M170.43,-118.9C268.78,-109.93 435.43,-94.09 588.7,-76.12"/>
<polygon fill="midnightblue" stroke="midnightblue" points="589.26,-79.58 598.78,-74.93 588.44,-72.62 589.26,-79.58"/>
</g>
<!-- Node19 -->
<g id="node19" class="node">
<title>Node19</title>
<g id="a_node19"><a xlink:title=" ">
<polygon fill="none" stroke="#bfbfbf" points="80,-56.5 80,-75.5 132,-75.5 132,-56.5 80,-56.5"/>
<text text-anchor="middle" x="106" y="-63.5" font-family="Helvetica,sans-Serif" font-size="10.00">cassert</text>
</a>
</g>
</g>
<!-- Node18&#45;&gt;Node19 -->
<g id="edge25" class="edge">
<title>Node18&#45;&gt;Node19</title>
<path fill="none" stroke="midnightblue" d="M89.98,-112.4C92.84,-104.29 96.47,-94.01 99.55,-85.28"/>
<polygon fill="midnightblue" stroke="midnightblue" points="102.92,-86.25 102.94,-75.66 96.32,-83.92 102.92,-86.25"/>
</g>
<!-- Node20 -->
<g id="node20" class="node">
<title>Node20</title>
<g id="a_node20"><a xlink:title=" ">
<polygon fill="none" stroke="#bfbfbf" points="4,-56.5 4,-75.5 62,-75.5 62,-56.5 4,-56.5"/>
<text text-anchor="middle" x="33" y="-63.5" font-family="Helvetica,sans-Serif" font-size="10.00">memory</text>
</a>
</g>
</g>
<!-- Node18&#45;&gt;Node20 -->
<g id="edge26" class="edge">
<title>Node18&#45;&gt;Node20</title>
<path fill="none" stroke="midnightblue" d="M72.68,-112.4C65.04,-103.66 55.21,-92.41 47.24,-83.3"/>
<polygon fill="midnightblue" stroke="midnightblue" points="49.78,-80.88 40.57,-75.66 44.51,-85.49 49.78,-80.88"/>
</g>
<!-- Node21&#45;&gt;Node2 -->
<g id="edge32" class="edge">
<title>Node21&#45;&gt;Node2</title>
<path fill="none" stroke="midnightblue" d="M649.76,-179.48C690.97,-167.62 749.26,-150.86 787.58,-139.84"/>
<polygon fill="midnightblue" stroke="midnightblue" points="788.7,-143.16 797.35,-137.03 786.77,-136.43 788.7,-143.16"/>
</g>
<!-- Node21&#45;&gt;Node3 -->
<g id="edge34" class="edge">
<title>Node21&#45;&gt;Node3</title>
<path fill="none" stroke="midnightblue" d="M664.19,-188C739.07,-180.58 858.53,-165.63 897,-143 920.62,-129.1 938.78,-102.36 948.92,-84.59"/>
<polygon fill="midnightblue" stroke="midnightblue" points="952.01,-86.24 953.72,-75.79 945.86,-82.9 952.01,-86.24"/>
</g>
<!-- Node21&#45;&gt;Node5 -->
<g id="edge33" class="edge">
<title>Node21&#45;&gt;Node5</title>
<path fill="none" stroke="midnightblue" d="M537.76,-181.08C468.81,-167.42 367.14,-146.88 359,-143 339.33,-133.62 339.66,-123.26 321,-112 298.69,-98.54 271.61,-87.12 250.41,-79.15"/>
<polygon fill="midnightblue" stroke="midnightblue" points="251.42,-75.79 240.82,-75.63 249,-82.36 251.42,-75.79"/>
</g>
<!-- Node21&#45;&gt;Node6 -->
<g id="edge35" class="edge">
<title>Node21&#45;&gt;Node6</title>
<path fill="none" stroke="midnightblue" d="M616.17,-179.48C625.4,-170.06 636.61,-156.88 643,-143 651.38,-124.8 654.41,-101.9 655.47,-86.02"/>
<polygon fill="midnightblue" stroke="midnightblue" points="658.98,-86.02 655.95,-75.87 651.98,-85.69 658.98,-86.02"/>
</g>
<!-- Node21&#45;&gt;Node11 -->
<g id="edge30" class="edge">
<title>Node21&#45;&gt;Node11</title>
<path fill="none" stroke="midnightblue" d="M599.26,-179.4C598.1,-169.96 596.56,-157.45 595.3,-147.19"/>
<polygon fill="midnightblue" stroke="midnightblue" points="598.77,-146.69 594.07,-137.19 591.82,-147.55 598.77,-146.69"/>
</g>
<!-- Node21&#45;&gt;Node12 -->
<g id="edge31" class="edge">
<title>Node21&#45;&gt;Node12</title>
<path fill="none" stroke="midnightblue" d="M564.33,-179.4C534.28,-167.84 492.21,-151.66 463.62,-140.66"/>
<polygon fill="midnightblue" stroke="midnightblue" points="464.71,-137.33 454.12,-137.01 462.2,-143.86 464.71,-137.33"/>
</g>
</g>
</svg>
