<?xml version="1.0" encoding="UTF-8" standalone="no"?>
<!DOCTYPE svg PUBLIC "-//W3C//DTD SVG 1.1//EN"
 "http://www.w3.org/Graphics/SVG/1.1/DTD/svg11.dtd">
<!-- Generated by graphviz version 2.43.0 (0)
 -->
<!-- Title: SampleStream.h Pages: 1 -->
<svg width="301pt" height="252pt"
 viewBox="0.00 0.00 300.58 252.00" xmlns="http://www.w3.org/2000/svg" xmlns:xlink="http://www.w3.org/1999/xlink">
<g id="graph0" class="graph" transform="scale(1 1) rotate(0) translate(4 248)">
<title>SampleStream.h</title>
<!-- Node1 -->
<g id="node1" class="node">
<title>Node1</title>
<g id="a_node1"><a xlink:title=" ">
<polygon fill="#bfbfbf" stroke="black" points="53.58,-224.5 53.58,-243.5 151.58,-243.5 151.58,-224.5 53.58,-224.5"/>
<text text-anchor="middle" x="102.58" y="-231.5" font-family="Helvetica,sans-Serif" font-size="10.00">SampleStream.h</text>
</a>
</g>
</g>
<!-- Node2 -->
<g id="node2" class="node">
<title>Node2</title>
<g id="a_node2"><a xlink:href="limes__audio_8h.html" target="_top" xlink:title=" ">
<polygon fill="none" stroke="black" points="29.08,-56.5 29.08,-75.5 114.08,-75.5 114.08,-56.5 29.08,-56.5"/>
<text text-anchor="middle" x="71.58" y="-63.5" font-family="Helvetica,sans-Serif" font-size="10.00">limes_audio.h</text>
</a>
</g>
</g>
<!-- Node1&#45;&gt;Node2 -->
<g id="edge1" class="edge">
<title>Node1&#45;&gt;Node2</title>
<path fill="none" stroke="midnightblue" d="M71.71,-219.9C56.83,-212.34 39.64,-201.61 27.58,-188 9.5,-167.6 8.26,-158.66 2.58,-132 0.73,-123.31 -1.65,-119.82 2.58,-112 12.12,-94.39 31.86,-82.59 47.79,-75.5"/>
<polygon fill="midnightblue" stroke="midnightblue" points="70.55,-223.22 81.08,-224.41 73.59,-216.91 70.55,-223.22"/>
</g>
<!-- Node4 -->
<g id="node4" class="node">
<title>Node4</title>
<g id="a_node4"><a xlink:href="oscillator_8h.html" target="_top" xlink:title=" ">
<polygon fill="none" stroke="black" points="36.58,-168.5 36.58,-187.5 106.58,-187.5 106.58,-168.5 36.58,-168.5"/>
<text text-anchor="middle" x="71.58" y="-175.5" font-family="Helvetica,sans-Serif" font-size="10.00">oscillator.h</text>
</a>
</g>
</g>
<!-- Node1&#45;&gt;Node4 -->
<g id="edge3" class="edge">
<title>Node1&#45;&gt;Node4</title>
<path fill="none" stroke="midnightblue" d="M92.4,-215.27C87.11,-206.05 80.86,-195.17 76.6,-187.75"/>
<polygon fill="midnightblue" stroke="midnightblue" points="89.45,-217.15 97.46,-224.08 95.52,-213.67 89.45,-217.15"/>
</g>
<!-- Node6 -->
<g id="node6" class="node">
<title>Node6</title>
<g id="a_node6"><a xlink:href="_white_noise_generator_8h.html" target="_top" xlink:title=" ">
<polygon fill="none" stroke="black" points="143.58,-112.5 143.58,-131.5 273.58,-131.5 273.58,-112.5 143.58,-112.5"/>
<text text-anchor="middle" x="208.58" y="-119.5" font-family="Helvetica,sans-Serif" font-size="10.00">WhiteNoiseGenerator.h</text>
</a>
</g>
</g>
<!-- Node1&#45;&gt;Node6 -->
<g id="edge7" class="edge">
<title>Node1&#45;&gt;Node6</title>
<path fill="none" stroke="midnightblue" d="M118.1,-216.9C140.89,-193.25 182.61,-149.95 200.3,-131.59"/>
<polygon fill="midnightblue" stroke="midnightblue" points="115.32,-214.74 110.9,-224.37 120.36,-219.6 115.32,-214.74"/>
</g>
<!-- Node7 -->
<g id="node7" class="node">
<title>Node7</title>
<g id="a_node7"><a xlink:href="shifter_8h.html" target="_top" xlink:title=" ">
<polygon fill="none" stroke="black" points="236.58,-168.5 236.58,-187.5 292.58,-187.5 292.58,-168.5 236.58,-168.5"/>
<text text-anchor="middle" x="264.58" y="-175.5" font-family="Helvetica,sans-Serif" font-size="10.00">shifter.h</text>
</a>
</g>
</g>
<!-- Node1&#45;&gt;Node7 -->
<g id="edge9" class="edge">
<title>Node1&#45;&gt;Node7</title>
<path fill="none" stroke="midnightblue" d="M138.06,-221.17C168.57,-211 211.82,-196.59 239.03,-187.52"/>
<polygon fill="midnightblue" stroke="midnightblue" points="136.63,-217.96 128.25,-224.44 138.84,-224.6 136.63,-217.96"/>
</g>
<!-- Node3 -->
<g id="node3" class="node">
<title>Node3</title>
<g id="a_node3"><a xlink:href="limes_8h.html" target="_top" xlink:title=" ">
<polygon fill="none" stroke="black" points="45.08,-0.5 45.08,-19.5 98.08,-19.5 98.08,-0.5 45.08,-0.5"/>
<text text-anchor="middle" x="71.58" y="-7.5" font-family="Helvetica,sans-Serif" font-size="10.00">limes.h</text>
</a>
</g>
</g>
<!-- Node2&#45;&gt;Node3 -->
<g id="edge2" class="edge">
<title>Node2&#45;&gt;Node3</title>
<path fill="none" stroke="midnightblue" d="M71.58,-45.8C71.58,-36.91 71.58,-26.78 71.58,-19.75"/>
<polygon fill="midnightblue" stroke="midnightblue" points="68.08,-46.08 71.58,-56.08 75.08,-46.08 68.08,-46.08"/>
</g>
<!-- Node4&#45;&gt;Node2 -->
<g id="edge4" class="edge">
<title>Node4&#45;&gt;Node2</title>
<path fill="none" stroke="midnightblue" d="M41.76,-163.61C29.1,-156.23 15.66,-145.75 8.58,-132 -3.79,-107.97 28.9,-86.89 51.69,-75.64"/>
<polygon fill="midnightblue" stroke="midnightblue" points="40.27,-166.78 50.73,-168.43 43.58,-160.61 40.27,-166.78"/>
</g>
<!-- Node5 -->
<g id="node5" class="node">
<title>Node5</title>
<g id="a_node5"><a xlink:href="basic__oscillators_8h.html" target="_top" xlink:title=" ">
<polygon fill="none" stroke="black" points="18.08,-112.5 18.08,-131.5 125.08,-131.5 125.08,-112.5 18.08,-112.5"/>
<text text-anchor="middle" x="71.58" y="-119.5" font-family="Helvetica,sans-Serif" font-size="10.00">basic_oscillators.h</text>
</a>
</g>
</g>
<!-- Node4&#45;&gt;Node5 -->
<g id="edge5" class="edge">
<title>Node4&#45;&gt;Node5</title>
<path fill="none" stroke="midnightblue" d="M71.58,-157.8C71.58,-148.91 71.58,-138.78 71.58,-131.75"/>
<polygon fill="midnightblue" stroke="midnightblue" points="68.08,-158.08 71.58,-168.08 75.08,-158.08 68.08,-158.08"/>
</g>
<!-- Node5&#45;&gt;Node2 -->
<g id="edge6" class="edge">
<title>Node5&#45;&gt;Node2</title>
<path fill="none" stroke="midnightblue" d="M71.58,-101.8C71.58,-92.91 71.58,-82.78 71.58,-75.75"/>
<polygon fill="midnightblue" stroke="midnightblue" points="68.08,-102.08 71.58,-112.08 75.08,-102.08 68.08,-102.08"/>
</g>
<!-- Node6&#45;&gt;Node2 -->
<g id="edge8" class="edge">
<title>Node6&#45;&gt;Node2</title>
<path fill="none" stroke="midnightblue" d="M177.56,-108.77C151.82,-98.63 115.89,-84.47 93.19,-75.52"/>
<polygon fill="midnightblue" stroke="midnightblue" points="176.29,-112.03 186.87,-112.44 178.85,-105.52 176.29,-112.03"/>
</g>
<!-- Node7&#45;&gt;Node2 -->
<g id="edge10" class="edge">
<title>Node7&#45;&gt;Node2</title>
<path fill="none" stroke="midnightblue" d="M276.8,-160.08C285.45,-145.87 293.7,-125.74 282.58,-112 261.85,-86.38 169.89,-74.72 114.44,-69.93"/>
<polygon fill="midnightblue" stroke="midnightblue" points="273.87,-158.17 271.27,-168.44 279.71,-162.04 273.87,-158.17"/>
</g>
</g>
</svg>
