<?xml version="1.0" encoding="UTF-8" standalone="no"?>
<!DOCTYPE svg PUBLIC "-//W3C//DTD SVG 1.1//EN"
 "http://www.w3.org/Graphics/SVG/1.1/DTD/svg11.dtd">
<!-- Generated by graphviz version 2.43.0 (0)
 -->
<!-- Title: TypeList_impl.h Pages: 1 -->
<svg width="733pt" height="140pt"
 viewBox="0.00 0.00 733.00 140.00" xmlns="http://www.w3.org/2000/svg" xmlns:xlink="http://www.w3.org/1999/xlink">
<g id="graph0" class="graph" transform="scale(1 1) rotate(0) translate(4 136)">
<title>TypeList_impl.h</title>
<!-- Node1 -->
<g id="node1" class="node">
<title>Node1</title>
<g id="a_node1"><a xlink:title=" ">
<polygon fill="#bfbfbf" stroke="black" points="228.5,-112.5 228.5,-131.5 320.5,-131.5 320.5,-112.5 228.5,-112.5"/>
<text text-anchor="middle" x="274.5" y="-119.5" font-family="Helvetica,sans-Serif" font-size="10.00">TypeList_impl.h</text>
</a>
</g>
</g>
<!-- Node2 -->
<g id="node2" class="node">
<title>Node2</title>
<g id="a_node2"><a xlink:title=" ">
<polygon fill="none" stroke="#bfbfbf" points="0,-0.5 0,-19.5 89,-19.5 89,-0.5 0,-0.5"/>
<text text-anchor="middle" x="44.5" y="-7.5" font-family="Helvetica,sans-Serif" font-size="10.00">limes_export.h</text>
</a>
</g>
</g>
<!-- Node1&#45;&gt;Node2 -->
<g id="edge1" class="edge">
<title>Node1&#45;&gt;Node2</title>
<path fill="none" stroke="midnightblue" d="M256.45,-112.37C216.23,-93.13 119.04,-46.65 71.54,-23.93"/>
<polygon fill="midnightblue" stroke="midnightblue" points="73,-20.75 62.46,-19.59 69.98,-27.06 73,-20.75"/>
</g>
<!-- Node3 -->
<g id="node3" class="node">
<title>Node3</title>
<g id="a_node3"><a xlink:href="limes__namespace_8h.html" target="_top" xlink:title=" ">
<polygon fill="none" stroke="black" points="107.5,-0.5 107.5,-19.5 221.5,-19.5 221.5,-0.5 107.5,-0.5"/>
<text text-anchor="middle" x="164.5" y="-7.5" font-family="Helvetica,sans-Serif" font-size="10.00">limes_namespace.h</text>
</a>
</g>
</g>
<!-- Node1&#45;&gt;Node3 -->
<g id="edge2" class="edge">
<title>Node1&#45;&gt;Node3</title>
<path fill="none" stroke="midnightblue" d="M265.87,-112.37C247.39,-93.89 203.79,-50.29 180.24,-26.74"/>
<polygon fill="midnightblue" stroke="midnightblue" points="182.64,-24.19 173.09,-19.59 177.69,-29.14 182.64,-24.19"/>
</g>
<!-- Node4 -->
<g id="node4" class="node">
<title>Node4</title>
<g id="a_node4"><a xlink:title=" ">
<polygon fill="none" stroke="#bfbfbf" points="240,-0.5 240,-19.5 309,-19.5 309,-0.5 240,-0.5"/>
<text text-anchor="middle" x="274.5" y="-7.5" font-family="Helvetica,sans-Serif" font-size="10.00">type_traits</text>
</a>
</g>
</g>
<!-- Node1&#45;&gt;Node4 -->
<g id="edge3" class="edge">
<title>Node1&#45;&gt;Node4</title>
<path fill="none" stroke="midnightblue" d="M274.5,-112.37C274.5,-94.62 274.5,-53.67 274.5,-29.6"/>
<polygon fill="midnightblue" stroke="midnightblue" points="278,-29.59 274.5,-19.59 271,-29.59 278,-29.59"/>
</g>
<!-- Node5 -->
<g id="node5" class="node">
<title>Node5</title>
<g id="a_node5"><a xlink:title=" ">
<polygon fill="none" stroke="#bfbfbf" points="403,-56.5 403,-75.5 456,-75.5 456,-56.5 403,-56.5"/>
<text text-anchor="middle" x="429.5" y="-63.5" font-family="Helvetica,sans-Serif" font-size="10.00">cstddef</text>
</a>
</g>
</g>
<!-- Node1&#45;&gt;Node5 -->
<g id="edge4" class="edge">
<title>Node1&#45;&gt;Node5</title>
<path fill="none" stroke="midnightblue" d="M299.06,-112.44C325.02,-103.4 366.17,-89.06 395.3,-78.92"/>
<polygon fill="midnightblue" stroke="midnightblue" points="396.76,-82.11 405.05,-75.52 394.46,-75.5 396.76,-82.11"/>
</g>
<!-- Node6 -->
<g id="node6" class="node">
<title>Node6</title>
<g id="a_node6"><a xlink:href="_type_traits_8h.html" target="_top" xlink:title=" ">
<polygon fill="none" stroke="black" points="310.5,-56.5 310.5,-75.5 384.5,-75.5 384.5,-56.5 310.5,-56.5"/>
<text text-anchor="middle" x="347.5" y="-63.5" font-family="Helvetica,sans-Serif" font-size="10.00">TypeTraits.h</text>
</a>
</g>
</g>
<!-- Node1&#45;&gt;Node6 -->
<g id="edge5" class="edge">
<title>Node1&#45;&gt;Node6</title>
<path fill="none" stroke="midnightblue" d="M286.23,-112.32C297.34,-104.11 314.24,-91.6 327.48,-81.81"/>
<polygon fill="midnightblue" stroke="midnightblue" points="329.6,-84.59 335.56,-75.83 325.44,-78.97 329.6,-84.59"/>
</g>
<!-- Node6&#45;&gt;Node2 -->
<g id="edge9" class="edge">
<title>Node6&#45;&gt;Node2</title>
<path fill="none" stroke="midnightblue" d="M310.35,-58.38C257.43,-48.95 160.02,-31.59 98.94,-20.7"/>
<polygon fill="midnightblue" stroke="midnightblue" points="99.56,-17.26 89.1,-18.95 98.33,-24.15 99.56,-17.26"/>
</g>
<!-- Node6&#45;&gt;Node3 -->
<g id="edge11" class="edge">
<title>Node6&#45;&gt;Node3</title>
<path fill="none" stroke="midnightblue" d="M318.5,-56.44C287.32,-47.24 237.57,-32.56 203.09,-22.39"/>
<polygon fill="midnightblue" stroke="midnightblue" points="203.94,-18.99 193.36,-19.52 201.96,-25.7 203.94,-18.99"/>
</g>
<!-- Node6&#45;&gt;Node4 -->
<g id="edge6" class="edge">
<title>Node6&#45;&gt;Node4</title>
<path fill="none" stroke="midnightblue" d="M335.77,-56.32C324.66,-48.11 307.76,-35.6 294.52,-25.81"/>
<polygon fill="midnightblue" stroke="midnightblue" points="296.56,-22.97 286.44,-19.83 292.4,-28.59 296.56,-22.97"/>
</g>
<!-- Node7 -->
<g id="node7" class="node">
<title>Node7</title>
<g id="a_node7"><a xlink:title=" ">
<polygon fill="none" stroke="#bfbfbf" points="404,-0.5 404,-19.5 461,-19.5 461,-0.5 404,-0.5"/>
<text text-anchor="middle" x="432.5" y="-7.5" font-family="Helvetica,sans-Serif" font-size="10.00">typeinfo</text>
</a>
</g>
</g>
<!-- Node6&#45;&gt;Node7 -->
<g id="edge7" class="edge">
<title>Node6&#45;&gt;Node7</title>
<path fill="none" stroke="midnightblue" d="M361.16,-56.32C374.42,-47.9 394.77,-34.97 410.35,-25.07"/>
<polygon fill="midnightblue" stroke="midnightblue" points="412.31,-27.97 418.88,-19.65 408.56,-22.06 412.31,-27.97"/>
</g>
<!-- Node8 -->
<g id="node8" class="node">
<title>Node8</title>
<g id="a_node8"><a xlink:title=" ">
<polygon fill="none" stroke="#bfbfbf" points="479.5,-0.5 479.5,-19.5 523.5,-19.5 523.5,-0.5 479.5,-0.5"/>
<text text-anchor="middle" x="501.5" y="-7.5" font-family="Helvetica,sans-Serif" font-size="10.00">string</text>
</a>
</g>
</g>
<!-- Node6&#45;&gt;Node8 -->
<g id="edge8" class="edge">
<title>Node6&#45;&gt;Node8</title>
<path fill="none" stroke="midnightblue" d="M371.9,-56.44C398.3,-47.19 440.51,-32.39 469.54,-22.21"/>
<polygon fill="midnightblue" stroke="midnightblue" points="470.93,-25.43 479.21,-18.82 468.62,-18.82 470.93,-25.43"/>
</g>
<!-- Node9 -->
<g id="node9" class="node">
<title>Node9</title>
<g id="a_node9"><a xlink:title=" ">
<polygon fill="none" stroke="#bfbfbf" points="541.5,-0.5 541.5,-19.5 641.5,-19.5 641.5,-0.5 541.5,-0.5"/>
<text text-anchor="middle" x="591.5" y="-7.5" font-family="Helvetica,sans-Serif" font-size="10.00">limes_platform.h</text>
</a>
</g>
</g>
<!-- Node6&#45;&gt;Node9 -->
<g id="edge10" class="edge">
<title>Node6&#45;&gt;Node9</title>
<path fill="none" stroke="midnightblue" d="M384.56,-56.8C426.91,-47.43 496.38,-32.05 543.01,-21.73"/>
<polygon fill="midnightblue" stroke="midnightblue" points="543.87,-25.12 552.88,-19.55 542.36,-18.29 543.87,-25.12"/>
</g>
<!-- Node10 -->
<g id="node10" class="node">
<title>Node10</title>
<g id="a_node10"><a xlink:title=" ">
<polygon fill="none" stroke="#bfbfbf" points="660,-0.5 660,-19.5 725,-19.5 725,-0.5 660,-0.5"/>
<text text-anchor="middle" x="692.5" y="-7.5" font-family="Helvetica,sans-Serif" font-size="10.00">exception</text>
</a>
</g>
</g>
<!-- Node6&#45;&gt;Node10 -->
<g id="edge12" class="edge">
<title>Node6&#45;&gt;Node10</title>
<path fill="none" stroke="midnightblue" d="M384.67,-57.71C387.99,-57.11 391.3,-56.53 394.5,-56 504.75,-37.7 535.69,-39.91 650.13,-19.94"/>
<polygon fill="midnightblue" stroke="midnightblue" points="650.75,-23.39 659.99,-18.21 649.53,-16.5 650.75,-23.39"/>
</g>
<!-- Node11 -->
<g id="node11" class="node">
<title>Node11</title>
<g id="a_node11"><a xlink:title=" ">
<polygon fill="none" stroke="#bfbfbf" points="327.5,-0.5 327.5,-19.5 385.5,-19.5 385.5,-0.5 327.5,-0.5"/>
<text text-anchor="middle" x="356.5" y="-7.5" font-family="Helvetica,sans-Serif" font-size="10.00">cxxabi.h</text>
</a>
</g>
</g>
<!-- Node6&#45;&gt;Node11 -->
<g id="edge13" class="edge">
<title>Node6&#45;&gt;Node11</title>
<path fill="none" stroke="midnightblue" d="M348.99,-56.08C350.18,-48.93 351.89,-38.64 353.38,-29.69"/>
<polygon fill="midnightblue" stroke="midnightblue" points="356.85,-30.19 355.04,-19.75 349.95,-29.04 356.85,-30.19"/>
</g>
</g>
</svg>
