<?xml version="1.0" encoding="UTF-8" standalone="no"?>
<!DOCTYPE svg PUBLIC "-//W3C//DTD SVG 1.1//EN"
 "http://www.w3.org/Graphics/SVG/1.1/DTD/svg11.dtd">
<!-- Generated by graphviz version 2.43.0 (0)
 -->
<!-- Title: angle.h Pages: 1 -->
<svg width="769pt" height="263pt"
 viewBox="0.00 0.00 769.26 263.00" xmlns="http://www.w3.org/2000/svg" xmlns:xlink="http://www.w3.org/1999/xlink">
<g id="graph0" class="graph" transform="scale(1 1) rotate(0) translate(4 259)">
<title>angle.h</title>
<!-- Node1 -->
<g id="node1" class="node">
<title>Node1</title>
<g id="a_node1"><a xlink:title=" ">
<polygon fill="#bfbfbf" stroke="black" points="91,-235.5 91,-254.5 144,-254.5 144,-235.5 91,-235.5"/>
<text text-anchor="middle" x="117.5" y="-242.5" font-family="Helvetica,sans-Serif" font-size="10.00">angle.h</text>
</a>
</g>
</g>
<!-- Node2 -->
<g id="node2" class="node">
<title>Node2</title>
<g id="a_node2"><a xlink:title=" ">
<polygon fill="none" stroke="#bfbfbf" points="0,-0.5 0,-19.5 89,-19.5 89,-0.5 0,-0.5"/>
<text text-anchor="middle" x="44.5" y="-7.5" font-family="Helvetica,sans-Serif" font-size="10.00">limes_export.h</text>
</a>
</g>
</g>
<!-- Node1&#45;&gt;Node2 -->
<g id="edge1" class="edge">
<title>Node1&#45;&gt;Node2</title>
<path fill="none" stroke="midnightblue" d="M90.66,-239.08C68.66,-233.48 38.89,-221.95 24.5,-199 -9.46,-144.84 19.83,-64.26 35.79,-28.82"/>
<polygon fill="midnightblue" stroke="midnightblue" points="38.98,-30.26 40.05,-19.72 32.64,-27.29 38.98,-30.26"/>
</g>
<!-- Node3 -->
<g id="node3" class="node">
<title>Node3</title>
<g id="a_node3"><a xlink:href="limes__namespace_8h.html" target="_top" xlink:title=" ">
<polygon fill="none" stroke="black" points="194.5,-0.5 194.5,-19.5 308.5,-19.5 308.5,-0.5 194.5,-0.5"/>
<text text-anchor="middle" x="251.5" y="-7.5" font-family="Helvetica,sans-Serif" font-size="10.00">limes_namespace.h</text>
</a>
</g>
</g>
<!-- Node1&#45;&gt;Node3 -->
<g id="edge2" class="edge">
<title>Node1&#45;&gt;Node3</title>
<path fill="none" stroke="midnightblue" d="M112.05,-235.43C94.54,-206.71 43.33,-112.52 86.5,-56 98.71,-40.01 144.23,-28.34 184.37,-20.9"/>
<polygon fill="midnightblue" stroke="midnightblue" points="185.21,-24.3 194.44,-19.09 183.98,-17.41 185.21,-24.3"/>
</g>
<!-- Node4 -->
<g id="node4" class="node">
<title>Node4</title>
<g id="a_node4"><a xlink:title=" ">
<polygon fill="none" stroke="#bfbfbf" points="614.5,-0.5 614.5,-19.5 714.5,-19.5 714.5,-0.5 614.5,-0.5"/>
<text text-anchor="middle" x="664.5" y="-7.5" font-family="Helvetica,sans-Serif" font-size="10.00">limes_platform.h</text>
</a>
</g>
</g>
<!-- Node1&#45;&gt;Node4 -->
<g id="edge3" class="edge">
<title>Node1&#45;&gt;Node4</title>
<path fill="none" stroke="midnightblue" d="M144.03,-244.14C254.45,-244.13 675.52,-237.79 756.5,-143 766.12,-131.74 758.5,-67.76 750.5,-56 740.04,-40.63 722.61,-30.15 706.18,-23.2"/>
<polygon fill="midnightblue" stroke="midnightblue" points="707.26,-19.87 696.67,-19.5 704.73,-26.39 707.26,-19.87"/>
</g>
<!-- Node5 -->
<g id="node5" class="node">
<title>Node5</title>
<g id="a_node5"><a xlink:href="math_helpers_8h.html" target="_top" xlink:title=" ">
<polygon fill="none" stroke="black" points="143,-179.5 143,-198.5 250,-198.5 250,-179.5 143,-179.5"/>
<text text-anchor="middle" x="196.5" y="-186.5" font-family="Helvetica,sans-Serif" font-size="10.00">../../mathHelpers.h</text>
</a>
</g>
</g>
<!-- Node1&#45;&gt;Node5 -->
<g id="edge4" class="edge">
<title>Node1&#45;&gt;Node5</title>
<path fill="none" stroke="midnightblue" d="M130.19,-235.32C142.4,-226.98 161.08,-214.21 175.5,-204.35"/>
<polygon fill="midnightblue" stroke="midnightblue" points="177.56,-207.19 183.84,-198.65 173.61,-201.41 177.56,-207.19"/>
</g>
<!-- Node5&#45;&gt;Node2 -->
<g id="edge8" class="edge">
<title>Node5&#45;&gt;Node2</title>
<path fill="none" stroke="midnightblue" d="M153.74,-179.46C131.28,-172.94 104.89,-161.78 87.5,-143 57.7,-110.83 48.54,-57.72 45.73,-29.68"/>
<polygon fill="midnightblue" stroke="midnightblue" points="49.21,-29.31 44.9,-19.63 42.24,-29.89 49.21,-29.31"/>
</g>
<!-- Node5&#45;&gt;Node3 -->
<g id="edge5" class="edge">
<title>Node5&#45;&gt;Node3</title>
<path fill="none" stroke="midnightblue" d="M196.69,-179.39C196.56,-164.05 194.17,-131.75 177.5,-112 149.03,-78.28 68.97,-91.27 95.5,-56 106.93,-40.8 149.66,-29.12 187.51,-21.48"/>
<polygon fill="midnightblue" stroke="midnightblue" points="188.37,-24.87 197.51,-19.52 187.03,-18 188.37,-24.87"/>
</g>
<!-- Node6 -->
<g id="node6" class="node">
<title>Node6</title>
<g id="a_node6"><a xlink:title=" ">
<polygon fill="none" stroke="#bfbfbf" points="700,-118 700,-137 747,-137 747,-118 700,-118"/>
<text text-anchor="middle" x="723.5" y="-125" font-family="Helvetica,sans-Serif" font-size="10.00">cmath</text>
</a>
</g>
</g>
<!-- Node5&#45;&gt;Node6 -->
<g id="edge6" class="edge">
<title>Node5&#45;&gt;Node6</title>
<path fill="none" stroke="midnightblue" d="M250.25,-188.93C342.24,-189.24 535.06,-184.29 691.5,-143 693.66,-142.43 695.85,-141.73 698.02,-140.94"/>
<polygon fill="midnightblue" stroke="midnightblue" points="699.38,-144.17 707.28,-137.12 696.7,-137.7 699.38,-144.17"/>
</g>
<!-- Node7 -->
<g id="node7" class="node">
<title>Node7</title>
<g id="a_node7"><a xlink:title=" ">
<polygon fill="none" stroke="#bfbfbf" points="105,-56.5 105,-75.5 174,-75.5 174,-56.5 105,-56.5"/>
<text text-anchor="middle" x="139.5" y="-63.5" font-family="Helvetica,sans-Serif" font-size="10.00">type_traits</text>
</a>
</g>
</g>
<!-- Node5&#45;&gt;Node7 -->
<g id="edge7" class="edge">
<title>Node5&#45;&gt;Node7</title>
<path fill="none" stroke="midnightblue" d="M150.85,-179.43C130.26,-173.04 107.83,-162 95.5,-143 88,-131.44 90.3,-124.76 95.5,-112 100.3,-100.23 109.83,-89.86 118.79,-82.05"/>
<polygon fill="midnightblue" stroke="midnightblue" points="121.15,-84.64 126.72,-75.63 116.75,-79.2 121.15,-84.64"/>
</g>
<!-- Node8 -->
<g id="node8" class="node">
<title>Node8</title>
<g id="a_node8"><a xlink:title=" ">
<polygon fill="none" stroke="#bfbfbf" points="104.5,-118 104.5,-137 168.5,-137 168.5,-118 104.5,-118"/>
<text text-anchor="middle" x="136.5" y="-125" font-family="Helvetica,sans-Serif" font-size="10.00">algorithm</text>
</a>
</g>
</g>
<!-- Node5&#45;&gt;Node8 -->
<g id="edge9" class="edge">
<title>Node5&#45;&gt;Node8</title>
<path fill="none" stroke="midnightblue" d="M187.9,-179.48C178.64,-170.28 163.68,-155.46 152.29,-144.16"/>
<polygon fill="midnightblue" stroke="midnightblue" points="154.65,-141.57 145.08,-137.01 149.72,-146.54 154.65,-141.57"/>
</g>
<!-- Node9 -->
<g id="node9" class="node">
<title>Node9</title>
<g id="a_node9"><a xlink:href="limes__assert_8h.html" target="_top" xlink:title=" ">
<polygon fill="none" stroke="black" points="331.5,-118 331.5,-137 467.5,-137 467.5,-118 331.5,-118"/>
<text text-anchor="middle" x="399.5" y="-125" font-family="Helvetica,sans-Serif" font-size="10.00">../system/limes_assert.h</text>
</a>
</g>
</g>
<!-- Node5&#45;&gt;Node9 -->
<g id="edge10" class="edge">
<title>Node5&#45;&gt;Node9</title>
<path fill="none" stroke="midnightblue" d="M225.58,-179.48C261.08,-169.07 321.25,-151.44 360.67,-139.88"/>
<polygon fill="midnightblue" stroke="midnightblue" points="361.86,-143.18 370.47,-137.01 359.89,-136.46 361.86,-143.18"/>
</g>
<!-- Node10 -->
<g id="node10" class="node">
<title>Node10</title>
<g id="a_node10"><a xlink:href="preprocessor_8h.html" target="_top" xlink:title=" ">
<polygon fill="none" stroke="black" points="603,-56.5 603,-75.5 726,-75.5 726,-56.5 603,-56.5"/>
<text text-anchor="middle" x="664.5" y="-63.5" font-family="Helvetica,sans-Serif" font-size="10.00">../misc/preprocessor.h</text>
</a>
</g>
</g>
<!-- Node5&#45;&gt;Node10 -->
<g id="edge26" class="edge">
<title>Node5&#45;&gt;Node10</title>
<path fill="none" stroke="midnightblue" d="M250.16,-183C307.1,-176.86 399.31,-164.51 476.5,-143 535.86,-126.46 601.94,-97.01 637.8,-80.03"/>
<polygon fill="midnightblue" stroke="midnightblue" points="639.57,-83.07 647.08,-75.6 636.55,-76.75 639.57,-83.07"/>
</g>
<!-- Node14 -->
<g id="node14" class="node">
<title>Node14</title>
<g id="a_node14"><a xlink:href="compiler__defs_8h.html" target="_top" xlink:title=" ">
<polygon fill="none" stroke="black" points="575,-112.5 575,-142.5 682,-142.5 682,-112.5 575,-112.5"/>
<text text-anchor="start" x="583" y="-130.5" font-family="Helvetica,sans-Serif" font-size="10.00">../system/compiler</text>
<text text-anchor="middle" x="628.5" y="-119.5" font-family="Helvetica,sans-Serif" font-size="10.00">_defs.h</text>
</a>
</g>
</g>
<!-- Node5&#45;&gt;Node14 -->
<g id="edge23" class="edge">
<title>Node5&#45;&gt;Node14</title>
<path fill="none" stroke="midnightblue" d="M250.24,-180.77C315.56,-171.95 429.14,-156.56 526.5,-143 538.87,-141.28 552.08,-139.42 564.76,-137.62"/>
<polygon fill="midnightblue" stroke="midnightblue" points="565.37,-141.07 574.78,-136.2 564.38,-134.14 565.37,-141.07"/>
</g>
<!-- Node9&#45;&gt;Node2 -->
<g id="edge11" class="edge">
<title>Node9&#45;&gt;Node2</title>
<path fill="none" stroke="midnightblue" d="M361.28,-117.97C324.74,-109.29 268.42,-94.48 221.5,-76 203.38,-68.86 200.48,-63.49 182.5,-56 150.49,-42.67 113.02,-30.67 85.21,-22.42"/>
<polygon fill="midnightblue" stroke="midnightblue" points="86.01,-19.01 75.43,-19.55 84.04,-25.73 86.01,-19.01"/>
</g>
<!-- Node9&#45;&gt;Node3 -->
<g id="edge12" class="edge">
<title>Node9&#45;&gt;Node3</title>
<path fill="none" stroke="midnightblue" d="M408.82,-117.99C423.02,-103.99 446.89,-75.71 431.5,-56 417.45,-38 363.75,-26.14 318.63,-19.13"/>
<polygon fill="midnightblue" stroke="midnightblue" points="318.97,-15.64 308.56,-17.63 317.94,-22.57 318.97,-15.64"/>
</g>
<!-- Node9&#45;&gt;Node4 -->
<g id="edge21" class="edge">
<title>Node9&#45;&gt;Node4</title>
<path fill="none" stroke="midnightblue" d="M433.18,-117.96C465.34,-109.26 514.79,-94.44 555.5,-76 587.81,-61.36 622.59,-39.43 643.96,-25.16"/>
<polygon fill="midnightblue" stroke="midnightblue" points="645.92,-28.06 652.25,-19.56 642,-22.26 645.92,-28.06"/>
</g>
<!-- Node9&#45;&gt;Node7 -->
<g id="edge15" class="edge">
<title>Node9&#45;&gt;Node7</title>
<path fill="none" stroke="midnightblue" d="M362.25,-117.98C315.22,-107.21 234.4,-88.72 184.13,-77.21"/>
<polygon fill="midnightblue" stroke="midnightblue" points="184.72,-73.76 174.19,-74.94 183.16,-80.58 184.72,-73.76"/>
</g>
<!-- Node9&#45;&gt;Node10 -->
<g id="edge13" class="edge">
<title>Node9&#45;&gt;Node10</title>
<path fill="none" stroke="midnightblue" d="M437.47,-117.98C484.7,-107.37 565.36,-89.26 616.74,-77.72"/>
<polygon fill="midnightblue" stroke="midnightblue" points="617.61,-81.11 626.6,-75.51 616.08,-74.28 617.61,-81.11"/>
</g>
<!-- Node11 -->
<g id="node11" class="node">
<title>Node11</title>
<g id="a_node11"><a xlink:title=" ">
<polygon fill="none" stroke="#bfbfbf" points="377,-56.5 377,-75.5 422,-75.5 422,-56.5 377,-56.5"/>
<text text-anchor="middle" x="399.5" y="-63.5" font-family="Helvetica,sans-Serif" font-size="10.00">utility</text>
</a>
</g>
</g>
<!-- Node9&#45;&gt;Node11 -->
<g id="edge16" class="edge">
<title>Node9&#45;&gt;Node11</title>
<path fill="none" stroke="midnightblue" d="M399.5,-117.98C399.5,-109.58 399.5,-96.48 399.5,-85.66"/>
<polygon fill="midnightblue" stroke="midnightblue" points="403,-85.51 399.5,-75.51 396,-85.51 403,-85.51"/>
</g>
<!-- Node12 -->
<g id="node12" class="node">
<title>Node12</title>
<g id="a_node12"><a xlink:href="_ignore_unused_8h.html" target="_top" xlink:title=" ">
<polygon fill="none" stroke="black" points="230.5,-56.5 230.5,-75.5 358.5,-75.5 358.5,-56.5 230.5,-56.5"/>
<text text-anchor="middle" x="294.5" y="-63.5" font-family="Helvetica,sans-Serif" font-size="10.00">../misc/IgnoreUnused.h</text>
</a>
</g>
</g>
<!-- Node9&#45;&gt;Node12 -->
<g id="edge17" class="edge">
<title>Node9&#45;&gt;Node12</title>
<path fill="none" stroke="midnightblue" d="M384.46,-117.98C367.22,-108.21 338.76,-92.08 318.47,-80.58"/>
<polygon fill="midnightblue" stroke="midnightblue" points="319.94,-77.39 309.52,-75.51 316.49,-83.48 319.94,-77.39"/>
</g>
<!-- Node13 -->
<g id="node13" class="node">
<title>Node13</title>
<g id="a_node13"><a xlink:title=" ">
<polygon fill="none" stroke="#bfbfbf" points="478.5,-56.5 478.5,-75.5 546.5,-75.5 546.5,-56.5 478.5,-56.5"/>
<text text-anchor="middle" x="512.5" y="-63.5" font-family="Helvetica,sans-Serif" font-size="10.00">filesystem</text>
</a>
</g>
</g>
<!-- Node9&#45;&gt;Node13 -->
<g id="edge22" class="edge">
<title>Node9&#45;&gt;Node13</title>
<path fill="none" stroke="midnightblue" d="M415.69,-117.98C434.4,-108.12 465.42,-91.79 487.3,-80.27"/>
<polygon fill="midnightblue" stroke="midnightblue" points="489.12,-83.27 496.34,-75.51 485.86,-77.07 489.12,-83.27"/>
</g>
<!-- Node10&#45;&gt;Node4 -->
<g id="edge14" class="edge">
<title>Node10&#45;&gt;Node4</title>
<path fill="none" stroke="midnightblue" d="M664.5,-56.08C664.5,-49.01 664.5,-38.86 664.5,-29.99"/>
<polygon fill="midnightblue" stroke="midnightblue" points="668,-29.75 664.5,-19.75 661,-29.75 668,-29.75"/>
</g>
<!-- Node12&#45;&gt;Node2 -->
<g id="edge18" class="edge">
<title>Node12&#45;&gt;Node2</title>
<path fill="none" stroke="midnightblue" d="M254.89,-56.44C211.27,-47.02 141.1,-31.87 93.92,-21.68"/>
<polygon fill="midnightblue" stroke="midnightblue" points="94.44,-18.21 83.93,-19.52 92.96,-25.05 94.44,-18.21"/>
</g>
<!-- Node12&#45;&gt;Node3 -->
<g id="edge19" class="edge">
<title>Node12&#45;&gt;Node3</title>
<path fill="none" stroke="midnightblue" d="M287.4,-56.08C281.26,-48.38 272.23,-37.03 264.76,-27.65"/>
<polygon fill="midnightblue" stroke="midnightblue" points="267.44,-25.39 258.47,-19.75 261.96,-29.75 267.44,-25.39"/>
</g>
<!-- Node12&#45;&gt;Node4 -->
<g id="edge20" class="edge">
<title>Node12&#45;&gt;Node4</title>
<path fill="none" stroke="midnightblue" d="M353.13,-56.44C421.88,-46.41 535.24,-29.87 604.56,-19.75"/>
<polygon fill="midnightblue" stroke="midnightblue" points="605.06,-23.21 614.45,-18.3 604.05,-16.29 605.06,-23.21"/>
</g>
<!-- Node14&#45;&gt;Node4 -->
<g id="edge24" class="edge">
<title>Node14&#45;&gt;Node4</title>
<path fill="none" stroke="midnightblue" d="M682.25,-114.27C702.53,-106.76 723.57,-94.82 735.5,-76 749.14,-54.47 721.33,-35.52 696.61,-23.72"/>
<polygon fill="midnightblue" stroke="midnightblue" points="697.94,-20.48 687.39,-19.56 695.06,-26.86 697.94,-20.48"/>
</g>
<!-- Node14&#45;&gt;Node10 -->
<g id="edge25" class="edge">
<title>Node14&#45;&gt;Node10</title>
<path fill="none" stroke="midnightblue" d="M637.03,-112.4C642.1,-104.02 648.57,-93.33 653.96,-84.42"/>
<polygon fill="midnightblue" stroke="midnightblue" points="657.08,-86.03 659.26,-75.66 651.09,-82.4 657.08,-86.03"/>
</g>
</g>
</svg>
