<?xml version="1.0" encoding="UTF-8" standalone="no"?>
<!DOCTYPE svg PUBLIC "-//W3C//DTD SVG 1.1//EN"
 "http://www.w3.org/Graphics/SVG/1.1/DTD/svg11.dtd">
<!-- Generated by graphviz version 2.43.0 (0)
 -->
<!-- Title: angle.h Pages: 1 -->
<svg width="804pt" height="252pt"
 viewBox="0.00 0.00 803.83 252.00" xmlns="http://www.w3.org/2000/svg" xmlns:xlink="http://www.w3.org/1999/xlink">
<g id="graph0" class="graph" transform="scale(1 1) rotate(0) translate(4 248)">
<title>angle.h</title>
<!-- Node1 -->
<g id="node1" class="node">
<title>Node1</title>
<g id="a_node1"><a xlink:title=" ">
<polygon fill="#bfbfbf" stroke="black" points="493.07,-224.5 493.07,-243.5 546.07,-243.5 546.07,-224.5 493.07,-224.5"/>
<text text-anchor="middle" x="519.57" y="-231.5" font-family="Helvetica,sans-Serif" font-size="10.00">angle.h</text>
</a>
</g>
</g>
<!-- Node2 -->
<g id="node2" class="node">
<title>Node2</title>
<g id="a_node2"><a xlink:title=" ">
<polygon fill="none" stroke="#bfbfbf" points="87.07,-0.5 87.07,-19.5 176.07,-19.5 176.07,-0.5 87.07,-0.5"/>
<text text-anchor="middle" x="131.57" y="-7.5" font-family="Helvetica,sans-Serif" font-size="10.00">limes_export.h</text>
</a>
</g>
</g>
<!-- Node1&#45;&gt;Node2 -->
<g id="edge1" class="edge">
<title>Node1&#45;&gt;Node2</title>
<path fill="none" stroke="midnightblue" d="M492.75,-232.15C396.13,-228.46 68.31,-210.26 8.57,-132 -25.03,-87.99 54.02,-44.45 100.56,-23.65"/>
<polygon fill="midnightblue" stroke="midnightblue" points="102.17,-26.76 109.94,-19.56 99.38,-20.34 102.17,-26.76"/>
</g>
<!-- Node3 -->
<g id="node3" class="node">
<title>Node3</title>
<g id="a_node3"><a xlink:href="limes__namespace_8h.html" target="_top" xlink:title=" ">
<polygon fill="none" stroke="black" points="447.57,-0.5 447.57,-19.5 561.57,-19.5 561.57,-0.5 447.57,-0.5"/>
<text text-anchor="middle" x="504.57" y="-7.5" font-family="Helvetica,sans-Serif" font-size="10.00">limes_namespace.h</text>
</a>
</g>
</g>
<!-- Node1&#45;&gt;Node3 -->
<g id="edge2" class="edge">
<title>Node1&#45;&gt;Node3</title>
<path fill="none" stroke="midnightblue" d="M546.33,-226.39C623.59,-206.09 837.09,-140.91 765.57,-56 753.14,-41.24 644.8,-26.49 571.66,-18.08"/>
<polygon fill="midnightblue" stroke="midnightblue" points="571.92,-14.59 561.59,-16.94 571.13,-21.54 571.92,-14.59"/>
</g>
<!-- Node4 -->
<g id="node4" class="node">
<title>Node4</title>
<g id="a_node4"><a xlink:title=" ">
<polygon fill="none" stroke="#bfbfbf" points="644.57,-0.5 644.57,-19.5 744.57,-19.5 744.57,-0.5 644.57,-0.5"/>
<text text-anchor="middle" x="694.57" y="-7.5" font-family="Helvetica,sans-Serif" font-size="10.00">limes_platform.h</text>
</a>
</g>
</g>
<!-- Node1&#45;&gt;Node4 -->
<g id="edge3" class="edge">
<title>Node1&#45;&gt;Node4</title>
<path fill="none" stroke="midnightblue" d="M546.09,-232.53C602.06,-229.9 731.07,-214.71 779.57,-132 796.69,-102.8 802.36,-84.8 784.57,-56 774.89,-40.35 757.94,-29.96 741.34,-23.15"/>
<polygon fill="midnightblue" stroke="midnightblue" points="742.26,-19.76 731.67,-19.54 739.82,-26.32 742.26,-19.76"/>
</g>
<!-- Node5 -->
<g id="node5" class="node">
<title>Node5</title>
<g id="a_node5"><a xlink:href="math_helpers_8h.html" target="_top" xlink:title=" ">
<polygon fill="none" stroke="black" points="222.07,-168.5 222.07,-187.5 329.07,-187.5 329.07,-168.5 222.07,-168.5"/>
<text text-anchor="middle" x="275.57" y="-175.5" font-family="Helvetica,sans-Serif" font-size="10.00">../../mathHelpers.h</text>
</a>
</g>
</g>
<!-- Node1&#45;&gt;Node5 -->
<g id="edge4" class="edge">
<title>Node1&#45;&gt;Node5</title>
<path fill="none" stroke="midnightblue" d="M492.99,-227.12C452.55,-218.17 374.91,-200.98 324.19,-189.76"/>
<polygon fill="midnightblue" stroke="midnightblue" points="324.63,-186.27 314.11,-187.53 323.12,-193.11 324.63,-186.27"/>
</g>
<!-- Node5&#45;&gt;Node2 -->
<g id="edge8" class="edge">
<title>Node5&#45;&gt;Node2</title>
<path fill="none" stroke="midnightblue" d="M235.91,-168.45C190.9,-156.4 119.58,-129.6 87.57,-76 76.97,-58.27 94.35,-38.75 110.29,-25.77"/>
<polygon fill="midnightblue" stroke="midnightblue" points="112.51,-28.48 118.34,-19.63 108.27,-22.91 112.51,-28.48"/>
</g>
<!-- Node5&#45;&gt;Node3 -->
<g id="edge5" class="edge">
<title>Node5&#45;&gt;Node3</title>
<path fill="none" stroke="midnightblue" d="M329.31,-176.5C396.45,-172.49 507.38,-153.75 547.57,-76 556.85,-58.05 540.66,-38.92 525.57,-26.1"/>
<polygon fill="midnightblue" stroke="midnightblue" points="527.48,-23.14 517.47,-19.67 523.13,-28.63 527.48,-23.14"/>
</g>
<!-- Node6 -->
<g id="node6" class="node">
<title>Node6</title>
<g id="a_node6"><a xlink:title=" ">
<polygon fill="none" stroke="#bfbfbf" points="200.07,-112.5 200.07,-131.5 247.07,-131.5 247.07,-112.5 200.07,-112.5"/>
<text text-anchor="middle" x="223.57" y="-119.5" font-family="Helvetica,sans-Serif" font-size="10.00">cmath</text>
</a>
</g>
</g>
<!-- Node5&#45;&gt;Node6 -->
<g id="edge6" class="edge">
<title>Node5&#45;&gt;Node6</title>
<path fill="none" stroke="midnightblue" d="M266.98,-168.08C259.41,-160.22 248.19,-148.57 239.05,-139.08"/>
<polygon fill="midnightblue" stroke="midnightblue" points="241.45,-136.53 231.99,-131.75 236.41,-141.38 241.45,-136.53"/>
</g>
<!-- Node7 -->
<g id="node7" class="node">
<title>Node7</title>
<g id="a_node7"><a xlink:title=" ">
<polygon fill="none" stroke="#bfbfbf" points="97.07,-56.5 97.07,-75.5 166.07,-75.5 166.07,-56.5 97.07,-56.5"/>
<text text-anchor="middle" x="131.57" y="-63.5" font-family="Helvetica,sans-Serif" font-size="10.00">type_traits</text>
</a>
</g>
</g>
<!-- Node5&#45;&gt;Node7 -->
<g id="edge7" class="edge">
<title>Node5&#45;&gt;Node7</title>
<path fill="none" stroke="midnightblue" d="M275.42,-168.21C274.72,-154.44 271.39,-127.76 256.57,-112 245.16,-99.87 206.86,-87.11 175.63,-78.29"/>
<polygon fill="midnightblue" stroke="midnightblue" points="176.35,-74.86 165.78,-75.57 174.49,-81.6 176.35,-74.86"/>
</g>
<!-- Node8 -->
<g id="node8" class="node">
<title>Node8</title>
<g id="a_node8"><a xlink:title=" ">
<polygon fill="none" stroke="#bfbfbf" points="17.57,-112.5 17.57,-131.5 81.57,-131.5 81.57,-112.5 17.57,-112.5"/>
<text text-anchor="middle" x="49.57" y="-119.5" font-family="Helvetica,sans-Serif" font-size="10.00">algorithm</text>
</a>
</g>
</g>
<!-- Node5&#45;&gt;Node8 -->
<g id="edge9" class="edge">
<title>Node5&#45;&gt;Node8</title>
<path fill="none" stroke="midnightblue" d="M239.76,-168.44C199.54,-158.83 134.34,-143.26 91.71,-133.07"/>
<polygon fill="midnightblue" stroke="midnightblue" points="92.45,-129.65 81.91,-130.73 90.83,-136.46 92.45,-129.65"/>
</g>
<!-- Node9 -->
<g id="node9" class="node">
<title>Node9</title>
<g id="a_node9"><a xlink:href="limes__assert_8h.html" target="_top" xlink:title=" ">
<polygon fill="none" stroke="black" points="323.57,-112.5 323.57,-131.5 459.57,-131.5 459.57,-112.5 323.57,-112.5"/>
<text text-anchor="middle" x="391.57" y="-119.5" font-family="Helvetica,sans-Serif" font-size="10.00">../system/limes_assert.h</text>
</a>
</g>
</g>
<!-- Node5&#45;&gt;Node9 -->
<g id="edge10" class="edge">
<title>Node5&#45;&gt;Node9</title>
<path fill="none" stroke="midnightblue" d="M293.95,-168.44C312.78,-159.68 342.3,-145.94 363.95,-135.86"/>
<polygon fill="midnightblue" stroke="midnightblue" points="365.68,-138.91 373.27,-131.52 362.73,-132.56 365.68,-138.91"/>
</g>
<!-- Node9&#45;&gt;Node2 -->
<g id="edge11" class="edge">
<title>Node9&#45;&gt;Node2</title>
<path fill="none" stroke="midnightblue" d="M332.06,-112.45C296.39,-105.76 250.86,-94.43 213.57,-76 187.77,-63.25 162.5,-41.4 146.99,-26.58"/>
<polygon fill="midnightblue" stroke="midnightblue" points="149.41,-24.05 139.81,-19.56 144.51,-29.06 149.41,-24.05"/>
</g>
<!-- Node9&#45;&gt;Node3 -->
<g id="edge12" class="edge">
<title>Node9&#45;&gt;Node3</title>
<path fill="none" stroke="midnightblue" d="M400.43,-112.37C419.41,-93.89 464.2,-50.29 488.39,-26.74"/>
<polygon fill="midnightblue" stroke="midnightblue" points="491.02,-29.07 495.74,-19.59 486.13,-24.06 491.02,-29.07"/>
</g>
<!-- Node9&#45;&gt;Node4 -->
<g id="edge20" class="edge">
<title>Node9&#45;&gt;Node4</title>
<path fill="none" stroke="midnightblue" d="M426.08,-112.48C457.98,-104.27 506.5,-90.92 547.57,-76 590.69,-60.33 639.05,-37.98 668.14,-23.99"/>
<polygon fill="midnightblue" stroke="midnightblue" points="669.76,-27.1 677.23,-19.59 666.71,-20.79 669.76,-27.1"/>
</g>
<!-- Node9&#45;&gt;Node7 -->
<g id="edge15" class="edge">
<title>Node9&#45;&gt;Node7</title>
<path fill="none" stroke="midnightblue" d="M350.37,-112.44C302.91,-102.59 225.21,-86.45 176.31,-76.29"/>
<polygon fill="midnightblue" stroke="midnightblue" points="176.83,-72.83 166.33,-74.22 175.41,-79.68 176.83,-72.83"/>
</g>
<!-- Node10 -->
<g id="node10" class="node">
<title>Node10</title>
<g id="a_node10"><a xlink:href="preprocessor_8h.html" target="_top" xlink:title=" ">
<polygon fill="none" stroke="black" points="633.07,-56.5 633.07,-75.5 756.07,-75.5 756.07,-56.5 633.07,-56.5"/>
<text text-anchor="middle" x="694.57" y="-63.5" font-family="Helvetica,sans-Serif" font-size="10.00">../misc/preprocessor.h</text>
</a>
</g>
</g>
<!-- Node9&#45;&gt;Node10 -->
<g id="edge13" class="edge">
<title>Node9&#45;&gt;Node10</title>
<path fill="none" stroke="midnightblue" d="M439.58,-112.44C493.1,-102.9 579.63,-87.48 636.81,-77.29"/>
<polygon fill="midnightblue" stroke="midnightblue" points="637.55,-80.72 646.78,-75.52 636.32,-73.83 637.55,-80.72"/>
</g>
<!-- Node11 -->
<g id="node11" class="node">
<title>Node11</title>
<g id="a_node11"><a xlink:title=" ">
<polygon fill="none" stroke="#bfbfbf" points="369.07,-56.5 369.07,-75.5 414.07,-75.5 414.07,-56.5 369.07,-56.5"/>
<text text-anchor="middle" x="391.57" y="-63.5" font-family="Helvetica,sans-Serif" font-size="10.00">utility</text>
</a>
</g>
</g>
<!-- Node9&#45;&gt;Node11 -->
<g id="edge16" class="edge">
<title>Node9&#45;&gt;Node11</title>
<path fill="none" stroke="midnightblue" d="M391.57,-112.08C391.57,-105.01 391.57,-94.86 391.57,-85.99"/>
<polygon fill="midnightblue" stroke="midnightblue" points="395.07,-85.75 391.57,-75.75 388.07,-85.75 395.07,-85.75"/>
</g>
<!-- Node12 -->
<g id="node12" class="node">
<title>Node12</title>
<g id="a_node12"><a xlink:href="_ignore_unused_8h.html" target="_top" xlink:title=" ">
<polygon fill="none" stroke="black" points="222.57,-56.5 222.57,-75.5 350.57,-75.5 350.57,-56.5 222.57,-56.5"/>
<text text-anchor="middle" x="286.57" y="-63.5" font-family="Helvetica,sans-Serif" font-size="10.00">../misc/IgnoreUnused.h</text>
</a>
</g>
</g>
<!-- Node9&#45;&gt;Node12 -->
<g id="edge17" class="edge">
<title>Node9&#45;&gt;Node12</title>
<path fill="none" stroke="midnightblue" d="M374.7,-112.32C357.86,-103.66 331.76,-90.24 312.33,-80.25"/>
<polygon fill="midnightblue" stroke="midnightblue" points="313.89,-77.12 303.39,-75.65 310.69,-83.34 313.89,-77.12"/>
</g>
<!-- Node13 -->
<g id="node13" class="node">
<title>Node13</title>
<g id="a_node13"><a xlink:title=" ">
<polygon fill="none" stroke="#bfbfbf" points="470.57,-56.5 470.57,-75.5 538.57,-75.5 538.57,-56.5 470.57,-56.5"/>
<text text-anchor="middle" x="504.57" y="-63.5" font-family="Helvetica,sans-Serif" font-size="10.00">filesystem</text>
</a>
</g>
</g>
<!-- Node9&#45;&gt;Node13 -->
<g id="edge21" class="edge">
<title>Node9&#45;&gt;Node13</title>
<path fill="none" stroke="midnightblue" d="M409.47,-112.44C427.82,-103.68 456.57,-89.94 477.66,-79.86"/>
<polygon fill="midnightblue" stroke="midnightblue" points="479.23,-82.99 486.75,-75.52 476.21,-76.67 479.23,-82.99"/>
</g>
<!-- Node10&#45;&gt;Node4 -->
<g id="edge14" class="edge">
<title>Node10&#45;&gt;Node4</title>
<path fill="none" stroke="midnightblue" d="M694.57,-56.08C694.57,-49.01 694.57,-38.86 694.57,-29.99"/>
<polygon fill="midnightblue" stroke="midnightblue" points="698.07,-29.75 694.57,-19.75 691.07,-29.75 698.07,-29.75"/>
</g>
<!-- Node12&#45;&gt;Node2 -->
<g id="edge18" class="edge">
<title>Node12&#45;&gt;Node2</title>
<path fill="none" stroke="midnightblue" d="M262.01,-56.44C236.04,-47.4 194.9,-33.06 165.77,-22.92"/>
<polygon fill="midnightblue" stroke="midnightblue" points="166.61,-19.5 156.01,-19.52 164.3,-26.11 166.61,-19.5"/>
</g>
<!-- Node12&#45;&gt;Node3 -->
<g id="edge19" class="edge">
<title>Node12&#45;&gt;Node3</title>
<path fill="none" stroke="midnightblue" d="M321.11,-56.44C358.82,-47.1 419.31,-32.12 460.43,-21.93"/>
<polygon fill="midnightblue" stroke="midnightblue" points="461.32,-25.32 470.19,-19.52 459.64,-18.52 461.32,-25.32"/>
</g>
</g>
</svg>
