<?xml version="1.0" encoding="UTF-8" standalone="no"?>
<!DOCTYPE svg PUBLIC "-//W3C//DTD SVG 1.1//EN"
 "http://www.w3.org/Graphics/SVG/1.1/DTD/svg11.dtd">
<!-- Generated by graphviz version 2.43.0 (0)
 -->
<!-- Title: angle.h Pages: 1 -->
<svg width="882pt" height="263pt"
 viewBox="0.00 0.00 882.41 263.00" xmlns="http://www.w3.org/2000/svg" xmlns:xlink="http://www.w3.org/1999/xlink">
<g id="graph0" class="graph" transform="scale(1 1) rotate(0) translate(4 259)">
<title>angle.h</title>
<!-- Node1 -->
<g id="node1" class="node">
<title>Node1</title>
<g id="a_node1"><a xlink:title=" ">
<polygon fill="#bfbfbf" stroke="black" points="292.5,-235.5 292.5,-254.5 345.5,-254.5 345.5,-235.5 292.5,-235.5"/>
<text text-anchor="middle" x="319" y="-242.5" font-family="Helvetica,sans-Serif" font-size="10.00">angle.h</text>
</a>
</g>
</g>
<!-- Node2 -->
<g id="node2" class="node">
<title>Node2</title>
<g id="a_node2"><a xlink:title=" ">
<polygon fill="none" stroke="#bfbfbf" points="282.5,-0.5 282.5,-19.5 371.5,-19.5 371.5,-0.5 282.5,-0.5"/>
<text text-anchor="middle" x="327" y="-7.5" font-family="Helvetica,sans-Serif" font-size="10.00">limes_export.h</text>
</a>
</g>
</g>
<!-- Node1&#45;&gt;Node2 -->
<g id="edge1" class="edge">
<title>Node1&#45;&gt;Node2</title>
<path fill="none" stroke="midnightblue" d="M297.76,-235.47C237.39,-210.01 72.87,-131.67 133,-56 150.14,-34.43 221.13,-22.28 272.28,-16.17"/>
<polygon fill="midnightblue" stroke="midnightblue" points="272.68,-19.65 282.22,-15.03 271.88,-12.7 272.68,-19.65"/>
</g>
<!-- Node3 -->
<g id="node3" class="node">
<title>Node3</title>
<g id="a_node3"><a xlink:href="limes__namespace_8h.html" target="_top" xlink:title=" ">
<polygon fill="none" stroke="black" points="0,-0.5 0,-19.5 114,-19.5 114,-0.5 0,-0.5"/>
<text text-anchor="middle" x="57" y="-7.5" font-family="Helvetica,sans-Serif" font-size="10.00">limes_namespace.h</text>
</a>
</g>
</g>
<!-- Node1&#45;&gt;Node3 -->
<g id="edge2" class="edge">
<title>Node1&#45;&gt;Node3</title>
<path fill="none" stroke="midnightblue" d="M292.42,-239.12C264.42,-233.07 219.91,-220.79 187,-199 125.85,-158.51 113.06,-139.86 77,-76 68.84,-61.54 63.61,-43.36 60.55,-29.9"/>
<polygon fill="midnightblue" stroke="midnightblue" points="63.93,-28.97 58.48,-19.89 57.08,-30.39 63.93,-28.97"/>
</g>
<!-- Node4 -->
<g id="node4" class="node">
<title>Node4</title>
<g id="a_node4"><a xlink:title=" ">
<polygon fill="none" stroke="#bfbfbf" points="707,-0.5 707,-19.5 807,-19.5 807,-0.5 707,-0.5"/>
<text text-anchor="middle" x="757" y="-7.5" font-family="Helvetica,sans-Serif" font-size="10.00">limes_platform.h</text>
</a>
</g>
</g>
<!-- Node1&#45;&gt;Node4 -->
<g id="edge3" class="edge">
<title>Node1&#45;&gt;Node4</title>
<path fill="none" stroke="midnightblue" d="M345.79,-243.45C446.36,-240.74 799.05,-225.42 865,-143 899.91,-99.37 824.65,-48.33 782.69,-24.52"/>
<polygon fill="midnightblue" stroke="midnightblue" points="784.24,-21.38 773.8,-19.6 780.85,-27.5 784.24,-21.38"/>
</g>
<!-- Node5 -->
<g id="node5" class="node">
<title>Node5</title>
<g id="a_node5"><a xlink:href="math_helpers_8h.html" target="_top" xlink:title=" ">
<polygon fill="none" stroke="black" points="499.5,-179.5 499.5,-198.5 606.5,-198.5 606.5,-179.5 499.5,-179.5"/>
<text text-anchor="middle" x="553" y="-186.5" font-family="Helvetica,sans-Serif" font-size="10.00">../../mathHelpers.h</text>
</a>
</g>
</g>
<!-- Node1&#45;&gt;Node5 -->
<g id="edge4" class="edge">
<title>Node1&#45;&gt;Node5</title>
<path fill="none" stroke="midnightblue" d="M345.84,-237.81C384.96,-228.78 458.18,-211.88 506.26,-200.79"/>
<polygon fill="midnightblue" stroke="midnightblue" points="507.16,-204.17 516.12,-198.51 505.59,-197.35 507.16,-204.17"/>
</g>
<!-- Node5&#45;&gt;Node2 -->
<g id="edge8" class="edge">
<title>Node5&#45;&gt;Node2</title>
<path fill="none" stroke="midnightblue" d="M557.59,-179.36C571.2,-153.19 609.38,-75.39 593,-56 566.55,-24.69 451.94,-15.16 382.08,-12.26"/>
<polygon fill="midnightblue" stroke="midnightblue" points="381.81,-8.75 371.69,-11.87 381.55,-15.74 381.81,-8.75"/>
</g>
<!-- Node5&#45;&gt;Node3 -->
<g id="edge5" class="edge">
<title>Node5&#45;&gt;Node3</title>
<path fill="none" stroke="midnightblue" d="M499.27,-187.14C408.73,-183.18 223.57,-164 100,-76 83.34,-64.14 71.37,-43.63 64.35,-28.82"/>
<polygon fill="midnightblue" stroke="midnightblue" points="67.54,-27.37 60.29,-19.65 61.14,-30.21 67.54,-27.37"/>
</g>
<!-- Node6 -->
<g id="node6" class="node">
<title>Node6</title>
<g id="a_node6"><a xlink:title=" ">
<polygon fill="none" stroke="#bfbfbf" points="600.5,-118 600.5,-137 647.5,-137 647.5,-118 600.5,-118"/>
<text text-anchor="middle" x="624" y="-125" font-family="Helvetica,sans-Serif" font-size="10.00">cmath</text>
</a>
</g>
</g>
<!-- Node5&#45;&gt;Node6 -->
<g id="edge6" class="edge">
<title>Node5&#45;&gt;Node6</title>
<path fill="none" stroke="midnightblue" d="M563.17,-179.48C574.35,-170.11 592.52,-154.88 606.09,-143.51"/>
<polygon fill="midnightblue" stroke="midnightblue" points="608.43,-146.11 613.85,-137.01 603.93,-140.75 608.43,-146.11"/>
</g>
<!-- Node7 -->
<g id="node7" class="node">
<title>Node7</title>
<g id="a_node7"><a xlink:title=" ">
<polygon fill="none" stroke="#bfbfbf" points="514.5,-56.5 514.5,-75.5 583.5,-75.5 583.5,-56.5 514.5,-56.5"/>
<text text-anchor="middle" x="549" y="-63.5" font-family="Helvetica,sans-Serif" font-size="10.00">type_traits</text>
</a>
</g>
</g>
<!-- Node5&#45;&gt;Node7 -->
<g id="edge7" class="edge">
<title>Node5&#45;&gt;Node7</title>
<path fill="none" stroke="midnightblue" d="M552.71,-179.3C552.07,-159.85 550.5,-112.49 549.62,-85.9"/>
<polygon fill="midnightblue" stroke="midnightblue" points="553.11,-85.5 549.29,-75.62 546.12,-85.73 553.11,-85.5"/>
</g>
<!-- Node8 -->
<g id="node8" class="node">
<title>Node8</title>
<g id="a_node8"><a xlink:title=" ">
<polygon fill="none" stroke="#bfbfbf" points="666,-118 666,-137 730,-137 730,-118 666,-118"/>
<text text-anchor="middle" x="698" y="-125" font-family="Helvetica,sans-Serif" font-size="10.00">algorithm</text>
</a>
</g>
</g>
<!-- Node5&#45;&gt;Node8 -->
<g id="edge9" class="edge">
<title>Node5&#45;&gt;Node8</title>
<path fill="none" stroke="midnightblue" d="M573.77,-179.48C598.43,-169.36 639.75,-152.4 667.9,-140.85"/>
<polygon fill="midnightblue" stroke="midnightblue" points="669.34,-144.04 677.26,-137.01 666.68,-137.57 669.34,-144.04"/>
</g>
<!-- Node9 -->
<g id="node9" class="node">
<title>Node9</title>
<g id="a_node9"><a xlink:href="limes__assert_8h.html" target="_top" xlink:title=" ">
<polygon fill="none" stroke="black" points="370,-118 370,-137 506,-137 506,-118 370,-118"/>
<text text-anchor="middle" x="438" y="-125" font-family="Helvetica,sans-Serif" font-size="10.00">../system/limes_assert.h</text>
</a>
</g>
</g>
<!-- Node5&#45;&gt;Node9 -->
<g id="edge10" class="edge">
<title>Node5&#45;&gt;Node9</title>
<path fill="none" stroke="midnightblue" d="M536.52,-179.48C517.39,-169.58 485.63,-153.14 463.35,-141.62"/>
<polygon fill="midnightblue" stroke="midnightblue" points="464.94,-138.5 454.45,-137.01 461.72,-144.71 464.94,-138.5"/>
</g>
<!-- Node14 -->
<g id="node14" class="node">
<title>Node14</title>
<g id="a_node14"><a xlink:href="compiler__defs_8h.html" target="_top" xlink:title=" ">
<polygon fill="none" stroke="black" points="748.5,-112.5 748.5,-142.5 855.5,-142.5 855.5,-112.5 748.5,-112.5"/>
<text text-anchor="start" x="756.5" y="-130.5" font-family="Helvetica,sans-Serif" font-size="10.00">../system/compiler</text>
<text text-anchor="middle" x="802" y="-119.5" font-family="Helvetica,sans-Serif" font-size="10.00">_defs.h</text>
</a>
</g>
</g>
<!-- Node5&#45;&gt;Node14 -->
<g id="edge22" class="edge">
<title>Node5&#45;&gt;Node14</title>
<path fill="none" stroke="midnightblue" d="M588.68,-179.48C627.59,-170.18 690.68,-155.1 738.17,-143.75"/>
<polygon fill="midnightblue" stroke="midnightblue" points="739.14,-147.12 748.05,-141.39 737.51,-140.31 739.14,-147.12"/>
</g>
<!-- Node9&#45;&gt;Node2 -->
<g id="edge11" class="edge">
<title>Node9&#45;&gt;Node2</title>
<path fill="none" stroke="midnightblue" d="M439.43,-117.69C441.26,-103.28 442.73,-74.39 429,-56 416.97,-39.89 397.91,-29.44 379.5,-22.71"/>
<polygon fill="midnightblue" stroke="midnightblue" points="380.57,-19.38 369.97,-19.53 378.35,-26.02 380.57,-19.38"/>
</g>
<!-- Node9&#45;&gt;Node3 -->
<g id="edge12" class="edge">
<title>Node9&#45;&gt;Node3</title>
<path fill="none" stroke="midnightblue" d="M369.79,-125.6C305.87,-122.4 209.02,-111.4 133,-76 108.3,-64.5 85.32,-42.67 71.24,-27.5"/>
<polygon fill="midnightblue" stroke="midnightblue" points="73.66,-24.96 64.37,-19.86 68.46,-29.64 73.66,-24.96"/>
</g>
<!-- Node9&#45;&gt;Node4 -->
<g id="edge20" class="edge">
<title>Node9&#45;&gt;Node4</title>
<path fill="none" stroke="midnightblue" d="M443.55,-117.89C453.85,-102.68 477.5,-71.22 506,-56 565.68,-24.14 643.55,-14.28 696.62,-11.51"/>
<polygon fill="midnightblue" stroke="midnightblue" points="697.06,-14.99 706.89,-11.04 696.75,-8 697.06,-14.99"/>
</g>
<!-- Node9&#45;&gt;Node7 -->
<g id="edge15" class="edge">
<title>Node9&#45;&gt;Node7</title>
<path fill="none" stroke="midnightblue" d="M453.9,-117.98C472.28,-108.12 502.76,-91.79 524.24,-80.27"/>
<polygon fill="midnightblue" stroke="midnightblue" points="525.97,-83.32 533.13,-75.51 522.66,-77.15 525.97,-83.32"/>
</g>
<!-- Node10 -->
<g id="node10" class="node">
<title>Node10</title>
<g id="a_node10"><a xlink:href="preprocessor_8h.html" target="_top" xlink:title=" ">
<polygon fill="none" stroke="black" points="650.5,-56.5 650.5,-75.5 773.5,-75.5 773.5,-56.5 650.5,-56.5"/>
<text text-anchor="middle" x="712" y="-63.5" font-family="Helvetica,sans-Serif" font-size="10.00">../misc/preprocessor.h</text>
</a>
</g>
</g>
<!-- Node9&#45;&gt;Node10 -->
<g id="edge13" class="edge">
<title>Node9&#45;&gt;Node10</title>
<path fill="none" stroke="midnightblue" d="M477.26,-117.98C526.19,-107.35 609.84,-89.18 662.95,-77.65"/>
<polygon fill="midnightblue" stroke="midnightblue" points="663.79,-81.05 672.82,-75.51 662.3,-74.21 663.79,-81.05"/>
</g>
<!-- Node11 -->
<g id="node11" class="node">
<title>Node11</title>
<g id="a_node11"><a xlink:title=" ">
<polygon fill="none" stroke="#bfbfbf" points="288.5,-56.5 288.5,-75.5 333.5,-75.5 333.5,-56.5 288.5,-56.5"/>
<text text-anchor="middle" x="311" y="-63.5" font-family="Helvetica,sans-Serif" font-size="10.00">utility</text>
</a>
</g>
</g>
<!-- Node9&#45;&gt;Node11 -->
<g id="edge16" class="edge">
<title>Node9&#45;&gt;Node11</title>
<path fill="none" stroke="midnightblue" d="M419.8,-117.98C398.49,-107.99 362.97,-91.35 338.34,-79.81"/>
<polygon fill="midnightblue" stroke="midnightblue" points="339.7,-76.58 329.16,-75.51 336.73,-82.92 339.7,-76.58"/>
</g>
<!-- Node12 -->
<g id="node12" class="node">
<title>Node12</title>
<g id="a_node12"><a xlink:href="_ignore_unused_8h.html" target="_top" xlink:title=" ">
<polygon fill="none" stroke="black" points="142,-56.5 142,-75.5 270,-75.5 270,-56.5 142,-56.5"/>
<text text-anchor="middle" x="206" y="-63.5" font-family="Helvetica,sans-Serif" font-size="10.00">../misc/IgnoreUnused.h</text>
</a>
</g>
</g>
<!-- Node9&#45;&gt;Node12 -->
<g id="edge17" class="edge">
<title>Node9&#45;&gt;Node12</title>
<path fill="none" stroke="midnightblue" d="M404.76,-117.98C363.76,-107.46 293.97,-89.56 248.95,-78.01"/>
<polygon fill="midnightblue" stroke="midnightblue" points="249.73,-74.6 239.18,-75.51 248,-81.38 249.73,-74.6"/>
</g>
<!-- Node13 -->
<g id="node13" class="node">
<title>Node13</title>
<g id="a_node13"><a xlink:title=" ">
<polygon fill="none" stroke="#bfbfbf" points="352,-56.5 352,-75.5 420,-75.5 420,-56.5 352,-56.5"/>
<text text-anchor="middle" x="386" y="-63.5" font-family="Helvetica,sans-Serif" font-size="10.00">filesystem</text>
</a>
</g>
</g>
<!-- Node9&#45;&gt;Node13 -->
<g id="edge21" class="edge">
<title>Node9&#45;&gt;Node13</title>
<path fill="none" stroke="midnightblue" d="M430.55,-117.98C422.67,-108.96 410.06,-94.52 400.26,-83.31"/>
<polygon fill="midnightblue" stroke="midnightblue" points="402.65,-80.74 393.44,-75.51 397.38,-85.34 402.65,-80.74"/>
</g>
<!-- Node10&#45;&gt;Node4 -->
<g id="edge14" class="edge">
<title>Node10&#45;&gt;Node4</title>
<path fill="none" stroke="midnightblue" d="M719.43,-56.08C725.85,-48.38 735.31,-37.03 743.12,-27.65"/>
<polygon fill="midnightblue" stroke="midnightblue" points="745.99,-29.67 749.71,-19.75 740.62,-25.19 745.99,-29.67"/>
</g>
<!-- Node12&#45;&gt;Node2 -->
<g id="edge18" class="edge">
<title>Node12&#45;&gt;Node2</title>
<path fill="none" stroke="midnightblue" d="M225.17,-56.44C244.91,-47.64 275.89,-33.81 298.49,-23.72"/>
<polygon fill="midnightblue" stroke="midnightblue" points="300.21,-26.79 307.92,-19.52 297.36,-20.4 300.21,-26.79"/>
</g>
<!-- Node12&#45;&gt;Node3 -->
<g id="edge19" class="edge">
<title>Node12&#45;&gt;Node3</title>
<path fill="none" stroke="midnightblue" d="M182.39,-56.44C157.54,-47.44 118.23,-33.19 90.25,-23.05"/>
<polygon fill="midnightblue" stroke="midnightblue" points="91.09,-19.63 80.5,-19.52 88.71,-26.21 91.09,-19.63"/>
</g>
<!-- Node14&#45;&gt;Node4 -->
<g id="edge23" class="edge">
<title>Node14&#45;&gt;Node4</title>
<path fill="none" stroke="midnightblue" d="M799.33,-112.37C796.32,-97.87 790.83,-74.85 783,-56 779.02,-46.42 773.37,-36.36 768.35,-28.19"/>
<polygon fill="midnightblue" stroke="midnightblue" points="771.21,-26.17 762.89,-19.61 765.31,-29.93 771.21,-26.17"/>
</g>
<!-- Node14&#45;&gt;Node10 -->
<g id="edge24" class="edge">
<title>Node14&#45;&gt;Node10</title>
<path fill="none" stroke="midnightblue" d="M780.67,-112.4C766.51,-103.04 747.99,-90.79 733.75,-81.38"/>
<polygon fill="midnightblue" stroke="midnightblue" points="735.37,-78.25 725.1,-75.66 731.51,-84.09 735.37,-78.25"/>
</g>
</g>
</svg>
