<?xml version="1.0" encoding="UTF-8" standalone="no"?>
<!DOCTYPE svg PUBLIC "-//W3C//DTD SVG 1.1//EN"
 "http://www.w3.org/Graphics/SVG/1.1/DTD/svg11.dtd">
<!-- Generated by graphviz version 2.43.0 (0)
 -->
<!-- Title: bitField.h Pages: 1 -->
<!--zoomable 263 -->
<svg id="main" version="1.1" xmlns="http://www.w3.org/2000/svg" xmlns:xlink="http://www.w3.org/1999/xlink" xml:space="preserve" onload="init(evt)">
<style type="text/css"><![CDATA[
.edge:hover path { stroke: red; }
.edge:hover polygon { stroke: red; fill: red; }
]]></style>
<script type="text/javascript"><![CDATA[
var edges = document.getElementsByTagName('g');
if (edges && edges.length) {
  for (var i=0;i<edges.length;i++) {
    if (edges[i].id.substr(0,4)=='edge') {
      edges[i].setAttribute('class','edge');
    }
  }
}
]]></script>
        <defs>
                <circle id="rim" cx="0" cy="0" r="7"/>
                <circle id="rim2" cx="0" cy="0" r="3.5"/>
                <g id="zoomPlus">
                        <use xlink:href="#rim" fill="#404040">
                                <set attributeName="fill" to="#808080" begin="zoomplus.mouseover" end="zoomplus.mouseout"/>
                        </use>
                        <path d="M-4,0h8M0,-4v8" fill="none" stroke="white" stroke-width="1.5" pointer-events="none"/>
                </g>
                <g id="zoomMin">
                        <use xlink:href="#rim" fill="#404040">
                                <set attributeName="fill" to="#808080" begin="zoomminus.mouseover" end="zoomminus.mouseout"/>
                        </use>
                        <path d="M-4,0h8" fill="none" stroke="white" stroke-width="1.5" pointer-events="none"/>
                </g>
                <g id="dirArrow">
                        <path fill="none" stroke="white" stroke-width="1.5" d="M0,-3.0v7 M-2.5,-0.5L0,-3.0L2.5,-0.5"/>
                </g>
               <g id="resetDef">
                       <use xlink:href="#rim2" fill="#404040">
                               <set attributeName="fill" to="#808080" begin="reset.mouseover" end="reset.mouseout"/>
                       </use>
               </g>
        </defs>

<script type="text/javascript">
var viewWidth = 760;
var viewHeight = 263;
var sectionId = 'dynsection-0';
</script>
<script xlink:href="svgpan.js"/>
<svg id="graph" class="graph">
<g id="viewport">
<title>bitField.h</title>
<!-- Node1 -->
<g id="node1" class="node">
<title>Node1</title>
<g id="a_node1"><a xlink:title=" ">
<polygon fill="#bfbfbf" stroke="black" points="413.84,-235.5 413.84,-254.5 475.84,-254.5 475.84,-235.5 413.84,-235.5"/>
<text text-anchor="middle" x="444.84" y="-242.5" font-family="Helvetica,sans-Serif" font-size="10.00">bitField.h</text>
</a>
</g>
</g>
<!-- Node2 -->
<g id="node2" class="node">
<title>Node2</title>
<g id="a_node2"><a xlink:title=" ">
<polygon fill="none" stroke="#bfbfbf" points="212.34,-0.5 212.34,-19.5 301.34,-19.5 301.34,-0.5 212.34,-0.5"/>
<text text-anchor="middle" x="256.84" y="-7.5" font-family="Helvetica,sans-Serif" font-size="10.00">limes_export.h</text>
</a>
</g>
</g>
<!-- Node1&#45;&gt;Node2 -->
<g id="edge1" class="edge">
<title>Node1&#45;&gt;Node2</title>
<path fill="none" stroke="midnightblue" d="M413.84,-243.32C330.53,-239.61 101.93,-216.49 9.84,-76 4.97,-68.57 4.15,-62.83 9.84,-56 22.06,-41.36 133.02,-25.7 202,-17.26"/>
<polygon fill="midnightblue" stroke="midnightblue" points="202.76,-20.7 212.27,-16.02 201.92,-13.75 202.76,-20.7"/>
</g>
<!-- Node3 -->
<g id="node3" class="node">
<title>Node3</title>
<g id="a_node3"><a xlink:href="limes__namespace_8h.html" target="_top" xlink:title=" ">
<polygon fill="none" stroke="black" points="11.84,-0.5 11.84,-19.5 125.84,-19.5 125.84,-0.5 11.84,-0.5"/>
<text text-anchor="middle" x="68.84" y="-7.5" font-family="Helvetica,sans-Serif" font-size="10.00">limes_namespace.h</text>
</a>
</g>
</g>
<!-- Node1&#45;&gt;Node3 -->
<g id="edge2" class="edge">
<title>Node1&#45;&gt;Node3</title>
<path fill="none" stroke="midnightblue" d="M413.67,-244.7C355.75,-244.9 228.6,-240.13 131.84,-199 58.94,-168.01 30.19,-150.35 2.84,-76 -0.22,-67.66 -1.31,-63.86 2.84,-56 10.27,-41.95 24.26,-31.47 37.46,-24.17"/>
<polygon fill="midnightblue" stroke="midnightblue" points="39.07,-27.28 46.39,-19.62 35.89,-21.04 39.07,-27.28"/>
</g>
<!-- Node4 -->
<g id="node4" class="node">
<title>Node4</title>
<g id="a_node4"><a xlink:href="math_helpers_8h.html" target="_top" xlink:title=" ">
<polygon fill="none" stroke="black" points="381.84,-179.5 381.84,-198.5 507.84,-198.5 507.84,-179.5 381.84,-179.5"/>
<text text-anchor="middle" x="444.84" y="-186.5" font-family="Helvetica,sans-Serif" font-size="10.00">../math/mathHelpers.h</text>
</a>
</g>
</g>
<!-- Node1&#45;&gt;Node4 -->
<g id="edge3" class="edge">
<title>Node1&#45;&gt;Node4</title>
<path fill="none" stroke="midnightblue" d="M444.84,-235.08C444.84,-228.01 444.84,-217.86 444.84,-208.99"/>
<polygon fill="midnightblue" stroke="midnightblue" points="448.34,-208.75 444.84,-198.75 441.34,-208.75 448.34,-208.75"/>
</g>
<!-- Node9 -->
<g id="node9" class="node">
<title>Node9</title>
<g id="a_node9"><a xlink:href="preprocessor_8h.html" target="_top" xlink:title=" ">
<polygon fill="none" stroke="black" points="555.34,-56.5 555.34,-75.5 678.34,-75.5 678.34,-56.5 555.34,-56.5"/>
<text text-anchor="middle" x="616.84" y="-63.5" font-family="Helvetica,sans-Serif" font-size="10.00">../misc/preprocessor.h</text>
</a>
</g>
</g>
<!-- Node1&#45;&gt;Node9 -->
<g id="edge25" class="edge">
<title>Node1&#45;&gt;Node9</title>
<path fill="none" stroke="midnightblue" d="M467.82,-235.39C501.8,-221.42 564.97,-190.5 597.84,-143 609.67,-125.92 614.15,-102.16 615.83,-85.78"/>
<polygon fill="midnightblue" stroke="midnightblue" points="619.33,-86.03 616.61,-75.79 612.35,-85.49 619.33,-86.03"/>
</g>
<!-- Node15 -->
<g id="node15" class="node">
<title>Node15</title>
<g id="a_node15"><a xlink:title=" ">
<polygon fill="none" stroke="#bfbfbf" points="644.84,-179.5 644.84,-198.5 694.84,-198.5 694.84,-179.5 644.84,-179.5"/>
<text text-anchor="middle" x="669.84" y="-186.5" font-family="Helvetica,sans-Serif" font-size="10.00">cstdint</text>
</a>
</g>
</g>
<!-- Node1&#45;&gt;Node15 -->
<g id="edge26" class="edge">
<title>Node1&#45;&gt;Node15</title>
<path fill="none" stroke="midnightblue" d="M476.13,-236.49C517.83,-226.48 591.39,-208.83 634.88,-198.39"/>
<polygon fill="midnightblue" stroke="midnightblue" points="635.82,-201.77 644.72,-196.03 634.18,-194.96 635.82,-201.77"/>
</g>
<!-- Node4&#45;&gt;Node2 -->
<g id="edge7" class="edge">
<title>Node4&#45;&gt;Node2</title>
<path fill="none" stroke="midnightblue" d="M453.6,-179.29C461.41,-170.84 472.29,-157.25 476.84,-143 489.2,-104.3 480.72,-81.18 448.84,-56 409.84,-25.18 353.32,-14.85 311.69,-11.67"/>
<polygon fill="midnightblue" stroke="midnightblue" points="311.66,-8.16 301.45,-11.01 311.21,-15.15 311.66,-8.16"/>
</g>
<!-- Node4&#45;&gt;Node3 -->
<g id="edge4" class="edge">
<title>Node4&#45;&gt;Node3</title>
<path fill="none" stroke="midnightblue" d="M381.55,-181.91C270.98,-169.73 50.51,-138.04 9.84,-76 -3.02,-56.37 20.94,-36.84 42.08,-24.39"/>
<polygon fill="midnightblue" stroke="midnightblue" points="43.82,-27.43 50.85,-19.5 40.41,-21.31 43.82,-27.43"/>
</g>
<!-- Node5 -->
<g id="node5" class="node">
<title>Node5</title>
<g id="a_node5"><a xlink:title=" ">
<polygon fill="none" stroke="#bfbfbf" points="421.34,-118 421.34,-137 468.34,-137 468.34,-118 421.34,-118"/>
<text text-anchor="middle" x="444.84" y="-125" font-family="Helvetica,sans-Serif" font-size="10.00">cmath</text>
</a>
</g>
</g>
<!-- Node4&#45;&gt;Node5 -->
<g id="edge5" class="edge">
<title>Node4&#45;&gt;Node5</title>
<path fill="none" stroke="midnightblue" d="M444.84,-179.48C444.84,-171.08 444.84,-157.98 444.84,-147.16"/>
<polygon fill="midnightblue" stroke="midnightblue" points="448.34,-147.01 444.84,-137.01 441.34,-147.01 448.34,-147.01"/>
</g>
<!-- Node6 -->
<g id="node6" class="node">
<title>Node6</title>
<g id="a_node6"><a xlink:title=" ">
<polygon fill="none" stroke="#bfbfbf" points="19.34,-56.5 19.34,-75.5 88.34,-75.5 88.34,-56.5 19.34,-56.5"/>
<text text-anchor="middle" x="53.84" y="-63.5" font-family="Helvetica,sans-Serif" font-size="10.00">type_traits</text>
</a>
</g>
</g>
<!-- Node4&#45;&gt;Node6 -->
<g id="edge6" class="edge">
<title>Node4&#45;&gt;Node6</title>
<path fill="none" stroke="midnightblue" d="M403.23,-179.49C365.08,-171.34 307.19,-158.07 257.84,-143 194.86,-123.77 123.12,-95.51 83.71,-79.42"/>
<polygon fill="midnightblue" stroke="midnightblue" points="84.99,-76.16 74.41,-75.61 82.33,-82.64 84.99,-76.16"/>
</g>
<!-- Node7 -->
<g id="node7" class="node">
<title>Node7</title>
<g id="a_node7"><a xlink:title=" ">
<polygon fill="none" stroke="#bfbfbf" points="524.84,-118 524.84,-137 588.84,-137 588.84,-118 524.84,-118"/>
<text text-anchor="middle" x="556.84" y="-125" font-family="Helvetica,sans-Serif" font-size="10.00">algorithm</text>
</a>
</g>
</g>
<!-- Node4&#45;&gt;Node7 -->
<g id="edge8" class="edge">
<title>Node4&#45;&gt;Node7</title>
<path fill="none" stroke="midnightblue" d="M460.89,-179.48C479.44,-169.62 510.18,-153.29 531.87,-141.77"/>
<polygon fill="midnightblue" stroke="midnightblue" points="533.64,-144.79 540.83,-137.01 530.35,-138.61 533.64,-144.79"/>
</g>
<!-- Node8 -->
<g id="node8" class="node">
<title>Node8</title>
<g id="a_node8"><a xlink:href="limes__assert_8h.html" target="_top" xlink:title=" ">
<polygon fill="none" stroke="black" points="266.84,-118 266.84,-137 402.84,-137 402.84,-118 266.84,-118"/>
<text text-anchor="middle" x="334.84" y="-125" font-family="Helvetica,sans-Serif" font-size="10.00">../system/limes_assert.h</text>
</a>
</g>
</g>
<!-- Node4&#45;&gt;Node8 -->
<g id="edge9" class="edge">
<title>Node4&#45;&gt;Node8</title>
<path fill="none" stroke="midnightblue" d="M429.08,-179.48C410.87,-169.62 380.67,-153.29 359.38,-141.77"/>
<polygon fill="midnightblue" stroke="midnightblue" points="361.04,-138.69 350.57,-137.01 357.71,-144.85 361.04,-138.69"/>
</g>
<!-- Node14 -->
<g id="node14" class="node">
<title>Node14</title>
<g id="a_node14"><a xlink:href="compiler__defs_8h.html" target="_top" xlink:title=" ">
<polygon fill="none" stroke="black" points="645.34,-112.5 645.34,-142.5 752.34,-142.5 752.34,-112.5 645.34,-112.5"/>
<text text-anchor="start" x="653.34" y="-130.5" font-family="Helvetica,sans-Serif" font-size="10.00">../system/compiler</text>
<text text-anchor="middle" x="698.84" y="-119.5" font-family="Helvetica,sans-Serif" font-size="10.00">_defs.h</text>
</a>
</g>
</g>
<!-- Node4&#45;&gt;Node14 -->
<g id="edge22" class="edge">
<title>Node4&#45;&gt;Node14</title>
<path fill="none" stroke="midnightblue" d="M481.24,-179.48C521.4,-170.07 586.81,-154.75 635.44,-143.35"/>
<polygon fill="midnightblue" stroke="midnightblue" points="636.3,-146.75 645.24,-141.06 634.7,-139.93 636.3,-146.75"/>
</g>
<!-- Node8&#45;&gt;Node2 -->
<g id="edge10" class="edge">
<title>Node8&#45;&gt;Node2</title>
<path fill="none" stroke="midnightblue" d="M366.09,-117.95C402.16,-106.52 453.85,-84.38 431.84,-56 417.1,-36.99 357.19,-24.6 311.54,-17.73"/>
<polygon fill="midnightblue" stroke="midnightblue" points="311.85,-14.24 301.45,-16.26 310.84,-21.16 311.85,-14.24"/>
</g>
<!-- Node8&#45;&gt;Node3 -->
<g id="edge11" class="edge">
<title>Node8&#45;&gt;Node3</title>
<path fill="none" stroke="midnightblue" d="M266.61,-118.18C226.59,-111.17 176.14,-98.51 135.84,-76 113.84,-63.71 93.85,-42.37 81.55,-27.51"/>
<polygon fill="midnightblue" stroke="midnightblue" points="84.21,-25.24 75.23,-19.62 78.75,-29.62 84.21,-25.24"/>
</g>
<!-- Node8&#45;&gt;Node6 -->
<g id="edge14" class="edge">
<title>Node8&#45;&gt;Node6</title>
<path fill="none" stroke="midnightblue" d="M294.58,-117.98C242.69,-106.99 152.73,-87.94 98.69,-76.5"/>
<polygon fill="midnightblue" stroke="midnightblue" points="99.22,-73.03 88.71,-74.38 97.77,-79.88 99.22,-73.03"/>
</g>
<!-- Node8&#45;&gt;Node9 -->
<g id="edge12" class="edge">
<title>Node8&#45;&gt;Node9</title>
<path fill="none" stroke="midnightblue" d="M375.25,-117.98C425.71,-107.33 512.06,-89.11 566.7,-77.58"/>
<polygon fill="midnightblue" stroke="midnightblue" points="567.45,-81 576.52,-75.51 566.01,-74.15 567.45,-81"/>
</g>
<!-- Node10 -->
<g id="node10" class="node">
<title>Node10</title>
<g id="a_node10"><a xlink:title=" ">
<polygon fill="none" stroke="#bfbfbf" points="502.84,-0.5 502.84,-19.5 602.84,-19.5 602.84,-0.5 502.84,-0.5"/>
<text text-anchor="middle" x="552.84" y="-7.5" font-family="Helvetica,sans-Serif" font-size="10.00">limes_platform.h</text>
</a>
</g>
</g>
<!-- Node8&#45;&gt;Node10 -->
<g id="edge20" class="edge">
<title>Node8&#45;&gt;Node10</title>
<path fill="none" stroke="midnightblue" d="M356.71,-117.9C379.98,-108.49 417.68,-92.54 448.84,-76 478.66,-60.18 511.43,-39.02 532.07,-25.21"/>
<polygon fill="midnightblue" stroke="midnightblue" points="534.05,-28.1 540.38,-19.6 530.13,-22.29 534.05,-28.1"/>
</g>
<!-- Node11 -->
<g id="node11" class="node">
<title>Node11</title>
<g id="a_node11"><a xlink:title=" ">
<polygon fill="none" stroke="#bfbfbf" points="291.34,-56.5 291.34,-75.5 336.34,-75.5 336.34,-56.5 291.34,-56.5"/>
<text text-anchor="middle" x="313.84" y="-63.5" font-family="Helvetica,sans-Serif" font-size="10.00">utility</text>
</a>
</g>
</g>
<!-- Node8&#45;&gt;Node11 -->
<g id="edge15" class="edge">
<title>Node8&#45;&gt;Node11</title>
<path fill="none" stroke="midnightblue" d="M331.84,-117.98C328.81,-109.4 324.05,-95.93 320.19,-84.98"/>
<polygon fill="midnightblue" stroke="midnightblue" points="323.48,-83.77 316.85,-75.51 316.87,-86.1 323.48,-83.77"/>
</g>
<!-- Node12 -->
<g id="node12" class="node">
<title>Node12</title>
<g id="a_node12"><a xlink:href="_ignore_unused_8h.html" target="_top" xlink:title=" ">
<polygon fill="none" stroke="black" points="144.84,-56.5 144.84,-75.5 272.84,-75.5 272.84,-56.5 144.84,-56.5"/>
<text text-anchor="middle" x="208.84" y="-63.5" font-family="Helvetica,sans-Serif" font-size="10.00">../misc/IgnoreUnused.h</text>
</a>
</g>
</g>
<!-- Node8&#45;&gt;Node12 -->
<g id="edge16" class="edge">
<title>Node8&#45;&gt;Node12</title>
<path fill="none" stroke="midnightblue" d="M316.79,-117.98C295.65,-107.99 260.4,-91.35 235.97,-79.81"/>
<polygon fill="midnightblue" stroke="midnightblue" points="237.4,-76.61 226.86,-75.51 234.41,-82.94 237.4,-76.61"/>
</g>
<!-- Node13 -->
<g id="node13" class="node">
<title>Node13</title>
<g id="a_node13"><a xlink:title=" ">
<polygon fill="none" stroke="#bfbfbf" points="354.84,-56.5 354.84,-75.5 422.84,-75.5 422.84,-56.5 354.84,-56.5"/>
<text text-anchor="middle" x="388.84" y="-63.5" font-family="Helvetica,sans-Serif" font-size="10.00">filesystem</text>
</a>
</g>
</g>
<!-- Node8&#45;&gt;Node13 -->
<g id="edge21" class="edge">
<title>Node8&#45;&gt;Node13</title>
<path fill="none" stroke="midnightblue" d="M342.58,-117.98C350.84,-108.87 364.12,-94.24 374.34,-82.98"/>
<polygon fill="midnightblue" stroke="midnightblue" points="376.99,-85.27 381.12,-75.51 371.81,-80.56 376.99,-85.27"/>
</g>
<!-- Node9&#45;&gt;Node10 -->
<g id="edge13" class="edge">
<title>Node9&#45;&gt;Node10</title>
<path fill="none" stroke="midnightblue" d="M606.56,-56.32C597.01,-48.26 582.56,-36.08 571.06,-26.37"/>
<polygon fill="midnightblue" stroke="midnightblue" points="573.21,-23.61 563.31,-19.83 568.7,-28.96 573.21,-23.61"/>
</g>
<!-- Node12&#45;&gt;Node2 -->
<g id="edge17" class="edge">
<title>Node12&#45;&gt;Node2</title>
<path fill="none" stroke="midnightblue" d="M216.77,-56.08C223.69,-48.3 233.91,-36.8 242.3,-27.37"/>
<polygon fill="midnightblue" stroke="midnightblue" points="245.04,-29.55 249.07,-19.75 239.81,-24.9 245.04,-29.55"/>
</g>
<!-- Node12&#45;&gt;Node3 -->
<g id="edge18" class="edge">
<title>Node12&#45;&gt;Node3</title>
<path fill="none" stroke="midnightblue" d="M186.66,-56.44C163.42,-47.48 126.7,-33.31 100.43,-23.18"/>
<polygon fill="midnightblue" stroke="midnightblue" points="101.51,-19.85 90.92,-19.52 98.99,-26.38 101.51,-19.85"/>
</g>
<!-- Node12&#45;&gt;Node10 -->
<g id="edge19" class="edge">
<title>Node12&#45;&gt;Node10</title>
<path fill="none" stroke="midnightblue" d="M263.35,-56.44C325.84,-46.63 427.97,-30.6 492.72,-20.44"/>
<polygon fill="midnightblue" stroke="midnightblue" points="493.45,-23.87 502.78,-18.86 492.36,-16.95 493.45,-23.87"/>
</g>
<!-- Node14&#45;&gt;Node9 -->
<g id="edge24" class="edge">
<title>Node14&#45;&gt;Node9</title>
<path fill="none" stroke="midnightblue" d="M679.41,-112.4C666.64,-103.13 649.95,-91.03 637.03,-81.65"/>
<polygon fill="midnightblue" stroke="midnightblue" points="638.92,-78.7 628.78,-75.66 634.81,-84.36 638.92,-78.7"/>
</g>
<!-- Node14&#45;&gt;Node10 -->
<g id="edge23" class="edge">
<title>Node14&#45;&gt;Node10</title>
<path fill="none" stroke="midnightblue" d="M700.41,-112.29C701.31,-96.65 700.24,-71.66 686.84,-56 668.38,-34.42 639.23,-23.16 612.83,-17.29"/>
<polygon fill="midnightblue" stroke="midnightblue" points="613.36,-13.83 602.87,-15.3 611.99,-20.69 613.36,-13.83"/>
</g>
</g>
</svg>
        <g id="navigator" transform="translate(0 0)" fill="#404254">
                <rect fill="#f2f5e9" fill-opacity="0.5" stroke="#606060" stroke-width=".5" x="0" y="0" width="60" height="60"/>
                <use id="zoomplus" xlink:href="#zoomPlus" x="17" y="9" onmousedown="handleZoom(evt,'in')"/>
                <use id="zoomminus" xlink:href="#zoomMin" x="42" y="9" onmousedown="handleZoom(evt,'out')"/>
                <use id="reset" xlink:href="#resetDef" x="30" y="36" onmousedown="handleReset()"/>
                <g id="arrowUp" xlink:href="#dirArrow" transform="translate(30 24)" onmousedown="handlePan(0,-1)">
                  <use xlink:href="#rim" fill="#404040">
                        <set attributeName="fill" to="#808080" begin="arrowUp.mouseover" end="arrowUp.mouseout"/>
                  </use>
                  <path fill="none" stroke="white" stroke-width="1.5" d="M0,-3.0v7 M-2.5,-0.5L0,-3.0L2.5,-0.5"/>
                </g>
                <g id="arrowRight" xlink:href="#dirArrow" transform="rotate(90) translate(36 -43)" onmousedown="handlePan(1,0)">
                  <use xlink:href="#rim" fill="#404040">
                        <set attributeName="fill" to="#808080" begin="arrowRight.mouseover" end="arrowRight.mouseout"/>
                  </use>
                  <path fill="none" stroke="white" stroke-width="1.5" d="M0,-3.0v7 M-2.5,-0.5L0,-3.0L2.5,-0.5"/>
                </g>
                <g id="arrowDown" xlink:href="#dirArrow" transform="rotate(180) translate(-30 -48)" onmousedown="handlePan(0,1)">
                  <use xlink:href="#rim" fill="#404040">
                        <set attributeName="fill" to="#808080" begin="arrowDown.mouseover" end="arrowDown.mouseout"/>
                  </use>
                  <path fill="none" stroke="white" stroke-width="1.5" d="M0,-3.0v7 M-2.5,-0.5L0,-3.0L2.5,-0.5"/>
                </g>
                <g id="arrowLeft" xlink:href="#dirArrow" transform="rotate(270) translate(-36 17)" onmousedown="handlePan(-1,0)">
                  <use xlink:href="#rim" fill="#404040">
                        <set attributeName="fill" to="#808080" begin="arrowLeft.mouseover" end="arrowLeft.mouseout"/>
                  </use>
                  <path fill="none" stroke="white" stroke-width="1.5" d="M0,-3.0v7 M-2.5,-0.5L0,-3.0L2.5,-0.5"/>
                </g>
        </g>
        <svg viewBox="0 0 15 15" width="100%" height="30px" preserveAspectRatio="xMaxYMin meet">
         <g id="arrow_out" transform="scale(0.3 0.3)">
          <a xlink:href="bit_field_8h__incl_org.svg" target="_base">
           <rect id="button" ry="5" rx="5" y="6" x="6" height="38" width="38"
                fill="#f2f5e9" fill-opacity="0.5" stroke="#606060" stroke-width="1.0"/>
           <path id="arrow"
             d="M 11.500037,31.436501 C 11.940474,20.09759 22.043105,11.32322 32.158766,21.979434 L 37.068811,17.246167 C 37.068811,17.246167 37.088388,32 37.088388,32 L 22.160133,31.978069 C 22.160133,31.978069 26.997745,27.140456 26.997745,27.140456 C 18.528582,18.264221 13.291696,25.230495 11.500037,31.436501 z"
             style="fill:#404040;"/>
          </a>
         </g>
        </svg>
</svg>
