<?xml version="1.0" encoding="UTF-8" standalone="no"?>
<!DOCTYPE svg PUBLIC "-//W3C//DTD SVG 1.1//EN"
 "http://www.w3.org/Graphics/SVG/1.1/DTD/svg11.dtd">
<!-- Generated by graphviz version 2.43.0 (0)
 -->
<!-- Title: build_date.h Pages: 1 -->
<svg width="393pt" height="207pt"
 viewBox="0.00 0.00 393.00 207.00" xmlns="http://www.w3.org/2000/svg" xmlns:xlink="http://www.w3.org/1999/xlink">
<g id="graph0" class="graph" transform="scale(1 1) rotate(0) translate(4 203)">
<title>build_date.h</title>
<!-- Node1 -->
<g id="node1" class="node">
<title>Node1</title>
<g id="a_node1"><a xlink:title=" ">
<polygon fill="#bfbfbf" stroke="black" points="168,-179.5 168,-198.5 245,-198.5 245,-179.5 168,-179.5"/>
<text text-anchor="middle" x="206.5" y="-186.5" font-family="Helvetica,sans-Serif" font-size="10.00">build_date.h</text>
</a>
</g>
</g>
<!-- Node2 -->
<g id="node2" class="node">
<title>Node2</title>
<g id="a_node2"><a xlink:title=" ">
<polygon fill="none" stroke="#bfbfbf" points="0,-118 0,-137 89,-137 89,-118 0,-118"/>
<text text-anchor="middle" x="44.5" y="-125" font-family="Helvetica,sans-Serif" font-size="10.00">limes_export.h</text>
</a>
</g>
</g>
<!-- Node1&#45;&gt;Node2 -->
<g id="edge1" class="edge">
<title>Node1&#45;&gt;Node2</title>
<path fill="none" stroke="midnightblue" d="M183.29,-179.48C155.5,-169.27 108.78,-152.11 77.31,-140.55"/>
<polygon fill="midnightblue" stroke="midnightblue" points="78.26,-137.17 67.67,-137.01 75.85,-143.74 78.26,-137.17"/>
</g>
<!-- Node3 -->
<g id="node3" class="node">
<title>Node3</title>
<g id="a_node3"><a xlink:href="limes__namespace_8h.html" target="_top" xlink:title=" ">
<polygon fill="none" stroke="black" points="107.5,-118 107.5,-137 221.5,-137 221.5,-118 107.5,-118"/>
<text text-anchor="middle" x="164.5" y="-125" font-family="Helvetica,sans-Serif" font-size="10.00">limes_namespace.h</text>
</a>
</g>
</g>
<!-- Node1&#45;&gt;Node3 -->
<g id="edge2" class="edge">
<title>Node1&#45;&gt;Node3</title>
<path fill="none" stroke="midnightblue" d="M200.48,-179.48C194.24,-170.64 184.33,-156.59 176.48,-145.48"/>
<polygon fill="midnightblue" stroke="midnightblue" points="179.13,-143.16 170.51,-137.01 173.41,-147.2 179.13,-143.16"/>
</g>
<!-- Node4 -->
<g id="node4" class="node">
<title>Node4</title>
<g id="a_node4"><a xlink:href="preprocessor_8h.html" target="_top" xlink:title=" ">
<polygon fill="none" stroke="black" points="188,-56.5 188,-75.5 311,-75.5 311,-56.5 188,-56.5"/>
<text text-anchor="middle" x="249.5" y="-63.5" font-family="Helvetica,sans-Serif" font-size="10.00">../misc/preprocessor.h</text>
</a>
</g>
</g>
<!-- Node1&#45;&gt;Node4 -->
<g id="edge3" class="edge">
<title>Node1&#45;&gt;Node4</title>
<path fill="none" stroke="midnightblue" d="M211.95,-179.34C217.31,-170.49 225.41,-156.22 230.5,-143 237.81,-124 243.07,-101.24 246.17,-85.61"/>
<polygon fill="midnightblue" stroke="midnightblue" points="249.64,-86.12 248.05,-75.64 242.76,-84.82 249.64,-86.12"/>
</g>
<!-- Node6 -->
<g id="node6" class="node">
<title>Node6</title>
<g id="a_node6"><a xlink:href="compiler__defs_8h.html" target="_top" xlink:title=" ">
<polygon fill="none" stroke="black" points="278,-112.5 278,-142.5 385,-142.5 385,-112.5 278,-112.5"/>
<text text-anchor="start" x="286" y="-130.5" font-family="Helvetica,sans-Serif" font-size="10.00">../system/compiler</text>
<text text-anchor="middle" x="331.5" y="-119.5" font-family="Helvetica,sans-Serif" font-size="10.00">_defs.h</text>
</a>
</g>
</g>
<!-- Node1&#45;&gt;Node6 -->
<g id="edge5" class="edge">
<title>Node1&#45;&gt;Node6</title>
<path fill="none" stroke="midnightblue" d="M224.41,-179.48C242.21,-171 270.08,-157.74 292.92,-146.86"/>
<polygon fill="midnightblue" stroke="midnightblue" points="294.51,-149.98 302.04,-142.52 291.51,-143.66 294.51,-149.98"/>
</g>
<!-- Node5 -->
<g id="node5" class="node">
<title>Node5</title>
<g id="a_node5"><a xlink:title=" ">
<polygon fill="none" stroke="#bfbfbf" points="244.5,-0.5 244.5,-19.5 344.5,-19.5 344.5,-0.5 244.5,-0.5"/>
<text text-anchor="middle" x="294.5" y="-7.5" font-family="Helvetica,sans-Serif" font-size="10.00">limes_platform.h</text>
</a>
</g>
</g>
<!-- Node4&#45;&gt;Node5 -->
<g id="edge4" class="edge">
<title>Node4&#45;&gt;Node5</title>
<path fill="none" stroke="midnightblue" d="M256.93,-56.08C263.35,-48.38 272.81,-37.03 280.62,-27.65"/>
<polygon fill="midnightblue" stroke="midnightblue" points="283.49,-29.67 287.21,-19.75 278.12,-25.19 283.49,-29.67"/>
</g>
<!-- Node6&#45;&gt;Node4 -->
<g id="edge7" class="edge">
<title>Node6&#45;&gt;Node4</title>
<path fill="none" stroke="midnightblue" d="M312.07,-112.4C299.29,-103.13 282.61,-91.03 269.69,-81.65"/>
<polygon fill="midnightblue" stroke="midnightblue" points="271.58,-78.7 261.43,-75.66 267.47,-84.36 271.58,-78.7"/>
</g>
<!-- Node6&#45;&gt;Node5 -->
<g id="edge6" class="edge">
<title>Node6&#45;&gt;Node5</title>
<path fill="none" stroke="midnightblue" d="M330.82,-112.35C329.78,-97.84 327.14,-74.81 320.5,-56 317.09,-46.34 311.59,-36.39 306.52,-28.32"/>
<polygon fill="midnightblue" stroke="midnightblue" points="309.35,-26.25 300.93,-19.82 303.51,-30.1 309.35,-26.25"/>
</g>
</g>
</svg>
