<?xml version="1.0" encoding="UTF-8" standalone="no"?>
<!DOCTYPE svg PUBLIC "-//W3C//DTD SVG 1.1//EN"
 "http://www.w3.org/Graphics/SVG/1.1/DTD/svg11.dtd">
<!-- Generated by graphviz version 2.43.0 (0)
 -->
<!-- Title: circle.h Pages: 1 -->
<!--zoomable 252 -->
<svg id="main" version="1.1" xmlns="http://www.w3.org/2000/svg" xmlns:xlink="http://www.w3.org/1999/xlink" xml:space="preserve" onload="init(evt)">
<style type="text/css"><![CDATA[
.edge:hover path { stroke: red; }
.edge:hover polygon { stroke: red; fill: red; }
]]></style>
<script type="text/javascript"><![CDATA[
var edges = document.getElementsByTagName('g');
if (edges && edges.length) {
  for (var i=0;i<edges.length;i++) {
    if (edges[i].id.substr(0,4)=='edge') {
      edges[i].setAttribute('class','edge');
    }
  }
}
]]></script>
        <defs>
                <circle id="rim" cx="0" cy="0" r="7"/>
                <circle id="rim2" cx="0" cy="0" r="3.5"/>
                <g id="zoomPlus">
                        <use xlink:href="#rim" fill="#404040">
                                <set attributeName="fill" to="#808080" begin="zoomplus.mouseover" end="zoomplus.mouseout"/>
                        </use>
                        <path d="M-4,0h8M0,-4v8" fill="none" stroke="white" stroke-width="1.5" pointer-events="none"/>
                </g>
                <g id="zoomMin">
                        <use xlink:href="#rim" fill="#404040">
                                <set attributeName="fill" to="#808080" begin="zoomminus.mouseover" end="zoomminus.mouseout"/>
                        </use>
                        <path d="M-4,0h8" fill="none" stroke="white" stroke-width="1.5" pointer-events="none"/>
                </g>
                <g id="dirArrow">
                        <path fill="none" stroke="white" stroke-width="1.5" d="M0,-3.0v7 M-2.5,-0.5L0,-3.0L2.5,-0.5"/>
                </g>
               <g id="resetDef">
                       <use xlink:href="#rim2" fill="#404040">
                               <set attributeName="fill" to="#808080" begin="reset.mouseover" end="reset.mouseout"/>
                       </use>
               </g>
        </defs>

<script type="text/javascript">
var viewWidth = 880;
var viewHeight = 252;
var sectionId = 'dynsection-0';
</script>
<script xlink:href="svgpan.js"/>
<svg id="graph" class="graph">
<g id="viewport">
<title>circle.h</title>
<!-- Node1 -->
<g id="node1" class="node">
<title>Node1</title>
<g id="a_node1"><a xlink:title=" ">
<polygon fill="#bfbfbf" stroke="black" points="515,-224.5 515,-243.5 567,-243.5 567,-224.5 515,-224.5"/>
<text text-anchor="middle" x="541" y="-231.5" font-family="Helvetica,sans-Serif" font-size="10.00">circle.h</text>
</a>
</g>
</g>
<!-- Node2 -->
<g id="node2" class="node">
<title>Node2</title>
<g id="a_node2"><a xlink:href="limes__namespace_8h.html" target="_top" xlink:title=" ">
<polygon fill="none" stroke="black" points="60,-0.5 60,-19.5 174,-19.5 174,-0.5 60,-0.5"/>
<text text-anchor="middle" x="117" y="-7.5" font-family="Helvetica,sans-Serif" font-size="10.00">limes_namespace.h</text>
</a>
</g>
</g>
<!-- Node1&#45;&gt;Node2 -->
<g id="edge1" class="edge">
<title>Node1&#45;&gt;Node2</title>
<path fill="none" stroke="midnightblue" d="M514.86,-231.81C436.07,-227.95 202.04,-214.5 131,-188 57,-160.39 -31.48,-121.94 12,-56 22.64,-39.86 40.4,-29.49 58.31,-22.83"/>
<polygon fill="midnightblue" stroke="midnightblue" points="59.87,-26 68.23,-19.5 57.64,-19.37 59.87,-26"/>
</g>
<!-- Node3 -->
<g id="node3" class="node">
<title>Node3</title>
<g id="a_node3"><a xlink:title=" ">
<polygon fill="none" stroke="#bfbfbf" points="531.5,-0.5 531.5,-19.5 620.5,-19.5 620.5,-0.5 531.5,-0.5"/>
<text text-anchor="middle" x="576" y="-7.5" font-family="Helvetica,sans-Serif" font-size="10.00">limes_export.h</text>
</a>
</g>
</g>
<!-- Node1&#45;&gt;Node3 -->
<g id="edge2" class="edge">
<title>Node1&#45;&gt;Node3</title>
<path fill="none" stroke="midnightblue" d="M544.87,-224.39C555.11,-201.08 582.73,-134.59 592,-76 593.39,-67.22 593.51,-64.76 592,-56 590.44,-46.91 587.21,-37.22 584.06,-29.17"/>
<polygon fill="midnightblue" stroke="midnightblue" points="587.2,-27.6 580.11,-19.72 580.74,-30.3 587.2,-27.6"/>
</g>
<!-- Node4 -->
<g id="node4" class="node">
<title>Node4</title>
<g id="a_node4"><a xlink:title=" ">
<polygon fill="none" stroke="#bfbfbf" points="739,-0.5 739,-19.5 839,-19.5 839,-0.5 739,-0.5"/>
<text text-anchor="middle" x="789" y="-7.5" font-family="Helvetica,sans-Serif" font-size="10.00">limes_platform.h</text>
</a>
</g>
</g>
<!-- Node1&#45;&gt;Node4 -->
<g id="edge3" class="edge">
<title>Node1&#45;&gt;Node4</title>
<path fill="none" stroke="midnightblue" d="M567.18,-230.78C634.53,-223.41 812.46,-193.12 869,-76 880.51,-52.17 852.04,-34.19 825.94,-23.24"/>
<polygon fill="midnightblue" stroke="midnightblue" points="827.09,-19.94 816.5,-19.53 824.53,-26.45 827.09,-19.94"/>
</g>
<!-- Node5 -->
<g id="node5" class="node">
<title>Node5</title>
<g id="a_node5"><a xlink:href="2_dshape_8h.html" target="_top" xlink:title=" ">
<polygon fill="none" stroke="black" points="21,-56.5 21,-75.5 89,-75.5 89,-56.5 21,-56.5"/>
<text text-anchor="middle" x="55" y="-63.5" font-family="Helvetica,sans-Serif" font-size="10.00">2Dshape.h</text>
</a>
</g>
</g>
<!-- Node1&#45;&gt;Node5 -->
<g id="edge4" class="edge">
<title>Node1&#45;&gt;Node5</title>
<path fill="none" stroke="midnightblue" d="M514.99,-231.28C424.83,-224.75 127.82,-198.46 65,-132 53.62,-119.95 51.93,-100.66 52.6,-86.22"/>
<polygon fill="midnightblue" stroke="midnightblue" points="56.12,-86.18 53.51,-75.91 49.15,-85.57 56.12,-86.18"/>
</g>
<!-- Node6 -->
<g id="node6" class="node">
<title>Node6</title>
<g id="a_node6"><a xlink:href="preprocessor_8h.html" target="_top" xlink:title=" ">
<polygon fill="none" stroke="black" points="718.5,-56.5 718.5,-75.5 859.5,-75.5 859.5,-56.5 718.5,-56.5"/>
<text text-anchor="middle" x="789" y="-63.5" font-family="Helvetica,sans-Serif" font-size="10.00">../../../misc/preprocessor.h</text>
</a>
</g>
</g>
<!-- Node1&#45;&gt;Node6 -->
<g id="edge7" class="edge">
<title>Node1&#45;&gt;Node6</title>
<path fill="none" stroke="midnightblue" d="M567.02,-231.22C601.26,-227.76 662.01,-217.59 704,-188 742.17,-161.11 769,-111.36 781.35,-84.8"/>
<polygon fill="midnightblue" stroke="midnightblue" points="784.59,-86.11 785.49,-75.56 778.21,-83.25 784.59,-86.11"/>
</g>
<!-- Node7 -->
<g id="node7" class="node">
<title>Node7</title>
<g id="a_node7"><a xlink:href="math_helpers_8h.html" target="_top" xlink:title=" ">
<polygon fill="none" stroke="black" points="338.5,-168.5 338.5,-187.5 445.5,-187.5 445.5,-168.5 338.5,-168.5"/>
<text text-anchor="middle" x="392" y="-175.5" font-family="Helvetica,sans-Serif" font-size="10.00">../../mathHelpers.h</text>
</a>
</g>
</g>
<!-- Node1&#45;&gt;Node7 -->
<g id="edge9" class="edge">
<title>Node1&#45;&gt;Node7</title>
<path fill="none" stroke="midnightblue" d="M517.39,-224.44C492.55,-215.44 453.23,-201.19 425.25,-191.05"/>
<polygon fill="midnightblue" stroke="midnightblue" points="426.1,-187.63 415.5,-187.52 423.71,-194.21 426.1,-187.63"/>
</g>
<!-- Node5&#45;&gt;Node2 -->
<g id="edge5" class="edge">
<title>Node5&#45;&gt;Node2</title>
<path fill="none" stroke="midnightblue" d="M64.96,-56.32C74.13,-48.34 87.94,-36.31 99.03,-26.65"/>
<polygon fill="midnightblue" stroke="midnightblue" points="101.62,-29.04 106.86,-19.83 97.02,-23.76 101.62,-29.04"/>
</g>
<!-- Node5&#45;&gt;Node3 -->
<g id="edge6" class="edge">
<title>Node5&#45;&gt;Node3</title>
<path fill="none" stroke="midnightblue" d="M89.31,-61.18C104,-59.56 121.34,-57.66 137,-56 275.41,-41.31 438.46,-24.81 521.48,-16.46"/>
<polygon fill="midnightblue" stroke="midnightblue" points="521.84,-19.94 531.44,-15.46 521.14,-12.98 521.84,-19.94"/>
</g>
<!-- Node6&#45;&gt;Node4 -->
<g id="edge8" class="edge">
<title>Node6&#45;&gt;Node4</title>
<path fill="none" stroke="midnightblue" d="M789,-56.08C789,-49.01 789,-38.86 789,-29.99"/>
<polygon fill="midnightblue" stroke="midnightblue" points="792.5,-29.75 789,-19.75 785.5,-29.75 792.5,-29.75"/>
</g>
<!-- Node7&#45;&gt;Node2 -->
<g id="edge10" class="edge">
<title>Node7&#45;&gt;Node2</title>
<path fill="none" stroke="midnightblue" d="M338.27,-170.12C280.27,-159.82 189.22,-134.87 137,-76 125.63,-63.18 120.72,-43.99 118.61,-29.78"/>
<polygon fill="midnightblue" stroke="midnightblue" points="122.06,-29.21 117.44,-19.68 115.11,-30.01 122.06,-29.21"/>
</g>
<!-- Node7&#45;&gt;Node3 -->
<g id="edge13" class="edge">
<title>Node7&#45;&gt;Node3</title>
<path fill="none" stroke="midnightblue" d="M445.61,-173.13C479.24,-168.18 521.64,-157.03 551,-132 580.43,-106.92 580.81,-57.17 578.46,-29.92"/>
<polygon fill="midnightblue" stroke="midnightblue" points="581.92,-29.33 577.36,-19.76 574.96,-30.08 581.92,-29.33"/>
</g>
<!-- Node8 -->
<g id="node8" class="node">
<title>Node8</title>
<g id="a_node8"><a xlink:title=" ">
<polygon fill="none" stroke="#bfbfbf" points="73.5,-112.5 73.5,-131.5 120.5,-131.5 120.5,-112.5 73.5,-112.5"/>
<text text-anchor="middle" x="97" y="-119.5" font-family="Helvetica,sans-Serif" font-size="10.00">cmath</text>
</a>
</g>
</g>
<!-- Node7&#45;&gt;Node8 -->
<g id="edge11" class="edge">
<title>Node7&#45;&gt;Node8</title>
<path fill="none" stroke="midnightblue" d="M338.18,-168.53C286.06,-160.1 204.88,-146.38 135,-132 133.55,-131.7 132.07,-131.39 130.57,-131.06"/>
<polygon fill="midnightblue" stroke="midnightblue" points="131.2,-127.62 120.67,-128.83 129.66,-134.45 131.2,-127.62"/>
</g>
<!-- Node9 -->
<g id="node9" class="node">
<title>Node9</title>
<g id="a_node9"><a xlink:title=" ">
<polygon fill="none" stroke="#bfbfbf" points="145.5,-56.5 145.5,-75.5 214.5,-75.5 214.5,-56.5 145.5,-56.5"/>
<text text-anchor="middle" x="180" y="-63.5" font-family="Helvetica,sans-Serif" font-size="10.00">type_traits</text>
</a>
</g>
</g>
<!-- Node7&#45;&gt;Node9 -->
<g id="edge12" class="edge">
<title>Node7&#45;&gt;Node9</title>
<path fill="none" stroke="midnightblue" d="M375.37,-168.37C338.45,-149.21 249.45,-103.04 205.48,-80.22"/>
<polygon fill="midnightblue" stroke="midnightblue" points="207.05,-77.09 196.56,-75.59 203.83,-83.3 207.05,-77.09"/>
</g>
<!-- Node10 -->
<g id="node10" class="node">
<title>Node10</title>
<g id="a_node10"><a xlink:title=" ">
<polygon fill="none" stroke="#bfbfbf" points="478,-112.5 478,-131.5 542,-131.5 542,-112.5 478,-112.5"/>
<text text-anchor="middle" x="510" y="-119.5" font-family="Helvetica,sans-Serif" font-size="10.00">algorithm</text>
</a>
</g>
</g>
<!-- Node7&#45;&gt;Node10 -->
<g id="edge14" class="edge">
<title>Node7&#45;&gt;Node10</title>
<path fill="none" stroke="midnightblue" d="M410.7,-168.44C429.95,-159.64 460.16,-145.81 482.2,-135.72"/>
<polygon fill="midnightblue" stroke="midnightblue" points="483.76,-138.86 491.39,-131.52 480.84,-132.5 483.76,-138.86"/>
</g>
<!-- Node11 -->
<g id="node11" class="node">
<title>Node11</title>
<g id="a_node11"><a xlink:href="limes__assert_8h.html" target="_top" xlink:title=" ">
<polygon fill="none" stroke="black" points="324,-112.5 324,-131.5 460,-131.5 460,-112.5 324,-112.5"/>
<text text-anchor="middle" x="392" y="-119.5" font-family="Helvetica,sans-Serif" font-size="10.00">../system/limes_assert.h</text>
</a>
</g>
</g>
<!-- Node7&#45;&gt;Node11 -->
<g id="edge15" class="edge">
<title>Node7&#45;&gt;Node11</title>
<path fill="none" stroke="midnightblue" d="M392,-168.08C392,-161.01 392,-150.86 392,-141.99"/>
<polygon fill="midnightblue" stroke="midnightblue" points="395.5,-141.75 392,-131.75 388.5,-141.75 395.5,-141.75"/>
</g>
<!-- Node11&#45;&gt;Node2 -->
<g id="edge17" class="edge">
<title>Node11&#45;&gt;Node2</title>
<path fill="none" stroke="midnightblue" d="M392.17,-112.35C391.94,-98.29 389.3,-70.59 373,-56 345.8,-31.64 250.68,-20.1 184.38,-14.9"/>
<polygon fill="midnightblue" stroke="midnightblue" points="184.24,-11.38 174.01,-14.12 183.71,-18.36 184.24,-11.38"/>
</g>
<!-- Node11&#45;&gt;Node3 -->
<g id="edge16" class="edge">
<title>Node11&#45;&gt;Node3</title>
<path fill="none" stroke="midnightblue" d="M444.43,-112.43C486.48,-104.54 541.01,-91.71 557,-76 569.18,-64.04 573.66,-44.74 575.25,-30.27"/>
<polygon fill="midnightblue" stroke="midnightblue" points="578.77,-30.16 576,-19.94 571.79,-29.66 578.77,-30.16"/>
</g>
<!-- Node11&#45;&gt;Node4 -->
<g id="edge24" class="edge">
<title>Node11&#45;&gt;Node4</title>
<path fill="none" stroke="midnightblue" d="M430.08,-112.43C467.6,-103.82 526.48,-89.88 577,-76 639.42,-58.86 711.3,-36.19 753.28,-22.66"/>
<polygon fill="midnightblue" stroke="midnightblue" points="754.6,-25.91 763.04,-19.5 752.45,-19.25 754.6,-25.91"/>
</g>
<!-- Node11&#45;&gt;Node6 -->
<g id="edge18" class="edge">
<title>Node11&#45;&gt;Node6</title>
<path fill="none" stroke="midnightblue" d="M454.91,-112.44C525.91,-102.79 641.24,-87.1 716.11,-76.92"/>
<polygon fill="midnightblue" stroke="midnightblue" points="716.96,-80.33 726.39,-75.52 716.01,-73.4 716.96,-80.33"/>
</g>
<!-- Node11&#45;&gt;Node9 -->
<g id="edge19" class="edge">
<title>Node11&#45;&gt;Node9</title>
<path fill="none" stroke="midnightblue" d="M358.41,-112.44C321.82,-103.12 263.17,-88.18 223.18,-78"/>
<polygon fill="midnightblue" stroke="midnightblue" points="223.99,-74.59 213.44,-75.52 222.27,-81.38 223.99,-74.59"/>
</g>
<!-- Node12 -->
<g id="node12" class="node">
<title>Node12</title>
<g id="a_node12"><a xlink:title=" ">
<polygon fill="none" stroke="#bfbfbf" points="232.5,-56.5 232.5,-75.5 277.5,-75.5 277.5,-56.5 232.5,-56.5"/>
<text text-anchor="middle" x="255" y="-63.5" font-family="Helvetica,sans-Serif" font-size="10.00">utility</text>
</a>
</g>
</g>
<!-- Node11&#45;&gt;Node12 -->
<g id="edge20" class="edge">
<title>Node11&#45;&gt;Node12</title>
<path fill="none" stroke="midnightblue" d="M370.3,-112.44C347.65,-103.52 311.93,-89.44 286.25,-79.32"/>
<polygon fill="midnightblue" stroke="midnightblue" points="287.2,-75.93 276.61,-75.52 284.63,-82.44 287.2,-75.93"/>
</g>
<!-- Node13 -->
<g id="node13" class="node">
<title>Node13</title>
<g id="a_node13"><a xlink:href="_ignore_unused_8h.html" target="_top" xlink:title=" ">
<polygon fill="none" stroke="black" points="420,-56.5 420,-75.5 548,-75.5 548,-56.5 420,-56.5"/>
<text text-anchor="middle" x="484" y="-63.5" font-family="Helvetica,sans-Serif" font-size="10.00">../misc/IgnoreUnused.h</text>
</a>
</g>
</g>
<!-- Node11&#45;&gt;Node13 -->
<g id="edge21" class="edge">
<title>Node11&#45;&gt;Node13</title>
<path fill="none" stroke="midnightblue" d="M406.78,-112.32C421.27,-103.82 443.58,-90.73 460.5,-80.8"/>
<polygon fill="midnightblue" stroke="midnightblue" points="462.41,-83.74 469.26,-75.65 458.86,-77.7 462.41,-83.74"/>
</g>
<!-- Node14 -->
<g id="node14" class="node">
<title>Node14</title>
<g id="a_node14"><a xlink:title=" ">
<polygon fill="none" stroke="#bfbfbf" points="296,-56.5 296,-75.5 364,-75.5 364,-56.5 296,-56.5"/>
<text text-anchor="middle" x="330" y="-63.5" font-family="Helvetica,sans-Serif" font-size="10.00">filesystem</text>
</a>
</g>
</g>
<!-- Node11&#45;&gt;Node14 -->
<g id="edge25" class="edge">
<title>Node11&#45;&gt;Node14</title>
<path fill="none" stroke="midnightblue" d="M382.04,-112.32C372.88,-104.34 359.07,-92.31 347.98,-82.65"/>
<polygon fill="midnightblue" stroke="midnightblue" points="349.99,-79.76 340.15,-75.83 345.39,-85.04 349.99,-79.76"/>
</g>
<!-- Node13&#45;&gt;Node2 -->
<g id="edge23" class="edge">
<title>Node13&#45;&gt;Node2</title>
<path fill="none" stroke="midnightblue" d="M425.85,-56.44C360.16,-46.78 253.41,-31.07 184.21,-20.89"/>
<polygon fill="midnightblue" stroke="midnightblue" points="184.68,-17.42 174.28,-19.43 183.66,-24.35 184.68,-17.42"/>
</g>
<!-- Node13&#45;&gt;Node3 -->
<g id="edge22" class="edge">
<title>Node13&#45;&gt;Node3</title>
<path fill="none" stroke="midnightblue" d="M498.78,-56.32C513.27,-47.82 535.58,-34.73 552.5,-24.8"/>
<polygon fill="midnightblue" stroke="midnightblue" points="554.41,-27.74 561.26,-19.65 550.86,-21.7 554.41,-27.74"/>
</g>
</g>
</svg>
        <g id="navigator" transform="translate(0 0)" fill="#404254">
                <rect fill="#f2f5e9" fill-opacity="0.5" stroke="#606060" stroke-width=".5" x="0" y="0" width="60" height="60"/>
                <use id="zoomplus" xlink:href="#zoomPlus" x="17" y="9" onmousedown="handleZoom(evt,'in')"/>
                <use id="zoomminus" xlink:href="#zoomMin" x="42" y="9" onmousedown="handleZoom(evt,'out')"/>
                <use id="reset" xlink:href="#resetDef" x="30" y="36" onmousedown="handleReset()"/>
                <g id="arrowUp" xlink:href="#dirArrow" transform="translate(30 24)" onmousedown="handlePan(0,-1)">
                  <use xlink:href="#rim" fill="#404040">
                        <set attributeName="fill" to="#808080" begin="arrowUp.mouseover" end="arrowUp.mouseout"/>
                  </use>
                  <path fill="none" stroke="white" stroke-width="1.5" d="M0,-3.0v7 M-2.5,-0.5L0,-3.0L2.5,-0.5"/>
                </g>
                <g id="arrowRight" xlink:href="#dirArrow" transform="rotate(90) translate(36 -43)" onmousedown="handlePan(1,0)">
                  <use xlink:href="#rim" fill="#404040">
                        <set attributeName="fill" to="#808080" begin="arrowRight.mouseover" end="arrowRight.mouseout"/>
                  </use>
                  <path fill="none" stroke="white" stroke-width="1.5" d="M0,-3.0v7 M-2.5,-0.5L0,-3.0L2.5,-0.5"/>
                </g>
                <g id="arrowDown" xlink:href="#dirArrow" transform="rotate(180) translate(-30 -48)" onmousedown="handlePan(0,1)">
                  <use xlink:href="#rim" fill="#404040">
                        <set attributeName="fill" to="#808080" begin="arrowDown.mouseover" end="arrowDown.mouseout"/>
                  </use>
                  <path fill="none" stroke="white" stroke-width="1.5" d="M0,-3.0v7 M-2.5,-0.5L0,-3.0L2.5,-0.5"/>
                </g>
                <g id="arrowLeft" xlink:href="#dirArrow" transform="rotate(270) translate(-36 17)" onmousedown="handlePan(-1,0)">
                  <use xlink:href="#rim" fill="#404040">
                        <set attributeName="fill" to="#808080" begin="arrowLeft.mouseover" end="arrowLeft.mouseout"/>
                  </use>
                  <path fill="none" stroke="white" stroke-width="1.5" d="M0,-3.0v7 M-2.5,-0.5L0,-3.0L2.5,-0.5"/>
                </g>
        </g>
        <svg viewBox="0 0 15 15" width="100%" height="30px" preserveAspectRatio="xMaxYMin meet">
         <g id="arrow_out" transform="scale(0.3 0.3)">
          <a xlink:href="circle_8h__incl_org.svg" target="_base">
           <rect id="button" ry="5" rx="5" y="6" x="6" height="38" width="38"
                fill="#f2f5e9" fill-opacity="0.5" stroke="#606060" stroke-width="1.0"/>
           <path id="arrow"
             d="M 11.500037,31.436501 C 11.940474,20.09759 22.043105,11.32322 32.158766,21.979434 L 37.068811,17.246167 C 37.068811,17.246167 37.088388,32 37.088388,32 L 22.160133,31.978069 C 22.160133,31.978069 26.997745,27.140456 26.997745,27.140456 C 18.528582,18.264221 13.291696,25.230495 11.500037,31.436501 z"
             style="fill:#404040;"/>
          </a>
         </g>
        </svg>
</svg>
