<?xml version="1.0" encoding="UTF-8" standalone="no"?>
<!DOCTYPE svg PUBLIC "-//W3C//DTD SVG 1.1//EN"
 "http://www.w3.org/Graphics/SVG/1.1/DTD/svg11.dtd">
<!-- Generated by graphviz version 2.43.0 (0)
 -->
<!-- Title: circle.h Pages: 1 -->
<!--zoomable 252 -->
<svg id="main" version="1.1" xmlns="http://www.w3.org/2000/svg" xmlns:xlink="http://www.w3.org/1999/xlink" xml:space="preserve" onload="init(evt)">
<style type="text/css"><![CDATA[
.edge:hover path { stroke: red; }
.edge:hover polygon { stroke: red; fill: red; }
]]></style>
<script type="text/javascript"><![CDATA[
var edges = document.getElementsByTagName('g');
if (edges && edges.length) {
  for (var i=0;i<edges.length;i++) {
    if (edges[i].id.substr(0,4)=='edge') {
      edges[i].setAttribute('class','edge');
    }
  }
}
]]></script>
        <defs>
                <circle id="rim" cx="0" cy="0" r="7"/>
                <circle id="rim2" cx="0" cy="0" r="3.5"/>
                <g id="zoomPlus">
                        <use xlink:href="#rim" fill="#404040">
                                <set attributeName="fill" to="#808080" begin="zoomplus.mouseover" end="zoomplus.mouseout"/>
                        </use>
                        <path d="M-4,0h8M0,-4v8" fill="none" stroke="white" stroke-width="1.5" pointer-events="none"/>
                </g>
                <g id="zoomMin">
                        <use xlink:href="#rim" fill="#404040">
                                <set attributeName="fill" to="#808080" begin="zoomminus.mouseover" end="zoomminus.mouseout"/>
                        </use>
                        <path d="M-4,0h8" fill="none" stroke="white" stroke-width="1.5" pointer-events="none"/>
                </g>
                <g id="dirArrow">
                        <path fill="none" stroke="white" stroke-width="1.5" d="M0,-3.0v7 M-2.5,-0.5L0,-3.0L2.5,-0.5"/>
                </g>
               <g id="resetDef">
                       <use xlink:href="#rim2" fill="#404040">
                               <set attributeName="fill" to="#808080" begin="reset.mouseover" end="reset.mouseout"/>
                       </use>
               </g>
        </defs>

<script type="text/javascript">
var viewWidth = 972;
var viewHeight = 252;
var sectionId = 'dynsection-0';
</script>
<script xlink:href="svgpan.js"/>
<svg id="graph" class="graph">
<g id="viewport">
<title>circle.h</title>
<!-- Node1 -->
<g id="node1" class="node">
<title>Node1</title>
<g id="a_node1"><a xlink:title=" ">
<polygon fill="#bfbfbf" stroke="black" points="632,-224.5 632,-243.5 684,-243.5 684,-224.5 632,-224.5"/>
<text text-anchor="middle" x="658" y="-231.5" font-family="Helvetica,sans-Serif" font-size="10.00">circle.h</text>
</a>
</g>
</g>
<!-- Node2 -->
<g id="node2" class="node">
<title>Node2</title>
<g id="a_node2"><a xlink:href="limes__namespace_8h.html" target="_top" xlink:title=" ">
<polygon fill="none" stroke="black" points="0,-0.5 0,-19.5 114,-19.5 114,-0.5 0,-0.5"/>
<text text-anchor="middle" x="57" y="-7.5" font-family="Helvetica,sans-Serif" font-size="10.00">limes_namespace.h</text>
</a>
</g>
</g>
<!-- Node1&#45;&gt;Node2 -->
<g id="edge1" class="edge">
<title>Node1&#45;&gt;Node2</title>
<path fill="none" stroke="midnightblue" d="M631.95,-233.65C546.26,-234.77 267.23,-230.2 67,-132 33.96,-115.79 20.81,-109.69 6,-76 -2.6,-56.43 16.09,-37.62 33.22,-25.31"/>
<polygon fill="midnightblue" stroke="midnightblue" points="35.53,-27.98 41.88,-19.5 31.63,-22.17 35.53,-27.98"/>
</g>
<!-- Node3 -->
<g id="node3" class="node">
<title>Node3</title>
<g id="a_node3"><a xlink:title=" ">
<polygon fill="none" stroke="#bfbfbf" points="623.5,-0.5 623.5,-19.5 712.5,-19.5 712.5,-0.5 623.5,-0.5"/>
<text text-anchor="middle" x="668" y="-7.5" font-family="Helvetica,sans-Serif" font-size="10.00">limes_export.h</text>
</a>
</g>
</g>
<!-- Node1&#45;&gt;Node3 -->
<g id="edge2" class="edge">
<title>Node1&#45;&gt;Node3</title>
<path fill="none" stroke="midnightblue" d="M663.61,-224.27C674.16,-207.31 696.61,-168.37 705,-132 712.59,-99.08 717.6,-87.73 706,-56 701.94,-44.91 693.81,-34.67 686.11,-26.76"/>
<polygon fill="midnightblue" stroke="midnightblue" points="688.36,-24.07 678.71,-19.7 683.53,-29.14 688.36,-24.07"/>
</g>
<!-- Node4 -->
<g id="node4" class="node">
<title>Node4</title>
<g id="a_node4"><a xlink:title=" ">
<polygon fill="none" stroke="#bfbfbf" points="831,-0.5 831,-19.5 931,-19.5 931,-0.5 831,-0.5"/>
<text text-anchor="middle" x="881" y="-7.5" font-family="Helvetica,sans-Serif" font-size="10.00">limes_platform.h</text>
</a>
</g>
</g>
<!-- Node1&#45;&gt;Node4 -->
<g id="edge3" class="edge">
<title>Node1&#45;&gt;Node4</title>
<path fill="none" stroke="midnightblue" d="M684.12,-229.15C746.45,-218.35 902.99,-181.36 961,-76 973.88,-52.61 944.58,-34.41 917.89,-23.29"/>
<polygon fill="midnightblue" stroke="midnightblue" points="918.84,-19.91 908.26,-19.52 916.29,-26.43 918.84,-19.91"/>
</g>
<!-- Node5 -->
<g id="node5" class="node">
<title>Node5</title>
<g id="a_node5"><a xlink:href="2_dshape_8h.html" target="_top" xlink:title=" ">
<polygon fill="none" stroke="black" points="23,-56.5 23,-75.5 91,-75.5 91,-56.5 23,-56.5"/>
<text text-anchor="middle" x="57" y="-63.5" font-family="Helvetica,sans-Serif" font-size="10.00">2Dshape.h</text>
</a>
</g>
</g>
<!-- Node1&#45;&gt;Node5 -->
<g id="edge4" class="edge">
<title>Node1&#45;&gt;Node5</title>
<path fill="none" stroke="midnightblue" d="M631.79,-225.76C537.16,-199.62 212.68,-110 97.75,-78.26"/>
<polygon fill="midnightblue" stroke="midnightblue" points="98.5,-74.83 87.93,-75.54 96.64,-81.58 98.5,-74.83"/>
</g>
<!-- Node6 -->
<g id="node6" class="node">
<title>Node6</title>
<g id="a_node6"><a xlink:href="preprocessor_8h.html" target="_top" xlink:title=" ">
<polygon fill="none" stroke="black" points="810.5,-56.5 810.5,-75.5 951.5,-75.5 951.5,-56.5 810.5,-56.5"/>
<text text-anchor="middle" x="881" y="-63.5" font-family="Helvetica,sans-Serif" font-size="10.00">../../../misc/preprocessor.h</text>
</a>
</g>
</g>
<!-- Node1&#45;&gt;Node6 -->
<g id="edge7" class="edge">
<title>Node1&#45;&gt;Node6</title>
<path fill="none" stroke="midnightblue" d="M683.54,-224.38C704.55,-216.63 734.59,-204.02 758,-188 803.11,-157.13 846.41,-108.79 867.56,-83.57"/>
<polygon fill="midnightblue" stroke="midnightblue" points="870.41,-85.62 874.08,-75.68 865.01,-81.16 870.41,-85.62"/>
</g>
<!-- Node7 -->
<g id="node7" class="node">
<title>Node7</title>
<g id="a_node7"><a xlink:href="math_helpers_8h.html" target="_top" xlink:title=" ">
<polygon fill="none" stroke="black" points="518.5,-168.5 518.5,-187.5 625.5,-187.5 625.5,-168.5 518.5,-168.5"/>
<text text-anchor="middle" x="572" y="-175.5" font-family="Helvetica,sans-Serif" font-size="10.00">../../mathHelpers.h</text>
</a>
</g>
</g>
<!-- Node1&#45;&gt;Node7 -->
<g id="edge9" class="edge">
<title>Node1&#45;&gt;Node7</title>
<path fill="none" stroke="midnightblue" d="M644.18,-224.32C630.77,-215.9 610.18,-202.97 594.41,-193.07"/>
<polygon fill="midnightblue" stroke="midnightblue" points="596.11,-190.01 585.78,-187.65 592.39,-195.94 596.11,-190.01"/>
</g>
<!-- Node5&#45;&gt;Node2 -->
<g id="edge5" class="edge">
<title>Node5&#45;&gt;Node2</title>
<path fill="none" stroke="midnightblue" d="M57,-56.08C57,-49.01 57,-38.86 57,-29.99"/>
<polygon fill="midnightblue" stroke="midnightblue" points="60.5,-29.75 57,-19.75 53.5,-29.75 60.5,-29.75"/>
</g>
<!-- Node5&#45;&gt;Node3 -->
<g id="edge6" class="edge">
<title>Node5&#45;&gt;Node3</title>
<path fill="none" stroke="midnightblue" d="M91.2,-57.43C94.17,-56.9 97.13,-56.41 100,-56 287.2,-29.11 511.58,-17.28 613.2,-13.02"/>
<polygon fill="midnightblue" stroke="midnightblue" points="613.39,-16.52 623.23,-12.61 613.1,-9.52 613.39,-16.52"/>
</g>
<!-- Node6&#45;&gt;Node4 -->
<g id="edge8" class="edge">
<title>Node6&#45;&gt;Node4</title>
<path fill="none" stroke="midnightblue" d="M881,-56.08C881,-49.01 881,-38.86 881,-29.99"/>
<polygon fill="midnightblue" stroke="midnightblue" points="884.5,-29.75 881,-19.75 877.5,-29.75 884.5,-29.75"/>
</g>
<!-- Node7&#45;&gt;Node2 -->
<g id="edge10" class="edge">
<title>Node7&#45;&gt;Node2</title>
<path fill="none" stroke="midnightblue" d="M518.34,-175.71C391.24,-171.39 77.68,-153.01 14,-76 0.71,-59.93 19.01,-39.65 35.68,-26.05"/>
<polygon fill="midnightblue" stroke="midnightblue" points="38.27,-28.47 44.07,-19.61 34.01,-22.92 38.27,-28.47"/>
</g>
<!-- Node7&#45;&gt;Node3 -->
<g id="edge13" class="edge">
<title>Node7&#45;&gt;Node3</title>
<path fill="none" stroke="midnightblue" d="M625.58,-169.62C648.48,-163.51 673.1,-152.36 687,-132 708.49,-100.51 690.56,-53.78 677.88,-28.6"/>
<polygon fill="midnightblue" stroke="midnightblue" points="680.84,-26.7 673.06,-19.51 674.66,-29.99 680.84,-26.7"/>
</g>
<!-- Node8 -->
<g id="node8" class="node">
<title>Node8</title>
<g id="a_node8"><a xlink:title=" ">
<polygon fill="none" stroke="#bfbfbf" points="548.5,-112.5 548.5,-131.5 595.5,-131.5 595.5,-112.5 548.5,-112.5"/>
<text text-anchor="middle" x="572" y="-119.5" font-family="Helvetica,sans-Serif" font-size="10.00">cmath</text>
</a>
</g>
</g>
<!-- Node7&#45;&gt;Node8 -->
<g id="edge11" class="edge">
<title>Node7&#45;&gt;Node8</title>
<path fill="none" stroke="midnightblue" d="M572,-168.08C572,-161.01 572,-150.86 572,-141.99"/>
<polygon fill="midnightblue" stroke="midnightblue" points="575.5,-141.75 572,-131.75 568.5,-141.75 575.5,-141.75"/>
</g>
<!-- Node9 -->
<g id="node9" class="node">
<title>Node9</title>
<g id="a_node9"><a xlink:title=" ">
<polygon fill="none" stroke="#bfbfbf" points="109.5,-56.5 109.5,-75.5 178.5,-75.5 178.5,-56.5 109.5,-56.5"/>
<text text-anchor="middle" x="144" y="-63.5" font-family="Helvetica,sans-Serif" font-size="10.00">type_traits</text>
</a>
</g>
</g>
<!-- Node7&#45;&gt;Node9 -->
<g id="edge12" class="edge">
<title>Node7&#45;&gt;Node9</title>
<path fill="none" stroke="midnightblue" d="M535.38,-168.5C497.63,-159.66 437.09,-145.29 385,-132 314.24,-113.95 232.21,-91.5 184.41,-78.26"/>
<polygon fill="midnightblue" stroke="midnightblue" points="185.32,-74.88 174.74,-75.58 183.45,-81.63 185.32,-74.88"/>
</g>
<!-- Node10 -->
<g id="node10" class="node">
<title>Node10</title>
<g id="a_node10"><a xlink:title=" ">
<polygon fill="none" stroke="#bfbfbf" points="614,-112.5 614,-131.5 678,-131.5 678,-112.5 614,-112.5"/>
<text text-anchor="middle" x="646" y="-119.5" font-family="Helvetica,sans-Serif" font-size="10.00">algorithm</text>
</a>
</g>
</g>
<!-- Node7&#45;&gt;Node10 -->
<g id="edge14" class="edge">
<title>Node7&#45;&gt;Node10</title>
<path fill="none" stroke="midnightblue" d="M583.89,-168.32C595.15,-160.11 612.29,-147.6 625.71,-137.81"/>
<polygon fill="midnightblue" stroke="midnightblue" points="627.88,-140.56 633.89,-131.83 623.75,-134.9 627.88,-140.56"/>
</g>
<!-- Node11 -->
<g id="node11" class="node">
<title>Node11</title>
<g id="a_node11"><a xlink:href="limes__assert_8h.html" target="_top" xlink:title=" ">
<polygon fill="none" stroke="black" points="394,-112.5 394,-131.5 530,-131.5 530,-112.5 394,-112.5"/>
<text text-anchor="middle" x="462" y="-119.5" font-family="Helvetica,sans-Serif" font-size="10.00">../system/limes_assert.h</text>
</a>
</g>
</g>
<!-- Node7&#45;&gt;Node11 -->
<g id="edge15" class="edge">
<title>Node7&#45;&gt;Node11</title>
<path fill="none" stroke="midnightblue" d="M554.33,-168.32C536.61,-159.62 509.1,-146.12 488.71,-136.11"/>
<polygon fill="midnightblue" stroke="midnightblue" points="490.15,-132.92 479.63,-131.65 487.06,-139.2 490.15,-132.92"/>
</g>
<!-- Node11&#45;&gt;Node2 -->
<g id="edge17" class="edge">
<title>Node11&#45;&gt;Node2</title>
<path fill="none" stroke="midnightblue" d="M393.98,-113.46C346.07,-106.85 280.92,-95.21 226,-76 207.98,-69.7 205.52,-63.57 188,-56 157.56,-42.85 121.91,-30.81 95.49,-22.5"/>
<polygon fill="midnightblue" stroke="midnightblue" points="96.43,-19.13 85.84,-19.51 94.35,-25.82 96.43,-19.13"/>
</g>
<!-- Node11&#45;&gt;Node3 -->
<g id="edge16" class="edge">
<title>Node11&#45;&gt;Node3</title>
<path fill="none" stroke="midnightblue" d="M526.61,-112.45C573.41,-105 631.41,-92.76 649,-76 661.49,-64.1 665.91,-44.48 667.4,-29.9"/>
<polygon fill="midnightblue" stroke="midnightblue" points="670.91,-29.74 668.07,-19.54 663.93,-29.29 670.91,-29.74"/>
</g>
<!-- Node11&#45;&gt;Node4 -->
<g id="edge25" class="edge">
<title>Node11&#45;&gt;Node4</title>
<path fill="none" stroke="midnightblue" d="M506.27,-112.49C548.35,-104.14 613.32,-90.56 669,-76 731.79,-59.58 803.83,-36.59 845.7,-22.81"/>
<polygon fill="midnightblue" stroke="midnightblue" points="847.02,-26.06 855.42,-19.6 844.82,-19.42 847.02,-26.06"/>
</g>
<!-- Node11&#45;&gt;Node6 -->
<g id="edge18" class="edge">
<title>Node11&#45;&gt;Node6</title>
<path fill="none" stroke="midnightblue" d="M528.39,-112.44C603.48,-102.77 725.54,-87.04 804.55,-76.85"/>
<polygon fill="midnightblue" stroke="midnightblue" points="805.45,-80.27 814.92,-75.52 804.55,-73.32 805.45,-80.27"/>
</g>
<!-- Node11&#45;&gt;Node9 -->
<g id="edge19" class="edge">
<title>Node11&#45;&gt;Node9</title>
<path fill="none" stroke="midnightblue" d="M409.63,-112.49C355.39,-103.62 268.2,-89.2 193,-76 191.54,-75.74 190.05,-75.48 188.54,-75.21"/>
<polygon fill="midnightblue" stroke="midnightblue" points="188.98,-71.74 178.52,-73.41 187.74,-78.63 188.98,-71.74"/>
</g>
<!-- Node12 -->
<g id="node12" class="node">
<title>Node12</title>
<g id="a_node12"><a xlink:title=" ">
<polygon fill="none" stroke="#bfbfbf" points="381.5,-56.5 381.5,-75.5 426.5,-75.5 426.5,-56.5 381.5,-56.5"/>
<text text-anchor="middle" x="404" y="-63.5" font-family="Helvetica,sans-Serif" font-size="10.00">utility</text>
</a>
</g>
</g>
<!-- Node11&#45;&gt;Node12 -->
<g id="edge20" class="edge">
<title>Node11&#45;&gt;Node12</title>
<path fill="none" stroke="midnightblue" d="M452.68,-112.32C444.11,-104.34 431.19,-92.31 420.81,-82.65"/>
<polygon fill="midnightblue" stroke="midnightblue" points="423.19,-80.09 413.49,-75.83 418.42,-85.21 423.19,-80.09"/>
</g>
<!-- Node13 -->
<g id="node13" class="node">
<title>Node13</title>
<g id="a_node13"><a xlink:title=" ">
<polygon fill="none" stroke="#bfbfbf" points="444.5,-56.5 444.5,-75.5 553.5,-75.5 553.5,-56.5 444.5,-56.5"/>
<text text-anchor="middle" x="499" y="-63.5" font-family="Helvetica,sans-Serif" font-size="10.00">limes_build_type.h</text>
</a>
</g>
</g>
<!-- Node11&#45;&gt;Node13 -->
<g id="edge21" class="edge">
<title>Node11&#45;&gt;Node13</title>
<path fill="none" stroke="midnightblue" d="M468.11,-112.08C473.28,-104.53 480.85,-93.49 487.19,-84.23"/>
<polygon fill="midnightblue" stroke="midnightblue" points="490.24,-85.98 493,-75.75 484.46,-82.02 490.24,-85.98"/>
</g>
<!-- Node14 -->
<g id="node14" class="node">
<title>Node14</title>
<g id="a_node14"><a xlink:href="_ignore_unused_8h.html" target="_top" xlink:title=" ">
<polygon fill="none" stroke="black" points="235,-56.5 235,-75.5 363,-75.5 363,-56.5 235,-56.5"/>
<text text-anchor="middle" x="299" y="-63.5" font-family="Helvetica,sans-Serif" font-size="10.00">../misc/IgnoreUnused.h</text>
</a>
</g>
</g>
<!-- Node11&#45;&gt;Node14 -->
<g id="edge22" class="edge">
<title>Node11&#45;&gt;Node14</title>
<path fill="none" stroke="midnightblue" d="M436.17,-112.44C408.75,-103.36 365.22,-88.94 334.57,-78.78"/>
<polygon fill="midnightblue" stroke="midnightblue" points="335.3,-75.34 324.71,-75.52 333.1,-81.98 335.3,-75.34"/>
</g>
<!-- Node15 -->
<g id="node15" class="node">
<title>Node15</title>
<g id="a_node15"><a xlink:title=" ">
<polygon fill="none" stroke="#bfbfbf" points="572,-56.5 572,-75.5 640,-75.5 640,-56.5 572,-56.5"/>
<text text-anchor="middle" x="606" y="-63.5" font-family="Helvetica,sans-Serif" font-size="10.00">filesystem</text>
</a>
</g>
</g>
<!-- Node11&#45;&gt;Node15 -->
<g id="edge26" class="edge">
<title>Node11&#45;&gt;Node15</title>
<path fill="none" stroke="midnightblue" d="M484.82,-112.44C508.83,-103.44 546.83,-89.19 573.87,-79.05"/>
<polygon fill="midnightblue" stroke="midnightblue" points="575.16,-82.3 583.29,-75.52 572.7,-75.75 575.16,-82.3"/>
</g>
<!-- Node14&#45;&gt;Node2 -->
<g id="edge24" class="edge">
<title>Node14&#45;&gt;Node2</title>
<path fill="none" stroke="midnightblue" d="M260.65,-56.44C218.53,-47.04 150.79,-31.93 105.13,-21.74"/>
<polygon fill="midnightblue" stroke="midnightblue" points="105.69,-18.28 95.17,-19.52 104.16,-25.11 105.69,-18.28"/>
</g>
<!-- Node14&#45;&gt;Node3 -->
<g id="edge23" class="edge">
<title>Node14&#45;&gt;Node3</title>
<path fill="none" stroke="midnightblue" d="M357.47,-56.44C427.73,-46.16 544.71,-29.04 613.27,-19.01"/>
<polygon fill="midnightblue" stroke="midnightblue" points="614.04,-22.43 623.43,-17.52 613.03,-15.51 614.04,-22.43"/>
</g>
</g>
</svg>
        <g id="navigator" transform="translate(0 0)" fill="#404254">
                <rect fill="#f2f5e9" fill-opacity="0.5" stroke="#606060" stroke-width=".5" x="0" y="0" width="60" height="60"/>
                <use id="zoomplus" xlink:href="#zoomPlus" x="17" y="9" onmousedown="handleZoom(evt,'in')"/>
                <use id="zoomminus" xlink:href="#zoomMin" x="42" y="9" onmousedown="handleZoom(evt,'out')"/>
                <use id="reset" xlink:href="#resetDef" x="30" y="36" onmousedown="handleReset()"/>
                <g id="arrowUp" xlink:href="#dirArrow" transform="translate(30 24)" onmousedown="handlePan(0,-1)">
                  <use xlink:href="#rim" fill="#404040">
                        <set attributeName="fill" to="#808080" begin="arrowUp.mouseover" end="arrowUp.mouseout"/>
                  </use>
                  <path fill="none" stroke="white" stroke-width="1.5" d="M0,-3.0v7 M-2.5,-0.5L0,-3.0L2.5,-0.5"/>
                </g>
                <g id="arrowRight" xlink:href="#dirArrow" transform="rotate(90) translate(36 -43)" onmousedown="handlePan(1,0)">
                  <use xlink:href="#rim" fill="#404040">
                        <set attributeName="fill" to="#808080" begin="arrowRight.mouseover" end="arrowRight.mouseout"/>
                  </use>
                  <path fill="none" stroke="white" stroke-width="1.5" d="M0,-3.0v7 M-2.5,-0.5L0,-3.0L2.5,-0.5"/>
                </g>
                <g id="arrowDown" xlink:href="#dirArrow" transform="rotate(180) translate(-30 -48)" onmousedown="handlePan(0,1)">
                  <use xlink:href="#rim" fill="#404040">
                        <set attributeName="fill" to="#808080" begin="arrowDown.mouseover" end="arrowDown.mouseout"/>
                  </use>
                  <path fill="none" stroke="white" stroke-width="1.5" d="M0,-3.0v7 M-2.5,-0.5L0,-3.0L2.5,-0.5"/>
                </g>
                <g id="arrowLeft" xlink:href="#dirArrow" transform="rotate(270) translate(-36 17)" onmousedown="handlePan(-1,0)">
                  <use xlink:href="#rim" fill="#404040">
                        <set attributeName="fill" to="#808080" begin="arrowLeft.mouseover" end="arrowLeft.mouseout"/>
                  </use>
                  <path fill="none" stroke="white" stroke-width="1.5" d="M0,-3.0v7 M-2.5,-0.5L0,-3.0L2.5,-0.5"/>
                </g>
        </g>
        <svg viewBox="0 0 15 15" width="100%" height="30px" preserveAspectRatio="xMaxYMin meet">
         <g id="arrow_out" transform="scale(0.3 0.3)">
          <a xlink:href="circle_8h__incl_org.svg" target="_base">
           <rect id="button" ry="5" rx="5" y="6" x="6" height="38" width="38"
                fill="#f2f5e9" fill-opacity="0.5" stroke="#606060" stroke-width="1.0"/>
           <path id="arrow"
             d="M 11.500037,31.436501 C 11.940474,20.09759 22.043105,11.32322 32.158766,21.979434 L 37.068811,17.246167 C 37.068811,17.246167 37.088388,32 37.088388,32 L 22.160133,31.978069 C 22.160133,31.978069 26.997745,27.140456 26.997745,27.140456 C 18.528582,18.264221 13.291696,25.230495 11.500037,31.436501 z"
             style="fill:#404040;"/>
          </a>
         </g>
        </svg>
</svg>
