<?xml version="1.0" encoding="UTF-8" standalone="no"?>
<!DOCTYPE svg PUBLIC "-//W3C//DTD SVG 1.1//EN"
 "http://www.w3.org/Graphics/SVG/1.1/DTD/svg11.dtd">
<!-- Generated by graphviz version 2.43.0 (0)
 -->
<!-- Title: circle.h Pages: 1 -->
<svg width="894pt" height="263pt"
 viewBox="0.00 0.00 894.32 263.00" xmlns="http://www.w3.org/2000/svg" xmlns:xlink="http://www.w3.org/1999/xlink">
<g id="graph0" class="graph" transform="scale(1 1) rotate(0) translate(4 259)">
<title>circle.h</title>
<!-- Node1 -->
<g id="node1" class="node">
<title>Node1</title>
<g id="a_node1"><a xlink:title=" ">
<polygon fill="#bfbfbf" stroke="black" points="179,-235.5 179,-254.5 231,-254.5 231,-235.5 179,-235.5"/>
<text text-anchor="middle" x="205" y="-242.5" font-family="Helvetica,sans-Serif" font-size="10.00">circle.h</text>
</a>
</g>
</g>
<!-- Node2 -->
<g id="node2" class="node">
<title>Node2</title>
<g id="a_node2"><a xlink:href="limes__namespace_8h.html" target="_top" xlink:title=" ">
<polygon fill="none" stroke="black" points="0,-0.5 0,-19.5 114,-19.5 114,-0.5 0,-0.5"/>
<text text-anchor="middle" x="57" y="-7.5" font-family="Helvetica,sans-Serif" font-size="10.00">limes_namespace.h</text>
</a>
</g>
</g>
<!-- Node1&#45;&gt;Node2 -->
<g id="edge1" class="edge">
<title>Node1&#45;&gt;Node2</title>
<path fill="none" stroke="midnightblue" d="M178.99,-237.41C155.76,-230.59 121.69,-218.2 97,-199 72.44,-179.9 72.04,-169.03 55,-143 31.89,-107.7 2.01,-95.44 17,-56 21.34,-44.6 30.03,-34.24 38.21,-26.34"/>
<polygon fill="midnightblue" stroke="midnightblue" points="40.64,-28.86 45.73,-19.57 35.96,-23.66 40.64,-28.86"/>
</g>
<!-- Node3 -->
<g id="node3" class="node">
<title>Node3</title>
<g id="a_node3"><a xlink:title=" ">
<polygon fill="none" stroke="#bfbfbf" points="132.5,-0.5 132.5,-19.5 221.5,-19.5 221.5,-0.5 132.5,-0.5"/>
<text text-anchor="middle" x="177" y="-7.5" font-family="Helvetica,sans-Serif" font-size="10.00">limes_export.h</text>
</a>
</g>
</g>
<!-- Node1&#45;&gt;Node3 -->
<g id="edge2" class="edge">
<title>Node1&#45;&gt;Node3</title>
<path fill="none" stroke="midnightblue" d="M203.03,-235.32C197.53,-210.59 182.1,-137.59 177,-76 175.72,-60.52 175.82,-42.89 176.18,-29.9"/>
<polygon fill="midnightblue" stroke="midnightblue" points="179.68,-29.97 176.54,-19.85 172.68,-29.72 179.68,-29.97"/>
</g>
<!-- Node4 -->
<g id="node4" class="node">
<title>Node4</title>
<g id="a_node4"><a xlink:title=" ">
<polygon fill="none" stroke="#bfbfbf" points="653,-0.5 653,-19.5 753,-19.5 753,-0.5 653,-0.5"/>
<text text-anchor="middle" x="703" y="-7.5" font-family="Helvetica,sans-Serif" font-size="10.00">limes_platform.h</text>
</a>
</g>
</g>
<!-- Node1&#45;&gt;Node4 -->
<g id="edge3" class="edge">
<title>Node1&#45;&gt;Node4</title>
<path fill="none" stroke="midnightblue" d="M231.01,-244.52C302.99,-245.32 510.36,-243.31 675,-199 778.34,-171.19 835.29,-172.29 882,-76 905.87,-26.79 824.14,-14.04 763.33,-11.17"/>
<polygon fill="midnightblue" stroke="midnightblue" points="763.13,-7.66 753,-10.77 762.86,-14.66 763.13,-7.66"/>
</g>
<!-- Node5 -->
<g id="node5" class="node">
<title>Node5</title>
<g id="a_node5"><a xlink:href="2_dshape_8h.html" target="_top" xlink:title=" ">
<polygon fill="none" stroke="black" points="33,-56.5 33,-75.5 101,-75.5 101,-56.5 33,-56.5"/>
<text text-anchor="middle" x="67" y="-63.5" font-family="Helvetica,sans-Serif" font-size="10.00">2Dshape.h</text>
</a>
</g>
</g>
<!-- Node1&#45;&gt;Node5 -->
<g id="edge4" class="edge">
<title>Node1&#45;&gt;Node5</title>
<path fill="none" stroke="midnightblue" d="M178.83,-236.76C158.86,-230 131.97,-218.04 115,-199 85.48,-165.88 73.68,-113.17 69.32,-85.44"/>
<polygon fill="midnightblue" stroke="midnightblue" points="72.78,-84.93 67.91,-75.52 65.85,-85.91 72.78,-84.93"/>
</g>
<!-- Node6 -->
<g id="node6" class="node">
<title>Node6</title>
<g id="a_node6"><a xlink:href="preprocessor_8h.html" target="_top" xlink:title=" ">
<polygon fill="none" stroke="black" points="731.5,-56.5 731.5,-75.5 872.5,-75.5 872.5,-56.5 731.5,-56.5"/>
<text text-anchor="middle" x="802" y="-63.5" font-family="Helvetica,sans-Serif" font-size="10.00">../../../misc/preprocessor.h</text>
</a>
</g>
</g>
<!-- Node1&#45;&gt;Node6 -->
<g id="edge7" class="edge">
<title>Node1&#45;&gt;Node6</title>
<path fill="none" stroke="midnightblue" d="M231.25,-242.74C331.61,-237.4 689.55,-213.66 774,-143 790.99,-128.79 797.67,-103.3 800.3,-85.78"/>
<polygon fill="midnightblue" stroke="midnightblue" points="803.8,-85.97 801.51,-75.63 796.85,-85.14 803.8,-85.97"/>
</g>
<!-- Node7 -->
<g id="node7" class="node">
<title>Node7</title>
<g id="a_node7"><a xlink:href="math_helpers_8h.html" target="_top" xlink:title=" ">
<polygon fill="none" stroke="black" points="216.5,-179.5 216.5,-198.5 323.5,-198.5 323.5,-179.5 216.5,-179.5"/>
<text text-anchor="middle" x="270" y="-186.5" font-family="Helvetica,sans-Serif" font-size="10.00">../../mathHelpers.h</text>
</a>
</g>
</g>
<!-- Node1&#45;&gt;Node7 -->
<g id="edge9" class="edge">
<title>Node1&#45;&gt;Node7</title>
<path fill="none" stroke="midnightblue" d="M215.44,-235.32C225.15,-227.26 239.82,-215.08 251.5,-205.37"/>
<polygon fill="midnightblue" stroke="midnightblue" points="253.91,-207.92 259.37,-198.83 249.44,-202.53 253.91,-207.92"/>
</g>
<!-- Node5&#45;&gt;Node2 -->
<g id="edge5" class="edge">
<title>Node5&#45;&gt;Node2</title>
<path fill="none" stroke="midnightblue" d="M65.35,-56.08C64.02,-48.93 62.12,-38.64 60.46,-29.69"/>
<polygon fill="midnightblue" stroke="midnightblue" points="63.88,-28.95 58.62,-19.75 57,-30.22 63.88,-28.95"/>
</g>
<!-- Node5&#45;&gt;Node3 -->
<g id="edge6" class="edge">
<title>Node5&#45;&gt;Node3</title>
<path fill="none" stroke="midnightblue" d="M84.67,-56.32C102.39,-47.62 129.9,-34.12 150.29,-24.11"/>
<polygon fill="midnightblue" stroke="midnightblue" points="151.94,-27.2 159.37,-19.65 148.85,-20.92 151.94,-27.2"/>
</g>
<!-- Node6&#45;&gt;Node4 -->
<g id="edge8" class="edge">
<title>Node6&#45;&gt;Node4</title>
<path fill="none" stroke="midnightblue" d="M786.09,-56.32C770.36,-47.74 746.06,-34.49 727.79,-24.52"/>
<polygon fill="midnightblue" stroke="midnightblue" points="729.32,-21.37 718.87,-19.65 725.97,-27.52 729.32,-21.37"/>
</g>
<!-- Node7&#45;&gt;Node2 -->
<g id="edge10" class="edge">
<title>Node7&#45;&gt;Node2</title>
<path fill="none" stroke="midnightblue" d="M216.32,-180.6C157.62,-169.32 66.28,-141.7 24,-76 13.7,-59.99 26.9,-40.34 39.55,-26.87"/>
<polygon fill="midnightblue" stroke="midnightblue" points="42.11,-29.25 46.74,-19.72 37.18,-24.28 42.11,-29.25"/>
</g>
<!-- Node7&#45;&gt;Node3 -->
<g id="edge13" class="edge">
<title>Node7&#45;&gt;Node3</title>
<path fill="none" stroke="midnightblue" d="M260.19,-179.3C250.77,-170.66 236.46,-156.74 226,-143 205.13,-115.58 198.49,-108.48 187,-76 181.7,-61.01 179.21,-43.1 178.04,-29.88"/>
<polygon fill="midnightblue" stroke="midnightblue" points="181.51,-29.39 177.31,-19.66 174.53,-29.88 181.51,-29.39"/>
</g>
<!-- Node7&#45;&gt;Node6 -->
<g id="edge30" class="edge">
<title>Node7&#45;&gt;Node6</title>
<path fill="none" stroke="midnightblue" d="M323.55,-188.29C432.14,-188.01 674.01,-182.79 745,-143 768.2,-130 784.79,-103.22 793.89,-85.18"/>
<polygon fill="midnightblue" stroke="midnightblue" points="797.14,-86.51 798.27,-75.97 790.82,-83.5 797.14,-86.51"/>
</g>
<!-- Node8 -->
<g id="node8" class="node">
<title>Node8</title>
<g id="a_node8"><a xlink:title=" ">
<polygon fill="none" stroke="#bfbfbf" points="246.5,-118 246.5,-137 293.5,-137 293.5,-118 246.5,-118"/>
<text text-anchor="middle" x="270" y="-125" font-family="Helvetica,sans-Serif" font-size="10.00">cmath</text>
</a>
</g>
</g>
<!-- Node7&#45;&gt;Node8 -->
<g id="edge11" class="edge">
<title>Node7&#45;&gt;Node8</title>
<path fill="none" stroke="midnightblue" d="M270,-179.48C270,-171.08 270,-157.98 270,-147.16"/>
<polygon fill="midnightblue" stroke="midnightblue" points="273.5,-147.01 270,-137.01 266.5,-147.01 273.5,-147.01"/>
</g>
<!-- Node9 -->
<g id="node9" class="node">
<title>Node9</title>
<g id="a_node9"><a xlink:title=" ">
<polygon fill="none" stroke="#bfbfbf" points="195.5,-56.5 195.5,-75.5 264.5,-75.5 264.5,-56.5 195.5,-56.5"/>
<text text-anchor="middle" x="230" y="-63.5" font-family="Helvetica,sans-Serif" font-size="10.00">type_traits</text>
</a>
</g>
</g>
<!-- Node7&#45;&gt;Node9 -->
<g id="edge12" class="edge">
<title>Node7&#45;&gt;Node9</title>
<path fill="none" stroke="midnightblue" d="M261.88,-179.49C254.29,-170.99 243.36,-157.17 238,-143 230.98,-124.43 229.43,-101.59 229.36,-85.83"/>
<polygon fill="midnightblue" stroke="midnightblue" points="232.86,-85.81 229.51,-75.76 225.86,-85.71 232.86,-85.81"/>
</g>
<!-- Node10 -->
<g id="node10" class="node">
<title>Node10</title>
<g id="a_node10"><a xlink:title=" ">
<polygon fill="none" stroke="#bfbfbf" points="312,-118 312,-137 376,-137 376,-118 312,-118"/>
<text text-anchor="middle" x="344" y="-125" font-family="Helvetica,sans-Serif" font-size="10.00">algorithm</text>
</a>
</g>
</g>
<!-- Node7&#45;&gt;Node10 -->
<g id="edge14" class="edge">
<title>Node7&#45;&gt;Node10</title>
<path fill="none" stroke="midnightblue" d="M280.6,-179.48C292.25,-170.11 311.19,-154.88 325.33,-143.51"/>
<polygon fill="midnightblue" stroke="midnightblue" points="327.82,-146 333.42,-137.01 323.43,-140.55 327.82,-146"/>
</g>
<!-- Node11 -->
<g id="node11" class="node">
<title>Node11</title>
<g id="a_node11"><a xlink:href="limes__assert_8h.html" target="_top" xlink:title=" ">
<polygon fill="none" stroke="black" points="394,-118 394,-137 530,-137 530,-118 394,-118"/>
<text text-anchor="middle" x="462" y="-125" font-family="Helvetica,sans-Serif" font-size="10.00">../system/limes_assert.h</text>
</a>
</g>
</g>
<!-- Node7&#45;&gt;Node11 -->
<g id="edge15" class="edge">
<title>Node7&#45;&gt;Node11</title>
<path fill="none" stroke="midnightblue" d="M297.51,-179.48C330.87,-169.14 387.26,-151.66 424.56,-140.1"/>
<polygon fill="midnightblue" stroke="midnightblue" points="426.03,-143.31 434.54,-137.01 423.95,-136.63 426.03,-143.31"/>
</g>
<!-- Node15 -->
<g id="node15" class="node">
<title>Node15</title>
<g id="a_node15"><a xlink:href="compiler__defs_8h.html" target="_top" xlink:title=" ">
<polygon fill="none" stroke="black" points="628.5,-112.5 628.5,-142.5 735.5,-142.5 735.5,-112.5 628.5,-112.5"/>
<text text-anchor="start" x="636.5" y="-130.5" font-family="Helvetica,sans-Serif" font-size="10.00">../system/compiler</text>
<text text-anchor="middle" x="682" y="-119.5" font-family="Helvetica,sans-Serif" font-size="10.00">_defs.h</text>
</a>
</g>
</g>
<!-- Node7&#45;&gt;Node15 -->
<g id="edge27" class="edge">
<title>Node7&#45;&gt;Node15</title>
<path fill="none" stroke="midnightblue" d="M323.86,-180.22C399.69,-169.27 537.65,-149.35 618.41,-137.68"/>
<polygon fill="midnightblue" stroke="midnightblue" points="619.05,-141.13 628.45,-136.23 618.05,-134.2 619.05,-141.13"/>
</g>
<!-- Node11&#45;&gt;Node2 -->
<g id="edge17" class="edge">
<title>Node11&#45;&gt;Node2</title>
<path fill="none" stroke="midnightblue" d="M428.51,-117.99C396.54,-109.32 347.39,-94.52 307,-76 291.41,-68.85 289.96,-62.28 274,-56 246.16,-45.05 172.1,-30.8 118.22,-21.3"/>
<polygon fill="midnightblue" stroke="midnightblue" points="118.53,-17.8 108.07,-19.53 117.32,-24.7 118.53,-17.8"/>
</g>
<!-- Node11&#45;&gt;Node3 -->
<g id="edge16" class="edge">
<title>Node11&#45;&gt;Node3</title>
<path fill="none" stroke="midnightblue" d="M442.94,-117.99C420.63,-108.01 382.58,-90.92 350,-76 330.84,-67.22 326.54,-63.9 307,-56 275.98,-43.46 239.98,-31.16 213.74,-22.6"/>
<polygon fill="midnightblue" stroke="midnightblue" points="214.78,-19.26 204.19,-19.51 212.62,-25.92 214.78,-19.26"/>
</g>
<!-- Node11&#45;&gt;Node4 -->
<g id="edge25" class="edge">
<title>Node11&#45;&gt;Node4</title>
<path fill="none" stroke="midnightblue" d="M527.92,-117.96C564.78,-110.93 610.34,-98.32 646,-76 665.41,-63.85 681.93,-43.09 692.11,-28.3"/>
<polygon fill="midnightblue" stroke="midnightblue" points="695.27,-29.87 697.85,-19.6 689.43,-26.02 695.27,-29.87"/>
</g>
<!-- Node11&#45;&gt;Node6 -->
<g id="edge18" class="edge">
<title>Node11&#45;&gt;Node6</title>
<path fill="none" stroke="midnightblue" d="M510.71,-117.98C572.07,-107.24 677.39,-88.81 743.17,-77.29"/>
<polygon fill="midnightblue" stroke="midnightblue" points="744.13,-80.68 753.38,-75.51 742.92,-73.79 744.13,-80.68"/>
</g>
<!-- Node11&#45;&gt;Node9 -->
<g id="edge19" class="edge">
<title>Node11&#45;&gt;Node9</title>
<path fill="none" stroke="midnightblue" d="M428.76,-117.98C387.76,-107.46 317.97,-89.56 272.95,-78.01"/>
<polygon fill="midnightblue" stroke="midnightblue" points="273.73,-74.6 263.18,-75.51 272,-81.38 273.73,-74.6"/>
</g>
<!-- Node12 -->
<g id="node12" class="node">
<title>Node12</title>
<g id="a_node12"><a xlink:title=" ">
<polygon fill="none" stroke="#bfbfbf" points="505.5,-56.5 505.5,-75.5 550.5,-75.5 550.5,-56.5 505.5,-56.5"/>
<text text-anchor="middle" x="528" y="-63.5" font-family="Helvetica,sans-Serif" font-size="10.00">utility</text>
</a>
</g>
</g>
<!-- Node11&#45;&gt;Node12 -->
<g id="edge20" class="edge">
<title>Node11&#45;&gt;Node12</title>
<path fill="none" stroke="midnightblue" d="M471.46,-117.98C481.75,-108.7 498.42,-93.67 510.99,-82.33"/>
<polygon fill="midnightblue" stroke="midnightblue" points="513.48,-84.8 518.56,-75.51 508.79,-79.61 513.48,-84.8"/>
</g>
<!-- Node13 -->
<g id="node13" class="node">
<title>Node13</title>
<g id="a_node13"><a xlink:href="_ignore_unused_8h.html" target="_top" xlink:title=" ">
<polygon fill="none" stroke="black" points="359,-56.5 359,-75.5 487,-75.5 487,-56.5 359,-56.5"/>
<text text-anchor="middle" x="423" y="-63.5" font-family="Helvetica,sans-Serif" font-size="10.00">../misc/IgnoreUnused.h</text>
</a>
</g>
</g>
<!-- Node11&#45;&gt;Node13 -->
<g id="edge21" class="edge">
<title>Node11&#45;&gt;Node13</title>
<path fill="none" stroke="midnightblue" d="M456.41,-117.98C450.62,-109.14 441.41,-95.09 434.13,-83.98"/>
<polygon fill="midnightblue" stroke="midnightblue" points="436.99,-81.95 428.58,-75.51 431.13,-85.79 436.99,-81.95"/>
</g>
<!-- Node14 -->
<g id="node14" class="node">
<title>Node14</title>
<g id="a_node14"><a xlink:title=" ">
<polygon fill="none" stroke="#bfbfbf" points="569,-56.5 569,-75.5 637,-75.5 637,-56.5 569,-56.5"/>
<text text-anchor="middle" x="603" y="-63.5" font-family="Helvetica,sans-Serif" font-size="10.00">filesystem</text>
</a>
</g>
</g>
<!-- Node11&#45;&gt;Node14 -->
<g id="edge26" class="edge">
<title>Node11&#45;&gt;Node14</title>
<path fill="none" stroke="midnightblue" d="M482.2,-117.98C506.07,-107.9 546,-91.05 573.37,-79.5"/>
<polygon fill="midnightblue" stroke="midnightblue" points="574.98,-82.62 582.84,-75.51 572.26,-76.17 574.98,-82.62"/>
</g>
<!-- Node13&#45;&gt;Node2 -->
<g id="edge23" class="edge">
<title>Node13&#45;&gt;Node2</title>
<path fill="none" stroke="midnightblue" d="M365.01,-56.44C299.49,-46.78 193.04,-31.07 124.02,-20.89"/>
<polygon fill="midnightblue" stroke="midnightblue" points="124.52,-17.42 114.12,-19.43 123.5,-24.35 124.52,-17.42"/>
</g>
<!-- Node13&#45;&gt;Node3 -->
<g id="edge22" class="edge">
<title>Node13&#45;&gt;Node3</title>
<path fill="none" stroke="midnightblue" d="M384.02,-56.44C341.11,-47.02 272.05,-31.87 225.63,-21.68"/>
<polygon fill="midnightblue" stroke="midnightblue" points="226.31,-18.24 215.8,-19.52 224.81,-25.08 226.31,-18.24"/>
</g>
<!-- Node13&#45;&gt;Node4 -->
<g id="edge24" class="edge">
<title>Node13&#45;&gt;Node4</title>
<path fill="none" stroke="midnightblue" d="M467.37,-56.44C516.62,-46.94 596.13,-31.61 648.97,-21.42"/>
<polygon fill="midnightblue" stroke="midnightblue" points="649.68,-24.85 658.84,-19.52 648.36,-17.97 649.68,-24.85"/>
</g>
<!-- Node15&#45;&gt;Node4 -->
<g id="edge28" class="edge">
<title>Node15&#45;&gt;Node4</title>
<path fill="none" stroke="midnightblue" d="M684.58,-112.34C688.36,-91.53 695.42,-52.66 699.62,-29.58"/>
<polygon fill="midnightblue" stroke="midnightblue" points="703.08,-30.13 701.42,-19.67 696.19,-28.88 703.08,-30.13"/>
</g>
<!-- Node15&#45;&gt;Node6 -->
<g id="edge29" class="edge">
<title>Node15&#45;&gt;Node6</title>
<path fill="none" stroke="midnightblue" d="M710.44,-112.4C730.12,-102.64 756.14,-89.74 775.41,-80.18"/>
<polygon fill="midnightblue" stroke="midnightblue" points="777.13,-83.24 784.54,-75.66 774.02,-76.96 777.13,-83.24"/>
</g>
</g>
</svg>
