<?xml version="1.0" encoding="UTF-8" standalone="no"?>
<!DOCTYPE svg PUBLIC "-//W3C//DTD SVG 1.1//EN"
 "http://www.w3.org/Graphics/SVG/1.1/DTD/svg11.dtd">
<!-- Generated by graphviz version 2.43.0 (0)
 -->
<!-- Title: circle.h Pages: 1 -->
<!--zoomable 263 -->
<svg id="main" version="1.1" xmlns="http://www.w3.org/2000/svg" xmlns:xlink="http://www.w3.org/1999/xlink" xml:space="preserve" onload="init(evt)">
<style type="text/css"><![CDATA[
.edge:hover path { stroke: red; }
.edge:hover polygon { stroke: red; fill: red; }
]]></style>
<script type="text/javascript"><![CDATA[
var edges = document.getElementsByTagName('g');
if (edges && edges.length) {
  for (var i=0;i<edges.length;i++) {
    if (edges[i].id.substr(0,4)=='edge') {
      edges[i].setAttribute('class','edge');
    }
  }
}
]]></script>
        <defs>
                <circle id="rim" cx="0" cy="0" r="7"/>
                <circle id="rim2" cx="0" cy="0" r="3.5"/>
                <g id="zoomPlus">
                        <use xlink:href="#rim" fill="#404040">
                                <set attributeName="fill" to="#808080" begin="zoomplus.mouseover" end="zoomplus.mouseout"/>
                        </use>
                        <path d="M-4,0h8M0,-4v8" fill="none" stroke="white" stroke-width="1.5" pointer-events="none"/>
                </g>
                <g id="zoomMin">
                        <use xlink:href="#rim" fill="#404040">
                                <set attributeName="fill" to="#808080" begin="zoomminus.mouseover" end="zoomminus.mouseout"/>
                        </use>
                        <path d="M-4,0h8" fill="none" stroke="white" stroke-width="1.5" pointer-events="none"/>
                </g>
                <g id="dirArrow">
                        <path fill="none" stroke="white" stroke-width="1.5" d="M0,-3.0v7 M-2.5,-0.5L0,-3.0L2.5,-0.5"/>
                </g>
               <g id="resetDef">
                       <use xlink:href="#rim2" fill="#404040">
                               <set attributeName="fill" to="#808080" begin="reset.mouseover" end="reset.mouseout"/>
                       </use>
               </g>
        </defs>

<script type="text/javascript">
var viewWidth = 911;
var viewHeight = 263;
var sectionId = 'dynsection-0';
</script>
<script xlink:href="svgpan.js"/>
<svg id="graph" class="graph">
<g id="viewport">
<title>circle.h</title>
<!-- Node1 -->
<g id="node1" class="node">
<title>Node1</title>
<g id="a_node1"><a xlink:title=" ">
<polygon fill="#bfbfbf" stroke="black" points="150.86,-235.5 150.86,-254.5 202.86,-254.5 202.86,-235.5 150.86,-235.5"/>
<text text-anchor="middle" x="176.86" y="-242.5" font-family="Helvetica,sans-Serif" font-size="10.00">circle.h</text>
</a>
</g>
</g>
<!-- Node2 -->
<g id="node2" class="node">
<title>Node2</title>
<g id="a_node2"><a xlink:href="limes__namespace_8h.html" target="_top" xlink:title=" ">
<polygon fill="none" stroke="black" points="28.86,-0.5 28.86,-19.5 142.86,-19.5 142.86,-0.5 28.86,-0.5"/>
<text text-anchor="middle" x="85.86" y="-7.5" font-family="Helvetica,sans-Serif" font-size="10.00">limes_namespace.h</text>
</a>
</g>
</g>
<!-- Node1&#45;&gt;Node2 -->
<g id="edge1" class="edge">
<title>Node1&#45;&gt;Node2</title>
<path fill="none" stroke="midnightblue" d="M150.46,-237.32C128.23,-230.61 96.67,-218.45 74.86,-199 27.58,-156.84 19.43,-137.14 2.86,-76 0.53,-67.42 -1.69,-63.64 2.86,-56 11.95,-40.72 28.24,-30.31 44,-23.39"/>
<polygon fill="midnightblue" stroke="midnightblue" points="45.69,-26.48 53.67,-19.51 43.09,-19.98 45.69,-26.48"/>
</g>
<!-- Node3 -->
<g id="node3" class="node">
<title>Node3</title>
<g id="a_node3"><a xlink:title=" ">
<polygon fill="none" stroke="#bfbfbf" points="161.36,-0.5 161.36,-19.5 250.36,-19.5 250.36,-0.5 161.36,-0.5"/>
<text text-anchor="middle" x="205.86" y="-7.5" font-family="Helvetica,sans-Serif" font-size="10.00">limes_export.h</text>
</a>
</g>
</g>
<!-- Node1&#45;&gt;Node3 -->
<g id="edge2" class="edge">
<title>Node1&#45;&gt;Node3</title>
<path fill="none" stroke="midnightblue" d="M177.24,-235.32C178.52,-208.49 183.26,-124.54 194.86,-56 196.35,-47.17 198.63,-37.5 200.72,-29.4"/>
<polygon fill="midnightblue" stroke="midnightblue" points="204.15,-30.12 203.37,-19.55 197.39,-28.3 204.15,-30.12"/>
</g>
<!-- Node4 -->
<g id="node4" class="node">
<title>Node4</title>
<g id="a_node4"><a xlink:title=" ">
<polygon fill="none" stroke="#bfbfbf" points="669.86,-0.5 669.86,-19.5 769.86,-19.5 769.86,-0.5 669.86,-0.5"/>
<text text-anchor="middle" x="719.86" y="-7.5" font-family="Helvetica,sans-Serif" font-size="10.00">limes_platform.h</text>
</a>
</g>
</g>
<!-- Node1&#45;&gt;Node4 -->
<g id="edge3" class="edge">
<title>Node1&#45;&gt;Node4</title>
<path fill="none" stroke="midnightblue" d="M202.9,-244.29C276.96,-244.53 494.66,-241.32 668.86,-199 733.17,-183.37 749.01,-175.17 806.86,-143 851.06,-118.42 875.92,-121.08 898.86,-76 923.75,-27.08 841.08,-14.27 779.89,-11.32"/>
<polygon fill="midnightblue" stroke="midnightblue" points="780.03,-7.82 769.89,-10.91 779.74,-14.81 780.03,-7.82"/>
</g>
<!-- Node5 -->
<g id="node5" class="node">
<title>Node5</title>
<g id="a_node5"><a xlink:href="2_dshape_8h.html" target="_top" xlink:title=" ">
<polygon fill="none" stroke="black" points="11.86,-56.5 11.86,-75.5 79.86,-75.5 79.86,-56.5 11.86,-56.5"/>
<text text-anchor="middle" x="45.86" y="-63.5" font-family="Helvetica,sans-Serif" font-size="10.00">2Dshape.h</text>
</a>
</g>
</g>
<!-- Node1&#45;&gt;Node5 -->
<g id="edge4" class="edge">
<title>Node1&#45;&gt;Node5</title>
<path fill="none" stroke="midnightblue" d="M150.79,-235.51C132.59,-228.38 108.94,-216.51 93.86,-199 65.03,-165.56 52.97,-113.39 48.38,-85.72"/>
<polygon fill="midnightblue" stroke="midnightblue" points="51.83,-85.15 46.88,-75.78 44.91,-86.19 51.83,-85.15"/>
</g>
<!-- Node6 -->
<g id="node6" class="node">
<title>Node6</title>
<g id="a_node6"><a xlink:href="preprocessor_8h.html" target="_top" xlink:title=" ">
<polygon fill="none" stroke="black" points="748.36,-56.5 748.36,-75.5 889.36,-75.5 889.36,-56.5 748.36,-56.5"/>
<text text-anchor="middle" x="818.86" y="-63.5" font-family="Helvetica,sans-Serif" font-size="10.00">../../../misc/preprocessor.h</text>
</a>
</g>
</g>
<!-- Node1&#45;&gt;Node6 -->
<g id="edge7" class="edge">
<title>Node1&#45;&gt;Node6</title>
<path fill="none" stroke="midnightblue" d="M203.1,-242.77C306.93,-237.42 687.8,-213.26 781.86,-143 800.55,-129.04 810.29,-103.1 815,-85.45"/>
<polygon fill="midnightblue" stroke="midnightblue" points="818.4,-86.25 817.31,-75.71 811.59,-84.64 818.4,-86.25"/>
</g>
<!-- Node7 -->
<g id="node7" class="node">
<title>Node7</title>
<g id="a_node7"><a xlink:href="math_helpers_8h.html" target="_top" xlink:title=" ">
<polygon fill="none" stroke="black" points="299.36,-179.5 299.36,-198.5 406.36,-198.5 406.36,-179.5 299.36,-179.5"/>
<text text-anchor="middle" x="352.86" y="-186.5" font-family="Helvetica,sans-Serif" font-size="10.00">../../mathHelpers.h</text>
</a>
</g>
</g>
<!-- Node1&#45;&gt;Node7 -->
<g id="edge9" class="edge">
<title>Node1&#45;&gt;Node7</title>
<path fill="none" stroke="midnightblue" d="M203.2,-235.92C232.84,-226.82 281.22,-211.98 314.92,-201.64"/>
<polygon fill="midnightblue" stroke="midnightblue" points="316.34,-204.87 324.87,-198.59 314.28,-198.17 316.34,-204.87"/>
</g>
<!-- Node5&#45;&gt;Node2 -->
<g id="edge5" class="edge">
<title>Node5&#45;&gt;Node2</title>
<path fill="none" stroke="midnightblue" d="M52.46,-56.08C58.11,-48.46 66.4,-37.26 73.31,-27.94"/>
<polygon fill="midnightblue" stroke="midnightblue" points="76.23,-29.87 79.37,-19.75 70.61,-25.7 76.23,-29.87"/>
</g>
<!-- Node5&#45;&gt;Node3 -->
<g id="edge6" class="edge">
<title>Node5&#45;&gt;Node3</title>
<path fill="none" stroke="midnightblue" d="M71.21,-56.44C98.12,-47.36 140.85,-32.94 170.94,-22.78"/>
<polygon fill="midnightblue" stroke="midnightblue" points="172.27,-26.03 180.62,-19.52 170.03,-19.4 172.27,-26.03"/>
</g>
<!-- Node6&#45;&gt;Node4 -->
<g id="edge8" class="edge">
<title>Node6&#45;&gt;Node4</title>
<path fill="none" stroke="midnightblue" d="M802.95,-56.32C787.22,-47.74 762.91,-34.49 744.65,-24.52"/>
<polygon fill="midnightblue" stroke="midnightblue" points="746.18,-21.37 735.72,-19.65 742.82,-27.52 746.18,-21.37"/>
</g>
<!-- Node7&#45;&gt;Node2 -->
<g id="edge10" class="edge">
<title>Node7&#45;&gt;Node2</title>
<path fill="none" stroke="midnightblue" d="M316.6,-179.48C290.18,-172.26 254.2,-160.31 225.86,-143 172.6,-110.48 122.53,-55.14 99.35,-27.6"/>
<polygon fill="midnightblue" stroke="midnightblue" points="101.87,-25.16 92.79,-19.7 96.48,-29.63 101.87,-25.16"/>
</g>
<!-- Node7&#45;&gt;Node3 -->
<g id="edge13" class="edge">
<title>Node7&#45;&gt;Node3</title>
<path fill="none" stroke="midnightblue" d="M330.63,-179.47C295.62,-164.62 229.01,-130.33 203.86,-76 197.18,-61.59 198.44,-43.4 200.94,-29.93"/>
<polygon fill="midnightblue" stroke="midnightblue" points="204.41,-30.43 203.17,-19.91 197.58,-28.91 204.41,-30.43"/>
</g>
<!-- Node8 -->
<g id="node8" class="node">
<title>Node8</title>
<g id="a_node8"><a xlink:title=" ">
<polygon fill="none" stroke="#bfbfbf" points="725.36,-118 725.36,-137 772.36,-137 772.36,-118 725.36,-118"/>
<text text-anchor="middle" x="748.86" y="-125" font-family="Helvetica,sans-Serif" font-size="10.00">cmath</text>
</a>
</g>
</g>
<!-- Node7&#45;&gt;Node8 -->
<g id="edge11" class="edge">
<title>Node7&#45;&gt;Node8</title>
<path fill="none" stroke="midnightblue" d="M406.59,-186.41C478.5,-183.15 609.43,-173.22 716.86,-143 719,-142.4 721.19,-141.67 723.36,-140.87"/>
<polygon fill="midnightblue" stroke="midnightblue" points="724.72,-144.09 732.61,-137.01 722.03,-137.63 724.72,-144.09"/>
</g>
<!-- Node9 -->
<g id="node9" class="node">
<title>Node9</title>
<g id="a_node9"><a xlink:title=" ">
<polygon fill="none" stroke="#bfbfbf" points="212.36,-56.5 212.36,-75.5 281.36,-75.5 281.36,-56.5 212.36,-56.5"/>
<text text-anchor="middle" x="246.86" y="-63.5" font-family="Helvetica,sans-Serif" font-size="10.00">type_traits</text>
</a>
</g>
</g>
<!-- Node7&#45;&gt;Node9 -->
<g id="edge12" class="edge">
<title>Node7&#45;&gt;Node9</title>
<path fill="none" stroke="midnightblue" d="M345.23,-179.3C327.66,-159.24 284.08,-109.49 261.28,-83.46"/>
<polygon fill="midnightblue" stroke="midnightblue" points="263.63,-80.84 254.41,-75.62 258.37,-85.45 263.63,-80.84"/>
</g>
<!-- Node10 -->
<g id="node10" class="node">
<title>Node10</title>
<g id="a_node10"><a xlink:title=" ">
<polygon fill="none" stroke="#bfbfbf" points="493.86,-118 493.86,-137 557.86,-137 557.86,-118 493.86,-118"/>
<text text-anchor="middle" x="525.86" y="-125" font-family="Helvetica,sans-Serif" font-size="10.00">algorithm</text>
</a>
</g>
</g>
<!-- Node7&#45;&gt;Node10 -->
<g id="edge14" class="edge">
<title>Node7&#45;&gt;Node10</title>
<path fill="none" stroke="midnightblue" d="M378.19,-179.46C404.79,-170.47 447.8,-155.87 484.86,-143 487.23,-142.18 489.67,-141.32 492.14,-140.46"/>
<polygon fill="midnightblue" stroke="midnightblue" points="493.32,-143.75 501.59,-137.13 490.99,-137.15 493.32,-143.75"/>
</g>
<!-- Node11 -->
<g id="node11" class="node">
<title>Node11</title>
<g id="a_node11"><a xlink:href="limes__assert_8h.html" target="_top" xlink:title=" ">
<polygon fill="none" stroke="black" points="339.86,-118 339.86,-137 475.86,-137 475.86,-118 339.86,-118"/>
<text text-anchor="middle" x="407.86" y="-125" font-family="Helvetica,sans-Serif" font-size="10.00">../system/limes_assert.h</text>
</a>
</g>
</g>
<!-- Node7&#45;&gt;Node11 -->
<g id="edge15" class="edge">
<title>Node7&#45;&gt;Node11</title>
<path fill="none" stroke="midnightblue" d="M360.74,-179.48C369.15,-170.37 382.67,-155.74 393.08,-144.48"/>
<polygon fill="midnightblue" stroke="midnightblue" points="395.77,-146.73 399.99,-137.01 390.63,-141.98 395.77,-146.73"/>
</g>
<!-- Node15 -->
<g id="node15" class="node">
<title>Node15</title>
<g id="a_node15"><a xlink:href="compiler__defs_8h.html" target="_top" xlink:title=" ">
<polygon fill="none" stroke="black" points="600.36,-112.5 600.36,-142.5 707.36,-142.5 707.36,-112.5 600.36,-112.5"/>
<text text-anchor="start" x="608.36" y="-130.5" font-family="Helvetica,sans-Serif" font-size="10.00">../system/compiler</text>
<text text-anchor="middle" x="653.86" y="-119.5" font-family="Helvetica,sans-Serif" font-size="10.00">_defs.h</text>
</a>
</g>
</g>
<!-- Node7&#45;&gt;Node15 -->
<g id="edge27" class="edge">
<title>Node7&#45;&gt;Node15</title>
<path fill="none" stroke="midnightblue" d="M395.98,-179.48C446.84,-169.42 531.85,-152.62 590.27,-141.07"/>
<polygon fill="midnightblue" stroke="midnightblue" points="591,-144.49 600.13,-139.12 589.64,-137.63 591,-144.49"/>
</g>
<!-- Node11&#45;&gt;Node2 -->
<g id="edge17" class="edge">
<title>Node11&#45;&gt;Node2</title>
<path fill="none" stroke="midnightblue" d="M394.75,-117.86C368.98,-100.98 312.33,-64.56 290.86,-56 246.54,-38.34 193.95,-26.98 153.12,-20.09"/>
<polygon fill="midnightblue" stroke="midnightblue" points="153.45,-16.59 143.01,-18.43 152.31,-23.5 153.45,-16.59"/>
</g>
<!-- Node11&#45;&gt;Node3 -->
<g id="edge16" class="edge">
<title>Node11&#45;&gt;Node3</title>
<path fill="none" stroke="midnightblue" d="M426.82,-117.9C452.93,-104.91 494.6,-79.33 474.86,-56 447.95,-24.22 331.08,-14.87 260.54,-12.13"/>
<polygon fill="midnightblue" stroke="midnightblue" points="260.6,-8.63 250.48,-11.77 260.35,-15.62 260.6,-8.63"/>
</g>
<!-- Node11&#45;&gt;Node4 -->
<g id="edge25" class="edge">
<title>Node11&#45;&gt;Node4</title>
<path fill="none" stroke="midnightblue" d="M452.74,-117.99C524.69,-104.3 658.29,-78.63 662.86,-76 682.69,-64.56 699.13,-43.67 709.18,-28.65"/>
<polygon fill="midnightblue" stroke="midnightblue" points="712.4,-30.11 714.82,-19.79 706.5,-26.34 712.4,-30.11"/>
</g>
<!-- Node11&#45;&gt;Node6 -->
<g id="edge18" class="edge">
<title>Node11&#45;&gt;Node6</title>
<path fill="none" stroke="midnightblue" d="M450.95,-117.97C461.99,-115.9 473.84,-113.78 484.86,-112 571.11,-98.08 670.39,-85.09 738.15,-76.68"/>
<polygon fill="midnightblue" stroke="midnightblue" points="738.83,-80.12 748.33,-75.42 737.97,-73.17 738.83,-80.12"/>
</g>
<!-- Node11&#45;&gt;Node9 -->
<g id="edge19" class="edge">
<title>Node11&#45;&gt;Node9</title>
<path fill="none" stroke="midnightblue" d="M384.79,-117.98C357.17,-107.77 310.74,-90.61 279.46,-79.05"/>
<polygon fill="midnightblue" stroke="midnightblue" points="280.47,-75.69 269.88,-75.51 278.05,-82.26 280.47,-75.69"/>
</g>
<!-- Node12 -->
<g id="node12" class="node">
<title>Node12</title>
<g id="a_node12"><a xlink:title=" ">
<polygon fill="none" stroke="#bfbfbf" points="522.36,-56.5 522.36,-75.5 567.36,-75.5 567.36,-56.5 522.36,-56.5"/>
<text text-anchor="middle" x="544.86" y="-63.5" font-family="Helvetica,sans-Serif" font-size="10.00">utility</text>
</a>
</g>
</g>
<!-- Node11&#45;&gt;Node12 -->
<g id="edge20" class="edge">
<title>Node11&#45;&gt;Node12</title>
<path fill="none" stroke="midnightblue" d="M427.48,-117.98C450.68,-107.9 489.47,-91.05 516.07,-79.5"/>
<polygon fill="midnightblue" stroke="midnightblue" points="517.48,-82.7 525.26,-75.51 514.7,-76.28 517.48,-82.7"/>
</g>
<!-- Node13 -->
<g id="node13" class="node">
<title>Node13</title>
<g id="a_node13"><a xlink:href="_ignore_unused_8h.html" target="_top" xlink:title=" ">
<polygon fill="none" stroke="black" points="337.86,-56.5 337.86,-75.5 465.86,-75.5 465.86,-56.5 337.86,-56.5"/>
<text text-anchor="middle" x="401.86" y="-63.5" font-family="Helvetica,sans-Serif" font-size="10.00">../misc/IgnoreUnused.h</text>
</a>
</g>
</g>
<!-- Node11&#45;&gt;Node13 -->
<g id="edge21" class="edge">
<title>Node11&#45;&gt;Node13</title>
<path fill="none" stroke="midnightblue" d="M407,-117.98C406.15,-109.58 404.83,-96.48 403.74,-85.66"/>
<polygon fill="midnightblue" stroke="midnightblue" points="407.2,-85.11 402.71,-75.51 400.23,-85.81 407.2,-85.11"/>
</g>
<!-- Node14 -->
<g id="node14" class="node">
<title>Node14</title>
<g id="a_node14"><a xlink:title=" ">
<polygon fill="none" stroke="#bfbfbf" points="585.86,-56.5 585.86,-75.5 653.86,-75.5 653.86,-56.5 585.86,-56.5"/>
<text text-anchor="middle" x="619.86" y="-63.5" font-family="Helvetica,sans-Serif" font-size="10.00">filesystem</text>
</a>
</g>
</g>
<!-- Node11&#45;&gt;Node14 -->
<g id="edge26" class="edge">
<title>Node11&#45;&gt;Node14</title>
<path fill="none" stroke="midnightblue" d="M438.23,-117.98C475.46,-107.53 538.67,-89.79 579.83,-78.23"/>
<polygon fill="midnightblue" stroke="midnightblue" points="580.85,-81.58 589.54,-75.51 578.96,-74.84 580.85,-81.58"/>
</g>
<!-- Node13&#45;&gt;Node2 -->
<g id="edge23" class="edge">
<title>Node13&#45;&gt;Node2</title>
<path fill="none" stroke="midnightblue" d="M351.78,-56.44C295.85,-46.89 205.35,-31.42 145.72,-21.23"/>
<polygon fill="midnightblue" stroke="midnightblue" points="146.14,-17.75 135.69,-19.52 144.96,-24.65 146.14,-17.75"/>
</g>
<!-- Node13&#45;&gt;Node3 -->
<g id="edge22" class="edge">
<title>Node13&#45;&gt;Node3</title>
<path fill="none" stroke="midnightblue" d="M370.8,-56.44C337.25,-47.2 283.66,-32.44 246.71,-22.26"/>
<polygon fill="midnightblue" stroke="midnightblue" points="247.34,-18.8 236.77,-19.52 245.48,-25.55 247.34,-18.8"/>
</g>
<!-- Node13&#45;&gt;Node4 -->
<g id="edge24" class="edge">
<title>Node13&#45;&gt;Node4</title>
<path fill="none" stroke="midnightblue" d="M452.24,-56.44C508.53,-46.89 599.61,-31.42 659.61,-21.23"/>
<polygon fill="midnightblue" stroke="midnightblue" points="660.43,-24.64 669.7,-19.52 659.26,-17.74 660.43,-24.64"/>
</g>
<!-- Node15&#45;&gt;Node4 -->
<g id="edge28" class="edge">
<title>Node15&#45;&gt;Node4</title>
<path fill="none" stroke="midnightblue" d="M667.78,-112.47C676.73,-102.84 688.1,-89.43 695.86,-76 704.32,-61.35 710.72,-43.18 714.78,-29.78"/>
<polygon fill="midnightblue" stroke="midnightblue" points="718.24,-30.4 717.63,-19.83 711.51,-28.48 718.24,-30.4"/>
</g>
<!-- Node15&#45;&gt;Node6 -->
<g id="edge29" class="edge">
<title>Node15&#45;&gt;Node6</title>
<path fill="none" stroke="midnightblue" d="M692.96,-112.4C721.01,-102.28 758.43,-88.79 785.16,-79.15"/>
<polygon fill="midnightblue" stroke="midnightblue" points="786.63,-82.34 794.85,-75.66 784.25,-75.76 786.63,-82.34"/>
</g>
</g>
</svg>
        <g id="navigator" transform="translate(0 0)" fill="#404254">
                <rect fill="#f2f5e9" fill-opacity="0.5" stroke="#606060" stroke-width=".5" x="0" y="0" width="60" height="60"/>
                <use id="zoomplus" xlink:href="#zoomPlus" x="17" y="9" onmousedown="handleZoom(evt,'in')"/>
                <use id="zoomminus" xlink:href="#zoomMin" x="42" y="9" onmousedown="handleZoom(evt,'out')"/>
                <use id="reset" xlink:href="#resetDef" x="30" y="36" onmousedown="handleReset()"/>
                <g id="arrowUp" xlink:href="#dirArrow" transform="translate(30 24)" onmousedown="handlePan(0,-1)">
                  <use xlink:href="#rim" fill="#404040">
                        <set attributeName="fill" to="#808080" begin="arrowUp.mouseover" end="arrowUp.mouseout"/>
                  </use>
                  <path fill="none" stroke="white" stroke-width="1.5" d="M0,-3.0v7 M-2.5,-0.5L0,-3.0L2.5,-0.5"/>
                </g>
                <g id="arrowRight" xlink:href="#dirArrow" transform="rotate(90) translate(36 -43)" onmousedown="handlePan(1,0)">
                  <use xlink:href="#rim" fill="#404040">
                        <set attributeName="fill" to="#808080" begin="arrowRight.mouseover" end="arrowRight.mouseout"/>
                  </use>
                  <path fill="none" stroke="white" stroke-width="1.5" d="M0,-3.0v7 M-2.5,-0.5L0,-3.0L2.5,-0.5"/>
                </g>
                <g id="arrowDown" xlink:href="#dirArrow" transform="rotate(180) translate(-30 -48)" onmousedown="handlePan(0,1)">
                  <use xlink:href="#rim" fill="#404040">
                        <set attributeName="fill" to="#808080" begin="arrowDown.mouseover" end="arrowDown.mouseout"/>
                  </use>
                  <path fill="none" stroke="white" stroke-width="1.5" d="M0,-3.0v7 M-2.5,-0.5L0,-3.0L2.5,-0.5"/>
                </g>
                <g id="arrowLeft" xlink:href="#dirArrow" transform="rotate(270) translate(-36 17)" onmousedown="handlePan(-1,0)">
                  <use xlink:href="#rim" fill="#404040">
                        <set attributeName="fill" to="#808080" begin="arrowLeft.mouseover" end="arrowLeft.mouseout"/>
                  </use>
                  <path fill="none" stroke="white" stroke-width="1.5" d="M0,-3.0v7 M-2.5,-0.5L0,-3.0L2.5,-0.5"/>
                </g>
        </g>
        <svg viewBox="0 0 15 15" width="100%" height="30px" preserveAspectRatio="xMaxYMin meet">
         <g id="arrow_out" transform="scale(0.3 0.3)">
          <a xlink:href="circle_8h__incl_org.svg" target="_base">
           <rect id="button" ry="5" rx="5" y="6" x="6" height="38" width="38"
                fill="#f2f5e9" fill-opacity="0.5" stroke="#606060" stroke-width="1.0"/>
           <path id="arrow"
             d="M 11.500037,31.436501 C 11.940474,20.09759 22.043105,11.32322 32.158766,21.979434 L 37.068811,17.246167 C 37.068811,17.246167 37.088388,32 37.088388,32 L 22.160133,31.978069 C 22.160133,31.978069 26.997745,27.140456 26.997745,27.140456 C 18.528582,18.264221 13.291696,25.230495 11.500037,31.436501 z"
             style="fill:#404040;"/>
          </a>
         </g>
        </svg>
</svg>
