<?xml version="1.0" encoding="UTF-8" standalone="no"?>
<!DOCTYPE svg PUBLIC "-//W3C//DTD SVG 1.1//EN"
 "http://www.w3.org/Graphics/SVG/1.1/DTD/svg11.dtd">
<!-- Generated by graphviz version 2.43.0 (0)
 -->
<!-- Title: ds::owned_vector&lt; ElementType, Allocator &gt; Pages: 1 -->
<svg width="683pt" height="78pt"
 viewBox="0.00 0.00 683.00 77.50" xmlns="http://www.w3.org/2000/svg" xmlns:xlink="http://www.w3.org/1999/xlink">
<g id="graph0" class="graph" transform="scale(1 1) rotate(0) translate(4 73.5)">
<title>ds::owned_vector&lt; ElementType, Allocator &gt;</title>
<!-- Node1 -->
<g id="node1" class="node">
<title>Node1</title>
<g id="a_node1"><a xlink:title=" ">
<polygon fill="#bfbfbf" stroke="black" points="210,-22.5 210,-52.5 364,-52.5 364,-22.5 210,-22.5"/>
<text text-anchor="start" x="218" y="-40.5" font-family="Helvetica,sans-Serif" font-size="10.00">ds::owned_vector&lt; Element</text>
<text text-anchor="middle" x="287" y="-29.5" font-family="Helvetica,sans-Serif" font-size="10.00">Type, Allocator &gt;</text>
</a>
</g>
</g>
<!-- Node3 -->
<g id="node3" class="node">
<title>Node3</title>
<g id="a_node3"><a xlink:href="classds_1_1owned__vector.html" target="_top" xlink:title=" ">
<polygon fill="none" stroke="black" points="524,-50 524,-69 675,-69 675,-50 524,-50"/>
<text text-anchor="middle" x="599.5" y="-57" font-family="Helvetica,sans-Serif" font-size="10.00">ds::owned_vector&lt; Grain &gt;</text>
</a>
</g>
</g>
<!-- Node1&#45;&gt;Node3 -->
<g id="edge2" class="edge">
<title>Node1&#45;&gt;Node3</title>
<path fill="none" stroke="orange" stroke-dasharray="5,2" d="M374.5,-43.63C421.42,-46.95 478.83,-51.02 523.78,-54.21"/>
<polygon fill="orange" stroke="orange" points="374.58,-40.13 364.35,-42.91 374.08,-47.11 374.58,-40.13"/>
<text text-anchor="middle" x="444" y="-55.5" font-family="Helvetica,sans-Serif" font-size="10.00"> &lt; Grain &gt;</text>
</g>
<!-- Node4 -->
<g id="node4" class="node">
<title>Node4</title>
<g id="a_node4"><a xlink:href="classds_1_1owned__vector.html" target="_top" xlink:title=" ">
<polygon fill="none" stroke="black" points="537,-0.5 537,-30.5 662,-30.5 662,-0.5 537,-0.5"/>
<text text-anchor="start" x="545" y="-18.5" font-family="Helvetica,sans-Serif" font-size="10.00">ds::owned_vector&lt; ds</text>
<text text-anchor="middle" x="599.5" y="-7.5" font-family="Helvetica,sans-Serif" font-size="10.00">::LinkedList::Node &gt;</text>
</a>
</g>
</g>
<!-- Node1&#45;&gt;Node4 -->
<g id="edge3" class="edge">
<title>Node1&#45;&gt;Node4</title>
<path fill="none" stroke="orange" stroke-dasharray="5,2" d="M374.29,-31.06C376.89,-30.87 379.46,-30.68 382,-30.5 434.24,-26.75 493.57,-22.65 536.9,-19.68"/>
<polygon fill="orange" stroke="orange" points="373.9,-27.58 364.18,-31.79 374.41,-34.56 373.9,-27.58"/>
<text text-anchor="middle" x="444" y="-33.5" font-family="Helvetica,sans-Serif" font-size="10.00"> &lt; ds::LinkedList::Node &gt;</text>
</g>
<!-- Node2 -->
<g id="node2" class="node">
<title>Node2</title>
<g id="a_node2"><a xlink:title=" ">
<polygon fill="none" stroke="#bfbfbf" points="0,-11.5 0,-63.5 173,-63.5 173,-11.5 0,-11.5"/>
<text text-anchor="start" x="8" y="-51.5" font-family="Helvetica,sans-Serif" font-size="10.00">basic_vector&lt; std::</text>
<text text-anchor="start" x="8" y="-40.5" font-family="Helvetica,sans-Serif" font-size="10.00">unique_ptr&lt; ElementType</text>
<text text-anchor="start" x="8" y="-29.5" font-family="Helvetica,sans-Serif" font-size="10.00"> &gt;, std::allocator&lt;std</text>
<text text-anchor="middle" x="86.5" y="-18.5" font-family="Helvetica,sans-Serif" font-size="10.00">::unique_ptr&lt;ElementType&gt;&gt; &gt;</text>
</a>
</g>
</g>
<!-- Node2&#45;&gt;Node1 -->
<g id="edge1" class="edge">
<title>Node2&#45;&gt;Node1</title>
<path fill="none" stroke="midnightblue" d="M183.15,-37.5C192.07,-37.5 201.02,-37.5 209.72,-37.5"/>
<polygon fill="midnightblue" stroke="midnightblue" points="183.12,-34 173.12,-37.5 183.12,-41 183.12,-34"/>
</g>
</g>
</svg>
