<?xml version="1.0" encoding="UTF-8" standalone="no"?>
<!DOCTYPE svg PUBLIC "-//W3C//DTD SVG 1.1//EN"
 "http://www.w3.org/Graphics/SVG/1.1/DTD/svg11.dtd">
<!-- Generated by graphviz version 2.43.0 (0)
 -->
<!-- Title: ds::scalar_vector&lt; ElementType, Allocator &gt; Pages: 1 -->
<svg width="951pt" height="186pt"
 viewBox="0.00 0.00 951.00 186.00" xmlns="http://www.w3.org/2000/svg" xmlns:xlink="http://www.w3.org/1999/xlink">
<g id="graph0" class="graph" transform="scale(1 1) rotate(0) translate(4 182)">
<title>ds::scalar_vector&lt; ElementType, Allocator &gt;</title>
<!-- Node1 -->
<g id="node1" class="node">
<title>Node1</title>
<g id="a_node1"><a xlink:title=" ">
<polygon fill="#bfbfbf" stroke="black" points="572,-73.5 572,-103.5 715,-103.5 715,-73.5 572,-73.5"/>
<text text-anchor="start" x="580" y="-91.5" font-family="Helvetica,sans-Serif" font-size="10.00">ds::scalar_vector&lt;</text>
<text text-anchor="middle" x="643.5" y="-80.5" font-family="Helvetica,sans-Serif" font-size="10.00"> ElementType, Allocator &gt;</text>
</a>
</g>
</g>
<!-- Node4 -->
<g id="node4" class="node">
<title>Node4</title>
<g id="a_node4"><a xlink:href="classds_1_1scalar__vector.html" target="_top" xlink:title=" ">
<polygon fill="none" stroke="black" points="836,-147.5 836,-177.5 943,-177.5 943,-147.5 836,-147.5"/>
<text text-anchor="start" x="844" y="-165.5" font-family="Helvetica,sans-Serif" font-size="10.00">ds::scalar_vector&lt;</text>
<text text-anchor="middle" x="889.5" y="-154.5" font-family="Helvetica,sans-Serif" font-size="10.00"> SampleType &gt;</text>
</a>
</g>
</g>
<!-- Node1&#45;&gt;Node4 -->
<g id="edge3" class="edge">
<title>Node1&#45;&gt;Node4</title>
<path fill="none" stroke="orange" stroke-dasharray="5,2" d="M693.46,-107.03C706.26,-111.64 720.09,-116.43 733,-120.5 767,-131.22 805.71,-141.68 836,-149.48"/>
<polygon fill="orange" stroke="orange" points="694.5,-103.68 683.91,-103.54 692.11,-110.26 694.5,-103.68"/>
<text text-anchor="middle" x="775.5" y="-147.5" font-family="Helvetica,sans-Serif" font-size="10.00"> &lt; SampleType &gt;</text>
</g>
<!-- Node5 -->
<g id="node5" class="node">
<title>Node5</title>
<g id="a_node5"><a xlink:href="classds_1_1scalar__vector.html" target="_top" xlink:title=" ">
<polygon fill="none" stroke="black" points="836,-98.5 836,-128.5 943,-128.5 943,-98.5 836,-98.5"/>
<text text-anchor="start" x="844" y="-116.5" font-family="Helvetica,sans-Serif" font-size="10.00">ds::scalar_vector&lt;</text>
<text text-anchor="middle" x="889.5" y="-105.5" font-family="Helvetica,sans-Serif" font-size="10.00"> float &gt;</text>
</a>
</g>
</g>
<!-- Node1&#45;&gt;Node5 -->
<g id="edge4" class="edge">
<title>Node1&#45;&gt;Node5</title>
<path fill="none" stroke="orange" stroke-dasharray="5,2" d="M725.19,-96.77C761.62,-100.5 803.63,-104.8 835.92,-108.11"/>
<polygon fill="orange" stroke="orange" points="725.38,-93.27 715.07,-95.73 724.67,-100.23 725.38,-93.27"/>
<text text-anchor="middle" x="775.5" y="-108.5" font-family="Helvetica,sans-Serif" font-size="10.00"> &lt; float &gt;</text>
</g>
<!-- Node6 -->
<g id="node6" class="node">
<title>Node6</title>
<g id="a_node6"><a xlink:href="classds_1_1scalar__vector.html" target="_top" xlink:title=" ">
<polygon fill="none" stroke="black" points="836,-49.5 836,-79.5 943,-79.5 943,-49.5 836,-49.5"/>
<text text-anchor="start" x="844" y="-67.5" font-family="Helvetica,sans-Serif" font-size="10.00">ds::scalar_vector&lt;</text>
<text text-anchor="middle" x="889.5" y="-56.5" font-family="Helvetica,sans-Serif" font-size="10.00"> int &gt;</text>
</a>
</g>
</g>
<!-- Node1&#45;&gt;Node6 -->
<g id="edge5" class="edge">
<title>Node1&#45;&gt;Node6</title>
<path fill="none" stroke="orange" stroke-dasharray="5,2" d="M725.19,-80.56C761.62,-76.98 803.63,-72.85 835.92,-69.67"/>
<polygon fill="orange" stroke="orange" points="724.68,-77.1 715.07,-81.56 725.37,-84.06 724.68,-77.1"/>
<text text-anchor="middle" x="775.5" y="-82.5" font-family="Helvetica,sans-Serif" font-size="10.00"> &lt; int &gt;</text>
</g>
<!-- Node7 -->
<g id="node7" class="node">
<title>Node7</title>
<g id="a_node7"><a xlink:href="classds_1_1scalar__vector.html" target="_top" xlink:title=" ">
<polygon fill="none" stroke="black" points="836,-0.5 836,-30.5 943,-30.5 943,-0.5 836,-0.5"/>
<text text-anchor="start" x="844" y="-18.5" font-family="Helvetica,sans-Serif" font-size="10.00">ds::scalar_vector&lt;</text>
<text text-anchor="middle" x="889.5" y="-7.5" font-family="Helvetica,sans-Serif" font-size="10.00"> Sampletype &gt;</text>
</a>
</g>
</g>
<!-- Node1&#45;&gt;Node7 -->
<g id="edge6" class="edge">
<title>Node1&#45;&gt;Node7</title>
<path fill="none" stroke="orange" stroke-dasharray="5,2" d="M695.34,-69.98C707.61,-65.7 720.73,-61.3 733,-57.5 766.92,-46.99 805.46,-36.57 835.68,-28.74"/>
<polygon fill="orange" stroke="orange" points="693.99,-66.74 685.71,-73.36 696.31,-73.35 693.99,-66.74"/>
<text text-anchor="middle" x="775.5" y="-60.5" font-family="Helvetica,sans-Serif" font-size="10.00"> &lt; Sampletype &gt;</text>
</g>
<!-- Node2 -->
<g id="node2" class="node">
<title>Node2</title>
<g id="a_node2"><a xlink:href="classds_1_1basic__vector.html" target="_top" xlink:title=" ">
<polygon fill="none" stroke="black" points="329,-73.5 329,-103.5 535,-103.5 535,-73.5 329,-73.5"/>
<text text-anchor="start" x="337" y="-91.5" font-family="Helvetica,sans-Serif" font-size="10.00">ds::basic_vector&lt; Element</text>
<text text-anchor="middle" x="432" y="-80.5" font-family="Helvetica,sans-Serif" font-size="10.00">Type, std::allocator&lt; ElementType &gt; &gt;</text>
</a>
</g>
</g>
<!-- Node2&#45;&gt;Node1 -->
<g id="edge1" class="edge">
<title>Node2&#45;&gt;Node1</title>
<path fill="none" stroke="midnightblue" d="M545.43,-88.5C554.39,-88.5 563.28,-88.5 571.82,-88.5"/>
<polygon fill="midnightblue" stroke="midnightblue" points="545.3,-85 535.3,-88.5 545.3,-92 545.3,-85"/>
</g>
<!-- Node3 -->
<g id="node3" class="node">
<title>Node3</title>
<g id="a_node3"><a xlink:href="classds_1_1basic__vector.html" target="_top" xlink:title=" ">
<polygon fill="none" stroke="black" points="0,-73.5 0,-103.5 147,-103.5 147,-73.5 0,-73.5"/>
<text text-anchor="start" x="8" y="-91.5" font-family="Helvetica,sans-Serif" font-size="10.00">ds::basic_vector&lt; Element</text>
<text text-anchor="middle" x="73.5" y="-80.5" font-family="Helvetica,sans-Serif" font-size="10.00">Type, Allocator &gt;</text>
</a>
</g>
</g>
<!-- Node3&#45;&gt;Node2 -->
<g id="edge2" class="edge">
<title>Node3&#45;&gt;Node2</title>
<path fill="none" stroke="orange" stroke-dasharray="5,2" d="M157.1,-88.5C208.26,-88.5 274.36,-88.5 328.8,-88.5"/>
<polygon fill="orange" stroke="orange" points="157.07,-85 147.07,-88.5 157.07,-92 157.07,-85"/>
<text text-anchor="start" x="165" y="-102.5" font-family="Helvetica,sans-Serif" font-size="10.00"> &lt; ElementType, std</text>
<text text-anchor="middle" x="238" y="-91.5" font-family="Helvetica,sans-Serif" font-size="10.00">::allocator&lt; ElementType &gt; &gt;</text>
</g>
</g>
</svg>
