<?xml version="1.0" encoding="UTF-8" standalone="no"?>
<!DOCTYPE svg PUBLIC "-//W3C//DTD SVG 1.1//EN"
 "http://www.w3.org/Graphics/SVG/1.1/DTD/svg11.dtd">
<!-- Generated by graphviz version 2.43.0 (0)
 -->
<!-- Title: basic_vector&lt; ElementType, Allocator &gt; Pages: 1 -->
<!--zoomable 262 -->
<svg id="main" version="1.1" xmlns="http://www.w3.org/2000/svg" xmlns:xlink="http://www.w3.org/1999/xlink" xml:space="preserve" onload="init(evt)">
<style type="text/css"><![CDATA[
.edge:hover path { stroke: red; }
.edge:hover polygon { stroke: red; fill: red; }
]]></style>
<script type="text/javascript"><![CDATA[
var edges = document.getElementsByTagName('g');
if (edges && edges.length) {
  for (var i=0;i<edges.length;i++) {
    if (edges[i].id.substr(0,4)=='edge') {
      edges[i].setAttribute('class','edge');
    }
  }
}
]]></script>
        <defs>
                <circle id="rim" cx="0" cy="0" r="7"/>
                <circle id="rim2" cx="0" cy="0" r="3.5"/>
                <g id="zoomPlus">
                        <use xlink:href="#rim" fill="#404040">
                                <set attributeName="fill" to="#808080" begin="zoomplus.mouseover" end="zoomplus.mouseout"/>
                        </use>
                        <path d="M-4,0h8M0,-4v8" fill="none" stroke="white" stroke-width="1.5" pointer-events="none"/>
                </g>
                <g id="zoomMin">
                        <use xlink:href="#rim" fill="#404040">
                                <set attributeName="fill" to="#808080" begin="zoomminus.mouseover" end="zoomminus.mouseout"/>
                        </use>
                        <path d="M-4,0h8" fill="none" stroke="white" stroke-width="1.5" pointer-events="none"/>
                </g>
                <g id="dirArrow">
                        <path fill="none" stroke="white" stroke-width="1.5" d="M0,-3.0v7 M-2.5,-0.5L0,-3.0L2.5,-0.5"/>
                </g>
               <g id="resetDef">
                       <use xlink:href="#rim2" fill="#404040">
                               <set attributeName="fill" to="#808080" begin="reset.mouseover" end="reset.mouseout"/>
                       </use>
               </g>
        </defs>

<script type="text/javascript">
var viewWidth = 1161;
var viewHeight = 262;
var sectionId = 'dynsection-0';
</script>
<script xlink:href="svgpan.js"/>
<svg id="graph" class="graph">
<g id="viewport">
<title>basic_vector&lt; ElementType, Allocator &gt;</title>
<!-- Node1 -->
<g id="node1" class="node">
<title>Node1</title>
<g id="a_node1"><a xlink:title=" ">
<polygon fill="#bfbfbf" stroke="black" points="0,-114.5 0,-144.5 155,-144.5 155,-114.5 0,-114.5"/>
<text text-anchor="start" x="8" y="-132.5" font-family="Helvetica,sans-Serif" font-size="10.00">basic_vector&lt; ElementType,</text>
<text text-anchor="middle" x="77.5" y="-121.5" font-family="Helvetica,sans-Serif" font-size="10.00"> Allocator &gt;</text>
</a>
</g>
</g>
<!-- Node2 -->
<g id="node2" class="node">
<title>Node2</title>
<g id="a_node2"><a xlink:href="classbasic__vector.html" target="_top" xlink:title=" ">
<polygon fill="none" stroke="black" points="535,-215.5 535,-245.5 674,-245.5 674,-215.5 535,-215.5"/>
<text text-anchor="start" x="543" y="-233.5" font-family="Helvetica,sans-Serif" font-size="10.00">basic_vector&lt; float,</text>
<text text-anchor="middle" x="604.5" y="-222.5" font-family="Helvetica,sans-Serif" font-size="10.00"> std::allocator&lt; float &gt; &gt;</text>
</a>
</g>
</g>
<!-- Node1&#45;&gt;Node2 -->
<g id="edge1" class="edge">
<title>Node1&#45;&gt;Node2</title>
<path fill="none" stroke="orange" stroke-dasharray="5,2" d="M100.8,-151.83C118.67,-168.18 145.27,-189.23 173,-199.5 294.21,-244.4 447.54,-242.86 534.66,-237.09"/>
<polygon fill="orange" stroke="orange" points="102.91,-149.01 93.23,-144.7 98.11,-154.11 102.91,-149.01"/>
<text text-anchor="start" x="193" y="-245.5" font-family="Helvetica,sans-Serif" font-size="10.00"> &lt; float, std::allocator</text>
<text text-anchor="middle" x="246" y="-234.5" font-family="Helvetica,sans-Serif" font-size="10.00">&lt; float &gt; &gt;</text>
</g>
<!-- Node4 -->
<g id="node4" class="node">
<title>Node4</title>
<g id="a_node4"><a xlink:href="classbasic__vector.html" target="_top" xlink:title=" ">
<polygon fill="none" stroke="black" points="539.5,-171.5 539.5,-201.5 669.5,-201.5 669.5,-171.5 539.5,-171.5"/>
<text text-anchor="start" x="547.5" y="-189.5" font-family="Helvetica,sans-Serif" font-size="10.00">basic_vector&lt; int,</text>
<text text-anchor="middle" x="604.5" y="-178.5" font-family="Helvetica,sans-Serif" font-size="10.00"> std::allocator&lt; int &gt; &gt;</text>
</a>
</g>
</g>
<!-- Node1&#45;&gt;Node4 -->
<g id="edge3" class="edge">
<title>Node1&#45;&gt;Node4</title>
<path fill="none" stroke="orange" stroke-dasharray="5,2" d="M136.13,-147.29C148.21,-150.47 160.95,-153.43 173,-155.5 301.68,-177.61 454.64,-183.99 539.2,-185.8"/>
<polygon fill="orange" stroke="orange" points="136.73,-143.82 126.16,-144.58 134.89,-150.58 136.73,-143.82"/>
<text text-anchor="start" x="197.5" y="-187.5" font-family="Helvetica,sans-Serif" font-size="10.00"> &lt; int, std::allocator</text>
<text text-anchor="middle" x="246" y="-176.5" font-family="Helvetica,sans-Serif" font-size="10.00">&lt; int &gt; &gt;</text>
</g>
<!-- Node6 -->
<g id="node6" class="node">
<title>Node6</title>
<g id="a_node6"><a xlink:href="classbasic__vector.html" target="_top" xlink:title=" ">
<polygon fill="none" stroke="black" points="337,-114.5 337,-144.5 517,-144.5 517,-114.5 337,-114.5"/>
<text text-anchor="start" x="345" y="-132.5" font-family="Helvetica,sans-Serif" font-size="10.00">basic_vector&lt; ElementType,</text>
<text text-anchor="middle" x="427" y="-121.5" font-family="Helvetica,sans-Serif" font-size="10.00"> std::allocator&lt; ElementType &gt; &gt;</text>
</a>
</g>
</g>
<!-- Node1&#45;&gt;Node6 -->
<g id="edge5" class="edge">
<title>Node1&#45;&gt;Node6</title>
<path fill="none" stroke="orange" stroke-dasharray="5,2" d="M165.46,-129.5C217.78,-129.5 284.22,-129.5 336.92,-129.5"/>
<polygon fill="orange" stroke="orange" points="165.19,-126 155.19,-129.5 165.19,-133 165.19,-126"/>
<text text-anchor="start" x="173" y="-143.5" font-family="Helvetica,sans-Serif" font-size="10.00"> &lt; ElementType, std</text>
<text text-anchor="middle" x="246" y="-132.5" font-family="Helvetica,sans-Serif" font-size="10.00">::allocator&lt; ElementType &gt; &gt;</text>
</g>
<!-- Node10 -->
<g id="node10" class="node">
<title>Node10</title>
<g id="a_node10"><a xlink:href="classbasic__vector.html" target="_top" xlink:title=" ">
<polygon fill="none" stroke="black" points="339,-0.5 339,-30.5 515,-30.5 515,-0.5 339,-0.5"/>
<text text-anchor="start" x="347" y="-18.5" font-family="Helvetica,sans-Serif" font-size="10.00">basic_vector&lt; Sampletype,</text>
<text text-anchor="middle" x="427" y="-7.5" font-family="Helvetica,sans-Serif" font-size="10.00"> std::allocator&lt; Sampletype &gt; &gt;</text>
</a>
</g>
</g>
<!-- Node1&#45;&gt;Node10 -->
<g id="edge11" class="edge">
<title>Node1&#45;&gt;Node10</title>
<path fill="none" stroke="orange" stroke-dasharray="5,2" d="M94.55,-105.82C111.24,-83.37 139.59,-50.86 173,-35.5 224.54,-11.81 288.24,-6.89 338.82,-7.85"/>
<polygon fill="orange" stroke="orange" points="91.54,-104.01 88.53,-114.16 97.22,-108.1 91.54,-104.01"/>
<text text-anchor="start" x="178" y="-49.5" font-family="Helvetica,sans-Serif" font-size="10.00"> &lt; Sampletype, std::</text>
<text text-anchor="middle" x="246" y="-38.5" font-family="Helvetica,sans-Serif" font-size="10.00">allocator&lt; Sampletype &gt; &gt;</text>
</g>
<!-- Node11 -->
<g id="node11" class="node">
<title>Node11</title>
<g id="a_node11"><a xlink:href="classbasic__vector.html" target="_top" xlink:title=" ">
<polygon fill="none" stroke="black" points="692,-49.5 692,-79.5 868,-79.5 868,-49.5 692,-49.5"/>
<text text-anchor="start" x="700" y="-67.5" font-family="Helvetica,sans-Serif" font-size="10.00">basic_vector&lt; SampleType,</text>
<text text-anchor="middle" x="780" y="-56.5" font-family="Helvetica,sans-Serif" font-size="10.00"> std::allocator&lt; SampleType &gt; &gt;</text>
</a>
</g>
</g>
<!-- Node1&#45;&gt;Node11 -->
<g id="edge13" class="edge">
<title>Node1&#45;&gt;Node11</title>
<path fill="none" stroke="orange" stroke-dasharray="5,2" d="M158.3,-112.47C209.19,-102.31 276.68,-90.13 337,-83.5 459.73,-70 602.61,-65.96 691.94,-64.83"/>
<polygon fill="orange" stroke="orange" points="157.47,-109.06 148.35,-114.47 158.85,-115.93 157.47,-109.06"/>
<text text-anchor="start" x="359" y="-97.5" font-family="Helvetica,sans-Serif" font-size="10.00"> &lt; SampleType, std::</text>
<text text-anchor="middle" x="427" y="-86.5" font-family="Helvetica,sans-Serif" font-size="10.00">allocator&lt; SampleType &gt; &gt;</text>
</g>
<!-- Node3 -->
<g id="node3" class="node">
<title>Node3</title>
<g id="a_node3"><a xlink:href="classscalar__vector.html" target="_top" xlink:title=" ">
<polygon fill="none" stroke="black" points="1008,-205 1008,-224 1134,-224 1134,-205 1008,-205"/>
<text text-anchor="middle" x="1071" y="-212" font-family="Helvetica,sans-Serif" font-size="10.00">scalar_vector&lt; float &gt;</text>
</a>
</g>
</g>
<!-- Node2&#45;&gt;Node3 -->
<g id="edge2" class="edge">
<title>Node2&#45;&gt;Node3</title>
<path fill="none" stroke="midnightblue" d="M684.06,-227.79C775.38,-224.65 924.23,-219.52 1007.88,-216.64"/>
<polygon fill="midnightblue" stroke="midnightblue" points="683.91,-224.3 674.04,-228.14 684.15,-231.29 683.91,-224.3"/>
</g>
<!-- Node5 -->
<g id="node5" class="node">
<title>Node5</title>
<g id="a_node5"><a xlink:href="classscalar__vector.html" target="_top" xlink:title=" ">
<polygon fill="none" stroke="black" points="1012.5,-137 1012.5,-156 1129.5,-156 1129.5,-137 1012.5,-137"/>
<text text-anchor="middle" x="1071" y="-144" font-family="Helvetica,sans-Serif" font-size="10.00">scalar_vector&lt; int &gt;</text>
</a>
</g>
</g>
<!-- Node4&#45;&gt;Node5 -->
<g id="edge4" class="edge">
<title>Node4&#45;&gt;Node5</title>
<path fill="none" stroke="midnightblue" d="M679.75,-193.84C754.13,-199.39 871.53,-203.22 971,-184.5 1000.13,-179.02 1031.78,-165.4 1051.25,-156.05"/>
<polygon fill="midnightblue" stroke="midnightblue" points="679.79,-190.33 669.55,-193.05 679.25,-197.31 679.79,-190.33"/>
</g>
<!-- Node7 -->
<g id="node7" class="node">
<title>Node7</title>
<g id="a_node7"><a xlink:href="classscalar__vector.html" target="_top" xlink:title=" ">
<polygon fill="none" stroke="black" points="700.5,-114.5 700.5,-144.5 859.5,-144.5 859.5,-114.5 700.5,-114.5"/>
<text text-anchor="start" x="708.5" y="-132.5" font-family="Helvetica,sans-Serif" font-size="10.00">scalar_vector&lt; ElementType,</text>
<text text-anchor="middle" x="780" y="-121.5" font-family="Helvetica,sans-Serif" font-size="10.00"> Allocator &gt;</text>
</a>
</g>
</g>
<!-- Node6&#45;&gt;Node7 -->
<g id="edge6" class="edge">
<title>Node6&#45;&gt;Node7</title>
<path fill="none" stroke="midnightblue" d="M527.11,-129.5C581.91,-129.5 649.06,-129.5 700.24,-129.5"/>
<polygon fill="midnightblue" stroke="midnightblue" points="527.03,-126 517.03,-129.5 527.03,-133 527.03,-126"/>
</g>
<!-- Node7&#45;&gt;Node3 -->
<g id="edge8" class="edge">
<title>Node7&#45;&gt;Node3</title>
<path fill="none" stroke="orange" stroke-dasharray="5,2" d="M841.68,-147.35C901.32,-164.89 990.08,-190.99 1037.45,-204.93"/>
<polygon fill="orange" stroke="orange" points="842.58,-143.96 832,-144.5 840.61,-150.68 842.58,-143.96"/>
<text text-anchor="middle" x="928.5" y="-187.5" font-family="Helvetica,sans-Serif" font-size="10.00"> &lt; float &gt;</text>
</g>
<!-- Node7&#45;&gt;Node5 -->
<g id="edge9" class="edge">
<title>Node7&#45;&gt;Node5</title>
<path fill="none" stroke="orange" stroke-dasharray="5,2" d="M869.79,-133.84C901.71,-135.49 937.98,-137.46 971,-139.5 984.41,-140.33 998.84,-141.3 1012.43,-142.25"/>
<polygon fill="orange" stroke="orange" points="869.76,-130.34 859.59,-133.32 869.4,-137.33 869.76,-130.34"/>
<text text-anchor="middle" x="928.5" y="-142.5" font-family="Helvetica,sans-Serif" font-size="10.00"> &lt; int &gt;</text>
</g>
<!-- Node8 -->
<g id="node8" class="node">
<title>Node8</title>
<g id="a_node8"><a xlink:href="classscalar__vector.html" target="_top" xlink:title=" ">
<polygon fill="none" stroke="black" points="989,-87 989,-106 1153,-106 1153,-87 989,-87"/>
<text text-anchor="middle" x="1071" y="-94" font-family="Helvetica,sans-Serif" font-size="10.00">scalar_vector&lt; SampleType &gt;</text>
</a>
</g>
</g>
<!-- Node7&#45;&gt;Node8 -->
<g id="edge7" class="edge">
<title>Node7&#45;&gt;Node8</title>
<path fill="none" stroke="orange" stroke-dasharray="5,2" d="M869.63,-119.38C907.64,-115.04 951.76,-110 988.91,-105.76"/>
<polygon fill="orange" stroke="orange" points="869.13,-115.91 859.59,-120.53 869.92,-122.87 869.13,-115.91"/>
<text text-anchor="middle" x="928.5" y="-119.5" font-family="Helvetica,sans-Serif" font-size="10.00"> &lt; SampleType &gt;</text>
</g>
<!-- Node9 -->
<g id="node9" class="node">
<title>Node9</title>
<g id="a_node9"><a xlink:href="classscalar__vector.html" target="_top" xlink:title=" ">
<polygon fill="none" stroke="black" points="989.5,-24 989.5,-43 1152.5,-43 1152.5,-24 989.5,-24"/>
<text text-anchor="middle" x="1071" y="-31" font-family="Helvetica,sans-Serif" font-size="10.00">scalar_vector&lt; Sampletype &gt;</text>
</a>
</g>
</g>
<!-- Node7&#45;&gt;Node9 -->
<g id="edge10" class="edge">
<title>Node7&#45;&gt;Node9</title>
<path fill="none" stroke="orange" stroke-dasharray="5,2" d="M833.94,-111.18C850.58,-105.46 869.04,-99.17 886,-93.5 940.33,-75.33 1003.91,-54.75 1040.32,-43.03"/>
<polygon fill="orange" stroke="orange" points="832.69,-107.9 824.37,-114.47 834.97,-114.52 832.69,-107.9"/>
<text text-anchor="middle" x="928.5" y="-96.5" font-family="Helvetica,sans-Serif" font-size="10.00"> &lt; Sampletype &gt;</text>
</g>
<!-- Node10&#45;&gt;Node9 -->
<g id="edge12" class="edge">
<title>Node10&#45;&gt;Node9</title>
<path fill="none" stroke="midnightblue" d="M525.33,-18.23C651.98,-21.78 870.98,-27.92 989.02,-31.23"/>
<polygon fill="midnightblue" stroke="midnightblue" points="525.35,-14.73 515.25,-17.95 525.15,-21.73 525.35,-14.73"/>
</g>
<!-- Node11&#45;&gt;Node8 -->
<g id="edge14" class="edge">
<title>Node11&#45;&gt;Node8</title>
<path fill="none" stroke="midnightblue" d="M868.8,-48.29C901.21,-44.97 938.05,-44.36 971,-51.5 1002.37,-58.29 1035.73,-75.91 1054.61,-86.98"/>
<polygon fill="midnightblue" stroke="midnightblue" points="867.99,-44.86 858.44,-49.46 868.77,-51.82 867.99,-44.86"/>
</g>
</g>
</svg>
        <g id="navigator" transform="translate(0 0)" fill="#404254">
                <rect fill="#f2f5e9" fill-opacity="0.5" stroke="#606060" stroke-width=".5" x="0" y="0" width="60" height="60"/>
                <use id="zoomplus" xlink:href="#zoomPlus" x="17" y="9" onmousedown="handleZoom(evt,'in')"/>
                <use id="zoomminus" xlink:href="#zoomMin" x="42" y="9" onmousedown="handleZoom(evt,'out')"/>
                <use id="reset" xlink:href="#resetDef" x="30" y="36" onmousedown="handleReset()"/>
                <g id="arrowUp" xlink:href="#dirArrow" transform="translate(30 24)" onmousedown="handlePan(0,-1)">
                  <use xlink:href="#rim" fill="#404040">
                        <set attributeName="fill" to="#808080" begin="arrowUp.mouseover" end="arrowUp.mouseout"/>
                  </use>
                  <path fill="none" stroke="white" stroke-width="1.5" d="M0,-3.0v7 M-2.5,-0.5L0,-3.0L2.5,-0.5"/>
                </g>
                <g id="arrowRight" xlink:href="#dirArrow" transform="rotate(90) translate(36 -43)" onmousedown="handlePan(1,0)">
                  <use xlink:href="#rim" fill="#404040">
                        <set attributeName="fill" to="#808080" begin="arrowRight.mouseover" end="arrowRight.mouseout"/>
                  </use>
                  <path fill="none" stroke="white" stroke-width="1.5" d="M0,-3.0v7 M-2.5,-0.5L0,-3.0L2.5,-0.5"/>
                </g>
                <g id="arrowDown" xlink:href="#dirArrow" transform="rotate(180) translate(-30 -48)" onmousedown="handlePan(0,1)">
                  <use xlink:href="#rim" fill="#404040">
                        <set attributeName="fill" to="#808080" begin="arrowDown.mouseover" end="arrowDown.mouseout"/>
                  </use>
                  <path fill="none" stroke="white" stroke-width="1.5" d="M0,-3.0v7 M-2.5,-0.5L0,-3.0L2.5,-0.5"/>
                </g>
                <g id="arrowLeft" xlink:href="#dirArrow" transform="rotate(270) translate(-36 17)" onmousedown="handlePan(-1,0)">
                  <use xlink:href="#rim" fill="#404040">
                        <set attributeName="fill" to="#808080" begin="arrowLeft.mouseover" end="arrowLeft.mouseout"/>
                  </use>
                  <path fill="none" stroke="white" stroke-width="1.5" d="M0,-3.0v7 M-2.5,-0.5L0,-3.0L2.5,-0.5"/>
                </g>
        </g>
        <svg viewBox="0 0 15 15" width="100%" height="30px" preserveAspectRatio="xMaxYMin meet">
         <g id="arrow_out" transform="scale(0.3 0.3)">
          <a xlink:href="classbasic__vector__inherit__graph_org.svg" target="_base">
           <rect id="button" ry="5" rx="5" y="6" x="6" height="38" width="38"
                fill="#f2f5e9" fill-opacity="0.5" stroke="#606060" stroke-width="1.0"/>
           <path id="arrow"
             d="M 11.500037,31.436501 C 11.940474,20.09759 22.043105,11.32322 32.158766,21.979434 L 37.068811,17.246167 C 37.068811,17.246167 37.088388,32 37.088388,32 L 22.160133,31.978069 C 22.160133,31.978069 26.997745,27.140456 26.997745,27.140456 C 18.528582,18.264221 13.291696,25.230495 11.500037,31.436501 z"
             style="fill:#404040;"/>
          </a>
         </g>
        </svg>
</svg>
