<?xml version="1.0" encoding="UTF-8" standalone="no"?>
<!DOCTYPE svg PUBLIC "-//W3C//DTD SVG 1.1//EN"
 "http://www.w3.org/Graphics/SVG/1.1/DTD/svg11.dtd">
<!-- Generated by graphviz version 2.43.0 (0)
 -->
<!-- Title: owned_vector&lt; ElementType, Allocator &gt; Pages: 1 -->
<svg width="667pt" height="78pt"
 viewBox="0.00 0.00 667.00 77.50" xmlns="http://www.w3.org/2000/svg" xmlns:xlink="http://www.w3.org/1999/xlink">
<g id="graph0" class="graph" transform="scale(1 1) rotate(0) translate(4 73.5)">
<title>owned_vector&lt; ElementType, Allocator &gt;</title>
<!-- Node1 -->
<g id="node1" class="node">
<title>Node1</title>
<g id="a_node1"><a xlink:title=" ">
<polygon fill="#bfbfbf" stroke="black" points="210,-22.5 210,-52.5 372,-52.5 372,-22.5 210,-22.5"/>
<text text-anchor="start" x="218" y="-40.5" font-family="Helvetica,sans-Serif" font-size="10.00">owned_vector&lt; ElementType,</text>
<text text-anchor="middle" x="291" y="-29.5" font-family="Helvetica,sans-Serif" font-size="10.00"> Allocator &gt;</text>
</a>
</g>
</g>
<!-- Node3 -->
<g id="node3" class="node">
<title>Node3</title>
<g id="a_node3"><a xlink:href="classowned__vector.html" target="_top" xlink:title=" ">
<polygon fill="none" stroke="black" points="519.5,-50 519.5,-69 653.5,-69 653.5,-50 519.5,-50"/>
<text text-anchor="middle" x="586.5" y="-57" font-family="Helvetica,sans-Serif" font-size="10.00">owned_vector&lt; Grain &gt;</text>
</a>
</g>
</g>
<!-- Node1&#45;&gt;Node3 -->
<g id="edge2" class="edge">
<title>Node1&#45;&gt;Node3</title>
<path fill="none" stroke="orange" stroke-dasharray="5,2" d="M382.37,-44.27C426.58,-47.59 478.83,-51.5 519.27,-54.54"/>
<polygon fill="orange" stroke="orange" points="382.43,-40.77 372.2,-43.51 381.91,-47.75 382.43,-40.77"/>
<text text-anchor="middle" x="443" y="-55.5" font-family="Helvetica,sans-Serif" font-size="10.00"> &lt; Grain &gt;</text>
</g>
<!-- Node4 -->
<g id="node4" class="node">
<title>Node4</title>
<g id="a_node4"><a xlink:href="classowned__vector.html" target="_top" xlink:title=" ">
<polygon fill="none" stroke="black" points="514,-0.5 514,-30.5 659,-30.5 659,-0.5 514,-0.5"/>
<text text-anchor="start" x="522" y="-18.5" font-family="Helvetica,sans-Serif" font-size="10.00">owned_vector&lt; LinkedList</text>
<text text-anchor="middle" x="586.5" y="-7.5" font-family="Helvetica,sans-Serif" font-size="10.00">::Node &gt;</text>
</a>
</g>
</g>
<!-- Node1&#45;&gt;Node4 -->
<g id="edge3" class="edge">
<title>Node1&#45;&gt;Node4</title>
<path fill="none" stroke="orange" stroke-dasharray="5,2" d="M382.22,-30.74C424.53,-27.57 474.24,-23.84 513.91,-20.87"/>
<polygon fill="orange" stroke="orange" points="381.91,-27.25 372.2,-31.49 382.43,-34.23 381.91,-27.25"/>
<text text-anchor="middle" x="443" y="-33.5" font-family="Helvetica,sans-Serif" font-size="10.00"> &lt; LinkedList::Node &gt;</text>
</g>
<!-- Node2 -->
<g id="node2" class="node">
<title>Node2</title>
<g id="a_node2"><a xlink:title=" ">
<polygon fill="none" stroke="#bfbfbf" points="0,-11.5 0,-63.5 173,-63.5 173,-11.5 0,-11.5"/>
<text text-anchor="start" x="8" y="-51.5" font-family="Helvetica,sans-Serif" font-size="10.00">basic_vector&lt; std::</text>
<text text-anchor="start" x="8" y="-40.5" font-family="Helvetica,sans-Serif" font-size="10.00">unique_ptr&lt; ElementType</text>
<text text-anchor="start" x="8" y="-29.5" font-family="Helvetica,sans-Serif" font-size="10.00"> &gt;, std::allocator&lt;std</text>
<text text-anchor="middle" x="86.5" y="-18.5" font-family="Helvetica,sans-Serif" font-size="10.00">::unique_ptr&lt;ElementType&gt;&gt; &gt;</text>
</a>
</g>
</g>
<!-- Node2&#45;&gt;Node1 -->
<g id="edge1" class="edge">
<title>Node2&#45;&gt;Node1</title>
<path fill="none" stroke="midnightblue" d="M183.15,-37.5C192.09,-37.5 201.1,-37.5 209.88,-37.5"/>
<polygon fill="midnightblue" stroke="midnightblue" points="183.08,-34 173.08,-37.5 183.08,-41 183.08,-34"/>
</g>
</g>
</svg>
