<?xml version="1.0" encoding="UTF-8" standalone="no"?>
<!DOCTYPE svg PUBLIC "-//W3C//DTD SVG 1.1//EN"
 "http://www.w3.org/Graphics/SVG/1.1/DTD/svg11.dtd">
<!-- Generated by graphviz version 2.43.0 (0)
 -->
<!-- Title: ds::basic_vector&lt; ElementType, Allocator &gt; Pages: 1 -->
<svg width="1089pt" height="263pt"
 viewBox="0.00 0.00 1089.00 262.50" xmlns="http://www.w3.org/2000/svg" xmlns:xlink="http://www.w3.org/1999/xlink">
<g id="graph0" class="graph" transform="scale(1 1) rotate(0) translate(4 258.5)">
<title>ds::basic_vector&lt; ElementType, Allocator &gt;</title>
<!-- Node1 -->
<g id="node1" class="node">
<title>Node1</title>
<g id="a_node1"><a xlink:title=" ">
<polygon fill="#bfbfbf" stroke="black" points="0,-114.5 0,-144.5 147,-144.5 147,-114.5 0,-114.5"/>
<text text-anchor="start" x="8" y="-132.5" font-family="Helvetica,sans-Serif" font-size="10.00">ds::basic_vector&lt; Element</text>
<text text-anchor="middle" x="73.5" y="-121.5" font-family="Helvetica,sans-Serif" font-size="10.00">Type, Allocator &gt;</text>
</a>
</g>
</g>
<!-- Node2 -->
<g id="node2" class="node">
<title>Node2</title>
<g id="a_node2"><a xlink:href="classds_1_1basic__vector.html" target="_top" xlink:title=" ">
<polygon fill="none" stroke="black" points="553,-215.5 553,-245.5 692,-245.5 692,-215.5 553,-215.5"/>
<text text-anchor="start" x="561" y="-233.5" font-family="Helvetica,sans-Serif" font-size="10.00">ds::basic_vector&lt; float,</text>
<text text-anchor="middle" x="622.5" y="-222.5" font-family="Helvetica,sans-Serif" font-size="10.00"> std::allocator&lt; float &gt; &gt;</text>
</a>
</g>
</g>
<!-- Node1&#45;&gt;Node2 -->
<g id="edge1" class="edge">
<title>Node1&#45;&gt;Node2</title>
<path fill="none" stroke="orange" stroke-dasharray="5,2" d="M95.67,-151.86C112.68,-168.22 138.11,-189.28 165,-199.5 295.14,-248.94 461.03,-245.22 552.74,-237.95"/>
<polygon fill="orange" stroke="orange" points="98.03,-149.28 88.47,-144.73 93.11,-154.25 98.03,-149.28"/>
<text text-anchor="start" x="185" y="-246.5" font-family="Helvetica,sans-Serif" font-size="10.00"> &lt; float, std::allocator</text>
<text text-anchor="middle" x="238" y="-235.5" font-family="Helvetica,sans-Serif" font-size="10.00">&lt; float &gt; &gt;</text>
</g>
<!-- Node4 -->
<g id="node4" class="node">
<title>Node4</title>
<g id="a_node4"><a xlink:href="classds_1_1basic__vector.html" target="_top" xlink:title=" ">
<polygon fill="none" stroke="black" points="557.5,-171.5 557.5,-201.5 687.5,-201.5 687.5,-171.5 557.5,-171.5"/>
<text text-anchor="start" x="565.5" y="-189.5" font-family="Helvetica,sans-Serif" font-size="10.00">ds::basic_vector&lt; int,</text>
<text text-anchor="middle" x="622.5" y="-178.5" font-family="Helvetica,sans-Serif" font-size="10.00"> std::allocator&lt; int &gt; &gt;</text>
</a>
</g>
</g>
<!-- Node1&#45;&gt;Node4 -->
<g id="edge3" class="edge">
<title>Node1&#45;&gt;Node4</title>
<path fill="none" stroke="orange" stroke-dasharray="5,2" d="M129.27,-147.25C140.95,-150.46 153.3,-153.45 165,-155.5 303.48,-179.81 468.7,-185.32 557.48,-186.41"/>
<polygon fill="orange" stroke="orange" points="130.21,-143.88 119.64,-144.5 128.29,-150.61 130.21,-143.88"/>
<text text-anchor="start" x="189.5" y="-187.5" font-family="Helvetica,sans-Serif" font-size="10.00"> &lt; int, std::allocator</text>
<text text-anchor="middle" x="238" y="-176.5" font-family="Helvetica,sans-Serif" font-size="10.00">&lt; int &gt; &gt;</text>
</g>
<!-- Node6 -->
<g id="node6" class="node">
<title>Node6</title>
<g id="a_node6"><a xlink:href="classds_1_1basic__vector.html" target="_top" xlink:title=" ">
<polygon fill="none" stroke="black" points="329,-114.5 329,-144.5 535,-144.5 535,-114.5 329,-114.5"/>
<text text-anchor="start" x="337" y="-132.5" font-family="Helvetica,sans-Serif" font-size="10.00">ds::basic_vector&lt; Element</text>
<text text-anchor="middle" x="432" y="-121.5" font-family="Helvetica,sans-Serif" font-size="10.00">Type, std::allocator&lt; ElementType &gt; &gt;</text>
</a>
</g>
</g>
<!-- Node1&#45;&gt;Node6 -->
<g id="edge5" class="edge">
<title>Node1&#45;&gt;Node6</title>
<path fill="none" stroke="orange" stroke-dasharray="5,2" d="M157.1,-129.5C208.26,-129.5 274.36,-129.5 328.8,-129.5"/>
<polygon fill="orange" stroke="orange" points="157.07,-126 147.07,-129.5 157.07,-133 157.07,-126"/>
<text text-anchor="start" x="165" y="-143.5" font-family="Helvetica,sans-Serif" font-size="10.00"> &lt; ElementType, std</text>
<text text-anchor="middle" x="238" y="-132.5" font-family="Helvetica,sans-Serif" font-size="10.00">::allocator&lt; ElementType &gt; &gt;</text>
</g>
<!-- Node10 -->
<g id="node10" class="node">
<title>Node10</title>
<g id="a_node10"><a xlink:href="classds_1_1basic__vector.html" target="_top" xlink:title=" ">
<polygon fill="none" stroke="black" points="344,-0.5 344,-30.5 520,-30.5 520,-0.5 344,-0.5"/>
<text text-anchor="start" x="352" y="-18.5" font-family="Helvetica,sans-Serif" font-size="10.00">ds::basic_vector&lt; Sampletype,</text>
<text text-anchor="middle" x="432" y="-7.5" font-family="Helvetica,sans-Serif" font-size="10.00"> std::allocator&lt; Sampletype &gt; &gt;</text>
</a>
</g>
</g>
<!-- Node1&#45;&gt;Node10 -->
<g id="edge11" class="edge">
<title>Node1&#45;&gt;Node10</title>
<path fill="none" stroke="orange" stroke-dasharray="5,2" d="M89.62,-105.8C105.42,-83.34 132.43,-50.82 165,-35.5 220.52,-9.38 289.83,-4.94 343.78,-6.74"/>
<polygon fill="orange" stroke="orange" points="86.67,-103.92 83.94,-114.15 92.46,-107.86 86.67,-103.92"/>
<text text-anchor="start" x="170" y="-49.5" font-family="Helvetica,sans-Serif" font-size="10.00"> &lt; Sampletype, std::</text>
<text text-anchor="middle" x="238" y="-38.5" font-family="Helvetica,sans-Serif" font-size="10.00">allocator&lt; Sampletype &gt; &gt;</text>
</g>
<!-- Node11 -->
<g id="node11" class="node">
<title>Node11</title>
<g id="a_node11"><a xlink:href="classds_1_1basic__vector.html" target="_top" xlink:title=" ">
<polygon fill="none" stroke="black" points="710,-46 710,-87 853,-87 853,-46 710,-46"/>
<text text-anchor="start" x="718" y="-75" font-family="Helvetica,sans-Serif" font-size="10.00">ds::basic_vector&lt; Sample</text>
<text text-anchor="start" x="718" y="-64" font-family="Helvetica,sans-Serif" font-size="10.00">Type, std::allocator&lt;</text>
<text text-anchor="middle" x="781.5" y="-53" font-family="Helvetica,sans-Serif" font-size="10.00"> SampleType &gt; &gt;</text>
</a>
</g>
</g>
<!-- Node1&#45;&gt;Node11 -->
<g id="edge13" class="edge">
<title>Node1&#45;&gt;Node11</title>
<path fill="none" stroke="orange" stroke-dasharray="5,2" d="M152.51,-112.45C202.67,-102.22 269.37,-89.98 329,-83.5 463.13,-68.93 620.84,-66.26 709.89,-66.08"/>
<polygon fill="orange" stroke="orange" points="151.8,-109.02 142.71,-114.47 153.21,-115.88 151.8,-109.02"/>
<text text-anchor="start" x="364" y="-97.5" font-family="Helvetica,sans-Serif" font-size="10.00"> &lt; SampleType, std::</text>
<text text-anchor="middle" x="432" y="-86.5" font-family="Helvetica,sans-Serif" font-size="10.00">allocator&lt; SampleType &gt; &gt;</text>
</g>
<!-- Node3 -->
<g id="node3" class="node">
<title>Node3</title>
<g id="a_node3"><a xlink:href="classds_1_1scalar__vector.html" target="_top" xlink:title=" ">
<polygon fill="none" stroke="black" points="974,-207.5 974,-237.5 1081,-237.5 1081,-207.5 974,-207.5"/>
<text text-anchor="start" x="982" y="-225.5" font-family="Helvetica,sans-Serif" font-size="10.00">ds::scalar_vector&lt;</text>
<text text-anchor="middle" x="1027.5" y="-214.5" font-family="Helvetica,sans-Serif" font-size="10.00"> float &gt;</text>
</a>
</g>
</g>
<!-- Node2&#45;&gt;Node3 -->
<g id="edge2" class="edge">
<title>Node2&#45;&gt;Node3</title>
<path fill="none" stroke="midnightblue" d="M702.37,-228.93C782.54,-227.34 904.51,-224.92 973.71,-223.55"/>
<polygon fill="midnightblue" stroke="midnightblue" points="702.25,-225.44 692.32,-229.13 702.39,-232.43 702.25,-225.44"/>
</g>
<!-- Node5 -->
<g id="node5" class="node">
<title>Node5</title>
<g id="a_node5"><a xlink:href="classds_1_1scalar__vector.html" target="_top" xlink:title=" ">
<polygon fill="none" stroke="black" points="974,-134.5 974,-164.5 1081,-164.5 1081,-134.5 974,-134.5"/>
<text text-anchor="start" x="982" y="-152.5" font-family="Helvetica,sans-Serif" font-size="10.00">ds::scalar_vector&lt;</text>
<text text-anchor="middle" x="1027.5" y="-141.5" font-family="Helvetica,sans-Serif" font-size="10.00"> int &gt;</text>
</a>
</g>
</g>
<!-- Node4&#45;&gt;Node5 -->
<g id="edge4" class="edge">
<title>Node4&#45;&gt;Node5</title>
<path fill="none" stroke="midnightblue" d="M697.85,-195.53C766,-201.58 869.19,-205.14 956,-184.5 972.62,-180.55 989.82,-172.11 1003.07,-164.51"/>
<polygon fill="midnightblue" stroke="midnightblue" points="697.92,-192.02 687.64,-194.58 697.27,-198.99 697.92,-192.02"/>
</g>
<!-- Node7 -->
<g id="node7" class="node">
<title>Node7</title>
<g id="a_node7"><a xlink:href="classds_1_1scalar__vector.html" target="_top" xlink:title=" ">
<polygon fill="none" stroke="black" points="710,-114.5 710,-144.5 853,-144.5 853,-114.5 710,-114.5"/>
<text text-anchor="start" x="718" y="-132.5" font-family="Helvetica,sans-Serif" font-size="10.00">ds::scalar_vector&lt;</text>
<text text-anchor="middle" x="781.5" y="-121.5" font-family="Helvetica,sans-Serif" font-size="10.00"> ElementType, Allocator &gt;</text>
</a>
</g>
</g>
<!-- Node6&#45;&gt;Node7 -->
<g id="edge6" class="edge">
<title>Node6&#45;&gt;Node7</title>
<path fill="none" stroke="midnightblue" d="M545.71,-129.5C599.73,-129.5 662.77,-129.5 709.92,-129.5"/>
<polygon fill="midnightblue" stroke="midnightblue" points="545.38,-126 535.38,-129.5 545.38,-133 545.38,-126"/>
</g>
<!-- Node7&#45;&gt;Node3 -->
<g id="edge8" class="edge">
<title>Node7&#45;&gt;Node3</title>
<path fill="none" stroke="orange" stroke-dasharray="5,2" d="M831.39,-148.14C877.16,-165.58 944.67,-191.31 987.08,-207.48"/>
<polygon fill="orange" stroke="orange" points="832.56,-144.84 821.97,-144.55 830.07,-151.38 832.56,-144.84"/>
<text text-anchor="middle" x="913.5" y="-197.5" font-family="Helvetica,sans-Serif" font-size="10.00"> &lt; float &gt;</text>
</g>
<!-- Node7&#45;&gt;Node5 -->
<g id="edge9" class="edge">
<title>Node7&#45;&gt;Node5</title>
<path fill="none" stroke="orange" stroke-dasharray="5,2" d="M863.26,-132.75C892.52,-134.3 925.79,-136.49 956,-139.5 961.78,-140.08 967.82,-140.78 973.82,-141.54"/>
<polygon fill="orange" stroke="orange" points="863.26,-129.25 853.09,-132.23 862.9,-136.24 863.26,-129.25"/>
<text text-anchor="middle" x="913.5" y="-142.5" font-family="Helvetica,sans-Serif" font-size="10.00"> &lt; int &gt;</text>
</g>
<!-- Node8 -->
<g id="node8" class="node">
<title>Node8</title>
<g id="a_node8"><a xlink:href="classds_1_1scalar__vector.html" target="_top" xlink:title=" ">
<polygon fill="none" stroke="black" points="974,-78.5 974,-108.5 1081,-108.5 1081,-78.5 974,-78.5"/>
<text text-anchor="start" x="982" y="-96.5" font-family="Helvetica,sans-Serif" font-size="10.00">ds::scalar_vector&lt;</text>
<text text-anchor="middle" x="1027.5" y="-85.5" font-family="Helvetica,sans-Serif" font-size="10.00"> SampleType &gt;</text>
</a>
</g>
</g>
<!-- Node7&#45;&gt;Node8 -->
<g id="edge7" class="edge">
<title>Node7&#45;&gt;Node8</title>
<path fill="none" stroke="orange" stroke-dasharray="5,2" d="M863.19,-117.59C899.62,-112.22 941.63,-106.02 973.92,-101.26"/>
<polygon fill="orange" stroke="orange" points="862.46,-114.17 853.07,-119.09 863.48,-121.09 862.46,-114.17"/>
<text text-anchor="middle" x="913.5" y="-118.5" font-family="Helvetica,sans-Serif" font-size="10.00"> &lt; SampleType &gt;</text>
</g>
<!-- Node9 -->
<g id="node9" class="node">
<title>Node9</title>
<g id="a_node9"><a xlink:href="classds_1_1scalar__vector.html" target="_top" xlink:title=" ">
<polygon fill="none" stroke="black" points="974,-15.5 974,-45.5 1081,-45.5 1081,-15.5 974,-15.5"/>
<text text-anchor="start" x="982" y="-33.5" font-family="Helvetica,sans-Serif" font-size="10.00">ds::scalar_vector&lt;</text>
<text text-anchor="middle" x="1027.5" y="-22.5" font-family="Helvetica,sans-Serif" font-size="10.00"> Sampletype &gt;</text>
</a>
</g>
</g>
<!-- Node7&#45;&gt;Node9 -->
<g id="edge10" class="edge">
<title>Node7&#45;&gt;Node9</title>
<path fill="none" stroke="orange" stroke-dasharray="5,2" d="M824.02,-110.09C838.77,-103.37 855.54,-95.92 871,-89.5 909.13,-73.67 953.19,-57.11 984.64,-45.58"/>
<polygon fill="orange" stroke="orange" points="822.29,-107.04 814.66,-114.39 825.21,-113.4 822.29,-107.04"/>
<text text-anchor="middle" x="913.5" y="-92.5" font-family="Helvetica,sans-Serif" font-size="10.00"> &lt; Sampletype &gt;</text>
</g>
<!-- Node10&#45;&gt;Node9 -->
<g id="edge12" class="edge">
<title>Node10&#45;&gt;Node9</title>
<path fill="none" stroke="midnightblue" d="M530.35,-17.96C657.12,-21.16 874.23,-26.65 973.8,-29.17"/>
<polygon fill="midnightblue" stroke="midnightblue" points="530.34,-14.46 520.25,-17.71 530.16,-21.46 530.34,-14.46"/>
</g>
<!-- Node11&#45;&gt;Node8 -->
<g id="edge14" class="edge">
<title>Node11&#45;&gt;Node8</title>
<path fill="none" stroke="midnightblue" d="M863.45,-47.81C892.99,-44.03 926.4,-43.35 956,-51.5 975.09,-56.76 994.24,-68.69 1007.75,-78.49"/>
<polygon fill="midnightblue" stroke="midnightblue" points="862.58,-44.4 853.17,-49.26 863.57,-51.33 862.58,-44.4"/>
</g>
</g>
</svg>
