<?xml version="1.0" encoding="UTF-8" standalone="no"?>
<!DOCTYPE svg PUBLIC "-//W3C//DTD SVG 1.1//EN"
 "http://www.w3.org/Graphics/SVG/1.1/DTD/svg11.dtd">
<!-- Generated by graphviz version 2.43.0 (0)
 -->
<!-- Title: cone.h Pages: 1 -->
<!--zoomable 308 -->
<svg id="main" version="1.1" xmlns="http://www.w3.org/2000/svg" xmlns:xlink="http://www.w3.org/1999/xlink" xml:space="preserve" onload="init(evt)">
<style type="text/css"><![CDATA[
.edge:hover path { stroke: red; }
.edge:hover polygon { stroke: red; fill: red; }
]]></style>
<script type="text/javascript"><![CDATA[
var edges = document.getElementsByTagName('g');
if (edges && edges.length) {
  for (var i=0;i<edges.length;i++) {
    if (edges[i].id.substr(0,4)=='edge') {
      edges[i].setAttribute('class','edge');
    }
  }
}
]]></script>
        <defs>
                <circle id="rim" cx="0" cy="0" r="7"/>
                <circle id="rim2" cx="0" cy="0" r="3.5"/>
                <g id="zoomPlus">
                        <use xlink:href="#rim" fill="#404040">
                                <set attributeName="fill" to="#808080" begin="zoomplus.mouseover" end="zoomplus.mouseout"/>
                        </use>
                        <path d="M-4,0h8M0,-4v8" fill="none" stroke="white" stroke-width="1.5" pointer-events="none"/>
                </g>
                <g id="zoomMin">
                        <use xlink:href="#rim" fill="#404040">
                                <set attributeName="fill" to="#808080" begin="zoomminus.mouseover" end="zoomminus.mouseout"/>
                        </use>
                        <path d="M-4,0h8" fill="none" stroke="white" stroke-width="1.5" pointer-events="none"/>
                </g>
                <g id="dirArrow">
                        <path fill="none" stroke="white" stroke-width="1.5" d="M0,-3.0v7 M-2.5,-0.5L0,-3.0L2.5,-0.5"/>
                </g>
               <g id="resetDef">
                       <use xlink:href="#rim2" fill="#404040">
                               <set attributeName="fill" to="#808080" begin="reset.mouseover" end="reset.mouseout"/>
                       </use>
               </g>
        </defs>

<script type="text/javascript">
var viewWidth = 1191;
var viewHeight = 308;
var sectionId = 'dynsection-0';
</script>
<script xlink:href="svgpan.js"/>
<svg id="graph" class="graph">
<g id="viewport">
<title>cone.h</title>
<!-- Node1 -->
<g id="node1" class="node">
<title>Node1</title>
<g id="a_node1"><a xlink:title=" ">
<polygon fill="#bfbfbf" stroke="black" points="967.5,-280.5 967.5,-299.5 1016.5,-299.5 1016.5,-280.5 967.5,-280.5"/>
<text text-anchor="middle" x="992" y="-287.5" font-family="Helvetica,sans-Serif" font-size="10.00">cone.h</text>
</a>
</g>
</g>
<!-- Node2 -->
<g id="node2" class="node">
<title>Node2</title>
<g id="a_node2"><a xlink:href="limes__namespace_8h.html" target="_top" xlink:title=" ">
<polygon fill="none" stroke="black" points="779,-0.5 779,-19.5 893,-19.5 893,-0.5 779,-0.5"/>
<text text-anchor="middle" x="836" y="-7.5" font-family="Helvetica,sans-Serif" font-size="10.00">limes_namespace.h</text>
</a>
</g>
</g>
<!-- Node1&#45;&gt;Node2 -->
<g id="edge1" class="edge">
<title>Node1&#45;&gt;Node2</title>
<path fill="none" stroke="midnightblue" d="M1016.72,-283.66C1060.71,-272.53 1148,-242.46 1148,-179 1148,-179 1148,-179 1148,-121 1148,-90.9 1151.64,-75.83 1129,-56 1096.33,-27.38 979.34,-16.94 903.44,-13.14"/>
<polygon fill="midnightblue" stroke="midnightblue" points="903.17,-9.63 893.02,-12.65 902.84,-16.62 903.17,-9.63"/>
</g>
<!-- Node3 -->
<g id="node3" class="node">
<title>Node3</title>
<g id="a_node3"><a xlink:title=" ">
<polygon fill="none" stroke="#bfbfbf" points="117.5,-0.5 117.5,-19.5 206.5,-19.5 206.5,-0.5 117.5,-0.5"/>
<text text-anchor="middle" x="162" y="-7.5" font-family="Helvetica,sans-Serif" font-size="10.00">limes_export.h</text>
</a>
</g>
</g>
<!-- Node1&#45;&gt;Node3 -->
<g id="edge2" class="edge">
<title>Node1&#45;&gt;Node3</title>
<path fill="none" stroke="midnightblue" d="M967.48,-288.93C814.72,-288.19 0,-279.5 0,-179 0,-179 0,-179 0,-121 0,-65.93 64.86,-36.51 112.5,-22.33"/>
<polygon fill="midnightblue" stroke="midnightblue" points="113.7,-25.63 122.37,-19.53 111.79,-18.89 113.7,-25.63"/>
</g>
<!-- Node4 -->
<g id="node4" class="node">
<title>Node4</title>
<g id="a_node4"><a xlink:title=" ">
<polygon fill="none" stroke="#bfbfbf" points="1067,-0.5 1067,-19.5 1167,-19.5 1167,-0.5 1067,-0.5"/>
<text text-anchor="middle" x="1117" y="-7.5" font-family="Helvetica,sans-Serif" font-size="10.00">limes_platform.h</text>
</a>
</g>
</g>
<!-- Node1&#45;&gt;Node4 -->
<g id="edge3" class="edge">
<title>Node1&#45;&gt;Node4</title>
<path fill="none" stroke="midnightblue" d="M1016.54,-286.15C1059.23,-280.64 1144.31,-266.98 1162,-244 1213.06,-177.67 1154.73,-69.86 1128.48,-28.2"/>
<polygon fill="midnightblue" stroke="midnightblue" points="1131.37,-26.21 1123,-19.71 1125.49,-30.01 1131.37,-26.21"/>
</g>
<!-- Node5 -->
<g id="node5" class="node">
<title>Node5</title>
<g id="a_node5"><a xlink:href="preprocessor_8h.html" target="_top" xlink:title=" ">
<polygon fill="none" stroke="black" points="978.5,-56.5 978.5,-75.5 1119.5,-75.5 1119.5,-56.5 978.5,-56.5"/>
<text text-anchor="middle" x="1049" y="-63.5" font-family="Helvetica,sans-Serif" font-size="10.00">../../../misc/preprocessor.h</text>
</a>
</g>
</g>
<!-- Node1&#45;&gt;Node5 -->
<g id="edge4" class="edge">
<title>Node1&#45;&gt;Node5</title>
<path fill="none" stroke="midnightblue" d="M1016.54,-286.15C1059.23,-280.64 1144.31,-266.98 1162,-244 1206,-186.84 1114.48,-112.3 1070.64,-81.39"/>
<polygon fill="midnightblue" stroke="midnightblue" points="1072.54,-78.45 1062.32,-75.65 1068.56,-84.21 1072.54,-78.45"/>
</g>
<!-- Node6 -->
<g id="node6" class="node">
<title>Node6</title>
<g id="a_node6"><a xlink:href="circle_8h.html" target="_top" xlink:title=" ">
<polygon fill="none" stroke="black" points="877.5,-224.5 877.5,-243.5 954.5,-243.5 954.5,-224.5 877.5,-224.5"/>
<text text-anchor="middle" x="916" y="-231.5" font-family="Helvetica,sans-Serif" font-size="10.00">../2D/circle.h</text>
</a>
</g>
</g>
<!-- Node1&#45;&gt;Node6 -->
<g id="edge6" class="edge">
<title>Node1&#45;&gt;Node6</title>
<path fill="none" stroke="midnightblue" d="M979.79,-280.32C968.22,-272.11 950.62,-259.6 936.84,-249.81"/>
<polygon fill="midnightblue" stroke="midnightblue" points="938.61,-246.77 928.43,-243.83 934.56,-252.48 938.61,-246.77"/>
</g>
<!-- Node9 -->
<g id="node9" class="node">
<title>Node9</title>
<g id="a_node9"><a xlink:title=" ">
<polygon fill="none" stroke="#bfbfbf" points="840.5,-112.5 840.5,-131.5 887.5,-131.5 887.5,-112.5 840.5,-112.5"/>
<text text-anchor="middle" x="864" y="-119.5" font-family="Helvetica,sans-Serif" font-size="10.00">cmath</text>
</a>
</g>
</g>
<!-- Node1&#45;&gt;Node9 -->
<g id="edge35" class="edge">
<title>Node1&#45;&gt;Node9</title>
<path fill="none" stroke="midnightblue" d="M989.47,-280.49C985.38,-267.57 976.51,-242.54 964,-224 940.73,-189.51 904.73,-156.64 882.87,-138.21"/>
<polygon fill="midnightblue" stroke="midnightblue" points="884.9,-135.36 874.97,-131.67 880.44,-140.75 884.9,-135.36"/>
</g>
<!-- Node17 -->
<g id="node17" class="node">
<title>Node17</title>
<g id="a_node17"><a xlink:href="3_dshape_8h.html" target="_top" xlink:title=" ">
<polygon fill="none" stroke="black" points="66,-56.5 66,-75.5 134,-75.5 134,-56.5 66,-56.5"/>
<text text-anchor="middle" x="100" y="-63.5" font-family="Helvetica,sans-Serif" font-size="10.00">3Dshape.h</text>
</a>
</g>
</g>
<!-- Node1&#45;&gt;Node17 -->
<g id="edge32" class="edge">
<title>Node1&#45;&gt;Node17</title>
<path fill="none" stroke="midnightblue" d="M967.21,-282.83C844.69,-252.34 303.32,-117.6 144.15,-77.99"/>
<polygon fill="midnightblue" stroke="midnightblue" points="144.78,-74.54 134.23,-75.52 143.09,-81.33 144.78,-74.54"/>
</g>
<!-- Node5&#45;&gt;Node4 -->
<g id="edge5" class="edge">
<title>Node5&#45;&gt;Node4</title>
<path fill="none" stroke="midnightblue" d="M1059.93,-56.32C1070.17,-48.18 1085.72,-35.84 1098,-26.09"/>
<polygon fill="midnightblue" stroke="midnightblue" points="1100.22,-28.79 1105.88,-19.83 1095.87,-23.31 1100.22,-28.79"/>
</g>
<!-- Node6&#45;&gt;Node2 -->
<g id="edge7" class="edge">
<title>Node6&#45;&gt;Node2</title>
<path fill="none" stroke="midnightblue" d="M915.77,-224.21C915,-203.85 911.64,-152.16 897,-112 885.31,-79.93 863,-46.83 848.84,-27.61"/>
<polygon fill="midnightblue" stroke="midnightblue" points="851.61,-25.48 842.8,-19.59 846.02,-29.69 851.61,-25.48"/>
</g>
<!-- Node6&#45;&gt;Node3 -->
<g id="edge8" class="edge">
<title>Node6&#45;&gt;Node3</title>
<path fill="none" stroke="midnightblue" d="M877.38,-232.26C724.22,-228.42 162.71,-205.59 57,-76 36.62,-51.02 76.41,-32.96 112.71,-22.31"/>
<polygon fill="midnightblue" stroke="midnightblue" points="114.11,-25.55 122.8,-19.5 112.23,-18.81 114.11,-25.55"/>
</g>
<!-- Node6&#45;&gt;Node4 -->
<g id="edge9" class="edge">
<title>Node6&#45;&gt;Node4</title>
<path fill="none" stroke="midnightblue" d="M938.93,-224.41C985.11,-205.7 1088.4,-156.37 1129,-76 1136.42,-61.31 1131.76,-42.67 1126.22,-29.13"/>
<polygon fill="midnightblue" stroke="midnightblue" points="1129.35,-27.55 1122.01,-19.91 1122.99,-30.46 1129.35,-27.55"/>
</g>
<!-- Node6&#45;&gt;Node5 -->
<g id="edge13" class="edge">
<title>Node6&#45;&gt;Node5</title>
<path fill="none" stroke="midnightblue" d="M923.15,-224.08C944.45,-197.49 1007.71,-118.54 1035.57,-83.76"/>
<polygon fill="midnightblue" stroke="midnightblue" points="1038.61,-85.56 1042.14,-75.57 1033.15,-81.18 1038.61,-85.56"/>
</g>
<!-- Node7 -->
<g id="node7" class="node">
<title>Node7</title>
<g id="a_node7"><a xlink:href="2_dshape_8h.html" target="_top" xlink:title=" ">
<polygon fill="none" stroke="black" points="190,-56.5 190,-75.5 258,-75.5 258,-56.5 190,-56.5"/>
<text text-anchor="middle" x="224" y="-63.5" font-family="Helvetica,sans-Serif" font-size="10.00">2Dshape.h</text>
</a>
</g>
</g>
<!-- Node6&#45;&gt;Node7 -->
<g id="edge10" class="edge">
<title>Node6&#45;&gt;Node7</title>
<path fill="none" stroke="midnightblue" d="M877.47,-226.03C832.37,-217.7 755.51,-203.01 690,-188 531.39,-151.65 344.53,-100.61 264.11,-78.25"/>
<polygon fill="midnightblue" stroke="midnightblue" points="264.96,-74.85 254.38,-75.54 263.08,-81.59 264.96,-74.85"/>
</g>
<!-- Node8 -->
<g id="node8" class="node">
<title>Node8</title>
<g id="a_node8"><a xlink:href="math_helpers_8h.html" target="_top" xlink:title=" ">
<polygon fill="none" stroke="black" points="698.5,-168.5 698.5,-187.5 805.5,-187.5 805.5,-168.5 698.5,-168.5"/>
<text text-anchor="middle" x="752" y="-175.5" font-family="Helvetica,sans-Serif" font-size="10.00">../../mathHelpers.h</text>
</a>
</g>
</g>
<!-- Node6&#45;&gt;Node8 -->
<g id="edge14" class="edge">
<title>Node6&#45;&gt;Node8</title>
<path fill="none" stroke="midnightblue" d="M890.01,-224.44C862.3,-215.32 818.25,-200.81 787.38,-190.65"/>
<polygon fill="midnightblue" stroke="midnightblue" points="788.46,-187.32 777.86,-187.52 786.27,-193.97 788.46,-187.32"/>
</g>
<!-- Node7&#45;&gt;Node2 -->
<g id="edge11" class="edge">
<title>Node7&#45;&gt;Node2</title>
<path fill="none" stroke="midnightblue" d="M258.04,-57.61C261.39,-57.01 264.76,-56.46 268,-56 447.86,-30.58 661.95,-18.47 768.62,-13.66"/>
<polygon fill="midnightblue" stroke="midnightblue" points="769.07,-17.14 778.91,-13.2 768.76,-10.15 769.07,-17.14"/>
</g>
<!-- Node7&#45;&gt;Node3 -->
<g id="edge12" class="edge">
<title>Node7&#45;&gt;Node3</title>
<path fill="none" stroke="midnightblue" d="M214.04,-56.32C204.87,-48.34 191.06,-36.31 179.97,-26.65"/>
<polygon fill="midnightblue" stroke="midnightblue" points="181.98,-23.76 172.14,-19.83 177.38,-29.04 181.98,-23.76"/>
</g>
<!-- Node8&#45;&gt;Node2 -->
<g id="edge15" class="edge">
<title>Node8&#45;&gt;Node2</title>
<path fill="none" stroke="midnightblue" d="M763.51,-168.28C783.26,-152.48 822.84,-116.94 837,-76 842.14,-61.15 841.39,-43.23 839.64,-29.97"/>
<polygon fill="midnightblue" stroke="midnightblue" points="843.03,-29.01 837.97,-19.71 836.12,-30.14 843.03,-29.01"/>
</g>
<!-- Node8&#45;&gt;Node3 -->
<g id="edge18" class="edge">
<title>Node8&#45;&gt;Node3</title>
<path fill="none" stroke="midnightblue" d="M698.45,-174.63C571.39,-167.92 256.71,-144.63 181,-76 168.09,-64.3 163.76,-44.36 162.4,-29.64"/>
<polygon fill="midnightblue" stroke="midnightblue" points="165.9,-29.42 161.85,-19.63 158.91,-29.81 165.9,-29.42"/>
</g>
<!-- Node8&#45;&gt;Node9 -->
<g id="edge16" class="edge">
<title>Node8&#45;&gt;Node9</title>
<path fill="none" stroke="midnightblue" d="M769.99,-168.32C788.04,-159.62 816.05,-146.12 836.8,-136.11"/>
<polygon fill="midnightblue" stroke="midnightblue" points="838.56,-139.15 846.05,-131.65 835.52,-132.84 838.56,-139.15"/>
</g>
<!-- Node10 -->
<g id="node10" class="node">
<title>Node10</title>
<g id="a_node10"><a xlink:title=" ">
<polygon fill="none" stroke="#bfbfbf" points="276.5,-56.5 276.5,-75.5 345.5,-75.5 345.5,-56.5 276.5,-56.5"/>
<text text-anchor="middle" x="311" y="-63.5" font-family="Helvetica,sans-Serif" font-size="10.00">type_traits</text>
</a>
</g>
</g>
<!-- Node8&#45;&gt;Node10 -->
<g id="edge17" class="edge">
<title>Node8&#45;&gt;Node10</title>
<path fill="none" stroke="midnightblue" d="M713.44,-168.48C674.04,-159.68 611.13,-145.39 557,-132 484.54,-114.07 400.55,-91.49 351.83,-78.21"/>
<polygon fill="midnightblue" stroke="midnightblue" points="352.56,-74.78 341.99,-75.52 350.71,-81.53 352.56,-74.78"/>
</g>
<!-- Node11 -->
<g id="node11" class="node">
<title>Node11</title>
<g id="a_node11"><a xlink:title=" ">
<polygon fill="none" stroke="#bfbfbf" points="720,-112.5 720,-131.5 784,-131.5 784,-112.5 720,-112.5"/>
<text text-anchor="middle" x="752" y="-119.5" font-family="Helvetica,sans-Serif" font-size="10.00">algorithm</text>
</a>
</g>
</g>
<!-- Node8&#45;&gt;Node11 -->
<g id="edge19" class="edge">
<title>Node8&#45;&gt;Node11</title>
<path fill="none" stroke="midnightblue" d="M752,-168.08C752,-161.01 752,-150.86 752,-141.99"/>
<polygon fill="midnightblue" stroke="midnightblue" points="755.5,-141.75 752,-131.75 748.5,-141.75 755.5,-141.75"/>
</g>
<!-- Node12 -->
<g id="node12" class="node">
<title>Node12</title>
<g id="a_node12"><a xlink:href="limes__assert_8h.html" target="_top" xlink:title=" ">
<polygon fill="none" stroke="black" points="566,-112.5 566,-131.5 702,-131.5 702,-112.5 566,-112.5"/>
<text text-anchor="middle" x="634" y="-119.5" font-family="Helvetica,sans-Serif" font-size="10.00">../system/limes_assert.h</text>
</a>
</g>
</g>
<!-- Node8&#45;&gt;Node12 -->
<g id="edge20" class="edge">
<title>Node8&#45;&gt;Node12</title>
<path fill="none" stroke="midnightblue" d="M733.3,-168.44C714.06,-159.64 683.85,-145.81 661.8,-135.72"/>
<polygon fill="midnightblue" stroke="midnightblue" points="663.16,-132.5 652.61,-131.52 660.25,-138.86 663.16,-132.5"/>
</g>
<!-- Node12&#45;&gt;Node2 -->
<g id="edge22" class="edge">
<title>Node12&#45;&gt;Node2</title>
<path fill="none" stroke="midnightblue" d="M696.3,-112.44C742.26,-104.92 799.69,-92.58 817,-76 829.46,-64.07 833.88,-44.45 835.38,-29.89"/>
<polygon fill="midnightblue" stroke="midnightblue" points="838.9,-29.74 836.06,-19.53 831.91,-29.28 838.9,-29.74"/>
</g>
<!-- Node12&#45;&gt;Node3 -->
<g id="edge21" class="edge">
<title>Node12&#45;&gt;Node3</title>
<path fill="none" stroke="midnightblue" d="M565.94,-113.56C517.14,-106.95 450.36,-95.28 394,-76 375.57,-69.7 373.29,-62.71 355,-56 309.53,-39.33 255.72,-27.39 216.49,-20.01"/>
<polygon fill="midnightblue" stroke="midnightblue" points="217.05,-16.56 206.59,-18.19 215.79,-23.44 217.05,-16.56"/>
</g>
<!-- Node12&#45;&gt;Node4 -->
<g id="edge30" class="edge">
<title>Node12&#45;&gt;Node4</title>
<path fill="none" stroke="midnightblue" d="M672.94,-112.49C713.83,-103.52 779.97,-88.94 837,-76 919.47,-57.29 1015.44,-34.87 1070.91,-21.85"/>
<polygon fill="midnightblue" stroke="midnightblue" points="1071.85,-25.22 1080.78,-19.53 1070.25,-18.41 1071.85,-25.22"/>
</g>
<!-- Node12&#45;&gt;Node5 -->
<g id="edge23" class="edge">
<title>Node12&#45;&gt;Node5</title>
<path fill="none" stroke="midnightblue" d="M699.76,-112.44C774.13,-102.77 895.03,-87.04 973.28,-76.85"/>
<polygon fill="midnightblue" stroke="midnightblue" points="974.08,-80.28 983.55,-75.52 973.18,-73.34 974.08,-80.28"/>
</g>
<!-- Node12&#45;&gt;Node10 -->
<g id="edge24" class="edge">
<title>Node12&#45;&gt;Node10</title>
<path fill="none" stroke="midnightblue" d="M580.14,-112.46C524.85,-103.63 436.35,-89.28 360,-76 358.54,-75.75 357.05,-75.48 355.54,-75.22"/>
<polygon fill="midnightblue" stroke="midnightblue" points="355.98,-71.74 345.52,-73.42 354.75,-78.63 355.98,-71.74"/>
</g>
<!-- Node13 -->
<g id="node13" class="node">
<title>Node13</title>
<g id="a_node13"><a xlink:title=" ">
<polygon fill="none" stroke="#bfbfbf" points="616.5,-56.5 616.5,-75.5 661.5,-75.5 661.5,-56.5 616.5,-56.5"/>
<text text-anchor="middle" x="639" y="-63.5" font-family="Helvetica,sans-Serif" font-size="10.00">utility</text>
</a>
</g>
</g>
<!-- Node12&#45;&gt;Node13 -->
<g id="edge25" class="edge">
<title>Node12&#45;&gt;Node13</title>
<path fill="none" stroke="midnightblue" d="M634.83,-112.08C635.48,-105.01 636.42,-94.86 637.24,-85.99"/>
<polygon fill="midnightblue" stroke="midnightblue" points="640.75,-86.03 638.19,-75.75 633.78,-85.39 640.75,-86.03"/>
</g>
<!-- Node14 -->
<g id="node14" class="node">
<title>Node14</title>
<g id="a_node14"><a xlink:title=" ">
<polygon fill="none" stroke="#bfbfbf" points="402.5,-56.5 402.5,-75.5 511.5,-75.5 511.5,-56.5 402.5,-56.5"/>
<text text-anchor="middle" x="457" y="-63.5" font-family="Helvetica,sans-Serif" font-size="10.00">limes_build_type.h</text>
</a>
</g>
</g>
<!-- Node12&#45;&gt;Node14 -->
<g id="edge26" class="edge">
<title>Node12&#45;&gt;Node14</title>
<path fill="none" stroke="midnightblue" d="M605.95,-112.44C575.92,-103.28 528.09,-88.69 494.76,-78.52"/>
<polygon fill="midnightblue" stroke="midnightblue" points="495.5,-75.09 484.91,-75.52 493.46,-81.78 495.5,-75.09"/>
</g>
<!-- Node15 -->
<g id="node15" class="node">
<title>Node15</title>
<g id="a_node15"><a xlink:href="_ignore_unused_8h.html" target="_top" xlink:title=" ">
<polygon fill="none" stroke="black" points="680,-56.5 680,-75.5 808,-75.5 808,-56.5 680,-56.5"/>
<text text-anchor="middle" x="744" y="-63.5" font-family="Helvetica,sans-Serif" font-size="10.00">../misc/IgnoreUnused.h</text>
</a>
</g>
</g>
<!-- Node12&#45;&gt;Node15 -->
<g id="edge27" class="edge">
<title>Node12&#45;&gt;Node15</title>
<path fill="none" stroke="midnightblue" d="M651.67,-112.32C669.39,-103.62 696.9,-90.12 717.29,-80.11"/>
<polygon fill="midnightblue" stroke="midnightblue" points="718.94,-83.2 726.37,-75.65 715.85,-76.92 718.94,-83.2"/>
</g>
<!-- Node16 -->
<g id="node16" class="node">
<title>Node16</title>
<g id="a_node16"><a xlink:title=" ">
<polygon fill="none" stroke="#bfbfbf" points="530,-56.5 530,-75.5 598,-75.5 598,-56.5 530,-56.5"/>
<text text-anchor="middle" x="564" y="-63.5" font-family="Helvetica,sans-Serif" font-size="10.00">filesystem</text>
</a>
</g>
</g>
<!-- Node12&#45;&gt;Node16 -->
<g id="edge31" class="edge">
<title>Node12&#45;&gt;Node16</title>
<path fill="none" stroke="midnightblue" d="M622.75,-112.32C612.2,-104.18 596.2,-91.84 583.56,-82.09"/>
<polygon fill="midnightblue" stroke="midnightblue" points="585.51,-79.17 575.45,-75.83 581.23,-84.71 585.51,-79.17"/>
</g>
<!-- Node15&#45;&gt;Node2 -->
<g id="edge29" class="edge">
<title>Node15&#45;&gt;Node2</title>
<path fill="none" stroke="midnightblue" d="M758.78,-56.32C773.27,-47.82 795.57,-34.73 812.49,-24.8"/>
<polygon fill="midnightblue" stroke="midnightblue" points="814.4,-27.74 821.26,-19.65 810.86,-21.7 814.4,-27.74"/>
</g>
<!-- Node15&#45;&gt;Node3 -->
<g id="edge28" class="edge">
<title>Node15&#45;&gt;Node3</title>
<path fill="none" stroke="midnightblue" d="M679.92,-56.97C676.91,-56.64 673.92,-56.31 671,-56 505.82,-38.52 309.99,-22.54 216.7,-15.21"/>
<polygon fill="midnightblue" stroke="midnightblue" points="216.89,-11.72 206.65,-14.43 216.34,-18.7 216.89,-11.72"/>
</g>
<!-- Node17&#45;&gt;Node2 -->
<g id="edge33" class="edge">
<title>Node17&#45;&gt;Node2</title>
<path fill="none" stroke="midnightblue" d="M134.26,-60.87C148.67,-59.22 165.64,-57.38 181,-56 395.55,-36.72 650.3,-21.38 768.96,-14.67"/>
<polygon fill="midnightblue" stroke="midnightblue" points="769.2,-18.16 778.99,-14.11 768.81,-11.18 769.2,-18.16"/>
</g>
<!-- Node17&#45;&gt;Node3 -->
<g id="edge34" class="edge">
<title>Node17&#45;&gt;Node3</title>
<path fill="none" stroke="midnightblue" d="M109.96,-56.32C119.13,-48.34 132.94,-36.31 144.03,-26.65"/>
<polygon fill="midnightblue" stroke="midnightblue" points="146.62,-29.04 151.86,-19.83 142.02,-23.76 146.62,-29.04"/>
</g>
</g>
</svg>
        <g id="navigator" transform="translate(0 0)" fill="#404254">
                <rect fill="#f2f5e9" fill-opacity="0.5" stroke="#606060" stroke-width=".5" x="0" y="0" width="60" height="60"/>
                <use id="zoomplus" xlink:href="#zoomPlus" x="17" y="9" onmousedown="handleZoom(evt,'in')"/>
                <use id="zoomminus" xlink:href="#zoomMin" x="42" y="9" onmousedown="handleZoom(evt,'out')"/>
                <use id="reset" xlink:href="#resetDef" x="30" y="36" onmousedown="handleReset()"/>
                <g id="arrowUp" xlink:href="#dirArrow" transform="translate(30 24)" onmousedown="handlePan(0,-1)">
                  <use xlink:href="#rim" fill="#404040">
                        <set attributeName="fill" to="#808080" begin="arrowUp.mouseover" end="arrowUp.mouseout"/>
                  </use>
                  <path fill="none" stroke="white" stroke-width="1.5" d="M0,-3.0v7 M-2.5,-0.5L0,-3.0L2.5,-0.5"/>
                </g>
                <g id="arrowRight" xlink:href="#dirArrow" transform="rotate(90) translate(36 -43)" onmousedown="handlePan(1,0)">
                  <use xlink:href="#rim" fill="#404040">
                        <set attributeName="fill" to="#808080" begin="arrowRight.mouseover" end="arrowRight.mouseout"/>
                  </use>
                  <path fill="none" stroke="white" stroke-width="1.5" d="M0,-3.0v7 M-2.5,-0.5L0,-3.0L2.5,-0.5"/>
                </g>
                <g id="arrowDown" xlink:href="#dirArrow" transform="rotate(180) translate(-30 -48)" onmousedown="handlePan(0,1)">
                  <use xlink:href="#rim" fill="#404040">
                        <set attributeName="fill" to="#808080" begin="arrowDown.mouseover" end="arrowDown.mouseout"/>
                  </use>
                  <path fill="none" stroke="white" stroke-width="1.5" d="M0,-3.0v7 M-2.5,-0.5L0,-3.0L2.5,-0.5"/>
                </g>
                <g id="arrowLeft" xlink:href="#dirArrow" transform="rotate(270) translate(-36 17)" onmousedown="handlePan(-1,0)">
                  <use xlink:href="#rim" fill="#404040">
                        <set attributeName="fill" to="#808080" begin="arrowLeft.mouseover" end="arrowLeft.mouseout"/>
                  </use>
                  <path fill="none" stroke="white" stroke-width="1.5" d="M0,-3.0v7 M-2.5,-0.5L0,-3.0L2.5,-0.5"/>
                </g>
        </g>
        <svg viewBox="0 0 15 15" width="100%" height="30px" preserveAspectRatio="xMaxYMin meet">
         <g id="arrow_out" transform="scale(0.3 0.3)">
          <a xlink:href="cone_8h__incl_org.svg" target="_base">
           <rect id="button" ry="5" rx="5" y="6" x="6" height="38" width="38"
                fill="#f2f5e9" fill-opacity="0.5" stroke="#606060" stroke-width="1.0"/>
           <path id="arrow"
             d="M 11.500037,31.436501 C 11.940474,20.09759 22.043105,11.32322 32.158766,21.979434 L 37.068811,17.246167 C 37.068811,17.246167 37.088388,32 37.088388,32 L 22.160133,31.978069 C 22.160133,31.978069 26.997745,27.140456 26.997745,27.140456 C 18.528582,18.264221 13.291696,25.230495 11.500037,31.436501 z"
             style="fill:#404040;"/>
          </a>
         </g>
        </svg>
</svg>
