<?xml version="1.0" encoding="UTF-8" standalone="no"?>
<!DOCTYPE svg PUBLIC "-//W3C//DTD SVG 1.1//EN"
 "http://www.w3.org/Graphics/SVG/1.1/DTD/svg11.dtd">
<!-- Generated by graphviz version 2.43.0 (0)
 -->
<!-- Title: cone.h Pages: 1 -->
<!--zoomable 319 -->
<svg id="main" version="1.1" xmlns="http://www.w3.org/2000/svg" xmlns:xlink="http://www.w3.org/1999/xlink" xml:space="preserve" onload="init(evt)">
<style type="text/css"><![CDATA[
.edge:hover path { stroke: red; }
.edge:hover polygon { stroke: red; fill: red; }
]]></style>
<script type="text/javascript"><![CDATA[
var edges = document.getElementsByTagName('g');
if (edges && edges.length) {
  for (var i=0;i<edges.length;i++) {
    if (edges[i].id.substr(0,4)=='edge') {
      edges[i].setAttribute('class','edge');
    }
  }
}
]]></script>
        <defs>
                <circle id="rim" cx="0" cy="0" r="7"/>
                <circle id="rim2" cx="0" cy="0" r="3.5"/>
                <g id="zoomPlus">
                        <use xlink:href="#rim" fill="#404040">
                                <set attributeName="fill" to="#808080" begin="zoomplus.mouseover" end="zoomplus.mouseout"/>
                        </use>
                        <path d="M-4,0h8M0,-4v8" fill="none" stroke="white" stroke-width="1.5" pointer-events="none"/>
                </g>
                <g id="zoomMin">
                        <use xlink:href="#rim" fill="#404040">
                                <set attributeName="fill" to="#808080" begin="zoomminus.mouseover" end="zoomminus.mouseout"/>
                        </use>
                        <path d="M-4,0h8" fill="none" stroke="white" stroke-width="1.5" pointer-events="none"/>
                </g>
                <g id="dirArrow">
                        <path fill="none" stroke="white" stroke-width="1.5" d="M0,-3.0v7 M-2.5,-0.5L0,-3.0L2.5,-0.5"/>
                </g>
               <g id="resetDef">
                       <use xlink:href="#rim2" fill="#404040">
                               <set attributeName="fill" to="#808080" begin="reset.mouseover" end="reset.mouseout"/>
                       </use>
               </g>
        </defs>

<script type="text/javascript">
var viewWidth = 1146;
var viewHeight = 319;
var sectionId = 'dynsection-0';
</script>
<script xlink:href="svgpan.js"/>
<svg id="graph" class="graph">
<g id="viewport">
<title>cone.h</title>
<!-- Node1 -->
<g id="node1" class="node">
<title>Node1</title>
<g id="a_node1"><a xlink:title=" ">
<polygon fill="#bfbfbf" stroke="black" points="366.5,-291.5 366.5,-310.5 415.5,-310.5 415.5,-291.5 366.5,-291.5"/>
<text text-anchor="middle" x="391" y="-298.5" font-family="Helvetica,sans-Serif" font-size="10.00">cone.h</text>
</a>
</g>
</g>
<!-- Node2 -->
<g id="node2" class="node">
<title>Node2</title>
<g id="a_node2"><a xlink:href="limes__namespace_8h.html" target="_top" xlink:title=" ">
<polygon fill="none" stroke="black" points="461,-0.5 461,-19.5 575,-19.5 575,-0.5 461,-0.5"/>
<text text-anchor="middle" x="518" y="-7.5" font-family="Helvetica,sans-Serif" font-size="10.00">limes_namespace.h</text>
</a>
</g>
</g>
<!-- Node1&#45;&gt;Node2 -->
<g id="edge1" class="edge">
<title>Node1&#45;&gt;Node2</title>
<path fill="none" stroke="midnightblue" d="M376.67,-291.31C365.18,-283.44 349.88,-270.69 343,-255 307.47,-173.98 290.37,-123.13 348,-56 361.59,-40.16 409.16,-28.41 450.53,-20.89"/>
<polygon fill="midnightblue" stroke="midnightblue" points="451.37,-24.3 460.62,-19.12 450.16,-17.4 451.37,-24.3"/>
</g>
<!-- Node3 -->
<g id="node3" class="node">
<title>Node3</title>
<g id="a_node3"><a xlink:title=" ">
<polygon fill="none" stroke="#bfbfbf" points="907.5,-0.5 907.5,-19.5 996.5,-19.5 996.5,-0.5 907.5,-0.5"/>
<text text-anchor="middle" x="952" y="-7.5" font-family="Helvetica,sans-Serif" font-size="10.00">limes_export.h</text>
</a>
</g>
</g>
<!-- Node1&#45;&gt;Node3 -->
<g id="edge2" class="edge">
<title>Node1&#45;&gt;Node3</title>
<path fill="none" stroke="midnightblue" d="M415.85,-299.02C545.47,-293.6 1138,-264.72 1138,-190 1138,-190 1138,-190 1138,-126.5 1138,-90.47 1126.08,-78.56 1098,-56 1072.01,-35.12 1036.35,-23.9 1006.78,-17.88"/>
<polygon fill="midnightblue" stroke="midnightblue" points="1007.08,-14.37 996.6,-15.96 1005.78,-21.25 1007.08,-14.37"/>
</g>
<!-- Node4 -->
<g id="node4" class="node">
<title>Node4</title>
<g id="a_node4"><a xlink:title=" ">
<polygon fill="none" stroke="#bfbfbf" points="87,-0.5 87,-19.5 187,-19.5 187,-0.5 87,-0.5"/>
<text text-anchor="middle" x="137" y="-7.5" font-family="Helvetica,sans-Serif" font-size="10.00">limes_platform.h</text>
</a>
</g>
</g>
<!-- Node1&#45;&gt;Node4 -->
<g id="edge3" class="edge">
<title>Node1&#45;&gt;Node4</title>
<path fill="none" stroke="midnightblue" d="M366.48,-300.48C313.09,-300.68 183.2,-296.45 85,-255 41.19,-236.51 0,-237.56 0,-190 0,-190 0,-190 0,-126.5 0,-73.36 60.99,-39.72 101.58,-23.21"/>
<polygon fill="midnightblue" stroke="midnightblue" points="102.87,-26.46 110.91,-19.56 100.32,-19.94 102.87,-26.46"/>
</g>
<!-- Node5 -->
<g id="node5" class="node">
<title>Node5</title>
<g id="a_node5"><a xlink:href="preprocessor_8h.html" target="_top" xlink:title=" ">
<polygon fill="none" stroke="black" points="66.5,-56.5 66.5,-75.5 207.5,-75.5 207.5,-56.5 66.5,-56.5"/>
<text text-anchor="middle" x="137" y="-63.5" font-family="Helvetica,sans-Serif" font-size="10.00">../../../misc/preprocessor.h</text>
</a>
</g>
</g>
<!-- Node1&#45;&gt;Node5 -->
<g id="edge4" class="edge">
<title>Node1&#45;&gt;Node5</title>
<path fill="none" stroke="midnightblue" d="M366.42,-300.1C302.63,-299.78 134.35,-295.07 100,-255 57.27,-205.16 102.42,-120.43 125.34,-84.23"/>
<polygon fill="midnightblue" stroke="midnightblue" points="128.34,-86.03 130.87,-75.74 122.48,-82.21 128.34,-86.03"/>
</g>
<!-- Node6 -->
<g id="node6" class="node">
<title>Node6</title>
<g id="a_node6"><a xlink:href="circle_8h.html" target="_top" xlink:title=" ">
<polygon fill="none" stroke="black" points="352.5,-235.5 352.5,-254.5 429.5,-254.5 429.5,-235.5 352.5,-235.5"/>
<text text-anchor="middle" x="391" y="-242.5" font-family="Helvetica,sans-Serif" font-size="10.00">../2D/circle.h</text>
</a>
</g>
</g>
<!-- Node1&#45;&gt;Node6 -->
<g id="edge6" class="edge">
<title>Node1&#45;&gt;Node6</title>
<path fill="none" stroke="midnightblue" d="M391,-291.08C391,-284.01 391,-273.86 391,-264.99"/>
<polygon fill="midnightblue" stroke="midnightblue" points="394.5,-264.75 391,-254.75 387.5,-264.75 394.5,-264.75"/>
</g>
<!-- Node9 -->
<g id="node9" class="node">
<title>Node9</title>
<g id="a_node9"><a xlink:title=" ">
<polygon fill="none" stroke="#bfbfbf" points="876.5,-118 876.5,-137 923.5,-137 923.5,-118 876.5,-118"/>
<text text-anchor="middle" x="900" y="-125" font-family="Helvetica,sans-Serif" font-size="10.00">cmath</text>
</a>
</g>
</g>
<!-- Node1&#45;&gt;Node9 -->
<g id="edge37" class="edge">
<title>Node1&#45;&gt;Node9</title>
<path fill="none" stroke="midnightblue" d="M415.55,-291.73C498.9,-263.65 771.14,-171.92 866.58,-139.76"/>
<polygon fill="midnightblue" stroke="midnightblue" points="867.93,-143 876.29,-136.49 865.69,-136.37 867.93,-143"/>
</g>
<!-- Node17 -->
<g id="node17" class="node">
<title>Node17</title>
<g id="a_node17"><a xlink:href="3_dshape_8h.html" target="_top" xlink:title=" ">
<polygon fill="none" stroke="black" points="1004,-56.5 1004,-75.5 1072,-75.5 1072,-56.5 1004,-56.5"/>
<text text-anchor="middle" x="1038" y="-63.5" font-family="Helvetica,sans-Serif" font-size="10.00">3Dshape.h</text>
</a>
</g>
</g>
<!-- Node1&#45;&gt;Node17 -->
<g id="edge34" class="edge">
<title>Node1&#45;&gt;Node17</title>
<path fill="none" stroke="midnightblue" d="M415.96,-296.52C485.02,-286.43 683.92,-254.33 841,-199 894.24,-180.24 908.38,-174.83 955,-143 981.07,-125.2 1007.29,-99.6 1023.09,-83.13"/>
<polygon fill="midnightblue" stroke="midnightblue" points="1025.64,-85.53 1029.96,-75.85 1020.55,-80.72 1025.64,-85.53"/>
</g>
<!-- Node5&#45;&gt;Node4 -->
<g id="edge5" class="edge">
<title>Node5&#45;&gt;Node4</title>
<path fill="none" stroke="midnightblue" d="M137,-56.08C137,-49.01 137,-38.86 137,-29.99"/>
<polygon fill="midnightblue" stroke="midnightblue" points="140.5,-29.75 137,-19.75 133.5,-29.75 140.5,-29.75"/>
</g>
<!-- Node6&#45;&gt;Node2 -->
<g id="edge7" class="edge">
<title>Node6&#45;&gt;Node2</title>
<path fill="none" stroke="midnightblue" d="M385.72,-235.44C368.78,-206.78 319.31,-112.74 362,-56 373.43,-40.8 416.16,-29.12 454.01,-21.48"/>
<polygon fill="midnightblue" stroke="midnightblue" points="454.87,-24.87 464.01,-19.52 453.53,-18 454.87,-24.87"/>
</g>
<!-- Node6&#45;&gt;Node3 -->
<g id="edge8" class="edge">
<title>Node6&#45;&gt;Node3</title>
<path fill="none" stroke="midnightblue" d="M429.79,-244.71C508.8,-245.16 693.4,-241.14 841,-199 895.28,-183.5 904.74,-168.7 955,-143 1011.47,-114.13 1048.33,-130.37 1081,-76 1100.89,-42.89 1050.17,-26.1 1006.59,-17.97"/>
<polygon fill="midnightblue" stroke="midnightblue" points="1007.02,-14.49 996.57,-16.22 1005.82,-21.39 1007.02,-14.49"/>
</g>
<!-- Node6&#45;&gt;Node4 -->
<g id="edge9" class="edge">
<title>Node6&#45;&gt;Node4</title>
<path fill="none" stroke="midnightblue" d="M352.18,-243.62C305.14,-241.56 224.89,-232.84 166,-199 102.67,-162.61 82.91,-144.29 57,-76 53.85,-67.69 52.51,-63.67 57,-56 65.86,-40.85 81.91,-30.41 97.31,-23.42"/>
<polygon fill="midnightblue" stroke="midnightblue" points="98.85,-26.57 106.75,-19.51 96.17,-20.11 98.85,-26.57"/>
</g>
<!-- Node6&#45;&gt;Node5 -->
<g id="edge13" class="edge">
<title>Node6&#45;&gt;Node5</title>
<path fill="none" stroke="midnightblue" d="M352.13,-241.78C293.14,-236.08 182.62,-215.71 133,-143 121.51,-126.17 125.32,-102.04 130.16,-85.51"/>
<polygon fill="midnightblue" stroke="midnightblue" points="133.52,-86.49 133.34,-75.9 126.88,-84.29 133.52,-86.49"/>
</g>
<!-- Node7 -->
<g id="node7" class="node">
<title>Node7</title>
<g id="a_node7"><a xlink:href="2_dshape_8h.html" target="_top" xlink:title=" ">
<polygon fill="none" stroke="black" points="918,-56.5 918,-75.5 986,-75.5 986,-56.5 918,-56.5"/>
<text text-anchor="middle" x="952" y="-63.5" font-family="Helvetica,sans-Serif" font-size="10.00">2Dshape.h</text>
</a>
</g>
</g>
<!-- Node6&#45;&gt;Node7 -->
<g id="edge10" class="edge">
<title>Node6&#45;&gt;Node7</title>
<path fill="none" stroke="midnightblue" d="M429.61,-242.03C540.79,-235.57 858.44,-211.39 932,-143 947.74,-128.37 951.68,-102.97 952.39,-85.6"/>
<polygon fill="midnightblue" stroke="midnightblue" points="955.89,-85.56 952.47,-75.53 948.89,-85.5 955.89,-85.56"/>
</g>
<!-- Node8 -->
<g id="node8" class="node">
<title>Node8</title>
<g id="a_node8"><a xlink:href="math_helpers_8h.html" target="_top" xlink:title=" ">
<polygon fill="none" stroke="black" points="412.5,-179.5 412.5,-198.5 519.5,-198.5 519.5,-179.5 412.5,-179.5"/>
<text text-anchor="middle" x="466" y="-186.5" font-family="Helvetica,sans-Serif" font-size="10.00">../../mathHelpers.h</text>
</a>
</g>
</g>
<!-- Node6&#45;&gt;Node8 -->
<g id="edge14" class="edge">
<title>Node6&#45;&gt;Node8</title>
<path fill="none" stroke="midnightblue" d="M403.05,-235.32C414.46,-227.11 431.83,-214.6 445.43,-204.81"/>
<polygon fill="midnightblue" stroke="midnightblue" points="447.66,-207.52 453.73,-198.83 443.57,-201.84 447.66,-207.52"/>
</g>
<!-- Node7&#45;&gt;Node2 -->
<g id="edge11" class="edge">
<title>Node7&#45;&gt;Node2</title>
<path fill="none" stroke="midnightblue" d="M917.94,-60.76C846.32,-51.85 678.96,-31.03 585.02,-19.34"/>
<polygon fill="midnightblue" stroke="midnightblue" points="585.41,-15.86 575.05,-18.1 584.54,-22.81 585.41,-15.86"/>
</g>
<!-- Node7&#45;&gt;Node3 -->
<g id="edge12" class="edge">
<title>Node7&#45;&gt;Node3</title>
<path fill="none" stroke="midnightblue" d="M952,-56.08C952,-49.01 952,-38.86 952,-29.99"/>
<polygon fill="midnightblue" stroke="midnightblue" points="955.5,-29.75 952,-19.75 948.5,-29.75 955.5,-29.75"/>
</g>
<!-- Node8&#45;&gt;Node2 -->
<g id="edge15" class="edge">
<title>Node8&#45;&gt;Node2</title>
<path fill="none" stroke="midnightblue" d="M451.6,-179.42C417.89,-158.25 339.16,-101.93 373,-56 390.97,-31.61 422.04,-20.05 450.82,-14.71"/>
<polygon fill="midnightblue" stroke="midnightblue" points="451.57,-18.14 460.87,-13.08 450.44,-11.23 451.57,-18.14"/>
</g>
<!-- Node8&#45;&gt;Node3 -->
<g id="edge18" class="edge">
<title>Node8&#45;&gt;Node3</title>
<path fill="none" stroke="midnightblue" d="M519.6,-180.87C599.48,-168.58 752.69,-138.45 868,-76 893.41,-62.24 919.18,-40.97 935.35,-26.54"/>
<polygon fill="midnightblue" stroke="midnightblue" points="937.84,-29.02 942.88,-19.7 933.13,-23.84 937.84,-29.02"/>
</g>
<!-- Node8&#45;&gt;Node9 -->
<g id="edge16" class="edge">
<title>Node8&#45;&gt;Node9</title>
<path fill="none" stroke="midnightblue" d="M519.59,-186.17C596.41,-182.6 741.83,-172.26 862,-143 864.83,-142.31 867.73,-141.47 870.62,-140.54"/>
<polygon fill="midnightblue" stroke="midnightblue" points="871.93,-143.78 880.18,-137.14 869.59,-137.19 871.93,-143.78"/>
</g>
<!-- Node10 -->
<g id="node10" class="node">
<title>Node10</title>
<g id="a_node10"><a xlink:title=" ">
<polygon fill="none" stroke="#bfbfbf" points="382.5,-56.5 382.5,-75.5 451.5,-75.5 451.5,-56.5 382.5,-56.5"/>
<text text-anchor="middle" x="417" y="-63.5" font-family="Helvetica,sans-Serif" font-size="10.00">type_traits</text>
</a>
</g>
</g>
<!-- Node8&#45;&gt;Node10 -->
<g id="edge17" class="edge">
<title>Node8&#45;&gt;Node10</title>
<path fill="none" stroke="midnightblue" d="M459.91,-179.4C453.92,-170.6 444.83,-156.36 439,-143 430.78,-124.15 424.66,-101.37 420.98,-85.69"/>
<polygon fill="midnightblue" stroke="midnightblue" points="424.34,-84.68 418.75,-75.69 417.51,-86.21 424.34,-84.68"/>
</g>
<!-- Node11 -->
<g id="node11" class="node">
<title>Node11</title>
<g id="a_node11"><a xlink:title=" ">
<polygon fill="none" stroke="#bfbfbf" points="602,-118 602,-137 666,-137 666,-118 602,-118"/>
<text text-anchor="middle" x="634" y="-125" font-family="Helvetica,sans-Serif" font-size="10.00">algorithm</text>
</a>
</g>
</g>
<!-- Node8&#45;&gt;Node11 -->
<g id="edge19" class="edge">
<title>Node8&#45;&gt;Node11</title>
<path fill="none" stroke="midnightblue" d="M490.07,-179.48C519.01,-169.22 567.76,-151.96 600.4,-140.4"/>
<polygon fill="midnightblue" stroke="midnightblue" points="601.72,-143.65 609.97,-137.01 599.38,-137.05 601.72,-143.65"/>
</g>
<!-- Node12 -->
<g id="node12" class="node">
<title>Node12</title>
<g id="a_node12"><a xlink:href="limes__assert_8h.html" target="_top" xlink:title=" ">
<polygon fill="none" stroke="black" points="448,-118 448,-137 584,-137 584,-118 448,-118"/>
<text text-anchor="middle" x="516" y="-125" font-family="Helvetica,sans-Serif" font-size="10.00">../system/limes_assert.h</text>
</a>
</g>
</g>
<!-- Node8&#45;&gt;Node12 -->
<g id="edge20" class="edge">
<title>Node8&#45;&gt;Node12</title>
<path fill="none" stroke="midnightblue" d="M473.16,-179.48C480.74,-170.46 492.87,-156.02 502.29,-144.81"/>
<polygon fill="midnightblue" stroke="midnightblue" points="505.1,-146.92 508.85,-137.01 499.74,-142.41 505.1,-146.92"/>
</g>
<!-- Node16 -->
<g id="node16" class="node">
<title>Node16</title>
<g id="a_node16"><a xlink:href="compiler__defs_8h.html" target="_top" xlink:title=" ">
<polygon fill="none" stroke="black" points="142.5,-112.5 142.5,-142.5 249.5,-142.5 249.5,-112.5 142.5,-112.5"/>
<text text-anchor="start" x="150.5" y="-130.5" font-family="Helvetica,sans-Serif" font-size="10.00">../system/compiler</text>
<text text-anchor="middle" x="196" y="-119.5" font-family="Helvetica,sans-Serif" font-size="10.00">_defs.h</text>
</a>
</g>
</g>
<!-- Node8&#45;&gt;Node16 -->
<g id="edge31" class="edge">
<title>Node8&#45;&gt;Node16</title>
<path fill="none" stroke="midnightblue" d="M427.32,-179.48C383.48,-169.82 311.37,-153.93 259.31,-142.45"/>
<polygon fill="midnightblue" stroke="midnightblue" points="260.02,-139.02 249.5,-140.29 258.52,-145.86 260.02,-139.02"/>
</g>
<!-- Node12&#45;&gt;Node2 -->
<g id="edge22" class="edge">
<title>Node12&#45;&gt;Node2</title>
<path fill="none" stroke="midnightblue" d="M516.15,-117.82C516.47,-99.26 517.23,-55.34 517.67,-29.97"/>
<polygon fill="midnightblue" stroke="midnightblue" points="521.17,-29.84 517.85,-19.78 514.18,-29.72 521.17,-29.84"/>
</g>
<!-- Node12&#45;&gt;Node3 -->
<g id="edge21" class="edge">
<title>Node12&#45;&gt;Node3</title>
<path fill="none" stroke="midnightblue" d="M559.93,-117.94C570.73,-115.91 582.27,-113.81 593,-112 699.35,-94.02 730.77,-110.38 833,-76 852.43,-69.47 900.5,-41.74 929.24,-24.68"/>
<polygon fill="midnightblue" stroke="midnightblue" points="931.04,-27.68 937.84,-19.56 927.46,-21.67 931.04,-27.68"/>
</g>
<!-- Node12&#45;&gt;Node4 -->
<g id="edge29" class="edge">
<title>Node12&#45;&gt;Node4</title>
<path fill="none" stroke="midnightblue" d="M511.89,-117.8C504.14,-102.43 485.79,-70.73 460,-56 416.39,-31.09 278.1,-19.09 197.3,-14.08"/>
<polygon fill="midnightblue" stroke="midnightblue" points="197.45,-10.58 187.26,-13.47 197.03,-17.57 197.45,-10.58"/>
</g>
<!-- Node12&#45;&gt;Node5 -->
<g id="edge23" class="edge">
<title>Node12&#45;&gt;Node5</title>
<path fill="none" stroke="midnightblue" d="M461.7,-117.98C392.89,-107.17 274.45,-88.58 201.22,-77.08"/>
<polygon fill="midnightblue" stroke="midnightblue" points="201.62,-73.6 191.2,-75.51 200.54,-80.52 201.62,-73.6"/>
</g>
<!-- Node12&#45;&gt;Node10 -->
<g id="edge24" class="edge">
<title>Node12&#45;&gt;Node10</title>
<path fill="none" stroke="midnightblue" d="M501.82,-117.98C485.64,-108.25 458.97,-92.23 439.86,-80.74"/>
<polygon fill="midnightblue" stroke="midnightblue" points="441.53,-77.66 431.16,-75.51 437.93,-83.66 441.53,-77.66"/>
</g>
<!-- Node13 -->
<g id="node13" class="node">
<title>Node13</title>
<g id="a_node13"><a xlink:title=" ">
<polygon fill="none" stroke="#bfbfbf" points="546.5,-56.5 546.5,-75.5 591.5,-75.5 591.5,-56.5 546.5,-56.5"/>
<text text-anchor="middle" x="569" y="-63.5" font-family="Helvetica,sans-Serif" font-size="10.00">utility</text>
</a>
</g>
</g>
<!-- Node12&#45;&gt;Node13 -->
<g id="edge25" class="edge">
<title>Node12&#45;&gt;Node13</title>
<path fill="none" stroke="midnightblue" d="M523.59,-117.98C531.7,-108.87 544.73,-94.24 554.76,-82.98"/>
<polygon fill="midnightblue" stroke="midnightblue" points="557.38,-85.3 561.42,-75.51 552.16,-80.65 557.38,-85.3"/>
</g>
<!-- Node14 -->
<g id="node14" class="node">
<title>Node14</title>
<g id="a_node14"><a xlink:href="_ignore_unused_8h.html" target="_top" xlink:title=" ">
<polygon fill="none" stroke="black" points="696,-56.5 696,-75.5 824,-75.5 824,-56.5 696,-56.5"/>
<text text-anchor="middle" x="760" y="-63.5" font-family="Helvetica,sans-Serif" font-size="10.00">../misc/IgnoreUnused.h</text>
</a>
</g>
</g>
<!-- Node12&#45;&gt;Node14 -->
<g id="edge26" class="edge">
<title>Node12&#45;&gt;Node14</title>
<path fill="none" stroke="midnightblue" d="M550.96,-117.98C594.17,-107.44 667.79,-89.49 715.13,-77.94"/>
<polygon fill="midnightblue" stroke="midnightblue" points="716.22,-81.28 725.11,-75.51 714.56,-74.48 716.22,-81.28"/>
</g>
<!-- Node15 -->
<g id="node15" class="node">
<title>Node15</title>
<g id="a_node15"><a xlink:title=" ">
<polygon fill="none" stroke="#bfbfbf" points="610,-56.5 610,-75.5 678,-75.5 678,-56.5 610,-56.5"/>
<text text-anchor="middle" x="644" y="-63.5" font-family="Helvetica,sans-Serif" font-size="10.00">filesystem</text>
</a>
</g>
</g>
<!-- Node12&#45;&gt;Node15 -->
<g id="edge30" class="edge">
<title>Node12&#45;&gt;Node15</title>
<path fill="none" stroke="midnightblue" d="M534.34,-117.98C555.82,-107.99 591.62,-91.35 616.45,-79.81"/>
<polygon fill="midnightblue" stroke="midnightblue" points="618.1,-82.9 625.69,-75.51 615.15,-76.55 618.1,-82.9"/>
</g>
<!-- Node14&#45;&gt;Node2 -->
<g id="edge28" class="edge">
<title>Node14&#45;&gt;Node2</title>
<path fill="none" stroke="midnightblue" d="M721.65,-56.44C679.53,-47.04 611.79,-31.93 566.13,-21.74"/>
<polygon fill="midnightblue" stroke="midnightblue" points="566.69,-18.28 556.17,-19.52 565.16,-25.11 566.69,-18.28"/>
</g>
<!-- Node14&#45;&gt;Node3 -->
<g id="edge27" class="edge">
<title>Node14&#45;&gt;Node3</title>
<path fill="none" stroke="midnightblue" d="M790.42,-56.44C823.28,-47.2 875.78,-32.44 911.97,-22.26"/>
<polygon fill="midnightblue" stroke="midnightblue" points="913.04,-25.59 921.72,-19.52 911.15,-18.85 913.04,-25.59"/>
</g>
<!-- Node16&#45;&gt;Node4 -->
<g id="edge32" class="edge">
<title>Node16&#45;&gt;Node4</title>
<path fill="none" stroke="midnightblue" d="M206.13,-112.45C215.46,-97.61 226.42,-73.93 216,-56 207.26,-40.97 191.42,-30.54 176.21,-23.54"/>
<polygon fill="midnightblue" stroke="midnightblue" points="177.46,-20.27 166.88,-19.61 174.74,-26.72 177.46,-20.27"/>
</g>
<!-- Node16&#45;&gt;Node5 -->
<g id="edge33" class="edge">
<title>Node16&#45;&gt;Node5</title>
<path fill="none" stroke="midnightblue" d="M182.02,-112.4C173.27,-103.58 161.97,-92.18 152.88,-83.02"/>
<polygon fill="midnightblue" stroke="midnightblue" points="155.11,-80.29 145.59,-75.66 150.14,-85.22 155.11,-80.29"/>
</g>
<!-- Node17&#45;&gt;Node2 -->
<g id="edge35" class="edge">
<title>Node17&#45;&gt;Node2</title>
<path fill="none" stroke="midnightblue" d="M1003.8,-57.48C1000.83,-56.94 997.87,-56.43 995,-56 849.73,-34.02 677.85,-20.95 585.23,-14.96"/>
<polygon fill="midnightblue" stroke="midnightblue" points="585.36,-11.46 575.16,-14.31 584.91,-18.44 585.36,-11.46"/>
</g>
<!-- Node17&#45;&gt;Node3 -->
<g id="edge36" class="edge">
<title>Node17&#45;&gt;Node3</title>
<path fill="none" stroke="midnightblue" d="M1024.18,-56.32C1010.77,-47.9 990.18,-34.97 974.41,-25.07"/>
<polygon fill="midnightblue" stroke="midnightblue" points="976.11,-22.01 965.78,-19.65 972.39,-27.94 976.11,-22.01"/>
</g>
</g>
</svg>
        <g id="navigator" transform="translate(0 0)" fill="#404254">
                <rect fill="#f2f5e9" fill-opacity="0.5" stroke="#606060" stroke-width=".5" x="0" y="0" width="60" height="60"/>
                <use id="zoomplus" xlink:href="#zoomPlus" x="17" y="9" onmousedown="handleZoom(evt,'in')"/>
                <use id="zoomminus" xlink:href="#zoomMin" x="42" y="9" onmousedown="handleZoom(evt,'out')"/>
                <use id="reset" xlink:href="#resetDef" x="30" y="36" onmousedown="handleReset()"/>
                <g id="arrowUp" xlink:href="#dirArrow" transform="translate(30 24)" onmousedown="handlePan(0,-1)">
                  <use xlink:href="#rim" fill="#404040">
                        <set attributeName="fill" to="#808080" begin="arrowUp.mouseover" end="arrowUp.mouseout"/>
                  </use>
                  <path fill="none" stroke="white" stroke-width="1.5" d="M0,-3.0v7 M-2.5,-0.5L0,-3.0L2.5,-0.5"/>
                </g>
                <g id="arrowRight" xlink:href="#dirArrow" transform="rotate(90) translate(36 -43)" onmousedown="handlePan(1,0)">
                  <use xlink:href="#rim" fill="#404040">
                        <set attributeName="fill" to="#808080" begin="arrowRight.mouseover" end="arrowRight.mouseout"/>
                  </use>
                  <path fill="none" stroke="white" stroke-width="1.5" d="M0,-3.0v7 M-2.5,-0.5L0,-3.0L2.5,-0.5"/>
                </g>
                <g id="arrowDown" xlink:href="#dirArrow" transform="rotate(180) translate(-30 -48)" onmousedown="handlePan(0,1)">
                  <use xlink:href="#rim" fill="#404040">
                        <set attributeName="fill" to="#808080" begin="arrowDown.mouseover" end="arrowDown.mouseout"/>
                  </use>
                  <path fill="none" stroke="white" stroke-width="1.5" d="M0,-3.0v7 M-2.5,-0.5L0,-3.0L2.5,-0.5"/>
                </g>
                <g id="arrowLeft" xlink:href="#dirArrow" transform="rotate(270) translate(-36 17)" onmousedown="handlePan(-1,0)">
                  <use xlink:href="#rim" fill="#404040">
                        <set attributeName="fill" to="#808080" begin="arrowLeft.mouseover" end="arrowLeft.mouseout"/>
                  </use>
                  <path fill="none" stroke="white" stroke-width="1.5" d="M0,-3.0v7 M-2.5,-0.5L0,-3.0L2.5,-0.5"/>
                </g>
        </g>
        <svg viewBox="0 0 15 15" width="100%" height="30px" preserveAspectRatio="xMaxYMin meet">
         <g id="arrow_out" transform="scale(0.3 0.3)">
          <a xlink:href="cone_8h__incl_org.svg" target="_base">
           <rect id="button" ry="5" rx="5" y="6" x="6" height="38" width="38"
                fill="#f2f5e9" fill-opacity="0.5" stroke="#606060" stroke-width="1.0"/>
           <path id="arrow"
             d="M 11.500037,31.436501 C 11.940474,20.09759 22.043105,11.32322 32.158766,21.979434 L 37.068811,17.246167 C 37.068811,17.246167 37.088388,32 37.088388,32 L 22.160133,31.978069 C 22.160133,31.978069 26.997745,27.140456 26.997745,27.140456 C 18.528582,18.264221 13.291696,25.230495 11.500037,31.436501 z"
             style="fill:#404040;"/>
          </a>
         </g>
        </svg>
</svg>
