<?xml version="1.0" encoding="UTF-8" standalone="no"?>
<!DOCTYPE svg PUBLIC "-//W3C//DTD SVG 1.1//EN"
 "http://www.w3.org/Graphics/SVG/1.1/DTD/svg11.dtd">
<!-- Generated by graphviz version 2.43.0 (0)
 -->
<!-- Title: cube.h Pages: 1 -->
<svg width="1694pt" height="543pt"
 viewBox="0.00 0.00 1694.00 543.00" xmlns="http://www.w3.org/2000/svg" xmlns:xlink="http://www.w3.org/1999/xlink">
<g id="graph0" class="graph" transform="scale(1 1) rotate(0) translate(4 539)">
<title>cube.h</title>
<!-- Node1 -->
<g id="node1" class="node">
<title>Node1</title>
<g id="a_node1"><a xlink:title=" ">
<polygon fill="#bfbfbf" stroke="black" points="1403.5,-515.5 1403.5,-534.5 1452.5,-534.5 1452.5,-515.5 1403.5,-515.5"/>
<text text-anchor="middle" x="1428" y="-522.5" font-family="Helvetica,sans-Serif" font-size="10.00">cube.h</text>
</a>
</g>
</g>
<!-- Node2 -->
<g id="node2" class="node">
<title>Node2</title>
<g id="a_node2"><a xlink:href="limes__namespace_8h.html" target="_top" xlink:title=" ">
<polygon fill="none" stroke="black" points="967,-0.5 967,-19.5 1081,-19.5 1081,-0.5 967,-0.5"/>
<text text-anchor="middle" x="1024" y="-7.5" font-family="Helvetica,sans-Serif" font-size="10.00">limes_namespace.h</text>
</a>
</g>
</g>
<!-- Node1&#45;&gt;Node2 -->
<g id="edge1" class="edge">
<title>Node1&#45;&gt;Node2</title>
<path fill="none" stroke="midnightblue" d="M1452.8,-522.36C1508.16,-517.23 1637,-496.42 1637,-414 1637,-414 1637,-414 1637,-356 1637,-170.25 1512.27,-138.82 1346,-56 1302.57,-34.37 1172.28,-21.5 1091.36,-15.38"/>
<polygon fill="midnightblue" stroke="midnightblue" points="1091.49,-11.88 1081.26,-14.63 1090.98,-18.86 1091.49,-11.88"/>
</g>
<!-- Node3 -->
<g id="node3" class="node">
<title>Node3</title>
<g id="a_node3"><a xlink:title=" ">
<polygon fill="none" stroke="#bfbfbf" points="1337.5,-0.5 1337.5,-19.5 1426.5,-19.5 1426.5,-0.5 1337.5,-0.5"/>
<text text-anchor="middle" x="1382" y="-7.5" font-family="Helvetica,sans-Serif" font-size="10.00">limes_export.h</text>
</a>
</g>
</g>
<!-- Node1&#45;&gt;Node3 -->
<g id="edge2" class="edge">
<title>Node1&#45;&gt;Node3</title>
<path fill="none" stroke="midnightblue" d="M1452.74,-524.53C1517.31,-524.51 1686,-514.79 1686,-414 1686,-414 1686,-414 1686,-126.5 1686,-87.3 1666.38,-76.55 1633,-56 1600.9,-36.24 1500.46,-22.86 1436.79,-16.11"/>
<polygon fill="midnightblue" stroke="midnightblue" points="1436.83,-12.6 1426.52,-15.05 1436.11,-19.56 1436.83,-12.6"/>
</g>
<!-- Node4 -->
<g id="node4" class="node">
<title>Node4</title>
<g id="a_node4"><a xlink:title=" ">
<polygon fill="none" stroke="#bfbfbf" points="216,-0.5 216,-19.5 316,-19.5 316,-0.5 216,-0.5"/>
<text text-anchor="middle" x="266" y="-7.5" font-family="Helvetica,sans-Serif" font-size="10.00">limes_platform.h</text>
</a>
</g>
</g>
<!-- Node1&#45;&gt;Node4 -->
<g id="edge3" class="edge">
<title>Node1&#45;&gt;Node4</title>
<path fill="none" stroke="midnightblue" d="M1403.11,-523.71C1256.04,-521.86 499.12,-510.95 269,-479 147.17,-462.09 0,-537 0,-414 0,-414 0,-414 0,-126.5 0,-37.36 127.23,-16.27 205.71,-11.75"/>
<polygon fill="midnightblue" stroke="midnightblue" points="206.16,-15.23 215.97,-11.23 205.8,-8.24 206.16,-15.23"/>
</g>
<!-- Node5 -->
<g id="node5" class="node">
<title>Node5</title>
<g id="a_node5"><a xlink:href="preprocessor_8h.html" target="_top" xlink:title=" ">
<polygon fill="none" stroke="black" points="195.5,-56.5 195.5,-75.5 336.5,-75.5 336.5,-56.5 195.5,-56.5"/>
<text text-anchor="middle" x="266" y="-63.5" font-family="Helvetica,sans-Serif" font-size="10.00">../../../misc/preprocessor.h</text>
</a>
</g>
</g>
<!-- Node1&#45;&gt;Node5 -->
<g id="edge4" class="edge">
<title>Node1&#45;&gt;Node5</title>
<path fill="none" stroke="midnightblue" d="M1403.38,-523.33C1220.14,-518.19 76,-483.32 76,-414 76,-414 76,-414 76,-244 76,-158.91 179.29,-103.07 233.56,-79.61"/>
<polygon fill="midnightblue" stroke="midnightblue" points="235.22,-82.71 243.08,-75.61 232.51,-76.25 235.22,-82.71"/>
</g>
<!-- Node6 -->
<g id="node6" class="node">
<title>Node6</title>
<g id="a_node6"><a xlink:href="square_8h.html" target="_top" xlink:title=" ">
<polygon fill="none" stroke="black" points="1023,-403.5 1023,-422.5 1107,-422.5 1107,-403.5 1023,-403.5"/>
<text text-anchor="middle" x="1065" y="-410.5" font-family="Helvetica,sans-Serif" font-size="10.00">../2D/square.h</text>
</a>
</g>
</g>
<!-- Node1&#45;&gt;Node6 -->
<g id="edge6" class="edge">
<title>Node1&#45;&gt;Node6</title>
<path fill="none" stroke="midnightblue" d="M1403.33,-516.53C1341.15,-497.68 1177.64,-448.13 1103.06,-425.53"/>
<polygon fill="midnightblue" stroke="midnightblue" points="1103.73,-422.08 1093.15,-422.53 1101.7,-428.78 1103.73,-422.08"/>
</g>
<!-- Node12 -->
<g id="node12" class="node">
<title>Node12</title>
<g id="a_node12"><a xlink:title=" ">
<polygon fill="none" stroke="#bfbfbf" points="1154.5,-118 1154.5,-137 1201.5,-137 1201.5,-118 1154.5,-118"/>
<text text-anchor="middle" x="1178" y="-125" font-family="Helvetica,sans-Serif" font-size="10.00">cmath</text>
</a>
</g>
</g>
<!-- Node1&#45;&gt;Node12 -->
<g id="edge66" class="edge">
<title>Node1&#45;&gt;Node12</title>
<path fill="none" stroke="midnightblue" d="M1443.69,-515.4C1470.67,-499.31 1523,-461.94 1523,-414 1523,-414 1523,-414 1523,-356 1523,-207.77 1298.3,-150.62 1211.58,-134.09"/>
<polygon fill="midnightblue" stroke="midnightblue" points="1212.18,-130.64 1201.71,-132.27 1210.91,-137.52 1212.18,-130.64"/>
</g>
<!-- Node20 -->
<g id="node20" class="node">
<title>Node20</title>
<g id="a_node20"><a xlink:href="rectangular__prism_8h.html" target="_top" xlink:title=" ">
<polygon fill="none" stroke="black" points="1295,-459.5 1295,-478.5 1409,-478.5 1409,-459.5 1295,-459.5"/>
<text text-anchor="middle" x="1352" y="-466.5" font-family="Helvetica,sans-Serif" font-size="10.00">rectangular_prism.h</text>
</a>
</g>
</g>
<!-- Node1&#45;&gt;Node20 -->
<g id="edge55" class="edge">
<title>Node1&#45;&gt;Node20</title>
<path fill="none" stroke="midnightblue" d="M1415.79,-515.32C1404.22,-507.11 1386.62,-494.6 1372.84,-484.81"/>
<polygon fill="midnightblue" stroke="midnightblue" points="1374.61,-481.77 1364.43,-478.83 1370.56,-487.48 1374.61,-481.77"/>
</g>
<!-- Node21 -->
<g id="node21" class="node">
<title>Node21</title>
<g id="a_node21"><a xlink:href="3_dshape_8h.html" target="_top" xlink:title=" ">
<polygon fill="none" stroke="black" points="1427,-347.5 1427,-366.5 1495,-366.5 1495,-347.5 1427,-347.5"/>
<text text-anchor="middle" x="1461" y="-354.5" font-family="Helvetica,sans-Serif" font-size="10.00">3Dshape.h</text>
</a>
</g>
</g>
<!-- Node1&#45;&gt;Node21 -->
<g id="edge65" class="edge">
<title>Node1&#45;&gt;Node21</title>
<path fill="none" stroke="midnightblue" d="M1429.77,-515.08C1434.97,-488.95 1450.22,-412.21 1457.31,-376.58"/>
<polygon fill="midnightblue" stroke="midnightblue" points="1460.78,-377.06 1459.3,-366.57 1453.91,-375.69 1460.78,-377.06"/>
</g>
<!-- Node5&#45;&gt;Node4 -->
<g id="edge5" class="edge">
<title>Node5&#45;&gt;Node4</title>
<path fill="none" stroke="midnightblue" d="M266,-56.08C266,-49.01 266,-38.86 266,-29.99"/>
<polygon fill="midnightblue" stroke="midnightblue" points="269.5,-29.75 266,-19.75 262.5,-29.75 269.5,-29.75"/>
</g>
<!-- Node6&#45;&gt;Node2 -->
<g id="edge7" class="edge">
<title>Node6&#45;&gt;Node2</title>
<path fill="none" stroke="midnightblue" d="M1056.83,-403.38C1041.07,-385.81 1008,-343.94 1008,-302 1008,-302 1008,-302 1008,-244 1008,-159.5 1076.62,-158 1097,-76 1099.14,-67.37 1101.33,-63.76 1097,-56 1088.84,-41.39 1073.78,-30.94 1059.45,-23.8"/>
<polygon fill="midnightblue" stroke="midnightblue" points="1060.76,-20.56 1050.21,-19.59 1057.85,-26.92 1060.76,-20.56"/>
</g>
<!-- Node6&#45;&gt;Node3 -->
<g id="edge8" class="edge">
<title>Node6&#45;&gt;Node3</title>
<path fill="none" stroke="midnightblue" d="M1079.61,-403.41C1123.92,-376.89 1259.34,-292.5 1351,-199 1372.41,-177.16 1379.54,-171.36 1391,-143 1402.29,-115.09 1398.77,-106.03 1401,-76 1401.66,-67.14 1402.76,-64.71 1401,-56 1399.11,-46.65 1395.21,-36.83 1391.43,-28.75"/>
<polygon fill="midnightblue" stroke="midnightblue" points="1394.47,-27.01 1386.88,-19.63 1388.21,-30.14 1394.47,-27.01"/>
</g>
<!-- Node6&#45;&gt;Node4 -->
<g id="edge9" class="edge">
<title>Node6&#45;&gt;Node4</title>
<path fill="none" stroke="midnightblue" d="M1022.77,-411.45C912.7,-408.83 609.24,-394 374,-311 318.12,-291.28 299.27,-292.02 253,-255 177.76,-194.81 114.84,-137.01 167,-56 177.31,-39.99 194.85,-29.62 212.33,-22.92"/>
<polygon fill="midnightblue" stroke="midnightblue" points="213.7,-26.15 221.99,-19.56 211.4,-19.54 213.7,-26.15"/>
</g>
<!-- Node6&#45;&gt;Node5 -->
<g id="edge13" class="edge">
<title>Node6&#45;&gt;Node5</title>
<path fill="none" stroke="midnightblue" d="M1022.91,-408.19C865.56,-393.01 315.66,-331.08 214,-199 190.42,-168.36 197.93,-147.17 214,-112 219.78,-99.36 231.05,-88.91 241.63,-81.27"/>
<polygon fill="midnightblue" stroke="midnightblue" points="243.85,-84 250.22,-75.53 239.96,-78.18 243.85,-84"/>
</g>
<!-- Node7 -->
<g id="node7" class="node">
<title>Node7</title>
<g id="a_node7"><a xlink:href="2_dshape_8h.html" target="_top" xlink:title=" ">
<polygon fill="none" stroke="black" points="1074,-235.5 1074,-254.5 1142,-254.5 1142,-235.5 1074,-235.5"/>
<text text-anchor="middle" x="1108" y="-242.5" font-family="Helvetica,sans-Serif" font-size="10.00">2Dshape.h</text>
</a>
</g>
</g>
<!-- Node6&#45;&gt;Node7 -->
<g id="edge10" class="edge">
<title>Node6&#45;&gt;Node7</title>
<path fill="none" stroke="midnightblue" d="M1067.31,-403.08C1074.08,-376.95 1093.96,-300.21 1103.19,-264.58"/>
<polygon fill="midnightblue" stroke="midnightblue" points="1106.66,-265.13 1105.78,-254.57 1099.88,-263.37 1106.66,-265.13"/>
</g>
<!-- Node8 -->
<g id="node8" class="node">
<title>Node8</title>
<g id="a_node8"><a xlink:href="rectangle_8h.html" target="_top" xlink:title=" ">
<polygon fill="none" stroke="black" points="906.5,-347.5 906.5,-366.5 977.5,-366.5 977.5,-347.5 906.5,-347.5"/>
<text text-anchor="middle" x="942" y="-354.5" font-family="Helvetica,sans-Serif" font-size="10.00">rectangle.h</text>
</a>
</g>
</g>
<!-- Node6&#45;&gt;Node8 -->
<g id="edge14" class="edge">
<title>Node6&#45;&gt;Node8</title>
<path fill="none" stroke="midnightblue" d="M1045.51,-403.44C1025.36,-394.6 993.68,-380.69 970.67,-370.59"/>
<polygon fill="midnightblue" stroke="midnightblue" points="971.96,-367.33 961.4,-366.52 969.15,-373.74 971.96,-367.33"/>
</g>
<!-- Node9 -->
<g id="node9" class="node">
<title>Node9</title>
<g id="a_node9"><a xlink:href="triangle_8h.html" target="_top" xlink:title=" ">
<polygon fill="none" stroke="black" points="840.5,-291.5 840.5,-310.5 903.5,-310.5 903.5,-291.5 840.5,-291.5"/>
<text text-anchor="middle" x="872" y="-298.5" font-family="Helvetica,sans-Serif" font-size="10.00">triangle.h</text>
</a>
</g>
</g>
<!-- Node6&#45;&gt;Node9 -->
<g id="edge53" class="edge">
<title>Node6&#45;&gt;Node9</title>
<path fill="none" stroke="midnightblue" d="M1022.7,-411.07C985.34,-408.07 931.57,-398.1 897,-367 883.68,-355.01 877.4,-335.12 874.48,-320.49"/>
<polygon fill="midnightblue" stroke="midnightblue" points="877.92,-319.84 872.84,-310.55 871.01,-320.99 877.92,-319.84"/>
</g>
<!-- Node6&#45;&gt;Node12 -->
<g id="edge54" class="edge">
<title>Node6&#45;&gt;Node12</title>
<path fill="none" stroke="midnightblue" d="M1070.32,-403.46C1075.87,-394.47 1084.76,-379.86 1092,-367 1119.6,-317.97 1131.84,-307.9 1151,-255 1164.47,-217.83 1172.18,-171.96 1175.68,-146.94"/>
<polygon fill="midnightblue" stroke="midnightblue" points="1179.16,-147.38 1177,-137.01 1172.22,-146.46 1179.16,-147.38"/>
</g>
<!-- Node7&#45;&gt;Node2 -->
<g id="edge11" class="edge">
<title>Node7&#45;&gt;Node2</title>
<path fill="none" stroke="midnightblue" d="M1124.24,-235.36C1159.55,-215.35 1238.07,-163.62 1211,-112 1184.5,-61.46 1121.77,-35.13 1076.26,-22.19"/>
<polygon fill="midnightblue" stroke="midnightblue" points="1077.11,-18.8 1066.54,-19.56 1075.28,-25.55 1077.11,-18.8"/>
</g>
<!-- Node7&#45;&gt;Node3 -->
<g id="edge12" class="edge">
<title>Node7&#45;&gt;Node3</title>
<path fill="none" stroke="midnightblue" d="M1142.31,-243.11C1180.24,-240.47 1241.32,-231.06 1282,-199 1311.44,-175.79 1357,-71.36 1374.66,-28.97"/>
<polygon fill="midnightblue" stroke="midnightblue" points="1377.94,-30.19 1378.52,-19.61 1371.47,-27.52 1377.94,-30.19"/>
</g>
<!-- Node8&#45;&gt;Node2 -->
<g id="edge15" class="edge">
<title>Node8&#45;&gt;Node2</title>
<path fill="none" stroke="midnightblue" d="M940.69,-347.47C937.98,-329.01 932,-283.97 932,-246 932,-246 932,-246 932,-126.5 932,-94.05 931.6,-82.01 951,-56 961.44,-42 977.64,-31.38 992.13,-23.99"/>
<polygon fill="midnightblue" stroke="midnightblue" points="993.82,-27.06 1001.33,-19.59 990.8,-20.74 993.82,-27.06"/>
</g>
<!-- Node8&#45;&gt;Node3 -->
<g id="edge16" class="edge">
<title>Node8&#45;&gt;Node3</title>
<path fill="none" stroke="midnightblue" d="M977.54,-349C1050.14,-333.21 1217.82,-288.99 1327,-199 1373.94,-160.31 1378.62,-136.24 1387,-76 1389.15,-60.57 1387.54,-42.93 1385.59,-29.93"/>
<polygon fill="midnightblue" stroke="midnightblue" points="1389.01,-29.14 1383.88,-19.87 1382.11,-30.31 1389.01,-29.14"/>
</g>
<!-- Node8&#45;&gt;Node4 -->
<g id="edge17" class="edge">
<title>Node8&#45;&gt;Node4</title>
<path fill="none" stroke="midnightblue" d="M906.19,-354.21C801.91,-347.66 491.9,-318.7 271,-199 204.56,-163 139.71,-120.56 179,-56 188.46,-40.46 205.21,-30.05 221.5,-23.19"/>
<polygon fill="midnightblue" stroke="midnightblue" points="222.9,-26.4 230.99,-19.55 220.4,-19.87 222.9,-26.4"/>
</g>
<!-- Node8&#45;&gt;Node5 -->
<g id="edge19" class="edge">
<title>Node8&#45;&gt;Node5</title>
<path fill="none" stroke="midnightblue" d="M906.45,-349.86C832.32,-336.58 656.31,-302.49 514,-255 455.1,-235.34 441.42,-227.01 386,-199 341.57,-176.54 319.93,-182 289,-143 275.91,-126.5 270.26,-102.63 267.82,-86.06"/>
<polygon fill="midnightblue" stroke="midnightblue" points="271.27,-85.45 266.6,-75.94 264.32,-86.29 271.27,-85.45"/>
</g>
<!-- Node8&#45;&gt;Node7 -->
<g id="edge18" class="edge">
<title>Node8&#45;&gt;Node7</title>
<path fill="none" stroke="midnightblue" d="M977.67,-348.09C1002.56,-341.28 1035.56,-329.56 1060,-311 1076.7,-298.32 1090.27,-278.28 1098.66,-263.8"/>
<polygon fill="midnightblue" stroke="midnightblue" points="1101.85,-265.27 1103.62,-254.83 1095.72,-261.89 1101.85,-265.27"/>
</g>
<!-- Node8&#45;&gt;Node9 -->
<g id="edge20" class="edge">
<title>Node8&#45;&gt;Node9</title>
<path fill="none" stroke="midnightblue" d="M930.75,-347.32C920.2,-339.18 904.2,-326.84 891.56,-317.09"/>
<polygon fill="midnightblue" stroke="midnightblue" points="893.51,-314.17 883.45,-310.83 889.23,-319.71 893.51,-314.17"/>
</g>
<!-- Node8&#45;&gt;Node12 -->
<g id="edge52" class="edge">
<title>Node8&#45;&gt;Node12</title>
<path fill="none" stroke="midnightblue" d="M950.59,-347.43C970.54,-327.54 1021.63,-276.76 1065,-235 1098.75,-202.5 1138.76,-165.04 1160.97,-144.34"/>
<polygon fill="midnightblue" stroke="midnightblue" points="1163.63,-146.65 1168.56,-137.27 1158.86,-141.52 1163.63,-146.65"/>
</g>
<!-- Node9&#45;&gt;Node2 -->
<g id="edge21" class="edge">
<title>Node9&#45;&gt;Node2</title>
<path fill="none" stroke="midnightblue" d="M874.97,-291.28C880.97,-272.82 894,-228.37 894,-190 894,-190 894,-190 894,-126.5 894,-93.4 895.47,-80.25 918,-56 932.91,-39.95 954.48,-29.4 974.27,-22.58"/>
<polygon fill="midnightblue" stroke="midnightblue" points="975.35,-25.9 983.8,-19.52 973.21,-19.24 975.35,-25.9"/>
</g>
<!-- Node9&#45;&gt;Node3 -->
<g id="edge22" class="edge">
<title>Node9&#45;&gt;Node3</title>
<path fill="none" stroke="midnightblue" d="M903.79,-296.87C956.01,-291.29 1062.94,-277.99 1151,-255 1221.06,-236.71 1246.92,-243.55 1304,-199 1358.53,-156.44 1375.27,-69.05 1380.13,-30.27"/>
<polygon fill="midnightblue" stroke="midnightblue" points="1383.66,-30.22 1381.29,-19.9 1376.7,-29.45 1383.66,-30.22"/>
</g>
<!-- Node9&#45;&gt;Node4 -->
<g id="edge23" class="edge">
<title>Node9&#45;&gt;Node4</title>
<path fill="none" stroke="midnightblue" d="M840.28,-299.06C777.09,-296.52 631.47,-287.35 514,-255 353.89,-210.91 265.19,-221.98 186,-76 173.31,-52.6 202.37,-34.45 228.95,-23.35"/>
<polygon fill="midnightblue" stroke="midnightblue" points="230.52,-26.49 238.55,-19.58 227.96,-19.98 230.52,-26.49"/>
</g>
<!-- Node9&#45;&gt;Node5 -->
<g id="edge25" class="edge">
<title>Node9&#45;&gt;Node5</title>
<path fill="none" stroke="midnightblue" d="M840.22,-297.92C750.97,-290.71 493.45,-260.35 323,-143 301.2,-127.99 284.33,-101.93 274.78,-84.57"/>
<polygon fill="midnightblue" stroke="midnightblue" points="277.76,-82.73 270.02,-75.51 271.57,-85.99 277.76,-82.73"/>
</g>
<!-- Node9&#45;&gt;Node7 -->
<g id="edge24" class="edge">
<title>Node9&#45;&gt;Node7</title>
<path fill="none" stroke="midnightblue" d="M903.83,-292.72C945.09,-283.28 1017.25,-266.76 1063.81,-256.11"/>
<polygon fill="midnightblue" stroke="midnightblue" points="1064.65,-259.51 1073.62,-253.87 1063.09,-252.69 1064.65,-259.51"/>
</g>
<!-- Node10 -->
<g id="node10" class="node">
<title>Node10</title>
<g id="a_node10"><a xlink:href="angle_8h.html" target="_top" xlink:title=" ">
<polygon fill="none" stroke="black" points="812.5,-235.5 812.5,-254.5 865.5,-254.5 865.5,-235.5 812.5,-235.5"/>
<text text-anchor="middle" x="839" y="-242.5" font-family="Helvetica,sans-Serif" font-size="10.00">angle.h</text>
</a>
</g>
</g>
<!-- Node9&#45;&gt;Node10 -->
<g id="edge26" class="edge">
<title>Node9&#45;&gt;Node10</title>
<path fill="none" stroke="midnightblue" d="M866.55,-291.08C861.99,-283.61 855.33,-272.72 849.71,-263.52"/>
<polygon fill="midnightblue" stroke="midnightblue" points="852.55,-261.46 844.35,-254.75 846.58,-265.11 852.55,-261.46"/>
</g>
<!-- Node11 -->
<g id="node11" class="node">
<title>Node11</title>
<g id="a_node11"><a xlink:href="math_helpers_8h.html" target="_top" xlink:title=" ">
<polygon fill="none" stroke="black" points="720.5,-179.5 720.5,-198.5 827.5,-198.5 827.5,-179.5 720.5,-179.5"/>
<text text-anchor="middle" x="774" y="-186.5" font-family="Helvetica,sans-Serif" font-size="10.00">../../mathHelpers.h</text>
</a>
</g>
</g>
<!-- Node9&#45;&gt;Node11 -->
<g id="edge50" class="edge">
<title>Node9&#45;&gt;Node11</title>
<path fill="none" stroke="midnightblue" d="M853.16,-291.48C837.94,-283.8 816.83,-271.21 803,-255 791.48,-241.5 783.76,-222.69 779.2,-208.78"/>
<polygon fill="midnightblue" stroke="midnightblue" points="782.45,-207.43 776.21,-198.86 775.75,-209.45 782.45,-207.43"/>
</g>
<!-- Node9&#45;&gt;Node12 -->
<g id="edge51" class="edge">
<title>Node9&#45;&gt;Node12</title>
<path fill="none" stroke="midnightblue" d="M885.14,-291.26C916.48,-270.58 998.31,-217.51 1070,-179 1095.93,-165.07 1126.38,-151.03 1148.33,-141.3"/>
<polygon fill="midnightblue" stroke="midnightblue" points="1150.02,-144.38 1157.77,-137.15 1147.2,-137.98 1150.02,-144.38"/>
</g>
<!-- Node10&#45;&gt;Node2 -->
<g id="edge28" class="edge">
<title>Node10&#45;&gt;Node2</title>
<path fill="none" stroke="midnightblue" d="M838.09,-235.15C835.55,-205.57 831.5,-108.98 880,-56 899.69,-34.49 929.49,-23.18 956.88,-17.26"/>
<polygon fill="midnightblue" stroke="midnightblue" points="957.69,-20.67 966.84,-15.32 956.35,-13.8 957.69,-20.67"/>
</g>
<!-- Node10&#45;&gt;Node3 -->
<g id="edge27" class="edge">
<title>Node10&#45;&gt;Node3</title>
<path fill="none" stroke="midnightblue" d="M865.51,-240.45C928.32,-231.27 1089.95,-203.17 1211,-143 1274.58,-111.4 1337.64,-54.35 1366.18,-26.77"/>
<polygon fill="midnightblue" stroke="midnightblue" points="1368.89,-29.02 1373.59,-19.52 1363.99,-24.01 1368.89,-29.02"/>
</g>
<!-- Node10&#45;&gt;Node4 -->
<g id="edge29" class="edge">
<title>Node10&#45;&gt;Node4</title>
<path fill="none" stroke="midnightblue" d="M812.31,-240C755.68,-230.57 620.82,-203.08 525,-143 479.72,-114.61 488.12,-83 442,-56 406.7,-35.33 361.99,-24.06 326.47,-17.96"/>
<polygon fill="midnightblue" stroke="midnightblue" points="326.67,-14.45 316.24,-16.3 325.55,-21.36 326.67,-14.45"/>
</g>
<!-- Node10&#45;&gt;Node11 -->
<g id="edge30" class="edge">
<title>Node10&#45;&gt;Node11</title>
<path fill="none" stroke="midnightblue" d="M828.56,-235.32C818.85,-227.26 804.18,-215.08 792.5,-205.37"/>
<polygon fill="midnightblue" stroke="midnightblue" points="794.56,-202.53 784.63,-198.83 790.09,-207.92 794.56,-202.53"/>
</g>
<!-- Node11&#45;&gt;Node2 -->
<g id="edge31" class="edge">
<title>Node11&#45;&gt;Node2</title>
<path fill="none" stroke="midnightblue" d="M778.92,-179.44C784.05,-170.44 792.27,-155.82 799,-143 819.03,-104.8 808.38,-83.02 842,-56 874.23,-30.09 919.3,-18.81 956.52,-14.03"/>
<polygon fill="midnightblue" stroke="midnightblue" points="957.26,-17.47 966.8,-12.84 956.46,-10.51 957.26,-17.47"/>
</g>
<!-- Node11&#45;&gt;Node3 -->
<g id="edge34" class="edge">
<title>Node11&#45;&gt;Node3</title>
<path fill="none" stroke="midnightblue" d="M803.33,-179.46C903.14,-150.4 1229.77,-55.32 1342.96,-22.37"/>
<polygon fill="midnightblue" stroke="midnightblue" points="1343.99,-25.71 1352.61,-19.55 1342.03,-18.99 1343.99,-25.71"/>
</g>
<!-- Node11&#45;&gt;Node12 -->
<g id="edge32" class="edge">
<title>Node11&#45;&gt;Node12</title>
<path fill="none" stroke="midnightblue" d="M827.77,-185.46C899.79,-181.15 1031.11,-170.04 1140,-143 1142.83,-142.3 1145.73,-141.45 1148.61,-140.51"/>
<polygon fill="midnightblue" stroke="midnightblue" points="1149.93,-143.76 1158.18,-137.1 1147.58,-137.16 1149.93,-143.76"/>
</g>
<!-- Node13 -->
<g id="node13" class="node">
<title>Node13</title>
<g id="a_node13"><a xlink:title=" ">
<polygon fill="none" stroke="#bfbfbf" points="494.5,-56.5 494.5,-75.5 563.5,-75.5 563.5,-56.5 494.5,-56.5"/>
<text text-anchor="middle" x="529" y="-63.5" font-family="Helvetica,sans-Serif" font-size="10.00">type_traits</text>
</a>
</g>
</g>
<!-- Node11&#45;&gt;Node13 -->
<g id="edge33" class="edge">
<title>Node11&#45;&gt;Node13</title>
<path fill="none" stroke="midnightblue" d="M739.2,-179.43C712.42,-172 675.02,-159.79 645,-143 625.98,-132.36 624.94,-124.37 607,-112 590.16,-100.39 570.16,-88.89 554.63,-80.42"/>
<polygon fill="midnightblue" stroke="midnightblue" points="556.07,-77.22 545.6,-75.57 552.75,-83.39 556.07,-77.22"/>
</g>
<!-- Node14 -->
<g id="node14" class="node">
<title>Node14</title>
<g id="a_node14"><a xlink:title=" ">
<polygon fill="none" stroke="#bfbfbf" points="534,-118 534,-137 598,-137 598,-118 534,-118"/>
<text text-anchor="middle" x="566" y="-125" font-family="Helvetica,sans-Serif" font-size="10.00">algorithm</text>
</a>
</g>
</g>
<!-- Node11&#45;&gt;Node14 -->
<g id="edge35" class="edge">
<title>Node11&#45;&gt;Node14</title>
<path fill="none" stroke="midnightblue" d="M741.94,-179.44C709.19,-170.62 656.92,-156.31 612,-143 608.87,-142.07 605.62,-141.09 602.37,-140.09"/>
<polygon fill="midnightblue" stroke="midnightblue" points="603.3,-136.71 592.71,-137.09 601.22,-143.4 603.3,-136.71"/>
</g>
<!-- Node15 -->
<g id="node15" class="node">
<title>Node15</title>
<g id="a_node15"><a xlink:href="limes__assert_8h.html" target="_top" xlink:title=" ">
<polygon fill="none" stroke="black" points="654,-118 654,-137 790,-137 790,-118 654,-118"/>
<text text-anchor="middle" x="722" y="-125" font-family="Helvetica,sans-Serif" font-size="10.00">../system/limes_assert.h</text>
</a>
</g>
</g>
<!-- Node11&#45;&gt;Node15 -->
<g id="edge36" class="edge">
<title>Node11&#45;&gt;Node15</title>
<path fill="none" stroke="midnightblue" d="M766.55,-179.48C758.67,-170.46 746.06,-156.02 736.26,-144.81"/>
<polygon fill="midnightblue" stroke="midnightblue" points="738.65,-142.24 729.44,-137.01 733.38,-146.84 738.65,-142.24"/>
</g>
<!-- Node19 -->
<g id="node19" class="node">
<title>Node19</title>
<g id="a_node19"><a xlink:href="compiler__defs_8h.html" target="_top" xlink:title=" ">
<polygon fill="none" stroke="black" points="332.5,-112.5 332.5,-142.5 439.5,-142.5 439.5,-112.5 332.5,-112.5"/>
<text text-anchor="start" x="340.5" y="-130.5" font-family="Helvetica,sans-Serif" font-size="10.00">../system/compiler</text>
<text text-anchor="middle" x="386" y="-119.5" font-family="Helvetica,sans-Serif" font-size="10.00">_defs.h</text>
</a>
</g>
</g>
<!-- Node11&#45;&gt;Node19 -->
<g id="edge47" class="edge">
<title>Node11&#45;&gt;Node19</title>
<path fill="none" stroke="midnightblue" d="M720.46,-179.79C649.77,-168.95 525.47,-149.89 449.94,-138.31"/>
<polygon fill="midnightblue" stroke="midnightblue" points="450.03,-134.78 439.62,-136.72 448.97,-141.7 450.03,-134.78"/>
</g>
<!-- Node15&#45;&gt;Node2 -->
<g id="edge38" class="edge">
<title>Node15&#45;&gt;Node2</title>
<path fill="none" stroke="midnightblue" d="M729.15,-117.99C742.32,-102.93 771.97,-71.71 804,-56 852,-32.46 911.7,-21.23 956.8,-15.87"/>
<polygon fill="midnightblue" stroke="midnightblue" points="957.22,-19.35 966.76,-14.75 956.44,-12.39 957.22,-19.35"/>
</g>
<!-- Node15&#45;&gt;Node3 -->
<g id="edge37" class="edge">
<title>Node15&#45;&gt;Node3</title>
<path fill="none" stroke="midnightblue" d="M790.1,-119.57C865.51,-111.38 990.52,-96.25 1097,-76 1133.43,-69.07 1141.89,-64.44 1178,-56 1230.53,-43.72 1290.88,-30.52 1332.24,-21.61"/>
<polygon fill="midnightblue" stroke="midnightblue" points="1333.02,-25.03 1342.06,-19.5 1331.55,-18.18 1333.02,-25.03"/>
</g>
<!-- Node15&#45;&gt;Node4 -->
<g id="edge45" class="edge">
<title>Node15&#45;&gt;Node4</title>
<path fill="none" stroke="midnightblue" d="M702.22,-117.84C679.92,-107.99 642.64,-91.3 611,-76 593.46,-67.52 590.55,-61.94 572,-56 489.29,-29.51 388.94,-18.53 326.26,-14.04"/>
<polygon fill="midnightblue" stroke="midnightblue" points="326.37,-10.54 316.15,-13.34 325.89,-17.52 326.37,-10.54"/>
</g>
<!-- Node15&#45;&gt;Node5 -->
<g id="edge39" class="edge">
<title>Node15&#45;&gt;Node5</title>
<path fill="none" stroke="midnightblue" d="M656.67,-117.98C573.28,-107.09 429.33,-88.31 341.39,-76.84"/>
<polygon fill="midnightblue" stroke="midnightblue" points="341.58,-73.33 331.21,-75.51 340.68,-80.27 341.58,-73.33"/>
</g>
<!-- Node15&#45;&gt;Node13 -->
<g id="edge40" class="edge">
<title>Node15&#45;&gt;Node13</title>
<path fill="none" stroke="midnightblue" d="M694.35,-117.98C660.81,-107.64 604.13,-90.16 566.63,-78.6"/>
<polygon fill="midnightblue" stroke="midnightblue" points="567.19,-75.11 556.6,-75.51 565.13,-81.8 567.19,-75.11"/>
</g>
<!-- Node16 -->
<g id="node16" class="node">
<title>Node16</title>
<g id="a_node16"><a xlink:title=" ">
<polygon fill="none" stroke="#bfbfbf" points="620.5,-56.5 620.5,-75.5 665.5,-75.5 665.5,-56.5 620.5,-56.5"/>
<text text-anchor="middle" x="643" y="-63.5" font-family="Helvetica,sans-Serif" font-size="10.00">utility</text>
</a>
</g>
</g>
<!-- Node15&#45;&gt;Node16 -->
<g id="edge41" class="edge">
<title>Node15&#45;&gt;Node16</title>
<path fill="none" stroke="midnightblue" d="M710.68,-117.98C698.13,-108.52 677.65,-93.1 662.5,-81.69"/>
<polygon fill="midnightblue" stroke="midnightblue" points="664.39,-78.73 654.3,-75.51 660.18,-84.32 664.39,-78.73"/>
</g>
<!-- Node17 -->
<g id="node17" class="node">
<title>Node17</title>
<g id="a_node17"><a xlink:href="_ignore_unused_8h.html" target="_top" xlink:title=" ">
<polygon fill="none" stroke="black" points="960,-56.5 960,-75.5 1088,-75.5 1088,-56.5 960,-56.5"/>
<text text-anchor="middle" x="1024" y="-63.5" font-family="Helvetica,sans-Serif" font-size="10.00">../misc/IgnoreUnused.h</text>
</a>
</g>
</g>
<!-- Node15&#45;&gt;Node17 -->
<g id="edge42" class="edge">
<title>Node15&#45;&gt;Node17</title>
<path fill="none" stroke="midnightblue" d="M765.27,-117.98C819.43,-107.3 912.17,-89.03 970.66,-77.51"/>
<polygon fill="midnightblue" stroke="midnightblue" points="971.68,-80.88 980.81,-75.51 970.32,-74.01 971.68,-80.88"/>
</g>
<!-- Node18 -->
<g id="node18" class="node">
<title>Node18</title>
<g id="a_node18"><a xlink:title=" ">
<polygon fill="none" stroke="#bfbfbf" points="684,-56.5 684,-75.5 752,-75.5 752,-56.5 684,-56.5"/>
<text text-anchor="middle" x="718" y="-63.5" font-family="Helvetica,sans-Serif" font-size="10.00">filesystem</text>
</a>
</g>
</g>
<!-- Node15&#45;&gt;Node18 -->
<g id="edge46" class="edge">
<title>Node15&#45;&gt;Node18</title>
<path fill="none" stroke="midnightblue" d="M721.43,-117.98C720.86,-109.58 719.98,-96.48 719.25,-85.66"/>
<polygon fill="midnightblue" stroke="midnightblue" points="722.74,-85.25 718.57,-75.51 715.75,-85.72 722.74,-85.25"/>
</g>
<!-- Node17&#45;&gt;Node2 -->
<g id="edge44" class="edge">
<title>Node17&#45;&gt;Node2</title>
<path fill="none" stroke="midnightblue" d="M1024,-56.08C1024,-49.01 1024,-38.86 1024,-29.99"/>
<polygon fill="midnightblue" stroke="midnightblue" points="1027.5,-29.75 1024,-19.75 1020.5,-29.75 1027.5,-29.75"/>
</g>
<!-- Node17&#45;&gt;Node3 -->
<g id="edge43" class="edge">
<title>Node17&#45;&gt;Node3</title>
<path fill="none" stroke="midnightblue" d="M1080.73,-56.44C1148.43,-46.23 1260.82,-29.28 1327.52,-19.22"/>
<polygon fill="midnightblue" stroke="midnightblue" points="1328.05,-22.68 1337.42,-17.73 1327.01,-15.76 1328.05,-22.68"/>
</g>
<!-- Node19&#45;&gt;Node4 -->
<g id="edge48" class="edge">
<title>Node19&#45;&gt;Node4</title>
<path fill="none" stroke="midnightblue" d="M380.43,-112.34C373.83,-96.98 361.59,-72.45 345,-56 331.35,-42.47 312.82,-31.64 297.14,-23.99"/>
<polygon fill="midnightblue" stroke="midnightblue" points="298.35,-20.69 287.81,-19.64 295.39,-27.04 298.35,-20.69"/>
</g>
<!-- Node19&#45;&gt;Node5 -->
<g id="edge49" class="edge">
<title>Node19&#45;&gt;Node5</title>
<path fill="none" stroke="midnightblue" d="M357.56,-112.4C337.88,-102.64 311.86,-89.74 292.59,-80.18"/>
<polygon fill="midnightblue" stroke="midnightblue" points="293.98,-76.96 283.46,-75.66 290.87,-83.24 293.98,-76.96"/>
</g>
<!-- Node20&#45;&gt;Node2 -->
<g id="edge56" class="edge">
<title>Node20&#45;&gt;Node2</title>
<path fill="none" stroke="midnightblue" d="M1350.06,-459.29C1340.73,-418.3 1297.9,-241.21 1227,-112 1211.77,-84.25 1209.3,-73.62 1183,-56 1155.81,-37.78 1121.27,-26.86 1091.33,-20.36"/>
<polygon fill="midnightblue" stroke="midnightblue" points="1091.87,-16.89 1081.37,-18.31 1090.47,-23.75 1091.87,-16.89"/>
</g>
<!-- Node20&#45;&gt;Node3 -->
<g id="edge57" class="edge">
<title>Node20&#45;&gt;Node3</title>
<path fill="none" stroke="midnightblue" d="M1375.23,-459.43C1445.01,-432.03 1648,-339.46 1648,-190 1648,-190 1648,-190 1648,-126.5 1648,-35.19 1514.5,-15.29 1436.65,-11.44"/>
<polygon fill="midnightblue" stroke="midnightblue" points="1436.66,-7.94 1426.52,-11.02 1436.37,-14.94 1436.66,-7.94"/>
</g>
<!-- Node20&#45;&gt;Node4 -->
<g id="edge58" class="edge">
<title>Node20&#45;&gt;Node4</title>
<path fill="none" stroke="midnightblue" d="M1294.67,-468.32C1069.37,-468.82 257,-463.32 257,-358 257,-358 257,-358 257,-300 257,-190.11 401.06,-242.35 448,-143 477.99,-79.52 375.98,-40.08 312.66,-22.23"/>
<polygon fill="midnightblue" stroke="midnightblue" points="313.43,-18.81 302.86,-19.56 311.58,-25.57 313.43,-18.81"/>
</g>
<!-- Node20&#45;&gt;Node5 -->
<g id="edge59" class="edge">
<title>Node20&#45;&gt;Node5</title>
<path fill="none" stroke="midnightblue" d="M1294.93,-467.85C1073.25,-466.99 279.72,-461.24 243,-423 151.14,-327.34 229.05,-142.62 256.99,-84.77"/>
<polygon fill="midnightblue" stroke="midnightblue" points="260.14,-86.28 261.43,-75.77 253.87,-83.18 260.14,-86.28"/>
</g>
<!-- Node20&#45;&gt;Node6 -->
<g id="edge60" class="edge">
<title>Node20&#45;&gt;Node6</title>
<path fill="none" stroke="midnightblue" d="M1306.52,-459.44C1255.15,-449.78 1171.66,-434.07 1117.54,-423.89"/>
<polygon fill="midnightblue" stroke="midnightblue" points="1117.93,-420.4 1107.46,-421.99 1116.64,-427.28 1117.93,-420.4"/>
</g>
<!-- Node20&#45;&gt;Node12 -->
<g id="edge64" class="edge">
<title>Node20&#45;&gt;Node12</title>
<path fill="none" stroke="midnightblue" d="M1347.52,-459.27C1324.45,-414.24 1218.76,-208.02 1187.03,-146.12"/>
<polygon fill="midnightblue" stroke="midnightblue" points="1190.12,-144.48 1182.45,-137.18 1183.89,-147.67 1190.12,-144.48"/>
</g>
<!-- Node20&#45;&gt;Node21 -->
<g id="edge61" class="edge">
<title>Node20&#45;&gt;Node21</title>
<path fill="none" stroke="midnightblue" d="M1360.55,-459.37C1378.86,-440.89 1422.06,-397.29 1445.4,-373.74"/>
<polygon fill="midnightblue" stroke="midnightblue" points="1447.93,-376.16 1452.49,-366.59 1442.96,-371.23 1447.93,-376.16"/>
</g>
<!-- Node21&#45;&gt;Node2 -->
<g id="edge62" class="edge">
<title>Node21&#45;&gt;Node2</title>
<path fill="none" stroke="midnightblue" d="M1460.18,-347.46C1455.67,-306.07 1430.01,-125.39 1320,-56 1283,-32.66 1166.67,-20.56 1091.35,-15.01"/>
<polygon fill="midnightblue" stroke="midnightblue" points="1091.22,-11.49 1081,-14.27 1090.72,-18.47 1091.22,-11.49"/>
</g>
<!-- Node21&#45;&gt;Node3 -->
<g id="edge63" class="edge">
<title>Node21&#45;&gt;Node3</title>
<path fill="none" stroke="midnightblue" d="M1472.63,-347.29C1492.61,-331.51 1532.77,-296 1548,-255 1578.79,-172.09 1601.74,-126.25 1548,-56 1534.4,-38.22 1479.76,-25.82 1436.83,-18.61"/>
<polygon fill="midnightblue" stroke="midnightblue" points="1437.2,-15.12 1426.76,-16.98 1436.07,-22.03 1437.2,-15.12"/>
</g>
</g>
</svg>
