<?xml version="1.0" encoding="UTF-8" standalone="no"?>
<!DOCTYPE svg PUBLIC "-//W3C//DTD SVG 1.1//EN"
 "http://www.w3.org/Graphics/SVG/1.1/DTD/svg11.dtd">
<!-- Generated by graphviz version 2.43.0 (0)
 -->
<!-- Title: cylinder.h Pages: 1 -->
<svg width="1175pt" height="319pt"
 viewBox="0.00 0.00 1175.00 319.00" xmlns="http://www.w3.org/2000/svg" xmlns:xlink="http://www.w3.org/1999/xlink">
<g id="graph0" class="graph" transform="scale(1 1) rotate(0) translate(4 315)">
<title>cylinder.h</title>
<!-- Node1 -->
<g id="node1" class="node">
<title>Node1</title>
<g id="a_node1"><a xlink:title=" ">
<polygon fill="#bfbfbf" stroke="black" points="609,-291.5 609,-310.5 673,-310.5 673,-291.5 609,-291.5"/>
<text text-anchor="middle" x="641" y="-298.5" font-family="Helvetica,sans-Serif" font-size="10.00">cylinder.h</text>
</a>
</g>
</g>
<!-- Node2 -->
<g id="node2" class="node">
<title>Node2</title>
<g id="a_node2"><a xlink:href="limes__namespace_8h.html" target="_top" xlink:title=" ">
<polygon fill="none" stroke="black" points="786,-0.5 786,-19.5 900,-19.5 900,-0.5 786,-0.5"/>
<text text-anchor="middle" x="843" y="-7.5" font-family="Helvetica,sans-Serif" font-size="10.00">limes_namespace.h</text>
</a>
</g>
</g>
<!-- Node1&#45;&gt;Node2 -->
<g id="edge1" class="edge">
<title>Node1&#45;&gt;Node2</title>
<path fill="none" stroke="midnightblue" d="M673.37,-299.55C738.88,-296.76 881,-280.29 881,-190 881,-190 881,-190 881,-126.5 881,-90.25 863.91,-50.67 852.65,-28.53"/>
<polygon fill="midnightblue" stroke="midnightblue" points="855.73,-26.87 847.97,-19.66 849.54,-30.14 855.73,-26.87"/>
</g>
<!-- Node3 -->
<g id="node3" class="node">
<title>Node3</title>
<g id="a_node3"><a xlink:title=" ">
<polygon fill="none" stroke="#bfbfbf" points="960.5,-0.5 960.5,-19.5 1049.5,-19.5 1049.5,-0.5 960.5,-0.5"/>
<text text-anchor="middle" x="1005" y="-7.5" font-family="Helvetica,sans-Serif" font-size="10.00">limes_export.h</text>
</a>
</g>
</g>
<!-- Node1&#45;&gt;Node3 -->
<g id="edge2" class="edge">
<title>Node1&#45;&gt;Node3</title>
<path fill="none" stroke="midnightblue" d="M673.11,-300.17C787.31,-299.92 1167,-291.46 1167,-190 1167,-190 1167,-190 1167,-126.5 1167,-90.03 1152.99,-79.39 1125,-56 1105.74,-39.9 1080.15,-29.26 1057.56,-22.38"/>
<polygon fill="midnightblue" stroke="midnightblue" points="1058.33,-18.96 1047.75,-19.57 1056.4,-25.69 1058.33,-18.96"/>
</g>
<!-- Node4 -->
<g id="node4" class="node">
<title>Node4</title>
<g id="a_node4"><a xlink:title=" ">
<polygon fill="none" stroke="#bfbfbf" points="200,-0.5 200,-19.5 300,-19.5 300,-0.5 200,-0.5"/>
<text text-anchor="middle" x="250" y="-7.5" font-family="Helvetica,sans-Serif" font-size="10.00">limes_platform.h</text>
</a>
</g>
</g>
<!-- Node1&#45;&gt;Node4 -->
<g id="edge3" class="edge">
<title>Node1&#45;&gt;Node4</title>
<path fill="none" stroke="midnightblue" d="M608.77,-297.92C478.79,-289.12 0,-252.45 0,-190 0,-190 0,-190 0,-126.5 0,-43.28 115.58,-19.83 189.56,-13.35"/>
<polygon fill="midnightblue" stroke="midnightblue" points="190.02,-16.82 199.71,-12.54 189.46,-9.84 190.02,-16.82"/>
</g>
<!-- Node5 -->
<g id="node5" class="node">
<title>Node5</title>
<g id="a_node5"><a xlink:href="preprocessor_8h.html" target="_top" xlink:title=" ">
<polygon fill="none" stroke="black" points="61.5,-56.5 61.5,-75.5 202.5,-75.5 202.5,-56.5 61.5,-56.5"/>
<text text-anchor="middle" x="132" y="-63.5" font-family="Helvetica,sans-Serif" font-size="10.00">../../../misc/preprocessor.h</text>
</a>
</g>
</g>
<!-- Node1&#45;&gt;Node5 -->
<g id="edge4" class="edge">
<title>Node1&#45;&gt;Node5</title>
<path fill="none" stroke="midnightblue" d="M608.92,-299.38C527.09,-296.6 305.81,-281.41 146,-199 113.58,-182.28 100.54,-176.45 86,-143 80.51,-130.36 80.66,-124.7 86,-112 91.03,-100.05 100.94,-89.69 110.29,-81.93"/>
<polygon fill="midnightblue" stroke="midnightblue" points="112.44,-84.69 118.21,-75.81 108.16,-79.15 112.44,-84.69"/>
</g>
<!-- Node6 -->
<g id="node6" class="node">
<title>Node6</title>
<g id="a_node6"><a xlink:href="math_helpers_8h.html" target="_top" xlink:title=" ">
<polygon fill="none" stroke="black" points="330.5,-179.5 330.5,-198.5 437.5,-198.5 437.5,-179.5 330.5,-179.5"/>
<text text-anchor="middle" x="384" y="-186.5" font-family="Helvetica,sans-Serif" font-size="10.00">../../mathHelpers.h</text>
</a>
</g>
</g>
<!-- Node1&#45;&gt;Node6 -->
<g id="edge6" class="edge">
<title>Node1&#45;&gt;Node6</title>
<path fill="none" stroke="midnightblue" d="M620.83,-291.37C575.7,-272.05 466.38,-225.26 413.55,-202.65"/>
<polygon fill="midnightblue" stroke="midnightblue" points="414.64,-199.31 404.07,-198.59 411.89,-205.74 414.64,-199.31"/>
</g>
<!-- Node15 -->
<g id="node15" class="node">
<title>Node15</title>
<g id="a_node15"><a xlink:href="circle_8h.html" target="_top" xlink:title=" ">
<polygon fill="none" stroke="black" points="602.5,-235.5 602.5,-254.5 679.5,-254.5 679.5,-235.5 602.5,-235.5"/>
<text text-anchor="middle" x="641" y="-242.5" font-family="Helvetica,sans-Serif" font-size="10.00">../2D/circle.h</text>
</a>
</g>
</g>
<!-- Node1&#45;&gt;Node15 -->
<g id="edge27" class="edge">
<title>Node1&#45;&gt;Node15</title>
<path fill="none" stroke="midnightblue" d="M641,-291.08C641,-284.01 641,-273.86 641,-264.99"/>
<polygon fill="midnightblue" stroke="midnightblue" points="644.5,-264.75 641,-254.75 637.5,-264.75 644.5,-264.75"/>
</g>
<!-- Node17 -->
<g id="node17" class="node">
<title>Node17</title>
<g id="a_node17"><a xlink:href="3_dshape_8h.html" target="_top" xlink:title=" ">
<polygon fill="none" stroke="black" points="1033,-56.5 1033,-75.5 1101,-75.5 1101,-56.5 1033,-56.5"/>
<text text-anchor="middle" x="1067" y="-63.5" font-family="Helvetica,sans-Serif" font-size="10.00">3Dshape.h</text>
</a>
</g>
</g>
<!-- Node1&#45;&gt;Node17 -->
<g id="edge36" class="edge">
<title>Node1&#45;&gt;Node17</title>
<path fill="none" stroke="midnightblue" d="M673.25,-300.74C723.7,-300.54 822.98,-294.58 895,-255 972.22,-212.55 1033.41,-122.33 1056.76,-84.39"/>
<polygon fill="midnightblue" stroke="midnightblue" points="1059.93,-85.91 1062.1,-75.54 1053.94,-82.3 1059.93,-85.91"/>
</g>
<!-- Node5&#45;&gt;Node4 -->
<g id="edge5" class="edge">
<title>Node5&#45;&gt;Node4</title>
<path fill="none" stroke="midnightblue" d="M150.7,-56.44C169.94,-47.64 200.15,-33.81 222.2,-23.72"/>
<polygon fill="midnightblue" stroke="midnightblue" points="223.75,-26.86 231.39,-19.52 220.84,-20.5 223.75,-26.86"/>
</g>
<!-- Node6&#45;&gt;Node2 -->
<g id="edge7" class="edge">
<title>Node6&#45;&gt;Node2</title>
<path fill="none" stroke="midnightblue" d="M385.55,-179.38C390.4,-155.23 407.68,-86.64 452,-56 502.96,-20.77 677.91,-12.87 775.62,-11.26"/>
<polygon fill="midnightblue" stroke="midnightblue" points="775.75,-14.76 785.7,-11.11 775.65,-7.76 775.75,-14.76"/>
</g>
<!-- Node6&#45;&gt;Node3 -->
<g id="edge10" class="edge">
<title>Node6&#45;&gt;Node3</title>
<path fill="none" stroke="midnightblue" d="M437.52,-185.1C569.49,-176.89 905.57,-149.12 986,-76 998.89,-64.28 1003.23,-44.34 1004.59,-29.63"/>
<polygon fill="midnightblue" stroke="midnightblue" points="1008.09,-29.8 1005.14,-19.62 1001.1,-29.41 1008.09,-29.8"/>
</g>
<!-- Node7 -->
<g id="node7" class="node">
<title>Node7</title>
<g id="a_node7"><a xlink:title=" ">
<polygon fill="none" stroke="#bfbfbf" points="229.5,-118 229.5,-137 276.5,-137 276.5,-118 229.5,-118"/>
<text text-anchor="middle" x="253" y="-125" font-family="Helvetica,sans-Serif" font-size="10.00">cmath</text>
</a>
</g>
</g>
<!-- Node6&#45;&gt;Node7 -->
<g id="edge8" class="edge">
<title>Node6&#45;&gt;Node7</title>
<path fill="none" stroke="midnightblue" d="M365.23,-179.48C343.15,-169.45 306.28,-152.7 280.86,-141.15"/>
<polygon fill="midnightblue" stroke="midnightblue" points="282.29,-137.96 271.73,-137.01 279.39,-144.33 282.29,-137.96"/>
</g>
<!-- Node8 -->
<g id="node8" class="node">
<title>Node8</title>
<g id="a_node8"><a xlink:title=" ">
<polygon fill="none" stroke="#bfbfbf" points="297.5,-56.5 297.5,-75.5 366.5,-75.5 366.5,-56.5 297.5,-56.5"/>
<text text-anchor="middle" x="332" y="-63.5" font-family="Helvetica,sans-Serif" font-size="10.00">type_traits</text>
</a>
</g>
</g>
<!-- Node6&#45;&gt;Node8 -->
<g id="edge9" class="edge">
<title>Node6&#45;&gt;Node8</title>
<path fill="none" stroke="midnightblue" d="M383.47,-179.15C382.3,-164.52 378.71,-134.68 368,-112 363.05,-101.53 355.22,-91.32 348.12,-83.28"/>
<polygon fill="midnightblue" stroke="midnightblue" points="350.51,-80.72 341.14,-75.77 345.38,-85.48 350.51,-80.72"/>
</g>
<!-- Node9 -->
<g id="node9" class="node">
<title>Node9</title>
<g id="a_node9"><a xlink:title=" ">
<polygon fill="none" stroke="#bfbfbf" points="295,-118 295,-137 359,-137 359,-118 295,-118"/>
<text text-anchor="middle" x="327" y="-125" font-family="Helvetica,sans-Serif" font-size="10.00">algorithm</text>
</a>
</g>
</g>
<!-- Node6&#45;&gt;Node9 -->
<g id="edge11" class="edge">
<title>Node6&#45;&gt;Node9</title>
<path fill="none" stroke="midnightblue" d="M375.83,-179.48C367.11,-170.37 353.1,-155.74 342.31,-144.48"/>
<polygon fill="midnightblue" stroke="midnightblue" points="344.6,-141.81 335.15,-137.01 339.54,-146.65 344.6,-141.81"/>
</g>
<!-- Node10 -->
<g id="node10" class="node">
<title>Node10</title>
<g id="a_node10"><a xlink:href="limes__assert_8h.html" target="_top" xlink:title=" ">
<polygon fill="none" stroke="black" points="491,-118 491,-137 627,-137 627,-118 491,-118"/>
<text text-anchor="middle" x="559" y="-125" font-family="Helvetica,sans-Serif" font-size="10.00">../system/limes_assert.h</text>
</a>
</g>
</g>
<!-- Node6&#45;&gt;Node10 -->
<g id="edge12" class="edge">
<title>Node6&#45;&gt;Node10</title>
<path fill="none" stroke="midnightblue" d="M409.07,-179.48C439.35,-169.18 490.44,-151.81 524.44,-140.25"/>
<polygon fill="midnightblue" stroke="midnightblue" points="525.63,-143.54 533.97,-137.01 523.38,-136.91 525.63,-143.54"/>
</g>
<!-- Node14 -->
<g id="node14" class="node">
<title>Node14</title>
<g id="a_node14"><a xlink:href="compiler__defs_8h.html" target="_top" xlink:title=" ">
<polygon fill="none" stroke="black" points="104.5,-112.5 104.5,-142.5 211.5,-142.5 211.5,-112.5 104.5,-112.5"/>
<text text-anchor="start" x="112.5" y="-130.5" font-family="Helvetica,sans-Serif" font-size="10.00">../system/compiler</text>
<text text-anchor="middle" x="158" y="-119.5" font-family="Helvetica,sans-Serif" font-size="10.00">_defs.h</text>
</a>
</g>
</g>
<!-- Node6&#45;&gt;Node14 -->
<g id="edge24" class="edge">
<title>Node6&#45;&gt;Node14</title>
<path fill="none" stroke="midnightblue" d="M351.62,-179.48C317.65,-170.53 263.4,-156.25 220.95,-145.07"/>
<polygon fill="midnightblue" stroke="midnightblue" points="221.83,-141.68 211.26,-142.52 220.04,-148.45 221.83,-141.68"/>
</g>
<!-- Node10&#45;&gt;Node2 -->
<g id="edge14" class="edge">
<title>Node10&#45;&gt;Node2</title>
<path fill="none" stroke="midnightblue" d="M609.14,-117.92C648.18,-110.12 703.09,-96.63 748,-76 776.87,-62.74 806.52,-40.88 824.85,-26.22"/>
<polygon fill="midnightblue" stroke="midnightblue" points="827.35,-28.7 832.88,-19.67 822.92,-23.27 827.35,-28.7"/>
</g>
<!-- Node10&#45;&gt;Node3 -->
<g id="edge13" class="edge">
<title>Node10&#45;&gt;Node3</title>
<path fill="none" stroke="midnightblue" d="M598.71,-118C642.71,-108.42 715.66,-92.1 778,-76 844.97,-58.7 922.28,-35.97 967.2,-22.48"/>
<polygon fill="midnightblue" stroke="midnightblue" points="968.25,-25.82 976.82,-19.58 966.23,-19.11 968.25,-25.82"/>
</g>
<!-- Node10&#45;&gt;Node4 -->
<g id="edge22" class="edge">
<title>Node10&#45;&gt;Node4</title>
<path fill="none" stroke="midnightblue" d="M537.24,-118C502.87,-104.61 433.84,-77.86 375,-56 344.27,-44.58 309.13,-31.97 283.95,-23.01"/>
<polygon fill="midnightblue" stroke="midnightblue" points="285.08,-19.7 274.48,-19.65 282.74,-26.29 285.08,-19.7"/>
</g>
<!-- Node10&#45;&gt;Node5 -->
<g id="edge15" class="edge">
<title>Node10&#45;&gt;Node5</title>
<path fill="none" stroke="midnightblue" d="M497.82,-117.98C419.9,-107.12 285.49,-88.39 203.1,-76.91"/>
<polygon fill="midnightblue" stroke="midnightblue" points="203.45,-73.42 193.07,-75.51 202.49,-80.36 203.45,-73.42"/>
</g>
<!-- Node10&#45;&gt;Node8 -->
<g id="edge16" class="edge">
<title>Node10&#45;&gt;Node8</title>
<path fill="none" stroke="midnightblue" d="M526.48,-117.98C486.44,-107.48 418.36,-89.64 374.3,-78.09"/>
<polygon fill="midnightblue" stroke="midnightblue" points="375.02,-74.66 364.46,-75.51 373.25,-81.43 375.02,-74.66"/>
</g>
<!-- Node11 -->
<g id="node11" class="node">
<title>Node11</title>
<g id="a_node11"><a xlink:title=" ">
<polygon fill="none" stroke="#bfbfbf" points="461.5,-56.5 461.5,-75.5 506.5,-75.5 506.5,-56.5 461.5,-56.5"/>
<text text-anchor="middle" x="484" y="-63.5" font-family="Helvetica,sans-Serif" font-size="10.00">utility</text>
</a>
</g>
</g>
<!-- Node10&#45;&gt;Node11 -->
<g id="edge17" class="edge">
<title>Node10&#45;&gt;Node11</title>
<path fill="none" stroke="midnightblue" d="M548.25,-117.98C536.45,-108.61 517.26,-93.38 502.92,-82.01"/>
<polygon fill="midnightblue" stroke="midnightblue" points="504.74,-78.98 494.73,-75.51 500.38,-84.47 504.74,-78.98"/>
</g>
<!-- Node12 -->
<g id="node12" class="node">
<title>Node12</title>
<g id="a_node12"><a xlink:href="_ignore_unused_8h.html" target="_top" xlink:title=" ">
<polygon fill="none" stroke="black" points="611,-56.5 611,-75.5 739,-75.5 739,-56.5 611,-56.5"/>
<text text-anchor="middle" x="675" y="-63.5" font-family="Helvetica,sans-Serif" font-size="10.00">../misc/IgnoreUnused.h</text>
</a>
</g>
</g>
<!-- Node10&#45;&gt;Node12 -->
<g id="edge18" class="edge">
<title>Node10&#45;&gt;Node12</title>
<path fill="none" stroke="midnightblue" d="M575.62,-117.98C594.92,-108.08 626.96,-91.64 649.43,-80.12"/>
<polygon fill="midnightblue" stroke="midnightblue" points="651.11,-83.19 658.41,-75.51 647.92,-76.96 651.11,-83.19"/>
</g>
<!-- Node13 -->
<g id="node13" class="node">
<title>Node13</title>
<g id="a_node13"><a xlink:title=" ">
<polygon fill="none" stroke="#bfbfbf" points="525,-56.5 525,-75.5 593,-75.5 593,-56.5 525,-56.5"/>
<text text-anchor="middle" x="559" y="-63.5" font-family="Helvetica,sans-Serif" font-size="10.00">filesystem</text>
</a>
</g>
</g>
<!-- Node10&#45;&gt;Node13 -->
<g id="edge23" class="edge">
<title>Node10&#45;&gt;Node13</title>
<path fill="none" stroke="midnightblue" d="M559,-117.98C559,-109.58 559,-96.48 559,-85.66"/>
<polygon fill="midnightblue" stroke="midnightblue" points="562.5,-85.51 559,-75.51 555.5,-85.51 562.5,-85.51"/>
</g>
<!-- Node12&#45;&gt;Node2 -->
<g id="edge20" class="edge">
<title>Node12&#45;&gt;Node2</title>
<path fill="none" stroke="midnightblue" d="M701.62,-56.44C730.01,-47.32 775.14,-32.81 806.75,-22.65"/>
<polygon fill="midnightblue" stroke="midnightblue" points="808.06,-25.91 816.5,-19.52 805.91,-19.24 808.06,-25.91"/>
</g>
<!-- Node12&#45;&gt;Node3 -->
<g id="edge19" class="edge">
<title>Node12&#45;&gt;Node3</title>
<path fill="none" stroke="midnightblue" d="M727.29,-56.44C788.23,-46.47 888.47,-30.07 950.39,-19.94"/>
<polygon fill="midnightblue" stroke="midnightblue" points="951.06,-23.37 960.36,-18.3 949.93,-16.47 951.06,-23.37"/>
</g>
<!-- Node12&#45;&gt;Node4 -->
<g id="edge21" class="edge">
<title>Node12&#45;&gt;Node4</title>
<path fill="none" stroke="midnightblue" d="M610.91,-56.86C529.58,-46.52 390.3,-28.83 310.64,-18.71"/>
<polygon fill="midnightblue" stroke="midnightblue" points="310.65,-15.18 300.28,-17.39 309.76,-22.12 310.65,-15.18"/>
</g>
<!-- Node14&#45;&gt;Node4 -->
<g id="edge25" class="edge">
<title>Node14&#45;&gt;Node4</title>
<path fill="none" stroke="midnightblue" d="M175.39,-112.08C186.34,-102.51 200.36,-89.3 211,-76 222.8,-61.26 233.62,-42.63 240.85,-29.1"/>
<polygon fill="midnightblue" stroke="midnightblue" points="244.13,-30.38 245.64,-19.89 237.92,-27.15 244.13,-30.38"/>
</g>
<!-- Node14&#45;&gt;Node5 -->
<g id="edge26" class="edge">
<title>Node14&#45;&gt;Node5</title>
<path fill="none" stroke="midnightblue" d="M151.84,-112.4C148.26,-104.2 143.7,-93.78 139.86,-84.99"/>
<polygon fill="midnightblue" stroke="midnightblue" points="142.99,-83.42 135.78,-75.66 136.58,-86.22 142.99,-83.42"/>
</g>
<!-- Node15&#45;&gt;Node2 -->
<g id="edge28" class="edge">
<title>Node15&#45;&gt;Node2</title>
<path fill="none" stroke="midnightblue" d="M648.43,-235.43C678.18,-201.11 789.03,-73.25 828.74,-27.45"/>
<polygon fill="midnightblue" stroke="midnightblue" points="831.38,-29.74 835.29,-19.9 826.09,-25.16 831.38,-29.74"/>
</g>
<!-- Node15&#45;&gt;Node3 -->
<g id="edge29" class="edge">
<title>Node15&#45;&gt;Node3</title>
<path fill="none" stroke="midnightblue" d="M679.65,-244.78C774.85,-244.27 1019.47,-227.7 1110,-76 1125.75,-49.61 1090.94,-32.39 1057.25,-22.35"/>
<polygon fill="midnightblue" stroke="midnightblue" points="1057.93,-18.91 1047.36,-19.59 1056.05,-25.65 1057.93,-18.91"/>
</g>
<!-- Node15&#45;&gt;Node4 -->
<g id="edge30" class="edge">
<title>Node15&#45;&gt;Node4</title>
<path fill="none" stroke="midnightblue" d="M623.83,-235.5C580.89,-214.27 465.32,-157.42 368,-112 332.67,-95.51 316.99,-102.07 288,-76 273.61,-63.06 263.15,-43.34 256.89,-29.02"/>
<polygon fill="midnightblue" stroke="midnightblue" points="260.11,-27.64 253.08,-19.72 253.63,-30.3 260.11,-27.64"/>
</g>
<!-- Node15&#45;&gt;Node5 -->
<g id="edge34" class="edge">
<title>Node15&#45;&gt;Node5</title>
<path fill="none" stroke="midnightblue" d="M602.13,-243.16C487.95,-239.77 157.67,-223.1 95,-143 80.39,-124.33 98.96,-98.95 114.64,-82.77"/>
<polygon fill="midnightblue" stroke="midnightblue" points="117.24,-85.13 121.96,-75.64 112.35,-80.12 117.24,-85.13"/>
</g>
<!-- Node15&#45;&gt;Node6 -->
<g id="edge35" class="edge">
<title>Node15&#45;&gt;Node6</title>
<path fill="none" stroke="midnightblue" d="M602.25,-235.86C557.51,-226.46 483.79,-210.97 434.58,-200.63"/>
<polygon fill="midnightblue" stroke="midnightblue" points="435.28,-197.2 424.77,-198.57 433.84,-204.05 435.28,-197.2"/>
</g>
<!-- Node16 -->
<g id="node16" class="node">
<title>Node16</title>
<g id="a_node16"><a xlink:href="2_dshape_8h.html" target="_top" xlink:title=" ">
<polygon fill="none" stroke="black" points="909,-56.5 909,-75.5 977,-75.5 977,-56.5 909,-56.5"/>
<text text-anchor="middle" x="943" y="-63.5" font-family="Helvetica,sans-Serif" font-size="10.00">2Dshape.h</text>
</a>
</g>
</g>
<!-- Node15&#45;&gt;Node16 -->
<g id="edge31" class="edge">
<title>Node15&#45;&gt;Node16</title>
<path fill="none" stroke="midnightblue" d="M679.55,-244.61C725.62,-243.53 803.23,-235.74 857,-199 898.65,-170.54 924.93,-114.57 936.36,-85.51"/>
<polygon fill="midnightblue" stroke="midnightblue" points="939.77,-86.39 940.02,-75.8 933.22,-83.92 939.77,-86.39"/>
</g>
<!-- Node16&#45;&gt;Node2 -->
<g id="edge32" class="edge">
<title>Node16&#45;&gt;Node2</title>
<path fill="none" stroke="midnightblue" d="M926.93,-56.32C911.04,-47.74 886.49,-34.49 868.04,-24.52"/>
<polygon fill="midnightblue" stroke="midnightblue" points="869.49,-21.33 859.03,-19.65 866.16,-27.49 869.49,-21.33"/>
</g>
<!-- Node16&#45;&gt;Node3 -->
<g id="edge33" class="edge">
<title>Node16&#45;&gt;Node3</title>
<path fill="none" stroke="midnightblue" d="M952.96,-56.32C962.13,-48.34 975.94,-36.31 987.03,-26.65"/>
<polygon fill="midnightblue" stroke="midnightblue" points="989.62,-29.04 994.86,-19.83 985.02,-23.76 989.62,-29.04"/>
</g>
<!-- Node17&#45;&gt;Node2 -->
<g id="edge37" class="edge">
<title>Node17&#45;&gt;Node2</title>
<path fill="none" stroke="midnightblue" d="M1032.98,-56.8C994.34,-47.48 931.13,-32.24 888.33,-21.93"/>
<polygon fill="midnightblue" stroke="midnightblue" points="888.99,-18.49 878.45,-19.55 887.35,-25.29 888.99,-18.49"/>
</g>
<!-- Node17&#45;&gt;Node3 -->
<g id="edge38" class="edge">
<title>Node17&#45;&gt;Node3</title>
<path fill="none" stroke="midnightblue" d="M1057.04,-56.32C1047.87,-48.34 1034.06,-36.31 1022.97,-26.65"/>
<polygon fill="midnightblue" stroke="midnightblue" points="1024.98,-23.76 1015.14,-19.83 1020.38,-29.04 1024.98,-23.76"/>
</g>
</g>
</svg>
