<?xml version="1.0" encoding="UTF-8" standalone="no"?>
<!DOCTYPE svg PUBLIC "-//W3C//DTD SVG 1.1//EN"
 "http://www.w3.org/Graphics/SVG/1.1/DTD/svg11.dtd">
<!-- Generated by graphviz version 2.43.0 (0)
 -->
<!-- Title: cylinder.h Pages: 1 -->
<svg width="1181pt" height="319pt"
 viewBox="0.00 0.00 1181.04 319.00" xmlns="http://www.w3.org/2000/svg" xmlns:xlink="http://www.w3.org/1999/xlink">
<g id="graph0" class="graph" transform="scale(1 1) rotate(0) translate(4 315)">
<title>cylinder.h</title>
<!-- Node1 -->
<g id="node1" class="node">
<title>Node1</title>
<g id="a_node1"><a xlink:title=" ">
<polygon fill="#bfbfbf" stroke="black" points="499,-291.5 499,-310.5 563,-310.5 563,-291.5 499,-291.5"/>
<text text-anchor="middle" x="531" y="-298.5" font-family="Helvetica,sans-Serif" font-size="10.00">cylinder.h</text>
</a>
</g>
</g>
<!-- Node2 -->
<g id="node2" class="node">
<title>Node2</title>
<g id="a_node2"><a xlink:href="limes__namespace_8h.html" target="_top" xlink:title=" ">
<polygon fill="none" stroke="black" points="397,-0.5 397,-19.5 511,-19.5 511,-0.5 397,-0.5"/>
<text text-anchor="middle" x="454" y="-7.5" font-family="Helvetica,sans-Serif" font-size="10.00">limes_namespace.h</text>
</a>
</g>
</g>
<!-- Node1&#45;&gt;Node2 -->
<g id="edge1" class="edge">
<title>Node1&#45;&gt;Node2</title>
<path fill="none" stroke="midnightblue" d="M498.81,-294.95C422.69,-282.09 238,-245.22 238,-190 238,-190 238,-190 238,-126.5 238,-94.05 233.61,-78.5 257,-56 275.51,-38.19 337.28,-26.04 386.78,-18.89"/>
<polygon fill="midnightblue" stroke="midnightblue" points="387.4,-22.34 396.82,-17.48 386.43,-15.41 387.4,-22.34"/>
</g>
<!-- Node3 -->
<g id="node3" class="node">
<title>Node3</title>
<g id="a_node3"><a xlink:title=" ">
<polygon fill="none" stroke="#bfbfbf" points="131.5,-0.5 131.5,-19.5 220.5,-19.5 220.5,-0.5 131.5,-0.5"/>
<text text-anchor="middle" x="176" y="-7.5" font-family="Helvetica,sans-Serif" font-size="10.00">limes_export.h</text>
</a>
</g>
</g>
<!-- Node1&#45;&gt;Node3 -->
<g id="edge2" class="edge">
<title>Node1&#45;&gt;Node3</title>
<path fill="none" stroke="midnightblue" d="M498.98,-300.23C384.18,-300.21 0,-292.5 0,-190 0,-190 0,-190 0,-126.5 0,-67.1 70.94,-36.57 122.74,-22.19"/>
<polygon fill="midnightblue" stroke="midnightblue" points="123.72,-25.55 132.49,-19.61 121.93,-18.79 123.72,-25.55"/>
</g>
<!-- Node4 -->
<g id="node4" class="node">
<title>Node4</title>
<g id="a_node4"><a xlink:title=" ">
<polygon fill="none" stroke="#bfbfbf" points="924,-0.5 924,-19.5 1024,-19.5 1024,-0.5 924,-0.5"/>
<text text-anchor="middle" x="974" y="-7.5" font-family="Helvetica,sans-Serif" font-size="10.00">limes_platform.h</text>
</a>
</g>
</g>
<!-- Node1&#45;&gt;Node4 -->
<g id="edge3" class="edge">
<title>Node1&#45;&gt;Node4</title>
<path fill="none" stroke="midnightblue" d="M563.23,-297.92C693.21,-289.12 1172,-252.45 1172,-190 1172,-190 1172,-190 1172,-126.5 1172,-94.05 1176.14,-78.75 1153,-56 1136.17,-39.45 1079.4,-27.04 1034.26,-19.49"/>
<polygon fill="midnightblue" stroke="midnightblue" points="1034.67,-16.01 1024.24,-17.86 1033.54,-22.92 1034.67,-16.01"/>
</g>
<!-- Node5 -->
<g id="node5" class="node">
<title>Node5</title>
<g id="a_node5"><a xlink:href="preprocessor_8h.html" target="_top" xlink:title=" ">
<polygon fill="none" stroke="black" points="1002.5,-56.5 1002.5,-75.5 1143.5,-75.5 1143.5,-56.5 1002.5,-56.5"/>
<text text-anchor="middle" x="1073" y="-63.5" font-family="Helvetica,sans-Serif" font-size="10.00">../../../misc/preprocessor.h</text>
</a>
</g>
</g>
<!-- Node1&#45;&gt;Node5 -->
<g id="edge4" class="edge">
<title>Node1&#45;&gt;Node5</title>
<path fill="none" stroke="midnightblue" d="M563.01,-296.82C640.33,-288.34 842.47,-261.46 999,-199 1043.46,-181.26 1067.55,-184.73 1091,-143 1101.34,-124.6 1092.45,-100.47 1083.89,-84.39"/>
<polygon fill="midnightblue" stroke="midnightblue" points="1086.81,-82.44 1078.78,-75.53 1080.75,-85.94 1086.81,-82.44"/>
</g>
<!-- Node6 -->
<g id="node6" class="node">
<title>Node6</title>
<g id="a_node6"><a xlink:href="math_helpers_8h.html" target="_top" xlink:title=" ">
<polygon fill="none" stroke="black" points="630.5,-179.5 630.5,-198.5 737.5,-198.5 737.5,-179.5 630.5,-179.5"/>
<text text-anchor="middle" x="684" y="-186.5" font-family="Helvetica,sans-Serif" font-size="10.00">../../mathHelpers.h</text>
</a>
</g>
</g>
<!-- Node1&#45;&gt;Node6 -->
<g id="edge6" class="edge">
<title>Node1&#45;&gt;Node6</title>
<path fill="none" stroke="midnightblue" d="M543.01,-291.37C569.15,-272.57 631.47,-227.77 663.79,-204.53"/>
<polygon fill="midnightblue" stroke="midnightblue" points="665.97,-207.27 672.05,-198.59 661.89,-201.59 665.97,-207.27"/>
</g>
<!-- Node15 -->
<g id="node15" class="node">
<title>Node15</title>
<g id="a_node15"><a xlink:href="circle_8h.html" target="_top" xlink:title=" ">
<polygon fill="none" stroke="black" points="492.5,-235.5 492.5,-254.5 569.5,-254.5 569.5,-235.5 492.5,-235.5"/>
<text text-anchor="middle" x="531" y="-242.5" font-family="Helvetica,sans-Serif" font-size="10.00">../2D/circle.h</text>
</a>
</g>
</g>
<!-- Node1&#45;&gt;Node15 -->
<g id="edge26" class="edge">
<title>Node1&#45;&gt;Node15</title>
<path fill="none" stroke="midnightblue" d="M531,-291.08C531,-284.01 531,-273.86 531,-264.99"/>
<polygon fill="midnightblue" stroke="midnightblue" points="534.5,-264.75 531,-254.75 527.5,-264.75 534.5,-264.75"/>
</g>
<!-- Node17 -->
<g id="node17" class="node">
<title>Node17</title>
<g id="a_node17"><a xlink:href="3_dshape_8h.html" target="_top" xlink:title=" ">
<polygon fill="none" stroke="black" points="142,-56.5 142,-75.5 210,-75.5 210,-56.5 142,-56.5"/>
<text text-anchor="middle" x="176" y="-63.5" font-family="Helvetica,sans-Serif" font-size="10.00">3Dshape.h</text>
</a>
</g>
</g>
<!-- Node1&#45;&gt;Node17 -->
<g id="edge35" class="edge">
<title>Node1&#45;&gt;Node17</title>
<path fill="none" stroke="midnightblue" d="M498.84,-299.65C428.48,-298.22 263.98,-291.01 224,-255 175,-210.87 172.87,-124.31 174.58,-86.01"/>
<polygon fill="midnightblue" stroke="midnightblue" points="178.09,-85.96 175.19,-75.77 171.1,-85.54 178.09,-85.96"/>
</g>
<!-- Node5&#45;&gt;Node4 -->
<g id="edge5" class="edge">
<title>Node5&#45;&gt;Node4</title>
<path fill="none" stroke="midnightblue" d="M1057.09,-56.32C1041.36,-47.74 1017.06,-34.49 998.79,-24.52"/>
<polygon fill="midnightblue" stroke="midnightblue" points="1000.32,-21.37 989.87,-19.65 996.97,-27.52 1000.32,-21.37"/>
</g>
<!-- Node6&#45;&gt;Node2 -->
<g id="edge7" class="edge">
<title>Node6&#45;&gt;Node2</title>
<path fill="none" stroke="midnightblue" d="M662.61,-179.37C645.86,-171.77 622.82,-159.36 607,-143 576.45,-111.41 592.5,-85.58 560,-56 542.97,-40.5 519.82,-29.84 499.49,-22.8"/>
<polygon fill="midnightblue" stroke="midnightblue" points="500.37,-19.41 489.78,-19.63 498.2,-26.06 500.37,-19.41"/>
</g>
<!-- Node6&#45;&gt;Node3 -->
<g id="edge10" class="edge">
<title>Node6&#45;&gt;Node3</title>
<path fill="none" stroke="midnightblue" d="M630.06,-185.4C503.9,-178.07 195.54,-152.53 133,-76 119.8,-59.85 138.09,-39.59 154.72,-26.01"/>
<polygon fill="midnightblue" stroke="midnightblue" points="157.3,-28.45 163.1,-19.59 153.04,-22.9 157.3,-28.45"/>
</g>
<!-- Node7 -->
<g id="node7" class="node">
<title>Node7</title>
<g id="a_node7"><a xlink:title=" ">
<polygon fill="none" stroke="#bfbfbf" points="808.5,-118 808.5,-137 855.5,-137 855.5,-118 808.5,-118"/>
<text text-anchor="middle" x="832" y="-125" font-family="Helvetica,sans-Serif" font-size="10.00">cmath</text>
</a>
</g>
</g>
<!-- Node6&#45;&gt;Node7 -->
<g id="edge8" class="edge">
<title>Node6&#45;&gt;Node7</title>
<path fill="none" stroke="midnightblue" d="M705.2,-179.48C730.37,-169.36 772.54,-152.4 801.28,-140.85"/>
<polygon fill="midnightblue" stroke="midnightblue" points="802.86,-143.99 810.83,-137.01 800.25,-137.49 802.86,-143.99"/>
</g>
<!-- Node8 -->
<g id="node8" class="node">
<title>Node8</title>
<g id="a_node8"><a xlink:title=" ">
<polygon fill="none" stroke="#bfbfbf" points="876.5,-56.5 876.5,-75.5 945.5,-75.5 945.5,-56.5 876.5,-56.5"/>
<text text-anchor="middle" x="911" y="-63.5" font-family="Helvetica,sans-Serif" font-size="10.00">type_traits</text>
</a>
</g>
</g>
<!-- Node6&#45;&gt;Node8 -->
<g id="edge9" class="edge">
<title>Node6&#45;&gt;Node8</title>
<path fill="none" stroke="midnightblue" d="M700.34,-179.34C716.21,-170.72 740.81,-156.82 761,-143 779.27,-130.49 780.88,-123.16 800,-112 823.52,-98.27 852.02,-86.82 874.25,-78.9"/>
<polygon fill="midnightblue" stroke="midnightblue" points="875.69,-82.1 883.98,-75.51 873.39,-75.49 875.69,-82.1"/>
</g>
<!-- Node9 -->
<g id="node9" class="node">
<title>Node9</title>
<g id="a_node9"><a xlink:title=" ">
<polygon fill="none" stroke="#bfbfbf" points="874,-118 874,-137 938,-137 938,-118 874,-118"/>
<text text-anchor="middle" x="906" y="-125" font-family="Helvetica,sans-Serif" font-size="10.00">algorithm</text>
</a>
</g>
</g>
<!-- Node6&#45;&gt;Node9 -->
<g id="edge11" class="edge">
<title>Node6&#45;&gt;Node9</title>
<path fill="none" stroke="midnightblue" d="M722.78,-179.5C759.63,-171.15 816.47,-157.58 865,-143 867.78,-142.17 870.65,-141.25 873.52,-140.31"/>
<polygon fill="midnightblue" stroke="midnightblue" points="874.81,-143.57 883.14,-137.02 872.55,-136.94 874.81,-143.57"/>
</g>
<!-- Node10 -->
<g id="node10" class="node">
<title>Node10</title>
<g id="a_node10"><a xlink:href="limes__assert_8h.html" target="_top" xlink:title=" ">
<polygon fill="none" stroke="black" points="616,-118 616,-137 752,-137 752,-118 616,-118"/>
<text text-anchor="middle" x="684" y="-125" font-family="Helvetica,sans-Serif" font-size="10.00">../system/limes_assert.h</text>
</a>
</g>
</g>
<!-- Node6&#45;&gt;Node10 -->
<g id="edge12" class="edge">
<title>Node6&#45;&gt;Node10</title>
<path fill="none" stroke="midnightblue" d="M684,-179.48C684,-171.08 684,-157.98 684,-147.16"/>
<polygon fill="midnightblue" stroke="midnightblue" points="687.5,-147.01 684,-137.01 680.5,-147.01 687.5,-147.01"/>
</g>
<!-- Node14 -->
<g id="node14" class="node">
<title>Node14</title>
<g id="a_node14"><a xlink:href="compiler__defs_8h.html" target="_top" xlink:title=" ">
<polygon fill="none" stroke="black" points="956.5,-112.5 956.5,-142.5 1063.5,-142.5 1063.5,-112.5 956.5,-112.5"/>
<text text-anchor="start" x="964.5" y="-130.5" font-family="Helvetica,sans-Serif" font-size="10.00">../system/compiler</text>
<text text-anchor="middle" x="1010" y="-119.5" font-family="Helvetica,sans-Serif" font-size="10.00">_defs.h</text>
</a>
</g>
</g>
<!-- Node6&#45;&gt;Node14 -->
<g id="edge23" class="edge">
<title>Node6&#45;&gt;Node14</title>
<path fill="none" stroke="midnightblue" d="M737.56,-179.75C788.63,-171.68 867.95,-158.6 946.37,-143.06"/>
<polygon fill="midnightblue" stroke="midnightblue" points="947.31,-146.44 956.43,-141.05 945.94,-139.57 947.31,-146.44"/>
</g>
<!-- Node10&#45;&gt;Node2 -->
<g id="edge14" class="edge">
<title>Node10&#45;&gt;Node2</title>
<path fill="none" stroke="midnightblue" d="M675.78,-117.87C661.35,-103.18 629.94,-73.23 598,-56 569.03,-40.37 533.8,-29.24 505.43,-21.96"/>
<polygon fill="midnightblue" stroke="midnightblue" points="506.26,-18.56 495.71,-19.54 504.57,-25.35 506.26,-18.56"/>
</g>
<!-- Node10&#45;&gt;Node3 -->
<g id="edge13" class="edge">
<title>Node10&#45;&gt;Node3</title>
<path fill="none" stroke="midnightblue" d="M615.7,-121.38C553.28,-115.24 459.09,-102.29 381,-76 362.91,-69.91 360.77,-62.97 343,-56 305.38,-41.24 261.16,-29.56 227.68,-21.81"/>
<polygon fill="midnightblue" stroke="midnightblue" points="228.18,-18.33 217.65,-19.53 226.63,-25.16 228.18,-18.33"/>
</g>
<!-- Node10&#45;&gt;Node4 -->
<g id="edge21" class="edge">
<title>Node10&#45;&gt;Node4</title>
<path fill="none" stroke="midnightblue" d="M712.24,-117.95C741.78,-108.7 789.3,-93 829,-76 846.91,-68.33 850.36,-64.26 868,-56 893.01,-44.3 921.89,-32.12 943.18,-23.39"/>
<polygon fill="midnightblue" stroke="midnightblue" points="944.75,-26.54 952.68,-19.52 942.1,-20.05 944.75,-26.54"/>
</g>
<!-- Node10&#45;&gt;Node5 -->
<g id="edge15" class="edge">
<title>Node10&#45;&gt;Node5</title>
<path fill="none" stroke="midnightblue" d="M739.73,-117.98C810.36,-107.17 931.92,-88.58 1007.08,-77.08"/>
<polygon fill="midnightblue" stroke="midnightblue" points="1008.01,-80.48 1017.37,-75.51 1006.95,-73.56 1008.01,-80.48"/>
</g>
<!-- Node10&#45;&gt;Node8 -->
<g id="edge16" class="edge">
<title>Node10&#45;&gt;Node8</title>
<path fill="none" stroke="midnightblue" d="M716.52,-117.98C756.56,-107.48 824.64,-89.64 868.7,-78.09"/>
<polygon fill="midnightblue" stroke="midnightblue" points="869.75,-81.43 878.54,-75.51 867.98,-74.66 869.75,-81.43"/>
</g>
<!-- Node11 -->
<g id="node11" class="node">
<title>Node11</title>
<g id="a_node11"><a xlink:title=" ">
<polygon fill="none" stroke="#bfbfbf" points="688.5,-56.5 688.5,-75.5 733.5,-75.5 733.5,-56.5 688.5,-56.5"/>
<text text-anchor="middle" x="711" y="-63.5" font-family="Helvetica,sans-Serif" font-size="10.00">utility</text>
</a>
</g>
</g>
<!-- Node10&#45;&gt;Node11 -->
<g id="edge17" class="edge">
<title>Node10&#45;&gt;Node11</title>
<path fill="none" stroke="midnightblue" d="M687.87,-117.98C691.8,-109.32 698,-95.65 702.99,-84.65"/>
<polygon fill="midnightblue" stroke="midnightblue" points="706.19,-86.06 707.14,-75.51 699.82,-83.17 706.19,-86.06"/>
</g>
<!-- Node12 -->
<g id="node12" class="node">
<title>Node12</title>
<g id="a_node12"><a xlink:href="_ignore_unused_8h.html" target="_top" xlink:title=" ">
<polygon fill="none" stroke="black" points="390,-56.5 390,-75.5 518,-75.5 518,-56.5 390,-56.5"/>
<text text-anchor="middle" x="454" y="-63.5" font-family="Helvetica,sans-Serif" font-size="10.00">../misc/IgnoreUnused.h</text>
</a>
</g>
</g>
<!-- Node10&#45;&gt;Node12 -->
<g id="edge18" class="edge">
<title>Node10&#45;&gt;Node12</title>
<path fill="none" stroke="midnightblue" d="M651.05,-117.98C610.4,-107.46 541.21,-89.56 496.58,-78.01"/>
<polygon fill="midnightblue" stroke="midnightblue" points="497.45,-74.63 486.89,-75.51 495.7,-81.4 497.45,-74.63"/>
</g>
<!-- Node13 -->
<g id="node13" class="node">
<title>Node13</title>
<g id="a_node13"><a xlink:title=" ">
<polygon fill="none" stroke="#bfbfbf" points="752,-56.5 752,-75.5 820,-75.5 820,-56.5 752,-56.5"/>
<text text-anchor="middle" x="786" y="-63.5" font-family="Helvetica,sans-Serif" font-size="10.00">filesystem</text>
</a>
</g>
</g>
<!-- Node10&#45;&gt;Node13 -->
<g id="edge22" class="edge">
<title>Node10&#45;&gt;Node13</title>
<path fill="none" stroke="midnightblue" d="M698.61,-117.98C715.35,-108.21 743,-92.08 762.72,-80.58"/>
<polygon fill="midnightblue" stroke="midnightblue" points="764.54,-83.57 771.41,-75.51 761.01,-77.52 764.54,-83.57"/>
</g>
<!-- Node12&#45;&gt;Node2 -->
<g id="edge20" class="edge">
<title>Node12&#45;&gt;Node2</title>
<path fill="none" stroke="midnightblue" d="M454,-56.08C454,-49.01 454,-38.86 454,-29.99"/>
<polygon fill="midnightblue" stroke="midnightblue" points="457.5,-29.75 454,-19.75 450.5,-29.75 457.5,-29.75"/>
</g>
<!-- Node12&#45;&gt;Node3 -->
<g id="edge19" class="edge">
<title>Node12&#45;&gt;Node3</title>
<path fill="none" stroke="midnightblue" d="M409.95,-56.44C361.15,-46.96 282.44,-31.67 229.97,-21.48"/>
<polygon fill="midnightblue" stroke="midnightblue" points="230.33,-17.99 219.84,-19.52 228.99,-24.86 230.33,-17.99"/>
</g>
<!-- Node14&#45;&gt;Node4 -->
<g id="edge24" class="edge">
<title>Node14&#45;&gt;Node4</title>
<path fill="none" stroke="midnightblue" d="M1005.49,-112.36C1002.26,-102.24 997.84,-88.29 994,-76 989.11,-60.33 983.63,-42.5 979.64,-29.49"/>
<polygon fill="midnightblue" stroke="midnightblue" points="982.96,-28.38 976.69,-19.84 976.27,-30.42 982.96,-28.38"/>
</g>
<!-- Node14&#45;&gt;Node5 -->
<g id="edge25" class="edge">
<title>Node14&#45;&gt;Node5</title>
<path fill="none" stroke="midnightblue" d="M1024.93,-112.4C1034.37,-103.49 1046.58,-91.95 1056.33,-82.74"/>
<polygon fill="midnightblue" stroke="midnightblue" points="1058.97,-85.07 1063.83,-75.66 1054.16,-79.98 1058.97,-85.07"/>
</g>
<!-- Node15&#45;&gt;Node2 -->
<g id="edge27" class="edge">
<title>Node15&#45;&gt;Node2</title>
<path fill="none" stroke="midnightblue" d="M531.3,-235.3C532.43,-200.39 535.96,-71.65 527,-56 518.63,-41.37 503.39,-30.88 488.99,-23.73"/>
<polygon fill="midnightblue" stroke="midnightblue" points="490.28,-20.47 479.73,-19.5 487.37,-26.84 490.28,-20.47"/>
</g>
<!-- Node15&#45;&gt;Node3 -->
<g id="edge28" class="edge">
<title>Node15&#45;&gt;Node3</title>
<path fill="none" stroke="midnightblue" d="M492.34,-239.75C425.22,-230.92 284.8,-205.88 185,-143 151.18,-121.69 139.27,-113.34 125,-76 121.83,-67.7 121.34,-64.1 125,-56 130.62,-43.56 141.56,-33.17 151.88,-25.53"/>
<polygon fill="midnightblue" stroke="midnightblue" points="154.01,-28.31 160.27,-19.76 150.04,-22.54 154.01,-28.31"/>
</g>
<!-- Node15&#45;&gt;Node4 -->
<g id="edge29" class="edge">
<title>Node15&#45;&gt;Node4</title>
<path fill="none" stroke="midnightblue" d="M534.59,-235.23C544.03,-212.89 571.28,-152.78 607,-112 633.95,-81.24 642.39,-72.04 680,-56 756.22,-23.49 852.4,-14.06 913.57,-11.54"/>
<polygon fill="midnightblue" stroke="midnightblue" points="913.96,-15.03 923.83,-11.17 913.71,-8.04 913.96,-15.03"/>
</g>
<!-- Node15&#45;&gt;Node5 -->
<g id="edge33" class="edge">
<title>Node15&#45;&gt;Node5</title>
<path fill="none" stroke="midnightblue" d="M569.77,-242.92C682.88,-238.88 1008.54,-220.58 1073,-143 1086.14,-127.18 1083.28,-102.45 1079.03,-85.53"/>
<polygon fill="midnightblue" stroke="midnightblue" points="1082.33,-84.34 1076.19,-75.7 1075.61,-86.28 1082.33,-84.34"/>
</g>
<!-- Node15&#45;&gt;Node6 -->
<g id="edge34" class="edge">
<title>Node15&#45;&gt;Node6</title>
<path fill="none" stroke="midnightblue" d="M555.24,-235.44C580.87,-226.4 621.49,-212.06 650.24,-201.92"/>
<polygon fill="midnightblue" stroke="midnightblue" points="651.61,-205.15 659.87,-198.52 649.28,-198.54 651.61,-205.15"/>
</g>
<!-- Node16 -->
<g id="node16" class="node">
<title>Node16</title>
<g id="a_node16"><a xlink:href="2_dshape_8h.html" target="_top" xlink:title=" ">
<polygon fill="none" stroke="black" points="266,-56.5 266,-75.5 334,-75.5 334,-56.5 266,-56.5"/>
<text text-anchor="middle" x="300" y="-63.5" font-family="Helvetica,sans-Serif" font-size="10.00">2Dshape.h</text>
</a>
</g>
</g>
<!-- Node15&#45;&gt;Node16 -->
<g id="edge30" class="edge">
<title>Node15&#45;&gt;Node16</title>
<path fill="none" stroke="midnightblue" d="M519.86,-235.46C483.2,-207.37 366.01,-117.58 319.39,-81.86"/>
<polygon fill="midnightblue" stroke="midnightblue" points="321.37,-78.96 311.3,-75.66 317.11,-84.52 321.37,-78.96"/>
</g>
<!-- Node16&#45;&gt;Node2 -->
<g id="edge31" class="edge">
<title>Node16&#45;&gt;Node2</title>
<path fill="none" stroke="midnightblue" d="M324.4,-56.44C350.2,-47.4 391.08,-33.06 420.02,-22.92"/>
<polygon fill="midnightblue" stroke="midnightblue" points="421.43,-26.13 429.71,-19.52 419.12,-19.52 421.43,-26.13"/>
</g>
<!-- Node16&#45;&gt;Node3 -->
<g id="edge32" class="edge">
<title>Node16&#45;&gt;Node3</title>
<path fill="none" stroke="midnightblue" d="M280.35,-56.44C260.04,-47.6 228.1,-33.69 204.9,-23.59"/>
<polygon fill="midnightblue" stroke="midnightblue" points="206.12,-20.3 195.56,-19.52 203.33,-26.72 206.12,-20.3"/>
</g>
<!-- Node17&#45;&gt;Node2 -->
<g id="edge36" class="edge">
<title>Node17&#45;&gt;Node2</title>
<path fill="none" stroke="midnightblue" d="M210.09,-58.38C257.45,-49.18 343.67,-32.43 399.88,-21.51"/>
<polygon fill="midnightblue" stroke="midnightblue" points="400.86,-24.89 410.01,-19.55 399.52,-18.02 400.86,-24.89"/>
</g>
<!-- Node17&#45;&gt;Node3 -->
<g id="edge37" class="edge">
<title>Node17&#45;&gt;Node3</title>
<path fill="none" stroke="midnightblue" d="M176,-56.08C176,-49.01 176,-38.86 176,-29.99"/>
<polygon fill="midnightblue" stroke="midnightblue" points="179.5,-29.75 176,-19.75 172.5,-29.75 179.5,-29.75"/>
</g>
</g>
</svg>
