<?xml version="1.0" encoding="UTF-8" standalone="no"?>
<!DOCTYPE svg PUBLIC "-//W3C//DTD SVG 1.1//EN"
 "http://www.w3.org/Graphics/SVG/1.1/DTD/svg11.dtd">
<!-- Generated by graphviz version 2.43.0 (0)
 -->
<!-- Title: cylinder.h Pages: 1 -->
<!--zoomable 308 -->
<svg id="main" version="1.1" xmlns="http://www.w3.org/2000/svg" xmlns:xlink="http://www.w3.org/1999/xlink" xml:space="preserve" onload="init(evt)">
<style type="text/css"><![CDATA[
.edge:hover path { stroke: red; }
.edge:hover polygon { stroke: red; fill: red; }
]]></style>
<script type="text/javascript"><![CDATA[
var edges = document.getElementsByTagName('g');
if (edges && edges.length) {
  for (var i=0;i<edges.length;i++) {
    if (edges[i].id.substr(0,4)=='edge') {
      edges[i].setAttribute('class','edge');
    }
  }
}
]]></script>
        <defs>
                <circle id="rim" cx="0" cy="0" r="7"/>
                <circle id="rim2" cx="0" cy="0" r="3.5"/>
                <g id="zoomPlus">
                        <use xlink:href="#rim" fill="#404040">
                                <set attributeName="fill" to="#808080" begin="zoomplus.mouseover" end="zoomplus.mouseout"/>
                        </use>
                        <path d="M-4,0h8M0,-4v8" fill="none" stroke="white" stroke-width="1.5" pointer-events="none"/>
                </g>
                <g id="zoomMin">
                        <use xlink:href="#rim" fill="#404040">
                                <set attributeName="fill" to="#808080" begin="zoomminus.mouseover" end="zoomminus.mouseout"/>
                        </use>
                        <path d="M-4,0h8" fill="none" stroke="white" stroke-width="1.5" pointer-events="none"/>
                </g>
                <g id="dirArrow">
                        <path fill="none" stroke="white" stroke-width="1.5" d="M0,-3.0v7 M-2.5,-0.5L0,-3.0L2.5,-0.5"/>
                </g>
               <g id="resetDef">
                       <use xlink:href="#rim2" fill="#404040">
                               <set attributeName="fill" to="#808080" begin="reset.mouseover" end="reset.mouseout"/>
                       </use>
               </g>
        </defs>

<script type="text/javascript">
var viewWidth = 1104;
var viewHeight = 308;
var sectionId = 'dynsection-0';
</script>
<script xlink:href="svgpan.js"/>
<svg id="graph" class="graph">
<g id="viewport">
<title>cylinder.h</title>
<!-- Node1 -->
<g id="node1" class="node">
<title>Node1</title>
<g id="a_node1"><a xlink:title=" ">
<polygon fill="#bfbfbf" stroke="black" points="704,-280.5 704,-299.5 768,-299.5 768,-280.5 704,-280.5"/>
<text text-anchor="middle" x="736" y="-287.5" font-family="Helvetica,sans-Serif" font-size="10.00">cylinder.h</text>
</a>
</g>
</g>
<!-- Node2 -->
<g id="node2" class="node">
<title>Node2</title>
<g id="a_node2"><a xlink:href="limes__namespace_8h.html" target="_top" xlink:title=" ">
<polygon fill="none" stroke="black" points="105,-0.5 105,-19.5 219,-19.5 219,-0.5 105,-0.5"/>
<text text-anchor="middle" x="162" y="-7.5" font-family="Helvetica,sans-Serif" font-size="10.00">limes_namespace.h</text>
</a>
</g>
</g>
<!-- Node1&#45;&gt;Node2 -->
<g id="edge1" class="edge">
<title>Node1&#45;&gt;Node2</title>
<path fill="none" stroke="midnightblue" d="M703.9,-287.64C562.24,-281.24 0,-251.27 0,-179 0,-179 0,-179 0,-121 0,-65.93 64.86,-36.51 112.5,-22.33"/>
<polygon fill="midnightblue" stroke="midnightblue" points="113.7,-25.63 122.37,-19.53 111.79,-18.89 113.7,-25.63"/>
</g>
<!-- Node3 -->
<g id="node3" class="node">
<title>Node3</title>
<g id="a_node3"><a xlink:title=" ">
<polygon fill="none" stroke="#bfbfbf" points="663.5,-0.5 663.5,-19.5 752.5,-19.5 752.5,-0.5 663.5,-0.5"/>
<text text-anchor="middle" x="708" y="-7.5" font-family="Helvetica,sans-Serif" font-size="10.00">limes_export.h</text>
</a>
</g>
</g>
<!-- Node1&#45;&gt;Node3 -->
<g id="edge2" class="edge">
<title>Node1&#45;&gt;Node3</title>
<path fill="none" stroke="midnightblue" d="M768.05,-285.01C849.5,-274 1058,-239.85 1058,-179 1058,-179 1058,-179 1058,-121 1058,-82.58 1034.69,-74.48 1001,-56 961.06,-34.09 836.23,-20.96 763.02,-14.95"/>
<polygon fill="midnightblue" stroke="midnightblue" points="762.86,-11.43 752.61,-14.11 762.3,-18.4 762.86,-11.43"/>
</g>
<!-- Node4 -->
<g id="node4" class="node">
<title>Node4</title>
<g id="a_node4"><a xlink:title=" ">
<polygon fill="none" stroke="#bfbfbf" points="920,-0.5 920,-19.5 1020,-19.5 1020,-0.5 920,-0.5"/>
<text text-anchor="middle" x="970" y="-7.5" font-family="Helvetica,sans-Serif" font-size="10.00">limes_platform.h</text>
</a>
</g>
</g>
<!-- Node1&#45;&gt;Node4 -->
<g id="edge3" class="edge">
<title>Node1&#45;&gt;Node4</title>
<path fill="none" stroke="midnightblue" d="M768.34,-288.26C820.2,-286.06 924.3,-277.46 1005,-244 1050.91,-224.97 1096,-228.7 1096,-179 1096,-179 1096,-179 1096,-121 1096,-71.95 1041.15,-39.74 1003.83,-23.5"/>
<polygon fill="midnightblue" stroke="midnightblue" points="1004.87,-20.14 994.29,-19.53 1002.18,-26.61 1004.87,-20.14"/>
</g>
<!-- Node5 -->
<g id="node5" class="node">
<title>Node5</title>
<g id="a_node5"><a xlink:href="preprocessor_8h.html" target="_top" xlink:title=" ">
<polygon fill="none" stroke="black" points="850.5,-56.5 850.5,-75.5 991.5,-75.5 991.5,-56.5 850.5,-56.5"/>
<text text-anchor="middle" x="921" y="-63.5" font-family="Helvetica,sans-Serif" font-size="10.00">../../../misc/preprocessor.h</text>
</a>
</g>
</g>
<!-- Node1&#45;&gt;Node5 -->
<g id="edge4" class="edge">
<title>Node1&#45;&gt;Node5</title>
<path fill="none" stroke="midnightblue" d="M750.74,-280.48C784.68,-259.94 868.22,-204.05 904,-132 911.3,-117.31 915.71,-99.14 918.2,-85.76"/>
<polygon fill="midnightblue" stroke="midnightblue" points="921.66,-86.25 919.86,-75.81 914.76,-85.1 921.66,-86.25"/>
</g>
<!-- Node6 -->
<g id="node6" class="node">
<title>Node6</title>
<g id="a_node6"><a xlink:href="math_helpers_8h.html" target="_top" xlink:title=" ">
<polygon fill="none" stroke="black" points="537.5,-168.5 537.5,-187.5 644.5,-187.5 644.5,-168.5 537.5,-168.5"/>
<text text-anchor="middle" x="591" y="-175.5" font-family="Helvetica,sans-Serif" font-size="10.00">../../mathHelpers.h</text>
</a>
</g>
</g>
<!-- Node1&#45;&gt;Node6 -->
<g id="edge6" class="edge">
<title>Node1&#45;&gt;Node6</title>
<path fill="none" stroke="midnightblue" d="M724.62,-280.37C699.95,-261.65 641.29,-217.15 610.55,-193.83"/>
<polygon fill="midnightblue" stroke="midnightblue" points="612.41,-190.85 602.33,-187.59 608.18,-196.42 612.41,-190.85"/>
</g>
<!-- Node14 -->
<g id="node14" class="node">
<title>Node14</title>
<g id="a_node14"><a xlink:href="circle_8h.html" target="_top" xlink:title=" ">
<polygon fill="none" stroke="black" points="697.5,-224.5 697.5,-243.5 774.5,-243.5 774.5,-224.5 697.5,-224.5"/>
<text text-anchor="middle" x="736" y="-231.5" font-family="Helvetica,sans-Serif" font-size="10.00">../2D/circle.h</text>
</a>
</g>
</g>
<!-- Node1&#45;&gt;Node14 -->
<g id="edge23" class="edge">
<title>Node1&#45;&gt;Node14</title>
<path fill="none" stroke="midnightblue" d="M736,-280.08C736,-273.01 736,-262.86 736,-253.99"/>
<polygon fill="midnightblue" stroke="midnightblue" points="739.5,-253.75 736,-243.75 732.5,-253.75 739.5,-253.75"/>
</g>
<!-- Node16 -->
<g id="node16" class="node">
<title>Node16</title>
<g id="a_node16"><a xlink:href="3_dshape_8h.html" target="_top" xlink:title=" ">
<polygon fill="none" stroke="black" points="66,-56.5 66,-75.5 134,-75.5 134,-56.5 66,-56.5"/>
<text text-anchor="middle" x="100" y="-63.5" font-family="Helvetica,sans-Serif" font-size="10.00">3Dshape.h</text>
</a>
</g>
</g>
<!-- Node1&#45;&gt;Node16 -->
<g id="edge32" class="edge">
<title>Node1&#45;&gt;Node16</title>
<path fill="none" stroke="midnightblue" d="M706.49,-280.44C630.43,-258.17 421.76,-195.68 252,-132 208.06,-115.52 158.24,-93.57 127.98,-79.87"/>
<polygon fill="midnightblue" stroke="midnightblue" points="129.05,-76.51 118.5,-75.55 126.15,-82.88 129.05,-76.51"/>
</g>
<!-- Node5&#45;&gt;Node4 -->
<g id="edge5" class="edge">
<title>Node5&#45;&gt;Node4</title>
<path fill="none" stroke="midnightblue" d="M929.09,-56.08C936.16,-48.3 946.59,-36.8 955.15,-27.37"/>
<polygon fill="midnightblue" stroke="midnightblue" points="957.93,-29.51 962.06,-19.75 952.75,-24.8 957.93,-29.51"/>
</g>
<!-- Node6&#45;&gt;Node2 -->
<g id="edge7" class="edge">
<title>Node6&#45;&gt;Node2</title>
<path fill="none" stroke="midnightblue" d="M537.5,-170.64C438.29,-157.77 231.31,-125.61 181,-76 168.85,-64.01 164.37,-44.72 162.77,-30.26"/>
<polygon fill="midnightblue" stroke="midnightblue" points="166.23,-29.65 162.01,-19.93 159.25,-30.16 166.23,-29.65"/>
</g>
<!-- Node6&#45;&gt;Node3 -->
<g id="edge10" class="edge">
<title>Node6&#45;&gt;Node3</title>
<path fill="none" stroke="midnightblue" d="M644.67,-173.91C674.09,-169.14 708.29,-157.91 727,-132 749.43,-100.96 730.9,-53.71 717.94,-28.42"/>
<polygon fill="midnightblue" stroke="midnightblue" points="721.01,-26.74 713.18,-19.6 714.84,-30.06 721.01,-26.74"/>
</g>
<!-- Node7 -->
<g id="node7" class="node">
<title>Node7</title>
<g id="a_node7"><a xlink:title=" ">
<polygon fill="none" stroke="#bfbfbf" points="434.5,-112.5 434.5,-131.5 481.5,-131.5 481.5,-112.5 434.5,-112.5"/>
<text text-anchor="middle" x="458" y="-119.5" font-family="Helvetica,sans-Serif" font-size="10.00">cmath</text>
</a>
</g>
</g>
<!-- Node6&#45;&gt;Node7 -->
<g id="edge8" class="edge">
<title>Node6&#45;&gt;Node7</title>
<path fill="none" stroke="midnightblue" d="M569.93,-168.44C547.94,-159.52 513.27,-145.44 488.34,-135.32"/>
<polygon fill="midnightblue" stroke="midnightblue" points="489.56,-132.04 478.98,-131.52 486.92,-138.52 489.56,-132.04"/>
</g>
<!-- Node8 -->
<g id="node8" class="node">
<title>Node8</title>
<g id="a_node8"><a xlink:title=" ">
<polygon fill="none" stroke="#bfbfbf" points="276.5,-56.5 276.5,-75.5 345.5,-75.5 345.5,-56.5 276.5,-56.5"/>
<text text-anchor="middle" x="311" y="-63.5" font-family="Helvetica,sans-Serif" font-size="10.00">type_traits</text>
</a>
</g>
</g>
<!-- Node6&#45;&gt;Node8 -->
<g id="edge9" class="edge">
<title>Node6&#45;&gt;Node8</title>
<path fill="none" stroke="midnightblue" d="M547.71,-168.43C513.62,-160.93 465.3,-148.63 425,-132 390.91,-117.93 354.35,-95.66 332.08,-81.19"/>
<polygon fill="midnightblue" stroke="midnightblue" points="333.73,-78.09 323.45,-75.52 329.88,-83.94 333.73,-78.09"/>
</g>
<!-- Node9 -->
<g id="node9" class="node">
<title>Node9</title>
<g id="a_node9"><a xlink:title=" ">
<polygon fill="none" stroke="#bfbfbf" points="500,-112.5 500,-131.5 564,-131.5 564,-112.5 500,-112.5"/>
<text text-anchor="middle" x="532" y="-119.5" font-family="Helvetica,sans-Serif" font-size="10.00">algorithm</text>
</a>
</g>
</g>
<!-- Node6&#45;&gt;Node9 -->
<g id="edge11" class="edge">
<title>Node6&#45;&gt;Node9</title>
<path fill="none" stroke="midnightblue" d="M581.52,-168.32C572.8,-160.34 559.66,-148.31 549.1,-138.65"/>
<polygon fill="midnightblue" stroke="midnightblue" points="551.39,-136 541.65,-131.83 546.67,-141.17 551.39,-136"/>
</g>
<!-- Node10 -->
<g id="node10" class="node">
<title>Node10</title>
<g id="a_node10"><a xlink:href="limes__assert_8h.html" target="_top" xlink:title=" ">
<polygon fill="none" stroke="black" points="582,-112.5 582,-131.5 718,-131.5 718,-112.5 582,-112.5"/>
<text text-anchor="middle" x="650" y="-119.5" font-family="Helvetica,sans-Serif" font-size="10.00">../system/limes_assert.h</text>
</a>
</g>
</g>
<!-- Node6&#45;&gt;Node10 -->
<g id="edge12" class="edge">
<title>Node6&#45;&gt;Node10</title>
<path fill="none" stroke="midnightblue" d="M600.48,-168.32C609.2,-160.34 622.34,-148.31 632.9,-138.65"/>
<polygon fill="midnightblue" stroke="midnightblue" points="635.33,-141.17 640.35,-131.83 630.61,-136 635.33,-141.17"/>
</g>
<!-- Node10&#45;&gt;Node2 -->
<g id="edge14" class="edge">
<title>Node10&#45;&gt;Node2</title>
<path fill="none" stroke="midnightblue" d="M589.1,-112.49C524.95,-103.14 428.43,-87.88 393,-76 374.53,-69.81 372.29,-62.72 354,-56 311.52,-40.4 261.72,-28.91 223.48,-21.45"/>
<polygon fill="midnightblue" stroke="midnightblue" points="224,-17.98 213.52,-19.54 222.69,-24.86 224,-17.98"/>
</g>
<!-- Node10&#45;&gt;Node3 -->
<g id="edge13" class="edge">
<title>Node10&#45;&gt;Node3</title>
<path fill="none" stroke="midnightblue" d="M659.67,-112.25C668.49,-103.77 681.28,-90.16 689,-76 696.92,-61.48 701.87,-43.3 704.72,-29.86"/>
<polygon fill="midnightblue" stroke="midnightblue" points="708.19,-30.35 706.65,-19.87 701.32,-29.03 708.19,-30.35"/>
</g>
<!-- Node10&#45;&gt;Node4 -->
<g id="edge21" class="edge">
<title>Node10&#45;&gt;Node4</title>
<path fill="none" stroke="midnightblue" d="M674.84,-112.46C731.44,-93.01 870.06,-45.36 935.16,-22.98"/>
<polygon fill="midnightblue" stroke="midnightblue" points="936.63,-26.17 944.95,-19.61 934.36,-19.55 936.63,-26.17"/>
</g>
<!-- Node10&#45;&gt;Node5 -->
<g id="edge15" class="edge">
<title>Node10&#45;&gt;Node5</title>
<path fill="none" stroke="midnightblue" d="M692.94,-112.44C740.51,-102.96 817.24,-87.67 868.39,-77.48"/>
<polygon fill="midnightblue" stroke="midnightblue" points="869.14,-80.9 878.26,-75.52 867.77,-74.04 869.14,-80.9"/>
</g>
<!-- Node10&#45;&gt;Node8 -->
<g id="edge16" class="edge">
<title>Node10&#45;&gt;Node8</title>
<path fill="none" stroke="midnightblue" d="M591.88,-112.46C533.27,-103.74 440.25,-89.59 360,-76 358.53,-75.75 357.04,-75.5 355.54,-75.24"/>
<polygon fill="midnightblue" stroke="midnightblue" points="355.97,-71.76 345.51,-73.46 354.75,-78.65 355.97,-71.76"/>
</g>
<!-- Node11 -->
<g id="node11" class="node">
<title>Node11</title>
<g id="a_node11"><a xlink:title=" ">
<polygon fill="none" stroke="#bfbfbf" points="634.5,-56.5 634.5,-75.5 679.5,-75.5 679.5,-56.5 634.5,-56.5"/>
<text text-anchor="middle" x="657" y="-63.5" font-family="Helvetica,sans-Serif" font-size="10.00">utility</text>
</a>
</g>
</g>
<!-- Node10&#45;&gt;Node11 -->
<g id="edge17" class="edge">
<title>Node10&#45;&gt;Node11</title>
<path fill="none" stroke="midnightblue" d="M651.16,-112.08C652.08,-104.93 653.42,-94.64 654.58,-85.69"/>
<polygon fill="midnightblue" stroke="midnightblue" points="658.05,-86.12 655.87,-75.75 651.11,-85.22 658.05,-86.12"/>
</g>
<!-- Node12 -->
<g id="node12" class="node">
<title>Node12</title>
<g id="a_node12"><a xlink:href="_ignore_unused_8h.html" target="_top" xlink:title=" ">
<polygon fill="none" stroke="black" points="402,-56.5 402,-75.5 530,-75.5 530,-56.5 402,-56.5"/>
<text text-anchor="middle" x="466" y="-63.5" font-family="Helvetica,sans-Serif" font-size="10.00">../misc/IgnoreUnused.h</text>
</a>
</g>
</g>
<!-- Node10&#45;&gt;Node12 -->
<g id="edge18" class="edge">
<title>Node10&#45;&gt;Node12</title>
<path fill="none" stroke="midnightblue" d="M620.84,-112.44C589.49,-103.24 539.47,-88.56 504.8,-78.39"/>
<polygon fill="midnightblue" stroke="midnightblue" points="505.6,-74.97 495.02,-75.52 503.63,-81.69 505.6,-74.97"/>
</g>
<!-- Node13 -->
<g id="node13" class="node">
<title>Node13</title>
<g id="a_node13"><a xlink:title=" ">
<polygon fill="none" stroke="#bfbfbf" points="548,-56.5 548,-75.5 616,-75.5 616,-56.5 548,-56.5"/>
<text text-anchor="middle" x="582" y="-63.5" font-family="Helvetica,sans-Serif" font-size="10.00">filesystem</text>
</a>
</g>
</g>
<!-- Node10&#45;&gt;Node13 -->
<g id="edge22" class="edge">
<title>Node10&#45;&gt;Node13</title>
<path fill="none" stroke="midnightblue" d="M639.07,-112.32C628.83,-104.18 613.28,-91.84 601,-82.09"/>
<polygon fill="midnightblue" stroke="midnightblue" points="603.13,-79.31 593.12,-75.83 598.78,-84.79 603.13,-79.31"/>
</g>
<!-- Node12&#45;&gt;Node2 -->
<g id="edge20" class="edge">
<title>Node12&#45;&gt;Node2</title>
<path fill="none" stroke="midnightblue" d="M417.83,-56.44C364.13,-46.9 277.31,-31.48 219.95,-21.29"/>
<polygon fill="midnightblue" stroke="midnightblue" points="220.4,-17.82 209.94,-19.52 219.18,-24.71 220.4,-17.82"/>
</g>
<!-- Node12&#45;&gt;Node3 -->
<g id="edge19" class="edge">
<title>Node12&#45;&gt;Node3</title>
<path fill="none" stroke="midnightblue" d="M504.35,-56.44C546.47,-47.04 614.21,-31.93 659.87,-21.74"/>
<polygon fill="midnightblue" stroke="midnightblue" points="660.84,-25.11 669.83,-19.52 659.31,-18.28 660.84,-25.11"/>
</g>
<!-- Node14&#45;&gt;Node2 -->
<g id="edge24" class="edge">
<title>Node14&#45;&gt;Node2</title>
<path fill="none" stroke="midnightblue" d="M697.21,-230.34C564.96,-220.39 135.62,-180.37 57,-76 37.84,-50.56 76.26,-32.76 111.9,-22.3"/>
<polygon fill="midnightblue" stroke="midnightblue" points="113.12,-25.59 121.82,-19.54 111.25,-18.85 113.12,-25.59"/>
</g>
<!-- Node14&#45;&gt;Node3 -->
<g id="edge25" class="edge">
<title>Node14&#45;&gt;Node3</title>
<path fill="none" stroke="midnightblue" d="M738.89,-224.17C747.05,-197.68 768.31,-116.99 746,-56 741.94,-44.91 733.81,-34.67 726.11,-26.76"/>
<polygon fill="midnightblue" stroke="midnightblue" points="728.36,-24.07 718.71,-19.7 723.53,-29.14 728.36,-24.07"/>
</g>
<!-- Node14&#45;&gt;Node4 -->
<g id="edge26" class="edge">
<title>Node14&#45;&gt;Node4</title>
<path fill="none" stroke="midnightblue" d="M774.15,-224.49C836.49,-208.2 957.58,-165.93 1001,-76 1008.94,-59.56 997.73,-40.73 986.64,-27.58"/>
<polygon fill="midnightblue" stroke="midnightblue" points="988.9,-24.87 979.57,-19.84 983.74,-29.59 988.9,-24.87"/>
</g>
<!-- Node14&#45;&gt;Node5 -->
<g id="edge30" class="edge">
<title>Node14&#45;&gt;Node5</title>
<path fill="none" stroke="midnightblue" d="M765.43,-224.42C786.67,-217.18 815.16,-205.22 836,-188 871.81,-158.4 899.47,-110.18 912.61,-84.46"/>
<polygon fill="midnightblue" stroke="midnightblue" points="915.74,-86.01 917.05,-75.5 909.47,-82.9 915.74,-86.01"/>
</g>
<!-- Node14&#45;&gt;Node6 -->
<g id="edge31" class="edge">
<title>Node14&#45;&gt;Node6</title>
<path fill="none" stroke="midnightblue" d="M713.02,-224.44C688.84,-215.44 650.58,-201.19 623.35,-191.05"/>
<polygon fill="midnightblue" stroke="midnightblue" points="624.46,-187.73 613.87,-187.52 622.02,-194.29 624.46,-187.73"/>
</g>
<!-- Node15 -->
<g id="node15" class="node">
<title>Node15</title>
<g id="a_node15"><a xlink:href="2_dshape_8h.html" target="_top" xlink:title=" ">
<polygon fill="none" stroke="black" points="190,-56.5 190,-75.5 258,-75.5 258,-56.5 190,-56.5"/>
<text text-anchor="middle" x="224" y="-63.5" font-family="Helvetica,sans-Serif" font-size="10.00">2Dshape.h</text>
</a>
</g>
</g>
<!-- Node14&#45;&gt;Node15 -->
<g id="edge27" class="edge">
<title>Node14&#45;&gt;Node15</title>
<path fill="none" stroke="midnightblue" d="M697.4,-226.43C655.49,-218.87 586.79,-205.26 529,-188 462.41,-168.12 447.61,-157.6 383,-132 337.97,-114.16 286.07,-92.79 254.15,-79.56"/>
<polygon fill="midnightblue" stroke="midnightblue" points="255.1,-76.16 244.52,-75.56 252.42,-82.62 255.1,-76.16"/>
</g>
<!-- Node15&#45;&gt;Node2 -->
<g id="edge28" class="edge">
<title>Node15&#45;&gt;Node2</title>
<path fill="none" stroke="midnightblue" d="M214.04,-56.32C204.87,-48.34 191.06,-36.31 179.97,-26.65"/>
<polygon fill="midnightblue" stroke="midnightblue" points="181.98,-23.76 172.14,-19.83 177.38,-29.04 181.98,-23.76"/>
</g>
<!-- Node15&#45;&gt;Node3 -->
<g id="edge29" class="edge">
<title>Node15&#45;&gt;Node3</title>
<path fill="none" stroke="midnightblue" d="M258.21,-57.5C261.17,-56.96 264.14,-56.44 267,-56 405.34,-34.52 569.76,-20.85 653.33,-14.73"/>
<polygon fill="midnightblue" stroke="midnightblue" points="653.64,-18.22 663.36,-14 653.13,-11.23 653.64,-18.22"/>
</g>
<!-- Node16&#45;&gt;Node2 -->
<g id="edge33" class="edge">
<title>Node16&#45;&gt;Node2</title>
<path fill="none" stroke="midnightblue" d="M109.96,-56.32C119.13,-48.34 132.94,-36.31 144.03,-26.65"/>
<polygon fill="midnightblue" stroke="midnightblue" points="146.62,-29.04 151.86,-19.83 142.02,-23.76 146.62,-29.04"/>
</g>
<!-- Node16&#45;&gt;Node3 -->
<g id="edge34" class="edge">
<title>Node16&#45;&gt;Node3</title>
<path fill="none" stroke="midnightblue" d="M134.27,-61C148.69,-59.36 165.65,-57.51 181,-56 353.16,-39.09 557.32,-22.7 653.16,-15.22"/>
<polygon fill="midnightblue" stroke="midnightblue" points="653.5,-18.7 663.2,-14.44 652.96,-11.73 653.5,-18.7"/>
</g>
</g>
</svg>
        <g id="navigator" transform="translate(0 0)" fill="#404254">
                <rect fill="#f2f5e9" fill-opacity="0.5" stroke="#606060" stroke-width=".5" x="0" y="0" width="60" height="60"/>
                <use id="zoomplus" xlink:href="#zoomPlus" x="17" y="9" onmousedown="handleZoom(evt,'in')"/>
                <use id="zoomminus" xlink:href="#zoomMin" x="42" y="9" onmousedown="handleZoom(evt,'out')"/>
                <use id="reset" xlink:href="#resetDef" x="30" y="36" onmousedown="handleReset()"/>
                <g id="arrowUp" xlink:href="#dirArrow" transform="translate(30 24)" onmousedown="handlePan(0,-1)">
                  <use xlink:href="#rim" fill="#404040">
                        <set attributeName="fill" to="#808080" begin="arrowUp.mouseover" end="arrowUp.mouseout"/>
                  </use>
                  <path fill="none" stroke="white" stroke-width="1.5" d="M0,-3.0v7 M-2.5,-0.5L0,-3.0L2.5,-0.5"/>
                </g>
                <g id="arrowRight" xlink:href="#dirArrow" transform="rotate(90) translate(36 -43)" onmousedown="handlePan(1,0)">
                  <use xlink:href="#rim" fill="#404040">
                        <set attributeName="fill" to="#808080" begin="arrowRight.mouseover" end="arrowRight.mouseout"/>
                  </use>
                  <path fill="none" stroke="white" stroke-width="1.5" d="M0,-3.0v7 M-2.5,-0.5L0,-3.0L2.5,-0.5"/>
                </g>
                <g id="arrowDown" xlink:href="#dirArrow" transform="rotate(180) translate(-30 -48)" onmousedown="handlePan(0,1)">
                  <use xlink:href="#rim" fill="#404040">
                        <set attributeName="fill" to="#808080" begin="arrowDown.mouseover" end="arrowDown.mouseout"/>
                  </use>
                  <path fill="none" stroke="white" stroke-width="1.5" d="M0,-3.0v7 M-2.5,-0.5L0,-3.0L2.5,-0.5"/>
                </g>
                <g id="arrowLeft" xlink:href="#dirArrow" transform="rotate(270) translate(-36 17)" onmousedown="handlePan(-1,0)">
                  <use xlink:href="#rim" fill="#404040">
                        <set attributeName="fill" to="#808080" begin="arrowLeft.mouseover" end="arrowLeft.mouseout"/>
                  </use>
                  <path fill="none" stroke="white" stroke-width="1.5" d="M0,-3.0v7 M-2.5,-0.5L0,-3.0L2.5,-0.5"/>
                </g>
        </g>
        <svg viewBox="0 0 15 15" width="100%" height="30px" preserveAspectRatio="xMaxYMin meet">
         <g id="arrow_out" transform="scale(0.3 0.3)">
          <a xlink:href="cylinder_8h__incl_org.svg" target="_base">
           <rect id="button" ry="5" rx="5" y="6" x="6" height="38" width="38"
                fill="#f2f5e9" fill-opacity="0.5" stroke="#606060" stroke-width="1.0"/>
           <path id="arrow"
             d="M 11.500037,31.436501 C 11.940474,20.09759 22.043105,11.32322 32.158766,21.979434 L 37.068811,17.246167 C 37.068811,17.246167 37.088388,32 37.088388,32 L 22.160133,31.978069 C 22.160133,31.978069 26.997745,27.140456 26.997745,27.140456 C 18.528582,18.264221 13.291696,25.230495 11.500037,31.436501 z"
             style="fill:#404040;"/>
          </a>
         </g>
        </svg>
</svg>
