<?xml version="1.0" encoding="UTF-8" standalone="no"?>
<!DOCTYPE svg PUBLIC "-//W3C//DTD SVG 1.1//EN"
 "http://www.w3.org/Graphics/SVG/1.1/DTD/svg11.dtd">
<!-- Generated by graphviz version 2.43.0 (0)
 -->
<!-- Title: date.h Pages: 1 -->
<svg width="2121pt" height="431pt"
 viewBox="0.00 0.00 2120.50 431.00" xmlns="http://www.w3.org/2000/svg" xmlns:xlink="http://www.w3.org/1999/xlink">
<g id="graph0" class="graph" transform="scale(1 1) rotate(0) translate(4 427)">
<title>date.h</title>
<!-- Node1 -->
<g id="node1" class="node">
<title>Node1</title>
<g id="a_node1"><a xlink:title=" ">
<polygon fill="#bfbfbf" stroke="black" points="768.5,-403.5 768.5,-422.5 815.5,-422.5 815.5,-403.5 768.5,-403.5"/>
<text text-anchor="middle" x="792" y="-410.5" font-family="Helvetica,sans-Serif" font-size="10.00">date.h</text>
</a>
</g>
</g>
<!-- Node2 -->
<g id="node2" class="node">
<title>Node2</title>
<g id="a_node2"><a xlink:title=" ">
<polygon fill="none" stroke="#bfbfbf" points="462.5,-0.5 462.5,-19.5 551.5,-19.5 551.5,-0.5 462.5,-0.5"/>
<text text-anchor="middle" x="507" y="-7.5" font-family="Helvetica,sans-Serif" font-size="10.00">limes_export.h</text>
</a>
</g>
</g>
<!-- Node1&#45;&gt;Node2 -->
<g id="edge1" class="edge">
<title>Node1&#45;&gt;Node2</title>
<path fill="none" stroke="midnightblue" d="M768.3,-411.27C636.52,-406.89 0,-381.65 0,-302 0,-302 0,-302 0,-126.5 0,-90.25 10.49,-75.56 41,-56 107.86,-13.13 344.25,-9.49 452.34,-10.17"/>
<polygon fill="midnightblue" stroke="midnightblue" points="452.36,-13.67 462.39,-10.24 452.41,-6.67 452.36,-13.67"/>
</g>
<!-- Node3 -->
<g id="node3" class="node">
<title>Node3</title>
<g id="a_node3"><a xlink:href="limes__namespace_8h.html" target="_top" xlink:title=" ">
<polygon fill="none" stroke="black" points="1020,-0.5 1020,-19.5 1134,-19.5 1134,-0.5 1020,-0.5"/>
<text text-anchor="middle" x="1077" y="-7.5" font-family="Helvetica,sans-Serif" font-size="10.00">limes_namespace.h</text>
</a>
</g>
</g>
<!-- Node1&#45;&gt;Node3 -->
<g id="edge2" class="edge">
<title>Node1&#45;&gt;Node3</title>
<path fill="none" stroke="midnightblue" d="M768.28,-410.71C712.56,-406.28 578,-386.8 578,-302 578,-302 578,-302 578,-244 578,-184.73 530.22,-163.81 559,-112 581.88,-70.82 604.44,-71.3 649,-56 713.97,-33.7 906.42,-20.22 1009.7,-14.39"/>
<polygon fill="midnightblue" stroke="midnightblue" points="1009.92,-17.89 1019.71,-13.84 1009.53,-10.9 1009.92,-17.89"/>
</g>
<!-- Node4 -->
<g id="node4" class="node">
<title>Node4</title>
<g id="a_node4"><a xlink:href="preprocessor_8h.html" target="_top" xlink:title=" ">
<polygon fill="none" stroke="black" points="1622.5,-56.5 1622.5,-75.5 1745.5,-75.5 1745.5,-56.5 1622.5,-56.5"/>
<text text-anchor="middle" x="1684" y="-63.5" font-family="Helvetica,sans-Serif" font-size="10.00">../misc/preprocessor.h</text>
</a>
</g>
</g>
<!-- Node1&#45;&gt;Node4 -->
<g id="edge3" class="edge">
<title>Node1&#45;&gt;Node4</title>
<path fill="none" stroke="midnightblue" d="M815.87,-411.78C952.23,-410.21 1633.04,-398.06 1820,-311 1882.61,-281.84 1924.98,-244.13 1902,-179 1889.28,-142.93 1879.99,-132.96 1848,-112 1829.58,-99.93 1776.92,-86.64 1736.2,-77.66"/>
<polygon fill="midnightblue" stroke="midnightblue" points="1736.91,-74.23 1726.39,-75.53 1735.42,-81.07 1736.91,-74.23"/>
</g>
<!-- Node6 -->
<g id="node6" class="node">
<title>Node6</title>
<g id="a_node6"><a xlink:href="weekday_8h.html" target="_top" xlink:title=" ">
<polygon fill="none" stroke="black" points="1246,-347.5 1246,-366.5 1314,-366.5 1314,-347.5 1246,-347.5"/>
<text text-anchor="middle" x="1280" y="-354.5" font-family="Helvetica,sans-Serif" font-size="10.00">weekday.h</text>
</a>
</g>
</g>
<!-- Node1&#45;&gt;Node6 -->
<g id="edge5" class="edge">
<title>Node1&#45;&gt;Node6</title>
<path fill="none" stroke="midnightblue" d="M815.54,-409.4C892.12,-400.92 1135.07,-374.04 1235.69,-362.9"/>
<polygon fill="midnightblue" stroke="midnightblue" points="1236.27,-366.36 1245.83,-361.78 1235.5,-359.4 1236.27,-366.36"/>
</g>
<!-- Node7 -->
<g id="node7" class="node">
<title>Node7</title>
<g id="a_node7"><a xlink:href="year_8h.html" target="_top" xlink:title=" ">
<polygon fill="none" stroke="black" points="768.5,-291.5 768.5,-310.5 815.5,-310.5 815.5,-291.5 768.5,-291.5"/>
<text text-anchor="middle" x="792" y="-298.5" font-family="Helvetica,sans-Serif" font-size="10.00">year.h</text>
</a>
</g>
</g>
<!-- Node1&#45;&gt;Node7 -->
<g id="edge64" class="edge">
<title>Node1&#45;&gt;Node7</title>
<path fill="none" stroke="midnightblue" d="M792,-403.37C792,-385.62 792,-344.67 792,-320.6"/>
<polygon fill="midnightblue" stroke="midnightblue" points="795.5,-320.59 792,-310.59 788.5,-320.59 795.5,-320.59"/>
</g>
<!-- Node8 -->
<g id="node8" class="node">
<title>Node8</title>
<g id="a_node8"><a xlink:href="compiler__defs_8h.html" target="_top" xlink:title=" ">
<polygon fill="none" stroke="black" points="1546.5,-112.5 1546.5,-142.5 1653.5,-142.5 1653.5,-112.5 1546.5,-112.5"/>
<text text-anchor="start" x="1554.5" y="-130.5" font-family="Helvetica,sans-Serif" font-size="10.00">../system/compiler</text>
<text text-anchor="middle" x="1600" y="-119.5" font-family="Helvetica,sans-Serif" font-size="10.00">_defs.h</text>
</a>
</g>
</g>
<!-- Node1&#45;&gt;Node8 -->
<g id="edge83" class="edge">
<title>Node1&#45;&gt;Node8</title>
<path fill="none" stroke="midnightblue" d="M815.57,-411.1C947.34,-405.82 1593.44,-376.9 1780,-311 1824.78,-295.18 1847.83,-296.46 1871,-255 1884.01,-231.72 1857.78,-185.63 1850,-179 1822.49,-155.56 1728.38,-141.48 1663.82,-134.35"/>
<polygon fill="midnightblue" stroke="midnightblue" points="1664.04,-130.85 1653.72,-133.27 1663.29,-137.81 1664.04,-130.85"/>
</g>
<!-- Node9 -->
<g id="node9" class="node">
<title>Node9</title>
<g id="a_node9"><a xlink:title=" ">
<polygon fill="none" stroke="#bfbfbf" points="568,-118 568,-137 612,-137 612,-118 568,-118"/>
<text text-anchor="middle" x="590" y="-125" font-family="Helvetica,sans-Serif" font-size="10.00">ctime</text>
</a>
</g>
</g>
<!-- Node1&#45;&gt;Node9 -->
<g id="edge65" class="edge">
<title>Node1&#45;&gt;Node9</title>
<path fill="none" stroke="midnightblue" d="M768.45,-410.24C716.59,-405.92 594.7,-393.18 564,-367 540.57,-347.02 540,-332.8 540,-302 540,-302 540,-302 540,-244 540,-206.5 562.47,-167.38 577.28,-145.66"/>
<polygon fill="midnightblue" stroke="midnightblue" points="580.33,-147.4 583.26,-137.22 574.62,-143.36 580.33,-147.4"/>
</g>
<!-- Node20 -->
<g id="node20" class="node">
<title>Node20</title>
<g id="a_node20"><a xlink:href="month_8h.html" target="_top" xlink:title=" ">
<polygon fill="none" stroke="black" points="1313.5,-291.5 1313.5,-310.5 1370.5,-310.5 1370.5,-291.5 1313.5,-291.5"/>
<text text-anchor="middle" x="1342" y="-298.5" font-family="Helvetica,sans-Serif" font-size="10.00">month.h</text>
</a>
</g>
</g>
<!-- Node1&#45;&gt;Node20 -->
<g id="edge63" class="edge">
<title>Node1&#45;&gt;Node20</title>
<path fill="none" stroke="midnightblue" d="M815.51,-411.55C913.12,-409.47 1283.25,-399.51 1323,-367 1336.49,-355.97 1340.73,-335.92 1341.91,-321"/>
<polygon fill="midnightblue" stroke="midnightblue" points="1345.41,-320.95 1342.31,-310.82 1338.42,-320.67 1345.41,-320.95"/>
</g>
<!-- Node24 -->
<g id="node24" class="node">
<title>Node24</title>
<g id="a_node24"><a xlink:title=" ">
<polygon fill="none" stroke="#bfbfbf" points="66,-56.5 66,-75.5 110,-75.5 110,-56.5 66,-56.5"/>
<text text-anchor="middle" x="88" y="-63.5" font-family="Helvetica,sans-Serif" font-size="10.00">string</text>
</a>
</g>
</g>
<!-- Node1&#45;&gt;Node24 -->
<g id="edge66" class="edge">
<title>Node1&#45;&gt;Node24</title>
<path fill="none" stroke="midnightblue" d="M768.48,-410.69C649.54,-403.77 120,-369.16 120,-302 120,-302 120,-302 120,-188 120,-150.31 105.31,-108.15 95.84,-84.88"/>
<polygon fill="midnightblue" stroke="midnightblue" points="99.04,-83.45 91.92,-75.6 92.59,-86.17 99.04,-83.45"/>
</g>
<!-- Node25 -->
<g id="node25" class="node">
<title>Node25</title>
<g id="a_node25"><a xlink:href="time__utils_8h.html" target="_top" xlink:title=" ">
<polygon fill="none" stroke="black" points="400,-179.5 400,-198.5 474,-198.5 474,-179.5 400,-179.5"/>
<text text-anchor="middle" x="437" y="-186.5" font-family="Helvetica,sans-Serif" font-size="10.00">time_utils.h</text>
</a>
</g>
</g>
<!-- Node1&#45;&gt;Node25 -->
<g id="edge67" class="edge">
<title>Node1&#45;&gt;Node25</title>
<path fill="none" stroke="midnightblue" d="M768.29,-410.7C710.52,-407.11 564.43,-395.39 526,-367 472.1,-327.18 448.69,-245.44 440.58,-208.66"/>
<polygon fill="midnightblue" stroke="midnightblue" points="443.99,-207.87 438.54,-198.78 437.14,-209.29 443.99,-207.87"/>
</g>
<!-- Node31 -->
<g id="node31" class="node">
<title>Node31</title>
<g id="a_node31"><a xlink:href="date__impl_8h.html" target="_top" xlink:title=" ">
<polygon fill="none" stroke="black" points="2013.5,-235.5 2013.5,-254.5 2112.5,-254.5 2112.5,-235.5 2013.5,-235.5"/>
<text text-anchor="middle" x="2063" y="-242.5" font-family="Helvetica,sans-Serif" font-size="10.00">impl/date_impl.h</text>
</a>
</g>
</g>
<!-- Node1&#45;&gt;Node31 -->
<g id="edge84" class="edge">
<title>Node1&#45;&gt;Node31</title>
<path fill="none" stroke="midnightblue" d="M815.66,-411.99C968.79,-411.83 1816.65,-409.01 1923,-367 1979.08,-344.85 2028.18,-290.14 2050.39,-262.52"/>
<polygon fill="midnightblue" stroke="midnightblue" points="2053.21,-264.6 2056.63,-254.58 2047.7,-260.28 2053.21,-264.6"/>
</g>
<!-- Node5 -->
<g id="node5" class="node">
<title>Node5</title>
<g id="a_node5"><a xlink:title=" ">
<polygon fill="none" stroke="#bfbfbf" points="1525,-0.5 1525,-19.5 1625,-19.5 1625,-0.5 1525,-0.5"/>
<text text-anchor="middle" x="1575" y="-7.5" font-family="Helvetica,sans-Serif" font-size="10.00">limes_platform.h</text>
</a>
</g>
</g>
<!-- Node4&#45;&gt;Node5 -->
<g id="edge4" class="edge">
<title>Node4&#45;&gt;Node5</title>
<path fill="none" stroke="midnightblue" d="M1666.49,-56.32C1648.93,-47.62 1621.67,-34.12 1601.47,-24.11"/>
<polygon fill="midnightblue" stroke="midnightblue" points="1602.98,-20.96 1592.47,-19.65 1599.88,-27.23 1602.98,-20.96"/>
</g>
<!-- Node6&#45;&gt;Node2 -->
<g id="edge6" class="edge">
<title>Node6&#45;&gt;Node2</title>
<path fill="none" stroke="midnightblue" d="M1245.82,-355.95C1095.08,-354.9 492.68,-341.73 391,-199 346.76,-136.9 441.19,-57.87 485.59,-25.66"/>
<polygon fill="midnightblue" stroke="midnightblue" points="487.87,-28.34 493.99,-19.69 483.82,-22.63 487.87,-28.34"/>
</g>
<!-- Node6&#45;&gt;Node3 -->
<g id="edge7" class="edge">
<title>Node6&#45;&gt;Node3</title>
<path fill="none" stroke="midnightblue" d="M1283.08,-347.34C1296.38,-308.26 1344.97,-146.28 1271,-56 1254.96,-36.42 1193.81,-24.52 1144.4,-17.92"/>
<polygon fill="midnightblue" stroke="midnightblue" points="1144.73,-14.43 1134.37,-16.63 1143.84,-21.37 1144.73,-14.43"/>
</g>
<!-- Node6&#45;&gt;Node4 -->
<g id="edge54" class="edge">
<title>Node6&#45;&gt;Node4</title>
<path fill="none" stroke="midnightblue" d="M1314.22,-354.96C1412.33,-351.65 1693.15,-339.85 1780,-311 1825.07,-296.03 1842.94,-293.31 1871,-255 1891.29,-227.29 1902.4,-208.61 1885,-179 1851.96,-122.77 1779.32,-92.71 1731.02,-78.31"/>
<polygon fill="midnightblue" stroke="midnightblue" points="1731.98,-74.94 1721.41,-75.55 1730.06,-81.67 1731.98,-74.94"/>
</g>
<!-- Node6&#45;&gt;Node7 -->
<g id="edge8" class="edge">
<title>Node6&#45;&gt;Node7</title>
<path fill="none" stroke="midnightblue" d="M1245.93,-354.14C1170.54,-349.7 984.09,-336.83 830,-311 828.54,-310.75 827.05,-310.49 825.54,-310.2"/>
<polygon fill="midnightblue" stroke="midnightblue" points="826.12,-306.74 815.62,-308.11 824.68,-313.59 826.12,-306.74"/>
</g>
<!-- Node6&#45;&gt;Node8 -->
<g id="edge55" class="edge">
<title>Node6&#45;&gt;Node8</title>
<path fill="none" stroke="midnightblue" d="M1314.37,-355.45C1427.13,-352.87 1782.64,-338.15 1852,-255 1909.35,-186.25 1756.13,-151.16 1663.95,-136.74"/>
<polygon fill="midnightblue" stroke="midnightblue" points="1664.26,-133.24 1653.85,-135.2 1663.21,-140.16 1664.26,-133.24"/>
</g>
<!-- Node6&#45;&gt;Node9 -->
<g id="edge58" class="edge">
<title>Node6&#45;&gt;Node9</title>
<path fill="none" stroke="midnightblue" d="M1245.94,-355.68C1144.81,-354.31 847.78,-347.24 759,-311 689.32,-282.56 678.99,-257.78 632,-199 618.7,-182.36 606.61,-161.11 598.85,-146.31"/>
<polygon fill="midnightblue" stroke="midnightblue" points="601.88,-144.55 594.21,-137.23 595.65,-147.73 601.88,-144.55"/>
</g>
<!-- Node13 -->
<g id="node13" class="node">
<title>Node13</title>
<g id="a_node13"><a xlink:title=" ">
<polygon fill="none" stroke="#bfbfbf" points="668.5,-56.5 668.5,-75.5 737.5,-75.5 737.5,-56.5 668.5,-56.5"/>
<text text-anchor="middle" x="703" y="-63.5" font-family="Helvetica,sans-Serif" font-size="10.00">type_traits</text>
</a>
</g>
</g>
<!-- Node6&#45;&gt;Node13 -->
<g id="edge57" class="edge">
<title>Node6&#45;&gt;Node13</title>
<path fill="none" stroke="midnightblue" d="M1245.95,-352.78C1150.83,-341.96 879.89,-298.32 736,-143 720.91,-126.71 712.02,-102.43 707.34,-85.72"/>
<polygon fill="midnightblue" stroke="midnightblue" points="710.61,-84.38 704.75,-75.55 703.82,-86.11 710.61,-84.38"/>
</g>
<!-- Node6&#45;&gt;Node20 -->
<g id="edge42" class="edge">
<title>Node6&#45;&gt;Node20</title>
<path fill="none" stroke="midnightblue" d="M1289.96,-347.32C1299.13,-339.34 1312.94,-327.31 1324.03,-317.65"/>
<polygon fill="midnightblue" stroke="midnightblue" points="1326.62,-320.04 1331.86,-310.83 1322.02,-314.76 1326.62,-320.04"/>
</g>
<!-- Node21 -->
<g id="node21" class="node">
<title>Node21</title>
<g id="a_node21"><a xlink:title=" ">
<polygon fill="none" stroke="#bfbfbf" points="1629.5,-235.5 1629.5,-254.5 1702.5,-254.5 1702.5,-235.5 1629.5,-235.5"/>
<text text-anchor="middle" x="1666" y="-242.5" font-family="Helvetica,sans-Serif" font-size="10.00">string_view</text>
</a>
</g>
</g>
<!-- Node6&#45;&gt;Node21 -->
<g id="edge56" class="edge">
<title>Node6&#45;&gt;Node21</title>
<path fill="none" stroke="midnightblue" d="M1309.97,-347.46C1378.88,-327.82 1548.62,-279.45 1626.18,-257.35"/>
<polygon fill="midnightblue" stroke="midnightblue" points="1627.39,-260.64 1636.05,-254.53 1625.48,-253.91 1627.39,-260.64"/>
</g>
<!-- Node23 -->
<g id="node23" class="node">
<title>Node23</title>
<g id="a_node23"><a xlink:href="weekday__impl_8h.html" target="_top" xlink:title=" ">
<polygon fill="none" stroke="black" points="1721,-235.5 1721,-254.5 1843,-254.5 1843,-235.5 1721,-235.5"/>
<text text-anchor="middle" x="1782" y="-242.5" font-family="Helvetica,sans-Serif" font-size="10.00">impl/weekday_impl.h</text>
</a>
</g>
</g>
<!-- Node6&#45;&gt;Node23 -->
<g id="edge59" class="edge">
<title>Node6&#45;&gt;Node23</title>
<path fill="none" stroke="midnightblue" d="M1314.07,-348.62C1355.1,-339.73 1426.1,-324.33 1487,-311 1573.75,-292.01 1674.81,-269.71 1733.29,-256.78"/>
<polygon fill="midnightblue" stroke="midnightblue" points="1734.34,-260.13 1743.35,-254.55 1732.83,-253.29 1734.34,-260.13"/>
</g>
<!-- Node7&#45;&gt;Node2 -->
<g id="edge9" class="edge">
<title>Node7&#45;&gt;Node2</title>
<path fill="none" stroke="midnightblue" d="M768.18,-291.6C747.08,-283.66 715.86,-270.64 691,-255 625.87,-214.04 610.85,-199.85 559,-143 534.49,-116.13 524.28,-110.24 512,-76 506.68,-61.17 505.67,-43.24 505.85,-29.98"/>
<polygon fill="midnightblue" stroke="midnightblue" points="509.36,-29.84 506.24,-19.71 502.37,-29.57 509.36,-29.84"/>
</g>
<!-- Node7&#45;&gt;Node3 -->
<g id="edge10" class="edge">
<title>Node7&#45;&gt;Node3</title>
<path fill="none" stroke="midnightblue" d="M784.59,-291.4C751.8,-252.86 622.89,-96.2 659,-56 681.97,-30.43 897.45,-18.12 1009.7,-13.41"/>
<polygon fill="midnightblue" stroke="midnightblue" points="1010.06,-16.9 1019.91,-12.99 1009.77,-9.9 1010.06,-16.9"/>
</g>
<!-- Node7&#45;&gt;Node4 -->
<g id="edge11" class="edge">
<title>Node7&#45;&gt;Node4</title>
<path fill="none" stroke="midnightblue" d="M815.84,-300.07C923.79,-300.12 1367.07,-297.69 1498,-255 1582.27,-227.52 1612.53,-215.86 1663,-143 1674.91,-125.81 1680.08,-102.08 1682.32,-85.73"/>
<polygon fill="midnightblue" stroke="midnightblue" points="1685.8,-86.09 1683.44,-75.76 1678.84,-85.3 1685.8,-86.09"/>
</g>
<!-- Node7&#45;&gt;Node8 -->
<g id="edge12" class="edge">
<title>Node7&#45;&gt;Node8</title>
<path fill="none" stroke="midnightblue" d="M815.51,-299.92C919.97,-299.35 1342.51,-294.6 1468,-255 1484.36,-249.84 1486.19,-243.65 1501,-235 1529.18,-218.54 1542.53,-222.66 1565,-199 1577.62,-185.72 1586.62,-167.01 1592.33,-152.21"/>
<polygon fill="midnightblue" stroke="midnightblue" points="1595.66,-153.29 1595.76,-142.69 1589.08,-150.91 1595.66,-153.29"/>
</g>
<!-- Node7&#45;&gt;Node9 -->
<g id="edge15" class="edge">
<title>Node7&#45;&gt;Node9</title>
<path fill="none" stroke="midnightblue" d="M774.91,-291.49C758.97,-283.18 734.88,-269.68 716,-255 671.15,-220.12 625.94,-170.35 603.87,-144.88"/>
<polygon fill="midnightblue" stroke="midnightblue" points="606.47,-142.54 597.31,-137.23 601.16,-147.1 606.47,-142.54"/>
</g>
<!-- Node10 -->
<g id="node10" class="node">
<title>Node10</title>
<g id="a_node10"><a xlink:href="year__impl_8h.html" target="_top" xlink:title=" ">
<polygon fill="none" stroke="black" points="957.5,-235.5 957.5,-254.5 1056.5,-254.5 1056.5,-235.5 957.5,-235.5"/>
<text text-anchor="middle" x="1007" y="-242.5" font-family="Helvetica,sans-Serif" font-size="10.00">impl/year_impl.h</text>
</a>
</g>
</g>
<!-- Node7&#45;&gt;Node10 -->
<g id="edge16" class="edge">
<title>Node7&#45;&gt;Node10</title>
<path fill="none" stroke="midnightblue" d="M815.83,-294.01C851.23,-285.12 918.31,-268.28 962.84,-257.09"/>
<polygon fill="midnightblue" stroke="midnightblue" points="963.97,-260.42 972.81,-254.59 962.26,-253.63 963.97,-260.42"/>
</g>
<!-- Node8&#45;&gt;Node4 -->
<g id="edge14" class="edge">
<title>Node8&#45;&gt;Node4</title>
<path fill="none" stroke="midnightblue" d="M1619.91,-112.4C1632.99,-103.13 1650.08,-91.03 1663.32,-81.65"/>
<polygon fill="midnightblue" stroke="midnightblue" points="1665.64,-84.29 1671.78,-75.66 1661.59,-78.58 1665.64,-84.29"/>
</g>
<!-- Node8&#45;&gt;Node5 -->
<g id="edge13" class="edge">
<title>Node8&#45;&gt;Node5</title>
<path fill="none" stroke="midnightblue" d="M1596.93,-112.34C1592.43,-91.53 1584.02,-52.66 1579.02,-29.58"/>
<polygon fill="midnightblue" stroke="midnightblue" points="1582.41,-28.7 1576.88,-19.67 1575.57,-30.18 1582.41,-28.7"/>
</g>
<!-- Node10&#45;&gt;Node3 -->
<g id="edge17" class="edge">
<title>Node10&#45;&gt;Node3</title>
<path fill="none" stroke="midnightblue" d="M1014.71,-235.38C1024.72,-223.13 1040.19,-199.85 1034,-179 1016.3,-119.32 932.3,-107.68 967,-56 977.92,-39.73 995.87,-29.34 1014.14,-22.71"/>
<polygon fill="midnightblue" stroke="midnightblue" points="1015.28,-26.02 1023.68,-19.57 1013.09,-19.37 1015.28,-26.02"/>
</g>
<!-- Node11 -->
<g id="node11" class="node">
<title>Node11</title>
<g id="a_node11"><a xlink:href="math_helpers_8h.html" target="_top" xlink:title=" ">
<polygon fill="none" stroke="black" points="890.5,-179.5 890.5,-198.5 1025.5,-198.5 1025.5,-179.5 890.5,-179.5"/>
<text text-anchor="middle" x="958" y="-186.5" font-family="Helvetica,sans-Serif" font-size="10.00">../../math/mathHelpers.h</text>
</a>
</g>
</g>
<!-- Node10&#45;&gt;Node11 -->
<g id="edge18" class="edge">
<title>Node10&#45;&gt;Node11</title>
<path fill="none" stroke="midnightblue" d="M998.91,-235.08C991.84,-227.3 981.41,-215.8 972.85,-206.37"/>
<polygon fill="midnightblue" stroke="midnightblue" points="975.25,-203.8 965.94,-198.75 970.07,-208.51 975.25,-203.8"/>
</g>
<!-- Node19 -->
<g id="node19" class="node">
<title>Node19</title>
<g id="a_node19"><a xlink:href="build__date_8h.html" target="_top" xlink:title=" ">
<polygon fill="none" stroke="black" points="1470,-179.5 1470,-198.5 1556,-198.5 1556,-179.5 1470,-179.5"/>
<text text-anchor="middle" x="1513" y="-186.5" font-family="Helvetica,sans-Serif" font-size="10.00">../build_date.h</text>
</a>
</g>
</g>
<!-- Node10&#45;&gt;Node19 -->
<g id="edge37" class="edge">
<title>Node10&#45;&gt;Node19</title>
<path fill="none" stroke="midnightblue" d="M1056.9,-238.67C1152.74,-228.45 1361.76,-206.14 1459.99,-195.66"/>
<polygon fill="midnightblue" stroke="midnightblue" points="1460.42,-199.13 1469.99,-194.59 1459.68,-192.17 1460.42,-199.13"/>
</g>
<!-- Node11&#45;&gt;Node2 -->
<g id="edge22" class="edge">
<title>Node11&#45;&gt;Node2</title>
<path fill="none" stroke="midnightblue" d="M901.94,-179.48C872.83,-173.02 837.85,-161.89 811,-143 771.52,-115.23 786.96,-81.54 746,-56 715.94,-37.26 622.61,-23.75 561.86,-16.67"/>
<polygon fill="midnightblue" stroke="midnightblue" points="562,-13.16 551.67,-15.51 561.21,-20.12 562,-13.16"/>
</g>
<!-- Node11&#45;&gt;Node3 -->
<g id="edge19" class="edge">
<title>Node11&#45;&gt;Node3</title>
<path fill="none" stroke="midnightblue" d="M960.96,-179.1C965.43,-163.87 971.98,-132.49 958,-112 931.01,-72.46 835.89,-93.21 866,-56 883.91,-33.87 954.97,-22.15 1009.73,-16.29"/>
<polygon fill="midnightblue" stroke="midnightblue" points="1010.16,-19.76 1019.75,-15.26 1009.44,-12.8 1010.16,-19.76"/>
</g>
<!-- Node11&#45;&gt;Node8 -->
<g id="edge36" class="edge">
<title>Node11&#45;&gt;Node8</title>
<path fill="none" stroke="midnightblue" d="M1025.79,-181.72C1150.45,-170.16 1414.39,-145.7 1536.08,-134.42"/>
<polygon fill="midnightblue" stroke="midnightblue" points="1536.72,-137.88 1546.36,-133.47 1536.08,-130.91 1536.72,-137.88"/>
</g>
<!-- Node12 -->
<g id="node12" class="node">
<title>Node12</title>
<g id="a_node12"><a xlink:title=" ">
<polygon fill="none" stroke="#bfbfbf" points="902.5,-118 902.5,-137 949.5,-137 949.5,-118 902.5,-118"/>
<text text-anchor="middle" x="926" y="-125" font-family="Helvetica,sans-Serif" font-size="10.00">cmath</text>
</a>
</g>
</g>
<!-- Node11&#45;&gt;Node12 -->
<g id="edge20" class="edge">
<title>Node11&#45;&gt;Node12</title>
<path fill="none" stroke="midnightblue" d="M953.42,-179.48C948.76,-170.82 941.41,-157.15 935.49,-146.15"/>
<polygon fill="midnightblue" stroke="midnightblue" points="938.4,-144.16 930.58,-137.01 932.23,-147.47 938.4,-144.16"/>
</g>
<!-- Node11&#45;&gt;Node13 -->
<g id="edge21" class="edge">
<title>Node11&#45;&gt;Node13</title>
<path fill="none" stroke="midnightblue" d="M890.16,-180C854.96,-173.7 812.27,-162.56 778,-143 751.67,-127.98 728.38,-101.14 714.99,-83.71"/>
<polygon fill="midnightblue" stroke="midnightblue" points="717.7,-81.5 708.92,-75.57 712.09,-85.68 717.7,-81.5"/>
</g>
<!-- Node14 -->
<g id="node14" class="node">
<title>Node14</title>
<g id="a_node14"><a xlink:title=" ">
<polygon fill="none" stroke="#bfbfbf" points="820,-118 820,-137 884,-137 884,-118 820,-118"/>
<text text-anchor="middle" x="852" y="-125" font-family="Helvetica,sans-Serif" font-size="10.00">algorithm</text>
</a>
</g>
</g>
<!-- Node11&#45;&gt;Node14 -->
<g id="edge23" class="edge">
<title>Node11&#45;&gt;Node14</title>
<path fill="none" stroke="midnightblue" d="M942.81,-179.48C925.34,-169.67 896.42,-153.43 875.92,-141.92"/>
<polygon fill="midnightblue" stroke="midnightblue" points="877.59,-138.85 867.16,-137.01 874.17,-144.96 877.59,-138.85"/>
</g>
<!-- Node15 -->
<g id="node15" class="node">
<title>Node15</title>
<g id="a_node15"><a xlink:href="limes__assert_8h.html" target="_top" xlink:title=" ">
<polygon fill="none" stroke="black" points="1082,-118 1082,-137 1218,-137 1218,-118 1082,-118"/>
<text text-anchor="middle" x="1150" y="-125" font-family="Helvetica,sans-Serif" font-size="10.00">../system/limes_assert.h</text>
</a>
</g>
</g>
<!-- Node11&#45;&gt;Node15 -->
<g id="edge24" class="edge">
<title>Node11&#45;&gt;Node15</title>
<path fill="none" stroke="midnightblue" d="M985.51,-179.48C1018.87,-169.14 1075.26,-151.66 1112.56,-140.1"/>
<polygon fill="midnightblue" stroke="midnightblue" points="1114.03,-143.31 1122.54,-137.01 1111.95,-136.63 1114.03,-143.31"/>
</g>
<!-- Node15&#45;&gt;Node2 -->
<g id="edge25" class="edge">
<title>Node15&#45;&gt;Node2</title>
<path fill="none" stroke="midnightblue" d="M1113.8,-118C1052.95,-103.89 926.19,-75.29 818,-56 728.59,-40.06 623.94,-25.82 561.69,-17.81"/>
<polygon fill="midnightblue" stroke="midnightblue" points="562.06,-14.33 551.7,-16.53 561.17,-21.27 562.06,-14.33"/>
</g>
<!-- Node15&#45;&gt;Node3 -->
<g id="edge26" class="edge">
<title>Node15&#45;&gt;Node3</title>
<path fill="none" stroke="midnightblue" d="M1111.44,-117.95C1062.49,-106.71 983.34,-87.09 975,-76 956.14,-50.92 994.06,-32.97 1028.9,-22.37"/>
<polygon fill="midnightblue" stroke="midnightblue" points="1029.95,-25.71 1038.59,-19.58 1028.01,-18.99 1029.95,-25.71"/>
</g>
<!-- Node15&#45;&gt;Node4 -->
<g id="edge27" class="edge">
<title>Node15&#45;&gt;Node4</title>
<path fill="none" stroke="midnightblue" d="M1218.17,-118.9C1319.53,-107.61 1509.09,-86.49 1612.4,-74.98"/>
<polygon fill="midnightblue" stroke="midnightblue" points="1612.88,-78.45 1622.43,-73.86 1612.1,-71.49 1612.88,-78.45"/>
</g>
<!-- Node15&#45;&gt;Node5 -->
<g id="edge34" class="edge">
<title>Node15&#45;&gt;Node5</title>
<path fill="none" stroke="midnightblue" d="M1181.6,-117.91C1257.3,-97.34 1449.01,-45.24 1533.7,-22.22"/>
<polygon fill="midnightblue" stroke="midnightblue" points="1534.75,-25.57 1543.48,-19.56 1532.92,-18.81 1534.75,-25.57"/>
</g>
<!-- Node15&#45;&gt;Node13 -->
<g id="edge28" class="edge">
<title>Node15&#45;&gt;Node13</title>
<path fill="none" stroke="midnightblue" d="M1085.96,-117.98C994.24,-105.77 827.76,-83.61 747.98,-72.99"/>
<polygon fill="midnightblue" stroke="midnightblue" points="748.15,-69.48 737.78,-71.63 747.23,-76.42 748.15,-69.48"/>
</g>
<!-- Node16 -->
<g id="node16" class="node">
<title>Node16</title>
<g id="a_node16"><a xlink:title=" ">
<polygon fill="none" stroke="#bfbfbf" points="984.5,-56.5 984.5,-75.5 1029.5,-75.5 1029.5,-56.5 984.5,-56.5"/>
<text text-anchor="middle" x="1007" y="-63.5" font-family="Helvetica,sans-Serif" font-size="10.00">utility</text>
</a>
</g>
</g>
<!-- Node15&#45;&gt;Node16 -->
<g id="edge29" class="edge">
<title>Node15&#45;&gt;Node16</title>
<path fill="none" stroke="midnightblue" d="M1129.51,-117.98C1105.19,-107.86 1064.45,-90.9 1036.68,-79.35"/>
<polygon fill="midnightblue" stroke="midnightblue" points="1038.03,-76.12 1027.45,-75.51 1035.34,-82.58 1038.03,-76.12"/>
</g>
<!-- Node17 -->
<g id="node17" class="node">
<title>Node17</title>
<g id="a_node17"><a xlink:href="_ignore_unused_8h.html" target="_top" xlink:title=" ">
<polygon fill="none" stroke="black" points="1134,-56.5 1134,-75.5 1262,-75.5 1262,-56.5 1134,-56.5"/>
<text text-anchor="middle" x="1198" y="-63.5" font-family="Helvetica,sans-Serif" font-size="10.00">../misc/IgnoreUnused.h</text>
</a>
</g>
</g>
<!-- Node15&#45;&gt;Node17 -->
<g id="edge30" class="edge">
<title>Node15&#45;&gt;Node17</title>
<path fill="none" stroke="midnightblue" d="M1156.88,-117.98C1164.15,-108.96 1175.8,-94.52 1184.84,-83.31"/>
<polygon fill="midnightblue" stroke="midnightblue" points="1187.58,-85.49 1191.14,-75.51 1182.13,-81.09 1187.58,-85.49"/>
</g>
<!-- Node18 -->
<g id="node18" class="node">
<title>Node18</title>
<g id="a_node18"><a xlink:title=" ">
<polygon fill="none" stroke="#bfbfbf" points="1048,-56.5 1048,-75.5 1116,-75.5 1116,-56.5 1048,-56.5"/>
<text text-anchor="middle" x="1082" y="-63.5" font-family="Helvetica,sans-Serif" font-size="10.00">filesystem</text>
</a>
</g>
</g>
<!-- Node15&#45;&gt;Node18 -->
<g id="edge35" class="edge">
<title>Node15&#45;&gt;Node18</title>
<path fill="none" stroke="midnightblue" d="M1140.26,-117.98C1129.65,-108.7 1112.48,-93.67 1099.52,-82.33"/>
<polygon fill="midnightblue" stroke="midnightblue" points="1101.56,-79.46 1091.72,-75.51 1096.95,-84.73 1101.56,-79.46"/>
</g>
<!-- Node17&#45;&gt;Node2 -->
<g id="edge31" class="edge">
<title>Node17&#45;&gt;Node2</title>
<path fill="none" stroke="midnightblue" d="M1133.93,-56.92C1130.91,-56.59 1127.92,-56.29 1125,-56 917.31,-35.65 669.51,-20.3 561.65,-14.06"/>
<polygon fill="midnightblue" stroke="midnightblue" points="561.84,-10.56 551.66,-13.48 561.44,-17.55 561.84,-10.56"/>
</g>
<!-- Node17&#45;&gt;Node3 -->
<g id="edge32" class="edge">
<title>Node17&#45;&gt;Node3</title>
<path fill="none" stroke="midnightblue" d="M1178.83,-56.44C1159.09,-47.64 1128.11,-33.81 1105.51,-23.72"/>
<polygon fill="midnightblue" stroke="midnightblue" points="1106.64,-20.4 1096.08,-19.52 1103.79,-26.79 1106.64,-20.4"/>
</g>
<!-- Node17&#45;&gt;Node5 -->
<g id="edge33" class="edge">
<title>Node17&#45;&gt;Node5</title>
<path fill="none" stroke="midnightblue" d="M1257.74,-56.44C1328.09,-46.37 1444.27,-29.72 1514.82,-19.62"/>
<polygon fill="midnightblue" stroke="midnightblue" points="1515.48,-23.06 1524.88,-18.18 1514.49,-16.13 1515.48,-23.06"/>
</g>
<!-- Node19&#45;&gt;Node2 -->
<g id="edge38" class="edge">
<title>Node19&#45;&gt;Node2</title>
<path fill="none" stroke="midnightblue" d="M1469.89,-185.9C1390.71,-181.54 1217.04,-169.6 1073,-143 1020.94,-133.39 1009.19,-125.48 958,-112 895.87,-95.64 878.84,-96.64 818,-76 796.5,-68.71 792.78,-62.4 771,-56 700.17,-35.2 615.65,-22.89 561.67,-16.54"/>
<polygon fill="midnightblue" stroke="midnightblue" points="561.96,-13.05 551.62,-15.39 561.16,-20.01 561.96,-13.05"/>
</g>
<!-- Node19&#45;&gt;Node3 -->
<g id="edge39" class="edge">
<title>Node19&#45;&gt;Node3</title>
<path fill="none" stroke="midnightblue" d="M1512.17,-179.44C1509.35,-155.43 1497.82,-87.18 1456,-56 1408.14,-20.32 1239.9,-12.57 1144.44,-11.11"/>
<polygon fill="midnightblue" stroke="midnightblue" points="1144.35,-7.61 1134.31,-10.98 1144.26,-14.61 1144.35,-7.61"/>
</g>
<!-- Node19&#45;&gt;Node4 -->
<g id="edge40" class="edge">
<title>Node19&#45;&gt;Node4</title>
<path fill="none" stroke="midnightblue" d="M1513.35,-179.38C1514.47,-163.74 1519.06,-130.58 1538,-112 1557.89,-92.48 1586.05,-81.4 1612.34,-75.13"/>
<polygon fill="midnightblue" stroke="midnightblue" points="1613.28,-78.5 1622.3,-72.95 1611.79,-71.66 1613.28,-78.5"/>
</g>
<!-- Node19&#45;&gt;Node8 -->
<g id="edge41" class="edge">
<title>Node19&#45;&gt;Node8</title>
<path fill="none" stroke="midnightblue" d="M1525.46,-179.48C1537.36,-171.34 1555.71,-158.79 1571.23,-148.18"/>
<polygon fill="midnightblue" stroke="midnightblue" points="1573.22,-151.06 1579.5,-142.52 1569.27,-145.28 1573.22,-151.06"/>
</g>
<!-- Node20&#45;&gt;Node2 -->
<g id="edge43" class="edge">
<title>Node20&#45;&gt;Node2</title>
<path fill="none" stroke="midnightblue" d="M1313.07,-300.32C1246.86,-300.28 1079.88,-295.78 948,-255 846.19,-223.52 829.29,-194.51 736,-143 659.97,-101.02 571.2,-48.97 530.08,-24.68"/>
<polygon fill="midnightblue" stroke="midnightblue" points="531.75,-21.6 521.36,-19.53 528.19,-27.63 531.75,-21.6"/>
</g>
<!-- Node20&#45;&gt;Node3 -->
<g id="edge44" class="edge">
<title>Node20&#45;&gt;Node3</title>
<path fill="none" stroke="midnightblue" d="M1341.75,-291.37C1341.5,-282.32 1341.14,-267.66 1341,-255 1340.9,-246.11 1340.97,-243.89 1341,-235 1341.25,-155.44 1393.33,-116.78 1342,-56 1317.18,-26.61 1214.39,-16.41 1144.37,-12.87"/>
<polygon fill="midnightblue" stroke="midnightblue" points="1144.45,-9.37 1134.29,-12.4 1144.12,-16.36 1144.45,-9.37"/>
</g>
<!-- Node20&#45;&gt;Node4 -->
<g id="edge45" class="edge">
<title>Node20&#45;&gt;Node4</title>
<path fill="none" stroke="midnightblue" d="M1370.6,-297.4C1415.61,-292.67 1505.23,-280.68 1577,-255 1589.27,-250.61 1671.85,-209.17 1680,-199 1704.58,-168.32 1701.11,-150.98 1696,-112 1694.84,-103.18 1692.47,-93.63 1690.13,-85.61"/>
<polygon fill="midnightblue" stroke="midnightblue" points="1693.4,-84.34 1687.09,-75.83 1686.71,-86.42 1693.4,-84.34"/>
</g>
<!-- Node20&#45;&gt;Node8 -->
<g id="edge46" class="edge">
<title>Node20&#45;&gt;Node8</title>
<path fill="none" stroke="midnightblue" d="M1370.58,-294.16C1402.98,-287.03 1457,-273.59 1501,-255 1546.86,-235.63 1572.5,-241.75 1598,-199 1606.2,-185.26 1606.55,-167.17 1604.92,-152.76"/>
<polygon fill="midnightblue" stroke="midnightblue" points="1608.34,-151.96 1603.4,-142.59 1601.42,-153 1608.34,-151.96"/>
</g>
<!-- Node20&#45;&gt;Node9 -->
<g id="edge48" class="edge">
<title>Node20&#45;&gt;Node9</title>
<path fill="none" stroke="midnightblue" d="M1313.37,-300.55C1238.69,-301.29 1032.32,-298.86 868,-255 768.07,-228.33 659.02,-168.86 612.77,-142.06"/>
<polygon fill="midnightblue" stroke="midnightblue" points="614.53,-139.03 604.13,-137 610.99,-145.07 614.53,-139.03"/>
</g>
<!-- Node20&#45;&gt;Node21 -->
<g id="edge47" class="edge">
<title>Node20&#45;&gt;Node21</title>
<path fill="none" stroke="midnightblue" d="M1370.71,-295.38C1420.48,-287.34 1525.98,-270.19 1615,-255 1616.44,-254.75 1617.9,-254.5 1619.38,-254.25"/>
<polygon fill="midnightblue" stroke="midnightblue" points="1619.98,-257.7 1629.24,-252.54 1618.79,-250.8 1619.98,-257.7"/>
</g>
<!-- Node22 -->
<g id="node22" class="node">
<title>Node22</title>
<g id="a_node22"><a xlink:href="month__impl_8h.html" target="_top" xlink:title=" ">
<polygon fill="none" stroke="black" points="1349.5,-235.5 1349.5,-254.5 1458.5,-254.5 1458.5,-235.5 1349.5,-235.5"/>
<text text-anchor="middle" x="1404" y="-242.5" font-family="Helvetica,sans-Serif" font-size="10.00">impl/month_impl.h</text>
</a>
</g>
</g>
<!-- Node20&#45;&gt;Node22 -->
<g id="edge49" class="edge">
<title>Node20&#45;&gt;Node22</title>
<path fill="none" stroke="midnightblue" d="M1351.96,-291.32C1361.13,-283.34 1374.94,-271.31 1386.03,-261.65"/>
<polygon fill="midnightblue" stroke="midnightblue" points="1388.62,-264.04 1393.86,-254.83 1384.02,-258.76 1388.62,-264.04"/>
</g>
<!-- Node22&#45;&gt;Node3 -->
<g id="edge50" class="edge">
<title>Node22&#45;&gt;Node3</title>
<path fill="none" stroke="midnightblue" d="M1406.07,-235.38C1412.63,-205.7 1429.74,-106.77 1380,-56 1348.17,-23.51 1223.57,-14.35 1144.41,-11.84"/>
<polygon fill="midnightblue" stroke="midnightblue" points="1144.13,-8.33 1134.03,-11.55 1143.93,-15.33 1144.13,-8.33"/>
</g>
<!-- Node22&#45;&gt;Node5 -->
<g id="edge51" class="edge">
<title>Node22&#45;&gt;Node5</title>
<path fill="none" stroke="midnightblue" d="M1410.29,-235.43C1435.37,-201.26 1528.54,-74.31 1562.5,-28.03"/>
<polygon fill="midnightblue" stroke="midnightblue" points="1565.38,-30.03 1568.47,-19.9 1559.73,-25.89 1565.38,-30.03"/>
</g>
<!-- Node22&#45;&gt;Node11 -->
<g id="edge52" class="edge">
<title>Node22&#45;&gt;Node11</title>
<path fill="none" stroke="midnightblue" d="M1349.31,-237.38C1270.7,-227.86 1125.36,-210.26 1035.64,-199.4"/>
<polygon fill="midnightblue" stroke="midnightblue" points="1035.87,-195.9 1025.53,-198.18 1035.03,-202.85 1035.87,-195.9"/>
</g>
<!-- Node22&#45;&gt;Node19 -->
<g id="edge53" class="edge">
<title>Node22&#45;&gt;Node19</title>
<path fill="none" stroke="midnightblue" d="M1421.51,-235.32C1439.07,-226.62 1466.33,-213.12 1486.53,-203.11"/>
<polygon fill="midnightblue" stroke="midnightblue" points="1488.12,-206.23 1495.53,-198.65 1485.02,-199.96 1488.12,-206.23"/>
</g>
<!-- Node23&#45;&gt;Node3 -->
<g id="edge61" class="edge">
<title>Node23&#45;&gt;Node3</title>
<path fill="none" stroke="midnightblue" d="M1720.72,-235.79C1628.27,-223.36 1463.56,-200.98 1461,-199 1406.5,-156.8 1455.79,-97.82 1401,-56 1361.89,-26.15 1227.29,-16.09 1144.38,-12.71"/>
<polygon fill="midnightblue" stroke="midnightblue" points="1144.42,-9.21 1134.29,-12.32 1144.15,-16.2 1144.42,-9.21"/>
</g>
<!-- Node23&#45;&gt;Node5 -->
<g id="edge62" class="edge">
<title>Node23&#45;&gt;Node5</title>
<path fill="none" stroke="midnightblue" d="M1783.8,-235.13C1789.26,-205.46 1802.5,-108.63 1755,-56 1739,-38.27 1681.14,-25.98 1635.29,-18.78"/>
<polygon fill="midnightblue" stroke="midnightblue" points="1635.52,-15.28 1625.11,-17.23 1634.47,-22.2 1635.52,-15.28"/>
</g>
<!-- Node23&#45;&gt;Node19 -->
<g id="edge60" class="edge">
<title>Node23&#45;&gt;Node19</title>
<path fill="none" stroke="midnightblue" d="M1739.38,-235.44C1692.25,-225.98 1616.31,-210.74 1565.54,-200.55"/>
<polygon fill="midnightblue" stroke="midnightblue" points="1565.92,-197.05 1555.42,-198.52 1564.54,-203.92 1565.92,-197.05"/>
</g>
<!-- Node25&#45;&gt;Node2 -->
<g id="edge68" class="edge">
<title>Node25&#45;&gt;Node2</title>
<path fill="none" stroke="midnightblue" d="M399.99,-187.41C286.53,-184.43 -42.82,-166.3 57,-56 83.06,-27.21 337.56,-16.04 451.88,-12.46"/>
<polygon fill="midnightblue" stroke="midnightblue" points="452.28,-15.94 462.17,-12.14 452.07,-8.95 452.28,-15.94"/>
</g>
<!-- Node25&#45;&gt;Node3 -->
<g id="edge69" class="edge">
<title>Node25&#45;&gt;Node3</title>
<path fill="none" stroke="midnightblue" d="M442.86,-179.27C453.19,-164.31 475.83,-133.31 500,-112 534.77,-81.34 544.13,-70.99 588,-56 664.26,-29.94 894.55,-17.83 1009.8,-13.28"/>
<polygon fill="midnightblue" stroke="midnightblue" points="1010.05,-16.77 1019.91,-12.89 1009.78,-9.78 1010.05,-16.77"/>
</g>
<!-- Node25&#45;&gt;Node8 -->
<g id="edge82" class="edge">
<title>Node25&#45;&gt;Node8</title>
<path fill="none" stroke="midnightblue" d="M474.05,-186.1C640.83,-177.57 1323.02,-142.67 1536.1,-131.77"/>
<polygon fill="midnightblue" stroke="midnightblue" points="1536.38,-135.26 1546.19,-131.25 1536.02,-128.27 1536.38,-135.26"/>
</g>
<!-- Node25&#45;&gt;Node9 -->
<g id="edge71" class="edge">
<title>Node25&#45;&gt;Node9</title>
<path fill="none" stroke="midnightblue" d="M458.92,-179.48C485.05,-169.31 528.91,-152.26 558.63,-140.7"/>
<polygon fill="midnightblue" stroke="midnightblue" points="560.07,-143.9 568.12,-137.01 557.53,-137.37 560.07,-143.9"/>
</g>
<!-- Node25&#45;&gt;Node13 -->
<g id="edge72" class="edge">
<title>Node25&#45;&gt;Node13</title>
<path fill="none" stroke="midnightblue" d="M448.55,-179.39C469.58,-164.06 515.9,-131.77 559,-112 591.16,-97.25 629.47,-85.54 658.49,-77.76"/>
<polygon fill="midnightblue" stroke="midnightblue" points="659.56,-81.1 668.34,-75.18 657.78,-74.33 659.56,-81.1"/>
</g>
<!-- Node26 -->
<g id="node26" class="node">
<title>Node26</title>
<g id="a_node26"><a xlink:title=" ">
<polygon fill="none" stroke="#bfbfbf" points="180,-118 180,-137 230,-137 230,-118 180,-118"/>
<text text-anchor="middle" x="205" y="-125" font-family="Helvetica,sans-Serif" font-size="10.00">chrono</text>
</a>
</g>
</g>
<!-- Node25&#45;&gt;Node26 -->
<g id="edge70" class="edge">
<title>Node25&#45;&gt;Node26</title>
<path fill="none" stroke="midnightblue" d="M399.97,-181.65C359.79,-174.27 294,-160.82 239,-143 237.08,-142.38 235.11,-141.69 233.15,-140.96"/>
<polygon fill="midnightblue" stroke="midnightblue" points="234.06,-137.55 223.48,-137.09 231.46,-144.05 234.06,-137.55"/>
</g>
<!-- Node27 -->
<g id="node27" class="node">
<title>Node27</title>
<g id="a_node27"><a xlink:href="_type_traits_8h.html" target="_top" xlink:title=" ">
<polygon fill="none" stroke="black" points="248,-118 248,-137 360,-137 360,-118 248,-118"/>
<text text-anchor="middle" x="304" y="-125" font-family="Helvetica,sans-Serif" font-size="10.00">../meta/TypeTraits.h</text>
</a>
</g>
</g>
<!-- Node25&#45;&gt;Node27 -->
<g id="edge73" class="edge">
<title>Node25&#45;&gt;Node27</title>
<path fill="none" stroke="midnightblue" d="M417.94,-179.48C395.53,-169.45 358.09,-152.7 332.29,-141.15"/>
<polygon fill="midnightblue" stroke="midnightblue" points="333.58,-137.9 323.02,-137.01 330.72,-144.29 333.58,-137.9"/>
</g>
<!-- Node27&#45;&gt;Node2 -->
<g id="edge77" class="edge">
<title>Node27&#45;&gt;Node2</title>
<path fill="none" stroke="midnightblue" d="M313.84,-117.78C330.35,-103.48 365.03,-74.77 398,-56 421.45,-42.65 449.65,-31.12 471.49,-23.07"/>
<polygon fill="midnightblue" stroke="midnightblue" points="472.82,-26.31 481.04,-19.62 470.44,-19.73 472.82,-26.31"/>
</g>
<!-- Node27&#45;&gt;Node3 -->
<g id="edge79" class="edge">
<title>Node27&#45;&gt;Node3</title>
<path fill="none" stroke="midnightblue" d="M328.07,-117.91C371.69,-102.72 466.98,-71.29 550,-56 713.49,-25.89 909.29,-15.86 1009.95,-12.57"/>
<polygon fill="midnightblue" stroke="midnightblue" points="1010.09,-16.07 1019.98,-12.25 1009.87,-9.07 1010.09,-16.07"/>
</g>
<!-- Node27&#45;&gt;Node5 -->
<g id="edge78" class="edge">
<title>Node27&#45;&gt;Node5</title>
<path fill="none" stroke="midnightblue" d="M360.21,-123.2C411.87,-120.2 490.59,-115.67 559,-112 875.39,-95.01 959.34,-133.12 1271,-76 1299.48,-70.78 1304.93,-63.11 1333,-56 1394.11,-40.53 1465.14,-27.95 1514.37,-20.06"/>
<polygon fill="midnightblue" stroke="midnightblue" points="1515.21,-23.47 1524.54,-18.45 1514.11,-16.56 1515.21,-23.47"/>
</g>
<!-- Node27&#45;&gt;Node13 -->
<g id="edge74" class="edge">
<title>Node27&#45;&gt;Node13</title>
<path fill="none" stroke="midnightblue" d="M360.32,-118.1C440.27,-106.18 585.07,-84.59 658.19,-73.68"/>
<polygon fill="midnightblue" stroke="midnightblue" points="659.06,-77.09 668.44,-72.15 658.03,-70.17 659.06,-77.09"/>
</g>
<!-- Node27&#45;&gt;Node24 -->
<g id="edge76" class="edge">
<title>Node27&#45;&gt;Node24</title>
<path fill="none" stroke="midnightblue" d="M272.2,-117.99C237.26,-108.59 179.21,-92.89 119.91,-76.23"/>
<polygon fill="midnightblue" stroke="midnightblue" points="120.58,-72.78 110,-73.44 118.68,-79.51 120.58,-72.78"/>
</g>
<!-- Node28 -->
<g id="node28" class="node">
<title>Node28</title>
<g id="a_node28"><a xlink:title=" ">
<polygon fill="none" stroke="#bfbfbf" points="288.5,-56.5 288.5,-75.5 345.5,-75.5 345.5,-56.5 288.5,-56.5"/>
<text text-anchor="middle" x="317" y="-63.5" font-family="Helvetica,sans-Serif" font-size="10.00">typeinfo</text>
</a>
</g>
</g>
<!-- Node27&#45;&gt;Node28 -->
<g id="edge75" class="edge">
<title>Node27&#45;&gt;Node28</title>
<path fill="none" stroke="midnightblue" d="M305.86,-117.98C307.72,-109.49 310.62,-96.2 313,-85.32"/>
<polygon fill="midnightblue" stroke="midnightblue" points="316.43,-86.03 315.14,-75.51 309.59,-84.53 316.43,-86.03"/>
</g>
<!-- Node29 -->
<g id="node29" class="node">
<title>Node29</title>
<g id="a_node29"><a xlink:title=" ">
<polygon fill="none" stroke="#bfbfbf" points="128.5,-56.5 128.5,-75.5 193.5,-75.5 193.5,-56.5 128.5,-56.5"/>
<text text-anchor="middle" x="161" y="-63.5" font-family="Helvetica,sans-Serif" font-size="10.00">exception</text>
</a>
</g>
</g>
<!-- Node27&#45;&gt;Node29 -->
<g id="edge80" class="edge">
<title>Node27&#45;&gt;Node29</title>
<path fill="none" stroke="midnightblue" d="M283.51,-117.98C259.19,-107.86 218.45,-90.9 190.68,-79.35"/>
<polygon fill="midnightblue" stroke="midnightblue" points="192.03,-76.12 181.45,-75.51 189.34,-82.58 192.03,-76.12"/>
</g>
<!-- Node30 -->
<g id="node30" class="node">
<title>Node30</title>
<g id="a_node30"><a xlink:title=" ">
<polygon fill="none" stroke="#bfbfbf" points="212,-56.5 212,-75.5 270,-75.5 270,-56.5 212,-56.5"/>
<text text-anchor="middle" x="241" y="-63.5" font-family="Helvetica,sans-Serif" font-size="10.00">cxxabi.h</text>
</a>
</g>
</g>
<!-- Node27&#45;&gt;Node30 -->
<g id="edge81" class="edge">
<title>Node27&#45;&gt;Node30</title>
<path fill="none" stroke="midnightblue" d="M294.97,-117.98C285.24,-108.78 269.54,-93.96 257.58,-82.66"/>
<polygon fill="midnightblue" stroke="midnightblue" points="259.68,-79.83 250.01,-75.51 254.88,-84.92 259.68,-79.83"/>
</g>
<!-- Node31&#45;&gt;Node3 -->
<g id="edge85" class="edge">
<title>Node31&#45;&gt;Node3</title>
<path fill="none" stroke="midnightblue" d="M2061.46,-235.3C2056.79,-211.52 2040.44,-145 1999,-112 1955.48,-77.35 1810.04,-64.09 1755,-56 1533,-23.37 1266.61,-14.39 1144.34,-11.92"/>
<polygon fill="midnightblue" stroke="midnightblue" points="1144.09,-8.42 1134.02,-11.72 1143.95,-15.42 1144.09,-8.42"/>
</g>
<!-- Node31&#45;&gt;Node5 -->
<g id="edge86" class="edge">
<title>Node31&#45;&gt;Node5</title>
<path fill="none" stroke="midnightblue" d="M2064.19,-235.48C2066.91,-212.16 2070.99,-146.71 2037,-112 1981.57,-55.41 1747.18,-26.74 1635.14,-16.06"/>
<polygon fill="midnightblue" stroke="midnightblue" points="1635.29,-12.56 1625.01,-15.11 1634.64,-19.53 1635.29,-12.56"/>
</g>
<!-- Node31&#45;&gt;Node19 -->
<g id="edge87" class="edge">
<title>Node31&#45;&gt;Node19</title>
<path fill="none" stroke="midnightblue" d="M2013.22,-239.11C1909.83,-228.96 1672.65,-205.67 1566.3,-195.23"/>
<polygon fill="midnightblue" stroke="midnightblue" points="1566.42,-191.73 1556.12,-194.23 1565.73,-198.69 1566.42,-191.73"/>
</g>
</g>
</svg>
