<?xml version="1.0" encoding="UTF-8" standalone="no"?>
<!DOCTYPE svg PUBLIC "-//W3C//DTD SVG 1.1//EN"
 "http://www.w3.org/Graphics/SVG/1.1/DTD/svg11.dtd">
<!-- Generated by graphviz version 2.43.0 (0)
 -->
<!-- Title: date_impl.h Pages: 1 -->
<svg width="388pt" height="196pt"
 viewBox="0.00 0.00 387.55 196.00" xmlns="http://www.w3.org/2000/svg" xmlns:xlink="http://www.w3.org/1999/xlink">
<g id="graph0" class="graph" transform="scale(1 1) rotate(0) translate(4 192)">
<title>date_impl.h</title>
<!-- Node1 -->
<g id="node1" class="node">
<title>Node1</title>
<g id="a_node1"><a xlink:title=" ">
<polygon fill="#bfbfbf" stroke="black" points="37.05,-168.5 37.05,-187.5 111.05,-187.5 111.05,-168.5 37.05,-168.5"/>
<text text-anchor="middle" x="74.05" y="-175.5" font-family="Helvetica,sans-Serif" font-size="10.00">date_impl.h</text>
</a>
</g>
</g>
<!-- Node2 -->
<g id="node2" class="node">
<title>Node2</title>
<g id="a_node2"><a xlink:href="limes__namespace_8h.html" target="_top" xlink:title=" ">
<polygon fill="none" stroke="black" points="17.05,-56.5 17.05,-75.5 131.05,-75.5 131.05,-56.5 17.05,-56.5"/>
<text text-anchor="middle" x="74.05" y="-63.5" font-family="Helvetica,sans-Serif" font-size="10.00">limes_namespace.h</text>
</a>
</g>
</g>
<!-- Node1&#45;&gt;Node2 -->
<g id="edge1" class="edge">
<title>Node1&#45;&gt;Node2</title>
<path fill="none" stroke="midnightblue" d="M74.05,-168.37C74.05,-150.62 74.05,-109.67 74.05,-85.6"/>
<polygon fill="midnightblue" stroke="midnightblue" points="77.55,-85.59 74.05,-75.59 70.55,-85.59 77.55,-85.59"/>
</g>
<!-- Node3 -->
<g id="node3" class="node">
<title>Node3</title>
<g id="a_node3"><a xlink:title=" ">
<polygon fill="none" stroke="#bfbfbf" points="103.05,-0.5 103.05,-19.5 203.05,-19.5 203.05,-0.5 103.05,-0.5"/>
<text text-anchor="middle" x="153.05" y="-7.5" font-family="Helvetica,sans-Serif" font-size="10.00">limes_platform.h</text>
</a>
</g>
</g>
<!-- Node1&#45;&gt;Node3 -->
<g id="edge2" class="edge">
<title>Node1&#45;&gt;Node3</title>
<path fill="none" stroke="midnightblue" d="M62.65,-168.31C37.05,-147.75 -20.62,-94.92 8.05,-56 27.44,-29.69 62.05,-18.31 92.61,-13.57"/>
<polygon fill="midnightblue" stroke="midnightblue" points="93.34,-17 102.78,-12.2 92.41,-10.06 93.34,-17"/>
</g>
<!-- Node4 -->
<g id="node4" class="node">
<title>Node4</title>
<g id="a_node4"><a xlink:href="build__date_8h.html" target="_top" xlink:title=" ">
<polygon fill="none" stroke="black" points="126.05,-112.5 126.05,-131.5 212.05,-131.5 212.05,-112.5 126.05,-112.5"/>
<text text-anchor="middle" x="169.05" y="-119.5" font-family="Helvetica,sans-Serif" font-size="10.00">../build_date.h</text>
</a>
</g>
</g>
<!-- Node1&#45;&gt;Node4 -->
<g id="edge3" class="edge">
<title>Node1&#45;&gt;Node4</title>
<path fill="none" stroke="midnightblue" d="M89.32,-168.32C104.27,-159.82 127.31,-146.73 144.78,-136.8"/>
<polygon fill="midnightblue" stroke="midnightblue" points="146.86,-139.64 153.83,-131.65 143.4,-133.55 146.86,-139.64"/>
</g>
<!-- Node4&#45;&gt;Node2 -->
<g id="edge5" class="edge">
<title>Node4&#45;&gt;Node2</title>
<path fill="none" stroke="midnightblue" d="M153.79,-112.32C138.83,-103.82 115.8,-90.73 98.33,-80.8"/>
<polygon fill="midnightblue" stroke="midnightblue" points="99.7,-77.55 89.28,-75.65 96.24,-83.64 99.7,-77.55"/>
</g>
<!-- Node5 -->
<g id="node5" class="node">
<title>Node5</title>
<g id="a_node5"><a xlink:title=" ">
<polygon fill="none" stroke="#bfbfbf" points="149.55,-56.5 149.55,-75.5 238.55,-75.5 238.55,-56.5 149.55,-56.5"/>
<text text-anchor="middle" x="194.05" y="-63.5" font-family="Helvetica,sans-Serif" font-size="10.00">limes_export.h</text>
</a>
</g>
</g>
<!-- Node4&#45;&gt;Node5 -->
<g id="edge4" class="edge">
<title>Node4&#45;&gt;Node5</title>
<path fill="none" stroke="midnightblue" d="M173.18,-112.08C176.57,-104.77 181.47,-94.18 185.67,-85.1"/>
<polygon fill="midnightblue" stroke="midnightblue" points="188.98,-86.3 190,-75.75 182.62,-83.36 188.98,-86.3"/>
</g>
<!-- Node6 -->
<g id="node6" class="node">
<title>Node6</title>
<g id="a_node6"><a xlink:href="preprocessor_8h.html" target="_top" xlink:title=" ">
<polygon fill="none" stroke="black" points="256.55,-56.5 256.55,-75.5 379.55,-75.5 379.55,-56.5 256.55,-56.5"/>
<text text-anchor="middle" x="318.05" y="-63.5" font-family="Helvetica,sans-Serif" font-size="10.00">../misc/preprocessor.h</text>
</a>
</g>
</g>
<!-- Node4&#45;&gt;Node6 -->
<g id="edge6" class="edge">
<title>Node4&#45;&gt;Node6</title>
<path fill="none" stroke="midnightblue" d="M192.66,-112.44C217.51,-103.44 256.83,-89.19 284.81,-79.05"/>
<polygon fill="midnightblue" stroke="midnightblue" points="286.34,-82.21 294.55,-75.52 283.96,-75.63 286.34,-82.21"/>
</g>
<!-- Node6&#45;&gt;Node3 -->
<g id="edge7" class="edge">
<title>Node6&#45;&gt;Node3</title>
<path fill="none" stroke="midnightblue" d="M291.91,-56.44C264.03,-47.32 219.7,-32.81 188.65,-22.65"/>
<polygon fill="midnightblue" stroke="midnightblue" points="189.67,-19.3 179.07,-19.52 187.49,-25.95 189.67,-19.3"/>
</g>
</g>
</svg>
