<?xml version="1.0" encoding="UTF-8" standalone="no"?>
<!DOCTYPE svg PUBLIC "-//W3C//DTD SVG 1.1//EN"
 "http://www.w3.org/Graphics/SVG/1.1/DTD/svg11.dtd">
<!-- Generated by graphviz version 2.43.0 (0)
 -->
<!-- Title: date.h Pages: 1 -->
<!--zoomable 420 -->
<svg id="main" version="1.1" xmlns="http://www.w3.org/2000/svg" xmlns:xlink="http://www.w3.org/1999/xlink" xml:space="preserve" onload="init(evt)">
<style type="text/css"><![CDATA[
.edge:hover path { stroke: red; }
.edge:hover polygon { stroke: red; fill: red; }
]]></style>
<script type="text/javascript"><![CDATA[
var edges = document.getElementsByTagName('g');
if (edges && edges.length) {
  for (var i=0;i<edges.length;i++) {
    if (edges[i].id.substr(0,4)=='edge') {
      edges[i].setAttribute('class','edge');
    }
  }
}
]]></script>
        <defs>
                <circle id="rim" cx="0" cy="0" r="7"/>
                <circle id="rim2" cx="0" cy="0" r="3.5"/>
                <g id="zoomPlus">
                        <use xlink:href="#rim" fill="#404040">
                                <set attributeName="fill" to="#808080" begin="zoomplus.mouseover" end="zoomplus.mouseout"/>
                        </use>
                        <path d="M-4,0h8M0,-4v8" fill="none" stroke="white" stroke-width="1.5" pointer-events="none"/>
                </g>
                <g id="zoomMin">
                        <use xlink:href="#rim" fill="#404040">
                                <set attributeName="fill" to="#808080" begin="zoomminus.mouseover" end="zoomminus.mouseout"/>
                        </use>
                        <path d="M-4,0h8" fill="none" stroke="white" stroke-width="1.5" pointer-events="none"/>
                </g>
                <g id="dirArrow">
                        <path fill="none" stroke="white" stroke-width="1.5" d="M0,-3.0v7 M-2.5,-0.5L0,-3.0L2.5,-0.5"/>
                </g>
               <g id="resetDef">
                       <use xlink:href="#rim2" fill="#404040">
                               <set attributeName="fill" to="#808080" begin="reset.mouseover" end="reset.mouseout"/>
                       </use>
               </g>
        </defs>

<script type="text/javascript">
var viewWidth = 1961;
var viewHeight = 420;
var sectionId = 'dynsection-0';
</script>
<script xlink:href="svgpan.js"/>
<svg id="graph" class="graph">
<g id="viewport">
<title>date.h</title>
<!-- Node1 -->
<g id="node1" class="node">
<title>Node1</title>
<g id="a_node1"><a xlink:title=" ">
<polygon fill="#bfbfbf" stroke="black" points="987.5,-392.5 987.5,-411.5 1034.5,-411.5 1034.5,-392.5 987.5,-392.5"/>
<text text-anchor="middle" x="1011" y="-399.5" font-family="Helvetica,sans-Serif" font-size="10.00">date.h</text>
</a>
</g>
</g>
<!-- Node2 -->
<g id="node2" class="node">
<title>Node2</title>
<g id="a_node2"><a xlink:title=" ">
<polygon fill="none" stroke="#bfbfbf" points="1319.5,-0.5 1319.5,-19.5 1408.5,-19.5 1408.5,-0.5 1319.5,-0.5"/>
<text text-anchor="middle" x="1364" y="-7.5" font-family="Helvetica,sans-Serif" font-size="10.00">limes_export.h</text>
</a>
</g>
</g>
<!-- Node1&#45;&gt;Node2 -->
<g id="edge1" class="edge">
<title>Node1&#45;&gt;Node2</title>
<path fill="none" stroke="midnightblue" d="M1034.73,-400.79C1180.83,-399.2 1952,-386.3 1952,-291 1952,-291 1952,-291 1952,-121 1952,-90.9 1956.35,-74.99 1933,-56 1893.66,-24.01 1553.53,-14.41 1418.71,-11.84"/>
<polygon fill="midnightblue" stroke="midnightblue" points="1418.67,-8.34 1408.6,-11.66 1418.54,-15.34 1418.67,-8.34"/>
</g>
<!-- Node3 -->
<g id="node3" class="node">
<title>Node3</title>
<g id="a_node3"><a xlink:href="limes__namespace_8h.html" target="_top" xlink:title=" ">
<polygon fill="none" stroke="black" points="479,-0.5 479,-19.5 593,-19.5 593,-0.5 479,-0.5"/>
<text text-anchor="middle" x="536" y="-7.5" font-family="Helvetica,sans-Serif" font-size="10.00">limes_namespace.h</text>
</a>
</g>
</g>
<!-- Node1&#45;&gt;Node3 -->
<g id="edge2" class="edge">
<title>Node1&#45;&gt;Node3</title>
<path fill="none" stroke="midnightblue" d="M987.41,-400.54C861.3,-397.54 268.47,-376.46 159,-244 119.38,-196.07 185.76,-245.49 250,-188 299.49,-143.72 266.91,-95.89 320,-56 343.17,-38.59 414.43,-26.04 468.82,-18.69"/>
<polygon fill="midnightblue" stroke="midnightblue" points="469.31,-22.15 478.77,-17.37 468.4,-15.21 469.31,-22.15"/>
</g>
<!-- Node4 -->
<g id="node4" class="node">
<title>Node4</title>
<g id="a_node4"><a xlink:href="preprocessor_8h.html" target="_top" xlink:title=" ">
<polygon fill="none" stroke="black" points="4.5,-56.5 4.5,-75.5 127.5,-75.5 127.5,-56.5 4.5,-56.5"/>
<text text-anchor="middle" x="66" y="-63.5" font-family="Helvetica,sans-Serif" font-size="10.00">../misc/preprocessor.h</text>
</a>
</g>
</g>
<!-- Node1&#45;&gt;Node4 -->
<g id="edge3" class="edge">
<title>Node1&#45;&gt;Node4</title>
<path fill="none" stroke="midnightblue" d="M987.16,-400.51C852.81,-397.68 193.28,-382.48 107,-356 53.81,-339.67 0,-346.64 0,-291 0,-291 0,-291 0,-177 0,-138.86 29.54,-102.52 49.09,-82.64"/>
<polygon fill="midnightblue" stroke="midnightblue" points="51.56,-85.12 56.26,-75.63 46.67,-80.12 51.56,-85.12"/>
</g>
<!-- Node6 -->
<g id="node6" class="node">
<title>Node6</title>
<g id="a_node6"><a xlink:href="weekday_8h.html" target="_top" xlink:title=" ">
<polygon fill="none" stroke="black" points="946,-336.5 946,-355.5 1014,-355.5 1014,-336.5 946,-336.5"/>
<text text-anchor="middle" x="980" y="-343.5" font-family="Helvetica,sans-Serif" font-size="10.00">weekday.h</text>
</a>
</g>
</g>
<!-- Node1&#45;&gt;Node6 -->
<g id="edge5" class="edge">
<title>Node1&#45;&gt;Node6</title>
<path fill="none" stroke="midnightblue" d="M1005.88,-392.08C1001.59,-384.61 995.34,-373.72 990.06,-364.52"/>
<polygon fill="midnightblue" stroke="midnightblue" points="993.04,-362.68 985.02,-355.75 986.97,-366.17 993.04,-362.68"/>
</g>
<!-- Node7 -->
<g id="node7" class="node">
<title>Node7</title>
<g id="a_node7"><a xlink:href="year_8h.html" target="_top" xlink:title=" ">
<polygon fill="none" stroke="black" points="1018.5,-280.5 1018.5,-299.5 1065.5,-299.5 1065.5,-280.5 1018.5,-280.5"/>
<text text-anchor="middle" x="1042" y="-287.5" font-family="Helvetica,sans-Serif" font-size="10.00">year.h</text>
</a>
</g>
</g>
<!-- Node1&#45;&gt;Node7 -->
<g id="edge57" class="edge">
<title>Node1&#45;&gt;Node7</title>
<path fill="none" stroke="midnightblue" d="M1013.43,-392.37C1018.46,-374.54 1030.08,-333.3 1036.85,-309.27"/>
<polygon fill="midnightblue" stroke="midnightblue" points="1040.23,-310.17 1039.58,-299.59 1033.5,-308.27 1040.23,-310.17"/>
</g>
<!-- Node8 -->
<g id="node8" class="node">
<title>Node8</title>
<g id="a_node8"><a xlink:title=" ">
<polygon fill="none" stroke="#bfbfbf" points="1392,-224.5 1392,-243.5 1436,-243.5 1436,-224.5 1392,-224.5"/>
<text text-anchor="middle" x="1414" y="-231.5" font-family="Helvetica,sans-Serif" font-size="10.00">ctime</text>
</a>
</g>
</g>
<!-- Node1&#45;&gt;Node8 -->
<g id="edge58" class="edge">
<title>Node1&#45;&gt;Node8</title>
<path fill="none" stroke="midnightblue" d="M1034.54,-398.12C1110.66,-388.34 1348.27,-353.95 1400,-300 1411.6,-287.9 1414.55,-268.62 1414.92,-254.19"/>
<polygon fill="midnightblue" stroke="midnightblue" points="1418.42,-253.85 1414.79,-243.89 1411.42,-253.94 1418.42,-253.85"/>
</g>
<!-- Node20 -->
<g id="node20" class="node">
<title>Node20</title>
<g id="a_node20"><a xlink:href="month_8h.html" target="_top" xlink:title=" ">
<polygon fill="none" stroke="black" points="587.5,-280.5 587.5,-299.5 644.5,-299.5 644.5,-280.5 587.5,-280.5"/>
<text text-anchor="middle" x="616" y="-287.5" font-family="Helvetica,sans-Serif" font-size="10.00">month.h</text>
</a>
</g>
</g>
<!-- Node1&#45;&gt;Node20 -->
<g id="edge56" class="edge">
<title>Node1&#45;&gt;Node20</title>
<path fill="none" stroke="midnightblue" d="M987.47,-394.45C921.69,-376.13 735.4,-324.25 654.4,-301.69"/>
<polygon fill="midnightblue" stroke="midnightblue" points="655.17,-298.28 644.6,-298.96 653.3,-305.02 655.17,-298.28"/>
</g>
<!-- Node24 -->
<g id="node24" class="node">
<title>Node24</title>
<g id="a_node24"><a xlink:title=" ">
<polygon fill="none" stroke="#bfbfbf" points="1880,-56.5 1880,-75.5 1924,-75.5 1924,-56.5 1880,-56.5"/>
<text text-anchor="middle" x="1902" y="-63.5" font-family="Helvetica,sans-Serif" font-size="10.00">string</text>
</a>
</g>
</g>
<!-- Node1&#45;&gt;Node24 -->
<g id="edge59" class="edge">
<title>Node1&#45;&gt;Node24</title>
<path fill="none" stroke="midnightblue" d="M1034.8,-400.4C1170.07,-396.67 1836,-374.09 1836,-291 1836,-291 1836,-291 1836,-177 1836,-138.86 1865.54,-102.52 1885.09,-82.64"/>
<polygon fill="midnightblue" stroke="midnightblue" points="1887.56,-85.12 1892.26,-75.63 1882.67,-80.12 1887.56,-85.12"/>
</g>
<!-- Node25 -->
<g id="node25" class="node">
<title>Node25</title>
<g id="a_node25"><a xlink:href="time__utils_8h.html" target="_top" xlink:title=" ">
<polygon fill="none" stroke="black" points="1521,-280.5 1521,-299.5 1595,-299.5 1595,-280.5 1521,-280.5"/>
<text text-anchor="middle" x="1558" y="-287.5" font-family="Helvetica,sans-Serif" font-size="10.00">time_utils.h</text>
</a>
</g>
</g>
<!-- Node1&#45;&gt;Node25 -->
<g id="edge60" class="edge">
<title>Node1&#45;&gt;Node25</title>
<path fill="none" stroke="midnightblue" d="M1034.77,-401.29C1122.05,-402 1424.11,-401.07 1507,-356 1526.43,-345.43 1540.96,-324.01 1549.44,-308.64"/>
<polygon fill="midnightblue" stroke="midnightblue" points="1552.64,-310.08 1554.13,-299.6 1546.42,-306.86 1552.64,-310.08"/>
</g>
<!-- Node31 -->
<g id="node31" class="node">
<title>Node31</title>
<g id="a_node31"><a xlink:href="date__impl_8h.html" target="_top" xlink:title=" ">
<polygon fill="none" stroke="black" points="142.5,-168.5 142.5,-187.5 241.5,-187.5 241.5,-168.5 142.5,-168.5"/>
<text text-anchor="middle" x="192" y="-175.5" font-family="Helvetica,sans-Serif" font-size="10.00">impl/date_impl.h</text>
</a>
</g>
</g>
<!-- Node1&#45;&gt;Node31 -->
<g id="edge75" class="edge">
<title>Node1&#45;&gt;Node31</title>
<path fill="none" stroke="midnightblue" d="M987.32,-400.71C849.56,-398.88 156.54,-388.13 126,-356 85.58,-313.48 98.59,-275.87 126,-224 133.42,-209.95 147.42,-199.47 160.62,-192.17"/>
<polygon fill="midnightblue" stroke="midnightblue" points="162.22,-195.28 169.54,-187.62 159.04,-189.04 162.22,-195.28"/>
</g>
<!-- Node5 -->
<g id="node5" class="node">
<title>Node5</title>
<g id="a_node5"><a xlink:title=" ">
<polygon fill="none" stroke="#bfbfbf" points="258,-0.5 258,-19.5 358,-19.5 358,-0.5 258,-0.5"/>
<text text-anchor="middle" x="308" y="-7.5" font-family="Helvetica,sans-Serif" font-size="10.00">limes_platform.h</text>
</a>
</g>
</g>
<!-- Node4&#45;&gt;Node5 -->
<g id="edge4" class="edge">
<title>Node4&#45;&gt;Node5</title>
<path fill="none" stroke="midnightblue" d="M104.35,-56.44C146.47,-47.04 214.21,-31.93 259.87,-21.74"/>
<polygon fill="midnightblue" stroke="midnightblue" points="260.84,-25.11 269.83,-19.52 259.31,-18.28 260.84,-25.11"/>
</g>
<!-- Node6&#45;&gt;Node2 -->
<g id="edge6" class="edge">
<title>Node6&#45;&gt;Node2</title>
<path fill="none" stroke="midnightblue" d="M1014.22,-344.67C1102.15,-343.29 1333.72,-336.23 1400,-300 1495.57,-247.75 1477.57,-150.27 1423,-56 1415.44,-42.94 1402.45,-32.41 1390.57,-24.83"/>
<polygon fill="midnightblue" stroke="midnightblue" points="1392.2,-21.73 1381.82,-19.61 1388.62,-27.74 1392.2,-21.73"/>
</g>
<!-- Node6&#45;&gt;Node3 -->
<g id="edge7" class="edge">
<title>Node6&#45;&gt;Node3</title>
<path fill="none" stroke="midnightblue" d="M980,-336.44C980,-317.94 980,-272.81 980,-235 980,-235 980,-235 980,-177 980,-110.5 949.24,-89.84 892,-56 844.56,-27.96 692.64,-17.18 603.33,-13.2"/>
<polygon fill="midnightblue" stroke="midnightblue" points="603.43,-9.7 593.29,-12.77 603.13,-16.7 603.43,-9.7"/>
</g>
<!-- Node6&#45;&gt;Node4 -->
<g id="edge48" class="edge">
<title>Node6&#45;&gt;Node4</title>
<path fill="none" stroke="midnightblue" d="M945.86,-343.37C809.52,-336.47 304.43,-307.06 159,-244 120.18,-227.17 106.81,-222.28 82,-188 60.02,-157.63 60.78,-111.45 63.34,-85.82"/>
<polygon fill="midnightblue" stroke="midnightblue" points="66.85,-85.96 64.58,-75.61 59.9,-85.12 66.85,-85.96"/>
</g>
<!-- Node6&#45;&gt;Node7 -->
<g id="edge8" class="edge">
<title>Node6&#45;&gt;Node7</title>
<path fill="none" stroke="midnightblue" d="M989.96,-336.32C999.13,-328.34 1012.94,-316.31 1024.03,-306.65"/>
<polygon fill="midnightblue" stroke="midnightblue" points="1026.62,-309.04 1031.86,-299.83 1022.02,-303.76 1026.62,-309.04"/>
</g>
<!-- Node6&#45;&gt;Node8 -->
<g id="edge51" class="edge">
<title>Node6&#45;&gt;Node8</title>
<path fill="none" stroke="midnightblue" d="M1014.04,-345.07C1099.17,-344.63 1318.73,-339.58 1378,-300 1394.06,-289.28 1403.64,-268.87 1408.84,-253.78"/>
<polygon fill="midnightblue" stroke="midnightblue" points="1412.27,-254.52 1411.87,-243.93 1405.58,-252.46 1412.27,-254.52"/>
</g>
<!-- Node12 -->
<g id="node12" class="node">
<title>Node12</title>
<g id="a_node12"><a xlink:title=" ">
<polygon fill="none" stroke="#bfbfbf" points="1329.5,-56.5 1329.5,-75.5 1398.5,-75.5 1398.5,-56.5 1329.5,-56.5"/>
<text text-anchor="middle" x="1364" y="-63.5" font-family="Helvetica,sans-Serif" font-size="10.00">type_traits</text>
</a>
</g>
</g>
<!-- Node6&#45;&gt;Node12 -->
<g id="edge50" class="edge">
<title>Node6&#45;&gt;Node12</title>
<path fill="none" stroke="midnightblue" d="M1014.08,-342.57C1108.06,-334.93 1364,-307.47 1364,-235 1364,-235 1364,-235 1364,-177 1364,-144.95 1364,-107.64 1364,-85.75"/>
<polygon fill="midnightblue" stroke="midnightblue" points="1367.5,-85.56 1364,-75.56 1360.5,-85.56 1367.5,-85.56"/>
</g>
<!-- Node6&#45;&gt;Node20 -->
<g id="edge37" class="edge">
<title>Node6&#45;&gt;Node20</title>
<path fill="none" stroke="midnightblue" d="M945.76,-339.92C877.78,-329.84 726.2,-307.35 654.72,-296.74"/>
<polygon fill="midnightblue" stroke="midnightblue" points="655.18,-293.27 644.78,-295.27 654.15,-300.2 655.18,-293.27"/>
</g>
<!-- Node21 -->
<g id="node21" class="node">
<title>Node21</title>
<g id="a_node21"><a xlink:title=" ">
<polygon fill="none" stroke="#bfbfbf" points="168.5,-224.5 168.5,-243.5 241.5,-243.5 241.5,-224.5 168.5,-224.5"/>
<text text-anchor="middle" x="205" y="-231.5" font-family="Helvetica,sans-Serif" font-size="10.00">string_view</text>
</a>
</g>
</g>
<!-- Node6&#45;&gt;Node21 -->
<g id="edge49" class="edge">
<title>Node6&#45;&gt;Node21</title>
<path fill="none" stroke="midnightblue" d="M945.76,-341.87C876.27,-335.38 713.74,-319.38 578,-300 434.2,-279.47 399.08,-269.07 256,-244 254.56,-243.75 253.1,-243.49 251.62,-243.23"/>
<polygon fill="midnightblue" stroke="midnightblue" points="252.22,-239.78 241.77,-241.5 251.01,-246.68 252.22,-239.78"/>
</g>
<!-- Node23 -->
<g id="node23" class="node">
<title>Node23</title>
<g id="a_node23"><a xlink:href="weekday__impl_8h.html" target="_top" xlink:title=" ">
<polygon fill="none" stroke="black" points="488,-168.5 488,-187.5 610,-187.5 610,-168.5 488,-168.5"/>
<text text-anchor="middle" x="549" y="-175.5" font-family="Helvetica,sans-Serif" font-size="10.00">impl/weekday_impl.h</text>
</a>
</g>
</g>
<!-- Node6&#45;&gt;Node23 -->
<g id="edge52" class="edge">
<title>Node6&#45;&gt;Node23</title>
<path fill="none" stroke="midnightblue" d="M957.74,-336.42C886.43,-308.96 663.52,-223.11 580.54,-191.15"/>
<polygon fill="midnightblue" stroke="midnightblue" points="581.72,-187.85 571.13,-187.52 579.21,-194.38 581.72,-187.85"/>
</g>
<!-- Node7&#45;&gt;Node2 -->
<g id="edge9" class="edge">
<title>Node7&#45;&gt;Node2</title>
<path fill="none" stroke="midnightblue" d="M1065.85,-287.34C1122.51,-283 1263.35,-269.86 1302,-244 1375.38,-194.91 1383.48,-160.81 1408,-76 1410.47,-67.46 1411.36,-64.23 1408,-56 1403.2,-44.23 1393.67,-33.86 1384.71,-26.05"/>
<polygon fill="midnightblue" stroke="midnightblue" points="1386.75,-23.2 1376.78,-19.63 1382.35,-28.64 1386.75,-23.2"/>
</g>
<!-- Node7&#45;&gt;Node3 -->
<g id="edge10" class="edge">
<title>Node7&#45;&gt;Node3</title>
<path fill="none" stroke="midnightblue" d="M1042.75,-280.49C1045.25,-246.03 1049.59,-115.94 979,-56 951.01,-32.23 720.51,-18.95 603.54,-13.69"/>
<polygon fill="midnightblue" stroke="midnightblue" points="603.42,-10.18 593.27,-13.24 603.11,-17.17 603.42,-10.18"/>
</g>
<!-- Node7&#45;&gt;Node4 -->
<g id="edge11" class="edge">
<title>Node7&#45;&gt;Node4</title>
<path fill="none" stroke="midnightblue" d="M1018.44,-288.98C931.23,-288.56 618.63,-284.19 365,-244 329.23,-238.33 321.18,-232.59 286,-224 218.14,-207.43 188.69,-230.17 133,-188 115.02,-174.38 87.35,-115.6 73.89,-85.26"/>
<polygon fill="midnightblue" stroke="midnightblue" points="76.98,-83.6 69.77,-75.84 70.57,-86.41 76.98,-83.6"/>
</g>
<!-- Node7&#45;&gt;Node8 -->
<g id="edge12" class="edge">
<title>Node7&#45;&gt;Node8</title>
<path fill="none" stroke="midnightblue" d="M1065.55,-285.58C1129.79,-276.26 1308.14,-250.37 1381.67,-239.69"/>
<polygon fill="midnightblue" stroke="midnightblue" points="1382.34,-243.13 1391.73,-238.23 1381.33,-236.21 1382.34,-243.13"/>
</g>
<!-- Node9 -->
<g id="node9" class="node">
<title>Node9</title>
<g id="a_node9"><a xlink:href="year__impl_8h.html" target="_top" xlink:title=" ">
<polygon fill="none" stroke="black" points="800.5,-224.5 800.5,-243.5 899.5,-243.5 899.5,-224.5 800.5,-224.5"/>
<text text-anchor="middle" x="850" y="-231.5" font-family="Helvetica,sans-Serif" font-size="10.00">impl/year_impl.h</text>
</a>
</g>
</g>
<!-- Node7&#45;&gt;Node9 -->
<g id="edge13" class="edge">
<title>Node7&#45;&gt;Node9</title>
<path fill="none" stroke="midnightblue" d="M1018.46,-282.38C986.56,-273.41 929.15,-257.26 890.32,-246.34"/>
<polygon fill="midnightblue" stroke="midnightblue" points="890.96,-242.88 880.38,-243.55 889.06,-249.62 890.96,-242.88"/>
</g>
<!-- Node9&#45;&gt;Node3 -->
<g id="edge14" class="edge">
<title>Node9&#45;&gt;Node3</title>
<path fill="none" stroke="midnightblue" d="M855.22,-224.21C871.88,-194.91 919.92,-99.92 870,-56 831.53,-22.16 689.38,-13.56 603.42,-11.5"/>
<polygon fill="midnightblue" stroke="midnightblue" points="603.29,-8 593.22,-11.28 603.14,-15 603.29,-8"/>
</g>
<!-- Node10 -->
<g id="node10" class="node">
<title>Node10</title>
<g id="a_node10"><a xlink:href="math_helpers_8h.html" target="_top" xlink:title=" ">
<polygon fill="none" stroke="black" points="679.5,-168.5 679.5,-187.5 814.5,-187.5 814.5,-168.5 679.5,-168.5"/>
<text text-anchor="middle" x="747" y="-175.5" font-family="Helvetica,sans-Serif" font-size="10.00">../../math/mathHelpers.h</text>
</a>
</g>
</g>
<!-- Node9&#45;&gt;Node10 -->
<g id="edge15" class="edge">
<title>Node9&#45;&gt;Node10</title>
<path fill="none" stroke="midnightblue" d="M833.45,-224.32C817.01,-215.7 791.57,-202.36 772.53,-192.39"/>
<polygon fill="midnightblue" stroke="midnightblue" points="773.99,-189.2 763.51,-187.65 770.74,-195.4 773.99,-189.2"/>
</g>
<!-- Node19 -->
<g id="node19" class="node">
<title>Node19</title>
<g id="a_node19"><a xlink:href="build__date_8h.html" target="_top" xlink:title=" ">
<polygon fill="none" stroke="black" points="374,-112.5 374,-131.5 460,-131.5 460,-112.5 374,-112.5"/>
<text text-anchor="middle" x="417" y="-119.5" font-family="Helvetica,sans-Serif" font-size="10.00">../build_date.h</text>
</a>
</g>
</g>
<!-- Node9&#45;&gt;Node19 -->
<g id="edge33" class="edge">
<title>Node9&#45;&gt;Node19</title>
<path fill="none" stroke="midnightblue" d="M800.42,-231.11C712.71,-227.1 534.24,-215.7 479,-188 457.3,-177.12 439.06,-155.43 428.1,-140.11"/>
<polygon fill="midnightblue" stroke="midnightblue" points="430.78,-137.82 422.25,-131.54 425,-141.77 430.78,-137.82"/>
</g>
<!-- Node10&#45;&gt;Node2 -->
<g id="edge19" class="edge">
<title>Node10&#45;&gt;Node2</title>
<path fill="none" stroke="midnightblue" d="M775.52,-168.47C821.54,-154.94 915.22,-128.43 996,-112 1103.85,-90.07 1136.39,-110.2 1241,-76 1260.99,-69.46 1310.7,-41.74 1340.45,-24.68"/>
<polygon fill="midnightblue" stroke="midnightblue" points="1342.43,-27.58 1349.34,-19.56 1338.93,-21.52 1342.43,-27.58"/>
</g>
<!-- Node10&#45;&gt;Node3 -->
<g id="edge16" class="edge">
<title>Node10&#45;&gt;Node3</title>
<path fill="none" stroke="midnightblue" d="M679.19,-172.42C646.67,-167.01 609.2,-155.63 583,-132 552.99,-104.92 541.96,-56.38 538.04,-29.75"/>
<polygon fill="midnightblue" stroke="midnightblue" points="541.51,-29.28 536.77,-19.81 534.57,-30.17 541.51,-29.28"/>
</g>
<!-- Node11 -->
<g id="node11" class="node">
<title>Node11</title>
<g id="a_node11"><a xlink:title=" ">
<polygon fill="none" stroke="#bfbfbf" points="592.5,-112.5 592.5,-131.5 639.5,-131.5 639.5,-112.5 592.5,-112.5"/>
<text text-anchor="middle" x="616" y="-119.5" font-family="Helvetica,sans-Serif" font-size="10.00">cmath</text>
</a>
</g>
</g>
<!-- Node10&#45;&gt;Node11 -->
<g id="edge17" class="edge">
<title>Node10&#45;&gt;Node11</title>
<path fill="none" stroke="midnightblue" d="M726.24,-168.44C704.68,-159.56 670.74,-145.56 646.21,-135.45"/>
<polygon fill="midnightblue" stroke="midnightblue" points="647.24,-132.09 636.66,-131.52 644.57,-138.56 647.24,-132.09"/>
</g>
<!-- Node10&#45;&gt;Node12 -->
<g id="edge18" class="edge">
<title>Node10&#45;&gt;Node12</title>
<path fill="none" stroke="midnightblue" d="M794.9,-168.46C911.04,-147.75 1206.37,-95.1 1319.22,-74.98"/>
<polygon fill="midnightblue" stroke="midnightblue" points="1320.02,-78.4 1329.25,-73.2 1318.79,-71.51 1320.02,-78.4"/>
</g>
<!-- Node13 -->
<g id="node13" class="node">
<title>Node13</title>
<g id="a_node13"><a xlink:title=" ">
<polygon fill="none" stroke="#bfbfbf" points="658,-112.5 658,-131.5 722,-131.5 722,-112.5 658,-112.5"/>
<text text-anchor="middle" x="690" y="-119.5" font-family="Helvetica,sans-Serif" font-size="10.00">algorithm</text>
</a>
</g>
</g>
<!-- Node10&#45;&gt;Node13 -->
<g id="edge20" class="edge">
<title>Node10&#45;&gt;Node13</title>
<path fill="none" stroke="midnightblue" d="M737.84,-168.32C729.5,-160.42 716.97,-148.55 706.82,-138.94"/>
<polygon fill="midnightblue" stroke="midnightblue" points="708.99,-136.17 699.32,-131.83 704.18,-141.25 708.99,-136.17"/>
</g>
<!-- Node14 -->
<g id="node14" class="node">
<title>Node14</title>
<g id="a_node14"><a xlink:href="limes__assert_8h.html" target="_top" xlink:title=" ">
<polygon fill="none" stroke="black" points="740,-112.5 740,-131.5 876,-131.5 876,-112.5 740,-112.5"/>
<text text-anchor="middle" x="808" y="-119.5" font-family="Helvetica,sans-Serif" font-size="10.00">../system/limes_assert.h</text>
</a>
</g>
</g>
<!-- Node10&#45;&gt;Node14 -->
<g id="edge21" class="edge">
<title>Node10&#45;&gt;Node14</title>
<path fill="none" stroke="midnightblue" d="M756.8,-168.32C765.82,-160.34 779.41,-148.31 790.32,-138.65"/>
<polygon fill="midnightblue" stroke="midnightblue" points="792.85,-141.08 798.02,-131.83 788.21,-135.84 792.85,-141.08"/>
</g>
<!-- Node14&#45;&gt;Node2 -->
<g id="edge22" class="edge">
<title>Node14&#45;&gt;Node2</title>
<path fill="none" stroke="midnightblue" d="M876.07,-115.97C972.98,-108.34 1145.67,-92.96 1206,-76 1226.29,-70.3 1229.62,-64.29 1249,-56 1276.6,-44.2 1308.4,-31.84 1331.56,-23.07"/>
<polygon fill="midnightblue" stroke="midnightblue" points="1332.8,-26.35 1340.92,-19.55 1330.33,-19.8 1332.8,-26.35"/>
</g>
<!-- Node14&#45;&gt;Node3 -->
<g id="edge23" class="edge">
<title>Node14&#45;&gt;Node3</title>
<path fill="none" stroke="midnightblue" d="M745.93,-112.47C691.95,-104.26 618.52,-90.91 593,-76 573.23,-64.45 556.77,-43.58 546.71,-28.6"/>
<polygon fill="midnightblue" stroke="midnightblue" points="549.39,-26.29 541.05,-19.76 543.5,-30.07 549.39,-26.29"/>
</g>
<!-- Node14&#45;&gt;Node4 -->
<g id="edge24" class="edge">
<title>Node14&#45;&gt;Node4</title>
<path fill="none" stroke="midnightblue" d="M740,-112.87C736.96,-112.56 733.95,-112.27 731,-112 515.47,-92.12 259.88,-77.27 137.83,-70.71"/>
<polygon fill="midnightblue" stroke="midnightblue" points="137.68,-67.2 127.51,-70.16 137.31,-74.19 137.68,-67.2"/>
</g>
<!-- Node14&#45;&gt;Node5 -->
<g id="edge31" class="edge">
<title>Node14&#45;&gt;Node5</title>
<path fill="none" stroke="midnightblue" d="M756.82,-112.45C707.71,-104.01 631.54,-90.34 566,-76 488.96,-59.15 399.92,-35.86 349.15,-22.22"/>
<polygon fill="midnightblue" stroke="midnightblue" points="349.79,-18.77 339.22,-19.54 347.97,-25.53 349.79,-18.77"/>
</g>
<!-- Node14&#45;&gt;Node12 -->
<g id="edge25" class="edge">
<title>Node14&#45;&gt;Node12</title>
<path fill="none" stroke="midnightblue" d="M876.18,-114.38C991.59,-103.17 1222.34,-80.76 1319.38,-71.33"/>
<polygon fill="midnightblue" stroke="midnightblue" points="1319.83,-74.81 1329.44,-70.36 1319.15,-67.84 1319.83,-74.81"/>
</g>
<!-- Node15 -->
<g id="node15" class="node">
<title>Node15</title>
<g id="a_node15"><a xlink:title=" ">
<polygon fill="none" stroke="#bfbfbf" points="602.5,-56.5 602.5,-75.5 647.5,-75.5 647.5,-56.5 602.5,-56.5"/>
<text text-anchor="middle" x="625" y="-63.5" font-family="Helvetica,sans-Serif" font-size="10.00">utility</text>
</a>
</g>
</g>
<!-- Node14&#45;&gt;Node15 -->
<g id="edge26" class="edge">
<title>Node14&#45;&gt;Node15</title>
<path fill="none" stroke="midnightblue" d="M779,-112.44C745.94,-102.69 692.02,-86.78 657.55,-76.6"/>
<polygon fill="midnightblue" stroke="midnightblue" points="658.1,-73.12 647.52,-73.64 656.12,-79.83 658.1,-73.12"/>
</g>
<!-- Node16 -->
<g id="node16" class="node">
<title>Node16</title>
<g id="a_node16"><a xlink:title=" ">
<polygon fill="none" stroke="#bfbfbf" points="665.5,-56.5 665.5,-75.5 774.5,-75.5 774.5,-56.5 665.5,-56.5"/>
<text text-anchor="middle" x="720" y="-63.5" font-family="Helvetica,sans-Serif" font-size="10.00">limes_build_type.h</text>
</a>
</g>
</g>
<!-- Node14&#45;&gt;Node16 -->
<g id="edge27" class="edge">
<title>Node14&#45;&gt;Node16</title>
<path fill="none" stroke="midnightblue" d="M793.86,-112.32C780.13,-103.9 759.06,-90.97 742.94,-81.07"/>
<polygon fill="midnightblue" stroke="midnightblue" points="744.46,-77.9 734.1,-75.65 740.8,-83.87 744.46,-77.9"/>
</g>
<!-- Node17 -->
<g id="node17" class="node">
<title>Node17</title>
<g id="a_node17"><a xlink:href="_ignore_unused_8h.html" target="_top" xlink:title=" ">
<polygon fill="none" stroke="black" points="1069,-56.5 1069,-75.5 1197,-75.5 1197,-56.5 1069,-56.5"/>
<text text-anchor="middle" x="1133" y="-63.5" font-family="Helvetica,sans-Serif" font-size="10.00">../misc/IgnoreUnused.h</text>
</a>
</g>
</g>
<!-- Node14&#45;&gt;Node17 -->
<g id="edge28" class="edge">
<title>Node14&#45;&gt;Node17</title>
<path fill="none" stroke="midnightblue" d="M859.5,-112.44C917.14,-102.87 1010.49,-87.36 1071.81,-77.17"/>
<polygon fill="midnightblue" stroke="midnightblue" points="1072.45,-80.61 1081.74,-75.52 1071.31,-73.7 1072.45,-80.61"/>
</g>
<!-- Node18 -->
<g id="node18" class="node">
<title>Node18</title>
<g id="a_node18"><a xlink:title=" ">
<polygon fill="none" stroke="#bfbfbf" points="793,-56.5 793,-75.5 861,-75.5 861,-56.5 793,-56.5"/>
<text text-anchor="middle" x="827" y="-63.5" font-family="Helvetica,sans-Serif" font-size="10.00">filesystem</text>
</a>
</g>
</g>
<!-- Node14&#45;&gt;Node18 -->
<g id="edge32" class="edge">
<title>Node14&#45;&gt;Node18</title>
<path fill="none" stroke="midnightblue" d="M811.14,-112.08C813.68,-104.85 817.36,-94.41 820.53,-85.4"/>
<polygon fill="midnightblue" stroke="midnightblue" points="823.9,-86.35 823.92,-75.75 817.3,-84.02 823.9,-86.35"/>
</g>
<!-- Node17&#45;&gt;Node2 -->
<g id="edge29" class="edge">
<title>Node17&#45;&gt;Node2</title>
<path fill="none" stroke="midnightblue" d="M1169.6,-56.44C1209.73,-47.06 1274.2,-31.99 1317.78,-21.8"/>
<polygon fill="midnightblue" stroke="midnightblue" points="1318.63,-25.2 1327.57,-19.52 1317.03,-18.38 1318.63,-25.2"/>
</g>
<!-- Node17&#45;&gt;Node3 -->
<g id="edge30" class="edge">
<title>Node17&#45;&gt;Node3</title>
<path fill="none" stroke="midnightblue" d="M1068.74,-57.44C1064.09,-56.94 1059.48,-56.45 1055,-56 893.13,-39.65 702.49,-24.06 603.43,-16.23"/>
<polygon fill="midnightblue" stroke="midnightblue" points="603.51,-12.73 593.26,-15.43 602.96,-19.71 603.51,-12.73"/>
</g>
<!-- Node19&#45;&gt;Node2 -->
<g id="edge34" class="edge">
<title>Node19&#45;&gt;Node2</title>
<path fill="none" stroke="midnightblue" d="M460.15,-117.17C540.75,-109.93 719.65,-93.35 870,-76 1029.9,-57.54 1218.35,-31.58 1309.36,-18.77"/>
<polygon fill="midnightblue" stroke="midnightblue" points="1310.03,-22.21 1319.44,-17.35 1309.05,-15.28 1310.03,-22.21"/>
</g>
<!-- Node19&#45;&gt;Node3 -->
<g id="edge35" class="edge">
<title>Node19&#45;&gt;Node3</title>
<path fill="none" stroke="midnightblue" d="M418.86,-112.37C422.18,-98.82 430.28,-72.43 446,-56 460.17,-41.2 480.24,-30.51 497.84,-23.28"/>
<polygon fill="midnightblue" stroke="midnightblue" points="499.25,-26.49 507.31,-19.61 496.72,-19.96 499.25,-26.49"/>
</g>
<!-- Node19&#45;&gt;Node4 -->
<g id="edge36" class="edge">
<title>Node19&#45;&gt;Node4</title>
<path fill="none" stroke="midnightblue" d="M373.96,-114.38C313.42,-105.06 202.59,-88.01 131.7,-77.11"/>
<polygon fill="midnightblue" stroke="midnightblue" points="131.96,-73.61 121.54,-75.55 130.9,-80.53 131.96,-73.61"/>
</g>
<!-- Node20&#45;&gt;Node2 -->
<g id="edge38" class="edge">
<title>Node20&#45;&gt;Node2</title>
<path fill="none" stroke="midnightblue" d="M644.87,-287.23C698.09,-283.39 814.85,-272.24 909,-244 1080.44,-192.59 1120.62,-166.57 1275,-76 1300.72,-60.91 1328.1,-40.11 1345.6,-26.14"/>
<polygon fill="midnightblue" stroke="midnightblue" points="1348.21,-28.53 1353.78,-19.52 1343.81,-23.08 1348.21,-28.53"/>
</g>
<!-- Node20&#45;&gt;Node3 -->
<g id="edge39" class="edge">
<title>Node20&#45;&gt;Node3</title>
<path fill="none" stroke="midnightblue" d="M587.32,-286.26C529.84,-280.38 402.78,-265.34 365,-244 331.54,-225.1 308,-217.42 308,-179 308,-179 308,-179 308,-121 308,-48.99 401.39,-24.1 468.63,-15.51"/>
<polygon fill="midnightblue" stroke="midnightblue" points="469.24,-18.96 478.76,-14.31 468.42,-12.01 469.24,-18.96"/>
</g>
<!-- Node20&#45;&gt;Node4 -->
<g id="edge40" class="edge">
<title>Node20&#45;&gt;Node4</title>
<path fill="none" stroke="midnightblue" d="M587.38,-286.07C519.25,-278.91 349.02,-259.98 294,-244 273.37,-238.01 270.31,-230.98 250,-224 185.16,-201.71 149.4,-235.54 100,-188 71.92,-160.98 66.47,-112.78 65.74,-86.1"/>
<polygon fill="midnightblue" stroke="midnightblue" points="69.24,-85.78 65.67,-75.8 62.24,-85.82 69.24,-85.78"/>
</g>
<!-- Node20&#45;&gt;Node8 -->
<g id="edge42" class="edge">
<title>Node20&#45;&gt;Node8</title>
<path fill="none" stroke="midnightblue" d="M644.77,-287.26C739.04,-281.55 1047.26,-262.59 1302,-244 1328.87,-242.04 1359.35,-239.57 1381.72,-237.72"/>
<polygon fill="midnightblue" stroke="midnightblue" points="1382.02,-241.21 1391.69,-236.89 1381.44,-234.23 1382.02,-241.21"/>
</g>
<!-- Node20&#45;&gt;Node21 -->
<g id="edge41" class="edge">
<title>Node20&#45;&gt;Node21</title>
<path fill="none" stroke="midnightblue" d="M587.47,-285.93C526.49,-279.25 379.01,-262.53 256,-244 254.56,-243.78 253.09,-243.56 251.61,-243.32"/>
<polygon fill="midnightblue" stroke="midnightblue" points="252.17,-239.87 241.73,-241.71 251.04,-246.78 252.17,-239.87"/>
</g>
<!-- Node22 -->
<g id="node22" class="node">
<title>Node22</title>
<g id="a_node22"><a xlink:href="month__impl_8h.html" target="_top" xlink:title=" ">
<polygon fill="none" stroke="black" points="374.5,-224.5 374.5,-243.5 483.5,-243.5 483.5,-224.5 374.5,-224.5"/>
<text text-anchor="middle" x="429" y="-231.5" font-family="Helvetica,sans-Serif" font-size="10.00">impl/month_impl.h</text>
</a>
</g>
</g>
<!-- Node20&#45;&gt;Node22 -->
<g id="edge43" class="edge">
<title>Node20&#45;&gt;Node22</title>
<path fill="none" stroke="midnightblue" d="M587.19,-280.68C555.39,-271.5 504.02,-256.66 468.48,-246.4"/>
<polygon fill="midnightblue" stroke="midnightblue" points="469.04,-242.92 458.46,-243.51 467.1,-249.64 469.04,-242.92"/>
</g>
<!-- Node22&#45;&gt;Node3 -->
<g id="edge44" class="edge">
<title>Node22&#45;&gt;Node3</title>
<path fill="none" stroke="midnightblue" d="M418.33,-224.38C395.47,-204.79 345.36,-155.28 365,-112 387.4,-62.63 446.81,-35.8 489.3,-22.45"/>
<polygon fill="midnightblue" stroke="midnightblue" points="490.32,-25.8 498.9,-19.57 488.31,-19.09 490.32,-25.8"/>
</g>
<!-- Node22&#45;&gt;Node5 -->
<g id="edge45" class="edge">
<title>Node22&#45;&gt;Node5</title>
<path fill="none" stroke="midnightblue" d="M412.28,-224.44C398.59,-216.65 379.65,-203.94 368,-188 331.37,-137.86 315.97,-63.78 310.54,-29.56"/>
<polygon fill="midnightblue" stroke="midnightblue" points="313.99,-28.96 309.06,-19.58 307.06,-29.99 313.99,-28.96"/>
</g>
<!-- Node22&#45;&gt;Node10 -->
<g id="edge46" class="edge">
<title>Node22&#45;&gt;Node10</title>
<path fill="none" stroke="midnightblue" d="M479.39,-224.44C535.68,-214.89 626.75,-199.42 686.76,-189.23"/>
<polygon fill="midnightblue" stroke="midnightblue" points="687.57,-192.64 696.85,-187.52 686.4,-185.74 687.57,-192.64"/>
</g>
<!-- Node22&#45;&gt;Node19 -->
<g id="edge47" class="edge">
<title>Node22&#45;&gt;Node19</title>
<path fill="none" stroke="midnightblue" d="M428.06,-224.37C426.12,-206.62 421.65,-165.67 419.03,-141.6"/>
<polygon fill="midnightblue" stroke="midnightblue" points="422.5,-141.15 417.94,-131.59 415.54,-141.91 422.5,-141.15"/>
</g>
<!-- Node23&#45;&gt;Node3 -->
<g id="edge54" class="edge">
<title>Node23&#45;&gt;Node3</title>
<path fill="none" stroke="midnightblue" d="M542.56,-168.42C527.34,-147.92 489.97,-96.31 484,-76 481.49,-67.47 480.3,-64.08 484,-56 489.78,-43.36 501.05,-32.91 511.63,-25.27"/>
<polygon fill="midnightblue" stroke="midnightblue" points="513.85,-28 520.22,-19.53 509.96,-22.18 513.85,-28"/>
</g>
<!-- Node23&#45;&gt;Node5 -->
<g id="edge55" class="edge">
<title>Node23&#45;&gt;Node5</title>
<path fill="none" stroke="midnightblue" d="M538.96,-168.17C524.1,-155.27 495.19,-130.75 469,-112 421.87,-78.26 363.61,-43.27 331.69,-24.63"/>
<polygon fill="midnightblue" stroke="midnightblue" points="333.45,-21.6 323.04,-19.6 329.93,-27.66 333.45,-21.6"/>
</g>
<!-- Node23&#45;&gt;Node19 -->
<g id="edge53" class="edge">
<title>Node23&#45;&gt;Node19</title>
<path fill="none" stroke="midnightblue" d="M528.08,-168.44C506.26,-159.52 471.85,-145.44 447.11,-135.32"/>
<polygon fill="midnightblue" stroke="midnightblue" points="448.4,-132.06 437.82,-131.52 445.75,-138.54 448.4,-132.06"/>
</g>
<!-- Node25&#45;&gt;Node2 -->
<g id="edge61" class="edge">
<title>Node25&#45;&gt;Node2</title>
<path fill="none" stroke="midnightblue" d="M1560.83,-280.27C1566.56,-261.79 1579,-217.3 1579,-179 1579,-179 1579,-179 1579,-121 1579,-90.2 1578.07,-76.4 1555,-56 1534.99,-38.3 1467.8,-25.4 1418.76,-18.06"/>
<polygon fill="midnightblue" stroke="midnightblue" points="1418.99,-14.55 1408.59,-16.58 1417.98,-21.48 1418.99,-14.55"/>
</g>
<!-- Node25&#45;&gt;Node3 -->
<g id="edge62" class="edge">
<title>Node25&#45;&gt;Node3</title>
<path fill="none" stroke="midnightblue" d="M1555.55,-280.05C1545.12,-243.91 1500.63,-108.19 1408,-56 1338.62,-16.91 795.61,-11.67 603.26,-11.05"/>
<polygon fill="midnightblue" stroke="midnightblue" points="603.02,-7.55 593.01,-11.02 603,-14.55 603.02,-7.55"/>
</g>
<!-- Node25&#45;&gt;Node8 -->
<g id="edge64" class="edge">
<title>Node25&#45;&gt;Node8</title>
<path fill="none" stroke="midnightblue" d="M1535.18,-280.44C1511.03,-271.39 1472.72,-257.02 1445.65,-246.87"/>
<polygon fill="midnightblue" stroke="midnightblue" points="1446.83,-243.57 1436.24,-243.34 1444.37,-250.13 1446.83,-243.57"/>
</g>
<!-- Node25&#45;&gt;Node12 -->
<g id="edge65" class="edge">
<title>Node25&#45;&gt;Node12</title>
<path fill="none" stroke="midnightblue" d="M1550.39,-280.3C1521.37,-247.08 1417.23,-127.92 1378.58,-83.68"/>
<polygon fill="midnightblue" stroke="midnightblue" points="1380.98,-81.11 1371.76,-75.88 1375.71,-85.72 1380.98,-81.11"/>
</g>
<!-- Node26 -->
<g id="node26" class="node">
<title>Node26</title>
<g id="a_node26"><a xlink:title=" ">
<polygon fill="none" stroke="#bfbfbf" points="1607,-224.5 1607,-243.5 1657,-243.5 1657,-224.5 1607,-224.5"/>
<text text-anchor="middle" x="1632" y="-231.5" font-family="Helvetica,sans-Serif" font-size="10.00">chrono</text>
</a>
</g>
</g>
<!-- Node25&#45;&gt;Node26 -->
<g id="edge63" class="edge">
<title>Node25&#45;&gt;Node26</title>
<path fill="none" stroke="midnightblue" d="M1569.89,-280.32C1581.15,-272.11 1598.29,-259.6 1611.71,-249.81"/>
<polygon fill="midnightblue" stroke="midnightblue" points="1613.88,-252.56 1619.89,-243.83 1609.75,-246.9 1613.88,-252.56"/>
</g>
<!-- Node27 -->
<g id="node27" class="node">
<title>Node27</title>
<g id="a_node27"><a xlink:href="_type_traits_8h.html" target="_top" xlink:title=" ">
<polygon fill="none" stroke="black" points="1629,-112.5 1629,-131.5 1741,-131.5 1741,-112.5 1629,-112.5"/>
<text text-anchor="middle" x="1685" y="-119.5" font-family="Helvetica,sans-Serif" font-size="10.00">../meta/TypeTraits.h</text>
</a>
</g>
</g>
<!-- Node25&#45;&gt;Node27 -->
<g id="edge66" class="edge">
<title>Node25&#45;&gt;Node27</title>
<path fill="none" stroke="midnightblue" d="M1595.17,-283.05C1619.09,-277.23 1648.81,-265.88 1666,-244 1689.34,-214.28 1689.43,-167.52 1687.31,-141.69"/>
<polygon fill="midnightblue" stroke="midnightblue" points="1690.79,-141.32 1686.28,-131.73 1683.82,-142.03 1690.79,-141.32"/>
</g>
<!-- Node27&#45;&gt;Node2 -->
<g id="edge70" class="edge">
<title>Node27&#45;&gt;Node2</title>
<path fill="none" stroke="midnightblue" d="M1741.09,-114.97C1794.93,-107.05 1863.86,-89.96 1833,-56 1805.6,-25.85 1536.78,-15.37 1418.91,-12.21"/>
<polygon fill="midnightblue" stroke="midnightblue" points="1418.75,-8.7 1408.66,-11.94 1418.56,-15.7 1418.75,-8.7"/>
</g>
<!-- Node27&#45;&gt;Node3 -->
<g id="edge72" class="edge">
<title>Node27&#45;&gt;Node3</title>
<path fill="none" stroke="midnightblue" d="M1664.1,-112.42C1627.39,-97.79 1548.59,-68.42 1479,-56 1310.65,-25.94 790.16,-14.99 603.49,-11.96"/>
<polygon fill="midnightblue" stroke="midnightblue" points="603.32,-8.46 593.27,-11.8 603.21,-15.46 603.32,-8.46"/>
</g>
<!-- Node27&#45;&gt;Node5 -->
<g id="edge71" class="edge">
<title>Node27&#45;&gt;Node5</title>
<path fill="none" stroke="midnightblue" d="M1628.93,-117.59C1519.46,-110.78 1269.68,-94.58 1060,-76 975.42,-68.51 954.55,-63.83 870,-56 687.43,-39.08 471.15,-22.83 368.23,-15.33"/>
<polygon fill="midnightblue" stroke="midnightblue" points="368.26,-11.82 358.03,-14.58 367.75,-18.8 368.26,-11.82"/>
</g>
<!-- Node27&#45;&gt;Node12 -->
<g id="edge67" class="edge">
<title>Node27&#45;&gt;Node12</title>
<path fill="none" stroke="midnightblue" d="M1634.14,-112.44C1572.1,-102.01 1468.2,-84.53 1408.96,-74.56"/>
<polygon fill="midnightblue" stroke="midnightblue" points="1409.24,-71.06 1398.8,-72.85 1408.08,-77.96 1409.24,-71.06"/>
</g>
<!-- Node27&#45;&gt;Node24 -->
<g id="edge69" class="edge">
<title>Node27&#45;&gt;Node24</title>
<path fill="none" stroke="midnightblue" d="M1719.37,-112.47C1755.78,-103.43 1814.94,-88.73 1866,-76 1867.27,-75.68 1868.56,-75.36 1869.86,-75.04"/>
<polygon fill="midnightblue" stroke="midnightblue" points="1871.06,-78.34 1879.92,-72.53 1869.37,-71.55 1871.06,-78.34"/>
</g>
<!-- Node28 -->
<g id="node28" class="node">
<title>Node28</title>
<g id="a_node28"><a xlink:title=" ">
<polygon fill="none" stroke="#bfbfbf" points="1683.5,-56.5 1683.5,-75.5 1740.5,-75.5 1740.5,-56.5 1683.5,-56.5"/>
<text text-anchor="middle" x="1712" y="-63.5" font-family="Helvetica,sans-Serif" font-size="10.00">typeinfo</text>
</a>
</g>
</g>
<!-- Node27&#45;&gt;Node28 -->
<g id="edge68" class="edge">
<title>Node27&#45;&gt;Node28</title>
<path fill="none" stroke="midnightblue" d="M1689.46,-112.08C1693.15,-104.69 1698.52,-93.95 1703.09,-84.81"/>
<polygon fill="midnightblue" stroke="midnightblue" points="1706.28,-86.26 1707.62,-75.75 1700.02,-83.13 1706.28,-86.26"/>
</g>
<!-- Node29 -->
<g id="node29" class="node">
<title>Node29</title>
<g id="a_node29"><a xlink:title=" ">
<polygon fill="none" stroke="#bfbfbf" points="1758.5,-56.5 1758.5,-75.5 1823.5,-75.5 1823.5,-56.5 1758.5,-56.5"/>
<text text-anchor="middle" x="1791" y="-63.5" font-family="Helvetica,sans-Serif" font-size="10.00">exception</text>
</a>
</g>
</g>
<!-- Node27&#45;&gt;Node29 -->
<g id="edge73" class="edge">
<title>Node27&#45;&gt;Node29</title>
<path fill="none" stroke="midnightblue" d="M1702.03,-112.32C1719.03,-103.66 1745.38,-90.24 1764.99,-80.25"/>
<polygon fill="midnightblue" stroke="midnightblue" points="1766.69,-83.31 1774.01,-75.65 1763.51,-77.08 1766.69,-83.31"/>
</g>
<!-- Node30 -->
<g id="node30" class="node">
<title>Node30</title>
<g id="a_node30"><a xlink:title=" ">
<polygon fill="none" stroke="#bfbfbf" points="1607,-56.5 1607,-75.5 1665,-75.5 1665,-56.5 1607,-56.5"/>
<text text-anchor="middle" x="1636" y="-63.5" font-family="Helvetica,sans-Serif" font-size="10.00">cxxabi.h</text>
</a>
</g>
</g>
<!-- Node27&#45;&gt;Node30 -->
<g id="edge74" class="edge">
<title>Node27&#45;&gt;Node30</title>
<path fill="none" stroke="midnightblue" d="M1676.91,-112.08C1669.84,-104.3 1659.41,-92.8 1650.85,-83.37"/>
<polygon fill="midnightblue" stroke="midnightblue" points="1653.25,-80.8 1643.94,-75.75 1648.07,-85.51 1653.25,-80.8"/>
</g>
<!-- Node31&#45;&gt;Node3 -->
<g id="edge76" class="edge">
<title>Node31&#45;&gt;Node3</title>
<path fill="none" stroke="midnightblue" d="M190.88,-168.41C188.51,-146.13 185.61,-86.17 218,-56 236.03,-39.21 380.75,-24.15 468.63,-16.44"/>
<polygon fill="midnightblue" stroke="midnightblue" points="469.13,-19.91 478.79,-15.56 468.52,-12.94 469.13,-19.91"/>
</g>
<!-- Node31&#45;&gt;Node5 -->
<g id="edge77" class="edge">
<title>Node31&#45;&gt;Node5</title>
<path fill="none" stroke="midnightblue" d="M187.63,-168.4C177.51,-147.11 155.11,-91.14 180,-56 195.51,-34.11 222.55,-22.79 247.79,-16.97"/>
<polygon fill="midnightblue" stroke="midnightblue" points="248.63,-20.37 257.72,-14.93 247.22,-13.51 248.63,-20.37"/>
</g>
<!-- Node31&#45;&gt;Node19 -->
<g id="edge78" class="edge">
<title>Node31&#45;&gt;Node19</title>
<path fill="none" stroke="midnightblue" d="M227.65,-168.44C266.66,-159.08 329.27,-144.06 371.72,-133.87"/>
<polygon fill="midnightblue" stroke="midnightblue" points="372.61,-137.25 381.51,-131.52 370.97,-130.45 372.61,-137.25"/>
</g>
</g>
</svg>
        <g id="navigator" transform="translate(0 0)" fill="#404254">
                <rect fill="#f2f5e9" fill-opacity="0.5" stroke="#606060" stroke-width=".5" x="0" y="0" width="60" height="60"/>
                <use id="zoomplus" xlink:href="#zoomPlus" x="17" y="9" onmousedown="handleZoom(evt,'in')"/>
                <use id="zoomminus" xlink:href="#zoomMin" x="42" y="9" onmousedown="handleZoom(evt,'out')"/>
                <use id="reset" xlink:href="#resetDef" x="30" y="36" onmousedown="handleReset()"/>
                <g id="arrowUp" xlink:href="#dirArrow" transform="translate(30 24)" onmousedown="handlePan(0,-1)">
                  <use xlink:href="#rim" fill="#404040">
                        <set attributeName="fill" to="#808080" begin="arrowUp.mouseover" end="arrowUp.mouseout"/>
                  </use>
                  <path fill="none" stroke="white" stroke-width="1.5" d="M0,-3.0v7 M-2.5,-0.5L0,-3.0L2.5,-0.5"/>
                </g>
                <g id="arrowRight" xlink:href="#dirArrow" transform="rotate(90) translate(36 -43)" onmousedown="handlePan(1,0)">
                  <use xlink:href="#rim" fill="#404040">
                        <set attributeName="fill" to="#808080" begin="arrowRight.mouseover" end="arrowRight.mouseout"/>
                  </use>
                  <path fill="none" stroke="white" stroke-width="1.5" d="M0,-3.0v7 M-2.5,-0.5L0,-3.0L2.5,-0.5"/>
                </g>
                <g id="arrowDown" xlink:href="#dirArrow" transform="rotate(180) translate(-30 -48)" onmousedown="handlePan(0,1)">
                  <use xlink:href="#rim" fill="#404040">
                        <set attributeName="fill" to="#808080" begin="arrowDown.mouseover" end="arrowDown.mouseout"/>
                  </use>
                  <path fill="none" stroke="white" stroke-width="1.5" d="M0,-3.0v7 M-2.5,-0.5L0,-3.0L2.5,-0.5"/>
                </g>
                <g id="arrowLeft" xlink:href="#dirArrow" transform="rotate(270) translate(-36 17)" onmousedown="handlePan(-1,0)">
                  <use xlink:href="#rim" fill="#404040">
                        <set attributeName="fill" to="#808080" begin="arrowLeft.mouseover" end="arrowLeft.mouseout"/>
                  </use>
                  <path fill="none" stroke="white" stroke-width="1.5" d="M0,-3.0v7 M-2.5,-0.5L0,-3.0L2.5,-0.5"/>
                </g>
        </g>
        <svg viewBox="0 0 15 15" width="100%" height="30px" preserveAspectRatio="xMaxYMin meet">
         <g id="arrow_out" transform="scale(0.3 0.3)">
          <a xlink:href="date_8h__incl_org.svg" target="_base">
           <rect id="button" ry="5" rx="5" y="6" x="6" height="38" width="38"
                fill="#f2f5e9" fill-opacity="0.5" stroke="#606060" stroke-width="1.0"/>
           <path id="arrow"
             d="M 11.500037,31.436501 C 11.940474,20.09759 22.043105,11.32322 32.158766,21.979434 L 37.068811,17.246167 C 37.068811,17.246167 37.088388,32 37.088388,32 L 22.160133,31.978069 C 22.160133,31.978069 26.997745,27.140456 26.997745,27.140456 C 18.528582,18.264221 13.291696,25.230495 11.500037,31.436501 z"
             style="fill:#404040;"/>
          </a>
         </g>
        </svg>
</svg>
