<?xml version="1.0" encoding="UTF-8" standalone="no"?>
<!DOCTYPE svg PUBLIC "-//W3C//DTD SVG 1.1//EN"
 "http://www.w3.org/Graphics/SVG/1.1/DTD/svg11.dtd">
<!-- Generated by graphviz version 2.43.0 (0)
 -->
<!-- Title: directory.h Pages: 1 -->
<svg width="3594pt" height="711pt"
 viewBox="0.00 0.00 3594.05 711.00" xmlns="http://www.w3.org/2000/svg" xmlns:xlink="http://www.w3.org/1999/xlink">
<g id="graph0" class="graph" transform="scale(1 1) rotate(0) translate(4 707)">
<title>directory.h</title>
<!-- Node1 -->
<g id="node1" class="node">
<title>Node1</title>
<g id="a_node1"><a xlink:title=" ">
<polygon fill="#bfbfbf" stroke="black" points="538.05,-683.5 538.05,-702.5 606.05,-702.5 606.05,-683.5 538.05,-683.5"/>
<text text-anchor="middle" x="572.05" y="-690.5" font-family="Helvetica,sans-Serif" font-size="10.00">directory.h</text>
</a>
</g>
</g>
<!-- Node2 -->
<g id="node2" class="node">
<title>Node2</title>
<g id="a_node2"><a xlink:title=" ">
<polygon fill="none" stroke="#bfbfbf" points="119.55,-291.5 119.55,-310.5 184.55,-310.5 184.55,-291.5 119.55,-291.5"/>
<text text-anchor="middle" x="152.05" y="-298.5" font-family="Helvetica,sans-Serif" font-size="10.00">functional</text>
</a>
</g>
</g>
<!-- Node1&#45;&gt;Node2 -->
<g id="edge1" class="edge">
<title>Node1&#45;&gt;Node2</title>
<path fill="none" stroke="midnightblue" d="M537.85,-691.5C427.96,-688.98 91.05,-673.77 91.05,-582 91.05,-582 91.05,-582 91.05,-412 91.05,-374.57 118.4,-337.96 136.47,-317.84"/>
<polygon fill="midnightblue" stroke="midnightblue" points="139.05,-320.21 143.32,-310.51 133.93,-315.43 139.05,-320.21"/>
</g>
<!-- Node3 -->
<g id="node3" class="node">
<title>Node3</title>
<g id="a_node3"><a xlink:title=" ">
<polygon fill="none" stroke="#bfbfbf" points="798.55,-0.5 798.55,-19.5 887.55,-19.5 887.55,-0.5 798.55,-0.5"/>
<text text-anchor="middle" x="843.05" y="-7.5" font-family="Helvetica,sans-Serif" font-size="10.00">limes_export.h</text>
</a>
</g>
</g>
<!-- Node1&#45;&gt;Node3 -->
<g id="edge2" class="edge">
<title>Node1&#45;&gt;Node3</title>
<path fill="none" stroke="midnightblue" d="M538.05,-692.56C417.12,-693.64 15.05,-689.19 15.05,-582 15.05,-582 15.05,-582 15.05,-126.5 15.05,-103.86 -68.74,-113.88 164.05,-56 281.92,-26.7 648.44,-15.44 788.18,-12.14"/>
<polygon fill="midnightblue" stroke="midnightblue" points="788.32,-15.64 798.24,-11.91 788.16,-8.64 788.32,-15.64"/>
</g>
<!-- Node4 -->
<g id="node4" class="node">
<title>Node4</title>
<g id="a_node4"><a xlink:href="limes__namespace_8h.html" target="_top" xlink:title=" ">
<polygon fill="none" stroke="black" points="2030.05,-0.5 2030.05,-19.5 2144.05,-19.5 2144.05,-0.5 2030.05,-0.5"/>
<text text-anchor="middle" x="2087.05" y="-7.5" font-family="Helvetica,sans-Serif" font-size="10.00">limes_namespace.h</text>
</a>
</g>
</g>
<!-- Node1&#45;&gt;Node4 -->
<g id="edge3" class="edge">
<title>Node1&#45;&gt;Node4</title>
<path fill="none" stroke="midnightblue" d="M606.16,-691.68C938.41,-688.48 3586.05,-660.52 3586.05,-582 3586.05,-582 3586.05,-582 3586.05,-300 3586.05,-189.41 3526.39,-151.39 3423.05,-112 3310.57,-69.13 3277.49,-71.02 3158.05,-56 2962.61,-31.42 2358.04,-16.72 2154.63,-12.37"/>
<polygon fill="midnightblue" stroke="midnightblue" points="2154.46,-8.86 2144.39,-12.15 2154.31,-15.86 2154.46,-8.86"/>
</g>
<!-- Node5 -->
<g id="node5" class="node">
<title>Node5</title>
<g id="a_node5"><a xlink:title=" ">
<polygon fill="none" stroke="#bfbfbf" points="480.55,-627.5 480.55,-646.5 533.55,-646.5 533.55,-627.5 480.55,-627.5"/>
<text text-anchor="middle" x="507.05" y="-634.5" font-family="Helvetica,sans-Serif" font-size="10.00">stdint.h</text>
</a>
</g>
</g>
<!-- Node1&#45;&gt;Node5 -->
<g id="edge4" class="edge">
<title>Node1&#45;&gt;Node5</title>
<path fill="none" stroke="midnightblue" d="M561.61,-683.32C551.91,-675.26 537.24,-663.08 525.56,-653.37"/>
<polygon fill="midnightblue" stroke="midnightblue" points="527.62,-650.53 517.69,-646.83 523.14,-655.92 527.62,-650.53"/>
</g>
<!-- Node6 -->
<g id="node6" class="node">
<title>Node6</title>
<g id="a_node6"><a xlink:title=" ">
<polygon fill="none" stroke="#bfbfbf" points="828.05,-179.5 828.05,-198.5 872.05,-198.5 872.05,-179.5 828.05,-179.5"/>
<text text-anchor="middle" x="850.05" y="-186.5" font-family="Helvetica,sans-Serif" font-size="10.00">string</text>
</a>
</g>
</g>
<!-- Node1&#45;&gt;Node6 -->
<g id="edge5" class="edge">
<title>Node1&#45;&gt;Node6</title>
<path fill="none" stroke="midnightblue" d="M606.32,-687.61C657.94,-679.04 754.65,-654.93 802.05,-591 847.85,-529.25 850.41,-279.05 850.2,-208.56"/>
<polygon fill="midnightblue" stroke="midnightblue" points="853.7,-208.51 850.15,-198.52 846.7,-208.54 853.7,-208.51"/>
</g>
<!-- Node7 -->
<g id="node7" class="node">
<title>Node7</title>
<g id="a_node7"><a xlink:title=" ">
<polygon fill="none" stroke="#bfbfbf" points="119.55,-571.5 119.55,-590.5 166.55,-590.5 166.55,-571.5 119.55,-571.5"/>
<text text-anchor="middle" x="143.05" y="-578.5" font-family="Helvetica,sans-Serif" font-size="10.00">vector</text>
</a>
</g>
</g>
<!-- Node1&#45;&gt;Node7 -->
<g id="edge6" class="edge">
<title>Node1&#45;&gt;Node7</title>
<path fill="none" stroke="midnightblue" d="M538.75,-683.46C458.86,-662.98 257.06,-611.23 176.77,-590.64"/>
<polygon fill="midnightblue" stroke="midnightblue" points="177.26,-587.16 166.71,-588.06 175.52,-593.94 177.26,-587.16"/>
</g>
<!-- Node8 -->
<g id="node8" class="node">
<title>Node8</title>
<g id="a_node8"><a xlink:href="_filesystem_entry_8h.html" target="_top" xlink:title=" ">
<polygon fill="none" stroke="black" points="854.55,-515.5 854.55,-534.5 957.55,-534.5 957.55,-515.5 854.55,-515.5"/>
<text text-anchor="middle" x="906.05" y="-522.5" font-family="Helvetica,sans-Serif" font-size="10.00">FilesystemEntry.h</text>
</a>
</g>
</g>
<!-- Node1&#45;&gt;Node8 -->
<g id="edge7" class="edge">
<title>Node1&#45;&gt;Node8</title>
<path fill="none" stroke="midnightblue" d="M606.16,-690.52C695.5,-686.31 931.09,-672.83 954.05,-647 976.5,-621.76 967.48,-601.99 954.05,-571 948.79,-558.84 938.44,-548.46 928.69,-540.74"/>
<polygon fill="midnightblue" stroke="midnightblue" points="930.56,-537.77 920.42,-534.67 926.41,-543.41 930.56,-537.77"/>
</g>
<!-- Node44 -->
<g id="node44" class="node">
<title>Node44</title>
<g id="a_node44"><a xlink:href="file_8h.html" target="_top" xlink:title=" ">
<polygon fill="none" stroke="black" points="551.55,-627.5 551.55,-646.5 592.55,-646.5 592.55,-627.5 551.55,-627.5"/>
<text text-anchor="middle" x="572.05" y="-634.5" font-family="Helvetica,sans-Serif" font-size="10.00">file.h</text>
</a>
</g>
</g>
<!-- Node1&#45;&gt;Node44 -->
<g id="edge133" class="edge">
<title>Node1&#45;&gt;Node44</title>
<path fill="none" stroke="midnightblue" d="M572.05,-683.08C572.05,-676.01 572.05,-665.86 572.05,-656.99"/>
<polygon fill="midnightblue" stroke="midnightblue" points="575.55,-656.75 572.05,-646.75 568.55,-656.75 575.55,-656.75"/>
</g>
<!-- Node51 -->
<g id="node51" class="node">
<title>Node51</title>
<g id="a_node51"><a xlink:href="sym__link_8h.html" target="_top" xlink:title=" ">
<polygon fill="none" stroke="black" points="1044.05,-571.5 1044.05,-590.5 1114.05,-590.5 1114.05,-571.5 1044.05,-571.5"/>
<text text-anchor="middle" x="1079.05" y="-578.5" font-family="Helvetica,sans-Serif" font-size="10.00">sym_link.h</text>
</a>
</g>
</g>
<!-- Node1&#45;&gt;Node51 -->
<g id="edge165" class="edge">
<title>Node1&#45;&gt;Node51</title>
<path fill="none" stroke="midnightblue" d="M606.13,-690.67C693.19,-686.89 921.83,-674.58 992.05,-647 1020.15,-635.97 1047.13,-613.31 1063.4,-597.89"/>
<polygon fill="midnightblue" stroke="midnightblue" points="1066.18,-600.07 1070.88,-590.58 1061.28,-595.06 1066.18,-600.07"/>
</g>
<!-- Node8&#45;&gt;Node2 -->
<g id="edge132" class="edge">
<title>Node8&#45;&gt;Node2</title>
<path fill="none" stroke="midnightblue" d="M873.11,-515.42C838.84,-506.46 783.63,-491.94 736.05,-479 557.5,-430.43 509.9,-427.59 335.05,-367 313.22,-359.43 308.7,-355.1 287.05,-347 254.29,-334.73 216.47,-322.27 189.2,-313.58"/>
<polygon fill="midnightblue" stroke="midnightblue" points="190.26,-310.24 179.67,-310.55 188.14,-316.91 190.26,-310.24"/>
</g>
<!-- Node8&#45;&gt;Node3 -->
<g id="edge9" class="edge">
<title>Node8&#45;&gt;Node3</title>
<path fill="none" stroke="midnightblue" d="M882.89,-515.43C779.73,-476.54 367.05,-313.3 367.05,-190 367.05,-190 367.05,-190 367.05,-126.5 367.05,-40.69 662.91,-18.39 788.13,-12.8"/>
<polygon fill="midnightblue" stroke="midnightblue" points="788.43,-16.29 798.27,-12.37 788.13,-9.3 788.43,-16.29"/>
</g>
<!-- Node8&#45;&gt;Node4 -->
<g id="edge10" class="edge">
<title>Node8&#45;&gt;Node4</title>
<path fill="none" stroke="midnightblue" d="M957.88,-516.36C962.66,-515.83 967.44,-515.36 972.05,-515 1717.92,-456.36 1907.91,-518.12 2655.05,-479 2828.53,-469.92 3434.05,-587.71 3434.05,-414 3434.05,-414 3434.05,-414 3434.05,-188 3434.05,-96.64 3330.08,-139.81 3243.05,-112 3143.25,-80.11 3117.74,-71.05 3014.05,-56 2847.97,-31.89 2338.38,-17.22 2154.28,-12.59"/>
<polygon fill="midnightblue" stroke="midnightblue" points="2154.28,-9.09 2144.2,-12.34 2154.11,-16.09 2154.28,-9.09"/>
</g>
<!-- Node8&#45;&gt;Node6 -->
<g id="edge13" class="edge">
<title>Node8&#45;&gt;Node6</title>
<path fill="none" stroke="midnightblue" d="M904.61,-515.41C897.23,-471.38 863.59,-270.74 853.15,-208.48"/>
<polygon fill="midnightblue" stroke="midnightblue" points="856.59,-207.82 851.49,-198.54 849.69,-208.98 856.59,-207.82"/>
</g>
<!-- Node9 -->
<g id="node9" class="node">
<title>Node9</title>
<g id="a_node9"><a xlink:title=" ">
<polygon fill="none" stroke="#bfbfbf" points="661.05,-235.5 661.05,-254.5 719.05,-254.5 719.05,-235.5 661.05,-235.5"/>
<text text-anchor="middle" x="690.05" y="-242.5" font-family="Helvetica,sans-Serif" font-size="10.00">memory</text>
</a>
</g>
</g>
<!-- Node8&#45;&gt;Node9 -->
<g id="edge8" class="edge">
<title>Node8&#45;&gt;Node9</title>
<path fill="none" stroke="midnightblue" d="M899.35,-515.38C868.93,-476.22 743.52,-314.81 702.85,-262.47"/>
<polygon fill="midnightblue" stroke="midnightblue" points="705.58,-260.27 696.68,-254.52 700.05,-264.57 705.58,-260.27"/>
</g>
<!-- Node10 -->
<g id="node10" class="node">
<title>Node10</title>
<g id="a_node10"><a xlink:title=" ">
<polygon fill="none" stroke="#bfbfbf" points="968.05,-459.5 968.05,-478.5 1018.05,-478.5 1018.05,-459.5 968.05,-459.5"/>
<text text-anchor="middle" x="993.05" y="-466.5" font-family="Helvetica,sans-Serif" font-size="10.00">cstdint</text>
</a>
</g>
</g>
<!-- Node8&#45;&gt;Node10 -->
<g id="edge11" class="edge">
<title>Node8&#45;&gt;Node10</title>
<path fill="none" stroke="midnightblue" d="M920.03,-515.32C933.6,-506.9 954.44,-493.97 970.38,-484.07"/>
<polygon fill="midnightblue" stroke="midnightblue" points="972.46,-486.9 979.11,-478.65 968.77,-480.95 972.46,-486.9"/>
</g>
<!-- Node11 -->
<g id="node11" class="node">
<title>Node11</title>
<g id="a_node11"><a xlink:title=" ">
<polygon fill="none" stroke="#bfbfbf" points="1483.05,-56.5 1483.05,-75.5 1551.05,-75.5 1551.05,-56.5 1483.05,-56.5"/>
<text text-anchor="middle" x="1517.05" y="-63.5" font-family="Helvetica,sans-Serif" font-size="10.00">filesystem</text>
</a>
</g>
</g>
<!-- Node8&#45;&gt;Node11 -->
<g id="edge12" class="edge">
<title>Node8&#45;&gt;Node11</title>
<path fill="none" stroke="midnightblue" d="M912.55,-515.26C922.19,-502.47 941.1,-478.1 959.05,-459 1084.64,-325.39 1108.67,-279.47 1262.05,-179 1333.91,-131.93 1428.84,-96.25 1480.22,-78.82"/>
<polygon fill="midnightblue" stroke="midnightblue" points="1481.52,-82.08 1489.89,-75.58 1479.3,-75.44 1481.52,-82.08"/>
</g>
<!-- Node12 -->
<g id="node12" class="node">
<title>Node12</title>
<g id="a_node12"><a xlink:href="preprocessor_8h.html" target="_top" xlink:title=" ">
<polygon fill="none" stroke="black" points="2760.55,-56.5 2760.55,-75.5 2883.55,-75.5 2883.55,-56.5 2760.55,-56.5"/>
<text text-anchor="middle" x="2822.05" y="-63.5" font-family="Helvetica,sans-Serif" font-size="10.00">../misc/preprocessor.h</text>
</a>
</g>
</g>
<!-- Node8&#45;&gt;Node12 -->
<g id="edge14" class="edge">
<title>Node8&#45;&gt;Node12</title>
<path fill="none" stroke="midnightblue" d="M957.88,-516.47C962.67,-515.92 967.45,-515.41 972.05,-515 1922.03,-430.03 2170.33,-546.59 3116.05,-423 3242.73,-406.45 3396.05,-485.75 3396.05,-358 3396.05,-358 3396.05,-358 3396.05,-300 3396.05,-174.48 3168.67,-119.42 3147.05,-112 3101.65,-96.42 2975.16,-81.85 2894.04,-73.71"/>
<polygon fill="midnightblue" stroke="midnightblue" points="2894.18,-70.21 2883.89,-72.7 2893.49,-77.17 2894.18,-70.21"/>
</g>
<!-- Node14 -->
<g id="node14" class="node">
<title>Node14</title>
<g id="a_node14"><a xlink:href="_date_time_8h.html" target="_top" xlink:title=" ">
<polygon fill="none" stroke="black" points="1575.05,-459.5 1575.05,-478.5 1683.05,-478.5 1683.05,-459.5 1575.05,-459.5"/>
<text text-anchor="middle" x="1629.05" y="-466.5" font-family="Helvetica,sans-Serif" font-size="10.00">../time/DateTime.h</text>
</a>
</g>
</g>
<!-- Node8&#45;&gt;Node14 -->
<g id="edge16" class="edge">
<title>Node8&#45;&gt;Node14</title>
<path fill="none" stroke="midnightblue" d="M957.9,-516.6C962.68,-516.01 967.45,-515.47 972.05,-515 1188.72,-492.83 1446.74,-478.74 1564.59,-472.98"/>
<polygon fill="midnightblue" stroke="midnightblue" points="1565.05,-476.46 1574.87,-472.48 1564.71,-469.47 1565.05,-476.46"/>
</g>
<!-- Node13 -->
<g id="node13" class="node">
<title>Node13</title>
<g id="a_node13"><a xlink:title=" ">
<polygon fill="none" stroke="#bfbfbf" points="2817.05,-0.5 2817.05,-19.5 2917.05,-19.5 2917.05,-0.5 2817.05,-0.5"/>
<text text-anchor="middle" x="2867.05" y="-7.5" font-family="Helvetica,sans-Serif" font-size="10.00">limes_platform.h</text>
</a>
</g>
</g>
<!-- Node12&#45;&gt;Node13 -->
<g id="edge15" class="edge">
<title>Node12&#45;&gt;Node13</title>
<path fill="none" stroke="midnightblue" d="M2829.49,-56.08C2835.91,-48.38 2845.36,-37.03 2853.18,-27.65"/>
<polygon fill="midnightblue" stroke="midnightblue" points="2856.05,-29.67 2859.76,-19.75 2850.67,-25.19 2856.05,-29.67"/>
</g>
<!-- Node14&#45;&gt;Node3 -->
<g id="edge17" class="edge">
<title>Node14&#45;&gt;Node3</title>
<path fill="none" stroke="midnightblue" d="M1574.92,-465.98C1474.94,-461.74 1254.72,-449.95 1071.05,-423 1063.7,-421.92 554.45,-314.78 548.05,-311 486.75,-274.79 443.05,-261.2 443.05,-190 443.05,-190 443.05,-190 443.05,-126.5 443.05,-55.51 678.52,-25.46 788.13,-15.32"/>
<polygon fill="midnightblue" stroke="midnightblue" points="788.69,-18.79 798.33,-14.4 788.06,-11.81 788.69,-18.79"/>
</g>
<!-- Node14&#45;&gt;Node4 -->
<g id="edge18" class="edge">
<title>Node14&#45;&gt;Node4</title>
<path fill="none" stroke="midnightblue" d="M1625.48,-459.22C1602.63,-403.17 1478.04,-96.89 1474.05,-76 1472.39,-67.27 1468,-62.51 1474.05,-56 1510.6,-16.67 1868.53,-11.37 2019.95,-10.9"/>
<polygon fill="midnightblue" stroke="midnightblue" points="2020.06,-14.4 2030.05,-10.87 2020.05,-7.4 2020.06,-14.4"/>
</g>
<!-- Node14&#45;&gt;Node6 -->
<g id="edge129" class="edge">
<title>Node14&#45;&gt;Node6</title>
<path fill="none" stroke="midnightblue" d="M1574.68,-467.4C1459.62,-465.47 1195.32,-457.33 1113.05,-423 996.66,-374.43 896.72,-252.33 862.58,-207.16"/>
<polygon fill="midnightblue" stroke="midnightblue" points="865.26,-204.89 856.48,-198.96 859.65,-209.07 865.26,-204.89"/>
</g>
<!-- Node15 -->
<g id="node15" class="node">
<title>Node15</title>
<g id="a_node15"><a xlink:href="time_8h.html" target="_top" xlink:title=" ">
<polygon fill="none" stroke="black" points="1797.05,-347.5 1797.05,-366.5 1845.05,-366.5 1845.05,-347.5 1797.05,-347.5"/>
<text text-anchor="middle" x="1821.05" y="-354.5" font-family="Helvetica,sans-Serif" font-size="10.00">time.h</text>
</a>
</g>
</g>
<!-- Node14&#45;&gt;Node15 -->
<g id="edge19" class="edge">
<title>Node14&#45;&gt;Node15</title>
<path fill="none" stroke="midnightblue" d="M1644.12,-459.37C1677.35,-440.33 1757.14,-394.62 1797.23,-371.65"/>
<polygon fill="midnightblue" stroke="midnightblue" points="1799.12,-374.6 1806.06,-366.59 1795.64,-368.53 1799.12,-374.6"/>
</g>
<!-- Node17 -->
<g id="node17" class="node">
<title>Node17</title>
<g id="a_node17"><a xlink:href="compiler__defs_8h.html" target="_top" xlink:title=" ">
<polygon fill="none" stroke="black" points="2850.55,-112.5 2850.55,-142.5 2957.55,-142.5 2957.55,-112.5 2850.55,-112.5"/>
<text text-anchor="start" x="2858.55" y="-130.5" font-family="Helvetica,sans-Serif" font-size="10.00">../system/compiler</text>
<text text-anchor="middle" x="2904.05" y="-119.5" font-family="Helvetica,sans-Serif" font-size="10.00">_defs.h</text>
</a>
</g>
</g>
<!-- Node14&#45;&gt;Node17 -->
<g id="edge131" class="edge">
<title>Node14&#45;&gt;Node17</title>
<path fill="none" stroke="midnightblue" d="M1683.18,-467.46C1976.04,-464.16 3358.05,-444.05 3358.05,-358 3358.05,-358 3358.05,-358 3358.05,-300 3358.05,-269.9 3360.8,-255.81 3339.05,-235 3312.16,-209.27 3082.16,-162.45 2967.91,-140.48"/>
<polygon fill="midnightblue" stroke="midnightblue" points="2968.37,-137.01 2957.89,-138.56 2967.05,-143.88 2968.37,-137.01"/>
</g>
<!-- Node18 -->
<g id="node18" class="node">
<title>Node18</title>
<g id="a_node18"><a xlink:title=" ">
<polygon fill="none" stroke="#bfbfbf" points="2083.05,-235.5 2083.05,-254.5 2127.05,-254.5 2127.05,-235.5 2083.05,-235.5"/>
<text text-anchor="middle" x="2105.05" y="-242.5" font-family="Helvetica,sans-Serif" font-size="10.00">ctime</text>
</a>
</g>
</g>
<!-- Node14&#45;&gt;Node18 -->
<g id="edge128" class="edge">
<title>Node14&#45;&gt;Node18</title>
<path fill="none" stroke="midnightblue" d="M1653.88,-459.36C1715,-437.72 1877.05,-378.07 2004.05,-311 2033.16,-295.63 2064.76,-274.51 2084.73,-260.57"/>
<polygon fill="midnightblue" stroke="midnightblue" points="2086.87,-263.33 2093.03,-254.71 2082.84,-257.61 2086.87,-263.33"/>
</g>
<!-- Node25 -->
<g id="node25" class="node">
<title>Node25</title>
<g id="a_node25"><a xlink:href="time__utils_8h.html" target="_top" xlink:title=" ">
<polygon fill="none" stroke="black" points="1603.05,-291.5 1603.05,-310.5 1677.05,-310.5 1677.05,-291.5 1603.05,-291.5"/>
<text text-anchor="middle" x="1640.05" y="-298.5" font-family="Helvetica,sans-Serif" font-size="10.00">time_utils.h</text>
</a>
</g>
</g>
<!-- Node14&#45;&gt;Node25 -->
<g id="edge130" class="edge">
<title>Node14&#45;&gt;Node25</title>
<path fill="none" stroke="midnightblue" d="M1629.65,-459.08C1631.38,-432.95 1636.46,-356.21 1638.82,-320.58"/>
<polygon fill="midnightblue" stroke="midnightblue" points="1642.32,-320.78 1639.49,-310.57 1635.33,-320.31 1642.32,-320.78"/>
</g>
<!-- Node32 -->
<g id="node32" class="node">
<title>Node32</title>
<g id="a_node32"><a xlink:href="date_8h.html" target="_top" xlink:title=" ">
<polygon fill="none" stroke="black" points="2078.55,-403.5 2078.55,-422.5 2125.55,-422.5 2125.55,-403.5 2078.55,-403.5"/>
<text text-anchor="middle" x="2102.05" y="-410.5" font-family="Helvetica,sans-Serif" font-size="10.00">date.h</text>
</a>
</g>
</g>
<!-- Node14&#45;&gt;Node32 -->
<g id="edge72" class="edge">
<title>Node14&#45;&gt;Node32</title>
<path fill="none" stroke="midnightblue" d="M1683.26,-462.8C1762.27,-455.06 1913.66,-439.62 2042.05,-423 2050.6,-421.89 2059.8,-420.58 2068.37,-419.3"/>
<polygon fill="midnightblue" stroke="midnightblue" points="2069.07,-422.73 2078.43,-417.77 2068.02,-415.81 2069.07,-422.73"/>
</g>
<!-- Node15&#45;&gt;Node3 -->
<g id="edge20" class="edge">
<title>Node15&#45;&gt;Node3</title>
<path fill="none" stroke="midnightblue" d="M1797.04,-355.84C1628.54,-354.62 628.94,-345.9 576.05,-311 526.44,-278.26 519.05,-249.45 519.05,-190 519.05,-190 519.05,-190 519.05,-126.5 519.05,-76.04 562.18,-77.02 608.05,-56 666.05,-29.43 739.04,-18.54 788.16,-14.09"/>
<polygon fill="midnightblue" stroke="midnightblue" points="788.59,-17.56 798.26,-13.23 788,-10.59 788.59,-17.56"/>
</g>
<!-- Node15&#45;&gt;Node4 -->
<g id="edge21" class="edge">
<title>Node15&#45;&gt;Node4</title>
<path fill="none" stroke="midnightblue" d="M1812.56,-347.46C1775.17,-308.88 1630.78,-148.77 1713.05,-56 1733.01,-33.5 1917.36,-20.1 2019.57,-14.34"/>
<polygon fill="midnightblue" stroke="midnightblue" points="2020.01,-17.82 2029.8,-13.78 2019.62,-10.83 2020.01,-17.82"/>
</g>
<!-- Node15&#45;&gt;Node6 -->
<g id="edge52" class="edge">
<title>Node15&#45;&gt;Node6</title>
<path fill="none" stroke="midnightblue" d="M1796.88,-355.22C1696,-351.83 1308.29,-337.3 1189.05,-311 1096.2,-290.52 1078.76,-266.54 989.05,-235 952.61,-222.19 910.33,-208.69 882.06,-199.86"/>
<polygon fill="midnightblue" stroke="midnightblue" points="882.91,-196.46 872.32,-196.83 880.83,-203.14 882.91,-196.46"/>
</g>
<!-- Node15&#45;&gt;Node12 -->
<g id="edge22" class="edge">
<title>Node15&#45;&gt;Node12</title>
<path fill="none" stroke="midnightblue" d="M1845.15,-354.92C2012.01,-347.37 2990.13,-301.17 3031.05,-255 3068.88,-212.32 3139.85,-256.35 2967.05,-112 2946.34,-94.69 2919,-84.03 2893.64,-77.47"/>
<polygon fill="midnightblue" stroke="midnightblue" points="2894.21,-74.01 2883.67,-75.07 2892.57,-80.81 2894.21,-74.01"/>
</g>
<!-- Node16 -->
<g id="node16" class="node">
<title>Node16</title>
<g id="a_node16"><a xlink:href="hour_8h.html" target="_top" xlink:title=" ">
<polygon fill="none" stroke="black" points="1914.55,-291.5 1914.55,-310.5 1961.55,-310.5 1961.55,-291.5 1914.55,-291.5"/>
<text text-anchor="middle" x="1938.05" y="-298.5" font-family="Helvetica,sans-Serif" font-size="10.00">hour.h</text>
</a>
</g>
</g>
<!-- Node15&#45;&gt;Node16 -->
<g id="edge23" class="edge">
<title>Node15&#45;&gt;Node16</title>
<path fill="none" stroke="midnightblue" d="M1839.59,-347.44C1858.68,-338.64 1888.63,-324.81 1910.49,-314.72"/>
<polygon fill="midnightblue" stroke="midnightblue" points="1911.99,-317.88 1919.6,-310.52 1909.06,-311.53 1911.99,-317.88"/>
</g>
<!-- Node15&#45;&gt;Node17 -->
<g id="edge50" class="edge">
<title>Node15&#45;&gt;Node17</title>
<path fill="none" stroke="midnightblue" d="M1845.09,-356.32C1953.21,-357.17 2404.49,-354.28 2756.05,-255 2776.73,-249.16 2780.22,-243.25 2800.05,-235 2841.74,-217.65 2867.09,-234.45 2895.05,-199 2905.26,-186.06 2907.27,-167.43 2906.85,-152.57"/>
<polygon fill="midnightblue" stroke="midnightblue" points="2910.34,-152.3 2906.2,-142.55 2903.36,-152.76 2910.34,-152.3"/>
</g>
<!-- Node15&#45;&gt;Node18 -->
<g id="edge51" class="edge">
<title>Node15&#45;&gt;Node18</title>
<path fill="none" stroke="midnightblue" d="M1845.09,-350.06C1875.05,-342.37 1927.61,-327.93 1971.05,-311 1981.79,-306.82 2042.54,-276.95 2078.45,-259.19"/>
<polygon fill="midnightblue" stroke="midnightblue" points="2080.45,-262.11 2087.86,-254.53 2077.34,-255.83 2080.45,-262.11"/>
</g>
<!-- Node15&#45;&gt;Node25 -->
<g id="edge53" class="edge">
<title>Node15&#45;&gt;Node25</title>
<path fill="none" stroke="midnightblue" d="M1797.02,-348.83C1766.69,-339.78 1714.18,-324.11 1678.31,-313.41"/>
<polygon fill="midnightblue" stroke="midnightblue" points="1679.25,-310.04 1668.67,-310.54 1677.25,-316.75 1679.25,-310.04"/>
</g>
<!-- Node31 -->
<g id="node31" class="node">
<title>Node31</title>
<g id="a_node31"><a xlink:href="time__impl_8h.html" target="_top" xlink:title=" ">
<polygon fill="none" stroke="black" points="1847.05,-235.5 1847.05,-254.5 1947.05,-254.5 1947.05,-235.5 1847.05,-235.5"/>
<text text-anchor="middle" x="1897.05" y="-242.5" font-family="Helvetica,sans-Serif" font-size="10.00">impl/time_impl.h</text>
</a>
</g>
</g>
<!-- Node15&#45;&gt;Node31 -->
<g id="edge69" class="edge">
<title>Node15&#45;&gt;Node31</title>
<path fill="none" stroke="midnightblue" d="M1827.02,-347.37C1839.56,-329.22 1868.86,-286.8 1885.32,-262.99"/>
<polygon fill="midnightblue" stroke="midnightblue" points="1888.31,-264.81 1891.12,-254.59 1882.56,-260.83 1888.31,-264.81"/>
</g>
<!-- Node16&#45;&gt;Node3 -->
<g id="edge24" class="edge">
<title>Node16&#45;&gt;Node3</title>
<path fill="none" stroke="midnightblue" d="M1914.53,-299.38C1817.24,-296.64 1446.06,-284.43 1333.05,-255 1312.66,-249.69 1309.89,-242.13 1290.05,-235 1230.41,-213.55 1210.05,-224.59 1152.05,-199 1119.57,-184.67 1047.87,-131.27 1018.05,-112 979.44,-87.04 970.91,-78.94 931.05,-56 911.1,-44.52 887.9,-32.71 870.32,-24.07"/>
<polygon fill="midnightblue" stroke="midnightblue" points="871.72,-20.86 861.2,-19.62 868.65,-27.15 871.72,-20.86"/>
</g>
<!-- Node16&#45;&gt;Node4 -->
<g id="edge25" class="edge">
<title>Node16&#45;&gt;Node4</title>
<path fill="none" stroke="midnightblue" d="M1914.28,-296.73C1890.4,-292.04 1854.8,-280.9 1838.05,-255 1833.23,-247.54 1835.44,-243.49 1838.05,-235 1866.43,-143 1883.79,-114.77 1960.05,-56 1981.14,-39.75 2008.58,-29.05 2032.56,-22.19"/>
<polygon fill="midnightblue" stroke="midnightblue" points="2033.51,-25.55 2042.25,-19.56 2031.68,-18.8 2033.51,-25.55"/>
</g>
<!-- Node16&#45;&gt;Node12 -->
<g id="edge26" class="edge">
<title>Node16&#45;&gt;Node12</title>
<path fill="none" stroke="midnightblue" d="M1961.83,-298.59C2061.51,-292.6 2442.99,-268.95 2495.05,-255 2551.13,-239.97 2561.94,-226.52 2613.05,-199 2628.15,-190.87 2631.28,-187.7 2646.05,-179 2673.85,-162.64 2682.47,-161.25 2709.05,-143 2727.02,-130.66 2729.22,-124.53 2747.05,-112 2763.26,-100.62 2782.42,-89.15 2797.32,-80.64"/>
<polygon fill="midnightblue" stroke="midnightblue" points="2799.43,-83.47 2806.42,-75.51 2795.99,-77.37 2799.43,-83.47"/>
</g>
<!-- Node16&#45;&gt;Node17 -->
<g id="edge27" class="edge">
<title>Node16&#45;&gt;Node17</title>
<path fill="none" stroke="midnightblue" d="M1961.87,-298.68C2069.3,-292.67 2506.1,-267.66 2566.05,-255 2602.09,-247.39 2688.34,-213.84 2722.05,-199 2739.52,-191.31 2742.56,-186.62 2760.05,-179 2788.82,-166.47 2821.8,-154.72 2848.93,-145.71"/>
<polygon fill="midnightblue" stroke="midnightblue" points="2850.23,-148.97 2858.64,-142.52 2848.05,-142.32 2850.23,-148.97"/>
</g>
<!-- Node16&#45;&gt;Node18 -->
<g id="edge30" class="edge">
<title>Node16&#45;&gt;Node18</title>
<path fill="none" stroke="midnightblue" d="M1961.63,-292.38C1990.75,-282.96 2040.44,-266.89 2073.01,-256.36"/>
<polygon fill="midnightblue" stroke="midnightblue" points="2074.5,-259.56 2082.93,-253.15 2072.34,-252.9 2074.5,-259.56"/>
</g>
<!-- Node19 -->
<g id="node19" class="node">
<title>Node19</title>
<g id="a_node19"><a xlink:href="hour__impl_8h.html" target="_top" xlink:title=" ">
<polygon fill="none" stroke="black" points="1965.55,-235.5 1965.55,-254.5 2064.55,-254.5 2064.55,-235.5 1965.55,-235.5"/>
<text text-anchor="middle" x="2015.05" y="-242.5" font-family="Helvetica,sans-Serif" font-size="10.00">impl/hour_impl.h</text>
</a>
</g>
</g>
<!-- Node16&#45;&gt;Node19 -->
<g id="edge31" class="edge">
<title>Node16&#45;&gt;Node19</title>
<path fill="none" stroke="midnightblue" d="M1950.43,-291.32C1962.21,-283.06 1980.19,-270.45 1994.19,-260.63"/>
<polygon fill="midnightblue" stroke="midnightblue" points="1996.54,-263.26 2002.71,-254.65 1992.52,-257.53 1996.54,-263.26"/>
</g>
<!-- Node17&#45;&gt;Node12 -->
<g id="edge29" class="edge">
<title>Node17&#45;&gt;Node12</title>
<path fill="none" stroke="midnightblue" d="M2884.62,-112.4C2871.85,-103.13 2855.17,-91.03 2842.24,-81.65"/>
<polygon fill="midnightblue" stroke="midnightblue" points="2844.14,-78.7 2833.99,-75.66 2840.02,-84.36 2844.14,-78.7"/>
</g>
<!-- Node17&#45;&gt;Node13 -->
<g id="edge28" class="edge">
<title>Node17&#45;&gt;Node13</title>
<path fill="none" stroke="midnightblue" d="M2903.38,-112.35C2902.33,-97.84 2899.69,-74.81 2893.05,-56 2889.64,-46.34 2884.14,-36.39 2879.08,-28.32"/>
<polygon fill="midnightblue" stroke="midnightblue" points="2881.91,-26.25 2873.48,-19.82 2876.06,-30.1 2881.91,-26.25"/>
</g>
<!-- Node19&#45;&gt;Node4 -->
<g id="edge32" class="edge">
<title>Node19&#45;&gt;Node4</title>
<path fill="none" stroke="midnightblue" d="M2010.61,-235.29C1996.83,-206.93 1957.87,-115.59 1995.05,-56 2004.81,-40.36 2021.75,-30.01 2038.46,-23.23"/>
<polygon fill="midnightblue" stroke="midnightblue" points="2040.04,-26.38 2048.21,-19.64 2037.62,-19.81 2040.04,-26.38"/>
</g>
<!-- Node20 -->
<g id="node20" class="node">
<title>Node20</title>
<g id="a_node20"><a xlink:href="limes__assert_8h.html" target="_top" xlink:title=" ">
<polygon fill="none" stroke="black" points="2037.55,-112.5 2037.55,-142.5 2138.55,-142.5 2138.55,-112.5 2037.55,-112.5"/>
<text text-anchor="start" x="2045.55" y="-130.5" font-family="Helvetica,sans-Serif" font-size="10.00">../../system/limes</text>
<text text-anchor="middle" x="2088.05" y="-119.5" font-family="Helvetica,sans-Serif" font-size="10.00">_assert.h</text>
</a>
</g>
</g>
<!-- Node19&#45;&gt;Node20 -->
<g id="edge33" class="edge">
<title>Node19&#45;&gt;Node20</title>
<path fill="none" stroke="midnightblue" d="M2020.54,-235.32C2031.7,-217.66 2057.38,-177.04 2073.65,-151.29"/>
<polygon fill="midnightblue" stroke="midnightblue" points="2076.79,-152.87 2079.18,-142.55 2070.88,-149.13 2076.79,-152.87"/>
</g>
<!-- Node24 -->
<g id="node24" class="node">
<title>Node24</title>
<g id="a_node24"><a xlink:href="build__date_8h.html" target="_top" xlink:title=" ">
<polygon fill="none" stroke="black" points="2518.05,-179.5 2518.05,-198.5 2604.05,-198.5 2604.05,-179.5 2518.05,-179.5"/>
<text text-anchor="middle" x="2561.05" y="-186.5" font-family="Helvetica,sans-Serif" font-size="10.00">../build_date.h</text>
</a>
</g>
</g>
<!-- Node19&#45;&gt;Node24 -->
<g id="edge45" class="edge">
<title>Node19&#45;&gt;Node24</title>
<path fill="none" stroke="midnightblue" d="M2064.6,-236.19C2067.79,-235.77 2070.97,-235.36 2074.05,-235 2264.51,-212.53 2313.66,-221.97 2504.05,-199 2505.31,-198.85 2506.59,-198.69 2507.87,-198.52"/>
<polygon fill="midnightblue" stroke="midnightblue" points="2508.41,-201.98 2517.84,-197.16 2507.46,-195.05 2508.41,-201.98"/>
</g>
<!-- Node20&#45;&gt;Node3 -->
<g id="edge34" class="edge">
<title>Node20&#45;&gt;Node3</title>
<path fill="none" stroke="midnightblue" d="M2048.04,-112.42C1998.34,-95.64 1910.62,-68.33 1833.05,-56 1650.64,-27.01 1077.83,-15 897.78,-11.87"/>
<polygon fill="midnightblue" stroke="midnightblue" points="897.8,-8.37 887.74,-11.7 897.68,-15.37 897.8,-8.37"/>
</g>
<!-- Node20&#45;&gt;Node4 -->
<g id="edge35" class="edge">
<title>Node20&#45;&gt;Node4</title>
<path fill="none" stroke="midnightblue" d="M2138.79,-112.58C2179.88,-100.8 2231.94,-84.51 2238.05,-76 2243.24,-68.78 2243.37,-63.13 2238.05,-56 2218.74,-30.09 2185.09,-18.51 2154.45,-13.55"/>
<polygon fill="midnightblue" stroke="midnightblue" points="2154.59,-10.04 2144.2,-12.11 2153.62,-16.97 2154.59,-10.04"/>
</g>
<!-- Node20&#45;&gt;Node11 -->
<g id="edge44" class="edge">
<title>Node20&#45;&gt;Node11</title>
<path fill="none" stroke="midnightblue" d="M2037.38,-121.22C1926.95,-109.71 1666.12,-82.53 1561.55,-71.64"/>
<polygon fill="midnightblue" stroke="midnightblue" points="1561.66,-68.13 1551.35,-70.57 1560.93,-75.09 1561.66,-68.13"/>
</g>
<!-- Node20&#45;&gt;Node12 -->
<g id="edge36" class="edge">
<title>Node20&#45;&gt;Node12</title>
<path fill="none" stroke="midnightblue" d="M2138.8,-122.39C2266.58,-112.03 2602,-84.84 2750.05,-72.84"/>
<polygon fill="midnightblue" stroke="midnightblue" points="2750.7,-76.3 2760.38,-72 2750.13,-69.32 2750.7,-76.3"/>
</g>
<!-- Node20&#45;&gt;Node13 -->
<g id="edge43" class="edge">
<title>Node20&#45;&gt;Node13</title>
<path fill="none" stroke="midnightblue" d="M2138.57,-119.01C2276.28,-98.59 2657.88,-42.01 2806.61,-19.96"/>
<polygon fill="midnightblue" stroke="midnightblue" points="2807.53,-23.36 2816.91,-18.43 2806.5,-16.44 2807.53,-23.36"/>
</g>
<!-- Node21 -->
<g id="node21" class="node">
<title>Node21</title>
<g id="a_node21"><a xlink:title=" ">
<polygon fill="none" stroke="#bfbfbf" points="1721.55,-56.5 1721.55,-75.5 1790.55,-75.5 1790.55,-56.5 1721.55,-56.5"/>
<text text-anchor="middle" x="1756.05" y="-63.5" font-family="Helvetica,sans-Serif" font-size="10.00">type_traits</text>
</a>
</g>
</g>
<!-- Node20&#45;&gt;Node21 -->
<g id="edge37" class="edge">
<title>Node20&#45;&gt;Node21</title>
<path fill="none" stroke="midnightblue" d="M2037.27,-117.4C1972.71,-105.83 1862.26,-86.03 1800.75,-75.01"/>
<polygon fill="midnightblue" stroke="midnightblue" points="1801.04,-71.51 1790.58,-73.19 1799.81,-78.4 1801.04,-71.51"/>
</g>
<!-- Node22 -->
<g id="node22" class="node">
<title>Node22</title>
<g id="a_node22"><a xlink:title=" ">
<polygon fill="none" stroke="#bfbfbf" points="2037.55,-56.5 2037.55,-75.5 2082.55,-75.5 2082.55,-56.5 2037.55,-56.5"/>
<text text-anchor="middle" x="2060.05" y="-63.5" font-family="Helvetica,sans-Serif" font-size="10.00">utility</text>
</a>
</g>
</g>
<!-- Node20&#45;&gt;Node22 -->
<g id="edge38" class="edge">
<title>Node20&#45;&gt;Node22</title>
<path fill="none" stroke="midnightblue" d="M2081.42,-112.4C2077.52,-104.11 2072.55,-93.55 2068.39,-84.71"/>
<polygon fill="midnightblue" stroke="midnightblue" points="2071.55,-83.22 2064.13,-75.66 2065.22,-86.2 2071.55,-83.22"/>
</g>
<!-- Node23 -->
<g id="node23" class="node">
<title>Node23</title>
<g id="a_node23"><a xlink:href="_ignore_unused_8h.html" target="_top" xlink:title=" ">
<polygon fill="none" stroke="black" points="2101.05,-56.5 2101.05,-75.5 2229.05,-75.5 2229.05,-56.5 2101.05,-56.5"/>
<text text-anchor="middle" x="2165.05" y="-63.5" font-family="Helvetica,sans-Serif" font-size="10.00">../misc/IgnoreUnused.h</text>
</a>
</g>
</g>
<!-- Node20&#45;&gt;Node23 -->
<g id="edge39" class="edge">
<title>Node20&#45;&gt;Node23</title>
<path fill="none" stroke="midnightblue" d="M2106.3,-112.4C2118.18,-103.22 2133.66,-91.26 2145.75,-81.92"/>
<polygon fill="midnightblue" stroke="midnightblue" points="2148.08,-84.54 2153.85,-75.66 2143.8,-79 2148.08,-84.54"/>
</g>
<!-- Node23&#45;&gt;Node3 -->
<g id="edge40" class="edge">
<title>Node23&#45;&gt;Node3</title>
<path fill="none" stroke="midnightblue" d="M2100.99,-56.78C2097.97,-56.5 2094.98,-56.23 2092.05,-56 1631.29,-19.37 1072.51,-12.54 897.88,-11.28"/>
<polygon fill="midnightblue" stroke="midnightblue" points="897.69,-7.78 887.66,-11.21 897.64,-14.78 897.69,-7.78"/>
</g>
<!-- Node23&#45;&gt;Node4 -->
<g id="edge41" class="edge">
<title>Node23&#45;&gt;Node4</title>
<path fill="none" stroke="midnightblue" d="M2152.52,-56.32C2140.47,-47.98 2122.03,-35.21 2107.79,-25.35"/>
<polygon fill="midnightblue" stroke="midnightblue" points="2109.77,-22.47 2099.56,-19.65 2105.79,-28.22 2109.77,-22.47"/>
</g>
<!-- Node23&#45;&gt;Node13 -->
<g id="edge42" class="edge">
<title>Node23&#45;&gt;Node13</title>
<path fill="none" stroke="midnightblue" d="M2229.21,-60.06C2364,-49.7 2674.96,-25.78 2806.52,-15.66"/>
<polygon fill="midnightblue" stroke="midnightblue" points="2807.11,-19.12 2816.81,-14.87 2806.57,-12.14 2807.11,-19.12"/>
</g>
<!-- Node24&#45;&gt;Node3 -->
<g id="edge46" class="edge">
<title>Node24&#45;&gt;Node3</title>
<path fill="none" stroke="midnightblue" d="M2518,-185.72C2408.64,-179.72 2122.26,-162.56 2029.05,-143 1984.01,-133.54 1874.76,-95.49 1833.05,-76 1817.52,-68.74 1816.46,-61 1800.05,-56 1713.89,-29.73 1088.22,-15.7 897.86,-12"/>
<polygon fill="midnightblue" stroke="midnightblue" points="897.86,-8.5 887.8,-11.81 897.73,-15.5 897.86,-8.5"/>
</g>
<!-- Node24&#45;&gt;Node4 -->
<g id="edge47" class="edge">
<title>Node24&#45;&gt;Node4</title>
<path fill="none" stroke="midnightblue" d="M2561.27,-179.49C2561.36,-155.63 2558.03,-87.73 2519.05,-56 2491.38,-33.47 2268.45,-19.66 2154.14,-13.99"/>
<polygon fill="midnightblue" stroke="midnightblue" points="2154.25,-10.49 2144.09,-13.49 2153.91,-17.48 2154.25,-10.49"/>
</g>
<!-- Node24&#45;&gt;Node12 -->
<g id="edge48" class="edge">
<title>Node24&#45;&gt;Node12</title>
<path fill="none" stroke="midnightblue" d="M2585.67,-179.42C2608.36,-171.17 2642.7,-157.79 2671.05,-143 2693.57,-131.25 2696.68,-124.01 2719.05,-112 2742.1,-99.63 2769.26,-87.87 2789.9,-79.48"/>
<polygon fill="midnightblue" stroke="midnightblue" points="2791.48,-82.62 2799.46,-75.64 2788.88,-76.12 2791.48,-82.62"/>
</g>
<!-- Node24&#45;&gt;Node17 -->
<g id="edge49" class="edge">
<title>Node24&#45;&gt;Node17</title>
<path fill="none" stroke="midnightblue" d="M2604.15,-180.52C2663.74,-170.19 2771.74,-151.45 2840.57,-139.51"/>
<polygon fill="midnightblue" stroke="midnightblue" points="2841.18,-142.96 2850.44,-137.8 2839.98,-136.06 2841.18,-142.96"/>
</g>
<!-- Node25&#45;&gt;Node3 -->
<g id="edge54" class="edge">
<title>Node25&#45;&gt;Node3</title>
<path fill="none" stroke="midnightblue" d="M1602.81,-300.55C1528.65,-300.66 1357.98,-295.98 1222.05,-255 1209.11,-251.1 1125.63,-205.98 1114.05,-199 1016.1,-139.96 906.03,-58.6 862.37,-25.69"/>
<polygon fill="midnightblue" stroke="midnightblue" points="864.41,-22.85 854.32,-19.61 860.19,-28.43 864.41,-22.85"/>
</g>
<!-- Node25&#45;&gt;Node4 -->
<g id="edge55" class="edge">
<title>Node25&#45;&gt;Node4</title>
<path fill="none" stroke="midnightblue" d="M1635.1,-291.17C1622.33,-267.87 1588.53,-202.4 1577.05,-143 1574.44,-129.47 1571.36,-124.55 1577.05,-112 1592.67,-77.58 1606.39,-71.06 1641.05,-56 1707.35,-27.21 1912.27,-16.51 2019.72,-12.8"/>
<polygon fill="midnightblue" stroke="midnightblue" points="2019.93,-16.3 2029.81,-12.46 2019.7,-9.3 2019.93,-16.3"/>
</g>
<!-- Node25&#45;&gt;Node17 -->
<g id="edge68" class="edge">
<title>Node25&#45;&gt;Node17</title>
<path fill="none" stroke="midnightblue" d="M1677.26,-298.64C1831.21,-292.91 2414.05,-270.4 2495.05,-255 2547.32,-245.07 2671.19,-194.56 2722.05,-179 2761.15,-167.04 2805.34,-154.75 2840.39,-145.29"/>
<polygon fill="midnightblue" stroke="midnightblue" points="2841.74,-148.55 2850.48,-142.57 2839.92,-141.79 2841.74,-148.55"/>
</g>
<!-- Node25&#45;&gt;Node18 -->
<g id="edge57" class="edge">
<title>Node25&#45;&gt;Node18</title>
<path fill="none" stroke="midnightblue" d="M1677.25,-298.39C1751.08,-294.72 1921.37,-283.84 2072.87,-254.9"/>
<polygon fill="midnightblue" stroke="midnightblue" points="2073.67,-258.31 2082.82,-252.97 2072.34,-251.44 2073.67,-258.31"/>
</g>
<!-- Node25&#45;&gt;Node21 -->
<g id="edge58" class="edge">
<title>Node25&#45;&gt;Node21</title>
<path fill="none" stroke="midnightblue" d="M1644.32,-291.43C1661.23,-257.47 1723.75,-131.89 1747.14,-84.9"/>
<polygon fill="midnightblue" stroke="midnightblue" points="1750.3,-86.41 1751.63,-75.9 1744.04,-83.29 1750.3,-86.41"/>
</g>
<!-- Node26 -->
<g id="node26" class="node">
<title>Node26</title>
<g id="a_node26"><a xlink:title=" ">
<polygon fill="none" stroke="#bfbfbf" points="1231.05,-235.5 1231.05,-254.5 1281.05,-254.5 1281.05,-235.5 1231.05,-235.5"/>
<text text-anchor="middle" x="1256.05" y="-242.5" font-family="Helvetica,sans-Serif" font-size="10.00">chrono</text>
</a>
</g>
</g>
<!-- Node25&#45;&gt;Node26 -->
<g id="edge56" class="edge">
<title>Node25&#45;&gt;Node26</title>
<path fill="none" stroke="midnightblue" d="M1602.86,-296.35C1539.42,-289.85 1406.37,-275.05 1295.05,-255 1293.79,-254.77 1292.5,-254.53 1291.19,-254.27"/>
<polygon fill="midnightblue" stroke="midnightblue" points="1291.66,-250.8 1281.16,-252.17 1290.22,-257.65 1291.66,-250.8"/>
</g>
<!-- Node27 -->
<g id="node27" class="node">
<title>Node27</title>
<g id="a_node27"><a xlink:href="_type_traits_8h.html" target="_top" xlink:title=" ">
<polygon fill="none" stroke="black" points="1413.05,-235.5 1413.05,-254.5 1525.05,-254.5 1525.05,-235.5 1413.05,-235.5"/>
<text text-anchor="middle" x="1469.05" y="-242.5" font-family="Helvetica,sans-Serif" font-size="10.00">../meta/TypeTraits.h</text>
</a>
</g>
</g>
<!-- Node25&#45;&gt;Node27 -->
<g id="edge59" class="edge">
<title>Node25&#45;&gt;Node27</title>
<path fill="none" stroke="midnightblue" d="M1612.96,-291.44C1584.07,-282.32 1538.13,-267.81 1505.95,-257.65"/>
<polygon fill="midnightblue" stroke="midnightblue" points="1506.61,-254.19 1496.02,-254.52 1504.51,-260.87 1506.61,-254.19"/>
</g>
<!-- Node27&#45;&gt;Node3 -->
<g id="edge63" class="edge">
<title>Node27&#45;&gt;Node3</title>
<path fill="none" stroke="midnightblue" d="M1417.04,-235.5C1359.53,-225.66 1273.46,-209.48 1262.05,-199 1213.09,-154.01 1269.09,-98.63 1218.05,-56 1170.69,-16.44 990.21,-10.73 898,-10.47"/>
<polygon fill="midnightblue" stroke="midnightblue" points="897.75,-6.97 887.75,-10.47 897.74,-13.97 897.75,-6.97"/>
</g>
<!-- Node27&#45;&gt;Node4 -->
<g id="edge65" class="edge">
<title>Node27&#45;&gt;Node4</title>
<path fill="none" stroke="midnightblue" d="M1476.86,-235.36C1486.96,-223.07 1502.56,-199.76 1496.05,-179 1490.23,-160.41 1480.63,-159.96 1471.05,-143 1455.01,-114.59 1447.87,-107.91 1441.05,-76 1439.2,-67.31 1434.99,-62.5 1441.05,-56 1479.93,-14.32 1862.61,-10.44 2019.99,-10.62"/>
<polygon fill="midnightblue" stroke="midnightblue" points="2020.01,-14.12 2030.02,-10.64 2020.03,-7.12 2020.01,-14.12"/>
</g>
<!-- Node27&#45;&gt;Node6 -->
<g id="edge62" class="edge">
<title>Node27&#45;&gt;Node6</title>
<path fill="none" stroke="midnightblue" d="M1413.03,-239.11C1286.55,-228.08 982.12,-201.52 882.33,-192.82"/>
<polygon fill="midnightblue" stroke="midnightblue" points="882.52,-189.32 872.26,-191.94 881.91,-196.29 882.52,-189.32"/>
</g>
<!-- Node27&#45;&gt;Node13 -->
<g id="edge64" class="edge">
<title>Node27&#45;&gt;Node13</title>
<path fill="none" stroke="midnightblue" d="M1525.43,-241.24C1561.84,-239.45 1610.25,-237.09 1653.05,-235 1817.94,-226.97 2233.76,-234.18 2395.05,-199 2562.05,-162.58 2593.14,-118.92 2752.05,-56 2780.31,-44.81 2812.53,-32.22 2835.67,-23.2"/>
<polygon fill="midnightblue" stroke="midnightblue" points="2836.94,-26.46 2844.99,-19.57 2834.4,-19.94 2836.94,-26.46"/>
</g>
<!-- Node27&#45;&gt;Node21 -->
<g id="edge60" class="edge">
<title>Node27&#45;&gt;Node21</title>
<path fill="none" stroke="midnightblue" d="M1482.9,-235.46C1528.82,-207.14 1676.47,-116.08 1733.39,-80.98"/>
<polygon fill="midnightblue" stroke="midnightblue" points="1735.34,-83.89 1742.01,-75.66 1731.67,-77.93 1735.34,-83.89"/>
</g>
<!-- Node28 -->
<g id="node28" class="node">
<title>Node28</title>
<g id="a_node28"><a xlink:title=" ">
<polygon fill="none" stroke="#bfbfbf" points="1270.55,-179.5 1270.55,-198.5 1327.55,-198.5 1327.55,-179.5 1270.55,-179.5"/>
<text text-anchor="middle" x="1299.05" y="-186.5" font-family="Helvetica,sans-Serif" font-size="10.00">typeinfo</text>
</a>
</g>
</g>
<!-- Node27&#45;&gt;Node28 -->
<g id="edge61" class="edge">
<title>Node27&#45;&gt;Node28</title>
<path fill="none" stroke="midnightblue" d="M1442.12,-235.44C1413.39,-226.32 1367.73,-211.81 1335.73,-201.65"/>
<polygon fill="midnightblue" stroke="midnightblue" points="1336.46,-198.21 1325.87,-198.52 1334.34,-204.88 1336.46,-198.21"/>
</g>
<!-- Node29 -->
<g id="node29" class="node">
<title>Node29</title>
<g id="a_node29"><a xlink:title=" ">
<polygon fill="none" stroke="#bfbfbf" points="1345.55,-179.5 1345.55,-198.5 1410.55,-198.5 1410.55,-179.5 1345.55,-179.5"/>
<text text-anchor="middle" x="1378.05" y="-186.5" font-family="Helvetica,sans-Serif" font-size="10.00">exception</text>
</a>
</g>
</g>
<!-- Node27&#45;&gt;Node29 -->
<g id="edge66" class="edge">
<title>Node27&#45;&gt;Node29</title>
<path fill="none" stroke="midnightblue" d="M1454.43,-235.32C1440.11,-226.82 1418.04,-213.73 1401.31,-203.8"/>
<polygon fill="midnightblue" stroke="midnightblue" points="1403.03,-200.75 1392.64,-198.65 1399.45,-206.77 1403.03,-200.75"/>
</g>
<!-- Node30 -->
<g id="node30" class="node">
<title>Node30</title>
<g id="a_node30"><a xlink:title=" ">
<polygon fill="none" stroke="#bfbfbf" points="1429.05,-179.5 1429.05,-198.5 1487.05,-198.5 1487.05,-179.5 1429.05,-179.5"/>
<text text-anchor="middle" x="1458.05" y="-186.5" font-family="Helvetica,sans-Serif" font-size="10.00">cxxabi.h</text>
</a>
</g>
</g>
<!-- Node27&#45;&gt;Node30 -->
<g id="edge67" class="edge">
<title>Node27&#45;&gt;Node30</title>
<path fill="none" stroke="midnightblue" d="M1467.24,-235.08C1465.78,-227.93 1463.68,-217.64 1461.86,-208.69"/>
<polygon fill="midnightblue" stroke="midnightblue" points="1465.26,-207.85 1459.84,-198.75 1458.4,-209.25 1465.26,-207.85"/>
</g>
<!-- Node31&#45;&gt;Node4 -->
<g id="edge70" class="edge">
<title>Node31&#45;&gt;Node4</title>
<path fill="none" stroke="midnightblue" d="M1898.61,-235.22C1904.24,-205.85 1926.2,-109.84 1981.05,-56 1997.18,-40.17 2019.72,-29.55 2039.88,-22.62"/>
<polygon fill="midnightblue" stroke="midnightblue" points="2041.1,-25.91 2049.54,-19.51 2038.95,-19.24 2041.1,-25.91"/>
</g>
<!-- Node31&#45;&gt;Node24 -->
<g id="edge71" class="edge">
<title>Node31&#45;&gt;Node24</title>
<path fill="none" stroke="midnightblue" d="M1947.1,-236.17C1950.47,-235.75 1953.81,-235.35 1957.05,-235 2199.29,-208.91 2261.92,-226.03 2504.05,-199 2505.31,-198.86 2506.59,-198.71 2507.87,-198.55"/>
<polygon fill="midnightblue" stroke="midnightblue" points="2508.39,-202.02 2517.85,-197.24 2507.48,-195.08 2508.39,-202.02"/>
</g>
<!-- Node32&#45;&gt;Node3 -->
<g id="edge73" class="edge">
<title>Node32&#45;&gt;Node3</title>
<path fill="none" stroke="midnightblue" d="M2078.38,-411.6C1966.94,-409.05 1484.78,-390.31 1121.05,-255 995.33,-208.23 953.73,-186.75 878.05,-76 867.68,-60.82 857.95,-42.25 851.39,-28.85"/>
<polygon fill="midnightblue" stroke="midnightblue" points="854.51,-27.26 847.04,-19.75 848.2,-30.28 854.51,-27.26"/>
</g>
<!-- Node32&#45;&gt;Node4 -->
<g id="edge74" class="edge">
<title>Node32&#45;&gt;Node4</title>
<path fill="none" stroke="midnightblue" d="M2078.1,-411.21C2013.19,-408.66 1835.64,-398.88 1788.05,-367 1686.37,-298.87 1671.16,-233.72 1684.05,-112 1686.74,-86.69 1677.21,-73.11 1696.05,-56 1719.49,-34.72 1913.92,-20.67 2019.47,-14.53"/>
<polygon fill="midnightblue" stroke="midnightblue" points="2019.93,-18.01 2029.71,-13.94 2019.53,-11.02 2019.93,-18.01"/>
</g>
<!-- Node32&#45;&gt;Node6 -->
<g id="edge121" class="edge">
<title>Node32&#45;&gt;Node6</title>
<path fill="none" stroke="midnightblue" d="M2078.34,-411.56C1940.22,-408.9 1242.34,-394.18 1151.05,-367 1090.53,-348.98 929.14,-243.05 871.16,-204.24"/>
<polygon fill="midnightblue" stroke="midnightblue" points="873.03,-201.28 862.78,-198.61 869.13,-207.09 873.03,-201.28"/>
</g>
<!-- Node32&#45;&gt;Node12 -->
<g id="edge75" class="edge">
<title>Node32&#45;&gt;Node12</title>
<path fill="none" stroke="midnightblue" d="M2125.8,-412.19C2285.94,-413.21 3202.05,-414.1 3202.05,-302 3202.05,-302 3202.05,-302 3202.05,-188 3202.05,-126.74 3144.04,-134.5 3087.05,-112 3052.74,-98.45 2959.7,-84.47 2893.58,-75.76"/>
<polygon fill="midnightblue" stroke="midnightblue" points="2894,-72.28 2883.63,-74.46 2893.09,-79.23 2894,-72.28"/>
</g>
<!-- Node32&#45;&gt;Node17 -->
<g id="edge123" class="edge">
<title>Node32&#45;&gt;Node17</title>
<path fill="none" stroke="midnightblue" d="M2125.68,-412.2C2226.39,-412.43 2628.84,-406.98 2940.05,-311 2991.72,-295.07 3019.97,-301.2 3048.05,-255 3061.9,-232.23 3035.11,-188.23 3026.05,-179 3010.11,-162.76 2988.18,-151.52 2967.3,-143.85"/>
<polygon fill="midnightblue" stroke="midnightblue" points="2968.41,-140.52 2957.81,-140.57 2966.12,-147.14 2968.41,-140.52"/>
</g>
<!-- Node32&#45;&gt;Node18 -->
<g id="edge120" class="edge">
<title>Node32&#45;&gt;Node18</title>
<path fill="none" stroke="midnightblue" d="M2102.22,-403.08C2102.69,-376.95 2104.08,-300.21 2104.72,-264.58"/>
<polygon fill="midnightblue" stroke="midnightblue" points="2108.22,-264.63 2104.9,-254.57 2101.22,-264.5 2108.22,-264.63"/>
</g>
<!-- Node32&#45;&gt;Node25 -->
<g id="edge122" class="edge">
<title>Node32&#45;&gt;Node25</title>
<path fill="none" stroke="midnightblue" d="M2078.46,-411.78C2001.42,-410.72 1758.34,-404.4 1691.05,-367 1671.72,-356.25 1657.17,-334.87 1648.66,-319.56"/>
<polygon fill="midnightblue" stroke="midnightblue" points="1651.69,-317.79 1643.95,-310.55 1645.48,-321.03 1651.69,-317.79"/>
</g>
<!-- Node33 -->
<g id="node33" class="node">
<title>Node33</title>
<g id="a_node33"><a xlink:href="weekday_8h.html" target="_top" xlink:title=" ">
<polygon fill="none" stroke="black" points="2172.05,-347.5 2172.05,-366.5 2240.05,-366.5 2240.05,-347.5 2172.05,-347.5"/>
<text text-anchor="middle" x="2206.05" y="-354.5" font-family="Helvetica,sans-Serif" font-size="10.00">weekday.h</text>
</a>
</g>
</g>
<!-- Node32&#45;&gt;Node33 -->
<g id="edge76" class="edge">
<title>Node32&#45;&gt;Node33</title>
<path fill="none" stroke="midnightblue" d="M2118.76,-403.32C2135.37,-394.7 2161.06,-381.36 2180.28,-371.39"/>
<polygon fill="midnightblue" stroke="midnightblue" points="2182.12,-374.37 2189.39,-366.65 2178.9,-368.16 2182.12,-374.37"/>
</g>
<!-- Node34 -->
<g id="node34" class="node">
<title>Node34</title>
<g id="a_node34"><a xlink:href="year_8h.html" target="_top" xlink:title=" ">
<polygon fill="none" stroke="black" points="2132.55,-291.5 2132.55,-310.5 2179.55,-310.5 2179.55,-291.5 2132.55,-291.5"/>
<text text-anchor="middle" x="2156.05" y="-298.5" font-family="Helvetica,sans-Serif" font-size="10.00">year.h</text>
</a>
</g>
</g>
<!-- Node32&#45;&gt;Node34 -->
<g id="edge119" class="edge">
<title>Node32&#45;&gt;Node34</title>
<path fill="none" stroke="midnightblue" d="M2106.29,-403.37C2115.12,-385.38 2135.66,-343.55 2147.4,-319.63"/>
<polygon fill="midnightblue" stroke="midnightblue" points="2150.57,-321.11 2151.84,-310.59 2144.29,-318.03 2150.57,-321.11"/>
</g>
<!-- Node39 -->
<g id="node39" class="node">
<title>Node39</title>
<g id="a_node39"><a xlink:href="month_8h.html" target="_top" xlink:title=" ">
<polygon fill="none" stroke="black" points="2239.55,-291.5 2239.55,-310.5 2296.55,-310.5 2296.55,-291.5 2239.55,-291.5"/>
<text text-anchor="middle" x="2268.05" y="-298.5" font-family="Helvetica,sans-Serif" font-size="10.00">month.h</text>
</a>
</g>
</g>
<!-- Node32&#45;&gt;Node39 -->
<g id="edge118" class="edge">
<title>Node32&#45;&gt;Node39</title>
<path fill="none" stroke="midnightblue" d="M2125.66,-411.41C2157.97,-409.31 2215.77,-400.71 2249.05,-367 2261.05,-354.85 2265.55,-335.58 2267.2,-321.17"/>
<polygon fill="midnightblue" stroke="midnightblue" points="2270.71,-321.12 2268,-310.88 2263.73,-320.58 2270.71,-321.12"/>
</g>
<!-- Node43 -->
<g id="node43" class="node">
<title>Node43</title>
<g id="a_node43"><a xlink:href="date__impl_8h.html" target="_top" xlink:title=" ">
<polygon fill="none" stroke="black" points="3230.55,-235.5 3230.55,-254.5 3329.55,-254.5 3329.55,-235.5 3230.55,-235.5"/>
<text text-anchor="middle" x="3280.05" y="-242.5" font-family="Helvetica,sans-Serif" font-size="10.00">impl/date_impl.h</text>
</a>
</g>
</g>
<!-- Node32&#45;&gt;Node43 -->
<g id="edge124" class="edge">
<title>Node32&#45;&gt;Node43</title>
<path fill="none" stroke="midnightblue" d="M2125.75,-411.71C2282.77,-409.71 3168.31,-397.09 3216.05,-367 3252.63,-343.95 3269.54,-292.55 3276.27,-264.74"/>
<polygon fill="midnightblue" stroke="midnightblue" points="3279.74,-265.24 3278.49,-254.72 3272.91,-263.72 3279.74,-265.24"/>
</g>
<!-- Node33&#45;&gt;Node3 -->
<g id="edge77" class="edge">
<title>Node33&#45;&gt;Node3</title>
<path fill="none" stroke="midnightblue" d="M2171.9,-354.68C2015.81,-348.35 1369.8,-318.7 1179.05,-255 1039.67,-208.45 1006.26,-178.6 901.05,-76 885.07,-60.41 868.23,-41.18 856.84,-27.69"/>
<polygon fill="midnightblue" stroke="midnightblue" points="859.3,-25.19 850.2,-19.76 853.93,-29.68 859.3,-25.19"/>
</g>
<!-- Node33&#45;&gt;Node4 -->
<g id="edge78" class="edge">
<title>Node33&#45;&gt;Node4</title>
<path fill="none" stroke="midnightblue" d="M2205.91,-347.34C2205.6,-315.3 2206.59,-200.8 2234.05,-112 2241.82,-86.89 2269.02,-76.87 2253.05,-56 2240.74,-39.9 2194.77,-28.21 2154.33,-20.8"/>
<polygon fill="midnightblue" stroke="midnightblue" points="2154.91,-17.34 2144.46,-19.05 2153.69,-24.24 2154.91,-17.34"/>
</g>
<!-- Node33&#45;&gt;Node12 -->
<g id="edge109" class="edge">
<title>Node33&#45;&gt;Node12</title>
<path fill="none" stroke="midnightblue" d="M2240.47,-355.78C2366.96,-354.66 2805.77,-348.13 2940.05,-311 2992.17,-296.59 3016.76,-299.09 3048.05,-255 3085.07,-202.85 3104.93,-161.18 3064.05,-112 3053.13,-98.85 2961.29,-84.56 2893.97,-75.69"/>
<polygon fill="midnightblue" stroke="midnightblue" points="2894.18,-72.18 2883.81,-74.36 2893.28,-79.13 2894.18,-72.18"/>
</g>
<!-- Node33&#45;&gt;Node17 -->
<g id="edge110" class="edge">
<title>Node33&#45;&gt;Node17</title>
<path fill="none" stroke="midnightblue" d="M2240.19,-356.63C2337.95,-357.81 2626.99,-356.84 2861.05,-311 2939.12,-295.71 2984.43,-319.45 3031.05,-255 3062.18,-211.98 2995.4,-170.11 2947.39,-146.97"/>
<polygon fill="midnightblue" stroke="midnightblue" points="2948.62,-143.68 2938.08,-142.6 2945.64,-150.01 2948.62,-143.68"/>
</g>
<!-- Node33&#45;&gt;Node18 -->
<g id="edge113" class="edge">
<title>Node33&#45;&gt;Node18</title>
<path fill="none" stroke="midnightblue" d="M2179.18,-347.42C2161.15,-340.35 2138.19,-328.6 2124.05,-311 2113.37,-297.69 2108.69,-278.57 2106.64,-264.51"/>
<polygon fill="midnightblue" stroke="midnightblue" points="2110.12,-264.07 2105.5,-254.53 2103.16,-264.86 2110.12,-264.07"/>
</g>
<!-- Node33&#45;&gt;Node21 -->
<g id="edge112" class="edge">
<title>Node33&#45;&gt;Node21</title>
<path fill="none" stroke="midnightblue" d="M2171.99,-354.49C2071.14,-349.1 1781.05,-326.6 1781.05,-246 1781.05,-246 1781.05,-246 1781.05,-188 1781.05,-150.96 1769.68,-108.85 1762.28,-85.35"/>
<polygon fill="midnightblue" stroke="midnightblue" points="1765.55,-84.1 1759.12,-75.68 1758.9,-86.27 1765.55,-84.1"/>
</g>
<!-- Node33&#45;&gt;Node34 -->
<g id="edge79" class="edge">
<title>Node33&#45;&gt;Node34</title>
<path fill="none" stroke="midnightblue" d="M2197.8,-347.08C2190.59,-339.3 2179.95,-327.8 2171.21,-318.37"/>
<polygon fill="midnightblue" stroke="midnightblue" points="2173.52,-315.71 2164.16,-310.75 2168.38,-320.47 2173.52,-315.71"/>
</g>
<!-- Node33&#45;&gt;Node39 -->
<g id="edge97" class="edge">
<title>Node33&#45;&gt;Node39</title>
<path fill="none" stroke="midnightblue" d="M2216.02,-347.32C2225.18,-339.34 2238.99,-327.31 2250.08,-317.65"/>
<polygon fill="midnightblue" stroke="midnightblue" points="2252.67,-320.04 2257.91,-310.83 2248.07,-314.76 2252.67,-320.04"/>
</g>
<!-- Node40 -->
<g id="node40" class="node">
<title>Node40</title>
<g id="a_node40"><a xlink:title=" ">
<polygon fill="none" stroke="#bfbfbf" points="2808.55,-235.5 2808.55,-254.5 2881.55,-254.5 2881.55,-235.5 2808.55,-235.5"/>
<text text-anchor="middle" x="2845.05" y="-242.5" font-family="Helvetica,sans-Serif" font-size="10.00">string_view</text>
</a>
</g>
</g>
<!-- Node33&#45;&gt;Node40 -->
<g id="edge111" class="edge">
<title>Node33&#45;&gt;Node40</title>
<path fill="none" stroke="midnightblue" d="M2240.24,-354.98C2358.43,-351.25 2745.19,-337.13 2794.05,-311 2813.56,-300.57 2828.08,-279.12 2836.53,-263.71"/>
<polygon fill="midnightblue" stroke="midnightblue" points="2839.74,-265.12 2841.21,-254.63 2833.52,-261.92 2839.74,-265.12"/>
</g>
<!-- Node42 -->
<g id="node42" class="node">
<title>Node42</title>
<g id="a_node42"><a xlink:href="weekday__impl_8h.html" target="_top" xlink:title=" ">
<polygon fill="none" stroke="black" points="2900.05,-235.5 2900.05,-254.5 3022.05,-254.5 3022.05,-235.5 2900.05,-235.5"/>
<text text-anchor="middle" x="2961.05" y="-242.5" font-family="Helvetica,sans-Serif" font-size="10.00">impl/weekday_impl.h</text>
</a>
</g>
</g>
<!-- Node33&#45;&gt;Node42 -->
<g id="edge114" class="edge">
<title>Node33&#45;&gt;Node42</title>
<path fill="none" stroke="midnightblue" d="M2240.42,-355.08C2352.75,-351.82 2708.2,-339.46 2819.05,-311 2863.22,-299.66 2910.64,-275.17 2937.98,-259.7"/>
<polygon fill="midnightblue" stroke="midnightblue" points="2939.85,-262.66 2946.77,-254.64 2936.36,-256.59 2939.85,-262.66"/>
</g>
<!-- Node34&#45;&gt;Node3 -->
<g id="edge80" class="edge">
<title>Node34&#45;&gt;Node3</title>
<path fill="none" stroke="midnightblue" d="M2132.33,-298.75C2003.21,-291.96 1390.06,-259.52 1371.05,-255 1349.37,-249.84 1346.11,-242.34 1325.05,-235 1266.42,-214.56 1246.88,-224.03 1190.05,-199 1124.39,-170.08 1114.93,-149.99 1054.05,-112 1013.45,-86.66 1005.07,-77 962.05,-56 935.31,-42.94 903.75,-31.16 879.85,-22.93"/>
<polygon fill="midnightblue" stroke="midnightblue" points="880.71,-19.53 870.12,-19.63 878.46,-26.16 880.71,-19.53"/>
</g>
<!-- Node34&#45;&gt;Node4 -->
<g id="edge81" class="edge">
<title>Node34&#45;&gt;Node4</title>
<path fill="none" stroke="midnightblue" d="M2154.96,-291.35C2152.97,-278.25 2147.82,-252.98 2136.05,-235 2101.71,-182.52 2055.22,-200 2029.05,-143 2012.92,-107.86 2012.05,-90.72 2029.05,-56 2035.58,-42.68 2048.15,-32.18 2059.93,-24.68"/>
<polygon fill="midnightblue" stroke="midnightblue" points="2061.83,-27.62 2068.67,-19.53 2058.27,-21.59 2061.83,-27.62"/>
</g>
<!-- Node34&#45;&gt;Node12 -->
<g id="edge82" class="edge">
<title>Node34&#45;&gt;Node12</title>
<path fill="none" stroke="midnightblue" d="M2179.74,-297.16C2261.34,-287.37 2525.94,-255.61 2528.05,-255 2583.82,-238.86 2594.42,-225.53 2646.05,-199 2691.71,-175.54 2706.17,-174.03 2747.05,-143 2770.7,-125.06 2794.1,-99.84 2808.32,-83.45"/>
<polygon fill="midnightblue" stroke="midnightblue" points="2811.04,-85.66 2814.87,-75.78 2805.71,-81.11 2811.04,-85.66"/>
</g>
<!-- Node34&#45;&gt;Node17 -->
<g id="edge83" class="edge">
<title>Node34&#45;&gt;Node17</title>
<path fill="none" stroke="midnightblue" d="M2179.68,-296.97C2194.43,-295.12 2213.84,-292.79 2231.05,-291 2413.44,-272.07 2465.1,-303.07 2642.05,-255 2698.08,-239.78 2707.76,-224.21 2760.05,-199 2796.37,-181.49 2837.68,-161.23 2866.72,-146.94"/>
<polygon fill="midnightblue" stroke="midnightblue" points="2868.27,-150.07 2875.69,-142.51 2865.17,-143.79 2868.27,-150.07"/>
</g>
<!-- Node34&#45;&gt;Node18 -->
<g id="edge84" class="edge">
<title>Node34&#45;&gt;Node18</title>
<path fill="none" stroke="midnightblue" d="M2147.63,-291.08C2140.21,-283.22 2129.2,-271.57 2120.24,-262.08"/>
<polygon fill="midnightblue" stroke="midnightblue" points="2122.73,-259.62 2113.32,-254.75 2117.64,-264.42 2122.73,-259.62"/>
</g>
<!-- Node35 -->
<g id="node35" class="node">
<title>Node35</title>
<g id="a_node35"><a xlink:href="year__impl_8h.html" target="_top" xlink:title=" ">
<polygon fill="none" stroke="black" points="2259.55,-235.5 2259.55,-254.5 2358.55,-254.5 2358.55,-235.5 2259.55,-235.5"/>
<text text-anchor="middle" x="2309.05" y="-242.5" font-family="Helvetica,sans-Serif" font-size="10.00">impl/year_impl.h</text>
</a>
</g>
</g>
<!-- Node34&#45;&gt;Node35 -->
<g id="edge85" class="edge">
<title>Node34&#45;&gt;Node35</title>
<path fill="none" stroke="midnightblue" d="M2179.63,-291.68C2205.19,-282.66 2246.24,-268.17 2275.24,-257.93"/>
<polygon fill="midnightblue" stroke="midnightblue" points="2276.69,-261.14 2284.95,-254.51 2274.36,-254.53 2276.69,-261.14"/>
</g>
<!-- Node35&#45;&gt;Node4 -->
<g id="edge86" class="edge">
<title>Node35&#45;&gt;Node4</title>
<path fill="none" stroke="midnightblue" d="M2286.27,-235.47C2270.73,-228.32 2251.35,-216.44 2242.05,-199 2237.87,-191.16 2239.34,-187.46 2242.05,-179 2253.26,-144.12 2261.02,-134.33 2290.05,-112 2328.9,-82.12 2417.02,-93.15 2385.05,-56 2355.91,-22.12 2232.96,-13.42 2154.38,-11.38"/>
<polygon fill="midnightblue" stroke="midnightblue" points="2154.16,-7.87 2144.08,-11.14 2154,-14.87 2154.16,-7.87"/>
</g>
<!-- Node35&#45;&gt;Node24 -->
<g id="edge96" class="edge">
<title>Node35&#45;&gt;Node24</title>
<path fill="none" stroke="midnightblue" d="M2348.98,-235.44C2392.95,-226.02 2463.68,-210.87 2511.24,-200.68"/>
<polygon fill="midnightblue" stroke="midnightblue" points="2512.27,-204.03 2521.31,-198.52 2510.8,-197.19 2512.27,-204.03"/>
</g>
<!-- Node36 -->
<g id="node36" class="node">
<title>Node36</title>
<g id="a_node36"><a xlink:href="math_helpers_8h.html" target="_top" xlink:title=" ">
<polygon fill="none" stroke="black" points="2250.55,-179.5 2250.55,-198.5 2385.55,-198.5 2385.55,-179.5 2250.55,-179.5"/>
<text text-anchor="middle" x="2318.05" y="-186.5" font-family="Helvetica,sans-Serif" font-size="10.00">../../math/mathHelpers.h</text>
</a>
</g>
</g>
<!-- Node35&#45;&gt;Node36 -->
<g id="edge87" class="edge">
<title>Node35&#45;&gt;Node36</title>
<path fill="none" stroke="midnightblue" d="M2310.54,-235.08C2311.73,-227.93 2313.45,-217.64 2314.94,-208.69"/>
<polygon fill="midnightblue" stroke="midnightblue" points="2318.4,-209.19 2316.6,-198.75 2311.5,-208.04 2318.4,-209.19"/>
</g>
<!-- Node36&#45;&gt;Node3 -->
<g id="edge91" class="edge">
<title>Node36&#45;&gt;Node3</title>
<path fill="none" stroke="midnightblue" d="M2250.3,-185.36C2159.91,-180.95 1995.22,-169.73 1857.05,-143 1722.01,-116.87 1695.53,-79.79 1560.05,-56 1315.95,-13.14 1018.81,-9.7 898.04,-10.31"/>
<polygon fill="midnightblue" stroke="midnightblue" points="897.91,-6.81 887.93,-10.38 897.95,-13.81 897.91,-6.81"/>
</g>
<!-- Node36&#45;&gt;Node4 -->
<g id="edge88" class="edge">
<title>Node36&#45;&gt;Node4</title>
<path fill="none" stroke="midnightblue" d="M2311.87,-179.07C2302.14,-163.8 2285.84,-132.36 2301.05,-112 2336.78,-64.21 2462.34,-100.9 2423.05,-56 2388.85,-16.91 2242.08,-10.33 2154.23,-10.02"/>
<polygon fill="midnightblue" stroke="midnightblue" points="2154.08,-6.51 2144.08,-10.01 2154.08,-13.51 2154.08,-6.51"/>
</g>
<!-- Node36&#45;&gt;Node12 -->
<g id="edge95" class="edge">
<title>Node36&#45;&gt;Node12</title>
<path fill="none" stroke="midnightblue" d="M2353.5,-179.49C2442.85,-158.04 2677.28,-101.76 2776.58,-77.92"/>
<polygon fill="midnightblue" stroke="midnightblue" points="2777.41,-81.32 2786.32,-75.58 2775.78,-74.51 2777.41,-81.32"/>
</g>
<!-- Node36&#45;&gt;Node17 -->
<g id="edge94" class="edge">
<title>Node36&#45;&gt;Node17</title>
<path fill="none" stroke="midnightblue" d="M2385.56,-181.15C2499.53,-169.57 2728.54,-146.32 2840.08,-135"/>
<polygon fill="midnightblue" stroke="midnightblue" points="2840.58,-138.46 2850.17,-133.97 2839.87,-131.5 2840.58,-138.46"/>
</g>
<!-- Node36&#45;&gt;Node20 -->
<g id="edge93" class="edge">
<title>Node36&#45;&gt;Node20</title>
<path fill="none" stroke="midnightblue" d="M2285.1,-179.48C2249.61,-170.29 2192.36,-155.48 2148.69,-144.19"/>
<polygon fill="midnightblue" stroke="midnightblue" points="2149.31,-140.73 2138.75,-141.62 2147.56,-147.51 2149.31,-140.73"/>
</g>
<!-- Node36&#45;&gt;Node21 -->
<g id="edge90" class="edge">
<title>Node36&#45;&gt;Node21</title>
<path fill="none" stroke="midnightblue" d="M2250.32,-184.37C2177.11,-179.33 2057.44,-167.86 1957.05,-143 1893.06,-127.15 1821.64,-96.97 1783.54,-79.8"/>
<polygon fill="midnightblue" stroke="midnightblue" points="1784.7,-76.48 1774.15,-75.52 1781.8,-82.85 1784.7,-76.48"/>
</g>
<!-- Node37 -->
<g id="node37" class="node">
<title>Node37</title>
<g id="a_node37"><a xlink:title=" ">
<polygon fill="none" stroke="#bfbfbf" points="2309.55,-118 2309.55,-137 2356.55,-137 2356.55,-118 2309.55,-118"/>
<text text-anchor="middle" x="2333.05" y="-125" font-family="Helvetica,sans-Serif" font-size="10.00">cmath</text>
</a>
</g>
</g>
<!-- Node36&#45;&gt;Node37 -->
<g id="edge89" class="edge">
<title>Node36&#45;&gt;Node37</title>
<path fill="none" stroke="midnightblue" d="M2320.2,-179.48C2322.34,-170.99 2325.69,-157.7 2328.44,-146.82"/>
<polygon fill="midnightblue" stroke="midnightblue" points="2331.86,-147.56 2330.91,-137.01 2325.07,-145.85 2331.86,-147.56"/>
</g>
<!-- Node38 -->
<g id="node38" class="node">
<title>Node38</title>
<g id="a_node38"><a xlink:title=" ">
<polygon fill="none" stroke="#bfbfbf" points="2375.05,-118 2375.05,-137 2439.05,-137 2439.05,-118 2375.05,-118"/>
<text text-anchor="middle" x="2407.05" y="-125" font-family="Helvetica,sans-Serif" font-size="10.00">algorithm</text>
</a>
</g>
</g>
<!-- Node36&#45;&gt;Node38 -->
<g id="edge92" class="edge">
<title>Node36&#45;&gt;Node38</title>
<path fill="none" stroke="midnightblue" d="M2330.81,-179.48C2345.08,-169.93 2368.45,-154.31 2385.56,-142.87"/>
<polygon fill="midnightblue" stroke="midnightblue" points="2387.96,-145.48 2394.33,-137.01 2384.07,-139.66 2387.96,-145.48"/>
</g>
<!-- Node39&#45;&gt;Node3 -->
<g id="edge98" class="edge">
<title>Node39&#45;&gt;Node3</title>
<path fill="none" stroke="midnightblue" d="M2239.21,-296.24C2224.26,-294.41 2205.7,-292.33 2189.05,-291 2014.98,-277.11 1573.46,-297.38 1404.05,-255 1384,-249.98 1381.33,-242.48 1362.05,-235 1310.94,-215.16 1294.37,-220.79 1244.05,-199 1126.95,-148.28 1112.37,-106.23 995.05,-56 961.19,-41.5 921.18,-29.86 890.71,-22.05"/>
<polygon fill="midnightblue" stroke="midnightblue" points="891.31,-18.6 880.76,-19.55 889.61,-25.38 891.31,-18.6"/>
</g>
<!-- Node39&#45;&gt;Node4 -->
<g id="edge99" class="edge">
<title>Node39&#45;&gt;Node4</title>
<path fill="none" stroke="midnightblue" d="M2263.19,-291.36C2252.7,-271.74 2229.36,-222.17 2235.05,-179 2239.09,-148.43 2234.87,-136.9 2253.05,-112 2273.82,-83.58 2331.33,-83.25 2309.05,-56 2289.77,-32.41 2212.5,-20.89 2154.51,-15.47"/>
<polygon fill="midnightblue" stroke="midnightblue" points="2154.56,-11.96 2144.28,-14.56 2153.93,-18.94 2154.56,-11.96"/>
</g>
<!-- Node39&#45;&gt;Node12 -->
<g id="edge100" class="edge">
<title>Node39&#45;&gt;Node12</title>
<path fill="none" stroke="midnightblue" d="M2296.76,-298.54C2373.08,-294.36 2579.43,-280.9 2642.05,-255 2716.66,-224.15 2734.31,-205.79 2785.05,-143 2799.28,-125.4 2809.79,-101.42 2815.91,-85.14"/>
<polygon fill="midnightblue" stroke="midnightblue" points="2819.21,-86.29 2819.28,-75.7 2812.62,-83.94 2819.21,-86.29"/>
</g>
<!-- Node39&#45;&gt;Node17 -->
<g id="edge101" class="edge">
<title>Node39&#45;&gt;Node17</title>
<path fill="none" stroke="midnightblue" d="M2296.72,-300.04C2368.74,-299.51 2562.56,-294.24 2718.05,-255 2740.46,-249.34 2744.41,-243.1 2766.05,-235 2813.44,-217.26 2836.87,-233.31 2874.05,-199 2887.32,-186.76 2894.95,-167.69 2899.19,-152.47"/>
<polygon fill="midnightblue" stroke="midnightblue" points="2902.61,-153.22 2901.62,-142.68 2895.82,-151.54 2902.61,-153.22"/>
</g>
<!-- Node39&#45;&gt;Node18 -->
<g id="edge103" class="edge">
<title>Node39&#45;&gt;Node18</title>
<path fill="none" stroke="midnightblue" d="M2242.23,-291.44C2213.68,-281.99 2167.67,-266.74 2136.9,-256.55"/>
<polygon fill="midnightblue" stroke="midnightblue" points="2137.7,-253.13 2127.1,-253.3 2135.49,-259.77 2137.7,-253.13"/>
</g>
<!-- Node39&#45;&gt;Node40 -->
<g id="edge102" class="edge">
<title>Node39&#45;&gt;Node40</title>
<path fill="none" stroke="midnightblue" d="M2296.67,-297.45C2371.92,-290.73 2581.6,-271.86 2756.05,-255 2769.73,-253.68 2784.58,-252.2 2798.16,-250.82"/>
<polygon fill="midnightblue" stroke="midnightblue" points="2798.66,-254.29 2808.26,-249.79 2797.95,-247.32 2798.66,-254.29"/>
</g>
<!-- Node41 -->
<g id="node41" class="node">
<title>Node41</title>
<g id="a_node41"><a xlink:href="month__impl_8h.html" target="_top" xlink:title=" ">
<polygon fill="none" stroke="black" points="2376.55,-235.5 2376.55,-254.5 2485.55,-254.5 2485.55,-235.5 2376.55,-235.5"/>
<text text-anchor="middle" x="2431.05" y="-242.5" font-family="Helvetica,sans-Serif" font-size="10.00">impl/month_impl.h</text>
</a>
</g>
</g>
<!-- Node39&#45;&gt;Node41 -->
<g id="edge104" class="edge">
<title>Node39&#45;&gt;Node41</title>
<path fill="none" stroke="midnightblue" d="M2293.88,-291.44C2321.3,-282.36 2364.83,-267.94 2395.49,-257.78"/>
<polygon fill="midnightblue" stroke="midnightblue" points="2396.96,-260.98 2405.35,-254.52 2394.75,-254.34 2396.96,-260.98"/>
</g>
<!-- Node41&#45;&gt;Node4 -->
<g id="edge105" class="edge">
<title>Node41&#45;&gt;Node4</title>
<path fill="none" stroke="midnightblue" d="M2435.33,-235.29C2449.36,-205.32 2490.34,-105.53 2440.05,-56 2400.85,-17.39 2245.29,-10.72 2154.28,-10.24"/>
<polygon fill="midnightblue" stroke="midnightblue" points="2154.07,-6.74 2144.06,-10.21 2154.05,-13.74 2154.07,-6.74"/>
</g>
<!-- Node41&#45;&gt;Node13 -->
<g id="edge106" class="edge">
<title>Node41&#45;&gt;Node13</title>
<path fill="none" stroke="midnightblue" d="M2485.77,-242.18C2609.79,-236.79 2906.24,-216.35 2967.05,-143 3001.71,-101.2 2930.81,-49.23 2891.23,-24.85"/>
<polygon fill="midnightblue" stroke="midnightblue" points="2892.76,-21.69 2882.39,-19.54 2889.16,-27.69 2892.76,-21.69"/>
</g>
<!-- Node41&#45;&gt;Node24 -->
<g id="edge108" class="edge">
<title>Node41&#45;&gt;Node24</title>
<path fill="none" stroke="midnightblue" d="M2451.65,-235.44C2473.05,-226.56 2506.74,-212.56 2531.08,-202.45"/>
<polygon fill="midnightblue" stroke="midnightblue" points="2532.66,-205.58 2540.55,-198.52 2529.97,-199.12 2532.66,-205.58"/>
</g>
<!-- Node41&#45;&gt;Node36 -->
<g id="edge107" class="edge">
<title>Node41&#45;&gt;Node36</title>
<path fill="none" stroke="midnightblue" d="M2413.15,-235.44C2394.8,-226.68 2366.05,-212.94 2344.96,-202.86"/>
<polygon fill="midnightblue" stroke="midnightblue" points="2346.41,-199.67 2335.88,-198.52 2343.39,-205.99 2346.41,-199.67"/>
</g>
<!-- Node42&#45;&gt;Node4 -->
<g id="edge116" class="edge">
<title>Node42&#45;&gt;Node4</title>
<path fill="none" stroke="midnightblue" d="M2946.45,-235.34C2893.88,-204.65 2708.59,-100.54 2541.05,-56 2407.09,-20.39 2244.12,-12.44 2154.41,-10.97"/>
<polygon fill="midnightblue" stroke="midnightblue" points="2154.41,-7.47 2144.37,-10.83 2154.31,-14.47 2154.41,-7.47"/>
</g>
<!-- Node42&#45;&gt;Node13 -->
<g id="edge117" class="edge">
<title>Node42&#45;&gt;Node13</title>
<path fill="none" stroke="midnightblue" d="M2994.01,-235.42C3078.96,-211.81 3293.65,-141.91 3218.05,-56 3199.19,-34.56 3022.49,-20.52 2927.24,-14.45"/>
<polygon fill="midnightblue" stroke="midnightblue" points="2927.36,-10.95 2917.16,-13.81 2926.93,-17.93 2927.36,-10.95"/>
</g>
<!-- Node42&#45;&gt;Node24 -->
<g id="edge115" class="edge">
<title>Node42&#45;&gt;Node24</title>
<path fill="none" stroke="midnightblue" d="M2899.87,-235.74C2821.8,-225.2 2688.05,-207.14 2614.1,-197.16"/>
<polygon fill="midnightblue" stroke="midnightblue" points="2614.45,-193.68 2604.08,-195.81 2613.52,-200.61 2614.45,-193.68"/>
</g>
<!-- Node43&#45;&gt;Node4 -->
<g id="edge125" class="edge">
<title>Node43&#45;&gt;Node4</title>
<path fill="none" stroke="midnightblue" d="M3278.61,-235.18C3274.17,-211.09 3258.37,-143.87 3216.05,-112 3131.1,-48.02 2384.55,-20.07 2154.35,-12.93"/>
<polygon fill="midnightblue" stroke="midnightblue" points="2154.21,-9.42 2144.1,-12.61 2153.99,-16.42 2154.21,-9.42"/>
</g>
<!-- Node43&#45;&gt;Node13 -->
<g id="edge126" class="edge">
<title>Node43&#45;&gt;Node13</title>
<path fill="none" stroke="midnightblue" d="M3295.84,-235.47C3308.26,-227.77 3324.66,-215.18 3332.05,-199 3348.13,-163.83 3351.24,-145.57 3332.05,-112 3307.74,-69.44 3283.47,-71.74 3237.05,-56 3132.14,-20.43 3002.08,-12.31 2927.42,-10.83"/>
<polygon fill="midnightblue" stroke="midnightblue" points="2927.32,-7.33 2917.26,-10.67 2927.2,-14.33 2927.32,-7.33"/>
</g>
<!-- Node43&#45;&gt;Node24 -->
<g id="edge127" class="edge">
<title>Node43&#45;&gt;Node24</title>
<path fill="none" stroke="midnightblue" d="M3230.35,-240.27C3099.93,-230.47 2748.71,-204.09 2614.34,-194"/>
<polygon fill="midnightblue" stroke="midnightblue" points="2614.52,-190.51 2604.29,-193.25 2614,-197.49 2614.52,-190.51"/>
</g>
<!-- Node44&#45;&gt;Node2 -->
<g id="edge157" class="edge">
<title>Node44&#45;&gt;Node2</title>
<path fill="none" stroke="midnightblue" d="M551.5,-629.58C483.95,-608.35 273.05,-540.86 273.05,-526 273.05,-526 273.05,-526 273.05,-412 273.05,-363.99 220.26,-331.41 184.42,-314.82"/>
<polygon fill="midnightblue" stroke="midnightblue" points="185.37,-311.42 174.81,-310.57 182.54,-317.82 185.37,-311.42"/>
</g>
<!-- Node44&#45;&gt;Node3 -->
<g id="edge134" class="edge">
<title>Node44&#45;&gt;Node3</title>
<path fill="none" stroke="midnightblue" d="M551.49,-629.44C548.35,-628.55 545.13,-627.7 542.05,-627 430.79,-601.57 53.05,-584.13 53.05,-470 53.05,-470 53.05,-470 53.05,-126.5 53.05,-52.09 608.83,-21.25 788.06,-13.24"/>
<polygon fill="midnightblue" stroke="midnightblue" points="788.48,-16.72 798.32,-12.78 788.17,-9.73 788.48,-16.72"/>
</g>
<!-- Node44&#45;&gt;Node4 -->
<g id="edge135" class="edge">
<title>Node44&#45;&gt;Node4</title>
<path fill="none" stroke="midnightblue" d="M592.66,-632.39C622.2,-626.64 677.66,-613.67 720.05,-591 775.05,-561.59 1104.82,-273.29 1154.05,-235 1187.17,-209.24 1196.21,-203.79 1230.05,-179 1315.16,-116.66 1331.33,-83.93 1433.05,-56 1542.11,-26.06 1875.96,-15.48 2019.88,-12.25"/>
<polygon fill="midnightblue" stroke="midnightblue" points="2019.99,-15.75 2029.91,-12.03 2019.84,-8.75 2019.99,-15.75"/>
</g>
<!-- Node44&#45;&gt;Node6 -->
<g id="edge137" class="edge">
<title>Node44&#45;&gt;Node6</title>
<path fill="none" stroke="midnightblue" d="M575.69,-627.3C584.2,-607.14 606.44,-555.83 629.05,-515 700.73,-385.58 718.92,-352.31 809.05,-235 816.86,-224.84 826.47,-214.21 834.42,-205.83"/>
<polygon fill="midnightblue" stroke="midnightblue" points="837,-208.21 841.43,-198.58 831.96,-203.34 837,-208.21"/>
</g>
<!-- Node44&#45;&gt;Node7 -->
<g id="edge139" class="edge">
<title>Node44&#45;&gt;Node7</title>
<path fill="none" stroke="midnightblue" d="M551.53,-629.28C548.38,-628.41 545.15,-627.61 542.05,-627 383.88,-595.69 340.08,-617.64 181.05,-591 179.59,-590.75 178.1,-590.49 176.6,-590.2"/>
<polygon fill="midnightblue" stroke="midnightblue" points="177.18,-586.74 166.67,-588.11 175.74,-593.59 177.18,-586.74"/>
</g>
<!-- Node44&#45;&gt;Node8 -->
<g id="edge156" class="edge">
<title>Node44&#45;&gt;Node8</title>
<path fill="none" stroke="midnightblue" d="M592.75,-634.49C633.92,-630.93 728.44,-620.05 802.05,-591 834.14,-578.34 867.27,-555.66 887.27,-540.73"/>
<polygon fill="midnightblue" stroke="midnightblue" points="889.4,-543.5 895.24,-534.66 885.17,-537.93 889.4,-543.5"/>
</g>
<!-- Node44&#45;&gt;Node12 -->
<g id="edge158" class="edge">
<title>Node44&#45;&gt;Node12</title>
<path fill="none" stroke="midnightblue" d="M592.73,-632.82C670.63,-620.89 946.54,-579.03 1035.05,-571 1525.69,-526.48 2762.07,-546.63 3250.05,-479 3368.04,-462.65 3510.05,-533.11 3510.05,-414 3510.05,-414 3510.05,-414 3510.05,-300 3510.05,-189.18 3316.25,-131.45 3257.05,-112 3191.53,-90.47 2999.88,-76.83 2894.15,-70.73"/>
<polygon fill="midnightblue" stroke="midnightblue" points="2894.07,-67.22 2883.89,-70.15 2893.67,-74.21 2894.07,-67.22"/>
</g>
<!-- Node44&#45;&gt;Node40 -->
<g id="edge138" class="edge">
<title>Node44&#45;&gt;Node40</title>
<path fill="none" stroke="midnightblue" d="M592.56,-633.91C637.35,-629.03 747.06,-615.44 836.05,-591 859.93,-584.44 864.81,-579.54 888.05,-571 958.78,-545.03 974.16,-529.69 1048.05,-515 1329.22,-459.1 1406.57,-504.99 1692.05,-479 1889.69,-461.01 1938.65,-451.48 2135.05,-423 2439.91,-378.79 2578.81,-503.81 2819.05,-311 2833.1,-299.72 2839.6,-279.72 2842.58,-264.87"/>
<polygon fill="midnightblue" stroke="midnightblue" points="2846.08,-265.18 2844.24,-254.75 2839.17,-264.05 2846.08,-265.18"/>
</g>
<!-- Node45 -->
<g id="node45" class="node">
<title>Node45</title>
<g id="a_node45"><a xlink:title=" ">
<polygon fill="none" stroke="#bfbfbf" points="169.55,-235.5 169.55,-254.5 222.55,-254.5 222.55,-235.5 169.55,-235.5"/>
<text text-anchor="middle" x="196.05" y="-242.5" font-family="Helvetica,sans-Serif" font-size="10.00">cstddef</text>
</a>
</g>
</g>
<!-- Node44&#45;&gt;Node45 -->
<g id="edge136" class="edge">
<title>Node44&#45;&gt;Node45</title>
<path fill="none" stroke="midnightblue" d="M551.46,-629.59C548.32,-628.68 545.11,-627.79 542.05,-627 418.06,-595.09 365.33,-619.4 269.05,-535 177.25,-454.52 147.14,-427.32 110.05,-311 107.35,-302.53 105.45,-298.6 110.05,-291 120.93,-273.04 141.59,-261.9 159.94,-255.2"/>
<polygon fill="midnightblue" stroke="midnightblue" points="161.15,-258.48 169.54,-252 158.94,-251.84 161.15,-258.48"/>
</g>
<!-- Node46 -->
<g id="node46" class="node">
<title>Node46</title>
<g id="a_node46"><a xlink:href="hash_8h.html" target="_top" xlink:title=" ">
<polygon fill="none" stroke="black" points="585.55,-291.5 585.55,-310.5 680.55,-310.5 680.55,-291.5 585.55,-291.5"/>
<text text-anchor="middle" x="633.05" y="-298.5" font-family="Helvetica,sans-Serif" font-size="10.00">../hashes/hash.h</text>
</a>
</g>
</g>
<!-- Node44&#45;&gt;Node46 -->
<g id="edge140" class="edge">
<title>Node44&#45;&gt;Node46</title>
<path fill="none" stroke="midnightblue" d="M566.77,-627.23C556.33,-609.04 534.05,-565.6 534.05,-526 534.05,-526 534.05,-526 534.05,-412 534.05,-368.18 577.99,-333.93 607.32,-315.94"/>
<polygon fill="midnightblue" stroke="midnightblue" points="609.42,-318.77 616.26,-310.68 605.87,-312.74 609.42,-318.77"/>
</g>
<!-- Node47 -->
<g id="node47" class="node">
<title>Node47</title>
<g id="a_node47"><a xlink:href="_raw_data_8h.html" target="_top" xlink:title=" ">
<polygon fill="none" stroke="black" points="344.55,-347.5 344.55,-366.5 467.55,-366.5 467.55,-347.5 344.55,-347.5"/>
<text text-anchor="middle" x="406.05" y="-354.5" font-family="Helvetica,sans-Serif" font-size="10.00">../memory/RawData.h</text>
</a>
</g>
</g>
<!-- Node44&#45;&gt;Node47 -->
<g id="edge147" class="edge">
<title>Node44&#45;&gt;Node47</title>
<path fill="none" stroke="midnightblue" d="M555.72,-627.4C518.79,-607.41 432.05,-557.14 432.05,-526 432.05,-526 432.05,-526 432.05,-468 432.05,-434.93 420.79,-397.73 413.09,-376.17"/>
<polygon fill="midnightblue" stroke="midnightblue" points="416.32,-374.83 409.56,-366.68 409.76,-377.27 416.32,-374.83"/>
</g>
<!-- Node49 -->
<g id="node49" class="node">
<title>Node49</title>
<g id="a_node49"><a xlink:href="_c_file_8h.html" target="_top" xlink:title=" ">
<polygon fill="none" stroke="black" points="661.05,-571.5 661.05,-590.5 711.05,-590.5 711.05,-571.5 661.05,-571.5"/>
<text text-anchor="middle" x="686.05" y="-578.5" font-family="Helvetica,sans-Serif" font-size="10.00">CFile.h</text>
</a>
</g>
</g>
<!-- Node44&#45;&gt;Node49 -->
<g id="edge159" class="edge">
<title>Node44&#45;&gt;Node49</title>
<path fill="none" stroke="midnightblue" d="M590.12,-627.44C608.63,-618.68 637.64,-604.94 658.91,-594.86"/>
<polygon fill="midnightblue" stroke="midnightblue" points="660.54,-597.96 668.08,-590.52 657.54,-591.63 660.54,-597.96"/>
</g>
<!-- Node46&#45;&gt;Node3 -->
<g id="edge141" class="edge">
<title>Node46&#45;&gt;Node3</title>
<path fill="none" stroke="midnightblue" d="M619.85,-291.46C608.21,-283.33 591.52,-270.12 581.05,-255 563.53,-229.68 557.05,-220.8 557.05,-190 557.05,-190 557.05,-190 557.05,-126.5 557.05,-77.15 705.31,-38.99 788.33,-21.49"/>
<polygon fill="midnightblue" stroke="midnightblue" points="789.29,-24.87 798.37,-19.41 787.86,-18.01 789.29,-24.87"/>
</g>
<!-- Node46&#45;&gt;Node4 -->
<g id="edge142" class="edge">
<title>Node46&#45;&gt;Node4</title>
<path fill="none" stroke="midnightblue" d="M630.77,-291.11C627.86,-277.69 624.51,-252.01 636.05,-235 654.65,-207.6 861.05,-97.39 1038.05,-56 1225.71,-12.12 1819.03,-10.03 2019.85,-10.63"/>
<polygon fill="midnightblue" stroke="midnightblue" points="2019.96,-14.13 2029.97,-10.66 2019.98,-7.13 2019.96,-14.13"/>
</g>
<!-- Node46&#45;&gt;Node6 -->
<g id="edge144" class="edge">
<title>Node46&#45;&gt;Node6</title>
<path fill="none" stroke="midnightblue" d="M632.97,-291.44C633.32,-277.51 636.13,-249.98 652.05,-235 675.72,-212.73 768.01,-199.2 817.8,-193.37"/>
<polygon fill="midnightblue" stroke="midnightblue" points="818.19,-196.84 827.73,-192.24 817.4,-189.89 818.19,-196.84"/>
</g>
<!-- Node46&#45;&gt;Node9 -->
<g id="edge146" class="edge">
<title>Node46&#45;&gt;Node9</title>
<path fill="none" stroke="midnightblue" d="M642.21,-291.32C650.56,-283.42 663.09,-271.55 673.23,-261.94"/>
<polygon fill="midnightblue" stroke="midnightblue" points="675.88,-264.25 680.73,-254.83 671.06,-259.17 675.88,-264.25"/>
</g>
<!-- Node46&#45;&gt;Node40 -->
<g id="edge145" class="edge">
<title>Node46&#45;&gt;Node40</title>
<path fill="none" stroke="midnightblue" d="M680.89,-298.87C893.36,-293.85 1772.98,-273.01 2495.05,-255 2603.64,-252.29 2731.16,-248.98 2798.28,-247.23"/>
<polygon fill="midnightblue" stroke="midnightblue" points="2798.62,-250.72 2808.52,-246.96 2798.44,-243.72 2798.62,-250.72"/>
</g>
<!-- Node46&#45;&gt;Node45 -->
<g id="edge143" class="edge">
<title>Node46&#45;&gt;Node45</title>
<path fill="none" stroke="midnightblue" d="M585.46,-294.12C497.6,-283.26 311.73,-260.29 232.77,-250.54"/>
<polygon fill="midnightblue" stroke="midnightblue" points="233.16,-247.06 222.8,-249.31 232.3,-254.01 233.16,-247.06"/>
</g>
<!-- Node47&#45;&gt;Node2 -->
<g id="edge155" class="edge">
<title>Node47&#45;&gt;Node2</title>
<path fill="none" stroke="midnightblue" d="M365.81,-347.44C319.15,-337.52 242.58,-321.24 194.86,-311.1"/>
<polygon fill="midnightblue" stroke="midnightblue" points="195.35,-307.63 184.84,-308.97 193.9,-314.47 195.35,-307.63"/>
</g>
<!-- Node47&#45;&gt;Node3 -->
<g id="edge148" class="edge">
<title>Node47&#45;&gt;Node3</title>
<path fill="none" stroke="midnightblue" d="M344.43,-348.49C318.36,-342.36 289.57,-331.22 270.05,-311 249.15,-289.35 251.05,-276.1 251.05,-246 251.05,-246 251.05,-246 251.05,-126.5 251.05,-84.18 277.12,-74.76 315.05,-56 397,-15.47 669.96,-10.75 787.94,-10.66"/>
<polygon fill="midnightblue" stroke="midnightblue" points="788.19,-14.16 798.19,-10.67 788.2,-7.16 788.19,-14.16"/>
</g>
<!-- Node47&#45;&gt;Node4 -->
<g id="edge149" class="edge">
<title>Node47&#45;&gt;Node4</title>
<path fill="none" stroke="midnightblue" d="M421.51,-347.46C458.3,-327.21 554.16,-274.99 636.05,-235 690.39,-208.47 704.85,-203.68 760.05,-179 883.4,-123.86 906.49,-86.76 1038.05,-56 1225.71,-12.12 1819.03,-10.03 2019.85,-10.63"/>
<polygon fill="midnightblue" stroke="midnightblue" points="2019.96,-14.13 2029.97,-10.66 2019.98,-7.13 2019.96,-14.13"/>
</g>
<!-- Node47&#45;&gt;Node6 -->
<g id="edge152" class="edge">
<title>Node47&#45;&gt;Node6</title>
<path fill="none" stroke="midnightblue" d="M419.44,-347.24C453.9,-325.08 549.04,-266.35 636.05,-235 698.45,-212.52 775.34,-199.77 817.89,-193.93"/>
<polygon fill="midnightblue" stroke="midnightblue" points="818.49,-197.38 827.94,-192.6 817.56,-190.44 818.49,-197.38"/>
</g>
<!-- Node47&#45;&gt;Node12 -->
<g id="edge154" class="edge">
<title>Node47&#45;&gt;Node12</title>
<path fill="none" stroke="midnightblue" d="M467.77,-350.23C666.4,-331.77 1307.06,-273.17 1838.05,-235 2107.61,-215.62 2179.83,-250.89 2445.05,-199 2464.06,-195.28 2592.21,-150.52 2610.05,-143 2638.08,-131.19 2642.81,-123.28 2671.05,-112 2705.86,-98.1 2746.66,-86.19 2777.07,-78.12"/>
<polygon fill="midnightblue" stroke="midnightblue" points="2778.18,-81.45 2786.96,-75.53 2776.4,-74.68 2778.18,-81.45"/>
</g>
<!-- Node47&#45;&gt;Node45 -->
<g id="edge150" class="edge">
<title>Node47&#45;&gt;Node45</title>
<path fill="none" stroke="midnightblue" d="M358.8,-347.43C315.85,-338.93 256.32,-325.17 237.05,-311 220.97,-299.17 209.68,-278.95 203.07,-264.2"/>
<polygon fill="midnightblue" stroke="midnightblue" points="206.16,-262.51 199.09,-254.62 199.7,-265.2 206.16,-262.51"/>
</g>
<!-- Node47&#45;&gt;Node46 -->
<g id="edge153" class="edge">
<title>Node47&#45;&gt;Node46</title>
<path fill="none" stroke="midnightblue" d="M442.02,-347.44C481.37,-338.08 544.54,-323.06 587.37,-312.87"/>
<polygon fill="midnightblue" stroke="midnightblue" points="588.34,-316.24 597.25,-310.52 586.72,-309.43 588.34,-316.24"/>
</g>
<!-- Node48 -->
<g id="node48" class="node">
<title>Node48</title>
<g id="a_node48"><a xlink:title=" ">
<polygon fill="none" stroke="#bfbfbf" points="279.05,-291.5 279.05,-310.5 339.05,-310.5 339.05,-291.5 279.05,-291.5"/>
<text text-anchor="middle" x="309.05" y="-298.5" font-family="Helvetica,sans-Serif" font-size="10.00">iostream</text>
</a>
</g>
</g>
<!-- Node47&#45;&gt;Node48 -->
<g id="edge151" class="edge">
<title>Node47&#45;&gt;Node48</title>
<path fill="none" stroke="midnightblue" d="M390.47,-347.32C375.06,-338.74 351.24,-325.49 333.35,-315.52"/>
<polygon fill="midnightblue" stroke="midnightblue" points="335.04,-312.46 324.6,-310.65 331.64,-318.58 335.04,-312.46"/>
</g>
<!-- Node49&#45;&gt;Node3 -->
<g id="edge160" class="edge">
<title>Node49&#45;&gt;Node3</title>
<path fill="none" stroke="midnightblue" d="M673.63,-571.41C661.63,-562.85 643.24,-548.98 629.05,-535 552.32,-459.39 550.31,-425.05 476.05,-347 459.57,-329.67 453.33,-327.54 436.05,-311 410.86,-286.88 404.2,-281.1 381.05,-255 356.51,-227.32 329.05,-227 329.05,-190 329.05,-190 329.05,-190 329.05,-126.5 329.05,-77.76 368.19,-75.04 413.05,-56 479.37,-27.86 688,-16.62 788.24,-12.76"/>
<polygon fill="midnightblue" stroke="midnightblue" points="788.6,-16.25 798.46,-12.37 788.34,-9.25 788.6,-16.25"/>
</g>
<!-- Node49&#45;&gt;Node4 -->
<g id="edge161" class="edge">
<title>Node49&#45;&gt;Node4</title>
<path fill="none" stroke="midnightblue" d="M687.93,-571.43C699.55,-519.11 762.92,-242.7 819.05,-179 839.98,-155.25 1045.35,-63.69 1076.05,-56 1255.52,-11.05 1823.95,-9.6 2019.89,-10.5"/>
<polygon fill="midnightblue" stroke="midnightblue" points="2020.03,-14 2030.05,-10.55 2020.07,-7 2020.03,-14"/>
</g>
<!-- Node49&#45;&gt;Node8 -->
<g id="edge164" class="edge">
<title>Node49&#45;&gt;Node8</title>
<path fill="none" stroke="midnightblue" d="M711.29,-573.81C747.91,-564.82 816.33,-548.02 861.55,-536.93"/>
<polygon fill="midnightblue" stroke="midnightblue" points="862.5,-540.29 871.38,-534.51 860.83,-533.5 862.5,-540.29"/>
</g>
<!-- Node49&#45;&gt;Node12 -->
<g id="edge163" class="edge">
<title>Node49&#45;&gt;Node12</title>
<path fill="none" stroke="midnightblue" d="M711.28,-576.64C760.49,-569.92 872.67,-553.86 966.05,-535 1002.83,-527.57 1010.85,-519.81 1048.05,-515 1488.46,-458.04 2603.34,-513.7 3046.05,-479 3141.52,-471.52 3472.05,-509.76 3472.05,-414 3472.05,-414 3472.05,-414 3472.05,-300 3472.05,-219.43 3403.54,-224.51 3337.05,-179 3282.76,-141.84 3268.04,-131.02 3205.05,-112 3148.55,-94.93 2988.19,-80.03 2893.84,-72.4"/>
<polygon fill="midnightblue" stroke="midnightblue" points="2894.04,-68.91 2883.8,-71.6 2893.49,-75.89 2894.04,-68.91"/>
</g>
<!-- Node50 -->
<g id="node50" class="node">
<title>Node50</title>
<g id="a_node50"><a xlink:title=" ">
<polygon fill="none" stroke="#bfbfbf" points="638.05,-515.5 638.05,-534.5 684.05,-534.5 684.05,-515.5 638.05,-515.5"/>
<text text-anchor="middle" x="661.05" y="-522.5" font-family="Helvetica,sans-Serif" font-size="10.00">cstdio</text>
</a>
</g>
</g>
<!-- Node49&#45;&gt;Node50 -->
<g id="edge162" class="edge">
<title>Node49&#45;&gt;Node50</title>
<path fill="none" stroke="midnightblue" d="M681.93,-571.08C678.54,-563.77 673.64,-553.18 669.44,-544.1"/>
<polygon fill="midnightblue" stroke="midnightblue" points="672.48,-542.36 665.11,-534.75 666.13,-545.3 672.48,-542.36"/>
</g>
<!-- Node51&#45;&gt;Node3 -->
<g id="edge167" class="edge">
<title>Node51&#45;&gt;Node3</title>
<path fill="none" stroke="midnightblue" d="M1075.4,-571.49C1066.92,-551.73 1045.22,-501.22 1027.05,-459 953.8,-288.75 924.84,-250.39 862.05,-76 856.45,-60.44 851.27,-42.36 847.74,-29.23"/>
<polygon fill="midnightblue" stroke="midnightblue" points="851.12,-28.3 845.19,-19.52 844.35,-30.08 851.12,-28.3"/>
</g>
<!-- Node51&#45;&gt;Node4 -->
<g id="edge166" class="edge">
<title>Node51&#45;&gt;Node4</title>
<path fill="none" stroke="midnightblue" d="M1114.43,-579.38C1416.29,-574.01 3548.05,-533.79 3548.05,-470 3548.05,-470 3548.05,-470 3548.05,-300 3548.05,-244.7 3555.53,-220.57 3519.05,-179 3464.13,-116.4 3423.91,-135.63 3344.05,-112 3229.46,-78.09 3199.59,-71.2 3081.05,-56 2734.62,-11.58 2315.38,-9.26 2154.43,-10.24"/>
<polygon fill="midnightblue" stroke="midnightblue" points="2154.19,-6.74 2144.21,-10.31 2154.23,-13.74 2154.19,-6.74"/>
</g>
<!-- Node51&#45;&gt;Node8 -->
<g id="edge168" class="edge">
<title>Node51&#45;&gt;Node8</title>
<path fill="none" stroke="midnightblue" d="M1051.64,-571.44C1022.29,-562.28 975.54,-547.69 942.96,-537.52"/>
<polygon fill="midnightblue" stroke="midnightblue" points="943.93,-534.16 933.34,-534.52 941.84,-540.84 943.93,-534.16"/>
</g>
</g>
</svg>
