<?xml version="1.0" encoding="UTF-8" standalone="no"?>
<!DOCTYPE svg PUBLIC "-//W3C//DTD SVG 1.1//EN"
 "http://www.w3.org/Graphics/SVG/1.1/DTD/svg11.dtd">
<!-- Generated by graphviz version 2.43.0 (0)
 -->
<!-- Title: fallback_impl.h Pages: 1 -->
<svg width="680pt" height="140pt"
 viewBox="0.00 0.00 680.00 140.00" xmlns="http://www.w3.org/2000/svg" xmlns:xlink="http://www.w3.org/1999/xlink">
<g id="graph0" class="graph" transform="scale(1 1) rotate(0) translate(4 136)">
<title>fallback_impl.h</title>
<!-- Node1 -->
<g id="node1" class="node">
<title>Node1</title>
<g id="a_node1"><a xlink:title=" ">
<polygon fill="#bfbfbf" stroke="black" points="315,-112.5 315,-131.5 407,-131.5 407,-112.5 315,-112.5"/>
<text text-anchor="middle" x="361" y="-119.5" font-family="Helvetica,sans-Serif" font-size="10.00">fallback_impl.h</text>
</a>
</g>
</g>
<!-- Node2 -->
<g id="node2" class="node">
<title>Node2</title>
<g id="a_node2"><a xlink:title=" ">
<polygon fill="none" stroke="#bfbfbf" points="0,-56.5 0,-75.5 64,-75.5 64,-56.5 0,-56.5"/>
<text text-anchor="middle" x="32" y="-63.5" font-family="Helvetica,sans-Serif" font-size="10.00">algorithm</text>
</a>
</g>
</g>
<!-- Node1&#45;&gt;Node2 -->
<g id="edge1" class="edge">
<title>Node1&#45;&gt;Node2</title>
<path fill="none" stroke="midnightblue" d="M314.84,-114.17C258.75,-105.76 161.28,-90.76 78,-76 76.74,-75.78 75.46,-75.55 74.16,-75.31"/>
<polygon fill="midnightblue" stroke="midnightblue" points="74.62,-71.83 64.14,-73.44 73.33,-78.72 74.62,-71.83"/>
</g>
<!-- Node3 -->
<g id="node3" class="node">
<title>Node3</title>
<g id="a_node3"><a xlink:title=" ">
<polygon fill="none" stroke="#bfbfbf" points="238.5,-0.5 238.5,-19.5 327.5,-19.5 327.5,-0.5 238.5,-0.5"/>
<text text-anchor="middle" x="283" y="-7.5" font-family="Helvetica,sans-Serif" font-size="10.00">limes_export.h</text>
</a>
</g>
</g>
<!-- Node1&#45;&gt;Node3 -->
<g id="edge2" class="edge">
<title>Node1&#45;&gt;Node3</title>
<path fill="none" stroke="midnightblue" d="M314.98,-119.52C250.03,-116.35 136.49,-106.49 111,-76 75.8,-33.89 165.46,-19.03 228.14,-13.8"/>
<polygon fill="midnightblue" stroke="midnightblue" points="228.63,-17.28 238.34,-13.02 228.1,-10.3 228.63,-17.28"/>
</g>
<!-- Node4 -->
<g id="node4" class="node">
<title>Node4</title>
<g id="a_node4"><a xlink:title=" ">
<polygon fill="none" stroke="#bfbfbf" points="120,-56.5 120,-75.5 220,-75.5 220,-56.5 120,-56.5"/>
<text text-anchor="middle" x="170" y="-63.5" font-family="Helvetica,sans-Serif" font-size="10.00">limes_platform.h</text>
</a>
</g>
</g>
<!-- Node1&#45;&gt;Node4 -->
<g id="edge3" class="edge">
<title>Node1&#45;&gt;Node4</title>
<path fill="none" stroke="midnightblue" d="M330.74,-112.44C298.04,-103.2 245.82,-88.44 209.82,-78.26"/>
<polygon fill="midnightblue" stroke="midnightblue" points="210.7,-74.87 200.12,-75.52 208.79,-81.61 210.7,-74.87"/>
</g>
<!-- Node5 -->
<g id="node5" class="node">
<title>Node5</title>
<g id="a_node5"><a xlink:title=" ">
<polygon fill="none" stroke="#bfbfbf" points="238.5,-56.5 238.5,-75.5 285.5,-75.5 285.5,-56.5 238.5,-56.5"/>
<text text-anchor="middle" x="262" y="-63.5" font-family="Helvetica,sans-Serif" font-size="10.00">cmath</text>
</a>
</g>
</g>
<!-- Node1&#45;&gt;Node5 -->
<g id="edge4" class="edge">
<title>Node1&#45;&gt;Node5</title>
<path fill="none" stroke="midnightblue" d="M345.09,-112.32C329.36,-103.74 305.06,-90.49 286.79,-80.52"/>
<polygon fill="midnightblue" stroke="midnightblue" points="288.32,-77.37 277.87,-75.65 284.97,-83.52 288.32,-77.37"/>
</g>
<!-- Node6 -->
<g id="node6" class="node">
<title>Node6</title>
<g id="a_node6"><a xlink:title=" ">
<polygon fill="none" stroke="#bfbfbf" points="304,-56.5 304,-75.5 354,-75.5 354,-56.5 304,-56.5"/>
<text text-anchor="middle" x="329" y="-63.5" font-family="Helvetica,sans-Serif" font-size="10.00">cstring</text>
</a>
</g>
</g>
<!-- Node1&#45;&gt;Node6 -->
<g id="edge5" class="edge">
<title>Node1&#45;&gt;Node6</title>
<path fill="none" stroke="midnightblue" d="M355.72,-112.08C351.29,-104.61 344.84,-93.72 339.38,-84.52"/>
<polygon fill="midnightblue" stroke="midnightblue" points="342.29,-82.57 334.19,-75.75 336.27,-86.14 342.29,-82.57"/>
</g>
<!-- Node7 -->
<g id="node7" class="node">
<title>Node7</title>
<g id="a_node7"><a xlink:title=" ">
<polygon fill="none" stroke="#bfbfbf" points="372,-56.5 372,-75.5 416,-75.5 416,-56.5 372,-56.5"/>
<text text-anchor="middle" x="394" y="-63.5" font-family="Helvetica,sans-Serif" font-size="10.00">limits</text>
</a>
</g>
</g>
<!-- Node1&#45;&gt;Node7 -->
<g id="edge6" class="edge">
<title>Node1&#45;&gt;Node7</title>
<path fill="none" stroke="midnightblue" d="M366.45,-112.08C371.01,-104.61 377.67,-93.72 383.29,-84.52"/>
<polygon fill="midnightblue" stroke="midnightblue" points="386.42,-86.11 388.65,-75.75 380.45,-82.46 386.42,-86.11"/>
</g>
<!-- Node8 -->
<g id="node8" class="node">
<title>Node8</title>
<g id="a_node8"><a xlink:title=" ">
<polygon fill="none" stroke="#bfbfbf" points="434,-56.5 434,-75.5 490,-75.5 490,-56.5 434,-56.5"/>
<text text-anchor="middle" x="462" y="-63.5" font-family="Helvetica,sans-Serif" font-size="10.00">numeric</text>
</a>
</g>
</g>
<!-- Node1&#45;&gt;Node8 -->
<g id="edge7" class="edge">
<title>Node1&#45;&gt;Node8</title>
<path fill="none" stroke="midnightblue" d="M377.23,-112.32C393.35,-103.7 418.3,-90.36 436.96,-80.39"/>
<polygon fill="midnightblue" stroke="midnightblue" points="438.64,-83.46 445.81,-75.65 435.34,-77.28 438.64,-83.46"/>
</g>
<!-- Node9 -->
<g id="node9" class="node">
<title>Node9</title>
<g id="a_node9"><a xlink:href="phasor_8h.html" target="_top" xlink:title=" ">
<polygon fill="none" stroke="black" points="508,-56.5 508,-75.5 566,-75.5 566,-56.5 508,-56.5"/>
<text text-anchor="middle" x="537" y="-63.5" font-family="Helvetica,sans-Serif" font-size="10.00">phasor.h</text>
</a>
</g>
</g>
<!-- Node1&#45;&gt;Node9 -->
<g id="edge8" class="edge">
<title>Node1&#45;&gt;Node9</title>
<path fill="none" stroke="midnightblue" d="M388.89,-112.44C418.75,-103.28 466.31,-88.69 499.46,-78.52"/>
<polygon fill="midnightblue" stroke="midnightblue" points="500.71,-81.8 509.24,-75.52 498.66,-75.1 500.71,-81.8"/>
</g>
<!-- Node10 -->
<g id="node10" class="node">
<title>Node10</title>
<g id="a_node10"><a xlink:href="limes__namespace_8h.html" target="_top" xlink:title=" ">
<polygon fill="none" stroke="black" points="508,-0.5 508,-19.5 622,-19.5 622,-0.5 508,-0.5"/>
<text text-anchor="middle" x="565" y="-7.5" font-family="Helvetica,sans-Serif" font-size="10.00">limes_namespace.h</text>
</a>
</g>
</g>
<!-- Node1&#45;&gt;Node10 -->
<g id="edge11" class="edge">
<title>Node1&#45;&gt;Node10</title>
<path fill="none" stroke="midnightblue" d="M407.37,-117.92C463.85,-113.09 554.31,-101.5 575,-76 585.65,-62.87 580.64,-43.19 574.52,-28.92"/>
<polygon fill="midnightblue" stroke="midnightblue" points="577.55,-27.16 570.07,-19.66 571.24,-30.19 577.55,-27.16"/>
</g>
<!-- Node11 -->
<g id="node11" class="node">
<title>Node11</title>
<g id="a_node11"><a xlink:title=" ">
<polygon fill="none" stroke="#bfbfbf" points="622,-56.5 622,-75.5 672,-75.5 672,-56.5 622,-56.5"/>
<text text-anchor="middle" x="647" y="-63.5" font-family="Helvetica,sans-Serif" font-size="10.00">cstdint</text>
</a>
</g>
</g>
<!-- Node1&#45;&gt;Node11 -->
<g id="edge12" class="edge">
<title>Node1&#45;&gt;Node11</title>
<path fill="none" stroke="midnightblue" d="M407.1,-113.26C456.81,-104.76 538.2,-90.4 608,-76 609.26,-75.74 610.55,-75.47 611.85,-75.19"/>
<polygon fill="midnightblue" stroke="midnightblue" points="612.85,-78.55 621.86,-72.98 611.34,-71.72 612.85,-78.55"/>
</g>
<!-- Node9&#45;&gt;Node3 -->
<g id="edge9" class="edge">
<title>Node9&#45;&gt;Node3</title>
<path fill="none" stroke="midnightblue" d="M507.97,-58.04C504.95,-57.34 501.91,-56.65 499,-56 443.33,-43.61 379.34,-30.41 335.55,-21.53"/>
<polygon fill="midnightblue" stroke="midnightblue" points="336.19,-18.09 325.7,-19.54 334.8,-24.95 336.19,-18.09"/>
</g>
<!-- Node9&#45;&gt;Node10 -->
<g id="edge10" class="edge">
<title>Node9&#45;&gt;Node10</title>
<path fill="none" stroke="midnightblue" d="M541.62,-56.08C545.46,-48.69 551.02,-37.95 555.76,-28.81"/>
<polygon fill="midnightblue" stroke="midnightblue" points="558.97,-30.24 560.46,-19.75 552.75,-27.02 558.97,-30.24"/>
</g>
</g>
</svg>
