<?xml version="1.0" encoding="UTF-8" standalone="no"?>
<!DOCTYPE svg PUBLIC "-//W3C//DTD SVG 1.1//EN"
 "http://www.w3.org/Graphics/SVG/1.1/DTD/svg11.dtd">
<!-- Generated by graphviz version 2.43.0 (0)
 -->
<!-- Title: hexagon.h Pages: 1 -->
<svg width="460pt" height="140pt"
 viewBox="0.00 0.00 459.50 140.00" xmlns="http://www.w3.org/2000/svg" xmlns:xlink="http://www.w3.org/1999/xlink">
<g id="graph0" class="graph" transform="scale(1 1) rotate(0) translate(4 136)">
<title>hexagon.h</title>
<!-- Node1 -->
<g id="node1" class="node">
<title>Node1</title>
<g id="a_node1"><a xlink:title=" ">
<polygon fill="#bfbfbf" stroke="black" points="164,-112.5 164,-131.5 232,-131.5 232,-112.5 164,-112.5"/>
<text text-anchor="middle" x="198" y="-119.5" font-family="Helvetica,sans-Serif" font-size="10.00">hexagon.h</text>
</a>
</g>
</g>
<!-- Node2 -->
<g id="node2" class="node">
<title>Node2</title>
<g id="a_node2"><a xlink:href="limes__namespace_8h.html" target="_top" xlink:title=" ">
<polygon fill="none" stroke="black" points="0,-0.5 0,-19.5 114,-19.5 114,-0.5 0,-0.5"/>
<text text-anchor="middle" x="57" y="-7.5" font-family="Helvetica,sans-Serif" font-size="10.00">limes_namespace.h</text>
</a>
</g>
</g>
<!-- Node1&#45;&gt;Node2 -->
<g id="edge1" class="edge">
<title>Node1&#45;&gt;Node2</title>
<path fill="none" stroke="midnightblue" d="M163.73,-117.3C135.74,-112.47 97.14,-101.39 74,-76 62.59,-63.49 58.65,-44.26 57.38,-29.96"/>
<polygon fill="midnightblue" stroke="midnightblue" points="60.87,-29.57 56.85,-19.77 53.88,-29.94 60.87,-29.57"/>
</g>
<!-- Node3 -->
<g id="node3" class="node">
<title>Node3</title>
<g id="a_node3"><a xlink:title=" ">
<polygon fill="none" stroke="#bfbfbf" points="133.5,-0.5 133.5,-19.5 222.5,-19.5 222.5,-0.5 133.5,-0.5"/>
<text text-anchor="middle" x="178" y="-7.5" font-family="Helvetica,sans-Serif" font-size="10.00">limes_export.h</text>
</a>
</g>
</g>
<!-- Node1&#45;&gt;Node3 -->
<g id="edge2" class="edge">
<title>Node1&#45;&gt;Node3</title>
<path fill="none" stroke="midnightblue" d="M196.43,-112.37C193.2,-94.62 185.76,-53.67 181.38,-29.6"/>
<polygon fill="midnightblue" stroke="midnightblue" points="184.79,-28.8 179.56,-19.59 177.91,-30.06 184.79,-28.8"/>
</g>
<!-- Node4 -->
<g id="node4" class="node">
<title>Node4</title>
<g id="a_node4"><a xlink:title=" ">
<polygon fill="none" stroke="#bfbfbf" points="253,-0.5 253,-19.5 353,-19.5 353,-0.5 253,-0.5"/>
<text text-anchor="middle" x="303" y="-7.5" font-family="Helvetica,sans-Serif" font-size="10.00">limes_platform.h</text>
</a>
</g>
</g>
<!-- Node1&#45;&gt;Node4 -->
<g id="edge3" class="edge">
<title>Node1&#45;&gt;Node4</title>
<path fill="none" stroke="midnightblue" d="M201.77,-112.21C207.78,-98.92 220.56,-73.42 237,-56 248.64,-43.66 264.23,-32.84 277.33,-24.91"/>
<polygon fill="midnightblue" stroke="midnightblue" points="279.46,-27.71 286.34,-19.66 275.93,-21.67 279.46,-27.71"/>
</g>
<!-- Node5 -->
<g id="node5" class="node">
<title>Node5</title>
<g id="a_node5"><a xlink:href="2_dshape_8h.html" target="_top" xlink:title=" ">
<polygon fill="none" stroke="black" points="83,-56.5 83,-75.5 151,-75.5 151,-56.5 83,-56.5"/>
<text text-anchor="middle" x="117" y="-63.5" font-family="Helvetica,sans-Serif" font-size="10.00">2Dshape.h</text>
</a>
</g>
</g>
<!-- Node1&#45;&gt;Node5 -->
<g id="edge4" class="edge">
<title>Node1&#45;&gt;Node5</title>
<path fill="none" stroke="midnightblue" d="M184.99,-112.32C172.47,-103.98 153.32,-91.21 138.53,-81.35"/>
<polygon fill="midnightblue" stroke="midnightblue" points="140.24,-78.29 129.98,-75.65 136.36,-84.11 140.24,-78.29"/>
</g>
<!-- Node6 -->
<g id="node6" class="node">
<title>Node6</title>
<g id="a_node6"><a xlink:href="preprocessor_8h.html" target="_top" xlink:title=" ">
<polygon fill="none" stroke="black" points="245.5,-56.5 245.5,-75.5 386.5,-75.5 386.5,-56.5 245.5,-56.5"/>
<text text-anchor="middle" x="316" y="-63.5" font-family="Helvetica,sans-Serif" font-size="10.00">../../../misc/preprocessor.h</text>
</a>
</g>
</g>
<!-- Node1&#45;&gt;Node6 -->
<g id="edge7" class="edge">
<title>Node1&#45;&gt;Node6</title>
<path fill="none" stroke="midnightblue" d="M216.7,-112.44C235.94,-103.64 266.15,-89.81 288.2,-79.72"/>
<polygon fill="midnightblue" stroke="midnightblue" points="289.75,-82.86 297.39,-75.52 286.84,-76.5 289.75,-82.86"/>
</g>
<!-- Node7 -->
<g id="node7" class="node">
<title>Node7</title>
<g id="a_node7"><a xlink:title=" ">
<polygon fill="none" stroke="#bfbfbf" points="404.5,-56.5 404.5,-75.5 451.5,-75.5 451.5,-56.5 404.5,-56.5"/>
<text text-anchor="middle" x="428" y="-63.5" font-family="Helvetica,sans-Serif" font-size="10.00">cmath</text>
</a>
</g>
</g>
<!-- Node1&#45;&gt;Node7 -->
<g id="edge9" class="edge">
<title>Node1&#45;&gt;Node7</title>
<path fill="none" stroke="midnightblue" d="M232.11,-113.8C269.66,-105.75 332.03,-92.03 394.28,-76.35"/>
<polygon fill="midnightblue" stroke="midnightblue" points="395.44,-79.67 404.27,-73.82 393.72,-72.88 395.44,-79.67"/>
</g>
<!-- Node5&#45;&gt;Node2 -->
<g id="edge5" class="edge">
<title>Node5&#45;&gt;Node2</title>
<path fill="none" stroke="midnightblue" d="M107.36,-56.32C98.49,-48.34 85.13,-36.31 74.39,-26.65"/>
<polygon fill="midnightblue" stroke="midnightblue" points="76.59,-23.92 66.82,-19.83 71.91,-29.13 76.59,-23.92"/>
</g>
<!-- Node5&#45;&gt;Node3 -->
<g id="edge6" class="edge">
<title>Node5&#45;&gt;Node3</title>
<path fill="none" stroke="midnightblue" d="M126.8,-56.32C135.82,-48.34 149.41,-36.31 160.32,-26.65"/>
<polygon fill="midnightblue" stroke="midnightblue" points="162.85,-29.08 168.02,-19.83 158.21,-23.84 162.85,-29.08"/>
</g>
<!-- Node6&#45;&gt;Node4 -->
<g id="edge8" class="edge">
<title>Node6&#45;&gt;Node4</title>
<path fill="none" stroke="midnightblue" d="M313.85,-56.08C312.13,-48.93 309.65,-38.64 307.5,-29.69"/>
<polygon fill="midnightblue" stroke="midnightblue" points="310.85,-28.65 305.11,-19.75 304.04,-30.29 310.85,-28.65"/>
</g>
</g>
</svg>
