<?xml version="1.0" encoding="UTF-8" standalone="no"?>
<!DOCTYPE svg PUBLIC "-//W3C//DTD SVG 1.1//EN"
 "http://www.w3.org/Graphics/SVG/1.1/DTD/svg11.dtd">
<!-- Generated by graphviz version 2.43.0 (0)
 -->
<!-- Title: hour.h Pages: 1 -->
<!--zoomable 330 -->
<svg id="main" version="1.1" xmlns="http://www.w3.org/2000/svg" xmlns:xlink="http://www.w3.org/1999/xlink" xml:space="preserve" onload="init(evt)">
<style type="text/css"><![CDATA[
.edge:hover path { stroke: red; }
.edge:hover polygon { stroke: red; fill: red; }
]]></style>
<script type="text/javascript"><![CDATA[
var edges = document.getElementsByTagName('g');
if (edges && edges.length) {
  for (var i=0;i<edges.length;i++) {
    if (edges[i].id.substr(0,4)=='edge') {
      edges[i].setAttribute('class','edge');
    }
  }
}
]]></script>
        <defs>
                <circle id="rim" cx="0" cy="0" r="7"/>
                <circle id="rim2" cx="0" cy="0" r="3.5"/>
                <g id="zoomPlus">
                        <use xlink:href="#rim" fill="#404040">
                                <set attributeName="fill" to="#808080" begin="zoomplus.mouseover" end="zoomplus.mouseout"/>
                        </use>
                        <path d="M-4,0h8M0,-4v8" fill="none" stroke="white" stroke-width="1.5" pointer-events="none"/>
                </g>
                <g id="zoomMin">
                        <use xlink:href="#rim" fill="#404040">
                                <set attributeName="fill" to="#808080" begin="zoomminus.mouseover" end="zoomminus.mouseout"/>
                        </use>
                        <path d="M-4,0h8" fill="none" stroke="white" stroke-width="1.5" pointer-events="none"/>
                </g>
                <g id="dirArrow">
                        <path fill="none" stroke="white" stroke-width="1.5" d="M0,-3.0v7 M-2.5,-0.5L0,-3.0L2.5,-0.5"/>
                </g>
               <g id="resetDef">
                       <use xlink:href="#rim2" fill="#404040">
                               <set attributeName="fill" to="#808080" begin="reset.mouseover" end="reset.mouseout"/>
                       </use>
               </g>
        </defs>

<script type="text/javascript">
var viewWidth = 980;
var viewHeight = 330;
var sectionId = 'dynsection-0';
</script>
<script xlink:href="svgpan.js"/>
<svg id="graph" class="graph">
<g id="viewport">
<title>hour.h</title>
<!-- Node1 -->
<g id="node1" class="node">
<title>Node1</title>
<g id="a_node1"><a xlink:title=" ">
<polygon fill="#bfbfbf" stroke="black" points="400,-302.5 400,-321.5 447,-321.5 447,-302.5 400,-302.5"/>
<text text-anchor="middle" x="423.5" y="-309.5" font-family="Helvetica,sans-Serif" font-size="10.00">hour.h</text>
</a>
</g>
</g>
<!-- Node2 -->
<g id="node2" class="node">
<title>Node2</title>
<g id="a_node2"><a xlink:title=" ">
<polygon fill="none" stroke="#bfbfbf" points="267,-56.5 267,-75.5 356,-75.5 356,-56.5 267,-56.5"/>
<text text-anchor="middle" x="311.5" y="-63.5" font-family="Helvetica,sans-Serif" font-size="10.00">limes_export.h</text>
</a>
</g>
</g>
<!-- Node1&#45;&gt;Node2 -->
<g id="edge1" class="edge">
<title>Node1&#45;&gt;Node2</title>
<path fill="none" stroke="midnightblue" d="M415.93,-302.31C395.86,-278.67 341.25,-210.46 318.5,-143 312.16,-124.21 310.84,-101.41 310.84,-85.72"/>
<polygon fill="midnightblue" stroke="midnightblue" points="314.34,-85.76 311.02,-75.7 307.34,-85.64 314.34,-85.76"/>
</g>
<!-- Node3 -->
<g id="node3" class="node">
<title>Node3</title>
<g id="a_node3"><a xlink:href="limes__namespace_8h.html" target="_top" xlink:title=" ">
<polygon fill="none" stroke="black" points="808.5,-56.5 808.5,-75.5 922.5,-75.5 922.5,-56.5 808.5,-56.5"/>
<text text-anchor="middle" x="865.5" y="-63.5" font-family="Helvetica,sans-Serif" font-size="10.00">limes_namespace.h</text>
</a>
</g>
</g>
<!-- Node1&#45;&gt;Node3 -->
<g id="edge2" class="edge">
<title>Node1&#45;&gt;Node3</title>
<path fill="none" stroke="midnightblue" d="M447.28,-306.6C503.63,-295.61 648.88,-263.87 759.5,-210 805.95,-187.38 827.49,-187.04 854.5,-143 865.04,-125.81 866.97,-102.39 866.78,-86.12"/>
<polygon fill="midnightblue" stroke="midnightblue" points="870.26,-85.57 866.36,-75.72 863.26,-85.85 870.26,-85.57"/>
</g>
<!-- Node4 -->
<g id="node4" class="node">
<title>Node4</title>
<g id="a_node4"><a xlink:href="preprocessor_8h.html" target="_top" xlink:title=" ">
<polygon fill="none" stroke="black" points="112,-56.5 112,-75.5 235,-75.5 235,-56.5 112,-56.5"/>
<text text-anchor="middle" x="173.5" y="-63.5" font-family="Helvetica,sans-Serif" font-size="10.00">../misc/preprocessor.h</text>
</a>
</g>
</g>
<!-- Node1&#45;&gt;Node4 -->
<g id="edge3" class="edge">
<title>Node1&#45;&gt;Node4</title>
<path fill="none" stroke="midnightblue" d="M399.96,-310.08C347.05,-306.6 219.1,-289.89 164.5,-210 138.5,-171.95 154.84,-114.09 165.86,-85.01"/>
<polygon fill="midnightblue" stroke="midnightblue" points="169.12,-86.28 169.59,-75.69 162.63,-83.67 169.12,-86.28"/>
</g>
<!-- Node6 -->
<g id="node6" class="node">
<title>Node6</title>
<g id="a_node6"><a xlink:href="compiler__defs_8h.html" target="_top" xlink:title=" ">
<polygon fill="none" stroke="black" points="0,-112.5 0,-142.5 107,-142.5 107,-112.5 0,-112.5"/>
<text text-anchor="start" x="8" y="-130.5" font-family="Helvetica,sans-Serif" font-size="10.00">../system/compiler</text>
<text text-anchor="middle" x="53.5" y="-119.5" font-family="Helvetica,sans-Serif" font-size="10.00">_defs.h</text>
</a>
</g>
</g>
<!-- Node1&#45;&gt;Node6 -->
<g id="edge5" class="edge">
<title>Node1&#45;&gt;Node6</title>
<path fill="none" stroke="midnightblue" d="M399.87,-310.25C336.75,-307.84 165.95,-298.39 121.5,-266 83.76,-238.5 65.82,-184.17 58.26,-152.67"/>
<polygon fill="midnightblue" stroke="midnightblue" points="61.6,-151.55 56,-142.55 54.77,-153.08 61.6,-151.55"/>
</g>
<!-- Node7 -->
<g id="node7" class="node">
<title>Node7</title>
<g id="a_node7"><a xlink:title=" ">
<polygon fill="none" stroke="#bfbfbf" points="927.5,-246.5 927.5,-265.5 971.5,-265.5 971.5,-246.5 927.5,-246.5"/>
<text text-anchor="middle" x="949.5" y="-253.5" font-family="Helvetica,sans-Serif" font-size="10.00">ctime</text>
</a>
</g>
</g>
<!-- Node1&#45;&gt;Node7 -->
<g id="edge8" class="edge">
<title>Node1&#45;&gt;Node7</title>
<path fill="none" stroke="midnightblue" d="M447.13,-310.12C518.15,-307.18 735.79,-296.19 913.5,-266 914.75,-265.79 916.02,-265.55 917.3,-265.31"/>
<polygon fill="midnightblue" stroke="midnightblue" points="918.12,-268.71 927.14,-263.15 916.63,-261.87 918.12,-268.71"/>
</g>
<!-- Node8 -->
<g id="node8" class="node">
<title>Node8</title>
<g id="a_node8"><a xlink:href="hour__impl_8h.html" target="_top" xlink:title=" ">
<polygon fill="none" stroke="black" points="443,-246.5 443,-265.5 542,-265.5 542,-246.5 443,-246.5"/>
<text text-anchor="middle" x="492.5" y="-253.5" font-family="Helvetica,sans-Serif" font-size="10.00">impl/hour_impl.h</text>
</a>
</g>
</g>
<!-- Node1&#45;&gt;Node8 -->
<g id="edge9" class="edge">
<title>Node1&#45;&gt;Node8</title>
<path fill="none" stroke="midnightblue" d="M434.59,-302.32C444.99,-294.18 460.76,-281.84 473.22,-272.09"/>
<polygon fill="midnightblue" stroke="midnightblue" points="475.49,-274.75 481.21,-265.83 471.18,-269.24 475.49,-274.75"/>
</g>
<!-- Node5 -->
<g id="node5" class="node">
<title>Node5</title>
<g id="a_node5"><a xlink:title=" ">
<polygon fill="none" stroke="#bfbfbf" points="245.5,-0.5 245.5,-19.5 345.5,-19.5 345.5,-0.5 245.5,-0.5"/>
<text text-anchor="middle" x="295.5" y="-7.5" font-family="Helvetica,sans-Serif" font-size="10.00">limes_platform.h</text>
</a>
</g>
</g>
<!-- Node4&#45;&gt;Node5 -->
<g id="edge4" class="edge">
<title>Node4&#45;&gt;Node5</title>
<path fill="none" stroke="midnightblue" d="M192.83,-56.44C212.82,-47.6 244.24,-33.69 267.06,-23.59"/>
<polygon fill="midnightblue" stroke="midnightblue" points="268.53,-26.76 276.26,-19.52 265.7,-20.36 268.53,-26.76"/>
</g>
<!-- Node6&#45;&gt;Node4 -->
<g id="edge7" class="edge">
<title>Node6&#45;&gt;Node4</title>
<path fill="none" stroke="midnightblue" d="M81.94,-112.4C101.62,-102.64 127.64,-89.74 146.91,-80.18"/>
<polygon fill="midnightblue" stroke="midnightblue" points="148.63,-83.24 156.04,-75.66 145.52,-76.96 148.63,-83.24"/>
</g>
<!-- Node6&#45;&gt;Node5 -->
<g id="edge6" class="edge">
<title>Node6&#45;&gt;Node5</title>
<path fill="none" stroke="midnightblue" d="M59.54,-112.22C67.15,-96.03 81.78,-70.06 102.5,-56 141.74,-29.37 194.66,-18.37 235.17,-13.89"/>
<polygon fill="midnightblue" stroke="midnightblue" points="235.58,-17.37 245.18,-12.89 234.88,-10.4 235.58,-17.37"/>
</g>
<!-- Node8&#45;&gt;Node3 -->
<g id="edge10" class="edge">
<title>Node8&#45;&gt;Node3</title>
<path fill="none" stroke="midnightblue" d="M542.25,-250.86C614.15,-242.41 747.55,-217.17 830.5,-143 847.47,-127.83 856.78,-102.76 861.44,-85.59"/>
<polygon fill="midnightblue" stroke="midnightblue" points="864.9,-86.18 863.88,-75.63 858.1,-84.52 864.9,-86.18"/>
</g>
<!-- Node9 -->
<g id="node9" class="node">
<title>Node9</title>
<g id="a_node9"><a xlink:href="limes__assert_8h.html" target="_top" xlink:title=" ">
<polygon fill="none" stroke="black" points="510,-179.5 510,-209.5 611,-209.5 611,-179.5 510,-179.5"/>
<text text-anchor="start" x="518" y="-197.5" font-family="Helvetica,sans-Serif" font-size="10.00">../../system/limes</text>
<text text-anchor="middle" x="560.5" y="-186.5" font-family="Helvetica,sans-Serif" font-size="10.00">_assert.h</text>
</a>
</g>
</g>
<!-- Node8&#45;&gt;Node9 -->
<g id="edge11" class="edge">
<title>Node8&#45;&gt;Node9</title>
<path fill="none" stroke="midnightblue" d="M502.24,-246.48C511.19,-238.64 524.83,-226.71 536.65,-216.37"/>
<polygon fill="midnightblue" stroke="midnightblue" points="539.25,-218.74 544.47,-209.52 534.64,-213.47 539.25,-218.74"/>
</g>
<!-- Node14 -->
<g id="node14" class="node">
<title>Node14</title>
<g id="a_node14"><a xlink:href="build__date_8h.html" target="_top" xlink:title=" ">
<polygon fill="none" stroke="black" points="173.5,-185 173.5,-204 259.5,-204 259.5,-185 173.5,-185"/>
<text text-anchor="middle" x="216.5" y="-192" font-family="Helvetica,sans-Serif" font-size="10.00">../build_date.h</text>
</a>
</g>
</g>
<!-- Node8&#45;&gt;Node14 -->
<g id="edge23" class="edge">
<title>Node8&#45;&gt;Node14</title>
<path fill="none" stroke="midnightblue" d="M452.96,-246.48C403.67,-235.85 319.41,-217.68 265.91,-206.15"/>
<polygon fill="midnightblue" stroke="midnightblue" points="266.48,-202.7 255.97,-204.01 265.01,-209.54 266.48,-202.7"/>
</g>
<!-- Node9&#45;&gt;Node2 -->
<g id="edge12" class="edge">
<title>Node9&#45;&gt;Node2</title>
<path fill="none" stroke="midnightblue" d="M509.78,-186.98C454.09,-178.91 369.26,-163.66 344.5,-143 327.11,-128.48 318.62,-103.06 314.67,-85.65"/>
<polygon fill="midnightblue" stroke="midnightblue" points="318.05,-84.69 312.68,-75.56 311.18,-86.05 318.05,-84.69"/>
</g>
<!-- Node9&#45;&gt;Node3 -->
<g id="edge13" class="edge">
<title>Node9&#45;&gt;Node3</title>
<path fill="none" stroke="midnightblue" d="M611.45,-192.04C662.28,-188.54 741.02,-177.42 799.5,-143 823.9,-128.64 843.85,-102.02 855.21,-84.41"/>
<polygon fill="midnightblue" stroke="midnightblue" points="858.32,-86.03 860.61,-75.68 852.37,-82.34 858.32,-86.03"/>
</g>
<!-- Node9&#45;&gt;Node4 -->
<g id="edge14" class="edge">
<title>Node9&#45;&gt;Node4</title>
<path fill="none" stroke="midnightblue" d="M509.8,-187.09C460.04,-179.85 382.54,-165.96 318.5,-143 272.59,-126.54 223.08,-98 195.42,-80.97"/>
<polygon fill="midnightblue" stroke="midnightblue" points="197.25,-77.99 186.91,-75.67 193.55,-83.93 197.25,-77.99"/>
</g>
<!-- Node9&#45;&gt;Node5 -->
<g id="edge21" class="edge">
<title>Node9&#45;&gt;Node5</title>
<path fill="none" stroke="midnightblue" d="M611.08,-190.82C685.45,-185.01 810.93,-166.96 766.5,-112 715.47,-48.87 470.96,-23.4 355.77,-14.78"/>
<polygon fill="midnightblue" stroke="midnightblue" points="355.94,-11.29 345.71,-14.05 355.43,-18.27 355.94,-11.29"/>
</g>
<!-- Node10 -->
<g id="node10" class="node">
<title>Node10</title>
<g id="a_node10"><a xlink:title=" ">
<polygon fill="none" stroke="#bfbfbf" points="688,-118 688,-137 757,-137 757,-118 688,-118"/>
<text text-anchor="middle" x="722.5" y="-125" font-family="Helvetica,sans-Serif" font-size="10.00">type_traits</text>
</a>
</g>
</g>
<!-- Node9&#45;&gt;Node10 -->
<g id="edge15" class="edge">
<title>Node9&#45;&gt;Node10</title>
<path fill="none" stroke="midnightblue" d="M595.65,-179.4C624.33,-167.89 664.44,-151.8 691.83,-140.81"/>
<polygon fill="midnightblue" stroke="midnightblue" points="693.32,-143.98 701.3,-137.01 690.71,-137.48 693.32,-143.98"/>
</g>
<!-- Node11 -->
<g id="node11" class="node">
<title>Node11</title>
<g id="a_node11"><a xlink:title=" ">
<polygon fill="none" stroke="#bfbfbf" points="538,-118 538,-137 583,-137 583,-118 538,-118"/>
<text text-anchor="middle" x="560.5" y="-125" font-family="Helvetica,sans-Serif" font-size="10.00">utility</text>
</a>
</g>
</g>
<!-- Node9&#45;&gt;Node11 -->
<g id="edge16" class="edge">
<title>Node9&#45;&gt;Node11</title>
<path fill="none" stroke="midnightblue" d="M560.5,-179.4C560.5,-170.06 560.5,-157.71 560.5,-147.52"/>
<polygon fill="midnightblue" stroke="midnightblue" points="564,-147.19 560.5,-137.19 557,-147.19 564,-147.19"/>
</g>
<!-- Node12 -->
<g id="node12" class="node">
<title>Node12</title>
<g id="a_node12"><a xlink:href="_ignore_unused_8h.html" target="_top" xlink:title=" ">
<polygon fill="none" stroke="black" points="353.5,-118 353.5,-137 481.5,-137 481.5,-118 353.5,-118"/>
<text text-anchor="middle" x="417.5" y="-125" font-family="Helvetica,sans-Serif" font-size="10.00">../misc/IgnoreUnused.h</text>
</a>
</g>
</g>
<!-- Node9&#45;&gt;Node12 -->
<g id="edge17" class="edge">
<title>Node9&#45;&gt;Node12</title>
<path fill="none" stroke="midnightblue" d="M529.47,-179.4C504.49,-168.04 469.68,-152.22 445.54,-141.24"/>
<polygon fill="midnightblue" stroke="midnightblue" points="446.77,-137.96 436.22,-137.01 443.87,-144.33 446.77,-137.96"/>
</g>
<!-- Node13 -->
<g id="node13" class="node">
<title>Node13</title>
<g id="a_node13"><a xlink:title=" ">
<polygon fill="none" stroke="#bfbfbf" points="601.5,-118 601.5,-137 669.5,-137 669.5,-118 601.5,-118"/>
<text text-anchor="middle" x="635.5" y="-125" font-family="Helvetica,sans-Serif" font-size="10.00">filesystem</text>
</a>
</g>
</g>
<!-- Node9&#45;&gt;Node13 -->
<g id="edge22" class="edge">
<title>Node9&#45;&gt;Node13</title>
<path fill="none" stroke="midnightblue" d="M576.77,-179.4C588.82,-168.96 605.21,-154.75 617.62,-144"/>
<polygon fill="midnightblue" stroke="midnightblue" points="620.2,-146.39 625.47,-137.19 615.62,-141.1 620.2,-146.39"/>
</g>
<!-- Node12&#45;&gt;Node2 -->
<g id="edge18" class="edge">
<title>Node12&#45;&gt;Node2</title>
<path fill="none" stroke="midnightblue" d="M402.31,-117.98C384.84,-108.17 355.92,-91.93 335.42,-80.42"/>
<polygon fill="midnightblue" stroke="midnightblue" points="337.09,-77.35 326.66,-75.51 333.67,-83.46 337.09,-77.35"/>
</g>
<!-- Node12&#45;&gt;Node3 -->
<g id="edge19" class="edge">
<title>Node12&#45;&gt;Node3</title>
<path fill="none" stroke="midnightblue" d="M460.74,-117.96C472.03,-115.87 484.2,-113.74 495.5,-112 600.87,-95.81 723.86,-81.82 798.15,-73.91"/>
<polygon fill="midnightblue" stroke="midnightblue" points="798.73,-77.37 808.3,-72.83 797.99,-70.4 798.73,-77.37"/>
</g>
<!-- Node12&#45;&gt;Node5 -->
<g id="edge20" class="edge">
<title>Node12&#45;&gt;Node5</title>
<path fill="none" stroke="midnightblue" d="M412.59,-117.91C404.23,-103.8 386.13,-75.35 365.5,-56 352.4,-43.71 335.52,-32.75 321.61,-24.72"/>
<polygon fill="midnightblue" stroke="midnightblue" points="322.98,-21.48 312.55,-19.65 319.57,-27.58 322.98,-21.48"/>
</g>
<!-- Node14&#45;&gt;Node2 -->
<g id="edge24" class="edge">
<title>Node14&#45;&gt;Node2</title>
<path fill="none" stroke="midnightblue" d="M222.24,-184.75C232.24,-169.62 253.71,-137.73 273.5,-112 280.98,-102.27 289.8,-91.78 297.06,-83.37"/>
<polygon fill="midnightblue" stroke="midnightblue" points="299.75,-85.61 303.69,-75.77 294.48,-81.01 299.75,-85.61"/>
</g>
<!-- Node14&#45;&gt;Node3 -->
<g id="edge25" class="edge">
<title>Node14&#45;&gt;Node3</title>
<path fill="none" stroke="midnightblue" d="M259.73,-191.97C315.41,-188.59 414.11,-177.75 490.5,-143 510.65,-133.83 509.13,-120.67 529.5,-112 576.48,-92 714.13,-78.44 797.96,-71.78"/>
<polygon fill="midnightblue" stroke="midnightblue" points="798.46,-75.25 808.16,-70.98 797.92,-68.27 798.46,-75.25"/>
</g>
<!-- Node14&#45;&gt;Node4 -->
<g id="edge26" class="edge">
<title>Node14&#45;&gt;Node4</title>
<path fill="none" stroke="midnightblue" d="M213.13,-184.97C209.22,-174.97 202.64,-157.87 197.5,-143 190.81,-123.64 183.83,-101.25 179.13,-85.81"/>
<polygon fill="midnightblue" stroke="midnightblue" points="182.39,-84.51 176.15,-75.94 175.69,-86.53 182.39,-84.51"/>
</g>
<!-- Node14&#45;&gt;Node6 -->
<g id="edge27" class="edge">
<title>Node14&#45;&gt;Node6</title>
<path fill="none" stroke="midnightblue" d="M194.85,-184.87C170.29,-175.07 129.56,-158.83 98.11,-146.29"/>
<polygon fill="midnightblue" stroke="midnightblue" points="99.26,-142.98 88.68,-142.53 96.67,-149.48 99.26,-142.98"/>
</g>
</g>
</svg>
        <g id="navigator" transform="translate(0 0)" fill="#404254">
                <rect fill="#f2f5e9" fill-opacity="0.5" stroke="#606060" stroke-width=".5" x="0" y="0" width="60" height="60"/>
                <use id="zoomplus" xlink:href="#zoomPlus" x="17" y="9" onmousedown="handleZoom(evt,'in')"/>
                <use id="zoomminus" xlink:href="#zoomMin" x="42" y="9" onmousedown="handleZoom(evt,'out')"/>
                <use id="reset" xlink:href="#resetDef" x="30" y="36" onmousedown="handleReset()"/>
                <g id="arrowUp" xlink:href="#dirArrow" transform="translate(30 24)" onmousedown="handlePan(0,-1)">
                  <use xlink:href="#rim" fill="#404040">
                        <set attributeName="fill" to="#808080" begin="arrowUp.mouseover" end="arrowUp.mouseout"/>
                  </use>
                  <path fill="none" stroke="white" stroke-width="1.5" d="M0,-3.0v7 M-2.5,-0.5L0,-3.0L2.5,-0.5"/>
                </g>
                <g id="arrowRight" xlink:href="#dirArrow" transform="rotate(90) translate(36 -43)" onmousedown="handlePan(1,0)">
                  <use xlink:href="#rim" fill="#404040">
                        <set attributeName="fill" to="#808080" begin="arrowRight.mouseover" end="arrowRight.mouseout"/>
                  </use>
                  <path fill="none" stroke="white" stroke-width="1.5" d="M0,-3.0v7 M-2.5,-0.5L0,-3.0L2.5,-0.5"/>
                </g>
                <g id="arrowDown" xlink:href="#dirArrow" transform="rotate(180) translate(-30 -48)" onmousedown="handlePan(0,1)">
                  <use xlink:href="#rim" fill="#404040">
                        <set attributeName="fill" to="#808080" begin="arrowDown.mouseover" end="arrowDown.mouseout"/>
                  </use>
                  <path fill="none" stroke="white" stroke-width="1.5" d="M0,-3.0v7 M-2.5,-0.5L0,-3.0L2.5,-0.5"/>
                </g>
                <g id="arrowLeft" xlink:href="#dirArrow" transform="rotate(270) translate(-36 17)" onmousedown="handlePan(-1,0)">
                  <use xlink:href="#rim" fill="#404040">
                        <set attributeName="fill" to="#808080" begin="arrowLeft.mouseover" end="arrowLeft.mouseout"/>
                  </use>
                  <path fill="none" stroke="white" stroke-width="1.5" d="M0,-3.0v7 M-2.5,-0.5L0,-3.0L2.5,-0.5"/>
                </g>
        </g>
        <svg viewBox="0 0 15 15" width="100%" height="30px" preserveAspectRatio="xMaxYMin meet">
         <g id="arrow_out" transform="scale(0.3 0.3)">
          <a xlink:href="hour_8h__incl_org.svg" target="_base">
           <rect id="button" ry="5" rx="5" y="6" x="6" height="38" width="38"
                fill="#f2f5e9" fill-opacity="0.5" stroke="#606060" stroke-width="1.0"/>
           <path id="arrow"
             d="M 11.500037,31.436501 C 11.940474,20.09759 22.043105,11.32322 32.158766,21.979434 L 37.068811,17.246167 C 37.068811,17.246167 37.088388,32 37.088388,32 L 22.160133,31.978069 C 22.160133,31.978069 26.997745,27.140456 26.997745,27.140456 C 18.528582,18.264221 13.291696,25.230495 11.500037,31.436501 z"
             style="fill:#404040;"/>
          </a>
         </g>
        </svg>
</svg>
