<?xml version="1.0" encoding="UTF-8" standalone="no"?>
<!DOCTYPE svg PUBLIC "-//W3C//DTD SVG 1.1//EN"
 "http://www.w3.org/Graphics/SVG/1.1/DTD/svg11.dtd">
<!-- Generated by graphviz version 2.43.0 (0)
 -->
<!-- Title: hour.h Pages: 1 -->
<!--zoomable 330 -->
<svg id="main" version="1.1" xmlns="http://www.w3.org/2000/svg" xmlns:xlink="http://www.w3.org/1999/xlink" xml:space="preserve" onload="init(evt)">
<style type="text/css"><![CDATA[
.edge:hover path { stroke: red; }
.edge:hover polygon { stroke: red; fill: red; }
]]></style>
<script type="text/javascript"><![CDATA[
var edges = document.getElementsByTagName('g');
if (edges && edges.length) {
  for (var i=0;i<edges.length;i++) {
    if (edges[i].id.substr(0,4)=='edge') {
      edges[i].setAttribute('class','edge');
    }
  }
}
]]></script>
        <defs>
                <circle id="rim" cx="0" cy="0" r="7"/>
                <circle id="rim2" cx="0" cy="0" r="3.5"/>
                <g id="zoomPlus">
                        <use xlink:href="#rim" fill="#404040">
                                <set attributeName="fill" to="#808080" begin="zoomplus.mouseover" end="zoomplus.mouseout"/>
                        </use>
                        <path d="M-4,0h8M0,-4v8" fill="none" stroke="white" stroke-width="1.5" pointer-events="none"/>
                </g>
                <g id="zoomMin">
                        <use xlink:href="#rim" fill="#404040">
                                <set attributeName="fill" to="#808080" begin="zoomminus.mouseover" end="zoomminus.mouseout"/>
                        </use>
                        <path d="M-4,0h8" fill="none" stroke="white" stroke-width="1.5" pointer-events="none"/>
                </g>
                <g id="dirArrow">
                        <path fill="none" stroke="white" stroke-width="1.5" d="M0,-3.0v7 M-2.5,-0.5L0,-3.0L2.5,-0.5"/>
                </g>
               <g id="resetDef">
                       <use xlink:href="#rim2" fill="#404040">
                               <set attributeName="fill" to="#808080" begin="reset.mouseover" end="reset.mouseout"/>
                       </use>
               </g>
        </defs>

<script type="text/javascript">
var viewWidth = 867;
var viewHeight = 330;
var sectionId = 'dynsection-0';
</script>
<script xlink:href="svgpan.js"/>
<svg id="graph" class="graph">
<g id="viewport">
<title>hour.h</title>
<!-- Node1 -->
<g id="node1" class="node">
<title>Node1</title>
<g id="a_node1"><a xlink:title=" ">
<polygon fill="#bfbfbf" stroke="black" points="676,-302.5 676,-321.5 723,-321.5 723,-302.5 676,-302.5"/>
<text text-anchor="middle" x="699.5" y="-309.5" font-family="Helvetica,sans-Serif" font-size="10.00">hour.h</text>
</a>
</g>
</g>
<!-- Node2 -->
<g id="node2" class="node">
<title>Node2</title>
<g id="a_node2"><a xlink:title=" ">
<polygon fill="none" stroke="#bfbfbf" points="0,-56.5 0,-75.5 89,-75.5 89,-56.5 0,-56.5"/>
<text text-anchor="middle" x="44.5" y="-63.5" font-family="Helvetica,sans-Serif" font-size="10.00">limes_export.h</text>
</a>
</g>
</g>
<!-- Node1&#45;&gt;Node2 -->
<g id="edge1" class="edge">
<title>Node1&#45;&gt;Node2</title>
<path fill="none" stroke="midnightblue" d="M675.83,-305.54C639.57,-297.15 568.09,-280.54 507.5,-266 284.55,-212.51 147.98,-323.42 6.5,-143 -8.21,-124.25 10.78,-98.89 26.8,-82.74"/>
<polygon fill="midnightblue" stroke="midnightblue" points="29.44,-85.06 34.26,-75.62 24.61,-79.99 29.44,-85.06"/>
</g>
<!-- Node3 -->
<g id="node3" class="node">
<title>Node3</title>
<g id="a_node3"><a xlink:href="limes__namespace_8h.html" target="_top" xlink:title=" ">
<polygon fill="none" stroke="black" points="476.5,-56.5 476.5,-75.5 590.5,-75.5 590.5,-56.5 476.5,-56.5"/>
<text text-anchor="middle" x="533.5" y="-63.5" font-family="Helvetica,sans-Serif" font-size="10.00">limes_namespace.h</text>
</a>
</g>
</g>
<!-- Node1&#45;&gt;Node3 -->
<g id="edge2" class="edge">
<title>Node1&#45;&gt;Node3</title>
<path fill="none" stroke="midnightblue" d="M697.72,-302.26C693.08,-280.51 679.33,-222.55 656.5,-179 639.13,-145.85 633.15,-137.22 605.5,-112 591.83,-99.53 574.26,-88.47 559.9,-80.44"/>
<polygon fill="midnightblue" stroke="midnightblue" points="561.45,-77.3 550.99,-75.61 558.12,-83.46 561.45,-77.3"/>
</g>
<!-- Node4 -->
<g id="node4" class="node">
<title>Node4</title>
<g id="a_node4"><a xlink:href="preprocessor_8h.html" target="_top" xlink:title=" ">
<polygon fill="none" stroke="black" points="631,-56.5 631,-75.5 754,-75.5 754,-56.5 631,-56.5"/>
<text text-anchor="middle" x="692.5" y="-63.5" font-family="Helvetica,sans-Serif" font-size="10.00">../misc/preprocessor.h</text>
</a>
</g>
</g>
<!-- Node1&#45;&gt;Node4 -->
<g id="edge3" class="edge">
<title>Node1&#45;&gt;Node4</title>
<path fill="none" stroke="midnightblue" d="M699.25,-302.32C698.24,-267.18 694.45,-135.12 693.04,-85.76"/>
<polygon fill="midnightblue" stroke="midnightblue" points="696.53,-85.48 692.75,-75.58 689.53,-85.68 696.53,-85.48"/>
</g>
<!-- Node6 -->
<g id="node6" class="node">
<title>Node6</title>
<g id="a_node6"><a xlink:href="compiler__defs_8h.html" target="_top" xlink:title=" ">
<polygon fill="none" stroke="black" points="752,-112.5 752,-142.5 859,-142.5 859,-112.5 752,-112.5"/>
<text text-anchor="start" x="760" y="-130.5" font-family="Helvetica,sans-Serif" font-size="10.00">../system/compiler</text>
<text text-anchor="middle" x="805.5" y="-119.5" font-family="Helvetica,sans-Serif" font-size="10.00">_defs.h</text>
</a>
</g>
</g>
<!-- Node1&#45;&gt;Node6 -->
<g id="edge5" class="edge">
<title>Node1&#45;&gt;Node6</title>
<path fill="none" stroke="midnightblue" d="M708.05,-302.21C716.24,-293.49 728.64,-279.51 737.5,-266 762.21,-228.31 783.96,-180.37 795.87,-152.2"/>
<polygon fill="midnightblue" stroke="midnightblue" points="799.19,-153.34 799.8,-142.77 792.73,-150.65 799.19,-153.34"/>
</g>
<!-- Node7 -->
<g id="node7" class="node">
<title>Node7</title>
<g id="a_node7"><a xlink:title=" ">
<polygon fill="none" stroke="#bfbfbf" points="789.5,-246.5 789.5,-265.5 833.5,-265.5 833.5,-246.5 789.5,-246.5"/>
<text text-anchor="middle" x="811.5" y="-253.5" font-family="Helvetica,sans-Serif" font-size="10.00">ctime</text>
</a>
</g>
</g>
<!-- Node1&#45;&gt;Node7 -->
<g id="edge8" class="edge">
<title>Node1&#45;&gt;Node7</title>
<path fill="none" stroke="midnightblue" d="M717.49,-302.32C735.54,-293.62 763.55,-280.12 784.3,-270.11"/>
<polygon fill="midnightblue" stroke="midnightblue" points="786.06,-273.15 793.55,-265.65 783.02,-266.84 786.06,-273.15"/>
</g>
<!-- Node8 -->
<g id="node8" class="node">
<title>Node8</title>
<g id="a_node8"><a xlink:href="hour__impl_8h.html" target="_top" xlink:title=" ">
<polygon fill="none" stroke="black" points="516,-246.5 516,-265.5 615,-265.5 615,-246.5 516,-246.5"/>
<text text-anchor="middle" x="565.5" y="-253.5" font-family="Helvetica,sans-Serif" font-size="10.00">impl/hour_impl.h</text>
</a>
</g>
</g>
<!-- Node1&#45;&gt;Node8 -->
<g id="edge9" class="edge">
<title>Node1&#45;&gt;Node8</title>
<path fill="none" stroke="midnightblue" d="M678.27,-302.44C656.12,-293.52 621.18,-279.44 596.06,-269.32"/>
<polygon fill="midnightblue" stroke="midnightblue" points="597.22,-266.01 586.63,-265.52 594.6,-272.5 597.22,-266.01"/>
</g>
<!-- Node5 -->
<g id="node5" class="node">
<title>Node5</title>
<g id="a_node5"><a xlink:title=" ">
<polygon fill="none" stroke="#bfbfbf" points="642.5,-0.5 642.5,-19.5 742.5,-19.5 742.5,-0.5 642.5,-0.5"/>
<text text-anchor="middle" x="692.5" y="-7.5" font-family="Helvetica,sans-Serif" font-size="10.00">limes_platform.h</text>
</a>
</g>
</g>
<!-- Node4&#45;&gt;Node5 -->
<g id="edge4" class="edge">
<title>Node4&#45;&gt;Node5</title>
<path fill="none" stroke="midnightblue" d="M692.5,-56.08C692.5,-49.01 692.5,-38.86 692.5,-29.99"/>
<polygon fill="midnightblue" stroke="midnightblue" points="696,-29.75 692.5,-19.75 689,-29.75 696,-29.75"/>
</g>
<!-- Node6&#45;&gt;Node4 -->
<g id="edge7" class="edge">
<title>Node6&#45;&gt;Node4</title>
<path fill="none" stroke="midnightblue" d="M778.72,-112.4C760.44,-102.77 736.35,-90.09 718.29,-80.58"/>
<polygon fill="midnightblue" stroke="midnightblue" points="719.42,-77.22 708.94,-75.66 716.16,-83.41 719.42,-77.22"/>
</g>
<!-- Node6&#45;&gt;Node5 -->
<g id="edge6" class="edge">
<title>Node6&#45;&gt;Node5</title>
<path fill="none" stroke="midnightblue" d="M799.57,-112.5C792.6,-97.27 779.89,-72.85 763.5,-56 750.9,-43.04 733.87,-32.09 719.65,-24.23"/>
<polygon fill="midnightblue" stroke="midnightblue" points="721.25,-21.13 710.78,-19.53 717.97,-27.31 721.25,-21.13"/>
</g>
<!-- Node8&#45;&gt;Node3 -->
<g id="edge10" class="edge">
<title>Node8&#45;&gt;Node3</title>
<path fill="none" stroke="midnightblue" d="M562.62,-246.47C559.69,-237.49 555.2,-222.89 552.5,-210 543.28,-166.03 537.65,-113.47 535.11,-85.95"/>
<polygon fill="midnightblue" stroke="midnightblue" points="538.58,-85.43 534.21,-75.78 531.61,-86.05 538.58,-85.43"/>
</g>
<!-- Node9 -->
<g id="node9" class="node">
<title>Node9</title>
<g id="a_node9"><a xlink:href="limes__assert_8h.html" target="_top" xlink:title=" ">
<polygon fill="none" stroke="black" points="307,-179.5 307,-209.5 408,-209.5 408,-179.5 307,-179.5"/>
<text text-anchor="start" x="315" y="-197.5" font-family="Helvetica,sans-Serif" font-size="10.00">../../system/limes</text>
<text text-anchor="middle" x="357.5" y="-186.5" font-family="Helvetica,sans-Serif" font-size="10.00">_assert.h</text>
</a>
</g>
</g>
<!-- Node8&#45;&gt;Node9 -->
<g id="edge11" class="edge">
<title>Node8&#45;&gt;Node9</title>
<path fill="none" stroke="midnightblue" d="M535.7,-246.48C504.63,-237.59 455.13,-223.43 416.18,-212.29"/>
<polygon fill="midnightblue" stroke="midnightblue" points="417.1,-208.91 406.52,-209.52 415.17,-215.64 417.1,-208.91"/>
</g>
<!-- Node14 -->
<g id="node14" class="node">
<title>Node14</title>
<g id="a_node14"><a xlink:href="build__date_8h.html" target="_top" xlink:title=" ">
<polygon fill="none" stroke="black" points="561.5,-185 561.5,-204 647.5,-204 647.5,-185 561.5,-185"/>
<text text-anchor="middle" x="604.5" y="-192" font-family="Helvetica,sans-Serif" font-size="10.00">../build_date.h</text>
</a>
</g>
</g>
<!-- Node8&#45;&gt;Node14 -->
<g id="edge22" class="edge">
<title>Node8&#45;&gt;Node14</title>
<path fill="none" stroke="midnightblue" d="M571.09,-246.48C576.88,-237.64 586.09,-223.59 593.37,-212.48"/>
<polygon fill="midnightblue" stroke="midnightblue" points="596.37,-214.29 598.92,-204.01 590.51,-210.45 596.37,-214.29"/>
</g>
<!-- Node9&#45;&gt;Node2 -->
<g id="edge12" class="edge">
<title>Node9&#45;&gt;Node2</title>
<path fill="none" stroke="midnightblue" d="M306.71,-193.7C221.21,-192.84 54.23,-185.59 17.5,-143 2.7,-125.84 17.4,-100.02 30.21,-83.33"/>
<polygon fill="midnightblue" stroke="midnightblue" points="32.96,-85.49 36.58,-75.53 27.54,-81.07 32.96,-85.49"/>
</g>
<!-- Node9&#45;&gt;Node3 -->
<g id="edge13" class="edge">
<title>Node9&#45;&gt;Node3</title>
<path fill="none" stroke="midnightblue" d="M379.37,-179.49C394.69,-169.55 415.56,-155.76 433.5,-143 462.29,-122.52 494.7,-97.52 514.61,-81.93"/>
<polygon fill="midnightblue" stroke="midnightblue" points="516.87,-84.6 522.57,-75.67 512.55,-79.09 516.87,-84.6"/>
</g>
<!-- Node9&#45;&gt;Node4 -->
<g id="edge14" class="edge">
<title>Node9&#45;&gt;Node4</title>
<path fill="none" stroke="midnightblue" d="M394.63,-179.48C460.63,-154.56 597.31,-102.95 659.9,-79.31"/>
<polygon fill="midnightblue" stroke="midnightblue" points="661.53,-82.44 669.65,-75.63 659.05,-75.89 661.53,-82.44"/>
</g>
<!-- Node9&#45;&gt;Node5 -->
<g id="edge20" class="edge">
<title>Node9&#45;&gt;Node5</title>
<path fill="none" stroke="midnightblue" d="M370.11,-179.07C378.78,-169.06 390.5,-155.35 400.5,-143 431.22,-105.08 426.05,-81.76 467.5,-56 517.31,-25.05 584.23,-14.82 632.11,-11.71"/>
<polygon fill="midnightblue" stroke="midnightblue" points="632.54,-15.19 642.33,-11.13 632.15,-8.2 632.54,-15.19"/>
</g>
<!-- Node10 -->
<g id="node10" class="node">
<title>Node10</title>
<g id="a_node10"><a xlink:title=" ">
<polygon fill="none" stroke="#bfbfbf" points="173,-118 173,-137 242,-137 242,-118 173,-118"/>
<text text-anchor="middle" x="207.5" y="-125" font-family="Helvetica,sans-Serif" font-size="10.00">type_traits</text>
</a>
</g>
</g>
<!-- Node9&#45;&gt;Node10 -->
<g id="edge15" class="edge">
<title>Node9&#45;&gt;Node10</title>
<path fill="none" stroke="midnightblue" d="M324.95,-179.4C298.63,-167.99 261.91,-152.08 236.57,-141.1"/>
<polygon fill="midnightblue" stroke="midnightblue" points="237.7,-137.77 227.13,-137.01 234.92,-144.19 237.7,-137.77"/>
</g>
<!-- Node11 -->
<g id="node11" class="node">
<title>Node11</title>
<g id="a_node11"><a xlink:title=" ">
<polygon fill="none" stroke="#bfbfbf" points="260,-118 260,-137 305,-137 305,-118 260,-118"/>
<text text-anchor="middle" x="282.5" y="-125" font-family="Helvetica,sans-Serif" font-size="10.00">utility</text>
</a>
</g>
</g>
<!-- Node9&#45;&gt;Node11 -->
<g id="edge16" class="edge">
<title>Node9&#45;&gt;Node11</title>
<path fill="none" stroke="midnightblue" d="M341.23,-179.4C329.18,-168.96 312.79,-154.75 300.38,-144"/>
<polygon fill="midnightblue" stroke="midnightblue" points="302.38,-141.1 292.53,-137.19 297.8,-146.39 302.38,-141.1"/>
</g>
<!-- Node12 -->
<g id="node12" class="node">
<title>Node12</title>
<g id="a_node12"><a xlink:href="_ignore_unused_8h.html" target="_top" xlink:title=" ">
<polygon fill="none" stroke="black" points="26.5,-118 26.5,-137 154.5,-137 154.5,-118 26.5,-118"/>
<text text-anchor="middle" x="90.5" y="-125" font-family="Helvetica,sans-Serif" font-size="10.00">../misc/IgnoreUnused.h</text>
</a>
</g>
</g>
<!-- Node9&#45;&gt;Node12 -->
<g id="edge17" class="edge">
<title>Node9&#45;&gt;Node12</title>
<path fill="none" stroke="midnightblue" d="M306.97,-181.2C257.53,-169.16 182.94,-151 135.49,-139.45"/>
<polygon fill="midnightblue" stroke="midnightblue" points="136.05,-135.99 125.51,-137.02 134.4,-142.79 136.05,-135.99"/>
</g>
<!-- Node13 -->
<g id="node13" class="node">
<title>Node13</title>
<g id="a_node13"><a xlink:title=" ">
<polygon fill="none" stroke="#bfbfbf" points="323.5,-118 323.5,-137 391.5,-137 391.5,-118 323.5,-118"/>
<text text-anchor="middle" x="357.5" y="-125" font-family="Helvetica,sans-Serif" font-size="10.00">filesystem</text>
</a>
</g>
</g>
<!-- Node9&#45;&gt;Node13 -->
<g id="edge21" class="edge">
<title>Node9&#45;&gt;Node13</title>
<path fill="none" stroke="midnightblue" d="M357.5,-179.4C357.5,-170.06 357.5,-157.71 357.5,-147.52"/>
<polygon fill="midnightblue" stroke="midnightblue" points="361,-147.19 357.5,-137.19 354,-147.19 361,-147.19"/>
</g>
<!-- Node12&#45;&gt;Node2 -->
<g id="edge18" class="edge">
<title>Node12&#45;&gt;Node2</title>
<path fill="none" stroke="midnightblue" d="M83.91,-117.98C77.01,-109.05 66,-94.81 57.37,-83.64"/>
<polygon fill="midnightblue" stroke="midnightblue" points="59.96,-81.28 51.08,-75.51 54.43,-85.56 59.96,-81.28"/>
</g>
<!-- Node12&#45;&gt;Node3 -->
<g id="edge19" class="edge">
<title>Node12&#45;&gt;Node3</title>
<path fill="none" stroke="midnightblue" d="M131.12,-117.99C141.94,-115.88 153.64,-113.72 164.5,-112 269.51,-95.33 392.19,-81.48 466.3,-73.72"/>
<polygon fill="midnightblue" stroke="midnightblue" points="466.85,-77.18 476.43,-72.67 466.12,-70.22 466.85,-77.18"/>
</g>
<!-- Node14&#45;&gt;Node2 -->
<g id="edge23" class="edge">
<title>Node14&#45;&gt;Node2</title>
<path fill="none" stroke="midnightblue" d="M587.54,-184.99C553.18,-168.16 472.5,-130.61 400.5,-112 295.87,-84.96 169.58,-73.9 99.02,-69.58"/>
<polygon fill="midnightblue" stroke="midnightblue" points="99.21,-66.09 89.02,-68.99 98.8,-73.08 99.21,-66.09"/>
</g>
<!-- Node14&#45;&gt;Node3 -->
<g id="edge24" class="edge">
<title>Node14&#45;&gt;Node3</title>
<path fill="none" stroke="midnightblue" d="M604.22,-185C603.36,-169.43 599.84,-135.75 585.5,-112 578.17,-99.86 566.45,-89.3 555.99,-81.47"/>
<polygon fill="midnightblue" stroke="midnightblue" points="557.81,-78.47 547.63,-75.55 553.77,-84.19 557.81,-78.47"/>
</g>
<!-- Node14&#45;&gt;Node4 -->
<g id="edge25" class="edge">
<title>Node14&#45;&gt;Node4</title>
<path fill="none" stroke="midnightblue" d="M610.55,-184.81C624.93,-164.13 661.38,-111.73 680.45,-84.32"/>
<polygon fill="midnightblue" stroke="midnightblue" points="683.57,-85.96 686.41,-75.76 677.83,-81.97 683.57,-85.96"/>
</g>
<!-- Node14&#45;&gt;Node6 -->
<g id="edge26" class="edge">
<title>Node14&#45;&gt;Node6</title>
<path fill="none" stroke="midnightblue" d="M631.19,-184.87C662,-174.9 713.45,-158.27 752.48,-145.64"/>
<polygon fill="midnightblue" stroke="midnightblue" points="753.68,-148.94 762.12,-142.53 751.53,-142.27 753.68,-148.94"/>
</g>
</g>
</svg>
        <g id="navigator" transform="translate(0 0)" fill="#404254">
                <rect fill="#f2f5e9" fill-opacity="0.5" stroke="#606060" stroke-width=".5" x="0" y="0" width="60" height="60"/>
                <use id="zoomplus" xlink:href="#zoomPlus" x="17" y="9" onmousedown="handleZoom(evt,'in')"/>
                <use id="zoomminus" xlink:href="#zoomMin" x="42" y="9" onmousedown="handleZoom(evt,'out')"/>
                <use id="reset" xlink:href="#resetDef" x="30" y="36" onmousedown="handleReset()"/>
                <g id="arrowUp" xlink:href="#dirArrow" transform="translate(30 24)" onmousedown="handlePan(0,-1)">
                  <use xlink:href="#rim" fill="#404040">
                        <set attributeName="fill" to="#808080" begin="arrowUp.mouseover" end="arrowUp.mouseout"/>
                  </use>
                  <path fill="none" stroke="white" stroke-width="1.5" d="M0,-3.0v7 M-2.5,-0.5L0,-3.0L2.5,-0.5"/>
                </g>
                <g id="arrowRight" xlink:href="#dirArrow" transform="rotate(90) translate(36 -43)" onmousedown="handlePan(1,0)">
                  <use xlink:href="#rim" fill="#404040">
                        <set attributeName="fill" to="#808080" begin="arrowRight.mouseover" end="arrowRight.mouseout"/>
                  </use>
                  <path fill="none" stroke="white" stroke-width="1.5" d="M0,-3.0v7 M-2.5,-0.5L0,-3.0L2.5,-0.5"/>
                </g>
                <g id="arrowDown" xlink:href="#dirArrow" transform="rotate(180) translate(-30 -48)" onmousedown="handlePan(0,1)">
                  <use xlink:href="#rim" fill="#404040">
                        <set attributeName="fill" to="#808080" begin="arrowDown.mouseover" end="arrowDown.mouseout"/>
                  </use>
                  <path fill="none" stroke="white" stroke-width="1.5" d="M0,-3.0v7 M-2.5,-0.5L0,-3.0L2.5,-0.5"/>
                </g>
                <g id="arrowLeft" xlink:href="#dirArrow" transform="rotate(270) translate(-36 17)" onmousedown="handlePan(-1,0)">
                  <use xlink:href="#rim" fill="#404040">
                        <set attributeName="fill" to="#808080" begin="arrowLeft.mouseover" end="arrowLeft.mouseout"/>
                  </use>
                  <path fill="none" stroke="white" stroke-width="1.5" d="M0,-3.0v7 M-2.5,-0.5L0,-3.0L2.5,-0.5"/>
                </g>
        </g>
        <svg viewBox="0 0 15 15" width="100%" height="30px" preserveAspectRatio="xMaxYMin meet">
         <g id="arrow_out" transform="scale(0.3 0.3)">
          <a xlink:href="hour_8h__incl_org.svg" target="_base">
           <rect id="button" ry="5" rx="5" y="6" x="6" height="38" width="38"
                fill="#f2f5e9" fill-opacity="0.5" stroke="#606060" stroke-width="1.0"/>
           <path id="arrow"
             d="M 11.500037,31.436501 C 11.940474,20.09759 22.043105,11.32322 32.158766,21.979434 L 37.068811,17.246167 C 37.068811,17.246167 37.088388,32 37.088388,32 L 22.160133,31.978069 C 22.160133,31.978069 26.997745,27.140456 26.997745,27.140456 C 18.528582,18.264221 13.291696,25.230495 11.500037,31.436501 z"
             style="fill:#404040;"/>
          </a>
         </g>
        </svg>
</svg>
