<?xml version="1.0" encoding="UTF-8" standalone="no"?>
<!DOCTYPE svg PUBLIC "-//W3C//DTD SVG 1.1//EN"
 "http://www.w3.org/Graphics/SVG/1.1/DTD/svg11.dtd">
<!-- Generated by graphviz version 2.43.0 (0)
 -->
<!-- Title: hour_impl.h Pages: 1 -->
<svg width="860pt" height="207pt"
 viewBox="0.00 0.00 860.00 207.00" xmlns="http://www.w3.org/2000/svg" xmlns:xlink="http://www.w3.org/1999/xlink">
<g id="graph0" class="graph" transform="scale(1 1) rotate(0) translate(4 203)">
<title>hour_impl.h</title>
<!-- Node1 -->
<g id="node1" class="node">
<title>Node1</title>
<g id="a_node1"><a xlink:title=" ">
<polygon fill="#bfbfbf" stroke="black" points="223,-179.5 223,-198.5 297,-198.5 297,-179.5 223,-179.5"/>
<text text-anchor="middle" x="260" y="-186.5" font-family="Helvetica,sans-Serif" font-size="10.00">hour_impl.h</text>
</a>
</g>
</g>
<!-- Node2 -->
<g id="node2" class="node">
<title>Node2</title>
<g id="a_node2"><a xlink:href="limes__namespace_8h.html" target="_top" xlink:title=" ">
<polygon fill="none" stroke="black" points="0,-0.5 0,-19.5 114,-19.5 114,-0.5 0,-0.5"/>
<text text-anchor="middle" x="57" y="-7.5" font-family="Helvetica,sans-Serif" font-size="10.00">limes_namespace.h</text>
</a>
</g>
</g>
<!-- Node1&#45;&gt;Node2 -->
<g id="edge1" class="edge">
<title>Node1&#45;&gt;Node2</title>
<path fill="none" stroke="midnightblue" d="M222.68,-180.4C173.13,-168.08 87.52,-138.54 50,-76 41.53,-61.88 44.9,-42.9 49.42,-29.1"/>
<polygon fill="midnightblue" stroke="midnightblue" points="52.7,-30.31 52.92,-19.71 46.15,-27.86 52.7,-30.31"/>
</g>
<!-- Node3 -->
<g id="node3" class="node">
<title>Node3</title>
<g id="a_node3"><a xlink:href="limes__assert_8h.html" target="_top" xlink:title=" ">
<polygon fill="none" stroke="black" points="382.5,-112.5 382.5,-142.5 483.5,-142.5 483.5,-112.5 382.5,-112.5"/>
<text text-anchor="start" x="390.5" y="-130.5" font-family="Helvetica,sans-Serif" font-size="10.00">../../system/limes</text>
<text text-anchor="middle" x="433" y="-119.5" font-family="Helvetica,sans-Serif" font-size="10.00">_assert.h</text>
</a>
</g>
</g>
<!-- Node1&#45;&gt;Node3 -->
<g id="edge2" class="edge">
<title>Node1&#45;&gt;Node3</title>
<path fill="none" stroke="midnightblue" d="M284.79,-179.48C310.19,-170.74 350.4,-156.91 382.54,-145.86"/>
<polygon fill="midnightblue" stroke="midnightblue" points="383.91,-149.09 392.23,-142.52 381.63,-142.47 383.91,-149.09"/>
</g>
<!-- Node12 -->
<g id="node12" class="node">
<title>Node12</title>
<g id="a_node12"><a xlink:href="build__date_8h.html" target="_top" xlink:title=" ">
<polygon fill="none" stroke="black" points="217,-118 217,-137 303,-137 303,-118 217,-118"/>
<text text-anchor="middle" x="260" y="-125" font-family="Helvetica,sans-Serif" font-size="10.00">../build_date.h</text>
</a>
</g>
</g>
<!-- Node1&#45;&gt;Node12 -->
<g id="edge15" class="edge">
<title>Node1&#45;&gt;Node12</title>
<path fill="none" stroke="midnightblue" d="M260,-179.48C260,-171.08 260,-157.98 260,-147.16"/>
<polygon fill="midnightblue" stroke="midnightblue" points="263.5,-147.01 260,-137.01 256.5,-147.01 263.5,-147.01"/>
</g>
<!-- Node3&#45;&gt;Node2 -->
<g id="edge4" class="edge">
<title>Node3&#45;&gt;Node2</title>
<path fill="none" stroke="midnightblue" d="M382.4,-120.11C291.02,-108.4 106.79,-83.98 95,-76 78.8,-65.03 68.55,-44.67 62.84,-29.65"/>
<polygon fill="midnightblue" stroke="midnightblue" points="66.03,-28.17 59.45,-19.87 59.41,-30.46 66.03,-28.17"/>
</g>
<!-- Node4 -->
<g id="node4" class="node">
<title>Node4</title>
<g id="a_node4"><a xlink:title=" ">
<polygon fill="none" stroke="#bfbfbf" points="215.5,-0.5 215.5,-19.5 304.5,-19.5 304.5,-0.5 215.5,-0.5"/>
<text text-anchor="middle" x="260" y="-7.5" font-family="Helvetica,sans-Serif" font-size="10.00">limes_export.h</text>
</a>
</g>
</g>
<!-- Node3&#45;&gt;Node4 -->
<g id="edge3" class="edge">
<title>Node3&#45;&gt;Node4</title>
<path fill="none" stroke="midnightblue" d="M388.71,-112.47C366,-104.01 338.64,-91.8 317,-76 298.7,-62.64 282.17,-42.44 271.68,-28.11"/>
<polygon fill="midnightblue" stroke="midnightblue" points="274.33,-25.8 265.7,-19.67 268.62,-29.85 274.33,-25.8"/>
</g>
<!-- Node5 -->
<g id="node5" class="node">
<title>Node5</title>
<g id="a_node5"><a xlink:href="preprocessor_8h.html" target="_top" xlink:title=" ">
<polygon fill="none" stroke="black" points="326.5,-56.5 326.5,-75.5 449.5,-75.5 449.5,-56.5 326.5,-56.5"/>
<text text-anchor="middle" x="388" y="-63.5" font-family="Helvetica,sans-Serif" font-size="10.00">../misc/preprocessor.h</text>
</a>
</g>
</g>
<!-- Node3&#45;&gt;Node5 -->
<g id="edge5" class="edge">
<title>Node3&#45;&gt;Node5</title>
<path fill="none" stroke="midnightblue" d="M422.34,-112.4C415.86,-103.84 407.57,-92.87 400.75,-83.86"/>
<polygon fill="midnightblue" stroke="midnightblue" points="403.37,-81.52 394.55,-75.66 397.79,-85.74 403.37,-81.52"/>
</g>
<!-- Node6 -->
<g id="node6" class="node">
<title>Node6</title>
<g id="a_node6"><a xlink:title=" ">
<polygon fill="none" stroke="#bfbfbf" points="383,-0.5 383,-19.5 483,-19.5 483,-0.5 383,-0.5"/>
<text text-anchor="middle" x="433" y="-7.5" font-family="Helvetica,sans-Serif" font-size="10.00">limes_platform.h</text>
</a>
</g>
</g>
<!-- Node3&#45;&gt;Node6 -->
<g id="edge13" class="edge">
<title>Node3&#45;&gt;Node6</title>
<path fill="none" stroke="midnightblue" d="M443.68,-112.43C453.04,-98.38 464.37,-76.03 459,-56 456.35,-46.1 450.93,-36.13 445.73,-28.1"/>
<polygon fill="midnightblue" stroke="midnightblue" points="448.46,-25.91 439.89,-19.68 442.71,-29.89 448.46,-25.91"/>
</g>
<!-- Node7 -->
<g id="node7" class="node">
<title>Node7</title>
<g id="a_node7"><a xlink:title=" ">
<polygon fill="none" stroke="#bfbfbf" points="506.5,-56.5 506.5,-75.5 575.5,-75.5 575.5,-56.5 506.5,-56.5"/>
<text text-anchor="middle" x="541" y="-63.5" font-family="Helvetica,sans-Serif" font-size="10.00">type_traits</text>
</a>
</g>
</g>
<!-- Node3&#45;&gt;Node7 -->
<g id="edge7" class="edge">
<title>Node3&#45;&gt;Node7</title>
<path fill="none" stroke="midnightblue" d="M458.59,-112.4C476.07,-102.77 499.09,-90.09 516.36,-80.58"/>
<polygon fill="midnightblue" stroke="midnightblue" points="518.22,-83.55 525.29,-75.66 514.84,-77.42 518.22,-83.55"/>
</g>
<!-- Node8 -->
<g id="node8" class="node">
<title>Node8</title>
<g id="a_node8"><a xlink:title=" ">
<polygon fill="none" stroke="#bfbfbf" points="593.5,-56.5 593.5,-75.5 638.5,-75.5 638.5,-56.5 593.5,-56.5"/>
<text text-anchor="middle" x="616" y="-63.5" font-family="Helvetica,sans-Serif" font-size="10.00">utility</text>
</a>
</g>
</g>
<!-- Node3&#45;&gt;Node8 -->
<g id="edge8" class="edge">
<title>Node3&#45;&gt;Node8</title>
<path fill="none" stroke="midnightblue" d="M476.37,-112.4C509.32,-101.69 553.91,-87.19 583.75,-77.48"/>
<polygon fill="midnightblue" stroke="midnightblue" points="584.84,-80.81 593.27,-74.39 582.68,-74.15 584.84,-80.81"/>
</g>
<!-- Node9 -->
<g id="node9" class="node">
<title>Node9</title>
<g id="a_node9"><a xlink:title=" ">
<polygon fill="none" stroke="#bfbfbf" points="656.5,-56.5 656.5,-75.5 765.5,-75.5 765.5,-56.5 656.5,-56.5"/>
<text text-anchor="middle" x="711" y="-63.5" font-family="Helvetica,sans-Serif" font-size="10.00">limes_build_type.h</text>
</a>
</g>
</g>
<!-- Node3&#45;&gt;Node9 -->
<g id="edge9" class="edge">
<title>Node3&#45;&gt;Node9</title>
<path fill="none" stroke="midnightblue" d="M483.67,-115.66C534.07,-104.87 610.93,-88.42 661.07,-77.69"/>
<polygon fill="midnightblue" stroke="midnightblue" points="661.99,-81.07 671.04,-75.55 660.52,-74.22 661.99,-81.07"/>
</g>
<!-- Node10 -->
<g id="node10" class="node">
<title>Node10</title>
<g id="a_node10"><a xlink:href="_ignore_unused_8h.html" target="_top" xlink:title=" ">
<polygon fill="none" stroke="black" points="104,-56.5 104,-75.5 232,-75.5 232,-56.5 104,-56.5"/>
<text text-anchor="middle" x="168" y="-63.5" font-family="Helvetica,sans-Serif" font-size="10.00">../misc/IgnoreUnused.h</text>
</a>
</g>
</g>
<!-- Node3&#45;&gt;Node10 -->
<g id="edge10" class="edge">
<title>Node3&#45;&gt;Node10</title>
<path fill="none" stroke="midnightblue" d="M382.22,-115.1C334.33,-104.35 263.09,-88.35 216.1,-77.8"/>
<polygon fill="midnightblue" stroke="midnightblue" points="216.69,-74.35 206.17,-75.57 215.16,-81.18 216.69,-74.35"/>
</g>
<!-- Node11 -->
<g id="node11" class="node">
<title>Node11</title>
<g id="a_node11"><a xlink:title=" ">
<polygon fill="none" stroke="#bfbfbf" points="784,-56.5 784,-75.5 852,-75.5 852,-56.5 784,-56.5"/>
<text text-anchor="middle" x="818" y="-63.5" font-family="Helvetica,sans-Serif" font-size="10.00">filesystem</text>
</a>
</g>
</g>
<!-- Node3&#45;&gt;Node11 -->
<g id="edge14" class="edge">
<title>Node3&#45;&gt;Node11</title>
<path fill="none" stroke="midnightblue" d="M483.57,-119.99C548.49,-111.43 664.82,-95.36 773.91,-76.11"/>
<polygon fill="midnightblue" stroke="midnightblue" points="774.54,-79.55 783.77,-74.36 773.31,-72.66 774.54,-79.55"/>
</g>
<!-- Node5&#45;&gt;Node6 -->
<g id="edge6" class="edge">
<title>Node5&#45;&gt;Node6</title>
<path fill="none" stroke="midnightblue" d="M395.43,-56.08C401.85,-48.38 411.31,-37.03 419.12,-27.65"/>
<polygon fill="midnightblue" stroke="midnightblue" points="421.99,-29.67 425.71,-19.75 416.62,-25.19 421.99,-29.67"/>
</g>
<!-- Node10&#45;&gt;Node2 -->
<g id="edge12" class="edge">
<title>Node10&#45;&gt;Node2</title>
<path fill="none" stroke="midnightblue" d="M150.17,-56.32C132.28,-47.62 104.52,-34.12 83.95,-24.11"/>
<polygon fill="midnightblue" stroke="midnightblue" points="85.31,-20.88 74.79,-19.65 82.25,-27.18 85.31,-20.88"/>
</g>
<!-- Node10&#45;&gt;Node4 -->
<g id="edge11" class="edge">
<title>Node10&#45;&gt;Node4</title>
<path fill="none" stroke="midnightblue" d="M182.78,-56.32C197.27,-47.82 219.57,-34.73 236.49,-24.8"/>
<polygon fill="midnightblue" stroke="midnightblue" points="238.4,-27.74 245.26,-19.65 234.86,-21.7 238.4,-27.74"/>
</g>
<!-- Node12&#45;&gt;Node2 -->
<g id="edge17" class="edge">
<title>Node12&#45;&gt;Node2</title>
<path fill="none" stroke="midnightblue" d="M216.83,-121.36C164.74,-114.21 81.69,-99.42 62,-76 51.43,-63.42 51.24,-44.2 53.06,-29.92"/>
<polygon fill="midnightblue" stroke="midnightblue" points="56.56,-30.19 54.78,-19.75 49.66,-29.02 56.56,-30.19"/>
</g>
<!-- Node12&#45;&gt;Node4 -->
<g id="edge16" class="edge">
<title>Node12&#45;&gt;Node4</title>
<path fill="none" stroke="midnightblue" d="M260,-117.82C260,-99.26 260,-55.34 260,-29.97"/>
<polygon fill="midnightblue" stroke="midnightblue" points="263.5,-29.78 260,-19.78 256.5,-29.78 263.5,-29.78"/>
</g>
<!-- Node12&#45;&gt;Node5 -->
<g id="edge18" class="edge">
<title>Node12&#45;&gt;Node5</title>
<path fill="none" stroke="midnightblue" d="M278.34,-117.98C299.82,-107.99 335.62,-91.35 360.45,-79.81"/>
<polygon fill="midnightblue" stroke="midnightblue" points="362.1,-82.9 369.69,-75.51 359.15,-76.55 362.1,-82.9"/>
</g>
</g>
</svg>
