<?xml version="1.0" encoding="UTF-8" standalone="no"?>
<!DOCTYPE svg PUBLIC "-//W3C//DTD SVG 1.1//EN"
 "http://www.w3.org/Graphics/SVG/1.1/DTD/svg11.dtd">
<!-- Generated by graphviz version 2.43.0 (0)
 -->
<!-- Title: hour.h Pages: 1 -->
<!--zoomable 263 -->
<svg id="main" version="1.1" xmlns="http://www.w3.org/2000/svg" xmlns:xlink="http://www.w3.org/1999/xlink" xml:space="preserve" onload="init(evt)">
<style type="text/css"><![CDATA[
.edge:hover path { stroke: red; }
.edge:hover polygon { stroke: red; fill: red; }
]]></style>
<script type="text/javascript"><![CDATA[
var edges = document.getElementsByTagName('g');
if (edges && edges.length) {
  for (var i=0;i<edges.length;i++) {
    if (edges[i].id.substr(0,4)=='edge') {
      edges[i].setAttribute('class','edge');
    }
  }
}
]]></script>
        <defs>
                <circle id="rim" cx="0" cy="0" r="7"/>
                <circle id="rim2" cx="0" cy="0" r="3.5"/>
                <g id="zoomPlus">
                        <use xlink:href="#rim" fill="#404040">
                                <set attributeName="fill" to="#808080" begin="zoomplus.mouseover" end="zoomplus.mouseout"/>
                        </use>
                        <path d="M-4,0h8M0,-4v8" fill="none" stroke="white" stroke-width="1.5" pointer-events="none"/>
                </g>
                <g id="zoomMin">
                        <use xlink:href="#rim" fill="#404040">
                                <set attributeName="fill" to="#808080" begin="zoomminus.mouseover" end="zoomminus.mouseout"/>
                        </use>
                        <path d="M-4,0h8" fill="none" stroke="white" stroke-width="1.5" pointer-events="none"/>
                </g>
                <g id="dirArrow">
                        <path fill="none" stroke="white" stroke-width="1.5" d="M0,-3.0v7 M-2.5,-0.5L0,-3.0L2.5,-0.5"/>
                </g>
               <g id="resetDef">
                       <use xlink:href="#rim2" fill="#404040">
                               <set attributeName="fill" to="#808080" begin="reset.mouseover" end="reset.mouseout"/>
                       </use>
               </g>
        </defs>

<script type="text/javascript">
var viewWidth = 954;
var viewHeight = 263;
var sectionId = 'dynsection-0';
</script>
<script xlink:href="svgpan.js"/>
<svg id="graph" class="graph">
<g id="viewport">
<title>hour.h</title>
<!-- Node1 -->
<g id="node1" class="node">
<title>Node1</title>
<g id="a_node1"><a xlink:title=" ">
<polygon fill="#bfbfbf" stroke="black" points="410,-235.5 410,-254.5 457,-254.5 457,-235.5 410,-235.5"/>
<text text-anchor="middle" x="433.5" y="-242.5" font-family="Helvetica,sans-Serif" font-size="10.00">hour.h</text>
</a>
</g>
</g>
<!-- Node2 -->
<g id="node2" class="node">
<title>Node2</title>
<g id="a_node2"><a xlink:title=" ">
<polygon fill="none" stroke="#bfbfbf" points="0,-0.5 0,-19.5 89,-19.5 89,-0.5 0,-0.5"/>
<text text-anchor="middle" x="44.5" y="-7.5" font-family="Helvetica,sans-Serif" font-size="10.00">limes_export.h</text>
</a>
</g>
</g>
<!-- Node1&#45;&gt;Node2 -->
<g id="edge1" class="edge">
<title>Node1&#45;&gt;Node2</title>
<path fill="none" stroke="midnightblue" d="M409.88,-241.27C350.41,-233.6 191.07,-208 76.5,-143 38.76,-121.59 22.68,-115.84 5.5,-76 -2.17,-58.22 11.86,-39.41 25.18,-26.62"/>
<polygon fill="midnightblue" stroke="midnightblue" points="27.64,-29.12 32.77,-19.84 22.98,-23.9 27.64,-29.12"/>
</g>
<!-- Node3 -->
<g id="node3" class="node">
<title>Node3</title>
<g id="a_node3"><a xlink:href="limes__namespace_8h.html" target="_top" xlink:title=" ">
<polygon fill="none" stroke="black" points="376.5,-0.5 376.5,-19.5 490.5,-19.5 490.5,-0.5 376.5,-0.5"/>
<text text-anchor="middle" x="433.5" y="-7.5" font-family="Helvetica,sans-Serif" font-size="10.00">limes_namespace.h</text>
</a>
</g>
</g>
<!-- Node1&#45;&gt;Node3 -->
<g id="edge2" class="edge">
<title>Node1&#45;&gt;Node3</title>
<path fill="none" stroke="midnightblue" d="M457.24,-241.86C559.42,-231.84 951.41,-184.46 836.5,-56 814.56,-31.47 609.71,-18.77 500.82,-13.7"/>
<polygon fill="midnightblue" stroke="midnightblue" points="500.74,-10.19 490.59,-13.23 500.42,-17.19 500.74,-10.19"/>
</g>
<!-- Node4 -->
<g id="node4" class="node">
<title>Node4</title>
<g id="a_node4"><a xlink:href="preprocessor_8h.html" target="_top" xlink:title=" ">
<polygon fill="none" stroke="black" points="22,-56.5 22,-75.5 145,-75.5 145,-56.5 22,-56.5"/>
<text text-anchor="middle" x="83.5" y="-63.5" font-family="Helvetica,sans-Serif" font-size="10.00">../misc/preprocessor.h</text>
</a>
</g>
</g>
<!-- Node1&#45;&gt;Node4 -->
<g id="edge3" class="edge">
<title>Node1&#45;&gt;Node4</title>
<path fill="none" stroke="midnightblue" d="M409.91,-241.01C337.03,-231.22 117.83,-197.65 76.5,-143 64.04,-126.53 69.35,-101.94 75.41,-85.23"/>
<polygon fill="midnightblue" stroke="midnightblue" points="78.82,-86.13 79.32,-75.55 72.33,-83.51 78.82,-86.13"/>
</g>
<!-- Node6 -->
<g id="node6" class="node">
<title>Node6</title>
<g id="a_node6"><a xlink:title=" ">
<polygon fill="none" stroke="#bfbfbf" points="901.5,-179.5 901.5,-198.5 945.5,-198.5 945.5,-179.5 901.5,-179.5"/>
<text text-anchor="middle" x="923.5" y="-186.5" font-family="Helvetica,sans-Serif" font-size="10.00">ctime</text>
</a>
</g>
</g>
<!-- Node1&#45;&gt;Node6 -->
<g id="edge5" class="edge">
<title>Node1&#45;&gt;Node6</title>
<path fill="none" stroke="midnightblue" d="M457.3,-242.87C525.01,-239.39 724.4,-227.31 887.5,-199 888.75,-198.78 890.02,-198.55 891.3,-198.29"/>
<polygon fill="midnightblue" stroke="midnightblue" points="892.13,-201.7 901.14,-196.13 890.62,-194.86 892.13,-201.7"/>
</g>
<!-- Node7 -->
<g id="node7" class="node">
<title>Node7</title>
<g id="a_node7"><a xlink:href="hour__impl_8h.html" target="_top" xlink:title=" ">
<polygon fill="none" stroke="black" points="384,-179.5 384,-198.5 483,-198.5 483,-179.5 384,-179.5"/>
<text text-anchor="middle" x="433.5" y="-186.5" font-family="Helvetica,sans-Serif" font-size="10.00">impl/hour_impl.h</text>
</a>
</g>
</g>
<!-- Node1&#45;&gt;Node7 -->
<g id="edge6" class="edge">
<title>Node1&#45;&gt;Node7</title>
<path fill="none" stroke="midnightblue" d="M433.5,-235.08C433.5,-228.01 433.5,-217.86 433.5,-208.99"/>
<polygon fill="midnightblue" stroke="midnightblue" points="437,-208.75 433.5,-198.75 430,-208.75 437,-208.75"/>
</g>
<!-- Node5 -->
<g id="node5" class="node">
<title>Node5</title>
<g id="a_node5"><a xlink:title=" ">
<polygon fill="none" stroke="#bfbfbf" points="208.5,-0.5 208.5,-19.5 308.5,-19.5 308.5,-0.5 208.5,-0.5"/>
<text text-anchor="middle" x="258.5" y="-7.5" font-family="Helvetica,sans-Serif" font-size="10.00">limes_platform.h</text>
</a>
</g>
</g>
<!-- Node4&#45;&gt;Node5 -->
<g id="edge4" class="edge">
<title>Node4&#45;&gt;Node5</title>
<path fill="none" stroke="midnightblue" d="M111.23,-56.44C140.93,-47.28 188.22,-32.69 221.17,-22.52"/>
<polygon fill="midnightblue" stroke="midnightblue" points="222.38,-25.81 230.9,-19.52 220.31,-19.12 222.38,-25.81"/>
</g>
<!-- Node7&#45;&gt;Node3 -->
<g id="edge7" class="edge">
<title>Node7&#45;&gt;Node3</title>
<path fill="none" stroke="midnightblue" d="M483.09,-187.24C606.85,-183.71 912.67,-164.13 816.5,-56 795.91,-32.85 604.89,-19.65 500.64,-14.12"/>
<polygon fill="midnightblue" stroke="midnightblue" points="500.7,-10.62 490.53,-13.59 500.33,-17.61 500.7,-10.62"/>
</g>
<!-- Node8 -->
<g id="node8" class="node">
<title>Node8</title>
<g id="a_node8"><a xlink:href="limes__assert_8h.html" target="_top" xlink:title=" ">
<polygon fill="none" stroke="black" points="383,-112.5 383,-142.5 484,-142.5 484,-112.5 383,-112.5"/>
<text text-anchor="start" x="391" y="-130.5" font-family="Helvetica,sans-Serif" font-size="10.00">../../system/limes</text>
<text text-anchor="middle" x="433.5" y="-119.5" font-family="Helvetica,sans-Serif" font-size="10.00">_assert.h</text>
</a>
</g>
</g>
<!-- Node7&#45;&gt;Node8 -->
<g id="edge8" class="edge">
<title>Node7&#45;&gt;Node8</title>
<path fill="none" stroke="midnightblue" d="M433.5,-179.48C433.5,-172.47 433.5,-162.19 433.5,-152.7"/>
<polygon fill="midnightblue" stroke="midnightblue" points="437,-152.52 433.5,-142.52 430,-152.52 437,-152.52"/>
</g>
<!-- Node14 -->
<g id="node14" class="node">
<title>Node14</title>
<g id="a_node14"><a xlink:href="build__date_8h.html" target="_top" xlink:title=" ">
<polygon fill="none" stroke="black" points="85.5,-118 85.5,-137 171.5,-137 171.5,-118 85.5,-118"/>
<text text-anchor="middle" x="128.5" y="-125" font-family="Helvetica,sans-Serif" font-size="10.00">../build_date.h</text>
</a>
</g>
</g>
<!-- Node7&#45;&gt;Node14 -->
<g id="edge20" class="edge">
<title>Node7&#45;&gt;Node14</title>
<path fill="none" stroke="midnightblue" d="M389.8,-179.48C334.84,-168.75 240.52,-150.35 181.5,-138.84"/>
<polygon fill="midnightblue" stroke="midnightblue" points="182.11,-135.39 171.63,-136.91 180.77,-142.26 182.11,-135.39"/>
</g>
<!-- Node8&#45;&gt;Node2 -->
<g id="edge9" class="edge">
<title>Node8&#45;&gt;Node2</title>
<path fill="none" stroke="midnightblue" d="M382.68,-115.23C341.4,-105.75 281.83,-91.32 230.5,-76 175.82,-59.68 113.42,-37.03 76.58,-23.23"/>
<polygon fill="midnightblue" stroke="midnightblue" points="77.49,-19.83 66.9,-19.58 75.03,-26.38 77.49,-19.83"/>
</g>
<!-- Node8&#45;&gt;Node3 -->
<g id="edge10" class="edge">
<title>Node8&#45;&gt;Node3</title>
<path fill="none" stroke="midnightblue" d="M433.5,-112.34C433.5,-91.62 433.5,-53.02 433.5,-29.9"/>
<polygon fill="midnightblue" stroke="midnightblue" points="437,-29.67 433.5,-19.67 430,-29.67 437,-29.67"/>
</g>
<!-- Node8&#45;&gt;Node4 -->
<g id="edge11" class="edge">
<title>Node8&#45;&gt;Node4</title>
<path fill="none" stroke="midnightblue" d="M382.98,-117.91C319.69,-107.15 211.35,-88.74 143.79,-77.25"/>
<polygon fill="midnightblue" stroke="midnightblue" points="144.17,-73.76 133.72,-75.54 142.99,-80.66 144.17,-73.76"/>
</g>
<!-- Node8&#45;&gt;Node5 -->
<g id="edge18" class="edge">
<title>Node8&#45;&gt;Node5</title>
<path fill="none" stroke="midnightblue" d="M425.34,-112.46C415.55,-96.73 397.78,-71.43 376.5,-56 355.17,-40.52 327.85,-29.66 304.87,-22.49"/>
<polygon fill="midnightblue" stroke="midnightblue" points="305.57,-19.04 294.99,-19.54 303.57,-25.75 305.57,-19.04"/>
</g>
<!-- Node9 -->
<g id="node9" class="node">
<title>Node9</title>
<g id="a_node9"><a xlink:title=" ">
<polygon fill="none" stroke="#bfbfbf" points="462,-56.5 462,-75.5 531,-75.5 531,-56.5 462,-56.5"/>
<text text-anchor="middle" x="496.5" y="-63.5" font-family="Helvetica,sans-Serif" font-size="10.00">type_traits</text>
</a>
</g>
</g>
<!-- Node8&#45;&gt;Node9 -->
<g id="edge12" class="edge">
<title>Node8&#45;&gt;Node9</title>
<path fill="none" stroke="midnightblue" d="M448.43,-112.4C457.87,-103.49 470.08,-91.95 479.83,-82.74"/>
<polygon fill="midnightblue" stroke="midnightblue" points="482.47,-85.07 487.33,-75.66 477.66,-79.98 482.47,-85.07"/>
</g>
<!-- Node10 -->
<g id="node10" class="node">
<title>Node10</title>
<g id="a_node10"><a xlink:title=" ">
<polygon fill="none" stroke="#bfbfbf" points="549,-56.5 549,-75.5 594,-75.5 594,-56.5 549,-56.5"/>
<text text-anchor="middle" x="571.5" y="-63.5" font-family="Helvetica,sans-Serif" font-size="10.00">utility</text>
</a>
</g>
</g>
<!-- Node8&#45;&gt;Node10 -->
<g id="edge13" class="edge">
<title>Node8&#45;&gt;Node10</title>
<path fill="none" stroke="midnightblue" d="M466.2,-112.4C489.25,-102.46 519.86,-89.26 542.13,-79.66"/>
<polygon fill="midnightblue" stroke="midnightblue" points="543.62,-82.83 551.42,-75.66 540.85,-76.4 543.62,-82.83"/>
</g>
<!-- Node11 -->
<g id="node11" class="node">
<title>Node11</title>
<g id="a_node11"><a xlink:title=" ">
<polygon fill="none" stroke="#bfbfbf" points="612,-56.5 612,-75.5 721,-75.5 721,-56.5 612,-56.5"/>
<text text-anchor="middle" x="666.5" y="-63.5" font-family="Helvetica,sans-Serif" font-size="10.00">limes_build_type.h</text>
</a>
</g>
</g>
<!-- Node8&#45;&gt;Node11 -->
<g id="edge14" class="edge">
<title>Node8&#45;&gt;Node11</title>
<path fill="none" stroke="midnightblue" d="M484.06,-113.59C525.55,-102.99 583.68,-88.15 623.09,-78.08"/>
<polygon fill="midnightblue" stroke="midnightblue" points="624.11,-81.44 632.94,-75.57 622.38,-74.65 624.11,-81.44"/>
</g>
<!-- Node12 -->
<g id="node12" class="node">
<title>Node12</title>
<g id="a_node12"><a xlink:href="_ignore_unused_8h.html" target="_top" xlink:title=" ">
<polygon fill="none" stroke="black" points="239.5,-56.5 239.5,-75.5 367.5,-75.5 367.5,-56.5 239.5,-56.5"/>
<text text-anchor="middle" x="303.5" y="-63.5" font-family="Helvetica,sans-Serif" font-size="10.00">../misc/IgnoreUnused.h</text>
</a>
</g>
</g>
<!-- Node8&#45;&gt;Node12 -->
<g id="edge15" class="edge">
<title>Node8&#45;&gt;Node12</title>
<path fill="none" stroke="midnightblue" d="M402.69,-112.4C381.17,-102.55 352.66,-89.5 331.73,-79.92"/>
<polygon fill="midnightblue" stroke="midnightblue" points="332.97,-76.64 322.42,-75.66 330.05,-83 332.97,-76.64"/>
</g>
<!-- Node13 -->
<g id="node13" class="node">
<title>Node13</title>
<g id="a_node13"><a xlink:title=" ">
<polygon fill="none" stroke="#bfbfbf" points="739.5,-56.5 739.5,-75.5 807.5,-75.5 807.5,-56.5 739.5,-56.5"/>
<text text-anchor="middle" x="773.5" y="-63.5" font-family="Helvetica,sans-Serif" font-size="10.00">filesystem</text>
</a>
</g>
</g>
<!-- Node8&#45;&gt;Node13 -->
<g id="edge19" class="edge">
<title>Node8&#45;&gt;Node13</title>
<path fill="none" stroke="midnightblue" d="M484.05,-118.5C541.16,-109.34 637.12,-93.53 729.21,-76.19"/>
<polygon fill="midnightblue" stroke="midnightblue" points="730.08,-79.59 739.26,-74.29 728.78,-72.71 730.08,-79.59"/>
</g>
<!-- Node12&#45;&gt;Node2 -->
<g id="edge16" class="edge">
<title>Node12&#45;&gt;Node2</title>
<path fill="none" stroke="midnightblue" d="M262.46,-56.44C217.18,-47 144.27,-31.8 95.39,-21.61"/>
<polygon fill="midnightblue" stroke="midnightblue" points="95.85,-18.13 85.35,-19.52 94.42,-24.98 95.85,-18.13"/>
</g>
<!-- Node12&#45;&gt;Node3 -->
<g id="edge17" class="edge">
<title>Node12&#45;&gt;Node3</title>
<path fill="none" stroke="midnightblue" d="M324.1,-56.44C345.49,-47.56 379.18,-33.56 403.52,-23.45"/>
<polygon fill="midnightblue" stroke="midnightblue" points="405.11,-26.58 413,-19.52 402.42,-20.12 405.11,-26.58"/>
</g>
<!-- Node14&#45;&gt;Node2 -->
<g id="edge21" class="edge">
<title>Node14&#45;&gt;Node2</title>
<path fill="none" stroke="midnightblue" d="M85.28,-119.72C59.43,-113.21 28.57,-100.53 12.5,-76 2.13,-60.17 15,-40.49 27.38,-26.96"/>
<polygon fill="midnightblue" stroke="midnightblue" points="29.92,-29.37 34.43,-19.78 24.93,-24.46 29.92,-29.37"/>
</g>
<!-- Node14&#45;&gt;Node3 -->
<g id="edge22" class="edge">
<title>Node14&#45;&gt;Node3</title>
<path fill="none" stroke="midnightblue" d="M138.14,-117.88C155.39,-102.94 193.21,-72.27 230.5,-56 273.66,-37.17 325.54,-25.84 366.05,-19.26"/>
<polygon fill="midnightblue" stroke="midnightblue" points="366.76,-22.7 376.09,-17.69 365.67,-15.78 366.76,-22.7"/>
</g>
<!-- Node14&#45;&gt;Node4 -->
<g id="edge23" class="edge">
<title>Node14&#45;&gt;Node4</title>
<path fill="none" stroke="midnightblue" d="M122.05,-117.98C115.3,-109.05 104.53,-94.81 96.09,-83.64"/>
<polygon fill="midnightblue" stroke="midnightblue" points="98.76,-81.37 89.94,-75.51 93.18,-85.6 98.76,-81.37"/>
</g>
</g>
</svg>
        <g id="navigator" transform="translate(0 0)" fill="#404254">
                <rect fill="#f2f5e9" fill-opacity="0.5" stroke="#606060" stroke-width=".5" x="0" y="0" width="60" height="60"/>
                <use id="zoomplus" xlink:href="#zoomPlus" x="17" y="9" onmousedown="handleZoom(evt,'in')"/>
                <use id="zoomminus" xlink:href="#zoomMin" x="42" y="9" onmousedown="handleZoom(evt,'out')"/>
                <use id="reset" xlink:href="#resetDef" x="30" y="36" onmousedown="handleReset()"/>
                <g id="arrowUp" xlink:href="#dirArrow" transform="translate(30 24)" onmousedown="handlePan(0,-1)">
                  <use xlink:href="#rim" fill="#404040">
                        <set attributeName="fill" to="#808080" begin="arrowUp.mouseover" end="arrowUp.mouseout"/>
                  </use>
                  <path fill="none" stroke="white" stroke-width="1.5" d="M0,-3.0v7 M-2.5,-0.5L0,-3.0L2.5,-0.5"/>
                </g>
                <g id="arrowRight" xlink:href="#dirArrow" transform="rotate(90) translate(36 -43)" onmousedown="handlePan(1,0)">
                  <use xlink:href="#rim" fill="#404040">
                        <set attributeName="fill" to="#808080" begin="arrowRight.mouseover" end="arrowRight.mouseout"/>
                  </use>
                  <path fill="none" stroke="white" stroke-width="1.5" d="M0,-3.0v7 M-2.5,-0.5L0,-3.0L2.5,-0.5"/>
                </g>
                <g id="arrowDown" xlink:href="#dirArrow" transform="rotate(180) translate(-30 -48)" onmousedown="handlePan(0,1)">
                  <use xlink:href="#rim" fill="#404040">
                        <set attributeName="fill" to="#808080" begin="arrowDown.mouseover" end="arrowDown.mouseout"/>
                  </use>
                  <path fill="none" stroke="white" stroke-width="1.5" d="M0,-3.0v7 M-2.5,-0.5L0,-3.0L2.5,-0.5"/>
                </g>
                <g id="arrowLeft" xlink:href="#dirArrow" transform="rotate(270) translate(-36 17)" onmousedown="handlePan(-1,0)">
                  <use xlink:href="#rim" fill="#404040">
                        <set attributeName="fill" to="#808080" begin="arrowLeft.mouseover" end="arrowLeft.mouseout"/>
                  </use>
                  <path fill="none" stroke="white" stroke-width="1.5" d="M0,-3.0v7 M-2.5,-0.5L0,-3.0L2.5,-0.5"/>
                </g>
        </g>
        <svg viewBox="0 0 15 15" width="100%" height="30px" preserveAspectRatio="xMaxYMin meet">
         <g id="arrow_out" transform="scale(0.3 0.3)">
          <a xlink:href="hour_8h__incl_org.svg" target="_base">
           <rect id="button" ry="5" rx="5" y="6" x="6" height="38" width="38"
                fill="#f2f5e9" fill-opacity="0.5" stroke="#606060" stroke-width="1.0"/>
           <path id="arrow"
             d="M 11.500037,31.436501 C 11.940474,20.09759 22.043105,11.32322 32.158766,21.979434 L 37.068811,17.246167 C 37.068811,17.246167 37.088388,32 37.088388,32 L 22.160133,31.978069 C 22.160133,31.978069 26.997745,27.140456 26.997745,27.140456 C 18.528582,18.264221 13.291696,25.230495 11.500037,31.436501 z"
             style="fill:#404040;"/>
          </a>
         </g>
        </svg>
</svg>
