<?xml version="1.0" encoding="UTF-8" standalone="no"?>
<!DOCTYPE svg PUBLIC "-//W3C//DTD SVG 1.1//EN"
 "http://www.w3.org/Graphics/SVG/1.1/DTD/svg11.dtd">
<!-- Generated by graphviz version 2.43.0 (0)
 -->
<!-- Title: limes_assert.h Pages: 1 -->
<svg width="663pt" height="140pt"
 viewBox="0.00 0.00 662.50 140.00" xmlns="http://www.w3.org/2000/svg" xmlns:xlink="http://www.w3.org/1999/xlink">
<g id="graph0" class="graph" transform="scale(1 1) rotate(0) translate(4 136)">
<title>limes_assert.h</title>
<!-- Node1 -->
<g id="node1" class="node">
<title>Node1</title>
<g id="a_node1"><a xlink:title=" ">
<polygon fill="#bfbfbf" stroke="black" points="267.5,-112.5 267.5,-131.5 355.5,-131.5 355.5,-112.5 267.5,-112.5"/>
<text text-anchor="middle" x="311.5" y="-119.5" font-family="Helvetica,sans-Serif" font-size="10.00">limes_assert.h</text>
</a>
</g>
</g>
<!-- Node2 -->
<g id="node2" class="node">
<title>Node2</title>
<g id="a_node2"><a xlink:title=" ">
<polygon fill="none" stroke="#bfbfbf" points="0,-0.5 0,-19.5 89,-19.5 89,-0.5 0,-0.5"/>
<text text-anchor="middle" x="44.5" y="-7.5" font-family="Helvetica,sans-Serif" font-size="10.00">limes_export.h</text>
</a>
</g>
</g>
<!-- Node1&#45;&gt;Node2 -->
<g id="edge1" class="edge">
<title>Node1&#45;&gt;Node2</title>
<path fill="none" stroke="midnightblue" d="M267.43,-118.48C204.41,-113.99 92.89,-102.46 63.5,-76 50.55,-64.34 46.23,-44.39 44.88,-29.66"/>
<polygon fill="midnightblue" stroke="midnightblue" points="48.37,-29.44 44.34,-19.64 41.38,-29.81 48.37,-29.44"/>
</g>
<!-- Node3 -->
<g id="node3" class="node">
<title>Node3</title>
<g id="a_node3"><a xlink:href="limes__namespace_8h.html" target="_top" xlink:title=" ">
<polygon fill="none" stroke="black" points="107.5,-0.5 107.5,-19.5 221.5,-19.5 221.5,-0.5 107.5,-0.5"/>
<text text-anchor="middle" x="164.5" y="-7.5" font-family="Helvetica,sans-Serif" font-size="10.00">limes_namespace.h</text>
</a>
</g>
</g>
<!-- Node1&#45;&gt;Node3 -->
<g id="edge2" class="edge">
<title>Node1&#45;&gt;Node3</title>
<path fill="none" stroke="midnightblue" d="M299.97,-112.37C274.95,-93.65 215.48,-49.15 184.32,-25.83"/>
<polygon fill="midnightblue" stroke="midnightblue" points="186.08,-22.78 175.98,-19.59 181.89,-28.39 186.08,-22.78"/>
</g>
<!-- Node4 -->
<g id="node4" class="node">
<title>Node4</title>
<g id="a_node4"><a xlink:href="preprocessor_8h.html" target="_top" xlink:title=" ">
<polygon fill="none" stroke="black" points="295,-56.5 295,-75.5 418,-75.5 418,-56.5 295,-56.5"/>
<text text-anchor="middle" x="356.5" y="-63.5" font-family="Helvetica,sans-Serif" font-size="10.00">../misc/preprocessor.h</text>
</a>
</g>
</g>
<!-- Node1&#45;&gt;Node4 -->
<g id="edge3" class="edge">
<title>Node1&#45;&gt;Node4</title>
<path fill="none" stroke="midnightblue" d="M318.93,-112.08C325.35,-104.38 334.81,-93.03 342.62,-83.65"/>
<polygon fill="midnightblue" stroke="midnightblue" points="345.49,-85.67 349.21,-75.75 340.12,-81.19 345.49,-85.67"/>
</g>
<!-- Node5 -->
<g id="node5" class="node">
<title>Node5</title>
<g id="a_node5"><a xlink:title=" ">
<polygon fill="none" stroke="#bfbfbf" points="239.5,-0.5 239.5,-19.5 339.5,-19.5 339.5,-0.5 239.5,-0.5"/>
<text text-anchor="middle" x="289.5" y="-7.5" font-family="Helvetica,sans-Serif" font-size="10.00">limes_platform.h</text>
</a>
</g>
</g>
<!-- Node1&#45;&gt;Node5 -->
<g id="edge11" class="edge">
<title>Node1&#45;&gt;Node5</title>
<path fill="none" stroke="midnightblue" d="M304.87,-112.27C298.73,-103.61 290.04,-89.67 286.5,-76 282.55,-60.78 283.79,-42.89 285.73,-29.73"/>
<polygon fill="midnightblue" stroke="midnightblue" points="289.23,-30.03 287.52,-19.58 282.34,-28.83 289.23,-30.03"/>
</g>
<!-- Node6 -->
<g id="node6" class="node">
<title>Node6</title>
<g id="a_node6"><a xlink:title=" ">
<polygon fill="none" stroke="#bfbfbf" points="436,-56.5 436,-75.5 505,-75.5 505,-56.5 436,-56.5"/>
<text text-anchor="middle" x="470.5" y="-63.5" font-family="Helvetica,sans-Serif" font-size="10.00">type_traits</text>
</a>
</g>
</g>
<!-- Node1&#45;&gt;Node6 -->
<g id="edge5" class="edge">
<title>Node1&#45;&gt;Node6</title>
<path fill="none" stroke="midnightblue" d="M336.69,-112.44C363.44,-103.36 405.9,-88.94 435.81,-78.78"/>
<polygon fill="midnightblue" stroke="midnightblue" points="437.08,-82.05 445.42,-75.52 434.83,-75.42 437.08,-82.05"/>
</g>
<!-- Node7 -->
<g id="node7" class="node">
<title>Node7</title>
<g id="a_node7"><a xlink:title=" ">
<polygon fill="none" stroke="#bfbfbf" points="523,-56.5 523,-75.5 568,-75.5 568,-56.5 523,-56.5"/>
<text text-anchor="middle" x="545.5" y="-63.5" font-family="Helvetica,sans-Serif" font-size="10.00">utility</text>
</a>
</g>
</g>
<!-- Node1&#45;&gt;Node7 -->
<g id="edge6" class="edge">
<title>Node1&#45;&gt;Node7</title>
<path fill="none" stroke="midnightblue" d="M353.68,-112.48C392.77,-104.39 452.76,-91.52 513.16,-76.23"/>
<polygon fill="midnightblue" stroke="midnightblue" points="514.04,-79.62 522.86,-73.76 512.3,-72.84 514.04,-79.62"/>
</g>
<!-- Node8 -->
<g id="node8" class="node">
<title>Node8</title>
<g id="a_node8"><a xlink:href="_ignore_unused_8h.html" target="_top" xlink:title=" ">
<polygon fill="none" stroke="black" points="72.5,-56.5 72.5,-75.5 200.5,-75.5 200.5,-56.5 72.5,-56.5"/>
<text text-anchor="middle" x="136.5" y="-63.5" font-family="Helvetica,sans-Serif" font-size="10.00">../misc/IgnoreUnused.h</text>
</a>
</g>
</g>
<!-- Node1&#45;&gt;Node8 -->
<g id="edge7" class="edge">
<title>Node1&#45;&gt;Node8</title>
<path fill="none" stroke="midnightblue" d="M283.77,-112.44C254.07,-103.28 206.78,-88.69 173.83,-78.52"/>
<polygon fill="midnightblue" stroke="midnightblue" points="174.69,-75.12 164.1,-75.52 172.62,-81.81 174.69,-75.12"/>
</g>
<!-- Node9 -->
<g id="node9" class="node">
<title>Node9</title>
<g id="a_node9"><a xlink:title=" ">
<polygon fill="none" stroke="#bfbfbf" points="586.5,-56.5 586.5,-75.5 654.5,-75.5 654.5,-56.5 586.5,-56.5"/>
<text text-anchor="middle" x="620.5" y="-63.5" font-family="Helvetica,sans-Serif" font-size="10.00">filesystem</text>
</a>
</g>
</g>
<!-- Node1&#45;&gt;Node9 -->
<g id="edge12" class="edge">
<title>Node1&#45;&gt;Node9</title>
<path fill="none" stroke="midnightblue" d="M355.84,-114.04C406.7,-105.93 492.85,-91.84 576.35,-76.16"/>
<polygon fill="midnightblue" stroke="midnightblue" points="577.08,-79.59 586.26,-74.29 575.78,-72.71 577.08,-79.59"/>
</g>
<!-- Node4&#45;&gt;Node5 -->
<g id="edge4" class="edge">
<title>Node4&#45;&gt;Node5</title>
<path fill="none" stroke="midnightblue" d="M345.74,-56.32C335.73,-48.26 320.61,-36.08 308.57,-26.37"/>
<polygon fill="midnightblue" stroke="midnightblue" points="310.44,-23.38 300.46,-19.83 306.05,-28.83 310.44,-23.38"/>
</g>
<!-- Node8&#45;&gt;Node2 -->
<g id="edge8" class="edge">
<title>Node8&#45;&gt;Node2</title>
<path fill="none" stroke="midnightblue" d="M121.72,-56.32C107.23,-47.82 84.93,-34.73 68.01,-24.8"/>
<polygon fill="midnightblue" stroke="midnightblue" points="69.64,-21.7 59.24,-19.65 66.1,-27.74 69.64,-21.7"/>
</g>
<!-- Node8&#45;&gt;Node3 -->
<g id="edge9" class="edge">
<title>Node8&#45;&gt;Node3</title>
<path fill="none" stroke="midnightblue" d="M141.12,-56.08C144.96,-48.69 150.52,-37.95 155.26,-28.81"/>
<polygon fill="midnightblue" stroke="midnightblue" points="158.47,-30.24 159.96,-19.75 152.25,-27.02 158.47,-30.24"/>
</g>
<!-- Node8&#45;&gt;Node5 -->
<g id="edge10" class="edge">
<title>Node8&#45;&gt;Node5</title>
<path fill="none" stroke="midnightblue" d="M160.74,-56.44C186.37,-47.4 226.99,-33.06 255.74,-22.92"/>
<polygon fill="midnightblue" stroke="midnightblue" points="257.11,-26.15 265.37,-19.52 254.78,-19.54 257.11,-26.15"/>
</g>
</g>
</svg>
