<?xml version="1.0" encoding="UTF-8" standalone="no"?>
<!DOCTYPE svg PUBLIC "-//W3C//DTD SVG 1.1//EN"
 "http://www.w3.org/Graphics/SVG/1.1/DTD/svg11.dtd">
<!-- Generated by graphviz version 2.43.0 (0)
 -->
<!-- Title: mathHelpers.h Pages: 1 -->
<!--zoomable 196 -->
<svg id="main" version="1.1" xmlns="http://www.w3.org/2000/svg" xmlns:xlink="http://www.w3.org/1999/xlink" xml:space="preserve" onload="init(evt)">
<style type="text/css"><![CDATA[
.edge:hover path { stroke: red; }
.edge:hover polygon { stroke: red; fill: red; }
]]></style>
<script type="text/javascript"><![CDATA[
var edges = document.getElementsByTagName('g');
if (edges && edges.length) {
  for (var i=0;i<edges.length;i++) {
    if (edges[i].id.substr(0,4)=='edge') {
      edges[i].setAttribute('class','edge');
    }
  }
}
]]></script>
        <defs>
                <circle id="rim" cx="0" cy="0" r="7"/>
                <circle id="rim2" cx="0" cy="0" r="3.5"/>
                <g id="zoomPlus">
                        <use xlink:href="#rim" fill="#404040">
                                <set attributeName="fill" to="#808080" begin="zoomplus.mouseover" end="zoomplus.mouseout"/>
                        </use>
                        <path d="M-4,0h8M0,-4v8" fill="none" stroke="white" stroke-width="1.5" pointer-events="none"/>
                </g>
                <g id="zoomMin">
                        <use xlink:href="#rim" fill="#404040">
                                <set attributeName="fill" to="#808080" begin="zoomminus.mouseover" end="zoomminus.mouseout"/>
                        </use>
                        <path d="M-4,0h8" fill="none" stroke="white" stroke-width="1.5" pointer-events="none"/>
                </g>
                <g id="dirArrow">
                        <path fill="none" stroke="white" stroke-width="1.5" d="M0,-3.0v7 M-2.5,-0.5L0,-3.0L2.5,-0.5"/>
                </g>
               <g id="resetDef">
                       <use xlink:href="#rim2" fill="#404040">
                               <set attributeName="fill" to="#808080" begin="reset.mouseover" end="reset.mouseout"/>
                       </use>
               </g>
        </defs>

<script type="text/javascript">
var viewWidth = 830;
var viewHeight = 196;
var sectionId = 'dynsection-0';
</script>
<script xlink:href="svgpan.js"/>
<svg id="graph" class="graph">
<g id="viewport">
<title>mathHelpers.h</title>
<!-- Node1 -->
<g id="node1" class="node">
<title>Node1</title>
<g id="a_node1"><a xlink:title=" ">
<polygon fill="#bfbfbf" stroke="black" points="480.06,-168.5 480.06,-187.5 569.06,-187.5 569.06,-168.5 480.06,-168.5"/>
<text text-anchor="middle" x="524.56" y="-175.5" font-family="Helvetica,sans-Serif" font-size="10.00">mathHelpers.h</text>
</a>
</g>
</g>
<!-- Node2 -->
<g id="node2" class="node">
<title>Node2</title>
<g id="a_node2"><a xlink:href="limes__namespace_8h.html" target="_top" xlink:title=" ">
<polygon fill="none" stroke="black" points="568.56,-0.5 568.56,-19.5 682.56,-19.5 682.56,-0.5 568.56,-0.5"/>
<text text-anchor="middle" x="625.56" y="-7.5" font-family="Helvetica,sans-Serif" font-size="10.00">limes_namespace.h</text>
</a>
</g>
</g>
<!-- Node1&#45;&gt;Node2 -->
<g id="edge1" class="edge">
<title>Node1&#45;&gt;Node2</title>
<path fill="none" stroke="midnightblue" d="M538.88,-168.32C562.46,-153.08 608.62,-119.01 626.56,-76 632.66,-61.35 631.76,-43.18 629.7,-29.78"/>
<polygon fill="midnightblue" stroke="midnightblue" points="633.12,-29.01 627.84,-19.83 626.24,-30.3 633.12,-29.01"/>
</g>
<!-- Node3 -->
<g id="node3" class="node">
<title>Node3</title>
<g id="a_node3"><a xlink:title=" ">
<polygon fill="none" stroke="#bfbfbf" points="692.06,-112.5 692.06,-131.5 739.06,-131.5 739.06,-112.5 692.06,-112.5"/>
<text text-anchor="middle" x="715.56" y="-119.5" font-family="Helvetica,sans-Serif" font-size="10.00">cmath</text>
</a>
</g>
</g>
<!-- Node1&#45;&gt;Node3 -->
<g id="edge2" class="edge">
<title>Node1&#45;&gt;Node3</title>
<path fill="none" stroke="midnightblue" d="M554.82,-168.44C589.38,-158.67 645.78,-142.73 681.75,-132.56"/>
<polygon fill="midnightblue" stroke="midnightblue" points="683.1,-135.81 691.77,-129.73 681.19,-129.08 683.1,-135.81"/>
</g>
<!-- Node4 -->
<g id="node4" class="node">
<title>Node4</title>
<g id="a_node4"><a xlink:title=" ">
<polygon fill="none" stroke="#bfbfbf" points="15.06,-56.5 15.06,-75.5 84.06,-75.5 84.06,-56.5 15.06,-56.5"/>
<text text-anchor="middle" x="49.56" y="-63.5" font-family="Helvetica,sans-Serif" font-size="10.00">type_traits</text>
</a>
</g>
</g>
<!-- Node1&#45;&gt;Node4 -->
<g id="edge3" class="edge">
<title>Node1&#45;&gt;Node4</title>
<path fill="none" stroke="midnightblue" d="M481.21,-168.44C437.71,-159.73 368.84,-145.61 309.56,-132 232.39,-114.29 142.94,-91.4 91.63,-78.05"/>
<polygon fill="midnightblue" stroke="midnightblue" points="92.45,-74.65 81.89,-75.51 90.68,-81.42 92.45,-74.65"/>
</g>
<!-- Node5 -->
<g id="node5" class="node">
<title>Node5</title>
<g id="a_node5"><a xlink:title=" ">
<polygon fill="none" stroke="#bfbfbf" points="68.06,-0.5 68.06,-19.5 157.06,-19.5 157.06,-0.5 68.06,-0.5"/>
<text text-anchor="middle" x="112.56" y="-7.5" font-family="Helvetica,sans-Serif" font-size="10.00">limes_export.h</text>
</a>
</g>
</g>
<!-- Node1&#45;&gt;Node5 -->
<g id="edge4" class="edge">
<title>Node1&#45;&gt;Node5</title>
<path fill="none" stroke="midnightblue" d="M479.96,-175.5C365.05,-170.58 63.73,-150.68 5.56,-76 -14.37,-50.42 25.25,-32.58 61.8,-22.15"/>
<polygon fill="midnightblue" stroke="midnightblue" points="62.74,-25.52 71.47,-19.53 60.91,-18.76 62.74,-25.52"/>
</g>
<!-- Node6 -->
<g id="node6" class="node">
<title>Node6</title>
<g id="a_node6"><a xlink:title=" ">
<polygon fill="none" stroke="#bfbfbf" points="757.56,-112.5 757.56,-131.5 821.56,-131.5 821.56,-112.5 757.56,-112.5"/>
<text text-anchor="middle" x="789.56" y="-119.5" font-family="Helvetica,sans-Serif" font-size="10.00">algorithm</text>
</a>
</g>
</g>
<!-- Node1&#45;&gt;Node6 -->
<g id="edge5" class="edge">
<title>Node1&#45;&gt;Node6</title>
<path fill="none" stroke="midnightblue" d="M568.38,-168.44C611.46,-159.96 679.32,-146.47 747.31,-132.23"/>
<polygon fill="midnightblue" stroke="midnightblue" points="748.27,-135.61 757.34,-130.13 746.83,-128.76 748.27,-135.61"/>
</g>
<!-- Node7 -->
<g id="node7" class="node">
<title>Node7</title>
<g id="a_node7"><a xlink:href="limes__assert_8h.html" target="_top" xlink:title=" ">
<polygon fill="none" stroke="black" points="318.56,-112.5 318.56,-131.5 454.56,-131.5 454.56,-112.5 318.56,-112.5"/>
<text text-anchor="middle" x="386.56" y="-119.5" font-family="Helvetica,sans-Serif" font-size="10.00">../system/limes_assert.h</text>
</a>
</g>
</g>
<!-- Node1&#45;&gt;Node7 -->
<g id="edge6" class="edge">
<title>Node1&#45;&gt;Node7</title>
<path fill="none" stroke="midnightblue" d="M502.69,-168.44C479.78,-159.48 443.58,-145.31 417.69,-135.18"/>
<polygon fill="midnightblue" stroke="midnightblue" points="418.91,-131.9 408.32,-131.52 416.36,-138.42 418.91,-131.9"/>
</g>
<!-- Node7&#45;&gt;Node2 -->
<g id="edge8" class="edge">
<title>Node7&#45;&gt;Node2</title>
<path fill="none" stroke="midnightblue" d="M454.63,-114.75C510.8,-108.25 584.69,-96.13 606.56,-76 619.38,-64.2 623.72,-44.27 625.11,-29.59"/>
<polygon fill="midnightblue" stroke="midnightblue" points="628.6,-29.78 625.68,-19.6 621.61,-29.38 628.6,-29.78"/>
</g>
<!-- Node7&#45;&gt;Node4 -->
<g id="edge11" class="edge">
<title>Node7&#45;&gt;Node4</title>
<path fill="none" stroke="midnightblue" d="M329.11,-112.48C270.93,-103.75 178.38,-89.56 98.56,-76 97.09,-75.75 95.6,-75.49 94.1,-75.23"/>
<polygon fill="midnightblue" stroke="midnightblue" points="94.53,-71.76 84.07,-73.46 93.31,-78.65 94.53,-71.76"/>
</g>
<!-- Node7&#45;&gt;Node5 -->
<g id="edge7" class="edge">
<title>Node7&#45;&gt;Node5</title>
<path fill="none" stroke="midnightblue" d="M318.4,-116.98C252.42,-111.72 158.51,-100.15 131.56,-76 118.58,-64.37 114.26,-44.42 112.92,-29.68"/>
<polygon fill="midnightblue" stroke="midnightblue" points="116.41,-29.45 112.39,-19.65 109.42,-29.82 116.41,-29.45"/>
</g>
<!-- Node8 -->
<g id="node8" class="node">
<title>Node8</title>
<g id="a_node8"><a xlink:href="preprocessor_8h.html" target="_top" xlink:title=" ">
<polygon fill="none" stroke="black" points="325.06,-56.5 325.06,-75.5 448.06,-75.5 448.06,-56.5 325.06,-56.5"/>
<text text-anchor="middle" x="386.56" y="-63.5" font-family="Helvetica,sans-Serif" font-size="10.00">../misc/preprocessor.h</text>
</a>
</g>
</g>
<!-- Node7&#45;&gt;Node8 -->
<g id="edge9" class="edge">
<title>Node7&#45;&gt;Node8</title>
<path fill="none" stroke="midnightblue" d="M386.56,-112.08C386.56,-105.01 386.56,-94.86 386.56,-85.99"/>
<polygon fill="midnightblue" stroke="midnightblue" points="390.06,-85.75 386.56,-75.75 383.06,-85.75 390.06,-85.75"/>
</g>
<!-- Node9 -->
<g id="node9" class="node">
<title>Node9</title>
<g id="a_node9"><a xlink:title=" ">
<polygon fill="none" stroke="#bfbfbf" points="291.56,-0.5 291.56,-19.5 391.56,-19.5 391.56,-0.5 291.56,-0.5"/>
<text text-anchor="middle" x="341.56" y="-7.5" font-family="Helvetica,sans-Serif" font-size="10.00">limes_platform.h</text>
</a>
</g>
</g>
<!-- Node7&#45;&gt;Node9 -->
<g id="edge16" class="edge">
<title>Node7&#45;&gt;Node9</title>
<path fill="none" stroke="midnightblue" d="M362.09,-112.44C345.99,-105.38 326.18,-93.63 316.56,-76 308,-60.33 317.63,-41.11 327.32,-27.65"/>
<polygon fill="midnightblue" stroke="midnightblue" points="330.1,-29.77 333.5,-19.73 324.58,-25.46 330.1,-29.77"/>
</g>
<!-- Node10 -->
<g id="node10" class="node">
<title>Node10</title>
<g id="a_node10"><a xlink:title=" ">
<polygon fill="none" stroke="#bfbfbf" points="466.06,-56.5 466.06,-75.5 511.06,-75.5 511.06,-56.5 466.06,-56.5"/>
<text text-anchor="middle" x="488.56" y="-63.5" font-family="Helvetica,sans-Serif" font-size="10.00">utility</text>
</a>
</g>
</g>
<!-- Node7&#45;&gt;Node10 -->
<g id="edge12" class="edge">
<title>Node7&#45;&gt;Node10</title>
<path fill="none" stroke="midnightblue" d="M402.94,-112.32C419.23,-103.7 444.42,-90.36 463.27,-80.39"/>
<polygon fill="midnightblue" stroke="midnightblue" points="465.01,-83.43 472.21,-75.65 461.73,-77.24 465.01,-83.43"/>
</g>
<!-- Node11 -->
<g id="node11" class="node">
<title>Node11</title>
<g id="a_node11"><a xlink:href="_ignore_unused_8h.html" target="_top" xlink:title=" ">
<polygon fill="none" stroke="black" points="140.56,-56.5 140.56,-75.5 268.56,-75.5 268.56,-56.5 140.56,-56.5"/>
<text text-anchor="middle" x="204.56" y="-63.5" font-family="Helvetica,sans-Serif" font-size="10.00">../misc/IgnoreUnused.h</text>
</a>
</g>
</g>
<!-- Node7&#45;&gt;Node11 -->
<g id="edge13" class="edge">
<title>Node7&#45;&gt;Node11</title>
<path fill="none" stroke="midnightblue" d="M357.72,-112.44C326.7,-103.24 277.23,-88.56 242.94,-78.39"/>
<polygon fill="midnightblue" stroke="midnightblue" points="243.84,-75.01 233.26,-75.52 241.85,-81.72 243.84,-75.01"/>
</g>
<!-- Node12 -->
<g id="node12" class="node">
<title>Node12</title>
<g id="a_node12"><a xlink:title=" ">
<polygon fill="none" stroke="#bfbfbf" points="529.56,-56.5 529.56,-75.5 597.56,-75.5 597.56,-56.5 529.56,-56.5"/>
<text text-anchor="middle" x="563.56" y="-63.5" font-family="Helvetica,sans-Serif" font-size="10.00">filesystem</text>
</a>
</g>
</g>
<!-- Node7&#45;&gt;Node12 -->
<g id="edge17" class="edge">
<title>Node7&#45;&gt;Node12</title>
<path fill="none" stroke="midnightblue" d="M414.6,-112.44C444.64,-103.28 492.47,-88.69 525.8,-78.52"/>
<polygon fill="midnightblue" stroke="midnightblue" points="527.1,-81.78 535.64,-75.52 525.05,-75.09 527.1,-81.78"/>
</g>
<!-- Node8&#45;&gt;Node9 -->
<g id="edge10" class="edge">
<title>Node8&#45;&gt;Node9</title>
<path fill="none" stroke="midnightblue" d="M379.12,-56.08C372.7,-48.38 363.25,-37.03 355.43,-27.65"/>
<polygon fill="midnightblue" stroke="midnightblue" points="357.94,-25.19 348.85,-19.75 352.56,-29.67 357.94,-25.19"/>
</g>
<!-- Node11&#45;&gt;Node2 -->
<g id="edge15" class="edge">
<title>Node11&#45;&gt;Node2</title>
<path fill="none" stroke="midnightblue" d="M268.95,-56.74C347.1,-46.72 478.26,-29.89 557.86,-19.68"/>
<polygon fill="midnightblue" stroke="midnightblue" points="558.79,-23.09 568.26,-18.35 557.9,-16.15 558.79,-23.09"/>
</g>
<!-- Node11&#45;&gt;Node5 -->
<g id="edge14" class="edge">
<title>Node11&#45;&gt;Node5</title>
<path fill="none" stroke="midnightblue" d="M189.77,-56.32C175.29,-47.82 152.98,-34.73 136.06,-24.8"/>
<polygon fill="midnightblue" stroke="midnightblue" points="137.7,-21.7 127.3,-19.65 134.15,-27.74 137.7,-21.7"/>
</g>
</g>
</svg>
        <g id="navigator" transform="translate(0 0)" fill="#404254">
                <rect fill="#f2f5e9" fill-opacity="0.5" stroke="#606060" stroke-width=".5" x="0" y="0" width="60" height="60"/>
                <use id="zoomplus" xlink:href="#zoomPlus" x="17" y="9" onmousedown="handleZoom(evt,'in')"/>
                <use id="zoomminus" xlink:href="#zoomMin" x="42" y="9" onmousedown="handleZoom(evt,'out')"/>
                <use id="reset" xlink:href="#resetDef" x="30" y="36" onmousedown="handleReset()"/>
                <g id="arrowUp" xlink:href="#dirArrow" transform="translate(30 24)" onmousedown="handlePan(0,-1)">
                  <use xlink:href="#rim" fill="#404040">
                        <set attributeName="fill" to="#808080" begin="arrowUp.mouseover" end="arrowUp.mouseout"/>
                  </use>
                  <path fill="none" stroke="white" stroke-width="1.5" d="M0,-3.0v7 M-2.5,-0.5L0,-3.0L2.5,-0.5"/>
                </g>
                <g id="arrowRight" xlink:href="#dirArrow" transform="rotate(90) translate(36 -43)" onmousedown="handlePan(1,0)">
                  <use xlink:href="#rim" fill="#404040">
                        <set attributeName="fill" to="#808080" begin="arrowRight.mouseover" end="arrowRight.mouseout"/>
                  </use>
                  <path fill="none" stroke="white" stroke-width="1.5" d="M0,-3.0v7 M-2.5,-0.5L0,-3.0L2.5,-0.5"/>
                </g>
                <g id="arrowDown" xlink:href="#dirArrow" transform="rotate(180) translate(-30 -48)" onmousedown="handlePan(0,1)">
                  <use xlink:href="#rim" fill="#404040">
                        <set attributeName="fill" to="#808080" begin="arrowDown.mouseover" end="arrowDown.mouseout"/>
                  </use>
                  <path fill="none" stroke="white" stroke-width="1.5" d="M0,-3.0v7 M-2.5,-0.5L0,-3.0L2.5,-0.5"/>
                </g>
                <g id="arrowLeft" xlink:href="#dirArrow" transform="rotate(270) translate(-36 17)" onmousedown="handlePan(-1,0)">
                  <use xlink:href="#rim" fill="#404040">
                        <set attributeName="fill" to="#808080" begin="arrowLeft.mouseover" end="arrowLeft.mouseout"/>
                  </use>
                  <path fill="none" stroke="white" stroke-width="1.5" d="M0,-3.0v7 M-2.5,-0.5L0,-3.0L2.5,-0.5"/>
                </g>
        </g>
        <svg viewBox="0 0 15 15" width="100%" height="30px" preserveAspectRatio="xMaxYMin meet">
         <g id="arrow_out" transform="scale(0.3 0.3)">
          <a xlink:href="math_helpers_8h__incl_org.svg" target="_base">
           <rect id="button" ry="5" rx="5" y="6" x="6" height="38" width="38"
                fill="#f2f5e9" fill-opacity="0.5" stroke="#606060" stroke-width="1.0"/>
           <path id="arrow"
             d="M 11.500037,31.436501 C 11.940474,20.09759 22.043105,11.32322 32.158766,21.979434 L 37.068811,17.246167 C 37.068811,17.246167 37.088388,32 37.088388,32 L 22.160133,31.978069 C 22.160133,31.978069 26.997745,27.140456 26.997745,27.140456 C 18.528582,18.264221 13.291696,25.230495 11.500037,31.436501 z"
             style="fill:#404040;"/>
          </a>
         </g>
        </svg>
</svg>
