<?xml version="1.0" encoding="UTF-8" standalone="no"?>
<!DOCTYPE svg PUBLIC "-//W3C//DTD SVG 1.1//EN"
 "http://www.w3.org/Graphics/SVG/1.1/DTD/svg11.dtd">
<!-- Generated by graphviz version 2.43.0 (0)
 -->
<!-- Title: mathHelpers.h Pages: 1 -->
<svg width="754pt" height="207pt"
 viewBox="0.00 0.00 753.76 207.00" xmlns="http://www.w3.org/2000/svg" xmlns:xlink="http://www.w3.org/1999/xlink">
<g id="graph0" class="graph" transform="scale(1 1) rotate(0) translate(4 203)">
<title>mathHelpers.h</title>
<!-- Node1 -->
<g id="node1" class="node">
<title>Node1</title>
<g id="a_node1"><a xlink:title=" ">
<polygon fill="#bfbfbf" stroke="black" points="95.95,-179.5 95.95,-198.5 184.95,-198.5 184.95,-179.5 95.95,-179.5"/>
<text text-anchor="middle" x="140.45" y="-186.5" font-family="Helvetica,sans-Serif" font-size="10.00">mathHelpers.h</text>
</a>
</g>
</g>
<!-- Node2 -->
<g id="node2" class="node">
<title>Node2</title>
<g id="a_node2"><a xlink:href="limes__namespace_8h.html" target="_top" xlink:title=" ">
<polygon fill="none" stroke="black" points="152.45,-0.5 152.45,-19.5 266.45,-19.5 266.45,-0.5 152.45,-0.5"/>
<text text-anchor="middle" x="209.45" y="-7.5" font-family="Helvetica,sans-Serif" font-size="10.00">limes_namespace.h</text>
</a>
</g>
</g>
<!-- Node1&#45;&gt;Node2 -->
<g id="edge1" class="edge">
<title>Node1&#45;&gt;Node2</title>
<path fill="none" stroke="midnightblue" d="M95.86,-186.07C64.98,-182.12 25.89,-171.36 5.45,-143 -2.6,-131.82 -0.24,-124.55 5.45,-112 29.33,-59.37 92.51,-33.91 142.29,-21.75"/>
<polygon fill="midnightblue" stroke="midnightblue" points="143.09,-25.16 152.05,-19.49 141.52,-18.34 143.09,-25.16"/>
</g>
<!-- Node3 -->
<g id="node3" class="node">
<title>Node3</title>
<g id="a_node3"><a xlink:title=" ">
<polygon fill="none" stroke="#bfbfbf" points="14.95,-118 14.95,-137 61.95,-137 61.95,-118 14.95,-118"/>
<text text-anchor="middle" x="38.45" y="-125" font-family="Helvetica,sans-Serif" font-size="10.00">cmath</text>
</a>
</g>
</g>
<!-- Node1&#45;&gt;Node3 -->
<g id="edge2" class="edge">
<title>Node1&#45;&gt;Node3</title>
<path fill="none" stroke="midnightblue" d="M125.84,-179.48C109.1,-169.71 81.45,-153.58 61.73,-142.08"/>
<polygon fill="midnightblue" stroke="midnightblue" points="63.44,-139.02 53.04,-137.01 59.91,-145.07 63.44,-139.02"/>
</g>
<!-- Node4 -->
<g id="node4" class="node">
<title>Node4</title>
<g id="a_node4"><a xlink:title=" ">
<polygon fill="none" stroke="#bfbfbf" points="111.95,-56.5 111.95,-75.5 180.95,-75.5 180.95,-56.5 111.95,-56.5"/>
<text text-anchor="middle" x="146.45" y="-63.5" font-family="Helvetica,sans-Serif" font-size="10.00">type_traits</text>
</a>
</g>
</g>
<!-- Node1&#45;&gt;Node4 -->
<g id="edge3" class="edge">
<title>Node1&#45;&gt;Node4</title>
<path fill="none" stroke="midnightblue" d="M140.88,-179.3C141.85,-159.85 144.2,-112.49 145.51,-85.9"/>
<polygon fill="midnightblue" stroke="midnightblue" points="149.02,-85.78 146.02,-75.62 142.03,-85.44 149.02,-85.78"/>
</g>
<!-- Node5 -->
<g id="node5" class="node">
<title>Node5</title>
<g id="a_node5"><a xlink:title=" ">
<polygon fill="none" stroke="#bfbfbf" points="342.95,-0.5 342.95,-19.5 431.95,-19.5 431.95,-0.5 342.95,-0.5"/>
<text text-anchor="middle" x="387.45" y="-7.5" font-family="Helvetica,sans-Serif" font-size="10.00">limes_export.h</text>
</a>
</g>
</g>
<!-- Node1&#45;&gt;Node5 -->
<g id="edge4" class="edge">
<title>Node1&#45;&gt;Node5</title>
<path fill="none" stroke="midnightblue" d="M133.28,-179.47C115.02,-156.67 70.38,-93.53 102.45,-56 117.21,-38.73 254.09,-23.35 332.66,-15.84"/>
<polygon fill="midnightblue" stroke="midnightblue" points="333.24,-19.3 342.87,-14.88 332.59,-12.33 333.24,-19.3"/>
</g>
<!-- Node6 -->
<g id="node6" class="node">
<title>Node6</title>
<g id="a_node6"><a xlink:title=" ">
<polygon fill="none" stroke="#bfbfbf" points="168.45,-118 168.45,-137 232.45,-137 232.45,-118 168.45,-118"/>
<text text-anchor="middle" x="200.45" y="-125" font-family="Helvetica,sans-Serif" font-size="10.00">algorithm</text>
</a>
</g>
</g>
<!-- Node1&#45;&gt;Node6 -->
<g id="edge5" class="edge">
<title>Node1&#45;&gt;Node6</title>
<path fill="none" stroke="midnightblue" d="M149.05,-179.48C158.32,-170.28 173.27,-155.46 184.66,-144.16"/>
<polygon fill="midnightblue" stroke="midnightblue" points="187.23,-146.54 191.87,-137.01 182.31,-141.57 187.23,-146.54"/>
</g>
<!-- Node7 -->
<g id="node7" class="node">
<title>Node7</title>
<g id="a_node7"><a xlink:href="limes__assert_8h.html" target="_top" xlink:title=" ">
<polygon fill="none" stroke="black" points="319.45,-118 319.45,-137 455.45,-137 455.45,-118 319.45,-118"/>
<text text-anchor="middle" x="387.45" y="-125" font-family="Helvetica,sans-Serif" font-size="10.00">../system/limes_assert.h</text>
</a>
</g>
</g>
<!-- Node1&#45;&gt;Node7 -->
<g id="edge6" class="edge">
<title>Node1&#45;&gt;Node7</title>
<path fill="none" stroke="midnightblue" d="M175.84,-179.48C219.68,-168.92 294.42,-150.91 342.33,-139.37"/>
<polygon fill="midnightblue" stroke="midnightblue" points="343.23,-142.75 352.13,-137.01 341.59,-135.95 343.23,-142.75"/>
</g>
<!-- Node13 -->
<g id="node13" class="node">
<title>Node13</title>
<g id="a_node13"><a xlink:href="compiler__defs_8h.html" target="_top" xlink:title=" ">
<polygon fill="none" stroke="black" points="617.95,-112.5 617.95,-142.5 724.95,-142.5 724.95,-112.5 617.95,-112.5"/>
<text text-anchor="start" x="625.95" y="-130.5" font-family="Helvetica,sans-Serif" font-size="10.00">../system/compiler</text>
<text text-anchor="middle" x="671.45" y="-119.5" font-family="Helvetica,sans-Serif" font-size="10.00">_defs.h</text>
</a>
</g>
</g>
<!-- Node1&#45;&gt;Node13 -->
<g id="edge19" class="edge">
<title>Node1&#45;&gt;Node13</title>
<path fill="none" stroke="midnightblue" d="M185.27,-182.98C279.49,-172.42 498.39,-147.89 607.4,-135.68"/>
<polygon fill="midnightblue" stroke="midnightblue" points="608.05,-139.13 617.6,-134.53 607.27,-132.17 608.05,-139.13"/>
</g>
<!-- Node7&#45;&gt;Node2 -->
<g id="edge8" class="edge">
<title>Node7&#45;&gt;Node2</title>
<path fill="none" stroke="midnightblue" d="M319.08,-119.52C287.68,-112.98 252.24,-100.34 228.45,-76 216.52,-63.79 212.01,-44.52 210.34,-30.13"/>
<polygon fill="midnightblue" stroke="midnightblue" points="213.81,-29.55 209.53,-19.86 206.83,-30.11 213.81,-29.55"/>
</g>
<!-- Node7&#45;&gt;Node4 -->
<g id="edge11" class="edge">
<title>Node7&#45;&gt;Node4</title>
<path fill="none" stroke="midnightblue" d="M352.92,-117.98C310.24,-107.44 237.53,-89.49 190.77,-77.94"/>
<polygon fill="midnightblue" stroke="midnightblue" points="191.46,-74.51 180.92,-75.51 189.79,-81.3 191.46,-74.51"/>
</g>
<!-- Node7&#45;&gt;Node5 -->
<g id="edge7" class="edge">
<title>Node7&#45;&gt;Node5</title>
<path fill="none" stroke="midnightblue" d="M409.27,-117.88C435.85,-105.98 475.48,-82.92 460.45,-56 452.3,-41.39 437.23,-30.94 422.9,-23.8"/>
<polygon fill="midnightblue" stroke="midnightblue" points="424.21,-20.56 413.66,-19.59 421.3,-26.92 424.21,-20.56"/>
</g>
<!-- Node8 -->
<g id="node8" class="node">
<title>Node8</title>
<g id="a_node8"><a xlink:href="preprocessor_8h.html" target="_top" xlink:title=" ">
<polygon fill="none" stroke="black" points="609.95,-56.5 609.95,-75.5 732.95,-75.5 732.95,-56.5 609.95,-56.5"/>
<text text-anchor="middle" x="671.45" y="-63.5" font-family="Helvetica,sans-Serif" font-size="10.00">../misc/preprocessor.h</text>
</a>
</g>
</g>
<!-- Node7&#45;&gt;Node8 -->
<g id="edge9" class="edge">
<title>Node7&#45;&gt;Node8</title>
<path fill="none" stroke="midnightblue" d="M428.14,-117.98C478.97,-107.33 565.92,-89.11 620.95,-77.58"/>
<polygon fill="midnightblue" stroke="midnightblue" points="621.77,-80.99 630.84,-75.51 620.33,-74.13 621.77,-80.99"/>
</g>
<!-- Node9 -->
<g id="node9" class="node">
<title>Node9</title>
<g id="a_node9"><a xlink:title=" ">
<polygon fill="none" stroke="#bfbfbf" points="576.45,-0.5 576.45,-19.5 676.45,-19.5 676.45,-0.5 576.45,-0.5"/>
<text text-anchor="middle" x="626.45" y="-7.5" font-family="Helvetica,sans-Serif" font-size="10.00">limes_platform.h</text>
</a>
</g>
</g>
<!-- Node7&#45;&gt;Node9 -->
<g id="edge17" class="edge">
<title>Node7&#45;&gt;Node9</title>
<path fill="none" stroke="midnightblue" d="M442.03,-117.97C477.82,-110.66 524.63,-97.77 561.45,-76 582.61,-63.49 601.84,-42.5 613.8,-27.77"/>
<polygon fill="midnightblue" stroke="midnightblue" points="616.84,-29.56 620.26,-19.53 611.33,-25.24 616.84,-29.56"/>
</g>
<!-- Node10 -->
<g id="node10" class="node">
<title>Node10</title>
<g id="a_node10"><a xlink:title=" ">
<polygon fill="none" stroke="#bfbfbf" points="507.95,-56.5 507.95,-75.5 552.95,-75.5 552.95,-56.5 507.95,-56.5"/>
<text text-anchor="middle" x="530.45" y="-63.5" font-family="Helvetica,sans-Serif" font-size="10.00">utility</text>
</a>
</g>
</g>
<!-- Node7&#45;&gt;Node10 -->
<g id="edge12" class="edge">
<title>Node7&#45;&gt;Node10</title>
<path fill="none" stroke="midnightblue" d="M407.94,-117.98C432.26,-107.86 473,-90.9 500.77,-79.35"/>
<polygon fill="midnightblue" stroke="midnightblue" points="502.11,-82.58 510,-75.51 499.42,-76.12 502.11,-82.58"/>
</g>
<!-- Node11 -->
<g id="node11" class="node">
<title>Node11</title>
<g id="a_node11"><a xlink:href="_ignore_unused_8h.html" target="_top" xlink:title=" ">
<polygon fill="none" stroke="black" points="323.45,-56.5 323.45,-75.5 451.45,-75.5 451.45,-56.5 323.45,-56.5"/>
<text text-anchor="middle" x="387.45" y="-63.5" font-family="Helvetica,sans-Serif" font-size="10.00">../misc/IgnoreUnused.h</text>
</a>
</g>
</g>
<!-- Node7&#45;&gt;Node11 -->
<g id="edge13" class="edge">
<title>Node7&#45;&gt;Node11</title>
<path fill="none" stroke="midnightblue" d="M387.45,-117.98C387.45,-109.58 387.45,-96.48 387.45,-85.66"/>
<polygon fill="midnightblue" stroke="midnightblue" points="390.95,-85.51 387.45,-75.51 383.95,-85.51 390.95,-85.51"/>
</g>
<!-- Node12 -->
<g id="node12" class="node">
<title>Node12</title>
<g id="a_node12"><a xlink:title=" ">
<polygon fill="none" stroke="#bfbfbf" points="237.45,-56.5 237.45,-75.5 305.45,-75.5 305.45,-56.5 237.45,-56.5"/>
<text text-anchor="middle" x="271.45" y="-63.5" font-family="Helvetica,sans-Serif" font-size="10.00">filesystem</text>
</a>
</g>
</g>
<!-- Node7&#45;&gt;Node12 -->
<g id="edge18" class="edge">
<title>Node7&#45;&gt;Node12</title>
<path fill="none" stroke="midnightblue" d="M370.83,-117.98C351.54,-108.08 319.49,-91.64 297.02,-80.12"/>
<polygon fill="midnightblue" stroke="midnightblue" points="298.54,-76.96 288.04,-75.51 295.34,-83.19 298.54,-76.96"/>
</g>
<!-- Node8&#45;&gt;Node9 -->
<g id="edge10" class="edge">
<title>Node8&#45;&gt;Node9</title>
<path fill="none" stroke="midnightblue" d="M664.02,-56.08C657.6,-48.38 648.15,-37.03 640.33,-27.65"/>
<polygon fill="midnightblue" stroke="midnightblue" points="642.83,-25.19 633.74,-19.75 637.46,-29.67 642.83,-25.19"/>
</g>
<!-- Node11&#45;&gt;Node2 -->
<g id="edge15" class="edge">
<title>Node11&#45;&gt;Node2</title>
<path fill="none" stroke="midnightblue" d="M359.25,-56.44C329.04,-47.28 280.94,-32.69 247.42,-22.52"/>
<polygon fill="midnightblue" stroke="midnightblue" points="248.11,-19.07 237.52,-19.52 246.08,-25.77 248.11,-19.07"/>
</g>
<!-- Node11&#45;&gt;Node5 -->
<g id="edge14" class="edge">
<title>Node11&#45;&gt;Node5</title>
<path fill="none" stroke="midnightblue" d="M387.45,-56.08C387.45,-49.01 387.45,-38.86 387.45,-29.99"/>
<polygon fill="midnightblue" stroke="midnightblue" points="390.95,-29.75 387.45,-19.75 383.95,-29.75 390.95,-29.75"/>
</g>
<!-- Node11&#45;&gt;Node9 -->
<g id="edge16" class="edge">
<title>Node11&#45;&gt;Node9</title>
<path fill="none" stroke="midnightblue" d="M425.32,-56.44C466.93,-47.04 533.82,-31.93 578.92,-21.74"/>
<polygon fill="midnightblue" stroke="midnightblue" points="579.78,-25.13 588.76,-19.52 578.23,-18.31 579.78,-25.13"/>
</g>
<!-- Node13&#45;&gt;Node8 -->
<g id="edge21" class="edge">
<title>Node13&#45;&gt;Node8</title>
<path fill="none" stroke="midnightblue" d="M671.45,-112.4C671.45,-104.47 671.45,-94.46 671.45,-85.86"/>
<polygon fill="midnightblue" stroke="midnightblue" points="674.95,-85.66 671.45,-75.66 667.95,-85.66 674.95,-85.66"/>
</g>
<!-- Node13&#45;&gt;Node9 -->
<g id="edge20" class="edge">
<title>Node13&#45;&gt;Node9</title>
<path fill="none" stroke="midnightblue" d="M703.07,-112.29C728.05,-99 756.43,-77.94 741.45,-56 728.83,-37.5 707.36,-26.61 686.36,-20.19"/>
<polygon fill="midnightblue" stroke="midnightblue" points="687.03,-16.75 676.46,-17.47 685.18,-23.5 687.03,-16.75"/>
</g>
</g>
</svg>
