<?xml version="1.0" encoding="UTF-8" standalone="no"?>
<!DOCTYPE svg PUBLIC "-//W3C//DTD SVG 1.1//EN"
 "http://www.w3.org/Graphics/SVG/1.1/DTD/svg11.dtd">
<!-- Generated by graphviz version 2.43.0 (0)
 -->
<!-- Title: matrix.h Pages: 1 -->
<!--zoomable 196 -->
<svg id="main" version="1.1" xmlns="http://www.w3.org/2000/svg" xmlns:xlink="http://www.w3.org/1999/xlink" xml:space="preserve" onload="init(evt)">
<style type="text/css"><![CDATA[
.edge:hover path { stroke: red; }
.edge:hover polygon { stroke: red; fill: red; }
]]></style>
<script type="text/javascript"><![CDATA[
var edges = document.getElementsByTagName('g');
if (edges && edges.length) {
  for (var i=0;i<edges.length;i++) {
    if (edges[i].id.substr(0,4)=='edge') {
      edges[i].setAttribute('class','edge');
    }
  }
}
]]></script>
        <defs>
                <circle id="rim" cx="0" cy="0" r="7"/>
                <circle id="rim2" cx="0" cy="0" r="3.5"/>
                <g id="zoomPlus">
                        <use xlink:href="#rim" fill="#404040">
                                <set attributeName="fill" to="#808080" begin="zoomplus.mouseover" end="zoomplus.mouseout"/>
                        </use>
                        <path d="M-4,0h8M0,-4v8" fill="none" stroke="white" stroke-width="1.5" pointer-events="none"/>
                </g>
                <g id="zoomMin">
                        <use xlink:href="#rim" fill="#404040">
                                <set attributeName="fill" to="#808080" begin="zoomminus.mouseover" end="zoomminus.mouseout"/>
                        </use>
                        <path d="M-4,0h8" fill="none" stroke="white" stroke-width="1.5" pointer-events="none"/>
                </g>
                <g id="dirArrow">
                        <path fill="none" stroke="white" stroke-width="1.5" d="M0,-3.0v7 M-2.5,-0.5L0,-3.0L2.5,-0.5"/>
                </g>
               <g id="resetDef">
                       <use xlink:href="#rim2" fill="#404040">
                               <set attributeName="fill" to="#808080" begin="reset.mouseover" end="reset.mouseout"/>
                       </use>
               </g>
        </defs>

<script type="text/javascript">
var viewWidth = 824;
var viewHeight = 196;
var sectionId = 'dynsection-0';
</script>
<script xlink:href="svgpan.js"/>
<svg id="graph" class="graph">
<g id="viewport">
<title>matrix.h</title>
<!-- Node1 -->
<g id="node1" class="node">
<title>Node1</title>
<g id="a_node1"><a xlink:title=" ">
<polygon fill="#bfbfbf" stroke="black" points="633.26,-168.5 633.26,-187.5 691.26,-187.5 691.26,-168.5 633.26,-168.5"/>
<text text-anchor="middle" x="662.26" y="-175.5" font-family="Helvetica,sans-Serif" font-size="10.00">matrix.h</text>
</a>
</g>
</g>
<!-- Node2 -->
<g id="node2" class="node">
<title>Node2</title>
<g id="a_node2"><a xlink:href="limes__namespace_8h.html" target="_top" xlink:title=" ">
<polygon fill="none" stroke="black" points="387.26,-0.5 387.26,-19.5 501.26,-19.5 501.26,-0.5 387.26,-0.5"/>
<text text-anchor="middle" x="444.26" y="-7.5" font-family="Helvetica,sans-Serif" font-size="10.00">limes_namespace.h</text>
</a>
</g>
</g>
<!-- Node1&#45;&gt;Node2 -->
<g id="edge1" class="edge">
<title>Node1&#45;&gt;Node2</title>
<path fill="none" stroke="midnightblue" d="M660.77,-168.49C656.44,-146.41 641.8,-86.87 605.26,-56 579.16,-33.94 543,-22.66 511.57,-16.9"/>
<polygon fill="midnightblue" stroke="midnightblue" points="511.99,-13.42 501.54,-15.22 510.83,-20.32 511.99,-13.42"/>
</g>
<!-- Node3 -->
<g id="node3" class="node">
<title>Node3</title>
<g id="a_node3"><a xlink:title=" ">
<polygon fill="none" stroke="#bfbfbf" points="215.76,-0.5 215.76,-19.5 304.76,-19.5 304.76,-0.5 215.76,-0.5"/>
<text text-anchor="middle" x="260.26" y="-7.5" font-family="Helvetica,sans-Serif" font-size="10.00">limes_export.h</text>
</a>
</g>
</g>
<!-- Node1&#45;&gt;Node3 -->
<g id="edge2" class="edge">
<title>Node1&#45;&gt;Node3</title>
<path fill="none" stroke="midnightblue" d="M633.25,-177.41C516.69,-178.35 84.91,-175.02 4.26,-76 -1.35,-69.11 -1.45,-62.81 4.26,-56 29.44,-26 138.18,-16 205.58,-12.66"/>
<polygon fill="midnightblue" stroke="midnightblue" points="205.79,-16.16 215.62,-12.2 205.47,-9.16 205.79,-16.16"/>
</g>
<!-- Node4 -->
<g id="node4" class="node">
<title>Node4</title>
<g id="a_node4"><a xlink:href="limes__assert_8h.html" target="_top" xlink:title=" ">
<polygon fill="none" stroke="black" points="284.26,-112.5 284.26,-131.5 420.26,-131.5 420.26,-112.5 284.26,-112.5"/>
<text text-anchor="middle" x="352.26" y="-119.5" font-family="Helvetica,sans-Serif" font-size="10.00">../system/limes_assert.h</text>
</a>
</g>
</g>
<!-- Node1&#45;&gt;Node4 -->
<g id="edge3" class="edge">
<title>Node1&#45;&gt;Node4</title>
<path fill="none" stroke="midnightblue" d="M633.1,-171.92C582.49,-163.1 477.48,-144.81 411.19,-133.26"/>
<polygon fill="midnightblue" stroke="midnightblue" points="411.75,-129.81 401.3,-131.54 410.55,-136.71 411.75,-129.81"/>
</g>
<!-- Node11 -->
<g id="node11" class="node">
<title>Node11</title>
<g id="a_node11"><a xlink:title=" ">
<polygon fill="none" stroke="#bfbfbf" points="690.26,-112.5 690.26,-131.5 732.26,-131.5 732.26,-112.5 690.26,-112.5"/>
<text text-anchor="middle" x="711.26" y="-119.5" font-family="Helvetica,sans-Serif" font-size="10.00">array</text>
</a>
</g>
</g>
<!-- Node1&#45;&gt;Node11 -->
<g id="edge15" class="edge">
<title>Node1&#45;&gt;Node11</title>
<path fill="none" stroke="midnightblue" d="M670.35,-168.08C677.42,-160.3 687.85,-148.8 696.41,-139.37"/>
<polygon fill="midnightblue" stroke="midnightblue" points="699.19,-141.51 703.32,-131.75 694.01,-136.8 699.19,-141.51"/>
</g>
<!-- Node12 -->
<g id="node12" class="node">
<title>Node12</title>
<g id="a_node12"><a xlink:title=" ">
<polygon fill="none" stroke="#bfbfbf" points="750.76,-112.5 750.76,-131.5 815.76,-131.5 815.76,-112.5 750.76,-112.5"/>
<text text-anchor="middle" x="783.26" y="-119.5" font-family="Helvetica,sans-Serif" font-size="10.00">functional</text>
</a>
</g>
</g>
<!-- Node1&#45;&gt;Node12 -->
<g id="edge16" class="edge">
<title>Node1&#45;&gt;Node12</title>
<path fill="none" stroke="midnightblue" d="M681.43,-168.44C701.17,-159.64 732.15,-145.81 754.75,-135.72"/>
<polygon fill="midnightblue" stroke="midnightblue" points="756.47,-138.79 764.18,-131.52 753.62,-132.4 756.47,-138.79"/>
</g>
<!-- Node4&#45;&gt;Node2 -->
<g id="edge5" class="edge">
<title>Node4&#45;&gt;Node2</title>
<path fill="none" stroke="midnightblue" d="M374.49,-112.49C390.79,-105.16 412.26,-93.05 425.26,-76 435.5,-62.57 440.23,-43.76 442.41,-29.82"/>
<polygon fill="midnightblue" stroke="midnightblue" points="445.88,-30.25 443.67,-19.89 438.94,-29.37 445.88,-30.25"/>
</g>
<!-- Node4&#45;&gt;Node3 -->
<g id="edge4" class="edge">
<title>Node4&#45;&gt;Node3</title>
<path fill="none" stroke="midnightblue" d="M330.03,-112.49C313.73,-105.16 292.26,-93.05 279.26,-76 269.02,-62.57 264.29,-43.76 262.11,-29.82"/>
<polygon fill="midnightblue" stroke="midnightblue" points="265.58,-29.37 260.85,-19.89 258.64,-30.25 265.58,-29.37"/>
</g>
<!-- Node5 -->
<g id="node5" class="node">
<title>Node5</title>
<g id="a_node5"><a xlink:href="preprocessor_8h.html" target="_top" xlink:title=" ">
<polygon fill="none" stroke="black" points="472.76,-56.5 472.76,-75.5 595.76,-75.5 595.76,-56.5 472.76,-56.5"/>
<text text-anchor="middle" x="534.26" y="-63.5" font-family="Helvetica,sans-Serif" font-size="10.00">../misc/preprocessor.h</text>
</a>
</g>
</g>
<!-- Node4&#45;&gt;Node5 -->
<g id="edge6" class="edge">
<title>Node4&#45;&gt;Node5</title>
<path fill="none" stroke="midnightblue" d="M381.1,-112.44C412.12,-103.24 461.59,-88.56 495.88,-78.39"/>
<polygon fill="midnightblue" stroke="midnightblue" points="496.97,-81.72 505.56,-75.52 494.98,-75.01 496.97,-81.72"/>
</g>
<!-- Node6 -->
<g id="node6" class="node">
<title>Node6</title>
<g id="a_node6"><a xlink:title=" ">
<polygon fill="none" stroke="#bfbfbf" points="546.26,-0.5 546.26,-19.5 646.26,-19.5 646.26,-0.5 546.26,-0.5"/>
<text text-anchor="middle" x="596.26" y="-7.5" font-family="Helvetica,sans-Serif" font-size="10.00">limes_platform.h</text>
</a>
</g>
</g>
<!-- Node4&#45;&gt;Node6 -->
<g id="edge13" class="edge">
<title>Node4&#45;&gt;Node6</title>
<path fill="none" stroke="midnightblue" d="M420.47,-118.44C487.2,-114.33 582.09,-103.66 605.26,-76 616.09,-63.07 611.39,-43.35 605.49,-29.03"/>
<polygon fill="midnightblue" stroke="midnightblue" points="608.56,-27.33 601.19,-19.72 602.21,-30.27 608.56,-27.33"/>
</g>
<!-- Node7 -->
<g id="node7" class="node">
<title>Node7</title>
<g id="a_node7"><a xlink:title=" ">
<polygon fill="none" stroke="#bfbfbf" points="13.76,-56.5 13.76,-75.5 82.76,-75.5 82.76,-56.5 13.76,-56.5"/>
<text text-anchor="middle" x="48.26" y="-63.5" font-family="Helvetica,sans-Serif" font-size="10.00">type_traits</text>
</a>
</g>
</g>
<!-- Node4&#45;&gt;Node7 -->
<g id="edge8" class="edge">
<title>Node4&#45;&gt;Node7</title>
<path fill="none" stroke="midnightblue" d="M299.67,-112.5C249.05,-104.19 170.11,-90.89 92.87,-76.26"/>
<polygon fill="midnightblue" stroke="midnightblue" points="93.45,-72.81 82.97,-74.38 92.14,-79.68 93.45,-72.81"/>
</g>
<!-- Node8 -->
<g id="node8" class="node">
<title>Node8</title>
<g id="a_node8"><a xlink:title=" ">
<polygon fill="none" stroke="#bfbfbf" points="100.76,-56.5 100.76,-75.5 145.76,-75.5 145.76,-56.5 100.76,-56.5"/>
<text text-anchor="middle" x="123.26" y="-63.5" font-family="Helvetica,sans-Serif" font-size="10.00">utility</text>
</a>
</g>
</g>
<!-- Node4&#45;&gt;Node8 -->
<g id="edge9" class="edge">
<title>Node4&#45;&gt;Node8</title>
<path fill="none" stroke="midnightblue" d="M312.13,-112.44C274.32,-104.25 215.89,-91.23 155.97,-76.08"/>
<polygon fill="midnightblue" stroke="midnightblue" points="156.5,-72.61 145.95,-73.53 154.78,-79.39 156.5,-72.61"/>
</g>
<!-- Node9 -->
<g id="node9" class="node">
<title>Node9</title>
<g id="a_node9"><a xlink:href="_ignore_unused_8h.html" target="_top" xlink:title=" ">
<polygon fill="none" stroke="black" points="288.26,-56.5 288.26,-75.5 416.26,-75.5 416.26,-56.5 288.26,-56.5"/>
<text text-anchor="middle" x="352.26" y="-63.5" font-family="Helvetica,sans-Serif" font-size="10.00">../misc/IgnoreUnused.h</text>
</a>
</g>
</g>
<!-- Node4&#45;&gt;Node9 -->
<g id="edge10" class="edge">
<title>Node4&#45;&gt;Node9</title>
<path fill="none" stroke="midnightblue" d="M352.26,-112.08C352.26,-105.01 352.26,-94.86 352.26,-85.99"/>
<polygon fill="midnightblue" stroke="midnightblue" points="355.76,-85.75 352.26,-75.75 348.76,-85.75 355.76,-85.75"/>
</g>
<!-- Node10 -->
<g id="node10" class="node">
<title>Node10</title>
<g id="a_node10"><a xlink:title=" ">
<polygon fill="none" stroke="#bfbfbf" points="164.26,-56.5 164.26,-75.5 232.26,-75.5 232.26,-56.5 164.26,-56.5"/>
<text text-anchor="middle" x="198.26" y="-63.5" font-family="Helvetica,sans-Serif" font-size="10.00">filesystem</text>
</a>
</g>
</g>
<!-- Node4&#45;&gt;Node10 -->
<g id="edge14" class="edge">
<title>Node4&#45;&gt;Node10</title>
<path fill="none" stroke="midnightblue" d="M327.86,-112.44C302.06,-103.4 261.18,-89.06 232.24,-78.92"/>
<polygon fill="midnightblue" stroke="midnightblue" points="233.14,-75.52 222.55,-75.52 230.83,-82.13 233.14,-75.52"/>
</g>
<!-- Node5&#45;&gt;Node6 -->
<g id="edge7" class="edge">
<title>Node5&#45;&gt;Node6</title>
<path fill="none" stroke="midnightblue" d="M544.22,-56.32C553.39,-48.34 567.2,-36.31 578.29,-26.65"/>
<polygon fill="midnightblue" stroke="midnightblue" points="580.88,-29.04 586.12,-19.83 576.28,-23.76 580.88,-29.04"/>
</g>
<!-- Node9&#45;&gt;Node2 -->
<g id="edge12" class="edge">
<title>Node9&#45;&gt;Node2</title>
<path fill="none" stroke="midnightblue" d="M367.04,-56.32C381.53,-47.82 403.83,-34.73 420.75,-24.8"/>
<polygon fill="midnightblue" stroke="midnightblue" points="422.66,-27.74 429.52,-19.65 419.12,-21.7 422.66,-27.74"/>
</g>
<!-- Node9&#45;&gt;Node3 -->
<g id="edge11" class="edge">
<title>Node9&#45;&gt;Node3</title>
<path fill="none" stroke="midnightblue" d="M337.48,-56.32C322.99,-47.82 300.69,-34.73 283.77,-24.8"/>
<polygon fill="midnightblue" stroke="midnightblue" points="285.4,-21.7 275.01,-19.65 281.86,-27.74 285.4,-21.7"/>
</g>
</g>
</svg>
        <g id="navigator" transform="translate(0 0)" fill="#404254">
                <rect fill="#f2f5e9" fill-opacity="0.5" stroke="#606060" stroke-width=".5" x="0" y="0" width="60" height="60"/>
                <use id="zoomplus" xlink:href="#zoomPlus" x="17" y="9" onmousedown="handleZoom(evt,'in')"/>
                <use id="zoomminus" xlink:href="#zoomMin" x="42" y="9" onmousedown="handleZoom(evt,'out')"/>
                <use id="reset" xlink:href="#resetDef" x="30" y="36" onmousedown="handleReset()"/>
                <g id="arrowUp" xlink:href="#dirArrow" transform="translate(30 24)" onmousedown="handlePan(0,-1)">
                  <use xlink:href="#rim" fill="#404040">
                        <set attributeName="fill" to="#808080" begin="arrowUp.mouseover" end="arrowUp.mouseout"/>
                  </use>
                  <path fill="none" stroke="white" stroke-width="1.5" d="M0,-3.0v7 M-2.5,-0.5L0,-3.0L2.5,-0.5"/>
                </g>
                <g id="arrowRight" xlink:href="#dirArrow" transform="rotate(90) translate(36 -43)" onmousedown="handlePan(1,0)">
                  <use xlink:href="#rim" fill="#404040">
                        <set attributeName="fill" to="#808080" begin="arrowRight.mouseover" end="arrowRight.mouseout"/>
                  </use>
                  <path fill="none" stroke="white" stroke-width="1.5" d="M0,-3.0v7 M-2.5,-0.5L0,-3.0L2.5,-0.5"/>
                </g>
                <g id="arrowDown" xlink:href="#dirArrow" transform="rotate(180) translate(-30 -48)" onmousedown="handlePan(0,1)">
                  <use xlink:href="#rim" fill="#404040">
                        <set attributeName="fill" to="#808080" begin="arrowDown.mouseover" end="arrowDown.mouseout"/>
                  </use>
                  <path fill="none" stroke="white" stroke-width="1.5" d="M0,-3.0v7 M-2.5,-0.5L0,-3.0L2.5,-0.5"/>
                </g>
                <g id="arrowLeft" xlink:href="#dirArrow" transform="rotate(270) translate(-36 17)" onmousedown="handlePan(-1,0)">
                  <use xlink:href="#rim" fill="#404040">
                        <set attributeName="fill" to="#808080" begin="arrowLeft.mouseover" end="arrowLeft.mouseout"/>
                  </use>
                  <path fill="none" stroke="white" stroke-width="1.5" d="M0,-3.0v7 M-2.5,-0.5L0,-3.0L2.5,-0.5"/>
                </g>
        </g>
        <svg viewBox="0 0 15 15" width="100%" height="30px" preserveAspectRatio="xMaxYMin meet">
         <g id="arrow_out" transform="scale(0.3 0.3)">
          <a xlink:href="matrix_8h__incl_org.svg" target="_base">
           <rect id="button" ry="5" rx="5" y="6" x="6" height="38" width="38"
                fill="#f2f5e9" fill-opacity="0.5" stroke="#606060" stroke-width="1.0"/>
           <path id="arrow"
             d="M 11.500037,31.436501 C 11.940474,20.09759 22.043105,11.32322 32.158766,21.979434 L 37.068811,17.246167 C 37.068811,17.246167 37.088388,32 37.088388,32 L 22.160133,31.978069 C 22.160133,31.978069 26.997745,27.140456 26.997745,27.140456 C 18.528582,18.264221 13.291696,25.230495 11.500037,31.436501 z"
             style="fill:#404040;"/>
          </a>
         </g>
        </svg>
</svg>
