<?xml version="1.0" encoding="UTF-8" standalone="no"?>
<!DOCTYPE svg PUBLIC "-//W3C//DTD SVG 1.1//EN"
 "http://www.w3.org/Graphics/SVG/1.1/DTD/svg11.dtd">
<!-- Generated by graphviz version 2.43.0 (0)
 -->
<!-- Title: matrix.h Pages: 1 -->
<!--zoomable 196 -->
<svg id="main" version="1.1" xmlns="http://www.w3.org/2000/svg" xmlns:xlink="http://www.w3.org/1999/xlink" xml:space="preserve" onload="init(evt)">
<style type="text/css"><![CDATA[
.edge:hover path { stroke: red; }
.edge:hover polygon { stroke: red; fill: red; }
]]></style>
<script type="text/javascript"><![CDATA[
var edges = document.getElementsByTagName('g');
if (edges && edges.length) {
  for (var i=0;i<edges.length;i++) {
    if (edges[i].id.substr(0,4)=='edge') {
      edges[i].setAttribute('class','edge');
    }
  }
}
]]></script>
        <defs>
                <circle id="rim" cx="0" cy="0" r="7"/>
                <circle id="rim2" cx="0" cy="0" r="3.5"/>
                <g id="zoomPlus">
                        <use xlink:href="#rim" fill="#404040">
                                <set attributeName="fill" to="#808080" begin="zoomplus.mouseover" end="zoomplus.mouseout"/>
                        </use>
                        <path d="M-4,0h8M0,-4v8" fill="none" stroke="white" stroke-width="1.5" pointer-events="none"/>
                </g>
                <g id="zoomMin">
                        <use xlink:href="#rim" fill="#404040">
                                <set attributeName="fill" to="#808080" begin="zoomminus.mouseover" end="zoomminus.mouseout"/>
                        </use>
                        <path d="M-4,0h8" fill="none" stroke="white" stroke-width="1.5" pointer-events="none"/>
                </g>
                <g id="dirArrow">
                        <path fill="none" stroke="white" stroke-width="1.5" d="M0,-3.0v7 M-2.5,-0.5L0,-3.0L2.5,-0.5"/>
                </g>
               <g id="resetDef">
                       <use xlink:href="#rim2" fill="#404040">
                               <set attributeName="fill" to="#808080" begin="reset.mouseover" end="reset.mouseout"/>
                       </use>
               </g>
        </defs>

<script type="text/javascript">
var viewWidth = 952;
var viewHeight = 196;
var sectionId = 'dynsection-0';
</script>
<script xlink:href="svgpan.js"/>
<svg id="graph" class="graph">
<g id="viewport">
<title>matrix.h</title>
<!-- Node1 -->
<g id="node1" class="node">
<title>Node1</title>
<g id="a_node1"><a xlink:title=" ">
<polygon fill="#bfbfbf" stroke="black" points="761.26,-168.5 761.26,-187.5 819.26,-187.5 819.26,-168.5 761.26,-168.5"/>
<text text-anchor="middle" x="790.26" y="-175.5" font-family="Helvetica,sans-Serif" font-size="10.00">matrix.h</text>
</a>
</g>
</g>
<!-- Node2 -->
<g id="node2" class="node">
<title>Node2</title>
<g id="a_node2"><a xlink:href="limes__namespace_8h.html" target="_top" xlink:title=" ">
<polygon fill="none" stroke="black" points="515.26,-0.5 515.26,-19.5 629.26,-19.5 629.26,-0.5 515.26,-0.5"/>
<text text-anchor="middle" x="572.26" y="-7.5" font-family="Helvetica,sans-Serif" font-size="10.00">limes_namespace.h</text>
</a>
</g>
</g>
<!-- Node1&#45;&gt;Node2 -->
<g id="edge1" class="edge">
<title>Node1&#45;&gt;Node2</title>
<path fill="none" stroke="midnightblue" d="M791.85,-168.3C795.31,-146.28 801.04,-87.83 771.26,-56 761.72,-45.8 688.43,-31.09 633.55,-21.3"/>
<polygon fill="midnightblue" stroke="midnightblue" points="633.99,-17.83 623.53,-19.53 632.77,-24.72 633.99,-17.83"/>
</g>
<!-- Node3 -->
<g id="node3" class="node">
<title>Node3</title>
<g id="a_node3"><a xlink:title=" ">
<polygon fill="none" stroke="#bfbfbf" points="343.76,-0.5 343.76,-19.5 432.76,-19.5 432.76,-0.5 343.76,-0.5"/>
<text text-anchor="middle" x="388.26" y="-7.5" font-family="Helvetica,sans-Serif" font-size="10.00">limes_export.h</text>
</a>
</g>
</g>
<!-- Node1&#45;&gt;Node3 -->
<g id="edge2" class="edge">
<title>Node1&#45;&gt;Node3</title>
<path fill="none" stroke="midnightblue" d="M761.18,-175.53C625.07,-168.33 55.5,-134.86 5.26,-76 -38.3,-24.96 217.28,-13.99 333.27,-11.64"/>
<polygon fill="midnightblue" stroke="midnightblue" points="333.44,-15.14 343.37,-11.45 333.31,-8.14 333.44,-15.14"/>
</g>
<!-- Node4 -->
<g id="node4" class="node">
<title>Node4</title>
<g id="a_node4"><a xlink:href="limes__assert_8h.html" target="_top" xlink:title=" ">
<polygon fill="none" stroke="black" points="366.26,-112.5 366.26,-131.5 502.26,-131.5 502.26,-112.5 366.26,-112.5"/>
<text text-anchor="middle" x="434.26" y="-119.5" font-family="Helvetica,sans-Serif" font-size="10.00">../system/limes_assert.h</text>
</a>
</g>
</g>
<!-- Node1&#45;&gt;Node4 -->
<g id="edge3" class="edge">
<title>Node1&#45;&gt;Node4</title>
<path fill="none" stroke="midnightblue" d="M761.13,-172.58C704.55,-164 578.53,-144.88 500.54,-133.05"/>
<polygon fill="midnightblue" stroke="midnightblue" points="500.75,-129.55 490.34,-131.51 499.7,-136.47 500.75,-129.55"/>
</g>
<!-- Node12 -->
<g id="node12" class="node">
<title>Node12</title>
<g id="a_node12"><a xlink:title=" ">
<polygon fill="none" stroke="#bfbfbf" points="818.26,-112.5 818.26,-131.5 860.26,-131.5 860.26,-112.5 818.26,-112.5"/>
<text text-anchor="middle" x="839.26" y="-119.5" font-family="Helvetica,sans-Serif" font-size="10.00">array</text>
</a>
</g>
</g>
<!-- Node1&#45;&gt;Node12 -->
<g id="edge16" class="edge">
<title>Node1&#45;&gt;Node12</title>
<path fill="none" stroke="midnightblue" d="M798.35,-168.08C805.42,-160.3 815.85,-148.8 824.41,-139.37"/>
<polygon fill="midnightblue" stroke="midnightblue" points="827.19,-141.51 831.32,-131.75 822.01,-136.8 827.19,-141.51"/>
</g>
<!-- Node13 -->
<g id="node13" class="node">
<title>Node13</title>
<g id="a_node13"><a xlink:title=" ">
<polygon fill="none" stroke="#bfbfbf" points="878.76,-112.5 878.76,-131.5 943.76,-131.5 943.76,-112.5 878.76,-112.5"/>
<text text-anchor="middle" x="911.26" y="-119.5" font-family="Helvetica,sans-Serif" font-size="10.00">functional</text>
</a>
</g>
</g>
<!-- Node1&#45;&gt;Node13 -->
<g id="edge17" class="edge">
<title>Node1&#45;&gt;Node13</title>
<path fill="none" stroke="midnightblue" d="M809.44,-168.44C829.17,-159.64 860.15,-145.81 882.76,-135.72"/>
<polygon fill="midnightblue" stroke="midnightblue" points="884.47,-138.79 892.18,-131.52 881.62,-132.4 884.47,-138.79"/>
</g>
<!-- Node4&#45;&gt;Node2 -->
<g id="edge5" class="edge">
<title>Node4&#45;&gt;Node2</title>
<path fill="none" stroke="midnightblue" d="M485.59,-112.46C509.12,-106.09 535.63,-95.05 553.26,-76 564.86,-63.47 569.41,-44.25 571.18,-29.95"/>
<polygon fill="midnightblue" stroke="midnightblue" points="574.69,-30.04 572.09,-19.77 567.72,-29.42 574.69,-30.04"/>
</g>
<!-- Node4&#45;&gt;Node3 -->
<g id="edge4" class="edge">
<title>Node4&#45;&gt;Node3</title>
<path fill="none" stroke="midnightblue" d="M428.18,-112.4C422.19,-103.59 413.11,-89.36 407.26,-76 400.64,-60.85 395.56,-42.73 392.32,-29.48"/>
<polygon fill="midnightblue" stroke="midnightblue" points="395.72,-28.61 390.05,-19.66 388.9,-30.19 395.72,-28.61"/>
</g>
<!-- Node5 -->
<g id="node5" class="node">
<title>Node5</title>
<g id="a_node5"><a xlink:href="preprocessor_8h.html" target="_top" xlink:title=" ">
<polygon fill="none" stroke="black" points="638.76,-56.5 638.76,-75.5 761.76,-75.5 761.76,-56.5 638.76,-56.5"/>
<text text-anchor="middle" x="700.26" y="-63.5" font-family="Helvetica,sans-Serif" font-size="10.00">../misc/preprocessor.h</text>
</a>
</g>
</g>
<!-- Node4&#45;&gt;Node5 -->
<g id="edge6" class="edge">
<title>Node4&#45;&gt;Node5</title>
<path fill="none" stroke="midnightblue" d="M476.41,-112.44C523.01,-102.98 598.11,-87.74 648.31,-77.55"/>
<polygon fill="midnightblue" stroke="midnightblue" points="649.21,-80.94 658.31,-75.52 647.81,-74.08 649.21,-80.94"/>
</g>
<!-- Node6 -->
<g id="node6" class="node">
<title>Node6</title>
<g id="a_node6"><a xlink:title=" ">
<polygon fill="none" stroke="#bfbfbf" points="648.26,-0.5 648.26,-19.5 748.26,-19.5 748.26,-0.5 648.26,-0.5"/>
<text text-anchor="middle" x="698.26" y="-7.5" font-family="Helvetica,sans-Serif" font-size="10.00">limes_platform.h</text>
</a>
</g>
</g>
<!-- Node4&#45;&gt;Node6 -->
<g id="edge14" class="edge">
<title>Node4&#45;&gt;Node6</title>
<path fill="none" stroke="midnightblue" d="M465.72,-112.44C494.25,-104.3 537.23,-91.08 573.26,-76 609.72,-60.75 649.94,-38.86 674.66,-24.78"/>
<polygon fill="midnightblue" stroke="midnightblue" points="676.71,-27.64 683.64,-19.63 673.22,-21.57 676.71,-27.64"/>
</g>
<!-- Node7 -->
<g id="node7" class="node">
<title>Node7</title>
<g id="a_node7"><a xlink:title=" ">
<polygon fill="none" stroke="#bfbfbf" points="14.76,-56.5 14.76,-75.5 83.76,-75.5 83.76,-56.5 14.76,-56.5"/>
<text text-anchor="middle" x="49.26" y="-63.5" font-family="Helvetica,sans-Serif" font-size="10.00">type_traits</text>
</a>
</g>
</g>
<!-- Node4&#45;&gt;Node7 -->
<g id="edge8" class="edge">
<title>Node4&#45;&gt;Node7</title>
<path fill="none" stroke="midnightblue" d="M366.23,-113.58C299.27,-105.93 193.93,-92.97 93.92,-76.18"/>
<polygon fill="midnightblue" stroke="midnightblue" points="94.4,-72.72 83.95,-74.5 93.23,-79.62 94.4,-72.72"/>
</g>
<!-- Node8 -->
<g id="node8" class="node">
<title>Node8</title>
<g id="a_node8"><a xlink:title=" ">
<polygon fill="none" stroke="#bfbfbf" points="101.76,-56.5 101.76,-75.5 146.76,-75.5 146.76,-56.5 101.76,-56.5"/>
<text text-anchor="middle" x="124.26" y="-63.5" font-family="Helvetica,sans-Serif" font-size="10.00">utility</text>
</a>
</g>
</g>
<!-- Node4&#45;&gt;Node8 -->
<g id="edge9" class="edge">
<title>Node4&#45;&gt;Node8</title>
<path fill="none" stroke="midnightblue" d="M366.73,-112.47C312.28,-105.06 233.6,-93.12 156.72,-76.12"/>
<polygon fill="midnightblue" stroke="midnightblue" points="157.39,-72.68 146.87,-73.91 155.86,-79.51 157.39,-72.68"/>
</g>
<!-- Node9 -->
<g id="node9" class="node">
<title>Node9</title>
<g id="a_node9"><a xlink:title=" ">
<polygon fill="none" stroke="#bfbfbf" points="164.76,-56.5 164.76,-75.5 273.76,-75.5 273.76,-56.5 164.76,-56.5"/>
<text text-anchor="middle" x="219.26" y="-63.5" font-family="Helvetica,sans-Serif" font-size="10.00">limes_build_type.h</text>
</a>
</g>
</g>
<!-- Node4&#45;&gt;Node9 -->
<g id="edge10" class="edge">
<title>Node4&#45;&gt;Node9</title>
<path fill="none" stroke="midnightblue" d="M400.2,-112.44C363.08,-103.12 303.6,-88.18 263.05,-78"/>
<polygon fill="midnightblue" stroke="midnightblue" points="263.72,-74.56 253.17,-75.52 262.02,-81.35 263.72,-74.56"/>
</g>
<!-- Node10 -->
<g id="node10" class="node">
<title>Node10</title>
<g id="a_node10"><a xlink:href="_ignore_unused_8h.html" target="_top" xlink:title=" ">
<polygon fill="none" stroke="black" points="416.26,-56.5 416.26,-75.5 544.26,-75.5 544.26,-56.5 416.26,-56.5"/>
<text text-anchor="middle" x="480.26" y="-63.5" font-family="Helvetica,sans-Serif" font-size="10.00">../misc/IgnoreUnused.h</text>
</a>
</g>
</g>
<!-- Node4&#45;&gt;Node10 -->
<g id="edge11" class="edge">
<title>Node4&#45;&gt;Node10</title>
<path fill="none" stroke="midnightblue" d="M441.86,-112.08C448.49,-104.3 458.28,-92.8 466.32,-83.37"/>
<polygon fill="midnightblue" stroke="midnightblue" points="468.99,-85.63 472.81,-75.75 463.66,-81.09 468.99,-85.63"/>
</g>
<!-- Node11 -->
<g id="node11" class="node">
<title>Node11</title>
<g id="a_node11"><a xlink:title=" ">
<polygon fill="none" stroke="#bfbfbf" points="292.26,-56.5 292.26,-75.5 360.26,-75.5 360.26,-56.5 292.26,-56.5"/>
<text text-anchor="middle" x="326.26" y="-63.5" font-family="Helvetica,sans-Serif" font-size="10.00">filesystem</text>
</a>
</g>
</g>
<!-- Node4&#45;&gt;Node11 -->
<g id="edge15" class="edge">
<title>Node4&#45;&gt;Node11</title>
<path fill="none" stroke="midnightblue" d="M416.91,-112.32C399.59,-103.66 372.75,-90.24 352.76,-80.25"/>
<polygon fill="midnightblue" stroke="midnightblue" points="354.08,-77 343.57,-75.65 350.95,-83.26 354.08,-77"/>
</g>
<!-- Node5&#45;&gt;Node6 -->
<g id="edge7" class="edge">
<title>Node5&#45;&gt;Node6</title>
<path fill="none" stroke="midnightblue" d="M699.93,-56.08C699.67,-49.01 699.29,-38.86 698.97,-29.99"/>
<polygon fill="midnightblue" stroke="midnightblue" points="702.45,-29.61 698.59,-19.75 695.46,-29.87 702.45,-29.61"/>
</g>
<!-- Node10&#45;&gt;Node2 -->
<g id="edge13" class="edge">
<title>Node10&#45;&gt;Node2</title>
<path fill="none" stroke="midnightblue" d="M495.04,-56.32C509.53,-47.82 531.84,-34.73 548.76,-24.8"/>
<polygon fill="midnightblue" stroke="midnightblue" points="550.67,-27.74 557.52,-19.65 547.12,-21.7 550.67,-27.74"/>
</g>
<!-- Node10&#45;&gt;Node3 -->
<g id="edge12" class="edge">
<title>Node10&#45;&gt;Node3</title>
<path fill="none" stroke="midnightblue" d="M465.48,-56.32C451,-47.82 428.69,-34.73 411.77,-24.8"/>
<polygon fill="midnightblue" stroke="midnightblue" points="413.4,-21.7 403.01,-19.65 409.86,-27.74 413.4,-21.7"/>
</g>
</g>
</svg>
        <g id="navigator" transform="translate(0 0)" fill="#404254">
                <rect fill="#f2f5e9" fill-opacity="0.5" stroke="#606060" stroke-width=".5" x="0" y="0" width="60" height="60"/>
                <use id="zoomplus" xlink:href="#zoomPlus" x="17" y="9" onmousedown="handleZoom(evt,'in')"/>
                <use id="zoomminus" xlink:href="#zoomMin" x="42" y="9" onmousedown="handleZoom(evt,'out')"/>
                <use id="reset" xlink:href="#resetDef" x="30" y="36" onmousedown="handleReset()"/>
                <g id="arrowUp" xlink:href="#dirArrow" transform="translate(30 24)" onmousedown="handlePan(0,-1)">
                  <use xlink:href="#rim" fill="#404040">
                        <set attributeName="fill" to="#808080" begin="arrowUp.mouseover" end="arrowUp.mouseout"/>
                  </use>
                  <path fill="none" stroke="white" stroke-width="1.5" d="M0,-3.0v7 M-2.5,-0.5L0,-3.0L2.5,-0.5"/>
                </g>
                <g id="arrowRight" xlink:href="#dirArrow" transform="rotate(90) translate(36 -43)" onmousedown="handlePan(1,0)">
                  <use xlink:href="#rim" fill="#404040">
                        <set attributeName="fill" to="#808080" begin="arrowRight.mouseover" end="arrowRight.mouseout"/>
                  </use>
                  <path fill="none" stroke="white" stroke-width="1.5" d="M0,-3.0v7 M-2.5,-0.5L0,-3.0L2.5,-0.5"/>
                </g>
                <g id="arrowDown" xlink:href="#dirArrow" transform="rotate(180) translate(-30 -48)" onmousedown="handlePan(0,1)">
                  <use xlink:href="#rim" fill="#404040">
                        <set attributeName="fill" to="#808080" begin="arrowDown.mouseover" end="arrowDown.mouseout"/>
                  </use>
                  <path fill="none" stroke="white" stroke-width="1.5" d="M0,-3.0v7 M-2.5,-0.5L0,-3.0L2.5,-0.5"/>
                </g>
                <g id="arrowLeft" xlink:href="#dirArrow" transform="rotate(270) translate(-36 17)" onmousedown="handlePan(-1,0)">
                  <use xlink:href="#rim" fill="#404040">
                        <set attributeName="fill" to="#808080" begin="arrowLeft.mouseover" end="arrowLeft.mouseout"/>
                  </use>
                  <path fill="none" stroke="white" stroke-width="1.5" d="M0,-3.0v7 M-2.5,-0.5L0,-3.0L2.5,-0.5"/>
                </g>
        </g>
        <svg viewBox="0 0 15 15" width="100%" height="30px" preserveAspectRatio="xMaxYMin meet">
         <g id="arrow_out" transform="scale(0.3 0.3)">
          <a xlink:href="matrix_8h__incl_org.svg" target="_base">
           <rect id="button" ry="5" rx="5" y="6" x="6" height="38" width="38"
                fill="#f2f5e9" fill-opacity="0.5" stroke="#606060" stroke-width="1.0"/>
           <path id="arrow"
             d="M 11.500037,31.436501 C 11.940474,20.09759 22.043105,11.32322 32.158766,21.979434 L 37.068811,17.246167 C 37.068811,17.246167 37.088388,32 37.088388,32 L 22.160133,31.978069 C 22.160133,31.978069 26.997745,27.140456 26.997745,27.140456 C 18.528582,18.264221 13.291696,25.230495 11.500037,31.436501 z"
             style="fill:#404040;"/>
          </a>
         </g>
        </svg>
</svg>
