<?xml version="1.0" encoding="UTF-8" standalone="no"?>
<!DOCTYPE svg PUBLIC "-//W3C//DTD SVG 1.1//EN"
 "http://www.w3.org/Graphics/SVG/1.1/DTD/svg11.dtd">
<!-- Generated by graphviz version 2.43.0 (0)
 -->
<!-- Title: month.h Pages: 1 -->
<svg width="1100pt" height="319pt"
 viewBox="0.00 0.00 1100.00 319.00" xmlns="http://www.w3.org/2000/svg" xmlns:xlink="http://www.w3.org/1999/xlink">
<g id="graph0" class="graph" transform="scale(1 1) rotate(0) translate(4 315)">
<title>month.h</title>
<!-- Node1 -->
<g id="node1" class="node">
<title>Node1</title>
<g id="a_node1"><a xlink:title=" ">
<polygon fill="#bfbfbf" stroke="black" points="824.5,-291.5 824.5,-310.5 881.5,-310.5 881.5,-291.5 824.5,-291.5"/>
<text text-anchor="middle" x="853" y="-298.5" font-family="Helvetica,sans-Serif" font-size="10.00">month.h</text>
</a>
</g>
</g>
<!-- Node2 -->
<g id="node2" class="node">
<title>Node2</title>
<g id="a_node2"><a xlink:title=" ">
<polygon fill="none" stroke="#bfbfbf" points="605.5,-0.5 605.5,-19.5 694.5,-19.5 694.5,-0.5 605.5,-0.5"/>
<text text-anchor="middle" x="650" y="-7.5" font-family="Helvetica,sans-Serif" font-size="10.00">limes_export.h</text>
</a>
</g>
</g>
<!-- Node1&#45;&gt;Node2 -->
<g id="edge1" class="edge">
<title>Node1&#45;&gt;Node2</title>
<path fill="none" stroke="midnightblue" d="M824.47,-299.3C791.41,-296.89 737.58,-287.78 707,-255 676.03,-221.8 657.67,-80.55 651.95,-29.5"/>
<polygon fill="midnightblue" stroke="midnightblue" points="655.42,-29.11 650.86,-19.55 648.47,-29.87 655.42,-29.11"/>
</g>
<!-- Node3 -->
<g id="node3" class="node">
<title>Node3</title>
<g id="a_node3"><a xlink:href="limes__namespace_8h.html" target="_top" xlink:title=" ">
<polygon fill="none" stroke="black" points="38,-0.5 38,-19.5 152,-19.5 152,-0.5 38,-0.5"/>
<text text-anchor="middle" x="95" y="-7.5" font-family="Helvetica,sans-Serif" font-size="10.00">limes_namespace.h</text>
</a>
</g>
</g>
<!-- Node1&#45;&gt;Node3 -->
<g id="edge2" class="edge">
<title>Node1&#45;&gt;Node3</title>
<path fill="none" stroke="midnightblue" d="M824.13,-299.38C675.13,-295.83 0,-275.02 0,-190 0,-190 0,-190 0,-126.5 0,-81.52 43.51,-44.52 71.64,-25.3"/>
<polygon fill="midnightblue" stroke="midnightblue" points="73.72,-28.12 80.16,-19.7 69.88,-22.27 73.72,-28.12"/>
</g>
<!-- Node4 -->
<g id="node4" class="node">
<title>Node4</title>
<g id="a_node4"><a xlink:href="preprocessor_8h.html" target="_top" xlink:title=" ">
<polygon fill="none" stroke="black" points="754.5,-56.5 754.5,-75.5 877.5,-75.5 877.5,-56.5 754.5,-56.5"/>
<text text-anchor="middle" x="816" y="-63.5" font-family="Helvetica,sans-Serif" font-size="10.00">../misc/preprocessor.h</text>
</a>
</g>
</g>
<!-- Node1&#45;&gt;Node4 -->
<g id="edge3" class="edge">
<title>Node1&#45;&gt;Node4</title>
<path fill="none" stroke="midnightblue" d="M860.15,-291.47C882.57,-263.63 947.72,-173.75 909,-112 899.12,-96.25 882,-85.87 865.11,-79.11"/>
<polygon fill="midnightblue" stroke="midnightblue" points="865.85,-75.65 855.25,-75.52 863.46,-82.23 865.85,-75.65"/>
</g>
<!-- Node6 -->
<g id="node6" class="node">
<title>Node6</title>
<g id="a_node6"><a xlink:href="compiler__defs_8h.html" target="_top" xlink:title=" ">
<polygon fill="none" stroke="black" points="792.5,-112.5 792.5,-142.5 899.5,-142.5 899.5,-112.5 792.5,-112.5"/>
<text text-anchor="start" x="800.5" y="-130.5" font-family="Helvetica,sans-Serif" font-size="10.00">../system/compiler</text>
<text text-anchor="middle" x="846" y="-119.5" font-family="Helvetica,sans-Serif" font-size="10.00">_defs.h</text>
</a>
</g>
</g>
<!-- Node1&#45;&gt;Node6 -->
<g id="edge5" class="edge">
<title>Node1&#45;&gt;Node6</title>
<path fill="none" stroke="midnightblue" d="M852.64,-291.26C851.61,-265.97 848.6,-192.08 847.01,-153.15"/>
<polygon fill="midnightblue" stroke="midnightblue" points="850.49,-152.57 846.58,-142.72 843.49,-152.86 850.49,-152.57"/>
</g>
<!-- Node7 -->
<g id="node7" class="node">
<title>Node7</title>
<g id="a_node7"><a xlink:title=" ">
<polygon fill="none" stroke="#bfbfbf" points="956.5,-235.5 956.5,-254.5 1029.5,-254.5 1029.5,-235.5 956.5,-235.5"/>
<text text-anchor="middle" x="993" y="-242.5" font-family="Helvetica,sans-Serif" font-size="10.00">string_view</text>
</a>
</g>
</g>
<!-- Node1&#45;&gt;Node7 -->
<g id="edge8" class="edge">
<title>Node1&#45;&gt;Node7</title>
<path fill="none" stroke="midnightblue" d="M875.18,-291.44C898.43,-282.48 935.15,-268.31 961.42,-258.18"/>
<polygon fill="midnightblue" stroke="midnightblue" points="962.85,-261.38 970.92,-254.52 960.33,-254.85 962.85,-261.38"/>
</g>
<!-- Node8 -->
<g id="node8" class="node">
<title>Node8</title>
<g id="a_node8"><a xlink:title=" ">
<polygon fill="none" stroke="#bfbfbf" points="1048,-235.5 1048,-254.5 1092,-254.5 1092,-235.5 1048,-235.5"/>
<text text-anchor="middle" x="1070" y="-242.5" font-family="Helvetica,sans-Serif" font-size="10.00">ctime</text>
</a>
</g>
</g>
<!-- Node1&#45;&gt;Node8 -->
<g id="edge9" class="edge">
<title>Node1&#45;&gt;Node8</title>
<path fill="none" stroke="midnightblue" d="M881.78,-293.46C916.56,-285.47 977.07,-271.27 1037.92,-255.2"/>
<polygon fill="midnightblue" stroke="midnightblue" points="1038.92,-258.56 1047.68,-252.61 1037.12,-251.79 1038.92,-258.56"/>
</g>
<!-- Node9 -->
<g id="node9" class="node">
<title>Node9</title>
<g id="a_node9"><a xlink:href="month__impl_8h.html" target="_top" xlink:title=" ">
<polygon fill="none" stroke="black" points="715.5,-235.5 715.5,-254.5 824.5,-254.5 824.5,-235.5 715.5,-235.5"/>
<text text-anchor="middle" x="770" y="-242.5" font-family="Helvetica,sans-Serif" font-size="10.00">impl/month_impl.h</text>
</a>
</g>
</g>
<!-- Node1&#45;&gt;Node9 -->
<g id="edge10" class="edge">
<title>Node1&#45;&gt;Node9</title>
<path fill="none" stroke="midnightblue" d="M839.66,-291.32C826.84,-282.98 807.22,-270.21 792.06,-260.35"/>
<polygon fill="midnightblue" stroke="midnightblue" points="793.59,-257.17 783.3,-254.65 789.78,-263.04 793.59,-257.17"/>
</g>
<!-- Node5 -->
<g id="node5" class="node">
<title>Node5</title>
<g id="a_node5"><a xlink:title=" ">
<polygon fill="none" stroke="#bfbfbf" points="811,-0.5 811,-19.5 911,-19.5 911,-0.5 811,-0.5"/>
<text text-anchor="middle" x="861" y="-7.5" font-family="Helvetica,sans-Serif" font-size="10.00">limes_platform.h</text>
</a>
</g>
</g>
<!-- Node4&#45;&gt;Node5 -->
<g id="edge4" class="edge">
<title>Node4&#45;&gt;Node5</title>
<path fill="none" stroke="midnightblue" d="M823.43,-56.08C829.85,-48.38 839.31,-37.03 847.12,-27.65"/>
<polygon fill="midnightblue" stroke="midnightblue" points="849.99,-29.67 853.71,-19.75 844.62,-25.19 849.99,-29.67"/>
</g>
<!-- Node6&#45;&gt;Node4 -->
<g id="edge7" class="edge">
<title>Node6&#45;&gt;Node4</title>
<path fill="none" stroke="midnightblue" d="M838.89,-112.4C834.71,-104.11 829.39,-93.55 824.93,-84.71"/>
<polygon fill="midnightblue" stroke="midnightblue" points="827.99,-83.01 820.37,-75.66 821.74,-86.16 827.99,-83.01"/>
</g>
<!-- Node6&#45;&gt;Node5 -->
<g id="edge6" class="edge">
<title>Node6&#45;&gt;Node5</title>
<path fill="none" stroke="midnightblue" d="M862.03,-112.32C871.27,-103.04 882.02,-90.05 887,-76 892.88,-59.43 883.82,-40.84 874.82,-27.8"/>
<polygon fill="midnightblue" stroke="midnightblue" points="877.58,-25.65 868.79,-19.75 871.98,-29.85 877.58,-25.65"/>
</g>
<!-- Node9&#45;&gt;Node3 -->
<g id="edge11" class="edge">
<title>Node9&#45;&gt;Node3</title>
<path fill="none" stroke="midnightblue" d="M715.3,-244.71C566.45,-245.38 159.64,-238.27 76,-143 47.84,-110.92 70.09,-56.59 84.75,-28.69"/>
<polygon fill="midnightblue" stroke="midnightblue" points="87.95,-30.15 89.7,-19.7 81.81,-26.77 87.95,-30.15"/>
</g>
<!-- Node9&#45;&gt;Node5 -->
<g id="edge12" class="edge">
<title>Node9&#45;&gt;Node5</title>
<path fill="none" stroke="midnightblue" d="M792.49,-235.46C825.15,-221.68 884.49,-191.11 909,-143 917.01,-127.28 903,-60.31 901,-56 895.92,-45.05 887.28,-34.82 879.33,-26.89"/>
<polygon fill="midnightblue" stroke="midnightblue" points="881.45,-24.08 871.76,-19.78 876.66,-29.18 881.45,-24.08"/>
</g>
<!-- Node10 -->
<g id="node10" class="node">
<title>Node10</title>
<g id="a_node10"><a xlink:href="math_helpers_8h.html" target="_top" xlink:title=" ">
<polygon fill="none" stroke="black" points="468.5,-179.5 468.5,-198.5 603.5,-198.5 603.5,-179.5 468.5,-179.5"/>
<text text-anchor="middle" x="536" y="-186.5" font-family="Helvetica,sans-Serif" font-size="10.00">../../math/mathHelpers.h</text>
</a>
</g>
</g>
<!-- Node9&#45;&gt;Node10 -->
<g id="edge13" class="edge">
<title>Node9&#45;&gt;Node10</title>
<path fill="none" stroke="midnightblue" d="M732.92,-235.44C692.27,-226.06 626.97,-210.99 582.82,-200.8"/>
<polygon fill="midnightblue" stroke="midnightblue" points="583.44,-197.35 572.9,-198.52 581.86,-204.18 583.44,-197.35"/>
</g>
<!-- Node18 -->
<g id="node18" class="node">
<title>Node18</title>
<g id="a_node18"><a xlink:href="build__date_8h.html" target="_top" xlink:title=" ">
<polygon fill="none" stroke="black" points="721,-179.5 721,-198.5 807,-198.5 807,-179.5 721,-179.5"/>
<text text-anchor="middle" x="764" y="-186.5" font-family="Helvetica,sans-Serif" font-size="10.00">../build_date.h</text>
</a>
</g>
</g>
<!-- Node9&#45;&gt;Node18 -->
<g id="edge31" class="edge">
<title>Node9&#45;&gt;Node18</title>
<path fill="none" stroke="midnightblue" d="M769.01,-235.08C768.21,-227.93 767.07,-217.64 766.08,-208.69"/>
<polygon fill="midnightblue" stroke="midnightblue" points="769.56,-208.3 764.97,-198.75 762.6,-209.08 769.56,-208.3"/>
</g>
<!-- Node10&#45;&gt;Node2 -->
<g id="edge17" class="edge">
<title>Node10&#45;&gt;Node2</title>
<path fill="none" stroke="midnightblue" d="M546.17,-179.28C565.85,-161.81 609.13,-120.37 631,-76 638.31,-61.17 643.32,-43.02 646.35,-29.67"/>
<polygon fill="midnightblue" stroke="midnightblue" points="649.8,-30.27 648.44,-19.77 642.96,-28.83 649.8,-30.27"/>
</g>
<!-- Node10&#45;&gt;Node3 -->
<g id="edge14" class="edge">
<title>Node10&#45;&gt;Node3</title>
<path fill="none" stroke="midnightblue" d="M468.06,-185.98C350.56,-181.78 119.5,-170.13 95,-143 66.93,-111.92 78.94,-57.95 88.1,-29.61"/>
<polygon fill="midnightblue" stroke="midnightblue" points="91.54,-30.38 91.51,-19.79 84.93,-28.09 91.54,-30.38"/>
</g>
<!-- Node10&#45;&gt;Node6 -->
<g id="edge30" class="edge">
<title>Node10&#45;&gt;Node6</title>
<path fill="none" stroke="midnightblue" d="M580.42,-179.48C633.27,-169.33 721.94,-152.31 782.14,-140.76"/>
<polygon fill="midnightblue" stroke="midnightblue" points="783.13,-144.13 792.3,-138.81 781.81,-137.26 783.13,-144.13"/>
</g>
<!-- Node11 -->
<g id="node11" class="node">
<title>Node11</title>
<g id="a_node11"><a xlink:title=" ">
<polygon fill="none" stroke="#bfbfbf" points="186.5,-118 186.5,-137 233.5,-137 233.5,-118 186.5,-118"/>
<text text-anchor="middle" x="210" y="-125" font-family="Helvetica,sans-Serif" font-size="10.00">cmath</text>
</a>
</g>
</g>
<!-- Node10&#45;&gt;Node11 -->
<g id="edge15" class="edge">
<title>Node10&#45;&gt;Node11</title>
<path fill="none" stroke="midnightblue" d="M468.25,-181.47C409.36,-174.84 322.1,-162.69 248,-143 245.34,-142.29 242.61,-141.47 239.89,-140.57"/>
<polygon fill="midnightblue" stroke="midnightblue" points="240.85,-137.19 230.25,-137.13 238.49,-143.79 240.85,-137.19"/>
</g>
<!-- Node12 -->
<g id="node12" class="node">
<title>Node12</title>
<g id="a_node12"><a xlink:title=" ">
<polygon fill="none" stroke="#bfbfbf" points="552.5,-56.5 552.5,-75.5 621.5,-75.5 621.5,-56.5 552.5,-56.5"/>
<text text-anchor="middle" x="587" y="-63.5" font-family="Helvetica,sans-Serif" font-size="10.00">type_traits</text>
</a>
</g>
</g>
<!-- Node10&#45;&gt;Node12 -->
<g id="edge16" class="edge">
<title>Node10&#45;&gt;Node12</title>
<path fill="none" stroke="midnightblue" d="M542.02,-179.37C547.96,-170.55 557.01,-156.29 563,-143 571.5,-124.12 578.27,-101.34 582.42,-85.67"/>
<polygon fill="midnightblue" stroke="midnightblue" points="585.89,-86.23 584.97,-75.68 579.11,-84.5 585.89,-86.23"/>
</g>
<!-- Node13 -->
<g id="node13" class="node">
<title>Node13</title>
<g id="a_node13"><a xlink:title=" ">
<polygon fill="none" stroke="#bfbfbf" points="104,-118 104,-137 168,-137 168,-118 104,-118"/>
<text text-anchor="middle" x="136" y="-125" font-family="Helvetica,sans-Serif" font-size="10.00">algorithm</text>
</a>
</g>
</g>
<!-- Node10&#45;&gt;Node13 -->
<g id="edge18" class="edge">
<title>Node10&#45;&gt;Node13</title>
<path fill="none" stroke="midnightblue" d="M468.4,-183.88C395.66,-178.44 276.94,-166.64 177,-143 173.77,-142.24 170.43,-141.3 167.13,-140.29"/>
<polygon fill="midnightblue" stroke="midnightblue" points="168.04,-136.9 157.44,-137.06 165.82,-143.54 168.04,-136.9"/>
</g>
<!-- Node14 -->
<g id="node14" class="node">
<title>Node14</title>
<g id="a_node14"><a xlink:href="limes__assert_8h.html" target="_top" xlink:title=" ">
<polygon fill="none" stroke="black" points="418,-118 418,-137 554,-137 554,-118 418,-118"/>
<text text-anchor="middle" x="486" y="-125" font-family="Helvetica,sans-Serif" font-size="10.00">../system/limes_assert.h</text>
</a>
</g>
</g>
<!-- Node10&#45;&gt;Node14 -->
<g id="edge19" class="edge">
<title>Node10&#45;&gt;Node14</title>
<path fill="none" stroke="midnightblue" d="M528.84,-179.48C521.26,-170.46 509.13,-156.02 499.71,-144.81"/>
<polygon fill="midnightblue" stroke="midnightblue" points="502.26,-142.41 493.15,-137.01 496.9,-146.92 502.26,-142.41"/>
</g>
<!-- Node14&#45;&gt;Node2 -->
<g id="edge20" class="edge">
<title>Node14&#45;&gt;Node2</title>
<path fill="none" stroke="midnightblue" d="M486.51,-117.83C487.85,-103.07 492.67,-73.04 510,-56 532.72,-33.67 566.55,-22.41 595.27,-16.75"/>
<polygon fill="midnightblue" stroke="midnightblue" points="595.96,-20.18 605.19,-14.96 594.73,-13.29 595.96,-20.18"/>
</g>
<!-- Node14&#45;&gt;Node3 -->
<g id="edge21" class="edge">
<title>Node14&#45;&gt;Node3</title>
<path fill="none" stroke="midnightblue" d="M451.53,-117.97C417.69,-109.13 364.9,-94.08 321,-76 303.35,-68.73 300.86,-62.72 283,-56 241.65,-40.45 193.12,-28.99 155.73,-21.53"/>
<polygon fill="midnightblue" stroke="midnightblue" points="155.98,-18.02 145.49,-19.53 154.64,-24.89 155.98,-18.02"/>
</g>
<!-- Node14&#45;&gt;Node4 -->
<g id="edge22" class="edge">
<title>Node14&#45;&gt;Node4</title>
<path fill="none" stroke="midnightblue" d="M533.28,-117.98C592.83,-107.24 695.06,-88.81 758.9,-77.29"/>
<polygon fill="midnightblue" stroke="midnightblue" points="759.59,-80.73 768.81,-75.51 758.34,-73.84 759.59,-80.73"/>
</g>
<!-- Node14&#45;&gt;Node5 -->
<g id="edge28" class="edge">
<title>Node14&#45;&gt;Node5</title>
<path fill="none" stroke="midnightblue" d="M490.34,-117.8C498.51,-102.44 517.74,-70.75 544,-56 586.73,-32 721,-19.71 800.42,-14.39"/>
<polygon fill="midnightblue" stroke="midnightblue" points="801.03,-17.86 810.78,-13.71 800.57,-10.87 801.03,-17.86"/>
</g>
<!-- Node14&#45;&gt;Node12 -->
<g id="edge23" class="edge">
<title>Node14&#45;&gt;Node12</title>
<path fill="none" stroke="midnightblue" d="M500.47,-117.98C516.97,-108.25 544.18,-92.23 563.68,-80.74"/>
<polygon fill="midnightblue" stroke="midnightblue" points="565.72,-83.6 572.56,-75.51 562.16,-77.57 565.72,-83.6"/>
</g>
<!-- Node15 -->
<g id="node15" class="node">
<title>Node15</title>
<g id="a_node15"><a xlink:title=" ">
<polygon fill="none" stroke="#bfbfbf" points="228.5,-56.5 228.5,-75.5 273.5,-75.5 273.5,-56.5 228.5,-56.5"/>
<text text-anchor="middle" x="251" y="-63.5" font-family="Helvetica,sans-Serif" font-size="10.00">utility</text>
</a>
</g>
</g>
<!-- Node14&#45;&gt;Node15 -->
<g id="edge24" class="edge">
<title>Node14&#45;&gt;Node15</title>
<path fill="none" stroke="midnightblue" d="M452.33,-117.98C407.24,-106.56 327.77,-86.44 283.35,-75.19"/>
<polygon fill="midnightblue" stroke="midnightblue" points="284.2,-71.79 273.64,-72.73 282.48,-78.58 284.2,-71.79"/>
</g>
<!-- Node16 -->
<g id="node16" class="node">
<title>Node16</title>
<g id="a_node16"><a xlink:href="_ignore_unused_8h.html" target="_top" xlink:title=" ">
<polygon fill="none" stroke="black" points="330,-56.5 330,-75.5 458,-75.5 458,-56.5 330,-56.5"/>
<text text-anchor="middle" x="394" y="-63.5" font-family="Helvetica,sans-Serif" font-size="10.00">../misc/IgnoreUnused.h</text>
</a>
</g>
</g>
<!-- Node14&#45;&gt;Node16 -->
<g id="edge25" class="edge">
<title>Node14&#45;&gt;Node16</title>
<path fill="none" stroke="midnightblue" d="M472.82,-117.98C457.93,-108.34 433.46,-92.52 415.73,-81.05"/>
<polygon fill="midnightblue" stroke="midnightblue" points="417.45,-78 407.16,-75.51 413.65,-83.88 417.45,-78"/>
</g>
<!-- Node17 -->
<g id="node17" class="node">
<title>Node17</title>
<g id="a_node17"><a xlink:title=" ">
<polygon fill="none" stroke="#bfbfbf" points="142,-56.5 142,-75.5 210,-75.5 210,-56.5 142,-56.5"/>
<text text-anchor="middle" x="176" y="-63.5" font-family="Helvetica,sans-Serif" font-size="10.00">filesystem</text>
</a>
</g>
</g>
<!-- Node14&#45;&gt;Node17 -->
<g id="edge29" class="edge">
<title>Node14&#45;&gt;Node17</title>
<path fill="none" stroke="midnightblue" d="M439.83,-117.94C386.75,-108.05 297.02,-91.19 220,-76 219.9,-75.98 219.8,-75.96 219.7,-75.94"/>
<polygon fill="midnightblue" stroke="midnightblue" points="220.59,-72.55 210.1,-74.02 219.22,-79.41 220.59,-72.55"/>
</g>
<!-- Node16&#45;&gt;Node2 -->
<g id="edge26" class="edge">
<title>Node16&#45;&gt;Node2</title>
<path fill="none" stroke="midnightblue" d="M434.56,-56.44C479.32,-47 551.38,-31.8 599.7,-21.61"/>
<polygon fill="midnightblue" stroke="midnightblue" points="600.56,-25.01 609.63,-19.52 599.12,-18.16 600.56,-25.01"/>
</g>
<!-- Node16&#45;&gt;Node3 -->
<g id="edge27" class="edge">
<title>Node16&#45;&gt;Node3</title>
<path fill="none" stroke="midnightblue" d="M346.62,-56.44C293.92,-46.92 208.77,-31.55 152.34,-21.36"/>
<polygon fill="midnightblue" stroke="midnightblue" points="152.62,-17.85 142.16,-19.52 151.37,-24.74 152.62,-17.85"/>
</g>
<!-- Node18&#45;&gt;Node2 -->
<g id="edge32" class="edge">
<title>Node18&#45;&gt;Node2</title>
<path fill="none" stroke="midnightblue" d="M761.33,-179.3C754.24,-157.13 733.34,-97.37 702,-56 693.33,-44.55 681.32,-33.92 671.03,-25.87"/>
<polygon fill="midnightblue" stroke="midnightblue" points="673,-22.97 662.9,-19.76 668.79,-28.57 673,-22.97"/>
</g>
<!-- Node18&#45;&gt;Node3 -->
<g id="edge33" class="edge">
<title>Node18&#45;&gt;Node3</title>
<path fill="none" stroke="midnightblue" d="M720.86,-184.11C653.81,-177.7 520.66,-163.56 409,-143 377.96,-137.28 158.31,-94.84 133,-76 117.31,-64.32 106.97,-44.08 101.1,-29.28"/>
<polygon fill="midnightblue" stroke="midnightblue" points="104.31,-27.86 97.6,-19.67 97.73,-30.26 104.31,-27.86"/>
</g>
<!-- Node18&#45;&gt;Node4 -->
<g id="edge34" class="edge">
<title>Node18&#45;&gt;Node4</title>
<path fill="none" stroke="midnightblue" d="M765.26,-179.22C767.56,-164.69 773.24,-134.98 784,-112 788.72,-101.93 795.73,-91.74 801.99,-83.61"/>
<polygon fill="midnightblue" stroke="midnightblue" points="804.81,-85.69 808.34,-75.7 799.35,-81.31 804.81,-85.69"/>
</g>
<!-- Node18&#45;&gt;Node6 -->
<g id="edge35" class="edge">
<title>Node18&#45;&gt;Node6</title>
<path fill="none" stroke="midnightblue" d="M775.75,-179.48C786.85,-171.42 803.93,-159.02 818.47,-148.47"/>
<polygon fill="midnightblue" stroke="midnightblue" points="820.64,-151.23 826.67,-142.52 816.52,-145.56 820.64,-151.23"/>
</g>
</g>
</svg>
