<?xml version="1.0" encoding="UTF-8" standalone="no"?>
<!DOCTYPE svg PUBLIC "-//W3C//DTD SVG 1.1//EN"
 "http://www.w3.org/Graphics/SVG/1.1/DTD/svg11.dtd">
<!-- Generated by graphviz version 2.43.0 (0)
 -->
<!-- Title: month.h Pages: 1 -->
<svg width="966pt" height="319pt"
 viewBox="0.00 0.00 965.65 319.00" xmlns="http://www.w3.org/2000/svg" xmlns:xlink="http://www.w3.org/1999/xlink">
<g id="graph0" class="graph" transform="scale(1 1) rotate(0) translate(4 315)">
<title>month.h</title>
<!-- Node1 -->
<g id="node1" class="node">
<title>Node1</title>
<g id="a_node1"><a xlink:title=" ">
<polygon fill="#bfbfbf" stroke="black" points="736.5,-291.5 736.5,-310.5 793.5,-310.5 793.5,-291.5 736.5,-291.5"/>
<text text-anchor="middle" x="765" y="-298.5" font-family="Helvetica,sans-Serif" font-size="10.00">month.h</text>
</a>
</g>
</g>
<!-- Node2 -->
<g id="node2" class="node">
<title>Node2</title>
<g id="a_node2"><a xlink:title=" ">
<polygon fill="none" stroke="#bfbfbf" points="643.5,-0.5 643.5,-19.5 732.5,-19.5 732.5,-0.5 643.5,-0.5"/>
<text text-anchor="middle" x="688" y="-7.5" font-family="Helvetica,sans-Serif" font-size="10.00">limes_export.h</text>
</a>
</g>
</g>
<!-- Node1&#45;&gt;Node2 -->
<g id="edge1" class="edge">
<title>Node1&#45;&gt;Node2</title>
<path fill="none" stroke="midnightblue" d="M793.64,-300.71C831.73,-300.04 898.8,-293.04 938,-255 959.6,-234.04 957,-220.1 957,-190 957,-190 957,-190 957,-126.5 957,-34.2 821.64,-14.73 742.96,-11.21"/>
<polygon fill="midnightblue" stroke="midnightblue" points="742.85,-7.7 732.72,-10.83 742.58,-14.7 742.85,-7.7"/>
</g>
<!-- Node3 -->
<g id="node3" class="node">
<title>Node3</title>
<g id="a_node3"><a xlink:href="limes__namespace_8h.html" target="_top" xlink:title=" ">
<polygon fill="none" stroke="black" points="76,-0.5 76,-19.5 190,-19.5 190,-0.5 76,-0.5"/>
<text text-anchor="middle" x="133" y="-7.5" font-family="Helvetica,sans-Serif" font-size="10.00">limes_namespace.h</text>
</a>
</g>
</g>
<!-- Node1&#45;&gt;Node3 -->
<g id="edge2" class="edge">
<title>Node1&#45;&gt;Node3</title>
<path fill="none" stroke="midnightblue" d="M736.41,-298.96C597.53,-293.56 0,-265.89 0,-190 0,-190 0,-190 0,-126.5 0,-74.2 59.35,-40.24 98.75,-23.45"/>
<polygon fill="midnightblue" stroke="midnightblue" points="100.36,-26.57 108.3,-19.55 97.71,-20.09 100.36,-26.57"/>
</g>
<!-- Node4 -->
<g id="node4" class="node">
<title>Node4</title>
<g id="a_node4"><a xlink:href="preprocessor_8h.html" target="_top" xlink:title=" ">
<polygon fill="none" stroke="black" points="716.5,-56.5 716.5,-75.5 839.5,-75.5 839.5,-56.5 716.5,-56.5"/>
<text text-anchor="middle" x="778" y="-63.5" font-family="Helvetica,sans-Serif" font-size="10.00">../misc/preprocessor.h</text>
</a>
</g>
</g>
<!-- Node1&#45;&gt;Node4 -->
<g id="edge3" class="edge">
<title>Node1&#45;&gt;Node4</title>
<path fill="none" stroke="midnightblue" d="M765.5,-291.49C766.89,-267.91 770.88,-199.7 774,-143 775.06,-123.66 776.22,-101.54 777.02,-86.17"/>
<polygon fill="midnightblue" stroke="midnightblue" points="780.53,-86.06 777.55,-75.89 773.54,-85.7 780.53,-86.06"/>
</g>
<!-- Node6 -->
<g id="node6" class="node">
<title>Node6</title>
<g id="a_node6"><a xlink:href="compiler__defs_8h.html" target="_top" xlink:title=" ">
<polygon fill="none" stroke="black" points="657.5,-112.5 657.5,-142.5 764.5,-142.5 764.5,-112.5 657.5,-112.5"/>
<text text-anchor="start" x="665.5" y="-130.5" font-family="Helvetica,sans-Serif" font-size="10.00">../system/compiler</text>
<text text-anchor="middle" x="711" y="-119.5" font-family="Helvetica,sans-Serif" font-size="10.00">_defs.h</text>
</a>
</g>
</g>
<!-- Node1&#45;&gt;Node6 -->
<g id="edge5" class="edge">
<title>Node1&#45;&gt;Node6</title>
<path fill="none" stroke="midnightblue" d="M762.25,-291.26C754.25,-265.87 730.82,-191.44 718.6,-152.65"/>
<polygon fill="midnightblue" stroke="midnightblue" points="721.82,-151.21 715.48,-142.72 715.14,-153.31 721.82,-151.21"/>
</g>
<!-- Node7 -->
<g id="node7" class="node">
<title>Node7</title>
<g id="a_node7"><a xlink:title=" ">
<polygon fill="none" stroke="#bfbfbf" points="793.5,-235.5 793.5,-254.5 866.5,-254.5 866.5,-235.5 793.5,-235.5"/>
<text text-anchor="middle" x="830" y="-242.5" font-family="Helvetica,sans-Serif" font-size="10.00">string_view</text>
</a>
</g>
</g>
<!-- Node1&#45;&gt;Node7 -->
<g id="edge8" class="edge">
<title>Node1&#45;&gt;Node7</title>
<path fill="none" stroke="midnightblue" d="M775.44,-291.32C785.15,-283.26 799.82,-271.08 811.5,-261.37"/>
<polygon fill="midnightblue" stroke="midnightblue" points="813.91,-263.92 819.37,-254.83 809.44,-258.53 813.91,-263.92"/>
</g>
<!-- Node8 -->
<g id="node8" class="node">
<title>Node8</title>
<g id="a_node8"><a xlink:title=" ">
<polygon fill="none" stroke="#bfbfbf" points="885,-235.5 885,-254.5 929,-254.5 929,-235.5 885,-235.5"/>
<text text-anchor="middle" x="907" y="-242.5" font-family="Helvetica,sans-Serif" font-size="10.00">ctime</text>
</a>
</g>
</g>
<!-- Node1&#45;&gt;Node8 -->
<g id="edge9" class="edge">
<title>Node1&#45;&gt;Node8</title>
<path fill="none" stroke="midnightblue" d="M787.5,-291.44C811.08,-282.48 848.32,-268.31 874.96,-258.18"/>
<polygon fill="midnightblue" stroke="midnightblue" points="876.5,-261.34 884.6,-254.52 874.01,-254.8 876.5,-261.34"/>
</g>
<!-- Node9 -->
<g id="node9" class="node">
<title>Node9</title>
<g id="a_node9"><a xlink:href="month__impl_8h.html" target="_top" xlink:title=" ">
<polygon fill="none" stroke="black" points="364.5,-235.5 364.5,-254.5 473.5,-254.5 473.5,-235.5 364.5,-235.5"/>
<text text-anchor="middle" x="419" y="-242.5" font-family="Helvetica,sans-Serif" font-size="10.00">impl/month_impl.h</text>
</a>
</g>
</g>
<!-- Node1&#45;&gt;Node9 -->
<g id="edge10" class="edge">
<title>Node1&#45;&gt;Node9</title>
<path fill="none" stroke="midnightblue" d="M736.39,-295.54C681.31,-286.94 559.28,-267.89 483.6,-256.08"/>
<polygon fill="midnightblue" stroke="midnightblue" points="484.12,-252.62 473.7,-254.54 483.04,-259.54 484.12,-252.62"/>
</g>
<!-- Node5 -->
<g id="node5" class="node">
<title>Node5</title>
<g id="a_node5"><a xlink:title=" ">
<polygon fill="none" stroke="#bfbfbf" points="420,-0.5 420,-19.5 520,-19.5 520,-0.5 420,-0.5"/>
<text text-anchor="middle" x="470" y="-7.5" font-family="Helvetica,sans-Serif" font-size="10.00">limes_platform.h</text>
</a>
</g>
</g>
<!-- Node4&#45;&gt;Node5 -->
<g id="edge4" class="edge">
<title>Node4&#45;&gt;Node5</title>
<path fill="none" stroke="midnightblue" d="M729.2,-56.44C674.79,-46.9 586.83,-31.48 528.71,-21.29"/>
<polygon fill="midnightblue" stroke="midnightblue" points="529.03,-17.8 518.58,-19.52 527.82,-24.69 529.03,-17.8"/>
</g>
<!-- Node6&#45;&gt;Node4 -->
<g id="edge7" class="edge">
<title>Node6&#45;&gt;Node4</title>
<path fill="none" stroke="midnightblue" d="M726.88,-112.4C737.02,-103.4 750.16,-91.72 760.59,-82.47"/>
<polygon fill="midnightblue" stroke="midnightblue" points="763.1,-84.92 768.25,-75.66 758.45,-79.68 763.1,-84.92"/>
</g>
<!-- Node6&#45;&gt;Node5 -->
<g id="edge6" class="edge">
<title>Node6&#45;&gt;Node5</title>
<path fill="none" stroke="midnightblue" d="M764.86,-118.14C814.99,-108.16 877.94,-88.58 849,-56 828.23,-32.62 632.02,-19.25 530.4,-13.84"/>
<polygon fill="midnightblue" stroke="midnightblue" points="530.44,-10.34 520.27,-13.31 530.07,-17.33 530.44,-10.34"/>
</g>
<!-- Node9&#45;&gt;Node3 -->
<g id="edge11" class="edge">
<title>Node9&#45;&gt;Node3</title>
<path fill="none" stroke="midnightblue" d="M364.49,-241.84C293.02,-237.92 172.84,-227.22 140,-199 91.07,-156.96 113.47,-67.89 126.27,-29.38"/>
<polygon fill="midnightblue" stroke="midnightblue" points="129.71,-30.14 129.7,-19.54 123.1,-27.83 129.71,-30.14"/>
</g>
<!-- Node9&#45;&gt;Node5 -->
<g id="edge12" class="edge">
<title>Node9&#45;&gt;Node5</title>
<path fill="none" stroke="midnightblue" d="M364.31,-240.85C268.76,-232.89 85.83,-205.35 133,-112 151.92,-74.55 170.4,-72.45 209,-56 274.17,-28.22 355.43,-17.58 409.81,-13.51"/>
<polygon fill="midnightblue" stroke="midnightblue" points="410.25,-16.99 419.98,-12.8 409.76,-10.01 410.25,-16.99"/>
</g>
<!-- Node10 -->
<g id="node10" class="node">
<title>Node10</title>
<g id="a_node10"><a xlink:href="math_helpers_8h.html" target="_top" xlink:title=" ">
<polygon fill="none" stroke="black" points="351.5,-179.5 351.5,-198.5 486.5,-198.5 486.5,-179.5 351.5,-179.5"/>
<text text-anchor="middle" x="419" y="-186.5" font-family="Helvetica,sans-Serif" font-size="10.00">../../math/mathHelpers.h</text>
</a>
</g>
</g>
<!-- Node9&#45;&gt;Node10 -->
<g id="edge13" class="edge">
<title>Node9&#45;&gt;Node10</title>
<path fill="none" stroke="midnightblue" d="M419,-235.08C419,-228.01 419,-217.86 419,-208.99"/>
<polygon fill="midnightblue" stroke="midnightblue" points="422.5,-208.75 419,-198.75 415.5,-208.75 422.5,-208.75"/>
</g>
<!-- Node18 -->
<g id="node18" class="node">
<title>Node18</title>
<g id="a_node18"><a xlink:href="build__date_8h.html" target="_top" xlink:title=" ">
<polygon fill="none" stroke="black" points="586,-179.5 586,-198.5 672,-198.5 672,-179.5 586,-179.5"/>
<text text-anchor="middle" x="629" y="-186.5" font-family="Helvetica,sans-Serif" font-size="10.00">../build_date.h</text>
</a>
</g>
</g>
<!-- Node9&#45;&gt;Node18 -->
<g id="edge32" class="edge">
<title>Node9&#45;&gt;Node18</title>
<path fill="none" stroke="midnightblue" d="M452.28,-235.44C488.45,-226.14 546.38,-211.25 585.98,-201.06"/>
<polygon fill="midnightblue" stroke="midnightblue" points="587.07,-204.4 595.88,-198.52 585.32,-197.62 587.07,-204.4"/>
</g>
<!-- Node10&#45;&gt;Node2 -->
<g id="edge17" class="edge">
<title>Node10&#45;&gt;Node2</title>
<path fill="none" stroke="midnightblue" d="M445.71,-179.36C503.73,-160.07 638.54,-112.37 669,-76 679.96,-62.91 684.6,-43.76 686.56,-29.64"/>
<polygon fill="midnightblue" stroke="midnightblue" points="690.05,-29.91 687.63,-19.6 683.09,-29.17 690.05,-29.91"/>
</g>
<!-- Node10&#45;&gt;Node3 -->
<g id="edge14" class="edge">
<title>Node10&#45;&gt;Node3</title>
<path fill="none" stroke="midnightblue" d="M351.25,-187.1C275.72,-184.5 160.52,-175.19 133,-143 105.79,-111.17 117.42,-57.52 126.31,-29.42"/>
<polygon fill="midnightblue" stroke="midnightblue" points="129.72,-30.29 129.61,-19.69 123.09,-28.04 129.72,-30.29"/>
</g>
<!-- Node10&#45;&gt;Node6 -->
<g id="edge31" class="edge">
<title>Node10&#45;&gt;Node6</title>
<path fill="none" stroke="midnightblue" d="M460.84,-179.48C509.63,-169.53 590.82,-152.99 647.42,-141.46"/>
<polygon fill="midnightblue" stroke="midnightblue" points="648.24,-144.86 657.34,-139.43 646.84,-138 648.24,-144.86"/>
</g>
<!-- Node11 -->
<g id="node11" class="node">
<title>Node11</title>
<g id="a_node11"><a xlink:title=" ">
<polygon fill="none" stroke="#bfbfbf" points="142.5,-118 142.5,-137 189.5,-137 189.5,-118 142.5,-118"/>
<text text-anchor="middle" x="166" y="-125" font-family="Helvetica,sans-Serif" font-size="10.00">cmath</text>
</a>
</g>
</g>
<!-- Node10&#45;&gt;Node11 -->
<g id="edge15" class="edge">
<title>Node10&#45;&gt;Node11</title>
<path fill="none" stroke="midnightblue" d="M360.24,-179.47C315.42,-172.12 252.5,-160.01 199,-143 197.08,-142.39 195.11,-141.7 193.15,-140.97"/>
<polygon fill="midnightblue" stroke="midnightblue" points="194.13,-137.58 183.54,-137.03 191.47,-144.06 194.13,-137.58"/>
</g>
<!-- Node12 -->
<g id="node12" class="node">
<title>Node12</title>
<g id="a_node12"><a xlink:title=" ">
<polygon fill="none" stroke="#bfbfbf" points="590.5,-56.5 590.5,-75.5 659.5,-75.5 659.5,-56.5 590.5,-56.5"/>
<text text-anchor="middle" x="625" y="-63.5" font-family="Helvetica,sans-Serif" font-size="10.00">type_traits</text>
</a>
</g>
</g>
<!-- Node10&#45;&gt;Node12 -->
<g id="edge16" class="edge">
<title>Node10&#45;&gt;Node12</title>
<path fill="none" stroke="midnightblue" d="M433.77,-179.39C449.28,-170.34 474.37,-155.69 496,-143 532.94,-121.33 575.77,-96.07 601.6,-80.82"/>
<polygon fill="midnightblue" stroke="midnightblue" points="603.47,-83.78 610.31,-75.68 599.92,-77.75 603.47,-83.78"/>
</g>
<!-- Node13 -->
<g id="node13" class="node">
<title>Node13</title>
<g id="a_node13"><a xlink:title=" ">
<polygon fill="none" stroke="#bfbfbf" points="208,-118 208,-137 272,-137 272,-118 208,-118"/>
<text text-anchor="middle" x="240" y="-125" font-family="Helvetica,sans-Serif" font-size="10.00">algorithm</text>
</a>
</g>
</g>
<!-- Node10&#45;&gt;Node13 -->
<g id="edge18" class="edge">
<title>Node10&#45;&gt;Node13</title>
<path fill="none" stroke="midnightblue" d="M393.35,-179.48C362.38,-169.18 310.13,-151.81 275.35,-140.25"/>
<polygon fill="midnightblue" stroke="midnightblue" points="276.19,-136.84 265.6,-137.01 273.98,-143.48 276.19,-136.84"/>
</g>
<!-- Node14 -->
<g id="node14" class="node">
<title>Node14</title>
<g id="a_node14"><a xlink:href="limes__assert_8h.html" target="_top" xlink:title=" ">
<polygon fill="none" stroke="black" points="351,-118 351,-137 487,-137 487,-118 351,-118"/>
<text text-anchor="middle" x="419" y="-125" font-family="Helvetica,sans-Serif" font-size="10.00">../system/limes_assert.h</text>
</a>
</g>
</g>
<!-- Node10&#45;&gt;Node14 -->
<g id="edge19" class="edge">
<title>Node10&#45;&gt;Node14</title>
<path fill="none" stroke="midnightblue" d="M419,-179.48C419,-171.08 419,-157.98 419,-147.16"/>
<polygon fill="midnightblue" stroke="midnightblue" points="422.5,-147.01 419,-137.01 415.5,-147.01 422.5,-147.01"/>
</g>
<!-- Node14&#45;&gt;Node2 -->
<g id="edge20" class="edge">
<title>Node14&#45;&gt;Node2</title>
<path fill="none" stroke="midnightblue" d="M441.65,-117.96C466.71,-108.35 508.14,-92 543,-76 560.7,-67.87 564.36,-64.26 582,-56 607.01,-44.3 635.89,-32.12 657.18,-23.39"/>
<polygon fill="midnightblue" stroke="midnightblue" points="658.75,-26.54 666.68,-19.52 656.1,-20.05 658.75,-26.54"/>
</g>
<!-- Node14&#45;&gt;Node3 -->
<g id="edge21" class="edge">
<title>Node14&#45;&gt;Node3</title>
<path fill="none" stroke="midnightblue" d="M350.92,-118.43C308.37,-111.41 253.42,-98.66 209,-76 184.73,-63.62 161.65,-41.99 147.43,-27.1"/>
<polygon fill="midnightblue" stroke="midnightblue" points="149.86,-24.57 140.49,-19.63 144.73,-29.34 149.86,-24.57"/>
</g>
<!-- Node14&#45;&gt;Node4 -->
<g id="edge22" class="edge">
<title>Node14&#45;&gt;Node4</title>
<path fill="none" stroke="midnightblue" d="M470.44,-117.98C535.48,-107.19 647.35,-88.65 716.74,-77.15"/>
<polygon fill="midnightblue" stroke="midnightblue" points="717.37,-80.6 726.66,-75.51 716.22,-73.69 717.37,-80.6"/>
</g>
<!-- Node14&#45;&gt;Node5 -->
<g id="edge29" class="edge">
<title>Node14&#45;&gt;Node5</title>
<path fill="none" stroke="midnightblue" d="M412.03,-117.8C401.9,-104.01 385.5,-76.6 397,-56 405.16,-41.39 420.22,-30.94 434.55,-23.8"/>
<polygon fill="midnightblue" stroke="midnightblue" points="436.15,-26.92 443.79,-19.59 433.24,-20.56 436.15,-26.92"/>
</g>
<!-- Node14&#45;&gt;Node12 -->
<g id="edge23" class="edge">
<title>Node14&#45;&gt;Node12</title>
<path fill="none" stroke="midnightblue" d="M448.51,-117.98C484.62,-107.55 545.85,-89.86 585.85,-78.31"/>
<polygon fill="midnightblue" stroke="midnightblue" points="586.9,-81.65 595.54,-75.51 584.96,-74.92 586.9,-81.65"/>
</g>
<!-- Node15 -->
<g id="node15" class="node">
<title>Node15</title>
<g id="a_node15"><a xlink:title=" ">
<polygon fill="none" stroke="#bfbfbf" points="218.5,-56.5 218.5,-75.5 263.5,-75.5 263.5,-56.5 218.5,-56.5"/>
<text text-anchor="middle" x="241" y="-63.5" font-family="Helvetica,sans-Serif" font-size="10.00">utility</text>
</a>
</g>
</g>
<!-- Node14&#45;&gt;Node15 -->
<g id="edge24" class="edge">
<title>Node14&#45;&gt;Node15</title>
<path fill="none" stroke="midnightblue" d="M393.5,-117.98C361.82,-107.39 307.77,-89.32 273.25,-77.78"/>
<polygon fill="midnightblue" stroke="midnightblue" points="274.23,-74.42 263.64,-74.57 272.01,-81.06 274.23,-74.42"/>
</g>
<!-- Node16 -->
<g id="node16" class="node">
<title>Node16</title>
<g id="a_node16"><a xlink:href="_ignore_unused_8h.html" target="_top" xlink:title=" ">
<polygon fill="none" stroke="black" points="406,-56.5 406,-75.5 534,-75.5 534,-56.5 406,-56.5"/>
<text text-anchor="middle" x="470" y="-63.5" font-family="Helvetica,sans-Serif" font-size="10.00">../misc/IgnoreUnused.h</text>
</a>
</g>
</g>
<!-- Node14&#45;&gt;Node16 -->
<g id="edge25" class="edge">
<title>Node14&#45;&gt;Node16</title>
<path fill="none" stroke="midnightblue" d="M426.31,-117.98C434.03,-108.96 446.41,-94.52 456.02,-83.31"/>
<polygon fill="midnightblue" stroke="midnightblue" points="458.86,-85.38 462.71,-75.51 453.54,-80.82 458.86,-85.38"/>
</g>
<!-- Node17 -->
<g id="node17" class="node">
<title>Node17</title>
<g id="a_node17"><a xlink:title=" ">
<polygon fill="none" stroke="#bfbfbf" points="282,-56.5 282,-75.5 350,-75.5 350,-56.5 282,-56.5"/>
<text text-anchor="middle" x="316" y="-63.5" font-family="Helvetica,sans-Serif" font-size="10.00">filesystem</text>
</a>
</g>
</g>
<!-- Node14&#45;&gt;Node17 -->
<g id="edge30" class="edge">
<title>Node14&#45;&gt;Node17</title>
<path fill="none" stroke="midnightblue" d="M404.24,-117.98C387.34,-108.21 359.42,-92.08 339.51,-80.58"/>
<polygon fill="midnightblue" stroke="midnightblue" points="341.14,-77.48 330.73,-75.51 337.64,-83.54 341.14,-77.48"/>
</g>
<!-- Node16&#45;&gt;Node2 -->
<g id="edge26" class="edge">
<title>Node16&#45;&gt;Node2</title>
<path fill="none" stroke="midnightblue" d="M504.54,-56.44C542.25,-47.1 602.74,-32.12 643.86,-21.93"/>
<polygon fill="midnightblue" stroke="midnightblue" points="644.75,-25.32 653.62,-19.52 643.07,-18.52 644.75,-25.32"/>
</g>
<!-- Node16&#45;&gt;Node3 -->
<g id="edge27" class="edge">
<title>Node16&#45;&gt;Node3</title>
<path fill="none" stroke="midnightblue" d="M416.6,-56.44C356.7,-46.85 259.63,-31.29 196.05,-21.1"/>
<polygon fill="midnightblue" stroke="midnightblue" points="196.58,-17.64 186.15,-19.52 195.47,-24.55 196.58,-17.64"/>
</g>
<!-- Node16&#45;&gt;Node5 -->
<g id="edge28" class="edge">
<title>Node16&#45;&gt;Node5</title>
<path fill="none" stroke="midnightblue" d="M470,-56.08C470,-49.01 470,-38.86 470,-29.99"/>
<polygon fill="midnightblue" stroke="midnightblue" points="473.5,-29.75 470,-19.75 466.5,-29.75 473.5,-29.75"/>
</g>
<!-- Node18&#45;&gt;Node2 -->
<g id="edge33" class="edge">
<title>Node18&#45;&gt;Node2</title>
<path fill="none" stroke="midnightblue" d="M672.34,-183.1C730.16,-173.85 829.47,-147.79 866,-76 891.42,-26.04 804.14,-13.79 742.93,-11.18"/>
<polygon fill="midnightblue" stroke="midnightblue" points="742.71,-7.67 732.6,-10.82 742.47,-14.67 742.71,-7.67"/>
</g>
<!-- Node18&#45;&gt;Node3 -->
<g id="edge34" class="edge">
<title>Node18&#45;&gt;Node3</title>
<path fill="none" stroke="midnightblue" d="M585.72,-185.46C528.67,-181.16 425.74,-170.09 342,-143 313.07,-133.64 309.01,-123.85 281,-112 235.57,-92.78 215.02,-106.18 176,-76 160.15,-63.74 148.25,-43.92 141.04,-29.39"/>
<polygon fill="midnightblue" stroke="midnightblue" points="144.02,-27.5 136.62,-19.92 137.67,-30.46 144.02,-27.5"/>
</g>
<!-- Node18&#45;&gt;Node4 -->
<g id="edge35" class="edge">
<title>Node18&#45;&gt;Node4</title>
<path fill="none" stroke="midnightblue" d="M628.79,-179.25C628.91,-163.68 631.4,-131.03 649,-112 664.36,-95.39 686.18,-84.91 707.52,-78.3"/>
<polygon fill="midnightblue" stroke="midnightblue" points="708.61,-81.63 717.27,-75.52 706.69,-74.89 708.61,-81.63"/>
</g>
<!-- Node18&#45;&gt;Node6 -->
<g id="edge36" class="edge">
<title>Node18&#45;&gt;Node6</title>
<path fill="none" stroke="midnightblue" d="M640.75,-179.48C651.85,-171.42 668.93,-159.02 683.47,-148.47"/>
<polygon fill="midnightblue" stroke="midnightblue" points="685.64,-151.23 691.67,-142.52 681.52,-145.56 685.64,-151.23"/>
</g>
</g>
</svg>
