<?xml version="1.0" encoding="UTF-8" standalone="no"?>
<!DOCTYPE svg PUBLIC "-//W3C//DTD SVG 1.1//EN"
 "http://www.w3.org/Graphics/SVG/1.1/DTD/svg11.dtd">
<!-- Generated by graphviz version 2.43.0 (0)
 -->
<!-- Title: month_impl.h Pages: 1 -->
<!--zoomable 263 -->
<svg id="main" version="1.1" xmlns="http://www.w3.org/2000/svg" xmlns:xlink="http://www.w3.org/1999/xlink" xml:space="preserve" onload="init(evt)">
<style type="text/css"><![CDATA[
.edge:hover path { stroke: red; }
.edge:hover polygon { stroke: red; fill: red; }
]]></style>
<script type="text/javascript"><![CDATA[
var edges = document.getElementsByTagName('g');
if (edges && edges.length) {
  for (var i=0;i<edges.length;i++) {
    if (edges[i].id.substr(0,4)=='edge') {
      edges[i].setAttribute('class','edge');
    }
  }
}
]]></script>
        <defs>
                <circle id="rim" cx="0" cy="0" r="7"/>
                <circle id="rim2" cx="0" cy="0" r="3.5"/>
                <g id="zoomPlus">
                        <use xlink:href="#rim" fill="#404040">
                                <set attributeName="fill" to="#808080" begin="zoomplus.mouseover" end="zoomplus.mouseout"/>
                        </use>
                        <path d="M-4,0h8M0,-4v8" fill="none" stroke="white" stroke-width="1.5" pointer-events="none"/>
                </g>
                <g id="zoomMin">
                        <use xlink:href="#rim" fill="#404040">
                                <set attributeName="fill" to="#808080" begin="zoomminus.mouseover" end="zoomminus.mouseout"/>
                        </use>
                        <path d="M-4,0h8" fill="none" stroke="white" stroke-width="1.5" pointer-events="none"/>
                </g>
                <g id="dirArrow">
                        <path fill="none" stroke="white" stroke-width="1.5" d="M0,-3.0v7 M-2.5,-0.5L0,-3.0L2.5,-0.5"/>
                </g>
               <g id="resetDef">
                       <use xlink:href="#rim2" fill="#404040">
                               <set attributeName="fill" to="#808080" begin="reset.mouseover" end="reset.mouseout"/>
                       </use>
               </g>
        </defs>

<script type="text/javascript">
var viewWidth = 824;
var viewHeight = 263;
var sectionId = 'dynsection-0';
</script>
<script xlink:href="svgpan.js"/>
<svg id="graph" class="graph">
<g id="viewport">
<title>month_impl.h</title>
<!-- Node1 -->
<g id="node1" class="node">
<title>Node1</title>
<g id="a_node1"><a xlink:title=" ">
<polygon fill="#bfbfbf" stroke="black" points="435,-235.5 435,-254.5 519,-254.5 519,-235.5 435,-235.5"/>
<text text-anchor="middle" x="477" y="-242.5" font-family="Helvetica,sans-Serif" font-size="10.00">month_impl.h</text>
</a>
</g>
</g>
<!-- Node2 -->
<g id="node2" class="node">
<title>Node2</title>
<g id="a_node2"><a xlink:href="limes__namespace_8h.html" target="_top" xlink:title=" ">
<polygon fill="none" stroke="black" points="0,-0.5 0,-19.5 114,-19.5 114,-0.5 0,-0.5"/>
<text text-anchor="middle" x="57" y="-7.5" font-family="Helvetica,sans-Serif" font-size="10.00">limes_namespace.h</text>
</a>
</g>
</g>
<!-- Node1&#45;&gt;Node2 -->
<g id="edge1" class="edge">
<title>Node1&#45;&gt;Node2</title>
<path fill="none" stroke="midnightblue" d="M434.7,-241.47C331.31,-234.29 70.66,-209.79 22,-143 16.13,-134.94 19.11,-72.86 25,-56 28.62,-45.63 35.41,-35.53 41.8,-27.53"/>
<polygon fill="midnightblue" stroke="midnightblue" points="44.6,-29.65 48.42,-19.77 39.27,-25.11 44.6,-29.65"/>
</g>
<!-- Node3 -->
<g id="node3" class="node">
<title>Node3</title>
<g id="a_node3"><a xlink:title=" ">
<polygon fill="none" stroke="#bfbfbf" points="716,-0.5 716,-19.5 816,-19.5 816,-0.5 716,-0.5"/>
<text text-anchor="middle" x="766" y="-7.5" font-family="Helvetica,sans-Serif" font-size="10.00">limes_platform.h</text>
</a>
</g>
</g>
<!-- Node1&#45;&gt;Node3 -->
<g id="edge2" class="edge">
<title>Node1&#45;&gt;Node3</title>
<path fill="none" stroke="midnightblue" d="M519,-237.71C577.51,-227.12 684.29,-200.91 755,-143 784.37,-118.94 795.53,-111.86 808,-76 810.92,-67.6 811.26,-64.27 808,-56 803.49,-44.55 794.53,-34.29 786.05,-26.47"/>
<polygon fill="midnightblue" stroke="midnightblue" points="788.09,-23.61 778.21,-19.76 783.53,-28.93 788.09,-23.61"/>
</g>
<!-- Node4 -->
<g id="node4" class="node">
<title>Node4</title>
<g id="a_node4"><a xlink:href="math_helpers_8h.html" target="_top" xlink:title=" ">
<polygon fill="none" stroke="black" points="204.5,-179.5 204.5,-198.5 339.5,-198.5 339.5,-179.5 204.5,-179.5"/>
<text text-anchor="middle" x="272" y="-186.5" font-family="Helvetica,sans-Serif" font-size="10.00">../../math/mathHelpers.h</text>
</a>
</g>
</g>
<!-- Node1&#45;&gt;Node4 -->
<g id="edge3" class="edge">
<title>Node1&#45;&gt;Node4</title>
<path fill="none" stroke="midnightblue" d="M444.52,-235.44C409.28,-226.16 352.9,-211.31 314.24,-201.13"/>
<polygon fill="midnightblue" stroke="midnightblue" points="314.89,-197.68 304.33,-198.52 313.11,-204.45 314.89,-197.68"/>
</g>
<!-- Node15 -->
<g id="node15" class="node">
<title>Node15</title>
<g id="a_node15"><a xlink:href="build__date_8h.html" target="_top" xlink:title=" ">
<polygon fill="none" stroke="black" points="550,-179.5 550,-198.5 636,-198.5 636,-179.5 550,-179.5"/>
<text text-anchor="middle" x="593" y="-186.5" font-family="Helvetica,sans-Serif" font-size="10.00">../build_date.h</text>
</a>
</g>
</g>
<!-- Node1&#45;&gt;Node15 -->
<g id="edge24" class="edge">
<title>Node1&#45;&gt;Node15</title>
<path fill="none" stroke="midnightblue" d="M495.38,-235.44C514.22,-226.68 543.73,-212.94 565.38,-202.86"/>
<polygon fill="midnightblue" stroke="midnightblue" points="567.12,-205.91 574.71,-198.52 564.16,-199.56 567.12,-205.91"/>
</g>
<!-- Node4&#45;&gt;Node2 -->
<g id="edge4" class="edge">
<title>Node4&#45;&gt;Node2</title>
<path fill="none" stroke="midnightblue" d="M204.24,-184.32C142.8,-179.4 58.78,-168.16 38,-143 10.82,-110.09 32.64,-56.12 46.98,-28.49"/>
<polygon fill="midnightblue" stroke="midnightblue" points="50.12,-30.05 51.82,-19.6 43.97,-26.71 50.12,-30.05"/>
</g>
<!-- Node5 -->
<g id="node5" class="node">
<title>Node5</title>
<g id="a_node5"><a xlink:title=" ">
<polygon fill="none" stroke="#bfbfbf" points="47.5,-118 47.5,-137 94.5,-137 94.5,-118 47.5,-118"/>
<text text-anchor="middle" x="71" y="-125" font-family="Helvetica,sans-Serif" font-size="10.00">cmath</text>
</a>
</g>
</g>
<!-- Node4&#45;&gt;Node5 -->
<g id="edge5" class="edge">
<title>Node4&#45;&gt;Node5</title>
<path fill="none" stroke="midnightblue" d="M237.37,-179.46C204.18,-171.04 152.8,-157.36 109,-143 106.74,-142.26 104.41,-141.46 102.07,-140.63"/>
<polygon fill="midnightblue" stroke="midnightblue" points="103.17,-137.31 92.58,-137.14 100.75,-143.88 103.17,-137.31"/>
</g>
<!-- Node6 -->
<g id="node6" class="node">
<title>Node6</title>
<g id="a_node6"><a xlink:title=" ">
<polygon fill="none" stroke="#bfbfbf" points="85.5,-56.5 85.5,-75.5 154.5,-75.5 154.5,-56.5 85.5,-56.5"/>
<text text-anchor="middle" x="120" y="-63.5" font-family="Helvetica,sans-Serif" font-size="10.00">type_traits</text>
</a>
</g>
</g>
<!-- Node4&#45;&gt;Node6 -->
<g id="edge6" class="edge">
<title>Node4&#45;&gt;Node6</title>
<path fill="none" stroke="midnightblue" d="M211.37,-179.46C186.88,-173.14 160.17,-162.14 142,-143 127.4,-127.62 122.41,-103.16 120.74,-86.15"/>
<polygon fill="midnightblue" stroke="midnightblue" points="124.21,-85.52 120.05,-75.78 117.23,-85.99 124.21,-85.52"/>
</g>
<!-- Node7 -->
<g id="node7" class="node">
<title>Node7</title>
<g id="a_node7"><a xlink:title=" ">
<polygon fill="none" stroke="#bfbfbf" points="491.5,-0.5 491.5,-19.5 580.5,-19.5 580.5,-0.5 491.5,-0.5"/>
<text text-anchor="middle" x="536" y="-7.5" font-family="Helvetica,sans-Serif" font-size="10.00">limes_export.h</text>
</a>
</g>
</g>
<!-- Node4&#45;&gt;Node7 -->
<g id="edge7" class="edge">
<title>Node4&#45;&gt;Node7</title>
<path fill="none" stroke="midnightblue" d="M325.3,-179.47C358.93,-172.68 402.55,-161.23 438,-143 479.85,-121.48 494.86,-115.79 520,-76 528.83,-62.03 532.78,-43.53 534.56,-29.84"/>
<polygon fill="midnightblue" stroke="midnightblue" points="538.06,-29.97 535.59,-19.67 531.1,-29.27 538.06,-29.97"/>
</g>
<!-- Node8 -->
<g id="node8" class="node">
<title>Node8</title>
<g id="a_node8"><a xlink:title=" ">
<polygon fill="none" stroke="#bfbfbf" points="151,-118 151,-137 215,-137 215,-118 151,-118"/>
<text text-anchor="middle" x="183" y="-125" font-family="Helvetica,sans-Serif" font-size="10.00">algorithm</text>
</a>
</g>
</g>
<!-- Node4&#45;&gt;Node8 -->
<g id="edge8" class="edge">
<title>Node4&#45;&gt;Node8</title>
<path fill="none" stroke="midnightblue" d="M259.25,-179.48C244.97,-169.93 221.6,-154.31 204.49,-142.87"/>
<polygon fill="midnightblue" stroke="midnightblue" points="205.99,-139.66 195.73,-137.01 202.1,-145.48 205.99,-139.66"/>
</g>
<!-- Node9 -->
<g id="node9" class="node">
<title>Node9</title>
<g id="a_node9"><a xlink:href="limes__assert_8h.html" target="_top" xlink:title=" ">
<polygon fill="none" stroke="black" points="293,-118 293,-137 429,-137 429,-118 293,-118"/>
<text text-anchor="middle" x="361" y="-125" font-family="Helvetica,sans-Serif" font-size="10.00">../system/limes_assert.h</text>
</a>
</g>
</g>
<!-- Node4&#45;&gt;Node9 -->
<g id="edge9" class="edge">
<title>Node4&#45;&gt;Node9</title>
<path fill="none" stroke="midnightblue" d="M284.75,-179.48C299.03,-169.93 322.4,-154.31 339.51,-142.87"/>
<polygon fill="midnightblue" stroke="midnightblue" points="341.9,-145.48 348.27,-137.01 338.01,-139.66 341.9,-145.48"/>
</g>
<!-- Node14 -->
<g id="node14" class="node">
<title>Node14</title>
<g id="a_node14"><a xlink:href="compiler__defs_8h.html" target="_top" xlink:title=" ">
<polygon fill="none" stroke="black" points="621.5,-112.5 621.5,-142.5 728.5,-142.5 728.5,-112.5 621.5,-112.5"/>
<text text-anchor="start" x="629.5" y="-130.5" font-family="Helvetica,sans-Serif" font-size="10.00">../system/compiler</text>
<text text-anchor="middle" x="675" y="-119.5" font-family="Helvetica,sans-Serif" font-size="10.00">_defs.h</text>
</a>
</g>
</g>
<!-- Node4&#45;&gt;Node14 -->
<g id="edge21" class="edge">
<title>Node4&#45;&gt;Node14</title>
<path fill="none" stroke="midnightblue" d="M329.74,-179.48C404.31,-168.47 533.68,-149.36 611.12,-137.93"/>
<polygon fill="midnightblue" stroke="midnightblue" points="611.85,-141.36 621.23,-136.44 610.83,-134.44 611.85,-141.36"/>
</g>
<!-- Node9&#45;&gt;Node2 -->
<g id="edge11" class="edge">
<title>Node9&#45;&gt;Node2</title>
<path fill="none" stroke="midnightblue" d="M348.59,-117.87C324.18,-101.01 270.52,-64.62 250,-56 209.81,-39.13 162.14,-27.94 124.23,-20.93"/>
<polygon fill="midnightblue" stroke="midnightblue" points="124.77,-17.47 114.31,-19.15 123.54,-24.36 124.77,-17.47"/>
</g>
<!-- Node9&#45;&gt;Node3 -->
<g id="edge19" class="edge">
<title>Node9&#45;&gt;Node3</title>
<path fill="none" stroke="midnightblue" d="M391.11,-117.91C463.1,-97.38 645.2,-45.45 726.15,-22.36"/>
<polygon fill="midnightblue" stroke="midnightblue" points="727.31,-25.67 735.97,-19.56 725.39,-18.94 727.31,-25.67"/>
</g>
<!-- Node9&#45;&gt;Node6 -->
<g id="edge14" class="edge">
<title>Node9&#45;&gt;Node6</title>
<path fill="none" stroke="midnightblue" d="M326.47,-117.98C283.79,-107.44 211.08,-89.49 164.32,-77.94"/>
<polygon fill="midnightblue" stroke="midnightblue" points="165.01,-74.51 154.47,-75.51 163.33,-81.3 165.01,-74.51"/>
</g>
<!-- Node9&#45;&gt;Node7 -->
<g id="edge10" class="edge">
<title>Node9&#45;&gt;Node7</title>
<path fill="none" stroke="midnightblue" d="M406.63,-117.97C435.38,-110.73 471.87,-97.9 498,-76 512.83,-63.57 523.22,-43.77 529.34,-29.29"/>
<polygon fill="midnightblue" stroke="midnightblue" points="532.65,-30.45 533.05,-19.87 526.13,-27.89 532.65,-30.45"/>
</g>
<!-- Node10 -->
<g id="node10" class="node">
<title>Node10</title>
<g id="a_node10"><a xlink:href="preprocessor_8h.html" target="_top" xlink:title=" ">
<polygon fill="none" stroke="black" points="659.5,-56.5 659.5,-75.5 782.5,-75.5 782.5,-56.5 659.5,-56.5"/>
<text text-anchor="middle" x="721" y="-63.5" font-family="Helvetica,sans-Serif" font-size="10.00">../misc/preprocessor.h</text>
</a>
</g>
</g>
<!-- Node9&#45;&gt;Node10 -->
<g id="edge12" class="edge">
<title>Node9&#45;&gt;Node10</title>
<path fill="none" stroke="midnightblue" d="M412.58,-117.98C477.81,-107.19 589.98,-88.65 659.57,-77.15"/>
<polygon fill="midnightblue" stroke="midnightblue" points="660.22,-80.59 669.52,-75.51 659.08,-73.69 660.22,-80.59"/>
</g>
<!-- Node11 -->
<g id="node11" class="node">
<title>Node11</title>
<g id="a_node11"><a xlink:title=" ">
<polygon fill="none" stroke="#bfbfbf" points="443.5,-56.5 443.5,-75.5 488.5,-75.5 488.5,-56.5 443.5,-56.5"/>
<text text-anchor="middle" x="466" y="-63.5" font-family="Helvetica,sans-Serif" font-size="10.00">utility</text>
</a>
</g>
</g>
<!-- Node9&#45;&gt;Node11 -->
<g id="edge15" class="edge">
<title>Node9&#45;&gt;Node11</title>
<path fill="none" stroke="midnightblue" d="M376.04,-117.98C393.28,-108.21 421.74,-92.08 442.03,-80.58"/>
<polygon fill="midnightblue" stroke="midnightblue" points="444.01,-83.48 450.98,-75.51 440.56,-77.39 444.01,-83.48"/>
</g>
<!-- Node12 -->
<g id="node12" class="node">
<title>Node12</title>
<g id="a_node12"><a xlink:href="_ignore_unused_8h.html" target="_top" xlink:title=" ">
<polygon fill="none" stroke="black" points="297,-56.5 297,-75.5 425,-75.5 425,-56.5 297,-56.5"/>
<text text-anchor="middle" x="361" y="-63.5" font-family="Helvetica,sans-Serif" font-size="10.00">../misc/IgnoreUnused.h</text>
</a>
</g>
</g>
<!-- Node9&#45;&gt;Node12 -->
<g id="edge16" class="edge">
<title>Node9&#45;&gt;Node12</title>
<path fill="none" stroke="midnightblue" d="M361,-117.98C361,-109.58 361,-96.48 361,-85.66"/>
<polygon fill="midnightblue" stroke="midnightblue" points="364.5,-85.51 361,-75.51 357.5,-85.51 364.5,-85.51"/>
</g>
<!-- Node13 -->
<g id="node13" class="node">
<title>Node13</title>
<g id="a_node13"><a xlink:title=" ">
<polygon fill="none" stroke="#bfbfbf" points="173,-56.5 173,-75.5 241,-75.5 241,-56.5 173,-56.5"/>
<text text-anchor="middle" x="207" y="-63.5" font-family="Helvetica,sans-Serif" font-size="10.00">filesystem</text>
</a>
</g>
</g>
<!-- Node9&#45;&gt;Node13 -->
<g id="edge20" class="edge">
<title>Node9&#45;&gt;Node13</title>
<path fill="none" stroke="midnightblue" d="M338.94,-117.98C312.63,-107.81 268.49,-90.76 238.58,-79.2"/>
<polygon fill="midnightblue" stroke="midnightblue" points="239.61,-75.85 229.02,-75.51 237.09,-82.38 239.61,-75.85"/>
</g>
<!-- Node10&#45;&gt;Node3 -->
<g id="edge13" class="edge">
<title>Node10&#45;&gt;Node3</title>
<path fill="none" stroke="midnightblue" d="M728.43,-56.08C734.85,-48.38 744.31,-37.03 752.12,-27.65"/>
<polygon fill="midnightblue" stroke="midnightblue" points="754.99,-29.67 758.71,-19.75 749.62,-25.19 754.99,-29.67"/>
</g>
<!-- Node12&#45;&gt;Node2 -->
<g id="edge18" class="edge">
<title>Node12&#45;&gt;Node2</title>
<path fill="none" stroke="midnightblue" d="M312.83,-56.44C259.13,-46.9 172.31,-31.48 114.95,-21.29"/>
<polygon fill="midnightblue" stroke="midnightblue" points="115.4,-17.82 104.94,-19.52 114.18,-24.71 115.4,-17.82"/>
</g>
<!-- Node12&#45;&gt;Node7 -->
<g id="edge17" class="edge">
<title>Node12&#45;&gt;Node7</title>
<path fill="none" stroke="midnightblue" d="M388.73,-56.44C418.43,-47.28 465.72,-32.69 498.67,-22.52"/>
<polygon fill="midnightblue" stroke="midnightblue" points="499.88,-25.81 508.4,-19.52 497.81,-19.12 499.88,-25.81"/>
</g>
<!-- Node14&#45;&gt;Node3 -->
<g id="edge22" class="edge">
<title>Node14&#45;&gt;Node3</title>
<path fill="none" stroke="midnightblue" d="M728.75,-117.04C752.34,-109.93 777.84,-97.54 792,-76 801.97,-60.84 791.47,-41.25 780.98,-27.56"/>
<polygon fill="midnightblue" stroke="midnightblue" points="783.39,-24.98 774.31,-19.52 778,-29.45 783.39,-24.98"/>
</g>
<!-- Node14&#45;&gt;Node10 -->
<g id="edge23" class="edge">
<title>Node14&#45;&gt;Node10</title>
<path fill="none" stroke="midnightblue" d="M685.9,-112.4C692.59,-103.75 701.18,-92.64 708.18,-83.58"/>
<polygon fill="midnightblue" stroke="midnightblue" points="710.96,-85.71 714.31,-75.66 705.42,-81.43 710.96,-85.71"/>
</g>
<!-- Node15&#45;&gt;Node2 -->
<g id="edge26" class="edge">
<title>Node15&#45;&gt;Node2</title>
<path fill="none" stroke="midnightblue" d="M549.75,-186.22C489.06,-182.71 375.75,-172.46 284,-143 255.42,-133.82 252.12,-122.51 224,-112 160.59,-88.3 124.95,-122.76 76,-76 63.52,-64.08 59.11,-44.46 57.61,-29.89"/>
<polygon fill="midnightblue" stroke="midnightblue" points="61.08,-29.29 56.94,-19.53 54.09,-29.74 61.08,-29.29"/>
</g>
<!-- Node15&#45;&gt;Node7 -->
<g id="edge25" class="edge">
<title>Node15&#45;&gt;Node7</title>
<path fill="none" stroke="midnightblue" d="M592.76,-179.28C591.87,-157.55 587.78,-99.65 569,-56 564.56,-45.67 557.36,-35.46 550.82,-27.39"/>
<polygon fill="midnightblue" stroke="midnightblue" points="553.3,-24.89 544.15,-19.55 547.97,-29.43 553.3,-24.89"/>
</g>
<!-- Node15&#45;&gt;Node10 -->
<g id="edge27" class="edge">
<title>Node15&#45;&gt;Node10</title>
<path fill="none" stroke="midnightblue" d="M636.29,-187.5C670.01,-184.54 714.86,-174.41 738,-143 750.6,-125.89 741.33,-101.15 732.28,-84.59"/>
<polygon fill="midnightblue" stroke="midnightblue" points="735.25,-82.74 727.15,-75.91 729.23,-86.3 735.25,-82.74"/>
</g>
<!-- Node15&#45;&gt;Node14 -->
<g id="edge28" class="edge">
<title>Node15&#45;&gt;Node14</title>
<path fill="none" stroke="midnightblue" d="M604.75,-179.48C615.85,-171.42 632.93,-159.02 647.47,-148.47"/>
<polygon fill="midnightblue" stroke="midnightblue" points="649.64,-151.23 655.67,-142.52 645.52,-145.56 649.64,-151.23"/>
</g>
</g>
</svg>
        <g id="navigator" transform="translate(0 0)" fill="#404254">
                <rect fill="#f2f5e9" fill-opacity="0.5" stroke="#606060" stroke-width=".5" x="0" y="0" width="60" height="60"/>
                <use id="zoomplus" xlink:href="#zoomPlus" x="17" y="9" onmousedown="handleZoom(evt,'in')"/>
                <use id="zoomminus" xlink:href="#zoomMin" x="42" y="9" onmousedown="handleZoom(evt,'out')"/>
                <use id="reset" xlink:href="#resetDef" x="30" y="36" onmousedown="handleReset()"/>
                <g id="arrowUp" xlink:href="#dirArrow" transform="translate(30 24)" onmousedown="handlePan(0,-1)">
                  <use xlink:href="#rim" fill="#404040">
                        <set attributeName="fill" to="#808080" begin="arrowUp.mouseover" end="arrowUp.mouseout"/>
                  </use>
                  <path fill="none" stroke="white" stroke-width="1.5" d="M0,-3.0v7 M-2.5,-0.5L0,-3.0L2.5,-0.5"/>
                </g>
                <g id="arrowRight" xlink:href="#dirArrow" transform="rotate(90) translate(36 -43)" onmousedown="handlePan(1,0)">
                  <use xlink:href="#rim" fill="#404040">
                        <set attributeName="fill" to="#808080" begin="arrowRight.mouseover" end="arrowRight.mouseout"/>
                  </use>
                  <path fill="none" stroke="white" stroke-width="1.5" d="M0,-3.0v7 M-2.5,-0.5L0,-3.0L2.5,-0.5"/>
                </g>
                <g id="arrowDown" xlink:href="#dirArrow" transform="rotate(180) translate(-30 -48)" onmousedown="handlePan(0,1)">
                  <use xlink:href="#rim" fill="#404040">
                        <set attributeName="fill" to="#808080" begin="arrowDown.mouseover" end="arrowDown.mouseout"/>
                  </use>
                  <path fill="none" stroke="white" stroke-width="1.5" d="M0,-3.0v7 M-2.5,-0.5L0,-3.0L2.5,-0.5"/>
                </g>
                <g id="arrowLeft" xlink:href="#dirArrow" transform="rotate(270) translate(-36 17)" onmousedown="handlePan(-1,0)">
                  <use xlink:href="#rim" fill="#404040">
                        <set attributeName="fill" to="#808080" begin="arrowLeft.mouseover" end="arrowLeft.mouseout"/>
                  </use>
                  <path fill="none" stroke="white" stroke-width="1.5" d="M0,-3.0v7 M-2.5,-0.5L0,-3.0L2.5,-0.5"/>
                </g>
        </g>
        <svg viewBox="0 0 15 15" width="100%" height="30px" preserveAspectRatio="xMaxYMin meet">
         <g id="arrow_out" transform="scale(0.3 0.3)">
          <a xlink:href="month__impl_8h__incl_org.svg" target="_base">
           <rect id="button" ry="5" rx="5" y="6" x="6" height="38" width="38"
                fill="#f2f5e9" fill-opacity="0.5" stroke="#606060" stroke-width="1.0"/>
           <path id="arrow"
             d="M 11.500037,31.436501 C 11.940474,20.09759 22.043105,11.32322 32.158766,21.979434 L 37.068811,17.246167 C 37.068811,17.246167 37.088388,32 37.088388,32 L 22.160133,31.978069 C 22.160133,31.978069 26.997745,27.140456 26.997745,27.140456 C 18.528582,18.264221 13.291696,25.230495 11.500037,31.436501 z"
             style="fill:#404040;"/>
          </a>
         </g>
        </svg>
</svg>
