<?xml version="1.0" encoding="UTF-8" standalone="no"?>
<!DOCTYPE svg PUBLIC "-//W3C//DTD SVG 1.1//EN"
 "http://www.w3.org/Graphics/SVG/1.1/DTD/svg11.dtd">
<!-- Generated by graphviz version 2.43.0 (0)
 -->
<!-- Title: month.h Pages: 1 -->
<!--zoomable 308 -->
<svg id="main" version="1.1" xmlns="http://www.w3.org/2000/svg" xmlns:xlink="http://www.w3.org/1999/xlink" xml:space="preserve" onload="init(evt)">
<style type="text/css"><![CDATA[
.edge:hover path { stroke: red; }
.edge:hover polygon { stroke: red; fill: red; }
]]></style>
<script type="text/javascript"><![CDATA[
var edges = document.getElementsByTagName('g');
if (edges && edges.length) {
  for (var i=0;i<edges.length;i++) {
    if (edges[i].id.substr(0,4)=='edge') {
      edges[i].setAttribute('class','edge');
    }
  }
}
]]></script>
        <defs>
                <circle id="rim" cx="0" cy="0" r="7"/>
                <circle id="rim2" cx="0" cy="0" r="3.5"/>
                <g id="zoomPlus">
                        <use xlink:href="#rim" fill="#404040">
                                <set attributeName="fill" to="#808080" begin="zoomplus.mouseover" end="zoomplus.mouseout"/>
                        </use>
                        <path d="M-4,0h8M0,-4v8" fill="none" stroke="white" stroke-width="1.5" pointer-events="none"/>
                </g>
                <g id="zoomMin">
                        <use xlink:href="#rim" fill="#404040">
                                <set attributeName="fill" to="#808080" begin="zoomminus.mouseover" end="zoomminus.mouseout"/>
                        </use>
                        <path d="M-4,0h8" fill="none" stroke="white" stroke-width="1.5" pointer-events="none"/>
                </g>
                <g id="dirArrow">
                        <path fill="none" stroke="white" stroke-width="1.5" d="M0,-3.0v7 M-2.5,-0.5L0,-3.0L2.5,-0.5"/>
                </g>
               <g id="resetDef">
                       <use xlink:href="#rim2" fill="#404040">
                               <set attributeName="fill" to="#808080" begin="reset.mouseover" end="reset.mouseout"/>
                       </use>
               </g>
        </defs>

<script type="text/javascript">
var viewWidth = 873;
var viewHeight = 308;
var sectionId = 'dynsection-0';
</script>
<script xlink:href="svgpan.js"/>
<svg id="graph" class="graph">
<g id="viewport">
<title>month.h</title>
<!-- Node1 -->
<g id="node1" class="node">
<title>Node1</title>
<g id="a_node1"><a xlink:title=" ">
<polygon fill="#bfbfbf" stroke="black" points="603.5,-280.5 603.5,-299.5 660.5,-299.5 660.5,-280.5 603.5,-280.5"/>
<text text-anchor="middle" x="632" y="-287.5" font-family="Helvetica,sans-Serif" font-size="10.00">month.h</text>
</a>
</g>
</g>
<!-- Node2 -->
<g id="node2" class="node">
<title>Node2</title>
<g id="a_node2"><a xlink:title=" ">
<polygon fill="none" stroke="#bfbfbf" points="567.5,-0.5 567.5,-19.5 656.5,-19.5 656.5,-0.5 567.5,-0.5"/>
<text text-anchor="middle" x="612" y="-7.5" font-family="Helvetica,sans-Serif" font-size="10.00">limes_export.h</text>
</a>
</g>
</g>
<!-- Node1&#45;&gt;Node2 -->
<g id="edge1" class="edge">
<title>Node1&#45;&gt;Node2</title>
<path fill="none" stroke="midnightblue" d="M627.07,-280.44C620.29,-267.46 610.01,-242.34 620,-224 680.35,-113.13 929.5,-153.23 849,-56 837.45,-42.05 733.28,-26.4 666.95,-17.72"/>
<polygon fill="midnightblue" stroke="midnightblue" points="667.01,-14.2 656.65,-16.39 666.11,-21.15 667.01,-14.2"/>
</g>
<!-- Node3 -->
<g id="node3" class="node">
<title>Node3</title>
<g id="a_node3"><a xlink:href="limes__namespace_8h.html" target="_top" xlink:title=" ">
<polygon fill="none" stroke="black" points="82,-0.5 82,-19.5 196,-19.5 196,-0.5 82,-0.5"/>
<text text-anchor="middle" x="139" y="-7.5" font-family="Helvetica,sans-Serif" font-size="10.00">limes_namespace.h</text>
</a>
</g>
</g>
<!-- Node1&#45;&gt;Node3 -->
<g id="edge2" class="edge">
<title>Node1&#45;&gt;Node3</title>
<path fill="none" stroke="midnightblue" d="M603.2,-287.08C479.56,-278.48 0,-241.09 0,-179 0,-179 0,-179 0,-121 0,-69.58 59.23,-38.42 100.36,-22.98"/>
<polygon fill="midnightblue" stroke="midnightblue" points="101.63,-26.24 109.86,-19.57 99.27,-19.65 101.63,-26.24"/>
</g>
<!-- Node4 -->
<g id="node4" class="node">
<title>Node4</title>
<g id="a_node4"><a xlink:href="preprocessor_8h.html" target="_top" xlink:title=" ">
<polygon fill="none" stroke="black" points="716.5,-56.5 716.5,-75.5 839.5,-75.5 839.5,-56.5 716.5,-56.5"/>
<text text-anchor="middle" x="778" y="-63.5" font-family="Helvetica,sans-Serif" font-size="10.00">../misc/preprocessor.h</text>
</a>
</g>
</g>
<!-- Node1&#45;&gt;Node4 -->
<g id="edge3" class="edge">
<title>Node1&#45;&gt;Node4</title>
<path fill="none" stroke="midnightblue" d="M660.74,-288.96C693.81,-287.2 746.89,-278.7 773,-244 808.52,-196.79 793.53,-120.7 783.84,-85.7"/>
<polygon fill="midnightblue" stroke="midnightblue" points="787.13,-84.48 780.96,-75.88 780.42,-86.46 787.13,-84.48"/>
</g>
<!-- Node6 -->
<g id="node6" class="node">
<title>Node6</title>
<g id="a_node6"><a xlink:title=" ">
<polygon fill="none" stroke="#bfbfbf" points="628.5,-224.5 628.5,-243.5 701.5,-243.5 701.5,-224.5 628.5,-224.5"/>
<text text-anchor="middle" x="665" y="-231.5" font-family="Helvetica,sans-Serif" font-size="10.00">string_view</text>
</a>
</g>
</g>
<!-- Node1&#45;&gt;Node6 -->
<g id="edge5" class="edge">
<title>Node1&#45;&gt;Node6</title>
<path fill="none" stroke="midnightblue" d="M637.45,-280.08C642.01,-272.61 648.67,-261.72 654.29,-252.52"/>
<polygon fill="midnightblue" stroke="midnightblue" points="657.42,-254.11 659.65,-243.75 651.45,-250.46 657.42,-254.11"/>
</g>
<!-- Node7 -->
<g id="node7" class="node">
<title>Node7</title>
<g id="a_node7"><a xlink:title=" ">
<polygon fill="none" stroke="#bfbfbf" points="720,-224.5 720,-243.5 764,-243.5 764,-224.5 720,-224.5"/>
<text text-anchor="middle" x="742" y="-231.5" font-family="Helvetica,sans-Serif" font-size="10.00">ctime</text>
</a>
</g>
</g>
<!-- Node1&#45;&gt;Node7 -->
<g id="edge6" class="edge">
<title>Node1&#45;&gt;Node7</title>
<path fill="none" stroke="midnightblue" d="M649.67,-280.32C667.39,-271.62 694.9,-258.12 715.29,-248.11"/>
<polygon fill="midnightblue" stroke="midnightblue" points="716.94,-251.2 724.37,-243.65 713.85,-244.92 716.94,-251.2"/>
</g>
<!-- Node8 -->
<g id="node8" class="node">
<title>Node8</title>
<g id="a_node8"><a xlink:href="month__impl_8h.html" target="_top" xlink:title=" ">
<polygon fill="none" stroke="black" points="462.5,-224.5 462.5,-243.5 571.5,-243.5 571.5,-224.5 462.5,-224.5"/>
<text text-anchor="middle" x="517" y="-231.5" font-family="Helvetica,sans-Serif" font-size="10.00">impl/month_impl.h</text>
</a>
</g>
</g>
<!-- Node1&#45;&gt;Node8 -->
<g id="edge7" class="edge">
<title>Node1&#45;&gt;Node8</title>
<path fill="none" stroke="midnightblue" d="M613.78,-280.44C595.1,-271.68 565.84,-257.94 544.38,-247.86"/>
<polygon fill="midnightblue" stroke="midnightblue" points="545.68,-244.6 535.14,-243.52 542.7,-250.93 545.68,-244.6"/>
</g>
<!-- Node5 -->
<g id="node5" class="node">
<title>Node5</title>
<g id="a_node5"><a xlink:title=" ">
<polygon fill="none" stroke="#bfbfbf" points="728,-0.5 728,-19.5 828,-19.5 828,-0.5 728,-0.5"/>
<text text-anchor="middle" x="778" y="-7.5" font-family="Helvetica,sans-Serif" font-size="10.00">limes_platform.h</text>
</a>
</g>
</g>
<!-- Node4&#45;&gt;Node5 -->
<g id="edge4" class="edge">
<title>Node4&#45;&gt;Node5</title>
<path fill="none" stroke="midnightblue" d="M778,-56.08C778,-49.01 778,-38.86 778,-29.99"/>
<polygon fill="midnightblue" stroke="midnightblue" points="781.5,-29.75 778,-19.75 774.5,-29.75 781.5,-29.75"/>
</g>
<!-- Node8&#45;&gt;Node3 -->
<g id="edge8" class="edge">
<title>Node8&#45;&gt;Node3</title>
<path fill="none" stroke="midnightblue" d="M462.48,-229.28C404.46,-224.2 310.53,-212.72 233,-188 179.6,-170.97 160.53,-170.72 120,-132 93.63,-106.8 74.16,-89.32 89,-56 94.57,-43.5 105.52,-33.01 115.75,-25.32"/>
<polygon fill="midnightblue" stroke="midnightblue" points="117.85,-28.12 124.05,-19.53 113.84,-22.38 117.85,-28.12"/>
</g>
<!-- Node8&#45;&gt;Node5 -->
<g id="edge9" class="edge">
<title>Node8&#45;&gt;Node5</title>
<path fill="none" stroke="midnightblue" d="M571.69,-225.4C649.22,-211.35 788.4,-173.28 849,-76 862.48,-54.37 834.69,-35.44 810.03,-23.67"/>
<polygon fill="midnightblue" stroke="midnightblue" points="811.38,-20.44 800.83,-19.52 808.5,-26.82 811.38,-20.44"/>
</g>
<!-- Node9 -->
<g id="node9" class="node">
<title>Node9</title>
<g id="a_node9"><a xlink:href="math_helpers_8h.html" target="_top" xlink:title=" ">
<polygon fill="none" stroke="black" points="242.5,-168.5 242.5,-187.5 377.5,-187.5 377.5,-168.5 242.5,-168.5"/>
<text text-anchor="middle" x="310" y="-175.5" font-family="Helvetica,sans-Serif" font-size="10.00">../../math/mathHelpers.h</text>
</a>
</g>
</g>
<!-- Node8&#45;&gt;Node9 -->
<g id="edge10" class="edge">
<title>Node8&#45;&gt;Node9</title>
<path fill="none" stroke="midnightblue" d="M484.2,-224.44C448.62,-215.16 391.69,-200.31 352.65,-190.13"/>
<polygon fill="midnightblue" stroke="midnightblue" points="353.21,-186.65 342.65,-187.52 351.44,-193.43 353.21,-186.65"/>
</g>
<!-- Node17 -->
<g id="node17" class="node">
<title>Node17</title>
<g id="a_node17"><a xlink:href="build__date_8h.html" target="_top" xlink:title=" ">
<polygon fill="none" stroke="black" points="640,-112.5 640,-131.5 726,-131.5 726,-112.5 640,-112.5"/>
<text text-anchor="middle" x="683" y="-119.5" font-family="Helvetica,sans-Serif" font-size="10.00">../build_date.h</text>
</a>
</g>
</g>
<!-- Node8&#45;&gt;Node17 -->
<g id="edge27" class="edge">
<title>Node8&#45;&gt;Node17</title>
<path fill="none" stroke="midnightblue" d="M530.03,-224.37C558.51,-205.49 626.58,-160.38 661.52,-137.24"/>
<polygon fill="midnightblue" stroke="midnightblue" points="663.63,-140.03 670.03,-131.59 659.77,-134.2 663.63,-140.03"/>
</g>
<!-- Node9&#45;&gt;Node2 -->
<g id="edge14" class="edge">
<title>Node9&#45;&gt;Node2</title>
<path fill="none" stroke="midnightblue" d="M368.61,-168.44C406.37,-161.6 455.9,-150.1 497,-132 537.73,-114.06 550.75,-109.53 580,-76 591.99,-62.25 600.67,-43.22 605.93,-29.3"/>
<polygon fill="midnightblue" stroke="midnightblue" points="609.25,-30.42 609.3,-19.83 602.65,-28.08 609.25,-30.42"/>
</g>
<!-- Node9&#45;&gt;Node3 -->
<g id="edge11" class="edge">
<title>Node9&#45;&gt;Node3</title>
<path fill="none" stroke="midnightblue" d="M242.86,-168.47C189.61,-157.49 120.12,-132.53 95,-76 86.78,-57.51 102.91,-38.6 117.89,-25.98"/>
<polygon fill="midnightblue" stroke="midnightblue" points="120.24,-28.58 125.94,-19.65 115.92,-23.08 120.24,-28.58"/>
</g>
<!-- Node10 -->
<g id="node10" class="node">
<title>Node10</title>
<g id="a_node10"><a xlink:title=" ">
<polygon fill="none" stroke="#bfbfbf" points="286.5,-112.5 286.5,-131.5 333.5,-131.5 333.5,-112.5 286.5,-112.5"/>
<text text-anchor="middle" x="310" y="-119.5" font-family="Helvetica,sans-Serif" font-size="10.00">cmath</text>
</a>
</g>
</g>
<!-- Node9&#45;&gt;Node10 -->
<g id="edge12" class="edge">
<title>Node9&#45;&gt;Node10</title>
<path fill="none" stroke="midnightblue" d="M310,-168.08C310,-161.01 310,-150.86 310,-141.99"/>
<polygon fill="midnightblue" stroke="midnightblue" points="313.5,-141.75 310,-131.75 306.5,-141.75 313.5,-141.75"/>
</g>
<!-- Node11 -->
<g id="node11" class="node">
<title>Node11</title>
<g id="a_node11"><a xlink:title=" ">
<polygon fill="none" stroke="#bfbfbf" points="104.5,-56.5 104.5,-75.5 173.5,-75.5 173.5,-56.5 104.5,-56.5"/>
<text text-anchor="middle" x="139" y="-63.5" font-family="Helvetica,sans-Serif" font-size="10.00">type_traits</text>
</a>
</g>
</g>
<!-- Node9&#45;&gt;Node11 -->
<g id="edge13" class="edge">
<title>Node9&#45;&gt;Node11</title>
<path fill="none" stroke="midnightblue" d="M302.41,-168.48C290.13,-155.09 264.69,-128.91 239,-112 218.36,-98.42 192.95,-87.04 172.91,-79.13"/>
<polygon fill="midnightblue" stroke="midnightblue" points="174.14,-75.85 163.55,-75.52 171.63,-82.38 174.14,-75.85"/>
</g>
<!-- Node12 -->
<g id="node12" class="node">
<title>Node12</title>
<g id="a_node12"><a xlink:title=" ">
<polygon fill="none" stroke="#bfbfbf" points="166,-112.5 166,-131.5 230,-131.5 230,-112.5 166,-112.5"/>
<text text-anchor="middle" x="198" y="-119.5" font-family="Helvetica,sans-Serif" font-size="10.00">algorithm</text>
</a>
</g>
</g>
<!-- Node9&#45;&gt;Node12 -->
<g id="edge15" class="edge">
<title>Node9&#45;&gt;Node12</title>
<path fill="none" stroke="midnightblue" d="M292.01,-168.32C273.96,-159.62 245.95,-146.12 225.2,-136.11"/>
<polygon fill="midnightblue" stroke="midnightblue" points="226.48,-132.84 215.95,-131.65 223.44,-139.15 226.48,-132.84"/>
</g>
<!-- Node13 -->
<g id="node13" class="node">
<title>Node13</title>
<g id="a_node13"><a xlink:href="limes__assert_8h.html" target="_top" xlink:title=" ">
<polygon fill="none" stroke="black" points="352,-112.5 352,-131.5 488,-131.5 488,-112.5 352,-112.5"/>
<text text-anchor="middle" x="420" y="-119.5" font-family="Helvetica,sans-Serif" font-size="10.00">../system/limes_assert.h</text>
</a>
</g>
</g>
<!-- Node9&#45;&gt;Node13 -->
<g id="edge16" class="edge">
<title>Node9&#45;&gt;Node13</title>
<path fill="none" stroke="midnightblue" d="M327.67,-168.32C345.39,-159.62 372.9,-146.12 393.29,-136.11"/>
<polygon fill="midnightblue" stroke="midnightblue" points="394.94,-139.2 402.37,-131.65 391.85,-132.92 394.94,-139.2"/>
</g>
<!-- Node13&#45;&gt;Node2 -->
<g id="edge17" class="edge">
<title>Node13&#45;&gt;Node2</title>
<path fill="none" stroke="midnightblue" d="M464.28,-112.48C491.99,-105.7 527.53,-94.25 555,-76 573.87,-63.47 590.3,-43.12 600.61,-28.52"/>
<polygon fill="midnightblue" stroke="midnightblue" points="603.74,-30.15 606.47,-19.91 597.95,-26.21 603.74,-30.15"/>
</g>
<!-- Node13&#45;&gt;Node3 -->
<g id="edge18" class="edge">
<title>Node13&#45;&gt;Node3</title>
<path fill="none" stroke="midnightblue" d="M351.64,-113.25C312.04,-106.91 262.06,-95.65 221,-76 195.05,-63.58 169.82,-41.65 154.35,-26.73"/>
<polygon fill="midnightblue" stroke="midnightblue" points="156.77,-24.2 147.2,-19.65 151.85,-29.17 156.77,-24.2"/>
</g>
<!-- Node13&#45;&gt;Node4 -->
<g id="edge19" class="edge">
<title>Node13&#45;&gt;Node4</title>
<path fill="none" stroke="midnightblue" d="M476.73,-112.44C540.49,-102.83 643.9,-87.23 711.43,-77.04"/>
<polygon fill="midnightblue" stroke="midnightblue" points="712.17,-80.47 721.54,-75.52 711.13,-73.55 712.17,-80.47"/>
</g>
<!-- Node13&#45;&gt;Node5 -->
<g id="edge25" class="edge">
<title>Node13&#45;&gt;Node5</title>
<path fill="none" stroke="midnightblue" d="M451.99,-112.44C484.38,-103.67 535.83,-89.45 580,-76 637.63,-58.45 704.05,-36.23 743.45,-22.84"/>
<polygon fill="midnightblue" stroke="midnightblue" points="744.77,-26.09 753.1,-19.55 742.51,-19.47 744.77,-26.09"/>
</g>
<!-- Node13&#45;&gt;Node11 -->
<g id="edge20" class="edge">
<title>Node13&#45;&gt;Node11</title>
<path fill="none" stroke="midnightblue" d="M375.47,-112.44C322.95,-102.35 236.16,-85.67 183.61,-75.57"/>
<polygon fill="midnightblue" stroke="midnightblue" points="184.05,-72.09 173.57,-73.64 182.73,-78.97 184.05,-72.09"/>
</g>
<!-- Node14 -->
<g id="node14" class="node">
<title>Node14</title>
<g id="a_node14"><a xlink:title=" ">
<polygon fill="none" stroke="#bfbfbf" points="316.5,-56.5 316.5,-75.5 361.5,-75.5 361.5,-56.5 316.5,-56.5"/>
<text text-anchor="middle" x="339" y="-63.5" font-family="Helvetica,sans-Serif" font-size="10.00">utility</text>
</a>
</g>
</g>
<!-- Node13&#45;&gt;Node14 -->
<g id="edge21" class="edge">
<title>Node13&#45;&gt;Node14</title>
<path fill="none" stroke="midnightblue" d="M406.99,-112.32C394.47,-103.98 375.32,-91.21 360.53,-81.35"/>
<polygon fill="midnightblue" stroke="midnightblue" points="362.24,-78.29 351.98,-75.65 358.36,-84.11 362.24,-78.29"/>
</g>
<!-- Node15 -->
<g id="node15" class="node">
<title>Node15</title>
<g id="a_node15"><a xlink:href="_ignore_unused_8h.html" target="_top" xlink:title=" ">
<polygon fill="none" stroke="black" points="418,-56.5 418,-75.5 546,-75.5 546,-56.5 418,-56.5"/>
<text text-anchor="middle" x="482" y="-63.5" font-family="Helvetica,sans-Serif" font-size="10.00">../misc/IgnoreUnused.h</text>
</a>
</g>
</g>
<!-- Node13&#45;&gt;Node15 -->
<g id="edge22" class="edge">
<title>Node13&#45;&gt;Node15</title>
<path fill="none" stroke="midnightblue" d="M429.96,-112.32C439.13,-104.34 452.94,-92.31 464.03,-82.65"/>
<polygon fill="midnightblue" stroke="midnightblue" points="466.62,-85.04 471.86,-75.83 462.02,-79.76 466.62,-85.04"/>
</g>
<!-- Node16 -->
<g id="node16" class="node">
<title>Node16</title>
<g id="a_node16"><a xlink:title=" ">
<polygon fill="none" stroke="#bfbfbf" points="230,-56.5 230,-75.5 298,-75.5 298,-56.5 230,-56.5"/>
<text text-anchor="middle" x="264" y="-63.5" font-family="Helvetica,sans-Serif" font-size="10.00">filesystem</text>
</a>
</g>
</g>
<!-- Node13&#45;&gt;Node16 -->
<g id="edge26" class="edge">
<title>Node13&#45;&gt;Node16</title>
<path fill="none" stroke="midnightblue" d="M395.28,-112.44C369.15,-103.4 327.74,-89.06 298.42,-78.92"/>
<polygon fill="midnightblue" stroke="midnightblue" points="299.2,-75.48 288.6,-75.52 296.91,-82.1 299.2,-75.48"/>
</g>
<!-- Node15&#45;&gt;Node2 -->
<g id="edge23" class="edge">
<title>Node15&#45;&gt;Node2</title>
<path fill="none" stroke="midnightblue" d="M502.6,-56.44C523.99,-47.56 557.68,-33.56 582.02,-23.45"/>
<polygon fill="midnightblue" stroke="midnightblue" points="583.61,-26.58 591.5,-19.52 580.92,-20.12 583.61,-26.58"/>
</g>
<!-- Node15&#45;&gt;Node3 -->
<g id="edge24" class="edge">
<title>Node15&#45;&gt;Node3</title>
<path fill="none" stroke="midnightblue" d="M427.65,-56.44C366.69,-46.85 267.89,-31.29 203.18,-21.1"/>
<polygon fill="midnightblue" stroke="midnightblue" points="203.52,-17.61 193.1,-19.52 202.43,-24.53 203.52,-17.61"/>
</g>
<!-- Node17&#45;&gt;Node2 -->
<g id="edge28" class="edge">
<title>Node17&#45;&gt;Node2</title>
<path fill="none" stroke="midnightblue" d="M677.43,-112.37C665.76,-94.3 638.58,-52.18 623.17,-28.31"/>
<polygon fill="midnightblue" stroke="midnightblue" points="625.91,-26.1 617.55,-19.59 620.03,-29.89 625.91,-26.1"/>
</g>
<!-- Node17&#45;&gt;Node3 -->
<g id="edge29" class="edge">
<title>Node17&#45;&gt;Node3</title>
<path fill="none" stroke="midnightblue" d="M639.73,-118.2C584.84,-113.68 487.84,-102.44 409,-76 390.91,-69.93 389.01,-62.33 371,-56 317.09,-37.05 253.17,-25.4 206.09,-18.71"/>
<polygon fill="midnightblue" stroke="midnightblue" points="206.39,-15.22 196,-17.32 205.43,-22.16 206.39,-15.22"/>
</g>
<!-- Node17&#45;&gt;Node4 -->
<g id="edge30" class="edge">
<title>Node17&#45;&gt;Node4</title>
<path fill="none" stroke="midnightblue" d="M698.26,-112.32C713.22,-103.82 736.25,-90.73 753.73,-80.8"/>
<polygon fill="midnightblue" stroke="midnightblue" points="755.81,-83.64 762.77,-75.65 752.35,-77.55 755.81,-83.64"/>
</g>
</g>
</svg>
        <g id="navigator" transform="translate(0 0)" fill="#404254">
                <rect fill="#f2f5e9" fill-opacity="0.5" stroke="#606060" stroke-width=".5" x="0" y="0" width="60" height="60"/>
                <use id="zoomplus" xlink:href="#zoomPlus" x="17" y="9" onmousedown="handleZoom(evt,'in')"/>
                <use id="zoomminus" xlink:href="#zoomMin" x="42" y="9" onmousedown="handleZoom(evt,'out')"/>
                <use id="reset" xlink:href="#resetDef" x="30" y="36" onmousedown="handleReset()"/>
                <g id="arrowUp" xlink:href="#dirArrow" transform="translate(30 24)" onmousedown="handlePan(0,-1)">
                  <use xlink:href="#rim" fill="#404040">
                        <set attributeName="fill" to="#808080" begin="arrowUp.mouseover" end="arrowUp.mouseout"/>
                  </use>
                  <path fill="none" stroke="white" stroke-width="1.5" d="M0,-3.0v7 M-2.5,-0.5L0,-3.0L2.5,-0.5"/>
                </g>
                <g id="arrowRight" xlink:href="#dirArrow" transform="rotate(90) translate(36 -43)" onmousedown="handlePan(1,0)">
                  <use xlink:href="#rim" fill="#404040">
                        <set attributeName="fill" to="#808080" begin="arrowRight.mouseover" end="arrowRight.mouseout"/>
                  </use>
                  <path fill="none" stroke="white" stroke-width="1.5" d="M0,-3.0v7 M-2.5,-0.5L0,-3.0L2.5,-0.5"/>
                </g>
                <g id="arrowDown" xlink:href="#dirArrow" transform="rotate(180) translate(-30 -48)" onmousedown="handlePan(0,1)">
                  <use xlink:href="#rim" fill="#404040">
                        <set attributeName="fill" to="#808080" begin="arrowDown.mouseover" end="arrowDown.mouseout"/>
                  </use>
                  <path fill="none" stroke="white" stroke-width="1.5" d="M0,-3.0v7 M-2.5,-0.5L0,-3.0L2.5,-0.5"/>
                </g>
                <g id="arrowLeft" xlink:href="#dirArrow" transform="rotate(270) translate(-36 17)" onmousedown="handlePan(-1,0)">
                  <use xlink:href="#rim" fill="#404040">
                        <set attributeName="fill" to="#808080" begin="arrowLeft.mouseover" end="arrowLeft.mouseout"/>
                  </use>
                  <path fill="none" stroke="white" stroke-width="1.5" d="M0,-3.0v7 M-2.5,-0.5L0,-3.0L2.5,-0.5"/>
                </g>
        </g>
        <svg viewBox="0 0 15 15" width="100%" height="30px" preserveAspectRatio="xMaxYMin meet">
         <g id="arrow_out" transform="scale(0.3 0.3)">
          <a xlink:href="month_8h__incl_org.svg" target="_base">
           <rect id="button" ry="5" rx="5" y="6" x="6" height="38" width="38"
                fill="#f2f5e9" fill-opacity="0.5" stroke="#606060" stroke-width="1.0"/>
           <path id="arrow"
             d="M 11.500037,31.436501 C 11.940474,20.09759 22.043105,11.32322 32.158766,21.979434 L 37.068811,17.246167 C 37.068811,17.246167 37.088388,32 37.088388,32 L 22.160133,31.978069 C 22.160133,31.978069 26.997745,27.140456 26.997745,27.140456 C 18.528582,18.264221 13.291696,25.230495 11.500037,31.436501 z"
             style="fill:#404040;"/>
          </a>
         </g>
        </svg>
</svg>
