<?xml version="1.0" encoding="UTF-8" standalone="no"?>
<!DOCTYPE svg PUBLIC "-//W3C//DTD SVG 1.1//EN"
 "http://www.w3.org/Graphics/SVG/1.1/DTD/svg11.dtd">
<!-- Generated by graphviz version 2.43.0 (0)
 -->
<!-- Title: pyramid.h Pages: 1 -->
<svg width="1400pt" height="420pt"
 viewBox="0.00 0.00 1400.00 420.00" xmlns="http://www.w3.org/2000/svg" xmlns:xlink="http://www.w3.org/1999/xlink">
<g id="graph0" class="graph" transform="scale(1 1) rotate(0) translate(4 416)">
<title>pyramid.h</title>
<!-- Node1 -->
<g id="node1" class="node">
<title>Node1</title>
<g id="a_node1"><a xlink:title=" ">
<polygon fill="#bfbfbf" stroke="black" points="913,-392.5 913,-411.5 979,-411.5 979,-392.5 913,-392.5"/>
<text text-anchor="middle" x="946" y="-399.5" font-family="Helvetica,sans-Serif" font-size="10.00">pyramid.h</text>
</a>
</g>
</g>
<!-- Node2 -->
<g id="node2" class="node">
<title>Node2</title>
<g id="a_node2"><a xlink:href="limes__namespace_8h.html" target="_top" xlink:title=" ">
<polygon fill="none" stroke="black" points="833,-0.5 833,-19.5 947,-19.5 947,-0.5 833,-0.5"/>
<text text-anchor="middle" x="890" y="-7.5" font-family="Helvetica,sans-Serif" font-size="10.00">limes_namespace.h</text>
</a>
</g>
</g>
<!-- Node1&#45;&gt;Node2 -->
<g id="edge1" class="edge">
<title>Node1&#45;&gt;Node2</title>
<path fill="none" stroke="midnightblue" d="M979.16,-398.29C1069.98,-389.96 1316,-360.95 1316,-291 1316,-291 1316,-291 1316,-121 1316,-90.9 1320.05,-75.35 1297,-56 1271.55,-34.64 1066.18,-20.48 957.27,-14.39"/>
<polygon fill="midnightblue" stroke="midnightblue" points="957.22,-10.88 947.04,-13.83 956.83,-17.87 957.22,-10.88"/>
</g>
<!-- Node3 -->
<g id="node3" class="node">
<title>Node3</title>
<g id="a_node3"><a xlink:title=" ">
<polygon fill="none" stroke="#bfbfbf" points="185.5,-0.5 185.5,-19.5 274.5,-19.5 274.5,-0.5 185.5,-0.5"/>
<text text-anchor="middle" x="230" y="-7.5" font-family="Helvetica,sans-Serif" font-size="10.00">limes_export.h</text>
</a>
</g>
</g>
<!-- Node1&#45;&gt;Node3 -->
<g id="edge2" class="edge">
<title>Node1&#45;&gt;Node3</title>
<path fill="none" stroke="midnightblue" d="M912.97,-401.16C759.04,-401.69 116.28,-401.14 40,-356 10.81,-338.72 0,-324.92 0,-291 0,-291 0,-291 0,-121 0,-43.64 107.21,-20.64 175.23,-13.83"/>
<polygon fill="midnightblue" stroke="midnightblue" points="175.74,-17.3 185.38,-12.9 175.1,-10.33 175.74,-17.3"/>
</g>
<!-- Node4 -->
<g id="node4" class="node">
<title>Node4</title>
<g id="a_node4"><a xlink:title=" ">
<polygon fill="none" stroke="#bfbfbf" points="1098,-0.5 1098,-19.5 1198,-19.5 1198,-0.5 1098,-0.5"/>
<text text-anchor="middle" x="1148" y="-7.5" font-family="Helvetica,sans-Serif" font-size="10.00">limes_platform.h</text>
</a>
</g>
</g>
<!-- Node1&#45;&gt;Node4 -->
<g id="edge3" class="edge">
<title>Node1&#45;&gt;Node4</title>
<path fill="none" stroke="midnightblue" d="M979.16,-399.94C1082.52,-395.73 1392,-376.03 1392,-291 1392,-291 1392,-291 1392,-121 1392,-40.73 1280.89,-18.7 1208.62,-12.87"/>
<polygon fill="midnightblue" stroke="midnightblue" points="1208.49,-9.35 1198.26,-12.12 1207.98,-16.33 1208.49,-9.35"/>
</g>
<!-- Node5 -->
<g id="node5" class="node">
<title>Node5</title>
<g id="a_node5"><a xlink:href="preprocessor_8h.html" target="_top" xlink:title=" ">
<polygon fill="none" stroke="black" points="1146.5,-56.5 1146.5,-75.5 1287.5,-75.5 1287.5,-56.5 1146.5,-56.5"/>
<text text-anchor="middle" x="1217" y="-63.5" font-family="Helvetica,sans-Serif" font-size="10.00">../../../misc/preprocessor.h</text>
</a>
</g>
</g>
<!-- Node1&#45;&gt;Node5 -->
<g id="edge4" class="edge">
<title>Node1&#45;&gt;Node5</title>
<path fill="none" stroke="midnightblue" d="M979.09,-395.5C1054.37,-382.06 1232,-344.66 1232,-291 1232,-291 1232,-291 1232,-177 1232,-144.5 1225.49,-107.1 1221.05,-85.34"/>
<polygon fill="midnightblue" stroke="midnightblue" points="1224.46,-84.56 1218.96,-75.5 1217.61,-86.01 1224.46,-84.56"/>
</g>
<!-- Node6 -->
<g id="node6" class="node">
<title>Node6</title>
<g id="a_node6"><a xlink:href="triangle_8h.html" target="_top" xlink:title=" ">
<polygon fill="none" stroke="black" points="902.5,-280.5 902.5,-299.5 991.5,-299.5 991.5,-280.5 902.5,-280.5"/>
<text text-anchor="middle" x="947" y="-287.5" font-family="Helvetica,sans-Serif" font-size="10.00">../2D/triangle.h</text>
</a>
</g>
</g>
<!-- Node1&#45;&gt;Node6 -->
<g id="edge6" class="edge">
<title>Node1&#45;&gt;Node6</title>
<path fill="none" stroke="midnightblue" d="M940.85,-392.26C934.18,-379.87 923.86,-356.43 928,-336 929.89,-326.65 933.79,-316.83 937.57,-308.75"/>
<polygon fill="midnightblue" stroke="midnightblue" points="940.79,-310.14 942.12,-299.63 934.53,-307.01 940.79,-310.14"/>
</g>
<!-- Node10 -->
<g id="node10" class="node">
<title>Node10</title>
<g id="a_node10"><a xlink:title=" ">
<polygon fill="none" stroke="#bfbfbf" points="40.5,-112.5 40.5,-131.5 87.5,-131.5 87.5,-112.5 40.5,-112.5"/>
<text text-anchor="middle" x="64" y="-119.5" font-family="Helvetica,sans-Serif" font-size="10.00">cmath</text>
</a>
</g>
</g>
<!-- Node1&#45;&gt;Node10 -->
<g id="edge48" class="edge">
<title>Node1&#45;&gt;Node10</title>
<path fill="none" stroke="midnightblue" d="M912.83,-400.33C756.22,-397.03 96.9,-381.66 62,-356 37.19,-337.76 38,-321.8 38,-291 38,-291 38,-291 38,-233 38,-199.93 49.27,-162.73 56.97,-141.17"/>
<polygon fill="midnightblue" stroke="midnightblue" points="60.29,-142.27 60.49,-131.68 53.73,-139.83 60.29,-142.27"/>
</g>
<!-- Node17 -->
<g id="node17" class="node">
<title>Node17</title>
<g id="a_node17"><a xlink:href="rectangle_8h.html" target="_top" xlink:title=" ">
<polygon fill="none" stroke="black" points="936.5,-336.5 936.5,-355.5 1033.5,-355.5 1033.5,-336.5 936.5,-336.5"/>
<text text-anchor="middle" x="985" y="-343.5" font-family="Helvetica,sans-Serif" font-size="10.00">../2D/rectangle.h</text>
</a>
</g>
</g>
<!-- Node1&#45;&gt;Node17 -->
<g id="edge37" class="edge">
<title>Node1&#45;&gt;Node17</title>
<path fill="none" stroke="midnightblue" d="M952.44,-392.08C957.95,-384.46 966.03,-373.26 972.76,-363.94"/>
<polygon fill="midnightblue" stroke="midnightblue" points="975.66,-365.91 978.68,-355.75 969.99,-361.81 975.66,-365.91"/>
</g>
<!-- Node18 -->
<g id="node18" class="node">
<title>Node18</title>
<g id="a_node18"><a xlink:href="3_dshape_8h.html" target="_top" xlink:title=" ">
<polygon fill="none" stroke="black" points="258,-56.5 258,-75.5 326,-75.5 326,-56.5 258,-56.5"/>
<text text-anchor="middle" x="292" y="-63.5" font-family="Helvetica,sans-Serif" font-size="10.00">3Dshape.h</text>
</a>
</g>
</g>
<!-- Node1&#45;&gt;Node18 -->
<g id="edge45" class="edge">
<title>Node1&#45;&gt;Node18</title>
<path fill="none" stroke="midnightblue" d="M919.86,-392.49C843.06,-366.97 612.52,-286.77 437,-188 384.14,-158.26 331.97,-108.32 307.08,-82.9"/>
<polygon fill="midnightblue" stroke="midnightblue" points="309.46,-80.33 300,-75.57 304.43,-85.19 309.46,-80.33"/>
</g>
<!-- Node5&#45;&gt;Node4 -->
<g id="edge5" class="edge">
<title>Node5&#45;&gt;Node4</title>
<path fill="none" stroke="midnightblue" d="M1205.91,-56.32C1195.51,-48.18 1179.74,-35.84 1167.28,-26.09"/>
<polygon fill="midnightblue" stroke="midnightblue" points="1169.32,-23.24 1159.29,-19.83 1165.01,-28.75 1169.32,-23.24"/>
</g>
<!-- Node6&#45;&gt;Node2 -->
<g id="edge7" class="edge">
<title>Node6&#45;&gt;Node2</title>
<path fill="none" stroke="midnightblue" d="M951.37,-280.31C955.56,-271.44 961.6,-257.14 964,-244 965.6,-235.26 965.4,-232.78 964,-224 951.99,-148.7 915.42,-64.68 898.61,-28.8"/>
<polygon fill="midnightblue" stroke="midnightblue" points="901.71,-27.17 894.26,-19.64 895.39,-30.17 901.71,-27.17"/>
</g>
<!-- Node6&#45;&gt;Node3 -->
<g id="edge8" class="edge">
<title>Node6&#45;&gt;Node3</title>
<path fill="none" stroke="midnightblue" d="M902.13,-286.72C801.32,-280.46 550.34,-258.48 354,-188 306.78,-171.05 290.98,-167.95 256,-132 236.31,-111.76 232.87,-103.39 226,-76 223.84,-67.38 225.61,-64.88 226,-56 226.38,-47.37 227.18,-37.84 227.96,-29.78"/>
<polygon fill="midnightblue" stroke="midnightblue" points="231.46,-29.92 229.01,-19.61 224.5,-29.2 231.46,-29.92"/>
</g>
<!-- Node6&#45;&gt;Node4 -->
<g id="edge9" class="edge">
<title>Node6&#45;&gt;Node4</title>
<path fill="none" stroke="midnightblue" d="M973.91,-280.41C1012.78,-266.13 1080,-233.54 1080,-179 1080,-179 1080,-179 1080,-121 1080,-82.55 1110.43,-46.31 1130.58,-26.54"/>
<polygon fill="midnightblue" stroke="midnightblue" points="1133.1,-28.98 1137.97,-19.57 1128.29,-23.89 1133.1,-28.98"/>
</g>
<!-- Node6&#45;&gt;Node5 -->
<g id="edge13" class="edge">
<title>Node6&#45;&gt;Node5</title>
<path fill="none" stroke="midnightblue" d="M991.81,-283.5C1022.98,-277.82 1064.15,-266.47 1094,-244 1149.94,-201.89 1138.59,-168.46 1180,-112 1187.1,-102.31 1195.58,-91.93 1202.62,-83.58"/>
<polygon fill="midnightblue" stroke="midnightblue" points="1205.5,-85.61 1209.33,-75.73 1200.17,-81.06 1205.5,-85.61"/>
</g>
<!-- Node7 -->
<g id="node7" class="node">
<title>Node7</title>
<g id="a_node7"><a xlink:href="2_dshape_8h.html" target="_top" xlink:title=" ">
<polygon fill="none" stroke="black" points="827,-168.5 827,-187.5 895,-187.5 895,-168.5 827,-168.5"/>
<text text-anchor="middle" x="861" y="-175.5" font-family="Helvetica,sans-Serif" font-size="10.00">2Dshape.h</text>
</a>
</g>
</g>
<!-- Node6&#45;&gt;Node7 -->
<g id="edge10" class="edge">
<title>Node6&#45;&gt;Node7</title>
<path fill="none" stroke="midnightblue" d="M949.67,-280.25C953.15,-267.01 957.64,-241.57 947,-224 937.59,-208.46 920.85,-198.02 904.62,-191.15"/>
<polygon fill="midnightblue" stroke="midnightblue" points="905.77,-187.85 895.18,-187.51 903.25,-194.37 905.77,-187.85"/>
</g>
<!-- Node8 -->
<g id="node8" class="node">
<title>Node8</title>
<g id="a_node8"><a xlink:href="angle_8h.html" target="_top" xlink:title=" ">
<polygon fill="none" stroke="black" points="884.5,-224.5 884.5,-243.5 937.5,-243.5 937.5,-224.5 884.5,-224.5"/>
<text text-anchor="middle" x="911" y="-231.5" font-family="Helvetica,sans-Serif" font-size="10.00">angle.h</text>
</a>
</g>
</g>
<!-- Node6&#45;&gt;Node8 -->
<g id="edge14" class="edge">
<title>Node6&#45;&gt;Node8</title>
<path fill="none" stroke="midnightblue" d="M941.06,-280.08C936.02,-272.53 928.66,-261.49 922.49,-252.23"/>
<polygon fill="midnightblue" stroke="midnightblue" points="925.29,-250.13 916.83,-243.75 919.47,-254.01 925.29,-250.13"/>
</g>
<!-- Node9 -->
<g id="node9" class="node">
<title>Node9</title>
<g id="a_node9"><a xlink:href="math_helpers_8h.html" target="_top" xlink:title=" ">
<polygon fill="none" stroke="black" points="446.5,-168.5 446.5,-187.5 553.5,-187.5 553.5,-168.5 446.5,-168.5"/>
<text text-anchor="middle" x="500" y="-175.5" font-family="Helvetica,sans-Serif" font-size="10.00">../../mathHelpers.h</text>
</a>
</g>
</g>
<!-- Node6&#45;&gt;Node9 -->
<g id="edge35" class="edge">
<title>Node6&#45;&gt;Node9</title>
<path fill="none" stroke="midnightblue" d="M912.3,-280.46C832.01,-260.7 633.52,-211.86 544.48,-189.94"/>
<polygon fill="midnightblue" stroke="midnightblue" points="545.23,-186.53 534.68,-187.53 543.56,-193.32 545.23,-186.53"/>
</g>
<!-- Node6&#45;&gt;Node10 -->
<g id="edge36" class="edge">
<title>Node6&#45;&gt;Node10</title>
<path fill="none" stroke="midnightblue" d="M902.31,-289.02C768.6,-288.63 373.44,-284.01 252,-244 181.91,-220.91 112.23,-165.38 81.02,-138.33"/>
<polygon fill="midnightblue" stroke="midnightblue" points="83.08,-135.48 73.26,-131.5 78.46,-140.74 83.08,-135.48"/>
</g>
<!-- Node7&#45;&gt;Node2 -->
<g id="edge11" class="edge">
<title>Node7&#45;&gt;Node2</title>
<path fill="none" stroke="midnightblue" d="M862.56,-168.08C867.12,-141.95 880.53,-65.21 886.75,-29.58"/>
<polygon fill="midnightblue" stroke="midnightblue" points="890.23,-30.02 888.5,-19.57 883.33,-28.82 890.23,-30.02"/>
</g>
<!-- Node7&#45;&gt;Node3 -->
<g id="edge12" class="edge">
<title>Node7&#45;&gt;Node3</title>
<path fill="none" stroke="midnightblue" d="M826.56,-176.97C766.48,-175.88 639.44,-168.94 540,-132 510.76,-121.14 450.71,-68.18 422,-56 377.64,-37.18 324.02,-25.45 284.73,-18.71"/>
<polygon fill="midnightblue" stroke="midnightblue" points="285.25,-15.25 274.81,-17.06 284.1,-22.15 285.25,-15.25"/>
</g>
<!-- Node8&#45;&gt;Node2 -->
<g id="edge16" class="edge">
<title>Node8&#45;&gt;Node2</title>
<path fill="none" stroke="midnightblue" d="M910.18,-224.3C907.09,-191.63 896.14,-75.87 891.79,-29.96"/>
<polygon fill="midnightblue" stroke="midnightblue" points="895.27,-29.51 890.84,-19.88 888.3,-30.17 895.27,-29.51"/>
</g>
<!-- Node8&#45;&gt;Node3 -->
<g id="edge15" class="edge">
<title>Node8&#45;&gt;Node3</title>
<path fill="none" stroke="midnightblue" d="M884.4,-232.92C811.73,-232.2 604.12,-226.62 437,-188 368.07,-172.07 346.93,-171.14 288,-132 259.45,-113.04 248.89,-107.33 235,-76 228.55,-61.45 227.68,-43.27 228.2,-29.84"/>
<polygon fill="midnightblue" stroke="midnightblue" points="231.69,-30.07 228.88,-19.86 224.71,-29.6 231.69,-30.07"/>
</g>
<!-- Node8&#45;&gt;Node4 -->
<g id="edge17" class="edge">
<title>Node8&#45;&gt;Node4</title>
<path fill="none" stroke="midnightblue" d="M916.91,-224.31C935.91,-196.84 998.17,-110.49 1066,-56 1082.09,-43.08 1102.4,-31.9 1118.79,-23.91"/>
<polygon fill="midnightblue" stroke="midnightblue" points="1120.38,-27.03 1127.92,-19.59 1117.39,-20.71 1120.38,-27.03"/>
</g>
<!-- Node8&#45;&gt;Node9 -->
<g id="edge18" class="edge">
<title>Node8&#45;&gt;Node9</title>
<path fill="none" stroke="midnightblue" d="M884.35,-229.5C820.05,-221.05 654.99,-199.36 563.47,-187.34"/>
<polygon fill="midnightblue" stroke="midnightblue" points="563.87,-183.86 553.5,-186.03 562.96,-190.8 563.87,-183.86"/>
</g>
<!-- Node9&#45;&gt;Node2 -->
<g id="edge19" class="edge">
<title>Node9&#45;&gt;Node2</title>
<path fill="none" stroke="midnightblue" d="M553.78,-170.38C622.3,-159.82 742.03,-134.11 827,-76 846.77,-62.48 865.32,-42.03 877.11,-27.68"/>
<polygon fill="midnightblue" stroke="midnightblue" points="880.01,-29.66 883.52,-19.66 874.54,-25.29 880.01,-29.66"/>
</g>
<!-- Node9&#45;&gt;Node3 -->
<g id="edge22" class="edge">
<title>Node9&#45;&gt;Node3</title>
<path fill="none" stroke="midnightblue" d="M446.45,-170.42C388.78,-160.39 298.65,-135.67 249,-76 238.08,-62.88 233.44,-43.73 231.46,-29.62"/>
<polygon fill="midnightblue" stroke="midnightblue" points="234.93,-29.15 230.38,-19.59 227.97,-29.9 234.93,-29.15"/>
</g>
<!-- Node9&#45;&gt;Node10 -->
<g id="edge20" class="edge">
<title>Node9&#45;&gt;Node10</title>
<path fill="none" stroke="midnightblue" d="M446.1,-170.32C355.11,-159.06 173.6,-136.57 98.13,-127.23"/>
<polygon fill="midnightblue" stroke="midnightblue" points="98.15,-123.7 87.79,-125.95 97.29,-130.65 98.15,-123.7"/>
</g>
<!-- Node11 -->
<g id="node11" class="node">
<title>Node11</title>
<g id="a_node11"><a xlink:title=" ">
<polygon fill="none" stroke="#bfbfbf" points="344.5,-56.5 344.5,-75.5 413.5,-75.5 413.5,-56.5 344.5,-56.5"/>
<text text-anchor="middle" x="379" y="-63.5" font-family="Helvetica,sans-Serif" font-size="10.00">type_traits</text>
</a>
</g>
</g>
<!-- Node9&#45;&gt;Node11 -->
<g id="edge21" class="edge">
<title>Node9&#45;&gt;Node11</title>
<path fill="none" stroke="midnightblue" d="M446.25,-172.99C418.36,-167.86 386.53,-156.56 369,-132 359.28,-118.39 363.96,-99.08 369.74,-85.04"/>
<polygon fill="midnightblue" stroke="midnightblue" points="372.94,-86.46 373.95,-75.91 366.58,-83.53 372.94,-86.46"/>
</g>
<!-- Node12 -->
<g id="node12" class="node">
<title>Node12</title>
<g id="a_node12"><a xlink:title=" ">
<polygon fill="none" stroke="#bfbfbf" points="378,-112.5 378,-131.5 442,-131.5 442,-112.5 378,-112.5"/>
<text text-anchor="middle" x="410" y="-119.5" font-family="Helvetica,sans-Serif" font-size="10.00">algorithm</text>
</a>
</g>
</g>
<!-- Node9&#45;&gt;Node12 -->
<g id="edge23" class="edge">
<title>Node9&#45;&gt;Node12</title>
<path fill="none" stroke="midnightblue" d="M485.54,-168.32C471.5,-159.9 449.95,-146.97 433.46,-137.07"/>
<polygon fill="midnightblue" stroke="midnightblue" points="434.8,-133.8 424.42,-131.65 431.2,-139.8 434.8,-133.8"/>
</g>
<!-- Node13 -->
<g id="node13" class="node">
<title>Node13</title>
<g id="a_node13"><a xlink:href="limes__assert_8h.html" target="_top" xlink:title=" ">
<polygon fill="none" stroke="black" points="549,-112.5 549,-131.5 685,-131.5 685,-112.5 549,-112.5"/>
<text text-anchor="middle" x="617" y="-119.5" font-family="Helvetica,sans-Serif" font-size="10.00">../system/limes_assert.h</text>
</a>
</g>
</g>
<!-- Node9&#45;&gt;Node13 -->
<g id="edge24" class="edge">
<title>Node9&#45;&gt;Node13</title>
<path fill="none" stroke="midnightblue" d="M518.54,-168.44C537.62,-159.64 567.57,-145.81 589.44,-135.72"/>
<polygon fill="midnightblue" stroke="midnightblue" points="590.93,-138.88 598.55,-131.52 588,-132.53 590.93,-138.88"/>
</g>
<!-- Node13&#45;&gt;Node2 -->
<g id="edge26" class="edge">
<title>Node13&#45;&gt;Node2</title>
<path fill="none" stroke="midnightblue" d="M671.22,-112.43C707.37,-105.5 755.34,-93.89 795,-76 823.96,-62.93 853.59,-41.03 871.89,-26.3"/>
<polygon fill="midnightblue" stroke="midnightblue" points="874.4,-28.77 879.91,-19.72 869.96,-23.36 874.4,-28.77"/>
</g>
<!-- Node13&#45;&gt;Node3 -->
<g id="edge25" class="edge">
<title>Node13&#45;&gt;Node3</title>
<path fill="none" stroke="midnightblue" d="M592.85,-112.36C568.85,-103.64 531.11,-89.57 499,-76 479.59,-67.8 476.03,-62.55 456,-56 398.91,-37.34 331.04,-25.09 284.68,-18.15"/>
<polygon fill="midnightblue" stroke="midnightblue" points="284.95,-14.65 274.55,-16.66 283.93,-21.57 284.95,-14.65"/>
</g>
<!-- Node13&#45;&gt;Node4 -->
<g id="edge33" class="edge">
<title>Node13&#45;&gt;Node4</title>
<path fill="none" stroke="midnightblue" d="M658.22,-112.46C754.09,-92.6 991.79,-43.36 1096.77,-21.61"/>
<polygon fill="midnightblue" stroke="midnightblue" points="1097.72,-24.99 1106.8,-19.53 1096.3,-18.14 1097.72,-24.99"/>
</g>
<!-- Node13&#45;&gt;Node5 -->
<g id="edge27" class="edge">
<title>Node13&#45;&gt;Node5</title>
<path fill="none" stroke="midnightblue" d="M685.24,-114.86C796.56,-104.84 1016.74,-85.02 1135.88,-74.3"/>
<polygon fill="midnightblue" stroke="midnightblue" points="1136.39,-77.77 1146.03,-73.39 1135.76,-70.8 1136.39,-77.77"/>
</g>
<!-- Node13&#45;&gt;Node11 -->
<g id="edge28" class="edge">
<title>Node13&#45;&gt;Node11</title>
<path fill="none" stroke="midnightblue" d="M579.29,-112.44C537,-102.85 468.49,-87.3 423.59,-77.12"/>
<polygon fill="midnightblue" stroke="midnightblue" points="424.35,-73.7 413.83,-74.9 422.8,-80.53 424.35,-73.7"/>
</g>
<!-- Node14 -->
<g id="node14" class="node">
<title>Node14</title>
<g id="a_node14"><a xlink:title=" ">
<polygon fill="none" stroke="#bfbfbf" points="594.5,-56.5 594.5,-75.5 639.5,-75.5 639.5,-56.5 594.5,-56.5"/>
<text text-anchor="middle" x="617" y="-63.5" font-family="Helvetica,sans-Serif" font-size="10.00">utility</text>
</a>
</g>
</g>
<!-- Node13&#45;&gt;Node14 -->
<g id="edge29" class="edge">
<title>Node13&#45;&gt;Node14</title>
<path fill="none" stroke="midnightblue" d="M617,-112.08C617,-105.01 617,-94.86 617,-85.99"/>
<polygon fill="midnightblue" stroke="midnightblue" points="620.5,-85.75 617,-75.75 613.5,-85.75 620.5,-85.75"/>
</g>
<!-- Node15 -->
<g id="node15" class="node">
<title>Node15</title>
<g id="a_node15"><a xlink:href="_ignore_unused_8h.html" target="_top" xlink:title=" ">
<polygon fill="none" stroke="black" points="658,-56.5 658,-75.5 786,-75.5 786,-56.5 658,-56.5"/>
<text text-anchor="middle" x="722" y="-63.5" font-family="Helvetica,sans-Serif" font-size="10.00">../misc/IgnoreUnused.h</text>
</a>
</g>
</g>
<!-- Node13&#45;&gt;Node15 -->
<g id="edge30" class="edge">
<title>Node13&#45;&gt;Node15</title>
<path fill="none" stroke="midnightblue" d="M633.87,-112.32C650.71,-103.66 676.81,-90.24 696.24,-80.25"/>
<polygon fill="midnightblue" stroke="midnightblue" points="697.88,-83.34 705.17,-75.65 694.68,-77.12 697.88,-83.34"/>
</g>
<!-- Node16 -->
<g id="node16" class="node">
<title>Node16</title>
<g id="a_node16"><a xlink:title=" ">
<polygon fill="none" stroke="#bfbfbf" points="508,-56.5 508,-75.5 576,-75.5 576,-56.5 508,-56.5"/>
<text text-anchor="middle" x="542" y="-63.5" font-family="Helvetica,sans-Serif" font-size="10.00">filesystem</text>
</a>
</g>
</g>
<!-- Node13&#45;&gt;Node16 -->
<g id="edge34" class="edge">
<title>Node13&#45;&gt;Node16</title>
<path fill="none" stroke="midnightblue" d="M604.95,-112.32C593.54,-104.11 576.17,-91.6 562.57,-81.81"/>
<polygon fill="midnightblue" stroke="midnightblue" points="564.43,-78.84 554.27,-75.83 560.34,-84.52 564.43,-78.84"/>
</g>
<!-- Node15&#45;&gt;Node2 -->
<g id="edge32" class="edge">
<title>Node15&#45;&gt;Node2</title>
<path fill="none" stroke="midnightblue" d="M748.62,-56.44C777.01,-47.32 822.14,-32.81 853.75,-22.65"/>
<polygon fill="midnightblue" stroke="midnightblue" points="855.06,-25.91 863.5,-19.52 852.91,-19.24 855.06,-25.91"/>
</g>
<!-- Node15&#45;&gt;Node3 -->
<g id="edge31" class="edge">
<title>Node15&#45;&gt;Node3</title>
<path fill="none" stroke="midnightblue" d="M657.83,-57.14C654.51,-56.75 651.21,-56.37 648,-56 517.88,-41.08 364.8,-24.97 284.88,-16.66"/>
<polygon fill="midnightblue" stroke="midnightblue" points="284.87,-13.14 274.56,-15.59 284.15,-20.11 284.87,-13.14"/>
</g>
<!-- Node17&#45;&gt;Node2 -->
<g id="edge38" class="edge">
<title>Node17&#45;&gt;Node2</title>
<path fill="none" stroke="midnightblue" d="M997.43,-336.48C1032.29,-311.49 1126.31,-235.86 1093,-168 1056.9,-94.44 967.89,-45.54 920.63,-23.84"/>
<polygon fill="midnightblue" stroke="midnightblue" points="921.77,-20.51 911.22,-19.62 918.91,-26.9 921.77,-20.51"/>
</g>
<!-- Node17&#45;&gt;Node3 -->
<g id="edge39" class="edge">
<title>Node17&#45;&gt;Node3</title>
<path fill="none" stroke="midnightblue" d="M936.21,-343.42C818.73,-337.67 513.99,-311.05 299,-188 266.49,-169.39 255.67,-163.88 236,-132 222.47,-110.07 224.36,-101.55 221,-76 218.95,-60.45 221.71,-42.83 224.7,-29.86"/>
<polygon fill="midnightblue" stroke="midnightblue" points="228.18,-30.38 227.27,-19.83 221.39,-28.65 228.18,-30.38"/>
</g>
<!-- Node17&#45;&gt;Node4 -->
<g id="edge40" class="edge">
<title>Node17&#45;&gt;Node4</title>
<path fill="none" stroke="midnightblue" d="M1033.73,-340.42C1076.92,-334.98 1140.87,-323.49 1192,-300 1235.54,-280 1278,-282.91 1278,-235 1278,-235 1278,-235 1278,-177 1278,-122.56 1329.45,-99.7 1297,-56 1276.65,-28.59 1240.1,-17.28 1208.29,-12.85"/>
<polygon fill="midnightblue" stroke="midnightblue" points="1208.51,-9.35 1198.16,-11.64 1207.68,-16.3 1208.51,-9.35"/>
</g>
<!-- Node17&#45;&gt;Node5 -->
<g id="edge42" class="edge">
<title>Node17&#45;&gt;Node5</title>
<path fill="none" stroke="midnightblue" d="M1033.62,-345.28C1074.68,-342.96 1132.61,-333.32 1170,-300 1192.99,-279.51 1194,-265.8 1194,-235 1194,-235 1194,-235 1194,-177 1194,-144.12 1203.97,-106.86 1210.78,-85.24"/>
<polygon fill="midnightblue" stroke="midnightblue" points="1214.11,-86.3 1213.9,-75.71 1207.46,-84.12 1214.11,-86.3"/>
</g>
<!-- Node17&#45;&gt;Node6 -->
<g id="edge43" class="edge">
<title>Node17&#45;&gt;Node6</title>
<path fill="none" stroke="midnightblue" d="M978.73,-336.08C973.36,-328.46 965.48,-317.26 958.92,-307.94"/>
<polygon fill="midnightblue" stroke="midnightblue" points="961.78,-305.91 953.16,-299.75 956.05,-309.94 961.78,-305.91"/>
</g>
<!-- Node17&#45;&gt;Node7 -->
<g id="edge41" class="edge">
<title>Node17&#45;&gt;Node7</title>
<path fill="none" stroke="midnightblue" d="M953.64,-336.42C933.99,-329.55 909.53,-318.02 894,-300 868.74,-270.69 862.65,-223.77 861.28,-197.81"/>
<polygon fill="midnightblue" stroke="midnightblue" points="864.78,-197.66 860.94,-187.78 857.79,-197.9 864.78,-197.66"/>
</g>
<!-- Node17&#45;&gt;Node10 -->
<g id="edge44" class="edge">
<title>Node17&#45;&gt;Node10</title>
<path fill="none" stroke="midnightblue" d="M936.27,-345.39C765.83,-346.36 203.26,-346 138,-300 84.71,-262.44 69.65,-178.83 65.51,-141.56"/>
<polygon fill="midnightblue" stroke="midnightblue" points="68.99,-141.2 64.55,-131.58 62.03,-141.87 68.99,-141.2"/>
</g>
<!-- Node18&#45;&gt;Node2 -->
<g id="edge46" class="edge">
<title>Node18&#45;&gt;Node2</title>
<path fill="none" stroke="midnightblue" d="M326.2,-57.44C329.17,-56.9 332.13,-56.41 335,-56 509.77,-30.73 717.7,-18.61 822.49,-13.74"/>
<polygon fill="midnightblue" stroke="midnightblue" points="822.78,-17.23 832.61,-13.28 822.46,-10.24 822.78,-17.23"/>
</g>
<!-- Node18&#45;&gt;Node3 -->
<g id="edge47" class="edge">
<title>Node18&#45;&gt;Node3</title>
<path fill="none" stroke="midnightblue" d="M282.04,-56.32C272.87,-48.34 259.06,-36.31 247.97,-26.65"/>
<polygon fill="midnightblue" stroke="midnightblue" points="249.98,-23.76 240.14,-19.83 245.38,-29.04 249.98,-23.76"/>
</g>
</g>
</svg>
