<?xml version="1.0" encoding="UTF-8" standalone="no"?>
<!DOCTYPE svg PUBLIC "-//W3C//DTD SVG 1.1//EN"
 "http://www.w3.org/Graphics/SVG/1.1/DTD/svg11.dtd">
<!-- Generated by graphviz version 2.43.0 (0)
 -->
<!-- Title: pyramid.h Pages: 1 -->
<!--zoomable 420 -->
<svg id="main" version="1.1" xmlns="http://www.w3.org/2000/svg" xmlns:xlink="http://www.w3.org/1999/xlink" xml:space="preserve" onload="init(evt)">
<style type="text/css"><![CDATA[
.edge:hover path { stroke: red; }
.edge:hover polygon { stroke: red; fill: red; }
]]></style>
<script type="text/javascript"><![CDATA[
var edges = document.getElementsByTagName('g');
if (edges && edges.length) {
  for (var i=0;i<edges.length;i++) {
    if (edges[i].id.substr(0,4)=='edge') {
      edges[i].setAttribute('class','edge');
    }
  }
}
]]></script>
        <defs>
                <circle id="rim" cx="0" cy="0" r="7"/>
                <circle id="rim2" cx="0" cy="0" r="3.5"/>
                <g id="zoomPlus">
                        <use xlink:href="#rim" fill="#404040">
                                <set attributeName="fill" to="#808080" begin="zoomplus.mouseover" end="zoomplus.mouseout"/>
                        </use>
                        <path d="M-4,0h8M0,-4v8" fill="none" stroke="white" stroke-width="1.5" pointer-events="none"/>
                </g>
                <g id="zoomMin">
                        <use xlink:href="#rim" fill="#404040">
                                <set attributeName="fill" to="#808080" begin="zoomminus.mouseover" end="zoomminus.mouseout"/>
                        </use>
                        <path d="M-4,0h8" fill="none" stroke="white" stroke-width="1.5" pointer-events="none"/>
                </g>
                <g id="dirArrow">
                        <path fill="none" stroke="white" stroke-width="1.5" d="M0,-3.0v7 M-2.5,-0.5L0,-3.0L2.5,-0.5"/>
                </g>
               <g id="resetDef">
                       <use xlink:href="#rim2" fill="#404040">
                               <set attributeName="fill" to="#808080" begin="reset.mouseover" end="reset.mouseout"/>
                       </use>
               </g>
        </defs>

<script type="text/javascript">
var viewWidth = 1468;
var viewHeight = 420;
var sectionId = 'dynsection-0';
</script>
<script xlink:href="svgpan.js"/>
<svg id="graph" class="graph">
<g id="viewport">
<title>pyramid.h</title>
<!-- Node1 -->
<g id="node1" class="node">
<title>Node1</title>
<g id="a_node1"><a xlink:title=" ">
<polygon fill="#bfbfbf" stroke="black" points="467,-392.5 467,-411.5 533,-411.5 533,-392.5 467,-392.5"/>
<text text-anchor="middle" x="500" y="-399.5" font-family="Helvetica,sans-Serif" font-size="10.00">pyramid.h</text>
</a>
</g>
</g>
<!-- Node2 -->
<g id="node2" class="node">
<title>Node2</title>
<g id="a_node2"><a xlink:href="limes__namespace_8h.html" target="_top" xlink:title=" ">
<polygon fill="none" stroke="black" points="138,-0.5 138,-19.5 252,-19.5 252,-0.5 138,-0.5"/>
<text text-anchor="middle" x="195" y="-7.5" font-family="Helvetica,sans-Serif" font-size="10.00">limes_namespace.h</text>
</a>
</g>
</g>
<!-- Node1&#45;&gt;Node2 -->
<g id="edge1" class="edge">
<title>Node1&#45;&gt;Node2</title>
<path fill="none" stroke="midnightblue" d="M466.81,-400.81C355.13,-399.28 0,-386.88 0,-291 0,-291 0,-291 0,-121 0,-60.77 71.44,-33.16 127.83,-20.74"/>
<polygon fill="midnightblue" stroke="midnightblue" points="128.73,-24.12 137.81,-18.66 127.31,-17.27 128.73,-24.12"/>
</g>
<!-- Node3 -->
<g id="node3" class="node">
<title>Node3</title>
<g id="a_node3"><a xlink:title=" ">
<polygon fill="none" stroke="#bfbfbf" points="636.5,-0.5 636.5,-19.5 725.5,-19.5 725.5,-0.5 636.5,-0.5"/>
<text text-anchor="middle" x="681" y="-7.5" font-family="Helvetica,sans-Serif" font-size="10.00">limes_export.h</text>
</a>
</g>
</g>
<!-- Node1&#45;&gt;Node3 -->
<g id="edge2" class="edge">
<title>Node1&#45;&gt;Node3</title>
<path fill="none" stroke="midnightblue" d="M533.06,-400.5C695.25,-397.63 1399,-380.04 1399,-291 1399,-291 1399,-291 1399,-177 1399,-114.42 1380.29,-88.8 1327,-56 1277.27,-25.39 882.77,-14.82 735.87,-11.93"/>
<polygon fill="midnightblue" stroke="midnightblue" points="735.79,-8.43 725.72,-11.74 735.66,-15.43 735.79,-8.43"/>
</g>
<!-- Node4 -->
<g id="node4" class="node">
<title>Node4</title>
<g id="a_node4"><a xlink:title=" ">
<polygon fill="none" stroke="#bfbfbf" points="1246,-0.5 1246,-19.5 1346,-19.5 1346,-0.5 1246,-0.5"/>
<text text-anchor="middle" x="1296" y="-7.5" font-family="Helvetica,sans-Serif" font-size="10.00">limes_platform.h</text>
</a>
</g>
</g>
<!-- Node1&#45;&gt;Node4 -->
<g id="edge3" class="edge">
<title>Node1&#45;&gt;Node4</title>
<path fill="none" stroke="midnightblue" d="M533.05,-400.76C701.85,-399.12 1460,-386.41 1460,-291 1460,-291 1460,-291 1460,-121 1460,-65.67 1394.83,-36.39 1346.65,-22.3"/>
<polygon fill="midnightblue" stroke="midnightblue" points="1347.53,-18.91 1336.96,-19.6 1345.65,-25.65 1347.53,-18.91"/>
</g>
<!-- Node5 -->
<g id="node5" class="node">
<title>Node5</title>
<g id="a_node5"><a xlink:href="preprocessor_8h.html" target="_top" xlink:title=" ">
<polygon fill="none" stroke="black" points="1176.5,-56.5 1176.5,-75.5 1317.5,-75.5 1317.5,-56.5 1176.5,-56.5"/>
<text text-anchor="middle" x="1247" y="-63.5" font-family="Helvetica,sans-Serif" font-size="10.00">../../../misc/preprocessor.h</text>
</a>
</g>
</g>
<!-- Node1&#45;&gt;Node5 -->
<g id="edge4" class="edge">
<title>Node1&#45;&gt;Node5</title>
<path fill="none" stroke="midnightblue" d="M533.03,-400.13C686.55,-395.64 1323,-372.13 1323,-291 1323,-291 1323,-291 1323,-177 1323,-137.28 1289.04,-101.5 1266.52,-82.15"/>
<polygon fill="midnightblue" stroke="midnightblue" points="1268.48,-79.24 1258.54,-75.57 1264.02,-84.63 1268.48,-79.24"/>
</g>
<!-- Node6 -->
<g id="node6" class="node">
<title>Node6</title>
<g id="a_node6"><a xlink:href="triangle_8h.html" target="_top" xlink:title=" ">
<polygon fill="none" stroke="black" points="496.5,-280.5 496.5,-299.5 585.5,-299.5 585.5,-280.5 496.5,-280.5"/>
<text text-anchor="middle" x="541" y="-287.5" font-family="Helvetica,sans-Serif" font-size="10.00">../2D/triangle.h</text>
</a>
</g>
</g>
<!-- Node1&#45;&gt;Node6 -->
<g id="edge6" class="edge">
<title>Node1&#45;&gt;Node6</title>
<path fill="none" stroke="midnightblue" d="M503.22,-392.37C509.86,-374.54 525.24,-333.3 534.19,-309.27"/>
<polygon fill="midnightblue" stroke="midnightblue" points="537.58,-310.18 537.8,-299.59 531.03,-307.74 537.58,-310.18"/>
</g>
<!-- Node10 -->
<g id="node10" class="node">
<title>Node10</title>
<g id="a_node10"><a xlink:title=" ">
<polygon fill="none" stroke="#bfbfbf" points="399.5,-112.5 399.5,-131.5 446.5,-131.5 446.5,-112.5 399.5,-112.5"/>
<text text-anchor="middle" x="423" y="-119.5" font-family="Helvetica,sans-Serif" font-size="10.00">cmath</text>
</a>
</g>
</g>
<!-- Node1&#45;&gt;Node10 -->
<g id="edge49" class="edge">
<title>Node1&#45;&gt;Node10</title>
<path fill="none" stroke="midnightblue" d="M466.93,-392.99C443.95,-386.13 413.69,-374.4 392,-356 369.62,-337.01 365.09,-328.21 357,-300 339.72,-239.75 385.03,-170.8 409.11,-139.73"/>
<polygon fill="midnightblue" stroke="midnightblue" points="412.03,-141.68 415.53,-131.68 406.56,-137.31 412.03,-141.68"/>
</g>
<!-- Node18 -->
<g id="node18" class="node">
<title>Node18</title>
<g id="a_node18"><a xlink:href="rectangle_8h.html" target="_top" xlink:title=" ">
<polygon fill="none" stroke="black" points="400.5,-336.5 400.5,-355.5 497.5,-355.5 497.5,-336.5 400.5,-336.5"/>
<text text-anchor="middle" x="449" y="-343.5" font-family="Helvetica,sans-Serif" font-size="10.00">../2D/rectangle.h</text>
</a>
</g>
</g>
<!-- Node1&#45;&gt;Node18 -->
<g id="edge38" class="edge">
<title>Node1&#45;&gt;Node18</title>
<path fill="none" stroke="midnightblue" d="M491.58,-392.08C484.15,-384.22 473.15,-372.57 464.19,-363.08"/>
<polygon fill="midnightblue" stroke="midnightblue" points="466.68,-360.62 457.26,-355.75 461.59,-365.42 466.68,-360.62"/>
</g>
<!-- Node19 -->
<g id="node19" class="node">
<title>Node19</title>
<g id="a_node19"><a xlink:href="3_dshape_8h.html" target="_top" xlink:title=" ">
<polygon fill="none" stroke="black" points="161,-56.5 161,-75.5 229,-75.5 229,-56.5 161,-56.5"/>
<text text-anchor="middle" x="195" y="-63.5" font-family="Helvetica,sans-Serif" font-size="10.00">3Dshape.h</text>
</a>
</g>
</g>
<!-- Node1&#45;&gt;Node19 -->
<g id="edge46" class="edge">
<title>Node1&#45;&gt;Node19</title>
<path fill="none" stroke="midnightblue" d="M466.8,-394.95C438.64,-388.65 398.13,-376.71 368,-356 287.91,-300.94 272.92,-274.19 228,-188 210.45,-154.33 201.5,-110.39 197.57,-85.79"/>
<polygon fill="midnightblue" stroke="midnightblue" points="201,-85.05 196.07,-75.67 194.08,-86.08 201,-85.05"/>
</g>
<!-- Node5&#45;&gt;Node4 -->
<g id="edge5" class="edge">
<title>Node5&#45;&gt;Node4</title>
<path fill="none" stroke="midnightblue" d="M1255.09,-56.08C1262.16,-48.3 1272.59,-36.8 1281.15,-27.37"/>
<polygon fill="midnightblue" stroke="midnightblue" points="1283.93,-29.51 1288.06,-19.75 1278.75,-24.8 1283.93,-29.51"/>
</g>
<!-- Node6&#45;&gt;Node2 -->
<g id="edge7" class="edge">
<title>Node6&#45;&gt;Node2</title>
<path fill="none" stroke="midnightblue" d="M496.26,-282.32C432.41,-271.15 313.41,-244.14 228,-188 176.45,-154.11 160.17,-136.04 146,-76 143.96,-67.35 142.42,-64.14 146,-56 151.39,-43.73 161.96,-33.34 171.9,-25.65"/>
<polygon fill="midnightblue" stroke="midnightblue" points="174.25,-28.27 180.34,-19.6 170.17,-22.58 174.25,-28.27"/>
</g>
<!-- Node6&#45;&gt;Node3 -->
<g id="edge8" class="edge">
<title>Node6&#45;&gt;Node3</title>
<path fill="none" stroke="midnightblue" d="M585.63,-285.64C725.81,-274.49 1148,-236.16 1148,-179 1148,-179 1148,-179 1148,-121 1148,-37.15 859.13,-17.15 735.78,-12.43"/>
<polygon fill="midnightblue" stroke="midnightblue" points="735.9,-8.94 725.78,-12.07 735.64,-15.93 735.9,-8.94"/>
</g>
<!-- Node6&#45;&gt;Node4 -->
<g id="edge9" class="edge">
<title>Node6&#45;&gt;Node4</title>
<path fill="none" stroke="midnightblue" d="M585.79,-287.87C722.92,-284.12 1130.94,-270.8 1184,-244 1271.52,-199.79 1293.14,-168.02 1327,-76 1333.3,-58.87 1322.33,-40.13 1311.74,-27.2"/>
<polygon fill="midnightblue" stroke="midnightblue" points="1314.27,-24.77 1305.02,-19.61 1309.03,-29.42 1314.27,-24.77"/>
</g>
<!-- Node6&#45;&gt;Node5 -->
<g id="edge13" class="edge">
<title>Node6&#45;&gt;Node5</title>
<path fill="none" stroke="midnightblue" d="M585.53,-288.33C719.84,-285.94 1114.64,-276.24 1162,-244 1190.32,-224.72 1226.58,-126.57 1240.84,-85.31"/>
<polygon fill="midnightblue" stroke="midnightblue" points="1244.2,-86.3 1244.12,-75.71 1237.58,-84.04 1244.2,-86.3"/>
</g>
<!-- Node7 -->
<g id="node7" class="node">
<title>Node7</title>
<g id="a_node7"><a xlink:href="2_dshape_8h.html" target="_top" xlink:title=" ">
<polygon fill="none" stroke="black" points="237,-168.5 237,-187.5 305,-187.5 305,-168.5 237,-168.5"/>
<text text-anchor="middle" x="271" y="-175.5" font-family="Helvetica,sans-Serif" font-size="10.00">2Dshape.h</text>
</a>
</g>
</g>
<!-- Node6&#45;&gt;Node7 -->
<g id="edge10" class="edge">
<title>Node6&#45;&gt;Node7</title>
<path fill="none" stroke="midnightblue" d="M519.81,-280.37C472.2,-260.97 356.59,-213.87 301.36,-191.37"/>
<polygon fill="midnightblue" stroke="midnightblue" points="302.67,-188.12 292.09,-187.59 300.03,-194.61 302.67,-188.12"/>
</g>
<!-- Node8 -->
<g id="node8" class="node">
<title>Node8</title>
<g id="a_node8"><a xlink:href="angle_8h.html" target="_top" xlink:title=" ">
<polygon fill="none" stroke="black" points="578.5,-224.5 578.5,-243.5 631.5,-243.5 631.5,-224.5 578.5,-224.5"/>
<text text-anchor="middle" x="605" y="-231.5" font-family="Helvetica,sans-Serif" font-size="10.00">angle.h</text>
</a>
</g>
</g>
<!-- Node6&#45;&gt;Node8 -->
<g id="edge14" class="edge">
<title>Node6&#45;&gt;Node8</title>
<path fill="none" stroke="midnightblue" d="M551.28,-280.32C560.84,-272.26 575.28,-260.08 586.78,-250.37"/>
<polygon fill="midnightblue" stroke="midnightblue" points="589.14,-252.96 594.53,-243.83 584.63,-247.61 589.14,-252.96"/>
</g>
<!-- Node9 -->
<g id="node9" class="node">
<title>Node9</title>
<g id="a_node9"><a xlink:href="math_helpers_8h.html" target="_top" xlink:title=" ">
<polygon fill="none" stroke="black" points="551.5,-168.5 551.5,-187.5 658.5,-187.5 658.5,-168.5 551.5,-168.5"/>
<text text-anchor="middle" x="605" y="-175.5" font-family="Helvetica,sans-Serif" font-size="10.00">../../mathHelpers.h</text>
</a>
</g>
</g>
<!-- Node6&#45;&gt;Node9 -->
<g id="edge36" class="edge">
<title>Node6&#45;&gt;Node9</title>
<path fill="none" stroke="midnightblue" d="M544.12,-280.26C548.87,-267.46 558.56,-243.07 570,-224 576.05,-213.92 584.01,-203.51 590.82,-195.24"/>
<polygon fill="midnightblue" stroke="midnightblue" points="593.58,-197.4 597.36,-187.51 588.23,-192.88 593.58,-197.4"/>
</g>
<!-- Node6&#45;&gt;Node10 -->
<g id="edge37" class="edge">
<title>Node6&#45;&gt;Node10</title>
<path fill="none" stroke="midnightblue" d="M535.71,-280.26C523.35,-260 491.34,-208.52 461,-168 453.65,-158.18 444.84,-147.68 437.55,-139.29"/>
<polygon fill="midnightblue" stroke="midnightblue" points="440.12,-136.91 430.89,-131.71 434.86,-141.53 440.12,-136.91"/>
</g>
<!-- Node7&#45;&gt;Node2 -->
<g id="edge11" class="edge">
<title>Node7&#45;&gt;Node2</title>
<path fill="none" stroke="midnightblue" d="M253.03,-168.26C225.26,-153.63 172.94,-121.25 152,-76 143.51,-57.66 159.56,-38.6 174.41,-25.9"/>
<polygon fill="midnightblue" stroke="midnightblue" points="176.74,-28.52 182.37,-19.54 172.37,-23.05 176.74,-28.52"/>
</g>
<!-- Node7&#45;&gt;Node3 -->
<g id="edge12" class="edge">
<title>Node7&#45;&gt;Node3</title>
<path fill="none" stroke="midnightblue" d="M274.23,-168.44C283.31,-145.71 311.39,-83.68 357,-56 401.08,-29.25 545.66,-17.81 625.97,-13.41"/>
<polygon fill="midnightblue" stroke="midnightblue" points="626.59,-16.89 636.39,-12.87 626.22,-9.9 626.59,-16.89"/>
</g>
<!-- Node8&#45;&gt;Node2 -->
<g id="edge16" class="edge">
<title>Node8&#45;&gt;Node2</title>
<path fill="none" stroke="midnightblue" d="M592.4,-224.36C579.7,-215.53 559.64,-201.26 543,-188 502.85,-156 501.18,-136.39 456,-112 403.62,-83.72 382.61,-97.24 327,-76 287.89,-61.06 244.76,-38.61 218.79,-24.39"/>
<polygon fill="midnightblue" stroke="midnightblue" points="220.48,-21.33 210.03,-19.55 217.09,-27.45 220.48,-21.33"/>
</g>
<!-- Node8&#45;&gt;Node3 -->
<g id="edge15" class="edge">
<title>Node8&#45;&gt;Node3</title>
<path fill="none" stroke="midnightblue" d="M631.67,-231.21C719.86,-224.68 999.47,-198.94 1053,-132 1138.41,-25.19 859.25,-11.55 736.24,-10.59"/>
<polygon fill="midnightblue" stroke="midnightblue" points="735.91,-7.09 725.9,-10.53 735.88,-14.09 735.91,-7.09"/>
</g>
<!-- Node8&#45;&gt;Node4 -->
<g id="edge17" class="edge">
<title>Node8&#45;&gt;Node4</title>
<path fill="none" stroke="midnightblue" d="M631.52,-233.47C693.67,-233.78 852.84,-230.04 977,-188 1023.42,-172.28 1031.58,-159.72 1072,-132 1116.88,-101.22 1120.34,-82.27 1168,-56 1194.68,-41.29 1227.07,-29.96 1252.59,-22.35"/>
<polygon fill="midnightblue" stroke="midnightblue" points="1253.74,-25.66 1262.37,-19.51 1251.79,-18.94 1253.74,-25.66"/>
</g>
<!-- Node8&#45;&gt;Node9 -->
<g id="edge18" class="edge">
<title>Node8&#45;&gt;Node9</title>
<path fill="none" stroke="midnightblue" d="M605,-224.08C605,-217.01 605,-206.86 605,-197.99"/>
<polygon fill="midnightblue" stroke="midnightblue" points="608.5,-197.75 605,-187.75 601.5,-197.75 608.5,-197.75"/>
</g>
<!-- Node9&#45;&gt;Node2 -->
<g id="edge19" class="edge">
<title>Node9&#45;&gt;Node2</title>
<path fill="none" stroke="midnightblue" d="M590.13,-168.47C561.2,-151.9 499.27,-116.6 489,-112 464.71,-101.13 303.35,-47.06 230.54,-22.81"/>
<polygon fill="midnightblue" stroke="midnightblue" points="231.47,-19.43 220.87,-19.59 229.26,-26.07 231.47,-19.43"/>
</g>
<!-- Node9&#45;&gt;Node3 -->
<g id="edge22" class="edge">
<title>Node9&#45;&gt;Node3</title>
<path fill="none" stroke="midnightblue" d="M658.76,-170.42C752.26,-157.74 938.55,-126.63 977,-76 982.38,-68.92 982.79,-62.74 977,-56 946.54,-20.56 812.86,-12.71 735.98,-11.17"/>
<polygon fill="midnightblue" stroke="midnightblue" points="735.58,-7.66 725.52,-10.99 735.46,-14.66 735.58,-7.66"/>
</g>
<!-- Node9&#45;&gt;Node10 -->
<g id="edge20" class="edge">
<title>Node9&#45;&gt;Node10</title>
<path fill="none" stroke="midnightblue" d="M576.16,-168.44C543.73,-158.82 491.13,-143.21 456.8,-133.03"/>
<polygon fill="midnightblue" stroke="midnightblue" points="457.36,-129.54 446.77,-130.05 455.36,-136.25 457.36,-129.54"/>
</g>
<!-- Node11 -->
<g id="node11" class="node">
<title>Node11</title>
<g id="a_node11"><a xlink:title=" ">
<polygon fill="none" stroke="#bfbfbf" points="399.5,-56.5 399.5,-75.5 468.5,-75.5 468.5,-56.5 399.5,-56.5"/>
<text text-anchor="middle" x="434" y="-63.5" font-family="Helvetica,sans-Serif" font-size="10.00">type_traits</text>
</a>
</g>
</g>
<!-- Node9&#45;&gt;Node11 -->
<g id="edge21" class="edge">
<title>Node9&#45;&gt;Node11</title>
<path fill="none" stroke="midnightblue" d="M595.97,-168.2C582.01,-154.9 553.96,-129.39 527,-112 507.23,-99.25 483.31,-87.76 464.68,-79.58"/>
<polygon fill="midnightblue" stroke="midnightblue" points="466.04,-76.35 455.47,-75.61 463.27,-82.78 466.04,-76.35"/>
</g>
<!-- Node12 -->
<g id="node12" class="node">
<title>Node12</title>
<g id="a_node12"><a xlink:title=" ">
<polygon fill="none" stroke="#bfbfbf" points="980,-112.5 980,-131.5 1044,-131.5 1044,-112.5 980,-112.5"/>
<text text-anchor="middle" x="1012" y="-119.5" font-family="Helvetica,sans-Serif" font-size="10.00">algorithm</text>
</a>
</g>
</g>
<!-- Node9&#45;&gt;Node12 -->
<g id="edge23" class="edge">
<title>Node9&#45;&gt;Node12</title>
<path fill="none" stroke="midnightblue" d="M658.68,-171.48C729.34,-163.95 857.33,-149.38 966,-132 967.27,-131.8 968.55,-131.59 969.84,-131.37"/>
<polygon fill="midnightblue" stroke="midnightblue" points="970.65,-134.78 979.88,-129.58 969.42,-127.89 970.65,-134.78"/>
</g>
<!-- Node13 -->
<g id="node13" class="node">
<title>Node13</title>
<g id="a_node13"><a xlink:href="limes__assert_8h.html" target="_top" xlink:title=" ">
<polygon fill="none" stroke="black" points="631,-112.5 631,-131.5 767,-131.5 767,-112.5 631,-112.5"/>
<text text-anchor="middle" x="699" y="-119.5" font-family="Helvetica,sans-Serif" font-size="10.00">../system/limes_assert.h</text>
</a>
</g>
</g>
<!-- Node9&#45;&gt;Node13 -->
<g id="edge24" class="edge">
<title>Node9&#45;&gt;Node13</title>
<path fill="none" stroke="midnightblue" d="M620.1,-168.32C634.9,-159.82 657.69,-146.73 674.98,-136.8"/>
<polygon fill="midnightblue" stroke="midnightblue" points="677.01,-139.67 683.93,-131.65 673.52,-133.6 677.01,-139.67"/>
</g>
<!-- Node13&#45;&gt;Node2 -->
<g id="edge26" class="edge">
<title>Node13&#45;&gt;Node2</title>
<path fill="none" stroke="midnightblue" d="M650.64,-112.45C613.17,-105.04 560.35,-92.84 516,-76 498.16,-69.23 496.11,-62.02 478,-56 406.52,-32.23 320.6,-20.83 262.32,-15.49"/>
<polygon fill="midnightblue" stroke="midnightblue" points="262.4,-11.99 252.13,-14.59 261.79,-18.96 262.4,-11.99"/>
</g>
<!-- Node13&#45;&gt;Node3 -->
<g id="edge25" class="edge">
<title>Node13&#45;&gt;Node3</title>
<path fill="none" stroke="midnightblue" d="M697.59,-112.37C694.68,-94.62 687.98,-53.67 684.04,-29.6"/>
<polygon fill="midnightblue" stroke="midnightblue" points="687.47,-28.89 682.41,-19.59 680.57,-30.03 687.47,-28.89"/>
</g>
<!-- Node13&#45;&gt;Node4 -->
<g id="edge34" class="edge">
<title>Node13&#45;&gt;Node4</title>
<path fill="none" stroke="midnightblue" d="M755.82,-112.49C812.09,-103.91 900.65,-89.95 977,-76 1072.85,-58.48 1184.28,-35.08 1246.83,-21.66"/>
<polygon fill="midnightblue" stroke="midnightblue" points="1247.77,-25.04 1256.81,-19.52 1246.3,-18.2 1247.77,-25.04"/>
</g>
<!-- Node13&#45;&gt;Node5 -->
<g id="edge27" class="edge">
<title>Node13&#45;&gt;Node5</title>
<path fill="none" stroke="midnightblue" d="M767.02,-114.3C868.24,-104.32 1058.14,-85.61 1166.26,-74.96"/>
<polygon fill="midnightblue" stroke="midnightblue" points="1166.85,-78.41 1176.46,-73.95 1166.16,-71.45 1166.85,-78.41"/>
</g>
<!-- Node13&#45;&gt;Node11 -->
<g id="edge28" class="edge">
<title>Node13&#45;&gt;Node11</title>
<path fill="none" stroke="midnightblue" d="M657.01,-112.44C608.27,-102.51 528.22,-86.2 478.45,-76.06"/>
<polygon fill="midnightblue" stroke="midnightblue" points="479.11,-72.62 468.62,-74.05 477.72,-79.48 479.11,-72.62"/>
</g>
<!-- Node14 -->
<g id="node14" class="node">
<title>Node14</title>
<g id="a_node14"><a xlink:title=" ">
<polygon fill="none" stroke="#bfbfbf" points="795.5,-56.5 795.5,-75.5 840.5,-75.5 840.5,-56.5 795.5,-56.5"/>
<text text-anchor="middle" x="818" y="-63.5" font-family="Helvetica,sans-Serif" font-size="10.00">utility</text>
</a>
</g>
</g>
<!-- Node13&#45;&gt;Node14 -->
<g id="edge29" class="edge">
<title>Node13&#45;&gt;Node14</title>
<path fill="none" stroke="midnightblue" d="M717.86,-112.44C737.27,-103.64 767.73,-89.81 789.96,-79.72"/>
<polygon fill="midnightblue" stroke="midnightblue" points="791.57,-82.84 799.23,-75.52 788.68,-76.46 791.57,-82.84"/>
</g>
<!-- Node15 -->
<g id="node15" class="node">
<title>Node15</title>
<g id="a_node15"><a xlink:title=" ">
<polygon fill="none" stroke="#bfbfbf" points="858.5,-56.5 858.5,-75.5 967.5,-75.5 967.5,-56.5 858.5,-56.5"/>
<text text-anchor="middle" x="913" y="-63.5" font-family="Helvetica,sans-Serif" font-size="10.00">limes_build_type.h</text>
</a>
</g>
</g>
<!-- Node13&#45;&gt;Node15 -->
<g id="edge30" class="edge">
<title>Node13&#45;&gt;Node15</title>
<path fill="none" stroke="midnightblue" d="M732.91,-112.44C769.85,-103.12 829.05,-88.18 869.42,-78"/>
<polygon fill="midnightblue" stroke="midnightblue" points="870.41,-81.36 879.25,-75.52 868.7,-74.57 870.41,-81.36"/>
</g>
<!-- Node16 -->
<g id="node16" class="node">
<title>Node16</title>
<g id="a_node16"><a xlink:href="_ignore_unused_8h.html" target="_top" xlink:title=" ">
<polygon fill="none" stroke="black" points="525,-56.5 525,-75.5 653,-75.5 653,-56.5 525,-56.5"/>
<text text-anchor="middle" x="589" y="-63.5" font-family="Helvetica,sans-Serif" font-size="10.00">../misc/IgnoreUnused.h</text>
</a>
</g>
</g>
<!-- Node13&#45;&gt;Node16 -->
<g id="edge31" class="edge">
<title>Node13&#45;&gt;Node16</title>
<path fill="none" stroke="midnightblue" d="M681.33,-112.32C663.61,-103.62 636.1,-90.12 615.71,-80.11"/>
<polygon fill="midnightblue" stroke="midnightblue" points="617.15,-76.92 606.63,-75.65 614.06,-83.2 617.15,-76.92"/>
</g>
<!-- Node17 -->
<g id="node17" class="node">
<title>Node17</title>
<g id="a_node17"><a xlink:title=" ">
<polygon fill="none" stroke="#bfbfbf" points="709,-56.5 709,-75.5 777,-75.5 777,-56.5 709,-56.5"/>
<text text-anchor="middle" x="743" y="-63.5" font-family="Helvetica,sans-Serif" font-size="10.00">filesystem</text>
</a>
</g>
</g>
<!-- Node13&#45;&gt;Node17 -->
<g id="edge35" class="edge">
<title>Node13&#45;&gt;Node17</title>
<path fill="none" stroke="midnightblue" d="M706.27,-112.08C712.54,-104.38 721.79,-93.03 729.43,-83.65"/>
<polygon fill="midnightblue" stroke="midnightblue" points="732.27,-85.71 735.87,-75.75 726.84,-81.29 732.27,-85.71"/>
</g>
<!-- Node16&#45;&gt;Node2 -->
<g id="edge33" class="edge">
<title>Node16&#45;&gt;Node2</title>
<path fill="none" stroke="midnightblue" d="M526.57,-56.44C454.45,-46.56 336.24,-30.36 262.17,-20.21"/>
<polygon fill="midnightblue" stroke="midnightblue" points="262.4,-16.71 252.02,-18.82 261.45,-23.64 262.4,-16.71"/>
</g>
<!-- Node16&#45;&gt;Node3 -->
<g id="edge32" class="edge">
<title>Node16&#45;&gt;Node3</title>
<path fill="none" stroke="midnightblue" d="M603.78,-56.32C618.27,-47.82 640.57,-34.73 657.49,-24.8"/>
<polygon fill="midnightblue" stroke="midnightblue" points="659.4,-27.74 666.26,-19.65 655.86,-21.7 659.4,-27.74"/>
</g>
<!-- Node18&#45;&gt;Node2 -->
<g id="edge39" class="edge">
<title>Node18&#45;&gt;Node2</title>
<path fill="none" stroke="midnightblue" d="M419.99,-336.41C396.03,-328.68 361.6,-316.08 334,-300 265.74,-260.25 251.1,-244.6 196,-188 151.55,-142.33 112.71,-113.59 140,-56 146.13,-43.07 157.99,-32.62 169.14,-25.05"/>
<polygon fill="midnightblue" stroke="midnightblue" points="171.19,-27.9 177.8,-19.61 167.47,-21.97 171.19,-27.9"/>
</g>
<!-- Node18&#45;&gt;Node3 -->
<g id="edge40" class="edge">
<title>Node18&#45;&gt;Node3</title>
<path fill="none" stroke="midnightblue" d="M436.81,-336.24C414.88,-319.35 371,-279.95 371,-235 371,-235 371,-235 371,-121 371,-90.77 368.14,-75.77 391,-56 425.32,-26.31 552.28,-16.15 626.34,-12.72"/>
<polygon fill="midnightblue" stroke="midnightblue" points="626.59,-16.21 636.43,-12.28 626.28,-9.22 626.59,-16.21"/>
</g>
<!-- Node18&#45;&gt;Node4 -->
<g id="edge41" class="edge">
<title>Node18&#45;&gt;Node4</title>
<path fill="none" stroke="midnightblue" d="M497.71,-344.3C686.7,-340.93 1361,-322.76 1361,-235 1361,-235 1361,-235 1361,-177 1361,-122.49 1365.91,-104.48 1341,-56 1335.05,-44.41 1325.03,-33.95 1315.96,-26.04"/>
<polygon fill="midnightblue" stroke="midnightblue" points="1317.98,-23.17 1308.04,-19.53 1313.54,-28.58 1317.98,-23.17"/>
</g>
<!-- Node18&#45;&gt;Node5 -->
<g id="edge43" class="edge">
<title>Node18&#45;&gt;Node5</title>
<path fill="none" stroke="midnightblue" d="M497.58,-343.68C642.73,-338.92 1070.13,-318.74 1184,-244 1237.38,-208.96 1245.96,-124.02 1247.04,-85.98"/>
<polygon fill="midnightblue" stroke="midnightblue" points="1250.55,-85.83 1247.18,-75.78 1243.55,-85.73 1250.55,-85.83"/>
</g>
<!-- Node18&#45;&gt;Node6 -->
<g id="edge44" class="edge">
<title>Node18&#45;&gt;Node6</title>
<path fill="none" stroke="midnightblue" d="M463.78,-336.32C478.27,-327.82 500.57,-314.73 517.49,-304.8"/>
<polygon fill="midnightblue" stroke="midnightblue" points="519.4,-307.74 526.26,-299.65 515.86,-301.7 519.4,-307.74"/>
</g>
<!-- Node18&#45;&gt;Node7 -->
<g id="edge42" class="edge">
<title>Node18&#45;&gt;Node7</title>
<path fill="none" stroke="midnightblue" d="M423.2,-336.37C403.56,-328.91 376.65,-316.69 357,-300 321.62,-269.96 293.46,-222.3 279.87,-196.68"/>
<polygon fill="midnightblue" stroke="midnightblue" points="282.94,-195.01 275.24,-187.74 276.73,-198.23 282.94,-195.01"/>
</g>
<!-- Node18&#45;&gt;Node10 -->
<g id="edge45" class="edge">
<title>Node18&#45;&gt;Node10</title>
<path fill="none" stroke="midnightblue" d="M447.98,-336.3C444.16,-303.63 430.6,-187.87 425.22,-141.96"/>
<polygon fill="midnightblue" stroke="midnightblue" points="428.68,-141.41 424.04,-131.88 421.73,-142.22 428.68,-141.41"/>
</g>
<!-- Node19&#45;&gt;Node2 -->
<g id="edge47" class="edge">
<title>Node19&#45;&gt;Node2</title>
<path fill="none" stroke="midnightblue" d="M195,-56.08C195,-49.01 195,-38.86 195,-29.99"/>
<polygon fill="midnightblue" stroke="midnightblue" points="198.5,-29.75 195,-19.75 191.5,-29.75 198.5,-29.75"/>
</g>
<!-- Node19&#45;&gt;Node3 -->
<g id="edge48" class="edge">
<title>Node19&#45;&gt;Node3</title>
<path fill="none" stroke="midnightblue" d="M229.17,-61.2C312.21,-51.98 525.14,-28.32 626.2,-17.09"/>
<polygon fill="midnightblue" stroke="midnightblue" points="626.65,-20.56 636.2,-15.98 625.88,-13.6 626.65,-20.56"/>
</g>
</g>
</svg>
        <g id="navigator" transform="translate(0 0)" fill="#404254">
                <rect fill="#f2f5e9" fill-opacity="0.5" stroke="#606060" stroke-width=".5" x="0" y="0" width="60" height="60"/>
                <use id="zoomplus" xlink:href="#zoomPlus" x="17" y="9" onmousedown="handleZoom(evt,'in')"/>
                <use id="zoomminus" xlink:href="#zoomMin" x="42" y="9" onmousedown="handleZoom(evt,'out')"/>
                <use id="reset" xlink:href="#resetDef" x="30" y="36" onmousedown="handleReset()"/>
                <g id="arrowUp" xlink:href="#dirArrow" transform="translate(30 24)" onmousedown="handlePan(0,-1)">
                  <use xlink:href="#rim" fill="#404040">
                        <set attributeName="fill" to="#808080" begin="arrowUp.mouseover" end="arrowUp.mouseout"/>
                  </use>
                  <path fill="none" stroke="white" stroke-width="1.5" d="M0,-3.0v7 M-2.5,-0.5L0,-3.0L2.5,-0.5"/>
                </g>
                <g id="arrowRight" xlink:href="#dirArrow" transform="rotate(90) translate(36 -43)" onmousedown="handlePan(1,0)">
                  <use xlink:href="#rim" fill="#404040">
                        <set attributeName="fill" to="#808080" begin="arrowRight.mouseover" end="arrowRight.mouseout"/>
                  </use>
                  <path fill="none" stroke="white" stroke-width="1.5" d="M0,-3.0v7 M-2.5,-0.5L0,-3.0L2.5,-0.5"/>
                </g>
                <g id="arrowDown" xlink:href="#dirArrow" transform="rotate(180) translate(-30 -48)" onmousedown="handlePan(0,1)">
                  <use xlink:href="#rim" fill="#404040">
                        <set attributeName="fill" to="#808080" begin="arrowDown.mouseover" end="arrowDown.mouseout"/>
                  </use>
                  <path fill="none" stroke="white" stroke-width="1.5" d="M0,-3.0v7 M-2.5,-0.5L0,-3.0L2.5,-0.5"/>
                </g>
                <g id="arrowLeft" xlink:href="#dirArrow" transform="rotate(270) translate(-36 17)" onmousedown="handlePan(-1,0)">
                  <use xlink:href="#rim" fill="#404040">
                        <set attributeName="fill" to="#808080" begin="arrowLeft.mouseover" end="arrowLeft.mouseout"/>
                  </use>
                  <path fill="none" stroke="white" stroke-width="1.5" d="M0,-3.0v7 M-2.5,-0.5L0,-3.0L2.5,-0.5"/>
                </g>
        </g>
        <svg viewBox="0 0 15 15" width="100%" height="30px" preserveAspectRatio="xMaxYMin meet">
         <g id="arrow_out" transform="scale(0.3 0.3)">
          <a xlink:href="pyramid_8h__incl_org.svg" target="_base">
           <rect id="button" ry="5" rx="5" y="6" x="6" height="38" width="38"
                fill="#f2f5e9" fill-opacity="0.5" stroke="#606060" stroke-width="1.0"/>
           <path id="arrow"
             d="M 11.500037,31.436501 C 11.940474,20.09759 22.043105,11.32322 32.158766,21.979434 L 37.068811,17.246167 C 37.068811,17.246167 37.088388,32 37.088388,32 L 22.160133,31.978069 C 22.160133,31.978069 26.997745,27.140456 26.997745,27.140456 C 18.528582,18.264221 13.291696,25.230495 11.500037,31.436501 z"
             style="fill:#404040;"/>
          </a>
         </g>
        </svg>
</svg>
