<?xml version="1.0" encoding="UTF-8" standalone="no"?>
<!DOCTYPE svg PUBLIC "-//W3C//DTD SVG 1.1//EN"
 "http://www.w3.org/Graphics/SVG/1.1/DTD/svg11.dtd">
<!-- Generated by graphviz version 2.43.0 (0)
 -->
<!-- Title: pyramid.h Pages: 1 -->
<svg width="1506pt" height="431pt"
 viewBox="0.00 0.00 1506.00 431.00" xmlns="http://www.w3.org/2000/svg" xmlns:xlink="http://www.w3.org/1999/xlink">
<g id="graph0" class="graph" transform="scale(1 1) rotate(0) translate(4 427)">
<title>pyramid.h</title>
<!-- Node1 -->
<g id="node1" class="node">
<title>Node1</title>
<g id="a_node1"><a xlink:title=" ">
<polygon fill="#bfbfbf" stroke="black" points="988,-403.5 988,-422.5 1054,-422.5 1054,-403.5 988,-403.5"/>
<text text-anchor="middle" x="1021" y="-410.5" font-family="Helvetica,sans-Serif" font-size="10.00">pyramid.h</text>
</a>
</g>
</g>
<!-- Node2 -->
<g id="node2" class="node">
<title>Node2</title>
<g id="a_node2"><a xlink:href="limes__namespace_8h.html" target="_top" xlink:title=" ">
<polygon fill="none" stroke="black" points="95,-0.5 95,-19.5 209,-19.5 209,-0.5 95,-0.5"/>
<text text-anchor="middle" x="152" y="-7.5" font-family="Helvetica,sans-Serif" font-size="10.00">limes_namespace.h</text>
</a>
</g>
</g>
<!-- Node1&#45;&gt;Node2 -->
<g id="edge1" class="edge">
<title>Node1&#45;&gt;Node2</title>
<path fill="none" stroke="midnightblue" d="M987.9,-411.99C812.54,-411.51 0,-403.79 0,-302 0,-302 0,-302 0,-126.5 0,-70.77 65.59,-38.42 110.59,-22.78"/>
<polygon fill="midnightblue" stroke="midnightblue" points="111.75,-26.08 120.14,-19.6 109.54,-19.44 111.75,-26.08"/>
</g>
<!-- Node3 -->
<g id="node3" class="node">
<title>Node3</title>
<g id="a_node3"><a xlink:title=" ">
<polygon fill="none" stroke="#bfbfbf" points="805.5,-0.5 805.5,-19.5 894.5,-19.5 894.5,-0.5 805.5,-0.5"/>
<text text-anchor="middle" x="850" y="-7.5" font-family="Helvetica,sans-Serif" font-size="10.00">limes_export.h</text>
</a>
</g>
</g>
<!-- Node1&#45;&gt;Node3 -->
<g id="edge2" class="edge">
<title>Node1&#45;&gt;Node3</title>
<path fill="none" stroke="midnightblue" d="M1015.72,-403.23C1005.27,-385.04 983,-341.6 983,-302 983,-302 983,-302 983,-244 983,-151.33 902.67,-61.97 866.87,-26.75"/>
<polygon fill="midnightblue" stroke="midnightblue" points="869.19,-24.13 859.57,-19.71 864.34,-29.17 869.19,-24.13"/>
</g>
<!-- Node4 -->
<g id="node4" class="node">
<title>Node4</title>
<g id="a_node4"><a xlink:title=" ">
<polygon fill="none" stroke="#bfbfbf" points="1154,-0.5 1154,-19.5 1254,-19.5 1254,-0.5 1154,-0.5"/>
<text text-anchor="middle" x="1204" y="-7.5" font-family="Helvetica,sans-Serif" font-size="10.00">limes_platform.h</text>
</a>
</g>
</g>
<!-- Node1&#45;&gt;Node4 -->
<g id="edge3" class="edge">
<title>Node1&#45;&gt;Node4</title>
<path fill="none" stroke="midnightblue" d="M1054.16,-411.46C1162.34,-408.81 1498,-393.25 1498,-302 1498,-302 1498,-302 1498,-126.5 1498,-75.69 1453.95,-77.68 1408,-56 1362.39,-34.49 1306.15,-23.07 1264.28,-17.12"/>
<polygon fill="midnightblue" stroke="midnightblue" points="1264.61,-13.64 1254.23,-15.76 1263.67,-20.57 1264.61,-13.64"/>
</g>
<!-- Node5 -->
<g id="node5" class="node">
<title>Node5</title>
<g id="a_node5"><a xlink:href="preprocessor_8h.html" target="_top" xlink:title=" ">
<polygon fill="none" stroke="black" points="1232.5,-56.5 1232.5,-75.5 1373.5,-75.5 1373.5,-56.5 1232.5,-56.5"/>
<text text-anchor="middle" x="1303" y="-63.5" font-family="Helvetica,sans-Serif" font-size="10.00">../../../misc/preprocessor.h</text>
</a>
</g>
</g>
<!-- Node1&#45;&gt;Node5 -->
<g id="edge4" class="edge">
<title>Node1&#45;&gt;Node5</title>
<path fill="none" stroke="midnightblue" d="M1054.36,-410.8C1156.8,-406.21 1460,-385.58 1460,-302 1460,-302 1460,-302 1460,-244 1460,-165.77 1373.1,-105.97 1328.61,-80.48"/>
<polygon fill="midnightblue" stroke="midnightblue" points="1330.24,-77.39 1319.8,-75.57 1326.83,-83.5 1330.24,-77.39"/>
</g>
<!-- Node6 -->
<g id="node6" class="node">
<title>Node6</title>
<g id="a_node6"><a xlink:href="triangle_8h.html" target="_top" xlink:title=" ">
<polygon fill="none" stroke="black" points="865.5,-291.5 865.5,-310.5 954.5,-310.5 954.5,-291.5 865.5,-291.5"/>
<text text-anchor="middle" x="910" y="-298.5" font-family="Helvetica,sans-Serif" font-size="10.00">../2D/triangle.h</text>
</a>
</g>
</g>
<!-- Node1&#45;&gt;Node6 -->
<g id="edge6" class="edge">
<title>Node1&#45;&gt;Node6</title>
<path fill="none" stroke="midnightblue" d="M1010.31,-403.39C999.56,-394.59 982.67,-380.35 969,-367 952.9,-351.28 935.74,-332.07 924.11,-318.62"/>
<polygon fill="midnightblue" stroke="midnightblue" points="926.49,-316.03 917.32,-310.72 921.18,-320.59 926.49,-316.03"/>
</g>
<!-- Node10 -->
<g id="node10" class="node">
<title>Node10</title>
<g id="a_node10"><a xlink:title=" ">
<polygon fill="none" stroke="#bfbfbf" points="1270.5,-118 1270.5,-137 1317.5,-137 1317.5,-118 1270.5,-118"/>
<text text-anchor="middle" x="1294" y="-125" font-family="Helvetica,sans-Serif" font-size="10.00">cmath</text>
</a>
</g>
</g>
<!-- Node1&#45;&gt;Node10 -->
<g id="edge51" class="edge">
<title>Node1&#45;&gt;Node10</title>
<path fill="none" stroke="midnightblue" d="M1054.18,-409.1C1143.79,-400.37 1384,-370.57 1384,-302 1384,-302 1384,-302 1384,-244 1384,-199.92 1342.71,-162.56 1316.06,-143.05"/>
<polygon fill="midnightblue" stroke="midnightblue" points="1317.86,-140.03 1307.67,-137.13 1313.82,-145.75 1317.86,-140.03"/>
</g>
<!-- Node18 -->
<g id="node18" class="node">
<title>Node18</title>
<g id="a_node18"><a xlink:href="rectangle_8h.html" target="_top" xlink:title=" ">
<polygon fill="none" stroke="black" points="1011.5,-347.5 1011.5,-366.5 1108.5,-366.5 1108.5,-347.5 1011.5,-347.5"/>
<text text-anchor="middle" x="1060" y="-354.5" font-family="Helvetica,sans-Serif" font-size="10.00">../2D/rectangle.h</text>
</a>
</g>
</g>
<!-- Node1&#45;&gt;Node18 -->
<g id="edge40" class="edge">
<title>Node1&#45;&gt;Node18</title>
<path fill="none" stroke="midnightblue" d="M1027.44,-403.08C1032.95,-395.46 1041.03,-384.26 1047.76,-374.94"/>
<polygon fill="midnightblue" stroke="midnightblue" points="1050.66,-376.91 1053.68,-366.75 1044.99,-372.81 1050.66,-376.91"/>
</g>
<!-- Node19 -->
<g id="node19" class="node">
<title>Node19</title>
<g id="a_node19"><a xlink:href="3_dshape_8h.html" target="_top" xlink:title=" ">
<polygon fill="none" stroke="black" points="218,-56.5 218,-75.5 286,-75.5 286,-56.5 218,-56.5"/>
<text text-anchor="middle" x="252" y="-63.5" font-family="Helvetica,sans-Serif" font-size="10.00">3Dshape.h</text>
</a>
</g>
</g>
<!-- Node1&#45;&gt;Node19 -->
<g id="edge48" class="edge">
<title>Node1&#45;&gt;Node19</title>
<path fill="none" stroke="midnightblue" d="M987.91,-411.54C824.79,-408.83 114,-391.87 114,-302 114,-302 114,-302 114,-188 114,-132.69 177.45,-96.76 218.3,-79.35"/>
<polygon fill="midnightblue" stroke="midnightblue" points="219.72,-82.55 227.65,-75.52 217.07,-76.07 219.72,-82.55"/>
</g>
<!-- Node5&#45;&gt;Node4 -->
<g id="edge5" class="edge">
<title>Node5&#45;&gt;Node4</title>
<path fill="none" stroke="midnightblue" d="M1287.09,-56.32C1271.36,-47.74 1247.06,-34.49 1228.79,-24.52"/>
<polygon fill="midnightblue" stroke="midnightblue" points="1230.32,-21.37 1219.87,-19.65 1226.97,-27.52 1230.32,-21.37"/>
</g>
<!-- Node6&#45;&gt;Node2 -->
<g id="edge7" class="edge">
<title>Node6&#45;&gt;Node2</title>
<path fill="none" stroke="midnightblue" d="M865.26,-299.11C687.13,-295.01 38,-274.26 38,-190 38,-190 38,-190 38,-126.5 38,-93.4 40.23,-80.94 62,-56 75.18,-40.9 94.63,-30.29 112.08,-23.19"/>
<polygon fill="midnightblue" stroke="midnightblue" points="113.41,-26.43 121.51,-19.59 110.92,-19.88 113.41,-26.43"/>
</g>
<!-- Node6&#45;&gt;Node3 -->
<g id="edge8" class="edge">
<title>Node6&#45;&gt;Node3</title>
<path fill="none" stroke="midnightblue" d="M910.13,-291.26C910.36,-258.95 908.76,-143.61 877,-56 873.47,-46.27 867.76,-36.32 862.5,-28.26"/>
<polygon fill="midnightblue" stroke="midnightblue" points="865.23,-26.05 856.68,-19.78 859.46,-30.01 865.23,-26.05"/>
</g>
<!-- Node6&#45;&gt;Node4 -->
<g id="edge9" class="edge">
<title>Node6&#45;&gt;Node4</title>
<path fill="none" stroke="midnightblue" d="M943.22,-291.43C1002.57,-274.24 1126.08,-229.58 1185,-143 1208.48,-108.5 1208.31,-57.14 1206.16,-29.77"/>
<polygon fill="midnightblue" stroke="midnightblue" points="1209.63,-29.24 1205.18,-19.63 1202.66,-29.92 1209.63,-29.24"/>
</g>
<!-- Node6&#45;&gt;Node5 -->
<g id="edge13" class="edge">
<title>Node6&#45;&gt;Node5</title>
<path fill="none" stroke="midnightblue" d="M954.69,-298.67C1028.1,-295.62 1169.9,-285.8 1208,-255 1260.83,-212.29 1226.49,-169.92 1262,-112 1268.46,-101.46 1277.58,-91.15 1285.58,-83.07"/>
<polygon fill="midnightblue" stroke="midnightblue" points="1288.33,-85.28 1293.06,-75.8 1283.45,-80.26 1288.33,-85.28"/>
</g>
<!-- Node7 -->
<g id="node7" class="node">
<title>Node7</title>
<g id="a_node7"><a xlink:href="2_dshape_8h.html" target="_top" xlink:title=" ">
<polygon fill="none" stroke="black" points="142,-179.5 142,-198.5 210,-198.5 210,-179.5 142,-179.5"/>
<text text-anchor="middle" x="176" y="-186.5" font-family="Helvetica,sans-Serif" font-size="10.00">2Dshape.h</text>
</a>
</g>
</g>
<!-- Node6&#45;&gt;Node7 -->
<g id="edge10" class="edge">
<title>Node6&#45;&gt;Node7</title>
<path fill="none" stroke="midnightblue" d="M865.28,-293.42C713.63,-271.11 228.01,-199.67 224,-199 222.73,-198.79 221.44,-198.57 220.14,-198.34"/>
<polygon fill="midnightblue" stroke="midnightblue" points="220.52,-194.86 210.06,-196.56 219.29,-201.75 220.52,-194.86"/>
</g>
<!-- Node8 -->
<g id="node8" class="node">
<title>Node8</title>
<g id="a_node8"><a xlink:href="angle_8h.html" target="_top" xlink:title=" ">
<polygon fill="none" stroke="black" points="842.5,-235.5 842.5,-254.5 895.5,-254.5 895.5,-235.5 842.5,-235.5"/>
<text text-anchor="middle" x="869" y="-242.5" font-family="Helvetica,sans-Serif" font-size="10.00">angle.h</text>
</a>
</g>
</g>
<!-- Node6&#45;&gt;Node8 -->
<g id="edge14" class="edge">
<title>Node6&#45;&gt;Node8</title>
<path fill="none" stroke="midnightblue" d="M903.23,-291.08C897.44,-283.46 888.94,-272.26 881.86,-262.94"/>
<polygon fill="midnightblue" stroke="midnightblue" points="884.48,-260.6 875.64,-254.75 878.9,-264.83 884.48,-260.6"/>
</g>
<!-- Node9 -->
<g id="node9" class="node">
<title>Node9</title>
<g id="a_node9"><a xlink:href="math_helpers_8h.html" target="_top" xlink:title=" ">
<polygon fill="none" stroke="black" points="733.5,-179.5 733.5,-198.5 840.5,-198.5 840.5,-179.5 733.5,-179.5"/>
<text text-anchor="middle" x="787" y="-186.5" font-family="Helvetica,sans-Serif" font-size="10.00">../../mathHelpers.h</text>
</a>
</g>
</g>
<!-- Node6&#45;&gt;Node9 -->
<g id="edge38" class="edge">
<title>Node6&#45;&gt;Node9</title>
<path fill="none" stroke="midnightblue" d="M890.46,-291.47C873.93,-283.62 850.24,-270.8 833,-255 817.93,-241.19 804.92,-221.64 796.62,-207.6"/>
<polygon fill="midnightblue" stroke="midnightblue" points="799.65,-205.85 791.66,-198.89 793.57,-209.31 799.65,-205.85"/>
</g>
<!-- Node6&#45;&gt;Node10 -->
<g id="edge39" class="edge">
<title>Node6&#45;&gt;Node10</title>
<path fill="none" stroke="midnightblue" d="M954.52,-299.55C1035.3,-297.85 1201.79,-290.07 1246,-255 1279.48,-228.44 1289.62,-175.74 1292.68,-147.47"/>
<polygon fill="midnightblue" stroke="midnightblue" points="1296.18,-147.58 1293.58,-137.31 1289.21,-146.96 1296.18,-147.58"/>
</g>
<!-- Node7&#45;&gt;Node2 -->
<g id="edge11" class="edge">
<title>Node7&#45;&gt;Node2</title>
<path fill="none" stroke="midnightblue" d="M171.92,-179.25C163.54,-160.72 144.59,-115.91 138,-76 135.39,-60.16 139.74,-42.35 144.27,-29.38"/>
<polygon fill="midnightblue" stroke="midnightblue" points="147.64,-30.37 147.96,-19.78 141.11,-27.86 147.64,-30.37"/>
</g>
<!-- Node7&#45;&gt;Node3 -->
<g id="edge12" class="edge">
<title>Node7&#45;&gt;Node3</title>
<path fill="none" stroke="midnightblue" d="M210.23,-187.04C327.66,-183.51 709.46,-170.04 757,-143 802.36,-117.2 830.92,-59.13 843.14,-29.36"/>
<polygon fill="midnightblue" stroke="midnightblue" points="846.5,-30.37 846.9,-19.78 839.98,-27.81 846.5,-30.37"/>
</g>
<!-- Node8&#45;&gt;Node2 -->
<g id="edge16" class="edge">
<title>Node8&#45;&gt;Node2</title>
<path fill="none" stroke="midnightblue" d="M842.48,-243.6C757.07,-241.46 482.75,-227.96 277,-143 229.24,-123.28 215.07,-115.7 182,-76 170.58,-62.29 162.53,-43.5 157.66,-29.65"/>
<polygon fill="midnightblue" stroke="midnightblue" points="160.88,-28.21 154.44,-19.8 154.22,-30.39 160.88,-28.21"/>
</g>
<!-- Node8&#45;&gt;Node3 -->
<g id="edge15" class="edge">
<title>Node8&#45;&gt;Node3</title>
<path fill="none" stroke="midnightblue" d="M869.24,-235.32C869.84,-208.5 870.74,-124.57 861,-56 859.74,-47.13 857.49,-37.46 855.36,-29.37"/>
<polygon fill="midnightblue" stroke="midnightblue" points="858.67,-28.22 852.62,-19.53 851.93,-30.1 858.67,-28.22"/>
</g>
<!-- Node8&#45;&gt;Node4 -->
<g id="edge17" class="edge">
<title>Node8&#45;&gt;Node4</title>
<path fill="none" stroke="midnightblue" d="M881.32,-235.43C931.39,-200.61 1119.94,-69.46 1183.18,-25.48"/>
<polygon fill="midnightblue" stroke="midnightblue" points="1185.36,-28.23 1191.57,-19.65 1181.36,-22.48 1185.36,-28.23"/>
</g>
<!-- Node8&#45;&gt;Node9 -->
<g id="edge18" class="edge">
<title>Node8&#45;&gt;Node9</title>
<path fill="none" stroke="midnightblue" d="M855.83,-235.32C843.15,-226.98 823.77,-214.21 808.79,-204.35"/>
<polygon fill="midnightblue" stroke="midnightblue" points="810.42,-201.23 800.14,-198.65 806.57,-207.08 810.42,-201.23"/>
</g>
<!-- Node9&#45;&gt;Node2 -->
<g id="edge19" class="edge">
<title>Node9&#45;&gt;Node2</title>
<path fill="none" stroke="midnightblue" d="M733.34,-183.8C664.1,-177.77 540.16,-164.9 436,-143 333.06,-121.35 297.62,-132.67 209,-76 189.71,-63.66 173.16,-42.94 162.95,-28.21"/>
<polygon fill="midnightblue" stroke="midnightblue" points="165.63,-25.93 157.18,-19.55 159.81,-29.81 165.63,-25.93"/>
</g>
<!-- Node9&#45;&gt;Node3 -->
<g id="edge22" class="edge">
<title>Node9&#45;&gt;Node3</title>
<path fill="none" stroke="midnightblue" d="M797.01,-179.42C806.07,-171.07 819.03,-157.54 826,-143 843.98,-105.49 848.55,-56.08 849.68,-29.63"/>
<polygon fill="midnightblue" stroke="midnightblue" points="853.18,-29.6 849.98,-19.5 846.18,-29.39 853.18,-29.6"/>
</g>
<!-- Node9&#45;&gt;Node10 -->
<g id="edge20" class="edge">
<title>Node9&#45;&gt;Node10</title>
<path fill="none" stroke="midnightblue" d="M840.79,-182.26C917.32,-174.01 1061.98,-158.14 1185,-143 1210.24,-139.89 1238.72,-136.1 1260.24,-133.16"/>
<polygon fill="midnightblue" stroke="midnightblue" points="1260.77,-136.63 1270.2,-131.8 1259.82,-129.69 1260.77,-136.63"/>
</g>
<!-- Node11 -->
<g id="node11" class="node">
<title>Node11</title>
<g id="a_node11"><a xlink:title=" ">
<polygon fill="none" stroke="#bfbfbf" points="304.5,-56.5 304.5,-75.5 373.5,-75.5 373.5,-56.5 304.5,-56.5"/>
<text text-anchor="middle" x="339" y="-63.5" font-family="Helvetica,sans-Serif" font-size="10.00">type_traits</text>
</a>
</g>
</g>
<!-- Node9&#45;&gt;Node11 -->
<g id="edge21" class="edge">
<title>Node9&#45;&gt;Node11</title>
<path fill="none" stroke="midnightblue" d="M733.46,-182.58C679.17,-176.23 593.1,-163.86 521,-143 463.42,-126.35 399.49,-96.93 364.82,-80"/>
<polygon fill="midnightblue" stroke="midnightblue" points="366.36,-76.86 355.84,-75.57 363.26,-83.13 366.36,-76.86"/>
</g>
<!-- Node12 -->
<g id="node12" class="node">
<title>Node12</title>
<g id="a_node12"><a xlink:title=" ">
<polygon fill="none" stroke="#bfbfbf" points="530,-118 530,-137 594,-137 594,-118 530,-118"/>
<text text-anchor="middle" x="562" y="-125" font-family="Helvetica,sans-Serif" font-size="10.00">algorithm</text>
</a>
</g>
</g>
<!-- Node9&#45;&gt;Node12 -->
<g id="edge23" class="edge">
<title>Node9&#45;&gt;Node12</title>
<path fill="none" stroke="midnightblue" d="M747.21,-179.48C709.73,-171.17 652.16,-157.66 603,-143 600.22,-142.17 597.35,-141.26 594.48,-140.32"/>
<polygon fill="midnightblue" stroke="midnightblue" points="595.45,-136.95 584.85,-137.04 593.19,-143.58 595.45,-136.95"/>
</g>
<!-- Node13 -->
<g id="node13" class="node">
<title>Node13</title>
<g id="a_node13"><a xlink:href="limes__assert_8h.html" target="_top" xlink:title=" ">
<polygon fill="none" stroke="black" points="612,-118 612,-137 748,-137 748,-118 612,-118"/>
<text text-anchor="middle" x="680" y="-125" font-family="Helvetica,sans-Serif" font-size="10.00">../system/limes_assert.h</text>
</a>
</g>
</g>
<!-- Node9&#45;&gt;Node13 -->
<g id="edge24" class="edge">
<title>Node9&#45;&gt;Node13</title>
<path fill="none" stroke="midnightblue" d="M771.67,-179.48C754.03,-169.67 724.84,-153.43 704.14,-141.92"/>
<polygon fill="midnightblue" stroke="midnightblue" points="705.74,-138.81 695.3,-137.01 702.34,-144.93 705.74,-138.81"/>
</g>
<!-- Node17 -->
<g id="node17" class="node">
<title>Node17</title>
<g id="a_node17"><a xlink:href="compiler__defs_8h.html" target="_top" xlink:title=" ">
<polygon fill="none" stroke="black" points="1068.5,-112.5 1068.5,-142.5 1175.5,-142.5 1175.5,-112.5 1068.5,-112.5"/>
<text text-anchor="start" x="1076.5" y="-130.5" font-family="Helvetica,sans-Serif" font-size="10.00">../system/compiler</text>
<text text-anchor="middle" x="1122" y="-119.5" font-family="Helvetica,sans-Serif" font-size="10.00">_defs.h</text>
</a>
</g>
</g>
<!-- Node9&#45;&gt;Node17 -->
<g id="edge35" class="edge">
<title>Node9&#45;&gt;Node17</title>
<path fill="none" stroke="midnightblue" d="M835,-179.48C893.64,-169.06 993.07,-151.4 1058.14,-139.84"/>
<polygon fill="midnightblue" stroke="midnightblue" points="1059.04,-143.24 1068.27,-138.04 1057.81,-136.35 1059.04,-143.24"/>
</g>
<!-- Node13&#45;&gt;Node2 -->
<g id="edge26" class="edge">
<title>Node13&#45;&gt;Node2</title>
<path fill="none" stroke="midnightblue" d="M635.38,-117.97C562.65,-104.03 426.07,-77.76 421,-76 402.59,-69.63 400.41,-62.38 382,-56 328.81,-37.57 265.94,-25.92 219.38,-19.1"/>
<polygon fill="midnightblue" stroke="midnightblue" points="219.8,-15.62 209.41,-17.68 218.81,-22.55 219.8,-15.62"/>
</g>
<!-- Node13&#45;&gt;Node3 -->
<g id="edge25" class="edge">
<title>Node13&#45;&gt;Node3</title>
<path fill="none" stroke="midnightblue" d="M688.27,-117.89C702.15,-103.74 731.45,-75.24 760,-56 778.82,-43.31 801.73,-31.91 819.72,-23.76"/>
<polygon fill="midnightblue" stroke="midnightblue" points="821.42,-26.83 829.15,-19.58 818.59,-20.43 821.42,-26.83"/>
</g>
<!-- Node13&#45;&gt;Node4 -->
<g id="edge33" class="edge">
<title>Node13&#45;&gt;Node4</title>
<path fill="none" stroke="midnightblue" d="M716.46,-117.91C774.05,-104.4 889.66,-77.5 988,-56 1043.89,-43.78 1108.1,-30.5 1151.88,-21.56"/>
<polygon fill="midnightblue" stroke="midnightblue" points="1152.63,-24.98 1161.73,-19.55 1151.23,-18.12 1152.63,-24.98"/>
</g>
<!-- Node13&#45;&gt;Node5 -->
<g id="edge27" class="edge">
<title>Node13&#45;&gt;Node5</title>
<path fill="none" stroke="midnightblue" d="M748.16,-119.99C863.93,-108.93 1098.47,-86.53 1222.27,-74.71"/>
<polygon fill="midnightblue" stroke="midnightblue" points="1222.82,-78.17 1232.44,-73.74 1222.16,-71.21 1222.82,-78.17"/>
</g>
<!-- Node13&#45;&gt;Node11 -->
<g id="edge28" class="edge">
<title>Node13&#45;&gt;Node11</title>
<path fill="none" stroke="midnightblue" d="M635.65,-117.99C624.96,-115.98 613.58,-113.88 603,-112 507.61,-95.03 483.43,-92.75 388,-76 386.54,-75.74 385.05,-75.48 383.54,-75.21"/>
<polygon fill="midnightblue" stroke="midnightblue" points="383.98,-71.74 373.52,-73.41 382.74,-78.63 383.98,-71.74"/>
</g>
<!-- Node14 -->
<g id="node14" class="node">
<title>Node14</title>
<g id="a_node14"><a xlink:title=" ">
<polygon fill="none" stroke="#bfbfbf" points="516.5,-56.5 516.5,-75.5 561.5,-75.5 561.5,-56.5 516.5,-56.5"/>
<text text-anchor="middle" x="539" y="-63.5" font-family="Helvetica,sans-Serif" font-size="10.00">utility</text>
</a>
</g>
</g>
<!-- Node13&#45;&gt;Node14 -->
<g id="edge29" class="edge">
<title>Node13&#45;&gt;Node14</title>
<path fill="none" stroke="midnightblue" d="M659.8,-117.98C635.93,-107.9 596,-91.05 568.63,-79.5"/>
<polygon fill="midnightblue" stroke="midnightblue" points="569.74,-76.17 559.16,-75.51 567.02,-82.62 569.74,-76.17"/>
</g>
<!-- Node15 -->
<g id="node15" class="node">
<title>Node15</title>
<g id="a_node15"><a xlink:href="_ignore_unused_8h.html" target="_top" xlink:title=" ">
<polygon fill="none" stroke="black" points="580,-56.5 580,-75.5 708,-75.5 708,-56.5 580,-56.5"/>
<text text-anchor="middle" x="644" y="-63.5" font-family="Helvetica,sans-Serif" font-size="10.00">../misc/IgnoreUnused.h</text>
</a>
</g>
</g>
<!-- Node13&#45;&gt;Node15 -->
<g id="edge30" class="edge">
<title>Node13&#45;&gt;Node15</title>
<path fill="none" stroke="midnightblue" d="M674.84,-117.98C669.55,-109.23 661.16,-95.37 654.47,-84.31"/>
<polygon fill="midnightblue" stroke="midnightblue" points="657.32,-82.25 649.15,-75.51 651.33,-85.88 657.32,-82.25"/>
</g>
<!-- Node16 -->
<g id="node16" class="node">
<title>Node16</title>
<g id="a_node16"><a xlink:title=" ">
<polygon fill="none" stroke="#bfbfbf" points="430,-56.5 430,-75.5 498,-75.5 498,-56.5 430,-56.5"/>
<text text-anchor="middle" x="464" y="-63.5" font-family="Helvetica,sans-Serif" font-size="10.00">filesystem</text>
</a>
</g>
</g>
<!-- Node13&#45;&gt;Node16 -->
<g id="edge34" class="edge">
<title>Node13&#45;&gt;Node16</title>
<path fill="none" stroke="midnightblue" d="M649.05,-117.98C611.12,-107.53 546.72,-89.79 504.78,-78.23"/>
<polygon fill="midnightblue" stroke="midnightblue" points="505.46,-74.79 494.89,-75.51 503.6,-81.54 505.46,-74.79"/>
</g>
<!-- Node15&#45;&gt;Node2 -->
<g id="edge32" class="edge">
<title>Node15&#45;&gt;Node2</title>
<path fill="none" stroke="midnightblue" d="M579.83,-57.14C576.51,-56.75 573.21,-56.37 570,-56 446.27,-41.82 301.77,-26.55 219.17,-17.94"/>
<polygon fill="midnightblue" stroke="midnightblue" points="219.47,-14.46 209.16,-16.9 218.74,-21.42 219.47,-14.46"/>
</g>
<!-- Node15&#45;&gt;Node3 -->
<g id="edge31" class="edge">
<title>Node15&#45;&gt;Node3</title>
<path fill="none" stroke="midnightblue" d="M676.64,-56.44C712.05,-47.16 768.71,-32.31 807.55,-22.13"/>
<polygon fill="midnightblue" stroke="midnightblue" points="808.73,-25.44 817.51,-19.52 806.95,-18.67 808.73,-25.44"/>
</g>
<!-- Node17&#45;&gt;Node4 -->
<g id="edge36" class="edge">
<title>Node17&#45;&gt;Node4</title>
<path fill="none" stroke="midnightblue" d="M1132.05,-112.34C1147.17,-91.05 1175.68,-50.89 1191.91,-28.03"/>
<polygon fill="midnightblue" stroke="midnightblue" points="1194.91,-29.85 1197.85,-19.67 1189.2,-25.8 1194.91,-29.85"/>
</g>
<!-- Node17&#45;&gt;Node5 -->
<g id="edge37" class="edge">
<title>Node17&#45;&gt;Node5</title>
<path fill="none" stroke="midnightblue" d="M1164.89,-112.4C1196.03,-102.16 1237.69,-88.47 1267.08,-78.81"/>
<polygon fill="midnightblue" stroke="midnightblue" points="1268.52,-82.02 1276.93,-75.57 1266.33,-75.37 1268.52,-82.02"/>
</g>
<!-- Node18&#45;&gt;Node2 -->
<g id="edge41" class="edge">
<title>Node18&#45;&gt;Node2</title>
<path fill="none" stroke="midnightblue" d="M1011.24,-355.82C836.21,-354.01 244.08,-337.59 133,-199 92.85,-148.91 125.18,-65.55 142.65,-29.05"/>
<polygon fill="midnightblue" stroke="midnightblue" points="145.98,-30.2 147.3,-19.69 139.71,-27.08 145.98,-30.2"/>
</g>
<!-- Node18&#45;&gt;Node3 -->
<g id="edge42" class="edge">
<title>Node18&#45;&gt;Node3</title>
<path fill="none" stroke="midnightblue" d="M1057.3,-347.26C1051.84,-328.77 1040,-284.24 1040,-246 1040,-246 1040,-246 1040,-126.5 1040,-62.59 960.53,-33.04 904.39,-20.13"/>
<polygon fill="midnightblue" stroke="midnightblue" points="905.06,-16.7 894.55,-17.98 903.57,-23.54 905.06,-16.7"/>
</g>
<!-- Node18&#45;&gt;Node4 -->
<g id="edge43" class="edge">
<title>Node18&#45;&gt;Node4</title>
<path fill="none" stroke="midnightblue" d="M1108.82,-351.47C1207.63,-340.96 1422,-310.7 1422,-246 1422,-246 1422,-246 1422,-126.5 1422,-90.69 1411.38,-77.84 1383,-56 1349.11,-29.92 1301.91,-18.8 1264.49,-14.13"/>
<polygon fill="midnightblue" stroke="midnightblue" points="1264.54,-10.62 1254.21,-12.98 1263.76,-17.57 1264.54,-10.62"/>
</g>
<!-- Node18&#45;&gt;Node5 -->
<g id="edge45" class="edge">
<title>Node18&#45;&gt;Node5</title>
<path fill="none" stroke="midnightblue" d="M1108.52,-347.67C1190.11,-332.27 1346,-296.27 1346,-246 1346,-246 1346,-246 1346,-188 1346,-149.35 1326.28,-107.56 1313.55,-84.61"/>
<polygon fill="midnightblue" stroke="midnightblue" points="1316.46,-82.65 1308.45,-75.73 1310.4,-86.14 1316.46,-82.65"/>
</g>
<!-- Node18&#45;&gt;Node6 -->
<g id="edge46" class="edge">
<title>Node18&#45;&gt;Node6</title>
<path fill="none" stroke="midnightblue" d="M1036.23,-347.44C1011.11,-338.4 971.29,-324.06 943.1,-313.92"/>
<polygon fill="midnightblue" stroke="midnightblue" points="944.25,-310.61 933.66,-310.52 941.88,-317.2 944.25,-310.61"/>
</g>
<!-- Node18&#45;&gt;Node7 -->
<g id="edge44" class="edge">
<title>Node18&#45;&gt;Node7</title>
<path fill="none" stroke="midnightblue" d="M1011.35,-348.05C912.03,-331.69 678.88,-292.64 484,-255 389.65,-236.78 279.61,-212.92 219.94,-199.77"/>
<polygon fill="midnightblue" stroke="midnightblue" points="220.62,-196.34 210.11,-197.6 219.12,-203.17 220.62,-196.34"/>
</g>
<!-- Node18&#45;&gt;Node10 -->
<g id="edge47" class="edge">
<title>Node18&#45;&gt;Node10</title>
<path fill="none" stroke="midnightblue" d="M1093.35,-347.45C1138.28,-334.4 1218.34,-305.53 1268,-255 1287.23,-235.43 1288.08,-225.8 1294,-199 1297.79,-181.84 1297.33,-161.74 1296.19,-147.41"/>
<polygon fill="midnightblue" stroke="midnightblue" points="1299.66,-146.93 1295.2,-137.31 1292.69,-147.61 1299.66,-146.93"/>
</g>
<!-- Node19&#45;&gt;Node2 -->
<g id="edge49" class="edge">
<title>Node19&#45;&gt;Node2</title>
<path fill="none" stroke="midnightblue" d="M235.93,-56.32C220.04,-47.74 195.49,-34.49 177.04,-24.52"/>
<polygon fill="midnightblue" stroke="midnightblue" points="178.49,-21.33 168.03,-19.65 175.16,-27.49 178.49,-21.33"/>
</g>
<!-- Node19&#45;&gt;Node3 -->
<g id="edge50" class="edge">
<title>Node19&#45;&gt;Node3</title>
<path fill="none" stroke="midnightblue" d="M286.2,-57.44C289.17,-56.9 292.13,-56.41 295,-56 477.04,-29.68 695.06,-17.62 795.02,-13.17"/>
<polygon fill="midnightblue" stroke="midnightblue" points="795.35,-16.66 805.18,-12.73 795.04,-9.67 795.35,-16.66"/>
</g>
</g>
</svg>
