<?xml version="1.0" encoding="UTF-8" standalone="no"?>
<!DOCTYPE svg PUBLIC "-//W3C//DTD SVG 1.1//EN"
 "http://www.w3.org/Graphics/SVG/1.1/DTD/svg11.dtd">
<!-- Generated by graphviz version 2.43.0 (0)
 -->
<!-- Title: rectangle.h Pages: 1 -->
<!--zoomable 375 -->
<svg id="main" version="1.1" xmlns="http://www.w3.org/2000/svg" xmlns:xlink="http://www.w3.org/1999/xlink" xml:space="preserve" onload="init(evt)">
<style type="text/css"><![CDATA[
.edge:hover path { stroke: red; }
.edge:hover polygon { stroke: red; fill: red; }
]]></style>
<script type="text/javascript"><![CDATA[
var edges = document.getElementsByTagName('g');
if (edges && edges.length) {
  for (var i=0;i<edges.length;i++) {
    if (edges[i].id.substr(0,4)=='edge') {
      edges[i].setAttribute('class','edge');
    }
  }
}
]]></script>
        <defs>
                <circle id="rim" cx="0" cy="0" r="7"/>
                <circle id="rim2" cx="0" cy="0" r="3.5"/>
                <g id="zoomPlus">
                        <use xlink:href="#rim" fill="#404040">
                                <set attributeName="fill" to="#808080" begin="zoomplus.mouseover" end="zoomplus.mouseout"/>
                        </use>
                        <path d="M-4,0h8M0,-4v8" fill="none" stroke="white" stroke-width="1.5" pointer-events="none"/>
                </g>
                <g id="zoomMin">
                        <use xlink:href="#rim" fill="#404040">
                                <set attributeName="fill" to="#808080" begin="zoomminus.mouseover" end="zoomminus.mouseout"/>
                        </use>
                        <path d="M-4,0h8" fill="none" stroke="white" stroke-width="1.5" pointer-events="none"/>
                </g>
                <g id="dirArrow">
                        <path fill="none" stroke="white" stroke-width="1.5" d="M0,-3.0v7 M-2.5,-0.5L0,-3.0L2.5,-0.5"/>
                </g>
               <g id="resetDef">
                       <use xlink:href="#rim2" fill="#404040">
                               <set attributeName="fill" to="#808080" begin="reset.mouseover" end="reset.mouseout"/>
                       </use>
               </g>
        </defs>

<script type="text/javascript">
var viewWidth = 1160;
var viewHeight = 375;
var sectionId = 'dynsection-0';
</script>
<script xlink:href="svgpan.js"/>
<svg id="graph" class="graph">
<g id="viewport">
<title>rectangle.h</title>
<!-- Node1 -->
<g id="node1" class="node">
<title>Node1</title>
<g id="a_node1"><a xlink:title=" ">
<polygon fill="#bfbfbf" stroke="black" points="705.5,-347.5 705.5,-366.5 776.5,-366.5 776.5,-347.5 705.5,-347.5"/>
<text text-anchor="middle" x="741" y="-354.5" font-family="Helvetica,sans-Serif" font-size="10.00">rectangle.h</text>
</a>
</g>
</g>
<!-- Node2 -->
<g id="node2" class="node">
<title>Node2</title>
<g id="a_node2"><a xlink:href="limes__namespace_8h.html" target="_top" xlink:title=" ">
<polygon fill="none" stroke="black" points="57,-0.5 57,-19.5 171,-19.5 171,-0.5 57,-0.5"/>
<text text-anchor="middle" x="114" y="-7.5" font-family="Helvetica,sans-Serif" font-size="10.00">limes_namespace.h</text>
</a>
</g>
</g>
<!-- Node1&#45;&gt;Node2 -->
<g id="edge1" class="edge">
<title>Node1&#45;&gt;Node2</title>
<path fill="none" stroke="midnightblue" d="M705.21,-355.28C590.84,-352.69 235.26,-342.25 125,-311 64.76,-293.92 0,-308.62 0,-246 0,-246 0,-246 0,-126.5 0,-77.7 52.19,-42.06 85.95,-24.11"/>
<polygon fill="midnightblue" stroke="midnightblue" points="87.61,-27.19 94.92,-19.52 84.42,-20.96 87.61,-27.19"/>
</g>
<!-- Node3 -->
<g id="node3" class="node">
<title>Node3</title>
<g id="a_node3"><a xlink:title=" ">
<polygon fill="none" stroke="#bfbfbf" points="259.5,-0.5 259.5,-19.5 348.5,-19.5 348.5,-0.5 259.5,-0.5"/>
<text text-anchor="middle" x="304" y="-7.5" font-family="Helvetica,sans-Serif" font-size="10.00">limes_export.h</text>
</a>
</g>
</g>
<!-- Node1&#45;&gt;Node3 -->
<g id="edge2" class="edge">
<title>Node1&#45;&gt;Node3</title>
<path fill="none" stroke="midnightblue" d="M705.22,-353.02C578.98,-342.04 162,-301.57 162,-246 162,-246 162,-246 162,-188 162,-113.07 240.37,-51.79 280.67,-25.22"/>
<polygon fill="midnightblue" stroke="midnightblue" points="282.81,-28.01 289.34,-19.66 279.03,-22.12 282.81,-28.01"/>
</g>
<!-- Node4 -->
<g id="node4" class="node">
<title>Node4</title>
<g id="a_node4"><a xlink:title=" ">
<polygon fill="none" stroke="#bfbfbf" points="915,-0.5 915,-19.5 1015,-19.5 1015,-0.5 915,-0.5"/>
<text text-anchor="middle" x="965" y="-7.5" font-family="Helvetica,sans-Serif" font-size="10.00">limes_platform.h</text>
</a>
</g>
</g>
<!-- Node1&#45;&gt;Node4 -->
<g id="edge3" class="edge">
<title>Node1&#45;&gt;Node4</title>
<path fill="none" stroke="midnightblue" d="M776.75,-354.09C876.75,-347.78 1152,-323.37 1152,-246 1152,-246 1152,-246 1152,-126.5 1152,-90.03 1138.65,-78.57 1110,-56 1085.75,-36.9 1053.34,-25.86 1025.31,-19.5"/>
<polygon fill="midnightblue" stroke="midnightblue" points="1025.72,-16 1015.21,-17.36 1024.27,-22.85 1025.72,-16"/>
</g>
<!-- Node5 -->
<g id="node5" class="node">
<title>Node5</title>
<g id="a_node5"><a xlink:href="2_dshape_8h.html" target="_top" xlink:title=" ">
<polygon fill="none" stroke="black" points="66,-179.5 66,-198.5 134,-198.5 134,-179.5 66,-179.5"/>
<text text-anchor="middle" x="100" y="-186.5" font-family="Helvetica,sans-Serif" font-size="10.00">2Dshape.h</text>
</a>
</g>
</g>
<!-- Node1&#45;&gt;Node5 -->
<g id="edge4" class="edge">
<title>Node1&#45;&gt;Node5</title>
<path fill="none" stroke="midnightblue" d="M705.38,-355.47C584.2,-353.36 192.9,-344.05 148,-311 115.03,-286.74 104.69,-236.24 101.46,-208.77"/>
<polygon fill="midnightblue" stroke="midnightblue" points="104.91,-208.17 100.46,-198.55 97.95,-208.85 104.91,-208.17"/>
</g>
<!-- Node6 -->
<g id="node6" class="node">
<title>Node6</title>
<g id="a_node6"><a xlink:href="preprocessor_8h.html" target="_top" xlink:title=" ">
<polygon fill="none" stroke="black" points="944.5,-56.5 944.5,-75.5 1085.5,-75.5 1085.5,-56.5 944.5,-56.5"/>
<text text-anchor="middle" x="1015" y="-63.5" font-family="Helvetica,sans-Serif" font-size="10.00">../../../misc/preprocessor.h</text>
</a>
</g>
</g>
<!-- Node1&#45;&gt;Node6 -->
<g id="edge7" class="edge">
<title>Node1&#45;&gt;Node6</title>
<path fill="none" stroke="midnightblue" d="M776.53,-352C862.75,-341.3 1076,-308.52 1076,-246 1076,-246 1076,-246 1076,-188 1076,-146.88 1047.56,-105.5 1029.52,-83.39"/>
<polygon fill="midnightblue" stroke="midnightblue" points="1032.1,-81.02 1022.97,-75.65 1026.76,-85.54 1032.1,-81.02"/>
</g>
<!-- Node7 -->
<g id="node7" class="node">
<title>Node7</title>
<g id="a_node7"><a xlink:href="triangle_8h.html" target="_top" xlink:title=" ">
<polygon fill="none" stroke="black" points="709.5,-291.5 709.5,-310.5 772.5,-310.5 772.5,-291.5 709.5,-291.5"/>
<text text-anchor="middle" x="741" y="-298.5" font-family="Helvetica,sans-Serif" font-size="10.00">triangle.h</text>
</a>
</g>
</g>
<!-- Node1&#45;&gt;Node7 -->
<g id="edge9" class="edge">
<title>Node1&#45;&gt;Node7</title>
<path fill="none" stroke="midnightblue" d="M741,-347.08C741,-340.01 741,-329.86 741,-320.99"/>
<polygon fill="midnightblue" stroke="midnightblue" points="744.5,-320.75 741,-310.75 737.5,-320.75 744.5,-320.75"/>
</g>
<!-- Node10 -->
<g id="node10" class="node">
<title>Node10</title>
<g id="a_node10"><a xlink:title=" ">
<polygon fill="none" stroke="#bfbfbf" points="962.5,-118 962.5,-137 1009.5,-137 1009.5,-118 962.5,-118"/>
<text text-anchor="middle" x="986" y="-125" font-family="Helvetica,sans-Serif" font-size="10.00">cmath</text>
</a>
</g>
</g>
<!-- Node1&#45;&gt;Node10 -->
<g id="edge41" class="edge">
<title>Node1&#45;&gt;Node10</title>
<path fill="none" stroke="midnightblue" d="M750.79,-347.24C777.19,-323.58 851.99,-256.29 913,-199 932.72,-180.48 955.05,-158.81 969.76,-144.43"/>
<polygon fill="midnightblue" stroke="midnightblue" points="972.39,-146.76 977.09,-137.26 967.49,-141.76 972.39,-146.76"/>
</g>
<!-- Node5&#45;&gt;Node2 -->
<g id="edge5" class="edge">
<title>Node5&#45;&gt;Node2</title>
<path fill="none" stroke="midnightblue" d="M99.1,-179.28C97.11,-158.05 93.01,-101.99 100,-56 101.37,-47 104.19,-37.33 106.95,-29.26"/>
<polygon fill="midnightblue" stroke="midnightblue" points="110.27,-30.37 110.4,-19.78 103.69,-27.98 110.27,-30.37"/>
</g>
<!-- Node5&#45;&gt;Node3 -->
<g id="edge6" class="edge">
<title>Node5&#45;&gt;Node3</title>
<path fill="none" stroke="midnightblue" d="M102.66,-179.19C110.19,-155.7 133.9,-90.98 176,-56 196.86,-38.67 224.85,-27.82 249.33,-21.14"/>
<polygon fill="midnightblue" stroke="midnightblue" points="250.41,-24.48 259.23,-18.61 248.67,-17.7 250.41,-24.48"/>
</g>
<!-- Node6&#45;&gt;Node4 -->
<g id="edge8" class="edge">
<title>Node6&#45;&gt;Node4</title>
<path fill="none" stroke="midnightblue" d="M1006.74,-56.08C999.54,-48.3 988.89,-36.8 980.15,-27.37"/>
<polygon fill="midnightblue" stroke="midnightblue" points="982.47,-24.71 973.1,-19.75 977.33,-29.47 982.47,-24.71"/>
</g>
<!-- Node7&#45;&gt;Node2 -->
<g id="edge10" class="edge">
<title>Node7&#45;&gt;Node2</title>
<path fill="none" stroke="midnightblue" d="M709.23,-300.59C585.9,-302.14 141.43,-300.52 57,-199 13.78,-147.02 71.65,-62.84 99.99,-27.47"/>
<polygon fill="midnightblue" stroke="midnightblue" points="102.83,-29.53 106.47,-19.58 97.42,-25.08 102.83,-29.53"/>
</g>
<!-- Node7&#45;&gt;Node3 -->
<g id="edge11" class="edge">
<title>Node7&#45;&gt;Node3</title>
<path fill="none" stroke="midnightblue" d="M747.04,-291.03C769.89,-255.87 846.66,-125.92 783,-56 754.89,-25.13 478.55,-15.03 358.84,-12.09"/>
<polygon fill="midnightblue" stroke="midnightblue" points="358.86,-8.59 348.78,-11.85 358.69,-15.59 358.86,-8.59"/>
</g>
<!-- Node7&#45;&gt;Node4 -->
<g id="edge12" class="edge">
<title>Node7&#45;&gt;Node4</title>
<path fill="none" stroke="midnightblue" d="M772.69,-295.49C808.87,-289.53 869.2,-277.12 917,-255 1018.82,-207.87 1057.71,-181.81 1095,-76 1107.06,-41.77 1064.55,-25.49 1024.97,-17.79"/>
<polygon fill="midnightblue" stroke="midnightblue" points="1025.46,-14.32 1015,-16.01 1024.23,-21.21 1025.46,-14.32"/>
</g>
<!-- Node7&#45;&gt;Node5 -->
<g id="edge13" class="edge">
<title>Node7&#45;&gt;Node5</title>
<path fill="none" stroke="midnightblue" d="M709.21,-294.55C603.91,-276.47 266.25,-218.53 144.39,-197.62"/>
<polygon fill="midnightblue" stroke="midnightblue" points="144.74,-194.13 134.29,-195.89 143.56,-201.03 144.74,-194.13"/>
</g>
<!-- Node7&#45;&gt;Node6 -->
<g id="edge14" class="edge">
<title>Node7&#45;&gt;Node6</title>
<path fill="none" stroke="midnightblue" d="M772.71,-293.31C833.72,-278.51 966.09,-236.62 1019,-143 1028.93,-125.43 1025.59,-101.77 1021.27,-85.54"/>
<polygon fill="midnightblue" stroke="midnightblue" points="1024.53,-84.22 1018.28,-75.66 1017.83,-86.25 1024.53,-84.22"/>
</g>
<!-- Node8 -->
<g id="node8" class="node">
<title>Node8</title>
<g id="a_node8"><a xlink:href="angle_8h.html" target="_top" xlink:title=" ">
<polygon fill="none" stroke="black" points="587.5,-235.5 587.5,-254.5 640.5,-254.5 640.5,-235.5 587.5,-235.5"/>
<text text-anchor="middle" x="614" y="-242.5" font-family="Helvetica,sans-Serif" font-size="10.00">angle.h</text>
</a>
</g>
</g>
<!-- Node7&#45;&gt;Node8 -->
<g id="edge15" class="edge">
<title>Node7&#45;&gt;Node8</title>
<path fill="none" stroke="midnightblue" d="M720.88,-291.44C699.98,-282.56 667.07,-268.56 643.28,-258.45"/>
<polygon fill="midnightblue" stroke="midnightblue" points="644.6,-255.21 634.03,-254.52 641.86,-261.65 644.6,-255.21"/>
</g>
<!-- Node9 -->
<g id="node9" class="node">
<title>Node9</title>
<g id="a_node9"><a xlink:href="math_helpers_8h.html" target="_top" xlink:title=" ">
<polygon fill="none" stroke="black" points="560.5,-179.5 560.5,-198.5 667.5,-198.5 667.5,-179.5 560.5,-179.5"/>
<text text-anchor="middle" x="614" y="-186.5" font-family="Helvetica,sans-Serif" font-size="10.00">../../mathHelpers.h</text>
</a>
</g>
</g>
<!-- Node7&#45;&gt;Node9 -->
<g id="edge39" class="edge">
<title>Node7&#45;&gt;Node9</title>
<path fill="none" stroke="midnightblue" d="M731.03,-291.37C709.61,-272.81 658.93,-228.91 631.82,-205.44"/>
<polygon fill="midnightblue" stroke="midnightblue" points="633.77,-202.49 623.92,-198.59 629.19,-207.78 633.77,-202.49"/>
</g>
<!-- Node7&#45;&gt;Node10 -->
<g id="edge40" class="edge">
<title>Node7&#45;&gt;Node10</title>
<path fill="none" stroke="midnightblue" d="M753.15,-291.5C792.42,-264.01 916.22,-177.35 965.48,-142.86"/>
<polygon fill="midnightblue" stroke="midnightblue" points="967.59,-145.66 973.78,-137.06 963.58,-139.92 967.59,-145.66"/>
</g>
<!-- Node8&#45;&gt;Node2 -->
<g id="edge17" class="edge">
<title>Node8&#45;&gt;Node2</title>
<path fill="none" stroke="midnightblue" d="M587.3,-240.77C548.18,-235.41 473.45,-222.86 414,-199 298.49,-152.64 178.01,-61.99 132.7,-26.13"/>
<polygon fill="midnightblue" stroke="midnightblue" points="134.66,-23.22 124.66,-19.71 130.29,-28.69 134.66,-23.22"/>
</g>
<!-- Node8&#45;&gt;Node3 -->
<g id="edge16" class="edge">
<title>Node8&#45;&gt;Node3</title>
<path fill="none" stroke="midnightblue" d="M587.28,-238.58C537.88,-227.52 430.69,-198.57 358,-143 328.48,-120.43 320.79,-110.89 308,-76 302.58,-61.22 301.88,-43.29 302.36,-30.01"/>
<polygon fill="midnightblue" stroke="midnightblue" points="305.87,-29.93 303,-19.73 298.88,-29.5 305.87,-29.93"/>
</g>
<!-- Node8&#45;&gt;Node4 -->
<g id="edge18" class="edge">
<title>Node8&#45;&gt;Node4</title>
<path fill="none" stroke="midnightblue" d="M626.91,-235.43C679.47,-200.54 877.74,-68.93 943.59,-25.21"/>
<polygon fill="midnightblue" stroke="midnightblue" points="945.58,-28.09 951.97,-19.65 941.71,-22.26 945.58,-28.09"/>
</g>
<!-- Node8&#45;&gt;Node9 -->
<g id="edge19" class="edge">
<title>Node8&#45;&gt;Node9</title>
<path fill="none" stroke="midnightblue" d="M614,-235.08C614,-228.01 614,-217.86 614,-208.99"/>
<polygon fill="midnightblue" stroke="midnightblue" points="617.5,-208.75 614,-198.75 610.5,-208.75 617.5,-208.75"/>
</g>
<!-- Node9&#45;&gt;Node2 -->
<g id="edge20" class="edge">
<title>Node9&#45;&gt;Node2</title>
<path fill="none" stroke="midnightblue" d="M560.28,-183.62C507.59,-178.16 425.55,-166.51 358,-143 270.04,-112.38 175.74,-52.7 134.87,-25.34"/>
<polygon fill="midnightblue" stroke="midnightblue" points="136.78,-22.41 126.54,-19.71 132.87,-28.21 136.78,-22.41"/>
</g>
<!-- Node9&#45;&gt;Node3 -->
<g id="edge23" class="edge">
<title>Node9&#45;&gt;Node3</title>
<path fill="none" stroke="midnightblue" d="M560.49,-182.94C494.35,-173.68 383.28,-147.79 324,-76 313.08,-62.78 308.12,-43.65 305.86,-29.56"/>
<polygon fill="midnightblue" stroke="midnightblue" points="309.32,-29.03 304.57,-19.56 302.38,-29.92 309.32,-29.03"/>
</g>
<!-- Node9&#45;&gt;Node10 -->
<g id="edge21" class="edge">
<title>Node9&#45;&gt;Node10</title>
<path fill="none" stroke="midnightblue" d="M667.7,-185.76C735.55,-181.82 855.39,-171.2 954,-143 955.94,-142.45 957.9,-141.79 959.86,-141.08"/>
<polygon fill="midnightblue" stroke="midnightblue" points="961.51,-144.19 969.41,-137.13 958.83,-137.72 961.51,-144.19"/>
</g>
<!-- Node11 -->
<g id="node11" class="node">
<title>Node11</title>
<g id="a_node11"><a xlink:title=" ">
<polygon fill="none" stroke="#bfbfbf" points="332.5,-56.5 332.5,-75.5 401.5,-75.5 401.5,-56.5 332.5,-56.5"/>
<text text-anchor="middle" x="367" y="-63.5" font-family="Helvetica,sans-Serif" font-size="10.00">type_traits</text>
</a>
</g>
</g>
<!-- Node9&#45;&gt;Node11 -->
<g id="edge22" class="edge">
<title>Node9&#45;&gt;Node11</title>
<path fill="none" stroke="midnightblue" d="M594.74,-179.44C574.89,-170.55 543.13,-156.14 516,-143 472.33,-121.85 422.18,-95.93 392.62,-80.47"/>
<polygon fill="midnightblue" stroke="midnightblue" points="393.91,-77.2 383.43,-75.66 390.66,-83.4 393.91,-77.2"/>
</g>
<!-- Node12 -->
<g id="node12" class="node">
<title>Node12</title>
<g id="a_node12"><a xlink:title=" ">
<polygon fill="none" stroke="#bfbfbf" points="679,-118 679,-137 743,-137 743,-118 679,-118"/>
<text text-anchor="middle" x="711" y="-125" font-family="Helvetica,sans-Serif" font-size="10.00">algorithm</text>
</a>
</g>
</g>
<!-- Node9&#45;&gt;Node12 -->
<g id="edge24" class="edge">
<title>Node9&#45;&gt;Node12</title>
<path fill="none" stroke="midnightblue" d="M627.9,-179.48C643.67,-169.8 669.64,-153.87 688.35,-142.39"/>
<polygon fill="midnightblue" stroke="midnightblue" points="690.43,-145.22 697.13,-137.01 686.77,-139.25 690.43,-145.22"/>
</g>
<!-- Node13 -->
<g id="node13" class="node">
<title>Node13</title>
<g id="a_node13"><a xlink:href="limes__assert_8h.html" target="_top" xlink:title=" ">
<polygon fill="none" stroke="black" points="525,-118 525,-137 661,-137 661,-118 525,-118"/>
<text text-anchor="middle" x="593" y="-125" font-family="Helvetica,sans-Serif" font-size="10.00">../system/limes_assert.h</text>
</a>
</g>
</g>
<!-- Node9&#45;&gt;Node13 -->
<g id="edge25" class="edge">
<title>Node9&#45;&gt;Node13</title>
<path fill="none" stroke="midnightblue" d="M610.99,-179.48C607.97,-170.9 603.21,-157.43 599.35,-146.48"/>
<polygon fill="midnightblue" stroke="midnightblue" points="602.63,-145.27 596,-137.01 596.03,-147.6 602.63,-145.27"/>
</g>
<!-- Node17 -->
<g id="node17" class="node">
<title>Node17</title>
<g id="a_node17"><a xlink:href="compiler__defs_8h.html" target="_top" xlink:title=" ">
<polygon fill="none" stroke="black" points="837.5,-112.5 837.5,-142.5 944.5,-142.5 944.5,-112.5 837.5,-112.5"/>
<text text-anchor="start" x="845.5" y="-130.5" font-family="Helvetica,sans-Serif" font-size="10.00">../system/compiler</text>
<text text-anchor="middle" x="891" y="-119.5" font-family="Helvetica,sans-Serif" font-size="10.00">_defs.h</text>
</a>
</g>
</g>
<!-- Node9&#45;&gt;Node17 -->
<g id="edge36" class="edge">
<title>Node9&#45;&gt;Node17</title>
<path fill="none" stroke="midnightblue" d="M653.69,-179.48C699.01,-169.74 773.79,-153.68 827.3,-142.18"/>
<polygon fill="midnightblue" stroke="midnightblue" points="828.32,-145.54 837.36,-140.02 826.85,-138.7 828.32,-145.54"/>
</g>
<!-- Node13&#45;&gt;Node2 -->
<g id="edge27" class="edge">
<title>Node13&#45;&gt;Node2</title>
<path fill="none" stroke="midnightblue" d="M564.66,-117.92C535.27,-108.72 488.22,-93.09 449,-76 431.5,-68.38 429.13,-61.96 411,-56 334.66,-30.92 242.62,-19.73 181.44,-14.79"/>
<polygon fill="midnightblue" stroke="midnightblue" points="181.38,-11.28 171.14,-14 180.84,-18.26 181.38,-11.28"/>
</g>
<!-- Node13&#45;&gt;Node3 -->
<g id="edge26" class="edge">
<title>Node13&#45;&gt;Node3</title>
<path fill="none" stroke="midnightblue" d="M596.52,-117.92C601.88,-103.31 609.98,-73.48 595,-56 565.21,-21.25 434.7,-13.1 358.96,-11.33"/>
<polygon fill="midnightblue" stroke="midnightblue" points="358.72,-7.83 348.66,-11.13 358.58,-14.83 358.72,-7.83"/>
</g>
<!-- Node13&#45;&gt;Node4 -->
<g id="edge34" class="edge">
<title>Node13&#45;&gt;Node4</title>
<path fill="none" stroke="midnightblue" d="M628.62,-117.97C666.99,-108.57 729.71,-92.57 783,-76 836.45,-59.38 897.52,-36.82 933.58,-23.12"/>
<polygon fill="midnightblue" stroke="midnightblue" points="934.97,-26.34 943.07,-19.5 932.48,-19.8 934.97,-26.34"/>
</g>
<!-- Node13&#45;&gt;Node6 -->
<g id="edge28" class="edge">
<title>Node13&#45;&gt;Node6</title>
<path fill="none" stroke="midnightblue" d="M636.09,-117.94C647.13,-115.87 658.98,-113.75 670,-112 760.26,-97.63 864.34,-84.52 934.38,-76.21"/>
<polygon fill="midnightblue" stroke="midnightblue" points="934.94,-79.67 944.46,-75.02 934.12,-72.72 934.94,-79.67"/>
</g>
<!-- Node13&#45;&gt;Node11 -->
<g id="edge29" class="edge">
<title>Node13&#45;&gt;Node11</title>
<path fill="none" stroke="midnightblue" d="M560.62,-117.98C520.76,-107.48 452.98,-89.64 409.11,-78.09"/>
<polygon fill="midnightblue" stroke="midnightblue" points="409.88,-74.67 399.32,-75.51 408.1,-81.44 409.88,-74.67"/>
</g>
<!-- Node14 -->
<g id="node14" class="node">
<title>Node14</title>
<g id="a_node14"><a xlink:title=" ">
<polygon fill="none" stroke="#bfbfbf" points="728.5,-56.5 728.5,-75.5 773.5,-75.5 773.5,-56.5 728.5,-56.5"/>
<text text-anchor="middle" x="751" y="-63.5" font-family="Helvetica,sans-Serif" font-size="10.00">utility</text>
</a>
</g>
</g>
<!-- Node13&#45;&gt;Node14 -->
<g id="edge30" class="edge">
<title>Node13&#45;&gt;Node14</title>
<path fill="none" stroke="midnightblue" d="M615.64,-117.98C642.74,-107.77 688.31,-90.61 719,-79.05"/>
<polygon fill="midnightblue" stroke="midnightblue" points="720.28,-82.31 728.4,-75.51 717.81,-75.76 720.28,-82.31"/>
</g>
<!-- Node15 -->
<g id="node15" class="node">
<title>Node15</title>
<g id="a_node15"><a xlink:href="_ignore_unused_8h.html" target="_top" xlink:title=" ">
<polygon fill="none" stroke="black" points="458,-56.5 458,-75.5 586,-75.5 586,-56.5 458,-56.5"/>
<text text-anchor="middle" x="522" y="-63.5" font-family="Helvetica,sans-Serif" font-size="10.00">../misc/IgnoreUnused.h</text>
</a>
</g>
</g>
<!-- Node13&#45;&gt;Node15 -->
<g id="edge31" class="edge">
<title>Node13&#45;&gt;Node15</title>
<path fill="none" stroke="midnightblue" d="M582.83,-117.98C571.65,-108.61 553.48,-93.38 539.91,-82.01"/>
<polygon fill="midnightblue" stroke="midnightblue" points="542.07,-79.25 532.15,-75.51 537.57,-84.61 542.07,-79.25"/>
</g>
<!-- Node16 -->
<g id="node16" class="node">
<title>Node16</title>
<g id="a_node16"><a xlink:title=" ">
<polygon fill="none" stroke="#bfbfbf" points="642,-56.5 642,-75.5 710,-75.5 710,-56.5 642,-56.5"/>
<text text-anchor="middle" x="676" y="-63.5" font-family="Helvetica,sans-Serif" font-size="10.00">filesystem</text>
</a>
</g>
</g>
<!-- Node13&#45;&gt;Node16 -->
<g id="edge35" class="edge">
<title>Node13&#45;&gt;Node16</title>
<path fill="none" stroke="midnightblue" d="M604.89,-117.98C618.2,-108.43 640,-92.81 655.96,-81.37"/>
<polygon fill="midnightblue" stroke="midnightblue" points="658.04,-84.18 664.13,-75.51 653.96,-78.49 658.04,-84.18"/>
</g>
<!-- Node15&#45;&gt;Node2 -->
<g id="edge33" class="edge">
<title>Node15&#45;&gt;Node2</title>
<path fill="none" stroke="midnightblue" d="M457.8,-56.5C382.42,-46.53 257.96,-30.05 181.27,-19.9"/>
<polygon fill="midnightblue" stroke="midnightblue" points="181.61,-16.42 171.24,-18.58 180.69,-23.36 181.61,-16.42"/>
</g>
<!-- Node15&#45;&gt;Node3 -->
<g id="edge32" class="edge">
<title>Node15&#45;&gt;Node3</title>
<path fill="none" stroke="midnightblue" d="M487.46,-56.44C449.75,-47.1 389.26,-32.12 348.14,-21.93"/>
<polygon fill="midnightblue" stroke="midnightblue" points="348.93,-18.52 338.38,-19.52 347.25,-25.32 348.93,-18.52"/>
</g>
<!-- Node17&#45;&gt;Node4 -->
<g id="edge37" class="edge">
<title>Node17&#45;&gt;Node4</title>
<path fill="none" stroke="midnightblue" d="M899.95,-112.44C909.01,-98.21 923.46,-75.56 936,-56 941.91,-46.79 948.51,-36.54 953.92,-28.15"/>
<polygon fill="midnightblue" stroke="midnightblue" points="956.95,-29.92 959.43,-19.62 951.07,-26.12 956.95,-29.92"/>
</g>
<!-- Node17&#45;&gt;Node6 -->
<g id="edge38" class="edge">
<title>Node17&#45;&gt;Node6</title>
<path fill="none" stroke="midnightblue" d="M920.39,-112.4C940.82,-102.59 967.86,-89.62 987.8,-80.05"/>
<polygon fill="midnightblue" stroke="midnightblue" points="989.46,-83.14 996.96,-75.66 986.43,-76.83 989.46,-83.14"/>
</g>
</g>
</svg>
        <g id="navigator" transform="translate(0 0)" fill="#404254">
                <rect fill="#f2f5e9" fill-opacity="0.5" stroke="#606060" stroke-width=".5" x="0" y="0" width="60" height="60"/>
                <use id="zoomplus" xlink:href="#zoomPlus" x="17" y="9" onmousedown="handleZoom(evt,'in')"/>
                <use id="zoomminus" xlink:href="#zoomMin" x="42" y="9" onmousedown="handleZoom(evt,'out')"/>
                <use id="reset" xlink:href="#resetDef" x="30" y="36" onmousedown="handleReset()"/>
                <g id="arrowUp" xlink:href="#dirArrow" transform="translate(30 24)" onmousedown="handlePan(0,-1)">
                  <use xlink:href="#rim" fill="#404040">
                        <set attributeName="fill" to="#808080" begin="arrowUp.mouseover" end="arrowUp.mouseout"/>
                  </use>
                  <path fill="none" stroke="white" stroke-width="1.5" d="M0,-3.0v7 M-2.5,-0.5L0,-3.0L2.5,-0.5"/>
                </g>
                <g id="arrowRight" xlink:href="#dirArrow" transform="rotate(90) translate(36 -43)" onmousedown="handlePan(1,0)">
                  <use xlink:href="#rim" fill="#404040">
                        <set attributeName="fill" to="#808080" begin="arrowRight.mouseover" end="arrowRight.mouseout"/>
                  </use>
                  <path fill="none" stroke="white" stroke-width="1.5" d="M0,-3.0v7 M-2.5,-0.5L0,-3.0L2.5,-0.5"/>
                </g>
                <g id="arrowDown" xlink:href="#dirArrow" transform="rotate(180) translate(-30 -48)" onmousedown="handlePan(0,1)">
                  <use xlink:href="#rim" fill="#404040">
                        <set attributeName="fill" to="#808080" begin="arrowDown.mouseover" end="arrowDown.mouseout"/>
                  </use>
                  <path fill="none" stroke="white" stroke-width="1.5" d="M0,-3.0v7 M-2.5,-0.5L0,-3.0L2.5,-0.5"/>
                </g>
                <g id="arrowLeft" xlink:href="#dirArrow" transform="rotate(270) translate(-36 17)" onmousedown="handlePan(-1,0)">
                  <use xlink:href="#rim" fill="#404040">
                        <set attributeName="fill" to="#808080" begin="arrowLeft.mouseover" end="arrowLeft.mouseout"/>
                  </use>
                  <path fill="none" stroke="white" stroke-width="1.5" d="M0,-3.0v7 M-2.5,-0.5L0,-3.0L2.5,-0.5"/>
                </g>
        </g>
        <svg viewBox="0 0 15 15" width="100%" height="30px" preserveAspectRatio="xMaxYMin meet">
         <g id="arrow_out" transform="scale(0.3 0.3)">
          <a xlink:href="rectangle_8h__incl_org.svg" target="_base">
           <rect id="button" ry="5" rx="5" y="6" x="6" height="38" width="38"
                fill="#f2f5e9" fill-opacity="0.5" stroke="#606060" stroke-width="1.0"/>
           <path id="arrow"
             d="M 11.500037,31.436501 C 11.940474,20.09759 22.043105,11.32322 32.158766,21.979434 L 37.068811,17.246167 C 37.068811,17.246167 37.088388,32 37.088388,32 L 22.160133,31.978069 C 22.160133,31.978069 26.997745,27.140456 26.997745,27.140456 C 18.528582,18.264221 13.291696,25.230495 11.500037,31.436501 z"
             style="fill:#404040;"/>
          </a>
         </g>
        </svg>
</svg>
