<?xml version="1.0" encoding="UTF-8" standalone="no"?>
<!DOCTYPE svg PUBLIC "-//W3C//DTD SVG 1.1//EN"
 "http://www.w3.org/Graphics/SVG/1.1/DTD/svg11.dtd">
<!-- Generated by graphviz version 2.43.0 (0)
 -->
<!-- Title: rectangle.h Pages: 1 -->
<!--zoomable 375 -->
<svg id="main" version="1.1" xmlns="http://www.w3.org/2000/svg" xmlns:xlink="http://www.w3.org/1999/xlink" xml:space="preserve" onload="init(evt)">
<style type="text/css"><![CDATA[
.edge:hover path { stroke: red; }
.edge:hover polygon { stroke: red; fill: red; }
]]></style>
<script type="text/javascript"><![CDATA[
var edges = document.getElementsByTagName('g');
if (edges && edges.length) {
  for (var i=0;i<edges.length;i++) {
    if (edges[i].id.substr(0,4)=='edge') {
      edges[i].setAttribute('class','edge');
    }
  }
}
]]></script>
        <defs>
                <circle id="rim" cx="0" cy="0" r="7"/>
                <circle id="rim2" cx="0" cy="0" r="3.5"/>
                <g id="zoomPlus">
                        <use xlink:href="#rim" fill="#404040">
                                <set attributeName="fill" to="#808080" begin="zoomplus.mouseover" end="zoomplus.mouseout"/>
                        </use>
                        <path d="M-4,0h8M0,-4v8" fill="none" stroke="white" stroke-width="1.5" pointer-events="none"/>
                </g>
                <g id="zoomMin">
                        <use xlink:href="#rim" fill="#404040">
                                <set attributeName="fill" to="#808080" begin="zoomminus.mouseover" end="zoomminus.mouseout"/>
                        </use>
                        <path d="M-4,0h8" fill="none" stroke="white" stroke-width="1.5" pointer-events="none"/>
                </g>
                <g id="dirArrow">
                        <path fill="none" stroke="white" stroke-width="1.5" d="M0,-3.0v7 M-2.5,-0.5L0,-3.0L2.5,-0.5"/>
                </g>
               <g id="resetDef">
                       <use xlink:href="#rim2" fill="#404040">
                               <set attributeName="fill" to="#808080" begin="reset.mouseover" end="reset.mouseout"/>
                       </use>
               </g>
        </defs>

<script type="text/javascript">
var viewWidth = 1170;
var viewHeight = 375;
var sectionId = 'dynsection-0';
</script>
<script xlink:href="svgpan.js"/>
<svg id="graph" class="graph">
<g id="viewport">
<title>rectangle.h</title>
<!-- Node1 -->
<g id="node1" class="node">
<title>Node1</title>
<g id="a_node1"><a xlink:title=" ">
<polygon fill="#bfbfbf" stroke="black" points="422.5,-347.5 422.5,-366.5 493.5,-366.5 493.5,-347.5 422.5,-347.5"/>
<text text-anchor="middle" x="458" y="-354.5" font-family="Helvetica,sans-Serif" font-size="10.00">rectangle.h</text>
</a>
</g>
</g>
<!-- Node2 -->
<g id="node2" class="node">
<title>Node2</title>
<g id="a_node2"><a xlink:href="limes__namespace_8h.html" target="_top" xlink:title=" ">
<polygon fill="none" stroke="black" points="62,-0.5 62,-19.5 176,-19.5 176,-0.5 62,-0.5"/>
<text text-anchor="middle" x="119" y="-7.5" font-family="Helvetica,sans-Serif" font-size="10.00">limes_namespace.h</text>
</a>
</g>
</g>
<!-- Node1&#45;&gt;Node2 -->
<g id="edge1" class="edge">
<title>Node1&#45;&gt;Node2</title>
<path fill="none" stroke="midnightblue" d="M422.44,-355.06C314.83,-351.28 0,-332.78 0,-246 0,-246 0,-246 0,-126.5 0,-76.89 53.91,-41.74 89.16,-24.06"/>
<polygon fill="midnightblue" stroke="midnightblue" points="91.05,-27.03 98.54,-19.54 88.01,-20.72 91.05,-27.03"/>
</g>
<!-- Node3 -->
<g id="node3" class="node">
<title>Node3</title>
<g id="a_node3"><a xlink:title=" ">
<polygon fill="none" stroke="#bfbfbf" points="269.5,-0.5 269.5,-19.5 358.5,-19.5 358.5,-0.5 269.5,-0.5"/>
<text text-anchor="middle" x="314" y="-7.5" font-family="Helvetica,sans-Serif" font-size="10.00">limes_export.h</text>
</a>
</g>
</g>
<!-- Node1&#45;&gt;Node3 -->
<g id="edge2" class="edge">
<title>Node1&#45;&gt;Node3</title>
<path fill="none" stroke="midnightblue" d="M422.48,-347.79C376.66,-335.4 297.46,-307.58 252,-255 209.64,-206.01 210.04,-175.24 224,-112 229.92,-85.2 232.4,-77.05 250,-56 260.59,-43.34 275.54,-32.56 288.33,-24.73"/>
<polygon fill="midnightblue" stroke="midnightblue" points="290.3,-27.63 297.17,-19.56 286.77,-21.58 290.3,-27.63"/>
</g>
<!-- Node4 -->
<g id="node4" class="node">
<title>Node4</title>
<g id="a_node4"><a xlink:title=" ">
<polygon fill="none" stroke="#bfbfbf" points="876,-0.5 876,-19.5 976,-19.5 976,-0.5 876,-0.5"/>
<text text-anchor="middle" x="926" y="-7.5" font-family="Helvetica,sans-Serif" font-size="10.00">limes_platform.h</text>
</a>
</g>
</g>
<!-- Node1&#45;&gt;Node4 -->
<g id="edge3" class="edge">
<title>Node1&#45;&gt;Node4</title>
<path fill="none" stroke="midnightblue" d="M493.88,-354.23C637.34,-346.67 1162,-314.35 1162,-246 1162,-246 1162,-246 1162,-126.5 1162,-90.25 1150.17,-77.51 1121,-56 1081.99,-27.23 1027.59,-16.46 986.16,-12.6"/>
<polygon fill="midnightblue" stroke="midnightblue" points="986.45,-9.12 976.19,-11.79 985.87,-16.09 986.45,-9.12"/>
</g>
<!-- Node5 -->
<g id="node5" class="node">
<title>Node5</title>
<g id="a_node5"><a xlink:href="2_dshape_8h.html" target="_top" xlink:title=" ">
<polygon fill="none" stroke="black" points="66,-179.5 66,-198.5 134,-198.5 134,-179.5 66,-179.5"/>
<text text-anchor="middle" x="100" y="-186.5" font-family="Helvetica,sans-Serif" font-size="10.00">2Dshape.h</text>
</a>
</g>
</g>
<!-- Node1&#45;&gt;Node5 -->
<g id="edge4" class="edge">
<title>Node1&#45;&gt;Node5</title>
<path fill="none" stroke="midnightblue" d="M422.34,-355.21C350.13,-352.91 189.93,-344.12 148,-311 116.04,-285.75 105.29,-236.07 101.73,-208.88"/>
<polygon fill="midnightblue" stroke="midnightblue" points="105.18,-208.29 100.6,-198.74 98.22,-209.07 105.18,-208.29"/>
</g>
<!-- Node6 -->
<g id="node6" class="node">
<title>Node6</title>
<g id="a_node6"><a xlink:href="preprocessor_8h.html" target="_top" xlink:title=" ">
<polygon fill="none" stroke="black" points="954.5,-56.5 954.5,-75.5 1095.5,-75.5 1095.5,-56.5 954.5,-56.5"/>
<text text-anchor="middle" x="1025" y="-63.5" font-family="Helvetica,sans-Serif" font-size="10.00">../../../misc/preprocessor.h</text>
</a>
</g>
</g>
<!-- Node1&#45;&gt;Node6 -->
<g id="edge7" class="edge">
<title>Node1&#45;&gt;Node6</title>
<path fill="none" stroke="midnightblue" d="M493.56,-353.57C626.41,-344.02 1086,-306.6 1086,-246 1086,-246 1086,-246 1086,-188 1086,-146.88 1057.56,-105.5 1039.52,-83.39"/>
<polygon fill="midnightblue" stroke="midnightblue" points="1042.1,-81.02 1032.97,-75.65 1036.76,-85.54 1042.1,-81.02"/>
</g>
<!-- Node7 -->
<g id="node7" class="node">
<title>Node7</title>
<g id="a_node7"><a xlink:href="triangle_8h.html" target="_top" xlink:title=" ">
<polygon fill="none" stroke="black" points="426.5,-291.5 426.5,-310.5 489.5,-310.5 489.5,-291.5 426.5,-291.5"/>
<text text-anchor="middle" x="458" y="-298.5" font-family="Helvetica,sans-Serif" font-size="10.00">triangle.h</text>
</a>
</g>
</g>
<!-- Node1&#45;&gt;Node7 -->
<g id="edge9" class="edge">
<title>Node1&#45;&gt;Node7</title>
<path fill="none" stroke="midnightblue" d="M458,-347.08C458,-340.01 458,-329.86 458,-320.99"/>
<polygon fill="midnightblue" stroke="midnightblue" points="461.5,-320.75 458,-310.75 454.5,-320.75 461.5,-320.75"/>
</g>
<!-- Node10 -->
<g id="node10" class="node">
<title>Node10</title>
<g id="a_node10"><a xlink:title=" ">
<polygon fill="none" stroke="#bfbfbf" points="941.5,-118 941.5,-137 988.5,-137 988.5,-118 941.5,-118"/>
<text text-anchor="middle" x="965" y="-125" font-family="Helvetica,sans-Serif" font-size="10.00">cmath</text>
</a>
</g>
</g>
<!-- Node1&#45;&gt;Node10 -->
<g id="edge43" class="edge">
<title>Node1&#45;&gt;Node10</title>
<path fill="none" stroke="midnightblue" d="M476.97,-347.49C529.55,-323.91 681.62,-255.72 808,-199 852.77,-178.91 904.71,-155.58 936.2,-141.44"/>
<polygon fill="midnightblue" stroke="midnightblue" points="937.98,-144.48 945.67,-137.19 935.11,-138.09 937.98,-144.48"/>
</g>
<!-- Node5&#45;&gt;Node2 -->
<g id="edge5" class="edge">
<title>Node5&#45;&gt;Node2</title>
<path fill="none" stroke="midnightblue" d="M99.54,-179.27C98.6,-158 97.14,-101.89 105,-56 106.54,-47.03 109.38,-37.36 112.11,-29.29"/>
<polygon fill="midnightblue" stroke="midnightblue" points="115.43,-30.39 115.5,-19.79 108.84,-28.03 115.43,-30.39"/>
</g>
<!-- Node5&#45;&gt;Node3 -->
<g id="edge6" class="edge">
<title>Node5&#45;&gt;Node3</title>
<path fill="none" stroke="midnightblue" d="M106.4,-179.29C123.42,-156.59 172.05,-94.69 224,-56 241.85,-42.71 264.22,-31.5 282.2,-23.59"/>
<polygon fill="midnightblue" stroke="midnightblue" points="283.85,-26.69 291.68,-19.55 281.1,-20.26 283.85,-26.69"/>
</g>
<!-- Node6&#45;&gt;Node4 -->
<g id="edge8" class="edge">
<title>Node6&#45;&gt;Node4</title>
<path fill="none" stroke="midnightblue" d="M1009.09,-56.32C993.36,-47.74 969.06,-34.49 950.79,-24.52"/>
<polygon fill="midnightblue" stroke="midnightblue" points="952.32,-21.37 941.87,-19.65 948.97,-27.52 952.32,-21.37"/>
</g>
<!-- Node7&#45;&gt;Node2 -->
<g id="edge10" class="edge">
<title>Node7&#45;&gt;Node2</title>
<path fill="none" stroke="midnightblue" d="M426.43,-298.53C328.76,-293.12 38,-270.28 38,-190 38,-190 38,-190 38,-126.5 38,-84 75.22,-46.04 99.2,-26"/>
<polygon fill="midnightblue" stroke="midnightblue" points="101.46,-28.68 107.05,-19.68 97.06,-23.23 101.46,-28.68"/>
</g>
<!-- Node7&#45;&gt;Node3 -->
<g id="edge11" class="edge">
<title>Node7&#45;&gt;Node3</title>
<path fill="none" stroke="midnightblue" d="M426.48,-298.42C365.65,-293.51 238,-273.27 238,-190 238,-190 238,-190 238,-126.5 238,-84.81 272.98,-46.53 295.48,-26.22"/>
<polygon fill="midnightblue" stroke="midnightblue" points="297.86,-28.78 303.11,-19.58 293.27,-23.5 297.86,-28.78"/>
</g>
<!-- Node7&#45;&gt;Node4 -->
<g id="edge12" class="edge">
<title>Node7&#45;&gt;Node4</title>
<path fill="none" stroke="midnightblue" d="M489.59,-299.88C555.8,-298.86 713.38,-292.33 839,-255 975.59,-214.41 1043.42,-204.51 1105,-76 1128.6,-26.75 1047.21,-13.99 986.5,-11.14"/>
<polygon fill="midnightblue" stroke="midnightblue" points="986.32,-7.63 976.19,-10.74 986.05,-14.63 986.32,-7.63"/>
</g>
<!-- Node7&#45;&gt;Node5 -->
<g id="edge13" class="edge">
<title>Node7&#45;&gt;Node5</title>
<path fill="none" stroke="midnightblue" d="M426.2,-296.87C380.45,-291.71 293.9,-279.44 224,-255 186.33,-241.83 145.97,-218.81 121.86,-204"/>
<polygon fill="midnightblue" stroke="midnightblue" points="123.51,-200.9 113.17,-198.57 119.8,-206.84 123.51,-200.9"/>
</g>
<!-- Node7&#45;&gt;Node6 -->
<g id="edge14" class="edge">
<title>Node7&#45;&gt;Node6</title>
<path fill="none" stroke="midnightblue" d="M489.74,-300.39C581.56,-299.77 850.34,-285.24 998,-143 1013.8,-127.78 1020.37,-102.72 1023.1,-85.57"/>
<polygon fill="midnightblue" stroke="midnightblue" points="1026.57,-85.99 1024.39,-75.62 1019.63,-85.09 1026.57,-85.99"/>
</g>
<!-- Node8 -->
<g id="node8" class="node">
<title>Node8</title>
<g id="a_node8"><a xlink:href="angle_8h.html" target="_top" xlink:title=" ">
<polygon fill="none" stroke="black" points="404.5,-235.5 404.5,-254.5 457.5,-254.5 457.5,-235.5 404.5,-235.5"/>
<text text-anchor="middle" x="431" y="-242.5" font-family="Helvetica,sans-Serif" font-size="10.00">angle.h</text>
</a>
</g>
</g>
<!-- Node7&#45;&gt;Node8 -->
<g id="edge15" class="edge">
<title>Node7&#45;&gt;Node8</title>
<path fill="none" stroke="midnightblue" d="M453.54,-291.08C449.85,-283.69 444.48,-272.95 439.91,-263.81"/>
<polygon fill="midnightblue" stroke="midnightblue" points="442.98,-262.13 435.38,-254.75 436.72,-265.26 442.98,-262.13"/>
</g>
<!-- Node9 -->
<g id="node9" class="node">
<title>Node9</title>
<g id="a_node9"><a xlink:href="math_helpers_8h.html" target="_top" xlink:title=" ">
<polygon fill="none" stroke="black" points="432.5,-179.5 432.5,-198.5 539.5,-198.5 539.5,-179.5 432.5,-179.5"/>
<text text-anchor="middle" x="486" y="-186.5" font-family="Helvetica,sans-Serif" font-size="10.00">../../mathHelpers.h</text>
</a>
</g>
</g>
<!-- Node7&#45;&gt;Node9 -->
<g id="edge41" class="edge">
<title>Node7&#45;&gt;Node9</title>
<path fill="none" stroke="midnightblue" d="M460.2,-291.37C464.72,-273.62 475.14,-232.67 481.27,-208.6"/>
<polygon fill="midnightblue" stroke="midnightblue" points="484.74,-209.15 483.81,-198.59 477.95,-207.42 484.74,-209.15"/>
</g>
<!-- Node7&#45;&gt;Node10 -->
<g id="edge42" class="edge">
<title>Node7&#45;&gt;Node10</title>
<path fill="none" stroke="midnightblue" d="M485.12,-291.42C557.35,-268.46 760.24,-203.26 927,-143 929.1,-142.24 931.27,-141.45 933.45,-140.64"/>
<polygon fill="midnightblue" stroke="midnightblue" points="934.82,-143.86 942.95,-137.07 932.35,-137.31 934.82,-143.86"/>
</g>
<!-- Node8&#45;&gt;Node2 -->
<g id="edge17" class="edge">
<title>Node8&#45;&gt;Node2</title>
<path fill="none" stroke="midnightblue" d="M419.53,-235.43C372.99,-200.68 198.01,-70 138.76,-25.75"/>
<polygon fill="midnightblue" stroke="midnightblue" points="140.69,-22.83 130.58,-19.65 136.5,-28.43 140.69,-22.83"/>
</g>
<!-- Node8&#45;&gt;Node3 -->
<g id="edge16" class="edge">
<title>Node8&#45;&gt;Node3</title>
<path fill="none" stroke="midnightblue" d="M426.33,-235.33C413.07,-210.62 374.18,-137.66 344,-76 336.33,-60.32 328.04,-42.28 322.13,-29.19"/>
<polygon fill="midnightblue" stroke="midnightblue" points="325.24,-27.58 317.95,-19.89 318.86,-30.45 325.24,-27.58"/>
</g>
<!-- Node8&#45;&gt;Node4 -->
<g id="edge18" class="edge">
<title>Node8&#45;&gt;Node4</title>
<path fill="none" stroke="midnightblue" d="M453.65,-235.46C477.43,-226.46 515.89,-211.86 549,-199 647.01,-160.93 671.08,-150.31 769,-112 810.28,-95.85 824.96,-100.34 862,-76 882.17,-62.75 901,-42.25 912.94,-27.82"/>
<polygon fill="midnightblue" stroke="midnightblue" points="915.9,-29.72 919.44,-19.74 910.45,-25.34 915.9,-29.72"/>
</g>
<!-- Node8&#45;&gt;Node9 -->
<g id="edge19" class="edge">
<title>Node8&#45;&gt;Node9</title>
<path fill="none" stroke="midnightblue" d="M440.08,-235.08C448.17,-227.14 460.2,-215.34 469.91,-205.8"/>
<polygon fill="midnightblue" stroke="midnightblue" points="472.4,-208.25 477.09,-198.75 467.5,-203.26 472.4,-208.25"/>
</g>
<!-- Node9&#45;&gt;Node2 -->
<g id="edge20" class="edge">
<title>Node9&#45;&gt;Node2</title>
<path fill="none" stroke="midnightblue" d="M468.3,-179.46C409.09,-150.91 217.64,-58.58 146.21,-24.12"/>
<polygon fill="midnightblue" stroke="midnightblue" points="147.48,-20.85 136.95,-19.66 144.44,-27.16 147.48,-20.85"/>
</g>
<!-- Node9&#45;&gt;Node3 -->
<g id="edge23" class="edge">
<title>Node9&#45;&gt;Node3</title>
<path fill="none" stroke="midnightblue" d="M472.94,-179.47C460.32,-170.94 440.98,-157.1 426,-143 385.88,-105.22 345.77,-53.83 326.24,-27.72"/>
<polygon fill="midnightblue" stroke="midnightblue" points="328.99,-25.55 320.22,-19.6 323.36,-29.72 328.99,-25.55"/>
</g>
<!-- Node9&#45;&gt;Node6 -->
<g id="edge40" class="edge">
<title>Node9&#45;&gt;Node6</title>
<path fill="none" stroke="midnightblue" d="M539.76,-185.77C635.44,-181.18 831.16,-168.89 894,-143 914.47,-134.57 914.28,-123.82 933,-112 952.75,-99.53 976.46,-88 994.87,-79.74"/>
<polygon fill="midnightblue" stroke="midnightblue" points="996.48,-82.85 1004.22,-75.61 993.66,-76.45 996.48,-82.85"/>
</g>
<!-- Node9&#45;&gt;Node10 -->
<g id="edge21" class="edge">
<title>Node9&#45;&gt;Node10</title>
<path fill="none" stroke="midnightblue" d="M539.7,-187.05C623.5,-184.55 789.97,-175.53 927,-143 929.99,-142.29 933.07,-141.4 936.12,-140.41"/>
<polygon fill="midnightblue" stroke="midnightblue" points="937.35,-143.69 945.59,-137.03 934.99,-137.1 937.35,-143.69"/>
</g>
<!-- Node11 -->
<g id="node11" class="node">
<title>Node11</title>
<g id="a_node11"><a xlink:title=" ">
<polygon fill="none" stroke="#bfbfbf" points="380.5,-56.5 380.5,-75.5 449.5,-75.5 449.5,-56.5 380.5,-56.5"/>
<text text-anchor="middle" x="415" y="-63.5" font-family="Helvetica,sans-Serif" font-size="10.00">type_traits</text>
</a>
</g>
</g>
<!-- Node9&#45;&gt;Node11 -->
<g id="edge22" class="edge">
<title>Node9&#45;&gt;Node11</title>
<path fill="none" stroke="midnightblue" d="M476.46,-179.5C467.38,-170.99 453.83,-157.17 445,-143 433.66,-124.81 425.25,-101.61 420.27,-85.65"/>
<polygon fill="midnightblue" stroke="midnightblue" points="423.58,-84.5 417.37,-75.92 416.87,-86.5 423.58,-84.5"/>
</g>
<!-- Node12 -->
<g id="node12" class="node">
<title>Node12</title>
<g id="a_node12"><a xlink:title=" ">
<polygon fill="none" stroke="#bfbfbf" points="454,-118 454,-137 518,-137 518,-118 454,-118"/>
<text text-anchor="middle" x="486" y="-125" font-family="Helvetica,sans-Serif" font-size="10.00">algorithm</text>
</a>
</g>
</g>
<!-- Node9&#45;&gt;Node12 -->
<g id="edge24" class="edge">
<title>Node9&#45;&gt;Node12</title>
<path fill="none" stroke="midnightblue" d="M486,-179.48C486,-171.08 486,-157.98 486,-147.16"/>
<polygon fill="midnightblue" stroke="midnightblue" points="489.5,-147.01 486,-137.01 482.5,-147.01 489.5,-147.01"/>
</g>
<!-- Node13 -->
<g id="node13" class="node">
<title>Node13</title>
<g id="a_node13"><a xlink:href="limes__assert_8h.html" target="_top" xlink:title=" ">
<polygon fill="none" stroke="black" points="540,-118 540,-137 676,-137 676,-118 540,-118"/>
<text text-anchor="middle" x="608" y="-125" font-family="Helvetica,sans-Serif" font-size="10.00">../system/limes_assert.h</text>
</a>
</g>
</g>
<!-- Node9&#45;&gt;Node13 -->
<g id="edge25" class="edge">
<title>Node9&#45;&gt;Node13</title>
<path fill="none" stroke="midnightblue" d="M503.48,-179.48C523.86,-169.53 557.78,-152.99 581.42,-141.46"/>
<polygon fill="midnightblue" stroke="midnightblue" points="583.1,-144.54 590.55,-137.01 580.03,-138.25 583.1,-144.54"/>
</g>
<!-- Node17 -->
<g id="node17" class="node">
<title>Node17</title>
<g id="a_node17"><a xlink:href="compiler__defs_8h.html" target="_top" xlink:title=" ">
<polygon fill="none" stroke="black" points="777.5,-112.5 777.5,-142.5 884.5,-142.5 884.5,-112.5 777.5,-112.5"/>
<text text-anchor="start" x="785.5" y="-130.5" font-family="Helvetica,sans-Serif" font-size="10.00">../system/compiler</text>
<text text-anchor="middle" x="831" y="-119.5" font-family="Helvetica,sans-Serif" font-size="10.00">_defs.h</text>
</a>
</g>
</g>
<!-- Node9&#45;&gt;Node17 -->
<g id="edge37" class="edge">
<title>Node9&#45;&gt;Node17</title>
<path fill="none" stroke="midnightblue" d="M535.43,-179.48C596.48,-168.95 700.45,-151.01 767.4,-139.47"/>
<polygon fill="midnightblue" stroke="midnightblue" points="768.15,-142.89 777.41,-137.74 766.96,-135.99 768.15,-142.89"/>
</g>
<!-- Node13&#45;&gt;Node2 -->
<g id="edge27" class="edge">
<title>Node13&#45;&gt;Node2</title>
<path fill="none" stroke="midnightblue" d="M585.78,-117.87C562.13,-108.43 523.79,-92.46 492,-76 476.77,-68.11 475.18,-61.69 459,-56 410.09,-38.79 270.35,-24.17 186.02,-16.58"/>
<polygon fill="midnightblue" stroke="midnightblue" points="186.29,-13.09 176.02,-15.69 185.67,-20.06 186.29,-13.09"/>
</g>
<!-- Node13&#45;&gt;Node3 -->
<g id="edge26" class="edge">
<title>Node13&#45;&gt;Node3</title>
<path fill="none" stroke="midnightblue" d="M596.44,-117.84C576.27,-103.12 532.86,-73.13 492,-56 452.27,-39.35 404.87,-27.74 368.98,-20.48"/>
<polygon fill="midnightblue" stroke="midnightblue" points="369.2,-16.96 358.71,-18.46 367.84,-23.83 369.2,-16.96"/>
</g>
<!-- Node13&#45;&gt;Node4 -->
<g id="edge35" class="edge">
<title>Node13&#45;&gt;Node4</title>
<path fill="none" stroke="midnightblue" d="M675.94,-117.92C721.23,-110.59 781.34,-97.67 831,-76 860.28,-63.23 890.03,-41.06 908.25,-26.22"/>
<polygon fill="midnightblue" stroke="midnightblue" points="910.77,-28.67 916.22,-19.59 906.29,-23.29 910.77,-28.67"/>
</g>
<!-- Node13&#45;&gt;Node6 -->
<g id="edge28" class="edge">
<title>Node13&#45;&gt;Node6</title>
<path fill="none" stroke="midnightblue" d="M667.75,-117.98C743.77,-107.13 874.84,-88.43 955.32,-76.94"/>
<polygon fill="midnightblue" stroke="midnightblue" points="955.96,-80.39 965.36,-75.51 954.97,-73.46 955.96,-80.39"/>
</g>
<!-- Node13&#45;&gt;Node11 -->
<g id="edge29" class="edge">
<title>Node13&#45;&gt;Node11</title>
<path fill="none" stroke="midnightblue" d="M580.35,-117.98C546.81,-107.64 490.13,-90.16 452.63,-78.6"/>
<polygon fill="midnightblue" stroke="midnightblue" points="453.19,-75.11 442.6,-75.51 451.13,-81.8 453.19,-75.11"/>
</g>
<!-- Node14 -->
<g id="node14" class="node">
<title>Node14</title>
<g id="a_node14"><a xlink:title=" ">
<polygon fill="none" stroke="#bfbfbf" points="776.5,-56.5 776.5,-75.5 821.5,-75.5 821.5,-56.5 776.5,-56.5"/>
<text text-anchor="middle" x="799" y="-63.5" font-family="Helvetica,sans-Serif" font-size="10.00">utility</text>
</a>
</g>
</g>
<!-- Node13&#45;&gt;Node14 -->
<g id="edge30" class="edge">
<title>Node13&#45;&gt;Node14</title>
<path fill="none" stroke="midnightblue" d="M635.37,-117.98C670.06,-107.17 729.8,-88.56 766.7,-77.06"/>
<polygon fill="midnightblue" stroke="midnightblue" points="767.95,-80.34 776.46,-74.02 765.87,-73.66 767.95,-80.34"/>
</g>
<!-- Node15 -->
<g id="node15" class="node">
<title>Node15</title>
<g id="a_node15"><a xlink:href="_ignore_unused_8h.html" target="_top" xlink:title=" ">
<polygon fill="none" stroke="black" points="544,-56.5 544,-75.5 672,-75.5 672,-56.5 544,-56.5"/>
<text text-anchor="middle" x="608" y="-63.5" font-family="Helvetica,sans-Serif" font-size="10.00">../misc/IgnoreUnused.h</text>
</a>
</g>
</g>
<!-- Node13&#45;&gt;Node15 -->
<g id="edge31" class="edge">
<title>Node13&#45;&gt;Node15</title>
<path fill="none" stroke="midnightblue" d="M608,-117.98C608,-109.58 608,-96.48 608,-85.66"/>
<polygon fill="midnightblue" stroke="midnightblue" points="611.5,-85.51 608,-75.51 604.5,-85.51 611.5,-85.51"/>
</g>
<!-- Node16 -->
<g id="node16" class="node">
<title>Node16</title>
<g id="a_node16"><a xlink:title=" ">
<polygon fill="none" stroke="#bfbfbf" points="690,-56.5 690,-75.5 758,-75.5 758,-56.5 690,-56.5"/>
<text text-anchor="middle" x="724" y="-63.5" font-family="Helvetica,sans-Serif" font-size="10.00">filesystem</text>
</a>
</g>
</g>
<!-- Node13&#45;&gt;Node16 -->
<g id="edge36" class="edge">
<title>Node13&#45;&gt;Node16</title>
<path fill="none" stroke="midnightblue" d="M624.62,-117.98C643.92,-108.08 675.96,-91.64 698.43,-80.12"/>
<polygon fill="midnightblue" stroke="midnightblue" points="700.11,-83.19 707.41,-75.51 696.92,-76.96 700.11,-83.19"/>
</g>
<!-- Node15&#45;&gt;Node2 -->
<g id="edge33" class="edge">
<title>Node15&#45;&gt;Node2</title>
<path fill="none" stroke="midnightblue" d="M543.82,-57.91C451.07,-47.67 280.36,-28.82 186.04,-18.4"/>
<polygon fill="midnightblue" stroke="midnightblue" points="186.36,-14.92 176.04,-17.3 185.59,-21.88 186.36,-14.92"/>
</g>
<!-- Node15&#45;&gt;Node3 -->
<g id="edge32" class="edge">
<title>Node15&#45;&gt;Node3</title>
<path fill="none" stroke="midnightblue" d="M561.41,-56.44C509.13,-46.84 424.39,-31.28 368.92,-21.09"/>
<polygon fill="midnightblue" stroke="midnightblue" points="369.39,-17.61 358.92,-19.25 368.12,-24.5 369.39,-17.61"/>
</g>
<!-- Node15&#45;&gt;Node4 -->
<g id="edge34" class="edge">
<title>Node15&#45;&gt;Node4</title>
<path fill="none" stroke="midnightblue" d="M658.39,-56.44C714.68,-46.89 805.75,-31.42 865.76,-21.23"/>
<polygon fill="midnightblue" stroke="midnightblue" points="866.57,-24.64 875.85,-19.52 865.4,-17.74 866.57,-24.64"/>
</g>
<!-- Node17&#45;&gt;Node4 -->
<g id="edge38" class="edge">
<title>Node17&#45;&gt;Node4</title>
<path fill="none" stroke="midnightblue" d="M858.37,-112.37C873.04,-103.61 890.42,-91.14 902,-76 912.5,-62.28 918.77,-43.5 922.25,-29.65"/>
<polygon fill="midnightblue" stroke="midnightblue" points="925.69,-30.32 924.48,-19.8 918.86,-28.78 925.69,-30.32"/>
</g>
<!-- Node17&#45;&gt;Node6 -->
<g id="edge39" class="edge">
<title>Node17&#45;&gt;Node6</title>
<path fill="none" stroke="midnightblue" d="M876.98,-112.4C910.64,-102.07 955.78,-88.23 987.32,-78.56"/>
<polygon fill="midnightblue" stroke="midnightblue" points="988.52,-81.85 997.05,-75.57 986.47,-75.16 988.52,-81.85"/>
</g>
</g>
</svg>
        <g id="navigator" transform="translate(0 0)" fill="#404254">
                <rect fill="#f2f5e9" fill-opacity="0.5" stroke="#606060" stroke-width=".5" x="0" y="0" width="60" height="60"/>
                <use id="zoomplus" xlink:href="#zoomPlus" x="17" y="9" onmousedown="handleZoom(evt,'in')"/>
                <use id="zoomminus" xlink:href="#zoomMin" x="42" y="9" onmousedown="handleZoom(evt,'out')"/>
                <use id="reset" xlink:href="#resetDef" x="30" y="36" onmousedown="handleReset()"/>
                <g id="arrowUp" xlink:href="#dirArrow" transform="translate(30 24)" onmousedown="handlePan(0,-1)">
                  <use xlink:href="#rim" fill="#404040">
                        <set attributeName="fill" to="#808080" begin="arrowUp.mouseover" end="arrowUp.mouseout"/>
                  </use>
                  <path fill="none" stroke="white" stroke-width="1.5" d="M0,-3.0v7 M-2.5,-0.5L0,-3.0L2.5,-0.5"/>
                </g>
                <g id="arrowRight" xlink:href="#dirArrow" transform="rotate(90) translate(36 -43)" onmousedown="handlePan(1,0)">
                  <use xlink:href="#rim" fill="#404040">
                        <set attributeName="fill" to="#808080" begin="arrowRight.mouseover" end="arrowRight.mouseout"/>
                  </use>
                  <path fill="none" stroke="white" stroke-width="1.5" d="M0,-3.0v7 M-2.5,-0.5L0,-3.0L2.5,-0.5"/>
                </g>
                <g id="arrowDown" xlink:href="#dirArrow" transform="rotate(180) translate(-30 -48)" onmousedown="handlePan(0,1)">
                  <use xlink:href="#rim" fill="#404040">
                        <set attributeName="fill" to="#808080" begin="arrowDown.mouseover" end="arrowDown.mouseout"/>
                  </use>
                  <path fill="none" stroke="white" stroke-width="1.5" d="M0,-3.0v7 M-2.5,-0.5L0,-3.0L2.5,-0.5"/>
                </g>
                <g id="arrowLeft" xlink:href="#dirArrow" transform="rotate(270) translate(-36 17)" onmousedown="handlePan(-1,0)">
                  <use xlink:href="#rim" fill="#404040">
                        <set attributeName="fill" to="#808080" begin="arrowLeft.mouseover" end="arrowLeft.mouseout"/>
                  </use>
                  <path fill="none" stroke="white" stroke-width="1.5" d="M0,-3.0v7 M-2.5,-0.5L0,-3.0L2.5,-0.5"/>
                </g>
        </g>
        <svg viewBox="0 0 15 15" width="100%" height="30px" preserveAspectRatio="xMaxYMin meet">
         <g id="arrow_out" transform="scale(0.3 0.3)">
          <a xlink:href="rectangle_8h__incl_org.svg" target="_base">
           <rect id="button" ry="5" rx="5" y="6" x="6" height="38" width="38"
                fill="#f2f5e9" fill-opacity="0.5" stroke="#606060" stroke-width="1.0"/>
           <path id="arrow"
             d="M 11.500037,31.436501 C 11.940474,20.09759 22.043105,11.32322 32.158766,21.979434 L 37.068811,17.246167 C 37.068811,17.246167 37.088388,32 37.088388,32 L 22.160133,31.978069 C 22.160133,31.978069 26.997745,27.140456 26.997745,27.140456 C 18.528582,18.264221 13.291696,25.230495 11.500037,31.436501 z"
             style="fill:#404040;"/>
          </a>
         </g>
        </svg>
</svg>
