<?xml version="1.0" encoding="UTF-8" standalone="no"?>
<!DOCTYPE svg PUBLIC "-//W3C//DTD SVG 1.1//EN"
 "http://www.w3.org/Graphics/SVG/1.1/DTD/svg11.dtd">
<!-- Generated by graphviz version 2.43.0 (0)
 -->
<!-- Title: rectangular_prism.h Pages: 1 -->
<svg width="1532pt" height="487pt"
 viewBox="0.00 0.00 1532.00 487.00" xmlns="http://www.w3.org/2000/svg" xmlns:xlink="http://www.w3.org/1999/xlink">
<g id="graph0" class="graph" transform="scale(1 1) rotate(0) translate(4 483)">
<title>rectangular_prism.h</title>
<!-- Node1 -->
<g id="node1" class="node">
<title>Node1</title>
<g id="a_node1"><a xlink:title=" ">
<polygon fill="#bfbfbf" stroke="black" points="1275,-459.5 1275,-478.5 1389,-478.5 1389,-459.5 1275,-459.5"/>
<text text-anchor="middle" x="1332" y="-466.5" font-family="Helvetica,sans-Serif" font-size="10.00">rectangular_prism.h</text>
</a>
</g>
</g>
<!-- Node2 -->
<g id="node2" class="node">
<title>Node2</title>
<g id="a_node2"><a xlink:href="limes__namespace_8h.html" target="_top" xlink:title=" ">
<polygon fill="none" stroke="black" points="629,-0.5 629,-19.5 743,-19.5 743,-0.5 629,-0.5"/>
<text text-anchor="middle" x="686" y="-7.5" font-family="Helvetica,sans-Serif" font-size="10.00">limes_namespace.h</text>
</a>
</g>
</g>
<!-- Node1&#45;&gt;Node2 -->
<g id="edge1" class="edge">
<title>Node1&#45;&gt;Node2</title>
<path fill="none" stroke="midnightblue" d="M1324.19,-459.32C1290.57,-421.94 1155.13,-270.75 1048,-143 1016.11,-104.97 1020.99,-80.79 978,-56 940.81,-34.56 827.43,-21.92 753.38,-15.74"/>
<polygon fill="midnightblue" stroke="midnightblue" points="753.46,-12.23 743.21,-14.91 752.89,-19.21 753.46,-12.23"/>
</g>
<!-- Node3 -->
<g id="node3" class="node">
<title>Node3</title>
<g id="a_node3"><a xlink:title=" ">
<polygon fill="none" stroke="#bfbfbf" points="174.5,-0.5 174.5,-19.5 263.5,-19.5 263.5,-0.5 174.5,-0.5"/>
<text text-anchor="middle" x="219" y="-7.5" font-family="Helvetica,sans-Serif" font-size="10.00">limes_export.h</text>
</a>
</g>
</g>
<!-- Node1&#45;&gt;Node3 -->
<g id="edge2" class="edge">
<title>Node1&#45;&gt;Node3</title>
<path fill="none" stroke="midnightblue" d="M1274.86,-467.54C1077.73,-465.65 426.95,-456.93 221,-423 119.98,-406.36 0,-460.38 0,-358 0,-358 0,-358 0,-126.5 0,-52.34 99.46,-25.68 164.33,-16.18"/>
<polygon fill="midnightblue" stroke="midnightblue" points="164.99,-19.62 174.42,-14.8 164.04,-12.69 164.99,-19.62"/>
</g>
<!-- Node4 -->
<g id="node4" class="node">
<title>Node4</title>
<g id="a_node4"><a xlink:title=" ">
<polygon fill="none" stroke="#bfbfbf" points="1142,-0.5 1142,-19.5 1242,-19.5 1242,-0.5 1142,-0.5"/>
<text text-anchor="middle" x="1192" y="-7.5" font-family="Helvetica,sans-Serif" font-size="10.00">limes_platform.h</text>
</a>
</g>
</g>
<!-- Node1&#45;&gt;Node4 -->
<g id="edge3" class="edge">
<title>Node1&#45;&gt;Node4</title>
<path fill="none" stroke="midnightblue" d="M1389.09,-459.9C1445.68,-448.26 1524,-420.81 1524,-358 1524,-358 1524,-358 1524,-126.5 1524,-73.92 1477.16,-77.1 1429,-56 1372.06,-31.05 1301.47,-19.9 1252.2,-14.94"/>
<polygon fill="midnightblue" stroke="midnightblue" points="1252.31,-11.44 1242.02,-13.97 1251.65,-18.4 1252.31,-11.44"/>
</g>
<!-- Node5 -->
<g id="node5" class="node">
<title>Node5</title>
<g id="a_node5"><a xlink:href="preprocessor_8h.html" target="_top" xlink:title=" ">
<polygon fill="none" stroke="black" points="1220.5,-56.5 1220.5,-75.5 1361.5,-75.5 1361.5,-56.5 1220.5,-56.5"/>
<text text-anchor="middle" x="1291" y="-63.5" font-family="Helvetica,sans-Serif" font-size="10.00">../../../misc/preprocessor.h</text>
</a>
</g>
</g>
<!-- Node1&#45;&gt;Node5 -->
<g id="edge4" class="edge">
<title>Node1&#45;&gt;Node5</title>
<path fill="none" stroke="midnightblue" d="M1353.28,-459.4C1386.76,-444.3 1448,-409.62 1448,-358 1448,-358 1448,-358 1448,-244 1448,-165.77 1361.1,-105.97 1316.61,-80.48"/>
<polygon fill="midnightblue" stroke="midnightblue" points="1318.24,-77.39 1307.8,-75.57 1314.83,-83.5 1318.24,-77.39"/>
</g>
<!-- Node6 -->
<g id="node6" class="node">
<title>Node6</title>
<g id="a_node6"><a xlink:href="square_8h.html" target="_top" xlink:title=" ">
<polygon fill="none" stroke="black" points="948,-403.5 948,-422.5 1032,-422.5 1032,-403.5 948,-403.5"/>
<text text-anchor="middle" x="990" y="-410.5" font-family="Helvetica,sans-Serif" font-size="10.00">../2D/square.h</text>
</a>
</g>
</g>
<!-- Node1&#45;&gt;Node6 -->
<g id="edge6" class="edge">
<title>Node1&#45;&gt;Node6</title>
<path fill="none" stroke="midnightblue" d="M1277.81,-459.44C1213.22,-449.25 1106.05,-432.32 1042.31,-422.26"/>
<polygon fill="midnightblue" stroke="midnightblue" points="1042.5,-418.75 1032.08,-420.64 1041.41,-425.66 1042.5,-418.75"/>
</g>
<!-- Node12 -->
<g id="node12" class="node">
<title>Node12</title>
<g id="a_node12"><a xlink:title=" ">
<polygon fill="none" stroke="#bfbfbf" points="1258.5,-118 1258.5,-137 1305.5,-137 1305.5,-118 1258.5,-118"/>
<text text-anchor="middle" x="1282" y="-125" font-family="Helvetica,sans-Serif" font-size="10.00">cmath</text>
</a>
</g>
</g>
<!-- Node1&#45;&gt;Node12 -->
<g id="edge59" class="edge">
<title>Node1&#45;&gt;Node12</title>
<path fill="none" stroke="midnightblue" d="M1337.28,-459.23C1347.73,-441.04 1370,-397.6 1370,-358 1370,-358 1370,-358 1370,-300 1370,-236.95 1322.34,-173.82 1297.17,-144.87"/>
<polygon fill="midnightblue" stroke="midnightblue" points="1299.71,-142.46 1290.44,-137.33 1294.49,-147.12 1299.71,-142.46"/>
</g>
<!-- Node20 -->
<g id="node20" class="node">
<title>Node20</title>
<g id="a_node20"><a xlink:href="3_dshape_8h.html" target="_top" xlink:title=" ">
<polygon fill="none" stroke="black" points="104,-56.5 104,-75.5 172,-75.5 172,-56.5 104,-56.5"/>
<text text-anchor="middle" x="138" y="-63.5" font-family="Helvetica,sans-Serif" font-size="10.00">3Dshape.h</text>
</a>
</g>
</g>
<!-- Node1&#45;&gt;Node20 -->
<g id="edge56" class="edge">
<title>Node1&#45;&gt;Node20</title>
<path fill="none" stroke="midnightblue" d="M1274.73,-466.18C1024.3,-457.84 38,-420.99 38,-358 38,-358 38,-358 38,-244 38,-176.9 93.16,-111.84 121.54,-82.8"/>
<polygon fill="midnightblue" stroke="midnightblue" points="124.16,-85.13 128.77,-75.59 119.22,-80.17 124.16,-85.13"/>
</g>
<!-- Node5&#45;&gt;Node4 -->
<g id="edge5" class="edge">
<title>Node5&#45;&gt;Node4</title>
<path fill="none" stroke="midnightblue" d="M1275.09,-56.32C1259.36,-47.74 1235.06,-34.49 1216.79,-24.52"/>
<polygon fill="midnightblue" stroke="midnightblue" points="1218.32,-21.37 1207.87,-19.65 1214.97,-27.52 1218.32,-21.37"/>
</g>
<!-- Node6&#45;&gt;Node2 -->
<g id="edge7" class="edge">
<title>Node6&#45;&gt;Node2</title>
<path fill="none" stroke="midnightblue" d="M947.97,-409.63C800.28,-400.73 314,-366.54 314,-302 314,-302 314,-302 314,-126.5 314,-63.45 511.4,-30.97 618.61,-17.98"/>
<polygon fill="midnightblue" stroke="midnightblue" points="619.17,-21.43 628.69,-16.78 618.35,-14.48 619.17,-21.43"/>
</g>
<!-- Node6&#45;&gt;Node3 -->
<g id="edge8" class="edge">
<title>Node6&#45;&gt;Node3</title>
<path fill="none" stroke="midnightblue" d="M947.75,-411.42C767.99,-408.4 76,-391 76,-302 76,-302 76,-302 76,-244 76,-160.41 31.01,-122.99 81,-56 100.21,-30.26 134.51,-18.99 164.1,-14.17"/>
<polygon fill="midnightblue" stroke="midnightblue" points="164.93,-17.59 174.34,-12.72 163.95,-10.66 164.93,-17.59"/>
</g>
<!-- Node6&#45;&gt;Node4 -->
<g id="edge9" class="edge">
<title>Node6&#45;&gt;Node4</title>
<path fill="none" stroke="midnightblue" d="M1032.08,-409.72C1087.5,-405.7 1187.39,-394.94 1268,-367 1372.7,-330.72 1486,-356.81 1486,-246 1486,-246 1486,-246 1486,-126.5 1486,-72.12 1435.63,-78.22 1386,-56 1343.33,-36.89 1291.6,-25.42 1252.3,-18.84"/>
<polygon fill="midnightblue" stroke="midnightblue" points="1252.76,-15.37 1242.33,-17.23 1251.65,-22.28 1252.76,-15.37"/>
</g>
<!-- Node6&#45;&gt;Node5 -->
<g id="edge13" class="edge">
<title>Node6&#45;&gt;Node5</title>
<path fill="none" stroke="midnightblue" d="M1032.21,-409.46C1096.2,-404.82 1213.74,-392.95 1246,-367 1268.11,-349.21 1306.15,-278.57 1330,-143 1332.39,-129.43 1334.82,-124.91 1330,-112 1325.83,-100.81 1317.48,-90.56 1309.58,-82.68"/>
<polygon fill="midnightblue" stroke="midnightblue" points="1311.7,-79.87 1301.99,-75.63 1306.94,-85 1311.7,-79.87"/>
</g>
<!-- Node7 -->
<g id="node7" class="node">
<title>Node7</title>
<g id="a_node7"><a xlink:href="2_dshape_8h.html" target="_top" xlink:title=" ">
<polygon fill="none" stroke="black" points="180,-235.5 180,-254.5 248,-254.5 248,-235.5 180,-235.5"/>
<text text-anchor="middle" x="214" y="-242.5" font-family="Helvetica,sans-Serif" font-size="10.00">2Dshape.h</text>
</a>
</g>
</g>
<!-- Node6&#45;&gt;Node7 -->
<g id="edge10" class="edge">
<title>Node6&#45;&gt;Node7</title>
<path fill="none" stroke="midnightblue" d="M947.9,-411.34C806.82,-408.86 356.48,-398.52 300,-367 258.69,-343.95 232.41,-291.75 220.84,-264.05"/>
<polygon fill="midnightblue" stroke="midnightblue" points="224.08,-262.73 217.13,-254.74 217.58,-265.33 224.08,-262.73"/>
</g>
<!-- Node8 -->
<g id="node8" class="node">
<title>Node8</title>
<g id="a_node8"><a xlink:href="rectangle_8h.html" target="_top" xlink:title=" ">
<polygon fill="none" stroke="black" points="954.5,-347.5 954.5,-366.5 1025.5,-366.5 1025.5,-347.5 954.5,-347.5"/>
<text text-anchor="middle" x="990" y="-354.5" font-family="Helvetica,sans-Serif" font-size="10.00">rectangle.h</text>
</a>
</g>
</g>
<!-- Node6&#45;&gt;Node8 -->
<g id="edge14" class="edge">
<title>Node6&#45;&gt;Node8</title>
<path fill="none" stroke="midnightblue" d="M990,-403.08C990,-396.01 990,-385.86 990,-376.99"/>
<polygon fill="midnightblue" stroke="midnightblue" points="993.5,-376.75 990,-366.75 986.5,-376.75 993.5,-376.75"/>
</g>
<!-- Node9 -->
<g id="node9" class="node">
<title>Node9</title>
<g id="a_node9"><a xlink:href="triangle_8h.html" target="_top" xlink:title=" ">
<polygon fill="none" stroke="black" points="888.5,-291.5 888.5,-310.5 951.5,-310.5 951.5,-291.5 888.5,-291.5"/>
<text text-anchor="middle" x="920" y="-298.5" font-family="Helvetica,sans-Serif" font-size="10.00">triangle.h</text>
</a>
</g>
</g>
<!-- Node6&#45;&gt;Node9 -->
<g id="edge54" class="edge">
<title>Node6&#45;&gt;Node9</title>
<path fill="none" stroke="midnightblue" d="M979.36,-403.3C969.61,-394.87 955.3,-381.28 946,-367 936.47,-352.37 929.45,-333.7 925.13,-320.13"/>
<polygon fill="midnightblue" stroke="midnightblue" points="928.46,-319.08 922.24,-310.51 921.76,-321.09 928.46,-319.08"/>
</g>
<!-- Node6&#45;&gt;Node12 -->
<g id="edge55" class="edge">
<title>Node6&#45;&gt;Node12</title>
<path fill="none" stroke="midnightblue" d="M1032.15,-412.8C1107.15,-411.78 1256,-397.7 1256,-302 1256,-302 1256,-302 1256,-244 1256,-208.85 1267.6,-169.12 1275.31,-146.61"/>
<polygon fill="midnightblue" stroke="midnightblue" points="1278.66,-147.64 1278.71,-137.04 1272.06,-145.3 1278.66,-147.64"/>
</g>
<!-- Node7&#45;&gt;Node2 -->
<g id="edge11" class="edge">
<title>Node7&#45;&gt;Node2</title>
<path fill="none" stroke="midnightblue" d="M214.99,-235.43C219.02,-205.04 237.02,-101.82 300,-56 349.35,-20.1 521.72,-12.47 618.59,-11.08"/>
<polygon fill="midnightblue" stroke="midnightblue" points="618.91,-14.57 628.87,-10.95 618.82,-7.57 618.91,-14.57"/>
</g>
<!-- Node7&#45;&gt;Node3 -->
<g id="edge12" class="edge">
<title>Node7&#45;&gt;Node3</title>
<path fill="none" stroke="midnightblue" d="M200.78,-235.38C160.98,-208.38 47.89,-123.22 95,-56 110.72,-33.57 138.83,-22.27 164.31,-16.61"/>
<polygon fill="midnightblue" stroke="midnightblue" points="165.15,-20.01 174.28,-14.63 163.79,-13.14 165.15,-20.01"/>
</g>
<!-- Node8&#45;&gt;Node2 -->
<g id="edge15" class="edge">
<title>Node8&#45;&gt;Node2</title>
<path fill="none" stroke="midnightblue" d="M989.49,-347.37C986.62,-299.38 972.24,-66.97 962,-56 934.41,-26.45 825.89,-16.3 753.43,-12.82"/>
<polygon fill="midnightblue" stroke="midnightblue" points="753.16,-9.3 743.01,-12.35 752.84,-16.3 753.16,-9.3"/>
</g>
<!-- Node8&#45;&gt;Node3 -->
<g id="edge16" class="edge">
<title>Node8&#45;&gt;Node3</title>
<path fill="none" stroke="midnightblue" d="M954.27,-355.48C861.87,-352.93 609.01,-338.25 420,-255 318.18,-210.15 295.41,-175.18 245,-76 237.26,-60.76 230.17,-42.65 225.36,-29.42"/>
<polygon fill="midnightblue" stroke="midnightblue" points="228.53,-27.88 221.89,-19.63 221.93,-30.22 228.53,-27.88"/>
</g>
<!-- Node8&#45;&gt;Node4 -->
<g id="edge17" class="edge">
<title>Node8&#45;&gt;Node4</title>
<path fill="none" stroke="midnightblue" d="M1025.58,-349.21C1058.91,-342.12 1109.65,-329.45 1151,-311 1281.66,-252.71 1333.56,-214.08 1371,-76 1373.33,-67.42 1376.47,-63.01 1371,-56 1356.36,-37.23 1298.41,-25.08 1252.35,-18.2"/>
<polygon fill="midnightblue" stroke="midnightblue" points="1252.83,-14.73 1242.43,-16.77 1251.83,-21.66 1252.83,-14.73"/>
</g>
<!-- Node8&#45;&gt;Node5 -->
<g id="edge19" class="edge">
<title>Node8&#45;&gt;Node5</title>
<path fill="none" stroke="midnightblue" d="M1020.43,-347.45C1089.03,-326.28 1254.5,-264.16 1315,-143 1324.61,-123.75 1313.69,-99.85 1303.64,-84.05"/>
<polygon fill="midnightblue" stroke="midnightblue" points="1306.52,-82.05 1297.98,-75.77 1300.74,-86 1306.52,-82.05"/>
</g>
<!-- Node8&#45;&gt;Node7 -->
<g id="edge18" class="edge">
<title>Node8&#45;&gt;Node7</title>
<path fill="none" stroke="midnightblue" d="M954.22,-355.46C835.47,-353.38 455.36,-344.22 338,-311 299.18,-300.01 258.58,-275.95 234.82,-260.39"/>
<polygon fill="midnightblue" stroke="midnightblue" points="236.55,-257.33 226.29,-254.69 232.66,-263.15 236.55,-257.33"/>
</g>
<!-- Node8&#45;&gt;Node9 -->
<g id="edge20" class="edge">
<title>Node8&#45;&gt;Node9</title>
<path fill="none" stroke="midnightblue" d="M978.75,-347.32C968.2,-339.18 952.2,-326.84 939.56,-317.09"/>
<polygon fill="midnightblue" stroke="midnightblue" points="941.51,-314.17 931.45,-310.83 937.23,-319.71 941.51,-314.17"/>
</g>
<!-- Node8&#45;&gt;Node12 -->
<g id="edge53" class="edge">
<title>Node8&#45;&gt;Node12</title>
<path fill="none" stroke="midnightblue" d="M1004.09,-347.41C1031.19,-330.69 1092.14,-292.16 1140,-255 1187.77,-217.91 1239.88,-169.13 1265.66,-144.38"/>
<polygon fill="midnightblue" stroke="midnightblue" points="1268.3,-146.7 1273.07,-137.24 1263.44,-141.66 1268.3,-146.7"/>
</g>
<!-- Node9&#45;&gt;Node2 -->
<g id="edge21" class="edge">
<title>Node9&#45;&gt;Node2</title>
<path fill="none" stroke="midnightblue" d="M888.47,-299.72C779.89,-297.91 428,-284.75 428,-190 428,-190 428,-190 428,-126.5 428,-93.93 423.96,-77.98 448,-56 472.51,-33.59 557.38,-21.7 618.8,-15.88"/>
<polygon fill="midnightblue" stroke="midnightblue" points="619.18,-19.36 628.82,-14.97 618.55,-12.39 619.18,-19.36"/>
</g>
<!-- Node9&#45;&gt;Node3 -->
<g id="edge22" class="edge">
<title>Node9&#45;&gt;Node3</title>
<path fill="none" stroke="midnightblue" d="M888.26,-299.72C796.66,-298.48 533.54,-291.73 457,-255 346.42,-201.94 258.89,-74.87 229.57,-28.4"/>
<polygon fill="midnightblue" stroke="midnightblue" points="232.46,-26.41 224.21,-19.76 226.51,-30.1 232.46,-26.41"/>
</g>
<!-- Node9&#45;&gt;Node4 -->
<g id="edge23" class="edge">
<title>Node9&#45;&gt;Node4</title>
<path fill="none" stroke="midnightblue" d="M934.56,-291.43C987.25,-260.35 1165.29,-154.79 1173,-143 1195.84,-108.07 1195.94,-56.89 1193.99,-29.66"/>
<polygon fill="midnightblue" stroke="midnightblue" points="1197.47,-29.22 1193.1,-19.57 1190.5,-29.84 1197.47,-29.22"/>
</g>
<!-- Node9&#45;&gt;Node5 -->
<g id="edge25" class="edge">
<title>Node9&#45;&gt;Node5</title>
<path fill="none" stroke="midnightblue" d="M951.65,-296.56C985.61,-291.68 1040.03,-280.33 1080,-255 1117.79,-231.05 1111.73,-207.75 1146,-179 1169.82,-159.01 1180.96,-161.45 1206,-143 1231.75,-124.03 1258.85,-98.73 1275.34,-82.65"/>
<polygon fill="midnightblue" stroke="midnightblue" points="1277.87,-85.08 1282.54,-75.57 1272.96,-80.09 1277.87,-85.08"/>
</g>
<!-- Node9&#45;&gt;Node7 -->
<g id="edge24" class="edge">
<title>Node9&#45;&gt;Node7</title>
<path fill="none" stroke="midnightblue" d="M888.29,-297.57C774.92,-288.9 389.4,-259.42 258.16,-249.38"/>
<polygon fill="midnightblue" stroke="midnightblue" points="258.31,-245.88 248.07,-248.61 257.78,-252.86 258.31,-245.88"/>
</g>
<!-- Node10 -->
<g id="node10" class="node">
<title>Node10</title>
<g id="a_node10"><a xlink:href="angle_8h.html" target="_top" xlink:title=" ">
<polygon fill="none" stroke="black" points="887.5,-235.5 887.5,-254.5 940.5,-254.5 940.5,-235.5 887.5,-235.5"/>
<text text-anchor="middle" x="914" y="-242.5" font-family="Helvetica,sans-Serif" font-size="10.00">angle.h</text>
</a>
</g>
</g>
<!-- Node9&#45;&gt;Node10 -->
<g id="edge26" class="edge">
<title>Node9&#45;&gt;Node10</title>
<path fill="none" stroke="midnightblue" d="M919.01,-291.08C918.21,-283.93 917.07,-273.64 916.08,-264.69"/>
<polygon fill="midnightblue" stroke="midnightblue" points="919.56,-264.3 914.97,-254.75 912.6,-265.08 919.56,-264.3"/>
</g>
<!-- Node11 -->
<g id="node11" class="node">
<title>Node11</title>
<g id="a_node11"><a xlink:href="math_helpers_8h.html" target="_top" xlink:title=" ">
<polygon fill="none" stroke="black" points="695.5,-179.5 695.5,-198.5 802.5,-198.5 802.5,-179.5 695.5,-179.5"/>
<text text-anchor="middle" x="749" y="-186.5" font-family="Helvetica,sans-Serif" font-size="10.00">../../mathHelpers.h</text>
</a>
</g>
</g>
<!-- Node9&#45;&gt;Node11 -->
<g id="edge51" class="edge">
<title>Node9&#45;&gt;Node11</title>
<path fill="none" stroke="midnightblue" d="M906.58,-291.37C877.24,-272.49 807.12,-227.38 771.13,-204.24"/>
<polygon fill="midnightblue" stroke="midnightblue" points="772.66,-201.06 762.36,-198.59 768.87,-206.95 772.66,-201.06"/>
</g>
<!-- Node9&#45;&gt;Node12 -->
<g id="edge52" class="edge">
<title>Node9&#45;&gt;Node12</title>
<path fill="none" stroke="midnightblue" d="M951.8,-300.03C993.6,-298.57 1067.63,-290.62 1118,-255 1150.62,-231.93 1135.68,-205.01 1166,-179 1172.87,-173.1 1219.04,-153.84 1251.02,-140.89"/>
<polygon fill="midnightblue" stroke="midnightblue" points="1252.46,-144.08 1260.43,-137.09 1249.84,-137.58 1252.46,-144.08"/>
</g>
<!-- Node10&#45;&gt;Node2 -->
<g id="edge28" class="edge">
<title>Node10&#45;&gt;Node2</title>
<path fill="none" stroke="midnightblue" d="M915.54,-235.34C919.29,-214.24 929.26,-158.47 938,-112 942.64,-87.35 961.15,-75.19 945,-56 920.97,-27.43 821.87,-17 753.47,-13.19"/>
<polygon fill="midnightblue" stroke="midnightblue" points="753.36,-9.68 743.2,-12.65 753,-16.67 753.36,-9.68"/>
</g>
<!-- Node10&#45;&gt;Node3 -->
<g id="edge27" class="edge">
<title>Node10&#45;&gt;Node3</title>
<path fill="none" stroke="midnightblue" d="M887.37,-241.81C812.79,-234.96 596.47,-210.27 431,-143 353.98,-111.69 273.4,-53.23 237.8,-25.85"/>
<polygon fill="midnightblue" stroke="midnightblue" points="239.8,-22.97 229.75,-19.6 235.5,-28.5 239.8,-22.97"/>
</g>
<!-- Node10&#45;&gt;Node4 -->
<g id="edge29" class="edge">
<title>Node10&#45;&gt;Node4</title>
<path fill="none" stroke="midnightblue" d="M921.71,-235.47C941.58,-213.72 996.57,-154.86 1048,-112 1088.64,-78.13 1140.23,-43.85 1169.33,-25.22"/>
<polygon fill="midnightblue" stroke="midnightblue" points="1171.38,-28.06 1177.94,-19.74 1167.63,-22.15 1171.38,-28.06"/>
</g>
<!-- Node10&#45;&gt;Node11 -->
<g id="edge30" class="edge">
<title>Node10&#45;&gt;Node11</title>
<path fill="none" stroke="midnightblue" d="M887.86,-235.44C859.98,-226.32 815.65,-211.81 784.6,-201.65"/>
<polygon fill="midnightblue" stroke="midnightblue" points="785.62,-198.3 775.02,-198.52 783.44,-204.95 785.62,-198.3"/>
</g>
<!-- Node11&#45;&gt;Node2 -->
<g id="edge31" class="edge">
<title>Node11&#45;&gt;Node2</title>
<path fill="none" stroke="midnightblue" d="M728.45,-179.43C695.48,-164.31 632.41,-129.37 612,-76 608.83,-67.7 607.64,-63.75 612,-56 620.22,-41.38 635.33,-30.95 649.76,-23.85"/>
<polygon fill="midnightblue" stroke="midnightblue" points="651.4,-26.95 659.07,-19.64 648.52,-20.57 651.4,-26.95"/>
</g>
<!-- Node11&#45;&gt;Node3 -->
<g id="edge34" class="edge">
<title>Node11&#45;&gt;Node3</title>
<path fill="none" stroke="midnightblue" d="M695.46,-186.27C640.22,-182.84 552.57,-172.7 483,-143 423.4,-117.56 423.83,-85.24 366,-56 335.64,-40.65 299.07,-29.43 270,-22.03"/>
<polygon fill="midnightblue" stroke="midnightblue" points="270.6,-18.57 260.05,-19.57 268.92,-25.37 270.6,-18.57"/>
</g>
<!-- Node11&#45;&gt;Node12 -->
<g id="edge32" class="edge">
<title>Node11&#45;&gt;Node12</title>
<path fill="none" stroke="midnightblue" d="M802.6,-182.77C883.09,-174.81 1039.96,-158.91 1173,-143 1198.25,-139.98 1226.73,-136.18 1248.25,-133.22"/>
<polygon fill="midnightblue" stroke="midnightblue" points="1248.78,-136.68 1258.21,-131.85 1247.82,-129.75 1248.78,-136.68"/>
</g>
<!-- Node13 -->
<g id="node13" class="node">
<title>Node13</title>
<g id="a_node13"><a xlink:title=" ">
<polygon fill="none" stroke="#bfbfbf" points="456.5,-56.5 456.5,-75.5 525.5,-75.5 525.5,-56.5 456.5,-56.5"/>
<text text-anchor="middle" x="491" y="-63.5" font-family="Helvetica,sans-Serif" font-size="10.00">type_traits</text>
</a>
</g>
</g>
<!-- Node11&#45;&gt;Node13 -->
<g id="edge33" class="edge">
<title>Node11&#45;&gt;Node13</title>
<path fill="none" stroke="midnightblue" d="M695.38,-185.59C630.3,-181.46 526,-170.64 500,-143 485.73,-127.84 485.56,-102.77 487.57,-85.6"/>
<polygon fill="midnightblue" stroke="midnightblue" points="491.04,-86.05 489.08,-75.64 484.12,-85 491.04,-86.05"/>
</g>
<!-- Node14 -->
<g id="node14" class="node">
<title>Node14</title>
<g id="a_node14"><a xlink:title=" ">
<polygon fill="none" stroke="#bfbfbf" points="509,-118 509,-137 573,-137 573,-118 509,-118"/>
<text text-anchor="middle" x="541" y="-125" font-family="Helvetica,sans-Serif" font-size="10.00">algorithm</text>
</a>
</g>
</g>
<!-- Node11&#45;&gt;Node14 -->
<g id="edge35" class="edge">
<title>Node11&#45;&gt;Node14</title>
<path fill="none" stroke="midnightblue" d="M716.94,-179.44C684.19,-170.62 631.92,-156.31 587,-143 583.87,-142.07 580.62,-141.09 577.37,-140.09"/>
<polygon fill="midnightblue" stroke="midnightblue" points="578.3,-136.71 567.71,-137.09 576.22,-143.4 578.3,-136.71"/>
</g>
<!-- Node15 -->
<g id="node15" class="node">
<title>Node15</title>
<g id="a_node15"><a xlink:href="limes__assert_8h.html" target="_top" xlink:title=" ">
<polygon fill="none" stroke="black" points="681,-118 681,-137 817,-137 817,-118 681,-118"/>
<text text-anchor="middle" x="749" y="-125" font-family="Helvetica,sans-Serif" font-size="10.00">../system/limes_assert.h</text>
</a>
</g>
</g>
<!-- Node11&#45;&gt;Node15 -->
<g id="edge36" class="edge">
<title>Node11&#45;&gt;Node15</title>
<path fill="none" stroke="midnightblue" d="M749,-179.48C749,-171.08 749,-157.98 749,-147.16"/>
<polygon fill="midnightblue" stroke="midnightblue" points="752.5,-147.01 749,-137.01 745.5,-147.01 752.5,-147.01"/>
</g>
<!-- Node19 -->
<g id="node19" class="node">
<title>Node19</title>
<g id="a_node19"><a xlink:href="compiler__defs_8h.html" target="_top" xlink:title=" ">
<polygon fill="none" stroke="black" points="1056.5,-112.5 1056.5,-142.5 1163.5,-142.5 1163.5,-112.5 1056.5,-112.5"/>
<text text-anchor="start" x="1064.5" y="-130.5" font-family="Helvetica,sans-Serif" font-size="10.00">../system/compiler</text>
<text text-anchor="middle" x="1110" y="-119.5" font-family="Helvetica,sans-Serif" font-size="10.00">_defs.h</text>
</a>
</g>
</g>
<!-- Node11&#45;&gt;Node19 -->
<g id="edge48" class="edge">
<title>Node11&#45;&gt;Node19</title>
<path fill="none" stroke="midnightblue" d="M800.72,-179.48C865.48,-168.8 976.39,-150.52 1046.3,-139"/>
<polygon fill="midnightblue" stroke="midnightblue" points="1047.01,-142.43 1056.31,-137.35 1045.88,-135.52 1047.01,-142.43"/>
</g>
<!-- Node15&#45;&gt;Node2 -->
<g id="edge38" class="edge">
<title>Node15&#45;&gt;Node2</title>
<path fill="none" stroke="midnightblue" d="M753.98,-117.62C761.13,-103.6 772.26,-75.88 761,-56 752.65,-41.26 737.34,-30.82 722.71,-23.73"/>
<polygon fill="midnightblue" stroke="midnightblue" points="723.84,-20.4 713.28,-19.55 721,-26.8 723.84,-20.4"/>
</g>
<!-- Node15&#45;&gt;Node3 -->
<g id="edge37" class="edge">
<title>Node15&#45;&gt;Node3</title>
<path fill="none" stroke="midnightblue" d="M727.19,-117.88C688.89,-103.08 606.8,-72.8 535,-56 444.66,-34.86 337.32,-22.12 273.86,-15.84"/>
<polygon fill="midnightblue" stroke="midnightblue" points="273.97,-12.34 263.68,-14.85 273.3,-19.3 273.97,-12.34"/>
</g>
<!-- Node15&#45;&gt;Node4 -->
<g id="edge46" class="edge">
<title>Node15&#45;&gt;Node4</title>
<path fill="none" stroke="midnightblue" d="M782.31,-117.97C821.31,-107.98 887.87,-90.88 945,-76 1016.91,-57.27 1100.52,-35.21 1149.69,-22.2"/>
<polygon fill="midnightblue" stroke="midnightblue" points="1150.87,-25.51 1159.65,-19.57 1149.08,-18.74 1150.87,-25.51"/>
</g>
<!-- Node15&#45;&gt;Node5 -->
<g id="edge39" class="edge">
<title>Node15&#45;&gt;Node5</title>
<path fill="none" stroke="midnightblue" d="M817.1,-119.02C917.08,-108.05 1103.28,-87.61 1210.09,-75.88"/>
<polygon fill="midnightblue" stroke="midnightblue" points="1210.62,-79.35 1220.18,-74.77 1209.85,-72.39 1210.62,-79.35"/>
</g>
<!-- Node15&#45;&gt;Node13 -->
<g id="edge40" class="edge">
<title>Node15&#45;&gt;Node13</title>
<path fill="none" stroke="midnightblue" d="M712.03,-117.98C665.5,-107.24 585.62,-88.82 535.7,-77.31"/>
<polygon fill="midnightblue" stroke="midnightblue" points="536.36,-73.87 525.83,-75.03 534.79,-80.69 536.36,-73.87"/>
</g>
<!-- Node16 -->
<g id="node16" class="node">
<title>Node16</title>
<g id="a_node16"><a xlink:title=" ">
<polygon fill="none" stroke="#bfbfbf" points="620.5,-56.5 620.5,-75.5 665.5,-75.5 665.5,-56.5 620.5,-56.5"/>
<text text-anchor="middle" x="643" y="-63.5" font-family="Helvetica,sans-Serif" font-size="10.00">utility</text>
</a>
</g>
</g>
<!-- Node15&#45;&gt;Node16 -->
<g id="edge41" class="edge">
<title>Node15&#45;&gt;Node16</title>
<path fill="none" stroke="midnightblue" d="M733.81,-117.98C716.34,-108.17 687.42,-91.93 666.92,-80.42"/>
<polygon fill="midnightblue" stroke="midnightblue" points="668.59,-77.35 658.16,-75.51 665.17,-83.46 668.59,-77.35"/>
</g>
<!-- Node17 -->
<g id="node17" class="node">
<title>Node17</title>
<g id="a_node17"><a xlink:href="_ignore_unused_8h.html" target="_top" xlink:title=" ">
<polygon fill="none" stroke="black" points="808,-56.5 808,-75.5 936,-75.5 936,-56.5 808,-56.5"/>
<text text-anchor="middle" x="872" y="-63.5" font-family="Helvetica,sans-Serif" font-size="10.00">../misc/IgnoreUnused.h</text>
</a>
</g>
</g>
<!-- Node15&#45;&gt;Node17 -->
<g id="edge42" class="edge">
<title>Node15&#45;&gt;Node17</title>
<path fill="none" stroke="midnightblue" d="M766.62,-117.98C787.17,-108.03 821.36,-91.49 845.21,-79.96"/>
<polygon fill="midnightblue" stroke="midnightblue" points="846.93,-83.01 854.41,-75.51 843.88,-76.71 846.93,-83.01"/>
</g>
<!-- Node18 -->
<g id="node18" class="node">
<title>Node18</title>
<g id="a_node18"><a xlink:title=" ">
<polygon fill="none" stroke="#bfbfbf" points="684,-56.5 684,-75.5 752,-75.5 752,-56.5 684,-56.5"/>
<text text-anchor="middle" x="718" y="-63.5" font-family="Helvetica,sans-Serif" font-size="10.00">filesystem</text>
</a>
</g>
</g>
<!-- Node15&#45;&gt;Node18 -->
<g id="edge47" class="edge">
<title>Node15&#45;&gt;Node18</title>
<path fill="none" stroke="midnightblue" d="M744.56,-117.98C740.05,-109.32 732.93,-95.65 727.19,-84.65"/>
<polygon fill="midnightblue" stroke="midnightblue" points="730.16,-82.76 722.43,-75.51 723.95,-85.99 730.16,-82.76"/>
</g>
<!-- Node17&#45;&gt;Node2 -->
<g id="edge44" class="edge">
<title>Node17&#45;&gt;Node2</title>
<path fill="none" stroke="midnightblue" d="M842.53,-56.44C810.83,-47.24 760.27,-32.56 725.23,-22.39"/>
<polygon fill="midnightblue" stroke="midnightblue" points="725.91,-18.94 715.33,-19.52 723.96,-25.67 725.91,-18.94"/>
</g>
<!-- Node17&#45;&gt;Node3 -->
<g id="edge43" class="edge">
<title>Node17&#45;&gt;Node3</title>
<path fill="none" stroke="midnightblue" d="M807.9,-59.7C679.72,-49.1 393.84,-25.46 273.77,-15.53"/>
<polygon fill="midnightblue" stroke="midnightblue" points="273.96,-12.03 263.7,-14.7 273.38,-19.01 273.96,-12.03"/>
</g>
<!-- Node17&#45;&gt;Node4 -->
<g id="edge45" class="edge">
<title>Node17&#45;&gt;Node4</title>
<path fill="none" stroke="midnightblue" d="M922.7,-56.44C979.43,-46.87 1071.27,-31.37 1131.65,-21.18"/>
<polygon fill="midnightblue" stroke="midnightblue" points="1132.52,-24.59 1141.8,-19.47 1131.35,-17.68 1132.52,-24.59"/>
</g>
<!-- Node19&#45;&gt;Node4 -->
<g id="edge49" class="edge">
<title>Node19&#45;&gt;Node4</title>
<path fill="none" stroke="midnightblue" d="M1120.05,-112.34C1135.17,-91.05 1163.68,-50.89 1179.91,-28.03"/>
<polygon fill="midnightblue" stroke="midnightblue" points="1182.91,-29.85 1185.85,-19.67 1177.2,-25.8 1182.91,-29.85"/>
</g>
<!-- Node19&#45;&gt;Node5 -->
<g id="edge50" class="edge">
<title>Node19&#45;&gt;Node5</title>
<path fill="none" stroke="midnightblue" d="M1152.89,-112.4C1184.03,-102.16 1225.69,-88.47 1255.08,-78.81"/>
<polygon fill="midnightblue" stroke="midnightblue" points="1256.52,-82.02 1264.93,-75.57 1254.33,-75.37 1256.52,-82.02"/>
</g>
<!-- Node20&#45;&gt;Node2 -->
<g id="edge57" class="edge">
<title>Node20&#45;&gt;Node2</title>
<path fill="none" stroke="midnightblue" d="M172.28,-61.62C261.3,-52.85 501.08,-29.22 618.86,-17.62"/>
<polygon fill="midnightblue" stroke="midnightblue" points="619.23,-21.1 628.84,-16.63 618.54,-14.13 619.23,-21.1"/>
</g>
<!-- Node20&#45;&gt;Node3 -->
<g id="edge58" class="edge">
<title>Node20&#45;&gt;Node3</title>
<path fill="none" stroke="midnightblue" d="M151.01,-56.32C163.53,-47.98 182.68,-35.21 197.47,-25.35"/>
<polygon fill="midnightblue" stroke="midnightblue" points="199.64,-28.11 206.02,-19.65 195.76,-22.29 199.64,-28.11"/>
</g>
</g>
</svg>
