<?xml version="1.0" encoding="UTF-8" standalone="no"?>
<!DOCTYPE svg PUBLIC "-//W3C//DTD SVG 1.1//EN"
 "http://www.w3.org/Graphics/SVG/1.1/DTD/svg11.dtd">
<!-- Generated by graphviz version 2.43.0 (0)
 -->
<!-- Title: rectangular_prism.h Pages: 1 -->
<svg width="1474pt" height="487pt"
 viewBox="0.00 0.00 1474.00 487.00" xmlns="http://www.w3.org/2000/svg" xmlns:xlink="http://www.w3.org/1999/xlink">
<g id="graph0" class="graph" transform="scale(1 1) rotate(0) translate(4 483)">
<title>rectangular_prism.h</title>
<!-- Node1 -->
<g id="node1" class="node">
<title>Node1</title>
<g id="a_node1"><a xlink:title=" ">
<polygon fill="#bfbfbf" stroke="black" points="1223,-459.5 1223,-478.5 1337,-478.5 1337,-459.5 1223,-459.5"/>
<text text-anchor="middle" x="1280" y="-466.5" font-family="Helvetica,sans-Serif" font-size="10.00">rectangular_prism.h</text>
</a>
</g>
</g>
<!-- Node2 -->
<g id="node2" class="node">
<title>Node2</title>
<g id="a_node2"><a xlink:href="limes__namespace_8h.html" target="_top" xlink:title=" ">
<polygon fill="none" stroke="black" points="1190,-0.5 1190,-19.5 1304,-19.5 1304,-0.5 1190,-0.5"/>
<text text-anchor="middle" x="1247" y="-7.5" font-family="Helvetica,sans-Serif" font-size="10.00">limes_namespace.h</text>
</a>
</g>
</g>
<!-- Node1&#45;&gt;Node2 -->
<g id="edge1" class="edge">
<title>Node1&#45;&gt;Node2</title>
<path fill="none" stroke="midnightblue" d="M1334.55,-459.48C1389.43,-447.45 1466,-419.62 1466,-358 1466,-358 1466,-358 1466,-126.5 1466,-57.04 1378.73,-29.25 1314.37,-18.2"/>
<polygon fill="midnightblue" stroke="midnightblue" points="1314.68,-14.7 1304.25,-16.56 1313.57,-21.61 1314.68,-14.7"/>
</g>
<!-- Node3 -->
<g id="node3" class="node">
<title>Node3</title>
<g id="a_node3"><a xlink:title=" ">
<polygon fill="none" stroke="#bfbfbf" points="865.5,-0.5 865.5,-19.5 954.5,-19.5 954.5,-0.5 865.5,-0.5"/>
<text text-anchor="middle" x="910" y="-7.5" font-family="Helvetica,sans-Serif" font-size="10.00">limes_export.h</text>
</a>
</g>
</g>
<!-- Node1&#45;&gt;Node3 -->
<g id="edge2" class="edge">
<title>Node1&#45;&gt;Node3</title>
<path fill="none" stroke="midnightblue" d="M1285.28,-459.23C1295.73,-441.04 1318,-397.6 1318,-358 1318,-358 1318,-358 1318,-244 1318,-83.23 1076.15,-31.9 964.86,-16.8"/>
<polygon fill="midnightblue" stroke="midnightblue" points="965.2,-13.31 954.83,-15.48 964.29,-20.25 965.2,-13.31"/>
</g>
<!-- Node4 -->
<g id="node4" class="node">
<title>Node4</title>
<g id="a_node4"><a xlink:title=" ">
<polygon fill="none" stroke="#bfbfbf" points="338,-0.5 338,-19.5 438,-19.5 438,-0.5 338,-0.5"/>
<text text-anchor="middle" x="388" y="-7.5" font-family="Helvetica,sans-Serif" font-size="10.00">limes_platform.h</text>
</a>
</g>
</g>
<!-- Node1&#45;&gt;Node4 -->
<g id="edge3" class="edge">
<title>Node1&#45;&gt;Node4</title>
<path fill="none" stroke="midnightblue" d="M1222.93,-466.13C974.54,-457.62 0,-420.28 0,-358 0,-358 0,-358 0,-126.5 0,-87.83 17.8,-75.84 51,-56 96.42,-28.86 243.49,-17.66 327.57,-13.39"/>
<polygon fill="midnightblue" stroke="midnightblue" points="327.93,-16.88 337.75,-12.89 327.59,-9.88 327.93,-16.88"/>
</g>
<!-- Node5 -->
<g id="node5" class="node">
<title>Node5</title>
<g id="a_node5"><a xlink:href="preprocessor_8h.html" target="_top" xlink:title=" ">
<polygon fill="none" stroke="black" points="218.5,-56.5 218.5,-75.5 359.5,-75.5 359.5,-56.5 218.5,-56.5"/>
<text text-anchor="middle" x="289" y="-63.5" font-family="Helvetica,sans-Serif" font-size="10.00">../../../misc/preprocessor.h</text>
</a>
</g>
</g>
<!-- Node1&#45;&gt;Node5 -->
<g id="edge4" class="edge">
<title>Node1&#45;&gt;Node5</title>
<path fill="none" stroke="midnightblue" d="M1222.77,-465.65C1037.17,-457.49 453.64,-427.53 276,-367 231.41,-351.8 212.42,-350 186,-311 153,-262.29 165.55,-236.9 176,-179 181.65,-147.72 179.86,-135.73 201,-112 214.17,-97.22 233.33,-86.62 250.42,-79.44"/>
<polygon fill="midnightblue" stroke="midnightblue" points="252.16,-82.52 260.18,-75.6 249.6,-76 252.16,-82.52"/>
</g>
<!-- Node6 -->
<g id="node6" class="node">
<title>Node6</title>
<g id="a_node6"><a xlink:href="square_8h.html" target="_top" xlink:title=" ">
<polygon fill="none" stroke="black" points="1008,-403.5 1008,-422.5 1092,-422.5 1092,-403.5 1008,-403.5"/>
<text text-anchor="middle" x="1050" y="-410.5" font-family="Helvetica,sans-Serif" font-size="10.00">../2D/square.h</text>
</a>
</g>
</g>
<!-- Node1&#45;&gt;Node6 -->
<g id="edge6" class="edge">
<title>Node1&#45;&gt;Node6</title>
<path fill="none" stroke="midnightblue" d="M1243.56,-459.44C1203.6,-450.06 1139.41,-434.99 1096.02,-424.8"/>
<polygon fill="midnightblue" stroke="midnightblue" points="1096.81,-421.39 1086.27,-422.52 1095.21,-428.21 1096.81,-421.39"/>
</g>
<!-- Node12 -->
<g id="node12" class="node">
<title>Node12</title>
<g id="a_node12"><a xlink:title=" ">
<polygon fill="none" stroke="#bfbfbf" points="1036.5,-118 1036.5,-137 1083.5,-137 1083.5,-118 1036.5,-118"/>
<text text-anchor="middle" x="1060" y="-125" font-family="Helvetica,sans-Serif" font-size="10.00">cmath</text>
</a>
</g>
</g>
<!-- Node1&#45;&gt;Node12 -->
<g id="edge60" class="edge">
<title>Node1&#45;&gt;Node12</title>
<path fill="none" stroke="midnightblue" d="M1280,-459.44C1280,-440.94 1280,-395.81 1280,-358 1280,-358 1280,-358 1280,-244 1280,-160.81 1155.16,-137.41 1093.56,-130.93"/>
<polygon fill="midnightblue" stroke="midnightblue" points="1093.83,-127.44 1083.54,-129.97 1093.16,-134.41 1093.83,-127.44"/>
</g>
<!-- Node20 -->
<g id="node20" class="node">
<title>Node20</title>
<g id="a_node20"><a xlink:href="3_dshape_8h.html" target="_top" xlink:title=" ">
<polygon fill="none" stroke="black" points="1294,-56.5 1294,-75.5 1362,-75.5 1362,-56.5 1294,-56.5"/>
<text text-anchor="middle" x="1328" y="-63.5" font-family="Helvetica,sans-Serif" font-size="10.00">3Dshape.h</text>
</a>
</g>
</g>
<!-- Node1&#45;&gt;Node20 -->
<g id="edge57" class="edge">
<title>Node1&#45;&gt;Node20</title>
<path fill="none" stroke="midnightblue" d="M1300.64,-459.42C1333.5,-444.23 1394,-409.29 1394,-358 1394,-358 1394,-358 1394,-300 1394,-216.99 1354.74,-123.43 1336.78,-84.97"/>
<polygon fill="midnightblue" stroke="midnightblue" points="1339.79,-83.16 1332.33,-75.64 1333.48,-86.17 1339.79,-83.16"/>
</g>
<!-- Node5&#45;&gt;Node4 -->
<g id="edge5" class="edge">
<title>Node5&#45;&gt;Node4</title>
<path fill="none" stroke="midnightblue" d="M304.91,-56.32C320.64,-47.74 344.94,-34.49 363.21,-24.52"/>
<polygon fill="midnightblue" stroke="midnightblue" points="365.03,-27.52 372.13,-19.65 361.68,-21.37 365.03,-27.52"/>
</g>
<!-- Node6&#45;&gt;Node2 -->
<g id="edge7" class="edge">
<title>Node6&#45;&gt;Node2</title>
<path fill="none" stroke="midnightblue" d="M1081.76,-403.45C1140.56,-385.94 1266.36,-340.25 1332,-255 1387.98,-182.29 1441.05,-130.15 1387,-56 1370.19,-32.94 1341.37,-21.44 1314.23,-15.8"/>
<polygon fill="midnightblue" stroke="midnightblue" points="1314.81,-12.34 1304.34,-13.97 1313.54,-19.23 1314.81,-12.34"/>
</g>
<!-- Node6&#45;&gt;Node3 -->
<g id="edge8" class="edge">
<title>Node6&#45;&gt;Node3</title>
<path fill="none" stroke="midnightblue" d="M1007.9,-412.27C867.16,-412.77 414.08,-410.82 276,-367 174.36,-334.74 114,-296.64 114,-190 114,-190 114,-190 114,-126.5 114,-88.59 129.04,-74.72 162,-56 221.77,-22.05 692.72,-13.48 855.15,-11.53"/>
<polygon fill="midnightblue" stroke="midnightblue" points="855.44,-15.03 865.4,-11.41 855.36,-8.03 855.44,-15.03"/>
</g>
<!-- Node6&#45;&gt;Node4 -->
<g id="edge9" class="edge">
<title>Node6&#45;&gt;Node4</title>
<path fill="none" stroke="midnightblue" d="M1007.8,-411.92C816.28,-411.01 38,-401.19 38,-302 38,-302 38,-302 38,-126.5 38,-90.25 48.97,-76.3 79,-56 118.49,-29.31 249.54,-18.05 327.72,-13.62"/>
<polygon fill="midnightblue" stroke="midnightblue" points="328.12,-17.11 337.92,-13.07 327.74,-10.12 328.12,-17.11"/>
</g>
<!-- Node6&#45;&gt;Node5 -->
<g id="edge13" class="edge">
<title>Node6&#45;&gt;Node5</title>
<path fill="none" stroke="midnightblue" d="M1007.94,-411.1C835.28,-406.86 190,-385.45 190,-302 190,-302 190,-302 190,-188 190,-140.28 236.69,-101.04 265.95,-81.13"/>
<polygon fill="midnightblue" stroke="midnightblue" points="267.95,-84 274.39,-75.59 264.11,-78.15 267.95,-84"/>
</g>
<!-- Node7 -->
<g id="node7" class="node">
<title>Node7</title>
<g id="a_node7"><a xlink:href="2_dshape_8h.html" target="_top" xlink:title=" ">
<polygon fill="none" stroke="black" points="1146,-235.5 1146,-254.5 1214,-254.5 1214,-235.5 1146,-235.5"/>
<text text-anchor="middle" x="1180" y="-242.5" font-family="Helvetica,sans-Serif" font-size="10.00">2Dshape.h</text>
</a>
</g>
</g>
<!-- Node6&#45;&gt;Node7 -->
<g id="edge10" class="edge">
<title>Node6&#45;&gt;Node7</title>
<path fill="none" stroke="midnightblue" d="M1056.99,-403.08C1077.81,-376.49 1139.64,-297.54 1166.87,-262.76"/>
<polygon fill="midnightblue" stroke="midnightblue" points="1169.88,-264.6 1173.29,-254.57 1164.37,-260.28 1169.88,-264.6"/>
</g>
<!-- Node8 -->
<g id="node8" class="node">
<title>Node8</title>
<g id="a_node8"><a xlink:href="rectangle_8h.html" target="_top" xlink:title=" ">
<polygon fill="none" stroke="black" points="604.5,-347.5 604.5,-366.5 675.5,-366.5 675.5,-347.5 604.5,-347.5"/>
<text text-anchor="middle" x="640" y="-354.5" font-family="Helvetica,sans-Serif" font-size="10.00">rectangle.h</text>
</a>
</g>
</g>
<!-- Node6&#45;&gt;Node8 -->
<g id="edge14" class="edge">
<title>Node6&#45;&gt;Node8</title>
<path fill="none" stroke="midnightblue" d="M1007.67,-406.42C930.13,-396.21 765.93,-374.59 685.85,-364.04"/>
<polygon fill="midnightblue" stroke="midnightblue" points="685.96,-360.52 675.59,-362.69 685.05,-367.46 685.96,-360.52"/>
</g>
<!-- Node9 -->
<g id="node9" class="node">
<title>Node9</title>
<g id="a_node9"><a xlink:href="triangle_8h.html" target="_top" xlink:title=" ">
<polygon fill="none" stroke="black" points="1018.5,-291.5 1018.5,-310.5 1081.5,-310.5 1081.5,-291.5 1018.5,-291.5"/>
<text text-anchor="middle" x="1050" y="-298.5" font-family="Helvetica,sans-Serif" font-size="10.00">triangle.h</text>
</a>
</g>
</g>
<!-- Node6&#45;&gt;Node9 -->
<g id="edge55" class="edge">
<title>Node6&#45;&gt;Node9</title>
<path fill="none" stroke="midnightblue" d="M1050,-403.37C1050,-385.62 1050,-344.67 1050,-320.6"/>
<polygon fill="midnightblue" stroke="midnightblue" points="1053.5,-320.59 1050,-310.59 1046.5,-320.59 1053.5,-320.59"/>
</g>
<!-- Node6&#45;&gt;Node12 -->
<g id="edge56" class="edge">
<title>Node6&#45;&gt;Node12</title>
<path fill="none" stroke="midnightblue" d="M1066.64,-403.46C1103.47,-383.46 1191.14,-329.6 1223,-255 1249.55,-192.82 1148.34,-153.56 1093.33,-137.23"/>
<polygon fill="midnightblue" stroke="midnightblue" points="1094.22,-133.84 1083.64,-134.45 1092.28,-140.57 1094.22,-133.84"/>
</g>
<!-- Node7&#45;&gt;Node2 -->
<g id="edge11" class="edge">
<title>Node7&#45;&gt;Node2</title>
<path fill="none" stroke="midnightblue" d="M1197.3,-235.42C1237.06,-214.61 1334.33,-157.08 1371,-76 1384.37,-46.44 1350.1,-30.04 1314.23,-21.11"/>
<polygon fill="midnightblue" stroke="midnightblue" points="1314.64,-17.61 1304.11,-18.78 1313.07,-24.43 1314.64,-17.61"/>
</g>
<!-- Node7&#45;&gt;Node3 -->
<g id="edge12" class="edge">
<title>Node7&#45;&gt;Node3</title>
<path fill="none" stroke="midnightblue" d="M1178.81,-235.43C1174.11,-205.03 1153.81,-101.77 1090,-56 1053.39,-29.74 1003.06,-18.75 964.93,-14.17"/>
<polygon fill="midnightblue" stroke="midnightblue" points="964.84,-10.64 954.52,-13.04 964.08,-17.6 964.84,-10.64"/>
</g>
<!-- Node8&#45;&gt;Node2 -->
<g id="edge15" class="edge">
<title>Node8&#45;&gt;Node2</title>
<path fill="none" stroke="midnightblue" d="M604.26,-356.82C546.46,-356.82 430.04,-351.24 342,-311 301.58,-292.52 266,-290.45 266,-246 266,-246 266,-246 266,-188 266,-124.1 164.8,-102.15 209,-56 217.42,-47.2 950.97,-21.2 1179.68,-13.3"/>
<polygon fill="midnightblue" stroke="midnightblue" points="1179.99,-16.79 1189.87,-12.95 1179.75,-9.8 1179.99,-16.79"/>
</g>
<!-- Node8&#45;&gt;Node3 -->
<g id="edge16" class="edge">
<title>Node8&#45;&gt;Node3</title>
<path fill="none" stroke="midnightblue" d="M604.27,-356.48C518.9,-356.92 306.18,-353.59 252,-311 227.79,-291.97 228,-276.8 228,-246 228,-246 228,-246 228,-188 228,-124.95 132.8,-101.93 176,-56 199.23,-31.31 689.31,-16.61 855.47,-12.32"/>
<polygon fill="midnightblue" stroke="midnightblue" points="855.56,-15.82 865.47,-12.07 855.38,-8.82 855.56,-15.82"/>
</g>
<!-- Node8&#45;&gt;Node4 -->
<g id="edge17" class="edge">
<title>Node8&#45;&gt;Node4</title>
<path fill="none" stroke="midnightblue" d="M604.33,-354.99C515,-352.03 283.83,-341.56 214,-311 139.27,-278.29 76,-271.57 76,-190 76,-190 76,-190 76,-126.5 76,-93.4 74.66,-77.29 100,-56 133.58,-27.78 253.74,-17.15 327.82,-13.22"/>
<polygon fill="midnightblue" stroke="midnightblue" points="328.15,-16.71 337.96,-12.71 327.79,-9.72 328.15,-16.71"/>
</g>
<!-- Node8&#45;&gt;Node5 -->
<g id="edge19" class="edge">
<title>Node8&#45;&gt;Node5</title>
<path fill="none" stroke="midnightblue" d="M604.36,-352.02C517.89,-341.37 304,-308.68 304,-246 304,-246 304,-246 304,-188 304,-151.62 297.24,-109.55 292.79,-85.83"/>
<polygon fill="midnightblue" stroke="midnightblue" points="296.18,-84.91 290.84,-75.76 289.31,-86.24 296.18,-84.91"/>
</g>
<!-- Node8&#45;&gt;Node7 -->
<g id="edge18" class="edge">
<title>Node8&#45;&gt;Node7</title>
<path fill="none" stroke="midnightblue" d="M675.8,-354.82C768.48,-351.37 1014.3,-339.72 1090,-311 1119.11,-299.96 1147.33,-276.96 1164.18,-261.5"/>
<polygon fill="midnightblue" stroke="midnightblue" points="1166.62,-264.01 1171.49,-254.6 1161.82,-258.92 1166.62,-264.01"/>
</g>
<!-- Node8&#45;&gt;Node9 -->
<g id="edge20" class="edge">
<title>Node8&#45;&gt;Node9</title>
<path fill="none" stroke="midnightblue" d="M675.51,-352.45C740.76,-345.73 884.05,-330.12 1004,-311 1005.46,-310.77 1006.94,-310.52 1008.43,-310.27"/>
<polygon fill="midnightblue" stroke="midnightblue" points="1009.15,-313.7 1018.38,-308.49 1007.92,-306.81 1009.15,-313.7"/>
</g>
<!-- Node8&#45;&gt;Node12 -->
<g id="edge54" class="edge">
<title>Node8&#45;&gt;Node12</title>
<path fill="none" stroke="midnightblue" d="M675.65,-352.37C739.44,-344.37 875,-320.43 967,-255 1007.77,-226 1037.89,-173.56 1051.67,-146.19"/>
<polygon fill="midnightblue" stroke="midnightblue" points="1054.9,-147.56 1056.14,-137.04 1048.6,-144.49 1054.9,-147.56"/>
</g>
<!-- Node9&#45;&gt;Node2 -->
<g id="edge21" class="edge">
<title>Node9&#45;&gt;Node2</title>
<path fill="none" stroke="midnightblue" d="M1059.71,-291.23C1069.06,-282.53 1083.32,-268.56 1094,-255 1156.3,-175.89 1215.27,-70.24 1237.59,-28.77"/>
<polygon fill="midnightblue" stroke="midnightblue" points="1240.72,-30.34 1242.35,-19.87 1234.55,-27.04 1240.72,-30.34"/>
</g>
<!-- Node9&#45;&gt;Node3 -->
<g id="edge22" class="edge">
<title>Node9&#45;&gt;Node3</title>
<path fill="none" stroke="midnightblue" d="M1055.6,-291.38C1072.64,-264.02 1120.92,-177.1 1092,-112 1069.45,-61.24 1008.35,-35.02 963.14,-22.17"/>
<polygon fill="midnightblue" stroke="midnightblue" points="964.03,-18.79 953.46,-19.56 962.2,-25.55 964.03,-18.79"/>
</g>
<!-- Node9&#45;&gt;Node4 -->
<g id="edge23" class="edge">
<title>Node9&#45;&gt;Node4</title>
<path fill="none" stroke="midnightblue" d="M1018.18,-295.82C905.18,-280.39 525.24,-223.34 437,-143 403.96,-112.91 393.12,-58.48 389.62,-29.82"/>
<polygon fill="midnightblue" stroke="midnightblue" points="393.07,-29.16 388.56,-19.57 386.11,-29.88 393.07,-29.16"/>
</g>
<!-- Node9&#45;&gt;Node5 -->
<g id="edge25" class="edge">
<title>Node9&#45;&gt;Node5</title>
<path fill="none" stroke="midnightblue" d="M1018.49,-299.96C891.07,-299.52 418.15,-295.17 366,-255 312.89,-214.09 347.05,-172.42 318,-112 313.32,-102.26 306.91,-92.09 301.31,-83.88"/>
<polygon fill="midnightblue" stroke="midnightblue" points="304.08,-81.74 295.46,-75.58 298.36,-85.77 304.08,-81.74"/>
</g>
<!-- Node9&#45;&gt;Node7 -->
<g id="edge24" class="edge">
<title>Node9&#45;&gt;Node7</title>
<path fill="none" stroke="midnightblue" d="M1070.6,-291.44C1091.99,-282.56 1125.68,-268.56 1150.02,-258.45"/>
<polygon fill="midnightblue" stroke="midnightblue" points="1151.61,-261.58 1159.5,-254.52 1148.92,-255.12 1151.61,-261.58"/>
</g>
<!-- Node10 -->
<g id="node10" class="node">
<title>Node10</title>
<g id="a_node10"><a xlink:href="angle_8h.html" target="_top" xlink:title=" ">
<polygon fill="none" stroke="black" points="905.5,-235.5 905.5,-254.5 958.5,-254.5 958.5,-235.5 905.5,-235.5"/>
<text text-anchor="middle" x="932" y="-242.5" font-family="Helvetica,sans-Serif" font-size="10.00">angle.h</text>
</a>
</g>
</g>
<!-- Node9&#45;&gt;Node10 -->
<g id="edge26" class="edge">
<title>Node9&#45;&gt;Node10</title>
<path fill="none" stroke="midnightblue" d="M1031.3,-291.44C1012.06,-282.64 981.85,-268.81 959.8,-258.72"/>
<polygon fill="midnightblue" stroke="midnightblue" points="961.16,-255.5 950.61,-254.52 958.25,-261.86 961.16,-255.5"/>
</g>
<!-- Node11 -->
<g id="node11" class="node">
<title>Node11</title>
<g id="a_node11"><a xlink:href="math_helpers_8h.html" target="_top" xlink:title=" ">
<polygon fill="none" stroke="black" points="732.5,-179.5 732.5,-198.5 839.5,-198.5 839.5,-179.5 732.5,-179.5"/>
<text text-anchor="middle" x="786" y="-186.5" font-family="Helvetica,sans-Serif" font-size="10.00">../../mathHelpers.h</text>
</a>
</g>
</g>
<!-- Node9&#45;&gt;Node11 -->
<g id="edge52" class="edge">
<title>Node9&#45;&gt;Node11</title>
<path fill="none" stroke="midnightblue" d="M1018.23,-293.17C986.51,-285.79 936.76,-272.67 896,-255 863.23,-240.8 828.17,-218.75 806.66,-204.34"/>
<polygon fill="midnightblue" stroke="midnightblue" points="808.56,-201.4 798.32,-198.68 804.63,-207.19 808.56,-201.4"/>
</g>
<!-- Node9&#45;&gt;Node12 -->
<g id="edge53" class="edge">
<title>Node9&#45;&gt;Node12</title>
<path fill="none" stroke="midnightblue" d="M1050.51,-291.26C1052.06,-264.65 1056.75,-184.21 1058.9,-147.34"/>
<polygon fill="midnightblue" stroke="midnightblue" points="1062.42,-147.21 1059.5,-137.02 1055.43,-146.8 1062.42,-147.21"/>
</g>
<!-- Node10&#45;&gt;Node2 -->
<g id="edge28" class="edge">
<title>Node10&#45;&gt;Node2</title>
<path fill="none" stroke="midnightblue" d="M937.36,-235.27C953.73,-208.85 1003.39,-130.39 1027,-112 1061.31,-85.27 1078.32,-93.8 1118,-76 1154.72,-59.52 1196.1,-38.16 1221.87,-24.51"/>
<polygon fill="midnightblue" stroke="midnightblue" points="1223.75,-27.47 1230.94,-19.68 1220.46,-21.29 1223.75,-27.47"/>
</g>
<!-- Node10&#45;&gt;Node3 -->
<g id="edge27" class="edge">
<title>Node10&#45;&gt;Node3</title>
<path fill="none" stroke="midnightblue" d="M934.69,-235.41C938.74,-222.8 946.91,-198.65 956,-179 956.69,-177.51 1013.58,-77.59 1014,-76 1016.25,-67.4 1018.88,-63.43 1014,-56 1002.68,-38.77 983.2,-28.1 964.14,-21.52"/>
<polygon fill="midnightblue" stroke="midnightblue" points="965.14,-18.16 954.55,-18.52 963.05,-24.84 965.14,-18.16"/>
</g>
<!-- Node10&#45;&gt;Node4 -->
<g id="edge29" class="edge">
<title>Node10&#45;&gt;Node4</title>
<path fill="none" stroke="midnightblue" d="M933.14,-235.49C934.92,-222.99 938.7,-198.96 944,-179 956.44,-132.13 971.89,-123.81 980,-76 981.49,-67.24 986.04,-62.52 980,-56 944.41,-17.6 592.45,-11.81 448.69,-11.05"/>
<polygon fill="midnightblue" stroke="midnightblue" points="448.31,-7.55 438.3,-11 448.28,-14.55 448.31,-7.55"/>
</g>
<!-- Node10&#45;&gt;Node11 -->
<g id="edge30" class="edge">
<title>Node10&#45;&gt;Node11</title>
<path fill="none" stroke="midnightblue" d="M908.87,-235.44C884.52,-226.44 845.99,-212.19 818.58,-202.05"/>
<polygon fill="midnightblue" stroke="midnightblue" points="819.62,-198.7 809.03,-198.52 817.19,-205.27 819.62,-198.7"/>
</g>
<!-- Node11&#45;&gt;Node2 -->
<g id="edge31" class="edge">
<title>Node11&#45;&gt;Node2</title>
<path fill="none" stroke="midnightblue" d="M808.23,-179.46C883.31,-150.64 1127.6,-56.84 1215.3,-23.17"/>
<polygon fill="midnightblue" stroke="midnightblue" points="1216.64,-26.41 1224.72,-19.55 1214.13,-19.87 1216.64,-26.41"/>
</g>
<!-- Node11&#45;&gt;Node3 -->
<g id="edge34" class="edge">
<title>Node11&#45;&gt;Node3</title>
<path fill="none" stroke="midnightblue" d="M732.32,-181.58C694.13,-175.45 642.45,-163.95 601,-143 598.41,-141.69 522.23,-78.63 521,-76 517.24,-67.95 515.09,-62.64 521,-56 542.84,-31.49 753.09,-18.35 855.07,-13.38"/>
<polygon fill="midnightblue" stroke="midnightblue" points="855.36,-16.87 865.18,-12.89 855.03,-9.87 855.36,-16.87"/>
</g>
<!-- Node11&#45;&gt;Node5 -->
<g id="edge51" class="edge">
<title>Node11&#45;&gt;Node5</title>
<path fill="none" stroke="midnightblue" d="M732.46,-186.8C662.9,-183.97 538.36,-174.5 437,-143 389.17,-128.14 338.23,-98.54 310.34,-80.99"/>
<polygon fill="midnightblue" stroke="midnightblue" points="312.12,-77.97 301.81,-75.54 308.35,-83.87 312.12,-77.97"/>
</g>
<!-- Node11&#45;&gt;Node12 -->
<g id="edge32" class="edge">
<title>Node11&#45;&gt;Node12</title>
<path fill="none" stroke="midnightblue" d="M825.26,-179.48C879.25,-167.75 975.5,-146.85 1026.36,-135.81"/>
<polygon fill="midnightblue" stroke="midnightblue" points="1027.17,-139.21 1036.2,-133.67 1025.68,-132.37 1027.17,-139.21"/>
</g>
<!-- Node13 -->
<g id="node13" class="node">
<title>Node13</title>
<g id="a_node13"><a xlink:title=" ">
<polygon fill="none" stroke="#bfbfbf" points="902.5,-56.5 902.5,-75.5 971.5,-75.5 971.5,-56.5 902.5,-56.5"/>
<text text-anchor="middle" x="937" y="-63.5" font-family="Helvetica,sans-Serif" font-size="10.00">type_traits</text>
</a>
</g>
</g>
<!-- Node11&#45;&gt;Node13 -->
<g id="edge33" class="edge">
<title>Node11&#45;&gt;Node13</title>
<path fill="none" stroke="midnightblue" d="M796.68,-179.3C814.09,-165.13 849.67,-136.23 880,-112 892.59,-101.94 906.82,-90.71 917.91,-81.98"/>
<polygon fill="midnightblue" stroke="midnightblue" points="920.34,-84.52 926.04,-75.59 916.02,-79.02 920.34,-84.52"/>
</g>
<!-- Node14 -->
<g id="node14" class="node">
<title>Node14</title>
<g id="a_node14"><a xlink:title=" ">
<polygon fill="none" stroke="#bfbfbf" points="610,-118 610,-137 674,-137 674,-118 610,-118"/>
<text text-anchor="middle" x="642" y="-125" font-family="Helvetica,sans-Serif" font-size="10.00">algorithm</text>
</a>
</g>
</g>
<!-- Node11&#45;&gt;Node14 -->
<g id="edge35" class="edge">
<title>Node11&#45;&gt;Node14</title>
<path fill="none" stroke="midnightblue" d="M765.37,-179.48C740.88,-169.36 699.85,-152.4 671.89,-140.85"/>
<polygon fill="midnightblue" stroke="midnightblue" points="673.17,-137.59 662.59,-137.01 670.5,-144.06 673.17,-137.59"/>
</g>
<!-- Node15 -->
<g id="node15" class="node">
<title>Node15</title>
<g id="a_node15"><a xlink:href="limes__assert_8h.html" target="_top" xlink:title=" ">
<polygon fill="none" stroke="black" points="692,-118 692,-137 828,-137 828,-118 692,-118"/>
<text text-anchor="middle" x="760" y="-125" font-family="Helvetica,sans-Serif" font-size="10.00">../system/limes_assert.h</text>
</a>
</g>
</g>
<!-- Node11&#45;&gt;Node15 -->
<g id="edge36" class="edge">
<title>Node11&#45;&gt;Node15</title>
<path fill="none" stroke="midnightblue" d="M782.27,-179.48C778.53,-170.9 772.64,-157.43 767.86,-146.48"/>
<polygon fill="midnightblue" stroke="midnightblue" points="770.93,-144.77 763.72,-137.01 764.52,-147.57 770.93,-144.77"/>
</g>
<!-- Node19 -->
<g id="node19" class="node">
<title>Node19</title>
<g id="a_node19"><a xlink:href="compiler__defs_8h.html" target="_top" xlink:title=" ">
<polygon fill="none" stroke="black" points="446.5,-112.5 446.5,-142.5 553.5,-142.5 553.5,-112.5 446.5,-112.5"/>
<text text-anchor="start" x="454.5" y="-130.5" font-family="Helvetica,sans-Serif" font-size="10.00">../system/compiler</text>
<text text-anchor="middle" x="500" y="-119.5" font-family="Helvetica,sans-Serif" font-size="10.00">_defs.h</text>
</a>
</g>
</g>
<!-- Node11&#45;&gt;Node19 -->
<g id="edge48" class="edge">
<title>Node11&#45;&gt;Node19</title>
<path fill="none" stroke="midnightblue" d="M744.19,-179.45C700.29,-170.46 629.27,-155.86 568,-143 566.56,-142.7 565.1,-142.39 563.63,-142.08"/>
<polygon fill="midnightblue" stroke="midnightblue" points="564.32,-138.65 553.81,-140.01 562.88,-145.5 564.32,-138.65"/>
</g>
<!-- Node15&#45;&gt;Node2 -->
<g id="edge38" class="edge">
<title>Node15&#45;&gt;Node2</title>
<path fill="none" stroke="midnightblue" d="M776.2,-117.89C811.48,-99.14 892.22,-56.25 893,-56 989.54,-25.4 1107.12,-15.53 1179.51,-12.4"/>
<polygon fill="midnightblue" stroke="midnightblue" points="1180.01,-15.88 1189.86,-11.98 1179.73,-8.88 1180.01,-15.88"/>
</g>
<!-- Node15&#45;&gt;Node3 -->
<g id="edge37" class="edge">
<title>Node15&#45;&gt;Node3</title>
<path fill="none" stroke="midnightblue" d="M723.24,-117.97C686.81,-108.69 634.78,-92.9 623,-76 617.92,-68.71 617.22,-62.75 623,-56 652.28,-21.78 780.39,-13.4 855.19,-11.47"/>
<polygon fill="midnightblue" stroke="midnightblue" points="855.45,-14.96 865.37,-11.24 855.29,-7.96 855.45,-14.96"/>
</g>
<!-- Node15&#45;&gt;Node4 -->
<g id="edge46" class="edge">
<title>Node15&#45;&gt;Node4</title>
<path fill="none" stroke="midnightblue" d="M716.73,-117.96C652.97,-105.28 539.3,-82.3 521,-76 480.96,-62.22 437.37,-39.25 411.38,-24.63"/>
<polygon fill="midnightblue" stroke="midnightblue" points="413.06,-21.56 402.64,-19.66 409.6,-27.65 413.06,-21.56"/>
</g>
<!-- Node15&#45;&gt;Node5 -->
<g id="edge39" class="edge">
<title>Node15&#45;&gt;Node5</title>
<path fill="none" stroke="midnightblue" d="M717.73,-117.97C706.47,-115.85 694.3,-113.71 683,-112 574.96,-95.68 449.44,-82.3 369.65,-74.49"/>
<polygon fill="midnightblue" stroke="midnightblue" points="369.96,-71 359.66,-73.51 369.28,-77.97 369.96,-71"/>
</g>
<!-- Node15&#45;&gt;Node13 -->
<g id="edge40" class="edge">
<title>Node15&#45;&gt;Node13</title>
<path fill="none" stroke="midnightblue" d="M785.36,-117.98C815.98,-107.68 867.66,-90.31 902.05,-78.75"/>
<polygon fill="midnightblue" stroke="midnightblue" points="903.32,-82.01 911.69,-75.51 901.09,-75.38 903.32,-82.01"/>
</g>
<!-- Node16 -->
<g id="node16" class="node">
<title>Node16</title>
<g id="a_node16"><a xlink:title=" ">
<polygon fill="none" stroke="#bfbfbf" points="530.5,-56.5 530.5,-75.5 575.5,-75.5 575.5,-56.5 530.5,-56.5"/>
<text text-anchor="middle" x="553" y="-63.5" font-family="Helvetica,sans-Serif" font-size="10.00">utility</text>
</a>
</g>
</g>
<!-- Node15&#45;&gt;Node16 -->
<g id="edge41" class="edge">
<title>Node15&#45;&gt;Node16</title>
<path fill="none" stroke="midnightblue" d="M730.34,-117.98C691.88,-106.92 625.03,-87.7 585.31,-76.29"/>
<polygon fill="midnightblue" stroke="midnightblue" points="586.17,-72.89 575.59,-73.49 584.24,-79.62 586.17,-72.89"/>
</g>
<!-- Node17 -->
<g id="node17" class="node">
<title>Node17</title>
<g id="a_node17"><a xlink:href="_ignore_unused_8h.html" target="_top" xlink:title=" ">
<polygon fill="none" stroke="black" points="718,-56.5 718,-75.5 846,-75.5 846,-56.5 718,-56.5"/>
<text text-anchor="middle" x="782" y="-63.5" font-family="Helvetica,sans-Serif" font-size="10.00">../misc/IgnoreUnused.h</text>
</a>
</g>
</g>
<!-- Node15&#45;&gt;Node17 -->
<g id="edge42" class="edge">
<title>Node15&#45;&gt;Node17</title>
<path fill="none" stroke="midnightblue" d="M763.15,-117.98C766.32,-109.4 771.3,-95.93 775.35,-84.98"/>
<polygon fill="midnightblue" stroke="midnightblue" points="778.67,-86.1 778.85,-75.51 772.1,-83.67 778.67,-86.1"/>
</g>
<!-- Node18 -->
<g id="node18" class="node">
<title>Node18</title>
<g id="a_node18"><a xlink:title=" ">
<polygon fill="none" stroke="#bfbfbf" points="632,-56.5 632,-75.5 700,-75.5 700,-56.5 632,-56.5"/>
<text text-anchor="middle" x="666" y="-63.5" font-family="Helvetica,sans-Serif" font-size="10.00">filesystem</text>
</a>
</g>
</g>
<!-- Node15&#45;&gt;Node18 -->
<g id="edge47" class="edge">
<title>Node15&#45;&gt;Node18</title>
<path fill="none" stroke="midnightblue" d="M746.53,-117.98C731.32,-108.34 706.31,-92.52 688.2,-81.05"/>
<polygon fill="midnightblue" stroke="midnightblue" points="689.76,-77.9 679.44,-75.51 686.02,-83.81 689.76,-77.9"/>
</g>
<!-- Node17&#45;&gt;Node2 -->
<g id="edge44" class="edge">
<title>Node17&#45;&gt;Node2</title>
<path fill="none" stroke="midnightblue" d="M846.17,-57.55C933.85,-47.37 1090.38,-29.19 1179.68,-18.82"/>
<polygon fill="midnightblue" stroke="midnightblue" points="1180.17,-22.28 1189.7,-17.65 1179.36,-15.33 1180.17,-22.28"/>
</g>
<!-- Node17&#45;&gt;Node3 -->
<g id="edge43" class="edge">
<title>Node17&#45;&gt;Node3</title>
<path fill="none" stroke="midnightblue" d="M802.28,-56.44C823.35,-47.56 856.52,-33.56 880.49,-23.45"/>
<polygon fill="midnightblue" stroke="midnightblue" points="881.96,-26.63 889.81,-19.52 879.24,-20.18 881.96,-26.63"/>
</g>
<!-- Node17&#45;&gt;Node4 -->
<g id="edge45" class="edge">
<title>Node17&#45;&gt;Node4</title>
<path fill="none" stroke="midnightblue" d="M719.57,-56.44C645.17,-46.25 521.72,-29.33 448.28,-19.26"/>
<polygon fill="midnightblue" stroke="midnightblue" points="448.64,-15.78 438.26,-17.89 447.69,-22.71 448.64,-15.78"/>
</g>
<!-- Node19&#45;&gt;Node4 -->
<g id="edge49" class="edge">
<title>Node19&#45;&gt;Node4</title>
<path fill="none" stroke="midnightblue" d="M485.92,-112.42C475.86,-102.33 462.04,-88.39 450,-76 433.98,-59.51 415.85,-40.46 403.36,-27.27"/>
<polygon fill="midnightblue" stroke="midnightblue" points="405.79,-24.74 396.37,-19.88 400.7,-29.55 405.79,-24.74"/>
</g>
<!-- Node19&#45;&gt;Node5 -->
<g id="edge50" class="edge">
<title>Node19&#45;&gt;Node5</title>
<path fill="none" stroke="midnightblue" d="M450.26,-112.47C413.23,-102.03 363.32,-87.96 328.88,-78.25"/>
<polygon fill="midnightblue" stroke="midnightblue" points="329.74,-74.85 319.17,-75.51 327.84,-81.59 329.74,-74.85"/>
</g>
<!-- Node20&#45;&gt;Node2 -->
<g id="edge58" class="edge">
<title>Node20&#45;&gt;Node2</title>
<path fill="none" stroke="midnightblue" d="M1314.99,-56.32C1302.47,-47.98 1283.32,-35.21 1268.53,-25.35"/>
<polygon fill="midnightblue" stroke="midnightblue" points="1270.24,-22.29 1259.98,-19.65 1266.36,-28.11 1270.24,-22.29"/>
</g>
<!-- Node20&#45;&gt;Node3 -->
<g id="edge59" class="edge">
<title>Node20&#45;&gt;Node3</title>
<path fill="none" stroke="midnightblue" d="M1293.79,-60.58C1221.4,-51.23 1052.16,-29.37 964.62,-18.06"/>
<polygon fill="midnightblue" stroke="midnightblue" points="964.98,-14.57 954.62,-16.76 964.08,-21.52 964.98,-14.57"/>
</g>
</g>
</svg>
