<?xml version="1.0" encoding="UTF-8" standalone="no"?>
<!DOCTYPE svg PUBLIC "-//W3C//DTD SVG 1.1//EN"
 "http://www.w3.org/Graphics/SVG/1.1/DTD/svg11.dtd">
<!-- Generated by graphviz version 2.43.0 (0)
 -->
<!-- Title: rectangle.h Pages: 1 -->
<svg width="1249pt" height="364pt"
 viewBox="0.00 0.00 1249.00 364.00" xmlns="http://www.w3.org/2000/svg" xmlns:xlink="http://www.w3.org/1999/xlink">
<g id="graph0" class="graph" transform="scale(1 1) rotate(0) translate(4 360)">
<title>rectangle.h</title>
<!-- Node1 -->
<g id="node1" class="node">
<title>Node1</title>
<g id="a_node1"><a xlink:title=" ">
<polygon fill="#bfbfbf" stroke="black" points="937.5,-336.5 937.5,-355.5 1008.5,-355.5 1008.5,-336.5 937.5,-336.5"/>
<text text-anchor="middle" x="973" y="-343.5" font-family="Helvetica,sans-Serif" font-size="10.00">rectangle.h</text>
</a>
</g>
</g>
<!-- Node2 -->
<g id="node2" class="node">
<title>Node2</title>
<g id="a_node2"><a xlink:href="limes__namespace_8h.html" target="_top" xlink:title=" ">
<polygon fill="none" stroke="black" points="95,-0.5 95,-19.5 209,-19.5 209,-0.5 95,-0.5"/>
<text text-anchor="middle" x="152" y="-7.5" font-family="Helvetica,sans-Serif" font-size="10.00">limes_namespace.h</text>
</a>
</g>
</g>
<!-- Node1&#45;&gt;Node2 -->
<g id="edge1" class="edge">
<title>Node1&#45;&gt;Node2</title>
<path fill="none" stroke="midnightblue" d="M937.22,-344.79C761.67,-343.29 0,-331.26 0,-235 0,-235 0,-235 0,-121 0,-67.44 62.71,-37.3 107.57,-22.59"/>
<polygon fill="midnightblue" stroke="midnightblue" points="108.63,-25.93 117.13,-19.6 106.54,-19.25 108.63,-25.93"/>
</g>
<!-- Node3 -->
<g id="node3" class="node">
<title>Node3</title>
<g id="a_node3"><a xlink:title=" ">
<polygon fill="none" stroke="#bfbfbf" points="439.5,-0.5 439.5,-19.5 528.5,-19.5 528.5,-0.5 439.5,-0.5"/>
<text text-anchor="middle" x="484" y="-7.5" font-family="Helvetica,sans-Serif" font-size="10.00">limes_export.h</text>
</a>
</g>
</g>
<!-- Node1&#45;&gt;Node3 -->
<g id="edge2" class="edge">
<title>Node1&#45;&gt;Node3</title>
<path fill="none" stroke="midnightblue" d="M1008.69,-343.76C1073.29,-339.42 1203,-320.09 1203,-235 1203,-235 1203,-235 1203,-121 1203,-90.9 1207.49,-74.82 1184,-56 1134.12,-16.05 695.34,-11.36 539.01,-10.97"/>
<polygon fill="midnightblue" stroke="midnightblue" points="538.7,-7.47 528.69,-10.95 538.69,-14.47 538.7,-7.47"/>
</g>
<!-- Node4 -->
<g id="node4" class="node">
<title>Node4</title>
<g id="a_node4"><a xlink:title=" ">
<polygon fill="none" stroke="#bfbfbf" points="955,-0.5 955,-19.5 1055,-19.5 1055,-0.5 955,-0.5"/>
<text text-anchor="middle" x="1005" y="-7.5" font-family="Helvetica,sans-Serif" font-size="10.00">limes_platform.h</text>
</a>
</g>
</g>
<!-- Node1&#45;&gt;Node4 -->
<g id="edge3" class="edge">
<title>Node1&#45;&gt;Node4</title>
<path fill="none" stroke="midnightblue" d="M1008.94,-342.68C1068.95,-338.12 1186.02,-326.08 1217,-300 1240.56,-280.17 1241,-265.8 1241,-235 1241,-235 1241,-235 1241,-121 1241,-90.2 1240.29,-76.15 1217,-56 1194.68,-36.69 1120.09,-24.15 1065.69,-17.33"/>
<polygon fill="midnightblue" stroke="midnightblue" points="1065.79,-13.82 1055.44,-16.08 1064.94,-20.77 1065.79,-13.82"/>
</g>
<!-- Node5 -->
<g id="node5" class="node">
<title>Node5</title>
<g id="a_node5"><a xlink:href="2_dshape_8h.html" target="_top" xlink:title=" ">
<polygon fill="none" stroke="black" points="66,-168.5 66,-187.5 134,-187.5 134,-168.5 66,-168.5"/>
<text text-anchor="middle" x="100" y="-175.5" font-family="Helvetica,sans-Serif" font-size="10.00">2Dshape.h</text>
</a>
</g>
</g>
<!-- Node1&#45;&gt;Node5 -->
<g id="edge4" class="edge">
<title>Node1&#45;&gt;Node5</title>
<path fill="none" stroke="midnightblue" d="M937.32,-341.51C837.16,-331.31 545.24,-298.75 308,-244 245.13,-229.49 173.71,-205.47 133.04,-191.04"/>
<polygon fill="midnightblue" stroke="midnightblue" points="133.98,-187.66 123.39,-187.59 131.63,-194.25 133.98,-187.66"/>
</g>
<!-- Node6 -->
<g id="node6" class="node">
<title>Node6</title>
<g id="a_node6"><a xlink:href="preprocessor_8h.html" target="_top" xlink:title=" ">
<polygon fill="none" stroke="black" points="1033.5,-56.5 1033.5,-75.5 1174.5,-75.5 1174.5,-56.5 1033.5,-56.5"/>
<text text-anchor="middle" x="1104" y="-63.5" font-family="Helvetica,sans-Serif" font-size="10.00">../../../misc/preprocessor.h</text>
</a>
</g>
</g>
<!-- Node1&#45;&gt;Node6 -->
<g id="edge7" class="edge">
<title>Node1&#45;&gt;Node6</title>
<path fill="none" stroke="midnightblue" d="M997.98,-336.47C1035.23,-321.97 1101,-288.77 1101,-235 1101,-235 1101,-235 1101,-177 1101,-144.94 1102.29,-107.63 1103.18,-85.74"/>
<polygon fill="midnightblue" stroke="midnightblue" points="1106.68,-85.69 1103.61,-75.56 1099.69,-85.4 1106.68,-85.69"/>
</g>
<!-- Node7 -->
<g id="node7" class="node">
<title>Node7</title>
<g id="a_node7"><a xlink:href="triangle_8h.html" target="_top" xlink:title=" ">
<polygon fill="none" stroke="black" points="827.5,-280.5 827.5,-299.5 890.5,-299.5 890.5,-280.5 827.5,-280.5"/>
<text text-anchor="middle" x="859" y="-287.5" font-family="Helvetica,sans-Serif" font-size="10.00">triangle.h</text>
</a>
</g>
</g>
<!-- Node1&#45;&gt;Node7 -->
<g id="edge9" class="edge">
<title>Node1&#45;&gt;Node7</title>
<path fill="none" stroke="midnightblue" d="M954.94,-336.44C936.43,-327.68 907.42,-313.94 886.14,-303.86"/>
<polygon fill="midnightblue" stroke="midnightblue" points="887.51,-300.63 876.98,-299.52 884.52,-306.96 887.51,-300.63"/>
</g>
<!-- Node10 -->
<g id="node10" class="node">
<title>Node10</title>
<g id="a_node10"><a xlink:title=" ">
<polygon fill="none" stroke="#bfbfbf" points="925.5,-112.5 925.5,-131.5 972.5,-131.5 972.5,-112.5 925.5,-112.5"/>
<text text-anchor="middle" x="949" y="-119.5" font-family="Helvetica,sans-Serif" font-size="10.00">cmath</text>
</a>
</g>
</g>
<!-- Node1&#45;&gt;Node10 -->
<g id="edge39" class="edge">
<title>Node1&#45;&gt;Node10</title>
<path fill="none" stroke="midnightblue" d="M972.06,-336.3C968.53,-303.63 956.01,-187.87 951.05,-141.96"/>
<polygon fill="midnightblue" stroke="midnightblue" points="954.52,-141.45 949.96,-131.88 947.56,-142.2 954.52,-141.45"/>
</g>
<!-- Node5&#45;&gt;Node2 -->
<g id="edge5" class="edge">
<title>Node5&#45;&gt;Node2</title>
<path fill="none" stroke="midnightblue" d="M97.65,-168.27C92.56,-147.62 82.36,-94.59 100,-56 105.78,-43.36 117.05,-32.91 127.63,-25.27"/>
<polygon fill="midnightblue" stroke="midnightblue" points="129.85,-28 136.22,-19.53 125.96,-22.18 129.85,-28"/>
</g>
<!-- Node5&#45;&gt;Node3 -->
<g id="edge6" class="edge">
<title>Node5&#45;&gt;Node3</title>
<path fill="none" stroke="midnightblue" d="M105.14,-168.49C119.29,-145.88 161.29,-84.13 214,-56 250.39,-36.58 361.57,-22.81 429.39,-15.95"/>
<polygon fill="midnightblue" stroke="midnightblue" points="429.87,-19.42 439.47,-14.95 429.17,-12.45 429.87,-19.42"/>
</g>
<!-- Node6&#45;&gt;Node4 -->
<g id="edge8" class="edge">
<title>Node6&#45;&gt;Node4</title>
<path fill="none" stroke="midnightblue" d="M1088.09,-56.32C1072.36,-47.74 1048.06,-34.49 1029.79,-24.52"/>
<polygon fill="midnightblue" stroke="midnightblue" points="1031.32,-21.37 1020.87,-19.65 1027.97,-27.52 1031.32,-21.37"/>
</g>
<!-- Node7&#45;&gt;Node2 -->
<g id="edge10" class="edge">
<title>Node7&#45;&gt;Node2</title>
<path fill="none" stroke="midnightblue" d="M827.32,-287.56C684.61,-280.73 106.2,-249.39 57,-188 33.62,-158.83 -2.05,-185.05 89,-56 98.23,-42.92 112.5,-32.27 125.14,-24.62"/>
<polygon fill="midnightblue" stroke="midnightblue" points="127,-27.59 133.95,-19.59 123.53,-21.51 127,-27.59"/>
</g>
<!-- Node7&#45;&gt;Node3 -->
<g id="edge11" class="edge">
<title>Node7&#45;&gt;Node3</title>
<path fill="none" stroke="midnightblue" d="M861.03,-280.32C869.74,-242.18 902.11,-89.81 872,-56 850.22,-31.55 640.5,-18.38 538.79,-13.39"/>
<polygon fill="midnightblue" stroke="midnightblue" points="538.86,-9.89 528.7,-12.9 538.52,-16.88 538.86,-9.89"/>
</g>
<!-- Node7&#45;&gt;Node4 -->
<g id="edge12" class="edge">
<title>Node7&#45;&gt;Node4</title>
<path fill="none" stroke="midnightblue" d="M868.73,-280.24C892.61,-258.08 954.23,-196.95 982,-132 996.66,-97.71 1002.02,-53.99 1003.95,-29.6"/>
<polygon fill="midnightblue" stroke="midnightblue" points="1007.44,-29.79 1004.63,-19.58 1000.46,-29.32 1007.44,-29.79"/>
</g>
<!-- Node7&#45;&gt;Node5 -->
<g id="edge13" class="edge">
<title>Node7&#45;&gt;Node5</title>
<path fill="none" stroke="midnightblue" d="M827.31,-286.86C754.65,-281.71 570.53,-267.31 418,-244 319.53,-228.95 205.42,-203.69 144.23,-189.5"/>
<polygon fill="midnightblue" stroke="midnightblue" points="144.68,-186.01 134.15,-187.15 143.1,-192.83 144.68,-186.01"/>
</g>
<!-- Node7&#45;&gt;Node6 -->
<g id="edge14" class="edge">
<title>Node7&#45;&gt;Node6</title>
<path fill="none" stroke="midnightblue" d="M890.52,-288.29C926.95,-285.86 986.77,-276.71 1025,-244 1037.96,-232.91 1079.97,-128.3 1096.87,-85.31"/>
<polygon fill="midnightblue" stroke="midnightblue" points="1100.2,-86.39 1100.59,-75.8 1093.68,-83.84 1100.2,-86.39"/>
</g>
<!-- Node8 -->
<g id="node8" class="node">
<title>Node8</title>
<g id="a_node8"><a xlink:href="angle_8h.html" target="_top" xlink:title=" ">
<polygon fill="none" stroke="black" points="426.5,-224.5 426.5,-243.5 479.5,-243.5 479.5,-224.5 426.5,-224.5"/>
<text text-anchor="middle" x="453" y="-231.5" font-family="Helvetica,sans-Serif" font-size="10.00">angle.h</text>
</a>
</g>
</g>
<!-- Node7&#45;&gt;Node8 -->
<g id="edge15" class="edge">
<title>Node7&#45;&gt;Node8</title>
<path fill="none" stroke="midnightblue" d="M827.48,-284.81C753.39,-274.95 568.5,-250.36 489.61,-239.87"/>
<polygon fill="midnightblue" stroke="midnightblue" points="490.02,-236.39 479.64,-238.54 489.1,-243.33 490.02,-236.39"/>
</g>
<!-- Node9 -->
<g id="node9" class="node">
<title>Node9</title>
<g id="a_node9"><a xlink:href="math_helpers_8h.html" target="_top" xlink:title=" ">
<polygon fill="none" stroke="black" points="399.5,-168.5 399.5,-187.5 506.5,-187.5 506.5,-168.5 399.5,-168.5"/>
<text text-anchor="middle" x="453" y="-175.5" font-family="Helvetica,sans-Serif" font-size="10.00">../../mathHelpers.h</text>
</a>
</g>
</g>
<!-- Node7&#45;&gt;Node9 -->
<g id="edge37" class="edge">
<title>Node7&#45;&gt;Node9</title>
<path fill="none" stroke="midnightblue" d="M827.48,-280.46C754.85,-260.78 575.73,-212.25 494.39,-190.21"/>
<polygon fill="midnightblue" stroke="midnightblue" points="495.07,-186.77 484.5,-187.53 493.24,-193.53 495.07,-186.77"/>
</g>
<!-- Node7&#45;&gt;Node10 -->
<g id="edge38" class="edge">
<title>Node7&#45;&gt;Node10</title>
<path fill="none" stroke="midnightblue" d="M863.84,-280.08C878.13,-253.72 920.33,-175.88 939.42,-140.66"/>
<polygon fill="midnightblue" stroke="midnightblue" points="942.67,-142.03 944.35,-131.57 936.51,-138.69 942.67,-142.03"/>
</g>
<!-- Node8&#45;&gt;Node2 -->
<g id="edge17" class="edge">
<title>Node8&#45;&gt;Node2</title>
<path fill="none" stroke="midnightblue" d="M426.33,-227.42C398.12,-220.79 352.94,-208.02 318,-188 252.41,-150.42 238.15,-134.28 190,-76 177.93,-61.38 167.34,-42.47 160.42,-28.81"/>
<polygon fill="midnightblue" stroke="midnightblue" points="163.43,-27 155.89,-19.56 157.15,-30.08 163.43,-27"/>
</g>
<!-- Node8&#45;&gt;Node3 -->
<g id="edge16" class="edge">
<title>Node8&#45;&gt;Node3</title>
<path fill="none" stroke="midnightblue" d="M431.2,-224.49C371.82,-200.12 215.38,-127.21 273,-56 292.3,-32.15 373.29,-20.4 429.12,-15.03"/>
<polygon fill="midnightblue" stroke="midnightblue" points="429.6,-18.5 439.23,-14.1 428.95,-11.53 429.6,-18.5"/>
</g>
<!-- Node8&#45;&gt;Node4 -->
<g id="edge18" class="edge">
<title>Node8&#45;&gt;Node4</title>
<path fill="none" stroke="midnightblue" d="M479.65,-229.22C556.68,-217.33 784.21,-175.46 943,-76 963.14,-63.39 981.27,-42.76 992.65,-28.13"/>
<polygon fill="midnightblue" stroke="midnightblue" points="995.61,-30.02 998.82,-19.92 990.01,-25.81 995.61,-30.02"/>
</g>
<!-- Node8&#45;&gt;Node9 -->
<g id="edge19" class="edge">
<title>Node8&#45;&gt;Node9</title>
<path fill="none" stroke="midnightblue" d="M453,-224.08C453,-217.01 453,-206.86 453,-197.99"/>
<polygon fill="midnightblue" stroke="midnightblue" points="456.5,-197.75 453,-187.75 449.5,-197.75 456.5,-197.75"/>
</g>
<!-- Node9&#45;&gt;Node2 -->
<g id="edge20" class="edge">
<title>Node9&#45;&gt;Node2</title>
<path fill="none" stroke="midnightblue" d="M400.77,-168.46C368.14,-161.69 326.01,-150.26 292,-132 239.64,-103.89 189.85,-53.23 166.26,-27.28"/>
<polygon fill="midnightblue" stroke="midnightblue" points="168.82,-24.9 159.55,-19.78 163.61,-29.57 168.82,-24.9"/>
</g>
<!-- Node9&#45;&gt;Node3 -->
<g id="edge23" class="edge">
<title>Node9&#45;&gt;Node3</title>
<path fill="none" stroke="midnightblue" d="M419.8,-168.43C359.7,-151.35 242.89,-110.01 286,-56 303.63,-33.92 376.82,-21.84 429.08,-15.91"/>
<polygon fill="midnightblue" stroke="midnightblue" points="429.67,-19.36 439.23,-14.8 428.91,-12.4 429.67,-19.36"/>
</g>
<!-- Node9&#45;&gt;Node10 -->
<g id="edge21" class="edge">
<title>Node9&#45;&gt;Node10</title>
<path fill="none" stroke="midnightblue" d="M506.55,-171.17C609.13,-160 830.64,-135.89 915.23,-126.68"/>
<polygon fill="midnightblue" stroke="midnightblue" points="915.75,-130.14 925.31,-125.58 914.99,-123.18 915.75,-130.14"/>
</g>
<!-- Node11 -->
<g id="node11" class="node">
<title>Node11</title>
<g id="a_node11"><a xlink:title=" ">
<polygon fill="none" stroke="#bfbfbf" points="294.5,-56.5 294.5,-75.5 363.5,-75.5 363.5,-56.5 294.5,-56.5"/>
<text text-anchor="middle" x="329" y="-63.5" font-family="Helvetica,sans-Serif" font-size="10.00">type_traits</text>
</a>
</g>
</g>
<!-- Node9&#45;&gt;Node11 -->
<g id="edge22" class="edge">
<title>Node9&#45;&gt;Node11</title>
<path fill="none" stroke="midnightblue" d="M443.27,-168.37C422.35,-149.81 372.87,-105.91 346.4,-82.44"/>
<polygon fill="midnightblue" stroke="midnightblue" points="348.49,-79.61 338.68,-75.59 343.84,-84.85 348.49,-79.61"/>
</g>
<!-- Node12 -->
<g id="node12" class="node">
<title>Node12</title>
<g id="a_node12"><a xlink:title=" ">
<polygon fill="none" stroke="#bfbfbf" points="421,-112.5 421,-131.5 485,-131.5 485,-112.5 421,-112.5"/>
<text text-anchor="middle" x="453" y="-119.5" font-family="Helvetica,sans-Serif" font-size="10.00">algorithm</text>
</a>
</g>
</g>
<!-- Node9&#45;&gt;Node12 -->
<g id="edge24" class="edge">
<title>Node9&#45;&gt;Node12</title>
<path fill="none" stroke="midnightblue" d="M453,-168.08C453,-161.01 453,-150.86 453,-141.99"/>
<polygon fill="midnightblue" stroke="midnightblue" points="456.5,-141.75 453,-131.75 449.5,-141.75 456.5,-141.75"/>
</g>
<!-- Node13 -->
<g id="node13" class="node">
<title>Node13</title>
<g id="a_node13"><a xlink:href="limes__assert_8h.html" target="_top" xlink:title=" ">
<polygon fill="none" stroke="black" points="533,-112.5 533,-131.5 669,-131.5 669,-112.5 533,-112.5"/>
<text text-anchor="middle" x="601" y="-119.5" font-family="Helvetica,sans-Serif" font-size="10.00">../system/limes_assert.h</text>
</a>
</g>
</g>
<!-- Node9&#45;&gt;Node13 -->
<g id="edge25" class="edge">
<title>Node9&#45;&gt;Node13</title>
<path fill="none" stroke="midnightblue" d="M476.45,-168.44C501.13,-159.44 540.19,-145.19 567.98,-135.05"/>
<polygon fill="midnightblue" stroke="midnightblue" points="569.46,-138.23 577.66,-131.52 567.06,-131.66 569.46,-138.23"/>
</g>
<!-- Node13&#45;&gt;Node2 -->
<g id="edge27" class="edge">
<title>Node13&#45;&gt;Node2</title>
<path fill="none" stroke="midnightblue" d="M549.56,-112.46C510.74,-105.14 456.55,-93.07 411,-76 393.13,-69.3 390.98,-62.41 373,-56 322.88,-38.12 263.68,-26.54 219.18,-19.61"/>
<polygon fill="midnightblue" stroke="midnightblue" points="219.47,-16.12 209.06,-18.08 218.42,-23.04 219.47,-16.12"/>
</g>
<!-- Node13&#45;&gt;Node3 -->
<g id="edge26" class="edge">
<title>Node13&#45;&gt;Node3</title>
<path fill="none" stroke="midnightblue" d="M596.58,-112.15C589.59,-98.77 574.91,-73.16 557,-56 543.68,-43.24 526.16,-32.29 511.63,-24.39"/>
<polygon fill="midnightblue" stroke="midnightblue" points="513.06,-21.19 502.58,-19.65 509.81,-27.39 513.06,-21.19"/>
</g>
<!-- Node13&#45;&gt;Node4 -->
<g id="edge35" class="edge">
<title>Node13&#45;&gt;Node4</title>
<path fill="none" stroke="midnightblue" d="M669.1,-115.21C724.7,-109.18 804.77,-97.5 872,-76 912.55,-63.03 956.31,-39.63 982.15,-24.73"/>
<polygon fill="midnightblue" stroke="midnightblue" points="983.95,-27.73 990.82,-19.66 980.42,-21.68 983.95,-27.73"/>
</g>
<!-- Node13&#45;&gt;Node6 -->
<g id="edge28" class="edge">
<title>Node13&#45;&gt;Node6</title>
<path fill="none" stroke="midnightblue" d="M669.1,-113.69C761.12,-103.81 924.92,-86.22 1023.1,-75.68"/>
<polygon fill="midnightblue" stroke="midnightblue" points="1023.71,-79.14 1033.28,-74.59 1022.96,-72.18 1023.71,-79.14"/>
</g>
<!-- Node13&#45;&gt;Node11 -->
<g id="edge29" class="edge">
<title>Node13&#45;&gt;Node11</title>
<path fill="none" stroke="midnightblue" d="M557.9,-112.44C507.59,-102.46 424.79,-86.02 373.77,-75.89"/>
<polygon fill="midnightblue" stroke="midnightblue" points="374.19,-72.4 363.7,-73.89 372.83,-79.27 374.19,-72.4"/>
</g>
<!-- Node14 -->
<g id="node14" class="node">
<title>Node14</title>
<g id="a_node14"><a xlink:title=" ">
<polygon fill="none" stroke="#bfbfbf" points="604.5,-56.5 604.5,-75.5 649.5,-75.5 649.5,-56.5 604.5,-56.5"/>
<text text-anchor="middle" x="627" y="-63.5" font-family="Helvetica,sans-Serif" font-size="10.00">utility</text>
</a>
</g>
</g>
<!-- Node13&#45;&gt;Node14 -->
<g id="edge30" class="edge">
<title>Node13&#45;&gt;Node14</title>
<path fill="none" stroke="midnightblue" d="M605.29,-112.08C608.85,-104.69 614.02,-93.95 618.42,-84.81"/>
<polygon fill="midnightblue" stroke="midnightblue" points="621.6,-86.28 622.79,-75.75 615.29,-83.24 621.6,-86.28"/>
</g>
<!-- Node15 -->
<g id="node15" class="node">
<title>Node15</title>
<g id="a_node15"><a xlink:title=" ">
<polygon fill="none" stroke="#bfbfbf" points="667.5,-56.5 667.5,-75.5 776.5,-75.5 776.5,-56.5 667.5,-56.5"/>
<text text-anchor="middle" x="722" y="-63.5" font-family="Helvetica,sans-Serif" font-size="10.00">limes_build_type.h</text>
</a>
</g>
</g>
<!-- Node13&#45;&gt;Node15 -->
<g id="edge31" class="edge">
<title>Node13&#45;&gt;Node15</title>
<path fill="none" stroke="midnightblue" d="M620.17,-112.44C639.91,-103.64 670.89,-89.81 693.49,-79.72"/>
<polygon fill="midnightblue" stroke="midnightblue" points="695.21,-82.79 702.92,-75.52 692.36,-76.4 695.21,-82.79"/>
</g>
<!-- Node16 -->
<g id="node16" class="node">
<title>Node16</title>
<g id="a_node16"><a xlink:href="_ignore_unused_8h.html" target="_top" xlink:title=" ">
<polygon fill="none" stroke="black" points="420,-56.5 420,-75.5 548,-75.5 548,-56.5 420,-56.5"/>
<text text-anchor="middle" x="484" y="-63.5" font-family="Helvetica,sans-Serif" font-size="10.00">../misc/IgnoreUnused.h</text>
</a>
</g>
</g>
<!-- Node13&#45;&gt;Node16 -->
<g id="edge32" class="edge">
<title>Node13&#45;&gt;Node16</title>
<path fill="none" stroke="midnightblue" d="M582.46,-112.44C563.38,-103.64 533.43,-89.81 511.56,-79.72"/>
<polygon fill="midnightblue" stroke="midnightblue" points="513,-76.53 502.45,-75.52 510.07,-82.88 513,-76.53"/>
</g>
<!-- Node17 -->
<g id="node17" class="node">
<title>Node17</title>
<g id="a_node17"><a xlink:title=" ">
<polygon fill="none" stroke="#bfbfbf" points="795,-56.5 795,-75.5 863,-75.5 863,-56.5 795,-56.5"/>
<text text-anchor="middle" x="829" y="-63.5" font-family="Helvetica,sans-Serif" font-size="10.00">filesystem</text>
</a>
</g>
</g>
<!-- Node13&#45;&gt;Node17 -->
<g id="edge36" class="edge">
<title>Node13&#45;&gt;Node17</title>
<path fill="none" stroke="midnightblue" d="M637.13,-112.44C677.23,-102.94 741.97,-87.61 785,-77.42"/>
<polygon fill="midnightblue" stroke="midnightblue" points="785.98,-80.79 794.9,-75.08 784.37,-73.97 785.98,-80.79"/>
</g>
<!-- Node16&#45;&gt;Node2 -->
<g id="edge34" class="edge">
<title>Node16&#45;&gt;Node2</title>
<path fill="none" stroke="midnightblue" d="M431.39,-56.44C372.51,-46.87 277.15,-31.36 214.51,-21.17"/>
<polygon fill="midnightblue" stroke="midnightblue" points="214.79,-17.67 204.36,-19.52 213.67,-24.58 214.79,-17.67"/>
</g>
<!-- Node16&#45;&gt;Node3 -->
<g id="edge33" class="edge">
<title>Node16&#45;&gt;Node3</title>
<path fill="none" stroke="midnightblue" d="M484,-56.08C484,-49.01 484,-38.86 484,-29.99"/>
<polygon fill="midnightblue" stroke="midnightblue" points="487.5,-29.75 484,-19.75 480.5,-29.75 487.5,-29.75"/>
</g>
</g>
</svg>
