<?xml version="1.0" encoding="UTF-8" standalone="no"?>
<!DOCTYPE svg PUBLIC "-//W3C//DTD SVG 1.1//EN"
 "http://www.w3.org/Graphics/SVG/1.1/DTD/svg11.dtd">
<!-- Generated by graphviz version 2.43.0 (0)
 -->
<!-- Title: rectangular_prism.h Pages: 1 -->
<!--zoomable 476 -->
<svg id="main" version="1.1" xmlns="http://www.w3.org/2000/svg" xmlns:xlink="http://www.w3.org/1999/xlink" xml:space="preserve" onload="init(evt)">
<style type="text/css"><![CDATA[
.edge:hover path { stroke: red; }
.edge:hover polygon { stroke: red; fill: red; }
]]></style>
<script type="text/javascript"><![CDATA[
var edges = document.getElementsByTagName('g');
if (edges && edges.length) {
  for (var i=0;i<edges.length;i++) {
    if (edges[i].id.substr(0,4)=='edge') {
      edges[i].setAttribute('class','edge');
    }
  }
}
]]></script>
        <defs>
                <circle id="rim" cx="0" cy="0" r="7"/>
                <circle id="rim2" cx="0" cy="0" r="3.5"/>
                <g id="zoomPlus">
                        <use xlink:href="#rim" fill="#404040">
                                <set attributeName="fill" to="#808080" begin="zoomplus.mouseover" end="zoomplus.mouseout"/>
                        </use>
                        <path d="M-4,0h8M0,-4v8" fill="none" stroke="white" stroke-width="1.5" pointer-events="none"/>
                </g>
                <g id="zoomMin">
                        <use xlink:href="#rim" fill="#404040">
                                <set attributeName="fill" to="#808080" begin="zoomminus.mouseover" end="zoomminus.mouseout"/>
                        </use>
                        <path d="M-4,0h8" fill="none" stroke="white" stroke-width="1.5" pointer-events="none"/>
                </g>
                <g id="dirArrow">
                        <path fill="none" stroke="white" stroke-width="1.5" d="M0,-3.0v7 M-2.5,-0.5L0,-3.0L2.5,-0.5"/>
                </g>
               <g id="resetDef">
                       <use xlink:href="#rim2" fill="#404040">
                               <set attributeName="fill" to="#808080" begin="reset.mouseover" end="reset.mouseout"/>
                       </use>
               </g>
        </defs>

<script type="text/javascript">
var viewWidth = 1670;
var viewHeight = 476;
var sectionId = 'dynsection-0';
</script>
<script xlink:href="svgpan.js"/>
<svg id="graph" class="graph">
<g id="viewport">
<title>rectangular_prism.h</title>
<!-- Node1 -->
<g id="node1" class="node">
<title>Node1</title>
<g id="a_node1"><a xlink:title=" ">
<polygon fill="#bfbfbf" stroke="black" points="1176,-448.5 1176,-467.5 1290,-467.5 1290,-448.5 1176,-448.5"/>
<text text-anchor="middle" x="1233" y="-455.5" font-family="Helvetica,sans-Serif" font-size="10.00">rectangular_prism.h</text>
</a>
</g>
</g>
<!-- Node2 -->
<g id="node2" class="node">
<title>Node2</title>
<g id="a_node2"><a xlink:href="limes__namespace_8h.html" target="_top" xlink:title=" ">
<polygon fill="none" stroke="black" points="940,-0.5 940,-19.5 1054,-19.5 1054,-0.5 940,-0.5"/>
<text text-anchor="middle" x="997" y="-7.5" font-family="Helvetica,sans-Serif" font-size="10.00">limes_namespace.h</text>
</a>
</g>
</g>
<!-- Node1&#45;&gt;Node2 -->
<g id="edge1" class="edge">
<title>Node1&#45;&gt;Node2</title>
<path fill="none" stroke="midnightblue" d="M1175.76,-456.75C963.7,-455.06 235,-442.33 235,-347 235,-347 235,-347 235,-233 235,-130.17 292.42,-102.77 384,-56 431.59,-31.69 780.04,-17.87 929.37,-13.01"/>
<polygon fill="midnightblue" stroke="midnightblue" points="929.89,-16.5 939.77,-12.68 929.66,-9.5 929.89,-16.5"/>
</g>
<!-- Node3 -->
<g id="node3" class="node">
<title>Node3</title>
<g id="a_node3"><a xlink:title=" ">
<polygon fill="none" stroke="#bfbfbf" points="138.5,-0.5 138.5,-19.5 227.5,-19.5 227.5,-0.5 138.5,-0.5"/>
<text text-anchor="middle" x="183" y="-7.5" font-family="Helvetica,sans-Serif" font-size="10.00">limes_export.h</text>
</a>
</g>
</g>
<!-- Node1&#45;&gt;Node3 -->
<g id="edge2" class="edge">
<title>Node1&#45;&gt;Node3</title>
<path fill="none" stroke="midnightblue" d="M1175.84,-456.57C987.55,-454.83 387.99,-446.64 198,-412 106.88,-395.39 0,-439.62 0,-347 0,-347 0,-347 0,-121 0,-60.45 74.49,-32.39 128.43,-20.01"/>
<polygon fill="midnightblue" stroke="midnightblue" points="129.21,-23.42 138.23,-17.87 127.72,-16.58 129.21,-23.42"/>
</g>
<!-- Node4 -->
<g id="node4" class="node">
<title>Node4</title>
<g id="a_node4"><a xlink:title=" ">
<polygon fill="none" stroke="#bfbfbf" points="1384,-0.5 1384,-19.5 1484,-19.5 1484,-0.5 1384,-0.5"/>
<text text-anchor="middle" x="1434" y="-7.5" font-family="Helvetica,sans-Serif" font-size="10.00">limes_platform.h</text>
</a>
</g>
</g>
<!-- Node1&#45;&gt;Node4 -->
<g id="edge3" class="edge">
<title>Node1&#45;&gt;Node4</title>
<path fill="none" stroke="midnightblue" d="M1290.41,-454.26C1407.31,-447.11 1662,-422.83 1662,-347 1662,-347 1662,-347 1662,-121 1662,-46.38 1561.71,-22.35 1494.16,-14.64"/>
<polygon fill="midnightblue" stroke="midnightblue" points="1494.35,-11.14 1484.04,-13.57 1493.61,-18.1 1494.35,-11.14"/>
</g>
<!-- Node5 -->
<g id="node5" class="node">
<title>Node5</title>
<g id="a_node5"><a xlink:href="preprocessor_8h.html" target="_top" xlink:title=" ">
<polygon fill="none" stroke="black" points="1363.5,-56.5 1363.5,-75.5 1504.5,-75.5 1504.5,-56.5 1363.5,-56.5"/>
<text text-anchor="middle" x="1434" y="-63.5" font-family="Helvetica,sans-Serif" font-size="10.00">../../../misc/preprocessor.h</text>
</a>
</g>
</g>
<!-- Node1&#45;&gt;Node5 -->
<g id="edge4" class="edge">
<title>Node1&#45;&gt;Node5</title>
<path fill="none" stroke="midnightblue" d="M1290.27,-452.84C1398.88,-443.37 1624,-415.49 1624,-347 1624,-347 1624,-347 1624,-233 1624,-151.6 1523.87,-100.9 1468.99,-79.23"/>
<polygon fill="midnightblue" stroke="midnightblue" points="1470.21,-75.95 1459.62,-75.64 1467.71,-82.49 1470.21,-75.95"/>
</g>
<!-- Node6 -->
<g id="node6" class="node">
<title>Node6</title>
<g id="a_node6"><a xlink:href="square_8h.html" target="_top" xlink:title=" ">
<polygon fill="none" stroke="black" points="1191,-392.5 1191,-411.5 1275,-411.5 1275,-392.5 1191,-392.5"/>
<text text-anchor="middle" x="1233" y="-399.5" font-family="Helvetica,sans-Serif" font-size="10.00">../2D/square.h</text>
</a>
</g>
</g>
<!-- Node1&#45;&gt;Node6 -->
<g id="edge6" class="edge">
<title>Node1&#45;&gt;Node6</title>
<path fill="none" stroke="midnightblue" d="M1233,-448.08C1233,-441.01 1233,-430.86 1233,-421.99"/>
<polygon fill="midnightblue" stroke="midnightblue" points="1236.5,-421.75 1233,-411.75 1229.5,-421.75 1236.5,-421.75"/>
</g>
<!-- Node12 -->
<g id="node12" class="node">
<title>Node12</title>
<g id="a_node12"><a xlink:title=" ">
<polygon fill="none" stroke="#bfbfbf" points="1348.5,-112.5 1348.5,-131.5 1395.5,-131.5 1395.5,-112.5 1348.5,-112.5"/>
<text text-anchor="middle" x="1372" y="-119.5" font-family="Helvetica,sans-Serif" font-size="10.00">cmath</text>
</a>
</g>
</g>
<!-- Node1&#45;&gt;Node12 -->
<g id="edge56" class="edge">
<title>Node1&#45;&gt;Node12</title>
<path fill="none" stroke="midnightblue" d="M1242.87,-448.48C1253.21,-439.5 1269.89,-424.91 1284,-412 1310.67,-387.59 1321.48,-385.05 1343,-356 1375.45,-312.2 1381.43,-297.27 1393,-244 1400.18,-210.97 1404.2,-200.79 1396,-168 1393.56,-158.25 1388.56,-148.29 1383.76,-140.23"/>
<polygon fill="midnightblue" stroke="midnightblue" points="1386.69,-138.32 1378.37,-131.77 1380.79,-142.08 1386.69,-138.32"/>
</g>
<!-- Node20 -->
<g id="node20" class="node">
<title>Node20</title>
<g id="a_node20"><a xlink:href="3_dshape_8h.html" target="_top" xlink:title=" ">
<polygon fill="none" stroke="black" points="180,-56.5 180,-75.5 248,-75.5 248,-56.5 180,-56.5"/>
<text text-anchor="middle" x="214" y="-63.5" font-family="Helvetica,sans-Serif" font-size="10.00">3Dshape.h</text>
</a>
</g>
</g>
<!-- Node1&#45;&gt;Node20 -->
<g id="edge53" class="edge">
<title>Node1&#45;&gt;Node20</title>
<path fill="none" stroke="midnightblue" d="M1175.64,-456.19C967.16,-453.04 259.72,-440.28 221,-412 196.13,-393.84 197,-377.8 197,-347 197,-347 197,-347 197,-177 197,-144.58 204.3,-107.42 209.33,-85.64"/>
<polygon fill="midnightblue" stroke="midnightblue" points="212.77,-86.31 211.71,-75.77 205.97,-84.67 212.77,-86.31"/>
</g>
<!-- Node5&#45;&gt;Node4 -->
<g id="edge5" class="edge">
<title>Node5&#45;&gt;Node4</title>
<path fill="none" stroke="midnightblue" d="M1434,-56.08C1434,-49.01 1434,-38.86 1434,-29.99"/>
<polygon fill="midnightblue" stroke="midnightblue" points="1437.5,-29.75 1434,-19.75 1430.5,-29.75 1437.5,-29.75"/>
</g>
<!-- Node6&#45;&gt;Node2 -->
<g id="edge7" class="edge">
<title>Node6&#45;&gt;Node2</title>
<path fill="none" stroke="midnightblue" d="M1190.96,-400.25C1015.28,-396.57 349,-376.93 349,-291 349,-291 349,-291 349,-233 349,-149.79 344.15,-106.87 410,-56 450.34,-24.84 784.17,-14.92 929.66,-12.06"/>
<polygon fill="midnightblue" stroke="midnightblue" points="929.87,-15.55 939.8,-11.86 929.73,-8.55 929.87,-15.55"/>
</g>
<!-- Node6&#45;&gt;Node3 -->
<g id="edge8" class="edge">
<title>Node6&#45;&gt;Node3</title>
<path fill="none" stroke="midnightblue" d="M1190.81,-401.45C1045.34,-402.56 565.59,-402.53 420,-356 260.14,-304.91 165.29,-292.43 116,-132 111.55,-117.53 106.04,-76.3 117,-56 124.6,-41.92 138.76,-31.39 152.02,-24.07"/>
<polygon fill="midnightblue" stroke="midnightblue" points="153.64,-27.17 160.96,-19.51 150.46,-20.94 153.64,-27.17"/>
</g>
<!-- Node6&#45;&gt;Node4 -->
<g id="edge9" class="edge">
<title>Node6&#45;&gt;Node4</title>
<path fill="none" stroke="midnightblue" d="M1275.23,-396.84C1368.93,-386.45 1586,-355.43 1586,-291 1586,-291 1586,-291 1586,-121 1586,-67.44 1523.29,-37.3 1478.43,-22.59"/>
<polygon fill="midnightblue" stroke="midnightblue" points="1479.46,-19.25 1468.87,-19.6 1477.37,-25.93 1479.46,-19.25"/>
</g>
<!-- Node6&#45;&gt;Node5 -->
<g id="edge13" class="edge">
<title>Node6&#45;&gt;Node5</title>
<path fill="none" stroke="midnightblue" d="M1262.64,-392.49C1334.1,-371.57 1510,-317.39 1510,-291 1510,-291 1510,-291 1510,-233 1510,-173.8 1469.54,-112.61 1447.66,-83.86"/>
<polygon fill="midnightblue" stroke="midnightblue" points="1450.2,-81.43 1441.29,-75.71 1444.69,-85.74 1450.2,-81.43"/>
</g>
<!-- Node7 -->
<g id="node7" class="node">
<title>Node7</title>
<g id="a_node7"><a xlink:href="2_dshape_8h.html" target="_top" xlink:title=" ">
<polygon fill="none" stroke="black" points="492,-224.5 492,-243.5 560,-243.5 560,-224.5 492,-224.5"/>
<text text-anchor="middle" x="526" y="-231.5" font-family="Helvetica,sans-Serif" font-size="10.00">2Dshape.h</text>
</a>
</g>
</g>
<!-- Node6&#45;&gt;Node7 -->
<g id="edge10" class="edge">
<title>Node6&#45;&gt;Node7</title>
<path fill="none" stroke="midnightblue" d="M1196.48,-392.42C1077.27,-364.44 699.79,-275.81 570.19,-245.38"/>
<polygon fill="midnightblue" stroke="midnightblue" points="570.75,-241.91 560.22,-243.03 569.15,-248.73 570.75,-241.91"/>
</g>
<!-- Node8 -->
<g id="node8" class="node">
<title>Node8</title>
<g id="a_node8"><a xlink:href="rectangle_8h.html" target="_top" xlink:title=" ">
<polygon fill="none" stroke="black" points="1240.5,-336.5 1240.5,-355.5 1311.5,-355.5 1311.5,-336.5 1240.5,-336.5"/>
<text text-anchor="middle" x="1276" y="-343.5" font-family="Helvetica,sans-Serif" font-size="10.00">rectangle.h</text>
</a>
</g>
</g>
<!-- Node6&#45;&gt;Node8 -->
<g id="edge14" class="edge">
<title>Node6&#45;&gt;Node8</title>
<path fill="none" stroke="midnightblue" d="M1240.1,-392.08C1246.24,-384.38 1255.27,-373.03 1262.74,-363.65"/>
<polygon fill="midnightblue" stroke="midnightblue" points="1265.54,-365.75 1269.03,-355.75 1260.06,-361.39 1265.54,-365.75"/>
</g>
<!-- Node9 -->
<g id="node9" class="node">
<title>Node9</title>
<g id="a_node9"><a xlink:href="triangle_8h.html" target="_top" xlink:title=" ">
<polygon fill="none" stroke="black" points="1147.5,-280.5 1147.5,-299.5 1210.5,-299.5 1210.5,-280.5 1147.5,-280.5"/>
<text text-anchor="middle" x="1179" y="-287.5" font-family="Helvetica,sans-Serif" font-size="10.00">triangle.h</text>
</a>
</g>
</g>
<!-- Node6&#45;&gt;Node9 -->
<g id="edge51" class="edge">
<title>Node6&#45;&gt;Node9</title>
<path fill="none" stroke="midnightblue" d="M1228.76,-392.37C1219.93,-374.38 1199.4,-332.55 1187.65,-308.63"/>
<polygon fill="midnightblue" stroke="midnightblue" points="1190.77,-307.03 1183.22,-299.59 1184.48,-310.11 1190.77,-307.03"/>
</g>
<!-- Node6&#45;&gt;Node12 -->
<g id="edge52" class="edge">
<title>Node6&#45;&gt;Node12</title>
<path fill="none" stroke="midnightblue" d="M1258.53,-392.49C1277.52,-385.17 1303.13,-373.06 1321,-356 1341.74,-336.21 1340.82,-325.95 1353,-300 1378.53,-245.63 1388.55,-227.71 1382,-168 1381.03,-159.14 1379.01,-149.47 1377.04,-141.38"/>
<polygon fill="midnightblue" stroke="midnightblue" points="1380.38,-140.33 1374.48,-131.53 1373.61,-142.09 1380.38,-140.33"/>
</g>
<!-- Node7&#45;&gt;Node2 -->
<g id="edge11" class="edge">
<title>Node7&#45;&gt;Node2</title>
<path fill="none" stroke="midnightblue" d="M560.35,-232.28C665.42,-229.73 977.28,-219.56 1009,-188 1050.73,-146.48 1033.78,-113.23 1020,-56 1017.69,-46.42 1012.98,-36.58 1008.42,-28.56"/>
<polygon fill="midnightblue" stroke="midnightblue" points="1011.29,-26.54 1003.1,-19.81 1005.31,-30.17 1011.29,-26.54"/>
</g>
<!-- Node7&#45;&gt;Node3 -->
<g id="edge12" class="edge">
<title>Node7&#45;&gt;Node3</title>
<path fill="none" stroke="midnightblue" d="M491.71,-229.17C406.21,-218.84 187.3,-187.4 144,-132 123.14,-105.3 125.03,-87.3 138,-56 142.92,-44.12 152.67,-33.74 161.83,-25.96"/>
<polygon fill="midnightblue" stroke="midnightblue" points="164.25,-28.51 169.94,-19.56 159.92,-23.01 164.25,-28.51"/>
</g>
<!-- Node8&#45;&gt;Node2 -->
<g id="edge15" class="edge">
<title>Node8&#45;&gt;Node2</title>
<path fill="none" stroke="midnightblue" d="M1277.66,-336.16C1282.29,-308.98 1293.01,-225 1261,-168 1214.25,-84.76 1103.77,-41.16 1041.56,-22.47"/>
<polygon fill="midnightblue" stroke="midnightblue" points="1042.22,-19.01 1031.64,-19.58 1040.26,-25.73 1042.22,-19.01"/>
</g>
<!-- Node8&#45;&gt;Node3 -->
<g id="edge16" class="edge">
<title>Node8&#45;&gt;Node3</title>
<path fill="none" stroke="midnightblue" d="M1240.44,-342.49C1076.46,-330.52 392.99,-276.09 200,-188 163.12,-171.17 145.81,-168.42 128,-132 113.16,-101.66 113.54,-86.52 128,-56 134.13,-43.07 145.99,-32.62 157.14,-25.05"/>
<polygon fill="midnightblue" stroke="midnightblue" points="159.19,-27.9 165.8,-19.61 155.47,-21.97 159.19,-27.9"/>
</g>
<!-- Node8&#45;&gt;Node4 -->
<g id="edge17" class="edge">
<title>Node8&#45;&gt;Node4</title>
<path fill="none" stroke="midnightblue" d="M1311.56,-340.17C1385.29,-327.94 1548,-288.54 1548,-179 1548,-179 1548,-179 1548,-121 1548,-88.4 1536.7,-79.4 1514,-56 1500.59,-42.17 1482,-31.37 1466.11,-23.81"/>
<polygon fill="midnightblue" stroke="midnightblue" points="1467.2,-20.46 1456.65,-19.54 1464.32,-26.84 1467.2,-20.46"/>
</g>
<!-- Node8&#45;&gt;Node5 -->
<g id="edge19" class="edge">
<title>Node8&#45;&gt;Node5</title>
<path fill="none" stroke="midnightblue" d="M1299.07,-336.49C1316.06,-329.16 1338.63,-317.05 1353,-300 1408.37,-234.31 1426.7,-128.5 1432.04,-85.78"/>
<polygon fill="midnightblue" stroke="midnightblue" points="1435.53,-86.04 1433.2,-75.7 1428.58,-85.23 1435.53,-86.04"/>
</g>
<!-- Node8&#45;&gt;Node7 -->
<g id="edge18" class="edge">
<title>Node8&#45;&gt;Node7</title>
<path fill="none" stroke="midnightblue" d="M1240.33,-339.31C1167.07,-327.69 994.34,-300.57 849,-280 726.95,-262.72 695.73,-263.37 574,-244 572.73,-243.8 571.44,-243.59 570.14,-243.37"/>
<polygon fill="midnightblue" stroke="midnightblue" points="570.5,-239.88 560.05,-241.62 569.3,-246.78 570.5,-239.88"/>
</g>
<!-- Node8&#45;&gt;Node9 -->
<g id="edge20" class="edge">
<title>Node8&#45;&gt;Node9</title>
<path fill="none" stroke="midnightblue" d="M1260.42,-336.32C1245,-327.74 1221.19,-314.49 1203.29,-304.52"/>
<polygon fill="midnightblue" stroke="midnightblue" points="1204.99,-301.46 1194.55,-299.65 1201.58,-307.58 1204.99,-301.46"/>
</g>
<!-- Node8&#45;&gt;Node12 -->
<g id="edge50" class="edge">
<title>Node8&#45;&gt;Node12</title>
<path fill="none" stroke="midnightblue" d="M1292.63,-336.41C1305.9,-328.68 1323.89,-316.08 1334,-300 1365.87,-249.3 1371.35,-176.02 1372.07,-141.86"/>
<polygon fill="midnightblue" stroke="midnightblue" points="1375.57,-141.54 1372.16,-131.51 1368.57,-141.48 1375.57,-141.54"/>
</g>
<!-- Node9&#45;&gt;Node2 -->
<g id="edge21" class="edge">
<title>Node9&#45;&gt;Node2</title>
<path fill="none" stroke="midnightblue" d="M1177.82,-280.21C1172.92,-246.82 1151.33,-126.23 1087,-56 1073.26,-41 1053.4,-30.34 1035.83,-23.17"/>
<polygon fill="midnightblue" stroke="midnightblue" points="1036.95,-19.85 1026.36,-19.54 1034.44,-26.38 1036.95,-19.85"/>
</g>
<!-- Node9&#45;&gt;Node3 -->
<g id="edge22" class="edge">
<title>Node9&#45;&gt;Node3</title>
<path fill="none" stroke="midnightblue" d="M1147.49,-284.73C983.72,-262.21 234.87,-155.39 171,-76 160.35,-62.76 166.03,-43.09 172.72,-28.86"/>
<polygon fill="midnightblue" stroke="midnightblue" points="176.01,-30.11 177.55,-19.63 169.81,-26.87 176.01,-30.11"/>
</g>
<!-- Node9&#45;&gt;Node4 -->
<g id="edge23" class="edge">
<title>Node9&#45;&gt;Node4</title>
<path fill="none" stroke="midnightblue" d="M1183.62,-280.26C1201.55,-247.07 1269.74,-127.11 1355,-56 1370.26,-43.27 1389.61,-32.18 1405.34,-24.2"/>
<polygon fill="midnightblue" stroke="midnightblue" points="1407.18,-27.19 1414.6,-19.64 1404.08,-20.91 1407.18,-27.19"/>
</g>
<!-- Node9&#45;&gt;Node5 -->
<g id="edge25" class="edge">
<title>Node9&#45;&gt;Node5</title>
<path fill="none" stroke="midnightblue" d="M1186.86,-280.38C1195.12,-271.32 1208.48,-256.66 1220,-244 1273.37,-185.36 1276.39,-159.33 1340,-112 1358.42,-98.3 1381.67,-87.12 1400.44,-79.34"/>
<polygon fill="midnightblue" stroke="midnightblue" points="1401.82,-82.55 1409.8,-75.58 1399.21,-76.06 1401.82,-82.55"/>
</g>
<!-- Node9&#45;&gt;Node7 -->
<g id="edge24" class="edge">
<title>Node9&#45;&gt;Node7</title>
<path fill="none" stroke="midnightblue" d="M1147.38,-287.89C1057.39,-284.46 792.28,-272.49 574,-244 572.72,-243.83 571.43,-243.65 570.12,-243.47"/>
<polygon fill="midnightblue" stroke="midnightblue" points="570.44,-239.97 560.01,-241.86 569.34,-246.89 570.44,-239.97"/>
</g>
<!-- Node10 -->
<g id="node10" class="node">
<title>Node10</title>
<g id="a_node10"><a xlink:href="angle_8h.html" target="_top" xlink:title=" ">
<polygon fill="none" stroke="black" points="1065.5,-224.5 1065.5,-243.5 1118.5,-243.5 1118.5,-224.5 1065.5,-224.5"/>
<text text-anchor="middle" x="1092" y="-231.5" font-family="Helvetica,sans-Serif" font-size="10.00">angle.h</text>
</a>
</g>
</g>
<!-- Node9&#45;&gt;Node10 -->
<g id="edge26" class="edge">
<title>Node9&#45;&gt;Node10</title>
<path fill="none" stroke="midnightblue" d="M1165.02,-280.32C1151.45,-271.9 1130.62,-258.97 1114.68,-249.07"/>
<polygon fill="midnightblue" stroke="midnightblue" points="1116.29,-245.95 1105.94,-243.65 1112.59,-251.9 1116.29,-245.95"/>
</g>
<!-- Node11 -->
<g id="node11" class="node">
<title>Node11</title>
<g id="a_node11"><a xlink:href="math_helpers_8h.html" target="_top" xlink:title=" ">
<polygon fill="none" stroke="black" points="892.5,-168.5 892.5,-187.5 999.5,-187.5 999.5,-168.5 892.5,-168.5"/>
<text text-anchor="middle" x="946" y="-175.5" font-family="Helvetica,sans-Serif" font-size="10.00">../../mathHelpers.h</text>
</a>
</g>
</g>
<!-- Node9&#45;&gt;Node11 -->
<g id="edge48" class="edge">
<title>Node9&#45;&gt;Node11</title>
<path fill="none" stroke="midnightblue" d="M1151.79,-280.5C1126.69,-272.3 1088.64,-258.95 1057,-244 1024.67,-228.72 989.36,-207.12 967.44,-193.09"/>
<polygon fill="midnightblue" stroke="midnightblue" points="969.22,-190.07 958.92,-187.58 965.42,-195.95 969.22,-190.07"/>
</g>
<!-- Node9&#45;&gt;Node12 -->
<g id="edge49" class="edge">
<title>Node9&#45;&gt;Node12</title>
<path fill="none" stroke="midnightblue" d="M1197.53,-280.42C1214.19,-272.26 1238.89,-259.03 1258,-244 1299.01,-211.74 1338.96,-164.7 1358.88,-139.84"/>
<polygon fill="midnightblue" stroke="midnightblue" points="1361.82,-141.77 1365.29,-131.75 1356.33,-137.42 1361.82,-141.77"/>
</g>
<!-- Node10&#45;&gt;Node2 -->
<g id="edge28" class="edge">
<title>Node10&#45;&gt;Node2</title>
<path fill="none" stroke="midnightblue" d="M1093.21,-224.4C1096.59,-197.21 1103.66,-111.6 1068,-56 1058.89,-41.79 1043.51,-31.24 1029.4,-23.93"/>
<polygon fill="midnightblue" stroke="midnightblue" points="1030.91,-20.78 1020.38,-19.6 1027.88,-27.09 1030.91,-20.78"/>
</g>
<!-- Node10&#45;&gt;Node3 -->
<g id="edge27" class="edge">
<title>Node10&#45;&gt;Node3</title>
<path fill="none" stroke="midnightblue" d="M1065.18,-229.91C965.98,-217.95 611.26,-170.65 334,-76 289.35,-60.76 239.4,-38.1 209.61,-23.95"/>
<polygon fill="midnightblue" stroke="midnightblue" points="210.85,-20.67 200.32,-19.51 207.83,-26.98 210.85,-20.67"/>
</g>
<!-- Node10&#45;&gt;Node4 -->
<g id="edge29" class="edge">
<title>Node10&#45;&gt;Node4</title>
<path fill="none" stroke="midnightblue" d="M1096.03,-224.27C1109.97,-195.16 1159.15,-100.7 1230,-56 1273.31,-28.68 1330.89,-17.81 1373.83,-13.55"/>
<polygon fill="midnightblue" stroke="midnightblue" points="1374.22,-17.03 1383.87,-12.65 1373.59,-10.06 1374.22,-17.03"/>
</g>
<!-- Node10&#45;&gt;Node11 -->
<g id="edge30" class="edge">
<title>Node10&#45;&gt;Node11</title>
<path fill="none" stroke="midnightblue" d="M1068.87,-224.44C1044.52,-215.44 1005.99,-201.19 978.58,-191.05"/>
<polygon fill="midnightblue" stroke="midnightblue" points="979.62,-187.7 969.03,-187.52 977.19,-194.27 979.62,-187.7"/>
</g>
<!-- Node11&#45;&gt;Node2 -->
<g id="edge31" class="edge">
<title>Node11&#45;&gt;Node2</title>
<path fill="none" stroke="midnightblue" d="M961.73,-168.24C973.89,-160.48 989.81,-147.93 997,-132 1012.14,-98.46 1006.56,-54.17 1001.53,-29.54"/>
<polygon fill="midnightblue" stroke="midnightblue" points="1004.93,-28.71 999.33,-19.72 998.1,-30.24 1004.93,-28.71"/>
</g>
<!-- Node11&#45;&gt;Node3 -->
<g id="edge34" class="edge">
<title>Node11&#45;&gt;Node3</title>
<path fill="none" stroke="midnightblue" d="M892.5,-170.1C833.23,-162.16 734.95,-148.13 651,-132 543.01,-111.25 516.45,-103.59 410,-76 343.04,-58.65 265.73,-35.93 220.8,-22.46"/>
<polygon fill="midnightblue" stroke="midnightblue" points="221.77,-19.09 211.19,-19.57 219.75,-25.8 221.77,-19.09"/>
</g>
<!-- Node11&#45;&gt;Node12 -->
<g id="edge32" class="edge">
<title>Node11&#45;&gt;Node12</title>
<path fill="none" stroke="midnightblue" d="M999.52,-170.22C1088.55,-158.93 1264.56,-136.62 1338.28,-127.27"/>
<polygon fill="midnightblue" stroke="midnightblue" points="1338.91,-130.72 1348.39,-125.99 1338.03,-123.78 1338.91,-130.72"/>
</g>
<!-- Node13 -->
<g id="node13" class="node">
<title>Node13</title>
<g id="a_node13"><a xlink:title=" ">
<polygon fill="none" stroke="#bfbfbf" points="418.5,-56.5 418.5,-75.5 487.5,-75.5 487.5,-56.5 418.5,-56.5"/>
<text text-anchor="middle" x="453" y="-63.5" font-family="Helvetica,sans-Serif" font-size="10.00">type_traits</text>
</a>
</g>
</g>
<!-- Node11&#45;&gt;Node13 -->
<g id="edge33" class="edge">
<title>Node11&#45;&gt;Node13</title>
<path fill="none" stroke="midnightblue" d="M907.73,-168.46C817.79,-148.39 593.4,-98.33 497.55,-76.94"/>
<polygon fill="midnightblue" stroke="midnightblue" points="498.12,-73.48 487.6,-74.72 496.59,-80.31 498.12,-73.48"/>
</g>
<!-- Node14 -->
<g id="node14" class="node">
<title>Node14</title>
<g id="a_node14"><a xlink:title=" ">
<polygon fill="none" stroke="#bfbfbf" points="770,-112.5 770,-131.5 834,-131.5 834,-112.5 770,-112.5"/>
<text text-anchor="middle" x="802" y="-119.5" font-family="Helvetica,sans-Serif" font-size="10.00">algorithm</text>
</a>
</g>
</g>
<!-- Node11&#45;&gt;Node14 -->
<g id="edge35" class="edge">
<title>Node11&#45;&gt;Node14</title>
<path fill="none" stroke="midnightblue" d="M923.18,-168.44C899.17,-159.44 861.17,-145.19 834.13,-135.05"/>
<polygon fill="midnightblue" stroke="midnightblue" points="835.3,-131.75 824.71,-131.52 832.84,-138.3 835.3,-131.75"/>
</g>
<!-- Node15 -->
<g id="node15" class="node">
<title>Node15</title>
<g id="a_node15"><a xlink:href="limes__assert_8h.html" target="_top" xlink:title=" ">
<polygon fill="none" stroke="black" points="852,-112.5 852,-131.5 988,-131.5 988,-112.5 852,-112.5"/>
<text text-anchor="middle" x="920" y="-119.5" font-family="Helvetica,sans-Serif" font-size="10.00">../system/limes_assert.h</text>
</a>
</g>
</g>
<!-- Node11&#45;&gt;Node15 -->
<g id="edge36" class="edge">
<title>Node11&#45;&gt;Node15</title>
<path fill="none" stroke="midnightblue" d="M941.71,-168.08C938.15,-160.69 932.98,-149.95 928.58,-140.81"/>
<polygon fill="midnightblue" stroke="midnightblue" points="931.71,-139.24 924.21,-131.75 925.4,-142.28 931.71,-139.24"/>
</g>
<!-- Node15&#45;&gt;Node2 -->
<g id="edge38" class="edge">
<title>Node15&#45;&gt;Node2</title>
<path fill="none" stroke="midnightblue" d="M928.28,-112.43C936.54,-103.66 949.37,-89.45 959,-76 969.92,-60.76 980.53,-42.19 987.75,-28.81"/>
<polygon fill="midnightblue" stroke="midnightblue" points="990.98,-30.2 992.56,-19.73 984.79,-26.93 990.98,-30.2"/>
</g>
<!-- Node15&#45;&gt;Node3 -->
<g id="edge37" class="edge">
<title>Node15&#45;&gt;Node3</title>
<path fill="none" stroke="midnightblue" d="M851.61,-113.01C740.98,-100.08 535,-76 535,-76 516.77,-70.35 515.16,-61.88 497,-56 409.16,-27.53 301.69,-17.05 237.98,-13.21"/>
<polygon fill="midnightblue" stroke="midnightblue" points="237.94,-9.7 227.76,-12.63 237.54,-16.69 237.94,-9.7"/>
</g>
<!-- Node15&#45;&gt;Node4 -->
<g id="edge46" class="edge">
<title>Node15&#45;&gt;Node4</title>
<path fill="none" stroke="midnightblue" d="M953.38,-112.45C1004.55,-99.46 1105.56,-74.35 1192,-56 1253.66,-42.91 1324.61,-29.96 1373.67,-21.34"/>
<polygon fill="midnightblue" stroke="midnightblue" points="1374.55,-24.74 1383.8,-19.57 1373.34,-17.85 1374.55,-24.74"/>
</g>
<!-- Node15&#45;&gt;Node5 -->
<g id="edge39" class="edge">
<title>Node15&#45;&gt;Node5</title>
<path fill="none" stroke="midnightblue" d="M988.26,-113.83C1082.64,-103.91 1252.72,-86.04 1353.29,-75.48"/>
<polygon fill="midnightblue" stroke="midnightblue" points="1353.82,-78.94 1363.4,-74.42 1353.09,-71.98 1353.82,-78.94"/>
</g>
<!-- Node15&#45;&gt;Node13 -->
<g id="edge40" class="edge">
<title>Node15&#45;&gt;Node13</title>
<path fill="none" stroke="midnightblue" d="M851.98,-113.01C848.95,-112.66 845.94,-112.33 843,-112 691.54,-95.15 652.83,-97.78 502,-76 500.7,-75.81 499.38,-75.62 498.05,-75.41"/>
<polygon fill="midnightblue" stroke="midnightblue" points="498.18,-71.88 487.74,-73.72 497.05,-78.79 498.18,-71.88"/>
</g>
<!-- Node16 -->
<g id="node16" class="node">
<title>Node16</title>
<g id="a_node16"><a xlink:title=" ">
<polygon fill="none" stroke="#bfbfbf" points="904.5,-56.5 904.5,-75.5 949.5,-75.5 949.5,-56.5 904.5,-56.5"/>
<text text-anchor="middle" x="927" y="-63.5" font-family="Helvetica,sans-Serif" font-size="10.00">utility</text>
</a>
</g>
</g>
<!-- Node15&#45;&gt;Node16 -->
<g id="edge41" class="edge">
<title>Node15&#45;&gt;Node16</title>
<path fill="none" stroke="midnightblue" d="M921.16,-112.08C922.08,-104.93 923.42,-94.64 924.58,-85.69"/>
<polygon fill="midnightblue" stroke="midnightblue" points="928.05,-86.12 925.87,-75.75 921.11,-85.22 928.05,-86.12"/>
</g>
<!-- Node17 -->
<g id="node17" class="node">
<title>Node17</title>
<g id="a_node17"><a xlink:title=" ">
<polygon fill="none" stroke="#bfbfbf" points="690.5,-56.5 690.5,-75.5 799.5,-75.5 799.5,-56.5 690.5,-56.5"/>
<text text-anchor="middle" x="745" y="-63.5" font-family="Helvetica,sans-Serif" font-size="10.00">limes_build_type.h</text>
</a>
</g>
</g>
<!-- Node15&#45;&gt;Node17 -->
<g id="edge42" class="edge">
<title>Node15&#45;&gt;Node17</title>
<path fill="none" stroke="midnightblue" d="M892.27,-112.44C862.57,-103.28 815.28,-88.69 782.33,-78.52"/>
<polygon fill="midnightblue" stroke="midnightblue" points="783.19,-75.12 772.6,-75.52 781.12,-81.81 783.19,-75.12"/>
</g>
<!-- Node18 -->
<g id="node18" class="node">
<title>Node18</title>
<g id="a_node18"><a xlink:href="_ignore_unused_8h.html" target="_top" xlink:title=" ">
<polygon fill="none" stroke="black" points="544,-56.5 544,-75.5 672,-75.5 672,-56.5 544,-56.5"/>
<text text-anchor="middle" x="608" y="-63.5" font-family="Helvetica,sans-Serif" font-size="10.00">../misc/IgnoreUnused.h</text>
</a>
</g>
</g>
<!-- Node15&#45;&gt;Node18 -->
<g id="edge43" class="edge">
<title>Node15&#45;&gt;Node18</title>
<path fill="none" stroke="midnightblue" d="M870.56,-112.44C815.34,-102.89 725.98,-87.42 667.11,-77.23"/>
<polygon fill="midnightblue" stroke="midnightblue" points="667.66,-73.77 657.21,-75.52 666.46,-80.67 667.66,-73.77"/>
</g>
<!-- Node19 -->
<g id="node19" class="node">
<title>Node19</title>
<g id="a_node19"><a xlink:title=" ">
<polygon fill="none" stroke="#bfbfbf" points="818,-56.5 818,-75.5 886,-75.5 886,-56.5 818,-56.5"/>
<text text-anchor="middle" x="852" y="-63.5" font-family="Helvetica,sans-Serif" font-size="10.00">filesystem</text>
</a>
</g>
</g>
<!-- Node15&#45;&gt;Node19 -->
<g id="edge47" class="edge">
<title>Node15&#45;&gt;Node19</title>
<path fill="none" stroke="midnightblue" d="M909.07,-112.32C898.83,-104.18 883.28,-91.84 871,-82.09"/>
<polygon fill="midnightblue" stroke="midnightblue" points="873.13,-79.31 863.12,-75.83 868.78,-84.79 873.13,-79.31"/>
</g>
<!-- Node18&#45;&gt;Node2 -->
<g id="edge45" class="edge">
<title>Node18&#45;&gt;Node2</title>
<path fill="none" stroke="midnightblue" d="M669.64,-56.44C740.54,-46.6 856.55,-30.5 929.73,-20.34"/>
<polygon fill="midnightblue" stroke="midnightblue" points="930.34,-23.79 939.77,-18.94 929.38,-16.85 930.34,-23.79"/>
</g>
<!-- Node18&#45;&gt;Node3 -->
<g id="edge44" class="edge">
<title>Node18&#45;&gt;Node3</title>
<path fill="none" stroke="midnightblue" d="M543.91,-56.86C460.58,-46.27 316.43,-27.95 237.88,-17.97"/>
<polygon fill="midnightblue" stroke="midnightblue" points="238.07,-14.47 227.71,-16.68 237.19,-21.41 238.07,-14.47"/>
</g>
<!-- Node20&#45;&gt;Node2 -->
<g id="edge54" class="edge">
<title>Node20&#45;&gt;Node2</title>
<path fill="none" stroke="midnightblue" d="M248.01,-58.08C252.69,-57.29 257.46,-56.56 262,-56 506.59,-25.7 799.6,-15.52 929.41,-12.33"/>
<polygon fill="midnightblue" stroke="midnightblue" points="929.68,-15.83 939.6,-12.09 929.51,-8.83 929.68,-15.83"/>
</g>
<!-- Node20&#45;&gt;Node3 -->
<g id="edge55" class="edge">
<title>Node20&#45;&gt;Node3</title>
<path fill="none" stroke="midnightblue" d="M208.88,-56.08C204.59,-48.61 198.34,-37.72 193.06,-28.52"/>
<polygon fill="midnightblue" stroke="midnightblue" points="196.04,-26.68 188.02,-19.75 189.97,-30.17 196.04,-26.68"/>
</g>
</g>
</svg>
        <g id="navigator" transform="translate(0 0)" fill="#404254">
                <rect fill="#f2f5e9" fill-opacity="0.5" stroke="#606060" stroke-width=".5" x="0" y="0" width="60" height="60"/>
                <use id="zoomplus" xlink:href="#zoomPlus" x="17" y="9" onmousedown="handleZoom(evt,'in')"/>
                <use id="zoomminus" xlink:href="#zoomMin" x="42" y="9" onmousedown="handleZoom(evt,'out')"/>
                <use id="reset" xlink:href="#resetDef" x="30" y="36" onmousedown="handleReset()"/>
                <g id="arrowUp" xlink:href="#dirArrow" transform="translate(30 24)" onmousedown="handlePan(0,-1)">
                  <use xlink:href="#rim" fill="#404040">
                        <set attributeName="fill" to="#808080" begin="arrowUp.mouseover" end="arrowUp.mouseout"/>
                  </use>
                  <path fill="none" stroke="white" stroke-width="1.5" d="M0,-3.0v7 M-2.5,-0.5L0,-3.0L2.5,-0.5"/>
                </g>
                <g id="arrowRight" xlink:href="#dirArrow" transform="rotate(90) translate(36 -43)" onmousedown="handlePan(1,0)">
                  <use xlink:href="#rim" fill="#404040">
                        <set attributeName="fill" to="#808080" begin="arrowRight.mouseover" end="arrowRight.mouseout"/>
                  </use>
                  <path fill="none" stroke="white" stroke-width="1.5" d="M0,-3.0v7 M-2.5,-0.5L0,-3.0L2.5,-0.5"/>
                </g>
                <g id="arrowDown" xlink:href="#dirArrow" transform="rotate(180) translate(-30 -48)" onmousedown="handlePan(0,1)">
                  <use xlink:href="#rim" fill="#404040">
                        <set attributeName="fill" to="#808080" begin="arrowDown.mouseover" end="arrowDown.mouseout"/>
                  </use>
                  <path fill="none" stroke="white" stroke-width="1.5" d="M0,-3.0v7 M-2.5,-0.5L0,-3.0L2.5,-0.5"/>
                </g>
                <g id="arrowLeft" xlink:href="#dirArrow" transform="rotate(270) translate(-36 17)" onmousedown="handlePan(-1,0)">
                  <use xlink:href="#rim" fill="#404040">
                        <set attributeName="fill" to="#808080" begin="arrowLeft.mouseover" end="arrowLeft.mouseout"/>
                  </use>
                  <path fill="none" stroke="white" stroke-width="1.5" d="M0,-3.0v7 M-2.5,-0.5L0,-3.0L2.5,-0.5"/>
                </g>
        </g>
        <svg viewBox="0 0 15 15" width="100%" height="30px" preserveAspectRatio="xMaxYMin meet">
         <g id="arrow_out" transform="scale(0.3 0.3)">
          <a xlink:href="rectangular__prism_8h__incl_org.svg" target="_base">
           <rect id="button" ry="5" rx="5" y="6" x="6" height="38" width="38"
                fill="#f2f5e9" fill-opacity="0.5" stroke="#606060" stroke-width="1.0"/>
           <path id="arrow"
             d="M 11.500037,31.436501 C 11.940474,20.09759 22.043105,11.32322 32.158766,21.979434 L 37.068811,17.246167 C 37.068811,17.246167 37.088388,32 37.088388,32 L 22.160133,31.978069 C 22.160133,31.978069 26.997745,27.140456 26.997745,27.140456 C 18.528582,18.264221 13.291696,25.230495 11.500037,31.436501 z"
             style="fill:#404040;"/>
          </a>
         </g>
        </svg>
</svg>
