<?xml version="1.0" encoding="UTF-8" standalone="no"?>
<!DOCTYPE svg PUBLIC "-//W3C//DTD SVG 1.1//EN"
 "http://www.w3.org/Graphics/SVG/1.1/DTD/svg11.dtd">
<!-- Generated by graphviz version 2.43.0 (0)
 -->
<!-- Title: sha384.h Pages: 1 -->
<svg width="531pt" height="140pt"
 viewBox="0.00 0.00 530.50 140.00" xmlns="http://www.w3.org/2000/svg" xmlns:xlink="http://www.w3.org/1999/xlink">
<g id="graph0" class="graph" transform="scale(1 1) rotate(0) translate(4 136)">
<title>sha384.h</title>
<!-- Node1 -->
<g id="node1" class="node">
<title>Node1</title>
<g id="a_node1"><a xlink:title=" ">
<polygon fill="#bfbfbf" stroke="black" points="298.5,-112.5 298.5,-131.5 359.5,-131.5 359.5,-112.5 298.5,-112.5"/>
<text text-anchor="middle" x="329" y="-119.5" font-family="Helvetica,sans-Serif" font-size="10.00">sha384.h</text>
</a>
</g>
</g>
<!-- Node2 -->
<g id="node2" class="node">
<title>Node2</title>
<g id="a_node2"><a xlink:href="limes__namespace_8h.html" target="_top" xlink:title=" ">
<polygon fill="none" stroke="black" points="0,-0.5 0,-19.5 114,-19.5 114,-0.5 0,-0.5"/>
<text text-anchor="middle" x="57" y="-7.5" font-family="Helvetica,sans-Serif" font-size="10.00">limes_namespace.h</text>
</a>
</g>
</g>
<!-- Node1&#45;&gt;Node2 -->
<g id="edge1" class="edge">
<title>Node1&#45;&gt;Node2</title>
<path fill="none" stroke="midnightblue" d="M307.66,-112.37C259.69,-92.97 143.22,-45.87 87.58,-23.37"/>
<polygon fill="midnightblue" stroke="midnightblue" points="88.83,-20.1 78.24,-19.59 86.2,-26.59 88.83,-20.1"/>
</g>
<!-- Node3 -->
<g id="node3" class="node">
<title>Node3</title>
<g id="a_node3"><a xlink:title=" ">
<polygon fill="none" stroke="#bfbfbf" points="132.5,-0.5 132.5,-19.5 221.5,-19.5 221.5,-0.5 132.5,-0.5"/>
<text text-anchor="middle" x="177" y="-7.5" font-family="Helvetica,sans-Serif" font-size="10.00">limes_export.h</text>
</a>
</g>
</g>
<!-- Node1&#45;&gt;Node3 -->
<g id="edge2" class="edge">
<title>Node1&#45;&gt;Node3</title>
<path fill="none" stroke="midnightblue" d="M317.07,-112.37C291.1,-93.57 229.19,-48.77 197.08,-25.53"/>
<polygon fill="midnightblue" stroke="midnightblue" points="199.02,-22.62 188.87,-19.59 194.92,-28.29 199.02,-22.62"/>
</g>
<!-- Node4 -->
<g id="node4" class="node">
<title>Node4</title>
<g id="a_node4"><a xlink:href="hash_8h.html" target="_top" xlink:title=" ">
<polygon fill="none" stroke="black" points="278.5,-56.5 278.5,-75.5 327.5,-75.5 327.5,-56.5 278.5,-56.5"/>
<text text-anchor="middle" x="303" y="-63.5" font-family="Helvetica,sans-Serif" font-size="10.00">hash.h</text>
</a>
</g>
</g>
<!-- Node1&#45;&gt;Node4 -->
<g id="edge3" class="edge">
<title>Node1&#45;&gt;Node4</title>
<path fill="none" stroke="midnightblue" d="M324.71,-112.08C321.15,-104.69 315.98,-93.95 311.58,-84.81"/>
<polygon fill="midnightblue" stroke="midnightblue" points="314.71,-83.24 307.21,-75.75 308.4,-86.28 314.71,-83.24"/>
</g>
<!-- Node6 -->
<g id="node6" class="node">
<title>Node6</title>
<g id="a_node6"><a xlink:title=" ">
<polygon fill="none" stroke="#bfbfbf" points="387,-0.5 387,-19.5 431,-19.5 431,-0.5 387,-0.5"/>
<text text-anchor="middle" x="409" y="-7.5" font-family="Helvetica,sans-Serif" font-size="10.00">string</text>
</a>
</g>
</g>
<!-- Node1&#45;&gt;Node6 -->
<g id="edge10" class="edge">
<title>Node1&#45;&gt;Node6</title>
<path fill="none" stroke="midnightblue" d="M335.28,-112.37C348.48,-94.22 379.33,-51.8 396.64,-27.99"/>
<polygon fill="midnightblue" stroke="midnightblue" points="399.7,-29.74 402.75,-19.59 394.04,-25.62 399.7,-29.74"/>
</g>
<!-- Node7 -->
<g id="node7" class="node">
<title>Node7</title>
<g id="a_node7"><a xlink:title=" ">
<polygon fill="none" stroke="#bfbfbf" points="449.5,-0.5 449.5,-19.5 522.5,-19.5 522.5,-0.5 449.5,-0.5"/>
<text text-anchor="middle" x="486" y="-7.5" font-family="Helvetica,sans-Serif" font-size="10.00">string_view</text>
</a>
</g>
</g>
<!-- Node1&#45;&gt;Node7 -->
<g id="edge11" class="edge">
<title>Node1&#45;&gt;Node7</title>
<path fill="none" stroke="midnightblue" d="M339.34,-112.42C354.93,-99.62 385.56,-75 413,-56 429.07,-44.88 447.85,-33.33 462.34,-24.72"/>
<polygon fill="midnightblue" stroke="midnightblue" points="464.33,-27.61 471.17,-19.52 460.77,-21.58 464.33,-27.61"/>
</g>
<!-- Node9 -->
<g id="node9" class="node">
<title>Node9</title>
<g id="a_node9"><a xlink:title=" ">
<polygon fill="none" stroke="#bfbfbf" points="422,-56.5 422,-75.5 472,-75.5 472,-56.5 422,-56.5"/>
<text text-anchor="middle" x="447" y="-63.5" font-family="Helvetica,sans-Serif" font-size="10.00">cstdint</text>
</a>
</g>
</g>
<!-- Node1&#45;&gt;Node9 -->
<g id="edge12" class="edge">
<title>Node1&#45;&gt;Node9</title>
<path fill="none" stroke="midnightblue" d="M347.7,-112.44C366.94,-103.64 397.15,-89.81 419.2,-79.72"/>
<polygon fill="midnightblue" stroke="midnightblue" points="420.75,-82.86 428.39,-75.52 417.84,-76.5 420.75,-82.86"/>
</g>
<!-- Node4&#45;&gt;Node2 -->
<g id="edge5" class="edge">
<title>Node4&#45;&gt;Node2</title>
<path fill="none" stroke="midnightblue" d="M278.06,-59.53C237.86,-50.7 158.02,-33.18 106.1,-21.78"/>
<polygon fill="midnightblue" stroke="midnightblue" points="106.63,-18.31 96.11,-19.59 105.13,-25.15 106.63,-18.31"/>
</g>
<!-- Node4&#45;&gt;Node3 -->
<g id="edge4" class="edge">
<title>Node4&#45;&gt;Node3</title>
<path fill="none" stroke="midnightblue" d="M283.03,-56.44C262.39,-47.6 229.94,-33.69 206.37,-23.59"/>
<polygon fill="midnightblue" stroke="midnightblue" points="207.44,-20.24 196.87,-19.52 204.68,-26.67 207.44,-20.24"/>
</g>
<!-- Node5 -->
<g id="node5" class="node">
<title>Node5</title>
<g id="a_node5"><a xlink:title=" ">
<polygon fill="none" stroke="#bfbfbf" points="239.5,-0.5 239.5,-19.5 292.5,-19.5 292.5,-0.5 239.5,-0.5"/>
<text text-anchor="middle" x="266" y="-7.5" font-family="Helvetica,sans-Serif" font-size="10.00">cstddef</text>
</a>
</g>
</g>
<!-- Node4&#45;&gt;Node5 -->
<g id="edge6" class="edge">
<title>Node4&#45;&gt;Node5</title>
<path fill="none" stroke="midnightblue" d="M296.89,-56.08C291.72,-48.53 284.15,-37.49 277.81,-28.23"/>
<polygon fill="midnightblue" stroke="midnightblue" points="280.54,-26.02 272,-19.75 274.76,-29.98 280.54,-26.02"/>
</g>
<!-- Node4&#45;&gt;Node6 -->
<g id="edge7" class="edge">
<title>Node4&#45;&gt;Node6</title>
<path fill="none" stroke="midnightblue" d="M320.03,-56.32C337.03,-47.66 363.38,-34.24 382.99,-24.25"/>
<polygon fill="midnightblue" stroke="midnightblue" points="384.69,-27.31 392.01,-19.65 381.51,-21.08 384.69,-27.31"/>
</g>
<!-- Node4&#45;&gt;Node7 -->
<g id="edge8" class="edge">
<title>Node4&#45;&gt;Node7</title>
<path fill="none" stroke="midnightblue" d="M327.68,-57.72C358.36,-48.67 411.07,-33.11 447.18,-22.46"/>
<polygon fill="midnightblue" stroke="midnightblue" points="448.29,-25.78 456.89,-19.59 446.31,-19.06 448.29,-25.78"/>
</g>
<!-- Node8 -->
<g id="node8" class="node">
<title>Node8</title>
<g id="a_node8"><a xlink:title=" ">
<polygon fill="none" stroke="#bfbfbf" points="311,-0.5 311,-19.5 369,-19.5 369,-0.5 311,-0.5"/>
<text text-anchor="middle" x="340" y="-7.5" font-family="Helvetica,sans-Serif" font-size="10.00">memory</text>
</a>
</g>
</g>
<!-- Node4&#45;&gt;Node8 -->
<g id="edge9" class="edge">
<title>Node4&#45;&gt;Node8</title>
<path fill="none" stroke="midnightblue" d="M309.11,-56.08C314.28,-48.53 321.85,-37.49 328.19,-28.23"/>
<polygon fill="midnightblue" stroke="midnightblue" points="331.24,-29.98 334,-19.75 325.46,-26.02 331.24,-29.98"/>
</g>
</g>
</svg>
