<?xml version="1.0" encoding="UTF-8" standalone="no"?>
<!DOCTYPE svg PUBLIC "-//W3C//DTD SVG 1.1//EN"
 "http://www.w3.org/Graphics/SVG/1.1/DTD/svg11.dtd">
<!-- Generated by graphviz version 2.43.0 (0)
 -->
<!-- Title: sphere.h Pages: 1 -->
<!--zoomable 252 -->
<svg id="main" version="1.1" xmlns="http://www.w3.org/2000/svg" xmlns:xlink="http://www.w3.org/1999/xlink" xml:space="preserve" onload="init(evt)">
<style type="text/css"><![CDATA[
.edge:hover path { stroke: red; }
.edge:hover polygon { stroke: red; fill: red; }
]]></style>
<script type="text/javascript"><![CDATA[
var edges = document.getElementsByTagName('g');
if (edges && edges.length) {
  for (var i=0;i<edges.length;i++) {
    if (edges[i].id.substr(0,4)=='edge') {
      edges[i].setAttribute('class','edge');
    }
  }
}
]]></script>
        <defs>
                <circle id="rim" cx="0" cy="0" r="7"/>
                <circle id="rim2" cx="0" cy="0" r="3.5"/>
                <g id="zoomPlus">
                        <use xlink:href="#rim" fill="#404040">
                                <set attributeName="fill" to="#808080" begin="zoomplus.mouseover" end="zoomplus.mouseout"/>
                        </use>
                        <path d="M-4,0h8M0,-4v8" fill="none" stroke="white" stroke-width="1.5" pointer-events="none"/>
                </g>
                <g id="zoomMin">
                        <use xlink:href="#rim" fill="#404040">
                                <set attributeName="fill" to="#808080" begin="zoomminus.mouseover" end="zoomminus.mouseout"/>
                        </use>
                        <path d="M-4,0h8" fill="none" stroke="white" stroke-width="1.5" pointer-events="none"/>
                </g>
                <g id="dirArrow">
                        <path fill="none" stroke="white" stroke-width="1.5" d="M0,-3.0v7 M-2.5,-0.5L0,-3.0L2.5,-0.5"/>
                </g>
               <g id="resetDef">
                       <use xlink:href="#rim2" fill="#404040">
                               <set attributeName="fill" to="#808080" begin="reset.mouseover" end="reset.mouseout"/>
                       </use>
               </g>
        </defs>

<script type="text/javascript">
var viewWidth = 1053;
var viewHeight = 252;
var sectionId = 'dynsection-0';
</script>
<script xlink:href="svgpan.js"/>
<svg id="graph" class="graph">
<g id="viewport">
<title>sphere.h</title>
<!-- Node1 -->
<g id="node1" class="node">
<title>Node1</title>
<g id="a_node1"><a xlink:title=" ">
<polygon fill="#bfbfbf" stroke="black" points="391,-224.5 391,-243.5 450,-243.5 450,-224.5 391,-224.5"/>
<text text-anchor="middle" x="420.5" y="-231.5" font-family="Helvetica,sans-Serif" font-size="10.00">sphere.h</text>
</a>
</g>
</g>
<!-- Node2 -->
<g id="node2" class="node">
<title>Node2</title>
<g id="a_node2"><a xlink:href="limes__namespace_8h.html" target="_top" xlink:title=" ">
<polygon fill="none" stroke="black" points="264.5,-0.5 264.5,-19.5 378.5,-19.5 378.5,-0.5 264.5,-0.5"/>
<text text-anchor="middle" x="321.5" y="-7.5" font-family="Helvetica,sans-Serif" font-size="10.00">limes_namespace.h</text>
</a>
</g>
</g>
<!-- Node1&#45;&gt;Node2 -->
<g id="edge1" class="edge">
<title>Node1&#45;&gt;Node2</title>
<path fill="none" stroke="midnightblue" d="M411.82,-224.48C390.05,-202.42 333.43,-140.62 313.5,-76 308.79,-60.72 311.67,-42.61 315.22,-29.4"/>
<polygon fill="midnightblue" stroke="midnightblue" points="318.63,-30.2 318.21,-19.61 311.94,-28.15 318.63,-30.2"/>
</g>
<!-- Node3 -->
<g id="node3" class="node">
<title>Node3</title>
<g id="a_node3"><a xlink:title=" ">
<polygon fill="none" stroke="#bfbfbf" points="824,-0.5 824,-19.5 913,-19.5 913,-0.5 824,-0.5"/>
<text text-anchor="middle" x="868.5" y="-7.5" font-family="Helvetica,sans-Serif" font-size="10.00">limes_export.h</text>
</a>
</g>
</g>
<!-- Node1&#45;&gt;Node3 -->
<g id="edge2" class="edge">
<title>Node1&#45;&gt;Node3</title>
<path fill="none" stroke="midnightblue" d="M450.08,-233.38C533.49,-232.63 770.95,-217.66 870.5,-76 879.82,-62.73 878.06,-43.9 874.71,-29.91"/>
<polygon fill="midnightblue" stroke="midnightblue" points="877.97,-28.6 871.87,-19.94 871.24,-30.52 877.97,-28.6"/>
</g>
<!-- Node4 -->
<g id="node4" class="node">
<title>Node4</title>
<g id="a_node4"><a xlink:title=" ">
<polygon fill="none" stroke="#bfbfbf" points="119.5,-0.5 119.5,-19.5 219.5,-19.5 219.5,-0.5 119.5,-0.5"/>
<text text-anchor="middle" x="169.5" y="-7.5" font-family="Helvetica,sans-Serif" font-size="10.00">limes_platform.h</text>
</a>
</g>
</g>
<!-- Node1&#45;&gt;Node4 -->
<g id="edge3" class="edge">
<title>Node1&#45;&gt;Node4</title>
<path fill="none" stroke="midnightblue" d="M408.26,-224.39C395.93,-215.59 376.5,-201.35 360.5,-188 292.98,-131.66 217.8,-58.75 185.58,-26.98"/>
<polygon fill="midnightblue" stroke="midnightblue" points="187.91,-24.36 178.34,-19.82 182.99,-29.34 187.91,-24.36"/>
</g>
<!-- Node5 -->
<g id="node5" class="node">
<title>Node5</title>
<g id="a_node5"><a xlink:href="preprocessor_8h.html" target="_top" xlink:title=" ">
<polygon fill="none" stroke="black" points="0,-56.5 0,-75.5 141,-75.5 141,-56.5 0,-56.5"/>
<text text-anchor="middle" x="70.5" y="-63.5" font-family="Helvetica,sans-Serif" font-size="10.00">../../../misc/preprocessor.h</text>
</a>
</g>
</g>
<!-- Node1&#45;&gt;Node5 -->
<g id="edge4" class="edge">
<title>Node1&#45;&gt;Node5</title>
<path fill="none" stroke="midnightblue" d="M390.95,-230.84C330.34,-225.96 194.36,-212.54 155.5,-188 116.03,-163.07 89.74,-112.5 77.83,-85.3"/>
<polygon fill="midnightblue" stroke="midnightblue" points="80.94,-83.68 73.84,-75.81 74.49,-86.39 80.94,-83.68"/>
</g>
<!-- Node6 -->
<g id="node6" class="node">
<title>Node6</title>
<g id="a_node6"><a xlink:href="math_helpers_8h.html" target="_top" xlink:title=" ">
<polygon fill="none" stroke="black" points="865,-168.5 865,-187.5 972,-187.5 972,-168.5 865,-168.5"/>
<text text-anchor="middle" x="918.5" y="-175.5" font-family="Helvetica,sans-Serif" font-size="10.00">../../mathHelpers.h</text>
</a>
</g>
</g>
<!-- Node1&#45;&gt;Node6 -->
<g id="edge6" class="edge">
<title>Node1&#45;&gt;Node6</title>
<path fill="none" stroke="midnightblue" d="M450.25,-230.17C520.15,-223.46 700.3,-205.8 850.5,-188 851.8,-187.85 853.11,-187.69 854.43,-187.53"/>
<polygon fill="midnightblue" stroke="midnightblue" points="855.2,-190.96 864.7,-186.26 854.34,-184.01 855.2,-190.96"/>
</g>
<!-- Node15 -->
<g id="node15" class="node">
<title>Node15</title>
<g id="a_node15"><a xlink:href="3_dshape_8h.html" target="_top" xlink:title=" ">
<polygon fill="none" stroke="black" points="772.5,-56.5 772.5,-75.5 840.5,-75.5 840.5,-56.5 772.5,-56.5"/>
<text text-anchor="middle" x="806.5" y="-63.5" font-family="Helvetica,sans-Serif" font-size="10.00">3Dshape.h</text>
</a>
</g>
</g>
<!-- Node1&#45;&gt;Node15 -->
<g id="edge24" class="edge">
<title>Node1&#45;&gt;Node15</title>
<path fill="none" stroke="midnightblue" d="M440.44,-224.42C503.97,-197.1 701.86,-112 777.08,-79.65"/>
<polygon fill="midnightblue" stroke="midnightblue" points="778.64,-82.79 786.45,-75.62 775.88,-76.36 778.64,-82.79"/>
</g>
<!-- Node5&#45;&gt;Node4 -->
<g id="edge5" class="edge">
<title>Node5&#45;&gt;Node4</title>
<path fill="none" stroke="midnightblue" d="M86.41,-56.32C102.14,-47.74 126.44,-34.49 144.71,-24.52"/>
<polygon fill="midnightblue" stroke="midnightblue" points="146.53,-27.52 153.63,-19.65 143.18,-21.37 146.53,-27.52"/>
</g>
<!-- Node6&#45;&gt;Node2 -->
<g id="edge7" class="edge">
<title>Node6&#45;&gt;Node2</title>
<path fill="none" stroke="midnightblue" d="M864.68,-176.03C780.26,-173.51 612.04,-164.46 473.5,-132 404.62,-115.86 366.1,-133.22 324.5,-76 314.85,-62.73 315.18,-43.61 317.28,-29.54"/>
<polygon fill="midnightblue" stroke="midnightblue" points="320.75,-30.02 319.18,-19.54 313.87,-28.71 320.75,-30.02"/>
</g>
<!-- Node6&#45;&gt;Node3 -->
<g id="edge10" class="edge">
<title>Node6&#45;&gt;Node3</title>
<path fill="none" stroke="midnightblue" d="M972.21,-171.4C997.63,-165.74 1025.8,-154.46 1041.5,-132 1046.59,-124.71 1043.54,-120.65 1041.5,-112 1035.11,-84.92 1034.71,-74.01 1013.5,-56 988.25,-34.56 952.84,-23.32 923.34,-17.44"/>
<polygon fill="midnightblue" stroke="midnightblue" points="923.64,-13.94 913.18,-15.58 922.38,-20.82 923.64,-13.94"/>
</g>
<!-- Node7 -->
<g id="node7" class="node">
<title>Node7</title>
<g id="a_node7"><a xlink:title=" ">
<polygon fill="none" stroke="#bfbfbf" points="865,-112.5 865,-131.5 912,-131.5 912,-112.5 865,-112.5"/>
<text text-anchor="middle" x="888.5" y="-119.5" font-family="Helvetica,sans-Serif" font-size="10.00">cmath</text>
</a>
</g>
</g>
<!-- Node6&#45;&gt;Node7 -->
<g id="edge8" class="edge">
<title>Node6&#45;&gt;Node7</title>
<path fill="none" stroke="midnightblue" d="M913.55,-168.08C909.4,-160.61 903.35,-149.72 898.23,-140.52"/>
<polygon fill="midnightblue" stroke="midnightblue" points="901.28,-138.79 893.36,-131.75 895.16,-142.19 901.28,-138.79"/>
</g>
<!-- Node8 -->
<g id="node8" class="node">
<title>Node8</title>
<g id="a_node8"><a xlink:title=" ">
<polygon fill="none" stroke="#bfbfbf" points="935,-56.5 935,-75.5 1004,-75.5 1004,-56.5 935,-56.5"/>
<text text-anchor="middle" x="969.5" y="-63.5" font-family="Helvetica,sans-Serif" font-size="10.00">type_traits</text>
</a>
</g>
</g>
<!-- Node6&#45;&gt;Node8 -->
<g id="edge9" class="edge">
<title>Node6&#45;&gt;Node8</title>
<path fill="none" stroke="midnightblue" d="M922.5,-168.37C930.81,-150.46 950.06,-108.92 961.18,-84.95"/>
<polygon fill="midnightblue" stroke="midnightblue" points="964.49,-86.14 965.52,-75.59 958.14,-83.19 964.49,-86.14"/>
</g>
<!-- Node9 -->
<g id="node9" class="node">
<title>Node9</title>
<g id="a_node9"><a xlink:title=" ">
<polygon fill="none" stroke="#bfbfbf" points="968.5,-112.5 968.5,-131.5 1032.5,-131.5 1032.5,-112.5 968.5,-112.5"/>
<text text-anchor="middle" x="1000.5" y="-119.5" font-family="Helvetica,sans-Serif" font-size="10.00">algorithm</text>
</a>
</g>
</g>
<!-- Node6&#45;&gt;Node9 -->
<g id="edge11" class="edge">
<title>Node6&#45;&gt;Node9</title>
<path fill="none" stroke="midnightblue" d="M931.67,-168.32C944.35,-159.98 963.73,-147.21 978.71,-137.35"/>
<polygon fill="midnightblue" stroke="midnightblue" points="980.93,-140.08 987.36,-131.65 977.08,-134.23 980.93,-140.08"/>
</g>
<!-- Node10 -->
<g id="node10" class="node">
<title>Node10</title>
<g id="a_node10"><a xlink:href="limes__assert_8h.html" target="_top" xlink:title=" ">
<polygon fill="none" stroke="black" points="482.5,-112.5 482.5,-131.5 618.5,-131.5 618.5,-112.5 482.5,-112.5"/>
<text text-anchor="middle" x="550.5" y="-119.5" font-family="Helvetica,sans-Serif" font-size="10.00">../system/limes_assert.h</text>
</a>
</g>
</g>
<!-- Node6&#45;&gt;Node10 -->
<g id="edge12" class="edge">
<title>Node6&#45;&gt;Node10</title>
<path fill="none" stroke="midnightblue" d="M864.99,-169.15C799.91,-159.6 689.98,-143.47 618.84,-133.03"/>
<polygon fill="midnightblue" stroke="midnightblue" points="619.03,-129.52 608.63,-131.53 618.02,-136.45 619.03,-129.52"/>
</g>
<!-- Node10&#45;&gt;Node2 -->
<g id="edge14" class="edge">
<title>Node10&#45;&gt;Node2</title>
<path fill="none" stroke="midnightblue" d="M482.31,-113.97C429.11,-107.13 360.92,-94.97 340.5,-76 327.86,-64.25 323.47,-44.61 322.02,-29.99"/>
<polygon fill="midnightblue" stroke="midnightblue" points="325.49,-29.35 321.39,-19.58 318.5,-29.78 325.49,-29.35"/>
</g>
<!-- Node10&#45;&gt;Node3 -->
<g id="edge13" class="edge">
<title>Node10&#45;&gt;Node3</title>
<path fill="none" stroke="midnightblue" d="M618.71,-119.07C696.13,-115.47 816.04,-105.22 849.5,-76 862.63,-64.54 866.92,-44.56 868.21,-29.77"/>
<polygon fill="midnightblue" stroke="midnightblue" points="871.71,-29.86 868.71,-19.7 864.72,-29.51 871.71,-29.86"/>
</g>
<!-- Node10&#45;&gt;Node4 -->
<g id="edge22" class="edge">
<title>Node10&#45;&gt;Node4</title>
<path fill="none" stroke="midnightblue" d="M490.69,-112.45C444.66,-105.07 379.78,-92.91 324.5,-76 277.92,-61.75 226.18,-38.45 195.82,-23.96"/>
<polygon fill="midnightblue" stroke="midnightblue" points="197.27,-20.77 186.74,-19.58 194.23,-27.08 197.27,-20.77"/>
</g>
<!-- Node10&#45;&gt;Node5 -->
<g id="edge15" class="edge">
<title>Node10&#45;&gt;Node5</title>
<path fill="none" stroke="midnightblue" d="M482.49,-113.35C395.37,-103.55 244.54,-86.58 151.55,-76.12"/>
<polygon fill="midnightblue" stroke="midnightblue" points="151.67,-72.61 141.34,-74.97 150.89,-79.57 151.67,-72.61"/>
</g>
<!-- Node10&#45;&gt;Node8 -->
<g id="edge16" class="edge">
<title>Node10&#45;&gt;Node8</title>
<path fill="none" stroke="midnightblue" d="M616.89,-112.44C702.89,-101.36 850.51,-82.34 924.48,-72.8"/>
<polygon fill="midnightblue" stroke="midnightblue" points="925.37,-76.22 934.85,-71.47 924.48,-69.27 925.37,-76.22"/>
</g>
<!-- Node11 -->
<g id="node11" class="node">
<title>Node11</title>
<g id="a_node11"><a xlink:title=" ">
<polygon fill="none" stroke="#bfbfbf" points="582,-56.5 582,-75.5 627,-75.5 627,-56.5 582,-56.5"/>
<text text-anchor="middle" x="604.5" y="-63.5" font-family="Helvetica,sans-Serif" font-size="10.00">utility</text>
</a>
</g>
</g>
<!-- Node10&#45;&gt;Node11 -->
<g id="edge17" class="edge">
<title>Node10&#45;&gt;Node11</title>
<path fill="none" stroke="midnightblue" d="M559.42,-112.08C567.28,-104.22 578.93,-92.57 588.42,-83.08"/>
<polygon fill="midnightblue" stroke="midnightblue" points="591.15,-85.3 595.75,-75.75 586.2,-80.35 591.15,-85.3"/>
</g>
<!-- Node12 -->
<g id="node12" class="node">
<title>Node12</title>
<g id="a_node12"><a xlink:title=" ">
<polygon fill="none" stroke="#bfbfbf" points="645,-56.5 645,-75.5 754,-75.5 754,-56.5 645,-56.5"/>
<text text-anchor="middle" x="699.5" y="-63.5" font-family="Helvetica,sans-Serif" font-size="10.00">limes_build_type.h</text>
</a>
</g>
</g>
<!-- Node10&#45;&gt;Node12 -->
<g id="edge18" class="edge">
<title>Node10&#45;&gt;Node12</title>
<path fill="none" stroke="midnightblue" d="M574.11,-112.44C598.96,-103.44 638.27,-89.19 666.25,-79.05"/>
<polygon fill="midnightblue" stroke="midnightblue" points="667.79,-82.21 676,-75.52 665.41,-75.63 667.79,-82.21"/>
</g>
<!-- Node13 -->
<g id="node13" class="node">
<title>Node13</title>
<g id="a_node13"><a xlink:href="_ignore_unused_8h.html" target="_top" xlink:title=" ">
<polygon fill="none" stroke="black" points="435.5,-56.5 435.5,-75.5 563.5,-75.5 563.5,-56.5 435.5,-56.5"/>
<text text-anchor="middle" x="499.5" y="-63.5" font-family="Helvetica,sans-Serif" font-size="10.00">../misc/IgnoreUnused.h</text>
</a>
</g>
</g>
<!-- Node10&#45;&gt;Node13 -->
<g id="edge19" class="edge">
<title>Node10&#45;&gt;Node13</title>
<path fill="none" stroke="midnightblue" d="M542.08,-112.08C534.65,-104.22 523.65,-92.57 514.69,-83.08"/>
<polygon fill="midnightblue" stroke="midnightblue" points="517.18,-80.62 507.76,-75.75 512.09,-85.42 517.18,-80.62"/>
</g>
<!-- Node14 -->
<g id="node14" class="node">
<title>Node14</title>
<g id="a_node14"><a xlink:title=" ">
<polygon fill="none" stroke="#bfbfbf" points="349.5,-56.5 349.5,-75.5 417.5,-75.5 417.5,-56.5 349.5,-56.5"/>
<text text-anchor="middle" x="383.5" y="-63.5" font-family="Helvetica,sans-Serif" font-size="10.00">filesystem</text>
</a>
</g>
</g>
<!-- Node10&#45;&gt;Node14 -->
<g id="edge23" class="edge">
<title>Node10&#45;&gt;Node14</title>
<path fill="none" stroke="midnightblue" d="M524.04,-112.44C495.82,-103.32 450.96,-88.81 419.53,-78.65"/>
<polygon fill="midnightblue" stroke="midnightblue" points="420.43,-75.26 409.84,-75.52 418.28,-81.92 420.43,-75.26"/>
</g>
<!-- Node13&#45;&gt;Node2 -->
<g id="edge21" class="edge">
<title>Node13&#45;&gt;Node2</title>
<path fill="none" stroke="midnightblue" d="M471.3,-56.44C441.09,-47.28 392.99,-32.69 359.47,-22.52"/>
<polygon fill="midnightblue" stroke="midnightblue" points="360.16,-19.07 349.57,-19.52 358.13,-25.77 360.16,-19.07"/>
</g>
<!-- Node13&#45;&gt;Node3 -->
<g id="edge20" class="edge">
<title>Node13&#45;&gt;Node3</title>
<path fill="none" stroke="midnightblue" d="M557.97,-56.44C628.23,-46.16 745.21,-29.04 813.77,-19.01"/>
<polygon fill="midnightblue" stroke="midnightblue" points="814.54,-22.43 823.93,-17.52 813.53,-15.51 814.54,-22.43"/>
</g>
<!-- Node15&#45;&gt;Node2 -->
<g id="edge25" class="edge">
<title>Node15&#45;&gt;Node2</title>
<path fill="none" stroke="midnightblue" d="M772.45,-57.68C769.1,-57.07 765.74,-56.49 762.5,-56 630.78,-35.86 475.5,-22.38 388.79,-15.76"/>
<polygon fill="midnightblue" stroke="midnightblue" points="389.05,-12.27 378.82,-15.01 388.53,-19.25 389.05,-12.27"/>
</g>
<!-- Node15&#45;&gt;Node3 -->
<g id="edge26" class="edge">
<title>Node15&#45;&gt;Node3</title>
<path fill="none" stroke="midnightblue" d="M816.46,-56.32C825.63,-48.34 839.44,-36.31 850.53,-26.65"/>
<polygon fill="midnightblue" stroke="midnightblue" points="853.12,-29.04 858.36,-19.83 848.52,-23.76 853.12,-29.04"/>
</g>
</g>
</svg>
        <g id="navigator" transform="translate(0 0)" fill="#404254">
                <rect fill="#f2f5e9" fill-opacity="0.5" stroke="#606060" stroke-width=".5" x="0" y="0" width="60" height="60"/>
                <use id="zoomplus" xlink:href="#zoomPlus" x="17" y="9" onmousedown="handleZoom(evt,'in')"/>
                <use id="zoomminus" xlink:href="#zoomMin" x="42" y="9" onmousedown="handleZoom(evt,'out')"/>
                <use id="reset" xlink:href="#resetDef" x="30" y="36" onmousedown="handleReset()"/>
                <g id="arrowUp" xlink:href="#dirArrow" transform="translate(30 24)" onmousedown="handlePan(0,-1)">
                  <use xlink:href="#rim" fill="#404040">
                        <set attributeName="fill" to="#808080" begin="arrowUp.mouseover" end="arrowUp.mouseout"/>
                  </use>
                  <path fill="none" stroke="white" stroke-width="1.5" d="M0,-3.0v7 M-2.5,-0.5L0,-3.0L2.5,-0.5"/>
                </g>
                <g id="arrowRight" xlink:href="#dirArrow" transform="rotate(90) translate(36 -43)" onmousedown="handlePan(1,0)">
                  <use xlink:href="#rim" fill="#404040">
                        <set attributeName="fill" to="#808080" begin="arrowRight.mouseover" end="arrowRight.mouseout"/>
                  </use>
                  <path fill="none" stroke="white" stroke-width="1.5" d="M0,-3.0v7 M-2.5,-0.5L0,-3.0L2.5,-0.5"/>
                </g>
                <g id="arrowDown" xlink:href="#dirArrow" transform="rotate(180) translate(-30 -48)" onmousedown="handlePan(0,1)">
                  <use xlink:href="#rim" fill="#404040">
                        <set attributeName="fill" to="#808080" begin="arrowDown.mouseover" end="arrowDown.mouseout"/>
                  </use>
                  <path fill="none" stroke="white" stroke-width="1.5" d="M0,-3.0v7 M-2.5,-0.5L0,-3.0L2.5,-0.5"/>
                </g>
                <g id="arrowLeft" xlink:href="#dirArrow" transform="rotate(270) translate(-36 17)" onmousedown="handlePan(-1,0)">
                  <use xlink:href="#rim" fill="#404040">
                        <set attributeName="fill" to="#808080" begin="arrowLeft.mouseover" end="arrowLeft.mouseout"/>
                  </use>
                  <path fill="none" stroke="white" stroke-width="1.5" d="M0,-3.0v7 M-2.5,-0.5L0,-3.0L2.5,-0.5"/>
                </g>
        </g>
        <svg viewBox="0 0 15 15" width="100%" height="30px" preserveAspectRatio="xMaxYMin meet">
         <g id="arrow_out" transform="scale(0.3 0.3)">
          <a xlink:href="sphere_8h__incl_org.svg" target="_base">
           <rect id="button" ry="5" rx="5" y="6" x="6" height="38" width="38"
                fill="#f2f5e9" fill-opacity="0.5" stroke="#606060" stroke-width="1.0"/>
           <path id="arrow"
             d="M 11.500037,31.436501 C 11.940474,20.09759 22.043105,11.32322 32.158766,21.979434 L 37.068811,17.246167 C 37.068811,17.246167 37.088388,32 37.088388,32 L 22.160133,31.978069 C 22.160133,31.978069 26.997745,27.140456 26.997745,27.140456 C 18.528582,18.264221 13.291696,25.230495 11.500037,31.436501 z"
             style="fill:#404040;"/>
          </a>
         </g>
        </svg>
</svg>
