<?xml version="1.0" encoding="UTF-8" standalone="no"?>
<!DOCTYPE svg PUBLIC "-//W3C//DTD SVG 1.1//EN"
 "http://www.w3.org/Graphics/SVG/1.1/DTD/svg11.dtd">
<!-- Generated by graphviz version 2.43.0 (0)
 -->
<!-- Title: square.h Pages: 1 -->
<!--zoomable 431 -->
<svg id="main" version="1.1" xmlns="http://www.w3.org/2000/svg" xmlns:xlink="http://www.w3.org/1999/xlink" xml:space="preserve" onload="init(evt)">
<style type="text/css"><![CDATA[
.edge:hover path { stroke: red; }
.edge:hover polygon { stroke: red; fill: red; }
]]></style>
<script type="text/javascript"><![CDATA[
var edges = document.getElementsByTagName('g');
if (edges && edges.length) {
  for (var i=0;i<edges.length;i++) {
    if (edges[i].id.substr(0,4)=='edge') {
      edges[i].setAttribute('class','edge');
    }
  }
}
]]></script>
        <defs>
                <circle id="rim" cx="0" cy="0" r="7"/>
                <circle id="rim2" cx="0" cy="0" r="3.5"/>
                <g id="zoomPlus">
                        <use xlink:href="#rim" fill="#404040">
                                <set attributeName="fill" to="#808080" begin="zoomplus.mouseover" end="zoomplus.mouseout"/>
                        </use>
                        <path d="M-4,0h8M0,-4v8" fill="none" stroke="white" stroke-width="1.5" pointer-events="none"/>
                </g>
                <g id="zoomMin">
                        <use xlink:href="#rim" fill="#404040">
                                <set attributeName="fill" to="#808080" begin="zoomminus.mouseover" end="zoomminus.mouseout"/>
                        </use>
                        <path d="M-4,0h8" fill="none" stroke="white" stroke-width="1.5" pointer-events="none"/>
                </g>
                <g id="dirArrow">
                        <path fill="none" stroke="white" stroke-width="1.5" d="M0,-3.0v7 M-2.5,-0.5L0,-3.0L2.5,-0.5"/>
                </g>
               <g id="resetDef">
                       <use xlink:href="#rim2" fill="#404040">
                               <set attributeName="fill" to="#808080" begin="reset.mouseover" end="reset.mouseout"/>
                       </use>
               </g>
        </defs>

<script type="text/javascript">
var viewWidth = 1312;
var viewHeight = 431;
var sectionId = 'dynsection-0';
</script>
<script xlink:href="svgpan.js"/>
<svg id="graph" class="graph">
<g id="viewport">
<title>square.h</title>
<!-- Node1 -->
<g id="node1" class="node">
<title>Node1</title>
<g id="a_node1"><a xlink:title=" ">
<polygon fill="#bfbfbf" stroke="black" points="776.5,-403.5 776.5,-422.5 835.5,-422.5 835.5,-403.5 776.5,-403.5"/>
<text text-anchor="middle" x="806" y="-410.5" font-family="Helvetica,sans-Serif" font-size="10.00">square.h</text>
</a>
</g>
</g>
<!-- Node2 -->
<g id="node2" class="node">
<title>Node2</title>
<g id="a_node2"><a xlink:href="limes__namespace_8h.html" target="_top" xlink:title=" ">
<polygon fill="none" stroke="black" points="95,-0.5 95,-19.5 209,-19.5 209,-0.5 95,-0.5"/>
<text text-anchor="middle" x="152" y="-7.5" font-family="Helvetica,sans-Serif" font-size="10.00">limes_namespace.h</text>
</a>
</g>
</g>
<!-- Node1&#45;&gt;Node2 -->
<g id="edge1" class="edge">
<title>Node1&#45;&gt;Node2</title>
<path fill="none" stroke="midnightblue" d="M776.32,-411.34C664.51,-408.64 268.9,-397.12 147,-367 77.65,-349.86 0,-373.44 0,-302 0,-302 0,-302 0,-126.5 0,-70.77 65.59,-38.42 110.59,-22.78"/>
<polygon fill="midnightblue" stroke="midnightblue" points="111.75,-26.08 120.14,-19.6 109.54,-19.44 111.75,-26.08"/>
</g>
<!-- Node3 -->
<g id="node3" class="node">
<title>Node3</title>
<g id="a_node3"><a xlink:title=" ">
<polygon fill="none" stroke="#bfbfbf" points="335.5,-0.5 335.5,-19.5 424.5,-19.5 424.5,-0.5 335.5,-0.5"/>
<text text-anchor="middle" x="380" y="-7.5" font-family="Helvetica,sans-Serif" font-size="10.00">limes_export.h</text>
</a>
</g>
</g>
<!-- Node1&#45;&gt;Node3 -->
<g id="edge2" class="edge">
<title>Node1&#45;&gt;Node3</title>
<path fill="none" stroke="midnightblue" d="M782.68,-403.43C713.44,-376.71 507.74,-287.97 408,-143 384.07,-108.21 379.95,-56.97 379.62,-29.69"/>
<polygon fill="midnightblue" stroke="midnightblue" points="383.12,-29.6 379.66,-19.59 376.12,-29.58 383.12,-29.6"/>
</g>
<!-- Node4 -->
<g id="node4" class="node">
<title>Node4</title>
<g id="a_node4"><a xlink:title=" ">
<polygon fill="none" stroke="#bfbfbf" points="961,-0.5 961,-19.5 1061,-19.5 1061,-0.5 961,-0.5"/>
<text text-anchor="middle" x="1011" y="-7.5" font-family="Helvetica,sans-Serif" font-size="10.00">limes_platform.h</text>
</a>
</g>
</g>
<!-- Node1&#45;&gt;Node4 -->
<g id="edge3" class="edge">
<title>Node1&#45;&gt;Node4</title>
<path fill="none" stroke="midnightblue" d="M835.66,-411.83C942.87,-410.42 1304,-398.51 1304,-302 1304,-302 1304,-302 1304,-126.5 1304,-81.07 1270.25,-77.05 1230,-56 1180.28,-29.99 1116.87,-19.01 1071.1,-14.37"/>
<polygon fill="midnightblue" stroke="midnightblue" points="1071.31,-10.88 1061.03,-13.43 1070.66,-17.85 1071.31,-10.88"/>
</g>
<!-- Node5 -->
<g id="node5" class="node">
<title>Node5</title>
<g id="a_node5"><a xlink:href="2_dshape_8h.html" target="_top" xlink:title=" ">
<polygon fill="none" stroke="black" points="56,-235.5 56,-254.5 124,-254.5 124,-235.5 56,-235.5"/>
<text text-anchor="middle" x="90" y="-242.5" font-family="Helvetica,sans-Serif" font-size="10.00">2Dshape.h</text>
</a>
</g>
</g>
<!-- Node1&#45;&gt;Node5 -->
<g id="edge4" class="edge">
<title>Node1&#45;&gt;Node5</title>
<path fill="none" stroke="midnightblue" d="M776.46,-411.36C658.98,-408.63 228.75,-396.65 176,-367 134.76,-343.82 108.45,-291.68 96.86,-264.02"/>
<polygon fill="midnightblue" stroke="midnightblue" points="100.1,-262.71 93.13,-254.73 93.61,-265.31 100.1,-262.71"/>
</g>
<!-- Node6 -->
<g id="node6" class="node">
<title>Node6</title>
<g id="a_node6"><a xlink:href="preprocessor_8h.html" target="_top" xlink:title=" ">
<polygon fill="none" stroke="black" points="1058.5,-56.5 1058.5,-75.5 1199.5,-75.5 1199.5,-56.5 1058.5,-56.5"/>
<text text-anchor="middle" x="1129" y="-63.5" font-family="Helvetica,sans-Serif" font-size="10.00">../../../misc/preprocessor.h</text>
</a>
</g>
</g>
<!-- Node1&#45;&gt;Node6 -->
<g id="edge7" class="edge">
<title>Node1&#45;&gt;Node6</title>
<path fill="none" stroke="midnightblue" d="M835.83,-411.29C937.76,-408.06 1266,-390.78 1266,-302 1266,-302 1266,-302 1266,-188 1266,-132.92 1203.01,-96.9 1162.46,-79.42"/>
<polygon fill="midnightblue" stroke="midnightblue" points="1163.76,-76.17 1153.18,-75.57 1161.07,-82.64 1163.76,-76.17"/>
</g>
<!-- Node7 -->
<g id="node7" class="node">
<title>Node7</title>
<g id="a_node7"><a xlink:href="rectangle_8h.html" target="_top" xlink:title=" ">
<polygon fill="none" stroke="black" points="828.5,-347.5 828.5,-366.5 899.5,-366.5 899.5,-347.5 828.5,-347.5"/>
<text text-anchor="middle" x="864" y="-354.5" font-family="Helvetica,sans-Serif" font-size="10.00">rectangle.h</text>
</a>
</g>
</g>
<!-- Node1&#45;&gt;Node7 -->
<g id="edge9" class="edge">
<title>Node1&#45;&gt;Node7</title>
<path fill="none" stroke="midnightblue" d="M815.32,-403.32C823.89,-395.34 836.81,-383.31 847.19,-373.65"/>
<polygon fill="midnightblue" stroke="midnightblue" points="849.58,-376.21 854.51,-366.83 844.81,-371.09 849.58,-376.21"/>
</g>
<!-- Node8 -->
<g id="node8" class="node">
<title>Node8</title>
<g id="a_node8"><a xlink:href="triangle_8h.html" target="_top" xlink:title=" ">
<polygon fill="none" stroke="black" points="740.5,-291.5 740.5,-310.5 803.5,-310.5 803.5,-291.5 740.5,-291.5"/>
<text text-anchor="middle" x="772" y="-298.5" font-family="Helvetica,sans-Serif" font-size="10.00">triangle.h</text>
</a>
</g>
</g>
<!-- Node1&#45;&gt;Node8 -->
<g id="edge49" class="edge">
<title>Node1&#45;&gt;Node8</title>
<path fill="none" stroke="midnightblue" d="M803.33,-403.37C797.82,-385.54 785.07,-344.3 777.65,-320.27"/>
<polygon fill="midnightblue" stroke="midnightblue" points="780.95,-319.11 774.66,-310.59 774.26,-321.18 780.95,-319.11"/>
</g>
<!-- Node11 -->
<g id="node11" class="node">
<title>Node11</title>
<g id="a_node11"><a xlink:title=" ">
<polygon fill="none" stroke="#bfbfbf" points="1096.5,-118 1096.5,-137 1143.5,-137 1143.5,-118 1096.5,-118"/>
<text text-anchor="middle" x="1120" y="-125" font-family="Helvetica,sans-Serif" font-size="10.00">cmath</text>
</a>
</g>
</g>
<!-- Node1&#45;&gt;Node11 -->
<g id="edge50" class="edge">
<title>Node1&#45;&gt;Node11</title>
<path fill="none" stroke="midnightblue" d="M835.77,-404.04C894.15,-386.9 1024.07,-340.89 1094,-255 1111.57,-233.42 1115.61,-226.08 1122,-199 1124.04,-190.35 1122.18,-187.89 1122,-179 1121.79,-168.52 1121.34,-156.83 1120.92,-147.34"/>
<polygon fill="midnightblue" stroke="midnightblue" points="1124.41,-146.9 1120.44,-137.07 1117.41,-147.23 1124.41,-146.9"/>
</g>
<!-- Node5&#45;&gt;Node2 -->
<g id="edge5" class="edge">
<title>Node5&#45;&gt;Node2</title>
<path fill="none" stroke="midnightblue" d="M84.99,-235.33C69.38,-207.08 24.87,-116.07 62,-56 71.67,-40.35 88.62,-29.96 105.22,-23.15"/>
<polygon fill="midnightblue" stroke="midnightblue" points="106.75,-26.32 114.9,-19.54 104.31,-19.76 106.75,-26.32"/>
</g>
<!-- Node5&#45;&gt;Node3 -->
<g id="edge6" class="edge">
<title>Node5&#45;&gt;Node3</title>
<path fill="none" stroke="midnightblue" d="M93.12,-235.29C104.34,-205.31 145.57,-105.5 214,-56 246.59,-32.43 290.84,-21.2 325.46,-15.86"/>
<polygon fill="midnightblue" stroke="midnightblue" points="326.01,-19.32 335.41,-14.44 325.02,-12.39 326.01,-19.32"/>
</g>
<!-- Node6&#45;&gt;Node4 -->
<g id="edge8" class="edge">
<title>Node6&#45;&gt;Node4</title>
<path fill="none" stroke="midnightblue" d="M1110.3,-56.44C1091.06,-47.64 1060.85,-33.81 1038.8,-23.72"/>
<polygon fill="midnightblue" stroke="midnightblue" points="1040.16,-20.5 1029.61,-19.52 1037.25,-26.86 1040.16,-20.5"/>
</g>
<!-- Node7&#45;&gt;Node2 -->
<g id="edge10" class="edge">
<title>Node7&#45;&gt;Node2</title>
<path fill="none" stroke="midnightblue" d="M828.2,-350.26C729.6,-333.08 448.8,-274.91 258,-143 221.78,-117.96 211.62,-111.08 185,-76 174.02,-61.52 164.97,-42.83 159.14,-29.21"/>
<polygon fill="midnightblue" stroke="midnightblue" points="162.22,-27.48 155.19,-19.55 155.74,-30.13 162.22,-27.48"/>
</g>
<!-- Node7&#45;&gt;Node3 -->
<g id="edge11" class="edge">
<title>Node7&#45;&gt;Node3</title>
<path fill="none" stroke="midnightblue" d="M864.26,-347.44C864.8,-328.94 866,-283.82 866,-246 866,-246 866,-246 866,-188 866,-153.07 876.45,-145.6 886,-112 890.57,-95.91 894.53,-92.55 897,-76 898.31,-67.21 903.01,-62.55 897,-56 866.24,-22.45 561.93,-13.83 435.07,-11.68"/>
<polygon fill="midnightblue" stroke="midnightblue" points="434.86,-8.18 424.8,-11.52 434.75,-15.18 434.86,-8.18"/>
</g>
<!-- Node7&#45;&gt;Node4 -->
<g id="edge12" class="edge">
<title>Node7&#45;&gt;Node4</title>
<path fill="none" stroke="midnightblue" d="M899.56,-355.87C991.16,-353.48 1228,-333.43 1228,-190 1228,-190 1228,-190 1228,-126.5 1228,-94.05 1232.4,-78.49 1209,-56 1189.46,-37.22 1121.97,-24.77 1071.18,-17.82"/>
<polygon fill="midnightblue" stroke="midnightblue" points="1071.63,-14.35 1061.26,-16.5 1070.71,-21.28 1071.63,-14.35"/>
</g>
<!-- Node7&#45;&gt;Node5 -->
<g id="edge13" class="edge">
<title>Node7&#45;&gt;Node5</title>
<path fill="none" stroke="midnightblue" d="M828.33,-355.46C709.95,-353.35 331,-344.13 214,-311 175.19,-300.01 134.58,-275.95 110.82,-260.38"/>
<polygon fill="midnightblue" stroke="midnightblue" points="112.55,-257.33 102.29,-254.69 108.66,-263.15 112.55,-257.33"/>
</g>
<!-- Node7&#45;&gt;Node6 -->
<g id="edge14" class="edge">
<title>Node7&#45;&gt;Node6</title>
<path fill="none" stroke="midnightblue" d="M899.58,-350.08C932.81,-343.6 983.14,-331.34 1023,-311 1058.8,-292.73 1068.3,-285.9 1094,-255 1129.98,-211.75 1139.49,-197.62 1153,-143 1156.31,-129.63 1156.34,-125.37 1153,-112 1150.56,-102.25 1145.56,-92.29 1140.76,-84.23"/>
<polygon fill="midnightblue" stroke="midnightblue" points="1143.69,-82.32 1135.37,-75.77 1137.79,-86.08 1143.69,-82.32"/>
</g>
<!-- Node7&#45;&gt;Node8 -->
<g id="edge15" class="edge">
<title>Node7&#45;&gt;Node8</title>
<path fill="none" stroke="midnightblue" d="M849.22,-347.32C834.73,-338.82 812.43,-325.73 795.51,-315.8"/>
<polygon fill="midnightblue" stroke="midnightblue" points="797.14,-312.7 786.74,-310.65 793.6,-318.74 797.14,-312.7"/>
</g>
<!-- Node7&#45;&gt;Node11 -->
<g id="edge48" class="edge">
<title>Node7&#45;&gt;Node11</title>
<path fill="none" stroke="midnightblue" d="M897.02,-347.5C941.97,-334.43 1022.58,-305.46 1073,-255 1102.85,-225.13 1113.96,-174.61 1117.93,-147.33"/>
<polygon fill="midnightblue" stroke="midnightblue" points="1121.43,-147.55 1119.23,-137.18 1114.49,-146.66 1121.43,-147.55"/>
</g>
<!-- Node8&#45;&gt;Node2 -->
<g id="edge16" class="edge">
<title>Node8&#45;&gt;Node2</title>
<path fill="none" stroke="midnightblue" d="M740.19,-295.38C699.81,-288.97 628.4,-275.75 570,-255 402.38,-195.44 354.21,-182.88 212,-76 193.29,-61.94 175.6,-41.59 164.34,-27.42"/>
<polygon fill="midnightblue" stroke="midnightblue" points="167.1,-25.27 158.21,-19.5 161.57,-29.55 167.1,-25.27"/>
</g>
<!-- Node8&#45;&gt;Node3 -->
<g id="edge17" class="edge">
<title>Node8&#45;&gt;Node3</title>
<path fill="none" stroke="midnightblue" d="M740.22,-293.12C674.77,-277.45 523.56,-233.24 434,-143 402.27,-111.03 388.37,-57.83 382.98,-29.72"/>
<polygon fill="midnightblue" stroke="midnightblue" points="386.39,-28.9 381.21,-19.66 379.49,-30.11 386.39,-28.9"/>
</g>
<!-- Node8&#45;&gt;Node4 -->
<g id="edge18" class="edge">
<title>Node8&#45;&gt;Node4</title>
<path fill="none" stroke="midnightblue" d="M800.03,-291.48C852.77,-273.74 965.5,-227.32 1011,-143 1030.52,-106.82 1022.68,-56.54 1016.25,-29.68"/>
<polygon fill="midnightblue" stroke="midnightblue" points="1019.56,-28.5 1013.66,-19.71 1012.78,-30.27 1019.56,-28.5"/>
</g>
<!-- Node8&#45;&gt;Node5 -->
<g id="edge19" class="edge">
<title>Node8&#45;&gt;Node5</title>
<path fill="none" stroke="midnightblue" d="M740.47,-297.5C630.4,-288.79 262.89,-259.69 134.63,-249.53"/>
<polygon fill="midnightblue" stroke="midnightblue" points="134.64,-246.02 124.39,-248.72 134.08,-253 134.64,-246.02"/>
</g>
<!-- Node8&#45;&gt;Node6 -->
<g id="edge20" class="edge">
<title>Node8&#45;&gt;Node6</title>
<path fill="none" stroke="midnightblue" d="M803.64,-297.55C861.4,-292.54 981.06,-279.45 1014,-255 1071.46,-212.35 1047.11,-170.73 1088,-112 1095.23,-101.61 1104.67,-91.1 1112.66,-82.85"/>
<polygon fill="midnightblue" stroke="midnightblue" points="1115.2,-85.27 1119.77,-75.71 1110.23,-80.33 1115.2,-85.27"/>
</g>
<!-- Node9 -->
<g id="node9" class="node">
<title>Node9</title>
<g id="a_node9"><a xlink:href="angle_8h.html" target="_top" xlink:title=" ">
<polygon fill="none" stroke="black" points="674.5,-235.5 674.5,-254.5 727.5,-254.5 727.5,-235.5 674.5,-235.5"/>
<text text-anchor="middle" x="701" y="-242.5" font-family="Helvetica,sans-Serif" font-size="10.00">angle.h</text>
</a>
</g>
</g>
<!-- Node8&#45;&gt;Node9 -->
<g id="edge21" class="edge">
<title>Node8&#45;&gt;Node9</title>
<path fill="none" stroke="midnightblue" d="M760.59,-291.32C749.89,-283.18 733.66,-270.84 720.84,-261.09"/>
<polygon fill="midnightblue" stroke="midnightblue" points="722.69,-258.1 712.61,-254.83 718.46,-263.67 722.69,-258.1"/>
</g>
<!-- Node10 -->
<g id="node10" class="node">
<title>Node10</title>
<g id="a_node10"><a xlink:href="math_helpers_8h.html" target="_top" xlink:title=" ">
<polygon fill="none" stroke="black" points="647.5,-179.5 647.5,-198.5 754.5,-198.5 754.5,-179.5 647.5,-179.5"/>
<text text-anchor="middle" x="701" y="-186.5" font-family="Helvetica,sans-Serif" font-size="10.00">../../mathHelpers.h</text>
</a>
</g>
</g>
<!-- Node8&#45;&gt;Node10 -->
<g id="edge46" class="edge">
<title>Node8&#45;&gt;Node10</title>
<path fill="none" stroke="midnightblue" d="M767.94,-291.3C761.86,-278.56 749.73,-254.24 737,-235 730.45,-225.09 722.23,-214.69 715.3,-206.39"/>
<polygon fill="midnightblue" stroke="midnightblue" points="717.81,-203.95 708.67,-198.61 712.49,-208.49 717.81,-203.95"/>
</g>
<!-- Node8&#45;&gt;Node11 -->
<g id="edge47" class="edge">
<title>Node8&#45;&gt;Node11</title>
<path fill="none" stroke="midnightblue" d="M803.96,-298.38C868.71,-294.55 1012.59,-283.05 1052,-255 1071.35,-241.23 1099.55,-177.93 1112.72,-146.42"/>
<polygon fill="midnightblue" stroke="midnightblue" points="1116,-147.65 1116.57,-137.07 1109.52,-144.98 1116,-147.65"/>
</g>
<!-- Node9&#45;&gt;Node2 -->
<g id="edge23" class="edge">
<title>Node9&#45;&gt;Node2</title>
<path fill="none" stroke="midnightblue" d="M674.42,-238.28C640.64,-230.71 580.75,-216.28 531,-199 401.45,-153.99 368.18,-142.06 248,-76 220.13,-60.68 190.1,-39.52 171.19,-25.55"/>
<polygon fill="midnightblue" stroke="midnightblue" points="173.2,-22.69 163.09,-19.51 169.01,-28.3 173.2,-22.69"/>
</g>
<!-- Node9&#45;&gt;Node3 -->
<g id="edge22" class="edge">
<title>Node9&#45;&gt;Node3</title>
<path fill="none" stroke="midnightblue" d="M674.35,-236.06C629.99,-222.03 539.41,-189.83 474,-143 441.01,-119.38 434.98,-109.44 412,-76 401.88,-61.28 393.14,-42.88 387.36,-29.42"/>
<polygon fill="midnightblue" stroke="midnightblue" points="390.46,-27.75 383.4,-19.85 383.99,-30.43 390.46,-27.75"/>
</g>
<!-- Node9&#45;&gt;Node4 -->
<g id="edge24" class="edge">
<title>Node9&#45;&gt;Node4</title>
<path fill="none" stroke="midnightblue" d="M713.16,-235.48C725.9,-226.51 746.48,-211.92 764,-199 849.66,-135.83 950.17,-58.23 991.62,-26.07"/>
<polygon fill="midnightblue" stroke="midnightblue" points="994.02,-28.64 999.77,-19.74 989.72,-23.11 994.02,-28.64"/>
</g>
<!-- Node9&#45;&gt;Node10 -->
<g id="edge25" class="edge">
<title>Node9&#45;&gt;Node10</title>
<path fill="none" stroke="midnightblue" d="M701,-235.08C701,-228.01 701,-217.86 701,-208.99"/>
<polygon fill="midnightblue" stroke="midnightblue" points="704.5,-208.75 701,-198.75 697.5,-208.75 704.5,-208.75"/>
</g>
<!-- Node10&#45;&gt;Node2 -->
<g id="edge26" class="edge">
<title>Node10&#45;&gt;Node2</title>
<path fill="none" stroke="midnightblue" d="M647.08,-180.32C600.63,-173 532.09,-160.49 474,-143 360.99,-108.98 232.96,-50.02 178.63,-23.99"/>
<polygon fill="midnightblue" stroke="midnightblue" points="179.89,-20.71 169.37,-19.53 176.86,-27.02 179.89,-20.71"/>
</g>
<!-- Node10&#45;&gt;Node3 -->
<g id="edge29" class="edge">
<title>Node10&#45;&gt;Node3</title>
<path fill="none" stroke="midnightblue" d="M653.8,-179.48C619.78,-172.33 573.31,-160.46 535,-143 486.32,-120.82 474.89,-111.65 435,-76 418.55,-61.29 402.58,-41.63 392.12,-27.8"/>
<polygon fill="midnightblue" stroke="midnightblue" points="394.86,-25.62 386.1,-19.66 389.24,-29.78 394.86,-25.62"/>
</g>
<!-- Node10&#45;&gt;Node11 -->
<g id="edge27" class="edge">
<title>Node10&#45;&gt;Node11</title>
<path fill="none" stroke="midnightblue" d="M754.92,-180.34C842.77,-167.87 1014.23,-143.52 1086.55,-133.25"/>
<polygon fill="midnightblue" stroke="midnightblue" points="1087.07,-136.71 1096.48,-131.84 1086.08,-129.78 1087.07,-136.71"/>
</g>
<!-- Node12 -->
<g id="node12" class="node">
<title>Node12</title>
<g id="a_node12"><a xlink:title=" ">
<polygon fill="none" stroke="#bfbfbf" points="818.5,-56.5 818.5,-75.5 887.5,-75.5 887.5,-56.5 818.5,-56.5"/>
<text text-anchor="middle" x="853" y="-63.5" font-family="Helvetica,sans-Serif" font-size="10.00">type_traits</text>
</a>
</g>
</g>
<!-- Node10&#45;&gt;Node12 -->
<g id="edge28" class="edge">
<title>Node10&#45;&gt;Node12</title>
<path fill="none" stroke="midnightblue" d="M715.99,-179.41C730.52,-170.85 752.96,-156.98 771,-143 795.56,-123.96 821.47,-99.01 837.44,-82.99"/>
<polygon fill="midnightblue" stroke="midnightblue" points="840.29,-85.08 844.82,-75.51 835.31,-80.17 840.29,-85.08"/>
</g>
<!-- Node13 -->
<g id="node13" class="node">
<title>Node13</title>
<g id="a_node13"><a xlink:title=" ">
<polygon fill="none" stroke="#bfbfbf" points="544,-118 544,-137 608,-137 608,-118 544,-118"/>
<text text-anchor="middle" x="576" y="-125" font-family="Helvetica,sans-Serif" font-size="10.00">algorithm</text>
</a>
</g>
</g>
<!-- Node10&#45;&gt;Node13 -->
<g id="edge30" class="edge">
<title>Node10&#45;&gt;Node13</title>
<path fill="none" stroke="midnightblue" d="M683.09,-179.48C662.11,-169.49 627.15,-152.85 602.91,-141.31"/>
<polygon fill="midnightblue" stroke="midnightblue" points="604.41,-138.15 593.88,-137.01 601.4,-144.47 604.41,-138.15"/>
</g>
<!-- Node14 -->
<g id="node14" class="node">
<title>Node14</title>
<g id="a_node14"><a xlink:href="limes__assert_8h.html" target="_top" xlink:title=" ">
<polygon fill="none" stroke="black" points="626,-118 626,-137 762,-137 762,-118 626,-118"/>
<text text-anchor="middle" x="694" y="-125" font-family="Helvetica,sans-Serif" font-size="10.00">../system/limes_assert.h</text>
</a>
</g>
</g>
<!-- Node10&#45;&gt;Node14 -->
<g id="edge31" class="edge">
<title>Node10&#45;&gt;Node14</title>
<path fill="none" stroke="midnightblue" d="M700,-179.48C699.01,-171.08 697.47,-157.98 696.2,-147.16"/>
<polygon fill="midnightblue" stroke="midnightblue" points="699.65,-146.53 695,-137.01 692.69,-147.35 699.65,-146.53"/>
</g>
<!-- Node18 -->
<g id="node18" class="node">
<title>Node18</title>
<g id="a_node18"><a xlink:href="compiler__defs_8h.html" target="_top" xlink:title=" ">
<polygon fill="none" stroke="black" points="894.5,-112.5 894.5,-142.5 1001.5,-142.5 1001.5,-112.5 894.5,-112.5"/>
<text text-anchor="start" x="902.5" y="-130.5" font-family="Helvetica,sans-Serif" font-size="10.00">../system/compiler</text>
<text text-anchor="middle" x="948" y="-119.5" font-family="Helvetica,sans-Serif" font-size="10.00">_defs.h</text>
</a>
</g>
</g>
<!-- Node10&#45;&gt;Node18 -->
<g id="edge43" class="edge">
<title>Node10&#45;&gt;Node18</title>
<path fill="none" stroke="midnightblue" d="M736.39,-179.48C775,-170.18 837.57,-155.1 884.68,-143.75"/>
<polygon fill="midnightblue" stroke="midnightblue" points="885.58,-147.14 894.49,-141.39 883.94,-140.33 885.58,-147.14"/>
</g>
<!-- Node14&#45;&gt;Node2 -->
<g id="edge33" class="edge">
<title>Node14&#45;&gt;Node2</title>
<path fill="none" stroke="midnightblue" d="M649.21,-117.95C586.37,-105.93 475.22,-84.54 435,-76 350.97,-58.16 253.43,-35.27 197.58,-21.96"/>
<polygon fill="midnightblue" stroke="midnightblue" points="198.19,-18.51 187.66,-19.59 196.57,-25.32 198.19,-18.51"/>
</g>
<!-- Node14&#45;&gt;Node3 -->
<g id="edge32" class="edge">
<title>Node14&#45;&gt;Node3</title>
<path fill="none" stroke="midnightblue" d="M647.71,-117.93C593,-107.43 505.55,-89.4 475,-76 445.75,-63.17 415.99,-41.02 397.76,-26.19"/>
<polygon fill="midnightblue" stroke="midnightblue" points="399.72,-23.27 389.79,-19.57 395.25,-28.65 399.72,-23.27"/>
</g>
<!-- Node14&#45;&gt;Node4 -->
<g id="edge41" class="edge">
<title>Node14&#45;&gt;Node4</title>
<path fill="none" stroke="midnightblue" d="M706.99,-117.86C732.54,-101 788.69,-64.59 810,-56 855.56,-37.64 910.09,-26.02 950.86,-19.2"/>
<polygon fill="midnightblue" stroke="midnightblue" points="951.6,-22.63 960.91,-17.57 950.48,-15.72 951.6,-22.63"/>
</g>
<!-- Node14&#45;&gt;Node6 -->
<g id="edge34" class="edge">
<title>Node14&#45;&gt;Node6</title>
<path fill="none" stroke="midnightblue" d="M756.32,-117.98C835.79,-107.11 972.91,-88.35 1056.83,-76.87"/>
<polygon fill="midnightblue" stroke="midnightblue" points="1057.36,-80.33 1066.79,-75.51 1056.41,-73.4 1057.36,-80.33"/>
</g>
<!-- Node14&#45;&gt;Node12 -->
<g id="edge35" class="edge">
<title>Node14&#45;&gt;Node12</title>
<path fill="none" stroke="midnightblue" d="M716.78,-117.98C744.05,-107.77 789.91,-90.61 820.8,-79.05"/>
<polygon fill="midnightblue" stroke="midnightblue" points="822.12,-82.29 830.26,-75.51 819.67,-75.74 822.12,-82.29"/>
</g>
<!-- Node15 -->
<g id="node15" class="node">
<title>Node15</title>
<g id="a_node15"><a xlink:title=" ">
<polygon fill="none" stroke="#bfbfbf" points="630.5,-56.5 630.5,-75.5 675.5,-75.5 675.5,-56.5 630.5,-56.5"/>
<text text-anchor="middle" x="653" y="-63.5" font-family="Helvetica,sans-Serif" font-size="10.00">utility</text>
</a>
</g>
</g>
<!-- Node14&#45;&gt;Node15 -->
<g id="edge36" class="edge">
<title>Node14&#45;&gt;Node15</title>
<path fill="none" stroke="midnightblue" d="M688.13,-117.98C682.04,-109.14 672.36,-95.09 664.7,-83.98"/>
<polygon fill="midnightblue" stroke="midnightblue" points="667.42,-81.76 658.86,-75.51 661.66,-85.73 667.42,-81.76"/>
</g>
<!-- Node16 -->
<g id="node16" class="node">
<title>Node16</title>
<g id="a_node16"><a xlink:href="_ignore_unused_8h.html" target="_top" xlink:title=" ">
<polygon fill="none" stroke="black" points="484,-56.5 484,-75.5 612,-75.5 612,-56.5 484,-56.5"/>
<text text-anchor="middle" x="548" y="-63.5" font-family="Helvetica,sans-Serif" font-size="10.00">../misc/IgnoreUnused.h</text>
</a>
</g>
</g>
<!-- Node14&#45;&gt;Node16 -->
<g id="edge37" class="edge">
<title>Node14&#45;&gt;Node16</title>
<path fill="none" stroke="midnightblue" d="M673.08,-117.98C648.25,-107.86 606.66,-90.9 578.31,-79.35"/>
<polygon fill="midnightblue" stroke="midnightblue" points="579.46,-76.04 568.88,-75.51 576.82,-82.52 579.46,-76.04"/>
</g>
<!-- Node17 -->
<g id="node17" class="node">
<title>Node17</title>
<g id="a_node17"><a xlink:title=" ">
<polygon fill="none" stroke="#bfbfbf" points="694,-56.5 694,-75.5 762,-75.5 762,-56.5 694,-56.5"/>
<text text-anchor="middle" x="728" y="-63.5" font-family="Helvetica,sans-Serif" font-size="10.00">filesystem</text>
</a>
</g>
</g>
<!-- Node14&#45;&gt;Node17 -->
<g id="edge42" class="edge">
<title>Node14&#45;&gt;Node17</title>
<path fill="none" stroke="midnightblue" d="M698.87,-117.98C703.87,-109.23 711.79,-95.37 718.11,-84.31"/>
<polygon fill="midnightblue" stroke="midnightblue" points="721.22,-85.93 723.14,-75.51 715.14,-82.46 721.22,-85.93"/>
</g>
<!-- Node16&#45;&gt;Node2 -->
<g id="edge39" class="edge">
<title>Node16&#45;&gt;Node2</title>
<path fill="none" stroke="midnightblue" d="M485.25,-56.44C412.77,-46.56 293.96,-30.36 219.51,-20.21"/>
<polygon fill="midnightblue" stroke="midnightblue" points="219.69,-16.7 209.31,-18.82 218.75,-23.63 219.69,-16.7"/>
</g>
<!-- Node16&#45;&gt;Node3 -->
<g id="edge38" class="edge">
<title>Node16&#45;&gt;Node3</title>
<path fill="none" stroke="midnightblue" d="M521.38,-56.44C492.99,-47.32 447.86,-32.81 416.25,-22.65"/>
<polygon fill="midnightblue" stroke="midnightblue" points="417.09,-19.24 406.5,-19.52 414.94,-25.91 417.09,-19.24"/>
</g>
<!-- Node16&#45;&gt;Node4 -->
<g id="edge40" class="edge">
<title>Node16&#45;&gt;Node4</title>
<path fill="none" stroke="midnightblue" d="M612.17,-57.17C615.5,-56.77 618.79,-56.38 622,-56 738.22,-42.21 874.05,-26.62 950.55,-17.88"/>
<polygon fill="midnightblue" stroke="midnightblue" points="951.4,-21.31 960.94,-16.7 950.61,-14.35 951.4,-21.31"/>
</g>
<!-- Node18&#45;&gt;Node4 -->
<g id="edge44" class="edge">
<title>Node18&#45;&gt;Node4</title>
<path fill="none" stroke="midnightblue" d="M955.73,-112.34C967.23,-91.24 988.85,-51.6 1001.37,-28.65"/>
<polygon fill="midnightblue" stroke="midnightblue" points="1004.56,-30.12 1006.27,-19.67 998.41,-26.77 1004.56,-30.12"/>
</g>
<!-- Node18&#45;&gt;Node6 -->
<g id="edge45" class="edge">
<title>Node18&#45;&gt;Node6</title>
<path fill="none" stroke="midnightblue" d="M990.89,-112.4C1022.03,-102.16 1063.69,-88.47 1093.08,-78.81"/>
<polygon fill="midnightblue" stroke="midnightblue" points="1094.52,-82.02 1102.93,-75.57 1092.33,-75.37 1094.52,-82.02"/>
</g>
</g>
</svg>
        <g id="navigator" transform="translate(0 0)" fill="#404254">
                <rect fill="#f2f5e9" fill-opacity="0.5" stroke="#606060" stroke-width=".5" x="0" y="0" width="60" height="60"/>
                <use id="zoomplus" xlink:href="#zoomPlus" x="17" y="9" onmousedown="handleZoom(evt,'in')"/>
                <use id="zoomminus" xlink:href="#zoomMin" x="42" y="9" onmousedown="handleZoom(evt,'out')"/>
                <use id="reset" xlink:href="#resetDef" x="30" y="36" onmousedown="handleReset()"/>
                <g id="arrowUp" xlink:href="#dirArrow" transform="translate(30 24)" onmousedown="handlePan(0,-1)">
                  <use xlink:href="#rim" fill="#404040">
                        <set attributeName="fill" to="#808080" begin="arrowUp.mouseover" end="arrowUp.mouseout"/>
                  </use>
                  <path fill="none" stroke="white" stroke-width="1.5" d="M0,-3.0v7 M-2.5,-0.5L0,-3.0L2.5,-0.5"/>
                </g>
                <g id="arrowRight" xlink:href="#dirArrow" transform="rotate(90) translate(36 -43)" onmousedown="handlePan(1,0)">
                  <use xlink:href="#rim" fill="#404040">
                        <set attributeName="fill" to="#808080" begin="arrowRight.mouseover" end="arrowRight.mouseout"/>
                  </use>
                  <path fill="none" stroke="white" stroke-width="1.5" d="M0,-3.0v7 M-2.5,-0.5L0,-3.0L2.5,-0.5"/>
                </g>
                <g id="arrowDown" xlink:href="#dirArrow" transform="rotate(180) translate(-30 -48)" onmousedown="handlePan(0,1)">
                  <use xlink:href="#rim" fill="#404040">
                        <set attributeName="fill" to="#808080" begin="arrowDown.mouseover" end="arrowDown.mouseout"/>
                  </use>
                  <path fill="none" stroke="white" stroke-width="1.5" d="M0,-3.0v7 M-2.5,-0.5L0,-3.0L2.5,-0.5"/>
                </g>
                <g id="arrowLeft" xlink:href="#dirArrow" transform="rotate(270) translate(-36 17)" onmousedown="handlePan(-1,0)">
                  <use xlink:href="#rim" fill="#404040">
                        <set attributeName="fill" to="#808080" begin="arrowLeft.mouseover" end="arrowLeft.mouseout"/>
                  </use>
                  <path fill="none" stroke="white" stroke-width="1.5" d="M0,-3.0v7 M-2.5,-0.5L0,-3.0L2.5,-0.5"/>
                </g>
        </g>
        <svg viewBox="0 0 15 15" width="100%" height="30px" preserveAspectRatio="xMaxYMin meet">
         <g id="arrow_out" transform="scale(0.3 0.3)">
          <a xlink:href="square_8h__incl_org.svg" target="_base">
           <rect id="button" ry="5" rx="5" y="6" x="6" height="38" width="38"
                fill="#f2f5e9" fill-opacity="0.5" stroke="#606060" stroke-width="1.0"/>
           <path id="arrow"
             d="M 11.500037,31.436501 C 11.940474,20.09759 22.043105,11.32322 32.158766,21.979434 L 37.068811,17.246167 C 37.068811,17.246167 37.088388,32 37.088388,32 L 22.160133,31.978069 C 22.160133,31.978069 26.997745,27.140456 26.997745,27.140456 C 18.528582,18.264221 13.291696,25.230495 11.500037,31.436501 z"
             style="fill:#404040;"/>
          </a>
         </g>
        </svg>
</svg>
