<?xml version="1.0" encoding="UTF-8" standalone="no"?>
<!DOCTYPE svg PUBLIC "-//W3C//DTD SVG 1.1//EN"
 "http://www.w3.org/Graphics/SVG/1.1/DTD/svg11.dtd">
<!-- Generated by graphviz version 2.43.0 (0)
 -->
<!-- Title: square.h Pages: 1 -->
<!--zoomable 420 -->
<svg id="main" version="1.1" xmlns="http://www.w3.org/2000/svg" xmlns:xlink="http://www.w3.org/1999/xlink" xml:space="preserve" onload="init(evt)">
<style type="text/css"><![CDATA[
.edge:hover path { stroke: red; }
.edge:hover polygon { stroke: red; fill: red; }
]]></style>
<script type="text/javascript"><![CDATA[
var edges = document.getElementsByTagName('g');
if (edges && edges.length) {
  for (var i=0;i<edges.length;i++) {
    if (edges[i].id.substr(0,4)=='edge') {
      edges[i].setAttribute('class','edge');
    }
  }
}
]]></script>
        <defs>
                <circle id="rim" cx="0" cy="0" r="7"/>
                <circle id="rim2" cx="0" cy="0" r="3.5"/>
                <g id="zoomPlus">
                        <use xlink:href="#rim" fill="#404040">
                                <set attributeName="fill" to="#808080" begin="zoomplus.mouseover" end="zoomplus.mouseout"/>
                        </use>
                        <path d="M-4,0h8M0,-4v8" fill="none" stroke="white" stroke-width="1.5" pointer-events="none"/>
                </g>
                <g id="zoomMin">
                        <use xlink:href="#rim" fill="#404040">
                                <set attributeName="fill" to="#808080" begin="zoomminus.mouseover" end="zoomminus.mouseout"/>
                        </use>
                        <path d="M-4,0h8" fill="none" stroke="white" stroke-width="1.5" pointer-events="none"/>
                </g>
                <g id="dirArrow">
                        <path fill="none" stroke="white" stroke-width="1.5" d="M0,-3.0v7 M-2.5,-0.5L0,-3.0L2.5,-0.5"/>
                </g>
               <g id="resetDef">
                       <use xlink:href="#rim2" fill="#404040">
                               <set attributeName="fill" to="#808080" begin="reset.mouseover" end="reset.mouseout"/>
                       </use>
               </g>
        </defs>

<script type="text/javascript">
var viewWidth = 1363;
var viewHeight = 420;
var sectionId = 'dynsection-0';
</script>
<script xlink:href="svgpan.js"/>
<svg id="graph" class="graph">
<g id="viewport">
<title>square.h</title>
<!-- Node1 -->
<g id="node1" class="node">
<title>Node1</title>
<g id="a_node1"><a xlink:title=" ">
<polygon fill="#bfbfbf" stroke="black" points="944.5,-392.5 944.5,-411.5 1003.5,-411.5 1003.5,-392.5 944.5,-392.5"/>
<text text-anchor="middle" x="974" y="-399.5" font-family="Helvetica,sans-Serif" font-size="10.00">square.h</text>
</a>
</g>
</g>
<!-- Node2 -->
<g id="node2" class="node">
<title>Node2</title>
<g id="a_node2"><a xlink:href="limes__namespace_8h.html" target="_top" xlink:title=" ">
<polygon fill="none" stroke="black" points="394,-0.5 394,-19.5 508,-19.5 508,-0.5 394,-0.5"/>
<text text-anchor="middle" x="451" y="-7.5" font-family="Helvetica,sans-Serif" font-size="10.00">limes_namespace.h</text>
</a>
</g>
</g>
<!-- Node1&#45;&gt;Node2 -->
<g id="edge1" class="edge">
<title>Node1&#45;&gt;Node2</title>
<path fill="none" stroke="midnightblue" d="M944.43,-395.78C856.71,-379.08 593.45,-320.18 422,-188 368.56,-146.8 309.95,-112.4 347,-56 357.57,-39.91 375.26,-29.54 393.08,-22.88"/>
<polygon fill="midnightblue" stroke="midnightblue" points="394.6,-26.06 402.95,-19.54 392.36,-19.43 394.6,-26.06"/>
</g>
<!-- Node3 -->
<g id="node3" class="node">
<title>Node3</title>
<g id="a_node3"><a xlink:title=" ">
<polygon fill="none" stroke="#bfbfbf" points="88.5,-0.5 88.5,-19.5 177.5,-19.5 177.5,-0.5 88.5,-0.5"/>
<text text-anchor="middle" x="133" y="-7.5" font-family="Helvetica,sans-Serif" font-size="10.00">limes_export.h</text>
</a>
</g>
</g>
<!-- Node1&#45;&gt;Node3 -->
<g id="edge2" class="edge">
<title>Node1&#45;&gt;Node3</title>
<path fill="none" stroke="midnightblue" d="M944.32,-400.84C781.08,-399.59 0,-388.53 0,-291 0,-291 0,-291 0,-121 0,-70.73 57.13,-39.1 96.5,-23.27"/>
<polygon fill="midnightblue" stroke="midnightblue" points="98.01,-26.45 106.09,-19.59 95.5,-19.91 98.01,-26.45"/>
</g>
<!-- Node4 -->
<g id="node4" class="node">
<title>Node4</title>
<g id="a_node4"><a xlink:title=" ">
<polygon fill="none" stroke="#bfbfbf" points="1099,-0.5 1099,-19.5 1199,-19.5 1199,-0.5 1099,-0.5"/>
<text text-anchor="middle" x="1149" y="-7.5" font-family="Helvetica,sans-Serif" font-size="10.00">limes_platform.h</text>
</a>
</g>
</g>
<!-- Node1&#45;&gt;Node4 -->
<g id="edge3" class="edge">
<title>Node1&#45;&gt;Node4</title>
<path fill="none" stroke="midnightblue" d="M1003.58,-398.86C1093.1,-391.59 1355,-364.06 1355,-291 1355,-291 1355,-291 1355,-121 1355,-87.76 1344.33,-76.3 1318,-56 1286.92,-32.04 1244.15,-20.8 1209.41,-15.55"/>
<polygon fill="midnightblue" stroke="midnightblue" points="1209.76,-12.07 1199.38,-14.16 1208.8,-19 1209.76,-12.07"/>
</g>
<!-- Node5 -->
<g id="node5" class="node">
<title>Node5</title>
<g id="a_node5"><a xlink:href="2_dshape_8h.html" target="_top" xlink:title=" ">
<polygon fill="none" stroke="black" points="99,-224.5 99,-243.5 167,-243.5 167,-224.5 99,-224.5"/>
<text text-anchor="middle" x="133" y="-231.5" font-family="Helvetica,sans-Serif" font-size="10.00">2Dshape.h</text>
</a>
</g>
</g>
<!-- Node1&#45;&gt;Node5 -->
<g id="edge4" class="edge">
<title>Node1&#45;&gt;Node5</title>
<path fill="none" stroke="midnightblue" d="M944.41,-401.01C809.76,-400.82 258.7,-397.51 195,-356 159.02,-332.56 142.87,-281.32 136.53,-253.64"/>
<polygon fill="midnightblue" stroke="midnightblue" points="139.92,-252.74 134.45,-243.67 133.07,-254.18 139.92,-252.74"/>
</g>
<!-- Node6 -->
<g id="node6" class="node">
<title>Node6</title>
<g id="a_node6"><a xlink:href="preprocessor_8h.html" target="_top" xlink:title=" ">
<polygon fill="none" stroke="black" points="1147.5,-56.5 1147.5,-75.5 1288.5,-75.5 1288.5,-56.5 1147.5,-56.5"/>
<text text-anchor="middle" x="1218" y="-63.5" font-family="Helvetica,sans-Serif" font-size="10.00">../../../misc/preprocessor.h</text>
</a>
</g>
</g>
<!-- Node1&#45;&gt;Node6 -->
<g id="edge7" class="edge">
<title>Node1&#45;&gt;Node6</title>
<path fill="none" stroke="midnightblue" d="M1003.66,-401.73C1072.44,-401.72 1237,-391.22 1237,-291 1237,-291 1237,-291 1237,-177 1237,-144.49 1228.84,-107.35 1223.22,-85.61"/>
<polygon fill="midnightblue" stroke="midnightblue" points="1226.54,-84.5 1220.56,-75.75 1219.78,-86.32 1226.54,-84.5"/>
</g>
<!-- Node7 -->
<g id="node7" class="node">
<title>Node7</title>
<g id="a_node7"><a xlink:href="rectangle_8h.html" target="_top" xlink:title=" ">
<polygon fill="none" stroke="black" points="1033.5,-336.5 1033.5,-355.5 1104.5,-355.5 1104.5,-336.5 1033.5,-336.5"/>
<text text-anchor="middle" x="1069" y="-343.5" font-family="Helvetica,sans-Serif" font-size="10.00">rectangle.h</text>
</a>
</g>
</g>
<!-- Node1&#45;&gt;Node7 -->
<g id="edge9" class="edge">
<title>Node1&#45;&gt;Node7</title>
<path fill="none" stroke="midnightblue" d="M989.26,-392.32C1004.22,-383.82 1027.25,-370.73 1044.73,-360.8"/>
<polygon fill="midnightblue" stroke="midnightblue" points="1046.81,-363.64 1053.77,-355.65 1043.35,-357.55 1046.81,-363.64"/>
</g>
<!-- Node8 -->
<g id="node8" class="node">
<title>Node8</title>
<g id="a_node8"><a xlink:href="triangle_8h.html" target="_top" xlink:title=" ">
<polygon fill="none" stroke="black" points="894.5,-280.5 894.5,-299.5 957.5,-299.5 957.5,-280.5 894.5,-280.5"/>
<text text-anchor="middle" x="926" y="-287.5" font-family="Helvetica,sans-Serif" font-size="10.00">triangle.h</text>
</a>
</g>
</g>
<!-- Node1&#45;&gt;Node8 -->
<g id="edge46" class="edge">
<title>Node1&#45;&gt;Node8</title>
<path fill="none" stroke="midnightblue" d="M970.23,-392.37C962.42,-374.46 944.29,-332.92 933.83,-308.95"/>
<polygon fill="midnightblue" stroke="midnightblue" points="936.96,-307.36 929.75,-299.59 930.54,-310.16 936.96,-307.36"/>
</g>
<!-- Node11 -->
<g id="node11" class="node">
<title>Node11</title>
<g id="a_node11"><a xlink:title=" ">
<polygon fill="none" stroke="#bfbfbf" points="1008.5,-112.5 1008.5,-131.5 1055.5,-131.5 1055.5,-112.5 1008.5,-112.5"/>
<text text-anchor="middle" x="1032" y="-119.5" font-family="Helvetica,sans-Serif" font-size="10.00">cmath</text>
</a>
</g>
</g>
<!-- Node1&#45;&gt;Node11 -->
<g id="edge47" class="edge">
<title>Node1&#45;&gt;Node11</title>
<path fill="none" stroke="midnightblue" d="M1003.59,-400.97C1036.65,-399.16 1088.81,-390.56 1114,-356 1165.41,-285.47 1083.25,-179.82 1047.41,-139.47"/>
<polygon fill="midnightblue" stroke="midnightblue" points="1049.84,-136.94 1040.52,-131.88 1044.65,-141.64 1049.84,-136.94"/>
</g>
<!-- Node5&#45;&gt;Node2 -->
<g id="edge5" class="edge">
<title>Node5&#45;&gt;Node2</title>
<path fill="none" stroke="midnightblue" d="M134.17,-224.28C138.55,-195.2 156.81,-100.81 214,-56 239.87,-35.73 323.07,-23.4 383.6,-16.9"/>
<polygon fill="midnightblue" stroke="midnightblue" points="384.28,-20.34 393.86,-15.83 383.56,-13.38 384.28,-20.34"/>
</g>
<!-- Node5&#45;&gt;Node3 -->
<g id="edge6" class="edge">
<title>Node5&#45;&gt;Node3</title>
<path fill="none" stroke="midnightblue" d="M107.84,-224.38C91.58,-217.34 71.71,-205.65 62,-188 33.72,-136.6 33.72,-107.4 62,-56 69.89,-41.66 84.49,-31.25 98.4,-24.08"/>
<polygon fill="midnightblue" stroke="midnightblue" points="100.29,-27.06 107.84,-19.62 97.3,-20.73 100.29,-27.06"/>
</g>
<!-- Node6&#45;&gt;Node4 -->
<g id="edge8" class="edge">
<title>Node6&#45;&gt;Node4</title>
<path fill="none" stroke="midnightblue" d="M1206.91,-56.32C1196.51,-48.18 1180.74,-35.84 1168.28,-26.09"/>
<polygon fill="midnightblue" stroke="midnightblue" points="1170.32,-23.24 1160.29,-19.83 1166.01,-28.75 1170.32,-23.24"/>
</g>
<!-- Node7&#45;&gt;Node2 -->
<g id="edge10" class="edge">
<title>Node7&#45;&gt;Node2</title>
<path fill="none" stroke="midnightblue" d="M1071.85,-336.07C1081.77,-303.17 1111.71,-186.81 1065,-112 1037.61,-68.13 1012.48,-71.03 963,-56 881.7,-31.31 638,-18.45 518.53,-13.48"/>
<polygon fill="midnightblue" stroke="midnightblue" points="518.54,-9.98 508.4,-13.07 518.25,-16.97 518.54,-9.98"/>
</g>
<!-- Node7&#45;&gt;Node3 -->
<g id="edge11" class="edge">
<title>Node7&#45;&gt;Node3</title>
<path fill="none" stroke="midnightblue" d="M1033.3,-342.4C944.28,-335.07 706.25,-310.31 520,-244 373.84,-191.97 342.99,-162.21 214,-76 190.98,-60.61 166.43,-40.3 150.47,-26.5"/>
<polygon fill="midnightblue" stroke="midnightblue" points="152.39,-23.53 142.55,-19.58 147.78,-28.8 152.39,-23.53"/>
</g>
<!-- Node7&#45;&gt;Node4 -->
<g id="edge12" class="edge">
<title>Node7&#45;&gt;Node4</title>
<path fill="none" stroke="midnightblue" d="M1104.53,-344.88C1173.11,-342.59 1317,-326.85 1317,-235 1317,-235 1317,-235 1317,-121 1317,-90.9 1319.19,-77.38 1298,-56 1274.67,-32.46 1239.5,-21.15 1209.19,-15.75"/>
<polygon fill="midnightblue" stroke="midnightblue" points="1209.54,-12.26 1199.12,-14.14 1208.44,-19.17 1209.54,-12.26"/>
</g>
<!-- Node7&#45;&gt;Node5 -->
<g id="edge13" class="edge">
<title>Node7&#45;&gt;Node5</title>
<path fill="none" stroke="midnightblue" d="M1033.04,-344.79C897.57,-343.72 418.29,-337.34 271,-300 228.02,-289.1 182.23,-264.66 155.69,-249.04"/>
<polygon fill="midnightblue" stroke="midnightblue" points="157.2,-245.87 146.82,-243.73 153.6,-251.87 157.2,-245.87"/>
</g>
<!-- Node7&#45;&gt;Node6 -->
<g id="edge14" class="edge">
<title>Node7&#45;&gt;Node6</title>
<path fill="none" stroke="midnightblue" d="M1094.68,-336.47C1132.57,-322.07 1199,-289.1 1199,-235 1199,-235 1199,-235 1199,-177 1199,-144.49 1207.16,-107.35 1212.78,-85.61"/>
<polygon fill="midnightblue" stroke="midnightblue" points="1216.22,-86.32 1215.44,-75.75 1209.46,-84.5 1216.22,-86.32"/>
</g>
<!-- Node7&#45;&gt;Node8 -->
<g id="edge15" class="edge">
<title>Node7&#45;&gt;Node8</title>
<path fill="none" stroke="midnightblue" d="M1046.34,-336.44C1022.6,-327.48 985.09,-313.31 958.26,-303.18"/>
<polygon fill="midnightblue" stroke="midnightblue" points="959.14,-299.77 948.55,-299.52 956.67,-306.32 959.14,-299.77"/>
</g>
<!-- Node7&#45;&gt;Node11 -->
<g id="edge45" class="edge">
<title>Node7&#45;&gt;Node11</title>
<path fill="none" stroke="midnightblue" d="M1067.55,-336.3C1062.11,-303.63 1042.81,-187.87 1035.16,-141.96"/>
<polygon fill="midnightblue" stroke="midnightblue" points="1038.58,-141.17 1033.48,-131.88 1031.67,-142.32 1038.58,-141.17"/>
</g>
<!-- Node8&#45;&gt;Node2 -->
<g id="edge16" class="edge">
<title>Node8&#45;&gt;Node2</title>
<path fill="none" stroke="midnightblue" d="M926.92,-280.33C931.02,-241.68 947.46,-86.4 948,-76 948.46,-67.12 954,-62.56 948,-56 919.59,-24.9 647.5,-15.08 518.38,-12.16"/>
<polygon fill="midnightblue" stroke="midnightblue" points="518.29,-8.66 508.21,-11.94 518.13,-15.65 518.29,-8.66"/>
</g>
<!-- Node8&#45;&gt;Node3 -->
<g id="edge17" class="edge">
<title>Node8&#45;&gt;Node3</title>
<path fill="none" stroke="midnightblue" d="M894.47,-288.19C825.58,-285.84 656.87,-276.92 520,-244 451.62,-227.55 436.1,-216.93 372,-188 282.65,-147.68 253.29,-143.28 182,-76 166.8,-61.66 152.81,-42.2 143.71,-28.32"/>
<polygon fill="midnightblue" stroke="midnightblue" points="146.56,-26.28 138.23,-19.73 140.66,-30.04 146.56,-26.28"/>
</g>
<!-- Node8&#45;&gt;Node4 -->
<g id="edge18" class="edge">
<title>Node8&#45;&gt;Node4</title>
<path fill="none" stroke="midnightblue" d="M927.76,-280.34C933.68,-252.98 955.09,-166.92 1000,-112 1033.4,-71.16 1087.55,-40.26 1120.56,-23.95"/>
<polygon fill="midnightblue" stroke="midnightblue" points="1122.19,-27.05 1129.67,-19.55 1119.15,-20.74 1122.19,-27.05"/>
</g>
<!-- Node8&#45;&gt;Node5 -->
<g id="edge19" class="edge">
<title>Node8&#45;&gt;Node5</title>
<path fill="none" stroke="midnightblue" d="M894.21,-287.22C795.85,-281.65 487.84,-263.74 233,-244 214.87,-242.6 194.9,-240.84 177.61,-239.25"/>
<polygon fill="midnightblue" stroke="midnightblue" points="177.51,-235.73 167.23,-238.29 176.87,-242.7 177.51,-235.73"/>
</g>
<!-- Node8&#45;&gt;Node6 -->
<g id="edge20" class="edge">
<title>Node8&#45;&gt;Node6</title>
<path fill="none" stroke="midnightblue" d="M943.16,-280.34C959.53,-271.84 984.63,-258.11 1005,-244 1082.59,-190.28 1166.4,-114.9 1201.29,-82.64"/>
<polygon fill="midnightblue" stroke="midnightblue" points="1203.77,-85.12 1208.71,-75.75 1199,-79.99 1203.77,-85.12"/>
</g>
<!-- Node9 -->
<g id="node9" class="node">
<title>Node9</title>
<g id="a_node9"><a xlink:href="angle_8h.html" target="_top" xlink:title=" ">
<polygon fill="none" stroke="black" points="528.5,-224.5 528.5,-243.5 581.5,-243.5 581.5,-224.5 528.5,-224.5"/>
<text text-anchor="middle" x="555" y="-231.5" font-family="Helvetica,sans-Serif" font-size="10.00">angle.h</text>
</a>
</g>
</g>
<!-- Node8&#45;&gt;Node9 -->
<g id="edge21" class="edge">
<title>Node8&#45;&gt;Node9</title>
<path fill="none" stroke="midnightblue" d="M894.37,-284.4C826.06,-274.45 665.04,-251.02 592.08,-240.4"/>
<polygon fill="midnightblue" stroke="midnightblue" points="592.38,-236.9 581.98,-238.93 591.37,-243.83 592.38,-236.9"/>
</g>
<!-- Node10 -->
<g id="node10" class="node">
<title>Node10</title>
<g id="a_node10"><a xlink:href="math_helpers_8h.html" target="_top" xlink:title=" ">
<polygon fill="none" stroke="black" points="501.5,-168.5 501.5,-187.5 608.5,-187.5 608.5,-168.5 501.5,-168.5"/>
<text text-anchor="middle" x="555" y="-175.5" font-family="Helvetica,sans-Serif" font-size="10.00">../../mathHelpers.h</text>
</a>
</g>
</g>
<!-- Node8&#45;&gt;Node10 -->
<g id="edge43" class="edge">
<title>Node8&#45;&gt;Node10</title>
<path fill="none" stroke="midnightblue" d="M897.2,-280.46C831.1,-260.86 668.48,-212.65 593.73,-190.48"/>
<polygon fill="midnightblue" stroke="midnightblue" points="594.37,-187.02 583.78,-187.53 592.38,-193.73 594.37,-187.02"/>
</g>
<!-- Node8&#45;&gt;Node11 -->
<g id="edge44" class="edge">
<title>Node8&#45;&gt;Node11</title>
<path fill="none" stroke="midnightblue" d="M941.73,-280.35C954.88,-272.41 973.31,-259.55 985,-244 1008.85,-212.29 1022.12,-166.98 1028.09,-141.76"/>
<polygon fill="midnightblue" stroke="midnightblue" points="1031.57,-142.23 1030.33,-131.71 1024.74,-140.71 1031.57,-142.23"/>
</g>
<!-- Node9&#45;&gt;Node2 -->
<g id="edge23" class="edge">
<title>Node9&#45;&gt;Node2</title>
<path fill="none" stroke="midnightblue" d="M529.97,-224.48C481.69,-206.33 378.27,-158.63 354,-76 351.5,-67.47 349.22,-63.49 354,-56 364.2,-40.03 381.69,-29.64 399.04,-22.92"/>
<polygon fill="midnightblue" stroke="midnightblue" points="400.34,-26.17 408.61,-19.55 398.02,-19.56 400.34,-26.17"/>
</g>
<!-- Node9&#45;&gt;Node3 -->
<g id="edge22" class="edge">
<title>Node9&#45;&gt;Node3</title>
<path fill="none" stroke="midnightblue" d="M528.26,-225.4C501.05,-217.33 457.88,-203.6 422,-188 325.71,-146.14 301.53,-133.99 214,-76 190.92,-60.71 166.38,-40.37 150.44,-26.55"/>
<polygon fill="midnightblue" stroke="midnightblue" points="152.36,-23.57 142.53,-19.61 147.74,-28.84 152.36,-23.57"/>
</g>
<!-- Node9&#45;&gt;Node4 -->
<g id="edge24" class="edge">
<title>Node9&#45;&gt;Node4</title>
<path fill="none" stroke="midnightblue" d="M580.48,-224.47C648.34,-201.64 838.91,-136.73 995,-76 1039.17,-58.81 1089.66,-37.1 1120.43,-23.63"/>
<polygon fill="midnightblue" stroke="midnightblue" points="1121.95,-26.79 1129.7,-19.56 1119.13,-20.38 1121.95,-26.79"/>
</g>
<!-- Node9&#45;&gt;Node10 -->
<g id="edge25" class="edge">
<title>Node9&#45;&gt;Node10</title>
<path fill="none" stroke="midnightblue" d="M555,-224.08C555,-217.01 555,-206.86 555,-197.99"/>
<polygon fill="midnightblue" stroke="midnightblue" points="558.5,-197.75 555,-187.75 551.5,-197.75 558.5,-197.75"/>
</g>
<!-- Node10&#45;&gt;Node2 -->
<g id="edge26" class="edge">
<title>Node10&#45;&gt;Node2</title>
<path fill="none" stroke="midnightblue" d="M511.98,-168.41C465.47,-156.55 393.74,-130.16 362,-76 347.7,-51.6 379.58,-33.71 409.08,-22.95"/>
<polygon fill="midnightblue" stroke="midnightblue" points="410.6,-26.12 418.92,-19.57 408.32,-19.5 410.6,-26.12"/>
</g>
<!-- Node10&#45;&gt;Node3 -->
<g id="edge29" class="edge">
<title>Node10&#45;&gt;Node3</title>
<path fill="none" stroke="midnightblue" d="M516.4,-168.48C482.58,-160.55 432.35,-147.61 390,-132 302.06,-99.58 203.04,-48.61 157.87,-24.5"/>
<polygon fill="midnightblue" stroke="midnightblue" points="159.29,-21.29 148.82,-19.64 155.98,-27.45 159.29,-21.29"/>
</g>
<!-- Node10&#45;&gt;Node11 -->
<g id="edge27" class="edge">
<title>Node10&#45;&gt;Node11</title>
<path fill="none" stroke="midnightblue" d="M608.79,-170.91C707.89,-159.69 916.62,-136.06 998.26,-126.82"/>
<polygon fill="midnightblue" stroke="midnightblue" points="998.92,-130.27 1008.46,-125.66 998.13,-123.31 998.92,-130.27"/>
</g>
<!-- Node12 -->
<g id="node12" class="node">
<title>Node12</title>
<g id="a_node12"><a xlink:title=" ">
<polygon fill="none" stroke="#bfbfbf" points="370.5,-56.5 370.5,-75.5 439.5,-75.5 439.5,-56.5 370.5,-56.5"/>
<text text-anchor="middle" x="405" y="-63.5" font-family="Helvetica,sans-Serif" font-size="10.00">type_traits</text>
</a>
</g>
</g>
<!-- Node10&#45;&gt;Node12 -->
<g id="edge28" class="edge">
<title>Node10&#45;&gt;Node12</title>
<path fill="none" stroke="midnightblue" d="M543.23,-168.37C517.6,-149.57 456.5,-104.77 424.82,-81.53"/>
<polygon fill="midnightblue" stroke="midnightblue" points="426.85,-78.68 416.72,-75.59 422.71,-84.33 426.85,-78.68"/>
</g>
<!-- Node13 -->
<g id="node13" class="node">
<title>Node13</title>
<g id="a_node13"><a xlink:title=" ">
<polygon fill="none" stroke="#bfbfbf" points="523,-112.5 523,-131.5 587,-131.5 587,-112.5 523,-112.5"/>
<text text-anchor="middle" x="555" y="-119.5" font-family="Helvetica,sans-Serif" font-size="10.00">algorithm</text>
</a>
</g>
</g>
<!-- Node10&#45;&gt;Node13 -->
<g id="edge30" class="edge">
<title>Node10&#45;&gt;Node13</title>
<path fill="none" stroke="midnightblue" d="M555,-168.08C555,-161.01 555,-150.86 555,-141.99"/>
<polygon fill="midnightblue" stroke="midnightblue" points="558.5,-141.75 555,-131.75 551.5,-141.75 558.5,-141.75"/>
</g>
<!-- Node14 -->
<g id="node14" class="node">
<title>Node14</title>
<g id="a_node14"><a xlink:href="limes__assert_8h.html" target="_top" xlink:title=" ">
<polygon fill="none" stroke="black" points="620,-112.5 620,-131.5 756,-131.5 756,-112.5 620,-112.5"/>
<text text-anchor="middle" x="688" y="-119.5" font-family="Helvetica,sans-Serif" font-size="10.00">../system/limes_assert.h</text>
</a>
</g>
</g>
<!-- Node10&#45;&gt;Node14 -->
<g id="edge31" class="edge">
<title>Node10&#45;&gt;Node14</title>
<path fill="none" stroke="midnightblue" d="M576.07,-168.44C598.06,-159.52 632.73,-145.44 657.66,-135.32"/>
<polygon fill="midnightblue" stroke="midnightblue" points="659.08,-138.52 667.02,-131.52 656.44,-132.04 659.08,-138.52"/>
</g>
<!-- Node14&#45;&gt;Node2 -->
<g id="edge33" class="edge">
<title>Node14&#45;&gt;Node2</title>
<path fill="none" stroke="midnightblue" d="M683.15,-112.33C674.81,-98.24 656.36,-70.5 633,-56 598.49,-34.58 554.39,-23.35 518.24,-17.47"/>
<polygon fill="midnightblue" stroke="midnightblue" points="518.69,-14 508.27,-15.95 517.63,-20.92 518.69,-14"/>
</g>
<!-- Node14&#45;&gt;Node3 -->
<g id="edge32" class="edge">
<title>Node14&#45;&gt;Node3</title>
<path fill="none" stroke="midnightblue" d="M631.41,-112.45C590.49,-105.29 534.32,-93.4 487,-76 469.09,-69.41 467.16,-61.88 449,-56 360.35,-27.31 251.84,-16.9 187.79,-13.13"/>
<polygon fill="midnightblue" stroke="midnightblue" points="187.7,-9.62 177.52,-12.56 187.31,-16.61 187.7,-9.62"/>
</g>
<!-- Node14&#45;&gt;Node4 -->
<g id="edge41" class="edge">
<title>Node14&#45;&gt;Node4</title>
<path fill="none" stroke="midnightblue" d="M752.1,-112.49C805.05,-104.84 881.96,-92.31 948,-76 1008.43,-61.08 1077.08,-37.37 1116.49,-23.09"/>
<polygon fill="midnightblue" stroke="midnightblue" points="1117.9,-26.3 1126.09,-19.58 1115.5,-19.72 1117.9,-26.3"/>
</g>
<!-- Node14&#45;&gt;Node6 -->
<g id="edge34" class="edge">
<title>Node14&#45;&gt;Node6</title>
<path fill="none" stroke="midnightblue" d="M756.2,-114.05C853.74,-104.11 1032.78,-85.87 1136.95,-75.26"/>
<polygon fill="midnightblue" stroke="midnightblue" points="1137.51,-78.72 1147.1,-74.22 1136.8,-71.76 1137.51,-78.72"/>
</g>
<!-- Node14&#45;&gt;Node12 -->
<g id="edge35" class="edge">
<title>Node14&#45;&gt;Node12</title>
<path fill="none" stroke="midnightblue" d="M643.16,-112.44C590.26,-102.35 502.85,-85.67 449.92,-75.57"/>
<polygon fill="midnightblue" stroke="midnightblue" points="450.3,-72.08 439.82,-73.64 448.99,-78.96 450.3,-72.08"/>
</g>
<!-- Node15 -->
<g id="node15" class="node">
<title>Node15</title>
<g id="a_node15"><a xlink:title=" ">
<polygon fill="none" stroke="#bfbfbf" points="680.5,-56.5 680.5,-75.5 725.5,-75.5 725.5,-56.5 680.5,-56.5"/>
<text text-anchor="middle" x="703" y="-63.5" font-family="Helvetica,sans-Serif" font-size="10.00">utility</text>
</a>
</g>
</g>
<!-- Node14&#45;&gt;Node15 -->
<g id="edge36" class="edge">
<title>Node14&#45;&gt;Node15</title>
<path fill="none" stroke="midnightblue" d="M690.48,-112.08C692.49,-104.85 695.39,-94.41 697.89,-85.4"/>
<polygon fill="midnightblue" stroke="midnightblue" points="701.26,-86.32 700.57,-75.75 694.52,-84.45 701.26,-86.32"/>
</g>
<!-- Node16 -->
<g id="node16" class="node">
<title>Node16</title>
<g id="a_node16"><a xlink:title=" ">
<polygon fill="none" stroke="#bfbfbf" points="743.5,-56.5 743.5,-75.5 852.5,-75.5 852.5,-56.5 743.5,-56.5"/>
<text text-anchor="middle" x="798" y="-63.5" font-family="Helvetica,sans-Serif" font-size="10.00">limes_build_type.h</text>
</a>
</g>
</g>
<!-- Node14&#45;&gt;Node16 -->
<g id="edge37" class="edge">
<title>Node14&#45;&gt;Node16</title>
<path fill="none" stroke="midnightblue" d="M705.67,-112.32C723.39,-103.62 750.9,-90.12 771.29,-80.11"/>
<polygon fill="midnightblue" stroke="midnightblue" points="772.94,-83.2 780.37,-75.65 769.85,-76.92 772.94,-83.2"/>
</g>
<!-- Node17 -->
<g id="node17" class="node">
<title>Node17</title>
<g id="a_node17"><a xlink:href="_ignore_unused_8h.html" target="_top" xlink:title=" ">
<polygon fill="none" stroke="black" points="496,-56.5 496,-75.5 624,-75.5 624,-56.5 496,-56.5"/>
<text text-anchor="middle" x="560" y="-63.5" font-family="Helvetica,sans-Serif" font-size="10.00">../misc/IgnoreUnused.h</text>
</a>
</g>
</g>
<!-- Node14&#45;&gt;Node17 -->
<g id="edge38" class="edge">
<title>Node14&#45;&gt;Node17</title>
<path fill="none" stroke="midnightblue" d="M667.72,-112.44C646.65,-103.56 613.48,-89.56 589.51,-79.45"/>
<polygon fill="midnightblue" stroke="midnightblue" points="590.76,-76.18 580.19,-75.52 588.04,-82.63 590.76,-76.18"/>
</g>
<!-- Node18 -->
<g id="node18" class="node">
<title>Node18</title>
<g id="a_node18"><a xlink:title=" ">
<polygon fill="none" stroke="#bfbfbf" points="871,-56.5 871,-75.5 939,-75.5 939,-56.5 871,-56.5"/>
<text text-anchor="middle" x="905" y="-63.5" font-family="Helvetica,sans-Serif" font-size="10.00">filesystem</text>
</a>
</g>
</g>
<!-- Node14&#45;&gt;Node18 -->
<g id="edge42" class="edge">
<title>Node14&#45;&gt;Node18</title>
<path fill="none" stroke="midnightblue" d="M722.38,-112.44C759.92,-103.1 820.13,-88.12 861.07,-77.93"/>
<polygon fill="midnightblue" stroke="midnightblue" points="861.92,-81.33 870.78,-75.52 860.23,-74.53 861.92,-81.33"/>
</g>
<!-- Node17&#45;&gt;Node2 -->
<g id="edge40" class="edge">
<title>Node17&#45;&gt;Node2</title>
<path fill="none" stroke="midnightblue" d="M542.49,-56.32C524.93,-47.62 497.67,-34.12 477.47,-24.11"/>
<polygon fill="midnightblue" stroke="midnightblue" points="478.98,-20.96 468.47,-19.65 475.88,-27.23 478.98,-20.96"/>
</g>
<!-- Node17&#45;&gt;Node3 -->
<g id="edge39" class="edge">
<title>Node17&#45;&gt;Node3</title>
<path fill="none" stroke="midnightblue" d="M495.61,-56.86C411.77,-46.25 266.67,-27.9 187.83,-17.93"/>
<polygon fill="midnightblue" stroke="midnightblue" points="187.98,-14.43 177.62,-16.64 187.1,-21.37 187.98,-14.43"/>
</g>
</g>
</svg>
        <g id="navigator" transform="translate(0 0)" fill="#404254">
                <rect fill="#f2f5e9" fill-opacity="0.5" stroke="#606060" stroke-width=".5" x="0" y="0" width="60" height="60"/>
                <use id="zoomplus" xlink:href="#zoomPlus" x="17" y="9" onmousedown="handleZoom(evt,'in')"/>
                <use id="zoomminus" xlink:href="#zoomMin" x="42" y="9" onmousedown="handleZoom(evt,'out')"/>
                <use id="reset" xlink:href="#resetDef" x="30" y="36" onmousedown="handleReset()"/>
                <g id="arrowUp" xlink:href="#dirArrow" transform="translate(30 24)" onmousedown="handlePan(0,-1)">
                  <use xlink:href="#rim" fill="#404040">
                        <set attributeName="fill" to="#808080" begin="arrowUp.mouseover" end="arrowUp.mouseout"/>
                  </use>
                  <path fill="none" stroke="white" stroke-width="1.5" d="M0,-3.0v7 M-2.5,-0.5L0,-3.0L2.5,-0.5"/>
                </g>
                <g id="arrowRight" xlink:href="#dirArrow" transform="rotate(90) translate(36 -43)" onmousedown="handlePan(1,0)">
                  <use xlink:href="#rim" fill="#404040">
                        <set attributeName="fill" to="#808080" begin="arrowRight.mouseover" end="arrowRight.mouseout"/>
                  </use>
                  <path fill="none" stroke="white" stroke-width="1.5" d="M0,-3.0v7 M-2.5,-0.5L0,-3.0L2.5,-0.5"/>
                </g>
                <g id="arrowDown" xlink:href="#dirArrow" transform="rotate(180) translate(-30 -48)" onmousedown="handlePan(0,1)">
                  <use xlink:href="#rim" fill="#404040">
                        <set attributeName="fill" to="#808080" begin="arrowDown.mouseover" end="arrowDown.mouseout"/>
                  </use>
                  <path fill="none" stroke="white" stroke-width="1.5" d="M0,-3.0v7 M-2.5,-0.5L0,-3.0L2.5,-0.5"/>
                </g>
                <g id="arrowLeft" xlink:href="#dirArrow" transform="rotate(270) translate(-36 17)" onmousedown="handlePan(-1,0)">
                  <use xlink:href="#rim" fill="#404040">
                        <set attributeName="fill" to="#808080" begin="arrowLeft.mouseover" end="arrowLeft.mouseout"/>
                  </use>
                  <path fill="none" stroke="white" stroke-width="1.5" d="M0,-3.0v7 M-2.5,-0.5L0,-3.0L2.5,-0.5"/>
                </g>
        </g>
        <svg viewBox="0 0 15 15" width="100%" height="30px" preserveAspectRatio="xMaxYMin meet">
         <g id="arrow_out" transform="scale(0.3 0.3)">
          <a xlink:href="square_8h__incl_org.svg" target="_base">
           <rect id="button" ry="5" rx="5" y="6" x="6" height="38" width="38"
                fill="#f2f5e9" fill-opacity="0.5" stroke="#606060" stroke-width="1.0"/>
           <path id="arrow"
             d="M 11.500037,31.436501 C 11.940474,20.09759 22.043105,11.32322 32.158766,21.979434 L 37.068811,17.246167 C 37.068811,17.246167 37.088388,32 37.088388,32 L 22.160133,31.978069 C 22.160133,31.978069 26.997745,27.140456 26.997745,27.140456 C 18.528582,18.264221 13.291696,25.230495 11.500037,31.436501 z"
             style="fill:#404040;"/>
          </a>
         </g>
        </svg>
</svg>
