<?xml version="1.0" encoding="UTF-8" standalone="no"?>
<!DOCTYPE svg PUBLIC "-//W3C//DTD SVG 1.1//EN"
 "http://www.w3.org/Graphics/SVG/1.1/DTD/svg11.dtd">
<!-- Generated by graphviz version 2.43.0 (0)
 -->
<!-- Title: square.h Pages: 1 -->
<!--zoomable 420 -->
<svg id="main" version="1.1" xmlns="http://www.w3.org/2000/svg" xmlns:xlink="http://www.w3.org/1999/xlink" xml:space="preserve" onload="init(evt)">
<style type="text/css"><![CDATA[
.edge:hover path { stroke: red; }
.edge:hover polygon { stroke: red; fill: red; }
]]></style>
<script type="text/javascript"><![CDATA[
var edges = document.getElementsByTagName('g');
if (edges && edges.length) {
  for (var i=0;i<edges.length;i++) {
    if (edges[i].id.substr(0,4)=='edge') {
      edges[i].setAttribute('class','edge');
    }
  }
}
]]></script>
        <defs>
                <circle id="rim" cx="0" cy="0" r="7"/>
                <circle id="rim2" cx="0" cy="0" r="3.5"/>
                <g id="zoomPlus">
                        <use xlink:href="#rim" fill="#404040">
                                <set attributeName="fill" to="#808080" begin="zoomplus.mouseover" end="zoomplus.mouseout"/>
                        </use>
                        <path d="M-4,0h8M0,-4v8" fill="none" stroke="white" stroke-width="1.5" pointer-events="none"/>
                </g>
                <g id="zoomMin">
                        <use xlink:href="#rim" fill="#404040">
                                <set attributeName="fill" to="#808080" begin="zoomminus.mouseover" end="zoomminus.mouseout"/>
                        </use>
                        <path d="M-4,0h8" fill="none" stroke="white" stroke-width="1.5" pointer-events="none"/>
                </g>
                <g id="dirArrow">
                        <path fill="none" stroke="white" stroke-width="1.5" d="M0,-3.0v7 M-2.5,-0.5L0,-3.0L2.5,-0.5"/>
                </g>
               <g id="resetDef">
                       <use xlink:href="#rim2" fill="#404040">
                               <set attributeName="fill" to="#808080" begin="reset.mouseover" end="reset.mouseout"/>
                       </use>
               </g>
        </defs>

<script type="text/javascript">
var viewWidth = 1236;
var viewHeight = 420;
var sectionId = 'dynsection-0';
</script>
<script xlink:href="svgpan.js"/>
<svg id="graph" class="graph">
<g id="viewport">
<title>square.h</title>
<!-- Node1 -->
<g id="node1" class="node">
<title>Node1</title>
<g id="a_node1"><a xlink:title=" ">
<polygon fill="#bfbfbf" stroke="black" points="984.5,-392.5 984.5,-411.5 1043.5,-411.5 1043.5,-392.5 984.5,-392.5"/>
<text text-anchor="middle" x="1014" y="-399.5" font-family="Helvetica,sans-Serif" font-size="10.00">square.h</text>
</a>
</g>
</g>
<!-- Node2 -->
<g id="node2" class="node">
<title>Node2</title>
<g id="a_node2"><a xlink:href="limes__namespace_8h.html" target="_top" xlink:title=" ">
<polygon fill="none" stroke="black" points="423,-0.5 423,-19.5 537,-19.5 537,-0.5 423,-0.5"/>
<text text-anchor="middle" x="480" y="-7.5" font-family="Helvetica,sans-Serif" font-size="10.00">limes_namespace.h</text>
</a>
</g>
</g>
<!-- Node1&#45;&gt;Node2 -->
<g id="edge1" class="edge">
<title>Node1&#45;&gt;Node2</title>
<path fill="none" stroke="midnightblue" d="M1034.64,-392.42C1067.5,-377.23 1128,-342.29 1128,-291 1128,-291 1128,-291 1128,-233 1128,-99.03 1008.94,-104.35 884,-56 824.25,-32.88 646.02,-19.92 547.43,-14.34"/>
<polygon fill="midnightblue" stroke="midnightblue" points="547.46,-10.83 537.28,-13.77 547.07,-17.82 547.46,-10.83"/>
</g>
<!-- Node3 -->
<g id="node3" class="node">
<title>Node3</title>
<g id="a_node3"><a xlink:title=" ">
<polygon fill="none" stroke="#bfbfbf" points="88.5,-0.5 88.5,-19.5 177.5,-19.5 177.5,-0.5 88.5,-0.5"/>
<text text-anchor="middle" x="133" y="-7.5" font-family="Helvetica,sans-Serif" font-size="10.00">limes_export.h</text>
</a>
</g>
</g>
<!-- Node1&#45;&gt;Node3 -->
<g id="edge2" class="edge">
<title>Node1&#45;&gt;Node3</title>
<path fill="none" stroke="midnightblue" d="M984.47,-400.98C817.6,-400.46 0,-392.76 0,-291 0,-291 0,-291 0,-121 0,-70.73 57.13,-39.1 96.5,-23.27"/>
<polygon fill="midnightblue" stroke="midnightblue" points="98.01,-26.45 106.09,-19.59 95.5,-19.91 98.01,-26.45"/>
</g>
<!-- Node4 -->
<g id="node4" class="node">
<title>Node4</title>
<g id="a_node4"><a xlink:title=" ">
<polygon fill="none" stroke="#bfbfbf" points="991,-0.5 991,-19.5 1091,-19.5 1091,-0.5 991,-0.5"/>
<text text-anchor="middle" x="1041" y="-7.5" font-family="Helvetica,sans-Serif" font-size="10.00">limes_platform.h</text>
</a>
</g>
</g>
<!-- Node1&#45;&gt;Node4 -->
<g id="edge3" class="edge">
<title>Node1&#45;&gt;Node4</title>
<path fill="none" stroke="midnightblue" d="M1043.76,-399.2C1102.56,-393.86 1228,-372.88 1228,-291 1228,-291 1228,-291 1228,-121 1228,-61.07 1155.77,-33.15 1101.1,-20.59"/>
<polygon fill="midnightblue" stroke="midnightblue" points="1101.63,-17.13 1091.11,-18.42 1100.14,-23.97 1101.63,-17.13"/>
</g>
<!-- Node5 -->
<g id="node5" class="node">
<title>Node5</title>
<g id="a_node5"><a xlink:href="2_dshape_8h.html" target="_top" xlink:title=" ">
<polygon fill="none" stroke="black" points="28,-224.5 28,-243.5 96,-243.5 96,-224.5 28,-224.5"/>
<text text-anchor="middle" x="62" y="-231.5" font-family="Helvetica,sans-Serif" font-size="10.00">2Dshape.h</text>
</a>
</g>
</g>
<!-- Node1&#45;&gt;Node5 -->
<g id="edge4" class="edge">
<title>Node1&#45;&gt;Node5</title>
<path fill="none" stroke="midnightblue" d="M984.12,-399.67C832.72,-392.68 154.64,-358.31 83,-300 69.37,-288.9 64.48,-268.87 62.78,-253.96"/>
<polygon fill="midnightblue" stroke="midnightblue" points="66.26,-253.51 62.01,-243.8 59.28,-254.03 66.26,-253.51"/>
</g>
<!-- Node6 -->
<g id="node6" class="node">
<title>Node6</title>
<g id="a_node6"><a xlink:href="preprocessor_8h.html" target="_top" xlink:title=" ">
<polygon fill="none" stroke="black" points="1020.5,-56.5 1020.5,-75.5 1161.5,-75.5 1161.5,-56.5 1020.5,-56.5"/>
<text text-anchor="middle" x="1091" y="-63.5" font-family="Helvetica,sans-Serif" font-size="10.00">../../../misc/preprocessor.h</text>
</a>
</g>
</g>
<!-- Node1&#45;&gt;Node6 -->
<g id="edge7" class="edge">
<title>Node1&#45;&gt;Node6</title>
<path fill="none" stroke="midnightblue" d="M1043.71,-397.83C1072.4,-393.27 1115.31,-382.28 1142,-356 1163.95,-334.4 1166,-321.8 1166,-291 1166,-291 1166,-291 1166,-233 1166,-173.93 1126.07,-112.69 1104.48,-83.89"/>
<polygon fill="midnightblue" stroke="midnightblue" points="1107.07,-81.51 1098.19,-75.72 1101.52,-85.78 1107.07,-81.51"/>
</g>
<!-- Node7 -->
<g id="node7" class="node">
<title>Node7</title>
<g id="a_node7"><a xlink:href="rectangle_8h.html" target="_top" xlink:title=" ">
<polygon fill="none" stroke="black" points="902.5,-336.5 902.5,-355.5 973.5,-355.5 973.5,-336.5 902.5,-336.5"/>
<text text-anchor="middle" x="938" y="-343.5" font-family="Helvetica,sans-Serif" font-size="10.00">rectangle.h</text>
</a>
</g>
</g>
<!-- Node1&#45;&gt;Node7 -->
<g id="edge9" class="edge">
<title>Node1&#45;&gt;Node7</title>
<path fill="none" stroke="midnightblue" d="M1001.79,-392.32C990.22,-384.11 972.62,-371.6 958.84,-361.81"/>
<polygon fill="midnightblue" stroke="midnightblue" points="960.61,-358.77 950.43,-355.83 956.56,-364.48 960.61,-358.77"/>
</g>
<!-- Node8 -->
<g id="node8" class="node">
<title>Node8</title>
<g id="a_node8"><a xlink:href="triangle_8h.html" target="_top" xlink:title=" ">
<polygon fill="none" stroke="black" points="763.5,-280.5 763.5,-299.5 826.5,-299.5 826.5,-280.5 763.5,-280.5"/>
<text text-anchor="middle" x="795" y="-287.5" font-family="Helvetica,sans-Serif" font-size="10.00">triangle.h</text>
</a>
</g>
</g>
<!-- Node1&#45;&gt;Node8 -->
<g id="edge45" class="edge">
<title>Node1&#45;&gt;Node8</title>
<path fill="none" stroke="midnightblue" d="M986.1,-392.49C961.29,-384.48 924.35,-371.41 894,-356 864.91,-341.23 833.84,-319.79 814.43,-305.63"/>
<polygon fill="midnightblue" stroke="midnightblue" points="816.5,-302.81 806.38,-299.69 812.34,-308.44 816.5,-302.81"/>
</g>
<!-- Node11 -->
<g id="node11" class="node">
<title>Node11</title>
<g id="a_node11"><a xlink:title=" ">
<polygon fill="none" stroke="#bfbfbf" points="883.5,-112.5 883.5,-131.5 930.5,-131.5 930.5,-112.5 883.5,-112.5"/>
<text text-anchor="middle" x="907" y="-119.5" font-family="Helvetica,sans-Serif" font-size="10.00">cmath</text>
</a>
</g>
</g>
<!-- Node1&#45;&gt;Node11 -->
<g id="edge46" class="edge">
<title>Node1&#45;&gt;Node11</title>
<path fill="none" stroke="midnightblue" d="M1010.68,-392.38C995.76,-353.62 934.76,-195.13 913.98,-141.13"/>
<polygon fill="midnightblue" stroke="midnightblue" points="917.14,-139.6 910.28,-131.52 910.61,-142.11 917.14,-139.6"/>
</g>
<!-- Node5&#45;&gt;Node2 -->
<g id="edge5" class="edge">
<title>Node5&#45;&gt;Node2</title>
<path fill="none" stroke="midnightblue" d="M70.19,-224.41C98.05,-195.74 192.82,-102.51 290,-56 328.43,-37.61 374.92,-26.43 412.3,-19.81"/>
<polygon fill="midnightblue" stroke="midnightblue" points="413.31,-23.19 422.58,-18.07 412.14,-16.29 413.31,-23.19"/>
</g>
<!-- Node5&#45;&gt;Node3 -->
<g id="edge6" class="edge">
<title>Node5&#45;&gt;Node3</title>
<path fill="none" stroke="midnightblue" d="M59.22,-224.17C51.21,-197.01 30.6,-113.08 62,-56 69.89,-41.66 84.49,-31.25 98.4,-24.08"/>
<polygon fill="midnightblue" stroke="midnightblue" points="100.29,-27.06 107.84,-19.62 97.3,-20.73 100.29,-27.06"/>
</g>
<!-- Node6&#45;&gt;Node4 -->
<g id="edge8" class="edge">
<title>Node6&#45;&gt;Node4</title>
<path fill="none" stroke="midnightblue" d="M1082.74,-56.08C1075.54,-48.3 1064.89,-36.8 1056.15,-27.37"/>
<polygon fill="midnightblue" stroke="midnightblue" points="1058.47,-24.71 1049.1,-19.75 1053.33,-29.47 1058.47,-24.71"/>
</g>
<!-- Node7&#45;&gt;Node2 -->
<g id="edge10" class="edge">
<title>Node7&#45;&gt;Node2</title>
<path fill="none" stroke="midnightblue" d="M941.15,-336.1C952.15,-303.33 985.81,-187.35 940,-112 913.13,-67.81 887.19,-71.95 838,-56 740.11,-24.26 620.44,-14.72 547.25,-11.97"/>
<polygon fill="midnightblue" stroke="midnightblue" points="547.35,-8.47 537.23,-11.62 547.11,-15.46 547.35,-8.47"/>
</g>
<!-- Node7&#45;&gt;Node3 -->
<g id="edge11" class="edge">
<title>Node7&#45;&gt;Node3</title>
<path fill="none" stroke="midnightblue" d="M902.24,-343.99C745.13,-339.1 124,-314.72 124,-235 124,-235 124,-235 124,-177 124,-123.51 128.72,-60.47 131.32,-29.74"/>
<polygon fill="midnightblue" stroke="midnightblue" points="134.82,-29.9 132.2,-19.63 127.85,-29.29 134.82,-29.9"/>
</g>
<!-- Node7&#45;&gt;Node4 -->
<g id="edge12" class="edge">
<title>Node7&#45;&gt;Node4</title>
<path fill="none" stroke="midnightblue" d="M955.6,-336.5C971.04,-328.49 993.55,-315.42 1010,-300 1099.45,-216.15 1133.41,-192.7 1171,-76 1182.05,-41.68 1140.27,-25.42 1101.18,-17.75"/>
<polygon fill="midnightblue" stroke="midnightblue" points="1101.8,-14.31 1091.34,-15.98 1100.56,-21.2 1101.8,-14.31"/>
</g>
<!-- Node7&#45;&gt;Node5 -->
<g id="edge13" class="edge">
<title>Node7&#45;&gt;Node5</title>
<path fill="none" stroke="midnightblue" d="M902.29,-344.84C752.64,-343.93 180.41,-337.96 110,-300 90.96,-289.73 77.44,-268.25 69.7,-252.78"/>
<polygon fill="midnightblue" stroke="midnightblue" points="72.85,-251.26 65.45,-243.67 66.5,-254.21 72.85,-251.26"/>
</g>
<!-- Node7&#45;&gt;Node6 -->
<g id="edge14" class="edge">
<title>Node7&#45;&gt;Node6</title>
<path fill="none" stroke="midnightblue" d="M951.01,-336.32C962.51,-328.1 979.12,-314.82 990,-300 1042.1,-229.03 1074.37,-127.01 1086.05,-85.56"/>
<polygon fill="midnightblue" stroke="midnightblue" points="1089.47,-86.33 1088.74,-75.76 1082.72,-84.47 1089.47,-86.33"/>
</g>
<!-- Node7&#45;&gt;Node8 -->
<g id="edge15" class="edge">
<title>Node7&#45;&gt;Node8</title>
<path fill="none" stroke="midnightblue" d="M915.34,-336.44C891.6,-327.48 854.09,-313.31 827.26,-303.18"/>
<polygon fill="midnightblue" stroke="midnightblue" points="828.14,-299.77 817.55,-299.52 825.67,-306.32 828.14,-299.77"/>
</g>
<!-- Node7&#45;&gt;Node11 -->
<g id="edge44" class="edge">
<title>Node7&#45;&gt;Node11</title>
<path fill="none" stroke="midnightblue" d="M936.78,-336.3C932.22,-303.63 916.06,-187.87 909.65,-141.96"/>
<polygon fill="midnightblue" stroke="midnightblue" points="913.09,-141.3 908.24,-131.88 906.16,-142.27 913.09,-141.3"/>
</g>
<!-- Node8&#45;&gt;Node2 -->
<g id="edge16" class="edge">
<title>Node8&#45;&gt;Node2</title>
<path fill="none" stroke="midnightblue" d="M763.24,-286.13C686.9,-277.52 491.7,-245.03 387,-132 361.73,-104.72 330.5,-86.34 352,-56 366.12,-36.07 389.8,-24.9 412.98,-18.67"/>
<polygon fill="midnightblue" stroke="midnightblue" points="413.95,-22.03 422.85,-16.29 412.31,-15.23 413.95,-22.03"/>
</g>
<!-- Node8&#45;&gt;Node3 -->
<g id="edge17" class="edge">
<title>Node8&#45;&gt;Node3</title>
<path fill="none" stroke="midnightblue" d="M763.26,-286.86C711.18,-282.68 604.81,-271.32 519,-244 411.04,-209.63 389.89,-185.47 290,-132 246.45,-108.69 232.64,-106.77 194,-76 175.76,-61.47 157.85,-41.52 146.21,-27.56"/>
<polygon fill="midnightblue" stroke="midnightblue" points="148.86,-25.28 139.82,-19.75 143.44,-29.71 148.86,-25.28"/>
</g>
<!-- Node8&#45;&gt;Node4 -->
<g id="edge18" class="edge">
<title>Node8&#45;&gt;Node4</title>
<path fill="none" stroke="midnightblue" d="M796.98,-280.25C803.63,-252.6 827.4,-165.79 875,-112 875.34,-111.61 972.93,-52.33 1018.3,-24.78"/>
<polygon fill="midnightblue" stroke="midnightblue" points="1020.15,-27.75 1026.88,-19.57 1016.52,-21.77 1020.15,-27.75"/>
</g>
<!-- Node8&#45;&gt;Node5 -->
<g id="edge19" class="edge">
<title>Node8&#45;&gt;Node5</title>
<path fill="none" stroke="midnightblue" d="M763.33,-287.19C669.39,-281.73 384.12,-264.56 148,-244 134.41,-242.82 119.64,-241.34 106.23,-239.93"/>
<polygon fill="midnightblue" stroke="midnightblue" points="106.6,-236.45 96.29,-238.87 105.86,-243.41 106.6,-236.45"/>
</g>
<!-- Node8&#45;&gt;Node6 -->
<g id="edge20" class="edge">
<title>Node8&#45;&gt;Node6</title>
<path fill="none" stroke="midnightblue" d="M807.15,-280.48C819.9,-271.51 840.47,-256.92 858,-244 938.23,-184.89 1032.31,-112.44 1071.91,-81.8"/>
<polygon fill="midnightblue" stroke="midnightblue" points="1074.17,-84.48 1079.93,-75.59 1069.88,-78.95 1074.17,-84.48"/>
</g>
<!-- Node9 -->
<g id="node9" class="node">
<title>Node9</title>
<g id="a_node9"><a xlink:href="angle_8h.html" target="_top" xlink:title=" ">
<polygon fill="none" stroke="black" points="670.5,-224.5 670.5,-243.5 723.5,-243.5 723.5,-224.5 670.5,-224.5"/>
<text text-anchor="middle" x="697" y="-231.5" font-family="Helvetica,sans-Serif" font-size="10.00">angle.h</text>
</a>
</g>
</g>
<!-- Node8&#45;&gt;Node9 -->
<g id="edge21" class="edge">
<title>Node8&#45;&gt;Node9</title>
<path fill="none" stroke="midnightblue" d="M779.25,-280.32C763.68,-271.74 739.62,-258.49 721.54,-248.52"/>
<polygon fill="midnightblue" stroke="midnightblue" points="723.15,-245.42 712.71,-243.65 719.78,-251.55 723.15,-245.42"/>
</g>
<!-- Node10 -->
<g id="node10" class="node">
<title>Node10</title>
<g id="a_node10"><a xlink:href="math_helpers_8h.html" target="_top" xlink:title=" ">
<polygon fill="none" stroke="black" points="643.5,-168.5 643.5,-187.5 750.5,-187.5 750.5,-168.5 643.5,-168.5"/>
<text text-anchor="middle" x="697" y="-175.5" font-family="Helvetica,sans-Serif" font-size="10.00">../../mathHelpers.h</text>
</a>
</g>
</g>
<!-- Node8&#45;&gt;Node10 -->
<g id="edge42" class="edge">
<title>Node8&#45;&gt;Node10</title>
<path fill="none" stroke="midnightblue" d="M787.31,-280.37C770.99,-262.05 732.68,-219.05 711.58,-195.36"/>
<polygon fill="midnightblue" stroke="midnightblue" points="713.92,-192.73 704.65,-187.59 708.69,-197.39 713.92,-192.73"/>
</g>
<!-- Node8&#45;&gt;Node11 -->
<g id="edge43" class="edge">
<title>Node8&#45;&gt;Node11</title>
<path fill="none" stroke="midnightblue" d="M804.59,-280.28C813.81,-271.62 827.8,-257.69 838,-244 863.54,-209.73 886.71,-165.1 898.6,-140.76"/>
<polygon fill="midnightblue" stroke="midnightblue" points="901.8,-142.18 902.98,-131.65 895.49,-139.14 901.8,-142.18"/>
</g>
<!-- Node9&#45;&gt;Node2 -->
<g id="edge23" class="edge">
<title>Node9&#45;&gt;Node2</title>
<path fill="none" stroke="midnightblue" d="M670.26,-229.98C603.86,-220.88 431.7,-187.08 361,-76 343.36,-48.29 380.3,-31.48 417.57,-21.91"/>
<polygon fill="midnightblue" stroke="midnightblue" points="418.62,-25.26 427.53,-19.52 416.98,-18.45 418.62,-25.26"/>
</g>
<!-- Node9&#45;&gt;Node3 -->
<g id="edge22" class="edge">
<title>Node9&#45;&gt;Node3</title>
<path fill="none" stroke="midnightblue" d="M670.47,-230.16C626.48,-224.95 536.06,-212.13 463,-188 353.9,-151.96 329.75,-133.01 230,-76 202.35,-60.2 172.1,-39.31 152.86,-25.53"/>
<polygon fill="midnightblue" stroke="midnightblue" points="154.76,-22.58 144.6,-19.56 150.66,-28.26 154.76,-22.58"/>
</g>
<!-- Node9&#45;&gt;Node4 -->
<g id="edge24" class="edge">
<title>Node9&#45;&gt;Node4</title>
<path fill="none" stroke="midnightblue" d="M710.41,-224.19C723.43,-215.45 743.58,-201.47 760,-188 798.17,-156.7 800.55,-140.3 841,-112 896.5,-73.16 969.04,-40.43 1009.75,-23.46"/>
<polygon fill="midnightblue" stroke="midnightblue" points="1011.23,-26.64 1019.15,-19.59 1008.57,-20.17 1011.23,-26.64"/>
</g>
<!-- Node9&#45;&gt;Node10 -->
<g id="edge25" class="edge">
<title>Node9&#45;&gt;Node10</title>
<path fill="none" stroke="midnightblue" d="M697,-224.08C697,-217.01 697,-206.86 697,-197.99"/>
<polygon fill="midnightblue" stroke="midnightblue" points="700.5,-197.75 697,-187.75 693.5,-197.75 700.5,-197.75"/>
</g>
<!-- Node10&#45;&gt;Node2 -->
<g id="edge26" class="edge">
<title>Node10&#45;&gt;Node2</title>
<path fill="none" stroke="midnightblue" d="M697.12,-168.18C697.78,-154.38 701.06,-127.64 716,-112 752.53,-73.75 855.87,-95.77 821,-56 803.27,-35.77 641.57,-21.73 547.34,-15.18"/>
<polygon fill="midnightblue" stroke="midnightblue" points="547.54,-11.69 537.32,-14.5 547.06,-18.67 547.54,-11.69"/>
</g>
<!-- Node10&#45;&gt;Node3 -->
<g id="edge29" class="edge">
<title>Node10&#45;&gt;Node3</title>
<path fill="none" stroke="midnightblue" d="M650.04,-168.47C572.96,-153.79 415.34,-120.95 287,-76 241.77,-60.16 190.82,-37.71 160.34,-23.77"/>
<polygon fill="midnightblue" stroke="midnightblue" points="161.75,-20.56 151.2,-19.56 158.82,-26.92 161.75,-20.56"/>
</g>
<!-- Node10&#45;&gt;Node11 -->
<g id="edge27" class="edge">
<title>Node10&#45;&gt;Node11</title>
<path fill="none" stroke="midnightblue" d="M730.28,-168.44C769.45,-158.37 834.14,-141.74 873.44,-131.63"/>
<polygon fill="midnightblue" stroke="midnightblue" points="874.52,-134.97 883.33,-129.09 872.77,-128.19 874.52,-134.97"/>
</g>
<!-- Node12 -->
<g id="node12" class="node">
<title>Node12</title>
<g id="a_node12"><a xlink:title=" ">
<polygon fill="none" stroke="#bfbfbf" points="742.5,-56.5 742.5,-75.5 811.5,-75.5 811.5,-56.5 742.5,-56.5"/>
<text text-anchor="middle" x="777" y="-63.5" font-family="Helvetica,sans-Serif" font-size="10.00">type_traits</text>
</a>
</g>
</g>
<!-- Node10&#45;&gt;Node12 -->
<g id="edge28" class="edge">
<title>Node10&#45;&gt;Node12</title>
<path fill="none" stroke="midnightblue" d="M691.36,-168.3C683.6,-155.13 671.8,-129.78 683,-112 694,-94.53 713.88,-83.69 732.52,-77.05"/>
<polygon fill="midnightblue" stroke="midnightblue" points="733.67,-80.35 742.11,-73.94 731.52,-73.7 733.67,-80.35"/>
</g>
<!-- Node13 -->
<g id="node13" class="node">
<title>Node13</title>
<g id="a_node13"><a xlink:title=" ">
<polygon fill="none" stroke="#bfbfbf" points="725,-112.5 725,-131.5 789,-131.5 789,-112.5 725,-112.5"/>
<text text-anchor="middle" x="757" y="-119.5" font-family="Helvetica,sans-Serif" font-size="10.00">algorithm</text>
</a>
</g>
</g>
<!-- Node10&#45;&gt;Node13 -->
<g id="edge30" class="edge">
<title>Node10&#45;&gt;Node13</title>
<path fill="none" stroke="midnightblue" d="M706.64,-168.32C715.51,-160.34 728.87,-148.31 739.61,-138.65"/>
<polygon fill="midnightblue" stroke="midnightblue" points="742.09,-141.13 747.18,-131.83 737.41,-135.92 742.09,-141.13"/>
</g>
<!-- Node14 -->
<g id="node14" class="node">
<title>Node14</title>
<g id="a_node14"><a xlink:href="limes__assert_8h.html" target="_top" xlink:title=" ">
<polygon fill="none" stroke="black" points="495,-112.5 495,-131.5 631,-131.5 631,-112.5 495,-112.5"/>
<text text-anchor="middle" x="563" y="-119.5" font-family="Helvetica,sans-Serif" font-size="10.00">../system/limes_assert.h</text>
</a>
</g>
</g>
<!-- Node10&#45;&gt;Node14 -->
<g id="edge31" class="edge">
<title>Node10&#45;&gt;Node14</title>
<path fill="none" stroke="midnightblue" d="M675.77,-168.44C653.62,-159.52 618.68,-145.44 593.56,-135.32"/>
<polygon fill="midnightblue" stroke="midnightblue" points="594.72,-132.01 584.13,-131.52 592.1,-138.5 594.72,-132.01"/>
</g>
<!-- Node14&#45;&gt;Node2 -->
<g id="edge33" class="edge">
<title>Node14&#45;&gt;Node2</title>
<path fill="none" stroke="midnightblue" d="M556.49,-112.37C542.73,-94.14 510.5,-51.43 492.58,-27.68"/>
<polygon fill="midnightblue" stroke="midnightblue" points="495.3,-25.47 486.48,-19.59 489.71,-29.68 495.3,-25.47"/>
</g>
<!-- Node14&#45;&gt;Node3 -->
<g id="edge32" class="edge">
<title>Node14&#45;&gt;Node3</title>
<path fill="none" stroke="midnightblue" d="M521.44,-112.48C480.48,-103.92 416.2,-90 361,-76 293.49,-58.87 215.62,-35.99 170.58,-22.44"/>
<polygon fill="midnightblue" stroke="midnightblue" points="171.52,-19.07 160.94,-19.54 169.5,-25.77 171.52,-19.07"/>
</g>
<!-- Node14&#45;&gt;Node4 -->
<g id="edge40" class="edge">
<title>Node14&#45;&gt;Node4</title>
<path fill="none" stroke="midnightblue" d="M592.03,-112.44C619.08,-104.15 660.34,-90.7 695,-76 712.93,-68.39 715.45,-61.94 734,-56 817.11,-29.41 917.95,-18.45 980.82,-13.99"/>
<polygon fill="midnightblue" stroke="midnightblue" points="981.22,-17.47 990.96,-13.3 980.74,-10.49 981.22,-17.47"/>
</g>
<!-- Node14&#45;&gt;Node6 -->
<g id="edge34" class="edge">
<title>Node14&#45;&gt;Node6</title>
<path fill="none" stroke="midnightblue" d="M631.22,-114.02C728.48,-104.08 906.68,-85.85 1010.35,-75.25"/>
<polygon fill="midnightblue" stroke="midnightblue" points="1010.86,-78.71 1020.45,-74.22 1010.15,-71.75 1010.86,-78.71"/>
</g>
<!-- Node14&#45;&gt;Node12 -->
<g id="edge35" class="edge">
<title>Node14&#45;&gt;Node12</title>
<path fill="none" stroke="midnightblue" d="M596.91,-112.44C633.85,-103.12 693.05,-88.18 733.42,-78"/>
<polygon fill="midnightblue" stroke="midnightblue" points="734.41,-81.36 743.25,-75.52 732.7,-74.57 734.41,-81.36"/>
</g>
<!-- Node15 -->
<g id="node15" class="node">
<title>Node15</title>
<g id="a_node15"><a xlink:title=" ">
<polygon fill="none" stroke="#bfbfbf" points="554.5,-56.5 554.5,-75.5 599.5,-75.5 599.5,-56.5 554.5,-56.5"/>
<text text-anchor="middle" x="577" y="-63.5" font-family="Helvetica,sans-Serif" font-size="10.00">utility</text>
</a>
</g>
</g>
<!-- Node14&#45;&gt;Node15 -->
<g id="edge36" class="edge">
<title>Node14&#45;&gt;Node15</title>
<path fill="none" stroke="midnightblue" d="M565.31,-112.08C567.17,-104.93 569.84,-94.64 572.15,-85.69"/>
<polygon fill="midnightblue" stroke="midnightblue" points="575.61,-86.31 574.73,-75.75 568.83,-84.55 575.61,-86.31"/>
</g>
<!-- Node16 -->
<g id="node16" class="node">
<title>Node16</title>
<g id="a_node16"><a xlink:href="_ignore_unused_8h.html" target="_top" xlink:title=" ">
<polygon fill="none" stroke="black" points="370,-56.5 370,-75.5 498,-75.5 498,-56.5 370,-56.5"/>
<text text-anchor="middle" x="434" y="-63.5" font-family="Helvetica,sans-Serif" font-size="10.00">../misc/IgnoreUnused.h</text>
</a>
</g>
</g>
<!-- Node14&#45;&gt;Node16 -->
<g id="edge37" class="edge">
<title>Node14&#45;&gt;Node16</title>
<path fill="none" stroke="midnightblue" d="M542.56,-112.44C521.33,-103.56 487.9,-89.56 463.75,-79.45"/>
<polygon fill="midnightblue" stroke="midnightblue" points="464.92,-76.15 454.34,-75.52 462.22,-82.61 464.92,-76.15"/>
</g>
<!-- Node17 -->
<g id="node17" class="node">
<title>Node17</title>
<g id="a_node17"><a xlink:title=" ">
<polygon fill="none" stroke="#bfbfbf" points="618,-56.5 618,-75.5 686,-75.5 686,-56.5 618,-56.5"/>
<text text-anchor="middle" x="652" y="-63.5" font-family="Helvetica,sans-Serif" font-size="10.00">filesystem</text>
</a>
</g>
</g>
<!-- Node14&#45;&gt;Node17 -->
<g id="edge41" class="edge">
<title>Node14&#45;&gt;Node17</title>
<path fill="none" stroke="midnightblue" d="M577.3,-112.32C591.18,-103.9 612.49,-90.97 628.8,-81.07"/>
<polygon fill="midnightblue" stroke="midnightblue" points="631,-83.83 637.74,-75.65 627.37,-77.85 631,-83.83"/>
</g>
<!-- Node16&#45;&gt;Node2 -->
<g id="edge39" class="edge">
<title>Node16&#45;&gt;Node2</title>
<path fill="none" stroke="midnightblue" d="M441.6,-56.08C448.23,-48.3 458.02,-36.8 466.06,-27.37"/>
<polygon fill="midnightblue" stroke="midnightblue" points="468.73,-29.63 472.55,-19.75 463.4,-25.09 468.73,-29.63"/>
</g>
<!-- Node16&#45;&gt;Node3 -->
<g id="edge38" class="edge">
<title>Node16&#45;&gt;Node3</title>
<path fill="none" stroke="midnightblue" d="M386.31,-56.44C332.2,-46.74 244.13,-30.94 187.39,-20.76"/>
<polygon fill="midnightblue" stroke="midnightblue" points="187.99,-17.31 177.53,-18.99 186.75,-24.2 187.99,-17.31"/>
</g>
</g>
</svg>
        <g id="navigator" transform="translate(0 0)" fill="#404254">
                <rect fill="#f2f5e9" fill-opacity="0.5" stroke="#606060" stroke-width=".5" x="0" y="0" width="60" height="60"/>
                <use id="zoomplus" xlink:href="#zoomPlus" x="17" y="9" onmousedown="handleZoom(evt,'in')"/>
                <use id="zoomminus" xlink:href="#zoomMin" x="42" y="9" onmousedown="handleZoom(evt,'out')"/>
                <use id="reset" xlink:href="#resetDef" x="30" y="36" onmousedown="handleReset()"/>
                <g id="arrowUp" xlink:href="#dirArrow" transform="translate(30 24)" onmousedown="handlePan(0,-1)">
                  <use xlink:href="#rim" fill="#404040">
                        <set attributeName="fill" to="#808080" begin="arrowUp.mouseover" end="arrowUp.mouseout"/>
                  </use>
                  <path fill="none" stroke="white" stroke-width="1.5" d="M0,-3.0v7 M-2.5,-0.5L0,-3.0L2.5,-0.5"/>
                </g>
                <g id="arrowRight" xlink:href="#dirArrow" transform="rotate(90) translate(36 -43)" onmousedown="handlePan(1,0)">
                  <use xlink:href="#rim" fill="#404040">
                        <set attributeName="fill" to="#808080" begin="arrowRight.mouseover" end="arrowRight.mouseout"/>
                  </use>
                  <path fill="none" stroke="white" stroke-width="1.5" d="M0,-3.0v7 M-2.5,-0.5L0,-3.0L2.5,-0.5"/>
                </g>
                <g id="arrowDown" xlink:href="#dirArrow" transform="rotate(180) translate(-30 -48)" onmousedown="handlePan(0,1)">
                  <use xlink:href="#rim" fill="#404040">
                        <set attributeName="fill" to="#808080" begin="arrowDown.mouseover" end="arrowDown.mouseout"/>
                  </use>
                  <path fill="none" stroke="white" stroke-width="1.5" d="M0,-3.0v7 M-2.5,-0.5L0,-3.0L2.5,-0.5"/>
                </g>
                <g id="arrowLeft" xlink:href="#dirArrow" transform="rotate(270) translate(-36 17)" onmousedown="handlePan(-1,0)">
                  <use xlink:href="#rim" fill="#404040">
                        <set attributeName="fill" to="#808080" begin="arrowLeft.mouseover" end="arrowLeft.mouseout"/>
                  </use>
                  <path fill="none" stroke="white" stroke-width="1.5" d="M0,-3.0v7 M-2.5,-0.5L0,-3.0L2.5,-0.5"/>
                </g>
        </g>
        <svg viewBox="0 0 15 15" width="100%" height="30px" preserveAspectRatio="xMaxYMin meet">
         <g id="arrow_out" transform="scale(0.3 0.3)">
          <a xlink:href="square_8h__incl_org.svg" target="_base">
           <rect id="button" ry="5" rx="5" y="6" x="6" height="38" width="38"
                fill="#f2f5e9" fill-opacity="0.5" stroke="#606060" stroke-width="1.0"/>
           <path id="arrow"
             d="M 11.500037,31.436501 C 11.940474,20.09759 22.043105,11.32322 32.158766,21.979434 L 37.068811,17.246167 C 37.068811,17.246167 37.088388,32 37.088388,32 L 22.160133,31.978069 C 22.160133,31.978069 26.997745,27.140456 26.997745,27.140456 C 18.528582,18.264221 13.291696,25.230495 11.500037,31.436501 z"
             style="fill:#404040;"/>
          </a>
         </g>
        </svg>
</svg>
