<?xml version="1.0" encoding="UTF-8" standalone="no"?>
<!DOCTYPE svg PUBLIC "-//W3C//DTD SVG 1.1//EN"
 "http://www.w3.org/Graphics/SVG/1.1/DTD/svg11.dtd">
<!-- Generated by graphviz version 2.43.0 (0)
 -->
<!-- Title: music::scales::Scale Pages: 1 -->
<svg width="312pt" height="180pt"
 viewBox="0.00 0.00 312.00 180.00" xmlns="http://www.w3.org/2000/svg" xmlns:xlink="http://www.w3.org/1999/xlink">
<g id="graph0" class="graph" transform="scale(1 1) rotate(0) translate(4 176)">
<title>music::scales::Scale</title>
<!-- Node1 -->
<g id="node1" class="node">
<title>Node1</title>
<g id="a_node1"><a xlink:title="A base class for any kind of scale.">
<polygon fill="#bfbfbf" stroke="black" points="0,-76.5 0,-95.5 115,-95.5 115,-76.5 0,-76.5"/>
<text text-anchor="middle" x="57.5" y="-83.5" font-family="Helvetica,sans-Serif" font-size="10.00">music::scales::Scale</text>
</a>
</g>
</g>
<!-- Node2 -->
<g id="node2" class="node">
<title>Node2</title>
<g id="a_node2"><a xlink:href="classmusic_1_1scales_1_1_chromatic.html" target="_top" xlink:title="A class representing a chromatic scale.">
<polygon fill="none" stroke="black" points="158,-152.5 158,-171.5 297,-171.5 297,-152.5 158,-152.5"/>
<text text-anchor="middle" x="227.5" y="-159.5" font-family="Helvetica,sans-Serif" font-size="10.00">music::scales::Chromatic</text>
</a>
</g>
</g>
<!-- Node1&#45;&gt;Node2 -->
<g id="edge1" class="edge">
<title>Node1&#45;&gt;Node2</title>
<path fill="none" stroke="midnightblue" d="M79.89,-101.82C98.01,-114.55 125.1,-132.07 151,-143 159.84,-146.73 169.59,-149.86 179.05,-152.42"/>
<polygon fill="midnightblue" stroke="midnightblue" points="81.46,-98.63 71.29,-95.65 77.38,-104.32 81.46,-98.63"/>
</g>
<!-- Node3 -->
<g id="node3" class="node">
<title>Node3</title>
<g id="a_node3"><a xlink:href="classmusic_1_1scales_1_1_key_signature.html" target="_top" xlink:title="This class represents any traditional Western key signature (eg, major, natural minor,...">
<polygon fill="none" stroke="black" points="151,-114.5 151,-133.5 304,-133.5 304,-114.5 151,-114.5"/>
<text text-anchor="middle" x="227.5" y="-121.5" font-family="Helvetica,sans-Serif" font-size="10.00">music::scales::KeySignature</text>
</a>
</g>
</g>
<!-- Node1&#45;&gt;Node3 -->
<g id="edge2" class="edge">
<title>Node1&#45;&gt;Node3</title>
<path fill="none" stroke="midnightblue" d="M110.78,-97.82C134.46,-103.18 162.09,-109.43 184.41,-114.48"/>
<polygon fill="midnightblue" stroke="midnightblue" points="111.42,-94.38 100.89,-95.59 109.87,-101.21 111.42,-94.38"/>
</g>
<!-- Node4 -->
<g id="node4" class="node">
<title>Node4</title>
<g id="a_node4"><a xlink:href="classmusic_1_1scales_1_1_mode.html" target="_top" xlink:title="Represents a modal scale.">
<polygon fill="none" stroke="black" points="169.5,-76.5 169.5,-95.5 285.5,-95.5 285.5,-76.5 169.5,-76.5"/>
<text text-anchor="middle" x="227.5" y="-83.5" font-family="Helvetica,sans-Serif" font-size="10.00">music::scales::Mode</text>
</a>
</g>
</g>
<!-- Node1&#45;&gt;Node4 -->
<g id="edge3" class="edge">
<title>Node1&#45;&gt;Node4</title>
<path fill="none" stroke="midnightblue" d="M125.76,-86C140.22,-86 155.37,-86 169.4,-86"/>
<polygon fill="midnightblue" stroke="midnightblue" points="125.38,-82.5 115.38,-86 125.38,-89.5 125.38,-82.5"/>
</g>
<!-- Node5 -->
<g id="node5" class="node">
<title>Node5</title>
<g id="a_node5"><a xlink:href="classmusic_1_1scales_1_1_octatonic.html" target="_top" xlink:title="Represents an octatonic scale.">
<polygon fill="none" stroke="black" points="160,-38.5 160,-57.5 295,-57.5 295,-38.5 160,-38.5"/>
<text text-anchor="middle" x="227.5" y="-45.5" font-family="Helvetica,sans-Serif" font-size="10.00">music::scales::Octatonic</text>
</a>
</g>
</g>
<!-- Node1&#45;&gt;Node5 -->
<g id="edge4" class="edge">
<title>Node1&#45;&gt;Node5</title>
<path fill="none" stroke="midnightblue" d="M110.78,-74.18C134.46,-68.82 162.09,-62.57 184.41,-57.52"/>
<polygon fill="midnightblue" stroke="midnightblue" points="109.87,-70.79 100.89,-76.41 111.42,-77.62 109.87,-70.79"/>
</g>
<!-- Node6 -->
<g id="node6" class="node">
<title>Node6</title>
<g id="a_node6"><a xlink:href="classmusic_1_1scales_1_1_whole_tone.html" target="_top" xlink:title="A class that represents a whole tone scale.">
<polygon fill="none" stroke="black" points="156.5,-0.5 156.5,-19.5 298.5,-19.5 298.5,-0.5 156.5,-0.5"/>
<text text-anchor="middle" x="227.5" y="-7.5" font-family="Helvetica,sans-Serif" font-size="10.00">music::scales::WholeTone</text>
</a>
</g>
</g>
<!-- Node1&#45;&gt;Node6 -->
<g id="edge5" class="edge">
<title>Node1&#45;&gt;Node6</title>
<path fill="none" stroke="midnightblue" d="M79.89,-70.18C98.01,-57.45 125.1,-39.93 151,-29 159.84,-25.27 169.59,-22.14 179.05,-19.58"/>
<polygon fill="midnightblue" stroke="midnightblue" points="77.38,-67.68 71.29,-76.35 81.46,-73.37 77.38,-67.68"/>
</g>
</g>
</svg>
