<?xml version="1.0" encoding="UTF-8" standalone="no"?>
<!DOCTYPE svg PUBLIC "-//W3C//DTD SVG 1.1//EN"
 "http://www.w3.org/Graphics/SVG/1.1/DTD/svg11.dtd">
<!-- Generated by graphviz version 2.43.0 (0)
 -->
<!-- Title: threads::is_realtime_copy_assignable&lt; T &gt; Pages: 1 -->
<svg width="279pt" height="264pt"
 viewBox="0.00 0.00 278.50 264.00" xmlns="http://www.w3.org/2000/svg" xmlns:xlink="http://www.w3.org/1999/xlink">
<g id="graph0" class="graph" transform="scale(1 1) rotate(0) translate(4 260)">
<title>threads::is_realtime_copy_assignable&lt; T &gt;</title>
<!-- Node1 -->
<g id="node1" class="node">
<title>Node1</title>
<g id="a_node1"><a xlink:title=" ">
<polygon fill="#bfbfbf" stroke="black" points="30,-0.5 30,-30.5 161,-30.5 161,-0.5 30,-0.5"/>
<text text-anchor="start" x="38" y="-18.5" font-family="Helvetica,sans-Serif" font-size="10.00">threads::is_realtime</text>
<text text-anchor="middle" x="95.5" y="-7.5" font-family="Helvetica,sans-Serif" font-size="10.00">_copy_assignable&lt; T &gt;</text>
</a>
</g>
</g>
<!-- Node2 -->
<g id="node2" class="node">
<title>Node2</title>
<g id="a_node2"><a xlink:href="structthreads_1_1detail_1_1is__rt__safe.html" target="_top" xlink:title=" ">
<polygon fill="none" stroke="black" points="0,-68.5 0,-109.5 191,-109.5 191,-68.5 0,-68.5"/>
<text text-anchor="start" x="8" y="-97.5" font-family="Helvetica,sans-Serif" font-size="10.00">threads::detail::is</text>
<text text-anchor="start" x="8" y="-86.5" font-family="Helvetica,sans-Serif" font-size="10.00">_rt_safe&lt; T, detail</text>
<text text-anchor="middle" x="95.5" y="-75.5" font-family="Helvetica,sans-Serif" font-size="10.00">::copy_tag, detail::assignable_tag &gt;</text>
</a>
</g>
</g>
<!-- Node2&#45;&gt;Node1 -->
<g id="edge1" class="edge">
<title>Node2&#45;&gt;Node1</title>
<path fill="none" stroke="midnightblue" d="M95.5,-58.16C95.5,-48.69 95.5,-38.65 95.5,-30.8"/>
<polygon fill="midnightblue" stroke="midnightblue" points="92,-58.46 95.5,-68.46 99,-58.46 92,-58.46"/>
</g>
<!-- Node3 -->
<g id="node3" class="node">
<title>Node3</title>
<g id="a_node3"><a xlink:title=" ">
<polygon fill="none" stroke="#bfbfbf" points="57.5,-236.5 57.5,-255.5 125.5,-255.5 125.5,-236.5 57.5,-236.5"/>
<text text-anchor="middle" x="91.5" y="-243.5" font-family="Helvetica,sans-Serif" font-size="10.00">false_type</text>
</a>
</g>
</g>
<!-- Node3&#45;&gt;Node2 -->
<g id="edge2" class="edge">
<title>Node3&#45;&gt;Node2</title>
<path fill="none" stroke="midnightblue" d="M91.99,-226C92.75,-196.38 94.22,-139.51 95,-109.56"/>
<polygon fill="midnightblue" stroke="midnightblue" points="88.49,-226.14 91.73,-236.22 95.48,-226.32 88.49,-226.14"/>
</g>
<!-- Node4 -->
<g id="node4" class="node">
<title>Node4</title>
<g id="a_node4"><a xlink:href="structthreads_1_1detail_1_1is__rt__safe.html" target="_top" xlink:title=" ">
<polygon fill="none" stroke="black" points="108,-168.5 108,-198.5 249,-198.5 249,-168.5 108,-168.5"/>
<text text-anchor="start" x="116" y="-186.5" font-family="Helvetica,sans-Serif" font-size="10.00">threads::detail::is</text>
<text text-anchor="middle" x="178.5" y="-175.5" font-family="Helvetica,sans-Serif" font-size="10.00">_rt_safe&lt; T, Tag1, Tag2 &gt;</text>
</a>
</g>
</g>
<!-- Node3&#45;&gt;Node4 -->
<g id="edge4" class="edge">
<title>Node3&#45;&gt;Node4</title>
<path fill="none" stroke="midnightblue" d="M112.41,-230.46C126.34,-220.77 144.55,-208.11 158.33,-198.53"/>
<polygon fill="midnightblue" stroke="midnightblue" points="110.18,-227.75 103.96,-236.33 114.17,-233.5 110.18,-227.75"/>
</g>
<!-- Node4&#45;&gt;Node2 -->
<g id="edge3" class="edge">
<title>Node4&#45;&gt;Node2</title>
<path fill="none" stroke="orange" stroke-dasharray="5,2" d="M159.1,-160.88C145.21,-145.4 126.64,-124.71 113.16,-109.68"/>
<polygon fill="orange" stroke="orange" points="156.61,-163.35 165.89,-168.45 161.82,-158.67 156.61,-163.35"/>
<text text-anchor="start" x="148.5" y="-142" font-family="Helvetica,sans-Serif" font-size="10.00"> &lt; T, detail::copy_tag,</text>
<text text-anchor="middle" x="209.5" y="-131" font-family="Helvetica,sans-Serif" font-size="10.00"> detail::assignable_tag &gt;</text>
</g>
</g>
</svg>
