<?xml version="1.0" encoding="UTF-8" standalone="no"?>
<!DOCTYPE svg PUBLIC "-//W3C//DTD SVG 1.1//EN"
 "http://www.w3.org/Graphics/SVG/1.1/DTD/svg11.dtd">
<!-- Generated by graphviz version 2.43.0 (0)
 -->
<!-- Title: dsp::Oscillator&lt; SampleType &gt; Pages: 1 -->
<svg width="533pt" height="116pt"
 viewBox="0.00 0.00 533.00 115.50" xmlns="http://www.w3.org/2000/svg" xmlns:xlink="http://www.w3.org/1999/xlink">
<g id="graph0" class="graph" transform="scale(1 1) rotate(0) translate(4 111.5)">
<title>dsp::Oscillator&lt; SampleType &gt;</title>
<!-- Node1 -->
<g id="node1" class="node">
<title>Node1</title>
<g id="a_node1"><a xlink:title="Base class for any kind of oscillator.">
<polygon fill="#bfbfbf" stroke="black" points="156,-50 156,-69 324,-69 324,-50 156,-50"/>
<text text-anchor="middle" x="240" y="-57" font-family="Helvetica,sans-Serif" font-size="10.00">dsp::Oscillator&lt; SampleType &gt;</text>
</a>
</g>
</g>
<!-- Node3 -->
<g id="node3" class="node">
<title>Node3</title>
<g id="a_node3"><a xlink:href="structdsp_1_1osc_1_1_saw.html" target="_top" xlink:title=" ">
<polygon fill="none" stroke="black" points="360.5,-88 360.5,-107 524.5,-107 524.5,-88 360.5,-88"/>
<text text-anchor="middle" x="442.5" y="-95" font-family="Helvetica,sans-Serif" font-size="10.00">dsp::osc::Saw&lt; SampleType &gt;</text>
</a>
</g>
</g>
<!-- Node1&#45;&gt;Node3 -->
<g id="edge2" class="edge">
<title>Node1&#45;&gt;Node3</title>
<path fill="none" stroke="midnightblue" d="M301.25,-70.92C329.93,-76.36 363.85,-82.78 391.14,-87.96"/>
<polygon fill="midnightblue" stroke="midnightblue" points="301.81,-67.46 291.34,-69.04 300.51,-74.34 301.81,-67.46"/>
</g>
<!-- Node4 -->
<g id="node4" class="node">
<title>Node4</title>
<g id="a_node4"><a xlink:href="structdsp_1_1osc_1_1_sine.html" target="_top" xlink:title=" ">
<polygon fill="none" stroke="black" points="360,-50 360,-69 525,-69 525,-50 360,-50"/>
<text text-anchor="middle" x="442.5" y="-57" font-family="Helvetica,sans-Serif" font-size="10.00">dsp::osc::Sine&lt; SampleType &gt;</text>
</a>
</g>
</g>
<!-- Node1&#45;&gt;Node4 -->
<g id="edge3" class="edge">
<title>Node1&#45;&gt;Node4</title>
<path fill="none" stroke="midnightblue" d="M334.52,-59.5C342.95,-59.5 351.44,-59.5 359.76,-59.5"/>
<polygon fill="midnightblue" stroke="midnightblue" points="334.29,-56 324.29,-59.5 334.29,-63 334.29,-56"/>
</g>
<!-- Node5 -->
<g id="node5" class="node">
<title>Node5</title>
<g id="a_node5"><a xlink:href="structdsp_1_1osc_1_1_square.html" target="_top" xlink:title=" ">
<polygon fill="none" stroke="black" points="370.5,-0.5 370.5,-30.5 514.5,-30.5 514.5,-0.5 370.5,-0.5"/>
<text text-anchor="start" x="378.5" y="-18.5" font-family="Helvetica,sans-Serif" font-size="10.00">dsp::osc::Square&lt; Sample</text>
<text text-anchor="middle" x="442.5" y="-7.5" font-family="Helvetica,sans-Serif" font-size="10.00">Type &gt;</text>
</a>
</g>
</g>
<!-- Node1&#45;&gt;Node5 -->
<g id="edge4" class="edge">
<title>Node1&#45;&gt;Node5</title>
<path fill="none" stroke="midnightblue" d="M294.51,-47.76C318.56,-42.48 347.24,-36.19 372.85,-30.57"/>
<polygon fill="midnightblue" stroke="midnightblue" points="293.52,-44.39 284.51,-49.95 295.02,-51.23 293.52,-44.39"/>
</g>
<!-- Node2 -->
<g id="node2" class="node">
<title>Node2</title>
<g id="a_node2"><a xlink:href="structdsp_1_1_sample_stream.html" target="_top" xlink:title="Base class for any object that can output a stream of audio samples, with no audio or MIDI input.">
<polygon fill="none" stroke="black" points="0,-44.5 0,-74.5 120,-74.5 120,-44.5 0,-44.5"/>
<text text-anchor="start" x="8" y="-62.5" font-family="Helvetica,sans-Serif" font-size="10.00">dsp::SampleStream&lt;</text>
<text text-anchor="middle" x="60" y="-51.5" font-family="Helvetica,sans-Serif" font-size="10.00"> SampleType &gt;</text>
</a>
</g>
</g>
<!-- Node2&#45;&gt;Node1 -->
<g id="edge1" class="edge">
<title>Node2&#45;&gt;Node1</title>
<path fill="none" stroke="midnightblue" d="M130.35,-59.5C138.72,-59.5 147.34,-59.5 155.89,-59.5"/>
<polygon fill="midnightblue" stroke="midnightblue" points="130.27,-56 120.27,-59.5 130.27,-63 130.27,-56"/>
</g>
</g>
</svg>
