<?xml version="1.0" encoding="UTF-8" standalone="no"?>
<!DOCTYPE svg PUBLIC "-//W3C//DTD SVG 1.1//EN"
 "http://www.w3.org/Graphics/SVG/1.1/DTD/svg11.dtd">
<!-- Generated by graphviz version 2.43.0 (0)
 -->
<!-- Title: time.h Pages: 1 -->
<svg width="1539pt" height="319pt"
 viewBox="0.00 0.00 1539.00 319.00" xmlns="http://www.w3.org/2000/svg" xmlns:xlink="http://www.w3.org/1999/xlink">
<g id="graph0" class="graph" transform="scale(1 1) rotate(0) translate(4 315)">
<title>time.h</title>
<!-- Node1 -->
<g id="node1" class="node">
<title>Node1</title>
<g id="a_node1"><a xlink:title=" ">
<polygon fill="#bfbfbf" stroke="black" points="896,-291.5 896,-310.5 944,-310.5 944,-291.5 896,-291.5"/>
<text text-anchor="middle" x="920" y="-298.5" font-family="Helvetica,sans-Serif" font-size="10.00">time.h</text>
</a>
</g>
</g>
<!-- Node2 -->
<g id="node2" class="node">
<title>Node2</title>
<g id="a_node2"><a xlink:title=" ">
<polygon fill="none" stroke="#bfbfbf" points="533.5,-0.5 533.5,-19.5 622.5,-19.5 622.5,-0.5 533.5,-0.5"/>
<text text-anchor="middle" x="578" y="-7.5" font-family="Helvetica,sans-Serif" font-size="10.00">limes_export.h</text>
</a>
</g>
</g>
<!-- Node1&#45;&gt;Node2 -->
<g id="edge1" class="edge">
<title>Node1&#45;&gt;Node2</title>
<path fill="none" stroke="midnightblue" d="M895.65,-299.46C757.27,-296.05 76,-274.97 76,-190 76,-190 76,-190 76,-126.5 76,-35.51 393.18,-16.2 523.3,-12.1"/>
<polygon fill="midnightblue" stroke="midnightblue" points="523.56,-15.59 533.45,-11.8 523.35,-8.6 523.56,-15.59"/>
</g>
<!-- Node3 -->
<g id="node3" class="node">
<title>Node3</title>
<g id="a_node3"><a xlink:href="limes__namespace_8h.html" target="_top" xlink:title=" ">
<polygon fill="none" stroke="black" points="133,-0.5 133,-19.5 247,-19.5 247,-0.5 133,-0.5"/>
<text text-anchor="middle" x="190" y="-7.5" font-family="Helvetica,sans-Serif" font-size="10.00">limes_namespace.h</text>
</a>
</g>
</g>
<!-- Node1&#45;&gt;Node3 -->
<g id="edge2" class="edge">
<title>Node1&#45;&gt;Node3</title>
<path fill="none" stroke="midnightblue" d="M895.65,-299.62C782.21,-297.71 305.03,-287.81 160,-255 85.14,-238.06 0,-266.76 0,-190 0,-190 0,-190 0,-126.5 0,-65.23 73.04,-35.54 128.54,-21.82"/>
<polygon fill="midnightblue" stroke="midnightblue" points="129.4,-25.21 138.33,-19.52 127.8,-18.4 129.4,-25.21"/>
</g>
<!-- Node4 -->
<g id="node4" class="node">
<title>Node4</title>
<g id="a_node4"><a xlink:href="preprocessor_8h.html" target="_top" xlink:title=" ">
<polygon fill="none" stroke="black" points="794.5,-56.5 794.5,-75.5 917.5,-75.5 917.5,-56.5 794.5,-56.5"/>
<text text-anchor="middle" x="856" y="-63.5" font-family="Helvetica,sans-Serif" font-size="10.00">../misc/preprocessor.h</text>
</a>
</g>
</g>
<!-- Node1&#45;&gt;Node4 -->
<g id="edge3" class="edge">
<title>Node1&#45;&gt;Node4</title>
<path fill="none" stroke="midnightblue" d="M944.07,-292.55C1015.6,-269.24 1217.6,-194.36 1147,-112 1119.3,-79.68 1004.5,-70.37 927.65,-67.81"/>
<polygon fill="midnightblue" stroke="midnightblue" points="927.63,-64.3 917.53,-67.5 927.42,-71.3 927.63,-64.3"/>
</g>
<!-- Node6 -->
<g id="node6" class="node">
<title>Node6</title>
<g id="a_node6"><a xlink:href="hour_8h.html" target="_top" xlink:title=" ">
<polygon fill="none" stroke="black" points="839.5,-235.5 839.5,-254.5 886.5,-254.5 886.5,-235.5 839.5,-235.5"/>
<text text-anchor="middle" x="863" y="-242.5" font-family="Helvetica,sans-Serif" font-size="10.00">hour.h</text>
</a>
</g>
</g>
<!-- Node1&#45;&gt;Node6 -->
<g id="edge5" class="edge">
<title>Node1&#45;&gt;Node6</title>
<path fill="none" stroke="midnightblue" d="M910.84,-291.32C902.5,-283.42 889.97,-271.55 879.82,-261.94"/>
<polygon fill="midnightblue" stroke="midnightblue" points="881.99,-259.17 872.32,-254.83 877.18,-264.25 881.99,-259.17"/>
</g>
<!-- Node7 -->
<g id="node7" class="node">
<title>Node7</title>
<g id="a_node7"><a xlink:title=" ">
<polygon fill="none" stroke="#bfbfbf" points="910,-118 910,-137 954,-137 954,-118 910,-118"/>
<text text-anchor="middle" x="932" y="-125" font-family="Helvetica,sans-Serif" font-size="10.00">ctime</text>
</a>
</g>
</g>
<!-- Node1&#45;&gt;Node7 -->
<g id="edge28" class="edge">
<title>Node1&#45;&gt;Node7</title>
<path fill="none" stroke="midnightblue" d="M920.61,-291.26C922.47,-264.65 928.1,-184.21 930.68,-147.34"/>
<polygon fill="midnightblue" stroke="midnightblue" points="934.2,-147.24 931.4,-137.02 927.21,-146.75 934.2,-147.24"/>
</g>
<!-- Node16 -->
<g id="node16" class="node">
<title>Node16</title>
<g id="a_node16"><a xlink:title=" ">
<polygon fill="none" stroke="#bfbfbf" points="1487,-56.5 1487,-75.5 1531,-75.5 1531,-56.5 1487,-56.5"/>
<text text-anchor="middle" x="1509" y="-63.5" font-family="Helvetica,sans-Serif" font-size="10.00">string</text>
</a>
</g>
</g>
<!-- Node1&#45;&gt;Node16 -->
<g id="edge29" class="edge">
<title>Node1&#45;&gt;Node16</title>
<path fill="none" stroke="midnightblue" d="M944.04,-293.96C974.59,-286.07 1028.8,-271.3 1074,-255 1231.86,-198.07 1414.31,-112.51 1481.96,-80.09"/>
<polygon fill="midnightblue" stroke="midnightblue" points="1483.59,-83.18 1491.09,-75.7 1480.56,-76.88 1483.59,-83.18"/>
</g>
<!-- Node17 -->
<g id="node17" class="node">
<title>Node17</title>
<g id="a_node17"><a xlink:href="time__utils_8h.html" target="_top" xlink:title=" ">
<polygon fill="none" stroke="black" points="986,-179.5 986,-198.5 1060,-198.5 1060,-179.5 986,-179.5"/>
<text text-anchor="middle" x="1023" y="-186.5" font-family="Helvetica,sans-Serif" font-size="10.00">time_utils.h</text>
</a>
</g>
</g>
<!-- Node1&#45;&gt;Node17 -->
<g id="edge30" class="edge">
<title>Node1&#45;&gt;Node17</title>
<path fill="none" stroke="midnightblue" d="M931.31,-291.27C942.23,-282.6 958.99,-268.66 972,-255 986.47,-239.81 1001.05,-220.77 1010.9,-207.22"/>
<polygon fill="midnightblue" stroke="midnightblue" points="1013.92,-209.01 1016.89,-198.84 1008.23,-204.94 1013.92,-209.01"/>
</g>
<!-- Node23 -->
<g id="node23" class="node">
<title>Node23</title>
<g id="a_node23"><a xlink:href="time__impl_8h.html" target="_top" xlink:title=" ">
<polygon fill="none" stroke="black" points="104,-179.5 104,-198.5 204,-198.5 204,-179.5 104,-179.5"/>
<text text-anchor="middle" x="154" y="-186.5" font-family="Helvetica,sans-Serif" font-size="10.00">impl/time_impl.h</text>
</a>
</g>
</g>
<!-- Node1&#45;&gt;Node23 -->
<g id="edge45" class="edge">
<title>Node1&#45;&gt;Node23</title>
<path fill="none" stroke="midnightblue" d="M895.81,-296.53C790.67,-281.43 371.66,-221.26 214.21,-198.65"/>
<polygon fill="midnightblue" stroke="midnightblue" points="214.62,-195.17 204.23,-197.21 213.63,-202.1 214.62,-195.17"/>
</g>
<!-- Node5 -->
<g id="node5" class="node">
<title>Node5</title>
<g id="a_node5"><a xlink:title=" ">
<polygon fill="none" stroke="#bfbfbf" points="806,-0.5 806,-19.5 906,-19.5 906,-0.5 806,-0.5"/>
<text text-anchor="middle" x="856" y="-7.5" font-family="Helvetica,sans-Serif" font-size="10.00">limes_platform.h</text>
</a>
</g>
</g>
<!-- Node4&#45;&gt;Node5 -->
<g id="edge4" class="edge">
<title>Node4&#45;&gt;Node5</title>
<path fill="none" stroke="midnightblue" d="M856,-56.08C856,-49.01 856,-38.86 856,-29.99"/>
<polygon fill="midnightblue" stroke="midnightblue" points="859.5,-29.75 856,-19.75 852.5,-29.75 859.5,-29.75"/>
</g>
<!-- Node6&#45;&gt;Node2 -->
<g id="edge6" class="edge">
<title>Node6&#45;&gt;Node2</title>
<path fill="none" stroke="midnightblue" d="M864.43,-235.29C868.22,-213.59 879.71,-155.74 901,-112 913.01,-87.33 945.12,-76.61 927,-56 907.9,-34.28 726.03,-20.07 632.69,-14.14"/>
<polygon fill="midnightblue" stroke="midnightblue" points="632.78,-10.64 622.58,-13.51 632.35,-17.63 632.78,-10.64"/>
</g>
<!-- Node6&#45;&gt;Node3 -->
<g id="edge7" class="edge">
<title>Node6&#45;&gt;Node3</title>
<path fill="none" stroke="midnightblue" d="M839.45,-243.33C769.66,-241.03 558.02,-231.65 386,-199 297.83,-182.27 250.61,-210.96 192,-143 164.65,-111.28 175.33,-57.58 183.68,-29.45"/>
<polygon fill="midnightblue" stroke="midnightblue" points="187.08,-30.3 186.79,-19.71 180.41,-28.17 187.08,-30.3"/>
</g>
<!-- Node6&#45;&gt;Node4 -->
<g id="edge8" class="edge">
<title>Node6&#45;&gt;Node4</title>
<path fill="none" stroke="midnightblue" d="M862.66,-235.46C861.59,-208.43 858.26,-124.24 856.76,-86.11"/>
<polygon fill="midnightblue" stroke="midnightblue" points="860.24,-85.72 856.35,-75.87 853.25,-86 860.24,-85.72"/>
</g>
<!-- Node6&#45;&gt;Node7 -->
<g id="edge9" class="edge">
<title>Node6&#45;&gt;Node7</title>
<path fill="none" stroke="midnightblue" d="M870.01,-235.33C877.01,-226.47 887.87,-212.2 896,-199 906.56,-181.87 916.82,-161.26 923.67,-146.77"/>
<polygon fill="midnightblue" stroke="midnightblue" points="926.97,-147.97 928.01,-137.43 920.62,-145.02 926.97,-147.97"/>
</g>
<!-- Node8 -->
<g id="node8" class="node">
<title>Node8</title>
<g id="a_node8"><a xlink:href="hour__impl_8h.html" target="_top" xlink:title=" ">
<polygon fill="none" stroke="black" points="394.5,-179.5 394.5,-198.5 493.5,-198.5 493.5,-179.5 394.5,-179.5"/>
<text text-anchor="middle" x="444" y="-186.5" font-family="Helvetica,sans-Serif" font-size="10.00">impl/hour_impl.h</text>
</a>
</g>
</g>
<!-- Node6&#45;&gt;Node8 -->
<g id="edge10" class="edge">
<title>Node6&#45;&gt;Node8</title>
<path fill="none" stroke="midnightblue" d="M839.27,-240.94C775.28,-232.69 597.66,-209.8 503.84,-197.71"/>
<polygon fill="midnightblue" stroke="midnightblue" points="504.02,-194.21 493.65,-196.4 503.12,-201.15 504.02,-194.21"/>
</g>
<!-- Node8&#45;&gt;Node3 -->
<g id="edge11" class="edge">
<title>Node8&#45;&gt;Node3</title>
<path fill="none" stroke="midnightblue" d="M394.47,-184.69C334.61,-179.63 238.8,-167.83 214,-143 183.91,-112.87 184.56,-58.46 187.39,-29.81"/>
<polygon fill="midnightblue" stroke="midnightblue" points="190.9,-29.91 188.6,-19.57 183.95,-29.08 190.9,-29.91"/>
</g>
<!-- Node9 -->
<g id="node9" class="node">
<title>Node9</title>
<g id="a_node9"><a xlink:href="limes__assert_8h.html" target="_top" xlink:title=" ">
<polygon fill="none" stroke="black" points="558.5,-112.5 558.5,-142.5 659.5,-142.5 659.5,-112.5 558.5,-112.5"/>
<text text-anchor="start" x="566.5" y="-130.5" font-family="Helvetica,sans-Serif" font-size="10.00">../../system/limes</text>
<text text-anchor="middle" x="609" y="-119.5" font-family="Helvetica,sans-Serif" font-size="10.00">_assert.h</text>
</a>
</g>
</g>
<!-- Node8&#45;&gt;Node9 -->
<g id="edge12" class="edge">
<title>Node8&#45;&gt;Node9</title>
<path fill="none" stroke="midnightblue" d="M467.64,-179.48C491.76,-170.78 529.89,-157.03 560.48,-146"/>
<polygon fill="midnightblue" stroke="midnightblue" points="561.89,-149.21 570.11,-142.52 559.52,-142.62 561.89,-149.21"/>
</g>
<!-- Node15 -->
<g id="node15" class="node">
<title>Node15</title>
<g id="a_node15"><a xlink:href="build__date_8h.html" target="_top" xlink:title=" ">
<polygon fill="none" stroke="black" points="223,-118 223,-137 309,-137 309,-118 223,-118"/>
<text text-anchor="middle" x="266" y="-125" font-family="Helvetica,sans-Serif" font-size="10.00">../build_date.h</text>
</a>
</g>
</g>
<!-- Node8&#45;&gt;Node15 -->
<g id="edge24" class="edge">
<title>Node8&#45;&gt;Node15</title>
<path fill="none" stroke="midnightblue" d="M418.5,-179.48C387.7,-169.18 335.73,-151.81 301.15,-140.25"/>
<polygon fill="midnightblue" stroke="midnightblue" points="302.05,-136.86 291.46,-137.01 299.83,-143.5 302.05,-136.86"/>
</g>
<!-- Node9&#45;&gt;Node2 -->
<g id="edge13" class="edge">
<title>Node9&#45;&gt;Node2</title>
<path fill="none" stroke="midnightblue" d="M605.2,-112.34C599.61,-91.53 589.18,-52.66 582.99,-29.58"/>
<polygon fill="midnightblue" stroke="midnightblue" points="586.3,-28.42 580.33,-19.67 579.54,-30.23 586.3,-28.42"/>
</g>
<!-- Node9&#45;&gt;Node3 -->
<g id="edge14" class="edge">
<title>Node9&#45;&gt;Node3</title>
<path fill="none" stroke="midnightblue" d="M558.35,-125.48C493,-122.65 376.82,-112.39 285,-76 255.14,-64.17 225.34,-41.58 207.28,-26.4"/>
<polygon fill="midnightblue" stroke="midnightblue" points="209.27,-23.49 199.41,-19.62 204.71,-28.8 209.27,-23.49"/>
</g>
<!-- Node9&#45;&gt;Node4 -->
<g id="edge15" class="edge">
<title>Node9&#45;&gt;Node4</title>
<path fill="none" stroke="midnightblue" d="M659.58,-114.32C704.01,-103.61 768.04,-88.19 810.79,-77.89"/>
<polygon fill="midnightblue" stroke="midnightblue" points="811.74,-81.26 820.64,-75.52 810.1,-74.46 811.74,-81.26"/>
</g>
<!-- Node9&#45;&gt;Node5 -->
<g id="edge22" class="edge">
<title>Node9&#45;&gt;Node5</title>
<path fill="none" stroke="midnightblue" d="M653.99,-112.41C681.39,-103.25 716.82,-90.36 747,-76 778.86,-60.84 813.51,-39.21 834.99,-25.14"/>
<polygon fill="midnightblue" stroke="midnightblue" points="836.94,-28.05 843.35,-19.61 833.07,-22.21 836.94,-28.05"/>
</g>
<!-- Node10 -->
<g id="node10" class="node">
<title>Node10</title>
<g id="a_node10"><a xlink:title=" ">
<polygon fill="none" stroke="#bfbfbf" points="1050.5,-56.5 1050.5,-75.5 1119.5,-75.5 1119.5,-56.5 1050.5,-56.5"/>
<text text-anchor="middle" x="1085" y="-63.5" font-family="Helvetica,sans-Serif" font-size="10.00">type_traits</text>
</a>
</g>
</g>
<!-- Node9&#45;&gt;Node10 -->
<g id="edge16" class="edge">
<title>Node9&#45;&gt;Node10</title>
<path fill="none" stroke="midnightblue" d="M659.94,-120.13C753.6,-108.42 951.69,-83.66 1040.4,-72.58"/>
<polygon fill="midnightblue" stroke="midnightblue" points="1040.92,-76.04 1050.41,-71.32 1040.05,-69.09 1040.92,-76.04"/>
</g>
<!-- Node11 -->
<g id="node11" class="node">
<title>Node11</title>
<g id="a_node11"><a xlink:title=" ">
<polygon fill="none" stroke="#bfbfbf" points="692.5,-56.5 692.5,-75.5 737.5,-75.5 737.5,-56.5 692.5,-56.5"/>
<text text-anchor="middle" x="715" y="-63.5" font-family="Helvetica,sans-Serif" font-size="10.00">utility</text>
</a>
</g>
</g>
<!-- Node9&#45;&gt;Node11 -->
<g id="edge17" class="edge">
<title>Node9&#45;&gt;Node11</title>
<path fill="none" stroke="midnightblue" d="M634.12,-112.4C651.27,-102.77 673.86,-90.09 690.81,-80.58"/>
<polygon fill="midnightblue" stroke="midnightblue" points="692.57,-83.6 699.58,-75.66 689.14,-77.5 692.57,-83.6"/>
</g>
<!-- Node12 -->
<g id="node12" class="node">
<title>Node12</title>
<g id="a_node12"><a xlink:title=" ">
<polygon fill="none" stroke="#bfbfbf" points="294.5,-56.5 294.5,-75.5 403.5,-75.5 403.5,-56.5 294.5,-56.5"/>
<text text-anchor="middle" x="349" y="-63.5" font-family="Helvetica,sans-Serif" font-size="10.00">limes_build_type.h</text>
</a>
</g>
</g>
<!-- Node9&#45;&gt;Node12 -->
<g id="edge18" class="edge">
<title>Node9&#45;&gt;Node12</title>
<path fill="none" stroke="midnightblue" d="M558.25,-114.89C511.26,-104.13 441.94,-88.27 396.14,-77.79"/>
<polygon fill="midnightblue" stroke="midnightblue" points="396.7,-74.33 386.17,-75.51 395.14,-81.15 396.7,-74.33"/>
</g>
<!-- Node13 -->
<g id="node13" class="node">
<title>Node13</title>
<g id="a_node13"><a xlink:href="_ignore_unused_8h.html" target="_top" xlink:title=" ">
<polygon fill="none" stroke="black" points="422,-56.5 422,-75.5 550,-75.5 550,-56.5 422,-56.5"/>
<text text-anchor="middle" x="486" y="-63.5" font-family="Helvetica,sans-Serif" font-size="10.00">../misc/IgnoreUnused.h</text>
</a>
</g>
</g>
<!-- Node9&#45;&gt;Node13 -->
<g id="edge19" class="edge">
<title>Node9&#45;&gt;Node13</title>
<path fill="none" stroke="midnightblue" d="M579.85,-112.4C559.58,-102.59 532.76,-89.62 512.98,-80.05"/>
<polygon fill="midnightblue" stroke="midnightblue" points="514.42,-76.86 503.9,-75.66 511.38,-83.16 514.42,-76.86"/>
</g>
<!-- Node14 -->
<g id="node14" class="node">
<title>Node14</title>
<g id="a_node14"><a xlink:title=" ">
<polygon fill="none" stroke="#bfbfbf" points="606,-56.5 606,-75.5 674,-75.5 674,-56.5 606,-56.5"/>
<text text-anchor="middle" x="640" y="-63.5" font-family="Helvetica,sans-Serif" font-size="10.00">filesystem</text>
</a>
</g>
</g>
<!-- Node9&#45;&gt;Node14 -->
<g id="edge23" class="edge">
<title>Node9&#45;&gt;Node14</title>
<path fill="none" stroke="midnightblue" d="M616.35,-112.4C620.67,-104.11 626.17,-93.55 630.77,-84.71"/>
<polygon fill="midnightblue" stroke="midnightblue" points="633.97,-86.14 635.49,-75.66 627.76,-82.91 633.97,-86.14"/>
</g>
<!-- Node13&#45;&gt;Node2 -->
<g id="edge20" class="edge">
<title>Node13&#45;&gt;Node2</title>
<path fill="none" stroke="midnightblue" d="M500.78,-56.32C515.27,-47.82 537.57,-34.73 554.49,-24.8"/>
<polygon fill="midnightblue" stroke="midnightblue" points="556.4,-27.74 563.26,-19.65 552.86,-21.7 556.4,-27.74"/>
</g>
<!-- Node13&#45;&gt;Node3 -->
<g id="edge21" class="edge">
<title>Node13&#45;&gt;Node3</title>
<path fill="none" stroke="midnightblue" d="M439.1,-56.44C386.92,-46.92 302.63,-31.55 246.77,-21.36"/>
<polygon fill="midnightblue" stroke="midnightblue" points="247.15,-17.87 236.68,-19.52 245.89,-24.75 247.15,-17.87"/>
</g>
<!-- Node15&#45;&gt;Node2 -->
<g id="edge25" class="edge">
<title>Node15&#45;&gt;Node2</title>
<path fill="none" stroke="midnightblue" d="M265.55,-117.58C265.32,-102.46 267.24,-71.89 285,-56 319.25,-25.35 448.32,-15.57 523.24,-12.45"/>
<polygon fill="midnightblue" stroke="midnightblue" points="523.58,-15.94 533.43,-12.05 523.3,-8.94 523.58,-15.94"/>
</g>
<!-- Node15&#45;&gt;Node3 -->
<g id="edge26" class="edge">
<title>Node15&#45;&gt;Node3</title>
<path fill="none" stroke="midnightblue" d="M254.61,-117.99C242.99,-108.77 225.12,-93.09 214,-76 204.67,-61.66 198.3,-43.2 194.48,-29.62"/>
<polygon fill="midnightblue" stroke="midnightblue" points="197.77,-28.35 191.86,-19.55 190.99,-30.11 197.77,-28.35"/>
</g>
<!-- Node15&#45;&gt;Node4 -->
<g id="edge27" class="edge">
<title>Node15&#45;&gt;Node4</title>
<path fill="none" stroke="midnightblue" d="M309.38,-122.12C410.07,-111.97 660.46,-86.72 784.3,-74.23"/>
<polygon fill="midnightblue" stroke="midnightblue" points="784.84,-77.69 794.44,-73.21 784.14,-70.73 784.84,-77.69"/>
</g>
<!-- Node17&#45;&gt;Node2 -->
<g id="edge31" class="edge">
<title>Node17&#45;&gt;Node2</title>
<path fill="none" stroke="midnightblue" d="M1024.45,-179.29C1027.87,-155.48 1033.66,-88.9 998,-56 971.63,-31.67 740.16,-18.24 632.56,-13.27"/>
<polygon fill="midnightblue" stroke="midnightblue" points="632.69,-9.77 622.55,-12.81 632.38,-16.76 632.69,-9.77"/>
</g>
<!-- Node17&#45;&gt;Node3 -->
<g id="edge32" class="edge">
<title>Node17&#45;&gt;Node3</title>
<path fill="none" stroke="midnightblue" d="M1019.73,-179.16C1010.05,-154.43 978.93,-84.47 927,-56 897.91,-40.05 433.99,-20.47 257.47,-13.56"/>
<polygon fill="midnightblue" stroke="midnightblue" points="257.39,-10.06 247.26,-13.16 257.12,-17.05 257.39,-10.06"/>
</g>
<!-- Node17&#45;&gt;Node7 -->
<g id="edge34" class="edge">
<title>Node17&#45;&gt;Node7</title>
<path fill="none" stroke="midnightblue" d="M1009.96,-179.48C995.23,-169.84 971.03,-154.02 953.49,-142.55"/>
<polygon fill="midnightblue" stroke="midnightblue" points="955.3,-139.55 945.01,-137.01 951.47,-145.41 955.3,-139.55"/>
</g>
<!-- Node17&#45;&gt;Node10 -->
<g id="edge35" class="edge">
<title>Node17&#45;&gt;Node10</title>
<path fill="none" stroke="midnightblue" d="M1027.46,-179.3C1037.56,-159.59 1062.35,-111.21 1075.86,-84.84"/>
<polygon fill="midnightblue" stroke="midnightblue" points="1079.14,-86.12 1080.58,-75.62 1072.91,-82.93 1079.14,-86.12"/>
</g>
<!-- Node18 -->
<g id="node18" class="node">
<title>Node18</title>
<g id="a_node18"><a xlink:title=" ">
<polygon fill="none" stroke="#bfbfbf" points="1088,-118 1088,-137 1138,-137 1138,-118 1088,-118"/>
<text text-anchor="middle" x="1113" y="-125" font-family="Helvetica,sans-Serif" font-size="10.00">chrono</text>
</a>
</g>
</g>
<!-- Node17&#45;&gt;Node18 -->
<g id="edge33" class="edge">
<title>Node17&#45;&gt;Node18</title>
<path fill="none" stroke="midnightblue" d="M1035.89,-179.48C1050.46,-169.84 1074.4,-154.02 1091.75,-142.55"/>
<polygon fill="midnightblue" stroke="midnightblue" points="1093.72,-145.44 1100.13,-137.01 1089.86,-139.6 1093.72,-145.44"/>
</g>
<!-- Node19 -->
<g id="node19" class="node">
<title>Node19</title>
<g id="a_node19"><a xlink:href="_type_traits_8h.html" target="_top" xlink:title=" ">
<polygon fill="none" stroke="black" points="1194,-118 1194,-137 1306,-137 1306,-118 1194,-118"/>
<text text-anchor="middle" x="1250" y="-125" font-family="Helvetica,sans-Serif" font-size="10.00">../meta/TypeTraits.h</text>
</a>
</g>
</g>
<!-- Node17&#45;&gt;Node19 -->
<g id="edge36" class="edge">
<title>Node17&#45;&gt;Node19</title>
<path fill="none" stroke="midnightblue" d="M1055.52,-179.48C1095.56,-168.98 1163.64,-151.14 1207.7,-139.59"/>
<polygon fill="midnightblue" stroke="midnightblue" points="1208.75,-142.93 1217.54,-137.01 1206.98,-136.16 1208.75,-142.93"/>
</g>
<!-- Node19&#45;&gt;Node2 -->
<g id="edge40" class="edge">
<title>Node19&#45;&gt;Node2</title>
<path fill="none" stroke="midnightblue" d="M1242.59,-117.83C1228.65,-102.22 1196.78,-69.74 1162,-56 1113.55,-36.86 768.49,-19.53 632.7,-13.37"/>
<polygon fill="midnightblue" stroke="midnightblue" points="632.67,-9.87 622.53,-12.92 632.36,-16.86 632.67,-9.87"/>
</g>
<!-- Node19&#45;&gt;Node3 -->
<g id="edge42" class="edge">
<title>Node19&#45;&gt;Node3</title>
<path fill="none" stroke="midnightblue" d="M1234.67,-117.85C1217.07,-107.88 1187.34,-90.95 1162,-76 1147.23,-67.29 1145.4,-61.01 1129,-56 1087.46,-43.31 465.54,-20.6 257.34,-13.32"/>
<polygon fill="midnightblue" stroke="midnightblue" points="257.27,-9.81 247.15,-12.96 257.02,-16.81 257.27,-9.81"/>
</g>
<!-- Node19&#45;&gt;Node5 -->
<g id="edge41" class="edge">
<title>Node19&#45;&gt;Node5</title>
<path fill="none" stroke="midnightblue" d="M1246.61,-117.79C1240.14,-102.42 1224.42,-70.71 1200,-56 1153.52,-28.01 1002.06,-17.13 916.42,-13.14"/>
<polygon fill="midnightblue" stroke="midnightblue" points="916.46,-9.64 906.32,-12.68 916.15,-16.63 916.46,-9.64"/>
</g>
<!-- Node19&#45;&gt;Node10 -->
<g id="edge37" class="edge">
<title>Node19&#45;&gt;Node10</title>
<path fill="none" stroke="midnightblue" d="M1226.36,-117.98C1198.06,-107.77 1150.47,-90.61 1118.41,-79.05"/>
<polygon fill="midnightblue" stroke="midnightblue" points="1119.19,-75.61 1108.6,-75.51 1116.82,-82.19 1119.19,-75.61"/>
</g>
<!-- Node19&#45;&gt;Node16 -->
<g id="edge39" class="edge">
<title>Node19&#45;&gt;Node16</title>
<path fill="none" stroke="midnightblue" d="M1292.64,-117.92C1336.52,-108.89 1407.08,-93.84 1476.86,-76.17"/>
<polygon fill="midnightblue" stroke="midnightblue" points="1477.87,-79.53 1486.7,-73.66 1476.14,-72.74 1477.87,-79.53"/>
</g>
<!-- Node20 -->
<g id="node20" class="node">
<title>Node20</title>
<g id="a_node20"><a xlink:title=" ">
<polygon fill="none" stroke="#bfbfbf" points="1252.5,-56.5 1252.5,-75.5 1309.5,-75.5 1309.5,-56.5 1252.5,-56.5"/>
<text text-anchor="middle" x="1281" y="-63.5" font-family="Helvetica,sans-Serif" font-size="10.00">typeinfo</text>
</a>
</g>
</g>
<!-- Node19&#45;&gt;Node20 -->
<g id="edge38" class="edge">
<title>Node19&#45;&gt;Node20</title>
<path fill="none" stroke="midnightblue" d="M1254.44,-117.98C1258.95,-109.32 1266.07,-95.65 1271.81,-84.65"/>
<polygon fill="midnightblue" stroke="midnightblue" points="1275.05,-85.99 1276.57,-75.51 1268.84,-82.76 1275.05,-85.99"/>
</g>
<!-- Node21 -->
<g id="node21" class="node">
<title>Node21</title>
<g id="a_node21"><a xlink:title=" ">
<polygon fill="none" stroke="#bfbfbf" points="1327.5,-56.5 1327.5,-75.5 1392.5,-75.5 1392.5,-56.5 1327.5,-56.5"/>
<text text-anchor="middle" x="1360" y="-63.5" font-family="Helvetica,sans-Serif" font-size="10.00">exception</text>
</a>
</g>
</g>
<!-- Node19&#45;&gt;Node21 -->
<g id="edge43" class="edge">
<title>Node19&#45;&gt;Node21</title>
<path fill="none" stroke="midnightblue" d="M1265.76,-117.98C1283.98,-108.12 1314.17,-91.79 1335.47,-80.27"/>
<polygon fill="midnightblue" stroke="midnightblue" points="1337.14,-83.35 1344.27,-75.51 1333.81,-77.19 1337.14,-83.35"/>
</g>
<!-- Node22 -->
<g id="node22" class="node">
<title>Node22</title>
<g id="a_node22"><a xlink:title=" ">
<polygon fill="none" stroke="#bfbfbf" points="1411,-56.5 1411,-75.5 1469,-75.5 1469,-56.5 1411,-56.5"/>
<text text-anchor="middle" x="1440" y="-63.5" font-family="Helvetica,sans-Serif" font-size="10.00">cxxabi.h</text>
</a>
</g>
</g>
<!-- Node19&#45;&gt;Node22 -->
<g id="edge44" class="edge">
<title>Node19&#45;&gt;Node22</title>
<path fill="none" stroke="midnightblue" d="M1277.22,-117.98C1310.24,-107.64 1366.04,-90.16 1402.95,-78.6"/>
<polygon fill="midnightblue" stroke="midnightblue" points="1404.33,-81.84 1412.83,-75.51 1402.24,-75.16 1404.33,-81.84"/>
</g>
<!-- Node23&#45;&gt;Node3 -->
<g id="edge46" class="edge">
<title>Node23&#45;&gt;Node3</title>
<path fill="none" stroke="midnightblue" d="M137.37,-179.46C124.51,-171.84 107.66,-159.36 100,-143 83.6,-107.98 79.67,-88.89 100,-56 109.67,-40.35 126.62,-29.96 143.22,-23.15"/>
<polygon fill="midnightblue" stroke="midnightblue" points="144.75,-26.32 152.9,-19.54 142.31,-19.76 144.75,-26.32"/>
</g>
<!-- Node23&#45;&gt;Node15 -->
<g id="edge47" class="edge">
<title>Node23&#45;&gt;Node15</title>
<path fill="none" stroke="midnightblue" d="M170.05,-179.48C188.59,-169.62 219.34,-153.29 241.02,-141.77"/>
<polygon fill="midnightblue" stroke="midnightblue" points="242.79,-144.79 249.98,-137.01 239.51,-138.61 242.79,-144.79"/>
</g>
</g>
</svg>
