<?xml version="1.0" encoding="UTF-8" standalone="no"?>
<!DOCTYPE svg PUBLIC "-//W3C//DTD SVG 1.1//EN"
 "http://www.w3.org/Graphics/SVG/1.1/DTD/svg11.dtd">
<!-- Generated by graphviz version 2.43.0 (0)
 -->
<!-- Title: time.h Pages: 1 -->
<!--zoomable 386 -->
<svg id="main" version="1.1" xmlns="http://www.w3.org/2000/svg" xmlns:xlink="http://www.w3.org/1999/xlink" xml:space="preserve" onload="init(evt)">
<style type="text/css"><![CDATA[
.edge:hover path { stroke: red; }
.edge:hover polygon { stroke: red; fill: red; }
]]></style>
<script type="text/javascript"><![CDATA[
var edges = document.getElementsByTagName('g');
if (edges && edges.length) {
  for (var i=0;i<edges.length;i++) {
    if (edges[i].id.substr(0,4)=='edge') {
      edges[i].setAttribute('class','edge');
    }
  }
}
]]></script>
        <defs>
                <circle id="rim" cx="0" cy="0" r="7"/>
                <circle id="rim2" cx="0" cy="0" r="3.5"/>
                <g id="zoomPlus">
                        <use xlink:href="#rim" fill="#404040">
                                <set attributeName="fill" to="#808080" begin="zoomplus.mouseover" end="zoomplus.mouseout"/>
                        </use>
                        <path d="M-4,0h8M0,-4v8" fill="none" stroke="white" stroke-width="1.5" pointer-events="none"/>
                </g>
                <g id="zoomMin">
                        <use xlink:href="#rim" fill="#404040">
                                <set attributeName="fill" to="#808080" begin="zoomminus.mouseover" end="zoomminus.mouseout"/>
                        </use>
                        <path d="M-4,0h8" fill="none" stroke="white" stroke-width="1.5" pointer-events="none"/>
                </g>
                <g id="dirArrow">
                        <path fill="none" stroke="white" stroke-width="1.5" d="M0,-3.0v7 M-2.5,-0.5L0,-3.0L2.5,-0.5"/>
                </g>
               <g id="resetDef">
                       <use xlink:href="#rim2" fill="#404040">
                               <set attributeName="fill" to="#808080" begin="reset.mouseover" end="reset.mouseout"/>
                       </use>
               </g>
        </defs>

<script type="text/javascript">
var viewWidth = 1441;
var viewHeight = 386;
var sectionId = 'dynsection-0';
</script>
<script xlink:href="svgpan.js"/>
<svg id="graph" class="graph">
<g id="viewport">
<title>time.h</title>
<!-- Node1 -->
<g id="node1" class="node">
<title>Node1</title>
<g id="a_node1"><a xlink:title=" ">
<polygon fill="#bfbfbf" stroke="black" points="848,-358.5 848,-377.5 896,-377.5 896,-358.5 848,-358.5"/>
<text text-anchor="middle" x="872" y="-365.5" font-family="Helvetica,sans-Serif" font-size="10.00">time.h</text>
</a>
</g>
</g>
<!-- Node2 -->
<g id="node2" class="node">
<title>Node2</title>
<g id="a_node2"><a xlink:title=" ">
<polygon fill="none" stroke="#bfbfbf" points="745.5,-56.5 745.5,-75.5 834.5,-75.5 834.5,-56.5 745.5,-56.5"/>
<text text-anchor="middle" x="790" y="-63.5" font-family="Helvetica,sans-Serif" font-size="10.00">limes_export.h</text>
</a>
</g>
</g>
<!-- Node1&#45;&gt;Node2 -->
<g id="edge1" class="edge">
<title>Node1&#45;&gt;Node2</title>
<path fill="none" stroke="midnightblue" d="M894.29,-358.5C928.99,-343.63 992,-309.43 992,-257 992,-257 992,-257 992,-193.5 992,-123.87 904.73,-91.13 844.91,-76.86"/>
<polygon fill="midnightblue" stroke="midnightblue" points="845.36,-73.37 834.83,-74.56 843.8,-80.19 845.36,-73.37"/>
</g>
<!-- Node3 -->
<g id="node3" class="node">
<title>Node3</title>
<g id="a_node3"><a xlink:href="limes__namespace_8h.html" target="_top" xlink:title=" ">
<polygon fill="none" stroke="black" points="247,-56.5 247,-75.5 361,-75.5 361,-56.5 247,-56.5"/>
<text text-anchor="middle" x="304" y="-63.5" font-family="Helvetica,sans-Serif" font-size="10.00">limes_namespace.h</text>
</a>
</g>
</g>
<!-- Node1&#45;&gt;Node3 -->
<g id="edge2" class="edge">
<title>Node1&#45;&gt;Node3</title>
<path fill="none" stroke="midnightblue" d="M847.67,-365.61C724.44,-358.33 173.07,-322.72 125,-266 94.44,-229.94 -4.71,-284.53 159,-112 179.2,-90.71 209.25,-79.43 236.77,-73.48"/>
<polygon fill="midnightblue" stroke="midnightblue" points="237.63,-76.87 246.77,-71.52 236.28,-70.01 237.63,-76.87"/>
</g>
<!-- Node4 -->
<g id="node4" class="node">
<title>Node4</title>
<g id="a_node4"><a xlink:href="preprocessor_8h.html" target="_top" xlink:title=" ">
<polygon fill="none" stroke="black" points="79.5,-56.5 79.5,-75.5 202.5,-75.5 202.5,-56.5 79.5,-56.5"/>
<text text-anchor="middle" x="141" y="-63.5" font-family="Helvetica,sans-Serif" font-size="10.00">../misc/preprocessor.h</text>
</a>
</g>
</g>
<!-- Node1&#45;&gt;Node4 -->
<g id="edge3" class="edge">
<title>Node1&#45;&gt;Node4</title>
<path fill="none" stroke="midnightblue" d="M847.77,-366.56C706.93,-363.69 0,-344.93 0,-257 0,-257 0,-257 0,-193.5 0,-135.68 66.5,-97.62 108.16,-79.44"/>
<polygon fill="midnightblue" stroke="midnightblue" points="109.54,-82.66 117.4,-75.56 106.82,-76.21 109.54,-82.66"/>
</g>
<!-- Node6 -->
<g id="node6" class="node">
<title>Node6</title>
<g id="a_node6"><a xlink:href="hour_8h.html" target="_top" xlink:title=" ">
<polygon fill="none" stroke="black" points="766.5,-302.5 766.5,-321.5 813.5,-321.5 813.5,-302.5 766.5,-302.5"/>
<text text-anchor="middle" x="790" y="-309.5" font-family="Helvetica,sans-Serif" font-size="10.00">hour.h</text>
</a>
</g>
</g>
<!-- Node1&#45;&gt;Node6 -->
<g id="edge5" class="edge">
<title>Node1&#45;&gt;Node6</title>
<path fill="none" stroke="midnightblue" d="M858.83,-358.32C846.15,-349.98 826.77,-337.21 811.79,-327.35"/>
<polygon fill="midnightblue" stroke="midnightblue" points="813.42,-324.23 803.14,-321.65 809.57,-330.08 813.42,-324.23"/>
</g>
<!-- Node7 -->
<g id="node7" class="node">
<title>Node7</title>
<g id="a_node7"><a xlink:href="compiler__defs_8h.html" target="_top" xlink:title=" ">
<polygon fill="none" stroke="black" points="818.5,-112.5 818.5,-142.5 925.5,-142.5 925.5,-112.5 818.5,-112.5"/>
<text text-anchor="start" x="826.5" y="-130.5" font-family="Helvetica,sans-Serif" font-size="10.00">../system/compiler</text>
<text text-anchor="middle" x="872" y="-119.5" font-family="Helvetica,sans-Serif" font-size="10.00">_defs.h</text>
</a>
</g>
</g>
<!-- Node1&#45;&gt;Node7 -->
<g id="edge32" class="edge">
<title>Node1&#45;&gt;Node7</title>
<path fill="none" stroke="midnightblue" d="M872,-358.23C872,-324.88 872,-205.19 872,-153.06"/>
<polygon fill="midnightblue" stroke="midnightblue" points="875.5,-152.74 872,-142.74 868.5,-152.74 875.5,-152.74"/>
</g>
<!-- Node8 -->
<g id="node8" class="node">
<title>Node8</title>
<g id="a_node8"><a xlink:title=" ">
<polygon fill="none" stroke="#bfbfbf" points="1332,-118 1332,-137 1376,-137 1376,-118 1332,-118"/>
<text text-anchor="middle" x="1354" y="-125" font-family="Helvetica,sans-Serif" font-size="10.00">ctime</text>
</a>
</g>
</g>
<!-- Node1&#45;&gt;Node8 -->
<g id="edge33" class="edge">
<title>Node1&#45;&gt;Node8</title>
<path fill="none" stroke="midnightblue" d="M896.23,-362.17C927.82,-355.4 984.44,-341.69 1030,-322 1152.3,-269.15 1284.73,-178.17 1334.04,-142.98"/>
<polygon fill="midnightblue" stroke="midnightblue" points="1336.17,-145.76 1342.26,-137.08 1332.09,-140.07 1336.17,-145.76"/>
</g>
<!-- Node16 -->
<g id="node16" class="node">
<title>Node16</title>
<g id="a_node16"><a xlink:title=" ">
<polygon fill="none" stroke="#bfbfbf" points="1389,-56.5 1389,-75.5 1433,-75.5 1433,-56.5 1389,-56.5"/>
<text text-anchor="middle" x="1411" y="-63.5" font-family="Helvetica,sans-Serif" font-size="10.00">string</text>
</a>
</g>
</g>
<!-- Node1&#45;&gt;Node16 -->
<g id="edge34" class="edge">
<title>Node1&#45;&gt;Node16</title>
<path fill="none" stroke="midnightblue" d="M896.07,-367.27C1000.37,-367.79 1408,-363.04 1408,-257 1408,-257 1408,-257 1408,-193.5 1408,-155.19 1409.39,-110.38 1410.28,-85.69"/>
<polygon fill="midnightblue" stroke="midnightblue" points="1413.78,-85.71 1410.66,-75.59 1406.79,-85.45 1413.78,-85.71"/>
</g>
<!-- Node17 -->
<g id="node17" class="node">
<title>Node17</title>
<g id="a_node17"><a xlink:href="time__utils_8h.html" target="_top" xlink:title=" ">
<polygon fill="none" stroke="black" points="1052,-185 1052,-204 1126,-204 1126,-185 1052,-185"/>
<text text-anchor="middle" x="1089" y="-192" font-family="Helvetica,sans-Serif" font-size="10.00">time_utils.h</text>
</a>
</g>
</g>
<!-- Node1&#45;&gt;Node17 -->
<g id="edge35" class="edge">
<title>Node1&#45;&gt;Node17</title>
<path fill="none" stroke="midnightblue" d="M896.02,-363.8C924.71,-358.96 972.97,-347.48 1006,-322 1043.82,-292.82 1069.79,-241.26 1081.66,-213.84"/>
<polygon fill="midnightblue" stroke="midnightblue" points="1085.02,-214.89 1085.64,-204.31 1078.56,-212.19 1085.02,-214.89"/>
</g>
<!-- Node23 -->
<g id="node23" class="node">
<title>Node23</title>
<g id="a_node23"><a xlink:href="time__impl_8h.html" target="_top" xlink:title=" ">
<polygon fill="none" stroke="black" points="134,-246.5 134,-265.5 234,-265.5 234,-246.5 134,-246.5"/>
<text text-anchor="middle" x="184" y="-253.5" font-family="Helvetica,sans-Serif" font-size="10.00">impl/time_impl.h</text>
</a>
</g>
</g>
<!-- Node1&#45;&gt;Node23 -->
<g id="edge51" class="edge">
<title>Node1&#45;&gt;Node23</title>
<path fill="none" stroke="midnightblue" d="M847.92,-363.15C751.18,-347.68 389.15,-289.8 244.38,-266.65"/>
<polygon fill="midnightblue" stroke="midnightblue" points="244.77,-263.17 234.34,-265.05 243.66,-270.08 244.77,-263.17"/>
</g>
<!-- Node5 -->
<g id="node5" class="node">
<title>Node5</title>
<g id="a_node5"><a xlink:title=" ">
<polygon fill="none" stroke="#bfbfbf" points="664,-0.5 664,-19.5 764,-19.5 764,-0.5 664,-0.5"/>
<text text-anchor="middle" x="714" y="-7.5" font-family="Helvetica,sans-Serif" font-size="10.00">limes_platform.h</text>
</a>
</g>
</g>
<!-- Node4&#45;&gt;Node5 -->
<g id="edge4" class="edge">
<title>Node4&#45;&gt;Node5</title>
<path fill="none" stroke="midnightblue" d="M202.59,-59.2C313.2,-48.77 544.13,-27.01 653.75,-16.68"/>
<polygon fill="midnightblue" stroke="midnightblue" points="654.35,-20.14 663.98,-15.71 653.69,-13.17 654.35,-20.14"/>
</g>
<!-- Node6&#45;&gt;Node2 -->
<g id="edge6" class="edge">
<title>Node6&#45;&gt;Node2</title>
<path fill="none" stroke="midnightblue" d="M790,-302.32C790,-267.18 790,-135.12 790,-85.76"/>
<polygon fill="midnightblue" stroke="midnightblue" points="793.5,-85.58 790,-75.58 786.5,-85.58 793.5,-85.58"/>
</g>
<!-- Node6&#45;&gt;Node3 -->
<g id="edge7" class="edge">
<title>Node6&#45;&gt;Node3</title>
<path fill="none" stroke="midnightblue" d="M766.46,-311.05C665.92,-310.69 274.61,-303.26 209,-210 176.45,-163.74 244.37,-107.47 281.69,-81.47"/>
<polygon fill="midnightblue" stroke="midnightblue" points="283.7,-84.33 290.01,-75.81 279.77,-78.54 283.7,-84.33"/>
</g>
<!-- Node6&#45;&gt;Node4 -->
<g id="edge8" class="edge">
<title>Node6&#45;&gt;Node4</title>
<path fill="none" stroke="midnightblue" d="M766.21,-311.26C652.67,-312.27 169.59,-313.71 125,-266 78.06,-215.77 113.46,-123.91 131.79,-85.09"/>
<polygon fill="midnightblue" stroke="midnightblue" points="135.17,-86.14 136.42,-75.62 128.88,-83.07 135.17,-86.14"/>
</g>
<!-- Node6&#45;&gt;Node7 -->
<g id="edge9" class="edge">
<title>Node6&#45;&gt;Node7</title>
<path fill="none" stroke="midnightblue" d="M793.96,-302.2C806.1,-275.16 843.15,-192.7 861.49,-151.89"/>
<polygon fill="midnightblue" stroke="midnightblue" points="864.72,-153.25 865.62,-142.69 858.33,-150.38 864.72,-153.25"/>
</g>
<!-- Node6&#45;&gt;Node8 -->
<g id="edge12" class="edge">
<title>Node6&#45;&gt;Node8</title>
<path fill="none" stroke="midnightblue" d="M813.57,-304.6C869.6,-289.29 1015.08,-248.89 1135,-210 1219.38,-182.64 1240.96,-176.72 1323,-143 1324.37,-142.44 1325.78,-141.84 1327.19,-141.23"/>
<polygon fill="midnightblue" stroke="midnightblue" points="1328.74,-144.37 1336.42,-137.07 1325.87,-137.99 1328.74,-144.37"/>
</g>
<!-- Node9 -->
<g id="node9" class="node">
<title>Node9</title>
<g id="a_node9"><a xlink:href="hour__impl_8h.html" target="_top" xlink:title=" ">
<polygon fill="none" stroke="black" points="373.5,-246.5 373.5,-265.5 472.5,-265.5 472.5,-246.5 373.5,-246.5"/>
<text text-anchor="middle" x="423" y="-253.5" font-family="Helvetica,sans-Serif" font-size="10.00">impl/hour_impl.h</text>
</a>
</g>
</g>
<!-- Node6&#45;&gt;Node9 -->
<g id="edge13" class="edge">
<title>Node6&#45;&gt;Node9</title>
<path fill="none" stroke="midnightblue" d="M766.48,-307.54C709.99,-299.23 565.21,-277.92 482.78,-265.8"/>
<polygon fill="midnightblue" stroke="midnightblue" points="483.2,-262.32 472.8,-264.33 482.18,-269.25 483.2,-262.32"/>
</g>
<!-- Node7&#45;&gt;Node4 -->
<g id="edge11" class="edge">
<title>Node7&#45;&gt;Node4</title>
<path fill="none" stroke="midnightblue" d="M818.17,-122.05C783.1,-119.16 736.34,-115.32 695,-112 491.91,-95.68 440.99,-93.41 238,-76 229.76,-75.29 221.14,-74.53 212.57,-73.75"/>
<polygon fill="midnightblue" stroke="midnightblue" points="212.84,-70.26 202.56,-72.84 212.21,-77.24 212.84,-70.26"/>
</g>
<!-- Node7&#45;&gt;Node5 -->
<g id="edge10" class="edge">
<title>Node7&#45;&gt;Node5</title>
<path fill="none" stroke="midnightblue" d="M869.96,-112.37C866.97,-96.57 859.9,-71.2 844,-56 824.96,-37.79 798.19,-26.92 773.89,-20.45"/>
<polygon fill="midnightblue" stroke="midnightblue" points="774.56,-17.01 764.02,-18.01 772.89,-23.8 774.56,-17.01"/>
</g>
<!-- Node9&#45;&gt;Node3 -->
<g id="edge14" class="edge">
<title>Node9&#45;&gt;Node3</title>
<path fill="none" stroke="midnightblue" d="M417.58,-246.43C399.3,-217.56 339.72,-123.44 314.96,-84.31"/>
<polygon fill="midnightblue" stroke="midnightblue" points="317.76,-82.19 309.45,-75.62 311.85,-85.94 317.76,-82.19"/>
</g>
<!-- Node10 -->
<g id="node10" class="node">
<title>Node10</title>
<g id="a_node10"><a xlink:href="limes__assert_8h.html" target="_top" xlink:title=" ">
<polygon fill="none" stroke="black" points="455.5,-179.5 455.5,-209.5 556.5,-209.5 556.5,-179.5 455.5,-179.5"/>
<text text-anchor="start" x="463.5" y="-197.5" font-family="Helvetica,sans-Serif" font-size="10.00">../../system/limes</text>
<text text-anchor="middle" x="506" y="-186.5" font-family="Helvetica,sans-Serif" font-size="10.00">_assert.h</text>
</a>
</g>
</g>
<!-- Node9&#45;&gt;Node10 -->
<g id="edge15" class="edge">
<title>Node9&#45;&gt;Node10</title>
<path fill="none" stroke="midnightblue" d="M434.89,-246.48C446.13,-238.42 463.42,-226.02 478.14,-215.47"/>
<polygon fill="midnightblue" stroke="midnightblue" points="480.35,-218.19 486.44,-209.52 476.27,-212.5 480.35,-218.19"/>
</g>
<!-- Node15 -->
<g id="node15" class="node">
<title>Node15</title>
<g id="a_node15"><a xlink:href="build__date_8h.html" target="_top" xlink:title=" ">
<polygon fill="none" stroke="black" points="218,-185 218,-204 304,-204 304,-185 218,-185"/>
<text text-anchor="middle" x="261" y="-192" font-family="Helvetica,sans-Serif" font-size="10.00">../build_date.h</text>
</a>
</g>
</g>
<!-- Node9&#45;&gt;Node15 -->
<g id="edge27" class="edge">
<title>Node9&#45;&gt;Node15</title>
<path fill="none" stroke="midnightblue" d="M399.79,-246.48C372,-236.27 325.28,-219.11 293.81,-207.55"/>
<polygon fill="midnightblue" stroke="midnightblue" points="294.76,-204.17 284.17,-204.01 292.35,-210.74 294.76,-204.17"/>
</g>
<!-- Node10&#45;&gt;Node2 -->
<g id="edge16" class="edge">
<title>Node10&#45;&gt;Node2</title>
<path fill="none" stroke="midnightblue" d="M556.72,-191.32C604.17,-187.21 675.43,-175.6 728,-143 751.44,-128.46 770.04,-101.89 780.54,-84.34"/>
<polygon fill="midnightblue" stroke="midnightblue" points="783.59,-86.06 785.52,-75.64 777.51,-82.58 783.59,-86.06"/>
</g>
<!-- Node10&#45;&gt;Node3 -->
<g id="edge17" class="edge">
<title>Node10&#45;&gt;Node3</title>
<path fill="none" stroke="midnightblue" d="M471.56,-179.45C450.31,-170.21 422.84,-157.23 400,-143 370.43,-124.58 339.37,-98.59 320.85,-82.28"/>
<polygon fill="midnightblue" stroke="midnightblue" points="323.07,-79.57 313.28,-75.53 318.41,-84.79 323.07,-79.57"/>
</g>
<!-- Node10&#45;&gt;Node4 -->
<g id="edge18" class="edge">
<title>Node10&#45;&gt;Node4</title>
<path fill="none" stroke="midnightblue" d="M463,-179.49C432.52,-169.49 390.68,-155.63 354,-143 290.08,-120.98 215.78,-94.2 173.98,-79.02"/>
<polygon fill="midnightblue" stroke="midnightblue" points="175.17,-75.73 164.58,-75.6 172.78,-82.31 175.17,-75.73"/>
</g>
<!-- Node10&#45;&gt;Node5 -->
<g id="edge25" class="edge">
<title>Node10&#45;&gt;Node5</title>
<path fill="none" stroke="midnightblue" d="M556.8,-186.32C606.33,-178.24 676.79,-163.5 695,-143 722.97,-111.51 720.78,-58.11 717.17,-29.85"/>
<polygon fill="midnightblue" stroke="midnightblue" points="720.6,-29.1 715.68,-19.72 713.68,-30.12 720.6,-29.1"/>
</g>
<!-- Node11 -->
<g id="node11" class="node">
<title>Node11</title>
<g id="a_node11"><a xlink:title=" ">
<polygon fill="none" stroke="#bfbfbf" points="1028.5,-56.5 1028.5,-75.5 1097.5,-75.5 1097.5,-56.5 1028.5,-56.5"/>
<text text-anchor="middle" x="1063" y="-63.5" font-family="Helvetica,sans-Serif" font-size="10.00">type_traits</text>
</a>
</g>
</g>
<!-- Node10&#45;&gt;Node11 -->
<g id="edge19" class="edge">
<title>Node10&#45;&gt;Node11</title>
<path fill="none" stroke="midnightblue" d="M556.7,-194.27C638.52,-194.04 803.77,-187.44 935,-143 976.89,-128.81 1019.98,-99.63 1043.94,-81.84"/>
<polygon fill="midnightblue" stroke="midnightblue" points="1046.28,-84.46 1052.14,-75.64 1042.06,-78.88 1046.28,-84.46"/>
</g>
<!-- Node12 -->
<g id="node12" class="node">
<title>Node12</title>
<g id="a_node12"><a xlink:title=" ">
<polygon fill="none" stroke="#bfbfbf" points="408.5,-118 408.5,-137 453.5,-137 453.5,-118 408.5,-118"/>
<text text-anchor="middle" x="431" y="-125" font-family="Helvetica,sans-Serif" font-size="10.00">utility</text>
</a>
</g>
</g>
<!-- Node10&#45;&gt;Node12 -->
<g id="edge20" class="edge">
<title>Node10&#45;&gt;Node12</title>
<path fill="none" stroke="midnightblue" d="M489.73,-179.4C477.68,-168.96 461.29,-154.75 448.88,-144"/>
<polygon fill="midnightblue" stroke="midnightblue" points="450.88,-141.1 441.03,-137.19 446.3,-146.39 450.88,-141.1"/>
</g>
<!-- Node13 -->
<g id="node13" class="node">
<title>Node13</title>
<g id="a_node13"><a xlink:href="_ignore_unused_8h.html" target="_top" xlink:title=" ">
<polygon fill="none" stroke="black" points="558,-118 558,-137 686,-137 686,-118 558,-118"/>
<text text-anchor="middle" x="622" y="-125" font-family="Helvetica,sans-Serif" font-size="10.00">../misc/IgnoreUnused.h</text>
</a>
</g>
</g>
<!-- Node10&#45;&gt;Node13 -->
<g id="edge21" class="edge">
<title>Node10&#45;&gt;Node13</title>
<path fill="none" stroke="midnightblue" d="M531.17,-179.4C550.98,-168.29 578.42,-152.92 597.94,-141.98"/>
<polygon fill="midnightblue" stroke="midnightblue" points="599.81,-144.95 606.82,-137.01 596.38,-138.84 599.81,-144.95"/>
</g>
<!-- Node14 -->
<g id="node14" class="node">
<title>Node14</title>
<g id="a_node14"><a xlink:title=" ">
<polygon fill="none" stroke="#bfbfbf" points="472,-118 472,-137 540,-137 540,-118 472,-118"/>
<text text-anchor="middle" x="506" y="-125" font-family="Helvetica,sans-Serif" font-size="10.00">filesystem</text>
</a>
</g>
</g>
<!-- Node10&#45;&gt;Node14 -->
<g id="edge26" class="edge">
<title>Node10&#45;&gt;Node14</title>
<path fill="none" stroke="midnightblue" d="M506,-179.4C506,-170.06 506,-157.71 506,-147.52"/>
<polygon fill="midnightblue" stroke="midnightblue" points="509.5,-147.19 506,-137.19 502.5,-147.19 509.5,-147.19"/>
</g>
<!-- Node13&#45;&gt;Node2 -->
<g id="edge22" class="edge">
<title>Node13&#45;&gt;Node2</title>
<path fill="none" stroke="midnightblue" d="M646.07,-117.98C675.01,-107.72 723.76,-90.46 756.4,-78.9"/>
<polygon fill="midnightblue" stroke="midnightblue" points="757.72,-82.15 765.97,-75.51 755.38,-75.55 757.72,-82.15"/>
</g>
<!-- Node13&#45;&gt;Node3 -->
<g id="edge23" class="edge">
<title>Node13&#45;&gt;Node3</title>
<path fill="none" stroke="midnightblue" d="M579.56,-117.96C569.54,-115.98 558.9,-113.89 549,-112 484.82,-99.73 411.06,-86.27 361.38,-77.3"/>
<polygon fill="midnightblue" stroke="midnightblue" points="361.93,-73.84 351.46,-75.51 360.68,-80.73 361.93,-73.84"/>
</g>
<!-- Node13&#45;&gt;Node5 -->
<g id="edge24" class="edge">
<title>Node13&#45;&gt;Node5</title>
<path fill="none" stroke="midnightblue" d="M628.91,-117.82C644.17,-98.67 680.91,-52.54 700.75,-27.63"/>
<polygon fill="midnightblue" stroke="midnightblue" points="703.51,-29.78 707,-19.78 698.04,-25.42 703.51,-29.78"/>
</g>
<!-- Node15&#45;&gt;Node2 -->
<g id="edge28" class="edge">
<title>Node15&#45;&gt;Node2</title>
<path fill="none" stroke="midnightblue" d="M272.1,-184.77C294.69,-167.53 348.26,-129.29 400,-112 514.83,-73.62 658.09,-66.83 735.03,-66.28"/>
<polygon fill="midnightblue" stroke="midnightblue" points="735.45,-69.78 745.44,-66.24 735.42,-62.78 735.45,-69.78"/>
</g>
<!-- Node15&#45;&gt;Node3 -->
<g id="edge29" class="edge">
<title>Node15&#45;&gt;Node3</title>
<path fill="none" stroke="midnightblue" d="M263.96,-184.81C270.89,-164.4 288.33,-113.1 297.74,-85.41"/>
<polygon fill="midnightblue" stroke="midnightblue" points="301.12,-86.35 301.02,-75.76 294.49,-84.1 301.12,-86.35"/>
</g>
<!-- Node15&#45;&gt;Node4 -->
<g id="edge30" class="edge">
<title>Node15&#45;&gt;Node4</title>
<path fill="none" stroke="midnightblue" d="M252.75,-184.81C232.88,-163.86 182.13,-110.35 156.42,-83.25"/>
<polygon fill="midnightblue" stroke="midnightblue" points="158.73,-80.6 149.31,-75.76 153.65,-85.42 158.73,-80.6"/>
</g>
<!-- Node15&#45;&gt;Node7 -->
<g id="edge31" class="edge">
<title>Node15&#45;&gt;Node7</title>
<path fill="none" stroke="midnightblue" d="M304.45,-188.88C410.52,-177.59 683.11,-148.59 807.9,-135.32"/>
<polygon fill="midnightblue" stroke="midnightblue" points="808.49,-138.78 818.06,-134.24 807.75,-131.82 808.49,-138.78"/>
</g>
<!-- Node17&#45;&gt;Node2 -->
<g id="edge36" class="edge">
<title>Node17&#45;&gt;Node2</title>
<path fill="none" stroke="midnightblue" d="M1083.02,-184.98C1070.71,-168.13 1040.73,-130.56 1006,-112 955.43,-84.97 890.16,-74.17 844.66,-69.85"/>
<polygon fill="midnightblue" stroke="midnightblue" points="844.96,-66.37 834.69,-68.98 844.35,-73.34 844.96,-66.37"/>
</g>
<!-- Node17&#45;&gt;Node3 -->
<g id="edge37" class="edge">
<title>Node17&#45;&gt;Node3</title>
<path fill="none" stroke="midnightblue" d="M1074.78,-184.99C1042.49,-165.84 964.23,-120.37 935,-112 830.71,-82.13 511.6,-71.56 371.34,-68.29"/>
<polygon fill="midnightblue" stroke="midnightblue" points="371.23,-64.79 361.15,-68.06 371.07,-71.79 371.23,-64.79"/>
</g>
<!-- Node17&#45;&gt;Node7 -->
<g id="edge50" class="edge">
<title>Node17&#45;&gt;Node7</title>
<path fill="none" stroke="midnightblue" d="M1060.18,-184.87C1026.71,-174.84 970.67,-158.06 928.43,-145.4"/>
<polygon fill="midnightblue" stroke="midnightblue" points="929.42,-142.04 918.83,-142.53 927.41,-148.75 929.42,-142.04"/>
</g>
<!-- Node17&#45;&gt;Node8 -->
<g id="edge39" class="edge">
<title>Node17&#45;&gt;Node8</title>
<path fill="none" stroke="midnightblue" d="M1117.48,-184.95C1124.79,-182.88 1132.66,-180.76 1140,-179 1220.6,-159.65 1244.21,-168.75 1323,-143 1324.67,-142.45 1326.37,-141.84 1328.06,-141.18"/>
<polygon fill="midnightblue" stroke="midnightblue" points="1329.77,-144.26 1337.57,-137.09 1327,-137.83 1329.77,-144.26"/>
</g>
<!-- Node17&#45;&gt;Node11 -->
<g id="edge40" class="edge">
<title>Node17&#45;&gt;Node11</title>
<path fill="none" stroke="midnightblue" d="M1108.33,-184.84C1124.12,-176.59 1145.35,-162.53 1155,-143 1161.1,-130.65 1162.29,-123.69 1155,-112 1144.44,-95.07 1125.46,-84.34 1107.47,-77.62"/>
<polygon fill="midnightblue" stroke="midnightblue" points="1108.23,-74.18 1097.64,-74.29 1105.98,-80.81 1108.23,-74.18"/>
</g>
<!-- Node18 -->
<g id="node18" class="node">
<title>Node18</title>
<g id="a_node18"><a xlink:title=" ">
<polygon fill="none" stroke="#bfbfbf" points="1096,-118 1096,-137 1146,-137 1146,-118 1096,-118"/>
<text text-anchor="middle" x="1121" y="-125" font-family="Helvetica,sans-Serif" font-size="10.00">chrono</text>
</a>
</g>
</g>
<!-- Node17&#45;&gt;Node18 -->
<g id="edge38" class="edge">
<title>Node17&#45;&gt;Node18</title>
<path fill="none" stroke="midnightblue" d="M1093.32,-184.73C1098.16,-174.89 1106.15,-158.66 1112.31,-146.16"/>
<polygon fill="midnightblue" stroke="midnightblue" points="1115.48,-147.64 1116.75,-137.13 1109.2,-144.55 1115.48,-147.64"/>
</g>
<!-- Node19 -->
<g id="node19" class="node">
<title>Node19</title>
<g id="a_node19"><a xlink:href="_type_traits_8h.html" target="_top" xlink:title=" ">
<polygon fill="none" stroke="black" points="1202,-118 1202,-137 1314,-137 1314,-118 1202,-118"/>
<text text-anchor="middle" x="1258" y="-125" font-family="Helvetica,sans-Serif" font-size="10.00">../meta/TypeTraits.h</text>
</a>
</g>
</g>
<!-- Node17&#45;&gt;Node19 -->
<g id="edge41" class="edge">
<title>Node17&#45;&gt;Node19</title>
<path fill="none" stroke="midnightblue" d="M1111.44,-184.87C1140.82,-173.57 1192.49,-153.7 1225.97,-140.82"/>
<polygon fill="midnightblue" stroke="midnightblue" points="1227.66,-143.92 1235.73,-137.06 1225.14,-137.39 1227.66,-143.92"/>
</g>
<!-- Node19&#45;&gt;Node2 -->
<g id="edge45" class="edge">
<title>Node19&#45;&gt;Node2</title>
<path fill="none" stroke="midnightblue" d="M1201.89,-118.42C1186.68,-116.28 1170.22,-114.01 1155,-112 1045.05,-97.48 916.26,-81.95 844.82,-73.46"/>
<polygon fill="midnightblue" stroke="midnightblue" points="845.04,-69.96 834.7,-72.26 844.22,-76.91 845.04,-69.96"/>
</g>
<!-- Node19&#45;&gt;Node3 -->
<g id="edge47" class="edge">
<title>Node19&#45;&gt;Node3</title>
<path fill="none" stroke="midnightblue" d="M1203.85,-117.98C1188.13,-115.74 1170.91,-113.54 1155,-112 863.96,-83.87 515.1,-72.35 371.15,-68.56"/>
<polygon fill="midnightblue" stroke="midnightblue" points="371.24,-65.07 361.15,-68.31 371.05,-72.06 371.24,-65.07"/>
</g>
<!-- Node19&#45;&gt;Node5 -->
<g id="edge46" class="edge">
<title>Node19&#45;&gt;Node5</title>
<path fill="none" stroke="midnightblue" d="M1238.03,-117.86C1215.52,-108.03 1177.9,-91.36 1146,-76 1128.45,-67.55 1125.64,-61.64 1107,-56 992.83,-21.44 852.66,-13.06 774.33,-11.25"/>
<polygon fill="midnightblue" stroke="midnightblue" points="774.24,-7.74 764.17,-11.04 774.09,-14.74 774.24,-7.74"/>
</g>
<!-- Node19&#45;&gt;Node11 -->
<g id="edge42" class="edge">
<title>Node19&#45;&gt;Node11</title>
<path fill="none" stroke="midnightblue" d="M1230.06,-117.98C1196.03,-107.59 1138.42,-90.01 1100.54,-78.45"/>
<polygon fill="midnightblue" stroke="midnightblue" points="1101.47,-75.08 1090.89,-75.51 1099.43,-81.78 1101.47,-75.08"/>
</g>
<!-- Node19&#45;&gt;Node16 -->
<g id="edge44" class="edge">
<title>Node19&#45;&gt;Node16</title>
<path fill="none" stroke="midnightblue" d="M1279.92,-117.98C1306.05,-107.81 1349.91,-90.76 1379.63,-79.2"/>
<polygon fill="midnightblue" stroke="midnightblue" points="1381.07,-82.4 1389.12,-75.51 1378.53,-75.87 1381.07,-82.4"/>
</g>
<!-- Node20 -->
<g id="node20" class="node">
<title>Node20</title>
<g id="a_node20"><a xlink:title=" ">
<polygon fill="none" stroke="#bfbfbf" points="1154.5,-56.5 1154.5,-75.5 1211.5,-75.5 1211.5,-56.5 1154.5,-56.5"/>
<text text-anchor="middle" x="1183" y="-63.5" font-family="Helvetica,sans-Serif" font-size="10.00">typeinfo</text>
</a>
</g>
</g>
<!-- Node19&#45;&gt;Node20 -->
<g id="edge43" class="edge">
<title>Node19&#45;&gt;Node20</title>
<path fill="none" stroke="midnightblue" d="M1247.25,-117.98C1235.45,-108.61 1216.26,-93.38 1201.92,-82.01"/>
<polygon fill="midnightblue" stroke="midnightblue" points="1203.74,-78.98 1193.73,-75.51 1199.38,-84.47 1203.74,-78.98"/>
</g>
<!-- Node21 -->
<g id="node21" class="node">
<title>Node21</title>
<g id="a_node21"><a xlink:title=" ">
<polygon fill="none" stroke="#bfbfbf" points="1229.5,-56.5 1229.5,-75.5 1294.5,-75.5 1294.5,-56.5 1229.5,-56.5"/>
<text text-anchor="middle" x="1262" y="-63.5" font-family="Helvetica,sans-Serif" font-size="10.00">exception</text>
</a>
</g>
</g>
<!-- Node19&#45;&gt;Node21 -->
<g id="edge48" class="edge">
<title>Node19&#45;&gt;Node21</title>
<path fill="none" stroke="midnightblue" d="M1258.57,-117.98C1259.14,-109.58 1260.02,-96.48 1260.75,-85.66"/>
<polygon fill="midnightblue" stroke="midnightblue" points="1264.25,-85.72 1261.43,-75.51 1257.26,-85.25 1264.25,-85.72"/>
</g>
<!-- Node22 -->
<g id="node22" class="node">
<title>Node22</title>
<g id="a_node22"><a xlink:title=" ">
<polygon fill="none" stroke="#bfbfbf" points="1313,-56.5 1313,-75.5 1371,-75.5 1371,-56.5 1313,-56.5"/>
<text text-anchor="middle" x="1342" y="-63.5" font-family="Helvetica,sans-Serif" font-size="10.00">cxxabi.h</text>
</a>
</g>
</g>
<!-- Node19&#45;&gt;Node22 -->
<g id="edge49" class="edge">
<title>Node19&#45;&gt;Node22</title>
<path fill="none" stroke="midnightblue" d="M1270.04,-117.98C1283.51,-108.43 1305.57,-92.81 1321.72,-81.37"/>
<polygon fill="midnightblue" stroke="midnightblue" points="1323.85,-84.15 1329.99,-75.51 1319.8,-78.43 1323.85,-84.15"/>
</g>
<!-- Node23&#45;&gt;Node3 -->
<g id="edge52" class="edge">
<title>Node23&#45;&gt;Node3</title>
<path fill="none" stroke="midnightblue" d="M180.11,-246.25C170.07,-222.23 146.1,-154.2 176,-112 190.12,-92.07 213.8,-80.9 236.98,-74.67"/>
<polygon fill="midnightblue" stroke="midnightblue" points="237.95,-78.03 246.85,-72.29 236.31,-71.23 237.95,-78.03"/>
</g>
<!-- Node23&#45;&gt;Node15 -->
<g id="edge53" class="edge">
<title>Node23&#45;&gt;Node15</title>
<path fill="none" stroke="midnightblue" d="M195.03,-246.48C207.27,-237.02 227.23,-221.6 241.99,-210.19"/>
<polygon fill="midnightblue" stroke="midnightblue" points="244.22,-212.89 249.99,-204.01 239.94,-207.35 244.22,-212.89"/>
</g>
</g>
</svg>
        <g id="navigator" transform="translate(0 0)" fill="#404254">
                <rect fill="#f2f5e9" fill-opacity="0.5" stroke="#606060" stroke-width=".5" x="0" y="0" width="60" height="60"/>
                <use id="zoomplus" xlink:href="#zoomPlus" x="17" y="9" onmousedown="handleZoom(evt,'in')"/>
                <use id="zoomminus" xlink:href="#zoomMin" x="42" y="9" onmousedown="handleZoom(evt,'out')"/>
                <use id="reset" xlink:href="#resetDef" x="30" y="36" onmousedown="handleReset()"/>
                <g id="arrowUp" xlink:href="#dirArrow" transform="translate(30 24)" onmousedown="handlePan(0,-1)">
                  <use xlink:href="#rim" fill="#404040">
                        <set attributeName="fill" to="#808080" begin="arrowUp.mouseover" end="arrowUp.mouseout"/>
                  </use>
                  <path fill="none" stroke="white" stroke-width="1.5" d="M0,-3.0v7 M-2.5,-0.5L0,-3.0L2.5,-0.5"/>
                </g>
                <g id="arrowRight" xlink:href="#dirArrow" transform="rotate(90) translate(36 -43)" onmousedown="handlePan(1,0)">
                  <use xlink:href="#rim" fill="#404040">
                        <set attributeName="fill" to="#808080" begin="arrowRight.mouseover" end="arrowRight.mouseout"/>
                  </use>
                  <path fill="none" stroke="white" stroke-width="1.5" d="M0,-3.0v7 M-2.5,-0.5L0,-3.0L2.5,-0.5"/>
                </g>
                <g id="arrowDown" xlink:href="#dirArrow" transform="rotate(180) translate(-30 -48)" onmousedown="handlePan(0,1)">
                  <use xlink:href="#rim" fill="#404040">
                        <set attributeName="fill" to="#808080" begin="arrowDown.mouseover" end="arrowDown.mouseout"/>
                  </use>
                  <path fill="none" stroke="white" stroke-width="1.5" d="M0,-3.0v7 M-2.5,-0.5L0,-3.0L2.5,-0.5"/>
                </g>
                <g id="arrowLeft" xlink:href="#dirArrow" transform="rotate(270) translate(-36 17)" onmousedown="handlePan(-1,0)">
                  <use xlink:href="#rim" fill="#404040">
                        <set attributeName="fill" to="#808080" begin="arrowLeft.mouseover" end="arrowLeft.mouseout"/>
                  </use>
                  <path fill="none" stroke="white" stroke-width="1.5" d="M0,-3.0v7 M-2.5,-0.5L0,-3.0L2.5,-0.5"/>
                </g>
        </g>
        <svg viewBox="0 0 15 15" width="100%" height="30px" preserveAspectRatio="xMaxYMin meet">
         <g id="arrow_out" transform="scale(0.3 0.3)">
          <a xlink:href="time_8h__incl_org.svg" target="_base">
           <rect id="button" ry="5" rx="5" y="6" x="6" height="38" width="38"
                fill="#f2f5e9" fill-opacity="0.5" stroke="#606060" stroke-width="1.0"/>
           <path id="arrow"
             d="M 11.500037,31.436501 C 11.940474,20.09759 22.043105,11.32322 32.158766,21.979434 L 37.068811,17.246167 C 37.068811,17.246167 37.088388,32 37.088388,32 L 22.160133,31.978069 C 22.160133,31.978069 26.997745,27.140456 26.997745,27.140456 C 18.528582,18.264221 13.291696,25.230495 11.500037,31.436501 z"
             style="fill:#404040;"/>
          </a>
         </g>
        </svg>
</svg>
