<?xml version="1.0" encoding="UTF-8" standalone="no"?>
<!DOCTYPE svg PUBLIC "-//W3C//DTD SVG 1.1//EN"
 "http://www.w3.org/Graphics/SVG/1.1/DTD/svg11.dtd">
<!-- Generated by graphviz version 2.43.0 (0)
 -->
<!-- Title: time_impl.h Pages: 1 -->
<svg width="371pt" height="196pt"
 viewBox="0.00 0.00 370.50 196.00" xmlns="http://www.w3.org/2000/svg" xmlns:xlink="http://www.w3.org/1999/xlink">
<g id="graph0" class="graph" transform="scale(1 1) rotate(0) translate(4 192)">
<title>time_impl.h</title>
<!-- Node1 -->
<g id="node1" class="node">
<title>Node1</title>
<g id="a_node1"><a xlink:title=" ">
<polygon fill="#bfbfbf" stroke="black" points="78.5,-168.5 78.5,-187.5 153.5,-187.5 153.5,-168.5 78.5,-168.5"/>
<text text-anchor="middle" x="116" y="-175.5" font-family="Helvetica,sans-Serif" font-size="10.00">time_impl.h</text>
</a>
</g>
</g>
<!-- Node2 -->
<g id="node2" class="node">
<title>Node2</title>
<g id="a_node2"><a xlink:href="limes__namespace_8h.html" target="_top" xlink:title=" ">
<polygon fill="none" stroke="black" points="0,-56.5 0,-75.5 114,-75.5 114,-56.5 0,-56.5"/>
<text text-anchor="middle" x="57" y="-63.5" font-family="Helvetica,sans-Serif" font-size="10.00">limes_namespace.h</text>
</a>
</g>
</g>
<!-- Node1&#45;&gt;Node2 -->
<g id="edge1" class="edge">
<title>Node1&#45;&gt;Node2</title>
<path fill="none" stroke="midnightblue" d="M111.37,-168.37C101.72,-150.38 79.29,-108.55 66.45,-84.63"/>
<polygon fill="midnightblue" stroke="midnightblue" points="69.42,-82.75 61.61,-75.59 63.25,-86.06 69.42,-82.75"/>
</g>
<!-- Node3 -->
<g id="node3" class="node">
<title>Node3</title>
<g id="a_node3"><a xlink:href="build__date_8h.html" target="_top" xlink:title=" ">
<polygon fill="none" stroke="black" points="121,-112.5 121,-131.5 207,-131.5 207,-112.5 121,-112.5"/>
<text text-anchor="middle" x="164" y="-119.5" font-family="Helvetica,sans-Serif" font-size="10.00">../build_date.h</text>
</a>
</g>
</g>
<!-- Node1&#45;&gt;Node3 -->
<g id="edge2" class="edge">
<title>Node1&#45;&gt;Node3</title>
<path fill="none" stroke="midnightblue" d="M123.93,-168.08C130.85,-160.3 141.07,-148.8 149.45,-139.37"/>
<polygon fill="midnightblue" stroke="midnightblue" points="152.19,-141.55 156.22,-131.75 146.96,-136.9 152.19,-141.55"/>
</g>
<!-- Node3&#45;&gt;Node2 -->
<g id="edge4" class="edge">
<title>Node3&#45;&gt;Node2</title>
<path fill="none" stroke="midnightblue" d="M146.81,-112.32C129.65,-103.66 103.05,-90.24 83.25,-80.25"/>
<polygon fill="midnightblue" stroke="midnightblue" points="84.65,-77.04 74.15,-75.65 81.5,-83.28 84.65,-77.04"/>
</g>
<!-- Node4 -->
<g id="node4" class="node">
<title>Node4</title>
<g id="a_node4"><a xlink:title=" ">
<polygon fill="none" stroke="#bfbfbf" points="132.5,-56.5 132.5,-75.5 221.5,-75.5 221.5,-56.5 132.5,-56.5"/>
<text text-anchor="middle" x="177" y="-63.5" font-family="Helvetica,sans-Serif" font-size="10.00">limes_export.h</text>
</a>
</g>
</g>
<!-- Node3&#45;&gt;Node4 -->
<g id="edge3" class="edge">
<title>Node3&#45;&gt;Node4</title>
<path fill="none" stroke="midnightblue" d="M166.15,-112.08C167.87,-104.93 170.35,-94.64 172.5,-85.69"/>
<polygon fill="midnightblue" stroke="midnightblue" points="175.96,-86.29 174.89,-75.75 169.15,-84.65 175.96,-86.29"/>
</g>
<!-- Node5 -->
<g id="node5" class="node">
<title>Node5</title>
<g id="a_node5"><a xlink:href="preprocessor_8h.html" target="_top" xlink:title=" ">
<polygon fill="none" stroke="black" points="239.5,-56.5 239.5,-75.5 362.5,-75.5 362.5,-56.5 239.5,-56.5"/>
<text text-anchor="middle" x="301" y="-63.5" font-family="Helvetica,sans-Serif" font-size="10.00">../misc/preprocessor.h</text>
</a>
</g>
</g>
<!-- Node3&#45;&gt;Node5 -->
<g id="edge5" class="edge">
<title>Node3&#45;&gt;Node5</title>
<path fill="none" stroke="midnightblue" d="M185.71,-112.44C208.35,-103.52 244.07,-89.44 269.75,-79.32"/>
<polygon fill="midnightblue" stroke="midnightblue" points="271.37,-82.44 279.39,-75.52 268.81,-75.93 271.37,-82.44"/>
</g>
<!-- Node6 -->
<g id="node6" class="node">
<title>Node6</title>
<g id="a_node6"><a xlink:title=" ">
<polygon fill="none" stroke="#bfbfbf" points="251,-0.5 251,-19.5 351,-19.5 351,-0.5 251,-0.5"/>
<text text-anchor="middle" x="301" y="-7.5" font-family="Helvetica,sans-Serif" font-size="10.00">limes_platform.h</text>
</a>
</g>
</g>
<!-- Node5&#45;&gt;Node6 -->
<g id="edge6" class="edge">
<title>Node5&#45;&gt;Node6</title>
<path fill="none" stroke="midnightblue" d="M301,-56.08C301,-49.01 301,-38.86 301,-29.99"/>
<polygon fill="midnightblue" stroke="midnightblue" points="304.5,-29.75 301,-19.75 297.5,-29.75 304.5,-29.75"/>
</g>
</g>
</svg>
