<?xml version="1.0" encoding="UTF-8" standalone="no"?>
<!DOCTYPE svg PUBLIC "-//W3C//DTD SVG 1.1//EN"
 "http://www.w3.org/Graphics/SVG/1.1/DTD/svg11.dtd">
<!-- Generated by graphviz version 2.43.0 (0)
 -->
<!-- Title: time_utils.h Pages: 1 -->
<svg width="733pt" height="140pt"
 viewBox="0.00 0.00 733.00 140.00" xmlns="http://www.w3.org/2000/svg" xmlns:xlink="http://www.w3.org/1999/xlink">
<g id="graph0" class="graph" transform="scale(1 1) rotate(0) translate(4 136)">
<title>time_utils.h</title>
<!-- Node1 -->
<g id="node1" class="node">
<title>Node1</title>
<g id="a_node1"><a xlink:title=" ">
<polygon fill="#bfbfbf" stroke="black" points="277.5,-112.5 277.5,-131.5 351.5,-131.5 351.5,-112.5 277.5,-112.5"/>
<text text-anchor="middle" x="314.5" y="-119.5" font-family="Helvetica,sans-Serif" font-size="10.00">time_utils.h</text>
</a>
</g>
</g>
<!-- Node2 -->
<g id="node2" class="node">
<title>Node2</title>
<g id="a_node2"><a xlink:title=" ">
<polygon fill="none" stroke="#bfbfbf" points="0,-0.5 0,-19.5 89,-19.5 89,-0.5 0,-0.5"/>
<text text-anchor="middle" x="44.5" y="-7.5" font-family="Helvetica,sans-Serif" font-size="10.00">limes_export.h</text>
</a>
</g>
</g>
<!-- Node1&#45;&gt;Node2 -->
<g id="edge1" class="edge">
<title>Node1&#45;&gt;Node2</title>
<path fill="none" stroke="midnightblue" d="M293.31,-112.37C245.7,-92.97 130.09,-45.87 74.86,-23.37"/>
<polygon fill="midnightblue" stroke="midnightblue" points="76.17,-20.12 65.59,-19.59 73.53,-26.61 76.17,-20.12"/>
</g>
<!-- Node3 -->
<g id="node3" class="node">
<title>Node3</title>
<g id="a_node3"><a xlink:href="limes__namespace_8h.html" target="_top" xlink:title=" ">
<polygon fill="none" stroke="black" points="107.5,-0.5 107.5,-19.5 221.5,-19.5 221.5,-0.5 107.5,-0.5"/>
<text text-anchor="middle" x="164.5" y="-7.5" font-family="Helvetica,sans-Serif" font-size="10.00">limes_namespace.h</text>
</a>
</g>
</g>
<!-- Node1&#45;&gt;Node3 -->
<g id="edge2" class="edge">
<title>Node1&#45;&gt;Node3</title>
<path fill="none" stroke="midnightblue" d="M302.73,-112.37C277.1,-93.57 216,-48.77 184.32,-25.53"/>
<polygon fill="midnightblue" stroke="midnightblue" points="186.35,-22.68 176.22,-19.59 182.21,-28.33 186.35,-22.68"/>
</g>
<!-- Node4 -->
<g id="node4" class="node">
<title>Node4</title>
<g id="a_node4"><a xlink:title=" ">
<polygon fill="none" stroke="#bfbfbf" points="430.5,-56.5 430.5,-75.5 480.5,-75.5 480.5,-56.5 430.5,-56.5"/>
<text text-anchor="middle" x="455.5" y="-63.5" font-family="Helvetica,sans-Serif" font-size="10.00">chrono</text>
</a>
</g>
</g>
<!-- Node1&#45;&gt;Node4 -->
<g id="edge3" class="edge">
<title>Node1&#45;&gt;Node4</title>
<path fill="none" stroke="midnightblue" d="M336.84,-112.44C360.25,-103.48 397.24,-89.31 423.69,-79.18"/>
<polygon fill="midnightblue" stroke="midnightblue" points="425.18,-82.36 433.26,-75.52 422.67,-75.82 425.18,-82.36"/>
</g>
<!-- Node5 -->
<g id="node5" class="node">
<title>Node5</title>
<g id="a_node5"><a xlink:title=" ">
<polygon fill="none" stroke="#bfbfbf" points="498.5,-56.5 498.5,-75.5 542.5,-75.5 542.5,-56.5 498.5,-56.5"/>
<text text-anchor="middle" x="520.5" y="-63.5" font-family="Helvetica,sans-Serif" font-size="10.00">ctime</text>
</a>
</g>
</g>
<!-- Node1&#45;&gt;Node5 -->
<g id="edge4" class="edge">
<title>Node1&#45;&gt;Node5</title>
<path fill="none" stroke="midnightblue" d="M349.12,-112.43C382.48,-104.1 434.61,-90.89 488.46,-76.23"/>
<polygon fill="midnightblue" stroke="midnightblue" points="489.45,-79.59 498.17,-73.57 487.6,-72.83 489.45,-79.59"/>
</g>
<!-- Node6 -->
<g id="node6" class="node">
<title>Node6</title>
<g id="a_node6"><a xlink:title=" ">
<polygon fill="none" stroke="#bfbfbf" points="240,-0.5 240,-19.5 309,-19.5 309,-0.5 240,-0.5"/>
<text text-anchor="middle" x="274.5" y="-7.5" font-family="Helvetica,sans-Serif" font-size="10.00">type_traits</text>
</a>
</g>
</g>
<!-- Node1&#45;&gt;Node6 -->
<g id="edge5" class="edge">
<title>Node1&#45;&gt;Node6</title>
<path fill="none" stroke="midnightblue" d="M309.33,-112.3C304.23,-103.42 296.5,-89.12 291.5,-76 285.72,-60.83 281.2,-42.93 278.27,-29.77"/>
<polygon fill="midnightblue" stroke="midnightblue" points="281.62,-28.66 276.13,-19.6 274.77,-30.1 281.62,-28.66"/>
</g>
<!-- Node7 -->
<g id="node7" class="node">
<title>Node7</title>
<g id="a_node7"><a xlink:href="_type_traits_8h.html" target="_top" xlink:title=" ">
<polygon fill="none" stroke="black" points="300.5,-56.5 300.5,-75.5 412.5,-75.5 412.5,-56.5 300.5,-56.5"/>
<text text-anchor="middle" x="356.5" y="-63.5" font-family="Helvetica,sans-Serif" font-size="10.00">../meta/TypeTraits.h</text>
</a>
</g>
</g>
<!-- Node1&#45;&gt;Node7 -->
<g id="edge6" class="edge">
<title>Node1&#45;&gt;Node7</title>
<path fill="none" stroke="midnightblue" d="M321.44,-112.08C327.43,-104.38 336.25,-93.03 343.55,-83.65"/>
<polygon fill="midnightblue" stroke="midnightblue" points="346.32,-85.79 349.69,-75.75 340.79,-81.5 346.32,-85.79"/>
</g>
<!-- Node7&#45;&gt;Node2 -->
<g id="edge10" class="edge">
<title>Node7&#45;&gt;Node2</title>
<path fill="none" stroke="midnightblue" d="M307.06,-56.44C250.49,-46.65 158.11,-30.66 99.36,-20.49"/>
<polygon fill="midnightblue" stroke="midnightblue" points="99.61,-16.99 89.16,-18.73 98.41,-23.88 99.61,-16.99"/>
</g>
<!-- Node7&#45;&gt;Node3 -->
<g id="edge12" class="edge">
<title>Node7&#45;&gt;Node3</title>
<path fill="none" stroke="midnightblue" d="M326.08,-56.44C293.22,-47.2 240.72,-32.44 204.53,-22.26"/>
<polygon fill="midnightblue" stroke="midnightblue" points="205.35,-18.85 194.78,-19.52 203.46,-25.59 205.35,-18.85"/>
</g>
<!-- Node7&#45;&gt;Node6 -->
<g id="edge7" class="edge">
<title>Node7&#45;&gt;Node6</title>
<path fill="none" stroke="midnightblue" d="M343.33,-56.32C330.65,-47.98 311.27,-35.21 296.29,-25.35"/>
<polygon fill="midnightblue" stroke="midnightblue" points="297.92,-22.23 287.64,-19.65 294.07,-28.08 297.92,-22.23"/>
</g>
<!-- Node8 -->
<g id="node8" class="node">
<title>Node8</title>
<g id="a_node8"><a xlink:title=" ">
<polygon fill="none" stroke="#bfbfbf" points="404,-0.5 404,-19.5 461,-19.5 461,-0.5 404,-0.5"/>
<text text-anchor="middle" x="432.5" y="-7.5" font-family="Helvetica,sans-Serif" font-size="10.00">typeinfo</text>
</a>
</g>
</g>
<!-- Node7&#45;&gt;Node8 -->
<g id="edge8" class="edge">
<title>Node7&#45;&gt;Node8</title>
<path fill="none" stroke="midnightblue" d="M368.71,-56.32C380.28,-48.11 397.88,-35.6 411.66,-25.81"/>
<polygon fill="midnightblue" stroke="midnightblue" points="413.94,-28.48 420.07,-19.83 409.89,-22.77 413.94,-28.48"/>
</g>
<!-- Node9 -->
<g id="node9" class="node">
<title>Node9</title>
<g id="a_node9"><a xlink:title=" ">
<polygon fill="none" stroke="#bfbfbf" points="479.5,-0.5 479.5,-19.5 523.5,-19.5 523.5,-0.5 479.5,-0.5"/>
<text text-anchor="middle" x="501.5" y="-7.5" font-family="Helvetica,sans-Serif" font-size="10.00">string</text>
</a>
</g>
</g>
<!-- Node7&#45;&gt;Node9 -->
<g id="edge9" class="edge">
<title>Node7&#45;&gt;Node9</title>
<path fill="none" stroke="midnightblue" d="M379.48,-56.44C403.8,-47.39 442.37,-33.02 469.63,-22.87"/>
<polygon fill="midnightblue" stroke="midnightblue" points="470.96,-26.11 479.11,-19.34 468.52,-19.55 470.96,-26.11"/>
</g>
<!-- Node10 -->
<g id="node10" class="node">
<title>Node10</title>
<g id="a_node10"><a xlink:title=" ">
<polygon fill="none" stroke="#bfbfbf" points="541.5,-0.5 541.5,-19.5 641.5,-19.5 641.5,-0.5 541.5,-0.5"/>
<text text-anchor="middle" x="591.5" y="-7.5" font-family="Helvetica,sans-Serif" font-size="10.00">limes_platform.h</text>
</a>
</g>
</g>
<!-- Node7&#45;&gt;Node10 -->
<g id="edge11" class="edge">
<title>Node7&#45;&gt;Node10</title>
<path fill="none" stroke="midnightblue" d="M393.74,-56.44C434.56,-47.06 500.14,-31.99 544.48,-21.8"/>
<polygon fill="midnightblue" stroke="midnightblue" points="545.48,-25.17 554.44,-19.52 543.91,-18.34 545.48,-25.17"/>
</g>
<!-- Node11 -->
<g id="node11" class="node">
<title>Node11</title>
<g id="a_node11"><a xlink:title=" ">
<polygon fill="none" stroke="#bfbfbf" points="660,-0.5 660,-19.5 725,-19.5 725,-0.5 660,-0.5"/>
<text text-anchor="middle" x="692.5" y="-7.5" font-family="Helvetica,sans-Serif" font-size="10.00">exception</text>
</a>
</g>
</g>
<!-- Node7&#45;&gt;Node11 -->
<g id="edge13" class="edge">
<title>Node7&#45;&gt;Node11</title>
<path fill="none" stroke="midnightblue" d="M412.52,-56.83C480.42,-46.86 591.95,-30.26 649.82,-20.01"/>
<polygon fill="midnightblue" stroke="midnightblue" points="650.76,-23.39 659.98,-18.17 649.52,-16.5 650.76,-23.39"/>
</g>
<!-- Node12 -->
<g id="node12" class="node">
<title>Node12</title>
<g id="a_node12"><a xlink:title=" ">
<polygon fill="none" stroke="#bfbfbf" points="327.5,-0.5 327.5,-19.5 385.5,-19.5 385.5,-0.5 327.5,-0.5"/>
<text text-anchor="middle" x="356.5" y="-7.5" font-family="Helvetica,sans-Serif" font-size="10.00">cxxabi.h</text>
</a>
</g>
</g>
<!-- Node7&#45;&gt;Node12 -->
<g id="edge14" class="edge">
<title>Node7&#45;&gt;Node12</title>
<path fill="none" stroke="midnightblue" d="M356.5,-56.08C356.5,-49.01 356.5,-38.86 356.5,-29.99"/>
<polygon fill="midnightblue" stroke="midnightblue" points="360,-29.75 356.5,-19.75 353,-29.75 360,-29.75"/>
</g>
</g>
</svg>
