<?xml version="1.0" encoding="UTF-8" standalone="no"?>
<!DOCTYPE svg PUBLIC "-//W3C//DTD SVG 1.1//EN"
 "http://www.w3.org/Graphics/SVG/1.1/DTD/svg11.dtd">
<!-- Generated by graphviz version 2.43.0 (0)
 -->
<!-- Title: triangle.h Pages: 1 -->
<svg width="1057pt" height="319pt"
 viewBox="0.00 0.00 1056.87 319.00" xmlns="http://www.w3.org/2000/svg" xmlns:xlink="http://www.w3.org/1999/xlink">
<g id="graph0" class="graph" transform="scale(1 1) rotate(0) translate(4 315)">
<title>triangle.h</title>
<!-- Node1 -->
<g id="node1" class="node">
<title>Node1</title>
<g id="a_node1"><a xlink:title=" ">
<polygon fill="#bfbfbf" stroke="black" points="686.37,-291.5 686.37,-310.5 749.37,-310.5 749.37,-291.5 686.37,-291.5"/>
<text text-anchor="middle" x="717.87" y="-298.5" font-family="Helvetica,sans-Serif" font-size="10.00">triangle.h</text>
</a>
</g>
</g>
<!-- Node2 -->
<g id="node2" class="node">
<title>Node2</title>
<g id="a_node2"><a xlink:href="limes__namespace_8h.html" target="_top" xlink:title=" ">
<polygon fill="none" stroke="black" points="105.87,-0.5 105.87,-19.5 219.87,-19.5 219.87,-0.5 105.87,-0.5"/>
<text text-anchor="middle" x="162.87" y="-7.5" font-family="Helvetica,sans-Serif" font-size="10.00">limes_namespace.h</text>
</a>
</g>
</g>
<!-- Node1&#45;&gt;Node2 -->
<g id="edge1" class="edge">
<title>Node1&#45;&gt;Node2</title>
<path fill="none" stroke="midnightblue" d="M686.13,-298.53C547.37,-291.71 0.87,-260.37 0.87,-190 0.87,-190 0.87,-190 0.87,-126.5 0.87,-94.05 -2.6,-79.42 19.87,-56 39.68,-35.35 68.85,-24.13 95.69,-18.06"/>
<polygon fill="midnightblue" stroke="midnightblue" points="96.74,-21.42 105.83,-15.98 95.33,-14.56 96.74,-21.42"/>
</g>
<!-- Node3 -->
<g id="node3" class="node">
<title>Node3</title>
<g id="a_node3"><a xlink:title=" ">
<polygon fill="none" stroke="#bfbfbf" points="325.37,-0.5 325.37,-19.5 414.37,-19.5 414.37,-0.5 325.37,-0.5"/>
<text text-anchor="middle" x="369.87" y="-7.5" font-family="Helvetica,sans-Serif" font-size="10.00">limes_export.h</text>
</a>
</g>
</g>
<!-- Node1&#45;&gt;Node3 -->
<g id="edge2" class="edge">
<title>Node1&#45;&gt;Node3</title>
<path fill="none" stroke="midnightblue" d="M720.43,-291.25C725.61,-272.74 736.87,-228.18 736.87,-190 736.87,-190 736.87,-190 736.87,-126.5 736.87,-94.05 742.3,-77.35 717.87,-56 675.32,-18.83 511.78,-11.9 424.88,-10.9"/>
<polygon fill="midnightblue" stroke="midnightblue" points="424.71,-7.4 414.68,-10.81 424.64,-14.4 424.71,-7.4"/>
</g>
<!-- Node4 -->
<g id="node4" class="node">
<title>Node4</title>
<g id="a_node4"><a xlink:title=" ">
<polygon fill="none" stroke="#bfbfbf" points="811.87,-0.5 811.87,-19.5 911.87,-19.5 911.87,-0.5 811.87,-0.5"/>
<text text-anchor="middle" x="861.87" y="-7.5" font-family="Helvetica,sans-Serif" font-size="10.00">limes_platform.h</text>
</a>
</g>
</g>
<!-- Node1&#45;&gt;Node4 -->
<g id="edge3" class="edge">
<title>Node1&#45;&gt;Node4</title>
<path fill="none" stroke="midnightblue" d="M749.6,-296.34C832.45,-285.91 1048.87,-252.67 1048.87,-190 1048.87,-190 1048.87,-190 1048.87,-126.5 1048.87,-90.25 1036.24,-78.55 1007.87,-56 983.35,-36.51 950.39,-25.43 921.99,-19.14"/>
<polygon fill="midnightblue" stroke="midnightblue" points="922.65,-15.71 912.15,-17.11 921.24,-22.56 922.65,-15.71"/>
</g>
<!-- Node5 -->
<g id="node5" class="node">
<title>Node5</title>
<g id="a_node5"><a xlink:href="2_dshape_8h.html" target="_top" xlink:title=" ">
<polygon fill="none" stroke="black" points="28.87,-56.5 28.87,-75.5 96.87,-75.5 96.87,-56.5 28.87,-56.5"/>
<text text-anchor="middle" x="62.87" y="-63.5" font-family="Helvetica,sans-Serif" font-size="10.00">2Dshape.h</text>
</a>
</g>
</g>
<!-- Node1&#45;&gt;Node5 -->
<g id="edge4" class="edge">
<title>Node1&#45;&gt;Node5</title>
<path fill="none" stroke="midnightblue" d="M686.17,-296.95C634.11,-291.47 527.51,-278.32 439.87,-255 371.5,-236.81 354.81,-229.27 290.87,-199 212.03,-161.68 124.12,-106.71 84.41,-81.09"/>
<polygon fill="midnightblue" stroke="midnightblue" points="86.11,-78.03 75.82,-75.53 82.3,-83.9 86.11,-78.03"/>
</g>
<!-- Node6 -->
<g id="node6" class="node">
<title>Node6</title>
<g id="a_node6"><a xlink:href="preprocessor_8h.html" target="_top" xlink:title=" ">
<polygon fill="none" stroke="black" points="841.37,-56.5 841.37,-75.5 982.37,-75.5 982.37,-56.5 841.37,-56.5"/>
<text text-anchor="middle" x="911.87" y="-63.5" font-family="Helvetica,sans-Serif" font-size="10.00">../../../misc/preprocessor.h</text>
</a>
</g>
</g>
<!-- Node1&#45;&gt;Node6 -->
<g id="edge7" class="edge">
<title>Node1&#45;&gt;Node6</title>
<path fill="none" stroke="midnightblue" d="M749.76,-292.54C809.07,-276.73 934.82,-233.61 984.87,-143 991.53,-130.94 991.58,-124.03 984.87,-112 976.71,-97.39 961.65,-86.94 947.31,-79.8"/>
<polygon fill="midnightblue" stroke="midnightblue" points="948.63,-76.56 938.08,-75.59 945.72,-82.92 948.63,-76.56"/>
</g>
<!-- Node7 -->
<g id="node7" class="node">
<title>Node7</title>
<g id="a_node7"><a xlink:href="angle_8h.html" target="_top" xlink:title=" ">
<polygon fill="none" stroke="black" points="448.37,-235.5 448.37,-254.5 501.37,-254.5 501.37,-235.5 448.37,-235.5"/>
<text text-anchor="middle" x="474.87" y="-242.5" font-family="Helvetica,sans-Serif" font-size="10.00">angle.h</text>
</a>
</g>
</g>
<!-- Node1&#45;&gt;Node7 -->
<g id="edge9" class="edge">
<title>Node1&#45;&gt;Node7</title>
<path fill="none" stroke="midnightblue" d="M686.1,-292.94C641.03,-282.93 558.76,-264.64 511.28,-254.09"/>
<polygon fill="midnightblue" stroke="midnightblue" points="511.94,-250.65 501.42,-251.9 510.42,-257.49 511.94,-250.65"/>
</g>
<!-- Node8 -->
<g id="node8" class="node">
<title>Node8</title>
<g id="a_node8"><a xlink:href="math_helpers_8h.html" target="_top" xlink:title=" ">
<polygon fill="none" stroke="black" points="421.37,-179.5 421.37,-198.5 528.37,-198.5 528.37,-179.5 421.37,-179.5"/>
<text text-anchor="middle" x="474.87" y="-186.5" font-family="Helvetica,sans-Serif" font-size="10.00">../../mathHelpers.h</text>
</a>
</g>
</g>
<!-- Node1&#45;&gt;Node8 -->
<g id="edge34" class="edge">
<title>Node1&#45;&gt;Node8</title>
<path fill="none" stroke="midnightblue" d="M698.8,-291.37C656.21,-272.09 553.19,-225.45 503.12,-202.79"/>
<polygon fill="midnightblue" stroke="midnightblue" points="504.4,-199.53 493.85,-198.59 501.51,-205.9 504.4,-199.53"/>
</g>
<!-- Node9 -->
<g id="node9" class="node">
<title>Node9</title>
<g id="a_node9"><a xlink:title=" ">
<polygon fill="none" stroke="#bfbfbf" points="928.37,-118 928.37,-137 975.37,-137 975.37,-118 928.37,-118"/>
<text text-anchor="middle" x="951.87" y="-125" font-family="Helvetica,sans-Serif" font-size="10.00">cmath</text>
</a>
</g>
</g>
<!-- Node1&#45;&gt;Node9 -->
<g id="edge35" class="edge">
<title>Node1&#45;&gt;Node9</title>
<path fill="none" stroke="midnightblue" d="M729.47,-291.5C766.9,-264.07 884.72,-177.71 931.98,-143.08"/>
<polygon fill="midnightblue" stroke="midnightblue" points="934.2,-145.79 940.19,-137.06 930.06,-140.14 934.2,-145.79"/>
</g>
<!-- Node5&#45;&gt;Node2 -->
<g id="edge5" class="edge">
<title>Node5&#45;&gt;Node2</title>
<path fill="none" stroke="midnightblue" d="M78.93,-56.32C94.82,-47.74 119.37,-34.49 137.82,-24.52"/>
<polygon fill="midnightblue" stroke="midnightblue" points="139.7,-27.49 146.84,-19.65 136.38,-21.33 139.7,-27.49"/>
</g>
<!-- Node5&#45;&gt;Node3 -->
<g id="edge6" class="edge">
<title>Node5&#45;&gt;Node3</title>
<path fill="none" stroke="midnightblue" d="M96.89,-59.01C149.69,-49.73 251.83,-31.76 315.09,-20.63"/>
<polygon fill="midnightblue" stroke="midnightblue" points="316.04,-24.02 325.28,-18.84 314.83,-17.13 316.04,-24.02"/>
</g>
<!-- Node6&#45;&gt;Node4 -->
<g id="edge8" class="edge">
<title>Node6&#45;&gt;Node4</title>
<path fill="none" stroke="midnightblue" d="M903.61,-56.08C896.4,-48.3 885.76,-36.8 877.02,-27.37"/>
<polygon fill="midnightblue" stroke="midnightblue" points="879.33,-24.71 869.97,-19.75 874.19,-29.47 879.33,-24.71"/>
</g>
<!-- Node7&#45;&gt;Node2 -->
<g id="edge11" class="edge">
<title>Node7&#45;&gt;Node2</title>
<path fill="none" stroke="midnightblue" d="M448.23,-239.47C417.04,-233.41 364.47,-220.81 323.87,-199 248.46,-158.49 192.92,-67.2 171.99,-28.68"/>
<polygon fill="midnightblue" stroke="midnightblue" points="175,-26.88 167.22,-19.69 168.82,-30.16 175,-26.88"/>
</g>
<!-- Node7&#45;&gt;Node3 -->
<g id="edge10" class="edge">
<title>Node7&#45;&gt;Node3</title>
<path fill="none" stroke="midnightblue" d="M448.26,-236.05C407.81,-222.77 330.52,-192.54 282.87,-143 259.99,-119.22 258.16,-108.18 250.87,-76 248.9,-67.33 245.81,-63.31 250.87,-56 265.42,-34.93 291.2,-23.72 315.05,-17.75"/>
<polygon fill="midnightblue" stroke="midnightblue" points="316.12,-21.1 325.12,-15.5 314.6,-14.27 316.12,-21.1"/>
</g>
<!-- Node7&#45;&gt;Node4 -->
<g id="edge12" class="edge">
<title>Node7&#45;&gt;Node4</title>
<path fill="none" stroke="midnightblue" d="M490.52,-235.28C521.4,-218.02 592.25,-178.14 650.87,-143 720.56,-101.22 801.73,-49.59 839.9,-25.13"/>
<polygon fill="midnightblue" stroke="midnightblue" points="842.12,-27.86 848.64,-19.52 838.34,-21.97 842.12,-27.86"/>
</g>
<!-- Node7&#45;&gt;Node8 -->
<g id="edge13" class="edge">
<title>Node7&#45;&gt;Node8</title>
<path fill="none" stroke="midnightblue" d="M474.87,-235.08C474.87,-228.01 474.87,-217.86 474.87,-208.99"/>
<polygon fill="midnightblue" stroke="midnightblue" points="478.37,-208.75 474.87,-198.75 471.37,-208.75 478.37,-208.75"/>
</g>
<!-- Node8&#45;&gt;Node2 -->
<g id="edge14" class="edge">
<title>Node8&#45;&gt;Node2</title>
<path fill="none" stroke="midnightblue" d="M421.17,-184.05C380.8,-179.11 325.36,-167.99 282.87,-143 232.98,-113.66 191.98,-56.82 173.48,-28.26"/>
<polygon fill="midnightblue" stroke="midnightblue" points="176.39,-26.32 168.08,-19.74 170.47,-30.06 176.39,-26.32"/>
</g>
<!-- Node8&#45;&gt;Node3 -->
<g id="edge17" class="edge">
<title>Node8&#45;&gt;Node3</title>
<path fill="none" stroke="midnightblue" d="M427.89,-179.48C375.25,-167.07 292.84,-138.3 258.87,-76 243.57,-47.95 280.03,-30.96 315.18,-21.42"/>
<polygon fill="midnightblue" stroke="midnightblue" points="316.18,-24.77 325.01,-18.92 314.46,-17.99 316.18,-24.77"/>
</g>
<!-- Node8&#45;&gt;Node9 -->
<g id="edge15" class="edge">
<title>Node8&#45;&gt;Node9</title>
<path fill="none" stroke="midnightblue" d="M528.62,-188.13C613.3,-187.11 782.28,-180.06 919.87,-143 922.02,-142.42 924.21,-141.71 926.38,-140.92"/>
<polygon fill="midnightblue" stroke="midnightblue" points="927.74,-144.15 935.64,-137.08 925.06,-137.68 927.74,-144.15"/>
</g>
<!-- Node10 -->
<g id="node10" class="node">
<title>Node10</title>
<g id="a_node10"><a xlink:title=" ">
<polygon fill="none" stroke="#bfbfbf" points="267.37,-56.5 267.37,-75.5 336.37,-75.5 336.37,-56.5 267.37,-56.5"/>
<text text-anchor="middle" x="301.87" y="-63.5" font-family="Helvetica,sans-Serif" font-size="10.00">type_traits</text>
</a>
</g>
</g>
<!-- Node8&#45;&gt;Node10 -->
<g id="edge16" class="edge">
<title>Node8&#45;&gt;Node10</title>
<path fill="none" stroke="midnightblue" d="M462.7,-179.49C433.49,-159.06 359.11,-107.04 322.65,-81.54"/>
<polygon fill="midnightblue" stroke="midnightblue" points="324.45,-78.52 314.25,-75.66 320.44,-84.26 324.45,-78.52"/>
</g>
<!-- Node11 -->
<g id="node11" class="node">
<title>Node11</title>
<g id="a_node11"><a xlink:title=" ">
<polygon fill="none" stroke="#bfbfbf" points="423.87,-118 423.87,-137 487.87,-137 487.87,-118 423.87,-118"/>
<text text-anchor="middle" x="455.87" y="-125" font-family="Helvetica,sans-Serif" font-size="10.00">algorithm</text>
</a>
</g>
</g>
<!-- Node8&#45;&gt;Node11 -->
<g id="edge18" class="edge">
<title>Node8&#45;&gt;Node11</title>
<path fill="none" stroke="midnightblue" d="M472.14,-179.48C469.43,-170.99 465.19,-157.7 461.72,-146.82"/>
<polygon fill="midnightblue" stroke="midnightblue" points="464.96,-145.47 458.58,-137.01 458.29,-147.6 464.96,-145.47"/>
</g>
<!-- Node12 -->
<g id="node12" class="node">
<title>Node12</title>
<g id="a_node12"><a xlink:href="limes__assert_8h.html" target="_top" xlink:title=" ">
<polygon fill="none" stroke="black" points="505.87,-118 505.87,-137 641.87,-137 641.87,-118 505.87,-118"/>
<text text-anchor="middle" x="573.87" y="-125" font-family="Helvetica,sans-Serif" font-size="10.00">../system/limes_assert.h</text>
</a>
</g>
</g>
<!-- Node8&#45;&gt;Node12 -->
<g id="edge19" class="edge">
<title>Node8&#45;&gt;Node12</title>
<path fill="none" stroke="midnightblue" d="M489.05,-179.48C505.22,-169.75 531.89,-153.73 551.01,-142.24"/>
<polygon fill="midnightblue" stroke="midnightblue" points="552.94,-145.16 559.71,-137.01 549.33,-139.16 552.94,-145.16"/>
</g>
<!-- Node16 -->
<g id="node16" class="node">
<title>Node16</title>
<g id="a_node16"><a xlink:href="compiler__defs_8h.html" target="_top" xlink:title=" ">
<polygon fill="none" stroke="black" points="803.37,-112.5 803.37,-142.5 910.37,-142.5 910.37,-112.5 803.37,-112.5"/>
<text text-anchor="start" x="811.37" y="-130.5" font-family="Helvetica,sans-Serif" font-size="10.00">../system/compiler</text>
<text text-anchor="middle" x="856.87" y="-119.5" font-family="Helvetica,sans-Serif" font-size="10.00">_defs.h</text>
</a>
</g>
</g>
<!-- Node8&#45;&gt;Node16 -->
<g id="edge31" class="edge">
<title>Node8&#45;&gt;Node16</title>
<path fill="none" stroke="midnightblue" d="M528.38,-179.66C597.81,-168.85 718.78,-150.01 792.95,-138.46"/>
<polygon fill="midnightblue" stroke="midnightblue" points="793.75,-141.87 803.09,-136.88 792.68,-134.96 793.75,-141.87"/>
</g>
<!-- Node12&#45;&gt;Node2 -->
<g id="edge21" class="edge">
<title>Node12&#45;&gt;Node2</title>
<path fill="none" stroke="midnightblue" d="M530.73,-117.94C491.64,-109.5 432.83,-95.11 383.87,-76 366.09,-69.06 363.71,-62.77 345.87,-56 305.33,-40.61 257.71,-29.09 221.21,-21.57"/>
<polygon fill="midnightblue" stroke="midnightblue" points="221.72,-18.1 211.23,-19.55 220.34,-24.96 221.72,-18.1"/>
</g>
<!-- Node12&#45;&gt;Node3 -->
<g id="edge20" class="edge">
<title>Node12&#45;&gt;Node3</title>
<path fill="none" stroke="midnightblue" d="M570.79,-117.66C565.12,-102.67 551.57,-72.27 529.87,-56 499.32,-33.09 457.61,-21.84 424.43,-16.32"/>
<polygon fill="midnightblue" stroke="midnightblue" points="424.85,-12.84 414.43,-14.78 423.79,-19.76 424.85,-12.84"/>
</g>
<!-- Node12&#45;&gt;Node4 -->
<g id="edge29" class="edge">
<title>Node12&#45;&gt;Node4</title>
<path fill="none" stroke="midnightblue" d="M600.4,-117.96C629.48,-108.43 677.4,-92.19 717.87,-76 759.33,-59.41 806.29,-37.63 834.99,-23.97"/>
<polygon fill="midnightblue" stroke="midnightblue" points="836.83,-26.98 844.34,-19.5 833.81,-20.66 836.83,-26.98"/>
</g>
<!-- Node12&#45;&gt;Node6 -->
<g id="edge22" class="edge">
<title>Node12&#45;&gt;Node6</title>
<path fill="none" stroke="midnightblue" d="M622.29,-117.98C683.28,-107.24 787.99,-88.81 853.38,-77.29"/>
<polygon fill="midnightblue" stroke="midnightblue" points="854.29,-80.69 863.53,-75.51 853.07,-73.8 854.29,-80.69"/>
</g>
<!-- Node12&#45;&gt;Node10 -->
<g id="edge23" class="edge">
<title>Node12&#45;&gt;Node10</title>
<path fill="none" stroke="midnightblue" d="M534.9,-117.98C485.04,-107.07 398.9,-88.23 346.47,-76.76"/>
<polygon fill="midnightblue" stroke="midnightblue" points="346.97,-73.28 336.46,-74.57 345.48,-80.12 346.97,-73.28"/>
</g>
<!-- Node13 -->
<g id="node13" class="node">
<title>Node13</title>
<g id="a_node13"><a xlink:title=" ">
<polygon fill="none" stroke="#bfbfbf" points="577.37,-56.5 577.37,-75.5 622.37,-75.5 622.37,-56.5 577.37,-56.5"/>
<text text-anchor="middle" x="599.87" y="-63.5" font-family="Helvetica,sans-Serif" font-size="10.00">utility</text>
</a>
</g>
</g>
<!-- Node12&#45;&gt;Node13 -->
<g id="edge24" class="edge">
<title>Node12&#45;&gt;Node13</title>
<path fill="none" stroke="midnightblue" d="M577.59,-117.98C581.34,-109.4 587.23,-95.93 592.01,-84.98"/>
<polygon fill="midnightblue" stroke="midnightblue" points="595.35,-86.07 596.15,-75.51 588.94,-83.27 595.35,-86.07"/>
</g>
<!-- Node14 -->
<g id="node14" class="node">
<title>Node14</title>
<g id="a_node14"><a xlink:href="_ignore_unused_8h.html" target="_top" xlink:title=" ">
<polygon fill="none" stroke="black" points="392.87,-56.5 392.87,-75.5 520.87,-75.5 520.87,-56.5 392.87,-56.5"/>
<text text-anchor="middle" x="456.87" y="-63.5" font-family="Helvetica,sans-Serif" font-size="10.00">../misc/IgnoreUnused.h</text>
</a>
</g>
</g>
<!-- Node12&#45;&gt;Node14 -->
<g id="edge25" class="edge">
<title>Node12&#45;&gt;Node14</title>
<path fill="none" stroke="midnightblue" d="M557.1,-117.98C537.64,-108.08 505.32,-91.64 482.66,-80.12"/>
<polygon fill="midnightblue" stroke="midnightblue" points="484.1,-76.92 473.6,-75.51 480.93,-83.16 484.1,-76.92"/>
</g>
<!-- Node15 -->
<g id="node15" class="node">
<title>Node15</title>
<g id="a_node15"><a xlink:title=" ">
<polygon fill="none" stroke="#bfbfbf" points="640.87,-56.5 640.87,-75.5 708.87,-75.5 708.87,-56.5 640.87,-56.5"/>
<text text-anchor="middle" x="674.87" y="-63.5" font-family="Helvetica,sans-Serif" font-size="10.00">filesystem</text>
</a>
</g>
</g>
<!-- Node12&#45;&gt;Node15 -->
<g id="edge30" class="edge">
<title>Node12&#45;&gt;Node15</title>
<path fill="none" stroke="midnightblue" d="M588.34,-117.98C604.84,-108.25 632.04,-92.23 651.55,-80.74"/>
<polygon fill="midnightblue" stroke="midnightblue" points="653.58,-83.6 660.42,-75.51 650.03,-77.57 653.58,-83.6"/>
</g>
<!-- Node14&#45;&gt;Node2 -->
<g id="edge27" class="edge">
<title>Node14&#45;&gt;Node2</title>
<path fill="none" stroke="midnightblue" d="M410.28,-56.44C358.46,-46.92 274.73,-31.55 219.25,-21.36"/>
<polygon fill="midnightblue" stroke="midnightblue" points="219.7,-17.88 209.23,-19.52 218.44,-24.77 219.7,-17.88"/>
</g>
<!-- Node14&#45;&gt;Node3 -->
<g id="edge26" class="edge">
<title>Node14&#45;&gt;Node3</title>
<path fill="none" stroke="midnightblue" d="M442.89,-56.32C429.32,-47.9 408.49,-34.97 392.54,-25.07"/>
<polygon fill="midnightblue" stroke="midnightblue" points="394.15,-21.95 383.81,-19.65 390.46,-27.9 394.15,-21.95"/>
</g>
<!-- Node14&#45;&gt;Node4 -->
<g id="edge28" class="edge">
<title>Node14&#45;&gt;Node4</title>
<path fill="none" stroke="midnightblue" d="M521.04,-56.44C598.05,-46.18 726.18,-29.09 801.47,-19.05"/>
<polygon fill="midnightblue" stroke="midnightblue" points="802.28,-22.48 811.73,-17.68 801.36,-15.54 802.28,-22.48"/>
</g>
<!-- Node16&#45;&gt;Node4 -->
<g id="edge32" class="edge">
<title>Node16&#45;&gt;Node4</title>
<path fill="none" stroke="midnightblue" d="M910.56,-113.14C943.84,-103.66 982.06,-90.14 991.87,-76 1013.28,-45.13 965.8,-28.18 922.33,-19.4"/>
<polygon fill="midnightblue" stroke="midnightblue" points="922.76,-15.92 912.28,-17.49 921.45,-22.8 922.76,-15.92"/>
</g>
<!-- Node16&#45;&gt;Node6 -->
<g id="edge33" class="edge">
<title>Node16&#45;&gt;Node6</title>
<path fill="none" stroke="midnightblue" d="M869.9,-112.4C878.06,-103.58 888.59,-92.18 897.06,-83.02"/>
<polygon fill="midnightblue" stroke="midnightblue" points="899.65,-85.38 903.86,-75.66 894.5,-80.63 899.65,-85.38"/>
</g>
</g>
</svg>
