<?xml version="1.0" encoding="UTF-8" standalone="no"?>
<!DOCTYPE svg PUBLIC "-//W3C//DTD SVG 1.1//EN"
 "http://www.w3.org/Graphics/SVG/1.1/DTD/svg11.dtd">
<!-- Generated by graphviz version 2.43.0 (0)
 -->
<!-- Title: triangular_prism.h Pages: 1 -->
<!--zoomable 364 -->
<svg id="main" version="1.1" xmlns="http://www.w3.org/2000/svg" xmlns:xlink="http://www.w3.org/1999/xlink" xml:space="preserve" onload="init(evt)">
<style type="text/css"><![CDATA[
.edge:hover path { stroke: red; }
.edge:hover polygon { stroke: red; fill: red; }
]]></style>
<script type="text/javascript"><![CDATA[
var edges = document.getElementsByTagName('g');
if (edges && edges.length) {
  for (var i=0;i<edges.length;i++) {
    if (edges[i].id.substr(0,4)=='edge') {
      edges[i].setAttribute('class','edge');
    }
  }
}
]]></script>
        <defs>
                <circle id="rim" cx="0" cy="0" r="7"/>
                <circle id="rim2" cx="0" cy="0" r="3.5"/>
                <g id="zoomPlus">
                        <use xlink:href="#rim" fill="#404040">
                                <set attributeName="fill" to="#808080" begin="zoomplus.mouseover" end="zoomplus.mouseout"/>
                        </use>
                        <path d="M-4,0h8M0,-4v8" fill="none" stroke="white" stroke-width="1.5" pointer-events="none"/>
                </g>
                <g id="zoomMin">
                        <use xlink:href="#rim" fill="#404040">
                                <set attributeName="fill" to="#808080" begin="zoomminus.mouseover" end="zoomminus.mouseout"/>
                        </use>
                        <path d="M-4,0h8" fill="none" stroke="white" stroke-width="1.5" pointer-events="none"/>
                </g>
                <g id="dirArrow">
                        <path fill="none" stroke="white" stroke-width="1.5" d="M0,-3.0v7 M-2.5,-0.5L0,-3.0L2.5,-0.5"/>
                </g>
               <g id="resetDef">
                       <use xlink:href="#rim2" fill="#404040">
                               <set attributeName="fill" to="#808080" begin="reset.mouseover" end="reset.mouseout"/>
                       </use>
               </g>
        </defs>

<script type="text/javascript">
var viewWidth = 1345;
var viewHeight = 364;
var sectionId = 'dynsection-0';
</script>
<script xlink:href="svgpan.js"/>
<svg id="graph" class="graph">
<g id="viewport">
<title>triangular_prism.h</title>
<!-- Node1 -->
<g id="node1" class="node">
<title>Node1</title>
<g id="a_node1"><a xlink:title=" ">
<polygon fill="#bfbfbf" stroke="black" points="646,-336.5 646,-355.5 752,-355.5 752,-336.5 646,-336.5"/>
<text text-anchor="middle" x="699" y="-343.5" font-family="Helvetica,sans-Serif" font-size="10.00">triangular_prism.h</text>
</a>
</g>
</g>
<!-- Node2 -->
<g id="node2" class="node">
<title>Node2</title>
<g id="a_node2"><a xlink:href="limes__namespace_8h.html" target="_top" xlink:title=" ">
<polygon fill="none" stroke="black" points="124,-0.5 124,-19.5 238,-19.5 238,-0.5 124,-0.5"/>
<text text-anchor="middle" x="181" y="-7.5" font-family="Helvetica,sans-Serif" font-size="10.00">limes_namespace.h</text>
</a>
</g>
</g>
<!-- Node1&#45;&gt;Node2 -->
<g id="edge1" class="edge">
<title>Node1&#45;&gt;Node2</title>
<path fill="none" stroke="midnightblue" d="M645.8,-345.64C548.71,-345.69 336.86,-340.59 164,-300 87.67,-282.08 0,-313.41 0,-235 0,-235 0,-235 0,-121 0,-63.66 67.17,-35.36 119.67,-22"/>
<polygon fill="midnightblue" stroke="midnightblue" points="120.72,-25.34 129.62,-19.59 119.07,-18.54 120.72,-25.34"/>
</g>
<!-- Node3 -->
<g id="node3" class="node">
<title>Node3</title>
<g id="a_node3"><a xlink:title=" ">
<polygon fill="none" stroke="#bfbfbf" points="681.5,-0.5 681.5,-19.5 770.5,-19.5 770.5,-0.5 681.5,-0.5"/>
<text text-anchor="middle" x="726" y="-7.5" font-family="Helvetica,sans-Serif" font-size="10.00">limes_export.h</text>
</a>
</g>
</g>
<!-- Node1&#45;&gt;Node3 -->
<g id="edge2" class="edge">
<title>Node1&#45;&gt;Node3</title>
<path fill="none" stroke="midnightblue" d="M649.01,-336.46C566.78,-320.97 412,-285.16 412,-235 412,-235 412,-235 412,-121 412,-82.58 435.51,-74.83 469,-56 502.83,-36.99 606.49,-23.27 671.36,-16.27"/>
<polygon fill="midnightblue" stroke="midnightblue" points="671.85,-19.74 681.42,-15.21 671.11,-12.78 671.85,-19.74"/>
</g>
<!-- Node4 -->
<g id="node4" class="node">
<title>Node4</title>
<g id="a_node4"><a xlink:title=" ">
<polygon fill="none" stroke="#bfbfbf" points="1150,-0.5 1150,-19.5 1250,-19.5 1250,-0.5 1150,-0.5"/>
<text text-anchor="middle" x="1200" y="-7.5" font-family="Helvetica,sans-Serif" font-size="10.00">limes_platform.h</text>
</a>
</g>
</g>
<!-- Node1&#45;&gt;Node4 -->
<g id="edge3" class="edge">
<title>Node1&#45;&gt;Node4</title>
<path fill="none" stroke="midnightblue" d="M752.25,-343.4C867.75,-339.44 1137.92,-327.47 1225,-300 1279.89,-282.68 1337,-292.55 1337,-235 1337,-235 1337,-235 1337,-121 1337,-70 1278.55,-38.69 1238.01,-23.11"/>
<polygon fill="midnightblue" stroke="midnightblue" points="1238.98,-19.74 1228.39,-19.58 1236.57,-26.31 1238.98,-19.74"/>
</g>
<!-- Node5 -->
<g id="node5" class="node">
<title>Node5</title>
<g id="a_node5"><a xlink:href="preprocessor_8h.html" target="_top" xlink:title=" ">
<polygon fill="none" stroke="black" points="1129.5,-56.5 1129.5,-75.5 1270.5,-75.5 1270.5,-56.5 1129.5,-56.5"/>
<text text-anchor="middle" x="1200" y="-63.5" font-family="Helvetica,sans-Serif" font-size="10.00">../../../misc/preprocessor.h</text>
</a>
</g>
</g>
<!-- Node1&#45;&gt;Node5 -->
<g id="edge4" class="edge">
<title>Node1&#45;&gt;Node5</title>
<path fill="none" stroke="midnightblue" d="M752.12,-345.76C892.22,-346.34 1261,-338.09 1261,-235 1261,-235 1261,-235 1261,-177 1261,-139.57 1233.66,-102.96 1215.59,-82.84"/>
<polygon fill="midnightblue" stroke="midnightblue" points="1218.12,-80.43 1208.74,-75.51 1213.01,-85.21 1218.12,-80.43"/>
</g>
<!-- Node6 -->
<g id="node6" class="node">
<title>Node6</title>
<g id="a_node6"><a xlink:href="triangle_8h.html" target="_top" xlink:title=" ">
<polygon fill="none" stroke="black" points="915.5,-280.5 915.5,-299.5 1004.5,-299.5 1004.5,-280.5 915.5,-280.5"/>
<text text-anchor="middle" x="960" y="-287.5" font-family="Helvetica,sans-Serif" font-size="10.00">../2D/triangle.h</text>
</a>
</g>
</g>
<!-- Node1&#45;&gt;Node6 -->
<g id="edge6" class="edge">
<title>Node1&#45;&gt;Node6</title>
<path fill="none" stroke="midnightblue" d="M740.36,-336.44C786.08,-326.98 859.76,-311.74 909.02,-301.55"/>
<polygon fill="midnightblue" stroke="midnightblue" points="909.75,-304.97 918.84,-299.52 908.34,-298.12 909.75,-304.97"/>
</g>
<!-- Node18 -->
<g id="node18" class="node">
<title>Node18</title>
<g id="a_node18"><a xlink:href="3_dshape_8h.html" target="_top" xlink:title=" ">
<polygon fill="none" stroke="black" points="104,-56.5 104,-75.5 172,-75.5 172,-56.5 104,-56.5"/>
<text text-anchor="middle" x="138" y="-63.5" font-family="Helvetica,sans-Serif" font-size="10.00">3Dshape.h</text>
</a>
</g>
</g>
<!-- Node1&#45;&gt;Node18 -->
<g id="edge38" class="edge">
<title>Node1&#45;&gt;Node18</title>
<path fill="none" stroke="midnightblue" d="M645.97,-345.74C506.13,-346.28 138,-337.91 138,-235 138,-235 138,-235 138,-177 138,-144.95 138,-107.64 138,-85.75"/>
<polygon fill="midnightblue" stroke="midnightblue" points="141.5,-85.56 138,-75.56 134.5,-85.56 141.5,-85.56"/>
</g>
<!-- Node5&#45;&gt;Node4 -->
<g id="edge5" class="edge">
<title>Node5&#45;&gt;Node4</title>
<path fill="none" stroke="midnightblue" d="M1200,-56.08C1200,-49.01 1200,-38.86 1200,-29.99"/>
<polygon fill="midnightblue" stroke="midnightblue" points="1203.5,-29.75 1200,-19.75 1196.5,-29.75 1203.5,-29.75"/>
</g>
<!-- Node6&#45;&gt;Node2 -->
<g id="edge7" class="edge">
<title>Node6&#45;&gt;Node2</title>
<path fill="none" stroke="midnightblue" d="M915.22,-288.42C730.58,-285.47 38,-268.42 38,-179 38,-179 38,-179 38,-121 38,-68.84 98.51,-37.99 140.81,-22.8"/>
<polygon fill="midnightblue" stroke="midnightblue" points="142,-26.09 150.32,-19.54 139.73,-19.47 142,-26.09"/>
</g>
<!-- Node6&#45;&gt;Node3 -->
<g id="edge8" class="edge">
<title>Node6&#45;&gt;Node3</title>
<path fill="none" stroke="midnightblue" d="M975.16,-280.44C987.39,-272.65 1003.84,-259.94 1012,-244 1050.66,-168.49 1051.5,-100.05 979,-56 946.43,-36.21 844.64,-22.79 780.53,-16.05"/>
<polygon fill="midnightblue" stroke="midnightblue" points="780.89,-12.57 770.58,-15.03 780.17,-19.54 780.89,-12.57"/>
</g>
<!-- Node6&#45;&gt;Node4 -->
<g id="edge9" class="edge">
<title>Node6&#45;&gt;Node4</title>
<path fill="none" stroke="midnightblue" d="M1004.67,-285.37C1042.58,-280.57 1097.18,-269.5 1138,-244 1220.92,-192.21 1246.4,-167.81 1280,-76 1283.06,-67.65 1284.49,-63.67 1280,-56 1271.14,-40.85 1255.09,-30.41 1239.69,-23.42"/>
<polygon fill="midnightblue" stroke="midnightblue" points="1240.83,-20.11 1230.25,-19.51 1238.15,-26.57 1240.83,-20.11"/>
</g>
<!-- Node6&#45;&gt;Node5 -->
<g id="edge13" class="edge">
<title>Node6&#45;&gt;Node5</title>
<path fill="none" stroke="midnightblue" d="M1004.67,-285.77C1038.39,-281.21 1084,-270.26 1115,-244 1165.46,-201.25 1188.26,-121.64 1196.34,-85.59"/>
<polygon fill="midnightblue" stroke="midnightblue" points="1199.82,-86.03 1198.46,-75.52 1192.97,-84.58 1199.82,-86.03"/>
</g>
<!-- Node7 -->
<g id="node7" class="node">
<title>Node7</title>
<g id="a_node7"><a xlink:href="2_dshape_8h.html" target="_top" xlink:title=" ">
<polygon fill="none" stroke="black" points="190,-56.5 190,-75.5 258,-75.5 258,-56.5 190,-56.5"/>
<text text-anchor="middle" x="224" y="-63.5" font-family="Helvetica,sans-Serif" font-size="10.00">2Dshape.h</text>
</a>
</g>
</g>
<!-- Node6&#45;&gt;Node7 -->
<g id="edge10" class="edge">
<title>Node6&#45;&gt;Node7</title>
<path fill="none" stroke="midnightblue" d="M915.39,-288.12C779.28,-284.6 372.47,-267.51 272,-188 240.06,-162.72 229.3,-113.05 225.73,-85.87"/>
<polygon fill="midnightblue" stroke="midnightblue" points="229.19,-85.29 224.6,-75.74 222.23,-86.06 229.19,-85.29"/>
</g>
<!-- Node8 -->
<g id="node8" class="node">
<title>Node8</title>
<g id="a_node8"><a xlink:href="angle_8h.html" target="_top" xlink:title=" ">
<polygon fill="none" stroke="black" points="933.5,-224.5 933.5,-243.5 986.5,-243.5 986.5,-224.5 933.5,-224.5"/>
<text text-anchor="middle" x="960" y="-231.5" font-family="Helvetica,sans-Serif" font-size="10.00">angle.h</text>
</a>
</g>
</g>
<!-- Node6&#45;&gt;Node8 -->
<g id="edge14" class="edge">
<title>Node6&#45;&gt;Node8</title>
<path fill="none" stroke="midnightblue" d="M960,-280.08C960,-273.01 960,-262.86 960,-253.99"/>
<polygon fill="midnightblue" stroke="midnightblue" points="963.5,-253.75 960,-243.75 956.5,-253.75 963.5,-253.75"/>
</g>
<!-- Node9 -->
<g id="node9" class="node">
<title>Node9</title>
<g id="a_node9"><a xlink:href="math_helpers_8h.html" target="_top" xlink:title=" ">
<polygon fill="none" stroke="black" points="811.5,-168.5 811.5,-187.5 918.5,-187.5 918.5,-168.5 811.5,-168.5"/>
<text text-anchor="middle" x="865" y="-175.5" font-family="Helvetica,sans-Serif" font-size="10.00">../../mathHelpers.h</text>
</a>
</g>
</g>
<!-- Node6&#45;&gt;Node9 -->
<g id="edge36" class="edge">
<title>Node6&#45;&gt;Node9</title>
<path fill="none" stroke="midnightblue" d="M952.55,-280.37C936.73,-262.05 899.59,-219.05 879.13,-195.36"/>
<polygon fill="midnightblue" stroke="midnightblue" points="881.6,-192.87 872.42,-187.59 876.31,-197.45 881.6,-192.87"/>
</g>
<!-- Node10 -->
<g id="node10" class="node">
<title>Node10</title>
<g id="a_node10"><a xlink:title=" ">
<polygon fill="none" stroke="#bfbfbf" points="949.5,-112.5 949.5,-131.5 996.5,-131.5 996.5,-112.5 949.5,-112.5"/>
<text text-anchor="middle" x="973" y="-119.5" font-family="Helvetica,sans-Serif" font-size="10.00">cmath</text>
</a>
</g>
</g>
<!-- Node6&#45;&gt;Node10 -->
<g id="edge37" class="edge">
<title>Node6&#45;&gt;Node10</title>
<path fill="none" stroke="midnightblue" d="M970.16,-280.19C978.91,-271.87 990.9,-258.54 996,-244 1008.39,-208.67 993.07,-165.07 982.15,-141.03"/>
<polygon fill="midnightblue" stroke="midnightblue" points="985.18,-139.24 977.7,-131.74 978.87,-142.27 985.18,-139.24"/>
</g>
<!-- Node7&#45;&gt;Node2 -->
<g id="edge11" class="edge">
<title>Node7&#45;&gt;Node2</title>
<path fill="none" stroke="midnightblue" d="M216.9,-56.08C210.76,-48.38 201.73,-37.03 194.26,-27.65"/>
<polygon fill="midnightblue" stroke="midnightblue" points="196.94,-25.39 187.97,-19.75 191.46,-29.75 196.94,-25.39"/>
</g>
<!-- Node7&#45;&gt;Node3 -->
<g id="edge12" class="edge">
<title>Node7&#45;&gt;Node3</title>
<path fill="none" stroke="midnightblue" d="M258.31,-61.21C273,-59.6 290.34,-57.7 306,-56 436.83,-41.81 590.61,-25.4 670.88,-16.86"/>
<polygon fill="midnightblue" stroke="midnightblue" points="671.67,-20.3 681.24,-15.76 670.93,-13.34 671.67,-20.3"/>
</g>
<!-- Node8&#45;&gt;Node2 -->
<g id="edge16" class="edge">
<title>Node8&#45;&gt;Node2</title>
<path fill="none" stroke="midnightblue" d="M933.46,-229.02C843.32,-215 541.45,-163.97 306,-76 303.41,-75.03 242.1,-43 206.33,-24.27"/>
<polygon fill="midnightblue" stroke="midnightblue" points="207.89,-21.14 197.41,-19.6 204.64,-27.34 207.89,-21.14"/>
</g>
<!-- Node8&#45;&gt;Node3 -->
<g id="edge15" class="edge">
<title>Node8&#45;&gt;Node3</title>
<path fill="none" stroke="midnightblue" d="M968.08,-224.49C986.2,-204.32 1026.96,-152.27 1006,-112 964.46,-32.22 849.96,-14.23 780.92,-10.9"/>
<polygon fill="midnightblue" stroke="midnightblue" points="780.8,-7.39 770.67,-10.49 780.52,-14.38 780.8,-7.39"/>
</g>
<!-- Node8&#45;&gt;Node4 -->
<g id="edge17" class="edge">
<title>Node8&#45;&gt;Node4</title>
<path fill="none" stroke="midnightblue" d="M970.58,-224.48C981.2,-215.74 997.83,-201.55 1011,-188 1064.23,-133.24 1062.44,-105.02 1121,-56 1136.24,-43.25 1155.59,-32.16 1171.33,-24.18"/>
<polygon fill="midnightblue" stroke="midnightblue" points="1173.16,-27.17 1180.59,-19.62 1170.07,-20.89 1173.16,-27.17"/>
</g>
<!-- Node8&#45;&gt;Node9 -->
<g id="edge18" class="edge">
<title>Node8&#45;&gt;Node9</title>
<path fill="none" stroke="midnightblue" d="M944.74,-224.32C929.78,-215.82 906.75,-202.73 889.27,-192.8"/>
<polygon fill="midnightblue" stroke="midnightblue" points="890.65,-189.55 880.23,-187.65 887.19,-195.64 890.65,-189.55"/>
</g>
<!-- Node9&#45;&gt;Node2 -->
<g id="edge19" class="edge">
<title>Node9&#45;&gt;Node2</title>
<path fill="none" stroke="midnightblue" d="M811.43,-173.99C644.55,-164.09 142.38,-130 95,-76 75.76,-54.07 111.83,-34.75 142.99,-22.99"/>
<polygon fill="midnightblue" stroke="midnightblue" points="144.22,-26.27 152.44,-19.59 141.85,-19.68 144.22,-26.27"/>
</g>
<!-- Node9&#45;&gt;Node3 -->
<g id="edge22" class="edge">
<title>Node9&#45;&gt;Node3</title>
<path fill="none" stroke="midnightblue" d="M874.73,-168.42C883.49,-160.08 895.89,-146.55 902,-132 915.11,-100.76 928.89,-82.68 908,-56 892.36,-36.02 828.26,-23.69 780.54,-17.1"/>
<polygon fill="midnightblue" stroke="midnightblue" points="781,-13.63 770.62,-15.78 780.07,-20.56 781,-13.63"/>
</g>
<!-- Node9&#45;&gt;Node10 -->
<g id="edge20" class="edge">
<title>Node9&#45;&gt;Node10</title>
<path fill="none" stroke="midnightblue" d="M882.35,-168.32C899.67,-159.66 926.52,-146.24 946.5,-136.25"/>
<polygon fill="midnightblue" stroke="midnightblue" points="948.31,-139.26 955.69,-131.65 945.18,-133 948.31,-139.26"/>
</g>
<!-- Node11 -->
<g id="node11" class="node">
<title>Node11</title>
<g id="a_node11"><a xlink:title=" ">
<polygon fill="none" stroke="#bfbfbf" points="314.5,-56.5 314.5,-75.5 383.5,-75.5 383.5,-56.5 314.5,-56.5"/>
<text text-anchor="middle" x="349" y="-63.5" font-family="Helvetica,sans-Serif" font-size="10.00">type_traits</text>
</a>
</g>
</g>
<!-- Node9&#45;&gt;Node11 -->
<g id="edge21" class="edge">
<title>Node9&#45;&gt;Node11</title>
<path fill="none" stroke="midnightblue" d="M824.94,-168.46C730.14,-148.25 492.62,-97.62 393.52,-76.49"/>
<polygon fill="midnightblue" stroke="midnightblue" points="394.04,-73.02 383.53,-74.36 392.58,-79.87 394.04,-73.02"/>
</g>
<!-- Node12 -->
<g id="node12" class="node">
<title>Node12</title>
<g id="a_node12"><a xlink:title=" ">
<polygon fill="none" stroke="#bfbfbf" points="675,-112.5 675,-131.5 739,-131.5 739,-112.5 675,-112.5"/>
<text text-anchor="middle" x="707" y="-119.5" font-family="Helvetica,sans-Serif" font-size="10.00">algorithm</text>
</a>
</g>
</g>
<!-- Node9&#45;&gt;Node12 -->
<g id="edge23" class="edge">
<title>Node9&#45;&gt;Node12</title>
<path fill="none" stroke="midnightblue" d="M839.96,-168.44C813.38,-159.36 771.19,-144.94 741.48,-134.78"/>
<polygon fill="midnightblue" stroke="midnightblue" points="742.51,-131.44 731.92,-131.52 740.25,-138.06 742.51,-131.44"/>
</g>
<!-- Node13 -->
<g id="node13" class="node">
<title>Node13</title>
<g id="a_node13"><a xlink:href="limes__assert_8h.html" target="_top" xlink:title=" ">
<polygon fill="none" stroke="black" points="757,-112.5 757,-131.5 893,-131.5 893,-112.5 757,-112.5"/>
<text text-anchor="middle" x="825" y="-119.5" font-family="Helvetica,sans-Serif" font-size="10.00">../system/limes_assert.h</text>
</a>
</g>
</g>
<!-- Node9&#45;&gt;Node13 -->
<g id="edge24" class="edge">
<title>Node9&#45;&gt;Node13</title>
<path fill="none" stroke="midnightblue" d="M858.39,-168.08C852.74,-160.46 844.46,-149.26 837.55,-139.94"/>
<polygon fill="midnightblue" stroke="midnightblue" points="840.25,-137.7 831.48,-131.75 834.62,-141.87 840.25,-137.7"/>
</g>
<!-- Node13&#45;&gt;Node2 -->
<g id="edge26" class="edge">
<title>Node13&#45;&gt;Node2</title>
<path fill="none" stroke="midnightblue" d="M756.78,-112.87C661.34,-101.42 496.52,-81.34 469,-76 434.71,-69.35 426.98,-64.07 393,-56 339.12,-43.2 277.11,-30.24 234.13,-21.54"/>
<polygon fill="midnightblue" stroke="midnightblue" points="234.67,-18.08 224.18,-19.53 233.29,-24.94 234.67,-18.08"/>
</g>
<!-- Node13&#45;&gt;Node3 -->
<g id="edge25" class="edge">
<title>Node13&#45;&gt;Node3</title>
<path fill="none" stroke="midnightblue" d="M846.05,-112.36C871.6,-100.63 909.23,-78.53 892,-56 878.4,-38.22 823.76,-25.82 780.83,-18.61"/>
<polygon fill="midnightblue" stroke="midnightblue" points="781.2,-15.12 770.76,-16.98 780.07,-22.03 781.2,-15.12"/>
</g>
<!-- Node13&#45;&gt;Node4 -->
<g id="edge34" class="edge">
<title>Node13&#45;&gt;Node4</title>
<path fill="none" stroke="midnightblue" d="M854.11,-112.46C920.92,-92.86 1085.29,-44.65 1160.85,-22.48"/>
<polygon fill="midnightblue" stroke="midnightblue" points="1162.29,-25.71 1170.9,-19.53 1160.32,-18.99 1162.29,-25.71"/>
</g>
<!-- Node13&#45;&gt;Node5 -->
<g id="edge27" class="edge">
<title>Node13&#45;&gt;Node5</title>
<path fill="none" stroke="midnightblue" d="M884.42,-112.44C951.35,-102.81 1059.98,-87.16 1130.71,-76.98"/>
<polygon fill="midnightblue" stroke="midnightblue" points="1131.46,-80.41 1140.86,-75.52 1130.46,-73.48 1131.46,-80.41"/>
</g>
<!-- Node13&#45;&gt;Node11 -->
<g id="edge28" class="edge">
<title>Node13&#45;&gt;Node11</title>
<path fill="none" stroke="midnightblue" d="M756.98,-113.03C753.95,-112.68 750.94,-112.34 748,-112 619.61,-97.26 467.94,-80.27 394.02,-72.02"/>
<polygon fill="midnightblue" stroke="midnightblue" points="394.02,-68.5 383.7,-70.87 393.25,-75.45 394.02,-68.5"/>
</g>
<!-- Node14 -->
<g id="node14" class="node">
<title>Node14</title>
<g id="a_node14"><a xlink:title=" ">
<polygon fill="none" stroke="#bfbfbf" points="624.5,-56.5 624.5,-75.5 669.5,-75.5 669.5,-56.5 624.5,-56.5"/>
<text text-anchor="middle" x="647" y="-63.5" font-family="Helvetica,sans-Serif" font-size="10.00">utility</text>
</a>
</g>
</g>
<!-- Node13&#45;&gt;Node14 -->
<g id="edge29" class="edge">
<title>Node13&#45;&gt;Node14</title>
<path fill="none" stroke="midnightblue" d="M796.8,-112.44C764.9,-102.77 713.06,-87.04 679.49,-76.86"/>
<polygon fill="midnightblue" stroke="midnightblue" points="680.29,-73.44 669.71,-73.89 678.26,-80.14 680.29,-73.44"/>
</g>
<!-- Node15 -->
<g id="node15" class="node">
<title>Node15</title>
<g id="a_node15"><a xlink:title=" ">
<polygon fill="none" stroke="#bfbfbf" points="687.5,-56.5 687.5,-75.5 796.5,-75.5 796.5,-56.5 687.5,-56.5"/>
<text text-anchor="middle" x="742" y="-63.5" font-family="Helvetica,sans-Serif" font-size="10.00">limes_build_type.h</text>
</a>
</g>
</g>
<!-- Node13&#45;&gt;Node15 -->
<g id="edge30" class="edge">
<title>Node13&#45;&gt;Node15</title>
<path fill="none" stroke="midnightblue" d="M811.66,-112.32C798.84,-103.98 779.22,-91.21 764.06,-81.35"/>
<polygon fill="midnightblue" stroke="midnightblue" points="765.59,-78.17 755.3,-75.65 761.78,-84.04 765.59,-78.17"/>
</g>
<!-- Node16 -->
<g id="node16" class="node">
<title>Node16</title>
<g id="a_node16"><a xlink:href="_ignore_unused_8h.html" target="_top" xlink:title=" ">
<polygon fill="none" stroke="black" points="478,-56.5 478,-75.5 606,-75.5 606,-56.5 478,-56.5"/>
<text text-anchor="middle" x="542" y="-63.5" font-family="Helvetica,sans-Serif" font-size="10.00">../misc/IgnoreUnused.h</text>
</a>
</g>
</g>
<!-- Node13&#45;&gt;Node16 -->
<g id="edge31" class="edge">
<title>Node13&#45;&gt;Node16</title>
<path fill="none" stroke="midnightblue" d="M780.16,-112.44C730.38,-102.94 650.02,-87.61 596.61,-77.42"/>
<polygon fill="midnightblue" stroke="midnightblue" points="597.11,-73.95 586.63,-75.52 595.8,-80.83 597.11,-73.95"/>
</g>
<!-- Node17 -->
<g id="node17" class="node">
<title>Node17</title>
<g id="a_node17"><a xlink:title=" ">
<polygon fill="none" stroke="#bfbfbf" points="815,-56.5 815,-75.5 883,-75.5 883,-56.5 815,-56.5"/>
<text text-anchor="middle" x="849" y="-63.5" font-family="Helvetica,sans-Serif" font-size="10.00">filesystem</text>
</a>
</g>
</g>
<!-- Node13&#45;&gt;Node17 -->
<g id="edge35" class="edge">
<title>Node13&#45;&gt;Node17</title>
<path fill="none" stroke="midnightblue" d="M828.96,-112.08C832.21,-104.77 836.92,-94.18 840.95,-85.1"/>
<polygon fill="midnightblue" stroke="midnightblue" points="844.25,-86.31 845.11,-75.75 837.85,-83.47 844.25,-86.31"/>
</g>
<!-- Node16&#45;&gt;Node2 -->
<g id="edge33" class="edge">
<title>Node16&#45;&gt;Node2</title>
<path fill="none" stroke="midnightblue" d="M484.8,-56.44C420.5,-46.83 316.22,-31.23 248.13,-21.04"/>
<polygon fill="midnightblue" stroke="midnightblue" points="248.34,-17.53 237.93,-19.52 247.31,-24.46 248.34,-17.53"/>
</g>
<!-- Node16&#45;&gt;Node3 -->
<g id="edge32" class="edge">
<title>Node16&#45;&gt;Node3</title>
<path fill="none" stroke="midnightblue" d="M571.16,-56.44C602.51,-47.24 652.53,-32.56 687.2,-22.39"/>
<polygon fill="midnightblue" stroke="midnightblue" points="688.37,-25.69 696.98,-19.52 686.4,-18.97 688.37,-25.69"/>
</g>
<!-- Node18&#45;&gt;Node2 -->
<g id="edge39" class="edge">
<title>Node18&#45;&gt;Node2</title>
<path fill="none" stroke="midnightblue" d="M145.1,-56.08C151.24,-48.38 160.27,-37.03 167.74,-27.65"/>
<polygon fill="midnightblue" stroke="midnightblue" points="170.54,-29.75 174.03,-19.75 165.06,-25.39 170.54,-29.75"/>
</g>
<!-- Node18&#45;&gt;Node3 -->
<g id="edge40" class="edge">
<title>Node18&#45;&gt;Node3</title>
<path fill="none" stroke="midnightblue" d="M172.2,-57.44C175.17,-56.91 178.13,-56.42 181,-56 359.31,-30.08 572.77,-17.86 671.26,-13.27"/>
<polygon fill="midnightblue" stroke="midnightblue" points="671.45,-16.77 681.28,-12.81 671.13,-9.77 671.45,-16.77"/>
</g>
</g>
</svg>
        <g id="navigator" transform="translate(0 0)" fill="#404254">
                <rect fill="#f2f5e9" fill-opacity="0.5" stroke="#606060" stroke-width=".5" x="0" y="0" width="60" height="60"/>
                <use id="zoomplus" xlink:href="#zoomPlus" x="17" y="9" onmousedown="handleZoom(evt,'in')"/>
                <use id="zoomminus" xlink:href="#zoomMin" x="42" y="9" onmousedown="handleZoom(evt,'out')"/>
                <use id="reset" xlink:href="#resetDef" x="30" y="36" onmousedown="handleReset()"/>
                <g id="arrowUp" xlink:href="#dirArrow" transform="translate(30 24)" onmousedown="handlePan(0,-1)">
                  <use xlink:href="#rim" fill="#404040">
                        <set attributeName="fill" to="#808080" begin="arrowUp.mouseover" end="arrowUp.mouseout"/>
                  </use>
                  <path fill="none" stroke="white" stroke-width="1.5" d="M0,-3.0v7 M-2.5,-0.5L0,-3.0L2.5,-0.5"/>
                </g>
                <g id="arrowRight" xlink:href="#dirArrow" transform="rotate(90) translate(36 -43)" onmousedown="handlePan(1,0)">
                  <use xlink:href="#rim" fill="#404040">
                        <set attributeName="fill" to="#808080" begin="arrowRight.mouseover" end="arrowRight.mouseout"/>
                  </use>
                  <path fill="none" stroke="white" stroke-width="1.5" d="M0,-3.0v7 M-2.5,-0.5L0,-3.0L2.5,-0.5"/>
                </g>
                <g id="arrowDown" xlink:href="#dirArrow" transform="rotate(180) translate(-30 -48)" onmousedown="handlePan(0,1)">
                  <use xlink:href="#rim" fill="#404040">
                        <set attributeName="fill" to="#808080" begin="arrowDown.mouseover" end="arrowDown.mouseout"/>
                  </use>
                  <path fill="none" stroke="white" stroke-width="1.5" d="M0,-3.0v7 M-2.5,-0.5L0,-3.0L2.5,-0.5"/>
                </g>
                <g id="arrowLeft" xlink:href="#dirArrow" transform="rotate(270) translate(-36 17)" onmousedown="handlePan(-1,0)">
                  <use xlink:href="#rim" fill="#404040">
                        <set attributeName="fill" to="#808080" begin="arrowLeft.mouseover" end="arrowLeft.mouseout"/>
                  </use>
                  <path fill="none" stroke="white" stroke-width="1.5" d="M0,-3.0v7 M-2.5,-0.5L0,-3.0L2.5,-0.5"/>
                </g>
        </g>
        <svg viewBox="0 0 15 15" width="100%" height="30px" preserveAspectRatio="xMaxYMin meet">
         <g id="arrow_out" transform="scale(0.3 0.3)">
          <a xlink:href="triangular__prism_8h__incl_org.svg" target="_base">
           <rect id="button" ry="5" rx="5" y="6" x="6" height="38" width="38"
                fill="#f2f5e9" fill-opacity="0.5" stroke="#606060" stroke-width="1.0"/>
           <path id="arrow"
             d="M 11.500037,31.436501 C 11.940474,20.09759 22.043105,11.32322 32.158766,21.979434 L 37.068811,17.246167 C 37.068811,17.246167 37.088388,32 37.088388,32 L 22.160133,31.978069 C 22.160133,31.978069 26.997745,27.140456 26.997745,27.140456 C 18.528582,18.264221 13.291696,25.230495 11.500037,31.436501 z"
             style="fill:#404040;"/>
          </a>
         </g>
        </svg>
</svg>
