<?xml version="1.0" encoding="UTF-8" standalone="no"?>
<!DOCTYPE svg PUBLIC "-//W3C//DTD SVG 1.1//EN"
 "http://www.w3.org/Graphics/SVG/1.1/DTD/svg11.dtd">
<!-- Generated by graphviz version 2.43.0 (0)
 -->
<!-- Title: triangle.h Pages: 1 -->
<!--zoomable 308 -->
<svg id="main" version="1.1" xmlns="http://www.w3.org/2000/svg" xmlns:xlink="http://www.w3.org/1999/xlink" xml:space="preserve" onload="init(evt)">
<style type="text/css"><![CDATA[
.edge:hover path { stroke: red; }
.edge:hover polygon { stroke: red; fill: red; }
]]></style>
<script type="text/javascript"><![CDATA[
var edges = document.getElementsByTagName('g');
if (edges && edges.length) {
  for (var i=0;i<edges.length;i++) {
    if (edges[i].id.substr(0,4)=='edge') {
      edges[i].setAttribute('class','edge');
    }
  }
}
]]></script>
        <defs>
                <circle id="rim" cx="0" cy="0" r="7"/>
                <circle id="rim2" cx="0" cy="0" r="3.5"/>
                <g id="zoomPlus">
                        <use xlink:href="#rim" fill="#404040">
                                <set attributeName="fill" to="#808080" begin="zoomplus.mouseover" end="zoomplus.mouseout"/>
                        </use>
                        <path d="M-4,0h8M0,-4v8" fill="none" stroke="white" stroke-width="1.5" pointer-events="none"/>
                </g>
                <g id="zoomMin">
                        <use xlink:href="#rim" fill="#404040">
                                <set attributeName="fill" to="#808080" begin="zoomminus.mouseover" end="zoomminus.mouseout"/>
                        </use>
                        <path d="M-4,0h8" fill="none" stroke="white" stroke-width="1.5" pointer-events="none"/>
                </g>
                <g id="dirArrow">
                        <path fill="none" stroke="white" stroke-width="1.5" d="M0,-3.0v7 M-2.5,-0.5L0,-3.0L2.5,-0.5"/>
                </g>
               <g id="resetDef">
                       <use xlink:href="#rim2" fill="#404040">
                               <set attributeName="fill" to="#808080" begin="reset.mouseover" end="reset.mouseout"/>
                       </use>
               </g>
        </defs>

<script type="text/javascript">
var viewWidth = 1018;
var viewHeight = 308;
var sectionId = 'dynsection-0';
</script>
<script xlink:href="svgpan.js"/>
<svg id="graph" class="graph">
<g id="viewport">
<title>triangle.h</title>
<!-- Node1 -->
<g id="node1" class="node">
<title>Node1</title>
<g id="a_node1"><a xlink:title=" ">
<polygon fill="#bfbfbf" stroke="black" points="714.5,-280.5 714.5,-299.5 777.5,-299.5 777.5,-280.5 714.5,-280.5"/>
<text text-anchor="middle" x="746" y="-287.5" font-family="Helvetica,sans-Serif" font-size="10.00">triangle.h</text>
</a>
</g>
</g>
<!-- Node2 -->
<g id="node2" class="node">
<title>Node2</title>
<g id="a_node2"><a xlink:href="limes__namespace_8h.html" target="_top" xlink:title=" ">
<polygon fill="none" stroke="black" points="38,-0.5 38,-19.5 152,-19.5 152,-0.5 38,-0.5"/>
<text text-anchor="middle" x="95" y="-7.5" font-family="Helvetica,sans-Serif" font-size="10.00">limes_namespace.h</text>
</a>
</g>
</g>
<!-- Node1&#45;&gt;Node2 -->
<g id="edge1" class="edge">
<title>Node1&#45;&gt;Node2</title>
<path fill="none" stroke="midnightblue" d="M714.42,-287.73C572.43,-281.61 0,-252.39 0,-179 0,-179 0,-179 0,-121 0,-77.74 42.61,-43.09 70.75,-24.91"/>
<polygon fill="midnightblue" stroke="midnightblue" points="72.66,-27.85 79.31,-19.6 68.97,-21.9 72.66,-27.85"/>
</g>
<!-- Node3 -->
<g id="node3" class="node">
<title>Node3</title>
<g id="a_node3"><a xlink:title=" ">
<polygon fill="none" stroke="#bfbfbf" points="481.5,-0.5 481.5,-19.5 570.5,-19.5 570.5,-0.5 481.5,-0.5"/>
<text text-anchor="middle" x="526" y="-7.5" font-family="Helvetica,sans-Serif" font-size="10.00">limes_export.h</text>
</a>
</g>
</g>
<!-- Node1&#45;&gt;Node3 -->
<g id="edge2" class="edge">
<title>Node1&#45;&gt;Node3</title>
<path fill="none" stroke="midnightblue" d="M753.06,-280.22C773.33,-253.87 828.48,-173.52 800,-112 762.92,-31.92 649.59,-14.04 580.84,-10.81"/>
<polygon fill="midnightblue" stroke="midnightblue" points="580.75,-7.3 570.62,-10.42 580.48,-14.29 580.75,-7.3"/>
</g>
<!-- Node4 -->
<g id="node4" class="node">
<title>Node4</title>
<g id="a_node4"><a xlink:title=" ">
<polygon fill="none" stroke="#bfbfbf" points="872,-0.5 872,-19.5 972,-19.5 972,-0.5 872,-0.5"/>
<text text-anchor="middle" x="922" y="-7.5" font-family="Helvetica,sans-Serif" font-size="10.00">limes_platform.h</text>
</a>
</g>
</g>
<!-- Node1&#45;&gt;Node4 -->
<g id="edge3" class="edge">
<title>Node1&#45;&gt;Node4</title>
<path fill="none" stroke="midnightblue" d="M777.58,-289.77C847.66,-289.67 1010,-278.68 1010,-179 1010,-179 1010,-179 1010,-121 1010,-79.03 970.46,-43.9 944.39,-25.3"/>
<polygon fill="midnightblue" stroke="midnightblue" points="946.36,-22.41 936.14,-19.64 942.4,-28.18 946.36,-22.41"/>
</g>
<!-- Node5 -->
<g id="node5" class="node">
<title>Node5</title>
<g id="a_node5"><a xlink:href="2_dshape_8h.html" target="_top" xlink:title=" ">
<polygon fill="none" stroke="black" points="142,-56.5 142,-75.5 210,-75.5 210,-56.5 142,-56.5"/>
<text text-anchor="middle" x="176" y="-63.5" font-family="Helvetica,sans-Serif" font-size="10.00">2Dshape.h</text>
</a>
</g>
</g>
<!-- Node1&#45;&gt;Node5 -->
<g id="edge4" class="edge">
<title>Node1&#45;&gt;Node5</title>
<path fill="none" stroke="midnightblue" d="M719.23,-280.34C650.67,-257.95 463.52,-195.43 312,-132 272.87,-115.62 228.77,-93.92 201.68,-80.21"/>
<polygon fill="midnightblue" stroke="midnightblue" points="203.01,-76.96 192.51,-75.54 199.83,-83.2 203.01,-76.96"/>
</g>
<!-- Node6 -->
<g id="node6" class="node">
<title>Node6</title>
<g id="a_node6"><a xlink:href="preprocessor_8h.html" target="_top" xlink:title=" ">
<polygon fill="none" stroke="black" points="802.5,-56.5 802.5,-75.5 943.5,-75.5 943.5,-56.5 802.5,-56.5"/>
<text text-anchor="middle" x="873" y="-63.5" font-family="Helvetica,sans-Serif" font-size="10.00">../../../misc/preprocessor.h</text>
</a>
</g>
</g>
<!-- Node1&#45;&gt;Node6 -->
<g id="edge7" class="edge">
<title>Node1&#45;&gt;Node6</title>
<path fill="none" stroke="midnightblue" d="M777.66,-280.86C797.36,-274.17 821.6,-262.68 836,-244 872.67,-196.42 875.19,-121.07 874.13,-86.05"/>
<polygon fill="midnightblue" stroke="midnightblue" points="877.61,-85.66 873.67,-75.82 870.62,-85.97 877.61,-85.66"/>
</g>
<!-- Node7 -->
<g id="node7" class="node">
<title>Node7</title>
<g id="a_node7"><a xlink:href="angle_8h.html" target="_top" xlink:title=" ">
<polygon fill="none" stroke="black" points="681.5,-224.5 681.5,-243.5 734.5,-243.5 734.5,-224.5 681.5,-224.5"/>
<text text-anchor="middle" x="708" y="-231.5" font-family="Helvetica,sans-Serif" font-size="10.00">angle.h</text>
</a>
</g>
</g>
<!-- Node1&#45;&gt;Node7 -->
<g id="edge9" class="edge">
<title>Node1&#45;&gt;Node7</title>
<path fill="none" stroke="midnightblue" d="M739.73,-280.08C734.36,-272.46 726.48,-261.26 719.92,-251.94"/>
<polygon fill="midnightblue" stroke="midnightblue" points="722.78,-249.91 714.16,-243.75 717.05,-253.94 722.78,-249.91"/>
</g>
<!-- Node8 -->
<g id="node8" class="node">
<title>Node8</title>
<g id="a_node8"><a xlink:href="math_helpers_8h.html" target="_top" xlink:title=" ">
<polygon fill="none" stroke="black" points="545.5,-168.5 545.5,-187.5 652.5,-187.5 652.5,-168.5 545.5,-168.5"/>
<text text-anchor="middle" x="599" y="-175.5" font-family="Helvetica,sans-Serif" font-size="10.00">../../mathHelpers.h</text>
</a>
</g>
</g>
<!-- Node1&#45;&gt;Node8 -->
<g id="edge30" class="edge">
<title>Node1&#45;&gt;Node8</title>
<path fill="none" stroke="midnightblue" d="M730.41,-280.41C715.29,-271.85 691.92,-257.98 673,-244 652.08,-228.54 629.89,-208.49 615.33,-194.78"/>
<polygon fill="midnightblue" stroke="midnightblue" points="617.36,-191.88 607.7,-187.52 612.53,-196.95 617.36,-191.88"/>
</g>
<!-- Node9 -->
<g id="node9" class="node">
<title>Node9</title>
<g id="a_node9"><a xlink:title=" ">
<polygon fill="none" stroke="#bfbfbf" points="743.5,-112.5 743.5,-131.5 790.5,-131.5 790.5,-112.5 743.5,-112.5"/>
<text text-anchor="middle" x="767" y="-119.5" font-family="Helvetica,sans-Serif" font-size="10.00">cmath</text>
</a>
</g>
</g>
<!-- Node1&#45;&gt;Node9 -->
<g id="edge31" class="edge">
<title>Node1&#45;&gt;Node9</title>
<path fill="none" stroke="midnightblue" d="M747.13,-280.08C750.43,-253.95 760.14,-177.21 764.65,-141.58"/>
<polygon fill="midnightblue" stroke="midnightblue" points="768.13,-141.93 765.92,-131.57 761.19,-141.05 768.13,-141.93"/>
</g>
<!-- Node5&#45;&gt;Node2 -->
<g id="edge5" class="edge">
<title>Node5&#45;&gt;Node2</title>
<path fill="none" stroke="midnightblue" d="M162.99,-56.32C150.47,-47.98 131.32,-35.21 116.53,-25.35"/>
<polygon fill="midnightblue" stroke="midnightblue" points="118.24,-22.29 107.98,-19.65 114.36,-28.11 118.24,-22.29"/>
</g>
<!-- Node5&#45;&gt;Node3 -->
<g id="edge6" class="edge">
<title>Node5&#45;&gt;Node3</title>
<path fill="none" stroke="midnightblue" d="M210.06,-58.45C214.74,-57.6 219.48,-56.76 224,-56 310.23,-41.5 410.73,-27 471.3,-18.52"/>
<polygon fill="midnightblue" stroke="midnightblue" points="471.98,-21.96 481.4,-17.11 471.01,-15.03 471.98,-21.96"/>
</g>
<!-- Node6&#45;&gt;Node4 -->
<g id="edge8" class="edge">
<title>Node6&#45;&gt;Node4</title>
<path fill="none" stroke="midnightblue" d="M881.09,-56.08C888.16,-48.3 898.59,-36.8 907.15,-27.37"/>
<polygon fill="midnightblue" stroke="midnightblue" points="909.93,-29.51 914.06,-19.75 904.75,-24.8 909.93,-29.51"/>
</g>
<!-- Node7&#45;&gt;Node2 -->
<g id="edge11" class="edge">
<title>Node7&#45;&gt;Node2</title>
<path fill="none" stroke="midnightblue" d="M681.4,-231.63C602.19,-226.79 362.03,-206.51 180,-132 138.47,-115 117.48,-115.4 96,-76 88.32,-61.91 88.86,-43.42 90.86,-29.76"/>
<polygon fill="midnightblue" stroke="midnightblue" points="94.36,-30.1 92.74,-19.63 87.48,-28.83 94.36,-30.1"/>
</g>
<!-- Node7&#45;&gt;Node3 -->
<g id="edge10" class="edge">
<title>Node7&#45;&gt;Node3</title>
<path fill="none" stroke="midnightblue" d="M709.91,-224.2C716.65,-192.16 737.82,-82.29 717,-56 700.23,-34.82 630.95,-22.62 580.65,-16.39"/>
<polygon fill="midnightblue" stroke="midnightblue" points="580.89,-12.89 570.54,-15.19 580.06,-19.85 580.89,-12.89"/>
</g>
<!-- Node7&#45;&gt;Node4 -->
<g id="edge12" class="edge">
<title>Node7&#45;&gt;Node4</title>
<path fill="none" stroke="midnightblue" d="M734.64,-225.36C787.72,-208.52 905.61,-162.65 953,-76 961.94,-59.65 949.96,-40.3 938.39,-26.99"/>
<polygon fill="midnightblue" stroke="midnightblue" points="940.82,-24.47 931.43,-19.56 935.71,-29.25 940.82,-24.47"/>
</g>
<!-- Node7&#45;&gt;Node8 -->
<g id="edge13" class="edge">
<title>Node7&#45;&gt;Node8</title>
<path fill="none" stroke="midnightblue" d="M690.49,-224.32C672.93,-215.62 645.67,-202.12 625.47,-192.11"/>
<polygon fill="midnightblue" stroke="midnightblue" points="626.98,-188.96 616.47,-187.65 623.88,-195.23 626.98,-188.96"/>
</g>
<!-- Node8&#45;&gt;Node2 -->
<g id="edge14" class="edge">
<title>Node8&#45;&gt;Node2</title>
<path fill="none" stroke="midnightblue" d="M545.25,-173.33C431.26,-164.41 170.79,-137.63 111,-76 99.25,-63.89 95.68,-44.61 94.79,-30.19"/>
<polygon fill="midnightblue" stroke="midnightblue" points="98.29,-29.81 94.55,-19.89 91.29,-29.97 98.29,-29.81"/>
</g>
<!-- Node8&#45;&gt;Node3 -->
<g id="edge17" class="edge">
<title>Node8&#45;&gt;Node3</title>
<path fill="none" stroke="midnightblue" d="M545.26,-169.24C457.83,-155.36 291.17,-123.25 258,-76 252.89,-68.72 252.26,-62.79 258,-56 284.76,-24.37 400.92,-14.96 471.23,-12.17"/>
<polygon fill="midnightblue" stroke="midnightblue" points="471.39,-15.67 481.26,-11.8 471.14,-8.67 471.39,-15.67"/>
</g>
<!-- Node8&#45;&gt;Node9 -->
<g id="edge15" class="edge">
<title>Node8&#45;&gt;Node9</title>
<path fill="none" stroke="midnightblue" d="M625.62,-168.44C654.92,-159.02 702.07,-143.87 733.78,-133.68"/>
<polygon fill="midnightblue" stroke="midnightblue" points="735.04,-136.95 743.49,-130.56 732.89,-130.29 735.04,-136.95"/>
</g>
<!-- Node10 -->
<g id="node10" class="node">
<title>Node10</title>
<g id="a_node10"><a xlink:title=" ">
<polygon fill="none" stroke="#bfbfbf" points="638.5,-56.5 638.5,-75.5 707.5,-75.5 707.5,-56.5 638.5,-56.5"/>
<text text-anchor="middle" x="673" y="-63.5" font-family="Helvetica,sans-Serif" font-size="10.00">type_traits</text>
</a>
</g>
</g>
<!-- Node8&#45;&gt;Node10 -->
<g id="edge16" class="edge">
<title>Node8&#45;&gt;Node10</title>
<path fill="none" stroke="midnightblue" d="M611.68,-168.35C622.86,-160.15 638.91,-146.89 649,-132 658.7,-117.7 665.07,-98.99 668.79,-85.32"/>
<polygon fill="midnightblue" stroke="midnightblue" points="672.19,-86.16 671.22,-75.61 665.4,-84.46 672.19,-86.16"/>
</g>
<!-- Node11 -->
<g id="node11" class="node">
<title>Node11</title>
<g id="a_node11"><a xlink:title=" ">
<polygon fill="none" stroke="#bfbfbf" points="422,-112.5 422,-131.5 486,-131.5 486,-112.5 422,-112.5"/>
<text text-anchor="middle" x="454" y="-119.5" font-family="Helvetica,sans-Serif" font-size="10.00">algorithm</text>
</a>
</g>
</g>
<!-- Node8&#45;&gt;Node11 -->
<g id="edge18" class="edge">
<title>Node8&#45;&gt;Node11</title>
<path fill="none" stroke="midnightblue" d="M576.02,-168.44C551.84,-159.44 513.58,-145.19 486.35,-135.05"/>
<polygon fill="midnightblue" stroke="midnightblue" points="487.46,-131.73 476.87,-131.52 485.02,-138.29 487.46,-131.73"/>
</g>
<!-- Node12 -->
<g id="node12" class="node">
<title>Node12</title>
<g id="a_node12"><a xlink:href="limes__assert_8h.html" target="_top" xlink:title=" ">
<polygon fill="none" stroke="black" points="504,-112.5 504,-131.5 640,-131.5 640,-112.5 504,-112.5"/>
<text text-anchor="middle" x="572" y="-119.5" font-family="Helvetica,sans-Serif" font-size="10.00">../system/limes_assert.h</text>
</a>
</g>
</g>
<!-- Node8&#45;&gt;Node12 -->
<g id="edge19" class="edge">
<title>Node8&#45;&gt;Node12</title>
<path fill="none" stroke="midnightblue" d="M594.54,-168.08C590.85,-160.69 585.48,-149.95 580.91,-140.81"/>
<polygon fill="midnightblue" stroke="midnightblue" points="583.98,-139.13 576.38,-131.75 577.72,-142.26 583.98,-139.13"/>
</g>
<!-- Node12&#45;&gt;Node2 -->
<g id="edge21" class="edge">
<title>Node12&#45;&gt;Node2</title>
<path fill="none" stroke="midnightblue" d="M503.99,-112.99C500.95,-112.65 497.94,-112.32 495,-112 414.63,-103.31 201.04,-119.65 133,-76 116.36,-65.32 106.11,-44.56 100.52,-29.37"/>
<polygon fill="midnightblue" stroke="midnightblue" points="103.72,-27.9 97.24,-19.51 97.07,-30.11 103.72,-27.9"/>
</g>
<!-- Node12&#45;&gt;Node3 -->
<g id="edge20" class="edge">
<title>Node12&#45;&gt;Node3</title>
<path fill="none" stroke="midnightblue" d="M570.21,-112.34C567.43,-99.65 561.48,-75.39 553,-56 548.8,-46.4 542.93,-36.35 537.73,-28.18"/>
<polygon fill="midnightblue" stroke="midnightblue" points="540.5,-26.03 532.08,-19.6 534.66,-29.88 540.5,-26.03"/>
</g>
<!-- Node12&#45;&gt;Node4 -->
<g id="edge28" class="edge">
<title>Node12&#45;&gt;Node4</title>
<path fill="none" stroke="midnightblue" d="M577.09,-112.09C585.86,-97.66 605.28,-69.43 630,-56 668.91,-34.87 788.12,-21.77 861.64,-15.49"/>
<polygon fill="midnightblue" stroke="midnightblue" points="862.03,-18.97 871.7,-14.64 861.44,-11.99 862.03,-18.97"/>
</g>
<!-- Node12&#45;&gt;Node6 -->
<g id="edge22" class="edge">
<title>Node12&#45;&gt;Node6</title>
<path fill="none" stroke="midnightblue" d="M619.69,-112.44C672.86,-102.9 758.82,-87.48 815.63,-77.29"/>
<polygon fill="midnightblue" stroke="midnightblue" points="816.3,-80.73 825.53,-75.52 815.07,-73.84 816.3,-80.73"/>
</g>
<!-- Node12&#45;&gt;Node10 -->
<g id="edge23" class="edge">
<title>Node12&#45;&gt;Node10</title>
<path fill="none" stroke="midnightblue" d="M588.23,-112.32C604.35,-103.7 629.3,-90.36 647.96,-80.39"/>
<polygon fill="midnightblue" stroke="midnightblue" points="649.64,-83.46 656.81,-75.65 646.34,-77.28 649.64,-83.46"/>
</g>
<!-- Node13 -->
<g id="node13" class="node">
<title>Node13</title>
<g id="a_node13"><a xlink:title=" ">
<polygon fill="none" stroke="#bfbfbf" points="266.5,-56.5 266.5,-75.5 311.5,-75.5 311.5,-56.5 266.5,-56.5"/>
<text text-anchor="middle" x="289" y="-63.5" font-family="Helvetica,sans-Serif" font-size="10.00">utility</text>
</a>
</g>
</g>
<!-- Node12&#45;&gt;Node13 -->
<g id="edge24" class="edge">
<title>Node12&#45;&gt;Node13</title>
<path fill="none" stroke="midnightblue" d="M515.36,-112.45C466.47,-104.71 393.8,-92.33 321.4,-75.9"/>
<polygon fill="midnightblue" stroke="midnightblue" points="322.19,-72.49 311.66,-73.66 320.62,-79.31 322.19,-72.49"/>
</g>
<!-- Node14 -->
<g id="node14" class="node">
<title>Node14</title>
<g id="a_node14"><a xlink:href="_ignore_unused_8h.html" target="_top" xlink:title=" ">
<polygon fill="none" stroke="black" points="416,-56.5 416,-75.5 544,-75.5 544,-56.5 416,-56.5"/>
<text text-anchor="middle" x="480" y="-63.5" font-family="Helvetica,sans-Serif" font-size="10.00">../misc/IgnoreUnused.h</text>
</a>
</g>
</g>
<!-- Node12&#45;&gt;Node14 -->
<g id="edge25" class="edge">
<title>Node12&#45;&gt;Node14</title>
<path fill="none" stroke="midnightblue" d="M557.22,-112.32C542.73,-103.82 520.43,-90.73 503.51,-80.8"/>
<polygon fill="midnightblue" stroke="midnightblue" points="505.14,-77.7 494.74,-75.65 501.6,-83.74 505.14,-77.7"/>
</g>
<!-- Node15 -->
<g id="node15" class="node">
<title>Node15</title>
<g id="a_node15"><a xlink:title=" ">
<polygon fill="none" stroke="#bfbfbf" points="330,-56.5 330,-75.5 398,-75.5 398,-56.5 330,-56.5"/>
<text text-anchor="middle" x="364" y="-63.5" font-family="Helvetica,sans-Serif" font-size="10.00">filesystem</text>
</a>
</g>
</g>
<!-- Node12&#45;&gt;Node15 -->
<g id="edge29" class="edge">
<title>Node12&#45;&gt;Node15</title>
<path fill="none" stroke="midnightblue" d="M539.04,-112.44C503.21,-103.14 445.84,-88.25 406.61,-78.06"/>
<polygon fill="midnightblue" stroke="midnightblue" points="407.36,-74.64 396.8,-75.52 405.6,-81.42 407.36,-74.64"/>
</g>
<!-- Node14&#45;&gt;Node2 -->
<g id="edge27" class="edge">
<title>Node14&#45;&gt;Node2</title>
<path fill="none" stroke="midnightblue" d="M419,-56.44C349.03,-46.63 234.67,-30.59 162.2,-20.43"/>
<polygon fill="midnightblue" stroke="midnightblue" points="162.65,-16.95 152.26,-19.03 161.68,-23.89 162.65,-16.95"/>
</g>
<!-- Node14&#45;&gt;Node3 -->
<g id="edge26" class="edge">
<title>Node14&#45;&gt;Node3</title>
<path fill="none" stroke="midnightblue" d="M487.6,-56.08C494.23,-48.3 504.02,-36.8 512.06,-27.37"/>
<polygon fill="midnightblue" stroke="midnightblue" points="514.73,-29.63 518.55,-19.75 509.4,-25.09 514.73,-29.63"/>
</g>
</g>
</svg>
        <g id="navigator" transform="translate(0 0)" fill="#404254">
                <rect fill="#f2f5e9" fill-opacity="0.5" stroke="#606060" stroke-width=".5" x="0" y="0" width="60" height="60"/>
                <use id="zoomplus" xlink:href="#zoomPlus" x="17" y="9" onmousedown="handleZoom(evt,'in')"/>
                <use id="zoomminus" xlink:href="#zoomMin" x="42" y="9" onmousedown="handleZoom(evt,'out')"/>
                <use id="reset" xlink:href="#resetDef" x="30" y="36" onmousedown="handleReset()"/>
                <g id="arrowUp" xlink:href="#dirArrow" transform="translate(30 24)" onmousedown="handlePan(0,-1)">
                  <use xlink:href="#rim" fill="#404040">
                        <set attributeName="fill" to="#808080" begin="arrowUp.mouseover" end="arrowUp.mouseout"/>
                  </use>
                  <path fill="none" stroke="white" stroke-width="1.5" d="M0,-3.0v7 M-2.5,-0.5L0,-3.0L2.5,-0.5"/>
                </g>
                <g id="arrowRight" xlink:href="#dirArrow" transform="rotate(90) translate(36 -43)" onmousedown="handlePan(1,0)">
                  <use xlink:href="#rim" fill="#404040">
                        <set attributeName="fill" to="#808080" begin="arrowRight.mouseover" end="arrowRight.mouseout"/>
                  </use>
                  <path fill="none" stroke="white" stroke-width="1.5" d="M0,-3.0v7 M-2.5,-0.5L0,-3.0L2.5,-0.5"/>
                </g>
                <g id="arrowDown" xlink:href="#dirArrow" transform="rotate(180) translate(-30 -48)" onmousedown="handlePan(0,1)">
                  <use xlink:href="#rim" fill="#404040">
                        <set attributeName="fill" to="#808080" begin="arrowDown.mouseover" end="arrowDown.mouseout"/>
                  </use>
                  <path fill="none" stroke="white" stroke-width="1.5" d="M0,-3.0v7 M-2.5,-0.5L0,-3.0L2.5,-0.5"/>
                </g>
                <g id="arrowLeft" xlink:href="#dirArrow" transform="rotate(270) translate(-36 17)" onmousedown="handlePan(-1,0)">
                  <use xlink:href="#rim" fill="#404040">
                        <set attributeName="fill" to="#808080" begin="arrowLeft.mouseover" end="arrowLeft.mouseout"/>
                  </use>
                  <path fill="none" stroke="white" stroke-width="1.5" d="M0,-3.0v7 M-2.5,-0.5L0,-3.0L2.5,-0.5"/>
                </g>
        </g>
        <svg viewBox="0 0 15 15" width="100%" height="30px" preserveAspectRatio="xMaxYMin meet">
         <g id="arrow_out" transform="scale(0.3 0.3)">
          <a xlink:href="triangle_8h__incl_org.svg" target="_base">
           <rect id="button" ry="5" rx="5" y="6" x="6" height="38" width="38"
                fill="#f2f5e9" fill-opacity="0.5" stroke="#606060" stroke-width="1.0"/>
           <path id="arrow"
             d="M 11.500037,31.436501 C 11.940474,20.09759 22.043105,11.32322 32.158766,21.979434 L 37.068811,17.246167 C 37.068811,17.246167 37.088388,32 37.088388,32 L 22.160133,31.978069 C 22.160133,31.978069 26.997745,27.140456 26.997745,27.140456 C 18.528582,18.264221 13.291696,25.230495 11.500037,31.436501 z"
             style="fill:#404040;"/>
          </a>
         </g>
        </svg>
</svg>
