<?xml version="1.0" encoding="UTF-8" standalone="no"?>
<!DOCTYPE svg PUBLIC "-//W3C//DTD SVG 1.1//EN"
 "http://www.w3.org/Graphics/SVG/1.1/DTD/svg11.dtd">
<!-- Generated by graphviz version 2.43.0 (0)
 -->
<!-- Title: triangular_prism.h Pages: 1 -->
<svg width="1219pt" height="364pt"
 viewBox="0.00 0.00 1218.67 364.00" xmlns="http://www.w3.org/2000/svg" xmlns:xlink="http://www.w3.org/1999/xlink">
<g id="graph0" class="graph" transform="scale(1 1) rotate(0) translate(4 360)">
<title>triangular_prism.h</title>
<!-- Node1 -->
<g id="node1" class="node">
<title>Node1</title>
<g id="a_node1"><a xlink:title=" ">
<polygon fill="#bfbfbf" stroke="black" points="355.67,-336.5 355.67,-355.5 461.67,-355.5 461.67,-336.5 355.67,-336.5"/>
<text text-anchor="middle" x="408.67" y="-343.5" font-family="Helvetica,sans-Serif" font-size="10.00">triangular_prism.h</text>
</a>
</g>
</g>
<!-- Node2 -->
<g id="node2" class="node">
<title>Node2</title>
<g id="a_node2"><a xlink:href="limes__namespace_8h.html" target="_top" xlink:title=" ">
<polygon fill="none" stroke="black" points="1008.67,-0.5 1008.67,-19.5 1122.67,-19.5 1122.67,-0.5 1008.67,-0.5"/>
<text text-anchor="middle" x="1065.67" y="-7.5" font-family="Helvetica,sans-Serif" font-size="10.00">limes_namespace.h</text>
</a>
</g>
</g>
<!-- Node1&#45;&gt;Node2 -->
<g id="edge1" class="edge">
<title>Node1&#45;&gt;Node2</title>
<path fill="none" stroke="midnightblue" d="M461.91,-343.32C641.04,-336.97 1210.67,-310.8 1210.67,-235 1210.67,-235 1210.67,-235 1210.67,-121 1210.67,-68.53 1149.66,-37.84 1106.78,-22.76"/>
<polygon fill="midnightblue" stroke="midnightblue" points="1107.73,-19.39 1097.13,-19.52 1105.5,-26.02 1107.73,-19.39"/>
</g>
<!-- Node3 -->
<g id="node3" class="node">
<title>Node3</title>
<g id="a_node3"><a xlink:title=" ">
<polygon fill="none" stroke="#bfbfbf" points="401.17,-0.5 401.17,-19.5 490.17,-19.5 490.17,-0.5 401.17,-0.5"/>
<text text-anchor="middle" x="445.67" y="-7.5" font-family="Helvetica,sans-Serif" font-size="10.00">limes_export.h</text>
</a>
</g>
</g>
<!-- Node1&#45;&gt;Node3 -->
<g id="edge2" class="edge">
<title>Node1&#45;&gt;Node3</title>
<path fill="none" stroke="midnightblue" d="M408.56,-336.38C408.27,-301.19 408.7,-165.01 430.67,-56 432.48,-47.02 435.55,-37.35 438.44,-29.28"/>
<polygon fill="midnightblue" stroke="midnightblue" points="441.77,-30.38 442.02,-19.79 435.22,-27.91 441.77,-30.38"/>
</g>
<!-- Node4 -->
<g id="node4" class="node">
<title>Node4</title>
<g id="a_node4"><a xlink:title=" ">
<polygon fill="none" stroke="#bfbfbf" points="148.67,-0.5 148.67,-19.5 248.67,-19.5 248.67,-0.5 148.67,-0.5"/>
<text text-anchor="middle" x="198.67" y="-7.5" font-family="Helvetica,sans-Serif" font-size="10.00">limes_platform.h</text>
</a>
</g>
</g>
<!-- Node1&#45;&gt;Node4 -->
<g id="edge3" class="edge">
<title>Node1&#45;&gt;Node4</title>
<path fill="none" stroke="midnightblue" d="M355.33,-341.8C244.74,-333.71 0.67,-307.63 0.67,-235 0.67,-235 0.67,-235 0.67,-121 0.67,-90.9 -2.01,-76.87 19.67,-56 36.68,-39.63 93.41,-27.19 138.51,-19.59"/>
<polygon fill="midnightblue" stroke="midnightblue" points="139.21,-23.02 148.52,-17.95 138.08,-16.11 139.21,-23.02"/>
</g>
<!-- Node5 -->
<g id="node5" class="node">
<title>Node5</title>
<g id="a_node5"><a xlink:href="preprocessor_8h.html" target="_top" xlink:title=" ">
<polygon fill="none" stroke="black" points="29.17,-56.5 29.17,-75.5 170.17,-75.5 170.17,-56.5 29.17,-56.5"/>
<text text-anchor="middle" x="99.67" y="-63.5" font-family="Helvetica,sans-Serif" font-size="10.00">../../../misc/preprocessor.h</text>
</a>
</g>
</g>
<!-- Node1&#45;&gt;Node5 -->
<g id="edge4" class="edge">
<title>Node1&#45;&gt;Node5</title>
<path fill="none" stroke="midnightblue" d="M355.31,-344.17C307.53,-341.22 237.13,-331.3 184.67,-300 152.42,-280.76 130.67,-272.56 130.67,-235 130.67,-235 130.67,-235 130.67,-177 130.67,-143.41 117.11,-106.14 107.93,-84.75"/>
<polygon fill="midnightblue" stroke="midnightblue" points="111.12,-83.31 103.85,-75.61 104.73,-86.17 111.12,-83.31"/>
</g>
<!-- Node6 -->
<g id="node6" class="node">
<title>Node6</title>
<g id="a_node6"><a xlink:href="triangle_8h.html" target="_top" xlink:title=" ">
<polygon fill="none" stroke="black" points="608.17,-280.5 608.17,-299.5 697.17,-299.5 697.17,-280.5 608.17,-280.5"/>
<text text-anchor="middle" x="652.67" y="-287.5" font-family="Helvetica,sans-Serif" font-size="10.00">../2D/triangle.h</text>
</a>
</g>
</g>
<!-- Node1&#45;&gt;Node6 -->
<g id="edge6" class="edge">
<title>Node1&#45;&gt;Node6</title>
<path fill="none" stroke="midnightblue" d="M447.33,-336.44C489.81,-327.04 558.1,-311.93 604.15,-301.74"/>
<polygon fill="midnightblue" stroke="midnightblue" points="605.18,-305.09 614.19,-299.52 603.67,-298.26 605.18,-305.09"/>
</g>
<!-- Node17 -->
<g id="node17" class="node">
<title>Node17</title>
<g id="a_node17"><a xlink:href="3_dshape_8h.html" target="_top" xlink:title=" ">
<polygon fill="none" stroke="black" points="1000.67,-56.5 1000.67,-75.5 1068.67,-75.5 1068.67,-56.5 1000.67,-56.5"/>
<text text-anchor="middle" x="1034.67" y="-63.5" font-family="Helvetica,sans-Serif" font-size="10.00">3Dshape.h</text>
</a>
</g>
</g>
<!-- Node1&#45;&gt;Node17 -->
<g id="edge37" class="edge">
<title>Node1&#45;&gt;Node17</title>
<path fill="none" stroke="midnightblue" d="M461.93,-341.36C522.12,-336.23 622.54,-324.61 705.67,-300 879.23,-248.62 978.57,-284.12 1076.67,-132 1087.77,-114.79 1070.76,-95.03 1055.18,-81.86"/>
<polygon fill="midnightblue" stroke="midnightblue" points="1057.33,-79.09 1047.32,-75.62 1052.98,-84.58 1057.33,-79.09"/>
</g>
<!-- Node5&#45;&gt;Node4 -->
<g id="edge5" class="edge">
<title>Node5&#45;&gt;Node4</title>
<path fill="none" stroke="midnightblue" d="M115.58,-56.32C131.31,-47.74 155.61,-34.49 173.88,-24.52"/>
<polygon fill="midnightblue" stroke="midnightblue" points="175.7,-27.52 182.8,-19.65 172.35,-21.37 175.7,-27.52"/>
</g>
<!-- Node6&#45;&gt;Node2 -->
<g id="edge7" class="edge">
<title>Node6&#45;&gt;Node2</title>
<path fill="none" stroke="midnightblue" d="M697.38,-282.31C769.03,-270.41 912.79,-241.62 1023.67,-188 1061.44,-169.73 1076.91,-167.25 1099.67,-132 1113.48,-110.62 1108.99,-101.31 1111.67,-76 1112.61,-67.16 1115.12,-64.19 1111.67,-56 1106.65,-44.05 1096.73,-33.69 1087.38,-25.93"/>
<polygon fill="midnightblue" stroke="midnightblue" points="1089.51,-23.15 1079.46,-19.81 1085.23,-28.69 1089.51,-23.15"/>
</g>
<!-- Node6&#45;&gt;Node3 -->
<g id="edge8" class="edge">
<title>Node6&#45;&gt;Node3</title>
<path fill="none" stroke="midnightblue" d="M631.25,-280.39C587.01,-261.31 486.26,-210.83 444.67,-132 427.42,-99.29 434.36,-54.35 440.39,-29.47"/>
<polygon fill="midnightblue" stroke="midnightblue" points="443.84,-30.12 443,-19.56 437.07,-28.34 443.84,-30.12"/>
</g>
<!-- Node6&#45;&gt;Node4 -->
<g id="edge9" class="edge">
<title>Node6&#45;&gt;Node4</title>
<path fill="none" stroke="midnightblue" d="M623.4,-280.44C597.59,-272.43 559.29,-259.41 527.67,-244 401.65,-182.56 369.22,-164.74 260.67,-76 242.47,-61.12 224.21,-41.23 212.27,-27.39"/>
<polygon fill="midnightblue" stroke="midnightblue" points="214.85,-25.01 205.71,-19.65 209.51,-29.54 214.85,-25.01"/>
</g>
<!-- Node6&#45;&gt;Node5 -->
<g id="edge13" class="edge">
<title>Node6&#45;&gt;Node5</title>
<path fill="none" stroke="midnightblue" d="M607.97,-287.87C518.34,-284.97 320.15,-275.12 260.67,-244 191.47,-207.79 198.09,-168.98 144.67,-112 135.41,-102.13 124.71,-91.4 116.07,-82.89"/>
<polygon fill="midnightblue" stroke="midnightblue" points="118.41,-80.29 108.81,-75.8 113.51,-85.29 118.41,-80.29"/>
</g>
<!-- Node7 -->
<g id="node7" class="node">
<title>Node7</title>
<g id="a_node7"><a xlink:href="2_dshape_8h.html" target="_top" xlink:title=" ">
<polygon fill="none" stroke="black" points="914.67,-56.5 914.67,-75.5 982.67,-75.5 982.67,-56.5 914.67,-56.5"/>
<text text-anchor="middle" x="948.67" y="-63.5" font-family="Helvetica,sans-Serif" font-size="10.00">2Dshape.h</text>
</a>
</g>
</g>
<!-- Node6&#45;&gt;Node7 -->
<g id="edge10" class="edge">
<title>Node6&#45;&gt;Node7</title>
<path fill="none" stroke="midnightblue" d="M653.15,-280.23C655.24,-251 666.2,-156.18 721.67,-112 786.51,-60.36 823.4,-92.31 904.67,-76 904.77,-75.98 904.87,-75.96 904.97,-75.94"/>
<polygon fill="midnightblue" stroke="midnightblue" points="905.46,-79.41 914.57,-74 904.07,-72.55 905.46,-79.41"/>
</g>
<!-- Node8 -->
<g id="node8" class="node">
<title>Node8</title>
<g id="a_node8"><a xlink:href="angle_8h.html" target="_top" xlink:title=" ">
<polygon fill="none" stroke="black" points="681.17,-224.5 681.17,-243.5 734.17,-243.5 734.17,-224.5 681.17,-224.5"/>
<text text-anchor="middle" x="707.67" y="-231.5" font-family="Helvetica,sans-Serif" font-size="10.00">angle.h</text>
</a>
</g>
</g>
<!-- Node6&#45;&gt;Node8 -->
<g id="edge14" class="edge">
<title>Node6&#45;&gt;Node8</title>
<path fill="none" stroke="midnightblue" d="M661.75,-280.08C669.84,-272.14 681.87,-260.34 691.58,-250.8"/>
<polygon fill="midnightblue" stroke="midnightblue" points="694.07,-253.25 698.76,-243.75 689.17,-248.26 694.07,-253.25"/>
</g>
<!-- Node9 -->
<g id="node9" class="node">
<title>Node9</title>
<g id="a_node9"><a xlink:href="math_helpers_8h.html" target="_top" xlink:title=" ">
<polygon fill="none" stroke="black" points="709.17,-168.5 709.17,-187.5 816.17,-187.5 816.17,-168.5 709.17,-168.5"/>
<text text-anchor="middle" x="762.67" y="-175.5" font-family="Helvetica,sans-Serif" font-size="10.00">../../mathHelpers.h</text>
</a>
</g>
</g>
<!-- Node6&#45;&gt;Node9 -->
<g id="edge35" class="edge">
<title>Node6&#45;&gt;Node9</title>
<path fill="none" stroke="midnightblue" d="M683.77,-280.4C703.23,-273.52 727.43,-261.99 742.67,-244 753.75,-230.92 758.7,-211.77 760.9,-197.64"/>
<polygon fill="midnightblue" stroke="midnightblue" points="764.39,-197.95 762.15,-187.6 757.44,-197.09 764.39,-197.95"/>
</g>
<!-- Node10 -->
<g id="node10" class="node">
<title>Node10</title>
<g id="a_node10"><a xlink:title=" ">
<polygon fill="none" stroke="#bfbfbf" points="1021.17,-112.5 1021.17,-131.5 1068.17,-131.5 1068.17,-112.5 1021.17,-112.5"/>
<text text-anchor="middle" x="1044.67" y="-119.5" font-family="Helvetica,sans-Serif" font-size="10.00">cmath</text>
</a>
</g>
</g>
<!-- Node6&#45;&gt;Node10 -->
<g id="edge36" class="edge">
<title>Node6&#45;&gt;Node10</title>
<path fill="none" stroke="midnightblue" d="M673.8,-280.48C695.98,-271.51 731.84,-256.92 762.67,-244 855.26,-205.2 964.34,-157.96 1015.46,-135.73"/>
<polygon fill="midnightblue" stroke="midnightblue" points="1017.12,-138.82 1024.89,-131.62 1014.32,-132.41 1017.12,-138.82"/>
</g>
<!-- Node7&#45;&gt;Node2 -->
<g id="edge11" class="edge">
<title>Node7&#45;&gt;Node2</title>
<path fill="none" stroke="midnightblue" d="M967.21,-56.44C986.29,-47.64 1016.25,-33.81 1038.11,-23.72"/>
<polygon fill="midnightblue" stroke="midnightblue" points="1039.61,-26.88 1047.22,-19.52 1036.67,-20.53 1039.61,-26.88"/>
</g>
<!-- Node7&#45;&gt;Node3 -->
<g id="edge12" class="edge">
<title>Node7&#45;&gt;Node3</title>
<path fill="none" stroke="midnightblue" d="M914.62,-57.67C911.27,-57.06 907.91,-56.49 904.67,-56 759.55,-34.1 586.93,-20.49 500.59,-14.53"/>
<polygon fill="midnightblue" stroke="midnightblue" points="500.71,-11.03 490.49,-13.84 500.23,-18.01 500.71,-11.03"/>
</g>
<!-- Node8&#45;&gt;Node2 -->
<g id="edge16" class="edge">
<title>Node8&#45;&gt;Node2</title>
<path fill="none" stroke="midnightblue" d="M734.55,-233.78C801.72,-234.24 978.55,-225.92 1076.67,-132 1101.75,-108 1104.47,-89.3 1094.67,-56 1091.66,-45.76 1085.52,-35.66 1079.66,-27.63"/>
<polygon fill="midnightblue" stroke="midnightblue" points="1082.26,-25.27 1073.34,-19.54 1076.74,-29.58 1082.26,-25.27"/>
</g>
<!-- Node8&#45;&gt;Node3 -->
<g id="edge15" class="edge">
<title>Node8&#45;&gt;Node3</title>
<path fill="none" stroke="midnightblue" d="M681.1,-229.67C630.69,-221.94 520.87,-198.11 460.67,-132 435.22,-104.05 437.98,-56.22 441.97,-29.84"/>
<polygon fill="midnightblue" stroke="midnightblue" points="445.48,-30.13 443.74,-19.67 438.58,-28.93 445.48,-30.13"/>
</g>
<!-- Node8&#45;&gt;Node4 -->
<g id="edge17" class="edge">
<title>Node8&#45;&gt;Node4</title>
<path fill="none" stroke="midnightblue" d="M681.15,-229.81C641.49,-224.46 564.84,-211.83 503.67,-188 388.72,-143.22 265.75,-59.26 218.62,-25.56"/>
<polygon fill="midnightblue" stroke="midnightblue" points="220.63,-22.69 210.47,-19.69 216.54,-28.37 220.63,-22.69"/>
</g>
<!-- Node8&#45;&gt;Node9 -->
<g id="edge18" class="edge">
<title>Node8&#45;&gt;Node9</title>
<path fill="none" stroke="midnightblue" d="M716.75,-224.08C724.84,-216.14 736.87,-204.34 746.58,-194.8"/>
<polygon fill="midnightblue" stroke="midnightblue" points="749.07,-197.25 753.76,-187.75 744.17,-192.26 749.07,-197.25"/>
</g>
<!-- Node9&#45;&gt;Node2 -->
<g id="edge19" class="edge">
<title>Node9&#45;&gt;Node2</title>
<path fill="none" stroke="midnightblue" d="M796.81,-168.47C874.8,-148.65 1060.6,-99.4 1077.67,-76 1087.58,-62.42 1082.22,-43.11 1075.82,-29.06"/>
<polygon fill="midnightblue" stroke="midnightblue" points="1078.83,-27.26 1071.18,-19.92 1072.59,-30.43 1078.83,-27.26"/>
</g>
<!-- Node9&#45;&gt;Node3 -->
<g id="edge22" class="edge">
<title>Node9&#45;&gt;Node3</title>
<path fill="none" stroke="midnightblue" d="M709.08,-175.21C636.64,-171.69 512.75,-161.44 479.67,-132 450.29,-105.85 445.43,-56.54 445.12,-29.64"/>
<polygon fill="midnightblue" stroke="midnightblue" points="448.62,-29.66 445.21,-19.62 441.62,-29.59 448.62,-29.66"/>
</g>
<!-- Node9&#45;&gt;Node10 -->
<g id="edge20" class="edge">
<title>Node9&#45;&gt;Node10</title>
<path fill="none" stroke="midnightblue" d="M813.29,-168.43C862.74,-159.87 940.07,-146.02 1006.67,-132 1008.12,-131.69 1009.6,-131.38 1011.1,-131.05"/>
<polygon fill="midnightblue" stroke="midnightblue" points="1012.02,-134.43 1021,-128.8 1010.47,-127.6 1012.02,-134.43"/>
</g>
<!-- Node11 -->
<g id="node11" class="node">
<title>Node11</title>
<g id="a_node11"><a xlink:title=" ">
<polygon fill="none" stroke="#bfbfbf" points="827.17,-56.5 827.17,-75.5 896.17,-75.5 896.17,-56.5 827.17,-56.5"/>
<text text-anchor="middle" x="861.67" y="-63.5" font-family="Helvetica,sans-Serif" font-size="10.00">type_traits</text>
</a>
</g>
</g>
<!-- Node9&#45;&gt;Node11 -->
<g id="edge21" class="edge">
<title>Node9&#45;&gt;Node11</title>
<path fill="none" stroke="midnightblue" d="M770.56,-168.4C778.83,-159.36 792.21,-144.72 803.67,-132 818.46,-115.6 835.25,-96.76 846.94,-83.6"/>
<polygon fill="midnightblue" stroke="midnightblue" points="849.8,-85.66 853.82,-75.86 844.56,-81.01 849.8,-85.66"/>
</g>
<!-- Node12 -->
<g id="node12" class="node">
<title>Node12</title>
<g id="a_node12"><a xlink:title=" ">
<polygon fill="none" stroke="#bfbfbf" points="730.67,-112.5 730.67,-131.5 794.67,-131.5 794.67,-112.5 730.67,-112.5"/>
<text text-anchor="middle" x="762.67" y="-119.5" font-family="Helvetica,sans-Serif" font-size="10.00">algorithm</text>
</a>
</g>
</g>
<!-- Node9&#45;&gt;Node12 -->
<g id="edge23" class="edge">
<title>Node9&#45;&gt;Node12</title>
<path fill="none" stroke="midnightblue" d="M762.67,-168.08C762.67,-161.01 762.67,-150.86 762.67,-141.99"/>
<polygon fill="midnightblue" stroke="midnightblue" points="766.17,-141.75 762.67,-131.75 759.17,-141.75 766.17,-141.75"/>
</g>
<!-- Node13 -->
<g id="node13" class="node">
<title>Node13</title>
<g id="a_node13"><a xlink:href="limes__assert_8h.html" target="_top" xlink:title=" ">
<polygon fill="none" stroke="black" points="488.67,-112.5 488.67,-131.5 624.67,-131.5 624.67,-112.5 488.67,-112.5"/>
<text text-anchor="middle" x="556.67" y="-119.5" font-family="Helvetica,sans-Serif" font-size="10.00">../system/limes_assert.h</text>
</a>
</g>
</g>
<!-- Node9&#45;&gt;Node13 -->
<g id="edge24" class="edge">
<title>Node9&#45;&gt;Node13</title>
<path fill="none" stroke="midnightblue" d="M730.03,-168.44C694.62,-159.16 637.96,-144.31 599.12,-134.13"/>
<polygon fill="midnightblue" stroke="midnightblue" points="599.72,-130.67 589.16,-131.52 597.95,-137.44 599.72,-130.67"/>
</g>
<!-- Node13&#45;&gt;Node2 -->
<g id="edge26" class="edge">
<title>Node13&#45;&gt;Node2</title>
<path fill="none" stroke="midnightblue" d="M624.37,-112.47C669.29,-105.58 729.06,-94 779.67,-76 797.65,-69.6 799.63,-62.22 817.67,-56 876.98,-35.55 947.65,-23.89 998.34,-17.59"/>
<polygon fill="midnightblue" stroke="midnightblue" points="999.02,-21.04 1008.53,-16.37 998.18,-14.09 999.02,-21.04"/>
</g>
<!-- Node13&#45;&gt;Node3 -->
<g id="edge25" class="edge">
<title>Node13&#45;&gt;Node3</title>
<path fill="none" stroke="midnightblue" d="M537.52,-112.46C521.66,-104.68 499.28,-91.97 483.67,-76 470.42,-62.44 459.99,-43.38 453.43,-29.41"/>
<polygon fill="midnightblue" stroke="midnightblue" points="456.46,-27.6 449.19,-19.89 450.07,-30.45 456.46,-27.6"/>
</g>
<!-- Node13&#45;&gt;Node4 -->
<g id="edge33" class="edge">
<title>Node13&#45;&gt;Node4</title>
<path fill="none" stroke="midnightblue" d="M528.88,-112.46C465.17,-92.89 308.56,-44.77 236.31,-22.57"/>
<polygon fill="midnightblue" stroke="midnightblue" points="237.28,-19.2 226.69,-19.61 235.22,-25.89 237.28,-19.2"/>
</g>
<!-- Node13&#45;&gt;Node5 -->
<g id="edge27" class="edge">
<title>Node13&#45;&gt;Node5</title>
<path fill="none" stroke="midnightblue" d="M488.25,-112.92C405.98,-103.19 268.06,-86.9 180.58,-76.56"/>
<polygon fill="midnightblue" stroke="midnightblue" points="180.78,-73.06 170.44,-75.36 179.96,-80.01 180.78,-73.06"/>
</g>
<!-- Node13&#45;&gt;Node11 -->
<g id="edge28" class="edge">
<title>Node13&#45;&gt;Node11</title>
<path fill="none" stroke="midnightblue" d="M605.77,-112.48C657.32,-103.52 740.72,-88.93 812.67,-76 814.13,-75.74 815.62,-75.47 817.12,-75.2"/>
<polygon fill="midnightblue" stroke="midnightblue" points="817.93,-78.61 827.14,-73.38 816.68,-71.72 817.93,-78.61"/>
</g>
<!-- Node14 -->
<g id="node14" class="node">
<title>Node14</title>
<g id="a_node14"><a xlink:title=" ">
<polygon fill="none" stroke="#bfbfbf" points="493.17,-56.5 493.17,-75.5 538.17,-75.5 538.17,-56.5 493.17,-56.5"/>
<text text-anchor="middle" x="515.67" y="-63.5" font-family="Helvetica,sans-Serif" font-size="10.00">utility</text>
</a>
</g>
</g>
<!-- Node13&#45;&gt;Node14 -->
<g id="edge29" class="edge">
<title>Node13&#45;&gt;Node14</title>
<path fill="none" stroke="midnightblue" d="M549.9,-112.08C544.11,-104.46 535.61,-93.26 528.53,-83.94"/>
<polygon fill="midnightblue" stroke="midnightblue" points="531.15,-81.6 522.32,-75.75 525.57,-85.83 531.15,-81.6"/>
</g>
<!-- Node15 -->
<g id="node15" class="node">
<title>Node15</title>
<g id="a_node15"><a xlink:href="_ignore_unused_8h.html" target="_top" xlink:title=" ">
<polygon fill="none" stroke="black" points="642.67,-56.5 642.67,-75.5 770.67,-75.5 770.67,-56.5 642.67,-56.5"/>
<text text-anchor="middle" x="706.67" y="-63.5" font-family="Helvetica,sans-Serif" font-size="10.00">../misc/IgnoreUnused.h</text>
</a>
</g>
</g>
<!-- Node13&#45;&gt;Node15 -->
<g id="edge30" class="edge">
<title>Node13&#45;&gt;Node15</title>
<path fill="none" stroke="midnightblue" d="M580.44,-112.44C605.56,-103.4 645.38,-89.06 673.57,-78.92"/>
<polygon fill="midnightblue" stroke="midnightblue" points="674.79,-82.2 683.01,-75.52 672.42,-75.61 674.79,-82.2"/>
</g>
<!-- Node16 -->
<g id="node16" class="node">
<title>Node16</title>
<g id="a_node16"><a xlink:title=" ">
<polygon fill="none" stroke="#bfbfbf" points="556.67,-56.5 556.67,-75.5 624.67,-75.5 624.67,-56.5 556.67,-56.5"/>
<text text-anchor="middle" x="590.67" y="-63.5" font-family="Helvetica,sans-Serif" font-size="10.00">filesystem</text>
</a>
</g>
</g>
<!-- Node13&#45;&gt;Node16 -->
<g id="edge34" class="edge">
<title>Node13&#45;&gt;Node16</title>
<path fill="none" stroke="midnightblue" d="M562.29,-112.08C567.04,-104.53 573.99,-93.49 579.82,-84.23"/>
<polygon fill="midnightblue" stroke="midnightblue" points="582.79,-86.08 585.16,-75.75 576.87,-82.35 582.79,-86.08"/>
</g>
<!-- Node15&#45;&gt;Node2 -->
<g id="edge32" class="edge">
<title>Node15&#45;&gt;Node2</title>
<path fill="none" stroke="midnightblue" d="M763.56,-56.44C827.5,-46.83 931.2,-31.23 998.92,-21.04"/>
<polygon fill="midnightblue" stroke="midnightblue" points="999.68,-24.47 1009.05,-19.52 998.64,-17.54 999.68,-24.47"/>
</g>
<!-- Node15&#45;&gt;Node3 -->
<g id="edge31" class="edge">
<title>Node15&#45;&gt;Node3</title>
<path fill="none" stroke="midnightblue" d="M665.31,-56.44C619.59,-46.98 545.91,-31.74 496.65,-21.55"/>
<polygon fill="midnightblue" stroke="midnightblue" points="497.34,-18.12 486.83,-19.52 495.92,-24.97 497.34,-18.12"/>
</g>
<!-- Node17&#45;&gt;Node2 -->
<g id="edge38" class="edge">
<title>Node17&#45;&gt;Node2</title>
<path fill="none" stroke="midnightblue" d="M1039.79,-56.08C1044.08,-48.61 1050.33,-37.72 1055.61,-28.52"/>
<polygon fill="midnightblue" stroke="midnightblue" points="1058.7,-30.17 1060.65,-19.75 1052.63,-26.68 1058.7,-30.17"/>
</g>
<!-- Node17&#45;&gt;Node3 -->
<g id="edge39" class="edge">
<title>Node17&#45;&gt;Node3</title>
<path fill="none" stroke="midnightblue" d="M1000.47,-57.44C997.5,-56.91 994.54,-56.42 991.67,-56 813.04,-30.05 599.19,-17.84 500.51,-13.27"/>
<polygon fill="midnightblue" stroke="midnightblue" points="500.62,-9.77 490.47,-12.81 500.3,-16.76 500.62,-9.77"/>
</g>
</g>
</svg>
