<?xml version="1.0" encoding="UTF-8" standalone="no"?>
<!DOCTYPE svg PUBLIC "-//W3C//DTD SVG 1.1//EN"
 "http://www.w3.org/Graphics/SVG/1.1/DTD/svg11.dtd">
<!-- Generated by graphviz version 2.43.0 (0)
 -->
<!-- Title: weekday.h Pages: 1 -->
<svg width="1262pt" height="375pt"
 viewBox="0.00 0.00 1261.97 375.00" xmlns="http://www.w3.org/2000/svg" xmlns:xlink="http://www.w3.org/1999/xlink">
<g id="graph0" class="graph" transform="scale(1 1) rotate(0) translate(4 371)">
<title>weekday.h</title>
<!-- Node1 -->
<g id="node1" class="node">
<title>Node1</title>
<g id="a_node1"><a xlink:title=" ">
<polygon fill="#bfbfbf" stroke="black" points="790,-347.5 790,-366.5 858,-366.5 858,-347.5 790,-347.5"/>
<text text-anchor="middle" x="824" y="-354.5" font-family="Helvetica,sans-Serif" font-size="10.00">weekday.h</text>
</a>
</g>
</g>
<!-- Node2 -->
<g id="node2" class="node">
<title>Node2</title>
<g id="a_node2"><a xlink:title=" ">
<polygon fill="none" stroke="#bfbfbf" points="107.5,-0.5 107.5,-19.5 196.5,-19.5 196.5,-0.5 107.5,-0.5"/>
<text text-anchor="middle" x="152" y="-7.5" font-family="Helvetica,sans-Serif" font-size="10.00">limes_export.h</text>
</a>
</g>
</g>
<!-- Node1&#45;&gt;Node2 -->
<g id="edge1" class="edge">
<title>Node1&#45;&gt;Node2</title>
<path fill="none" stroke="midnightblue" d="M789.9,-355.1C634.4,-350.56 0,-327.05 0,-246 0,-246 0,-246 0,-126.5 0,-70.77 65.59,-38.42 110.59,-22.78"/>
<polygon fill="midnightblue" stroke="midnightblue" points="111.75,-26.08 120.14,-19.6 109.54,-19.44 111.75,-26.08"/>
</g>
<!-- Node3 -->
<g id="node3" class="node">
<title>Node3</title>
<g id="a_node3"><a xlink:href="limes__namespace_8h.html" target="_top" xlink:title=" ">
<polygon fill="none" stroke="black" points="607,-0.5 607,-19.5 721,-19.5 721,-0.5 607,-0.5"/>
<text text-anchor="middle" x="664" y="-7.5" font-family="Helvetica,sans-Serif" font-size="10.00">limes_namespace.h</text>
</a>
</g>
</g>
<!-- Node1&#45;&gt;Node3 -->
<g id="edge2" class="edge">
<title>Node1&#45;&gt;Node3</title>
<path fill="none" stroke="midnightblue" d="M789.75,-354.35C732.39,-350.84 613.73,-340.39 518,-311 367.82,-264.89 285.7,-278.96 207,-143 198.19,-127.78 209.01,-60.87 214,-56 240.83,-29.83 477.96,-17.66 596.77,-13.17"/>
<polygon fill="midnightblue" stroke="midnightblue" points="596.98,-16.67 606.85,-12.8 596.72,-9.67 596.98,-16.67"/>
</g>
<!-- Node4 -->
<g id="node4" class="node">
<title>Node4</title>
<g id="a_node4"><a xlink:href="year_8h.html" target="_top" xlink:title=" ">
<polygon fill="none" stroke="black" points="588.5,-291.5 588.5,-310.5 635.5,-310.5 635.5,-291.5 588.5,-291.5"/>
<text text-anchor="middle" x="612" y="-298.5" font-family="Helvetica,sans-Serif" font-size="10.00">year.h</text>
</a>
</g>
</g>
<!-- Node1&#45;&gt;Node4 -->
<g id="edge3" class="edge">
<title>Node1&#45;&gt;Node4</title>
<path fill="none" stroke="midnightblue" d="M790.41,-347.44C750.67,-337.32 684.92,-320.57 645.31,-310.48"/>
<polygon fill="midnightblue" stroke="midnightblue" points="646.14,-307.09 635.59,-308.01 644.42,-313.87 646.14,-307.09"/>
</g>
<!-- Node5 -->
<g id="node5" class="node">
<title>Node5</title>
<g id="a_node5"><a xlink:href="preprocessor_8h.html" target="_top" xlink:title=" ">
<polygon fill="none" stroke="black" points="944.5,-56.5 944.5,-75.5 1067.5,-75.5 1067.5,-56.5 944.5,-56.5"/>
<text text-anchor="middle" x="1006" y="-63.5" font-family="Helvetica,sans-Serif" font-size="10.00">../misc/preprocessor.h</text>
</a>
</g>
</g>
<!-- Node1&#45;&gt;Node5 -->
<g id="edge50" class="edge">
<title>Node1&#45;&gt;Node5</title>
<path fill="none" stroke="midnightblue" d="M858.29,-353.62C950.84,-346.37 1201.52,-320.84 1243,-255 1298.04,-167.64 1128.78,-103.59 1047.26,-78.56"/>
<polygon fill="midnightblue" stroke="midnightblue" points="1047.89,-75.1 1037.3,-75.57 1045.87,-81.8 1047.89,-75.1"/>
</g>
<!-- Node7 -->
<g id="node7" class="node">
<title>Node7</title>
<g id="a_node7"><a xlink:href="compiler__defs_8h.html" target="_top" xlink:title=" ">
<polygon fill="none" stroke="black" points="944.5,-112.5 944.5,-142.5 1051.5,-142.5 1051.5,-112.5 944.5,-112.5"/>
<text text-anchor="start" x="952.5" y="-130.5" font-family="Helvetica,sans-Serif" font-size="10.00">../system/compiler</text>
<text text-anchor="middle" x="998" y="-119.5" font-family="Helvetica,sans-Serif" font-size="10.00">_defs.h</text>
</a>
</g>
</g>
<!-- Node1&#45;&gt;Node7 -->
<g id="edge51" class="edge">
<title>Node1&#45;&gt;Node7</title>
<path fill="none" stroke="midnightblue" d="M858.24,-353.23C912.98,-346.75 1018.74,-325.3 1065,-255 1088.35,-219.51 1050.65,-175.02 1023.01,-149.37"/>
<polygon fill="midnightblue" stroke="midnightblue" points="1025.32,-146.74 1015.55,-142.65 1020.64,-151.94 1025.32,-146.74"/>
</g>
<!-- Node8 -->
<g id="node8" class="node">
<title>Node8</title>
<g id="a_node8"><a xlink:title=" ">
<polygon fill="none" stroke="#bfbfbf" points="640,-235.5 640,-254.5 684,-254.5 684,-235.5 640,-235.5"/>
<text text-anchor="middle" x="662" y="-242.5" font-family="Helvetica,sans-Serif" font-size="10.00">ctime</text>
</a>
</g>
</g>
<!-- Node1&#45;&gt;Node8 -->
<g id="edge54" class="edge">
<title>Node1&#45;&gt;Node8</title>
<path fill="none" stroke="midnightblue" d="M811.29,-347.37C783.49,-328.49 717.06,-283.38 682.97,-260.24"/>
<polygon fill="midnightblue" stroke="midnightblue" points="684.89,-257.31 674.65,-254.59 680.96,-263.1 684.89,-257.31"/>
</g>
<!-- Node12 -->
<g id="node12" class="node">
<title>Node12</title>
<g id="a_node12"><a xlink:title=" ">
<polygon fill="none" stroke="#bfbfbf" points="256.5,-56.5 256.5,-75.5 325.5,-75.5 325.5,-56.5 256.5,-56.5"/>
<text text-anchor="middle" x="291" y="-63.5" font-family="Helvetica,sans-Serif" font-size="10.00">type_traits</text>
</a>
</g>
</g>
<!-- Node1&#45;&gt;Node12 -->
<g id="edge53" class="edge">
<title>Node1&#45;&gt;Node12</title>
<path fill="none" stroke="midnightblue" d="M789.76,-353.09C719.95,-345.89 558,-322.64 442,-255 372.56,-214.51 339.27,-213.13 300,-143 290.18,-125.46 288.82,-102.11 289.36,-85.94"/>
<polygon fill="midnightblue" stroke="midnightblue" points="292.87,-85.82 289.98,-75.62 285.88,-85.39 292.87,-85.82"/>
</g>
<!-- Node19 -->
<g id="node19" class="node">
<title>Node19</title>
<g id="a_node19"><a xlink:href="month_8h.html" target="_top" xlink:title=" ">
<polygon fill="none" stroke="black" points="822.5,-291.5 822.5,-310.5 879.5,-310.5 879.5,-291.5 822.5,-291.5"/>
<text text-anchor="middle" x="851" y="-298.5" font-family="Helvetica,sans-Serif" font-size="10.00">month.h</text>
</a>
</g>
</g>
<!-- Node1&#45;&gt;Node19 -->
<g id="edge38" class="edge">
<title>Node1&#45;&gt;Node19</title>
<path fill="none" stroke="midnightblue" d="M828.46,-347.08C832.15,-339.69 837.52,-328.95 842.09,-319.81"/>
<polygon fill="midnightblue" stroke="midnightblue" points="845.28,-321.26 846.62,-310.75 839.02,-318.13 845.28,-321.26"/>
</g>
<!-- Node20 -->
<g id="node20" class="node">
<title>Node20</title>
<g id="a_node20"><a xlink:title=" ">
<polygon fill="none" stroke="#bfbfbf" points="982.5,-235.5 982.5,-254.5 1055.5,-254.5 1055.5,-235.5 982.5,-235.5"/>
<text text-anchor="middle" x="1019" y="-242.5" font-family="Helvetica,sans-Serif" font-size="10.00">string_view</text>
</a>
</g>
</g>
<!-- Node1&#45;&gt;Node20 -->
<g id="edge52" class="edge">
<title>Node1&#45;&gt;Node20</title>
<path fill="none" stroke="midnightblue" d="M839.3,-347.37C873.12,-328.29 954.43,-282.42 995.06,-259.51"/>
<polygon fill="midnightblue" stroke="midnightblue" points="996.78,-262.55 1003.77,-254.59 993.34,-256.46 996.78,-262.55"/>
</g>
<!-- Node22 -->
<g id="node22" class="node">
<title>Node22</title>
<g id="a_node22"><a xlink:href="weekday__impl_8h.html" target="_top" xlink:title=" ">
<polygon fill="none" stroke="black" points="1112,-235.5 1112,-254.5 1234,-254.5 1234,-235.5 1112,-235.5"/>
<text text-anchor="middle" x="1173" y="-242.5" font-family="Helvetica,sans-Serif" font-size="10.00">impl/weekday_impl.h</text>
</a>
</g>
</g>
<!-- Node1&#45;&gt;Node22 -->
<g id="edge55" class="edge">
<title>Node1&#45;&gt;Node22</title>
<path fill="none" stroke="midnightblue" d="M858.21,-356.25C911.85,-355.39 1017.91,-348.55 1098,-311 1122.48,-299.52 1145.13,-277.69 1159,-262.51"/>
<polygon fill="midnightblue" stroke="midnightblue" points="1161.75,-264.68 1165.75,-254.87 1156.51,-260.04 1161.75,-264.68"/>
</g>
<!-- Node4&#45;&gt;Node2 -->
<g id="edge4" class="edge">
<title>Node4&#45;&gt;Node2</title>
<path fill="none" stroke="midnightblue" d="M588.4,-298.67C517.15,-293.91 299.27,-273.74 138,-199 99.93,-181.36 80.92,-180.45 62,-143 44.56,-108.49 41.67,-88.89 62,-56 71.67,-40.35 88.62,-29.96 105.22,-23.15"/>
<polygon fill="midnightblue" stroke="midnightblue" points="106.75,-26.32 114.9,-19.54 104.31,-19.76 106.75,-26.32"/>
</g>
<!-- Node4&#45;&gt;Node3 -->
<g id="edge5" class="edge">
<title>Node4&#45;&gt;Node3</title>
<path fill="none" stroke="midnightblue" d="M588.18,-295.22C488.49,-274.23 115.21,-185.58 232,-56 255.92,-29.46 481.21,-17.55 596.59,-13.16"/>
<polygon fill="midnightblue" stroke="midnightblue" points="596.86,-16.65 606.73,-12.78 596.6,-9.66 596.86,-16.65"/>
</g>
<!-- Node4&#45;&gt;Node5 -->
<g id="edge6" class="edge">
<title>Node4&#45;&gt;Node5</title>
<path fill="none" stroke="midnightblue" d="M612.65,-291.15C614.02,-277.78 618.24,-252.18 631,-235 658.2,-198.39 677.26,-201.39 717,-179 776.75,-145.33 792.07,-136.82 856,-112 891.07,-98.39 932.05,-86.34 962.3,-78.15"/>
<polygon fill="midnightblue" stroke="midnightblue" points="963.37,-81.49 972.13,-75.52 961.56,-74.72 963.37,-81.49"/>
</g>
<!-- Node4&#45;&gt;Node7 -->
<g id="edge8" class="edge">
<title>Node4&#45;&gt;Node7</title>
<path fill="none" stroke="midnightblue" d="M635.73,-298C675.38,-293.98 756.96,-282.81 820,-255 852.13,-240.83 930.96,-180.93 972.08,-148.9"/>
<polygon fill="midnightblue" stroke="midnightblue" points="974.29,-151.62 980.02,-142.7 969.98,-146.1 974.29,-151.62"/>
</g>
<!-- Node4&#45;&gt;Node8 -->
<g id="edge11" class="edge">
<title>Node4&#45;&gt;Node8</title>
<path fill="none" stroke="midnightblue" d="M620.26,-291.08C627.46,-283.3 638.11,-271.8 646.85,-262.37"/>
<polygon fill="midnightblue" stroke="midnightblue" points="649.67,-264.47 653.9,-254.75 644.53,-259.71 649.67,-264.47"/>
</g>
<!-- Node9 -->
<g id="node9" class="node">
<title>Node9</title>
<g id="a_node9"><a xlink:href="year__impl_8h.html" target="_top" xlink:title=" ">
<polygon fill="none" stroke="black" points="451.5,-235.5 451.5,-254.5 550.5,-254.5 550.5,-235.5 451.5,-235.5"/>
<text text-anchor="middle" x="501" y="-242.5" font-family="Helvetica,sans-Serif" font-size="10.00">impl/year_impl.h</text>
</a>
</g>
</g>
<!-- Node4&#45;&gt;Node9 -->
<g id="edge12" class="edge">
<title>Node4&#45;&gt;Node9</title>
<path fill="none" stroke="midnightblue" d="M594.17,-291.32C576.28,-282.62 548.52,-269.12 527.95,-259.11"/>
<polygon fill="midnightblue" stroke="midnightblue" points="529.31,-255.88 518.79,-254.65 526.25,-262.18 529.31,-255.88"/>
</g>
<!-- Node6 -->
<g id="node6" class="node">
<title>Node6</title>
<g id="a_node6"><a xlink:title=" ">
<polygon fill="none" stroke="#bfbfbf" points="1001,-0.5 1001,-19.5 1101,-19.5 1101,-0.5 1001,-0.5"/>
<text text-anchor="middle" x="1051" y="-7.5" font-family="Helvetica,sans-Serif" font-size="10.00">limes_platform.h</text>
</a>
</g>
</g>
<!-- Node5&#45;&gt;Node6 -->
<g id="edge7" class="edge">
<title>Node5&#45;&gt;Node6</title>
<path fill="none" stroke="midnightblue" d="M1013.43,-56.08C1019.85,-48.38 1029.31,-37.03 1037.12,-27.65"/>
<polygon fill="midnightblue" stroke="midnightblue" points="1039.99,-29.67 1043.71,-19.75 1034.62,-25.19 1039.99,-29.67"/>
</g>
<!-- Node7&#45;&gt;Node5 -->
<g id="edge10" class="edge">
<title>Node7&#45;&gt;Node5</title>
<path fill="none" stroke="midnightblue" d="M999.9,-112.4C1000.97,-104.38 1002.34,-94.23 1003.5,-85.57"/>
<polygon fill="midnightblue" stroke="midnightblue" points="1006.97,-86.04 1004.84,-75.66 1000.03,-85.1 1006.97,-86.04"/>
</g>
<!-- Node7&#45;&gt;Node6 -->
<g id="edge9" class="edge">
<title>Node7&#45;&gt;Node6</title>
<path fill="none" stroke="midnightblue" d="M1035.31,-112.36C1051.15,-104.28 1068.01,-92.42 1077,-76 1085.62,-60.26 1075.65,-41.05 1065.66,-27.61"/>
<polygon fill="midnightblue" stroke="midnightblue" points="1068.29,-25.3 1059.29,-19.71 1062.84,-29.69 1068.29,-25.3"/>
</g>
<!-- Node9&#45;&gt;Node3 -->
<g id="edge13" class="edge">
<title>Node9&#45;&gt;Node3</title>
<path fill="none" stroke="midnightblue" d="M468.91,-235.43C385.06,-211.61 170.94,-140.7 247,-56 269.88,-30.52 484.33,-18.19 596.43,-13.44"/>
<polygon fill="midnightblue" stroke="midnightblue" points="596.78,-16.93 606.62,-13.02 596.49,-9.93 596.78,-16.93"/>
</g>
<!-- Node10 -->
<g id="node10" class="node">
<title>Node10</title>
<g id="a_node10"><a xlink:href="math_helpers_8h.html" target="_top" xlink:title=" ">
<polygon fill="none" stroke="black" points="400.5,-179.5 400.5,-198.5 535.5,-198.5 535.5,-179.5 400.5,-179.5"/>
<text text-anchor="middle" x="468" y="-186.5" font-family="Helvetica,sans-Serif" font-size="10.00">../../math/mathHelpers.h</text>
</a>
</g>
</g>
<!-- Node9&#45;&gt;Node10 -->
<g id="edge14" class="edge">
<title>Node9&#45;&gt;Node10</title>
<path fill="none" stroke="midnightblue" d="M495.55,-235.08C490.99,-227.61 484.33,-216.72 478.71,-207.52"/>
<polygon fill="midnightblue" stroke="midnightblue" points="481.55,-205.46 473.35,-198.75 475.58,-209.11 481.55,-205.46"/>
</g>
<!-- Node18 -->
<g id="node18" class="node">
<title>Node18</title>
<g id="a_node18"><a xlink:href="build__date_8h.html" target="_top" xlink:title=" ">
<polygon fill="none" stroke="black" points="726,-179.5 726,-198.5 812,-198.5 812,-179.5 726,-179.5"/>
<text text-anchor="middle" x="769" y="-186.5" font-family="Helvetica,sans-Serif" font-size="10.00">../build_date.h</text>
</a>
</g>
</g>
<!-- Node9&#45;&gt;Node18 -->
<g id="edge33" class="edge">
<title>Node9&#45;&gt;Node18</title>
<path fill="none" stroke="midnightblue" d="M543.47,-235.44C590.41,-225.98 666.08,-210.74 716.65,-200.55"/>
<polygon fill="midnightblue" stroke="midnightblue" points="717.62,-203.92 726.73,-198.52 716.24,-197.06 717.62,-203.92"/>
</g>
<!-- Node10&#45;&gt;Node2 -->
<g id="edge18" class="edge">
<title>Node10&#45;&gt;Node2</title>
<path fill="none" stroke="midnightblue" d="M410.29,-179.43C376.67,-172.79 334.28,-161.5 300,-143 242.89,-112.17 189.64,-55.17 165.53,-27.26"/>
<polygon fill="midnightblue" stroke="midnightblue" points="168.16,-24.95 159.01,-19.59 162.82,-29.48 168.16,-24.95"/>
</g>
<!-- Node10&#45;&gt;Node3 -->
<g id="edge15" class="edge">
<title>Node10&#45;&gt;Node3</title>
<path fill="none" stroke="midnightblue" d="M456.46,-179.49C446.52,-171.38 432.88,-158.18 427,-143 412.6,-105.81 418.53,-81.74 449,-56 471.08,-37.35 542.38,-25.01 596.88,-18.05"/>
<polygon fill="midnightblue" stroke="midnightblue" points="597.35,-21.51 606.84,-16.81 596.48,-14.57 597.35,-21.51"/>
</g>
<!-- Node10&#45;&gt;Node7 -->
<g id="edge32" class="edge">
<title>Node10&#45;&gt;Node7</title>
<path fill="none" stroke="midnightblue" d="M535.66,-180.4C638.73,-168.83 833.66,-146.95 934.31,-135.65"/>
<polygon fill="midnightblue" stroke="midnightblue" points="934.79,-139.12 944.34,-134.52 934.01,-132.16 934.79,-139.12"/>
</g>
<!-- Node11 -->
<g id="node11" class="node">
<title>Node11</title>
<g id="a_node11"><a xlink:title=" ">
<polygon fill="none" stroke="#bfbfbf" points="332.5,-118 332.5,-137 379.5,-137 379.5,-118 332.5,-118"/>
<text text-anchor="middle" x="356" y="-125" font-family="Helvetica,sans-Serif" font-size="10.00">cmath</text>
</a>
</g>
</g>
<!-- Node10&#45;&gt;Node11 -->
<g id="edge16" class="edge">
<title>Node10&#45;&gt;Node11</title>
<path fill="none" stroke="midnightblue" d="M451.95,-179.48C433.41,-169.62 402.66,-153.29 380.98,-141.77"/>
<polygon fill="midnightblue" stroke="midnightblue" points="382.49,-138.61 372.02,-137.01 379.21,-144.79 382.49,-138.61"/>
</g>
<!-- Node10&#45;&gt;Node12 -->
<g id="edge17" class="edge">
<title>Node10&#45;&gt;Node12</title>
<path fill="none" stroke="midnightblue" d="M400.16,-179.53C373.46,-173.22 344.18,-162.21 323,-143 306.38,-127.93 298.12,-102.84 294.21,-85.64"/>
<polygon fill="midnightblue" stroke="midnightblue" points="297.61,-84.78 292.22,-75.66 290.74,-86.15 297.61,-84.78"/>
</g>
<!-- Node13 -->
<g id="node13" class="node">
<title>Node13</title>
<g id="a_node13"><a xlink:title=" ">
<polygon fill="none" stroke="#bfbfbf" points="436,-118 436,-137 500,-137 500,-118 436,-118"/>
<text text-anchor="middle" x="468" y="-125" font-family="Helvetica,sans-Serif" font-size="10.00">algorithm</text>
</a>
</g>
</g>
<!-- Node10&#45;&gt;Node13 -->
<g id="edge19" class="edge">
<title>Node10&#45;&gt;Node13</title>
<path fill="none" stroke="midnightblue" d="M468,-179.48C468,-171.08 468,-157.98 468,-147.16"/>
<polygon fill="midnightblue" stroke="midnightblue" points="471.5,-147.01 468,-137.01 464.5,-147.01 471.5,-147.01"/>
</g>
<!-- Node14 -->
<g id="node14" class="node">
<title>Node14</title>
<g id="a_node14"><a xlink:href="limes__assert_8h.html" target="_top" xlink:title=" ">
<polygon fill="none" stroke="black" points="556,-118 556,-137 692,-137 692,-118 556,-118"/>
<text text-anchor="middle" x="624" y="-125" font-family="Helvetica,sans-Serif" font-size="10.00">../system/limes_assert.h</text>
</a>
</g>
</g>
<!-- Node10&#45;&gt;Node14 -->
<g id="edge20" class="edge">
<title>Node10&#45;&gt;Node14</title>
<path fill="none" stroke="midnightblue" d="M490.35,-179.48C516.99,-169.31 561.71,-152.26 592.01,-140.7"/>
<polygon fill="midnightblue" stroke="midnightblue" points="593.59,-143.84 601.69,-137.01 591.1,-137.3 593.59,-143.84"/>
</g>
<!-- Node14&#45;&gt;Node2 -->
<g id="edge21" class="edge">
<title>Node14&#45;&gt;Node2</title>
<path fill="none" stroke="midnightblue" d="M588.28,-117.92C552.54,-108.93 496.24,-93.68 449,-76 429.26,-68.61 426.1,-62.34 406,-56 339.13,-34.92 259.05,-22.79 206.93,-16.55"/>
<polygon fill="midnightblue" stroke="midnightblue" points="207.23,-13.06 196.89,-15.38 206.42,-20.02 207.23,-13.06"/>
</g>
<!-- Node14&#45;&gt;Node3 -->
<g id="edge22" class="edge">
<title>Node14&#45;&gt;Node3</title>
<path fill="none" stroke="midnightblue" d="M624.59,-117.99C625.73,-104.47 628.9,-77.42 637,-56 640.66,-46.32 646.38,-36.37 651.62,-28.3"/>
<polygon fill="midnightblue" stroke="midnightblue" points="654.67,-30.05 657.4,-19.81 648.88,-26.11 654.67,-30.05"/>
</g>
<!-- Node14&#45;&gt;Node5 -->
<g id="edge23" class="edge">
<title>Node14&#45;&gt;Node5</title>
<path fill="none" stroke="midnightblue" d="M671.23,-117.93C682.6,-115.93 694.73,-113.84 706,-112 784.61,-99.16 875.06,-85.78 935.91,-76.99"/>
<polygon fill="midnightblue" stroke="midnightblue" points="936.76,-80.4 946.16,-75.51 935.77,-73.47 936.76,-80.4"/>
</g>
<!-- Node14&#45;&gt;Node6 -->
<g id="edge30" class="edge">
<title>Node14&#45;&gt;Node6</title>
<path fill="none" stroke="midnightblue" d="M655.75,-117.91C731.8,-97.34 924.42,-45.24 1009.51,-22.22"/>
<polygon fill="midnightblue" stroke="midnightblue" points="1010.6,-25.55 1019.34,-19.56 1008.77,-18.8 1010.6,-25.55"/>
</g>
<!-- Node14&#45;&gt;Node12 -->
<g id="edge24" class="edge">
<title>Node14&#45;&gt;Node12</title>
<path fill="none" stroke="midnightblue" d="M576.29,-117.98C512.07,-106.5 398.64,-86.23 335.89,-75.02"/>
<polygon fill="midnightblue" stroke="midnightblue" points="336.36,-71.55 325.9,-73.24 335.13,-78.44 336.36,-71.55"/>
</g>
<!-- Node15 -->
<g id="node15" class="node">
<title>Node15</title>
<g id="a_node15"><a xlink:title=" ">
<polygon fill="none" stroke="#bfbfbf" points="458.5,-56.5 458.5,-75.5 503.5,-75.5 503.5,-56.5 458.5,-56.5"/>
<text text-anchor="middle" x="481" y="-63.5" font-family="Helvetica,sans-Serif" font-size="10.00">utility</text>
</a>
</g>
</g>
<!-- Node14&#45;&gt;Node15 -->
<g id="edge25" class="edge">
<title>Node14&#45;&gt;Node15</title>
<path fill="none" stroke="midnightblue" d="M603.51,-117.98C579.19,-107.86 538.45,-90.9 510.68,-79.35"/>
<polygon fill="midnightblue" stroke="midnightblue" points="512.03,-76.12 501.45,-75.51 509.34,-82.58 512.03,-76.12"/>
</g>
<!-- Node16 -->
<g id="node16" class="node">
<title>Node16</title>
<g id="a_node16"><a xlink:href="_ignore_unused_8h.html" target="_top" xlink:title=" ">
<polygon fill="none" stroke="black" points="646,-56.5 646,-75.5 774,-75.5 774,-56.5 646,-56.5"/>
<text text-anchor="middle" x="710" y="-63.5" font-family="Helvetica,sans-Serif" font-size="10.00">../misc/IgnoreUnused.h</text>
</a>
</g>
</g>
<!-- Node14&#45;&gt;Node16 -->
<g id="edge26" class="edge">
<title>Node14&#45;&gt;Node16</title>
<path fill="none" stroke="midnightblue" d="M636.32,-117.98C650.12,-108.43 672.7,-92.81 689.23,-81.37"/>
<polygon fill="midnightblue" stroke="midnightblue" points="691.47,-84.08 697.7,-75.51 687.49,-78.32 691.47,-84.08"/>
</g>
<!-- Node17 -->
<g id="node17" class="node">
<title>Node17</title>
<g id="a_node17"><a xlink:title=" ">
<polygon fill="none" stroke="#bfbfbf" points="522,-56.5 522,-75.5 590,-75.5 590,-56.5 522,-56.5"/>
<text text-anchor="middle" x="556" y="-63.5" font-family="Helvetica,sans-Serif" font-size="10.00">filesystem</text>
</a>
</g>
</g>
<!-- Node14&#45;&gt;Node17 -->
<g id="edge31" class="edge">
<title>Node14&#45;&gt;Node17</title>
<path fill="none" stroke="midnightblue" d="M614.26,-117.98C603.65,-108.7 586.48,-93.67 573.52,-82.33"/>
<polygon fill="midnightblue" stroke="midnightblue" points="575.56,-79.46 565.72,-75.51 570.95,-84.73 575.56,-79.46"/>
</g>
<!-- Node16&#45;&gt;Node2 -->
<g id="edge27" class="edge">
<title>Node16&#45;&gt;Node2</title>
<path fill="none" stroke="midnightblue" d="M645.99,-58.81C535.42,-48.11 310.56,-26.34 206.76,-16.3"/>
<polygon fill="midnightblue" stroke="midnightblue" points="206.79,-12.79 196.5,-15.31 206.12,-19.75 206.79,-12.79"/>
</g>
<!-- Node16&#45;&gt;Node3 -->
<g id="edge28" class="edge">
<title>Node16&#45;&gt;Node3</title>
<path fill="none" stroke="midnightblue" d="M702.4,-56.08C695.77,-48.3 685.98,-36.8 677.94,-27.37"/>
<polygon fill="midnightblue" stroke="midnightblue" points="680.6,-25.09 671.45,-19.75 675.27,-29.63 680.6,-25.09"/>
</g>
<!-- Node16&#45;&gt;Node6 -->
<g id="edge29" class="edge">
<title>Node16&#45;&gt;Node6</title>
<path fill="none" stroke="midnightblue" d="M764.03,-56.44C825.8,-46.66 926.63,-30.69 990.85,-20.53"/>
<polygon fill="midnightblue" stroke="midnightblue" points="991.5,-23.97 1000.83,-18.94 990.41,-17.05 991.5,-23.97"/>
</g>
<!-- Node18&#45;&gt;Node2 -->
<g id="edge34" class="edge">
<title>Node18&#45;&gt;Node2</title>
<path fill="none" stroke="midnightblue" d="M725.76,-185.4C679.55,-181.24 605.11,-170.51 547,-143 527.3,-133.67 528.16,-122.39 509,-112 491.05,-102.27 353.64,-61.56 334,-56 288.77,-43.19 236.65,-30.51 199.81,-21.89"/>
<polygon fill="midnightblue" stroke="midnightblue" points="200.37,-18.43 189.84,-19.57 198.79,-25.25 200.37,-18.43"/>
</g>
<!-- Node18&#45;&gt;Node3 -->
<g id="edge35" class="edge">
<title>Node18&#45;&gt;Node3</title>
<path fill="none" stroke="midnightblue" d="M777.11,-179.46C797.28,-157.16 845.99,-96.15 816,-56 796.38,-29.74 762.12,-18.17 731.08,-13.31"/>
<polygon fill="midnightblue" stroke="midnightblue" points="731.52,-9.84 721.14,-11.96 730.58,-16.77 731.52,-9.84"/>
</g>
<!-- Node18&#45;&gt;Node5 -->
<g id="edge36" class="edge">
<title>Node18&#45;&gt;Node5</title>
<path fill="none" stroke="midnightblue" d="M785.67,-179.49C826.36,-158.71 931.05,-105.27 980.02,-80.26"/>
<polygon fill="midnightblue" stroke="midnightblue" points="981.72,-83.33 989.04,-75.66 978.54,-77.09 981.72,-83.33"/>
</g>
<!-- Node18&#45;&gt;Node7 -->
<g id="edge37" class="edge">
<title>Node18&#45;&gt;Node7</title>
<path fill="none" stroke="midnightblue" d="M801.81,-179.48C836.35,-170.5 891.57,-156.15 934.64,-144.96"/>
<polygon fill="midnightblue" stroke="midnightblue" points="935.67,-148.31 944.47,-142.41 933.91,-141.54 935.67,-148.31"/>
</g>
<!-- Node19&#45;&gt;Node2 -->
<g id="edge39" class="edge">
<title>Node19&#45;&gt;Node2</title>
<path fill="none" stroke="midnightblue" d="M822.43,-299.86C754.99,-298.88 581.13,-292.59 442,-255 382.84,-239.01 367.77,-231.8 316,-199 249.62,-156.95 235.43,-139.4 189,-76 178,-60.97 167.71,-42.38 160.79,-28.93"/>
<polygon fill="midnightblue" stroke="midnightblue" points="163.81,-27.16 156.2,-19.8 157.56,-30.31 163.81,-27.16"/>
</g>
<!-- Node19&#45;&gt;Node3 -->
<g id="edge40" class="edge">
<title>Node19&#45;&gt;Node3</title>
<path fill="none" stroke="midnightblue" d="M853.66,-291.16C863.53,-256.47 894.41,-128.06 835,-56 821.53,-39.66 772.93,-27.87 730.97,-20.46"/>
<polygon fill="midnightblue" stroke="midnightblue" points="731.47,-17 721.02,-18.76 730.29,-23.9 731.47,-17"/>
</g>
<!-- Node19&#45;&gt;Node5 -->
<g id="edge41" class="edge">
<title>Node19&#45;&gt;Node5</title>
<path fill="none" stroke="midnightblue" d="M865.89,-291.33C910.23,-265.16 1039.64,-186.14 1061,-143 1067.11,-130.65 1066.9,-124.45 1061,-112 1054.87,-99.07 1043.01,-88.62 1031.86,-81.05"/>
<polygon fill="midnightblue" stroke="midnightblue" points="1033.53,-77.97 1023.2,-75.61 1029.81,-83.9 1033.53,-77.97"/>
</g>
<!-- Node19&#45;&gt;Node7 -->
<g id="edge42" class="edge">
<title>Node19&#45;&gt;Node7</title>
<path fill="none" stroke="midnightblue" d="M858.97,-291.47C867.31,-282.49 880.73,-267.89 892,-255 923.51,-218.95 959.05,-176.06 979.93,-150.62"/>
<polygon fill="midnightblue" stroke="midnightblue" points="982.79,-152.65 986.42,-142.7 977.38,-148.22 982.79,-152.65"/>
</g>
<!-- Node19&#45;&gt;Node8 -->
<g id="edge44" class="edge">
<title>Node19&#45;&gt;Node8</title>
<path fill="none" stroke="midnightblue" d="M822.44,-291.91C792.71,-283.48 744.52,-269.79 693.84,-255.23"/>
<polygon fill="midnightblue" stroke="midnightblue" points="694.59,-251.81 684.01,-252.41 692.65,-258.53 694.59,-251.81"/>
</g>
<!-- Node19&#45;&gt;Node20 -->
<g id="edge43" class="edge">
<title>Node19&#45;&gt;Node20</title>
<path fill="none" stroke="midnightblue" d="M877.62,-291.44C906.01,-282.32 951.14,-267.81 982.75,-257.65"/>
<polygon fill="midnightblue" stroke="midnightblue" points="984.06,-260.91 992.5,-254.52 981.91,-254.24 984.06,-260.91"/>
</g>
<!-- Node21 -->
<g id="node21" class="node">
<title>Node21</title>
<g id="a_node21"><a xlink:href="month__impl_8h.html" target="_top" xlink:title=" ">
<polygon fill="none" stroke="black" points="702.5,-235.5 702.5,-254.5 811.5,-254.5 811.5,-235.5 702.5,-235.5"/>
<text text-anchor="middle" x="757" y="-242.5" font-family="Helvetica,sans-Serif" font-size="10.00">impl/month_impl.h</text>
</a>
</g>
</g>
<!-- Node19&#45;&gt;Node21 -->
<g id="edge45" class="edge">
<title>Node19&#45;&gt;Node21</title>
<path fill="none" stroke="midnightblue" d="M835.9,-291.32C821.1,-282.82 798.31,-269.73 781.02,-259.8"/>
<polygon fill="midnightblue" stroke="midnightblue" points="782.48,-256.6 772.07,-254.65 778.99,-262.67 782.48,-256.6"/>
</g>
<!-- Node21&#45;&gt;Node3 -->
<g id="edge46" class="edge">
<title>Node21&#45;&gt;Node3</title>
<path fill="none" stroke="midnightblue" d="M745.73,-235.43C736.03,-227.27 722.72,-214.05 717,-199 713.84,-190.69 714.5,-187.53 717,-179 734.44,-119.46 818.27,-107.04 783,-56 770.91,-38.51 751.1,-27.81 731.07,-21.27"/>
<polygon fill="midnightblue" stroke="midnightblue" points="731.83,-17.84 721.25,-18.38 729.85,-24.56 731.83,-17.84"/>
</g>
<!-- Node21&#45;&gt;Node6 -->
<g id="edge47" class="edge">
<title>Node21&#45;&gt;Node6</title>
<path fill="none" stroke="midnightblue" d="M811.54,-238.98C877.94,-230.21 989.97,-206.45 1061,-143 1091.61,-115.65 1106.82,-94.28 1092,-56 1087.55,-44.5 1078.63,-34.13 1070.25,-26.25"/>
<polygon fill="midnightblue" stroke="midnightblue" points="1072.37,-23.46 1062.54,-19.51 1067.76,-28.73 1072.37,-23.46"/>
</g>
<!-- Node21&#45;&gt;Node10 -->
<g id="edge48" class="edge">
<title>Node21&#45;&gt;Node10</title>
<path fill="none" stroke="midnightblue" d="M711.21,-235.44C660.26,-225.92 577.97,-210.55 523.43,-200.36"/>
<polygon fill="midnightblue" stroke="midnightblue" points="524.05,-196.91 513.58,-198.52 522.77,-203.79 524.05,-196.91"/>
</g>
<!-- Node21&#45;&gt;Node18 -->
<g id="edge49" class="edge">
<title>Node21&#45;&gt;Node18</title>
<path fill="none" stroke="midnightblue" d="M758.98,-235.08C760.57,-227.93 762.86,-217.64 764.85,-208.69"/>
<polygon fill="midnightblue" stroke="midnightblue" points="768.3,-209.27 767.06,-198.75 761.47,-207.75 768.3,-209.27"/>
</g>
<!-- Node22&#45;&gt;Node3 -->
<g id="edge57" class="edge">
<title>Node22&#45;&gt;Node3</title>
<path fill="none" stroke="midnightblue" d="M1171.55,-235.38C1165.93,-204.84 1142.47,-101.14 1077,-56 1022.53,-18.45 834.05,-11.61 731.59,-10.75"/>
<polygon fill="midnightblue" stroke="midnightblue" points="731.37,-7.24 721.34,-10.68 731.32,-14.24 731.37,-7.24"/>
</g>
<!-- Node22&#45;&gt;Node6 -->
<g id="edge58" class="edge">
<title>Node22&#45;&gt;Node6</title>
<path fill="none" stroke="midnightblue" d="M1178.71,-235.46C1197.07,-206.86 1250.96,-113 1208,-56 1196.09,-40.2 1150.53,-28.26 1111.53,-20.66"/>
<polygon fill="midnightblue" stroke="midnightblue" points="1111.73,-17.14 1101.26,-18.73 1110.44,-24.01 1111.73,-17.14"/>
</g>
<!-- Node22&#45;&gt;Node18 -->
<g id="edge56" class="edge">
<title>Node22&#45;&gt;Node18</title>
<path fill="none" stroke="midnightblue" d="M1111.64,-235.8C1032.79,-225.26 897.19,-207.13 822.4,-197.14"/>
<polygon fill="midnightblue" stroke="midnightblue" points="822.64,-193.64 812.27,-195.78 821.71,-200.58 822.64,-193.64"/>
</g>
</g>
</svg>
