<?xml version="1.0" encoding="UTF-8" standalone="no"?>
<!DOCTYPE svg PUBLIC "-//W3C//DTD SVG 1.1//EN"
 "http://www.w3.org/Graphics/SVG/1.1/DTD/svg11.dtd">
<!-- Generated by graphviz version 2.43.0 (0)
 -->
<!-- Title: weekday.h Pages: 1 -->
<!--zoomable 375 -->
<svg id="main" version="1.1" xmlns="http://www.w3.org/2000/svg" xmlns:xlink="http://www.w3.org/1999/xlink" xml:space="preserve" onload="init(evt)">
<style type="text/css"><![CDATA[
.edge:hover path { stroke: red; }
.edge:hover polygon { stroke: red; fill: red; }
]]></style>
<script type="text/javascript"><![CDATA[
var edges = document.getElementsByTagName('g');
if (edges && edges.length) {
  for (var i=0;i<edges.length;i++) {
    if (edges[i].id.substr(0,4)=='edge') {
      edges[i].setAttribute('class','edge');
    }
  }
}
]]></script>
        <defs>
                <circle id="rim" cx="0" cy="0" r="7"/>
                <circle id="rim2" cx="0" cy="0" r="3.5"/>
                <g id="zoomPlus">
                        <use xlink:href="#rim" fill="#404040">
                                <set attributeName="fill" to="#808080" begin="zoomplus.mouseover" end="zoomplus.mouseout"/>
                        </use>
                        <path d="M-4,0h8M0,-4v8" fill="none" stroke="white" stroke-width="1.5" pointer-events="none"/>
                </g>
                <g id="zoomMin">
                        <use xlink:href="#rim" fill="#404040">
                                <set attributeName="fill" to="#808080" begin="zoomminus.mouseover" end="zoomminus.mouseout"/>
                        </use>
                        <path d="M-4,0h8" fill="none" stroke="white" stroke-width="1.5" pointer-events="none"/>
                </g>
                <g id="dirArrow">
                        <path fill="none" stroke="white" stroke-width="1.5" d="M0,-3.0v7 M-2.5,-0.5L0,-3.0L2.5,-0.5"/>
                </g>
               <g id="resetDef">
                       <use xlink:href="#rim2" fill="#404040">
                               <set attributeName="fill" to="#808080" begin="reset.mouseover" end="reset.mouseout"/>
                       </use>
               </g>
        </defs>

<script type="text/javascript">
var viewWidth = 1345;
var viewHeight = 375;
var sectionId = 'dynsection-0';
</script>
<script xlink:href="svgpan.js"/>
<svg id="graph" class="graph">
<g id="viewport">
<title>weekday.h</title>
<!-- Node1 -->
<g id="node1" class="node">
<title>Node1</title>
<g id="a_node1"><a xlink:title=" ">
<polygon fill="#bfbfbf" stroke="black" points="793,-347.5 793,-366.5 861,-366.5 861,-347.5 793,-347.5"/>
<text text-anchor="middle" x="827" y="-354.5" font-family="Helvetica,sans-Serif" font-size="10.00">weekday.h</text>
</a>
</g>
</g>
<!-- Node2 -->
<g id="node2" class="node">
<title>Node2</title>
<g id="a_node2"><a xlink:title=" ">
<polygon fill="none" stroke="#bfbfbf" points="69.5,-0.5 69.5,-19.5 158.5,-19.5 158.5,-0.5 69.5,-0.5"/>
<text text-anchor="middle" x="114" y="-7.5" font-family="Helvetica,sans-Serif" font-size="10.00">limes_export.h</text>
</a>
</g>
</g>
<!-- Node1&#45;&gt;Node2 -->
<g id="edge1" class="edge">
<title>Node1&#45;&gt;Node2</title>
<path fill="none" stroke="midnightblue" d="M792.61,-355.74C669.24,-354.52 249.43,-347.69 121,-311 62.3,-294.23 0,-307.05 0,-246 0,-246 0,-246 0,-126.5 0,-77.7 52.19,-42.06 85.95,-24.11"/>
<polygon fill="midnightblue" stroke="midnightblue" points="87.61,-27.19 94.92,-19.52 84.42,-20.96 87.61,-27.19"/>
</g>
<!-- Node3 -->
<g id="node3" class="node">
<title>Node3</title>
<g id="a_node3"><a xlink:href="limes__namespace_8h.html" target="_top" xlink:title=" ">
<polygon fill="none" stroke="black" points="688,-0.5 688,-19.5 802,-19.5 802,-0.5 688,-0.5"/>
<text text-anchor="middle" x="745" y="-7.5" font-family="Helvetica,sans-Serif" font-size="10.00">limes_namespace.h</text>
</a>
</g>
</g>
<!-- Node1&#45;&gt;Node3 -->
<g id="edge2" class="edge">
<title>Node1&#45;&gt;Node3</title>
<path fill="none" stroke="midnightblue" d="M793,-356.87C706.96,-357.55 476.26,-349.77 318,-255 229.68,-202.11 205.7,-172.92 171,-76 168,-67.63 164.97,-62.53 171,-56 204.8,-19.45 533.6,-12.53 677.8,-11.26"/>
<polygon fill="midnightblue" stroke="midnightblue" points="677.88,-14.76 687.86,-11.18 677.83,-7.76 677.88,-14.76"/>
</g>
<!-- Node4 -->
<g id="node4" class="node">
<title>Node4</title>
<g id="a_node4"><a xlink:href="year_8h.html" target="_top" xlink:title=" ">
<polygon fill="none" stroke="black" points="670.5,-291.5 670.5,-310.5 717.5,-310.5 717.5,-291.5 670.5,-291.5"/>
<text text-anchor="middle" x="694" y="-298.5" font-family="Helvetica,sans-Serif" font-size="10.00">year.h</text>
</a>
</g>
</g>
<!-- Node1&#45;&gt;Node4 -->
<g id="edge3" class="edge">
<title>Node1&#45;&gt;Node4</title>
<path fill="none" stroke="midnightblue" d="M805.93,-347.44C783.94,-338.52 749.27,-324.44 724.34,-314.32"/>
<polygon fill="midnightblue" stroke="midnightblue" points="725.56,-311.04 714.98,-310.52 722.92,-317.52 725.56,-311.04"/>
</g>
<!-- Node5 -->
<g id="node5" class="node">
<title>Node5</title>
<g id="a_node5"><a xlink:href="preprocessor_8h.html" target="_top" xlink:title=" ">
<polygon fill="none" stroke="black" points="982.5,-56.5 982.5,-75.5 1105.5,-75.5 1105.5,-56.5 982.5,-56.5"/>
<text text-anchor="middle" x="1044" y="-63.5" font-family="Helvetica,sans-Serif" font-size="10.00">../misc/preprocessor.h</text>
</a>
</g>
</g>
<!-- Node1&#45;&gt;Node5 -->
<g id="edge49" class="edge">
<title>Node1&#45;&gt;Node5</title>
<path fill="none" stroke="midnightblue" d="M861.29,-355.1C965.61,-351.5 1275.1,-334.21 1325,-255 1385.66,-158.71 1193.25,-100.44 1096.31,-77.83"/>
<polygon fill="midnightblue" stroke="midnightblue" points="1096.92,-74.38 1086.39,-75.56 1095.36,-81.2 1096.92,-74.38"/>
</g>
<!-- Node7 -->
<g id="node7" class="node">
<title>Node7</title>
<g id="a_node7"><a xlink:href="compiler__defs_8h.html" target="_top" xlink:title=" ">
<polygon fill="none" stroke="black" points="982.5,-112.5 982.5,-142.5 1089.5,-142.5 1089.5,-112.5 982.5,-112.5"/>
<text text-anchor="start" x="990.5" y="-130.5" font-family="Helvetica,sans-Serif" font-size="10.00">../system/compiler</text>
<text text-anchor="middle" x="1036" y="-119.5" font-family="Helvetica,sans-Serif" font-size="10.00">_defs.h</text>
</a>
</g>
</g>
<!-- Node1&#45;&gt;Node7 -->
<g id="edge50" class="edge">
<title>Node1&#45;&gt;Node7</title>
<path fill="none" stroke="midnightblue" d="M861.07,-350.45C936.34,-337.41 1112.89,-302.32 1147,-255 1176.35,-214.28 1116.33,-171.25 1073.66,-147.34"/>
<polygon fill="midnightblue" stroke="midnightblue" points="1075.32,-144.26 1064.86,-142.54 1071.96,-150.4 1075.32,-144.26"/>
</g>
<!-- Node8 -->
<g id="node8" class="node">
<title>Node8</title>
<g id="a_node8"><a xlink:title=" ">
<polygon fill="none" stroke="#bfbfbf" points="722,-235.5 722,-254.5 766,-254.5 766,-235.5 722,-235.5"/>
<text text-anchor="middle" x="744" y="-242.5" font-family="Helvetica,sans-Serif" font-size="10.00">ctime</text>
</a>
</g>
</g>
<!-- Node1&#45;&gt;Node8 -->
<g id="edge53" class="edge">
<title>Node1&#45;&gt;Node8</title>
<path fill="none" stroke="midnightblue" d="M820.49,-347.37C806.73,-329.14 774.5,-286.43 756.58,-262.68"/>
<polygon fill="midnightblue" stroke="midnightblue" points="759.3,-260.47 750.48,-254.59 753.71,-264.68 759.3,-260.47"/>
</g>
<!-- Node12 -->
<g id="node12" class="node">
<title>Node12</title>
<g id="a_node12"><a xlink:title=" ">
<polygon fill="none" stroke="#bfbfbf" points="180.5,-56.5 180.5,-75.5 249.5,-75.5 249.5,-56.5 180.5,-56.5"/>
<text text-anchor="middle" x="215" y="-63.5" font-family="Helvetica,sans-Serif" font-size="10.00">type_traits</text>
</a>
</g>
</g>
<!-- Node1&#45;&gt;Node12 -->
<g id="edge52" class="edge">
<title>Node1&#45;&gt;Node12</title>
<path fill="none" stroke="midnightblue" d="M792.63,-356.44C659.52,-357.77 183.07,-359.11 138,-311 75.36,-244.14 163.64,-126.63 200.31,-83.49"/>
<polygon fill="midnightblue" stroke="midnightblue" points="202.99,-85.74 206.9,-75.89 197.7,-81.15 202.99,-85.74"/>
</g>
<!-- Node19 -->
<g id="node19" class="node">
<title>Node19</title>
<g id="a_node19"><a xlink:href="month_8h.html" target="_top" xlink:title=" ">
<polygon fill="none" stroke="black" points="815.5,-291.5 815.5,-310.5 872.5,-310.5 872.5,-291.5 815.5,-291.5"/>
<text text-anchor="middle" x="844" y="-298.5" font-family="Helvetica,sans-Serif" font-size="10.00">month.h</text>
</a>
</g>
</g>
<!-- Node1&#45;&gt;Node19 -->
<g id="edge37" class="edge">
<title>Node1&#45;&gt;Node19</title>
<path fill="none" stroke="midnightblue" d="M829.81,-347.08C832.08,-339.85 835.37,-329.41 838.21,-320.4"/>
<polygon fill="midnightblue" stroke="midnightblue" points="841.58,-321.34 841.25,-310.75 834.9,-319.24 841.58,-321.34"/>
</g>
<!-- Node20 -->
<g id="node20" class="node">
<title>Node20</title>
<g id="a_node20"><a xlink:title=" ">
<polygon fill="none" stroke="#bfbfbf" points="1064.5,-235.5 1064.5,-254.5 1137.5,-254.5 1137.5,-235.5 1064.5,-235.5"/>
<text text-anchor="middle" x="1101" y="-242.5" font-family="Helvetica,sans-Serif" font-size="10.00">string_view</text>
</a>
</g>
</g>
<!-- Node1&#45;&gt;Node20 -->
<g id="edge51" class="edge">
<title>Node1&#45;&gt;Node20</title>
<path fill="none" stroke="midnightblue" d="M848.5,-347.37C896.82,-327.97 1014.14,-280.87 1070.19,-258.37"/>
<polygon fill="midnightblue" stroke="midnightblue" points="1071.62,-261.57 1079.6,-254.59 1069.02,-255.07 1071.62,-261.57"/>
</g>
<!-- Node22 -->
<g id="node22" class="node">
<title>Node22</title>
<g id="a_node22"><a xlink:href="weekday__impl_8h.html" target="_top" xlink:title=" ">
<polygon fill="none" stroke="black" points="1194,-235.5 1194,-254.5 1316,-254.5 1316,-235.5 1194,-235.5"/>
<text text-anchor="middle" x="1255" y="-242.5" font-family="Helvetica,sans-Serif" font-size="10.00">impl/weekday_impl.h</text>
</a>
</g>
</g>
<!-- Node1&#45;&gt;Node22 -->
<g id="edge54" class="edge">
<title>Node1&#45;&gt;Node22</title>
<path fill="none" stroke="midnightblue" d="M861.03,-354.17C938.03,-349.63 1123.32,-336.34 1180,-311 1204.95,-299.84 1227.78,-277.56 1241.53,-262.22"/>
<polygon fill="midnightblue" stroke="midnightblue" points="1244.29,-264.37 1248.2,-254.52 1239,-259.79 1244.29,-264.37"/>
</g>
<!-- Node4&#45;&gt;Node2 -->
<g id="edge4" class="edge">
<title>Node4&#45;&gt;Node2</title>
<path fill="none" stroke="midnightblue" d="M670.24,-298.85C571.22,-293.66 192.33,-269.41 100,-199 47.71,-159.12 34.66,-115.81 62,-56 67.78,-43.36 79.05,-32.91 89.63,-25.27"/>
<polygon fill="midnightblue" stroke="midnightblue" points="91.85,-28 98.22,-19.53 87.96,-22.18 91.85,-28"/>
</g>
<!-- Node4&#45;&gt;Node3 -->
<g id="edge5" class="edge">
<title>Node4&#45;&gt;Node3</title>
<path fill="none" stroke="midnightblue" d="M670.44,-298.9C582.44,-294.15 278,-271.8 278,-190 278,-190 278,-190 278,-126.5 278,-114.46 251.08,-104.37 373,-56 426.91,-34.61 586.2,-21.19 677.92,-15.01"/>
<polygon fill="midnightblue" stroke="midnightblue" points="678.19,-18.5 687.94,-14.34 677.73,-11.51 678.19,-18.5"/>
</g>
<!-- Node4&#45;&gt;Node5 -->
<g id="edge6" class="edge">
<title>Node4&#45;&gt;Node5</title>
<path fill="none" stroke="midnightblue" d="M694.41,-291.44C695.48,-278 699.3,-251.74 713,-235 787.43,-144.01 923.86,-97.39 996.13,-78.11"/>
<polygon fill="midnightblue" stroke="midnightblue" points="997.1,-81.47 1005.89,-75.57 995.33,-74.7 997.1,-81.47"/>
</g>
<!-- Node4&#45;&gt;Node7 -->
<g id="edge8" class="edge">
<title>Node4&#45;&gt;Node7</title>
<path fill="none" stroke="midnightblue" d="M717.63,-297.87C771.73,-292.63 902.74,-277.91 940,-255 980.72,-229.96 1010.32,-180.8 1025.19,-151.69"/>
<polygon fill="midnightblue" stroke="midnightblue" points="1028.36,-153.16 1029.65,-142.65 1022.09,-150.06 1028.36,-153.16"/>
</g>
<!-- Node4&#45;&gt;Node8 -->
<g id="edge11" class="edge">
<title>Node4&#45;&gt;Node8</title>
<path fill="none" stroke="midnightblue" d="M702.26,-291.08C709.46,-283.3 720.11,-271.8 728.85,-262.37"/>
<polygon fill="midnightblue" stroke="midnightblue" points="731.67,-264.47 735.9,-254.75 726.53,-259.71 731.67,-264.47"/>
</g>
<!-- Node9 -->
<g id="node9" class="node">
<title>Node9</title>
<g id="a_node9"><a xlink:href="year__impl_8h.html" target="_top" xlink:title=" ">
<polygon fill="none" stroke="black" points="566.5,-235.5 566.5,-254.5 665.5,-254.5 665.5,-235.5 566.5,-235.5"/>
<text text-anchor="middle" x="616" y="-242.5" font-family="Helvetica,sans-Serif" font-size="10.00">impl/year_impl.h</text>
</a>
</g>
</g>
<!-- Node4&#45;&gt;Node9 -->
<g id="edge12" class="edge">
<title>Node4&#45;&gt;Node9</title>
<path fill="none" stroke="midnightblue" d="M681.47,-291.32C669.41,-282.98 650.97,-270.21 636.73,-260.35"/>
<polygon fill="midnightblue" stroke="midnightblue" points="638.72,-257.47 628.5,-254.65 634.73,-263.22 638.72,-257.47"/>
</g>
<!-- Node6 -->
<g id="node6" class="node">
<title>Node6</title>
<g id="a_node6"><a xlink:title=" ">
<polygon fill="none" stroke="#bfbfbf" points="1084,-0.5 1084,-19.5 1184,-19.5 1184,-0.5 1084,-0.5"/>
<text text-anchor="middle" x="1134" y="-7.5" font-family="Helvetica,sans-Serif" font-size="10.00">limes_platform.h</text>
</a>
</g>
</g>
<!-- Node5&#45;&gt;Node6 -->
<g id="edge7" class="edge">
<title>Node5&#45;&gt;Node6</title>
<path fill="none" stroke="midnightblue" d="M1058.46,-56.32C1072.5,-47.9 1094.05,-34.97 1110.54,-25.07"/>
<polygon fill="midnightblue" stroke="midnightblue" points="1112.8,-27.8 1119.58,-19.65 1109.2,-21.8 1112.8,-27.8"/>
</g>
<!-- Node7&#45;&gt;Node5 -->
<g id="edge10" class="edge">
<title>Node7&#45;&gt;Node5</title>
<path fill="none" stroke="midnightblue" d="M1037.9,-112.4C1038.97,-104.38 1040.34,-94.23 1041.5,-85.57"/>
<polygon fill="midnightblue" stroke="midnightblue" points="1044.97,-86.04 1042.84,-75.66 1038.03,-85.1 1044.97,-86.04"/>
</g>
<!-- Node7&#45;&gt;Node6 -->
<g id="edge9" class="edge">
<title>Node7&#45;&gt;Node6</title>
<path fill="none" stroke="midnightblue" d="M1068.88,-112.33C1084.89,-103.9 1103.19,-91.76 1115,-76 1125.03,-62.62 1129.78,-44.05 1132.02,-30.19"/>
<polygon fill="midnightblue" stroke="midnightblue" points="1135.54,-30.23 1133.37,-19.86 1128.6,-29.32 1135.54,-30.23"/>
</g>
<!-- Node9&#45;&gt;Node3 -->
<g id="edge13" class="edge">
<title>Node9&#45;&gt;Node3</title>
<path fill="none" stroke="midnightblue" d="M626.81,-235.5C637.16,-226.99 652.83,-213.17 664,-199 702.94,-149.6 712.87,-135.25 734,-76 739.35,-60.99 742.14,-43.08 743.56,-29.87"/>
<polygon fill="midnightblue" stroke="midnightblue" points="747.07,-29.93 744.5,-19.65 740.1,-29.29 747.07,-29.93"/>
</g>
<!-- Node10 -->
<g id="node10" class="node">
<title>Node10</title>
<g id="a_node10"><a xlink:href="math_helpers_8h.html" target="_top" xlink:title=" ">
<polygon fill="none" stroke="black" points="520.5,-179.5 520.5,-198.5 655.5,-198.5 655.5,-179.5 520.5,-179.5"/>
<text text-anchor="middle" x="588" y="-186.5" font-family="Helvetica,sans-Serif" font-size="10.00">../../math/mathHelpers.h</text>
</a>
</g>
</g>
<!-- Node9&#45;&gt;Node10 -->
<g id="edge14" class="edge">
<title>Node9&#45;&gt;Node10</title>
<path fill="none" stroke="midnightblue" d="M611.38,-235.08C607.54,-227.69 601.98,-216.95 597.24,-207.81"/>
<polygon fill="midnightblue" stroke="midnightblue" points="600.25,-206.02 592.54,-198.75 594.03,-209.24 600.25,-206.02"/>
</g>
<!-- Node18 -->
<g id="node18" class="node">
<title>Node18</title>
<g id="a_node18"><a xlink:href="build__date_8h.html" target="_top" xlink:title=" ">
<polygon fill="none" stroke="black" points="884,-179.5 884,-198.5 970,-198.5 970,-179.5 884,-179.5"/>
<text text-anchor="middle" x="927" y="-186.5" font-family="Helvetica,sans-Serif" font-size="10.00">../build_date.h</text>
</a>
</g>
</g>
<!-- Node9&#45;&gt;Node18 -->
<g id="edge32" class="edge">
<title>Node9&#45;&gt;Node18</title>
<path fill="none" stroke="midnightblue" d="M665.28,-235.44C722.15,-225.57 815.34,-209.39 873.82,-199.23"/>
<polygon fill="midnightblue" stroke="midnightblue" points="874.71,-202.63 883.96,-197.47 873.51,-195.74 874.71,-202.63"/>
</g>
<!-- Node10&#45;&gt;Node2 -->
<g id="edge18" class="edge">
<title>Node10&#45;&gt;Node2</title>
<path fill="none" stroke="midnightblue" d="M520.38,-183.36C436.48,-176.85 298.78,-163.45 252,-143 194.44,-117.84 146.48,-57.6 125.45,-28"/>
<polygon fill="midnightblue" stroke="midnightblue" points="128.16,-25.78 119.59,-19.55 122.41,-29.76 128.16,-25.78"/>
</g>
<!-- Node10&#45;&gt;Node3 -->
<g id="edge15" class="edge">
<title>Node10&#45;&gt;Node3</title>
<path fill="none" stroke="midnightblue" d="M608.49,-179.47C625.17,-171.77 648.56,-159.18 665,-143 699.73,-108.82 725.49,-56.59 737.5,-29.2"/>
<polygon fill="midnightblue" stroke="midnightblue" points="740.84,-30.28 741.54,-19.71 734.4,-27.54 740.84,-30.28"/>
</g>
<!-- Node10&#45;&gt;Node7 -->
<g id="edge31" class="edge">
<title>Node10&#45;&gt;Node7</title>
<path fill="none" stroke="midnightblue" d="M652.19,-179.48C737.51,-168.14 887.39,-148.24 972.41,-136.95"/>
<polygon fill="midnightblue" stroke="midnightblue" points="973,-140.4 982.45,-135.61 972.08,-133.46 973,-140.4"/>
</g>
<!-- Node11 -->
<g id="node11" class="node">
<title>Node11</title>
<g id="a_node11"><a xlink:title=" ">
<polygon fill="none" stroke="#bfbfbf" points="306.5,-118 306.5,-137 353.5,-137 353.5,-118 306.5,-118"/>
<text text-anchor="middle" x="330" y="-125" font-family="Helvetica,sans-Serif" font-size="10.00">cmath</text>
</a>
</g>
</g>
<!-- Node10&#45;&gt;Node11 -->
<g id="edge16" class="edge">
<title>Node10&#45;&gt;Node11</title>
<path fill="none" stroke="midnightblue" d="M526.94,-179.46C481.16,-172.18 417.32,-160.14 363,-143 361.08,-142.39 359.11,-141.71 357.15,-140.98"/>
<polygon fill="midnightblue" stroke="midnightblue" points="358.12,-137.59 347.54,-137.05 355.47,-144.07 358.12,-137.59"/>
</g>
<!-- Node10&#45;&gt;Node12 -->
<g id="edge17" class="edge">
<title>Node10&#45;&gt;Node12</title>
<path fill="none" stroke="midnightblue" d="M520.21,-182.14C446.88,-174.99 335.31,-161.53 297,-143 268.17,-129.06 242.44,-101.52 227.79,-83.7"/>
<polygon fill="midnightblue" stroke="midnightblue" points="230.49,-81.47 221.52,-75.83 225.02,-85.83 230.49,-81.47"/>
</g>
<!-- Node13 -->
<g id="node13" class="node">
<title>Node13</title>
<g id="a_node13"><a xlink:title=" ">
<polygon fill="none" stroke="#bfbfbf" points="372,-118 372,-137 436,-137 436,-118 372,-118"/>
<text text-anchor="middle" x="404" y="-125" font-family="Helvetica,sans-Serif" font-size="10.00">algorithm</text>
</a>
</g>
</g>
<!-- Node10&#45;&gt;Node13 -->
<g id="edge19" class="edge">
<title>Node10&#45;&gt;Node13</title>
<path fill="none" stroke="midnightblue" d="M561.64,-179.48C529.66,-169.14 475.62,-151.66 439.88,-140.1"/>
<polygon fill="midnightblue" stroke="midnightblue" points="440.91,-136.76 430.31,-137.01 438.75,-143.42 440.91,-136.76"/>
</g>
<!-- Node14 -->
<g id="node14" class="node">
<title>Node14</title>
<g id="a_node14"><a xlink:href="limes__assert_8h.html" target="_top" xlink:title=" ">
<polygon fill="none" stroke="black" points="520,-118 520,-137 656,-137 656,-118 520,-118"/>
<text text-anchor="middle" x="588" y="-125" font-family="Helvetica,sans-Serif" font-size="10.00">../system/limes_assert.h</text>
</a>
</g>
</g>
<!-- Node10&#45;&gt;Node14 -->
<g id="edge20" class="edge">
<title>Node10&#45;&gt;Node14</title>
<path fill="none" stroke="midnightblue" d="M588,-179.48C588,-171.08 588,-157.98 588,-147.16"/>
<polygon fill="midnightblue" stroke="midnightblue" points="591.5,-147.01 588,-137.01 584.5,-147.01 591.5,-147.01"/>
</g>
<!-- Node14&#45;&gt;Node2 -->
<g id="edge21" class="edge">
<title>Node14&#45;&gt;Node2</title>
<path fill="none" stroke="midnightblue" d="M538.95,-117.95C494.84,-109.56 428.62,-95.24 373,-76 353.08,-69.11 350,-62.64 330,-56 276.37,-38.21 212.83,-25.98 168.6,-18.81"/>
<polygon fill="midnightblue" stroke="midnightblue" points="169.06,-15.34 158.64,-17.22 167.96,-22.25 169.06,-15.34"/>
</g>
<!-- Node14&#45;&gt;Node3 -->
<g id="edge22" class="edge">
<title>Node14&#45;&gt;Node3</title>
<path fill="none" stroke="midnightblue" d="M603.37,-117.85C620,-108.27 647.08,-92.07 669,-76 690.27,-60.41 713.05,-40.44 728.06,-26.78"/>
<polygon fill="midnightblue" stroke="midnightblue" points="730.55,-29.24 735.55,-19.9 725.82,-24.09 730.55,-29.24"/>
</g>
<!-- Node14&#45;&gt;Node5 -->
<g id="edge23" class="edge">
<title>Node14&#45;&gt;Node5</title>
<path fill="none" stroke="midnightblue" d="M653.33,-117.98C737.9,-106.94 884.77,-87.78 972.33,-76.35"/>
<polygon fill="midnightblue" stroke="midnightblue" points="972.98,-79.8 982.44,-75.03 972.07,-72.86 972.98,-79.8"/>
</g>
<!-- Node14&#45;&gt;Node6 -->
<g id="edge29" class="edge">
<title>Node14&#45;&gt;Node6</title>
<path fill="none" stroke="midnightblue" d="M628.59,-117.91C726.63,-97.17 976.16,-44.39 1083.57,-21.67"/>
<polygon fill="midnightblue" stroke="midnightblue" points="1084.45,-25.06 1093.51,-19.56 1083,-18.21 1084.45,-25.06"/>
</g>
<!-- Node14&#45;&gt;Node12 -->
<g id="edge24" class="edge">
<title>Node14&#45;&gt;Node12</title>
<path fill="none" stroke="midnightblue" d="M534.56,-117.98C460.69,-106.19 328.73,-85.14 259.77,-74.14"/>
<polygon fill="midnightblue" stroke="midnightblue" points="260.09,-70.65 249.66,-72.53 258.98,-77.56 260.09,-70.65"/>
</g>
<!-- Node15 -->
<g id="node15" class="node">
<title>Node15</title>
<g id="a_node15"><a xlink:title=" ">
<polygon fill="none" stroke="#bfbfbf" points="528.5,-56.5 528.5,-75.5 573.5,-75.5 573.5,-56.5 528.5,-56.5"/>
<text text-anchor="middle" x="551" y="-63.5" font-family="Helvetica,sans-Serif" font-size="10.00">utility</text>
</a>
</g>
</g>
<!-- Node14&#45;&gt;Node15 -->
<g id="edge25" class="edge">
<title>Node14&#45;&gt;Node15</title>
<path fill="none" stroke="midnightblue" d="M582.7,-117.98C577.26,-109.23 568.64,-95.37 561.76,-84.31"/>
<polygon fill="midnightblue" stroke="midnightblue" points="564.54,-82.15 556.29,-75.51 558.6,-85.85 564.54,-82.15"/>
</g>
<!-- Node16 -->
<g id="node16" class="node">
<title>Node16</title>
<g id="a_node16"><a xlink:href="_ignore_unused_8h.html" target="_top" xlink:title=" ">
<polygon fill="none" stroke="black" points="382,-56.5 382,-75.5 510,-75.5 510,-56.5 382,-56.5"/>
<text text-anchor="middle" x="446" y="-63.5" font-family="Helvetica,sans-Serif" font-size="10.00">../misc/IgnoreUnused.h</text>
</a>
</g>
</g>
<!-- Node14&#45;&gt;Node16 -->
<g id="edge26" class="edge">
<title>Node14&#45;&gt;Node16</title>
<path fill="none" stroke="midnightblue" d="M567.65,-117.98C543.61,-107.9 503.4,-91.05 475.84,-79.5"/>
<polygon fill="midnightblue" stroke="midnightblue" points="476.88,-76.15 466.31,-75.51 474.18,-82.6 476.88,-76.15"/>
</g>
<!-- Node17 -->
<g id="node17" class="node">
<title>Node17</title>
<g id="a_node17"><a xlink:title=" ">
<polygon fill="none" stroke="#bfbfbf" points="592,-56.5 592,-75.5 660,-75.5 660,-56.5 592,-56.5"/>
<text text-anchor="middle" x="626" y="-63.5" font-family="Helvetica,sans-Serif" font-size="10.00">filesystem</text>
</a>
</g>
</g>
<!-- Node14&#45;&gt;Node17 -->
<g id="edge30" class="edge">
<title>Node14&#45;&gt;Node17</title>
<path fill="none" stroke="midnightblue" d="M593.44,-117.98C599.09,-109.14 608.06,-95.09 615.16,-83.98"/>
<polygon fill="midnightblue" stroke="midnightblue" points="618.13,-85.82 620.57,-75.51 612.23,-82.05 618.13,-85.82"/>
</g>
<!-- Node16&#45;&gt;Node2 -->
<g id="edge27" class="edge">
<title>Node16&#45;&gt;Node2</title>
<path fill="none" stroke="midnightblue" d="M393.39,-56.44C331.99,-46.46 230.95,-30.02 168.68,-19.89"/>
<polygon fill="midnightblue" stroke="midnightblue" points="169.08,-16.41 158.65,-18.26 167.96,-23.32 169.08,-16.41"/>
</g>
<!-- Node16&#45;&gt;Node3 -->
<g id="edge28" class="edge">
<title>Node16&#45;&gt;Node3</title>
<path fill="none" stroke="midnightblue" d="M493.38,-56.44C546.08,-46.92 631.23,-31.55 687.66,-21.36"/>
<polygon fill="midnightblue" stroke="midnightblue" points="688.63,-24.74 697.84,-19.52 687.38,-17.85 688.63,-24.74"/>
</g>
<!-- Node18&#45;&gt;Node2 -->
<g id="edge33" class="edge">
<title>Node18&#45;&gt;Node2</title>
<path fill="none" stroke="midnightblue" d="M883.9,-187.99C807.37,-186.95 643.37,-180.12 511,-143 479.8,-134.25 475.24,-123.65 445,-112 430.96,-106.59 236.15,-47.78 152.13,-22.47"/>
<polygon fill="midnightblue" stroke="midnightblue" points="153.03,-19.09 142.45,-19.56 151.01,-25.8 153.03,-19.09"/>
</g>
<!-- Node18&#45;&gt;Node3 -->
<g id="edge34" class="edge">
<title>Node18&#45;&gt;Node3</title>
<path fill="none" stroke="midnightblue" d="M924.45,-179.31C917.21,-156.12 894.45,-92.09 854,-56 836.4,-40.29 812.55,-29.61 791.65,-22.6"/>
<polygon fill="midnightblue" stroke="midnightblue" points="792.57,-19.22 781.98,-19.55 790.46,-25.9 792.57,-19.22"/>
</g>
<!-- Node18&#45;&gt;Node5 -->
<g id="edge35" class="edge">
<title>Node18&#45;&gt;Node5</title>
<path fill="none" stroke="midnightblue" d="M930.86,-179.17C937.79,-164.04 953.56,-132.8 974,-112 986.42,-99.36 1003.02,-88.5 1016.93,-80.61"/>
<polygon fill="midnightblue" stroke="midnightblue" points="1018.94,-83.5 1026.05,-75.65 1015.59,-77.36 1018.94,-83.5"/>
</g>
<!-- Node18&#45;&gt;Node7 -->
<g id="edge36" class="edge">
<title>Node18&#45;&gt;Node7</title>
<path fill="none" stroke="midnightblue" d="M942.62,-179.48C957.86,-171.15 981.58,-158.21 1001.29,-147.45"/>
<polygon fill="midnightblue" stroke="midnightblue" points="1003.21,-150.39 1010.31,-142.52 999.86,-144.24 1003.21,-150.39"/>
</g>
<!-- Node19&#45;&gt;Node2 -->
<g id="edge38" class="edge">
<title>Node19&#45;&gt;Node2</title>
<path fill="none" stroke="midnightblue" d="M815.21,-296.93C763.2,-291.06 650.3,-276.86 557,-255 395.51,-217.16 339.26,-234.64 201,-143 158.6,-114.9 132,-58.31 120.54,-29.2"/>
<polygon fill="midnightblue" stroke="midnightblue" points="123.69,-27.63 116.89,-19.51 117.14,-30.1 123.69,-27.63"/>
</g>
<!-- Node19&#45;&gt;Node3 -->
<g id="edge39" class="edge">
<title>Node19&#45;&gt;Node3</title>
<path fill="none" stroke="midnightblue" d="M836.64,-291.23C829.67,-282.54 819.35,-268.58 813,-255 775.79,-175.46 755.26,-71.54 748.02,-29.68"/>
<polygon fill="midnightblue" stroke="midnightblue" points="751.47,-29.08 746.37,-19.79 744.57,-30.23 751.47,-29.08"/>
</g>
<!-- Node19&#45;&gt;Node5 -->
<g id="edge40" class="edge">
<title>Node19&#45;&gt;Node5</title>
<path fill="none" stroke="midnightblue" d="M872.61,-296.43C905.07,-291.35 958.6,-279.73 998,-255 1054.77,-219.36 1074.96,-205.57 1099,-143 1103.94,-130.14 1104.9,-124.45 1099,-112 1092.87,-99.07 1081.01,-88.62 1069.86,-81.05"/>
<polygon fill="midnightblue" stroke="midnightblue" points="1071.53,-77.97 1061.2,-75.61 1067.81,-83.9 1071.53,-77.97"/>
</g>
<!-- Node19&#45;&gt;Node7 -->
<g id="edge41" class="edge">
<title>Node19&#45;&gt;Node7</title>
<path fill="none" stroke="midnightblue" d="M872.6,-295.52C900.74,-289.94 943.76,-278.17 974,-255 1007.19,-229.56 1023.71,-181.66 1031.01,-152.66"/>
<polygon fill="midnightblue" stroke="midnightblue" points="1034.42,-153.44 1033.3,-142.91 1027.61,-151.85 1034.42,-153.44"/>
</g>
<!-- Node19&#45;&gt;Node8 -->
<g id="edge43" class="edge">
<title>Node19&#45;&gt;Node8</title>
<path fill="none" stroke="midnightblue" d="M827.93,-291.32C812.04,-282.74 787.49,-269.49 769.04,-259.52"/>
<polygon fill="midnightblue" stroke="midnightblue" points="770.49,-256.33 760.03,-254.65 767.16,-262.49 770.49,-256.33"/>
</g>
<!-- Node19&#45;&gt;Node20 -->
<g id="edge42" class="edge">
<title>Node19&#45;&gt;Node20</title>
<path fill="none" stroke="midnightblue" d="M872.98,-293.91C917.13,-284.63 1001.67,-266.87 1054.48,-255.77"/>
<polygon fill="midnightblue" stroke="midnightblue" points="1055.21,-259.2 1064.28,-253.72 1053.77,-252.35 1055.21,-259.2"/>
</g>
<!-- Node21 -->
<g id="node21" class="node">
<title>Node21</title>
<g id="a_node21"><a xlink:href="month__impl_8h.html" target="_top" xlink:title=" ">
<polygon fill="none" stroke="black" points="822.5,-235.5 822.5,-254.5 931.5,-254.5 931.5,-235.5 822.5,-235.5"/>
<text text-anchor="middle" x="877" y="-242.5" font-family="Helvetica,sans-Serif" font-size="10.00">impl/month_impl.h</text>
</a>
</g>
</g>
<!-- Node19&#45;&gt;Node21 -->
<g id="edge44" class="edge">
<title>Node19&#45;&gt;Node21</title>
<path fill="none" stroke="midnightblue" d="M849.45,-291.08C854.01,-283.61 860.67,-272.72 866.29,-263.52"/>
<polygon fill="midnightblue" stroke="midnightblue" points="869.42,-265.11 871.65,-254.75 863.45,-261.46 869.42,-265.11"/>
</g>
<!-- Node21&#45;&gt;Node3 -->
<g id="edge45" class="edge">
<title>Node21&#45;&gt;Node3</title>
<path fill="none" stroke="midnightblue" d="M876.25,-235.16C873.4,-206.41 861.01,-114.02 816,-56 805.36,-42.29 789.28,-31.6 775.11,-24.09"/>
<polygon fill="midnightblue" stroke="midnightblue" points="776.66,-20.95 766.15,-19.61 773.53,-27.22 776.66,-20.95"/>
</g>
<!-- Node21&#45;&gt;Node6 -->
<g id="edge46" class="edge">
<title>Node21&#45;&gt;Node6</title>
<path fill="none" stroke="midnightblue" d="M931.8,-235.81C1011.81,-220.52 1157.63,-179.27 1218,-76 1231.92,-52.19 1200.89,-34.01 1172.69,-23.01"/>
<polygon fill="midnightblue" stroke="midnightblue" points="1173.9,-19.73 1163.3,-19.56 1171.48,-26.3 1173.9,-19.73"/>
</g>
<!-- Node21&#45;&gt;Node10 -->
<g id="edge47" class="edge">
<title>Node21&#45;&gt;Node10</title>
<path fill="none" stroke="midnightblue" d="M831.21,-235.44C780.26,-225.92 697.97,-210.55 643.43,-200.36"/>
<polygon fill="midnightblue" stroke="midnightblue" points="644.05,-196.91 633.58,-198.52 642.77,-203.79 644.05,-196.91"/>
</g>
<!-- Node21&#45;&gt;Node18 -->
<g id="edge48" class="edge">
<title>Node21&#45;&gt;Node18</title>
<path fill="none" stroke="midnightblue" d="M885.26,-235.08C892.46,-227.3 903.11,-215.8 911.85,-206.37"/>
<polygon fill="midnightblue" stroke="midnightblue" points="914.67,-208.47 918.9,-198.75 909.53,-203.71 914.67,-208.47"/>
</g>
<!-- Node22&#45;&gt;Node3 -->
<g id="edge56" class="edge">
<title>Node22&#45;&gt;Node3</title>
<path fill="none" stroke="midnightblue" d="M1251.56,-235.33C1238.86,-204.59 1191.38,-100.33 1115,-56 1065.03,-27 904.77,-16.56 812.38,-12.9"/>
<polygon fill="midnightblue" stroke="midnightblue" points="812.41,-9.4 802.28,-12.52 812.14,-16.4 812.41,-9.4"/>
</g>
<!-- Node22&#45;&gt;Node6 -->
<g id="edge57" class="edge">
<title>Node22&#45;&gt;Node6</title>
<path fill="none" stroke="midnightblue" d="M1258.3,-235.11C1268.41,-206.18 1295.94,-113.3 1256,-56 1241.82,-35.66 1217.36,-24.49 1194.05,-18.37"/>
<polygon fill="midnightblue" stroke="midnightblue" points="1194.69,-14.92 1184.16,-16.04 1193.09,-21.74 1194.69,-14.92"/>
</g>
<!-- Node22&#45;&gt;Node18 -->
<g id="edge55" class="edge">
<title>Node22&#45;&gt;Node18</title>
<path fill="none" stroke="midnightblue" d="M1203.03,-235.44C1142.03,-225.4 1041.41,-208.84 979.98,-198.72"/>
<polygon fill="midnightblue" stroke="midnightblue" points="980.53,-195.27 970.1,-197.1 979.4,-202.17 980.53,-195.27"/>
</g>
</g>
</svg>
        <g id="navigator" transform="translate(0 0)" fill="#404254">
                <rect fill="#f2f5e9" fill-opacity="0.5" stroke="#606060" stroke-width=".5" x="0" y="0" width="60" height="60"/>
                <use id="zoomplus" xlink:href="#zoomPlus" x="17" y="9" onmousedown="handleZoom(evt,'in')"/>
                <use id="zoomminus" xlink:href="#zoomMin" x="42" y="9" onmousedown="handleZoom(evt,'out')"/>
                <use id="reset" xlink:href="#resetDef" x="30" y="36" onmousedown="handleReset()"/>
                <g id="arrowUp" xlink:href="#dirArrow" transform="translate(30 24)" onmousedown="handlePan(0,-1)">
                  <use xlink:href="#rim" fill="#404040">
                        <set attributeName="fill" to="#808080" begin="arrowUp.mouseover" end="arrowUp.mouseout"/>
                  </use>
                  <path fill="none" stroke="white" stroke-width="1.5" d="M0,-3.0v7 M-2.5,-0.5L0,-3.0L2.5,-0.5"/>
                </g>
                <g id="arrowRight" xlink:href="#dirArrow" transform="rotate(90) translate(36 -43)" onmousedown="handlePan(1,0)">
                  <use xlink:href="#rim" fill="#404040">
                        <set attributeName="fill" to="#808080" begin="arrowRight.mouseover" end="arrowRight.mouseout"/>
                  </use>
                  <path fill="none" stroke="white" stroke-width="1.5" d="M0,-3.0v7 M-2.5,-0.5L0,-3.0L2.5,-0.5"/>
                </g>
                <g id="arrowDown" xlink:href="#dirArrow" transform="rotate(180) translate(-30 -48)" onmousedown="handlePan(0,1)">
                  <use xlink:href="#rim" fill="#404040">
                        <set attributeName="fill" to="#808080" begin="arrowDown.mouseover" end="arrowDown.mouseout"/>
                  </use>
                  <path fill="none" stroke="white" stroke-width="1.5" d="M0,-3.0v7 M-2.5,-0.5L0,-3.0L2.5,-0.5"/>
                </g>
                <g id="arrowLeft" xlink:href="#dirArrow" transform="rotate(270) translate(-36 17)" onmousedown="handlePan(-1,0)">
                  <use xlink:href="#rim" fill="#404040">
                        <set attributeName="fill" to="#808080" begin="arrowLeft.mouseover" end="arrowLeft.mouseout"/>
                  </use>
                  <path fill="none" stroke="white" stroke-width="1.5" d="M0,-3.0v7 M-2.5,-0.5L0,-3.0L2.5,-0.5"/>
                </g>
        </g>
        <svg viewBox="0 0 15 15" width="100%" height="30px" preserveAspectRatio="xMaxYMin meet">
         <g id="arrow_out" transform="scale(0.3 0.3)">
          <a xlink:href="weekday_8h__incl_org.svg" target="_base">
           <rect id="button" ry="5" rx="5" y="6" x="6" height="38" width="38"
                fill="#f2f5e9" fill-opacity="0.5" stroke="#606060" stroke-width="1.0"/>
           <path id="arrow"
             d="M 11.500037,31.436501 C 11.940474,20.09759 22.043105,11.32322 32.158766,21.979434 L 37.068811,17.246167 C 37.068811,17.246167 37.088388,32 37.088388,32 L 22.160133,31.978069 C 22.160133,31.978069 26.997745,27.140456 26.997745,27.140456 C 18.528582,18.264221 13.291696,25.230495 11.500037,31.436501 z"
             style="fill:#404040;"/>
          </a>
         </g>
        </svg>
</svg>
