<?xml version="1.0" encoding="UTF-8" standalone="no"?>
<!DOCTYPE svg PUBLIC "-//W3C//DTD SVG 1.1//EN"
 "http://www.w3.org/Graphics/SVG/1.1/DTD/svg11.dtd">
<!-- Generated by graphviz version 2.43.0 (0)
 -->
<!-- Title: year.h Pages: 1 -->
<!--zoomable 319 -->
<svg id="main" version="1.1" xmlns="http://www.w3.org/2000/svg" xmlns:xlink="http://www.w3.org/1999/xlink" xml:space="preserve" onload="init(evt)">
<style type="text/css"><![CDATA[
.edge:hover path { stroke: red; }
.edge:hover polygon { stroke: red; fill: red; }
]]></style>
<script type="text/javascript"><![CDATA[
var edges = document.getElementsByTagName('g');
if (edges && edges.length) {
  for (var i=0;i<edges.length;i++) {
    if (edges[i].id.substr(0,4)=='edge') {
      edges[i].setAttribute('class','edge');
    }
  }
}
]]></script>
        <defs>
                <circle id="rim" cx="0" cy="0" r="7"/>
                <circle id="rim2" cx="0" cy="0" r="3.5"/>
                <g id="zoomPlus">
                        <use xlink:href="#rim" fill="#404040">
                                <set attributeName="fill" to="#808080" begin="zoomplus.mouseover" end="zoomplus.mouseout"/>
                        </use>
                        <path d="M-4,0h8M0,-4v8" fill="none" stroke="white" stroke-width="1.5" pointer-events="none"/>
                </g>
                <g id="zoomMin">
                        <use xlink:href="#rim" fill="#404040">
                                <set attributeName="fill" to="#808080" begin="zoomminus.mouseover" end="zoomminus.mouseout"/>
                        </use>
                        <path d="M-4,0h8" fill="none" stroke="white" stroke-width="1.5" pointer-events="none"/>
                </g>
                <g id="dirArrow">
                        <path fill="none" stroke="white" stroke-width="1.5" d="M0,-3.0v7 M-2.5,-0.5L0,-3.0L2.5,-0.5"/>
                </g>
               <g id="resetDef">
                       <use xlink:href="#rim2" fill="#404040">
                               <set attributeName="fill" to="#808080" begin="reset.mouseover" end="reset.mouseout"/>
                       </use>
               </g>
        </defs>

<script type="text/javascript">
var viewWidth = 924;
var viewHeight = 319;
var sectionId = 'dynsection-0';
</script>
<script xlink:href="svgpan.js"/>
<svg id="graph" class="graph">
<g id="viewport">
<title>year.h</title>
<!-- Node1 -->
<g id="node1" class="node">
<title>Node1</title>
<g id="a_node1"><a xlink:title=" ">
<polygon fill="#bfbfbf" stroke="black" points="554.5,-291.5 554.5,-310.5 601.5,-310.5 601.5,-291.5 554.5,-291.5"/>
<text text-anchor="middle" x="578" y="-298.5" font-family="Helvetica,sans-Serif" font-size="10.00">year.h</text>
</a>
</g>
</g>
<!-- Node2 -->
<g id="node2" class="node">
<title>Node2</title>
<g id="a_node2"><a xlink:title=" ">
<polygon fill="none" stroke="#bfbfbf" points="271.5,-0.5 271.5,-19.5 360.5,-19.5 360.5,-0.5 271.5,-0.5"/>
<text text-anchor="middle" x="316" y="-7.5" font-family="Helvetica,sans-Serif" font-size="10.00">limes_export.h</text>
</a>
</g>
</g>
<!-- Node1&#45;&gt;Node2 -->
<g id="edge1" class="edge">
<title>Node1&#45;&gt;Node2</title>
<path fill="none" stroke="midnightblue" d="M554.3,-298.91C483.58,-294.23 273.32,-269.76 182,-143 159.02,-111.1 142.53,-87.54 166,-56 187.77,-26.74 227.9,-15.79 261.18,-11.99"/>
<polygon fill="midnightblue" stroke="midnightblue" points="261.64,-15.47 271.26,-11.03 260.97,-8.5 261.64,-15.47"/>
</g>
<!-- Node3 -->
<g id="node3" class="node">
<title>Node3</title>
<g id="a_node3"><a xlink:href="limes__namespace_8h.html" target="_top" xlink:title=" ">
<polygon fill="none" stroke="black" points="79,-0.5 79,-19.5 193,-19.5 193,-0.5 79,-0.5"/>
<text text-anchor="middle" x="136" y="-7.5" font-family="Helvetica,sans-Serif" font-size="10.00">limes_namespace.h</text>
</a>
</g>
</g>
<!-- Node1&#45;&gt;Node3 -->
<g id="edge2" class="edge">
<title>Node1&#45;&gt;Node3</title>
<path fill="none" stroke="midnightblue" d="M554.26,-298.05C445.5,-288.8 0,-247.39 0,-190 0,-190 0,-190 0,-126.5 0,-73.56 60.62,-39.83 100.91,-23.25"/>
<polygon fill="midnightblue" stroke="midnightblue" points="102.4,-26.43 110.42,-19.5 99.83,-19.91 102.4,-26.43"/>
</g>
<!-- Node4 -->
<g id="node4" class="node">
<title>Node4</title>
<g id="a_node4"><a xlink:href="preprocessor_8h.html" target="_top" xlink:title=" ">
<polygon fill="none" stroke="black" points="792.5,-56.5 792.5,-75.5 915.5,-75.5 915.5,-56.5 792.5,-56.5"/>
<text text-anchor="middle" x="854" y="-63.5" font-family="Helvetica,sans-Serif" font-size="10.00">../misc/preprocessor.h</text>
</a>
</g>
</g>
<!-- Node1&#45;&gt;Node4 -->
<g id="edge3" class="edge">
<title>Node1&#45;&gt;Node4</title>
<path fill="none" stroke="midnightblue" d="M601.52,-299.13C637.84,-296.75 708.45,-287.89 757,-255 807.86,-220.54 813.13,-199.17 838,-143 846.17,-124.55 850.26,-101.69 852.24,-85.89"/>
<polygon fill="midnightblue" stroke="midnightblue" points="855.74,-86.12 853.34,-75.8 848.78,-85.36 855.74,-86.12"/>
</g>
<!-- Node6 -->
<g id="node6" class="node">
<title>Node6</title>
<g id="a_node6"><a xlink:href="compiler__defs_8h.html" target="_top" xlink:title=" ">
<polygon fill="none" stroke="black" points="695.5,-112.5 695.5,-142.5 802.5,-142.5 802.5,-112.5 695.5,-112.5"/>
<text text-anchor="start" x="703.5" y="-130.5" font-family="Helvetica,sans-Serif" font-size="10.00">../system/compiler</text>
<text text-anchor="middle" x="749" y="-119.5" font-family="Helvetica,sans-Serif" font-size="10.00">_defs.h</text>
</a>
</g>
</g>
<!-- Node1&#45;&gt;Node6 -->
<g id="edge5" class="edge">
<title>Node1&#45;&gt;Node6</title>
<path fill="none" stroke="midnightblue" d="M586.72,-291.26C612.58,-265.32 689.43,-188.24 727.35,-150.21"/>
<polygon fill="midnightblue" stroke="midnightblue" points="730.24,-152.28 734.82,-142.72 725.28,-147.33 730.24,-152.28"/>
</g>
<!-- Node7 -->
<g id="node7" class="node">
<title>Node7</title>
<g id="a_node7"><a xlink:title=" ">
<polygon fill="none" stroke="#bfbfbf" points="704,-235.5 704,-254.5 748,-254.5 748,-235.5 704,-235.5"/>
<text text-anchor="middle" x="726" y="-242.5" font-family="Helvetica,sans-Serif" font-size="10.00">ctime</text>
</a>
</g>
</g>
<!-- Node1&#45;&gt;Node7 -->
<g id="edge8" class="edge">
<title>Node1&#45;&gt;Node7</title>
<path fill="none" stroke="midnightblue" d="M601.45,-291.44C626.42,-282.33 666.11,-267.85 693.95,-257.69"/>
<polygon fill="midnightblue" stroke="midnightblue" points="695.43,-260.88 703.63,-254.16 693.03,-254.3 695.43,-260.88"/>
</g>
<!-- Node8 -->
<g id="node8" class="node">
<title>Node8</title>
<g id="a_node8"><a xlink:href="year__impl_8h.html" target="_top" xlink:title=" ">
<polygon fill="none" stroke="black" points="371.5,-235.5 371.5,-254.5 470.5,-254.5 470.5,-235.5 371.5,-235.5"/>
<text text-anchor="middle" x="421" y="-242.5" font-family="Helvetica,sans-Serif" font-size="10.00">impl/year_impl.h</text>
</a>
</g>
</g>
<!-- Node1&#45;&gt;Node8 -->
<g id="edge9" class="edge">
<title>Node1&#45;&gt;Node8</title>
<path fill="none" stroke="midnightblue" d="M554.5,-291.92C528.29,-282.9 485.65,-268.23 455.62,-257.91"/>
<polygon fill="midnightblue" stroke="midnightblue" points="456.56,-254.53 445.96,-254.59 454.28,-261.15 456.56,-254.53"/>
</g>
<!-- Node5 -->
<g id="node5" class="node">
<title>Node5</title>
<g id="a_node5"><a xlink:title=" ">
<polygon fill="none" stroke="#bfbfbf" points="695,-0.5 695,-19.5 795,-19.5 795,-0.5 695,-0.5"/>
<text text-anchor="middle" x="745" y="-7.5" font-family="Helvetica,sans-Serif" font-size="10.00">limes_platform.h</text>
</a>
</g>
</g>
<!-- Node4&#45;&gt;Node5 -->
<g id="edge4" class="edge">
<title>Node4&#45;&gt;Node5</title>
<path fill="none" stroke="midnightblue" d="M836.49,-56.32C818.93,-47.62 791.67,-34.12 771.47,-24.11"/>
<polygon fill="midnightblue" stroke="midnightblue" points="772.98,-20.96 762.47,-19.65 769.88,-27.23 772.98,-20.96"/>
</g>
<!-- Node6&#45;&gt;Node4 -->
<g id="edge7" class="edge">
<title>Node6&#45;&gt;Node4</title>
<path fill="none" stroke="midnightblue" d="M773.88,-112.4C790.71,-102.86 812.84,-90.32 829.57,-80.84"/>
<polygon fill="midnightblue" stroke="midnightblue" points="831.75,-83.63 838.72,-75.66 828.3,-77.54 831.75,-83.63"/>
</g>
<!-- Node6&#45;&gt;Node5 -->
<g id="edge6" class="edge">
<title>Node6&#45;&gt;Node5</title>
<path fill="none" stroke="midnightblue" d="M748.51,-112.34C747.79,-91.62 746.46,-53.02 745.65,-29.9"/>
<polygon fill="midnightblue" stroke="midnightblue" points="749.14,-29.54 745.3,-19.67 742.15,-29.78 749.14,-29.54"/>
</g>
<!-- Node8&#45;&gt;Node3 -->
<g id="edge10" class="edge">
<title>Node8&#45;&gt;Node3</title>
<path fill="none" stroke="midnightblue" d="M371.34,-238.72C311.56,-229.7 212.2,-205.69 156,-143 127.85,-111.6 129.61,-58.16 132.99,-29.87"/>
<polygon fill="midnightblue" stroke="midnightblue" points="136.48,-30.12 134.4,-19.73 129.55,-29.15 136.48,-30.12"/>
</g>
<!-- Node9 -->
<g id="node9" class="node">
<title>Node9</title>
<g id="a_node9"><a xlink:href="math_helpers_8h.html" target="_top" xlink:title=" ">
<polygon fill="none" stroke="black" points="303.5,-179.5 303.5,-198.5 438.5,-198.5 438.5,-179.5 303.5,-179.5"/>
<text text-anchor="middle" x="371" y="-186.5" font-family="Helvetica,sans-Serif" font-size="10.00">../../math/mathHelpers.h</text>
</a>
</g>
</g>
<!-- Node8&#45;&gt;Node9 -->
<g id="edge11" class="edge">
<title>Node8&#45;&gt;Node9</title>
<path fill="none" stroke="midnightblue" d="M412.74,-235.08C405.54,-227.3 394.89,-215.8 386.15,-206.37"/>
<polygon fill="midnightblue" stroke="midnightblue" points="388.47,-203.71 379.1,-198.75 383.33,-208.47 388.47,-203.71"/>
</g>
<!-- Node17 -->
<g id="node17" class="node">
<title>Node17</title>
<g id="a_node17"><a xlink:href="build__date_8h.html" target="_top" xlink:title=" ">
<polygon fill="none" stroke="black" points="562,-179.5 562,-198.5 648,-198.5 648,-179.5 562,-179.5"/>
<text text-anchor="middle" x="605" y="-186.5" font-family="Helvetica,sans-Serif" font-size="10.00">../build_date.h</text>
</a>
</g>
</g>
<!-- Node8&#45;&gt;Node17 -->
<g id="edge30" class="edge">
<title>Node8&#45;&gt;Node17</title>
<path fill="none" stroke="midnightblue" d="M450.16,-235.44C481.51,-226.24 531.53,-211.56 566.2,-201.39"/>
<polygon fill="midnightblue" stroke="midnightblue" points="567.37,-204.69 575.98,-198.52 565.4,-197.97 567.37,-204.69"/>
</g>
<!-- Node9&#45;&gt;Node2 -->
<g id="edge15" class="edge">
<title>Node9&#45;&gt;Node2</title>
<path fill="none" stroke="midnightblue" d="M307.06,-179.43C277.54,-173.06 243.28,-162.03 217,-143 187.74,-121.82 181.7,-110.5 171,-76 158.24,-34.88 214.92,-19.74 261.12,-14.19"/>
<polygon fill="midnightblue" stroke="midnightblue" points="261.52,-17.66 271.09,-13.11 260.77,-10.7 261.52,-17.66"/>
</g>
<!-- Node9&#45;&gt;Node3 -->
<g id="edge12" class="edge">
<title>Node9&#45;&gt;Node3</title>
<path fill="none" stroke="midnightblue" d="M306.91,-179.43C259.58,-171.9 200.33,-159.56 182,-143 149.08,-113.26 139.72,-58.68 137.06,-29.91"/>
<polygon fill="midnightblue" stroke="midnightblue" points="140.52,-29.33 136.29,-19.61 133.54,-29.84 140.52,-29.33"/>
</g>
<!-- Node9&#45;&gt;Node6 -->
<g id="edge29" class="edge">
<title>Node9&#45;&gt;Node6</title>
<path fill="none" stroke="midnightblue" d="M425.16,-179.48C493.89,-168.66 612.25,-150.03 685.26,-138.53"/>
<polygon fill="midnightblue" stroke="midnightblue" points="685.91,-141.97 695.25,-136.96 684.83,-135.06 685.91,-141.97"/>
</g>
<!-- Node10 -->
<g id="node10" class="node">
<title>Node10</title>
<g id="a_node10"><a xlink:title=" ">
<polygon fill="none" stroke="#bfbfbf" points="482.5,-118 482.5,-137 529.5,-137 529.5,-118 482.5,-118"/>
<text text-anchor="middle" x="506" y="-125" font-family="Helvetica,sans-Serif" font-size="10.00">cmath</text>
</a>
</g>
</g>
<!-- Node9&#45;&gt;Node10 -->
<g id="edge13" class="edge">
<title>Node9&#45;&gt;Node10</title>
<path fill="none" stroke="midnightblue" d="M390.34,-179.48C413.1,-169.45 451.09,-152.7 477.29,-141.15"/>
<polygon fill="midnightblue" stroke="midnightblue" points="478.95,-144.24 486.69,-137.01 476.13,-137.84 478.95,-144.24"/>
</g>
<!-- Node11 -->
<g id="node11" class="node">
<title>Node11</title>
<g id="a_node11"><a xlink:title=" ">
<polygon fill="none" stroke="#bfbfbf" points="180.5,-56.5 180.5,-75.5 249.5,-75.5 249.5,-56.5 180.5,-56.5"/>
<text text-anchor="middle" x="215" y="-63.5" font-family="Helvetica,sans-Serif" font-size="10.00">type_traits</text>
</a>
</g>
</g>
<!-- Node9&#45;&gt;Node11 -->
<g id="edge14" class="edge">
<title>Node9&#45;&gt;Node11</title>
<path fill="none" stroke="midnightblue" d="M306.82,-179.45C282.06,-173.13 255.34,-162.13 237,-143 222.33,-127.69 217.35,-103.21 215.71,-86.18"/>
<polygon fill="midnightblue" stroke="midnightblue" points="219.18,-85.54 215.03,-75.79 212.19,-86 219.18,-85.54"/>
</g>
<!-- Node12 -->
<g id="node12" class="node">
<title>Node12</title>
<g id="a_node12"><a xlink:title=" ">
<polygon fill="none" stroke="#bfbfbf" points="400,-118 400,-137 464,-137 464,-118 400,-118"/>
<text text-anchor="middle" x="432" y="-125" font-family="Helvetica,sans-Serif" font-size="10.00">algorithm</text>
</a>
</g>
</g>
<!-- Node9&#45;&gt;Node12 -->
<g id="edge16" class="edge">
<title>Node9&#45;&gt;Node12</title>
<path fill="none" stroke="midnightblue" d="M379.74,-179.48C389.16,-170.28 404.36,-155.46 415.95,-144.16"/>
<polygon fill="midnightblue" stroke="midnightblue" points="418.56,-146.5 423.28,-137.01 413.67,-141.49 418.56,-146.5"/>
</g>
<!-- Node13 -->
<g id="node13" class="node">
<title>Node13</title>
<g id="a_node13"><a xlink:href="limes__assert_8h.html" target="_top" xlink:title=" ">
<polygon fill="none" stroke="black" points="246,-118 246,-137 382,-137 382,-118 246,-118"/>
<text text-anchor="middle" x="314" y="-125" font-family="Helvetica,sans-Serif" font-size="10.00">../system/limes_assert.h</text>
</a>
</g>
</g>
<!-- Node9&#45;&gt;Node13 -->
<g id="edge17" class="edge">
<title>Node9&#45;&gt;Node13</title>
<path fill="none" stroke="midnightblue" d="M362.83,-179.48C354.11,-170.37 340.1,-155.74 329.31,-144.48"/>
<polygon fill="midnightblue" stroke="midnightblue" points="331.6,-141.81 322.15,-137.01 326.54,-146.65 331.6,-141.81"/>
</g>
<!-- Node13&#45;&gt;Node2 -->
<g id="edge18" class="edge">
<title>Node13&#45;&gt;Node2</title>
<path fill="none" stroke="midnightblue" d="M314.15,-117.82C314.47,-99.26 315.23,-55.34 315.67,-29.97"/>
<polygon fill="midnightblue" stroke="midnightblue" points="319.17,-29.84 315.85,-19.78 312.18,-29.72 319.17,-29.84"/>
</g>
<!-- Node13&#45;&gt;Node3 -->
<g id="edge19" class="edge">
<title>Node13&#45;&gt;Node3</title>
<path fill="none" stroke="midnightblue" d="M309.28,-117.87C300.85,-103.17 281.81,-73.23 258,-56 236.24,-40.25 208.34,-29.42 184.72,-22.34"/>
<polygon fill="midnightblue" stroke="midnightblue" points="185.47,-18.91 174.89,-19.53 183.55,-25.64 185.47,-18.91"/>
</g>
<!-- Node13&#45;&gt;Node4 -->
<g id="edge20" class="edge">
<title>Node13&#45;&gt;Node4</title>
<path fill="none" stroke="midnightblue" d="M355.45,-117.99C366.93,-115.83 379.42,-113.65 391,-112 464.56,-101.52 671.58,-82.86 782.19,-73.19"/>
<polygon fill="midnightblue" stroke="midnightblue" points="782.61,-76.67 792.27,-72.31 782,-69.69 782.61,-76.67"/>
</g>
<!-- Node13&#45;&gt;Node5 -->
<g id="edge27" class="edge">
<title>Node13&#45;&gt;Node5</title>
<path fill="none" stroke="midnightblue" d="M357.09,-117.93C368.12,-115.87 379.98,-113.75 391,-112 514.05,-92.46 555.15,-126.59 669,-76 694.17,-64.82 717.33,-42.54 731.3,-27.2"/>
<polygon fill="midnightblue" stroke="midnightblue" points="734.09,-29.33 738.08,-19.52 728.84,-24.71 734.09,-29.33"/>
</g>
<!-- Node13&#45;&gt;Node11 -->
<g id="edge21" class="edge">
<title>Node13&#45;&gt;Node11</title>
<path fill="none" stroke="midnightblue" d="M299.82,-117.98C283.64,-108.25 256.97,-92.23 237.86,-80.74"/>
<polygon fill="midnightblue" stroke="midnightblue" points="239.53,-77.66 229.16,-75.51 235.93,-83.66 239.53,-77.66"/>
</g>
<!-- Node14 -->
<g id="node14" class="node">
<title>Node14</title>
<g id="a_node14"><a xlink:title=" ">
<polygon fill="none" stroke="#bfbfbf" points="344.5,-56.5 344.5,-75.5 389.5,-75.5 389.5,-56.5 344.5,-56.5"/>
<text text-anchor="middle" x="367" y="-63.5" font-family="Helvetica,sans-Serif" font-size="10.00">utility</text>
</a>
</g>
</g>
<!-- Node13&#45;&gt;Node14 -->
<g id="edge22" class="edge">
<title>Node13&#45;&gt;Node14</title>
<path fill="none" stroke="midnightblue" d="M321.59,-117.98C329.7,-108.87 342.73,-94.24 352.76,-82.98"/>
<polygon fill="midnightblue" stroke="midnightblue" points="355.38,-85.3 359.42,-75.51 350.16,-80.65 355.38,-85.3"/>
</g>
<!-- Node15 -->
<g id="node15" class="node">
<title>Node15</title>
<g id="a_node15"><a xlink:href="_ignore_unused_8h.html" target="_top" xlink:title=" ">
<polygon fill="none" stroke="black" points="532,-56.5 532,-75.5 660,-75.5 660,-56.5 532,-56.5"/>
<text text-anchor="middle" x="596" y="-63.5" font-family="Helvetica,sans-Serif" font-size="10.00">../misc/IgnoreUnused.h</text>
</a>
</g>
</g>
<!-- Node13&#45;&gt;Node15 -->
<g id="edge23" class="edge">
<title>Node13&#45;&gt;Node15</title>
<path fill="none" stroke="midnightblue" d="M354.4,-117.98C404.87,-107.33 491.21,-89.11 545.85,-77.58"/>
<polygon fill="midnightblue" stroke="midnightblue" points="546.61,-81 555.67,-75.51 545.16,-74.15 546.61,-81"/>
</g>
<!-- Node16 -->
<g id="node16" class="node">
<title>Node16</title>
<g id="a_node16"><a xlink:title=" ">
<polygon fill="none" stroke="#bfbfbf" points="408,-56.5 408,-75.5 476,-75.5 476,-56.5 408,-56.5"/>
<text text-anchor="middle" x="442" y="-63.5" font-family="Helvetica,sans-Serif" font-size="10.00">filesystem</text>
</a>
</g>
</g>
<!-- Node13&#45;&gt;Node16 -->
<g id="edge28" class="edge">
<title>Node13&#45;&gt;Node16</title>
<path fill="none" stroke="midnightblue" d="M332.34,-117.98C353.82,-107.99 389.62,-91.35 414.45,-79.81"/>
<polygon fill="midnightblue" stroke="midnightblue" points="416.1,-82.9 423.69,-75.51 413.15,-76.55 416.1,-82.9"/>
</g>
<!-- Node15&#45;&gt;Node2 -->
<g id="edge24" class="edge">
<title>Node15&#45;&gt;Node2</title>
<path fill="none" stroke="midnightblue" d="M551.63,-56.44C502.38,-46.94 422.87,-31.61 370.03,-21.42"/>
<polygon fill="midnightblue" stroke="midnightblue" points="370.64,-17.97 360.16,-19.52 369.32,-24.85 370.64,-17.97"/>
</g>
<!-- Node15&#45;&gt;Node3 -->
<g id="edge25" class="edge">
<title>Node15&#45;&gt;Node3</title>
<path fill="none" stroke="midnightblue" d="M531.55,-57.43C444.86,-47.26 291.41,-29.24 203.28,-18.9"/>
<polygon fill="midnightblue" stroke="midnightblue" points="203.47,-15.4 193.13,-17.71 202.65,-22.35 203.47,-15.4"/>
</g>
<!-- Node15&#45;&gt;Node5 -->
<g id="edge26" class="edge">
<title>Node15&#45;&gt;Node5</title>
<path fill="none" stroke="midnightblue" d="M619.61,-56.44C644.46,-47.44 683.77,-33.19 711.75,-23.05"/>
<polygon fill="midnightblue" stroke="midnightblue" points="713.29,-26.21 721.5,-19.52 710.91,-19.63 713.29,-26.21"/>
</g>
<!-- Node17&#45;&gt;Node2 -->
<g id="edge31" class="edge">
<title>Node17&#45;&gt;Node2</title>
<path fill="none" stroke="midnightblue" d="M615.34,-179.37C641.1,-156.85 703.67,-95.37 669,-56 649.64,-34.02 465.25,-19.91 370.96,-14.07"/>
<polygon fill="midnightblue" stroke="midnightblue" points="370.94,-10.56 360.75,-13.45 370.52,-17.55 370.94,-10.56"/>
</g>
<!-- Node17&#45;&gt;Node3 -->
<g id="edge32" class="edge">
<title>Node17&#45;&gt;Node3</title>
<path fill="none" stroke="midnightblue" d="M600.18,-179.25C586.17,-154.76 542.69,-85.35 485,-56 460.47,-43.52 297.58,-26.32 203.25,-17.22"/>
<polygon fill="midnightblue" stroke="midnightblue" points="203.5,-13.73 193.22,-16.26 202.84,-20.7 203.5,-13.73"/>
</g>
<!-- Node17&#45;&gt;Node4 -->
<g id="edge33" class="edge">
<title>Node17&#45;&gt;Node4</title>
<path fill="none" stroke="midnightblue" d="M648.21,-188.51C693.03,-186.92 763.13,-178.31 811,-143 830.4,-128.69 842.29,-102.84 848.51,-85.3"/>
<polygon fill="midnightblue" stroke="midnightblue" points="851.89,-86.23 851.67,-75.64 845.24,-84.05 851.89,-86.23"/>
</g>
<!-- Node17&#45;&gt;Node6 -->
<g id="edge34" class="edge">
<title>Node17&#45;&gt;Node6</title>
<path fill="none" stroke="midnightblue" d="M625.63,-179.48C646.41,-170.89 679.1,-157.38 705.61,-146.43"/>
<polygon fill="midnightblue" stroke="midnightblue" points="707.16,-149.58 715.06,-142.52 704.48,-143.11 707.16,-149.58"/>
</g>
</g>
</svg>
        <g id="navigator" transform="translate(0 0)" fill="#404254">
                <rect fill="#f2f5e9" fill-opacity="0.5" stroke="#606060" stroke-width=".5" x="0" y="0" width="60" height="60"/>
                <use id="zoomplus" xlink:href="#zoomPlus" x="17" y="9" onmousedown="handleZoom(evt,'in')"/>
                <use id="zoomminus" xlink:href="#zoomMin" x="42" y="9" onmousedown="handleZoom(evt,'out')"/>
                <use id="reset" xlink:href="#resetDef" x="30" y="36" onmousedown="handleReset()"/>
                <g id="arrowUp" xlink:href="#dirArrow" transform="translate(30 24)" onmousedown="handlePan(0,-1)">
                  <use xlink:href="#rim" fill="#404040">
                        <set attributeName="fill" to="#808080" begin="arrowUp.mouseover" end="arrowUp.mouseout"/>
                  </use>
                  <path fill="none" stroke="white" stroke-width="1.5" d="M0,-3.0v7 M-2.5,-0.5L0,-3.0L2.5,-0.5"/>
                </g>
                <g id="arrowRight" xlink:href="#dirArrow" transform="rotate(90) translate(36 -43)" onmousedown="handlePan(1,0)">
                  <use xlink:href="#rim" fill="#404040">
                        <set attributeName="fill" to="#808080" begin="arrowRight.mouseover" end="arrowRight.mouseout"/>
                  </use>
                  <path fill="none" stroke="white" stroke-width="1.5" d="M0,-3.0v7 M-2.5,-0.5L0,-3.0L2.5,-0.5"/>
                </g>
                <g id="arrowDown" xlink:href="#dirArrow" transform="rotate(180) translate(-30 -48)" onmousedown="handlePan(0,1)">
                  <use xlink:href="#rim" fill="#404040">
                        <set attributeName="fill" to="#808080" begin="arrowDown.mouseover" end="arrowDown.mouseout"/>
                  </use>
                  <path fill="none" stroke="white" stroke-width="1.5" d="M0,-3.0v7 M-2.5,-0.5L0,-3.0L2.5,-0.5"/>
                </g>
                <g id="arrowLeft" xlink:href="#dirArrow" transform="rotate(270) translate(-36 17)" onmousedown="handlePan(-1,0)">
                  <use xlink:href="#rim" fill="#404040">
                        <set attributeName="fill" to="#808080" begin="arrowLeft.mouseover" end="arrowLeft.mouseout"/>
                  </use>
                  <path fill="none" stroke="white" stroke-width="1.5" d="M0,-3.0v7 M-2.5,-0.5L0,-3.0L2.5,-0.5"/>
                </g>
        </g>
        <svg viewBox="0 0 15 15" width="100%" height="30px" preserveAspectRatio="xMaxYMin meet">
         <g id="arrow_out" transform="scale(0.3 0.3)">
          <a xlink:href="year_8h__incl_org.svg" target="_base">
           <rect id="button" ry="5" rx="5" y="6" x="6" height="38" width="38"
                fill="#f2f5e9" fill-opacity="0.5" stroke="#606060" stroke-width="1.0"/>
           <path id="arrow"
             d="M 11.500037,31.436501 C 11.940474,20.09759 22.043105,11.32322 32.158766,21.979434 L 37.068811,17.246167 C 37.068811,17.246167 37.088388,32 37.088388,32 L 22.160133,31.978069 C 22.160133,31.978069 26.997745,27.140456 26.997745,27.140456 C 18.528582,18.264221 13.291696,25.230495 11.500037,31.436501 z"
             style="fill:#404040;"/>
          </a>
         </g>
        </svg>
</svg>
