<?xml version="1.0" encoding="UTF-8" standalone="no"?>
<!DOCTYPE svg PUBLIC "-//W3C//DTD SVG 1.1//EN"
 "http://www.w3.org/Graphics/SVG/1.1/DTD/svg11.dtd">
<!-- Generated by graphviz version 2.43.0 (0)
 -->
<!-- Title: year.h Pages: 1 -->
<svg width="1075pt" height="308pt"
 viewBox="0.00 0.00 1075.00 308.00" xmlns="http://www.w3.org/2000/svg" xmlns:xlink="http://www.w3.org/1999/xlink">
<g id="graph0" class="graph" transform="scale(1 1) rotate(0) translate(4 304)">
<title>year.h</title>
<!-- Node1 -->
<g id="node1" class="node">
<title>Node1</title>
<g id="a_node1"><a xlink:title=" ">
<polygon fill="#bfbfbf" stroke="black" points="725.5,-280.5 725.5,-299.5 772.5,-299.5 772.5,-280.5 725.5,-280.5"/>
<text text-anchor="middle" x="749" y="-287.5" font-family="Helvetica,sans-Serif" font-size="10.00">year.h</text>
</a>
</g>
</g>
<!-- Node2 -->
<g id="node2" class="node">
<title>Node2</title>
<g id="a_node2"><a xlink:title=" ">
<polygon fill="none" stroke="#bfbfbf" points="31.5,-0.5 31.5,-19.5 120.5,-19.5 120.5,-0.5 31.5,-0.5"/>
<text text-anchor="middle" x="76" y="-7.5" font-family="Helvetica,sans-Serif" font-size="10.00">limes_export.h</text>
</a>
</g>
</g>
<!-- Node1&#45;&gt;Node2 -->
<g id="edge1" class="edge">
<title>Node1&#45;&gt;Node2</title>
<path fill="none" stroke="midnightblue" d="M725.35,-288.08C598.03,-282.83 0,-254.16 0,-179 0,-179 0,-179 0,-121 0,-81.28 33.96,-45.5 56.48,-26.15"/>
<polygon fill="midnightblue" stroke="midnightblue" points="58.98,-28.63 64.46,-19.57 54.52,-23.24 58.98,-28.63"/>
</g>
<!-- Node3 -->
<g id="node3" class="node">
<title>Node3</title>
<g id="a_node3"><a xlink:href="limes__namespace_8h.html" target="_top" xlink:title=" ">
<polygon fill="none" stroke="black" points="799,-0.5 799,-19.5 913,-19.5 913,-0.5 799,-0.5"/>
<text text-anchor="middle" x="856" y="-7.5" font-family="Helvetica,sans-Serif" font-size="10.00">limes_namespace.h</text>
</a>
</g>
</g>
<!-- Node1&#45;&gt;Node3 -->
<g id="edge2" class="edge">
<title>Node1&#45;&gt;Node3</title>
<path fill="none" stroke="midnightblue" d="M772.59,-289.1C834.16,-287.99 995,-275.84 995,-179 995,-179 995,-179 995,-121 995,-69.58 935.77,-38.42 894.64,-22.98"/>
<polygon fill="midnightblue" stroke="midnightblue" points="895.73,-19.65 885.14,-19.57 893.37,-26.24 895.73,-19.65"/>
</g>
<!-- Node4 -->
<g id="node4" class="node">
<title>Node4</title>
<g id="a_node4"><a xlink:href="preprocessor_8h.html" target="_top" xlink:title=" ">
<polygon fill="none" stroke="black" points="104.5,-56.5 104.5,-75.5 227.5,-75.5 227.5,-56.5 104.5,-56.5"/>
<text text-anchor="middle" x="166" y="-63.5" font-family="Helvetica,sans-Serif" font-size="10.00">../misc/preprocessor.h</text>
</a>
</g>
</g>
<!-- Node1&#45;&gt;Node4 -->
<g id="edge3" class="edge">
<title>Node1&#45;&gt;Node4</title>
<path fill="none" stroke="midnightblue" d="M725.3,-283.41C654.2,-266.17 437.25,-210.26 270,-132 239.09,-117.54 206.12,-95.7 185.78,-81.4"/>
<polygon fill="midnightblue" stroke="midnightblue" points="187.81,-78.55 177.63,-75.59 183.74,-84.25 187.81,-78.55"/>
</g>
<!-- Node6 -->
<g id="node6" class="node">
<title>Node6</title>
<g id="a_node6"><a xlink:title=" ">
<polygon fill="none" stroke="#bfbfbf" points="1023,-224.5 1023,-243.5 1067,-243.5 1067,-224.5 1023,-224.5"/>
<text text-anchor="middle" x="1045" y="-231.5" font-family="Helvetica,sans-Serif" font-size="10.00">ctime</text>
</a>
</g>
</g>
<!-- Node1&#45;&gt;Node6 -->
<g id="edge5" class="edge">
<title>Node1&#45;&gt;Node6</title>
<path fill="none" stroke="midnightblue" d="M772.77,-285.49C818.65,-278.57 922.5,-262.27 1009,-244 1010.28,-243.73 1011.58,-243.45 1012.89,-243.15"/>
<polygon fill="midnightblue" stroke="midnightblue" points="1014.04,-246.48 1022.97,-240.78 1012.44,-239.66 1014.04,-246.48"/>
</g>
<!-- Node7 -->
<g id="node7" class="node">
<title>Node7</title>
<g id="a_node7"><a xlink:href="year__impl_8h.html" target="_top" xlink:title=" ">
<polygon fill="none" stroke="black" points="699.5,-224.5 699.5,-243.5 798.5,-243.5 798.5,-224.5 699.5,-224.5"/>
<text text-anchor="middle" x="749" y="-231.5" font-family="Helvetica,sans-Serif" font-size="10.00">impl/year_impl.h</text>
</a>
</g>
</g>
<!-- Node1&#45;&gt;Node7 -->
<g id="edge6" class="edge">
<title>Node1&#45;&gt;Node7</title>
<path fill="none" stroke="midnightblue" d="M749,-280.08C749,-273.01 749,-262.86 749,-253.99"/>
<polygon fill="midnightblue" stroke="midnightblue" points="752.5,-253.75 749,-243.75 745.5,-253.75 752.5,-253.75"/>
</g>
<!-- Node5 -->
<g id="node5" class="node">
<title>Node5</title>
<g id="a_node5"><a xlink:title=" ">
<polygon fill="none" stroke="#bfbfbf" points="265,-0.5 265,-19.5 365,-19.5 365,-0.5 265,-0.5"/>
<text text-anchor="middle" x="315" y="-7.5" font-family="Helvetica,sans-Serif" font-size="10.00">limes_platform.h</text>
</a>
</g>
</g>
<!-- Node4&#45;&gt;Node5 -->
<g id="edge4" class="edge">
<title>Node4&#45;&gt;Node5</title>
<path fill="none" stroke="midnightblue" d="M189.61,-56.44C214.46,-47.44 253.77,-33.19 281.75,-23.05"/>
<polygon fill="midnightblue" stroke="midnightblue" points="283.29,-26.21 291.5,-19.52 280.91,-19.63 283.29,-26.21"/>
</g>
<!-- Node7&#45;&gt;Node3 -->
<g id="edge7" class="edge">
<title>Node7&#45;&gt;Node3</title>
<path fill="none" stroke="midnightblue" d="M776.13,-224.5C813.35,-211.27 879.12,-181.96 910,-132 927.83,-103.15 932.29,-86.28 917,-56 910.19,-42.52 897.23,-32.08 885,-24.67"/>
<polygon fill="midnightblue" stroke="midnightblue" points="886.34,-21.41 875.91,-19.59 882.93,-27.52 886.34,-21.41"/>
</g>
<!-- Node8 -->
<g id="node8" class="node">
<title>Node8</title>
<g id="a_node8"><a xlink:href="math_helpers_8h.html" target="_top" xlink:title=" ">
<polygon fill="none" stroke="black" points="681.5,-168.5 681.5,-187.5 816.5,-187.5 816.5,-168.5 681.5,-168.5"/>
<text text-anchor="middle" x="749" y="-175.5" font-family="Helvetica,sans-Serif" font-size="10.00">../../math/mathHelpers.h</text>
</a>
</g>
</g>
<!-- Node7&#45;&gt;Node8 -->
<g id="edge8" class="edge">
<title>Node7&#45;&gt;Node8</title>
<path fill="none" stroke="midnightblue" d="M749,-224.08C749,-217.01 749,-206.86 749,-197.99"/>
<polygon fill="midnightblue" stroke="midnightblue" points="752.5,-197.75 749,-187.75 745.5,-197.75 752.5,-197.75"/>
</g>
<!-- Node17 -->
<g id="node17" class="node">
<title>Node17</title>
<g id="a_node17"><a xlink:href="build__date_8h.html" target="_top" xlink:title=" ">
<polygon fill="none" stroke="black" points="279,-112.5 279,-131.5 365,-131.5 365,-112.5 279,-112.5"/>
<text text-anchor="middle" x="322" y="-119.5" font-family="Helvetica,sans-Serif" font-size="10.00">../build_date.h</text>
</a>
</g>
</g>
<!-- Node7&#45;&gt;Node17 -->
<g id="edge26" class="edge">
<title>Node7&#45;&gt;Node17</title>
<path fill="none" stroke="midnightblue" d="M715.85,-224.46C639.31,-204.74 450.31,-156.05 365,-134.08"/>
<polygon fill="midnightblue" stroke="midnightblue" points="365.69,-130.64 355.13,-131.53 363.94,-137.42 365.69,-130.64"/>
</g>
<!-- Node8&#45;&gt;Node2 -->
<g id="edge12" class="edge">
<title>Node8&#45;&gt;Node2</title>
<path fill="none" stroke="midnightblue" d="M681.39,-174.72C588.11,-170.66 414.99,-159.8 270,-132 183.12,-115.34 133.65,-145.57 79,-76 68.87,-63.1 69.26,-43.93 71.5,-29.74"/>
<polygon fill="midnightblue" stroke="midnightblue" points="74.99,-30.15 73.53,-19.65 68.13,-28.77 74.99,-30.15"/>
</g>
<!-- Node8&#45;&gt;Node3 -->
<g id="edge9" class="edge">
<title>Node8&#45;&gt;Node3</title>
<path fill="none" stroke="midnightblue" d="M816.83,-170.37C843.25,-164.36 871.55,-153.07 890,-132 912.45,-106.37 912.86,-87.55 900,-56 895.2,-44.23 885.67,-33.86 876.71,-26.05"/>
<polygon fill="midnightblue" stroke="midnightblue" points="878.75,-23.2 868.78,-19.63 874.35,-28.64 878.75,-23.2"/>
</g>
<!-- Node9 -->
<g id="node9" class="node">
<title>Node9</title>
<g id="a_node9"><a xlink:title=" ">
<polygon fill="none" stroke="#bfbfbf" points="751.5,-112.5 751.5,-131.5 798.5,-131.5 798.5,-112.5 751.5,-112.5"/>
<text text-anchor="middle" x="775" y="-119.5" font-family="Helvetica,sans-Serif" font-size="10.00">cmath</text>
</a>
</g>
</g>
<!-- Node8&#45;&gt;Node9 -->
<g id="edge10" class="edge">
<title>Node8&#45;&gt;Node9</title>
<path fill="none" stroke="midnightblue" d="M753.29,-168.08C756.85,-160.69 762.02,-149.95 766.42,-140.81"/>
<polygon fill="midnightblue" stroke="midnightblue" points="769.6,-142.28 770.79,-131.75 763.29,-139.24 769.6,-142.28"/>
</g>
<!-- Node10 -->
<g id="node10" class="node">
<title>Node10</title>
<g id="a_node10"><a xlink:title=" ">
<polygon fill="none" stroke="#bfbfbf" points="821.5,-56.5 821.5,-75.5 890.5,-75.5 890.5,-56.5 821.5,-56.5"/>
<text text-anchor="middle" x="856" y="-63.5" font-family="Helvetica,sans-Serif" font-size="10.00">type_traits</text>
</a>
</g>
</g>
<!-- Node8&#45;&gt;Node10 -->
<g id="edge11" class="edge">
<title>Node8&#45;&gt;Node10</title>
<path fill="none" stroke="midnightblue" d="M744.88,-168.13C739.34,-154.72 731.42,-129.07 743,-112 751.43,-99.57 785.37,-87.06 813.88,-78.4"/>
<polygon fill="midnightblue" stroke="midnightblue" points="815.08,-81.69 823.68,-75.5 813.1,-74.98 815.08,-81.69"/>
</g>
<!-- Node11 -->
<g id="node11" class="node">
<title>Node11</title>
<g id="a_node11"><a xlink:title=" ">
<polygon fill="none" stroke="#bfbfbf" points="817,-112.5 817,-131.5 881,-131.5 881,-112.5 817,-112.5"/>
<text text-anchor="middle" x="849" y="-119.5" font-family="Helvetica,sans-Serif" font-size="10.00">algorithm</text>
</a>
</g>
</g>
<!-- Node8&#45;&gt;Node11 -->
<g id="edge13" class="edge">
<title>Node8&#45;&gt;Node11</title>
<path fill="none" stroke="midnightblue" d="M765.07,-168.32C780.96,-159.74 805.51,-146.49 823.96,-136.52"/>
<polygon fill="midnightblue" stroke="midnightblue" points="825.84,-139.49 832.97,-131.65 822.51,-133.33 825.84,-139.49"/>
</g>
<!-- Node12 -->
<g id="node12" class="node">
<title>Node12</title>
<g id="a_node12"><a xlink:href="limes__assert_8h.html" target="_top" xlink:title=" ">
<polygon fill="none" stroke="black" points="548,-112.5 548,-131.5 684,-131.5 684,-112.5 548,-112.5"/>
<text text-anchor="middle" x="616" y="-119.5" font-family="Helvetica,sans-Serif" font-size="10.00">../system/limes_assert.h</text>
</a>
</g>
</g>
<!-- Node8&#45;&gt;Node12 -->
<g id="edge14" class="edge">
<title>Node8&#45;&gt;Node12</title>
<path fill="none" stroke="midnightblue" d="M727.93,-168.44C705.94,-159.52 671.27,-145.44 646.34,-135.32"/>
<polygon fill="midnightblue" stroke="midnightblue" points="647.56,-132.04 636.98,-131.52 644.92,-138.52 647.56,-132.04"/>
</g>
<!-- Node12&#45;&gt;Node2 -->
<g id="edge15" class="edge">
<title>Node12&#45;&gt;Node2</title>
<path fill="none" stroke="midnightblue" d="M547.83,-119.04C477.87,-115.42 366.62,-105.13 275,-76 256.81,-70.22 254.73,-63.05 237,-56 200.62,-41.53 157.87,-29.82 125.57,-21.97"/>
<polygon fill="midnightblue" stroke="midnightblue" points="126.01,-18.48 115.48,-19.56 124.39,-25.29 126.01,-18.48"/>
</g>
<!-- Node12&#45;&gt;Node3 -->
<g id="edge16" class="edge">
<title>Node12&#45;&gt;Node3</title>
<path fill="none" stroke="midnightblue" d="M664.14,-112.43C696.43,-105.46 739.23,-93.83 774,-76 799.33,-63.01 824.37,-41.57 839.99,-26.89"/>
<polygon fill="midnightblue" stroke="midnightblue" points="842.46,-29.37 847.25,-19.91 837.61,-24.32 842.46,-29.37"/>
</g>
<!-- Node12&#45;&gt;Node4 -->
<g id="edge17" class="edge">
<title>Node12&#45;&gt;Node4</title>
<path fill="none" stroke="midnightblue" d="M547.65,-112.8C464.02,-102.76 323.04,-85.85 237.84,-75.62"/>
<polygon fill="midnightblue" stroke="midnightblue" points="238.08,-72.12 227.74,-74.41 237.25,-79.08 238.08,-72.12"/>
</g>
<!-- Node12&#45;&gt;Node5 -->
<g id="edge24" class="edge">
<title>Node12&#45;&gt;Node5</title>
<path fill="none" stroke="midnightblue" d="M592.38,-112.37C539.08,-92.89 409.35,-45.48 348.08,-23.09"/>
<polygon fill="midnightblue" stroke="midnightblue" points="349.1,-19.74 338.51,-19.59 346.7,-26.31 349.1,-19.74"/>
</g>
<!-- Node12&#45;&gt;Node10 -->
<g id="edge18" class="edge">
<title>Node12&#45;&gt;Node10</title>
<path fill="none" stroke="midnightblue" d="M654.03,-112.44C696.79,-102.82 766.16,-87.21 811.43,-77.03"/>
<polygon fill="midnightblue" stroke="midnightblue" points="812.28,-80.42 821.27,-74.82 810.74,-73.6 812.28,-80.42"/>
</g>
<!-- Node13 -->
<g id="node13" class="node">
<title>Node13</title>
<g id="a_node13"><a xlink:title=" ">
<polygon fill="none" stroke="#bfbfbf" points="506.5,-56.5 506.5,-75.5 551.5,-75.5 551.5,-56.5 506.5,-56.5"/>
<text text-anchor="middle" x="529" y="-63.5" font-family="Helvetica,sans-Serif" font-size="10.00">utility</text>
</a>
</g>
</g>
<!-- Node12&#45;&gt;Node13 -->
<g id="edge19" class="edge">
<title>Node12&#45;&gt;Node13</title>
<path fill="none" stroke="midnightblue" d="M602.02,-112.32C588.45,-103.9 567.62,-90.97 551.68,-81.07"/>
<polygon fill="midnightblue" stroke="midnightblue" points="553.29,-77.95 542.94,-75.65 549.59,-83.9 553.29,-77.95"/>
</g>
<!-- Node14 -->
<g id="node14" class="node">
<title>Node14</title>
<g id="a_node14"><a xlink:title=" ">
<polygon fill="none" stroke="#bfbfbf" points="569.5,-56.5 569.5,-75.5 678.5,-75.5 678.5,-56.5 569.5,-56.5"/>
<text text-anchor="middle" x="624" y="-63.5" font-family="Helvetica,sans-Serif" font-size="10.00">limes_build_type.h</text>
</a>
</g>
</g>
<!-- Node12&#45;&gt;Node14 -->
<g id="edge20" class="edge">
<title>Node12&#45;&gt;Node14</title>
<path fill="none" stroke="midnightblue" d="M617.32,-112.08C618.38,-104.93 619.91,-94.64 621.23,-85.69"/>
<polygon fill="midnightblue" stroke="midnightblue" points="624.7,-86.16 622.7,-75.75 617.78,-85.13 624.7,-86.16"/>
</g>
<!-- Node15 -->
<g id="node15" class="node">
<title>Node15</title>
<g id="a_node15"><a xlink:href="_ignore_unused_8h.html" target="_top" xlink:title=" ">
<polygon fill="none" stroke="black" points="284,-56.5 284,-75.5 412,-75.5 412,-56.5 284,-56.5"/>
<text text-anchor="middle" x="348" y="-63.5" font-family="Helvetica,sans-Serif" font-size="10.00">../misc/IgnoreUnused.h</text>
</a>
</g>
</g>
<!-- Node12&#45;&gt;Node15 -->
<g id="edge21" class="edge">
<title>Node12&#45;&gt;Node15</title>
<path fill="none" stroke="midnightblue" d="M573.53,-112.44C526.59,-102.98 450.92,-87.74 400.35,-77.55"/>
<polygon fill="midnightblue" stroke="midnightblue" points="400.76,-74.06 390.27,-75.52 399.38,-80.92 400.76,-74.06"/>
</g>
<!-- Node16 -->
<g id="node16" class="node">
<title>Node16</title>
<g id="a_node16"><a xlink:title=" ">
<polygon fill="none" stroke="#bfbfbf" points="697,-56.5 697,-75.5 765,-75.5 765,-56.5 697,-56.5"/>
<text text-anchor="middle" x="731" y="-63.5" font-family="Helvetica,sans-Serif" font-size="10.00">filesystem</text>
</a>
</g>
</g>
<!-- Node12&#45;&gt;Node16 -->
<g id="edge25" class="edge">
<title>Node12&#45;&gt;Node16</title>
<path fill="none" stroke="midnightblue" d="M634.22,-112.44C652.9,-103.68 682.16,-89.94 703.62,-79.86"/>
<polygon fill="midnightblue" stroke="midnightblue" points="705.3,-82.93 712.86,-75.52 702.32,-76.6 705.3,-82.93"/>
</g>
<!-- Node15&#45;&gt;Node2 -->
<g id="edge22" class="edge">
<title>Node15&#45;&gt;Node2</title>
<path fill="none" stroke="midnightblue" d="M304.9,-56.44C257.15,-46.96 180.14,-31.67 128.81,-21.48"/>
<polygon fill="midnightblue" stroke="midnightblue" points="129.39,-18.03 118.9,-19.52 128.02,-24.9 129.39,-18.03"/>
</g>
<!-- Node15&#45;&gt;Node3 -->
<g id="edge23" class="edge">
<title>Node15&#45;&gt;Node3</title>
<path fill="none" stroke="midnightblue" d="M412.08,-58.19C508.56,-47.93 690.27,-28.62 788.64,-18.16"/>
<polygon fill="midnightblue" stroke="midnightblue" points="789.19,-21.62 798.76,-17.08 788.45,-14.66 789.19,-21.62"/>
</g>
<!-- Node17&#45;&gt;Node2 -->
<g id="edge27" class="edge">
<title>Node17&#45;&gt;Node2</title>
<path fill="none" stroke="midnightblue" d="M278.71,-117.61C220.81,-112.23 122.35,-99.79 96,-76 83.01,-64.27 78.36,-44.34 76.74,-29.63"/>
<polygon fill="midnightblue" stroke="midnightblue" points="80.23,-29.34 76.01,-19.62 73.25,-29.85 80.23,-29.34"/>
</g>
<!-- Node17&#45;&gt;Node3 -->
<g id="edge28" class="edge">
<title>Node17&#45;&gt;Node3</title>
<path fill="none" stroke="midnightblue" d="M340.82,-112.41C372.55,-98.32 438.98,-70.41 498,-56 597.47,-31.72 715.88,-20.1 788.48,-14.87"/>
<polygon fill="midnightblue" stroke="midnightblue" points="789.12,-18.33 798.85,-14.15 788.63,-11.35 789.12,-18.33"/>
</g>
<!-- Node17&#45;&gt;Node4 -->
<g id="edge29" class="edge">
<title>Node17&#45;&gt;Node4</title>
<path fill="none" stroke="midnightblue" d="M297.28,-112.44C271.15,-103.4 229.74,-89.06 200.42,-78.92"/>
<polygon fill="midnightblue" stroke="midnightblue" points="201.2,-75.48 190.6,-75.52 198.91,-82.1 201.2,-75.48"/>
</g>
</g>
</svg>
