<?xml version="1.0" encoding="UTF-8" standalone="no"?>
<!DOCTYPE svg PUBLIC "-//W3C//DTD SVG 1.1//EN"
 "http://www.w3.org/Graphics/SVG/1.1/DTD/svg11.dtd">
<!-- Generated by graphviz version 2.43.0 (0)
 -->
<!-- Title: year_impl.h Pages: 1 -->
<svg width="803pt" height="263pt"
 viewBox="0.00 0.00 803.01 263.00" xmlns="http://www.w3.org/2000/svg" xmlns:xlink="http://www.w3.org/1999/xlink">
<g id="graph0" class="graph" transform="scale(1 1) rotate(0) translate(4 259)">
<title>year_impl.h</title>
<!-- Node1 -->
<g id="node1" class="node">
<title>Node1</title>
<g id="a_node1"><a xlink:title=" ">
<polygon fill="#bfbfbf" stroke="black" points="165,-235.5 165,-254.5 239,-254.5 239,-235.5 165,-235.5"/>
<text text-anchor="middle" x="202" y="-242.5" font-family="Helvetica,sans-Serif" font-size="10.00">year_impl.h</text>
</a>
</g>
</g>
<!-- Node2 -->
<g id="node2" class="node">
<title>Node2</title>
<g id="a_node2"><a xlink:href="limes__namespace_8h.html" target="_top" xlink:title=" ">
<polygon fill="none" stroke="black" points="0,-0.5 0,-19.5 114,-19.5 114,-0.5 0,-0.5"/>
<text text-anchor="middle" x="57" y="-7.5" font-family="Helvetica,sans-Serif" font-size="10.00">limes_namespace.h</text>
</a>
</g>
</g>
<!-- Node1&#45;&gt;Node2 -->
<g id="edge1" class="edge">
<title>Node1&#45;&gt;Node2</title>
<path fill="none" stroke="midnightblue" d="M176.4,-235.46C140.59,-222.03 76.6,-192.29 47,-143 26.99,-109.67 30.29,-94.1 38,-56 39.89,-46.65 43.79,-36.83 47.57,-28.75"/>
<polygon fill="midnightblue" stroke="midnightblue" points="50.79,-30.14 52.12,-19.63 44.53,-27.01 50.79,-30.14"/>
</g>
<!-- Node3 -->
<g id="node3" class="node">
<title>Node3</title>
<g id="a_node3"><a xlink:href="math_helpers_8h.html" target="_top" xlink:title=" ">
<polygon fill="none" stroke="black" points="134.5,-179.5 134.5,-198.5 269.5,-198.5 269.5,-179.5 134.5,-179.5"/>
<text text-anchor="middle" x="202" y="-186.5" font-family="Helvetica,sans-Serif" font-size="10.00">../../math/mathHelpers.h</text>
</a>
</g>
</g>
<!-- Node1&#45;&gt;Node3 -->
<g id="edge2" class="edge">
<title>Node1&#45;&gt;Node3</title>
<path fill="none" stroke="midnightblue" d="M202,-235.08C202,-228.01 202,-217.86 202,-208.99"/>
<polygon fill="midnightblue" stroke="midnightblue" points="205.5,-208.75 202,-198.75 198.5,-208.75 205.5,-208.75"/>
</g>
<!-- Node15 -->
<g id="node15" class="node">
<title>Node15</title>
<g id="a_node15"><a xlink:href="build__date_8h.html" target="_top" xlink:title=" ">
<polygon fill="none" stroke="black" points="550,-179.5 550,-198.5 636,-198.5 636,-179.5 550,-179.5"/>
<text text-anchor="middle" x="593" y="-186.5" font-family="Helvetica,sans-Serif" font-size="10.00">../build_date.h</text>
</a>
</g>
</g>
<!-- Node1&#45;&gt;Node15 -->
<g id="edge23" class="edge">
<title>Node1&#45;&gt;Node15</title>
<path fill="none" stroke="midnightblue" d="M239.14,-238.87C308.88,-229.24 459.63,-208.42 540.01,-197.32"/>
<polygon fill="midnightblue" stroke="midnightblue" points="540.5,-200.78 549.93,-195.95 539.54,-193.85 540.5,-200.78"/>
</g>
<!-- Node3&#45;&gt;Node2 -->
<g id="edge3" class="edge">
<title>Node3&#45;&gt;Node2</title>
<path fill="none" stroke="midnightblue" d="M155.81,-179.49C130.78,-172.96 100.65,-161.77 79,-143 47.38,-115.59 36.71,-97.37 43,-56 44.37,-47 47.19,-37.33 49.95,-29.26"/>
<polygon fill="midnightblue" stroke="midnightblue" points="53.27,-30.37 53.4,-19.78 46.69,-27.98 53.27,-30.37"/>
</g>
<!-- Node4 -->
<g id="node4" class="node">
<title>Node4</title>
<g id="a_node4"><a xlink:title=" ">
<polygon fill="none" stroke="#bfbfbf" points="178.5,-118 178.5,-137 225.5,-137 225.5,-118 178.5,-118"/>
<text text-anchor="middle" x="202" y="-125" font-family="Helvetica,sans-Serif" font-size="10.00">cmath</text>
</a>
</g>
</g>
<!-- Node3&#45;&gt;Node4 -->
<g id="edge4" class="edge">
<title>Node3&#45;&gt;Node4</title>
<path fill="none" stroke="midnightblue" d="M202,-179.48C202,-171.08 202,-157.98 202,-147.16"/>
<polygon fill="midnightblue" stroke="midnightblue" points="205.5,-147.01 202,-137.01 198.5,-147.01 205.5,-147.01"/>
</g>
<!-- Node5 -->
<g id="node5" class="node">
<title>Node5</title>
<g id="a_node5"><a xlink:title=" ">
<polygon fill="none" stroke="#bfbfbf" points="85.5,-56.5 85.5,-75.5 154.5,-75.5 154.5,-56.5 85.5,-56.5"/>
<text text-anchor="middle" x="120" y="-63.5" font-family="Helvetica,sans-Serif" font-size="10.00">type_traits</text>
</a>
</g>
</g>
<!-- Node3&#45;&gt;Node5 -->
<g id="edge5" class="edge">
<title>Node3&#45;&gt;Node5</title>
<path fill="none" stroke="midnightblue" d="M144.22,-179.45C122.56,-173.12 100.05,-162.12 87,-143 74.02,-123.98 90.18,-99.03 104.11,-83"/>
<polygon fill="midnightblue" stroke="midnightblue" points="106.81,-85.23 111.02,-75.51 101.67,-80.48 106.81,-85.23"/>
</g>
<!-- Node6 -->
<g id="node6" class="node">
<title>Node6</title>
<g id="a_node6"><a xlink:title=" ">
<polygon fill="none" stroke="#bfbfbf" points="491.5,-0.5 491.5,-19.5 580.5,-19.5 580.5,-0.5 491.5,-0.5"/>
<text text-anchor="middle" x="536" y="-7.5" font-family="Helvetica,sans-Serif" font-size="10.00">limes_export.h</text>
</a>
</g>
</g>
<!-- Node3&#45;&gt;Node6 -->
<g id="edge6" class="edge">
<title>Node3&#45;&gt;Node6</title>
<path fill="none" stroke="midnightblue" d="M269.56,-184C318.29,-179.04 384.61,-167.92 438,-143 480.65,-123.09 494.86,-115.79 520,-76 528.83,-62.03 532.78,-43.53 534.56,-29.84"/>
<polygon fill="midnightblue" stroke="midnightblue" points="538.06,-29.97 535.59,-19.67 531.1,-29.27 538.06,-29.97"/>
</g>
<!-- Node7 -->
<g id="node7" class="node">
<title>Node7</title>
<g id="a_node7"><a xlink:title=" ">
<polygon fill="none" stroke="#bfbfbf" points="96,-118 96,-137 160,-137 160,-118 96,-118"/>
<text text-anchor="middle" x="128" y="-125" font-family="Helvetica,sans-Serif" font-size="10.00">algorithm</text>
</a>
</g>
</g>
<!-- Node3&#45;&gt;Node7 -->
<g id="edge7" class="edge">
<title>Node3&#45;&gt;Node7</title>
<path fill="none" stroke="midnightblue" d="M191.4,-179.48C179.75,-170.11 160.81,-154.88 146.67,-143.51"/>
<polygon fill="midnightblue" stroke="midnightblue" points="148.57,-140.55 138.58,-137.01 144.18,-146 148.57,-140.55"/>
</g>
<!-- Node8 -->
<g id="node8" class="node">
<title>Node8</title>
<g id="a_node8"><a xlink:href="limes__assert_8h.html" target="_top" xlink:title=" ">
<polygon fill="none" stroke="black" points="293,-118 293,-137 429,-137 429,-118 293,-118"/>
<text text-anchor="middle" x="361" y="-125" font-family="Helvetica,sans-Serif" font-size="10.00">../system/limes_assert.h</text>
</a>
</g>
</g>
<!-- Node3&#45;&gt;Node8 -->
<g id="edge8" class="edge">
<title>Node3&#45;&gt;Node8</title>
<path fill="none" stroke="midnightblue" d="M224.78,-179.48C252.05,-169.27 297.91,-152.11 328.8,-140.55"/>
<polygon fill="midnightblue" stroke="midnightblue" points="330.12,-143.79 338.26,-137.01 327.67,-137.24 330.12,-143.79"/>
</g>
<!-- Node14 -->
<g id="node14" class="node">
<title>Node14</title>
<g id="a_node14"><a xlink:href="compiler__defs_8h.html" target="_top" xlink:title=" ">
<polygon fill="none" stroke="black" points="665.5,-112.5 665.5,-142.5 772.5,-142.5 772.5,-112.5 665.5,-112.5"/>
<text text-anchor="start" x="673.5" y="-130.5" font-family="Helvetica,sans-Serif" font-size="10.00">../system/compiler</text>
<text text-anchor="middle" x="719" y="-119.5" font-family="Helvetica,sans-Serif" font-size="10.00">_defs.h</text>
</a>
</g>
</g>
<!-- Node3&#45;&gt;Node14 -->
<g id="edge20" class="edge">
<title>Node3&#45;&gt;Node14</title>
<path fill="none" stroke="midnightblue" d="M269.59,-180.22C369.91,-168.68 556.91,-147.15 655.07,-135.86"/>
<polygon fill="midnightblue" stroke="midnightblue" points="655.62,-139.32 665.15,-134.7 654.82,-132.36 655.62,-139.32"/>
</g>
<!-- Node8&#45;&gt;Node2 -->
<g id="edge10" class="edge">
<title>Node8&#45;&gt;Node2</title>
<path fill="none" stroke="midnightblue" d="M328.77,-117.97C296.25,-108.96 244.85,-93.65 202,-76 183.99,-68.58 180.64,-64.26 163,-56 137.99,-44.3 109.11,-32.12 87.82,-23.39"/>
<polygon fill="midnightblue" stroke="midnightblue" points="88.9,-20.05 78.32,-19.52 86.25,-26.54 88.9,-20.05"/>
</g>
<!-- Node8&#45;&gt;Node5 -->
<g id="edge13" class="edge">
<title>Node8&#45;&gt;Node5</title>
<path fill="none" stroke="midnightblue" d="M326.47,-117.98C283.79,-107.44 211.08,-89.49 164.32,-77.94"/>
<polygon fill="midnightblue" stroke="midnightblue" points="165.01,-74.51 154.47,-75.51 163.33,-81.3 165.01,-74.51"/>
</g>
<!-- Node8&#45;&gt;Node6 -->
<g id="edge9" class="edge">
<title>Node8&#45;&gt;Node6</title>
<path fill="none" stroke="midnightblue" d="M405.58,-117.96C434.18,-110.67 470.74,-97.8 497,-76 511.99,-63.55 522.69,-43.76 529.04,-29.28"/>
<polygon fill="midnightblue" stroke="midnightblue" points="532.35,-30.44 532.9,-19.86 525.87,-27.79 532.35,-30.44"/>
</g>
<!-- Node9 -->
<g id="node9" class="node">
<title>Node9</title>
<g id="a_node9"><a xlink:href="preprocessor_8h.html" target="_top" xlink:title=" ">
<polygon fill="none" stroke="black" points="659.5,-56.5 659.5,-75.5 782.5,-75.5 782.5,-56.5 659.5,-56.5"/>
<text text-anchor="middle" x="721" y="-63.5" font-family="Helvetica,sans-Serif" font-size="10.00">../misc/preprocessor.h</text>
</a>
</g>
</g>
<!-- Node8&#45;&gt;Node9 -->
<g id="edge11" class="edge">
<title>Node8&#45;&gt;Node9</title>
<path fill="none" stroke="midnightblue" d="M412.58,-117.98C477.81,-107.19 589.98,-88.65 659.57,-77.15"/>
<polygon fill="midnightblue" stroke="midnightblue" points="660.22,-80.59 669.52,-75.51 659.08,-73.69 660.22,-80.59"/>
</g>
<!-- Node10 -->
<g id="node10" class="node">
<title>Node10</title>
<g id="a_node10"><a xlink:title=" ">
<polygon fill="none" stroke="#bfbfbf" points="671,-0.5 671,-19.5 771,-19.5 771,-0.5 671,-0.5"/>
<text text-anchor="middle" x="721" y="-7.5" font-family="Helvetica,sans-Serif" font-size="10.00">limes_platform.h</text>
</a>
</g>
</g>
<!-- Node8&#45;&gt;Node10 -->
<g id="edge18" class="edge">
<title>Node8&#45;&gt;Node10</title>
<path fill="none" stroke="midnightblue" d="M388.02,-117.97C419.67,-107.96 473.66,-90.85 520,-76 577.79,-57.48 644.85,-35.74 685.06,-22.69"/>
<polygon fill="midnightblue" stroke="midnightblue" points="686.25,-25.98 694.68,-19.56 684.08,-19.32 686.25,-25.98"/>
</g>
<!-- Node11 -->
<g id="node11" class="node">
<title>Node11</title>
<g id="a_node11"><a xlink:title=" ">
<polygon fill="none" stroke="#bfbfbf" points="443.5,-56.5 443.5,-75.5 488.5,-75.5 488.5,-56.5 443.5,-56.5"/>
<text text-anchor="middle" x="466" y="-63.5" font-family="Helvetica,sans-Serif" font-size="10.00">utility</text>
</a>
</g>
</g>
<!-- Node8&#45;&gt;Node11 -->
<g id="edge14" class="edge">
<title>Node8&#45;&gt;Node11</title>
<path fill="none" stroke="midnightblue" d="M376.04,-117.98C393.28,-108.21 421.74,-92.08 442.03,-80.58"/>
<polygon fill="midnightblue" stroke="midnightblue" points="444.01,-83.48 450.98,-75.51 440.56,-77.39 444.01,-83.48"/>
</g>
<!-- Node12 -->
<g id="node12" class="node">
<title>Node12</title>
<g id="a_node12"><a xlink:href="_ignore_unused_8h.html" target="_top" xlink:title=" ">
<polygon fill="none" stroke="black" points="297,-56.5 297,-75.5 425,-75.5 425,-56.5 297,-56.5"/>
<text text-anchor="middle" x="361" y="-63.5" font-family="Helvetica,sans-Serif" font-size="10.00">../misc/IgnoreUnused.h</text>
</a>
</g>
</g>
<!-- Node8&#45;&gt;Node12 -->
<g id="edge15" class="edge">
<title>Node8&#45;&gt;Node12</title>
<path fill="none" stroke="midnightblue" d="M361,-117.98C361,-109.58 361,-96.48 361,-85.66"/>
<polygon fill="midnightblue" stroke="midnightblue" points="364.5,-85.51 361,-75.51 357.5,-85.51 364.5,-85.51"/>
</g>
<!-- Node13 -->
<g id="node13" class="node">
<title>Node13</title>
<g id="a_node13"><a xlink:title=" ">
<polygon fill="none" stroke="#bfbfbf" points="211,-56.5 211,-75.5 279,-75.5 279,-56.5 211,-56.5"/>
<text text-anchor="middle" x="245" y="-63.5" font-family="Helvetica,sans-Serif" font-size="10.00">filesystem</text>
</a>
</g>
</g>
<!-- Node8&#45;&gt;Node13 -->
<g id="edge19" class="edge">
<title>Node8&#45;&gt;Node13</title>
<path fill="none" stroke="midnightblue" d="M344.38,-117.98C325.08,-108.08 293.04,-91.64 270.57,-80.12"/>
<polygon fill="midnightblue" stroke="midnightblue" points="272.08,-76.96 261.59,-75.51 268.89,-83.19 272.08,-76.96"/>
</g>
<!-- Node9&#45;&gt;Node10 -->
<g id="edge12" class="edge">
<title>Node9&#45;&gt;Node10</title>
<path fill="none" stroke="midnightblue" d="M721,-56.08C721,-49.01 721,-38.86 721,-29.99"/>
<polygon fill="midnightblue" stroke="midnightblue" points="724.5,-29.75 721,-19.75 717.5,-29.75 724.5,-29.75"/>
</g>
<!-- Node12&#45;&gt;Node2 -->
<g id="edge17" class="edge">
<title>Node12&#45;&gt;Node2</title>
<path fill="none" stroke="midnightblue" d="M312.83,-56.44C259.13,-46.9 172.31,-31.48 114.95,-21.29"/>
<polygon fill="midnightblue" stroke="midnightblue" points="115.4,-17.82 104.94,-19.52 114.18,-24.71 115.4,-17.82"/>
</g>
<!-- Node12&#45;&gt;Node6 -->
<g id="edge16" class="edge">
<title>Node12&#45;&gt;Node6</title>
<path fill="none" stroke="midnightblue" d="M388.73,-56.44C418.43,-47.28 465.72,-32.69 498.67,-22.52"/>
<polygon fill="midnightblue" stroke="midnightblue" points="499.88,-25.81 508.4,-19.52 497.81,-19.12 499.88,-25.81"/>
</g>
<!-- Node14&#45;&gt;Node9 -->
<g id="edge22" class="edge">
<title>Node14&#45;&gt;Node9</title>
<path fill="none" stroke="midnightblue" d="M719.47,-112.4C719.74,-104.47 720.08,-94.46 720.37,-85.86"/>
<polygon fill="midnightblue" stroke="midnightblue" points="723.87,-85.77 720.71,-75.66 716.87,-85.53 723.87,-85.77"/>
</g>
<!-- Node14&#45;&gt;Node10 -->
<g id="edge21" class="edge">
<title>Node14&#45;&gt;Node10</title>
<path fill="none" stroke="midnightblue" d="M752.41,-112.34C767.39,-104.09 783.56,-92.11 792,-76 803.64,-53.79 777.23,-35.28 753.39,-23.77"/>
<polygon fill="midnightblue" stroke="midnightblue" points="754.67,-20.51 744.12,-19.56 751.78,-26.88 754.67,-20.51"/>
</g>
<!-- Node15&#45;&gt;Node2 -->
<g id="edge25" class="edge">
<title>Node15&#45;&gt;Node2</title>
<path fill="none" stroke="midnightblue" d="M549.93,-187.23C488.95,-184.93 374.78,-176.12 284,-143 259.44,-134.04 258.19,-121.93 234,-112 167.37,-84.65 128.44,-125.37 76,-76 63.44,-64.17 59.03,-44.54 57.56,-29.94"/>
<polygon fill="midnightblue" stroke="midnightblue" points="61.03,-29.32 56.91,-19.56 54.04,-29.76 61.03,-29.32"/>
</g>
<!-- Node15&#45;&gt;Node6 -->
<g id="edge24" class="edge">
<title>Node15&#45;&gt;Node6</title>
<path fill="none" stroke="midnightblue" d="M592.76,-179.28C591.87,-157.55 587.78,-99.65 569,-56 564.56,-45.67 557.36,-35.46 550.82,-27.39"/>
<polygon fill="midnightblue" stroke="midnightblue" points="553.3,-24.89 544.15,-19.55 547.97,-29.43 553.3,-24.89"/>
</g>
<!-- Node15&#45;&gt;Node9 -->
<g id="edge26" class="edge">
<title>Node15&#45;&gt;Node9</title>
<path fill="none" stroke="midnightblue" d="M599.09,-179.4C609.78,-164.63 633.09,-133.91 657,-112 669.65,-100.41 685.4,-89.3 698.11,-81.02"/>
<polygon fill="midnightblue" stroke="midnightblue" points="700.19,-83.84 706.74,-75.52 696.43,-77.94 700.19,-83.84"/>
</g>
<!-- Node15&#45;&gt;Node14 -->
<g id="edge27" class="edge">
<title>Node15&#45;&gt;Node14</title>
<path fill="none" stroke="midnightblue" d="M611.05,-179.48C628.99,-171 657.09,-157.74 680.11,-146.86"/>
<polygon fill="midnightblue" stroke="midnightblue" points="681.76,-149.96 689.3,-142.52 678.77,-143.63 681.76,-149.96"/>
</g>
</g>
</svg>
