<?xml version="1.0" encoding="UTF-8" standalone="no"?>
<!DOCTYPE svg PUBLIC "-//W3C//DTD SVG 1.1//EN"
 "http://www.w3.org/Graphics/SVG/1.1/DTD/svg11.dtd">
<!-- Generated by graphviz version 2.43.0 (0)
 -->
<!-- Title: MonoStereoConverter.h Pages: 1 -->
<!--zoomable 420 -->
<svg id="main" version="1.1" xmlns="http://www.w3.org/2000/svg" xmlns:xlink="http://www.w3.org/1999/xlink" xml:space="preserve" onload="init(evt)">
<style type="text/css"><![CDATA[
.edge:hover path { stroke: red; }
.edge:hover polygon { stroke: red; fill: red; }
]]></style>
<script type="text/javascript"><![CDATA[
var edges = document.getElementsByTagName('g');
if (edges && edges.length) {
  for (var i=0;i<edges.length;i++) {
    if (edges[i].id.substr(0,4)=='edge') {
      edges[i].setAttribute('class','edge');
    }
  }
}
]]></script>
        <defs>
                <circle id="rim" cx="0" cy="0" r="7"/>
                <circle id="rim2" cx="0" cy="0" r="3.5"/>
                <g id="zoomPlus">
                        <use xlink:href="#rim" fill="#404040">
                                <set attributeName="fill" to="#808080" begin="zoomplus.mouseover" end="zoomplus.mouseout"/>
                        </use>
                        <path d="M-4,0h8M0,-4v8" fill="none" stroke="white" stroke-width="1.5" pointer-events="none"/>
                </g>
                <g id="zoomMin">
                        <use xlink:href="#rim" fill="#404040">
                                <set attributeName="fill" to="#808080" begin="zoomminus.mouseover" end="zoomminus.mouseout"/>
                        </use>
                        <path d="M-4,0h8" fill="none" stroke="white" stroke-width="1.5" pointer-events="none"/>
                </g>
                <g id="dirArrow">
                        <path fill="none" stroke="white" stroke-width="1.5" d="M0,-3.0v7 M-2.5,-0.5L0,-3.0L2.5,-0.5"/>
                </g>
               <g id="resetDef">
                       <use xlink:href="#rim2" fill="#404040">
                               <set attributeName="fill" to="#808080" begin="reset.mouseover" end="reset.mouseout"/>
                       </use>
               </g>
        </defs>

<script type="text/javascript">
var viewWidth = 1646;
var viewHeight = 420;
var sectionId = 'dynsection-0';
</script>
<script xlink:href="../../svgpan.js"/>
<svg id="graph" class="graph">
<g id="viewport">
<title>MonoStereoConverter.h</title>
<!-- Node1 -->
<g id="node1" class="node">
<title>Node1</title>
<g id="a_node1"><a xlink:title=" ">
<polygon fill="#bfbfbf" stroke="black" points="560,-392.5 560,-411.5 691,-411.5 691,-392.5 560,-392.5"/>
<text text-anchor="middle" x="625.5" y="-399.5" font-family="Helvetica,sans-Serif" font-size="10.00">MonoStereoConverter.h</text>
</a>
</g>
</g>
<!-- Node2 -->
<g id="node2" class="node">
<title>Node2</title>
<g id="a_node2"><a xlink:title=" ">
<polygon fill="none" stroke="#bfbfbf" points="853,-56.5 853,-75.5 942,-75.5 942,-56.5 853,-56.5"/>
<text text-anchor="middle" x="897.5" y="-63.5" font-family="Helvetica,sans-Serif" font-size="10.00">limes_export.h</text>
</a>
</g>
</g>
<!-- Node1&#45;&gt;Node2 -->
<g id="edge1" class="edge">
<title>Node1&#45;&gt;Node2</title>
<path fill="none" stroke="midnightblue" d="M559.95,-397.25C491.34,-389.35 393.5,-365.11 393.5,-291 393.5,-291 393.5,-291 393.5,-177 393.5,-138.58 416.34,-129.59 450.5,-112 467.71,-103.14 727,-80.96 842.6,-71.45"/>
<polygon fill="midnightblue" stroke="midnightblue" points="842.98,-74.93 852.66,-70.62 842.41,-67.95 842.98,-74.93"/>
</g>
<!-- Node3 -->
<g id="node3" class="node">
<title>Node3</title>
<g id="a_node3"><a xlink:href="../../d8/d1d/limes__data__structures_8h_source.html" target="_top" xlink:title=" ">
<polygon fill="none" stroke="black" points="916.5,-336.5 916.5,-355.5 1050.5,-355.5 1050.5,-336.5 916.5,-336.5"/>
<text text-anchor="middle" x="983.5" y="-343.5" font-family="Helvetica,sans-Serif" font-size="10.00">limes_data_structures.h</text>
</a>
</g>
</g>
<!-- Node1&#45;&gt;Node3 -->
<g id="edge2" class="edge">
<title>Node1&#45;&gt;Node3</title>
<path fill="none" stroke="midnightblue" d="M682.23,-392.44C745.99,-382.83 849.4,-367.23 916.93,-357.04"/>
<polygon fill="midnightblue" stroke="midnightblue" points="917.67,-360.47 927.04,-355.52 916.63,-353.55 917.67,-360.47"/>
</g>
<!-- Node12 -->
<g id="node8" class="node">
<title>Node12</title>
<g id="a_node8"><a xlink:href="../../da/d0b/limes__namespace_8h.html" target="_top" xlink:title=" ">
<polygon fill="none" stroke="black" points="648.5,-56.5 648.5,-75.5 762.5,-75.5 762.5,-56.5 648.5,-56.5"/>
<text text-anchor="middle" x="705.5" y="-63.5" font-family="Helvetica,sans-Serif" font-size="10.00">limes_namespace.h</text>
</a>
</g>
</g>
<!-- Node1&#45;&gt;Node12 -->
<g id="edge59" class="edge">
<title>Node1&#45;&gt;Node12</title>
<path fill="none" stroke="midnightblue" d="M559.89,-400.05C425.09,-396.3 129.5,-378.16 129.5,-291 129.5,-291 129.5,-291 129.5,-177 129.5,-141.09 146.16,-129.53 177.5,-112 197.3,-100.93 500.24,-80.19 638.1,-71.26"/>
<polygon fill="midnightblue" stroke="midnightblue" points="638.38,-74.75 648.13,-70.62 637.93,-67.77 638.38,-74.75"/>
</g>
<!-- Node139 -->
<g id="node22" class="node">
<title>Node139</title>
<g id="a_node22"><a xlink:href="../../d1/df0/limes__audio_2util_2_misc_8h.html" target="_top" xlink:title=" ">
<polygon fill="none" stroke="black" points="847.5,-112.5 847.5,-131.5 895.5,-131.5 895.5,-112.5 847.5,-112.5"/>
<text text-anchor="middle" x="871.5" y="-119.5" font-family="Helvetica,sans-Serif" font-size="10.00">Misc.h</text>
</a>
</g>
</g>
<!-- Node1&#45;&gt;Node139 -->
<g id="edge55" class="edge">
<title>Node1&#45;&gt;Node139</title>
<path fill="none" stroke="midnightblue" d="M691.24,-397.73C761.07,-390.3 861.5,-366.49 861.5,-291 861.5,-291 861.5,-291 861.5,-233 861.5,-200.82 865.8,-163.55 868.76,-141.7"/>
<polygon fill="midnightblue" stroke="midnightblue" points="872.26,-141.92 870.19,-131.53 865.33,-140.95 872.26,-141.92"/>
</g>
<!-- Node4 -->
<g id="node4" class="node">
<title>Node4</title>
<g id="a_node4"><a xlink:href="../../d6/d68/vector_8h_source.html" target="_top" xlink:title=" ">
<polygon fill="none" stroke="black" points="1015,-224.5 1015,-243.5 1110,-243.5 1110,-224.5 1015,-224.5"/>
<text text-anchor="middle" x="1062.5" y="-231.5" font-family="Helvetica,sans-Serif" font-size="10.00">vectors/vector.h</text>
</a>
</g>
</g>
<!-- Node3&#45;&gt;Node4 -->
<g id="edge3" class="edge">
<title>Node3&#45;&gt;Node4</title>
<path fill="none" stroke="midnightblue" d="M987.68,-336.19C993.98,-323.31 1006.65,-298.83 1020.5,-280 1028.08,-269.69 1037.76,-259.18 1045.91,-250.92"/>
<polygon fill="midnightblue" stroke="midnightblue" points="1048.5,-253.28 1053.15,-243.76 1043.58,-248.3 1048.5,-253.28"/>
</g>
<!-- Node131 -->
<g id="node11" class="node">
<title>Node131</title>
<g id="a_node11"><a xlink:href="../../d2/dd0/owned__vector_8h_source.html" target="_top" xlink:title=" ">
<polygon fill="none" stroke="black" points="469.5,-168.5 469.5,-187.5 601.5,-187.5 601.5,-168.5 469.5,-168.5"/>
<text text-anchor="middle" x="535.5" y="-175.5" font-family="Helvetica,sans-Serif" font-size="10.00">vectors/owned_vector.h</text>
</a>
</g>
</g>
<!-- Node3&#45;&gt;Node131 -->
<g id="edge18" class="edge">
<title>Node3&#45;&gt;Node131</title>
<path fill="none" stroke="midnightblue" d="M916.27,-337.59C808.9,-324.41 605.58,-293.54 554.5,-244 542.11,-231.99 537.68,-212.38 536.16,-197.84"/>
<polygon fill="midnightblue" stroke="midnightblue" points="539.63,-197.25 535.46,-187.51 532.64,-197.72 539.63,-197.25"/>
</g>
<!-- Node132 -->
<g id="node14" class="node">
<title>Node132</title>
<g id="a_node14"><a xlink:href="../../d0/dd0/_dimensions_8h_source.html" target="_top" xlink:title=" ">
<polygon fill="none" stroke="black" points="1371.5,-112.5 1371.5,-131.5 1533.5,-131.5 1533.5,-112.5 1371.5,-112.5"/>
<text text-anchor="middle" x="1452.5" y="-119.5" font-family="Helvetica,sans-Serif" font-size="10.00">data_structures/Dimensions.h</text>
</a>
</g>
</g>
<!-- Node3&#45;&gt;Node132 -->
<g id="edge25" class="edge">
<title>Node3&#45;&gt;Node132</title>
<path fill="none" stroke="midnightblue" d="M1017.58,-336.49C1047.41,-328.55 1091.61,-315.62 1128.5,-300 1247.13,-249.78 1379.2,-169.31 1430.48,-137.05"/>
<polygon fill="midnightblue" stroke="midnightblue" points="1432.51,-139.91 1439.1,-131.6 1428.77,-133.99 1432.51,-139.91"/>
</g>
<!-- Node133 -->
<g id="node15" class="node">
<title>Node133</title>
<g id="a_node15"><a xlink:href="../../d1/d4c/_linked_list_model_8h_source.html" target="_top" xlink:title=" ">
<polygon fill="none" stroke="black" points="195,-168.5 195,-187.5 352,-187.5 352,-168.5 195,-168.5"/>
<text text-anchor="middle" x="273.5" y="-175.5" font-family="Helvetica,sans-Serif" font-size="10.00">linked_list/LinkedListModel.h</text>
</a>
</g>
</g>
<!-- Node3&#45;&gt;Node133 -->
<g id="edge30" class="edge">
<title>Node3&#45;&gt;Node133</title>
<path fill="none" stroke="midnightblue" d="M916.23,-340.85C843.16,-335.36 723.38,-323.5 622.5,-300 500.88,-271.67 362.34,-216.42 303,-191.61"/>
<polygon fill="midnightblue" stroke="midnightblue" points="304.09,-188.27 293.52,-187.61 301.38,-194.72 304.09,-188.27"/>
</g>
<!-- Node135 -->
<g id="node17" class="node">
<title>Node135</title>
<g id="a_node17"><a xlink:href="../../de/dc6/_linked_list_8h.html" target="_top" xlink:title=" ">
<polygon fill="none" stroke="black" points="564,-224.5 564,-243.5 691,-243.5 691,-224.5 564,-224.5"/>
<text text-anchor="middle" x="627.5" y="-231.5" font-family="Helvetica,sans-Serif" font-size="10.00">linked_list/LinkedList.h</text>
</a>
</g>
</g>
<!-- Node3&#45;&gt;Node135 -->
<g id="edge35" class="edge">
<title>Node3&#45;&gt;Node135</title>
<path fill="none" stroke="midnightblue" d="M955.86,-336.46C892.51,-316.89 736.78,-268.77 664.93,-246.57"/>
<polygon fill="midnightblue" stroke="midnightblue" points="665.95,-243.22 655.37,-243.61 663.89,-249.91 665.95,-243.22"/>
</g>
<!-- Node137 -->
<g id="node19" class="node">
<title>Node137</title>
<g id="a_node19"><a xlink:href="../../d9/daa/_abstract_f_i_f_o_8h_source.html" target="_top" xlink:title=" ">
<polygon fill="none" stroke="black" points="1094,-112.5 1094,-131.5 1201,-131.5 1201,-112.5 1094,-112.5"/>
<text text-anchor="middle" x="1147.5" y="-119.5" font-family="Helvetica,sans-Serif" font-size="10.00">fifo/AbstractFIFO.h</text>
</a>
</g>
</g>
<!-- Node3&#45;&gt;Node137 -->
<g id="edge43" class="edge">
<title>Node3&#45;&gt;Node137</title>
<path fill="none" stroke="midnightblue" d="M1028.25,-336.43C1053.18,-329.83 1083.53,-318.6 1105.5,-300 1147.24,-264.66 1147.59,-241.97 1156.5,-188 1159.08,-172.37 1156.2,-154.54 1153.03,-141.51"/>
<polygon fill="midnightblue" stroke="midnightblue" points="1156.41,-140.59 1150.42,-131.85 1149.65,-142.42 1156.41,-140.59"/>
</g>
<!-- Node138 -->
<g id="node21" class="node">
<title>Node138</title>
<g id="a_node21"><a xlink:href="../../dd/d35/_f_i_f_o_8h_source.html" target="_top" xlink:title=" ">
<polygon fill="none" stroke="black" points="1029,-280.5 1029,-299.5 1096,-299.5 1096,-280.5 1029,-280.5"/>
<text text-anchor="middle" x="1062.5" y="-287.5" font-family="Helvetica,sans-Serif" font-size="10.00">fifo/FIFO.h</text>
</a>
</g>
</g>
<!-- Node3&#45;&gt;Node138 -->
<g id="edge48" class="edge">
<title>Node3&#45;&gt;Node138</title>
<path fill="none" stroke="midnightblue" d="M996.19,-336.32C1008.4,-327.98 1027.08,-315.21 1041.5,-305.35"/>
<polygon fill="midnightblue" stroke="midnightblue" points="1043.56,-308.19 1049.84,-299.65 1039.61,-302.41 1043.56,-308.19"/>
</g>
<!-- Node5 -->
<g id="node5" class="node">
<title>Node5</title>
<g id="a_node5"><a xlink:href="../../d5/d47/basic__vector_8h_source.html" target="_top" xlink:title=" ">
<polygon fill="none" stroke="red" points="989.5,-112.5 989.5,-131.5 1075.5,-131.5 1075.5,-112.5 989.5,-112.5"/>
<text text-anchor="middle" x="1032.5" y="-119.5" font-family="Helvetica,sans-Serif" font-size="10.00">basic_vector.h</text>
</a>
</g>
</g>
<!-- Node4&#45;&gt;Node5 -->
<g id="edge4" class="edge">
<title>Node4&#45;&gt;Node5</title>
<path fill="none" stroke="midnightblue" d="M1061.47,-224.46C1059.84,-211.92 1056.24,-187.84 1050.5,-168 1047.87,-158.91 1044.08,-149.12 1040.65,-141"/>
<polygon fill="midnightblue" stroke="midnightblue" points="1043.83,-139.54 1036.62,-131.78 1037.42,-142.35 1043.83,-139.54"/>
</g>
<!-- Node10 -->
<g id="node6" class="node">
<title>Node10</title>
<g id="a_node6"><a xlink:href="../../d9/df8/limes__core_8h.html" target="_top" xlink:title=" ">
<polygon fill="none" stroke="red" points="1210,-56.5 1210,-75.5 1289,-75.5 1289,-56.5 1210,-56.5"/>
<text text-anchor="middle" x="1249.5" y="-63.5" font-family="Helvetica,sans-Serif" font-size="10.00">limes_core.h</text>
</a>
</g>
</g>
<!-- Node4&#45;&gt;Node10 -->
<g id="edge17" class="edge">
<title>Node4&#45;&gt;Node10</title>
<path fill="none" stroke="midnightblue" d="M1110.07,-231.71C1176.87,-228.78 1293.28,-219.21 1319.5,-188 1341.23,-162.14 1335.69,-141.65 1319.5,-112 1311.68,-97.68 1297.14,-87.24 1283.32,-80.04"/>
<polygon fill="midnightblue" stroke="midnightblue" points="1284.5,-76.72 1273.97,-75.56 1281.48,-83.03 1284.5,-76.72"/>
</g>
<!-- Node4&#45;&gt;Node12 -->
<g id="edge16" class="edge">
<title>Node4&#45;&gt;Node12</title>
<path fill="none" stroke="midnightblue" d="M1030.17,-224.39C977.81,-209.72 872.09,-177.02 790.5,-132 765.01,-117.94 738.88,-96.74 722.44,-82.41"/>
<polygon fill="midnightblue" stroke="midnightblue" points="724.59,-79.63 714.79,-75.61 719.94,-84.87 724.59,-79.63"/>
</g>
<!-- Node130 -->
<g id="node9" class="node">
<title>Node130</title>
<g id="a_node9"><a xlink:href="../../d2/d8d/scalar__vector_8h_source.html" target="_top" xlink:title=" ">
<polygon fill="none" stroke="red" points="951.5,-168.5 951.5,-187.5 1041.5,-187.5 1041.5,-168.5 951.5,-168.5"/>
<text text-anchor="middle" x="996.5" y="-175.5" font-family="Helvetica,sans-Serif" font-size="10.00">scalar_vector.h</text>
</a>
</g>
</g>
<!-- Node4&#45;&gt;Node130 -->
<g id="edge10" class="edge">
<title>Node4&#45;&gt;Node130</title>
<path fill="none" stroke="midnightblue" d="M1051.9,-224.32C1042.04,-216.26 1027.15,-204.08 1015.28,-194.37"/>
<polygon fill="midnightblue" stroke="midnightblue" points="1017.25,-191.46 1007.3,-187.83 1012.82,-196.88 1017.25,-191.46"/>
</g>
<!-- Node8 -->
<g id="node10" class="node">
<title>Node8</title>
<g id="a_node10"><a xlink:title=" ">
<polygon fill="none" stroke="#bfbfbf" points="1484.5,-56.5 1484.5,-75.5 1528.5,-75.5 1528.5,-56.5 1484.5,-56.5"/>
<text text-anchor="middle" x="1506.5" y="-63.5" font-family="Helvetica,sans-Serif" font-size="10.00">string</text>
</a>
</g>
</g>
<!-- Node4&#45;&gt;Node8 -->
<g id="edge15" class="edge">
<title>Node4&#45;&gt;Node8</title>
<path fill="none" stroke="midnightblue" d="M1110.19,-230.57C1220.98,-223.8 1490.28,-200.48 1542.5,-132 1554.45,-116.33 1539.33,-96.23 1525.18,-82.55"/>
<polygon fill="midnightblue" stroke="midnightblue" points="1527.37,-79.81 1517.6,-75.69 1522.67,-84.99 1527.37,-79.81"/>
</g>
<!-- Node5&#45;&gt;Node2 -->
<g id="edge7" class="edge">
<title>Node5&#45;&gt;Node2</title>
<path fill="none" stroke="midnightblue" d="M1011.11,-112.44C988.79,-103.52 953.6,-89.44 928.29,-79.32"/>
<polygon fill="midnightblue" stroke="midnightblue" points="929.38,-75.98 918.79,-75.52 926.78,-82.48 929.38,-75.98"/>
</g>
<!-- Node5&#45;&gt;Node10 -->
<g id="edge5" class="edge">
<title>Node5&#45;&gt;Node10</title>
<path fill="none" stroke="midnightblue" d="M1066.88,-112.44C1104.42,-103.1 1164.63,-88.12 1205.57,-77.93"/>
<polygon fill="midnightblue" stroke="midnightblue" points="1206.42,-81.33 1215.28,-75.52 1204.73,-74.53 1206.42,-81.33"/>
</g>
<!-- Node9 -->
<g id="node7" class="node">
<title>Node9</title>
<g id="a_node7"><a xlink:title=" ">
<polygon fill="none" stroke="#bfbfbf" points="1130.5,-0.5 1130.5,-19.5 1230.5,-19.5 1230.5,-0.5 1130.5,-0.5"/>
<text text-anchor="middle" x="1180.5" y="-7.5" font-family="Helvetica,sans-Serif" font-size="10.00">limes_platform.h</text>
</a>
</g>
</g>
<!-- Node5&#45;&gt;Node9 -->
<g id="edge8" class="edge">
<title>Node5&#45;&gt;Node9</title>
<path fill="none" stroke="midnightblue" d="M1042.76,-112.3C1057.93,-99.55 1087.35,-75.22 1113.5,-56 1128.18,-45.21 1145.23,-33.78 1158.45,-25.13"/>
<polygon fill="midnightblue" stroke="midnightblue" points="1160.44,-28.02 1166.92,-19.64 1156.63,-22.14 1160.44,-28.02"/>
</g>
<!-- Node5&#45;&gt;Node12 -->
<g id="edge9" class="edge">
<title>Node5&#45;&gt;Node12</title>
<path fill="none" stroke="midnightblue" d="M989.41,-113.88C932.54,-104.49 832.04,-87.9 767.13,-77.18"/>
<polygon fill="midnightblue" stroke="midnightblue" points="767.47,-73.69 757.04,-75.51 766.33,-80.59 767.47,-73.69"/>
</g>
<!-- Node10&#45;&gt;Node9 -->
<g id="edge6" class="edge">
<title>Node10&#45;&gt;Node9</title>
<path fill="none" stroke="midnightblue" d="M1238.41,-56.32C1228.01,-48.18 1212.24,-35.84 1199.78,-26.09"/>
<polygon fill="midnightblue" stroke="midnightblue" points="1201.82,-23.24 1191.79,-19.83 1197.51,-28.75 1201.82,-23.24"/>
</g>
<!-- Node130&#45;&gt;Node2 -->
<g id="edge13" class="edge">
<title>Node130&#45;&gt;Node2</title>
<path fill="none" stroke="midnightblue" d="M988.73,-168.37C972.18,-149.97 933.2,-106.67 911.95,-83.05"/>
<polygon fill="midnightblue" stroke="midnightblue" points="914.52,-80.68 905.23,-75.59 909.32,-85.37 914.52,-80.68"/>
</g>
<!-- Node130&#45;&gt;Node5 -->
<g id="edge11" class="edge">
<title>Node130&#45;&gt;Node5</title>
<path fill="none" stroke="midnightblue" d="M1002.44,-168.08C1007.48,-160.53 1014.84,-149.49 1021.01,-140.23"/>
<polygon fill="midnightblue" stroke="midnightblue" points="1024.03,-142.01 1026.67,-131.75 1018.21,-138.13 1024.03,-142.01"/>
</g>
<!-- Node130&#45;&gt;Node10 -->
<g id="edge12" class="edge">
<title>Node130&#45;&gt;Node10</title>
<path fill="none" stroke="midnightblue" d="M1041.61,-175.12C1105.35,-171.46 1216.97,-160.97 1243.5,-132 1254.61,-119.86 1255.05,-100.59 1253.35,-86.17"/>
<polygon fill="midnightblue" stroke="midnightblue" points="1256.73,-85.2 1251.68,-75.88 1249.82,-86.31 1256.73,-85.2"/>
</g>
<!-- Node130&#45;&gt;Node12 -->
<g id="edge14" class="edge">
<title>Node130&#45;&gt;Node12</title>
<path fill="none" stroke="midnightblue" d="M959.5,-168.44C927.09,-160.47 878.98,-147.52 838.5,-132 799.17,-116.93 755.7,-94.52 729.5,-80.34"/>
<polygon fill="midnightblue" stroke="midnightblue" points="731.12,-77.24 720.67,-75.52 727.76,-83.38 731.12,-77.24"/>
</g>
<!-- Node131&#45;&gt;Node2 -->
<g id="edge22" class="edge">
<title>Node131&#45;&gt;Node2</title>
<path fill="none" stroke="midnightblue" d="M563.6,-168.46C628.02,-148.89 786.38,-100.77 859.44,-78.57"/>
<polygon fill="midnightblue" stroke="midnightblue" points="860.61,-81.87 869.16,-75.61 858.58,-75.17 860.61,-81.87"/>
</g>
<!-- Node131&#45;&gt;Node5 -->
<g id="edge19" class="edge">
<title>Node131&#45;&gt;Node5</title>
<path fill="none" stroke="midnightblue" d="M601.75,-169.8C701.38,-158.98 887.81,-138.72 979.21,-128.79"/>
<polygon fill="midnightblue" stroke="midnightblue" points="979.78,-132.25 989.35,-127.69 979.03,-125.29 979.78,-132.25"/>
</g>
<!-- Node131&#45;&gt;Node10 -->
<g id="edge24" class="edge">
<title>Node131&#45;&gt;Node10</title>
<path fill="none" stroke="midnightblue" d="M601.7,-176.04C761.59,-173.25 1159.42,-163.21 1210.5,-132 1227.65,-121.52 1238.22,-100.4 1243.96,-85.08"/>
<polygon fill="midnightblue" stroke="midnightblue" points="1247.28,-86.19 1247.18,-75.59 1240.65,-83.94 1247.28,-86.19"/>
</g>
<!-- Node131&#45;&gt;Node12 -->
<g id="edge23" class="edge">
<title>Node131&#45;&gt;Node12</title>
<path fill="none" stroke="midnightblue" d="M507.14,-168.41C475.13,-157.28 430.02,-136.41 450.5,-112 474.03,-83.95 570.86,-73.38 638.18,-69.4"/>
<polygon fill="midnightblue" stroke="midnightblue" points="638.51,-72.88 648.3,-68.83 638.12,-65.89 638.51,-72.88"/>
</g>
<!-- Node37 -->
<g id="node12" class="node">
<title>Node37</title>
<g id="a_node12"><a xlink:title=" ">
<polygon fill="none" stroke="#bfbfbf" points="459.5,-112.5 459.5,-131.5 517.5,-131.5 517.5,-112.5 459.5,-112.5"/>
<text text-anchor="middle" x="488.5" y="-119.5" font-family="Helvetica,sans-Serif" font-size="10.00">memory</text>
</a>
</g>
</g>
<!-- Node131&#45;&gt;Node37 -->
<g id="edge20" class="edge">
<title>Node131&#45;&gt;Node37</title>
<path fill="none" stroke="midnightblue" d="M527.74,-168.08C520.96,-160.3 510.96,-148.8 502.74,-139.37"/>
<polygon fill="midnightblue" stroke="midnightblue" points="505.32,-137 496.12,-131.75 500.04,-141.59 505.32,-137"/>
</g>
<!-- Node25 -->
<g id="node13" class="node">
<title>Node25</title>
<g id="a_node13"><a xlink:title=" ">
<polygon fill="none" stroke="#bfbfbf" points="536,-112.5 536,-131.5 601,-131.5 601,-112.5 536,-112.5"/>
<text text-anchor="middle" x="568.5" y="-119.5" font-family="Helvetica,sans-Serif" font-size="10.00">functional</text>
</a>
</g>
</g>
<!-- Node131&#45;&gt;Node25 -->
<g id="edge21" class="edge">
<title>Node131&#45;&gt;Node25</title>
<path fill="none" stroke="midnightblue" d="M540.95,-168.08C545.51,-160.61 552.17,-149.72 557.79,-140.52"/>
<polygon fill="midnightblue" stroke="midnightblue" points="560.92,-142.11 563.15,-131.75 554.95,-138.46 560.92,-142.11"/>
</g>
<!-- Node132&#45;&gt;Node2 -->
<g id="edge26" class="edge">
<title>Node132&#45;&gt;Node2</title>
<path fill="none" stroke="midnightblue" d="M1371.2,-113.09C1256.48,-101.93 1050.17,-81.85 952.12,-72.31"/>
<polygon fill="midnightblue" stroke="midnightblue" points="952.42,-68.83 942.13,-71.34 951.74,-75.79 952.42,-68.83"/>
</g>
<!-- Node132&#45;&gt;Node10 -->
<g id="edge28" class="edge">
<title>Node132&#45;&gt;Node10</title>
<path fill="none" stroke="midnightblue" d="M1420.33,-112.44C1385.44,-103.16 1329.61,-88.31 1291.33,-78.13"/>
<polygon fill="midnightblue" stroke="midnightblue" points="1292.08,-74.7 1281.52,-75.52 1290.28,-81.47 1292.08,-74.7"/>
</g>
<!-- Node132&#45;&gt;Node12 -->
<g id="edge27" class="edge">
<title>Node132&#45;&gt;Node12</title>
<path fill="none" stroke="midnightblue" d="M1371.49,-115.14C1223,-104.41 909.85,-81.77 772.48,-71.84"/>
<polygon fill="midnightblue" stroke="midnightblue" points="772.73,-68.35 762.51,-71.12 772.23,-75.33 772.73,-68.35"/>
</g>
<!-- Node132&#45;&gt;Node8 -->
<g id="edge29" class="edge">
<title>Node132&#45;&gt;Node8</title>
<path fill="none" stroke="midnightblue" d="M1461.42,-112.08C1469.28,-104.22 1480.93,-92.57 1490.42,-83.08"/>
<polygon fill="midnightblue" stroke="midnightblue" points="1493.15,-85.3 1497.75,-75.75 1488.2,-80.35 1493.15,-85.3"/>
</g>
<!-- Node133&#45;&gt;Node2 -->
<g id="edge31" class="edge">
<title>Node133&#45;&gt;Node2</title>
<path fill="none" stroke="midnightblue" d="M283.81,-168.37C301.86,-153.8 340.96,-124.7 379.5,-112 401.26,-104.83 714.23,-80.73 842.89,-71.07"/>
<polygon fill="midnightblue" stroke="midnightblue" points="843.22,-74.55 852.93,-70.31 842.69,-67.57 843.22,-74.55"/>
</g>
<!-- Node133&#45;&gt;Node12 -->
<g id="edge32" class="edge">
<title>Node133&#45;&gt;Node12</title>
<path fill="none" stroke="midnightblue" d="M244.75,-168.42C211.66,-157.15 164.52,-135.97 186.5,-112 216.44,-79.36 504.46,-70.32 638.06,-67.88"/>
<polygon fill="midnightblue" stroke="midnightblue" points="638.24,-71.38 648.18,-67.7 638.12,-64.38 638.24,-71.38"/>
</g>
<!-- Node134 -->
<g id="node16" class="node">
<title>Node134</title>
<g id="a_node16"><a xlink:href="../../d3/da1/_linked_list_model__impl_8h.html" target="_top" xlink:title=" ">
<polygon fill="none" stroke="red" points="196,-112.5 196,-131.5 327,-131.5 327,-112.5 196,-112.5"/>
<text text-anchor="middle" x="261.5" y="-119.5" font-family="Helvetica,sans-Serif" font-size="10.00">LinkedListModel_impl.h</text>
</a>
</g>
</g>
<!-- Node133&#45;&gt;Node134 -->
<g id="edge33" class="edge">
<title>Node133&#45;&gt;Node134</title>
<path fill="none" stroke="midnightblue" d="M271.52,-168.08C269.93,-160.93 267.64,-150.64 265.65,-141.69"/>
<polygon fill="midnightblue" stroke="midnightblue" points="269.03,-140.75 263.44,-131.75 262.2,-142.27 269.03,-140.75"/>
</g>
<!-- Node134&#45;&gt;Node12 -->
<g id="edge34" class="edge">
<title>Node134&#45;&gt;Node12</title>
<path fill="none" stroke="midnightblue" d="M327.01,-113.03C410.46,-102.88 553.93,-85.43 638.22,-75.18"/>
<polygon fill="midnightblue" stroke="midnightblue" points="638.69,-78.65 648.19,-73.97 637.84,-71.7 638.69,-78.65"/>
</g>
<!-- Node135&#45;&gt;Node2 -->
<g id="edge36" class="edge">
<title>Node135&#45;&gt;Node2</title>
<path fill="none" stroke="midnightblue" d="M641.64,-224.31C685.65,-197.25 820.53,-114.32 874.66,-81.04"/>
<polygon fill="midnightblue" stroke="midnightblue" points="876.82,-83.82 883.5,-75.61 873.15,-77.86 876.82,-83.82"/>
</g>
<!-- Node135&#45;&gt;Node10 -->
<g id="edge39" class="edge">
<title>Node135&#45;&gt;Node10</title>
<path fill="none" stroke="midnightblue" d="M691.07,-233.32C837.8,-232.53 1192.86,-221.23 1261.5,-132 1271.86,-118.53 1266.22,-98.9 1259.63,-84.74"/>
<polygon fill="midnightblue" stroke="midnightblue" points="1262.58,-82.83 1254.87,-75.56 1256.36,-86.05 1262.58,-82.83"/>
</g>
<!-- Node135&#45;&gt;Node12 -->
<g id="edge38" class="edge">
<title>Node135&#45;&gt;Node12</title>
<path fill="none" stroke="midnightblue" d="M631.69,-224.08C644.08,-197.72 680.65,-119.88 697.2,-84.66"/>
<polygon fill="midnightblue" stroke="midnightblue" points="700.39,-86.11 701.47,-75.57 694.05,-83.13 700.39,-86.11"/>
</g>
<!-- Node135&#45;&gt;Node131 -->
<g id="edge37" class="edge">
<title>Node135&#45;&gt;Node131</title>
<path fill="none" stroke="midnightblue" d="M612.72,-224.32C598.23,-215.82 575.93,-202.73 559.01,-192.8"/>
<polygon fill="midnightblue" stroke="midnightblue" points="560.64,-189.7 550.24,-187.65 557.1,-195.74 560.64,-189.7"/>
</g>
<!-- Node136 -->
<g id="node18" class="node">
<title>Node136</title>
<g id="a_node18"><a xlink:href="../../d5/dea/_linked_list__impl_8h.html" target="_top" xlink:title=" ">
<polygon fill="none" stroke="red" points="0,-112.5 0,-131.5 101,-131.5 101,-112.5 0,-112.5"/>
<text text-anchor="middle" x="50.5" y="-119.5" font-family="Helvetica,sans-Serif" font-size="10.00">LinkedList_impl.h</text>
</a>
</g>
</g>
<!-- Node135&#45;&gt;Node136 -->
<g id="edge40" class="edge">
<title>Node135&#45;&gt;Node136</title>
<path fill="none" stroke="midnightblue" d="M563.63,-233.37C476.52,-232.34 316.33,-224.93 185.5,-188 143.58,-176.17 98.75,-152.01 72.74,-136.71"/>
<polygon fill="midnightblue" stroke="midnightblue" points="74.43,-133.64 64.05,-131.51 70.84,-139.65 74.43,-133.64"/>
</g>
<!-- Node136&#45;&gt;Node9 -->
<g id="edge41" class="edge">
<title>Node136&#45;&gt;Node9</title>
<path fill="none" stroke="midnightblue" d="M101.22,-113.82C106.05,-113.19 110.86,-112.57 115.5,-112 347.97,-83.49 406.33,-78.15 639.5,-56 813.94,-39.43 1020.35,-23.19 1120.29,-15.54"/>
<polygon fill="midnightblue" stroke="midnightblue" points="1120.79,-19.02 1130.49,-14.77 1120.25,-12.04 1120.79,-19.02"/>
</g>
<!-- Node136&#45;&gt;Node12 -->
<g id="edge42" class="edge">
<title>Node136&#45;&gt;Node12</title>
<path fill="none" stroke="midnightblue" d="M101.21,-113.67C106.03,-113.07 110.86,-112.5 115.5,-112 304.49,-91.73 528.51,-77.25 638.19,-70.78"/>
<polygon fill="midnightblue" stroke="midnightblue" points="638.66,-74.26 648.44,-70.18 638.25,-67.27 638.66,-74.26"/>
</g>
<!-- Node137&#45;&gt;Node2 -->
<g id="edge45" class="edge">
<title>Node137&#45;&gt;Node2</title>
<path fill="none" stroke="midnightblue" d="M1107.89,-112.44C1064.27,-103.02 994.1,-87.87 946.92,-77.68"/>
<polygon fill="midnightblue" stroke="midnightblue" points="947.44,-74.21 936.93,-75.52 945.96,-81.05 947.44,-74.21"/>
</g>
<!-- Node137&#45;&gt;Node10 -->
<g id="edge47" class="edge">
<title>Node137&#45;&gt;Node10</title>
<path fill="none" stroke="midnightblue" d="M1163.89,-112.32C1180.17,-103.7 1205.37,-90.36 1224.22,-80.39"/>
<polygon fill="midnightblue" stroke="midnightblue" points="1225.95,-83.43 1233.15,-75.65 1222.68,-77.24 1225.95,-83.43"/>
</g>
<!-- Node137&#45;&gt;Node12 -->
<g id="edge46" class="edge">
<title>Node137&#45;&gt;Node12</title>
<path fill="none" stroke="midnightblue" d="M1093.9,-113.25C1090.72,-112.82 1087.57,-112.4 1084.5,-112 975.63,-97.76 848.91,-83.1 773.06,-74.53"/>
<polygon fill="midnightblue" stroke="midnightblue" points="773.03,-71.01 762.7,-73.36 772.24,-77.96 773.03,-71.01"/>
</g>
<!-- Node27 -->
<g id="node20" class="node">
<title>Node27</title>
<g id="a_node20"><a xlink:title=" ">
<polygon fill="none" stroke="#bfbfbf" points="1122.5,-56.5 1122.5,-75.5 1172.5,-75.5 1172.5,-56.5 1122.5,-56.5"/>
<text text-anchor="middle" x="1147.5" y="-63.5" font-family="Helvetica,sans-Serif" font-size="10.00">atomic</text>
</a>
</g>
</g>
<!-- Node137&#45;&gt;Node27 -->
<g id="edge44" class="edge">
<title>Node137&#45;&gt;Node27</title>
<path fill="none" stroke="midnightblue" d="M1147.5,-112.08C1147.5,-105.01 1147.5,-94.86 1147.5,-85.99"/>
<polygon fill="midnightblue" stroke="midnightblue" points="1151,-85.75 1147.5,-75.75 1144,-85.75 1151,-85.75"/>
</g>
<!-- Node138&#45;&gt;Node2 -->
<g id="edge49" class="edge">
<title>Node138&#45;&gt;Node2</title>
<path fill="none" stroke="midnightblue" d="M1047.75,-280.33C1022.66,-264.85 971.57,-230.14 942.5,-188 920.09,-155.53 907.22,-110.5 901.37,-85.54"/>
<polygon fill="midnightblue" stroke="midnightblue" points="904.75,-84.6 899.17,-75.6 897.91,-86.12 904.75,-84.6"/>
</g>
<!-- Node138&#45;&gt;Node4 -->
<g id="edge52" class="edge">
<title>Node138&#45;&gt;Node4</title>
<path fill="none" stroke="midnightblue" d="M1062.5,-280.08C1062.5,-273.01 1062.5,-262.86 1062.5,-253.99"/>
<polygon fill="midnightblue" stroke="midnightblue" points="1066,-253.75 1062.5,-243.75 1059,-253.75 1066,-253.75"/>
</g>
<!-- Node138&#45;&gt;Node10 -->
<g id="edge54" class="edge">
<title>Node138&#45;&gt;Node10</title>
<path fill="none" stroke="midnightblue" d="M1096.04,-283.22C1195.95,-265.26 1488.07,-207.06 1542.5,-132 1547.72,-124.8 1548.29,-118.75 1542.5,-112 1511.77,-76.19 1374.73,-68.59 1299.44,-67.16"/>
<polygon fill="midnightblue" stroke="midnightblue" points="1299.3,-63.66 1289.25,-67 1299.19,-70.66 1299.3,-63.66"/>
</g>
<!-- Node138&#45;&gt;Node9 -->
<g id="edge50" class="edge">
<title>Node138&#45;&gt;Node9</title>
<path fill="none" stroke="midnightblue" d="M1096.32,-286.15C1219.58,-275.31 1637.5,-234.46 1637.5,-179 1637.5,-179 1637.5,-179 1637.5,-121 1637.5,-40.34 1364.97,-18.66 1240.82,-12.97"/>
<polygon fill="midnightblue" stroke="midnightblue" points="1240.86,-9.46 1230.71,-12.52 1240.55,-16.46 1240.86,-9.46"/>
</g>
<!-- Node138&#45;&gt;Node12 -->
<g id="edge53" class="edge">
<title>Node138&#45;&gt;Node12</title>
<path fill="none" stroke="midnightblue" d="M1037.87,-280.5C983.14,-260.77 849.05,-207.72 757.5,-132 740.85,-118.23 725.91,-98.38 716.37,-84.24"/>
<polygon fill="midnightblue" stroke="midnightblue" points="719.06,-81.97 710.66,-75.51 713.2,-85.8 719.06,-81.97"/>
</g>
<!-- Node138&#45;&gt;Node137 -->
<g id="edge51" class="edge">
<title>Node138&#45;&gt;Node137</title>
<path fill="none" stroke="midnightblue" d="M1078.52,-280.46C1091.55,-272.68 1109.37,-259.97 1119.5,-244 1139.82,-211.94 1145.44,-166.76 1146.96,-141.66"/>
<polygon fill="midnightblue" stroke="midnightblue" points="1150.46,-141.81 1147.41,-131.66 1143.46,-141.49 1150.46,-141.81"/>
</g>
<!-- Node139&#45;&gt;Node2 -->
<g id="edge57" class="edge">
<title>Node139&#45;&gt;Node2</title>
<path fill="none" stroke="midnightblue" d="M875.79,-112.08C879.35,-104.69 884.52,-93.95 888.92,-84.81"/>
<polygon fill="midnightblue" stroke="midnightblue" points="892.1,-86.28 893.29,-75.75 885.79,-83.24 892.1,-86.28"/>
</g>
<!-- Node139&#45;&gt;Node10 -->
<g id="edge56" class="edge">
<title>Node139&#45;&gt;Node10</title>
<path fill="none" stroke="midnightblue" d="M895.72,-117.54C956.74,-108.82 1117.76,-85.82 1199.85,-74.09"/>
<polygon fill="midnightblue" stroke="midnightblue" points="1200.53,-77.53 1209.94,-72.65 1199.54,-70.6 1200.53,-77.53"/>
</g>
<!-- Node139&#45;&gt;Node12 -->
<g id="edge58" class="edge">
<title>Node139&#45;&gt;Node12</title>
<path fill="none" stroke="midnightblue" d="M847.36,-113.15C819.61,-104.12 773.78,-89.21 741.74,-78.79"/>
<polygon fill="midnightblue" stroke="midnightblue" points="742.45,-75.34 731.86,-75.58 740.29,-82 742.45,-75.34"/>
</g>
</g>
</svg>
        <g id="navigator" transform="translate(0 0)" fill="#404254">
                <rect fill="#f2f5e9" fill-opacity="0.5" stroke="#606060" stroke-width=".5" x="0" y="0" width="60" height="60"/>
                <use id="zoomplus" xlink:href="#zoomPlus" x="17" y="9" onmousedown="handleZoom(evt,'in')"/>
                <use id="zoomminus" xlink:href="#zoomMin" x="42" y="9" onmousedown="handleZoom(evt,'out')"/>
                <use id="reset" xlink:href="#resetDef" x="30" y="36" onmousedown="handleReset()"/>
                <g id="arrowUp" xlink:href="#dirArrow" transform="translate(30 24)" onmousedown="handlePan(0,-1)">
                  <use xlink:href="#rim" fill="#404040">
                        <set attributeName="fill" to="#808080" begin="arrowUp.mouseover" end="arrowUp.mouseout"/>
                  </use>
                  <path fill="none" stroke="white" stroke-width="1.5" d="M0,-3.0v7 M-2.5,-0.5L0,-3.0L2.5,-0.5"/>
                </g>
                <g id="arrowRight" xlink:href="#dirArrow" transform="rotate(90) translate(36 -43)" onmousedown="handlePan(1,0)">
                  <use xlink:href="#rim" fill="#404040">
                        <set attributeName="fill" to="#808080" begin="arrowRight.mouseover" end="arrowRight.mouseout"/>
                  </use>
                  <path fill="none" stroke="white" stroke-width="1.5" d="M0,-3.0v7 M-2.5,-0.5L0,-3.0L2.5,-0.5"/>
                </g>
                <g id="arrowDown" xlink:href="#dirArrow" transform="rotate(180) translate(-30 -48)" onmousedown="handlePan(0,1)">
                  <use xlink:href="#rim" fill="#404040">
                        <set attributeName="fill" to="#808080" begin="arrowDown.mouseover" end="arrowDown.mouseout"/>
                  </use>
                  <path fill="none" stroke="white" stroke-width="1.5" d="M0,-3.0v7 M-2.5,-0.5L0,-3.0L2.5,-0.5"/>
                </g>
                <g id="arrowLeft" xlink:href="#dirArrow" transform="rotate(270) translate(-36 17)" onmousedown="handlePan(-1,0)">
                  <use xlink:href="#rim" fill="#404040">
                        <set attributeName="fill" to="#808080" begin="arrowLeft.mouseover" end="arrowLeft.mouseout"/>
                  </use>
                  <path fill="none" stroke="white" stroke-width="1.5" d="M0,-3.0v7 M-2.5,-0.5L0,-3.0L2.5,-0.5"/>
                </g>
        </g>
        <svg viewBox="0 0 15 15" width="100%" height="30px" preserveAspectRatio="xMaxYMin meet">
         <g id="arrow_out" transform="scale(0.3 0.3)">
          <a xlink:href="_mono_stereo_converter_8h__incl_org.svg" target="_base">
           <rect id="button" ry="5" rx="5" y="6" x="6" height="38" width="38"
                fill="#f2f5e9" fill-opacity="0.5" stroke="#606060" stroke-width="1.0"/>
           <path id="arrow"
             d="M 11.500037,31.436501 C 11.940474,20.09759 22.043105,11.32322 32.158766,21.979434 L 37.068811,17.246167 C 37.068811,17.246167 37.088388,32 37.088388,32 L 22.160133,31.978069 C 22.160133,31.978069 26.997745,27.140456 26.997745,27.140456 C 18.528582,18.264221 13.291696,25.230495 11.500037,31.436501 z"
             style="fill:#404040;"/>
          </a>
         </g>
        </svg>
</svg>
