<?xml version="1.0" encoding="UTF-8" standalone="no"?>
<!DOCTYPE svg PUBLIC "-//W3C//DTD SVG 1.1//EN"
 "http://www.w3.org/Graphics/SVG/1.1/DTD/svg11.dtd">
<!-- Generated by graphviz version 2.43.0 (0)
 -->
<!-- Title: year_impl.h Pages: 1 -->
<svg width="940pt" height="308pt"
 viewBox="0.00 0.00 940.25 308.00" xmlns="http://www.w3.org/2000/svg" xmlns:xlink="http://www.w3.org/1999/xlink">
<g id="graph0" class="graph" transform="scale(1 1) rotate(0) translate(4 304)">
<title>year_impl.h</title>
<!-- Node1 -->
<g id="node1" class="node">
<title>Node1</title>
<g id="a_node1"><a xlink:title=" ">
<polygon fill="#bfbfbf" stroke="black" points="319,-280.5 319,-299.5 393,-299.5 393,-280.5 319,-280.5"/>
<text text-anchor="middle" x="356" y="-287.5" font-family="Helvetica,sans-Serif" font-size="10.00">year_impl.h</text>
</a>
</g>
</g>
<!-- Node2 -->
<g id="node2" class="node">
<title>Node2</title>
<g id="a_node2"><a xlink:href="../../da/d0b/limes__namespace_8h.html" target="_top" xlink:title=" ">
<polygon fill="none" stroke="black" points="796,-56.5 796,-75.5 910,-75.5 910,-56.5 796,-56.5"/>
<text text-anchor="middle" x="853" y="-63.5" font-family="Helvetica,sans-Serif" font-size="10.00">limes_namespace.h</text>
</a>
</g>
</g>
<!-- Node1&#45;&gt;Node2 -->
<g id="edge1" class="edge">
<title>Node1&#45;&gt;Node2</title>
<path fill="none" stroke="midnightblue" d="M393.22,-285.85C476.29,-277.85 682.04,-252.6 841,-188 883.95,-170.55 906.69,-172.64 929,-132 941.52,-109.19 913.34,-90.81 887.82,-79.49"/>
<polygon fill="midnightblue" stroke="midnightblue" points="888.84,-76.13 878.26,-75.51 886.14,-82.59 888.84,-76.13"/>
</g>
<!-- Node3 -->
<g id="node3" class="node">
<title>Node3</title>
<g id="a_node3"><a xlink:href="../../dd/dfb/math_helpers_8h.html" target="_top" xlink:title=" ">
<polygon fill="none" stroke="black" points="288.5,-224.5 288.5,-243.5 423.5,-243.5 423.5,-224.5 288.5,-224.5"/>
<text text-anchor="middle" x="356" y="-231.5" font-family="Helvetica,sans-Serif" font-size="10.00">../../math/mathHelpers.h</text>
</a>
</g>
</g>
<!-- Node1&#45;&gt;Node3 -->
<g id="edge2" class="edge">
<title>Node1&#45;&gt;Node3</title>
<path fill="none" stroke="midnightblue" d="M356,-280.08C356,-273.01 356,-262.86 356,-253.99"/>
<polygon fill="midnightblue" stroke="midnightblue" points="359.5,-253.75 356,-243.75 352.5,-253.75 359.5,-253.75"/>
</g>
<!-- Node15 -->
<g id="node15" class="node">
<title>Node15</title>
<g id="a_node15"><a xlink:href="../../dc/db3/build__date_8h.html" target="_top" xlink:title=" ">
<polygon fill="none" stroke="black" points="196,-168.5 196,-187.5 282,-187.5 282,-168.5 196,-168.5"/>
<text text-anchor="middle" x="239" y="-175.5" font-family="Helvetica,sans-Serif" font-size="10.00">../build_date.h</text>
</a>
</g>
</g>
<!-- Node1&#45;&gt;Node15 -->
<g id="edge26" class="edge">
<title>Node1&#45;&gt;Node15</title>
<path fill="none" stroke="midnightblue" d="M335.54,-280.44C318.88,-272.72 295.5,-260.13 279,-244 265.12,-230.44 254.03,-211.12 247.08,-197.07"/>
<polygon fill="midnightblue" stroke="midnightblue" points="250.2,-195.48 242.77,-187.93 243.87,-198.47 250.2,-195.48"/>
</g>
<!-- Node3&#45;&gt;Node2 -->
<g id="edge3" class="edge">
<title>Node3&#45;&gt;Node2</title>
<path fill="none" stroke="midnightblue" d="M423.73,-231.29C558.49,-226.29 852.5,-206.86 913,-132 928.1,-113.31 902.34,-93.19 880.02,-80.37"/>
<polygon fill="midnightblue" stroke="midnightblue" points="881.56,-77.22 871.1,-75.5 878.2,-83.37 881.56,-77.22"/>
</g>
<!-- Node4 -->
<g id="node4" class="node">
<title>Node4</title>
<g id="a_node4"><a xlink:title=" ">
<polygon fill="none" stroke="#bfbfbf" points="300.5,-168.5 300.5,-187.5 347.5,-187.5 347.5,-168.5 300.5,-168.5"/>
<text text-anchor="middle" x="324" y="-175.5" font-family="Helvetica,sans-Serif" font-size="10.00">cmath</text>
</a>
</g>
</g>
<!-- Node3&#45;&gt;Node4 -->
<g id="edge4" class="edge">
<title>Node3&#45;&gt;Node4</title>
<path fill="none" stroke="midnightblue" d="M350.72,-224.08C346.29,-216.61 339.84,-205.72 334.38,-196.52"/>
<polygon fill="midnightblue" stroke="midnightblue" points="337.29,-194.57 329.19,-187.75 331.27,-198.14 337.29,-194.57"/>
</g>
<!-- Node5 -->
<g id="node5" class="node">
<title>Node5</title>
<g id="a_node5"><a xlink:title=" ">
<polygon fill="none" stroke="#bfbfbf" points="834.5,-112.5 834.5,-131.5 903.5,-131.5 903.5,-112.5 834.5,-112.5"/>
<text text-anchor="middle" x="869" y="-119.5" font-family="Helvetica,sans-Serif" font-size="10.00">type_traits</text>
</a>
</g>
</g>
<!-- Node3&#45;&gt;Node5 -->
<g id="edge5" class="edge">
<title>Node3&#45;&gt;Node5</title>
<path fill="none" stroke="midnightblue" d="M405.53,-224.5C454.35,-215.94 531.01,-202.04 597,-188 678.2,-170.73 772.27,-147.53 825.79,-134.03"/>
<polygon fill="midnightblue" stroke="midnightblue" points="826.79,-137.39 835.62,-131.55 825.07,-130.6 826.79,-137.39"/>
</g>
<!-- Node6 -->
<g id="node6" class="node">
<title>Node6</title>
<g id="a_node6"><a xlink:title=" ">
<polygon fill="none" stroke="#bfbfbf" points="419.5,-56.5 419.5,-75.5 508.5,-75.5 508.5,-56.5 419.5,-56.5"/>
<text text-anchor="middle" x="464" y="-63.5" font-family="Helvetica,sans-Serif" font-size="10.00">limes_export.h</text>
</a>
</g>
</g>
<!-- Node3&#45;&gt;Node6 -->
<g id="edge6" class="edge">
<title>Node3&#45;&gt;Node6</title>
<path fill="none" stroke="midnightblue" d="M356.51,-224.43C358.11,-199.91 363.76,-130.05 377,-112 388.18,-96.75 406.06,-86.26 422.71,-79.27"/>
<polygon fill="midnightblue" stroke="midnightblue" points="424.25,-82.43 432.31,-75.55 421.72,-75.9 424.25,-82.43"/>
</g>
<!-- Node7 -->
<g id="node7" class="node">
<title>Node7</title>
<g id="a_node7"><a xlink:title=" ">
<polygon fill="none" stroke="#bfbfbf" points="0,-168.5 0,-187.5 64,-187.5 64,-168.5 0,-168.5"/>
<text text-anchor="middle" x="32" y="-175.5" font-family="Helvetica,sans-Serif" font-size="10.00">algorithm</text>
</a>
</g>
</g>
<!-- Node3&#45;&gt;Node7 -->
<g id="edge7" class="edge">
<title>Node3&#45;&gt;Node7</title>
<path fill="none" stroke="midnightblue" d="M300,-224.49C243.79,-215.81 154.77,-201.72 78,-188 76.74,-187.77 75.46,-187.54 74.17,-187.31"/>
<polygon fill="midnightblue" stroke="midnightblue" points="74.62,-183.83 64.15,-185.43 73.33,-190.71 74.62,-183.83"/>
</g>
<!-- Node8 -->
<g id="node8" class="node">
<title>Node8</title>
<g id="a_node8"><a xlink:href="../../d5/dbb/limes__assert_8h.html" target="_top" xlink:title=" ">
<polygon fill="none" stroke="black" points="452,-168.5 452,-187.5 588,-187.5 588,-168.5 452,-168.5"/>
<text text-anchor="middle" x="520" y="-175.5" font-family="Helvetica,sans-Serif" font-size="10.00">../system/limes_assert.h</text>
</a>
</g>
</g>
<!-- Node3&#45;&gt;Node8 -->
<g id="edge8" class="edge">
<title>Node3&#45;&gt;Node8</title>
<path fill="none" stroke="midnightblue" d="M381.99,-224.44C409.7,-215.32 453.75,-200.81 484.62,-190.65"/>
<polygon fill="midnightblue" stroke="midnightblue" points="485.73,-193.97 494.14,-187.52 483.54,-187.32 485.73,-193.97"/>
</g>
<!-- Node9 -->
<g id="node9" class="node">
<title>Node9</title>
<g id="a_node9"><a xlink:href="../../d3/d53/preprocessor_8h.html" target="_top" xlink:title=" ">
<polygon fill="none" stroke="black" points="196.5,-56.5 196.5,-75.5 319.5,-75.5 319.5,-56.5 196.5,-56.5"/>
<text text-anchor="middle" x="258" y="-63.5" font-family="Helvetica,sans-Serif" font-size="10.00">../misc/preprocessor.h</text>
</a>
</g>
</g>
<!-- Node3&#45;&gt;Node9 -->
<g id="edge25" class="edge">
<title>Node3&#45;&gt;Node9</title>
<path fill="none" stroke="midnightblue" d="M288.22,-229.2C226.23,-221.44 139.93,-198.56 111,-132 95.34,-95.95 141.41,-79.9 186.02,-72.74"/>
<polygon fill="midnightblue" stroke="midnightblue" points="186.7,-76.18 196.09,-71.27 185.69,-69.25 186.7,-76.18"/>
</g>
<!-- Node14 -->
<g id="node14" class="node">
<title>Node14</title>
<g id="a_node14"><a xlink:href="../../d0/d00/compiler__defs_8h.html" target="_top" xlink:title=" ">
<polygon fill="none" stroke="black" points="120.5,-112.5 120.5,-131.5 215.5,-131.5 215.5,-112.5 120.5,-112.5"/>
<text text-anchor="middle" x="168" y="-119.5" font-family="Helvetica,sans-Serif" font-size="10.00">compiler_defs.h</text>
</a>
</g>
</g>
<!-- Node3&#45;&gt;Node14 -->
<g id="edge24" class="edge">
<title>Node3&#45;&gt;Node14</title>
<path fill="none" stroke="midnightblue" d="M288.19,-230.31C253.78,-225.49 213.72,-214.09 187,-188 174.79,-176.08 170.31,-156.77 168.73,-142.29"/>
<polygon fill="midnightblue" stroke="midnightblue" points="172.2,-141.67 167.99,-131.95 165.21,-142.17 172.2,-141.67"/>
</g>
<!-- Node8&#45;&gt;Node2 -->
<g id="edge10" class="edge">
<title>Node8&#45;&gt;Node2</title>
<path fill="none" stroke="midnightblue" d="M588.08,-175.76C642.94,-172.37 720.77,-162.01 782,-132 805.33,-120.56 826.51,-99.04 839.55,-83.9"/>
<polygon fill="midnightblue" stroke="midnightblue" points="842.54,-85.78 846.24,-75.85 837.16,-81.31 842.54,-85.78"/>
</g>
<!-- Node8&#45;&gt;Node5 -->
<g id="edge13" class="edge">
<title>Node8&#45;&gt;Node5</title>
<path fill="none" stroke="midnightblue" d="M580.71,-168.49C641.38,-159.84 737.27,-145.8 820,-132 821.47,-131.76 822.96,-131.5 824.46,-131.25"/>
<polygon fill="midnightblue" stroke="midnightblue" points="825.25,-134.66 834.49,-129.48 824.04,-127.77 825.25,-134.66"/>
</g>
<!-- Node8&#45;&gt;Node6 -->
<g id="edge9" class="edge">
<title>Node8&#45;&gt;Node6</title>
<path fill="none" stroke="midnightblue" d="M523.79,-168.45C528.93,-155.47 536.45,-130.37 527,-112 519.92,-98.25 506.48,-87.77 493.82,-80.39"/>
<polygon fill="midnightblue" stroke="midnightblue" points="495.31,-77.22 484.85,-75.57 492,-83.39 495.31,-77.22"/>
</g>
<!-- Node8&#45;&gt;Node9 -->
<g id="edge11" class="edge">
<title>Node8&#45;&gt;Node9</title>
<path fill="none" stroke="midnightblue" d="M486.4,-168.42C456.99,-160.45 413.4,-147.49 377,-132 341.97,-117.09 303.71,-95.08 280.28,-80.89"/>
<polygon fill="midnightblue" stroke="midnightblue" points="281.84,-77.74 271.49,-75.51 278.19,-83.71 281.84,-77.74"/>
</g>
<!-- Node10 -->
<g id="node10" class="node">
<title>Node10</title>
<g id="a_node10"><a xlink:title=" ">
<polygon fill="none" stroke="#bfbfbf" points="393,-0.5 393,-19.5 493,-19.5 493,-0.5 393,-0.5"/>
<text text-anchor="middle" x="443" y="-7.5" font-family="Helvetica,sans-Serif" font-size="10.00">limes_platform.h</text>
</a>
</g>
</g>
<!-- Node8&#45;&gt;Node10 -->
<g id="edge19" class="edge">
<title>Node8&#45;&gt;Node10</title>
<path fill="none" stroke="midnightblue" d="M570.48,-168.42C624.05,-158.81 702.2,-143.12 711,-132 716.52,-125.03 716.06,-119.31 711,-112 664.51,-44.8 567.25,-22.25 503.58,-14.73"/>
<polygon fill="midnightblue" stroke="midnightblue" points="503.59,-11.21 493.27,-13.6 502.83,-18.17 503.59,-11.21"/>
</g>
<!-- Node11 -->
<g id="node11" class="node">
<title>Node11</title>
<g id="a_node11"><a xlink:title=" ">
<polygon fill="none" stroke="#bfbfbf" points="472.5,-112.5 472.5,-131.5 517.5,-131.5 517.5,-112.5 472.5,-112.5"/>
<text text-anchor="middle" x="495" y="-119.5" font-family="Helvetica,sans-Serif" font-size="10.00">utility</text>
</a>
</g>
</g>
<!-- Node8&#45;&gt;Node11 -->
<g id="edge14" class="edge">
<title>Node8&#45;&gt;Node11</title>
<path fill="none" stroke="midnightblue" d="M515.87,-168.08C512.49,-160.77 507.58,-150.18 503.38,-141.1"/>
<polygon fill="midnightblue" stroke="midnightblue" points="506.43,-139.36 499.05,-131.75 500.08,-142.3 506.43,-139.36"/>
</g>
<!-- Node12 -->
<g id="node12" class="node">
<title>Node12</title>
<g id="a_node12"><a xlink:href="../../d1/d57/_ignore_unused_8h.html" target="_top" xlink:title=" ">
<polygon fill="none" stroke="black" points="574,-112.5 574,-131.5 702,-131.5 702,-112.5 574,-112.5"/>
<text text-anchor="middle" x="638" y="-119.5" font-family="Helvetica,sans-Serif" font-size="10.00">../misc/IgnoreUnused.h</text>
</a>
</g>
</g>
<!-- Node8&#45;&gt;Node12 -->
<g id="edge15" class="edge">
<title>Node8&#45;&gt;Node12</title>
<path fill="none" stroke="midnightblue" d="M538.7,-168.44C557.94,-159.64 588.15,-145.81 610.2,-135.72"/>
<polygon fill="midnightblue" stroke="midnightblue" points="611.75,-138.86 619.39,-131.52 608.84,-132.5 611.75,-138.86"/>
</g>
<!-- Node13 -->
<g id="node13" class="node">
<title>Node13</title>
<g id="a_node13"><a xlink:title=" ">
<polygon fill="none" stroke="#bfbfbf" points="386,-112.5 386,-131.5 454,-131.5 454,-112.5 386,-112.5"/>
<text text-anchor="middle" x="420" y="-119.5" font-family="Helvetica,sans-Serif" font-size="10.00">filesystem</text>
</a>
</g>
</g>
<!-- Node8&#45;&gt;Node13 -->
<g id="edge20" class="edge">
<title>Node8&#45;&gt;Node13</title>
<path fill="none" stroke="midnightblue" d="M503.93,-168.32C488.04,-159.74 463.49,-146.49 445.04,-136.52"/>
<polygon fill="midnightblue" stroke="midnightblue" points="446.49,-133.33 436.03,-131.65 443.16,-139.49 446.49,-133.33"/>
</g>
<!-- Node8&#45;&gt;Node14 -->
<g id="edge21" class="edge">
<title>Node8&#45;&gt;Node14</title>
<path fill="none" stroke="midnightblue" d="M464.22,-168.44C399.08,-158.45 291.86,-142 225.84,-131.87"/>
<polygon fill="midnightblue" stroke="midnightblue" points="226.03,-128.36 215.61,-130.3 224.97,-135.28 226.03,-128.36"/>
</g>
<!-- Node9&#45;&gt;Node10 -->
<g id="edge12" class="edge">
<title>Node9&#45;&gt;Node10</title>
<path fill="none" stroke="midnightblue" d="M287.31,-56.44C318.84,-47.24 369.13,-32.56 403.99,-22.39"/>
<polygon fill="midnightblue" stroke="midnightblue" points="405.2,-25.68 413.82,-19.52 403.24,-18.96 405.2,-25.68"/>
</g>
<!-- Node12&#45;&gt;Node2 -->
<g id="edge17" class="edge">
<title>Node12&#45;&gt;Node2</title>
<path fill="none" stroke="midnightblue" d="M672.07,-112.44C709.18,-103.12 768.66,-88.18 809.21,-78"/>
<polygon fill="midnightblue" stroke="midnightblue" points="810.25,-81.35 819.09,-75.52 808.54,-74.56 810.25,-81.35"/>
</g>
<!-- Node12&#45;&gt;Node6 -->
<g id="edge16" class="edge">
<title>Node12&#45;&gt;Node6</title>
<path fill="none" stroke="midnightblue" d="M610.43,-112.44C580.9,-103.28 533.88,-88.69 501.12,-78.52"/>
<polygon fill="midnightblue" stroke="midnightblue" points="502.03,-75.14 491.44,-75.52 499.96,-81.82 502.03,-75.14"/>
</g>
<!-- Node12&#45;&gt;Node10 -->
<g id="edge18" class="edge">
<title>Node12&#45;&gt;Node10</title>
<path fill="none" stroke="midnightblue" d="M622.7,-112.37C588.88,-93.29 507.57,-47.42 466.94,-24.51"/>
<polygon fill="midnightblue" stroke="midnightblue" points="468.66,-21.46 458.23,-19.59 465.22,-27.55 468.66,-21.46"/>
</g>
<!-- Node14&#45;&gt;Node9 -->
<g id="edge23" class="edge">
<title>Node14&#45;&gt;Node9</title>
<path fill="none" stroke="midnightblue" d="M182.46,-112.32C196.5,-103.9 218.05,-90.97 234.54,-81.07"/>
<polygon fill="midnightblue" stroke="midnightblue" points="236.8,-83.8 243.58,-75.65 233.2,-77.8 236.8,-83.8"/>
</g>
<!-- Node14&#45;&gt;Node10 -->
<g id="edge22" class="edge">
<title>Node14&#45;&gt;Node10</title>
<path fill="none" stroke="midnightblue" d="M167.83,-112.35C168.06,-98.29 170.71,-70.59 187,-56 215.16,-30.79 316.11,-19.3 382.51,-14.37"/>
<polygon fill="midnightblue" stroke="midnightblue" points="383.13,-17.84 392.85,-13.64 382.63,-10.86 383.13,-17.84"/>
</g>
<!-- Node15&#45;&gt;Node2 -->
<g id="edge28" class="edge">
<title>Node15&#45;&gt;Node2</title>
<path fill="none" stroke="midnightblue" d="M282.09,-169.25C285.1,-168.8 288.09,-168.38 291,-168 476.81,-144 529.82,-179.69 711,-132 755.09,-120.39 802.53,-95.99 829.9,-80.6"/>
<polygon fill="midnightblue" stroke="midnightblue" points="831.75,-83.57 838.7,-75.58 828.28,-77.5 831.75,-83.57"/>
</g>
<!-- Node15&#45;&gt;Node6 -->
<g id="edge27" class="edge">
<title>Node15&#45;&gt;Node6</title>
<path fill="none" stroke="midnightblue" d="M245.43,-168.46C256.36,-154.56 279.9,-127.08 306,-112 337.87,-93.59 377.75,-82.31 409.47,-75.64"/>
<polygon fill="midnightblue" stroke="midnightblue" points="410.35,-79.04 419.47,-73.64 408.97,-72.17 410.35,-79.04"/>
</g>
<!-- Node15&#45;&gt;Node9 -->
<g id="edge29" class="edge">
<title>Node15&#45;&gt;Node9</title>
<path fill="none" stroke="midnightblue" d="M240.49,-168.37C243.56,-150.62 250.63,-109.67 254.79,-85.6"/>
<polygon fill="midnightblue" stroke="midnightblue" points="258.26,-86.04 256.52,-75.59 251.36,-84.85 258.26,-86.04"/>
</g>
<!-- Node15&#45;&gt;Node14 -->
<g id="edge30" class="edge">
<title>Node15&#45;&gt;Node14</title>
<path fill="none" stroke="midnightblue" d="M227.59,-168.32C216.89,-160.18 200.66,-147.84 187.84,-138.09"/>
<polygon fill="midnightblue" stroke="midnightblue" points="189.69,-135.1 179.61,-131.83 185.46,-140.67 189.69,-135.1"/>
</g>
</g>
</svg>
