<?xml version="1.0" encoding="UTF-8" standalone="no"?>
<!DOCTYPE svg PUBLIC "-//W3C//DTD SVG 1.1//EN"
 "http://www.w3.org/Graphics/SVG/1.1/DTD/svg11.dtd">
<!-- Generated by graphviz version 2.43.0 (0)
 -->
<!-- Title: year_impl.h Pages: 1 -->
<!--zoomable 375 -->
<svg id="main" version="1.1" xmlns="http://www.w3.org/2000/svg" xmlns:xlink="http://www.w3.org/1999/xlink" xml:space="preserve" onload="init(evt)">
<style type="text/css"><![CDATA[
.edge:hover path { stroke: red; }
.edge:hover polygon { stroke: red; fill: red; }
]]></style>
<script type="text/javascript"><![CDATA[
var edges = document.getElementsByTagName('g');
if (edges && edges.length) {
  for (var i=0;i<edges.length;i++) {
    if (edges[i].id.substr(0,4)=='edge') {
      edges[i].setAttribute('class','edge');
    }
  }
}
]]></script>
        <defs>
                <circle id="rim" cx="0" cy="0" r="7"/>
                <circle id="rim2" cx="0" cy="0" r="3.5"/>
                <g id="zoomPlus">
                        <use xlink:href="#rim" fill="#404040">
                                <set attributeName="fill" to="#808080" begin="zoomplus.mouseover" end="zoomplus.mouseout"/>
                        </use>
                        <path d="M-4,0h8M0,-4v8" fill="none" stroke="white" stroke-width="1.5" pointer-events="none"/>
                </g>
                <g id="zoomMin">
                        <use xlink:href="#rim" fill="#404040">
                                <set attributeName="fill" to="#808080" begin="zoomminus.mouseover" end="zoomminus.mouseout"/>
                        </use>
                        <path d="M-4,0h8" fill="none" stroke="white" stroke-width="1.5" pointer-events="none"/>
                </g>
                <g id="dirArrow">
                        <path fill="none" stroke="white" stroke-width="1.5" d="M0,-3.0v7 M-2.5,-0.5L0,-3.0L2.5,-0.5"/>
                </g>
               <g id="resetDef">
                       <use xlink:href="#rim2" fill="#404040">
                               <set attributeName="fill" to="#808080" begin="reset.mouseover" end="reset.mouseout"/>
                       </use>
               </g>
        </defs>

<script type="text/javascript">
var viewWidth = 897;
var viewHeight = 375;
var sectionId = 'dynsection-0';
</script>
<script xlink:href="../../svgpan.js"/>
<svg id="graph" class="graph">
<g id="viewport">
<title>year_impl.h</title>
<!-- Node1 -->
<g id="node1" class="node">
<title>Node1</title>
<g id="a_node1"><a xlink:title=" ">
<polygon fill="#bfbfbf" stroke="black" points="265.23,-347.5 265.23,-366.5 339.23,-366.5 339.23,-347.5 265.23,-347.5"/>
<text text-anchor="middle" x="302.23" y="-354.5" font-family="Helvetica,sans-Serif" font-size="10.00">year_impl.h</text>
</a>
</g>
</g>
<!-- Node2 -->
<g id="node2" class="node">
<title>Node2</title>
<g id="a_node2"><a xlink:href="../../da/d0b/limes__namespace_8h.html" target="_top" xlink:title=" ">
<polygon fill="none" stroke="black" points="693.23,-56.5 693.23,-75.5 807.23,-75.5 807.23,-56.5 693.23,-56.5"/>
<text text-anchor="middle" x="750.23" y="-63.5" font-family="Helvetica,sans-Serif" font-size="10.00">limes_namespace.h</text>
</a>
</g>
</g>
<!-- Node1&#45;&gt;Node2 -->
<g id="edge1" class="edge">
<title>Node1&#45;&gt;Node2</title>
<path fill="none" stroke="midnightblue" d="M339.4,-353C468.43,-342.08 889.23,-302.18 889.23,-246 889.23,-246 889.23,-246 889.23,-188 889.23,-132.61 825.66,-96.8 784.5,-79.42"/>
<polygon fill="midnightblue" stroke="midnightblue" points="785.66,-76.11 775.08,-75.59 783.03,-82.6 785.66,-76.11"/>
</g>
<!-- Node3 -->
<g id="node3" class="node">
<title>Node3</title>
<g id="a_node3"><a xlink:href="../../dc/d5c/math_functions_8h.html" target="_top" xlink:title=" ">
<polygon fill="none" stroke="black" points="230.23,-291.5 230.23,-310.5 374.23,-310.5 374.23,-291.5 230.23,-291.5"/>
<text text-anchor="middle" x="302.23" y="-298.5" font-family="Helvetica,sans-Serif" font-size="10.00">../../math/mathFunctions.h</text>
</a>
</g>
</g>
<!-- Node1&#45;&gt;Node3 -->
<g id="edge2" class="edge">
<title>Node1&#45;&gt;Node3</title>
<path fill="none" stroke="midnightblue" d="M302.23,-347.08C302.23,-340.01 302.23,-329.86 302.23,-320.99"/>
<polygon fill="midnightblue" stroke="midnightblue" points="305.73,-320.75 302.23,-310.75 298.73,-320.75 305.73,-320.75"/>
</g>
<!-- Node16 -->
<g id="node16" class="node">
<title>Node16</title>
<g id="a_node16"><a xlink:href="../../dc/db3/build__date_8h.html" target="_top" xlink:title=" ">
<polygon fill="none" stroke="black" points="38.23,-179.5 38.23,-198.5 124.23,-198.5 124.23,-179.5 38.23,-179.5"/>
<text text-anchor="middle" x="81.23" y="-186.5" font-family="Helvetica,sans-Serif" font-size="10.00">../build_date.h</text>
</a>
</g>
</g>
<!-- Node1&#45;&gt;Node16 -->
<g id="edge28" class="edge">
<title>Node1&#45;&gt;Node16</title>
<path fill="none" stroke="midnightblue" d="M284.22,-347.35C267.38,-338.94 241.8,-325.37 221.23,-311 172.99,-277.29 122.11,-229.87 97.06,-205.62"/>
<polygon fill="midnightblue" stroke="midnightblue" points="99.48,-203.09 89.87,-198.61 94.59,-208.1 99.48,-203.09"/>
</g>
<!-- Node3&#45;&gt;Node2 -->
<g id="edge3" class="edge">
<title>Node3&#45;&gt;Node2</title>
<path fill="none" stroke="midnightblue" d="M361.03,-291.46C443.07,-278.27 595.51,-249.08 717.23,-199 761.85,-180.64 786.49,-185 810.23,-143 817.01,-131.01 816.39,-124.32 810.23,-112 803.5,-98.54 790.62,-88.07 778.52,-80.62"/>
<polygon fill="midnightblue" stroke="midnightblue" points="779.95,-77.41 769.53,-75.52 776.5,-83.5 779.95,-77.41"/>
</g>
<!-- Node4 -->
<g id="node4" class="node">
<title>Node4</title>
<g id="a_node4"><a xlink:title=" ">
<polygon fill="none" stroke="#bfbfbf" points="715.73,-118 715.73,-137 784.73,-137 784.73,-118 715.73,-118"/>
<text text-anchor="middle" x="750.23" y="-125" font-family="Helvetica,sans-Serif" font-size="10.00">type_traits</text>
</a>
</g>
</g>
<!-- Node3&#45;&gt;Node4 -->
<g id="edge4" class="edge">
<title>Node3&#45;&gt;Node4</title>
<path fill="none" stroke="midnightblue" d="M329.09,-291.5C356.26,-282.77 399.39,-268.59 436.23,-255 541.86,-216.02 665.24,-164.54 720.65,-141.1"/>
<polygon fill="midnightblue" stroke="midnightblue" points="722.35,-144.18 730.19,-137.05 719.61,-137.74 722.35,-144.18"/>
</g>
<!-- Node5 -->
<g id="node5" class="node">
<title>Node5</title>
<g id="a_node5"><a xlink:title=" ">
<polygon fill="none" stroke="#bfbfbf" points="224.73,-56.5 224.73,-75.5 313.73,-75.5 313.73,-56.5 224.73,-56.5"/>
<text text-anchor="middle" x="269.23" y="-63.5" font-family="Helvetica,sans-Serif" font-size="10.00">limes_export.h</text>
</a>
</g>
</g>
<!-- Node3&#45;&gt;Node5 -->
<g id="edge5" class="edge">
<title>Node3&#45;&gt;Node5</title>
<path fill="none" stroke="midnightblue" d="M297.07,-291.49C287.16,-274.6 265.8,-235.33 258.23,-199 249.94,-159.19 258.35,-111.4 264.35,-85.64"/>
<polygon fill="midnightblue" stroke="midnightblue" points="267.79,-86.3 266.79,-75.75 260.99,-84.62 267.79,-86.3"/>
</g>
<!-- Node6 -->
<g id="node6" class="node">
<title>Node6</title>
<g id="a_node6"><a xlink:href="../../d0/d00/compiler__defs_8h.html" target="_top" xlink:title=" ">
<polygon fill="none" stroke="black" points="27.73,-112.5 27.73,-142.5 134.73,-142.5 134.73,-112.5 27.73,-112.5"/>
<text text-anchor="start" x="35.73" y="-130.5" font-family="Helvetica,sans-Serif" font-size="10.00">../system/compiler</text>
<text text-anchor="middle" x="81.23" y="-119.5" font-family="Helvetica,sans-Serif" font-size="10.00">_defs.h</text>
</a>
</g>
</g>
<!-- Node3&#45;&gt;Node6 -->
<g id="edge6" class="edge">
<title>Node3&#45;&gt;Node6</title>
<path fill="none" stroke="midnightblue" d="M285.44,-291.4C269.44,-282.92 244.95,-269.22 225.23,-255 179.05,-221.69 130.27,-176.4 103,-150.02"/>
<polygon fill="midnightblue" stroke="midnightblue" points="105.18,-147.26 95.57,-142.79 100.3,-152.27 105.18,-147.26"/>
</g>
<!-- Node8 -->
<g id="node8" class="node">
<title>Node8</title>
<g id="a_node8"><a xlink:href="../../d3/d53/preprocessor_8h.html" target="_top" xlink:title=" ">
<polygon fill="none" stroke="black" points="19.73,-56.5 19.73,-75.5 142.73,-75.5 142.73,-56.5 19.73,-56.5"/>
<text text-anchor="middle" x="81.23" y="-63.5" font-family="Helvetica,sans-Serif" font-size="10.00">../misc/preprocessor.h</text>
</a>
</g>
</g>
<!-- Node3&#45;&gt;Node8 -->
<g id="edge10" class="edge">
<title>Node3&#45;&gt;Node8</title>
<path fill="none" stroke="midnightblue" d="M233.79,-291.46C172.41,-280.32 83.86,-255.14 29.23,-199 1.63,-170.64 -8.85,-146.68 10.23,-112 18.12,-97.66 32.72,-87.25 46.63,-80.08"/>
<polygon fill="midnightblue" stroke="midnightblue" points="48.52,-83.06 56.07,-75.62 45.53,-76.73 48.52,-83.06"/>
</g>
<!-- Node9 -->
<g id="node9" class="node">
<title>Node9</title>
<g id="a_node9"><a xlink:href="../../dc/d9b/math_functions__impl_8h.html" target="_top" xlink:title=" ">
<polygon fill="none" stroke="black" points="302.73,-235.5 302.73,-254.5 427.73,-254.5 427.73,-235.5 302.73,-235.5"/>
<text text-anchor="middle" x="365.23" y="-242.5" font-family="Helvetica,sans-Serif" font-size="10.00">mathFunctions_impl.h</text>
</a>
</g>
</g>
<!-- Node3&#45;&gt;Node9 -->
<g id="edge11" class="edge">
<title>Node3&#45;&gt;Node9</title>
<path fill="none" stroke="midnightblue" d="M312.35,-291.32C321.76,-283.26 335.97,-271.08 347.3,-261.37"/>
<polygon fill="midnightblue" stroke="midnightblue" points="349.61,-264 354.92,-254.83 345.05,-258.68 349.61,-264"/>
</g>
<!-- Node7 -->
<g id="node7" class="node">
<title>Node7</title>
<g id="a_node7"><a xlink:title=" ">
<polygon fill="none" stroke="#bfbfbf" points="252.23,-0.5 252.23,-19.5 352.23,-19.5 352.23,-0.5 252.23,-0.5"/>
<text text-anchor="middle" x="302.23" y="-7.5" font-family="Helvetica,sans-Serif" font-size="10.00">limes_platform.h</text>
</a>
</g>
</g>
<!-- Node6&#45;&gt;Node7 -->
<g id="edge7" class="edge">
<title>Node6&#45;&gt;Node7</title>
<path fill="none" stroke="midnightblue" d="M107.9,-112.4C134.92,-98.13 177.94,-75.45 215.23,-56 235.84,-45.25 259.24,-33.15 276.58,-24.21"/>
<polygon fill="midnightblue" stroke="midnightblue" points="278.25,-27.29 285.53,-19.59 275.04,-21.06 278.25,-27.29"/>
</g>
<!-- Node6&#45;&gt;Node8 -->
<g id="edge8" class="edge">
<title>Node6&#45;&gt;Node8</title>
<path fill="none" stroke="midnightblue" d="M81.23,-112.4C81.23,-104.47 81.23,-94.46 81.23,-85.86"/>
<polygon fill="midnightblue" stroke="midnightblue" points="84.73,-85.66 81.23,-75.66 77.73,-85.66 84.73,-85.66"/>
</g>
<!-- Node8&#45;&gt;Node7 -->
<g id="edge9" class="edge">
<title>Node8&#45;&gt;Node7</title>
<path fill="none" stroke="midnightblue" d="M116.25,-56.44C154.48,-47.1 215.8,-32.12 257.49,-21.93"/>
<polygon fill="midnightblue" stroke="midnightblue" points="258.49,-25.29 267.38,-19.52 256.83,-18.49 258.49,-25.29"/>
</g>
<!-- Node9&#45;&gt;Node2 -->
<g id="edge12" class="edge">
<title>Node9&#45;&gt;Node2</title>
<path fill="none" stroke="midnightblue" d="M427.8,-238.6C535.45,-227.86 748.45,-199.81 793.23,-143 808.53,-123.59 786.9,-98.08 769.18,-82.11"/>
<polygon fill="midnightblue" stroke="midnightblue" points="771.33,-79.34 761.45,-75.5 766.78,-84.66 771.33,-79.34"/>
</g>
<!-- Node10 -->
<g id="node10" class="node">
<title>Node10</title>
<g id="a_node10"><a xlink:title=" ">
<polygon fill="none" stroke="#bfbfbf" points="267.73,-179.5 267.73,-198.5 314.73,-198.5 314.73,-179.5 267.73,-179.5"/>
<text text-anchor="middle" x="291.23" y="-186.5" font-family="Helvetica,sans-Serif" font-size="10.00">cmath</text>
</a>
</g>
</g>
<!-- Node9&#45;&gt;Node10 -->
<g id="edge13" class="edge">
<title>Node9&#45;&gt;Node10</title>
<path fill="none" stroke="midnightblue" d="M353.34,-235.32C342.08,-227.11 324.94,-214.6 311.52,-204.81"/>
<polygon fill="midnightblue" stroke="midnightblue" points="313.48,-201.9 303.34,-198.83 309.35,-207.56 313.48,-201.9"/>
</g>
<!-- Node11 -->
<g id="node11" class="node">
<title>Node11</title>
<g id="a_node11"><a xlink:title=" ">
<polygon fill="none" stroke="#bfbfbf" points="333.23,-179.5 333.23,-198.5 397.23,-198.5 397.23,-179.5 333.23,-179.5"/>
<text text-anchor="middle" x="365.23" y="-186.5" font-family="Helvetica,sans-Serif" font-size="10.00">algorithm</text>
</a>
</g>
</g>
<!-- Node9&#45;&gt;Node11 -->
<g id="edge14" class="edge">
<title>Node9&#45;&gt;Node11</title>
<path fill="none" stroke="midnightblue" d="M365.23,-235.08C365.23,-228.01 365.23,-217.86 365.23,-208.99"/>
<polygon fill="midnightblue" stroke="midnightblue" points="368.73,-208.75 365.23,-198.75 361.73,-208.75 368.73,-208.75"/>
</g>
<!-- Node12 -->
<g id="node12" class="node">
<title>Node12</title>
<g id="a_node12"><a xlink:href="../../d5/dbb/limes__assert_8h.html" target="_top" xlink:title=" ">
<polygon fill="none" stroke="black" points="415.23,-179.5 415.23,-198.5 551.23,-198.5 551.23,-179.5 415.23,-179.5"/>
<text text-anchor="middle" x="483.23" y="-186.5" font-family="Helvetica,sans-Serif" font-size="10.00">../system/limes_assert.h</text>
</a>
</g>
</g>
<!-- Node9&#45;&gt;Node12 -->
<g id="edge15" class="edge">
<title>Node9&#45;&gt;Node12</title>
<path fill="none" stroke="midnightblue" d="M383.93,-235.44C403.17,-226.64 433.38,-212.81 455.43,-202.72"/>
<polygon fill="midnightblue" stroke="midnightblue" points="456.98,-205.86 464.62,-198.52 454.07,-199.5 456.98,-205.86"/>
</g>
<!-- Node12&#45;&gt;Node2 -->
<g id="edge17" class="edge">
<title>Node12&#45;&gt;Node2</title>
<path fill="none" stroke="midnightblue" d="M551.29,-179.69C587.33,-173.28 631.41,-162.14 667.23,-143 682.23,-134.99 715.19,-102.75 734.76,-82.92"/>
<polygon fill="midnightblue" stroke="midnightblue" points="737.51,-85.12 742.01,-75.53 732.51,-80.22 737.51,-85.12"/>
</g>
<!-- Node12&#45;&gt;Node4 -->
<g id="edge19" class="edge">
<title>Node12&#45;&gt;Node4</title>
<path fill="none" stroke="midnightblue" d="M530.27,-179.48C574.59,-171.16 642.75,-157.66 701.23,-143 705.09,-142.03 709.1,-140.96 713.09,-139.85"/>
<polygon fill="midnightblue" stroke="midnightblue" points="714.23,-143.16 722.87,-137.04 712.29,-136.43 714.23,-143.16"/>
</g>
<!-- Node12&#45;&gt;Node5 -->
<g id="edge16" class="edge">
<title>Node12&#45;&gt;Node5</title>
<path fill="none" stroke="midnightblue" d="M420.8,-179.48C373.83,-171.9 314.54,-159.47 296.23,-143 279.84,-128.25 273.4,-102.88 270.87,-85.54"/>
<polygon fill="midnightblue" stroke="midnightblue" points="274.33,-85.03 269.7,-75.5 267.38,-85.84 274.33,-85.03"/>
</g>
<!-- Node12&#45;&gt;Node6 -->
<g id="edge27" class="edge">
<title>Node12&#45;&gt;Node6</title>
<path fill="none" stroke="midnightblue" d="M415.32,-179.47C332.93,-169.02 198.88,-151.63 149.23,-143 147.78,-142.75 146.32,-142.49 144.84,-142.22"/>
<polygon fill="midnightblue" stroke="midnightblue" points="145.45,-138.77 134.98,-140.36 144.15,-145.65 145.45,-138.77"/>
</g>
<!-- Node12&#45;&gt;Node7 -->
<g id="edge25" class="edge">
<title>Node12&#45;&gt;Node7</title>
<path fill="none" stroke="midnightblue" d="M469.55,-179.5C456.34,-170.99 436.04,-157.17 420.23,-143 378.26,-105.38 335.87,-53.92 315.2,-27.76"/>
<polygon fill="midnightblue" stroke="midnightblue" points="317.75,-25.34 308.83,-19.62 312.24,-29.65 317.75,-25.34"/>
</g>
<!-- Node12&#45;&gt;Node8 -->
<g id="edge18" class="edge">
<title>Node12&#45;&gt;Node8</title>
<path fill="none" stroke="midnightblue" d="M432.39,-179.45C389.7,-171.71 327.34,-159.06 274.23,-143 214.11,-124.82 146.32,-96.14 109.22,-79.7"/>
<polygon fill="midnightblue" stroke="midnightblue" points="110.6,-76.48 100.04,-75.6 107.75,-82.87 110.6,-76.48"/>
</g>
<!-- Node13 -->
<g id="node13" class="node">
<title>Node13</title>
<g id="a_node13"><a xlink:title=" ">
<polygon fill="none" stroke="#bfbfbf" points="613.73,-118 613.73,-137 658.73,-137 658.73,-118 613.73,-118"/>
<text text-anchor="middle" x="636.23" y="-125" font-family="Helvetica,sans-Serif" font-size="10.00">utility</text>
</a>
</g>
</g>
<!-- Node12&#45;&gt;Node13 -->
<g id="edge20" class="edge">
<title>Node12&#45;&gt;Node13</title>
<path fill="none" stroke="midnightblue" d="M505.48,-179.4C528.83,-170.36 566.63,-155.71 599.23,-143 601.06,-142.29 602.94,-141.55 604.84,-140.81"/>
<polygon fill="midnightblue" stroke="midnightblue" points="606.29,-144 614.32,-137.1 603.73,-137.48 606.29,-144"/>
</g>
<!-- Node14 -->
<g id="node14" class="node">
<title>Node14</title>
<g id="a_node14"><a xlink:href="../../d1/d57/_ignore_unused_8h.html" target="_top" xlink:title=" ">
<polygon fill="none" stroke="black" points="429.23,-118 429.23,-137 557.23,-137 557.23,-118 429.23,-118"/>
<text text-anchor="middle" x="493.23" y="-125" font-family="Helvetica,sans-Serif" font-size="10.00">../misc/IgnoreUnused.h</text>
</a>
</g>
</g>
<!-- Node12&#45;&gt;Node14 -->
<g id="edge21" class="edge">
<title>Node12&#45;&gt;Node14</title>
<path fill="none" stroke="midnightblue" d="M484.66,-179.48C486.07,-171.08 488.28,-157.98 490.09,-147.16"/>
<polygon fill="midnightblue" stroke="midnightblue" points="493.59,-147.45 491.8,-137.01 486.69,-146.29 493.59,-147.45"/>
</g>
<!-- Node15 -->
<g id="node15" class="node">
<title>Node15</title>
<g id="a_node15"><a xlink:title=" ">
<polygon fill="none" stroke="#bfbfbf" points="305.23,-118 305.23,-137 373.23,-137 373.23,-118 305.23,-118"/>
<text text-anchor="middle" x="339.23" y="-125" font-family="Helvetica,sans-Serif" font-size="10.00">filesystem</text>
</a>
</g>
</g>
<!-- Node12&#45;&gt;Node15 -->
<g id="edge26" class="edge">
<title>Node12&#45;&gt;Node15</title>
<path fill="none" stroke="midnightblue" d="M462.6,-179.48C438.11,-169.36 397.08,-152.4 369.12,-140.85"/>
<polygon fill="midnightblue" stroke="midnightblue" points="370.4,-137.59 359.82,-137.01 367.73,-144.06 370.4,-137.59"/>
</g>
<!-- Node14&#45;&gt;Node2 -->
<g id="edge23" class="edge">
<title>Node14&#45;&gt;Node2</title>
<path fill="none" stroke="midnightblue" d="M530.05,-117.98C575.76,-107.39 653.76,-89.34 703.6,-77.8"/>
<polygon fill="midnightblue" stroke="midnightblue" points="704.52,-81.17 713.48,-75.51 702.94,-74.35 704.52,-81.17"/>
</g>
<!-- Node14&#45;&gt;Node5 -->
<g id="edge22" class="edge">
<title>Node14&#45;&gt;Node5</title>
<path fill="none" stroke="midnightblue" d="M461.14,-117.98C421.63,-107.48 354.45,-89.64 310.97,-78.09"/>
<polygon fill="midnightblue" stroke="midnightblue" points="311.83,-74.69 301.26,-75.51 310.03,-81.46 311.83,-74.69"/>
</g>
<!-- Node14&#45;&gt;Node7 -->
<g id="edge24" class="edge">
<title>Node14&#45;&gt;Node7</title>
<path fill="none" stroke="midnightblue" d="M485.39,-117.59C472.17,-103.03 444.05,-73.95 415.23,-56 392.28,-41.71 364.01,-30.45 341.5,-22.78"/>
<polygon fill="midnightblue" stroke="midnightblue" points="342.51,-19.42 331.91,-19.6 340.31,-26.07 342.51,-19.42"/>
</g>
<!-- Node16&#45;&gt;Node2 -->
<g id="edge30" class="edge">
<title>Node16&#45;&gt;Node2</title>
<path fill="none" stroke="midnightblue" d="M124.49,-185.43C235.73,-178.63 525.88,-159.51 566.23,-143 586.4,-134.75 585.02,-122.29 604.23,-112 633.51,-96.32 669.09,-85.21 697.79,-77.95"/>
<polygon fill="midnightblue" stroke="midnightblue" points="698.75,-81.32 707.63,-75.55 697.08,-74.52 698.75,-81.32"/>
</g>
<!-- Node16&#45;&gt;Node5 -->
<g id="edge29" class="edge">
<title>Node16&#45;&gt;Node5</title>
<path fill="none" stroke="midnightblue" d="M94.45,-179.49C126.33,-158.97 207.71,-106.6 247.14,-81.21"/>
<polygon fill="midnightblue" stroke="midnightblue" points="249.26,-84.02 255.77,-75.66 245.47,-78.13 249.26,-84.02"/>
</g>
<!-- Node16&#45;&gt;Node6 -->
<g id="edge32" class="edge">
<title>Node16&#45;&gt;Node6</title>
<path fill="none" stroke="midnightblue" d="M81.23,-179.48C81.23,-172.47 81.23,-162.19 81.23,-152.7"/>
<polygon fill="midnightblue" stroke="midnightblue" points="84.73,-152.52 81.23,-142.52 77.73,-152.52 84.73,-152.52"/>
</g>
<!-- Node16&#45;&gt;Node8 -->
<g id="edge31" class="edge">
<title>Node16&#45;&gt;Node8</title>
<path fill="none" stroke="midnightblue" d="M60.38,-179.43C45.65,-172.13 27.03,-160.09 18.23,-143 11.93,-130.75 11.93,-124.25 18.23,-112 25.31,-98.25 38.75,-87.77 51.41,-80.39"/>
<polygon fill="midnightblue" stroke="midnightblue" points="53.23,-83.39 60.38,-75.57 49.92,-77.22 53.23,-83.39"/>
</g>
</g>
</svg>
        <g id="navigator" transform="translate(0 0)" fill="#404254">
                <rect fill="#f2f5e9" fill-opacity="0.5" stroke="#606060" stroke-width=".5" x="0" y="0" width="60" height="60"/>
                <use id="zoomplus" xlink:href="#zoomPlus" x="17" y="9" onmousedown="handleZoom(evt,'in')"/>
                <use id="zoomminus" xlink:href="#zoomMin" x="42" y="9" onmousedown="handleZoom(evt,'out')"/>
                <use id="reset" xlink:href="#resetDef" x="30" y="36" onmousedown="handleReset()"/>
                <g id="arrowUp" xlink:href="#dirArrow" transform="translate(30 24)" onmousedown="handlePan(0,-1)">
                  <use xlink:href="#rim" fill="#404040">
                        <set attributeName="fill" to="#808080" begin="arrowUp.mouseover" end="arrowUp.mouseout"/>
                  </use>
                  <path fill="none" stroke="white" stroke-width="1.5" d="M0,-3.0v7 M-2.5,-0.5L0,-3.0L2.5,-0.5"/>
                </g>
                <g id="arrowRight" xlink:href="#dirArrow" transform="rotate(90) translate(36 -43)" onmousedown="handlePan(1,0)">
                  <use xlink:href="#rim" fill="#404040">
                        <set attributeName="fill" to="#808080" begin="arrowRight.mouseover" end="arrowRight.mouseout"/>
                  </use>
                  <path fill="none" stroke="white" stroke-width="1.5" d="M0,-3.0v7 M-2.5,-0.5L0,-3.0L2.5,-0.5"/>
                </g>
                <g id="arrowDown" xlink:href="#dirArrow" transform="rotate(180) translate(-30 -48)" onmousedown="handlePan(0,1)">
                  <use xlink:href="#rim" fill="#404040">
                        <set attributeName="fill" to="#808080" begin="arrowDown.mouseover" end="arrowDown.mouseout"/>
                  </use>
                  <path fill="none" stroke="white" stroke-width="1.5" d="M0,-3.0v7 M-2.5,-0.5L0,-3.0L2.5,-0.5"/>
                </g>
                <g id="arrowLeft" xlink:href="#dirArrow" transform="rotate(270) translate(-36 17)" onmousedown="handlePan(-1,0)">
                  <use xlink:href="#rim" fill="#404040">
                        <set attributeName="fill" to="#808080" begin="arrowLeft.mouseover" end="arrowLeft.mouseout"/>
                  </use>
                  <path fill="none" stroke="white" stroke-width="1.5" d="M0,-3.0v7 M-2.5,-0.5L0,-3.0L2.5,-0.5"/>
                </g>
        </g>
        <svg viewBox="0 0 15 15" width="100%" height="30px" preserveAspectRatio="xMaxYMin meet">
         <g id="arrow_out" transform="scale(0.3 0.3)">
          <a xlink:href="year__impl_8h__incl_org.svg" target="_base">
           <rect id="button" ry="5" rx="5" y="6" x="6" height="38" width="38"
                fill="#f2f5e9" fill-opacity="0.5" stroke="#606060" stroke-width="1.0"/>
           <path id="arrow"
             d="M 11.500037,31.436501 C 11.940474,20.09759 22.043105,11.32322 32.158766,21.979434 L 37.068811,17.246167 C 37.068811,17.246167 37.088388,32 37.088388,32 L 22.160133,31.978069 C 22.160133,31.978069 26.997745,27.140456 26.997745,27.140456 C 18.528582,18.264221 13.291696,25.230495 11.500037,31.436501 z"
             style="fill:#404040;"/>
          </a>
         </g>
        </svg>
</svg>
