<?xml version="1.0" encoding="UTF-8" standalone="no"?>
<!DOCTYPE svg PUBLIC "-//W3C//DTD SVG 1.1//EN"
 "http://www.w3.org/Graphics/SVG/1.1/DTD/svg11.dtd">
<!-- Generated by graphviz version 2.43.0 (0)
 -->
<!-- Title: weekday.h Pages: 1 -->
<svg width="1026pt" height="375pt"
 viewBox="0.00 0.00 1026.36 375.00" xmlns="http://www.w3.org/2000/svg" xmlns:xlink="http://www.w3.org/1999/xlink">
<g id="graph0" class="graph" transform="scale(1 1) rotate(0) translate(4 371)">
<title>weekday.h</title>
<!-- Node1 -->
<g id="node1" class="node">
<title>Node1</title>
<g id="a_node1"><a xlink:title=" ">
<polygon fill="#bfbfbf" stroke="black" points="517.8,-347.5 517.8,-366.5 585.8,-366.5 585.8,-347.5 517.8,-347.5"/>
<text text-anchor="middle" x="551.8" y="-354.5" font-family="Helvetica,sans-Serif" font-size="10.00">weekday.h</text>
</a>
</g>
</g>
<!-- Node2 -->
<g id="node2" class="node">
<title>Node2</title>
<g id="a_node2"><a xlink:title=" ">
<polygon fill="none" stroke="#bfbfbf" points="519.3,-118 519.3,-137 608.3,-137 608.3,-118 519.3,-118"/>
<text text-anchor="middle" x="563.8" y="-125" font-family="Helvetica,sans-Serif" font-size="10.00">limes_export.h</text>
</a>
</g>
</g>
<!-- Node1&#45;&gt;Node2 -->
<g id="edge1" class="edge">
<title>Node1&#45;&gt;Node2</title>
<path fill="none" stroke="midnightblue" d="M552.26,-347.36C554.01,-314.14 560.34,-194.16 562.81,-147.37"/>
<polygon fill="midnightblue" stroke="midnightblue" points="566.31,-147.32 563.35,-137.15 559.32,-146.95 566.31,-147.32"/>
</g>
<!-- Node3 -->
<g id="node3" class="node">
<title>Node3</title>
<g id="a_node3"><a xlink:href="../../da/d0b/limes__namespace_8h.html" target="_top" xlink:title=" ">
<polygon fill="none" stroke="black" points="297.8,-118 297.8,-137 411.8,-137 411.8,-118 297.8,-118"/>
<text text-anchor="middle" x="354.8" y="-125" font-family="Helvetica,sans-Serif" font-size="10.00">limes_namespace.h</text>
</a>
</g>
</g>
<!-- Node1&#45;&gt;Node3 -->
<g id="edge2" class="edge">
<title>Node1&#45;&gt;Node3</title>
<path fill="none" stroke="midnightblue" d="M517.46,-355.18C408.97,-351.77 77.04,-334.89 14.8,-255 -59.48,-159.66 168.67,-136.17 287.57,-130.39"/>
<polygon fill="midnightblue" stroke="midnightblue" points="287.85,-133.88 297.68,-129.93 287.53,-126.89 287.85,-133.88"/>
</g>
<!-- Node4 -->
<g id="node4" class="node">
<title>Node4</title>
<g id="a_node4"><a xlink:href="../../d5/d98/year_8h.html" target="_top" xlink:title=" ">
<polygon fill="none" stroke="black" points="700.3,-291.5 700.3,-310.5 747.3,-310.5 747.3,-291.5 700.3,-291.5"/>
<text text-anchor="middle" x="723.8" y="-298.5" font-family="Helvetica,sans-Serif" font-size="10.00">year.h</text>
</a>
</g>
</g>
<!-- Node1&#45;&gt;Node4 -->
<g id="edge3" class="edge">
<title>Node1&#45;&gt;Node4</title>
<path fill="none" stroke="midnightblue" d="M579.06,-347.44C609.23,-337.97 657.88,-322.7 690.34,-312.5"/>
<polygon fill="midnightblue" stroke="midnightblue" points="691.78,-315.72 700.27,-309.39 689.68,-309.04 691.78,-315.72"/>
</g>
<!-- Node5 -->
<g id="node5" class="node">
<title>Node5</title>
<g id="a_node5"><a xlink:href="../../d3/d53/preprocessor_8h.html" target="_top" xlink:title=" ">
<polygon fill="none" stroke="black" points="584.3,-56.5 584.3,-75.5 707.3,-75.5 707.3,-56.5 584.3,-56.5"/>
<text text-anchor="middle" x="645.8" y="-63.5" font-family="Helvetica,sans-Serif" font-size="10.00">../misc/preprocessor.h</text>
</a>
</g>
</g>
<!-- Node1&#45;&gt;Node5 -->
<g id="edge37" class="edge">
<title>Node1&#45;&gt;Node5</title>
<path fill="none" stroke="midnightblue" d="M585.99,-355.23C693.38,-351.91 1016.8,-334.56 1016.8,-246 1016.8,-246 1016.8,-246 1016.8,-188 1016.8,-153.07 1023.05,-135.04 996.8,-112 956.51,-76.63 808.03,-68.57 717.59,-67.03"/>
<polygon fill="midnightblue" stroke="midnightblue" points="717.45,-63.52 707.4,-66.87 717.35,-70.52 717.45,-63.52"/>
</g>
<!-- Node7 -->
<g id="node7" class="node">
<title>Node7</title>
<g id="a_node7"><a xlink:href="../../d0/d00/compiler__defs_8h.html" target="_top" xlink:title=" ">
<polygon fill="none" stroke="black" points="682.3,-112.5 682.3,-142.5 789.3,-142.5 789.3,-112.5 682.3,-112.5"/>
<text text-anchor="start" x="690.3" y="-130.5" font-family="Helvetica,sans-Serif" font-size="10.00">../system/compiler</text>
<text text-anchor="middle" x="735.8" y="-119.5" font-family="Helvetica,sans-Serif" font-size="10.00">_defs.h</text>
</a>
</g>
</g>
<!-- Node1&#45;&gt;Node7 -->
<g id="edge38" class="edge">
<title>Node1&#45;&gt;Node7</title>
<path fill="none" stroke="midnightblue" d="M585.88,-356.91C650.48,-356.49 788.45,-344.67 834.8,-255 850.31,-224.99 852.44,-207.8 834.8,-179 826.08,-164.76 811.94,-154.38 797.05,-146.87"/>
<polygon fill="midnightblue" stroke="midnightblue" points="798.26,-143.58 787.72,-142.56 795.33,-149.93 798.26,-143.58"/>
</g>
<!-- Node8 -->
<g id="node8" class="node">
<title>Node8</title>
<g id="a_node8"><a xlink:title=" ">
<polygon fill="none" stroke="#bfbfbf" points="573.8,-235.5 573.8,-254.5 617.8,-254.5 617.8,-235.5 573.8,-235.5"/>
<text text-anchor="middle" x="595.8" y="-242.5" font-family="Helvetica,sans-Serif" font-size="10.00">ctime</text>
</a>
</g>
</g>
<!-- Node1&#45;&gt;Node8 -->
<g id="edge41" class="edge">
<title>Node1&#45;&gt;Node8</title>
<path fill="none" stroke="midnightblue" d="M555.25,-347.37C562.42,-329.46 579.03,-287.92 588.62,-263.95"/>
<polygon fill="midnightblue" stroke="midnightblue" points="591.9,-265.18 592.37,-254.59 585.4,-262.58 591.9,-265.18"/>
</g>
<!-- Node11 -->
<g id="node11" class="node">
<title>Node11</title>
<g id="a_node11"><a xlink:title=" ">
<polygon fill="none" stroke="#bfbfbf" points="919.3,-118 919.3,-137 988.3,-137 988.3,-118 919.3,-118"/>
<text text-anchor="middle" x="953.8" y="-125" font-family="Helvetica,sans-Serif" font-size="10.00">type_traits</text>
</a>
</g>
</g>
<!-- Node1&#45;&gt;Node11 -->
<g id="edge40" class="edge">
<title>Node1&#45;&gt;Node11</title>
<path fill="none" stroke="midnightblue" d="M586.04,-353.07C647.25,-347.34 772.51,-333.24 809.8,-311 878.24,-270.19 926.77,-183.77 945.39,-146.37"/>
<polygon fill="midnightblue" stroke="midnightblue" points="948.62,-147.73 949.84,-137.2 942.32,-144.67 948.62,-147.73"/>
</g>
<!-- Node20 -->
<g id="node13" class="node">
<title>Node20</title>
<g id="a_node13"><a xlink:href="../../d7/d38/month_8h.html" target="_top" xlink:title=" ">
<polygon fill="none" stroke="black" points="390.3,-291.5 390.3,-310.5 447.3,-310.5 447.3,-291.5 390.3,-291.5"/>
<text text-anchor="middle" x="418.8" y="-298.5" font-family="Helvetica,sans-Serif" font-size="10.00">month.h</text>
</a>
</g>
</g>
<!-- Node1&#45;&gt;Node20 -->
<g id="edge25" class="edge">
<title>Node1&#45;&gt;Node20</title>
<path fill="none" stroke="midnightblue" d="M530.73,-347.44C508.74,-338.52 474.07,-324.44 449.14,-314.32"/>
<polygon fill="midnightblue" stroke="midnightblue" points="450.36,-311.04 439.78,-310.52 447.73,-317.52 450.36,-311.04"/>
</g>
<!-- Node21 -->
<g id="node14" class="node">
<title>Node21</title>
<g id="a_node14"><a xlink:title=" ">
<polygon fill="none" stroke="#bfbfbf" points="164.3,-235.5 164.3,-254.5 237.3,-254.5 237.3,-235.5 164.3,-235.5"/>
<text text-anchor="middle" x="200.8" y="-242.5" font-family="Helvetica,sans-Serif" font-size="10.00">string_view</text>
</a>
</g>
</g>
<!-- Node1&#45;&gt;Node21 -->
<g id="edge39" class="edge">
<title>Node1&#45;&gt;Node21</title>
<path fill="none" stroke="midnightblue" d="M517.48,-347.92C482.77,-339.53 427.7,-325.61 380.8,-311 327.88,-294.52 267.5,-271.92 231.85,-258.17"/>
<polygon fill="midnightblue" stroke="midnightblue" points="233.07,-254.89 222.48,-254.54 230.54,-261.41 233.07,-254.89"/>
</g>
<!-- Node23 -->
<g id="node16" class="node">
<title>Node23</title>
<g id="a_node16"><a xlink:href="../../d4/d9a/weekday__impl_8h.html" target="_top" xlink:title=" ">
<polygon fill="none" stroke="black" points="23.8,-235.5 23.8,-254.5 145.8,-254.5 145.8,-235.5 23.8,-235.5"/>
<text text-anchor="middle" x="84.8" y="-242.5" font-family="Helvetica,sans-Serif" font-size="10.00">impl/weekday_impl.h</text>
</a>
</g>
</g>
<!-- Node1&#45;&gt;Node23 -->
<g id="edge42" class="edge">
<title>Node1&#45;&gt;Node23</title>
<path fill="none" stroke="midnightblue" d="M517.51,-350.31C471.75,-342.52 388.28,-327.58 317.8,-311 248.25,-294.64 168.24,-271.32 122.38,-257.51"/>
<polygon fill="midnightblue" stroke="midnightblue" points="123.17,-254.09 112.59,-254.55 121.15,-260.79 123.17,-254.09"/>
</g>
<!-- Node4&#45;&gt;Node2 -->
<g id="edge4" class="edge">
<title>Node4&#45;&gt;Node2</title>
<path fill="none" stroke="midnightblue" d="M742.19,-291.47C755.9,-284 773.62,-271.71 781.8,-255 798.33,-221.26 775.17,-201.12 744.8,-179 707.76,-152.02 656.89,-139.45 618.5,-133.59"/>
<polygon fill="midnightblue" stroke="midnightblue" points="618.92,-130.11 608.53,-132.18 617.94,-137.05 618.92,-130.11"/>
</g>
<!-- Node4&#45;&gt;Node3 -->
<g id="edge5" class="edge">
<title>Node4&#45;&gt;Node3</title>
<path fill="none" stroke="midnightblue" d="M712.39,-291.4C690.92,-275.4 645.06,-242.02 626.8,-235 522.85,-195.01 464.46,-270.19 378.8,-199 363.45,-186.24 357.89,-163.23 355.89,-146.98"/>
<polygon fill="midnightblue" stroke="midnightblue" points="359.37,-146.66 355,-137.01 352.4,-147.28 359.37,-146.66"/>
</g>
<!-- Node4&#45;&gt;Node5 -->
<g id="edge6" class="edge">
<title>Node4&#45;&gt;Node5</title>
<path fill="none" stroke="midnightblue" d="M747.69,-297.91C774.08,-294.18 815.4,-283.8 834.8,-255 853.67,-226.99 843.23,-211.71 834.8,-179 826.31,-146.06 824.32,-133.31 797.8,-112 774.97,-93.65 744.85,-82.78 717.45,-76.34"/>
<polygon fill="midnightblue" stroke="midnightblue" points="718.01,-72.88 707.5,-74.16 716.52,-79.72 718.01,-72.88"/>
</g>
<!-- Node4&#45;&gt;Node7 -->
<g id="edge8" class="edge">
<title>Node4&#45;&gt;Node7</title>
<path fill="none" stroke="midnightblue" d="M747.39,-295.74C769.37,-290.39 800.93,-278.83 815.8,-255 833.69,-226.34 832.11,-208.58 815.8,-179 808.39,-165.56 795.73,-155.2 782.65,-147.47"/>
<polygon fill="midnightblue" stroke="midnightblue" points="784.03,-144.24 773.58,-142.53 780.68,-150.39 784.03,-144.24"/>
</g>
<!-- Node4&#45;&gt;Node8 -->
<g id="edge11" class="edge">
<title>Node4&#45;&gt;Node8</title>
<path fill="none" stroke="midnightblue" d="M703.52,-291.44C682.45,-282.56 649.29,-268.56 625.32,-258.45"/>
<polygon fill="midnightblue" stroke="midnightblue" points="626.56,-255.18 615.99,-254.52 623.84,-261.63 626.56,-255.18"/>
</g>
<!-- Node9 -->
<g id="node9" class="node">
<title>Node9</title>
<g id="a_node9"><a xlink:href="../../d2/d38/year__impl_8h.html" target="_top" xlink:title=" ">
<polygon fill="none" stroke="black" points="674.3,-235.5 674.3,-254.5 773.3,-254.5 773.3,-235.5 674.3,-235.5"/>
<text text-anchor="middle" x="723.8" y="-242.5" font-family="Helvetica,sans-Serif" font-size="10.00">impl/year_impl.h</text>
</a>
</g>
</g>
<!-- Node4&#45;&gt;Node9 -->
<g id="edge12" class="edge">
<title>Node4&#45;&gt;Node9</title>
<path fill="none" stroke="midnightblue" d="M723.8,-291.08C723.8,-284.01 723.8,-273.86 723.8,-264.99"/>
<polygon fill="midnightblue" stroke="midnightblue" points="727.3,-264.75 723.8,-254.75 720.3,-264.75 727.3,-264.75"/>
</g>
<!-- Node6 -->
<g id="node6" class="node">
<title>Node6</title>
<g id="a_node6"><a xlink:title=" ">
<polygon fill="none" stroke="#bfbfbf" points="407.8,-0.5 407.8,-19.5 507.8,-19.5 507.8,-0.5 407.8,-0.5"/>
<text text-anchor="middle" x="457.8" y="-7.5" font-family="Helvetica,sans-Serif" font-size="10.00">limes_platform.h</text>
</a>
</g>
</g>
<!-- Node5&#45;&gt;Node6 -->
<g id="edge7" class="edge">
<title>Node5&#45;&gt;Node6</title>
<path fill="none" stroke="midnightblue" d="M616.01,-56.44C583.97,-47.24 532.87,-32.56 497.45,-22.39"/>
<polygon fill="midnightblue" stroke="midnightblue" points="498.03,-18.91 487.45,-19.52 496.1,-25.64 498.03,-18.91"/>
</g>
<!-- Node7&#45;&gt;Node5 -->
<g id="edge10" class="edge">
<title>Node7&#45;&gt;Node5</title>
<path fill="none" stroke="midnightblue" d="M714.47,-112.4C700.32,-103.04 681.79,-90.79 667.55,-81.38"/>
<polygon fill="midnightblue" stroke="midnightblue" points="669.17,-78.25 658.9,-75.66 665.31,-84.09 669.17,-78.25"/>
</g>
<!-- Node7&#45;&gt;Node6 -->
<g id="edge9" class="edge">
<title>Node7&#45;&gt;Node6</title>
<path fill="none" stroke="midnightblue" d="M735.97,-112.31C735.33,-96.2 731.68,-70.31 715.8,-56 687.37,-30.38 584.75,-18.99 517.82,-14.2"/>
<polygon fill="midnightblue" stroke="midnightblue" points="518.02,-10.71 507.81,-13.51 517.54,-17.69 518.02,-10.71"/>
</g>
<!-- Node9&#45;&gt;Node3 -->
<g id="edge13" class="edge">
<title>Node9&#45;&gt;Node3</title>
<path fill="none" stroke="midnightblue" d="M674.19,-237.02C669.33,-236.34 664.47,-235.65 659.8,-235 545.58,-218.97 500.76,-259.88 402.8,-199 383.2,-186.82 369.68,-163.34 362.09,-146.83"/>
<polygon fill="midnightblue" stroke="midnightblue" points="365.11,-145 357.96,-137.18 358.68,-147.75 365.11,-145"/>
</g>
<!-- Node10 -->
<g id="node10" class="node">
<title>Node10</title>
<g id="a_node10"><a xlink:href="../../dc/d5c/math_functions_8h.html" target="_top" xlink:title=" ">
<polygon fill="none" stroke="red" points="591.8,-179.5 591.8,-198.5 735.8,-198.5 735.8,-179.5 591.8,-179.5"/>
<text text-anchor="middle" x="663.8" y="-186.5" font-family="Helvetica,sans-Serif" font-size="10.00">../../math/mathFunctions.h</text>
</a>
</g>
</g>
<!-- Node9&#45;&gt;Node10 -->
<g id="edge14" class="edge">
<title>Node9&#45;&gt;Node10</title>
<path fill="none" stroke="midnightblue" d="M714.16,-235.32C705.29,-227.34 691.93,-215.31 681.19,-205.65"/>
<polygon fill="midnightblue" stroke="midnightblue" points="683.39,-202.92 673.62,-198.83 678.71,-208.13 683.39,-202.92"/>
</g>
<!-- Node19 -->
<g id="node12" class="node">
<title>Node19</title>
<g id="a_node12"><a xlink:href="../../dc/db3/build__date_8h.html" target="_top" xlink:title=" ">
<polygon fill="none" stroke="black" points="411.8,-179.5 411.8,-198.5 497.8,-198.5 497.8,-179.5 411.8,-179.5"/>
<text text-anchor="middle" x="454.8" y="-186.5" font-family="Helvetica,sans-Serif" font-size="10.00">../build_date.h</text>
</a>
</g>
</g>
<!-- Node9&#45;&gt;Node19 -->
<g id="edge20" class="edge">
<title>Node9&#45;&gt;Node19</title>
<path fill="none" stroke="midnightblue" d="M681.18,-235.44C634.05,-225.98 558.11,-210.74 507.34,-200.55"/>
<polygon fill="midnightblue" stroke="midnightblue" points="507.72,-197.05 497.23,-198.52 506.34,-203.92 507.72,-197.05"/>
</g>
<!-- Node10&#45;&gt;Node2 -->
<g id="edge17" class="edge">
<title>Node10&#45;&gt;Node2</title>
<path fill="none" stroke="midnightblue" d="M649.47,-179.48C633.14,-169.75 606.2,-153.73 586.89,-142.24"/>
<polygon fill="midnightblue" stroke="midnightblue" points="588.49,-139.11 578.1,-137.01 584.91,-145.13 588.49,-139.11"/>
</g>
<!-- Node10&#45;&gt;Node3 -->
<g id="edge15" class="edge">
<title>Node10&#45;&gt;Node3</title>
<path fill="none" stroke="midnightblue" d="M619.53,-179.48C564,-168.78 468.84,-150.46 409.01,-138.94"/>
<polygon fill="midnightblue" stroke="midnightblue" points="409.47,-135.46 398.99,-137.01 408.15,-142.34 409.47,-135.46"/>
</g>
<!-- Node10&#45;&gt;Node5 -->
<g id="edge19" class="edge">
<title>Node10&#45;&gt;Node5</title>
<path fill="none" stroke="midnightblue" d="M662.51,-179.3C659.6,-159.76 652.51,-112.06 648.56,-85.55"/>
<polygon fill="midnightblue" stroke="midnightblue" points="652.02,-85 647.08,-75.62 645.09,-86.03 652.02,-85"/>
</g>
<!-- Node10&#45;&gt;Node7 -->
<g id="edge18" class="edge">
<title>Node10&#45;&gt;Node7</title>
<path fill="none" stroke="midnightblue" d="M674.12,-179.48C683.69,-171.57 698.31,-159.48 710.91,-149.07"/>
<polygon fill="midnightblue" stroke="midnightblue" points="713.35,-151.59 718.83,-142.52 708.89,-146.2 713.35,-151.59"/>
</g>
<!-- Node10&#45;&gt;Node11 -->
<g id="edge16" class="edge">
<title>Node10&#45;&gt;Node11</title>
<path fill="none" stroke="midnightblue" d="M705.35,-179.48C759.46,-168.37 853.68,-149.04 909.23,-137.64"/>
<polygon fill="midnightblue" stroke="midnightblue" points="910.05,-141.05 919.14,-135.61 908.64,-134.19 910.05,-141.05"/>
</g>
<!-- Node19&#45;&gt;Node2 -->
<g id="edge21" class="edge">
<title>Node19&#45;&gt;Node2</title>
<path fill="none" stroke="midnightblue" d="M470.42,-179.48C488.39,-169.67 518.12,-153.43 539.21,-141.92"/>
<polygon fill="midnightblue" stroke="midnightblue" points="541.11,-144.87 548.21,-137.01 537.76,-138.73 541.11,-144.87"/>
</g>
<!-- Node19&#45;&gt;Node3 -->
<g id="edge22" class="edge">
<title>Node19&#45;&gt;Node3</title>
<path fill="none" stroke="midnightblue" d="M440.47,-179.48C424.14,-169.75 397.2,-153.73 377.89,-142.24"/>
<polygon fill="midnightblue" stroke="midnightblue" points="379.49,-139.11 369.1,-137.01 375.91,-145.13 379.49,-139.11"/>
</g>
<!-- Node19&#45;&gt;Node5 -->
<g id="edge23" class="edge">
<title>Node19&#45;&gt;Node5</title>
<path fill="none" stroke="midnightblue" d="M458.78,-179.34C466.44,-163.64 484.7,-130.38 509.8,-112 532.3,-95.53 561.18,-84.85 586.53,-78.06"/>
<polygon fill="midnightblue" stroke="midnightblue" points="587.59,-81.4 596.42,-75.55 585.87,-74.62 587.59,-81.4"/>
</g>
<!-- Node19&#45;&gt;Node7 -->
<g id="edge24" class="edge">
<title>Node19&#45;&gt;Node7</title>
<path fill="none" stroke="midnightblue" d="M495.06,-179.48C541.35,-169.67 617.93,-153.46 672.27,-141.95"/>
<polygon fill="midnightblue" stroke="midnightblue" points="673.09,-145.36 682.15,-139.86 671.64,-138.51 673.09,-145.36"/>
</g>
<!-- Node20&#45;&gt;Node2 -->
<g id="edge26" class="edge">
<title>Node20&#45;&gt;Node2</title>
<path fill="none" stroke="midnightblue" d="M426.44,-291.45C441.85,-274.16 477.64,-233.74 506.8,-199 522.05,-180.83 539.1,-159.62 550.55,-145.24"/>
<polygon fill="midnightblue" stroke="midnightblue" points="553.41,-147.27 556.88,-137.27 547.92,-142.92 553.41,-147.27"/>
</g>
<!-- Node20&#45;&gt;Node3 -->
<g id="edge27" class="edge">
<title>Node20&#45;&gt;Node3</title>
<path fill="none" stroke="midnightblue" d="M390.22,-295.12C367.62,-289.59 337.51,-278.15 322.8,-255 300.72,-220.26 326.1,-171.12 342.7,-145.51"/>
<polygon fill="midnightblue" stroke="midnightblue" points="345.61,-147.45 348.31,-137.21 339.81,-143.53 345.61,-147.45"/>
</g>
<!-- Node20&#45;&gt;Node5 -->
<g id="edge28" class="edge">
<title>Node20&#45;&gt;Node5</title>
<path fill="none" stroke="midnightblue" d="M390.28,-295.58C365.77,-290.25 331.37,-278.83 311.8,-255 270.94,-205.26 246.23,-160.28 288.8,-112 307.33,-90.99 475.21,-77.33 574.02,-71.03"/>
<polygon fill="midnightblue" stroke="midnightblue" points="574.48,-74.51 584.24,-70.39 574.04,-67.52 574.48,-74.51"/>
</g>
<!-- Node20&#45;&gt;Node7 -->
<g id="edge29" class="edge">
<title>Node20&#45;&gt;Node7</title>
<path fill="none" stroke="midnightblue" d="M434.98,-291.37C461.43,-277.58 515.89,-250.57 564.8,-235 642.54,-210.26 693.08,-262.09 744.8,-199 755.35,-186.13 752.29,-167.25 747.03,-152.27"/>
<polygon fill="midnightblue" stroke="midnightblue" points="750.14,-150.62 743.17,-142.64 743.64,-153.23 750.14,-150.62"/>
</g>
<!-- Node20&#45;&gt;Node8 -->
<g id="edge31" class="edge">
<title>Node20&#45;&gt;Node8</title>
<path fill="none" stroke="midnightblue" d="M446.85,-291.44C478.74,-281.71 530.69,-265.86 564.05,-255.69"/>
<polygon fill="midnightblue" stroke="midnightblue" points="565.22,-258.99 573.76,-252.73 563.17,-252.3 565.22,-258.99"/>
</g>
<!-- Node20&#45;&gt;Node21 -->
<g id="edge30" class="edge">
<title>Node20&#45;&gt;Node21</title>
<path fill="none" stroke="midnightblue" d="M389.85,-292.83C352.86,-283.67 288.45,-267.71 245.23,-257"/>
<polygon fill="midnightblue" stroke="midnightblue" points="245.81,-253.54 235.27,-254.54 244.13,-260.34 245.81,-253.54"/>
</g>
<!-- Node22 -->
<g id="node15" class="node">
<title>Node22</title>
<g id="a_node15"><a xlink:href="../../da/d19/month__impl_8h.html" target="_top" xlink:title=" ">
<polygon fill="none" stroke="black" points="332.3,-235.5 332.3,-254.5 441.3,-254.5 441.3,-235.5 332.3,-235.5"/>
<text text-anchor="middle" x="386.8" y="-242.5" font-family="Helvetica,sans-Serif" font-size="10.00">impl/month_impl.h</text>
</a>
</g>
</g>
<!-- Node20&#45;&gt;Node22 -->
<g id="edge32" class="edge">
<title>Node20&#45;&gt;Node22</title>
<path fill="none" stroke="midnightblue" d="M413.52,-291.08C409.09,-283.61 402.64,-272.72 397.18,-263.52"/>
<polygon fill="midnightblue" stroke="midnightblue" points="400.1,-261.57 391.99,-254.75 394.07,-265.14 400.1,-261.57"/>
</g>
<!-- Node22&#45;&gt;Node3 -->
<g id="edge33" class="edge">
<title>Node22&#45;&gt;Node3</title>
<path fill="none" stroke="midnightblue" d="M369.6,-235.39C356.55,-227.79 339.57,-215.39 331.8,-199 323.48,-181.44 332.97,-160.08 342.16,-145.5"/>
<polygon fill="midnightblue" stroke="midnightblue" points="345.21,-147.24 347.96,-137.01 339.43,-143.29 345.21,-147.24"/>
</g>
<!-- Node22&#45;&gt;Node6 -->
<g id="edge34" class="edge">
<title>Node22&#45;&gt;Node6</title>
<path fill="none" stroke="midnightblue" d="M371.51,-235.4C337.43,-215.08 260.42,-162.02 288.8,-112 315.91,-64.21 375.61,-36.62 416.28,-22.7"/>
<polygon fill="midnightblue" stroke="midnightblue" points="417.52,-25.97 425.93,-19.53 415.33,-19.32 417.52,-25.97"/>
</g>
<!-- Node22&#45;&gt;Node10 -->
<g id="edge35" class="edge">
<title>Node22&#45;&gt;Node10</title>
<path fill="none" stroke="midnightblue" d="M430.69,-235.44C479.32,-225.96 557.75,-210.67 610.03,-200.48"/>
<polygon fill="midnightblue" stroke="midnightblue" points="610.97,-203.87 620.12,-198.52 609.63,-196.99 610.97,-203.87"/>
</g>
<!-- Node22&#45;&gt;Node19 -->
<g id="edge36" class="edge">
<title>Node22&#45;&gt;Node19</title>
<path fill="none" stroke="midnightblue" d="M397.73,-235.32C407.98,-227.18 423.52,-214.84 435.8,-205.09"/>
<polygon fill="midnightblue" stroke="midnightblue" points="438.02,-207.79 443.68,-198.83 433.67,-202.31 438.02,-207.79"/>
</g>
<!-- Node23&#45;&gt;Node3 -->
<g id="edge44" class="edge">
<title>Node23&#45;&gt;Node3</title>
<path fill="none" stroke="midnightblue" d="M100.93,-235.45C125.71,-222.48 174.79,-197.38 217.8,-179 251.85,-164.45 291.64,-150.06 319.54,-140.39"/>
<polygon fill="midnightblue" stroke="midnightblue" points="320.93,-143.61 329.25,-137.05 318.66,-136.99 320.93,-143.61"/>
</g>
<!-- Node23&#45;&gt;Node6 -->
<g id="edge45" class="edge">
<title>Node23&#45;&gt;Node6</title>
<path fill="none" stroke="midnightblue" d="M93.2,-235.15C121.75,-205.56 218.72,-108.94 316.8,-56 345.4,-40.56 380.15,-29.4 408,-22.05"/>
<polygon fill="midnightblue" stroke="midnightblue" points="409.1,-25.38 417.92,-19.51 407.37,-18.6 409.1,-25.38"/>
</g>
<!-- Node23&#45;&gt;Node19 -->
<g id="edge43" class="edge">
<title>Node23&#45;&gt;Node19</title>
<path fill="none" stroke="midnightblue" d="M143.43,-235.44C214.46,-225.08 333.12,-207.76 401.61,-197.76"/>
<polygon fill="midnightblue" stroke="midnightblue" points="402.36,-201.19 411.75,-196.28 401.35,-194.26 402.36,-201.19"/>
</g>
</g>
</svg>
