<?xml version="1.0" encoding="UTF-8" standalone="no"?>
<!DOCTYPE svg PUBLIC "-//W3C//DTD SVG 1.1//EN"
 "http://www.w3.org/Graphics/SVG/1.1/DTD/svg11.dtd">
<!-- Generated by graphviz version 2.43.0 (0)
 -->
<!-- Title: weekday.h Pages: 1 -->
<svg width="1529pt" height="487pt"
 viewBox="0.00 0.00 1529.00 487.00" xmlns="http://www.w3.org/2000/svg" xmlns:xlink="http://www.w3.org/1999/xlink">
<g id="graph0" class="graph" transform="scale(1 1) rotate(0) translate(4 483)">
<title>weekday.h</title>
<!-- Node1 -->
<g id="node1" class="node">
<title>Node1</title>
<g id="a_node1"><a xlink:title=" ">
<polygon fill="#bfbfbf" stroke="black" points="1017,-459.5 1017,-478.5 1085,-478.5 1085,-459.5 1017,-459.5"/>
<text text-anchor="middle" x="1051" y="-466.5" font-family="Helvetica,sans-Serif" font-size="10.00">weekday.h</text>
</a>
</g>
</g>
<!-- Node2 -->
<g id="node2" class="node">
<title>Node2</title>
<g id="a_node2"><a xlink:title=" ">
<polygon fill="none" stroke="#bfbfbf" points="107.5,-56.5 107.5,-75.5 196.5,-75.5 196.5,-56.5 107.5,-56.5"/>
<text text-anchor="middle" x="152" y="-63.5" font-family="Helvetica,sans-Serif" font-size="10.00">limes_export.h</text>
</a>
</g>
</g>
<!-- Node1&#45;&gt;Node2 -->
<g id="edge1" class="edge">
<title>Node1&#45;&gt;Node2</title>
<path fill="none" stroke="midnightblue" d="M1016.86,-467.4C857.67,-464.47 192.42,-450.64 104,-423 51.98,-406.73 0,-412.51 0,-358 0,-358 0,-358 0,-188 0,-130.18 68.15,-95.54 113.19,-78.96"/>
<polygon fill="midnightblue" stroke="midnightblue" points="114.43,-82.24 122.69,-75.6 112.1,-75.64 114.43,-82.24"/>
</g>
<!-- Node3 -->
<g id="node3" class="node">
<title>Node3</title>
<g id="a_node3"><a xlink:href="../../da/d0b/limes__namespace_8h.html" target="_top" xlink:title=" ">
<polygon fill="none" stroke="black" points="1099,-56.5 1099,-75.5 1213,-75.5 1213,-56.5 1099,-56.5"/>
<text text-anchor="middle" x="1156" y="-63.5" font-family="Helvetica,sans-Serif" font-size="10.00">limes_namespace.h</text>
</a>
</g>
</g>
<!-- Node1&#45;&gt;Node3 -->
<g id="edge2" class="edge">
<title>Node1&#45;&gt;Node3</title>
<path fill="none" stroke="midnightblue" d="M1085.02,-466.19C1162.47,-461.66 1349.68,-448.37 1407,-423 1447.64,-405.01 1483,-402.45 1483,-358 1483,-358 1483,-358 1483,-300 1483,-196.87 1436.45,-163.32 1347,-112 1324.93,-99.34 1263.59,-86.13 1216.32,-77.33"/>
<polygon fill="midnightblue" stroke="midnightblue" points="1216.93,-73.88 1206.46,-75.52 1215.66,-80.77 1216.93,-73.88"/>
</g>
<!-- Node4 -->
<g id="node4" class="node">
<title>Node4</title>
<g id="a_node4"><a xlink:href="../../d5/d98/year_8h.html" target="_top" xlink:title=" ">
<polygon fill="none" stroke="black" points="915.5,-403.5 915.5,-422.5 962.5,-422.5 962.5,-403.5 915.5,-403.5"/>
<text text-anchor="middle" x="939" y="-410.5" font-family="Helvetica,sans-Serif" font-size="10.00">year.h</text>
</a>
</g>
</g>
<!-- Node1&#45;&gt;Node4 -->
<g id="edge3" class="edge">
<title>Node1&#45;&gt;Node4</title>
<path fill="none" stroke="midnightblue" d="M1033.01,-459.32C1014.96,-450.62 986.95,-437.12 966.2,-427.11"/>
<polygon fill="midnightblue" stroke="midnightblue" points="967.48,-423.84 956.95,-422.65 964.44,-430.15 967.48,-423.84"/>
</g>
<!-- Node5 -->
<g id="node5" class="node">
<title>Node5</title>
<g id="a_node5"><a xlink:href="../../d3/d53/preprocessor_8h.html" target="_top" xlink:title=" ">
<polygon fill="none" stroke="black" points="261.5,-56.5 261.5,-75.5 384.5,-75.5 384.5,-56.5 261.5,-56.5"/>
<text text-anchor="middle" x="323" y="-63.5" font-family="Helvetica,sans-Serif" font-size="10.00">../misc/preprocessor.h</text>
</a>
</g>
</g>
<!-- Node1&#45;&gt;Node5 -->
<g id="edge54" class="edge">
<title>Node1&#45;&gt;Node5</title>
<path fill="none" stroke="midnightblue" d="M1016.72,-467.96C839.76,-467.29 38,-458.72 38,-358 38,-358 38,-358 38,-244 38,-140.74 174.69,-95.61 258.75,-77.62"/>
<polygon fill="midnightblue" stroke="midnightblue" points="259.64,-81.01 268.72,-75.56 258.22,-74.16 259.64,-81.01"/>
</g>
<!-- Node7 -->
<g id="node7" class="node">
<title>Node7</title>
<g id="a_node7"><a xlink:href="../../d0/d00/compiler__defs_8h.html" target="_top" xlink:title=" ">
<polygon fill="none" stroke="black" points="944.5,-112.5 944.5,-142.5 1051.5,-142.5 1051.5,-112.5 944.5,-112.5"/>
<text text-anchor="start" x="952.5" y="-130.5" font-family="Helvetica,sans-Serif" font-size="10.00">../system/compiler</text>
<text text-anchor="middle" x="998" y="-119.5" font-family="Helvetica,sans-Serif" font-size="10.00">_defs.h</text>
</a>
</g>
</g>
<!-- Node1&#45;&gt;Node7 -->
<g id="edge55" class="edge">
<title>Node1&#45;&gt;Node7</title>
<path fill="none" stroke="midnightblue" d="M1085.03,-467.68C1175.55,-465.44 1411.53,-449.82 1354,-347 1290.98,-234.38 1143.55,-172.75 1059.52,-145.64"/>
<polygon fill="midnightblue" stroke="midnightblue" points="1060.43,-142.26 1049.84,-142.58 1058.32,-148.93 1060.43,-142.26"/>
</g>
<!-- Node8 -->
<g id="node8" class="node">
<title>Node8</title>
<g id="a_node8"><a xlink:title=" ">
<polygon fill="none" stroke="#bfbfbf" points="1005,-347.5 1005,-366.5 1049,-366.5 1049,-347.5 1005,-347.5"/>
<text text-anchor="middle" x="1027" y="-354.5" font-family="Helvetica,sans-Serif" font-size="10.00">ctime</text>
</a>
</g>
</g>
<!-- Node1&#45;&gt;Node8 -->
<g id="edge58" class="edge">
<title>Node1&#45;&gt;Node8</title>
<path fill="none" stroke="midnightblue" d="M1049.12,-459.37C1045.24,-441.62 1036.31,-400.67 1031.06,-376.6"/>
<polygon fill="midnightblue" stroke="midnightblue" points="1034.43,-375.62 1028.87,-366.59 1027.59,-377.11 1034.43,-375.62"/>
</g>
<!-- Node11 -->
<g id="node11" class="node">
<title>Node11</title>
<g id="a_node11"><a xlink:title=" ">
<polygon fill="none" stroke="#bfbfbf" points="780.5,-118 780.5,-137 849.5,-137 849.5,-118 780.5,-118"/>
<text text-anchor="middle" x="815" y="-125" font-family="Helvetica,sans-Serif" font-size="10.00">type_traits</text>
</a>
</g>
</g>
<!-- Node1&#45;&gt;Node11 -->
<g id="edge57" class="edge">
<title>Node1&#45;&gt;Node11</title>
<path fill="none" stroke="midnightblue" d="M1016.94,-467.1C861.63,-462.53 228,-438.95 228,-358 228,-358 228,-358 228,-300 228,-121.81 445.64,-251.24 616,-199 675.8,-180.66 744.3,-155.45 783.33,-140.67"/>
<polygon fill="midnightblue" stroke="midnightblue" points="784.72,-143.88 792.83,-137.06 782.23,-137.34 784.72,-143.88"/>
</g>
<!-- Node20 -->
<g id="node20" class="node">
<title>Node20</title>
<g id="a_node20"><a xlink:href="../../d7/d38/month_8h.html" target="_top" xlink:title=" ">
<polygon fill="none" stroke="black" points="1051.5,-403.5 1051.5,-422.5 1108.5,-422.5 1108.5,-403.5 1051.5,-403.5"/>
<text text-anchor="middle" x="1080" y="-410.5" font-family="Helvetica,sans-Serif" font-size="10.00">month.h</text>
</a>
</g>
</g>
<!-- Node1&#45;&gt;Node20 -->
<g id="edge42" class="edge">
<title>Node1&#45;&gt;Node20</title>
<path fill="none" stroke="midnightblue" d="M1055.79,-459.08C1059.76,-451.69 1065.53,-440.95 1070.43,-431.81"/>
<polygon fill="midnightblue" stroke="midnightblue" points="1073.65,-433.22 1075.3,-422.75 1067.49,-429.91 1073.65,-433.22"/>
</g>
<!-- Node21 -->
<g id="node21" class="node">
<title>Node21</title>
<g id="a_node21"><a xlink:title=" ">
<polygon fill="none" stroke="#bfbfbf" points="1271.5,-347.5 1271.5,-366.5 1344.5,-366.5 1344.5,-347.5 1271.5,-347.5"/>
<text text-anchor="middle" x="1308" y="-354.5" font-family="Helvetica,sans-Serif" font-size="10.00">string_view</text>
</a>
</g>
</g>
<!-- Node1&#45;&gt;Node21 -->
<g id="edge56" class="edge">
<title>Node1&#45;&gt;Node21</title>
<path fill="none" stroke="midnightblue" d="M1071.17,-459.37C1116.3,-440.05 1225.62,-393.26 1278.45,-370.65"/>
<polygon fill="midnightblue" stroke="midnightblue" points="1280.11,-373.74 1287.93,-366.59 1277.36,-367.31 1280.11,-373.74"/>
</g>
<!-- Node23 -->
<g id="node23" class="node">
<title>Node23</title>
<g id="a_node23"><a xlink:href="../../d4/d9a/weekday__impl_8h.html" target="_top" xlink:title=" ">
<polygon fill="none" stroke="black" points="1333,-235.5 1333,-254.5 1455,-254.5 1455,-235.5 1333,-235.5"/>
<text text-anchor="middle" x="1394" y="-242.5" font-family="Helvetica,sans-Serif" font-size="10.00">impl/weekday_impl.h</text>
</a>
</g>
</g>
<!-- Node1&#45;&gt;Node23 -->
<g id="edge59" class="edge">
<title>Node1&#45;&gt;Node23</title>
<path fill="none" stroke="midnightblue" d="M1085.06,-468.71C1162.3,-469.54 1347.13,-466.79 1387,-423 1427.15,-378.9 1410.49,-300.04 1400.05,-264.39"/>
<polygon fill="midnightblue" stroke="midnightblue" points="1403.38,-263.32 1397.07,-254.8 1396.69,-265.39 1403.38,-263.32"/>
</g>
<!-- Node4&#45;&gt;Node2 -->
<g id="edge4" class="edge">
<title>Node4&#45;&gt;Node2</title>
<path fill="none" stroke="midnightblue" d="M915.36,-411.73C806.32,-410.28 351.27,-402.21 214,-367 148.33,-350.16 76,-369.8 76,-302 76,-302 76,-302 76,-244 76,-185 30.98,-162.18 62,-112 71.67,-96.35 88.62,-85.96 105.22,-79.15"/>
<polygon fill="midnightblue" stroke="midnightblue" points="106.75,-82.32 114.9,-75.54 104.31,-75.76 106.75,-82.32"/>
</g>
<!-- Node4&#45;&gt;Node3 -->
<g id="edge5" class="edge">
<title>Node4&#45;&gt;Node3</title>
<path fill="none" stroke="midnightblue" d="M946.65,-403.29C980.89,-364.13 1119.43,-203.72 1145,-143 1152.75,-124.61 1155.19,-101.75 1155.89,-85.92"/>
<polygon fill="midnightblue" stroke="midnightblue" points="1159.39,-85.9 1156.14,-75.81 1152.4,-85.72 1159.39,-85.9"/>
</g>
<!-- Node4&#45;&gt;Node5 -->
<g id="edge6" class="edge">
<title>Node4&#45;&gt;Node5</title>
<path fill="none" stroke="midnightblue" d="M915.38,-411.94C813.25,-411.45 409.43,-406.95 290,-367 239.73,-350.18 190,-355.01 190,-302 190,-302 190,-302 190,-188 190,-152.58 190.05,-138.1 214,-112 228.81,-95.86 250.28,-85.35 270.26,-78.59"/>
<polygon fill="midnightblue" stroke="midnightblue" points="271.42,-81.89 279.91,-75.56 269.32,-75.21 271.42,-81.89"/>
</g>
<!-- Node4&#45;&gt;Node7 -->
<g id="edge8" class="edge">
<title>Node4&#45;&gt;Node7</title>
<path fill="none" stroke="midnightblue" d="M942.04,-403.21C951.86,-374.39 982.79,-279.91 995,-199 997.31,-183.71 998.07,-166.35 998.25,-152.69"/>
<polygon fill="midnightblue" stroke="midnightblue" points="1001.75,-152.64 998.28,-142.63 994.75,-152.62 1001.75,-152.64"/>
</g>
<!-- Node4&#45;&gt;Node8 -->
<g id="edge11" class="edge">
<title>Node4&#45;&gt;Node8</title>
<path fill="none" stroke="midnightblue" d="M953.14,-403.32C966.87,-394.9 987.94,-381.97 1004.06,-372.07"/>
<polygon fill="midnightblue" stroke="midnightblue" points="1006.2,-374.87 1012.9,-366.65 1002.54,-368.9 1006.2,-374.87"/>
</g>
<!-- Node9 -->
<g id="node9" class="node">
<title>Node9</title>
<g id="a_node9"><a xlink:href="../../d2/d38/year__impl_8h.html" target="_top" xlink:title=" ">
<polygon fill="none" stroke="black" points="811.5,-347.5 811.5,-366.5 910.5,-366.5 910.5,-347.5 811.5,-347.5"/>
<text text-anchor="middle" x="861" y="-354.5" font-family="Helvetica,sans-Serif" font-size="10.00">impl/year_impl.h</text>
</a>
</g>
</g>
<!-- Node4&#45;&gt;Node9 -->
<g id="edge12" class="edge">
<title>Node4&#45;&gt;Node9</title>
<path fill="none" stroke="midnightblue" d="M926.47,-403.32C914.41,-394.98 895.97,-382.21 881.73,-372.35"/>
<polygon fill="midnightblue" stroke="midnightblue" points="883.72,-369.47 873.5,-366.65 879.73,-375.22 883.72,-369.47"/>
</g>
<!-- Node6 -->
<g id="node6" class="node">
<title>Node6</title>
<g id="a_node6"><a xlink:title=" ">
<polygon fill="none" stroke="#bfbfbf" points="683,-0.5 683,-19.5 783,-19.5 783,-0.5 683,-0.5"/>
<text text-anchor="middle" x="733" y="-7.5" font-family="Helvetica,sans-Serif" font-size="10.00">limes_platform.h</text>
</a>
</g>
</g>
<!-- Node5&#45;&gt;Node6 -->
<g id="edge7" class="edge">
<title>Node5&#45;&gt;Node6</title>
<path fill="none" stroke="midnightblue" d="M384.83,-56.86C462.75,-46.59 595.82,-29.07 672.92,-18.91"/>
<polygon fill="midnightblue" stroke="midnightblue" points="673.5,-22.37 682.95,-17.59 672.58,-15.43 673.5,-22.37"/>
</g>
<!-- Node7&#45;&gt;Node5 -->
<g id="edge10" class="edge">
<title>Node7&#45;&gt;Node5</title>
<path fill="none" stroke="midnightblue" d="M944.42,-118.57C927.66,-116.25 909.08,-113.84 892,-112 713.52,-92.75 502.71,-78.21 394.7,-71.35"/>
<polygon fill="midnightblue" stroke="midnightblue" points="394.77,-67.85 384.57,-70.71 394.33,-74.84 394.77,-67.85"/>
</g>
<!-- Node7&#45;&gt;Node6 -->
<g id="edge9" class="edge">
<title>Node7&#45;&gt;Node6</title>
<path fill="none" stroke="midnightblue" d="M965.77,-112.45C913.66,-89.74 811.71,-45.3 761.85,-23.57"/>
<polygon fill="midnightblue" stroke="midnightblue" points="763.16,-20.33 752.6,-19.54 760.37,-26.75 763.16,-20.33"/>
</g>
<!-- Node9&#45;&gt;Node3 -->
<g id="edge13" class="edge">
<title>Node9&#45;&gt;Node3</title>
<path fill="none" stroke="midnightblue" d="M879.09,-347.47C896,-339.15 921.62,-325.64 942,-311 1031.15,-246.97 1060.46,-233.19 1123,-143 1135.52,-124.94 1144.85,-101.38 1150.34,-85.3"/>
<polygon fill="midnightblue" stroke="midnightblue" points="1153.75,-86.13 1153.51,-75.53 1147.09,-83.96 1153.75,-86.13"/>
</g>
<!-- Node10 -->
<g id="node10" class="node">
<title>Node10</title>
<g id="a_node10"><a xlink:href="../../dc/d5c/math_functions_8h.html" target="_top" xlink:title=" ">
<polygon fill="none" stroke="black" points="789,-291.5 789,-310.5 933,-310.5 933,-291.5 789,-291.5"/>
<text text-anchor="middle" x="861" y="-298.5" font-family="Helvetica,sans-Serif" font-size="10.00">../../math/mathFunctions.h</text>
</a>
</g>
</g>
<!-- Node9&#45;&gt;Node10 -->
<g id="edge14" class="edge">
<title>Node9&#45;&gt;Node10</title>
<path fill="none" stroke="midnightblue" d="M861,-347.08C861,-340.01 861,-329.86 861,-320.99"/>
<polygon fill="midnightblue" stroke="midnightblue" points="864.5,-320.75 861,-310.75 857.5,-320.75 864.5,-320.75"/>
</g>
<!-- Node19 -->
<g id="node19" class="node">
<title>Node19</title>
<g id="a_node19"><a xlink:href="../../dc/db3/build__date_8h.html" target="_top" xlink:title=" ">
<polygon fill="none" stroke="black" points="701,-179.5 701,-198.5 787,-198.5 787,-179.5 701,-179.5"/>
<text text-anchor="middle" x="744" y="-186.5" font-family="Helvetica,sans-Serif" font-size="10.00">../build_date.h</text>
</a>
</g>
</g>
<!-- Node9&#45;&gt;Node19 -->
<g id="edge37" class="edge">
<title>Node9&#45;&gt;Node19</title>
<path fill="none" stroke="midnightblue" d="M834.86,-347.47C817,-340.37 794.1,-328.56 780,-311 755.73,-280.76 747.81,-234.54 745.23,-208.86"/>
<polygon fill="midnightblue" stroke="midnightblue" points="748.7,-208.31 744.39,-198.63 741.73,-208.89 748.7,-208.31"/>
</g>
<!-- Node10&#45;&gt;Node2 -->
<g id="edge17" class="edge">
<title>Node10&#45;&gt;Node2</title>
<path fill="none" stroke="midnightblue" d="M790.23,-291.48C731.24,-283.79 645.17,-271.21 571,-255 392.73,-216.05 306.92,-270.11 176,-143 160.45,-127.9 154.94,-102.81 153.01,-85.62"/>
<polygon fill="midnightblue" stroke="midnightblue" points="156.5,-85.33 152.19,-75.65 149.52,-85.9 156.5,-85.33"/>
</g>
<!-- Node10&#45;&gt;Node3 -->
<g id="edge15" class="edge">
<title>Node10&#45;&gt;Node3</title>
<path fill="none" stroke="midnightblue" d="M886.42,-291.44C908.14,-283.56 939.8,-270.73 965,-255 1029.99,-214.45 1042.9,-198.21 1096,-143 1114.12,-124.16 1132.36,-100.17 1143.89,-84.24"/>
<polygon fill="midnightblue" stroke="midnightblue" points="1146.89,-86.06 1149.86,-75.88 1141.2,-81.99 1146.89,-86.06"/>
</g>
<!-- Node10&#45;&gt;Node5 -->
<g id="edge19" class="edge">
<title>Node10&#45;&gt;Node5</title>
<path fill="none" stroke="midnightblue" d="M811.27,-291.49C734.57,-277.47 583.54,-246.27 462,-199 413.07,-179.97 393.95,-181.26 358,-143 342.5,-126.5 332.9,-101.92 327.76,-85.22"/>
<polygon fill="midnightblue" stroke="midnightblue" points="331.11,-84.2 325.01,-75.54 324.38,-86.11 331.11,-84.2"/>
</g>
<!-- Node10&#45;&gt;Node7 -->
<g id="edge18" class="edge">
<title>Node10&#45;&gt;Node7</title>
<path fill="none" stroke="midnightblue" d="M886.39,-291.41C904.5,-284.17 928.33,-272.21 944,-255 970.97,-225.39 985.78,-180.27 992.79,-152.68"/>
<polygon fill="midnightblue" stroke="midnightblue" points="996.25,-153.24 995.17,-142.7 989.44,-151.61 996.25,-153.24"/>
</g>
<!-- Node10&#45;&gt;Node11 -->
<g id="edge16" class="edge">
<title>Node10&#45;&gt;Node11</title>
<path fill="none" stroke="midnightblue" d="M826.86,-291.49C785.58,-279.08 718.35,-251.56 692,-199 688.02,-191.05 687.05,-186.38 692,-179 701.64,-164.62 742.2,-149.76 774.15,-139.91"/>
<polygon fill="midnightblue" stroke="midnightblue" points="775.17,-143.26 783.74,-137.02 773.16,-136.55 775.17,-143.26"/>
</g>
<!-- Node12 -->
<g id="node12" class="node">
<title>Node12</title>
<g id="a_node12"><a xlink:href="../../dc/d9b/math_functions__impl_8h.html" target="_top" xlink:title=" ">
<polygon fill="none" stroke="black" points="809.5,-235.5 809.5,-254.5 934.5,-254.5 934.5,-235.5 809.5,-235.5"/>
<text text-anchor="middle" x="872" y="-242.5" font-family="Helvetica,sans-Serif" font-size="10.00">mathFunctions_impl.h</text>
</a>
</g>
</g>
<!-- Node10&#45;&gt;Node12 -->
<g id="edge20" class="edge">
<title>Node10&#45;&gt;Node12</title>
<path fill="none" stroke="midnightblue" d="M862.82,-291.08C864.27,-283.93 866.37,-273.64 868.19,-264.69"/>
<polygon fill="midnightblue" stroke="midnightblue" points="871.65,-265.25 870.22,-254.75 864.79,-263.85 871.65,-265.25"/>
</g>
<!-- Node12&#45;&gt;Node3 -->
<g id="edge21" class="edge">
<title>Node12&#45;&gt;Node3</title>
<path fill="none" stroke="midnightblue" d="M890.62,-235.46C925.27,-219.27 1001.51,-182.21 1061,-143 1089.75,-124.05 1120.41,-98.41 1138.89,-82.29"/>
<polygon fill="midnightblue" stroke="midnightblue" points="1141.28,-84.85 1146.47,-75.61 1136.65,-79.6 1141.28,-84.85"/>
</g>
<!-- Node13 -->
<g id="node13" class="node">
<title>Node13</title>
<g id="a_node13"><a xlink:title=" ">
<polygon fill="none" stroke="#bfbfbf" points="805.5,-179.5 805.5,-198.5 852.5,-198.5 852.5,-179.5 805.5,-179.5"/>
<text text-anchor="middle" x="829" y="-186.5" font-family="Helvetica,sans-Serif" font-size="10.00">cmath</text>
</a>
</g>
</g>
<!-- Node12&#45;&gt;Node13 -->
<g id="edge22" class="edge">
<title>Node12&#45;&gt;Node13</title>
<path fill="none" stroke="midnightblue" d="M864.9,-235.08C858.76,-227.38 849.73,-216.03 842.26,-206.65"/>
<polygon fill="midnightblue" stroke="midnightblue" points="844.94,-204.39 835.97,-198.75 839.46,-208.75 844.94,-204.39"/>
</g>
<!-- Node14 -->
<g id="node14" class="node">
<title>Node14</title>
<g id="a_node14"><a xlink:title=" ">
<polygon fill="none" stroke="#bfbfbf" points="871,-179.5 871,-198.5 935,-198.5 935,-179.5 871,-179.5"/>
<text text-anchor="middle" x="903" y="-186.5" font-family="Helvetica,sans-Serif" font-size="10.00">algorithm</text>
</a>
</g>
</g>
<!-- Node12&#45;&gt;Node14 -->
<g id="edge23" class="edge">
<title>Node12&#45;&gt;Node14</title>
<path fill="none" stroke="midnightblue" d="M877.12,-235.08C881.41,-227.61 887.66,-216.72 892.94,-207.52"/>
<polygon fill="midnightblue" stroke="midnightblue" points="896.03,-209.17 897.98,-198.75 889.96,-205.68 896.03,-209.17"/>
</g>
<!-- Node15 -->
<g id="node15" class="node">
<title>Node15</title>
<g id="a_node15"><a xlink:href="../../d5/dbb/limes__assert_8h.html" target="_top" xlink:title=" ">
<polygon fill="none" stroke="black" points="471,-179.5 471,-198.5 607,-198.5 607,-179.5 471,-179.5"/>
<text text-anchor="middle" x="539" y="-186.5" font-family="Helvetica,sans-Serif" font-size="10.00">../system/limes_assert.h</text>
</a>
</g>
</g>
<!-- Node12&#45;&gt;Node15 -->
<g id="edge24" class="edge">
<title>Node12&#45;&gt;Node15</title>
<path fill="none" stroke="midnightblue" d="M819.24,-235.44C760.17,-225.87 664.53,-210.36 601.69,-200.17"/>
<polygon fill="midnightblue" stroke="midnightblue" points="601.95,-196.66 591.52,-198.52 600.83,-203.57 601.95,-196.66"/>
</g>
<!-- Node15&#45;&gt;Node2 -->
<g id="edge25" class="edge">
<title>Node15&#45;&gt;Node2</title>
<path fill="none" stroke="midnightblue" d="M499.47,-179.49C462.57,-171.23 406.12,-157.81 358,-143 294.52,-123.46 222.03,-95.32 182.19,-79.33"/>
<polygon fill="midnightblue" stroke="midnightblue" points="183.38,-76.03 172.8,-75.54 180.76,-82.52 183.38,-76.03"/>
</g>
<!-- Node15&#45;&gt;Node3 -->
<g id="edge26" class="edge">
<title>Node15&#45;&gt;Node3</title>
<path fill="none" stroke="midnightblue" d="M600.51,-179.44C638.43,-172.7 687.41,-161.31 728,-143 749.81,-133.16 749.66,-120.54 772,-112 828.26,-90.49 994.35,-77.02 1088.64,-70.89"/>
<polygon fill="midnightblue" stroke="midnightblue" points="1088.89,-74.38 1098.65,-70.25 1088.44,-67.4 1088.89,-74.38"/>
</g>
<!-- Node15&#45;&gt;Node5 -->
<g id="edge27" class="edge">
<title>Node15&#45;&gt;Node5</title>
<path fill="none" stroke="midnightblue" d="M494.77,-179.46C466.02,-172.58 428.52,-161.03 399,-143 373.1,-127.18 349.43,-100.79 335.61,-83.64"/>
<polygon fill="midnightblue" stroke="midnightblue" points="338.25,-81.33 329.33,-75.62 332.74,-85.65 338.25,-81.33"/>
</g>
<!-- Node15&#45;&gt;Node6 -->
<g id="edge34" class="edge">
<title>Node15&#45;&gt;Node6</title>
<path fill="none" stroke="midnightblue" d="M586.64,-179.49C626.67,-171.43 679.71,-158.3 695,-143 725.67,-112.31 731.94,-58.57 733,-30.05"/>
<polygon fill="midnightblue" stroke="midnightblue" points="736.5,-29.88 733.19,-19.82 729.5,-29.75 736.5,-29.88"/>
</g>
<!-- Node15&#45;&gt;Node7 -->
<g id="edge36" class="edge">
<title>Node15&#45;&gt;Node7</title>
<path fill="none" stroke="midnightblue" d="M604.76,-179.48C692.63,-168.08 847.31,-148.03 934.18,-136.77"/>
<polygon fill="midnightblue" stroke="midnightblue" points="934.7,-140.23 944.17,-135.48 933.8,-133.29 934.7,-140.23"/>
</g>
<!-- Node15&#45;&gt;Node11 -->
<g id="edge28" class="edge">
<title>Node15&#45;&gt;Node11</title>
<path fill="none" stroke="midnightblue" d="M588.89,-179.47C635.07,-171.26 705.54,-157.91 766,-143 769.91,-142.04 773.97,-140.96 778.01,-139.84"/>
<polygon fill="midnightblue" stroke="midnightblue" points="779.26,-143.12 787.91,-137 777.33,-136.39 779.26,-143.12"/>
</g>
<!-- Node16 -->
<g id="node16" class="node">
<title>Node16</title>
<g id="a_node16"><a xlink:title=" ">
<polygon fill="none" stroke="#bfbfbf" points="640.5,-118 640.5,-137 685.5,-137 685.5,-118 640.5,-118"/>
<text text-anchor="middle" x="663" y="-125" font-family="Helvetica,sans-Serif" font-size="10.00">utility</text>
</a>
</g>
</g>
<!-- Node15&#45;&gt;Node16 -->
<g id="edge29" class="edge">
<title>Node15&#45;&gt;Node16</title>
<path fill="none" stroke="midnightblue" d="M556.77,-179.48C577.48,-169.53 611.95,-152.99 635.99,-141.46"/>
<polygon fill="midnightblue" stroke="midnightblue" points="637.77,-144.49 645.27,-137.01 634.74,-138.18 637.77,-144.49"/>
</g>
<!-- Node17 -->
<g id="node17" class="node">
<title>Node17</title>
<g id="a_node17"><a xlink:href="../../d1/d57/_ignore_unused_8h.html" target="_top" xlink:title=" ">
<polygon fill="none" stroke="black" points="408,-118 408,-137 536,-137 536,-118 408,-118"/>
<text text-anchor="middle" x="472" y="-125" font-family="Helvetica,sans-Serif" font-size="10.00">../misc/IgnoreUnused.h</text>
</a>
</g>
</g>
<!-- Node15&#45;&gt;Node17 -->
<g id="edge30" class="edge">
<title>Node15&#45;&gt;Node17</title>
<path fill="none" stroke="midnightblue" d="M529.4,-179.48C518.95,-170.2 502.03,-155.17 489.26,-143.83"/>
<polygon fill="midnightblue" stroke="midnightblue" points="491.38,-141.03 481.58,-137.01 486.73,-146.27 491.38,-141.03"/>
</g>
<!-- Node18 -->
<g id="node18" class="node">
<title>Node18</title>
<g id="a_node18"><a xlink:title=" ">
<polygon fill="none" stroke="#bfbfbf" points="554,-118 554,-137 622,-137 622,-118 554,-118"/>
<text text-anchor="middle" x="588" y="-125" font-family="Helvetica,sans-Serif" font-size="10.00">filesystem</text>
</a>
</g>
</g>
<!-- Node15&#45;&gt;Node18 -->
<g id="edge35" class="edge">
<title>Node15&#45;&gt;Node18</title>
<path fill="none" stroke="midnightblue" d="M546.02,-179.48C553.44,-170.46 565.33,-156.02 574.57,-144.81"/>
<polygon fill="midnightblue" stroke="midnightblue" points="577.34,-146.95 580.99,-137.01 571.93,-142.5 577.34,-146.95"/>
</g>
<!-- Node17&#45;&gt;Node2 -->
<g id="edge31" class="edge">
<title>Node17&#45;&gt;Node2</title>
<path fill="none" stroke="midnightblue" d="M426.15,-117.98C368.2,-107.2 268.56,-88.67 206.7,-77.17"/>
<polygon fill="midnightblue" stroke="midnightblue" points="207.2,-73.7 196.73,-75.32 205.92,-80.59 207.2,-73.7"/>
</g>
<!-- Node17&#45;&gt;Node3 -->
<g id="edge32" class="edge">
<title>Node17&#45;&gt;Node3</title>
<path fill="none" stroke="midnightblue" d="M510.49,-117.94C521.59,-115.72 533.73,-113.53 545,-112 741.49,-85.35 975.83,-73.65 1088.69,-69.26"/>
<polygon fill="midnightblue" stroke="midnightblue" points="1089.04,-72.75 1098.9,-68.87 1088.77,-65.75 1089.04,-72.75"/>
</g>
<!-- Node17&#45;&gt;Node6 -->
<g id="edge33" class="edge">
<title>Node17&#45;&gt;Node6</title>
<path fill="none" stroke="midnightblue" d="M491.62,-117.82C537.26,-97.62 650.77,-47.39 704.25,-23.72"/>
<polygon fill="midnightblue" stroke="midnightblue" points="705.78,-26.87 713.51,-19.62 702.95,-20.47 705.78,-26.87"/>
</g>
<!-- Node19&#45;&gt;Node2 -->
<g id="edge38" class="edge">
<title>Node19&#45;&gt;Node2</title>
<path fill="none" stroke="midnightblue" d="M700.87,-183.93C621.41,-176.18 454.91,-158.67 399,-143 366.24,-133.82 361.16,-123.12 329,-112 287.68,-97.71 239.52,-85.76 203.88,-77.77"/>
<polygon fill="midnightblue" stroke="midnightblue" points="204.23,-74.27 193.71,-75.53 202.72,-81.1 204.23,-74.27"/>
</g>
<!-- Node19&#45;&gt;Node3 -->
<g id="edge39" class="edge">
<title>Node19&#45;&gt;Node3</title>
<path fill="none" stroke="midnightblue" d="M784.24,-179.45C814.77,-172.09 857.25,-159.98 892,-143 913.49,-132.5 914.04,-121.49 936,-112 984.81,-90.92 1044.05,-79.53 1088.75,-73.48"/>
<polygon fill="midnightblue" stroke="midnightblue" points="1089.46,-76.92 1098.93,-72.17 1088.56,-69.98 1089.46,-76.92"/>
</g>
<!-- Node19&#45;&gt;Node5 -->
<g id="edge40" class="edge">
<title>Node19&#45;&gt;Node5</title>
<path fill="none" stroke="midnightblue" d="M777.17,-179.5C807.62,-170.94 849.42,-157.03 859,-143 866.77,-131.62 868.33,-122.14 859,-112 828.21,-78.51 533.7,-69.93 394.82,-67.74"/>
<polygon fill="midnightblue" stroke="midnightblue" points="394.74,-64.24 384.69,-67.59 394.64,-71.24 394.74,-64.24"/>
</g>
<!-- Node19&#45;&gt;Node7 -->
<g id="edge41" class="edge">
<title>Node19&#45;&gt;Node7</title>
<path fill="none" stroke="midnightblue" d="M780.39,-179.48C820.56,-170.07 885.96,-154.75 934.59,-143.35"/>
<polygon fill="midnightblue" stroke="midnightblue" points="935.45,-146.75 944.39,-141.06 933.86,-139.93 935.45,-146.75"/>
</g>
<!-- Node20&#45;&gt;Node2 -->
<g id="edge43" class="edge">
<title>Node20&#45;&gt;Node2</title>
<path fill="none" stroke="midnightblue" d="M1051.32,-408.98C979.44,-401.29 792.94,-380.63 732,-367 495.8,-314.19 421.74,-323.18 214,-199 182.97,-180.45 169.92,-175.93 155,-143 146.84,-125 147.2,-102.07 148.9,-86.12"/>
<polygon fill="midnightblue" stroke="midnightblue" points="152.41,-86.3 150.28,-75.92 145.47,-85.36 152.41,-86.3"/>
</g>
<!-- Node20&#45;&gt;Node3 -->
<g id="edge44" class="edge">
<title>Node20&#45;&gt;Node3</title>
<path fill="none" stroke="midnightblue" d="M1108.6,-409.29C1139.93,-405.01 1190.22,-394.16 1224,-367 1267.37,-332.12 1268.32,-309.41 1280,-255 1293.57,-191.76 1297.85,-158.61 1253,-112 1238.2,-96.62 1217.13,-85.98 1198.41,-78.92"/>
<polygon fill="midnightblue" stroke="midnightblue" points="1199.47,-75.59 1188.88,-75.55 1197.14,-82.19 1199.47,-75.59"/>
</g>
<!-- Node20&#45;&gt;Node5 -->
<g id="edge45" class="edge">
<title>Node20&#45;&gt;Node5</title>
<path fill="none" stroke="midnightblue" d="M1051.2,-409.58C1000.31,-404.82 891.51,-392.39 803,-367 617.65,-313.84 568.41,-298.09 403,-199 369.12,-178.7 353.5,-177.35 334,-143 324.04,-125.46 322.01,-102.11 322.02,-85.94"/>
<polygon fill="midnightblue" stroke="midnightblue" points="325.52,-85.72 322.3,-75.62 318.53,-85.53 325.52,-85.72"/>
</g>
<!-- Node20&#45;&gt;Node7 -->
<g id="edge46" class="edge">
<title>Node20&#45;&gt;Node7</title>
<path fill="none" stroke="midnightblue" d="M1079.61,-403.44C1078.79,-384.94 1077,-339.83 1077,-302 1077,-302 1077,-302 1077,-244 1077,-205.59 1046.86,-170.56 1023.81,-149.39"/>
<polygon fill="midnightblue" stroke="midnightblue" points="1026.13,-146.77 1016.32,-142.76 1021.49,-152.01 1026.13,-146.77"/>
</g>
<!-- Node20&#45;&gt;Node8 -->
<g id="edge48" class="edge">
<title>Node20&#45;&gt;Node8</title>
<path fill="none" stroke="midnightblue" d="M1071.25,-403.08C1063.53,-395.22 1052.1,-383.57 1042.78,-374.08"/>
<polygon fill="midnightblue" stroke="midnightblue" points="1045.09,-371.44 1035.59,-366.75 1040.1,-376.34 1045.09,-371.44"/>
</g>
<!-- Node20&#45;&gt;Node21 -->
<g id="edge47" class="edge">
<title>Node20&#45;&gt;Node21</title>
<path fill="none" stroke="midnightblue" d="M1108.88,-405.16C1147.42,-396.03 1216.13,-379.76 1261.89,-368.92"/>
<polygon fill="midnightblue" stroke="midnightblue" points="1262.93,-372.27 1271.85,-366.56 1261.32,-365.46 1262.93,-372.27"/>
</g>
<!-- Node22 -->
<g id="node22" class="node">
<title>Node22</title>
<g id="a_node22"><a xlink:href="../../da/d19/month__impl_8h.html" target="_top" xlink:title=" ">
<polygon fill="none" stroke="black" points="1105.5,-347.5 1105.5,-366.5 1214.5,-366.5 1214.5,-347.5 1105.5,-347.5"/>
<text text-anchor="middle" x="1160" y="-354.5" font-family="Helvetica,sans-Serif" font-size="10.00">impl/month_impl.h</text>
</a>
</g>
</g>
<!-- Node20&#45;&gt;Node22 -->
<g id="edge49" class="edge">
<title>Node20&#45;&gt;Node22</title>
<path fill="none" stroke="midnightblue" d="M1092.85,-403.32C1105.22,-394.98 1124.13,-382.21 1138.74,-372.35"/>
<polygon fill="midnightblue" stroke="midnightblue" points="1140.85,-375.15 1147.18,-366.65 1136.93,-369.35 1140.85,-375.15"/>
</g>
<!-- Node22&#45;&gt;Node3 -->
<g id="edge50" class="edge">
<title>Node22&#45;&gt;Node3</title>
<path fill="none" stroke="midnightblue" d="M1178.64,-347.44C1209.29,-331.93 1267,-296.09 1267,-246 1267,-246 1267,-246 1267,-188 1267,-138.18 1215.28,-100 1182.45,-80.77"/>
<polygon fill="midnightblue" stroke="midnightblue" points="1183.77,-77.51 1173.34,-75.64 1180.34,-83.6 1183.77,-77.51"/>
</g>
<!-- Node22&#45;&gt;Node6 -->
<g id="edge51" class="edge">
<title>Node22&#45;&gt;Node6</title>
<path fill="none" stroke="midnightblue" d="M1211.52,-347.49C1275.1,-335.14 1384.52,-307.73 1464,-255 1496.02,-233.76 1521,-228.42 1521,-190 1521,-190 1521,-190 1521,-126.5 1521,-53.01 977.5,-21.92 793.25,-13.5"/>
<polygon fill="midnightblue" stroke="midnightblue" points="793.34,-10 783.19,-13.04 793.02,-16.99 793.34,-10"/>
</g>
<!-- Node22&#45;&gt;Node10 -->
<g id="edge52" class="edge">
<title>Node22&#45;&gt;Node10</title>
<path fill="none" stroke="midnightblue" d="M1112.62,-347.44C1059.92,-337.92 974.77,-322.55 918.34,-312.36"/>
<polygon fill="midnightblue" stroke="midnightblue" points="918.62,-308.85 908.16,-310.52 917.37,-315.74 918.62,-308.85"/>
</g>
<!-- Node22&#45;&gt;Node19 -->
<g id="edge53" class="edge">
<title>Node22&#45;&gt;Node19</title>
<path fill="none" stroke="midnightblue" d="M1132.57,-347.44C1091.35,-334.66 1010.9,-310.06 942,-291 879.66,-273.76 856.12,-288.83 801,-255 781.48,-243.02 764.98,-222.23 754.84,-207.39"/>
<polygon fill="midnightblue" stroke="midnightblue" points="757.52,-205.1 749.12,-198.65 751.66,-208.93 757.52,-205.1"/>
</g>
<!-- Node23&#45;&gt;Node3 -->
<g id="edge61" class="edge">
<title>Node23&#45;&gt;Node3</title>
<path fill="none" stroke="midnightblue" d="M1391.64,-235.37C1384.73,-211.77 1362.25,-145.69 1319,-112 1291.73,-90.76 1255.06,-79.54 1223.4,-73.61"/>
<polygon fill="midnightblue" stroke="midnightblue" points="1223.77,-70.12 1213.32,-71.87 1222.58,-77.02 1223.77,-70.12"/>
</g>
<!-- Node23&#45;&gt;Node6 -->
<g id="edge62" class="edge">
<title>Node23&#45;&gt;Node6</title>
<path fill="none" stroke="midnightblue" d="M1394.43,-235.33C1394.78,-222.63 1394.43,-198.36 1388,-179 1377,-145.87 1373.21,-135.06 1347,-112 1301.29,-71.79 1280.88,-71.44 1222,-56 1071.37,-16.5 886.75,-10.46 793.33,-10.24"/>
<polygon fill="midnightblue" stroke="midnightblue" points="793.21,-6.74 783.21,-10.24 793.21,-13.74 793.21,-6.74"/>
</g>
<!-- Node23&#45;&gt;Node19 -->
<g id="edge60" class="edge">
<title>Node23&#45;&gt;Node19</title>
<path fill="none" stroke="midnightblue" d="M1332.8,-241.27C1224.47,-236.01 991.99,-222.85 797,-199 796.9,-198.99 796.8,-198.98 796.7,-198.96"/>
<polygon fill="midnightblue" stroke="midnightblue" points="797.43,-195.53 787.05,-197.65 796.49,-202.47 797.43,-195.53"/>
</g>
</g>
</svg>
