<?xml version="1.0" encoding="UTF-8" standalone="no"?>
<!DOCTYPE svg PUBLIC "-//W3C//DTD SVG 1.1//EN"
 "http://www.w3.org/Graphics/SVG/1.1/DTD/svg11.dtd">
<!-- Generated by graphviz version 2.43.0 (0)
 -->
<!-- Title: weekday.h Pages: 1 -->
<!--zoomable 431 -->
<svg id="main" version="1.1" xmlns="http://www.w3.org/2000/svg" xmlns:xlink="http://www.w3.org/1999/xlink" xml:space="preserve" onload="init(evt)">
<style type="text/css"><![CDATA[
.edge:hover path { stroke: red; }
.edge:hover polygon { stroke: red; fill: red; }
]]></style>
<script type="text/javascript"><![CDATA[
var edges = document.getElementsByTagName('g');
if (edges && edges.length) {
  for (var i=0;i<edges.length;i++) {
    if (edges[i].id.substr(0,4)=='edge') {
      edges[i].setAttribute('class','edge');
    }
  }
}
]]></script>
        <defs>
                <circle id="rim" cx="0" cy="0" r="7"/>
                <circle id="rim2" cx="0" cy="0" r="3.5"/>
                <g id="zoomPlus">
                        <use xlink:href="#rim" fill="#404040">
                                <set attributeName="fill" to="#808080" begin="zoomplus.mouseover" end="zoomplus.mouseout"/>
                        </use>
                        <path d="M-4,0h8M0,-4v8" fill="none" stroke="white" stroke-width="1.5" pointer-events="none"/>
                </g>
                <g id="zoomMin">
                        <use xlink:href="#rim" fill="#404040">
                                <set attributeName="fill" to="#808080" begin="zoomminus.mouseover" end="zoomminus.mouseout"/>
                        </use>
                        <path d="M-4,0h8" fill="none" stroke="white" stroke-width="1.5" pointer-events="none"/>
                </g>
                <g id="dirArrow">
                        <path fill="none" stroke="white" stroke-width="1.5" d="M0,-3.0v7 M-2.5,-0.5L0,-3.0L2.5,-0.5"/>
                </g>
               <g id="resetDef">
                       <use xlink:href="#rim2" fill="#404040">
                               <set attributeName="fill" to="#808080" begin="reset.mouseover" end="reset.mouseout"/>
                       </use>
               </g>
        </defs>

<script type="text/javascript">
var viewWidth = 1405;
var viewHeight = 431;
var sectionId = 'dynsection-0';
</script>
<script xlink:href="../../svgpan.js"/>
<svg id="graph" class="graph">
<g id="viewport">
<title>weekday.h</title>
<!-- Node1 -->
<g id="node1" class="node">
<title>Node1</title>
<g id="a_node1"><a xlink:title=" ">
<polygon fill="#bfbfbf" stroke="black" points="707,-403.5 707,-422.5 775,-422.5 775,-403.5 707,-403.5"/>
<text text-anchor="middle" x="741" y="-410.5" font-family="Helvetica,sans-Serif" font-size="10.00">weekday.h</text>
</a>
</g>
</g>
<!-- Node2 -->
<g id="node2" class="node">
<title>Node2</title>
<g id="a_node2"><a xlink:title=" ">
<polygon fill="none" stroke="#bfbfbf" points="573.5,-56.5 573.5,-75.5 662.5,-75.5 662.5,-56.5 573.5,-56.5"/>
<text text-anchor="middle" x="618" y="-63.5" font-family="Helvetica,sans-Serif" font-size="10.00">limes_export.h</text>
</a>
</g>
</g>
<!-- Node1&#45;&gt;Node2 -->
<g id="edge1" class="edge">
<title>Node1&#45;&gt;Node2</title>
<path fill="none" stroke="midnightblue" d="M706.64,-411.29C601.53,-408.78 289.58,-398.7 258,-367 173.59,-282.26 241.5,-173.64 344,-112 380,-90.35 494,-77.32 563.09,-71.21"/>
<polygon fill="midnightblue" stroke="midnightblue" points="563.7,-74.67 573.36,-70.32 563.1,-67.69 563.7,-74.67"/>
</g>
<!-- Node3 -->
<g id="node3" class="node">
<title>Node3</title>
<g id="a_node3"><a xlink:href="../../da/d0b/limes__namespace_8h.html" target="_top" xlink:title=" ">
<polygon fill="none" stroke="black" points="1080,-56.5 1080,-75.5 1194,-75.5 1194,-56.5 1080,-56.5"/>
<text text-anchor="middle" x="1137" y="-63.5" font-family="Helvetica,sans-Serif" font-size="10.00">limes_namespace.h</text>
</a>
</g>
</g>
<!-- Node1&#45;&gt;Node3 -->
<g id="edge2" class="edge">
<title>Node1&#45;&gt;Node3</title>
<path fill="none" stroke="midnightblue" d="M775.27,-411.5C853.33,-409.76 1049.97,-401.96 1210,-367 1295.96,-348.22 1397,-389.99 1397,-302 1397,-302 1397,-302 1397,-244 1397,-144.71 1265.82,-97.17 1189.82,-77.96"/>
<polygon fill="midnightblue" stroke="midnightblue" points="1190.48,-74.52 1179.93,-75.54 1188.82,-81.32 1190.48,-74.52"/>
</g>
<!-- Node4 -->
<g id="node4" class="node">
<title>Node4</title>
<g id="a_node4"><a xlink:href="../../d5/d98/year_8h.html" target="_top" xlink:title=" ">
<polygon fill="none" stroke="black" points="266.5,-347.5 266.5,-366.5 313.5,-366.5 313.5,-347.5 266.5,-347.5"/>
<text text-anchor="middle" x="290" y="-354.5" font-family="Helvetica,sans-Serif" font-size="10.00">year.h</text>
</a>
</g>
</g>
<!-- Node1&#45;&gt;Node4 -->
<g id="edge3" class="edge">
<title>Node1&#45;&gt;Node4</title>
<path fill="none" stroke="midnightblue" d="M706.73,-407.9C622.66,-397.83 406.97,-372.01 323.6,-362.02"/>
<polygon fill="midnightblue" stroke="midnightblue" points="323.99,-358.55 313.65,-360.83 323.16,-365.5 323.99,-358.55"/>
</g>
<!-- Node5 -->
<g id="node5" class="node">
<title>Node5</title>
<g id="a_node5"><a xlink:href="../../d3/d53/preprocessor_8h.html" target="_top" xlink:title=" ">
<polygon fill="none" stroke="black" points="163.5,-56.5 163.5,-75.5 286.5,-75.5 286.5,-56.5 163.5,-56.5"/>
<text text-anchor="middle" x="225" y="-63.5" font-family="Helvetica,sans-Serif" font-size="10.00">../misc/preprocessor.h</text>
</a>
</g>
</g>
<!-- Node1&#45;&gt;Node5 -->
<g id="edge52" class="edge">
<title>Node1&#45;&gt;Node5</title>
<path fill="none" stroke="midnightblue" d="M706.71,-412.1C589.41,-412.05 205.05,-408.64 90,-367 43.6,-350.21 0,-351.34 0,-302 0,-302 0,-302 0,-188 0,-117.23 87.41,-87.67 153.26,-75.45"/>
<polygon fill="midnightblue" stroke="midnightblue" points="153.98,-78.88 163.22,-73.7 152.77,-71.98 153.98,-78.88"/>
</g>
<!-- Node7 -->
<g id="node7" class="node">
<title>Node7</title>
<g id="a_node7"><a xlink:href="../../d0/d00/compiler__defs_8h.html" target="_top" xlink:title=" ">
<polygon fill="none" stroke="black" points="66.5,-112.5 66.5,-142.5 173.5,-142.5 173.5,-112.5 66.5,-112.5"/>
<text text-anchor="start" x="74.5" y="-130.5" font-family="Helvetica,sans-Serif" font-size="10.00">../system/compiler</text>
<text text-anchor="middle" x="120" y="-119.5" font-family="Helvetica,sans-Serif" font-size="10.00">_defs.h</text>
</a>
</g>
</g>
<!-- Node1&#45;&gt;Node7 -->
<g id="edge53" class="edge">
<title>Node1&#45;&gt;Node7</title>
<path fill="none" stroke="midnightblue" d="M706.69,-411.69C582.29,-410.27 159.71,-402.84 112,-367 87.38,-348.5 88,-332.8 88,-302 88,-302 88,-302 88,-244 88,-211.19 100.14,-174.99 109.46,-152.01"/>
<polygon fill="midnightblue" stroke="midnightblue" points="112.71,-153.31 113.37,-142.73 106.26,-150.59 112.71,-153.31"/>
</g>
<!-- Node8 -->
<g id="node8" class="node">
<title>Node8</title>
<g id="a_node8"><a xlink:title=" ">
<polygon fill="none" stroke="#bfbfbf" points="268,-291.5 268,-310.5 312,-310.5 312,-291.5 268,-291.5"/>
<text text-anchor="middle" x="290" y="-298.5" font-family="Helvetica,sans-Serif" font-size="10.00">ctime</text>
</a>
</g>
</g>
<!-- Node1&#45;&gt;Node8 -->
<g id="edge56" class="edge">
<title>Node1&#45;&gt;Node8</title>
<path fill="none" stroke="midnightblue" d="M706.82,-403.76C635.84,-386.62 467.29,-345.85 326,-311 324.73,-310.69 323.44,-310.37 322.14,-310.05"/>
<polygon fill="midnightblue" stroke="midnightblue" points="322.63,-306.56 312.08,-307.54 320.94,-313.35 322.63,-306.56"/>
</g>
<!-- Node12 -->
<g id="node12" class="node">
<title>Node12</title>
<g id="a_node12"><a xlink:title=" ">
<polygon fill="none" stroke="#bfbfbf" points="944.5,-118 944.5,-137 1013.5,-137 1013.5,-118 944.5,-118"/>
<text text-anchor="middle" x="979" y="-125" font-family="Helvetica,sans-Serif" font-size="10.00">type_traits</text>
</a>
</g>
</g>
<!-- Node1&#45;&gt;Node12 -->
<g id="edge55" class="edge">
<title>Node1&#45;&gt;Node12</title>
<path fill="none" stroke="midnightblue" d="M775.22,-408.92C865.18,-400.03 1104.63,-371.06 1151,-311 1204.03,-242.3 1070.19,-169.94 1008.34,-141.27"/>
<polygon fill="midnightblue" stroke="midnightblue" points="1009.63,-138.01 999.08,-137.05 1006.73,-144.38 1009.63,-138.01"/>
</g>
<!-- Node19 -->
<g id="node19" class="node">
<title>Node19</title>
<g id="a_node19"><a xlink:href="../../d7/d38/month_8h.html" target="_top" xlink:title=" ">
<polygon fill="none" stroke="black" points="779.5,-347.5 779.5,-366.5 836.5,-366.5 836.5,-347.5 779.5,-347.5"/>
<text text-anchor="middle" x="808" y="-354.5" font-family="Helvetica,sans-Serif" font-size="10.00">month.h</text>
</a>
</g>
</g>
<!-- Node1&#45;&gt;Node19 -->
<g id="edge40" class="edge">
<title>Node1&#45;&gt;Node19</title>
<path fill="none" stroke="midnightblue" d="M751.76,-403.32C761.77,-395.26 776.89,-383.08 788.93,-373.37"/>
<polygon fill="midnightblue" stroke="midnightblue" points="791.45,-375.83 797.04,-366.83 787.06,-370.38 791.45,-375.83"/>
</g>
<!-- Node20 -->
<g id="node20" class="node">
<title>Node20</title>
<g id="a_node20"><a xlink:title=" ">
<polygon fill="none" stroke="#bfbfbf" points="1068.5,-291.5 1068.5,-310.5 1141.5,-310.5 1141.5,-291.5 1068.5,-291.5"/>
<text text-anchor="middle" x="1105" y="-298.5" font-family="Helvetica,sans-Serif" font-size="10.00">string_view</text>
</a>
</g>
</g>
<!-- Node1&#45;&gt;Node20 -->
<g id="edge54" class="edge">
<title>Node1&#45;&gt;Node20</title>
<path fill="none" stroke="midnightblue" d="M769.26,-403.46C834.11,-383.86 993.66,-335.65 1067,-313.48"/>
<polygon fill="midnightblue" stroke="midnightblue" points="1068.2,-316.78 1076.76,-310.53 1066.17,-310.08 1068.2,-316.78"/>
</g>
<!-- Node22 -->
<g id="node22" class="node">
<title>Node22</title>
<g id="a_node22"><a xlink:href="../../d4/d9a/weekday__impl_8h.html" target="_top" xlink:title=" ">
<polygon fill="none" stroke="black" points="1209,-235.5 1209,-254.5 1331,-254.5 1331,-235.5 1209,-235.5"/>
<text text-anchor="middle" x="1270" y="-242.5" font-family="Helvetica,sans-Serif" font-size="10.00">impl/weekday_impl.h</text>
</a>
</g>
</g>
<!-- Node1&#45;&gt;Node22 -->
<g id="edge57" class="edge">
<title>Node1&#45;&gt;Node22</title>
<path fill="none" stroke="midnightblue" d="M775.21,-412.11C866.69,-411.85 1114.68,-407.34 1184,-367 1224.71,-343.31 1251.12,-291.78 1262.9,-264.24"/>
<polygon fill="midnightblue" stroke="midnightblue" points="1266.28,-265.23 1266.82,-254.65 1259.8,-262.58 1266.28,-265.23"/>
</g>
<!-- Node4&#45;&gt;Node2 -->
<g id="edge4" class="edge">
<title>Node4&#45;&gt;Node2</title>
<path fill="none" stroke="midnightblue" d="M281.18,-347.46C269.75,-335.31 252.05,-312.14 259,-291 289.88,-197.1 307.54,-164.97 391,-112 443.09,-78.94 514.38,-69.35 563.08,-66.97"/>
<polygon fill="midnightblue" stroke="midnightblue" points="563.27,-70.46 573.12,-66.56 562.98,-63.47 563.27,-70.46"/>
</g>
<!-- Node4&#45;&gt;Node3 -->
<g id="edge5" class="edge">
<title>Node4&#45;&gt;Node3</title>
<path fill="none" stroke="midnightblue" d="M313.55,-355.63C379.63,-354.15 572.07,-346.83 727,-311 867.69,-278.46 903.07,-264.04 1032,-199 1072.39,-178.62 1090.61,-179.75 1117,-143 1129.16,-126.07 1133.93,-102.29 1135.8,-85.85"/>
<polygon fill="midnightblue" stroke="midnightblue" points="1139.29,-86.1 1136.68,-75.83 1132.32,-85.48 1139.29,-86.1"/>
</g>
<!-- Node4&#45;&gt;Node5 -->
<g id="edge6" class="edge">
<title>Node4&#45;&gt;Node5</title>
<path fill="none" stroke="midnightblue" d="M267.9,-347.37C249.45,-339.53 223.02,-326.8 203,-311 125.57,-249.9 92.38,-235.45 58,-143 53.2,-130.09 49.62,-122.94 58,-112 70.08,-96.23 114.27,-84.75 154.16,-77.32"/>
<polygon fill="midnightblue" stroke="midnightblue" points="154.96,-80.74 164.18,-75.53 153.72,-73.85 154.96,-80.74"/>
</g>
<!-- Node4&#45;&gt;Node7 -->
<g id="edge8" class="edge">
<title>Node4&#45;&gt;Node7</title>
<path fill="none" stroke="midnightblue" d="M274.6,-347.36C260.85,-339.17 240.67,-325.91 226,-311 183.82,-268.11 178.8,-251.81 150,-199 141.75,-183.87 134.17,-166 128.69,-152.03"/>
<polygon fill="midnightblue" stroke="midnightblue" points="131.94,-150.74 125.09,-142.65 125.4,-153.24 131.94,-150.74"/>
</g>
<!-- Node4&#45;&gt;Node8 -->
<g id="edge11" class="edge">
<title>Node4&#45;&gt;Node8</title>
<path fill="none" stroke="midnightblue" d="M290,-347.08C290,-340.01 290,-329.86 290,-320.99"/>
<polygon fill="midnightblue" stroke="midnightblue" points="293.5,-320.75 290,-310.75 286.5,-320.75 293.5,-320.75"/>
</g>
<!-- Node9 -->
<g id="node9" class="node">
<title>Node9</title>
<g id="a_node9"><a xlink:href="../../d2/d38/year__impl_8h.html" target="_top" xlink:title=" ">
<polygon fill="none" stroke="black" points="618.5,-291.5 618.5,-310.5 717.5,-310.5 717.5,-291.5 618.5,-291.5"/>
<text text-anchor="middle" x="668" y="-298.5" font-family="Helvetica,sans-Serif" font-size="10.00">impl/year_impl.h</text>
</a>
</g>
</g>
<!-- Node4&#45;&gt;Node9 -->
<g id="edge12" class="edge">
<title>Node4&#45;&gt;Node9</title>
<path fill="none" stroke="midnightblue" d="M313.65,-352.62C371.89,-344.3 523.68,-322.62 608.48,-310.5"/>
<polygon fill="midnightblue" stroke="midnightblue" points="609.08,-313.95 618.48,-309.07 608.09,-307.02 609.08,-313.95"/>
</g>
<!-- Node6 -->
<g id="node6" class="node">
<title>Node6</title>
<g id="a_node6"><a xlink:title=" ">
<polygon fill="none" stroke="#bfbfbf" points="805,-0.5 805,-19.5 905,-19.5 905,-0.5 805,-0.5"/>
<text text-anchor="middle" x="855" y="-7.5" font-family="Helvetica,sans-Serif" font-size="10.00">limes_platform.h</text>
</a>
</g>
</g>
<!-- Node5&#45;&gt;Node6 -->
<g id="edge7" class="edge">
<title>Node5&#45;&gt;Node6</title>
<path fill="none" stroke="midnightblue" d="M286.55,-59.72C407.5,-49.36 674.76,-26.45 794.69,-16.17"/>
<polygon fill="midnightblue" stroke="midnightblue" points="795.13,-19.64 804.79,-15.3 794.53,-12.67 795.13,-19.64"/>
</g>
<!-- Node7&#45;&gt;Node5 -->
<g id="edge10" class="edge">
<title>Node7&#45;&gt;Node5</title>
<path fill="none" stroke="midnightblue" d="M144.88,-112.4C161.71,-102.86 183.84,-90.32 200.57,-80.84"/>
<polygon fill="midnightblue" stroke="midnightblue" points="202.75,-83.63 209.72,-75.66 199.3,-77.54 202.75,-83.63"/>
</g>
<!-- Node7&#45;&gt;Node6 -->
<g id="edge9" class="edge">
<title>Node7&#45;&gt;Node6</title>
<path fill="none" stroke="midnightblue" d="M122.65,-112.33C126.57,-95.73 135.66,-68.87 155,-56 207.58,-21.02 634.59,-13.18 794.68,-11.47"/>
<polygon fill="midnightblue" stroke="midnightblue" points="794.87,-14.97 804.83,-11.36 794.8,-7.97 794.87,-14.97"/>
</g>
<!-- Node9&#45;&gt;Node3 -->
<g id="edge13" class="edge">
<title>Node9&#45;&gt;Node3</title>
<path fill="none" stroke="midnightblue" d="M685.67,-291.47C713.95,-278.07 771.34,-251.87 822,-235 941.89,-195.09 996.45,-226.82 1091,-143 1109.16,-126.9 1122.37,-101.88 1129.86,-84.99"/>
<polygon fill="midnightblue" stroke="midnightblue" points="1133.13,-86.25 1133.78,-75.67 1126.67,-83.54 1133.13,-86.25"/>
</g>
<!-- Node10 -->
<g id="node10" class="node">
<title>Node10</title>
<g id="a_node10"><a xlink:href="../../dd/dfb/math_helpers_8h.html" target="_top" xlink:title=" ">
<polygon fill="none" stroke="black" points="509.5,-235.5 509.5,-254.5 644.5,-254.5 644.5,-235.5 509.5,-235.5"/>
<text text-anchor="middle" x="577" y="-242.5" font-family="Helvetica,sans-Serif" font-size="10.00">../../math/mathHelpers.h</text>
</a>
</g>
</g>
<!-- Node9&#45;&gt;Node10 -->
<g id="edge14" class="edge">
<title>Node9&#45;&gt;Node10</title>
<path fill="none" stroke="midnightblue" d="M653.38,-291.32C639.05,-282.82 616.99,-269.73 600.25,-259.8"/>
<polygon fill="midnightblue" stroke="midnightblue" points="601.97,-256.75 591.58,-254.65 598.4,-262.77 601.97,-256.75"/>
</g>
<!-- Node18 -->
<g id="node18" class="node">
<title>Node18</title>
<g id="a_node18"><a xlink:href="../../dc/db3/build__date_8h.html" target="_top" xlink:title=" ">
<polygon fill="none" stroke="black" points="760,-179.5 760,-198.5 846,-198.5 846,-179.5 760,-179.5"/>
<text text-anchor="middle" x="803" y="-186.5" font-family="Helvetica,sans-Serif" font-size="10.00">../build_date.h</text>
</a>
</g>
</g>
<!-- Node9&#45;&gt;Node18 -->
<g id="edge35" class="edge">
<title>Node9&#45;&gt;Node18</title>
<path fill="none" stroke="midnightblue" d="M678.59,-291.37C701.46,-272.73 755.71,-228.53 784.43,-205.13"/>
<polygon fill="midnightblue" stroke="midnightblue" points="786.91,-207.62 792.46,-198.59 782.49,-202.19 786.91,-207.62"/>
</g>
<!-- Node10&#45;&gt;Node2 -->
<g id="edge18" class="edge">
<title>Node10&#45;&gt;Node2</title>
<path fill="none" stroke="midnightblue" d="M517.34,-235.45C475.56,-228.1 424.98,-215.99 412,-199 388.53,-168.27 387.75,-142.12 412,-112 430.66,-88.83 508.65,-76.94 563.12,-71.35"/>
<polygon fill="midnightblue" stroke="midnightblue" points="563.73,-74.81 573.34,-70.35 563.05,-67.84 563.73,-74.81"/>
</g>
<!-- Node10&#45;&gt;Node3 -->
<g id="edge15" class="edge">
<title>Node10&#45;&gt;Node3</title>
<path fill="none" stroke="midnightblue" d="M644.53,-242.64C741.97,-237.95 924.9,-218.79 1058,-143 1084.9,-127.68 1109.51,-101.15 1123.88,-83.84"/>
<polygon fill="midnightblue" stroke="midnightblue" points="1126.86,-85.71 1130.42,-75.73 1121.41,-81.32 1126.86,-85.71"/>
</g>
<!-- Node10&#45;&gt;Node5 -->
<g id="edge34" class="edge">
<title>Node10&#45;&gt;Node5</title>
<path fill="none" stroke="midnightblue" d="M516.58,-235.43C480.33,-228.73 434.04,-217.4 396,-199 332.09,-168.08 269.19,-110.71 240.75,-82.91"/>
<polygon fill="midnightblue" stroke="midnightblue" points="242.94,-80.15 233.37,-75.6 238.01,-85.12 242.94,-80.15"/>
</g>
<!-- Node10&#45;&gt;Node7 -->
<g id="edge33" class="edge">
<title>Node10&#45;&gt;Node7</title>
<path fill="none" stroke="midnightblue" d="M521.51,-235.44C473.21,-227.52 401.49,-214.63 340,-199 280.19,-183.8 212.8,-161.4 168.55,-145.95"/>
<polygon fill="midnightblue" stroke="midnightblue" points="169.52,-142.58 158.92,-142.57 167.2,-149.19 169.52,-142.58"/>
</g>
<!-- Node11 -->
<g id="node11" class="node">
<title>Node11</title>
<g id="a_node11"><a xlink:title=" ">
<polygon fill="none" stroke="#bfbfbf" points="420.5,-179.5 420.5,-198.5 467.5,-198.5 467.5,-179.5 420.5,-179.5"/>
<text text-anchor="middle" x="444" y="-186.5" font-family="Helvetica,sans-Serif" font-size="10.00">cmath</text>
</a>
</g>
</g>
<!-- Node10&#45;&gt;Node11 -->
<g id="edge16" class="edge">
<title>Node10&#45;&gt;Node11</title>
<path fill="none" stroke="midnightblue" d="M555.93,-235.44C533.94,-226.52 499.27,-212.44 474.34,-202.32"/>
<polygon fill="midnightblue" stroke="midnightblue" points="475.56,-199.04 464.98,-198.52 472.92,-205.52 475.56,-199.04"/>
</g>
<!-- Node10&#45;&gt;Node12 -->
<g id="edge17" class="edge">
<title>Node10&#45;&gt;Node12</title>
<path fill="none" stroke="midnightblue" d="M607.51,-235.48C635.42,-227.31 677.64,-214.03 713,-199 730.56,-191.53 733.02,-185.39 751,-179 827.46,-151.83 851.24,-162.53 930,-143 933.86,-142.04 937.87,-140.98 941.87,-139.87"/>
<polygon fill="midnightblue" stroke="midnightblue" points="943,-143.18 951.65,-137.06 941.07,-136.45 943,-143.18"/>
</g>
<!-- Node13 -->
<g id="node13" class="node">
<title>Node13</title>
<g id="a_node13"><a xlink:title=" ">
<polygon fill="none" stroke="#bfbfbf" points="486,-179.5 486,-198.5 550,-198.5 550,-179.5 486,-179.5"/>
<text text-anchor="middle" x="518" y="-186.5" font-family="Helvetica,sans-Serif" font-size="10.00">algorithm</text>
</a>
</g>
</g>
<!-- Node10&#45;&gt;Node13 -->
<g id="edge19" class="edge">
<title>Node10&#45;&gt;Node13</title>
<path fill="none" stroke="midnightblue" d="M567.52,-235.32C558.8,-227.34 545.66,-215.31 535.1,-205.65"/>
<polygon fill="midnightblue" stroke="midnightblue" points="537.39,-203 527.65,-198.83 532.67,-208.17 537.39,-203"/>
</g>
<!-- Node14 -->
<g id="node14" class="node">
<title>Node14</title>
<g id="a_node14"><a xlink:href="../../d5/dbb/limes__assert_8h.html" target="_top" xlink:title=" ">
<polygon fill="none" stroke="black" points="568,-179.5 568,-198.5 704,-198.5 704,-179.5 568,-179.5"/>
<text text-anchor="middle" x="636" y="-186.5" font-family="Helvetica,sans-Serif" font-size="10.00">../system/limes_assert.h</text>
</a>
</g>
</g>
<!-- Node10&#45;&gt;Node14 -->
<g id="edge20" class="edge">
<title>Node10&#45;&gt;Node14</title>
<path fill="none" stroke="midnightblue" d="M586.48,-235.32C595.2,-227.34 608.34,-215.31 618.9,-205.65"/>
<polygon fill="midnightblue" stroke="midnightblue" points="621.33,-208.17 626.35,-198.83 616.61,-203 621.33,-208.17"/>
</g>
<!-- Node14&#45;&gt;Node2 -->
<g id="edge21" class="edge">
<title>Node14&#45;&gt;Node2</title>
<path fill="none" stroke="midnightblue" d="M634.71,-179.3C631.8,-159.76 624.7,-112.06 620.76,-85.55"/>
<polygon fill="midnightblue" stroke="midnightblue" points="624.22,-85 619.28,-75.62 617.29,-86.03 624.22,-85"/>
</g>
<!-- Node14&#45;&gt;Node3 -->
<g id="edge22" class="edge">
<title>Node14&#45;&gt;Node3</title>
<path fill="none" stroke="midnightblue" d="M703.84,-179.48C767.86,-170.84 858.82,-156.79 892,-143 914.09,-133.82 914.13,-121.69 936,-112 978.5,-93.17 1029.66,-81.86 1069.73,-75.29"/>
<polygon fill="midnightblue" stroke="midnightblue" points="1070.34,-78.74 1079.67,-73.72 1069.24,-71.83 1070.34,-78.74"/>
</g>
<!-- Node14&#45;&gt;Node5 -->
<g id="edge23" class="edge">
<title>Node14&#45;&gt;Node5</title>
<path fill="none" stroke="midnightblue" d="M578.19,-179.45C532.52,-171.97 467.46,-159.68 412,-143 353.56,-125.43 288.11,-96.6 252.21,-79.96"/>
<polygon fill="midnightblue" stroke="midnightblue" points="253.45,-76.67 242.91,-75.6 250.48,-83.01 253.45,-76.67"/>
</g>
<!-- Node14&#45;&gt;Node6 -->
<g id="edge30" class="edge">
<title>Node14&#45;&gt;Node6</title>
<path fill="none" stroke="midnightblue" d="M698.59,-179.47C760.92,-170.34 848.79,-155.47 859,-143 885.53,-110.58 872.15,-57.18 862.31,-29.28"/>
<polygon fill="midnightblue" stroke="midnightblue" points="865.48,-27.75 858.69,-19.62 858.93,-30.21 865.48,-27.75"/>
</g>
<!-- Node14&#45;&gt;Node7 -->
<g id="edge32" class="edge">
<title>Node14&#45;&gt;Node7</title>
<path fill="none" stroke="midnightblue" d="M567.98,-180.04C564.95,-179.69 561.94,-179.34 559,-179 425.54,-163.52 269.23,-145.59 183.79,-135.8"/>
<polygon fill="midnightblue" stroke="midnightblue" points="184.06,-132.31 173.73,-134.65 183.27,-139.26 184.06,-132.31"/>
</g>
<!-- Node14&#45;&gt;Node12 -->
<g id="edge24" class="edge">
<title>Node14&#45;&gt;Node12</title>
<path fill="none" stroke="midnightblue" d="M704.22,-180.23C764.12,-172.77 853.4,-160.11 930,-143 934.14,-142.08 938.44,-140.99 942.7,-139.84"/>
<polygon fill="midnightblue" stroke="midnightblue" points="943.8,-143.16 952.47,-137.07 941.89,-136.43 943.8,-143.16"/>
</g>
<!-- Node15 -->
<g id="node15" class="node">
<title>Node15</title>
<g id="a_node15"><a xlink:title=" ">
<polygon fill="none" stroke="#bfbfbf" points="420.5,-118 420.5,-137 465.5,-137 465.5,-118 420.5,-118"/>
<text text-anchor="middle" x="443" y="-125" font-family="Helvetica,sans-Serif" font-size="10.00">utility</text>
</a>
</g>
</g>
<!-- Node14&#45;&gt;Node15 -->
<g id="edge25" class="edge">
<title>Node14&#45;&gt;Node15</title>
<path fill="none" stroke="midnightblue" d="M599.37,-179.46C566.41,-171.38 516.86,-158.23 475,-143 473.38,-142.41 471.74,-141.78 470.08,-141.11"/>
<polygon fill="midnightblue" stroke="midnightblue" points="471.31,-137.83 460.74,-137.12 468.56,-144.27 471.31,-137.83"/>
</g>
<!-- Node16 -->
<g id="node16" class="node">
<title>Node16</title>
<g id="a_node16"><a xlink:href="../../d1/d57/_ignore_unused_8h.html" target="_top" xlink:title=" ">
<polygon fill="none" stroke="black" points="722,-118 722,-137 850,-137 850,-118 722,-118"/>
<text text-anchor="middle" x="786" y="-125" font-family="Helvetica,sans-Serif" font-size="10.00">../misc/IgnoreUnused.h</text>
</a>
</g>
</g>
<!-- Node14&#45;&gt;Node16 -->
<g id="edge26" class="edge">
<title>Node14&#45;&gt;Node16</title>
<path fill="none" stroke="midnightblue" d="M657.49,-179.48C683.11,-169.31 726.11,-152.26 755.24,-140.7"/>
<polygon fill="midnightblue" stroke="midnightblue" points="756.54,-143.95 764.55,-137.01 753.96,-137.44 756.54,-143.95"/>
</g>
<!-- Node17 -->
<g id="node17" class="node">
<title>Node17</title>
<g id="a_node17"><a xlink:title=" ">
<polygon fill="none" stroke="#bfbfbf" points="484,-118 484,-137 552,-137 552,-118 484,-118"/>
<text text-anchor="middle" x="518" y="-125" font-family="Helvetica,sans-Serif" font-size="10.00">filesystem</text>
</a>
</g>
</g>
<!-- Node14&#45;&gt;Node17 -->
<g id="edge31" class="edge">
<title>Node14&#45;&gt;Node17</title>
<path fill="none" stroke="midnightblue" d="M619.09,-179.48C599.47,-169.58 566.87,-153.14 544.01,-141.62"/>
<polygon fill="midnightblue" stroke="midnightblue" points="545.38,-138.39 534.88,-137.01 542.23,-144.64 545.38,-138.39"/>
</g>
<!-- Node16&#45;&gt;Node2 -->
<g id="edge27" class="edge">
<title>Node16&#45;&gt;Node2</title>
<path fill="none" stroke="midnightblue" d="M761.93,-117.98C732.99,-107.72 684.24,-90.46 651.6,-78.9"/>
<polygon fill="midnightblue" stroke="midnightblue" points="652.62,-75.55 642.03,-75.51 650.28,-82.15 652.62,-75.55"/>
</g>
<!-- Node16&#45;&gt;Node3 -->
<g id="edge28" class="edge">
<title>Node16&#45;&gt;Node3</title>
<path fill="none" stroke="midnightblue" d="M836.29,-117.98C899.76,-107.22 1008.81,-88.73 1076.69,-77.22"/>
<polygon fill="midnightblue" stroke="midnightblue" points="1077.53,-80.63 1086.8,-75.51 1076.36,-73.73 1077.53,-80.63"/>
</g>
<!-- Node16&#45;&gt;Node6 -->
<g id="edge29" class="edge">
<title>Node16&#45;&gt;Node6</title>
<path fill="none" stroke="midnightblue" d="M791.19,-117.82C802.47,-98.92 829.46,-53.75 844.47,-28.62"/>
<polygon fill="midnightblue" stroke="midnightblue" points="847.63,-30.16 849.75,-19.78 841.62,-26.57 847.63,-30.16"/>
</g>
<!-- Node18&#45;&gt;Node2 -->
<g id="edge36" class="edge">
<title>Node18&#45;&gt;Node2</title>
<path fill="none" stroke="midnightblue" d="M763.87,-179.43C738.33,-172.51 705.19,-160.93 680,-143 657.97,-127.32 639.41,-101.84 628.49,-84.76"/>
<polygon fill="midnightblue" stroke="midnightblue" points="631.21,-82.49 622.98,-75.81 625.25,-86.16 631.21,-82.49"/>
</g>
<!-- Node18&#45;&gt;Node3 -->
<g id="edge37" class="edge">
<title>Node18&#45;&gt;Node3</title>
<path fill="none" stroke="midnightblue" d="M846.39,-184.56C891.97,-179.71 964.98,-168.44 1023,-143 1044.58,-133.54 1046.49,-125.2 1066,-112 1081.96,-101.2 1100.35,-89.57 1114.42,-80.83"/>
<polygon fill="midnightblue" stroke="midnightblue" points="1116.3,-83.79 1122.96,-75.55 1112.62,-77.83 1116.3,-83.79"/>
</g>
<!-- Node18&#45;&gt;Node5 -->
<g id="edge38" class="edge">
<title>Node18&#45;&gt;Node5</title>
<path fill="none" stroke="midnightblue" d="M770.4,-179.49C738.3,-170.93 687.98,-157.03 645,-143 607.17,-130.65 599.62,-121.59 561,-112 471.49,-89.78 365.66,-77.9 297.03,-72.03"/>
<polygon fill="midnightblue" stroke="midnightblue" points="297.02,-68.52 286.77,-71.17 296.44,-75.49 297.02,-68.52"/>
</g>
<!-- Node18&#45;&gt;Node7 -->
<g id="edge39" class="edge">
<title>Node18&#45;&gt;Node7</title>
<path fill="none" stroke="midnightblue" d="M759.98,-183.57C745.1,-182.07 728.32,-180.42 713,-179 520.39,-161.17 292.36,-142.41 183.72,-133.62"/>
<polygon fill="midnightblue" stroke="midnightblue" points="183.83,-130.11 173.58,-132.8 183.27,-137.09 183.83,-130.11"/>
</g>
<!-- Node19&#45;&gt;Node2 -->
<g id="edge41" class="edge">
<title>Node19&#45;&gt;Node2</title>
<path fill="none" stroke="midnightblue" d="M815.05,-347.22C836.43,-319.49 896.59,-232.45 855,-179 815.02,-127.62 770.55,-173.44 713,-143 694.63,-133.28 694.1,-125.13 678,-112 665.13,-101.51 650.2,-90.3 638.45,-81.7"/>
<polygon fill="midnightblue" stroke="midnightblue" points="640.32,-78.73 630.17,-75.68 636.2,-84.39 640.32,-78.73"/>
</g>
<!-- Node19&#45;&gt;Node3 -->
<g id="edge42" class="edge">
<title>Node19&#45;&gt;Node3</title>
<path fill="none" stroke="midnightblue" d="M836.57,-352.43C878.07,-346.68 957.06,-333.69 1021,-311 1039.36,-304.48 1042.51,-299.57 1060,-291 1093.92,-274.38 1106.58,-277.4 1137,-255 1191.33,-214.99 1215.75,-173.5 1188,-112 1182.38,-99.56 1171.44,-89.17 1161.12,-81.53"/>
<polygon fill="midnightblue" stroke="midnightblue" points="1162.96,-78.54 1152.73,-75.76 1158.99,-84.31 1162.96,-78.54"/>
</g>
<!-- Node19&#45;&gt;Node5 -->
<g id="edge43" class="edge">
<title>Node19&#45;&gt;Node5</title>
<path fill="none" stroke="midnightblue" d="M779.33,-351.3C740.38,-344.5 668.88,-330.57 610,-311 493.69,-272.35 466.29,-256.4 358,-199 316.38,-176.94 300.61,-177 268,-143 251.82,-126.13 239.53,-102 232.31,-85.49"/>
<polygon fill="midnightblue" stroke="midnightblue" points="235.39,-83.77 228.31,-75.88 228.93,-86.46 235.39,-83.77"/>
</g>
<!-- Node19&#45;&gt;Node7 -->
<g id="edge44" class="edge">
<title>Node19&#45;&gt;Node7</title>
<path fill="none" stroke="midnightblue" d="M779.34,-355.09C693.6,-352.06 440.34,-340.75 364,-311 315.11,-291.95 195.46,-192.82 144.08,-149.17"/>
<polygon fill="midnightblue" stroke="midnightblue" points="146.33,-146.49 136.44,-142.67 141.79,-151.82 146.33,-146.49"/>
</g>
<!-- Node19&#45;&gt;Node8 -->
<g id="edge46" class="edge">
<title>Node19&#45;&gt;Node8</title>
<path fill="none" stroke="midnightblue" d="M779.28,-354.84C704.27,-351.49 496.46,-340.09 326,-311 324.75,-310.79 323.48,-310.55 322.2,-310.3"/>
<polygon fill="midnightblue" stroke="midnightblue" points="322.87,-306.87 312.36,-308.15 321.38,-313.71 322.87,-306.87"/>
</g>
<!-- Node19&#45;&gt;Node20 -->
<g id="edge45" class="edge">
<title>Node19&#45;&gt;Node20</title>
<path fill="none" stroke="midnightblue" d="M836.75,-350.77C888.18,-341.42 996.38,-321.75 1058.5,-310.45"/>
<polygon fill="midnightblue" stroke="midnightblue" points="1059.22,-313.88 1068.43,-308.65 1057.96,-306.99 1059.22,-313.88"/>
</g>
<!-- Node21 -->
<g id="node21" class="node">
<title>Node21</title>
<g id="a_node21"><a xlink:href="../../da/d19/month__impl_8h.html" target="_top" xlink:title=" ">
<polygon fill="none" stroke="black" points="902.5,-291.5 902.5,-310.5 1011.5,-310.5 1011.5,-291.5 902.5,-291.5"/>
<text text-anchor="middle" x="957" y="-298.5" font-family="Helvetica,sans-Serif" font-size="10.00">impl/month_impl.h</text>
</a>
</g>
</g>
<!-- Node19&#45;&gt;Node21 -->
<g id="edge47" class="edge">
<title>Node19&#45;&gt;Node21</title>
<path fill="none" stroke="midnightblue" d="M831.61,-347.44C856.46,-338.44 895.77,-324.19 923.75,-314.05"/>
<polygon fill="midnightblue" stroke="midnightblue" points="925.29,-317.21 933.5,-310.52 922.91,-310.63 925.29,-317.21"/>
</g>
<!-- Node21&#45;&gt;Node3 -->
<g id="edge48" class="edge">
<title>Node21&#45;&gt;Node3</title>
<path fill="none" stroke="midnightblue" d="M1009.15,-291.5C1060.08,-280.12 1134.89,-254.51 1170,-199 1190.67,-166.32 1182.03,-148.75 1170,-112 1166.51,-101.34 1159.43,-91.12 1152.71,-83.12"/>
<polygon fill="midnightblue" stroke="midnightblue" points="1155.3,-80.76 1146.02,-75.66 1150.1,-85.44 1155.3,-80.76"/>
</g>
<!-- Node21&#45;&gt;Node6 -->
<g id="edge49" class="edge">
<title>Node21&#45;&gt;Node6</title>
<path fill="none" stroke="midnightblue" d="M1011.76,-294.51C1116.32,-283.9 1334.59,-261.08 1340,-255 1345.91,-248.36 1341.8,-243.71 1340,-235 1321.32,-144.45 1316.62,-97.51 1234,-56 1179.57,-28.66 1007.83,-17.38 915.36,-13.19"/>
<polygon fill="midnightblue" stroke="midnightblue" points="915.45,-9.69 905.31,-12.75 915.15,-16.69 915.45,-9.69"/>
</g>
<!-- Node21&#45;&gt;Node10 -->
<g id="edge50" class="edge">
<title>Node21&#45;&gt;Node10</title>
<path fill="none" stroke="midnightblue" d="M902.15,-292.21C834.82,-282.64 720.54,-266.4 646.95,-255.94"/>
<polygon fill="midnightblue" stroke="midnightblue" points="647.24,-252.45 636.85,-254.5 646.26,-259.38 647.24,-252.45"/>
</g>
<!-- Node21&#45;&gt;Node18 -->
<g id="edge51" class="edge">
<title>Node21&#45;&gt;Node18</title>
<path fill="none" stroke="midnightblue" d="M944.92,-291.37C918.6,-272.57 855.88,-227.77 823.35,-204.53"/>
<polygon fill="midnightblue" stroke="midnightblue" points="825.2,-201.56 815.03,-198.59 821.13,-207.25 825.2,-201.56"/>
</g>
<!-- Node22&#45;&gt;Node3 -->
<g id="edge59" class="edge">
<title>Node22&#45;&gt;Node3</title>
<path fill="none" stroke="midnightblue" d="M1271.03,-235.47C1273.29,-212.66 1276.3,-149.5 1246,-112 1232.85,-95.72 1212.82,-85.27 1193.5,-78.58"/>
<polygon fill="midnightblue" stroke="midnightblue" points="1194.4,-75.19 1183.81,-75.51 1192.28,-81.87 1194.4,-75.19"/>
</g>
<!-- Node22&#45;&gt;Node6 -->
<g id="edge60" class="edge">
<title>Node22&#45;&gt;Node6</title>
<path fill="none" stroke="midnightblue" d="M1273.86,-235.25C1277.56,-226.33 1282.89,-212.01 1285,-199 1286.42,-190.23 1286.1,-187.82 1285,-179 1276.86,-113.81 1262.99,-82.78 1203,-56 1152.89,-33.63 1000.93,-20.46 915.31,-14.62"/>
<polygon fill="midnightblue" stroke="midnightblue" points="915.42,-11.12 905.21,-13.94 914.96,-18.1 915.42,-11.12"/>
</g>
<!-- Node22&#45;&gt;Node18 -->
<g id="edge58" class="edge">
<title>Node22&#45;&gt;Node18</title>
<path fill="none" stroke="midnightblue" d="M1208.95,-236.94C1116.67,-226.27 943.22,-206.21 855.97,-196.12"/>
<polygon fill="midnightblue" stroke="midnightblue" points="856.35,-192.65 846.02,-194.97 855.55,-199.6 856.35,-192.65"/>
</g>
</g>
</svg>
        <g id="navigator" transform="translate(0 0)" fill="#404254">
                <rect fill="#f2f5e9" fill-opacity="0.5" stroke="#606060" stroke-width=".5" x="0" y="0" width="60" height="60"/>
                <use id="zoomplus" xlink:href="#zoomPlus" x="17" y="9" onmousedown="handleZoom(evt,'in')"/>
                <use id="zoomminus" xlink:href="#zoomMin" x="42" y="9" onmousedown="handleZoom(evt,'out')"/>
                <use id="reset" xlink:href="#resetDef" x="30" y="36" onmousedown="handleReset()"/>
                <g id="arrowUp" xlink:href="#dirArrow" transform="translate(30 24)" onmousedown="handlePan(0,-1)">
                  <use xlink:href="#rim" fill="#404040">
                        <set attributeName="fill" to="#808080" begin="arrowUp.mouseover" end="arrowUp.mouseout"/>
                  </use>
                  <path fill="none" stroke="white" stroke-width="1.5" d="M0,-3.0v7 M-2.5,-0.5L0,-3.0L2.5,-0.5"/>
                </g>
                <g id="arrowRight" xlink:href="#dirArrow" transform="rotate(90) translate(36 -43)" onmousedown="handlePan(1,0)">
                  <use xlink:href="#rim" fill="#404040">
                        <set attributeName="fill" to="#808080" begin="arrowRight.mouseover" end="arrowRight.mouseout"/>
                  </use>
                  <path fill="none" stroke="white" stroke-width="1.5" d="M0,-3.0v7 M-2.5,-0.5L0,-3.0L2.5,-0.5"/>
                </g>
                <g id="arrowDown" xlink:href="#dirArrow" transform="rotate(180) translate(-30 -48)" onmousedown="handlePan(0,1)">
                  <use xlink:href="#rim" fill="#404040">
                        <set attributeName="fill" to="#808080" begin="arrowDown.mouseover" end="arrowDown.mouseout"/>
                  </use>
                  <path fill="none" stroke="white" stroke-width="1.5" d="M0,-3.0v7 M-2.5,-0.5L0,-3.0L2.5,-0.5"/>
                </g>
                <g id="arrowLeft" xlink:href="#dirArrow" transform="rotate(270) translate(-36 17)" onmousedown="handlePan(-1,0)">
                  <use xlink:href="#rim" fill="#404040">
                        <set attributeName="fill" to="#808080" begin="arrowLeft.mouseover" end="arrowLeft.mouseout"/>
                  </use>
                  <path fill="none" stroke="white" stroke-width="1.5" d="M0,-3.0v7 M-2.5,-0.5L0,-3.0L2.5,-0.5"/>
                </g>
        </g>
        <svg viewBox="0 0 15 15" width="100%" height="30px" preserveAspectRatio="xMaxYMin meet">
         <g id="arrow_out" transform="scale(0.3 0.3)">
          <a xlink:href="weekday_8h__incl_org.svg" target="_base">
           <rect id="button" ry="5" rx="5" y="6" x="6" height="38" width="38"
                fill="#f2f5e9" fill-opacity="0.5" stroke="#606060" stroke-width="1.0"/>
           <path id="arrow"
             d="M 11.500037,31.436501 C 11.940474,20.09759 22.043105,11.32322 32.158766,21.979434 L 37.068811,17.246167 C 37.068811,17.246167 37.088388,32 37.088388,32 L 22.160133,31.978069 C 22.160133,31.978069 26.997745,27.140456 26.997745,27.140456 C 18.528582,18.264221 13.291696,25.230495 11.500037,31.436501 z"
             style="fill:#404040;"/>
          </a>
         </g>
        </svg>
</svg>
