<?xml version="1.0" encoding="UTF-8" standalone="no"?>
<!DOCTYPE svg PUBLIC "-//W3C//DTD SVG 1.1//EN"
 "http://www.w3.org/Graphics/SVG/1.1/DTD/svg11.dtd">
<!-- Generated by graphviz version 2.43.0 (0)
 -->
<!-- Title: circle.h Pages: 1 -->
<svg width="967pt" height="308pt"
 viewBox="0.00 0.00 966.61 308.00" xmlns="http://www.w3.org/2000/svg" xmlns:xlink="http://www.w3.org/1999/xlink">
<g id="graph0" class="graph" transform="scale(1 1) rotate(0) translate(4 304)">
<title>circle.h</title>
<!-- Node1 -->
<g id="node1" class="node">
<title>Node1</title>
<g id="a_node1"><a xlink:title=" ">
<polygon fill="#bfbfbf" stroke="black" points="329.61,-280.5 329.61,-299.5 381.61,-299.5 381.61,-280.5 329.61,-280.5"/>
<text text-anchor="middle" x="355.61" y="-287.5" font-family="Helvetica,sans-Serif" font-size="10.00">circle.h</text>
</a>
</g>
</g>
<!-- Node2 -->
<g id="node2" class="node">
<title>Node2</title>
<g id="a_node2"><a xlink:href="../../da/d0b/limes__namespace_8h.html" target="_top" xlink:title=" ">
<polygon fill="none" stroke="black" points="99.61,-56.5 99.61,-75.5 213.61,-75.5 213.61,-56.5 99.61,-56.5"/>
<text text-anchor="middle" x="156.61" y="-63.5" font-family="Helvetica,sans-Serif" font-size="10.00">limes_namespace.h</text>
</a>
</g>
</g>
<!-- Node1&#45;&gt;Node2 -->
<g id="edge1" class="edge">
<title>Node1&#45;&gt;Node2</title>
<path fill="none" stroke="midnightblue" d="M329.33,-287.39C269.2,-283.27 123.73,-270.75 83.61,-244 28.36,-207.16 -25.67,-165.54 13.61,-112 31.17,-88.07 61.46,-76.53 89.66,-71.09"/>
<polygon fill="midnightblue" stroke="midnightblue" points="90.25,-74.54 99.52,-69.41 89.08,-67.64 90.25,-74.54"/>
</g>
<!-- Node3 -->
<g id="node3" class="node">
<title>Node3</title>
<g id="a_node3"><a xlink:title=" ">
<polygon fill="none" stroke="#bfbfbf" points="330.11,-56.5 330.11,-75.5 419.11,-75.5 419.11,-56.5 330.11,-56.5"/>
<text text-anchor="middle" x="374.61" y="-63.5" font-family="Helvetica,sans-Serif" font-size="10.00">limes_export.h</text>
</a>
</g>
</g>
<!-- Node1&#45;&gt;Node3 -->
<g id="edge2" class="edge">
<title>Node1&#45;&gt;Node3</title>
<path fill="none" stroke="midnightblue" d="M333.53,-280.34C274.25,-255.84 119.76,-183.22 176.61,-112 194.23,-89.92 267.43,-77.84 319.69,-71.91"/>
<polygon fill="midnightblue" stroke="midnightblue" points="320.27,-75.36 329.83,-70.8 319.51,-68.4 320.27,-75.36"/>
</g>
<!-- Node4 -->
<g id="node4" class="node">
<title>Node4</title>
<g id="a_node4"><a xlink:title=" ">
<polygon fill="none" stroke="#bfbfbf" points="683.61,-0.5 683.61,-19.5 783.61,-19.5 783.61,-0.5 683.61,-0.5"/>
<text text-anchor="middle" x="733.61" y="-7.5" font-family="Helvetica,sans-Serif" font-size="10.00">limes_platform.h</text>
</a>
</g>
</g>
<!-- Node1&#45;&gt;Node4 -->
<g id="edge3" class="edge">
<title>Node1&#45;&gt;Node4</title>
<path fill="none" stroke="midnightblue" d="M381.9,-287.04C497.96,-278.03 958.61,-238.53 958.61,-179 958.61,-179 958.61,-179 958.61,-121 958.61,-47.49 860.47,-23.1 793.82,-15.01"/>
<polygon fill="midnightblue" stroke="midnightblue" points="794.15,-11.52 783.82,-13.89 793.37,-18.48 794.15,-11.52"/>
</g>
<!-- Node5 -->
<g id="node5" class="node">
<title>Node5</title>
<g id="a_node5"><a xlink:href="../../d8/d23/2_dshape_8h.html" target="_top" xlink:title=" ">
<polygon fill="none" stroke="black" points="22.61,-112.5 22.61,-131.5 90.61,-131.5 90.61,-112.5 22.61,-112.5"/>
<text text-anchor="middle" x="56.61" y="-119.5" font-family="Helvetica,sans-Serif" font-size="10.00">2Dshape.h</text>
</a>
</g>
</g>
<!-- Node1&#45;&gt;Node5 -->
<g id="edge4" class="edge">
<title>Node1&#45;&gt;Node5</title>
<path fill="none" stroke="midnightblue" d="M329.32,-287.48C272.13,-283.67 138.8,-271.95 104.61,-244 73.07,-218.22 62.14,-168.76 58.44,-141.74"/>
<polygon fill="midnightblue" stroke="midnightblue" points="61.9,-141.2 57.26,-131.67 54.95,-142.01 61.9,-141.2"/>
</g>
<!-- Node6 -->
<g id="node6" class="node">
<title>Node6</title>
<g id="a_node6"><a xlink:href="../../d3/d53/preprocessor_8h.html" target="_top" xlink:title=" ">
<polygon fill="none" stroke="black" points="762.11,-56.5 762.11,-75.5 903.11,-75.5 903.11,-56.5 762.11,-56.5"/>
<text text-anchor="middle" x="832.61" y="-63.5" font-family="Helvetica,sans-Serif" font-size="10.00">../../../misc/preprocessor.h</text>
</a>
</g>
</g>
<!-- Node1&#45;&gt;Node6 -->
<g id="edge7" class="edge">
<title>Node1&#45;&gt;Node6</title>
<path fill="none" stroke="midnightblue" d="M381.85,-289.5C457.6,-289.75 680.8,-281.97 830.61,-188 864.45,-166.77 894.1,-148.82 878.61,-112 873.58,-100.05 863.66,-89.69 854.32,-81.93"/>
<polygon fill="midnightblue" stroke="midnightblue" points="856.45,-79.15 846.39,-75.81 852.17,-84.69 856.45,-79.15"/>
</g>
<!-- Node7 -->
<g id="node7" class="node">
<title>Node7</title>
<g id="a_node7"><a xlink:href="../../dd/dfb/math_helpers_8h.html" target="_top" xlink:title=" ">
<polygon fill="none" stroke="black" points="502.11,-224.5 502.11,-243.5 609.11,-243.5 609.11,-224.5 502.11,-224.5"/>
<text text-anchor="middle" x="555.61" y="-231.5" font-family="Helvetica,sans-Serif" font-size="10.00">../../mathHelpers.h</text>
</a>
</g>
</g>
<!-- Node1&#45;&gt;Node7 -->
<g id="edge9" class="edge">
<title>Node1&#45;&gt;Node7</title>
<path fill="none" stroke="midnightblue" d="M381.75,-281.94C415.43,-272.85 474.35,-256.94 514.16,-246.19"/>
<polygon fill="midnightblue" stroke="midnightblue" points="515.1,-249.56 523.84,-243.58 513.28,-242.8 515.1,-249.56"/>
</g>
<!-- Node5&#45;&gt;Node2 -->
<g id="edge5" class="edge">
<title>Node5&#45;&gt;Node2</title>
<path fill="none" stroke="midnightblue" d="M72.67,-112.32C88.56,-103.74 113.11,-90.49 131.56,-80.52"/>
<polygon fill="midnightblue" stroke="midnightblue" points="133.44,-83.49 140.58,-75.65 130.12,-77.33 133.44,-83.49"/>
</g>
<!-- Node5&#45;&gt;Node3 -->
<g id="edge6" class="edge">
<title>Node5&#45;&gt;Node3</title>
<path fill="none" stroke="midnightblue" d="M90.68,-114.52C95.36,-113.66 100.1,-112.8 104.61,-112 178.9,-98.85 264.89,-84.7 319.5,-75.85"/>
<polygon fill="midnightblue" stroke="midnightblue" points="320.34,-79.26 329.65,-74.21 319.22,-72.35 320.34,-79.26"/>
</g>
<!-- Node6&#45;&gt;Node4 -->
<g id="edge8" class="edge">
<title>Node6&#45;&gt;Node4</title>
<path fill="none" stroke="midnightblue" d="M816.7,-56.32C800.97,-47.74 776.66,-34.49 758.4,-24.52"/>
<polygon fill="midnightblue" stroke="midnightblue" points="759.93,-21.37 749.47,-19.65 756.58,-27.52 759.93,-21.37"/>
</g>
<!-- Node7&#45;&gt;Node2 -->
<g id="edge10" class="edge">
<title>Node7&#45;&gt;Node2</title>
<path fill="none" stroke="midnightblue" d="M501.99,-225.6C408.55,-211.62 221.56,-178.52 176.61,-132 164.69,-119.67 159.86,-100.42 157.91,-86.06"/>
<polygon fill="midnightblue" stroke="midnightblue" points="161.36,-85.43 156.88,-75.83 154.4,-86.13 161.36,-85.43"/>
</g>
<!-- Node7&#45;&gt;Node3 -->
<g id="edge13" class="edge">
<title>Node7&#45;&gt;Node3</title>
<path fill="none" stroke="midnightblue" d="M583.27,-224.46C600.59,-217.55 621.64,-205.98 632.61,-188 650.21,-159.14 657.38,-137.85 635.61,-112 609.79,-81.35 498.13,-71.58 429.5,-68.46"/>
<polygon fill="midnightblue" stroke="midnightblue" points="429.42,-64.95 419.28,-68.03 429.13,-71.95 429.42,-64.95"/>
</g>
<!-- Node7&#45;&gt;Node6 -->
<g id="edge31" class="edge">
<title>Node7&#45;&gt;Node6</title>
<path fill="none" stroke="midnightblue" d="M609.27,-231.08C660.23,-227.45 737.87,-217.13 798.61,-188 832.99,-171.51 847.72,-166.66 863.61,-132 871.21,-115.41 860.06,-96.59 849.07,-83.49"/>
<polygon fill="midnightblue" stroke="midnightblue" points="851.38,-80.84 842.07,-75.79 846.2,-85.55 851.38,-80.84"/>
</g>
<!-- Node8 -->
<g id="node8" class="node">
<title>Node8</title>
<g id="a_node8"><a xlink:title=" ">
<polygon fill="none" stroke="#bfbfbf" points="721.11,-168.5 721.11,-187.5 768.11,-187.5 768.11,-168.5 721.11,-168.5"/>
<text text-anchor="middle" x="744.61" y="-175.5" font-family="Helvetica,sans-Serif" font-size="10.00">cmath</text>
</a>
</g>
</g>
<!-- Node7&#45;&gt;Node8 -->
<g id="edge11" class="edge">
<title>Node7&#45;&gt;Node8</title>
<path fill="none" stroke="midnightblue" d="M585.55,-224.44C619.75,-214.67 675.56,-198.73 711.16,-188.56"/>
<polygon fill="midnightblue" stroke="midnightblue" points="712.41,-191.84 721.07,-185.73 710.49,-185.11 712.41,-191.84"/>
</g>
<!-- Node9 -->
<g id="node9" class="node">
<title>Node9</title>
<g id="a_node9"><a xlink:title=" ">
<polygon fill="none" stroke="#bfbfbf" points="185.11,-112.5 185.11,-131.5 254.11,-131.5 254.11,-112.5 185.11,-112.5"/>
<text text-anchor="middle" x="219.61" y="-119.5" font-family="Helvetica,sans-Serif" font-size="10.00">type_traits</text>
</a>
</g>
</g>
<!-- Node7&#45;&gt;Node9 -->
<g id="edge12" class="edge">
<title>Node7&#45;&gt;Node9</title>
<path fill="none" stroke="midnightblue" d="M522.8,-224.5C490.5,-215.94 439.86,-202.04 396.61,-188 345.03,-171.26 286.09,-148.97 250.91,-135.32"/>
<polygon fill="midnightblue" stroke="midnightblue" points="251.81,-131.91 241.22,-131.54 249.27,-138.43 251.81,-131.91"/>
</g>
<!-- Node10 -->
<g id="node10" class="node">
<title>Node10</title>
<g id="a_node10"><a xlink:title=" ">
<polygon fill="none" stroke="#bfbfbf" points="405.61,-168.5 405.61,-187.5 469.61,-187.5 469.61,-168.5 405.61,-168.5"/>
<text text-anchor="middle" x="437.61" y="-175.5" font-family="Helvetica,sans-Serif" font-size="10.00">algorithm</text>
</a>
</g>
</g>
<!-- Node7&#45;&gt;Node10 -->
<g id="edge14" class="edge">
<title>Node7&#45;&gt;Node10</title>
<path fill="none" stroke="midnightblue" d="M536.91,-224.44C517.66,-215.64 487.45,-201.81 465.41,-191.72"/>
<polygon fill="midnightblue" stroke="midnightblue" points="466.77,-188.5 456.22,-187.52 463.85,-194.86 466.77,-188.5"/>
</g>
<!-- Node11 -->
<g id="node11" class="node">
<title>Node11</title>
<g id="a_node11"><a xlink:href="../../d5/dbb/limes__assert_8h.html" target="_top" xlink:title=" ">
<polygon fill="none" stroke="black" points="487.61,-168.5 487.61,-187.5 623.61,-187.5 623.61,-168.5 487.61,-168.5"/>
<text text-anchor="middle" x="555.61" y="-175.5" font-family="Helvetica,sans-Serif" font-size="10.00">../system/limes_assert.h</text>
</a>
</g>
</g>
<!-- Node7&#45;&gt;Node11 -->
<g id="edge15" class="edge">
<title>Node7&#45;&gt;Node11</title>
<path fill="none" stroke="midnightblue" d="M555.61,-224.08C555.61,-217.01 555.61,-206.86 555.61,-197.99"/>
<polygon fill="midnightblue" stroke="midnightblue" points="559.11,-197.75 555.61,-187.75 552.11,-197.75 559.11,-197.75"/>
</g>
<!-- Node15 -->
<g id="node15" class="node">
<title>Node15</title>
<g id="a_node15"><a xlink:href="../../d0/d00/compiler__defs_8h.html" target="_top" xlink:title=" ">
<polygon fill="none" stroke="black" points="759.11,-112.5 759.11,-131.5 854.11,-131.5 854.11,-112.5 759.11,-112.5"/>
<text text-anchor="middle" x="806.61" y="-119.5" font-family="Helvetica,sans-Serif" font-size="10.00">compiler_defs.h</text>
</a>
</g>
</g>
<!-- Node7&#45;&gt;Node15 -->
<g id="edge30" class="edge">
<title>Node7&#45;&gt;Node15</title>
<path fill="none" stroke="midnightblue" d="M609.18,-227.79C666.35,-221.27 752.14,-208.41 777.61,-188 791.9,-176.55 799.36,-156.57 803.11,-141.77"/>
<polygon fill="midnightblue" stroke="midnightblue" points="806.6,-142.21 805.31,-131.7 799.76,-140.72 806.6,-142.21"/>
</g>
<!-- Node11&#45;&gt;Node2 -->
<g id="edge17" class="edge">
<title>Node11&#45;&gt;Node2</title>
<path fill="none" stroke="midnightblue" d="M495.1,-168.48C431.68,-159.16 336.51,-143.95 301.61,-132 283.55,-125.82 280.86,-120.15 263.61,-112 238.48,-100.13 209.38,-87.99 187.88,-79.32"/>
<polygon fill="midnightblue" stroke="midnightblue" points="189.16,-76.06 178.57,-75.59 186.55,-82.56 189.16,-76.06"/>
</g>
<!-- Node11&#45;&gt;Node3 -->
<g id="edge16" class="edge">
<title>Node11&#45;&gt;Node3</title>
<path fill="none" stroke="midnightblue" d="M541.4,-168.37C510.21,-149.41 435.49,-104 397.55,-80.94"/>
<polygon fill="midnightblue" stroke="midnightblue" points="399.11,-77.79 388.74,-75.59 395.47,-83.78 399.11,-77.79"/>
</g>
<!-- Node11&#45;&gt;Node4 -->
<g id="edge25" class="edge">
<title>Node11&#45;&gt;Node4</title>
<path fill="none" stroke="midnightblue" d="M575.32,-168.49C592.37,-160.56 617.1,-147.63 635.61,-132 672.97,-100.45 706.46,-53.07 722.9,-27.99"/>
<polygon fill="midnightblue" stroke="midnightblue" points="725.86,-29.85 728.33,-19.55 719.98,-26.06 725.86,-29.85"/>
</g>
<!-- Node11&#45;&gt;Node6 -->
<g id="edge18" class="edge">
<title>Node11&#45;&gt;Node6</title>
<path fill="none" stroke="midnightblue" d="M577.34,-168.37C626.19,-148.97 744.8,-101.87 801.46,-79.37"/>
<polygon fill="midnightblue" stroke="midnightblue" points="802.97,-82.54 810.97,-75.59 800.39,-76.03 802.97,-82.54"/>
</g>
<!-- Node11&#45;&gt;Node9 -->
<g id="edge19" class="edge">
<title>Node11&#45;&gt;Node9</title>
<path fill="none" stroke="midnightblue" d="M498.36,-168.47C440.38,-159.73 348.16,-145.54 268.61,-132 267.14,-131.75 265.65,-131.49 264.15,-131.23"/>
<polygon fill="midnightblue" stroke="midnightblue" points="264.58,-127.75 254.12,-129.46 263.36,-134.65 264.58,-127.75"/>
</g>
<!-- Node12 -->
<g id="node12" class="node">
<title>Node12</title>
<g id="a_node12"><a xlink:title=" ">
<polygon fill="none" stroke="#bfbfbf" points="495.11,-112.5 495.11,-131.5 540.11,-131.5 540.11,-112.5 495.11,-112.5"/>
<text text-anchor="middle" x="517.61" y="-119.5" font-family="Helvetica,sans-Serif" font-size="10.00">utility</text>
</a>
</g>
</g>
<!-- Node11&#45;&gt;Node12 -->
<g id="edge20" class="edge">
<title>Node11&#45;&gt;Node12</title>
<path fill="none" stroke="midnightblue" d="M549.33,-168.08C543.96,-160.46 536.09,-149.26 529.53,-139.94"/>
<polygon fill="midnightblue" stroke="midnightblue" points="532.38,-137.91 523.76,-131.75 526.66,-141.94 532.38,-137.91"/>
</g>
<!-- Node13 -->
<g id="node13" class="node">
<title>Node13</title>
<g id="a_node13"><a xlink:href="../../d1/d57/_ignore_unused_8h.html" target="_top" xlink:title=" ">
<polygon fill="none" stroke="black" points="310.61,-112.5 310.61,-131.5 438.61,-131.5 438.61,-112.5 310.61,-112.5"/>
<text text-anchor="middle" x="374.61" y="-119.5" font-family="Helvetica,sans-Serif" font-size="10.00">../misc/IgnoreUnused.h</text>
</a>
</g>
</g>
<!-- Node11&#45;&gt;Node13 -->
<g id="edge21" class="edge">
<title>Node11&#45;&gt;Node13</title>
<path fill="none" stroke="midnightblue" d="M526.93,-168.44C496.08,-159.24 446.88,-144.56 412.78,-134.39"/>
<polygon fill="midnightblue" stroke="midnightblue" points="413.74,-131.02 403.15,-131.52 411.73,-137.73 413.74,-131.02"/>
</g>
<!-- Node14 -->
<g id="node14" class="node">
<title>Node14</title>
<g id="a_node14"><a xlink:title=" ">
<polygon fill="none" stroke="#bfbfbf" points="558.61,-112.5 558.61,-131.5 626.61,-131.5 626.61,-112.5 558.61,-112.5"/>
<text text-anchor="middle" x="592.61" y="-119.5" font-family="Helvetica,sans-Serif" font-size="10.00">filesystem</text>
</a>
</g>
</g>
<!-- Node11&#45;&gt;Node14 -->
<g id="edge26" class="edge">
<title>Node11&#45;&gt;Node14</title>
<path fill="none" stroke="midnightblue" d="M561.72,-168.08C566.89,-160.53 574.45,-149.49 580.8,-140.23"/>
<polygon fill="midnightblue" stroke="midnightblue" points="583.84,-141.98 586.61,-131.75 578.07,-138.02 583.84,-141.98"/>
</g>
<!-- Node11&#45;&gt;Node15 -->
<g id="edge27" class="edge">
<title>Node11&#45;&gt;Node15</title>
<path fill="none" stroke="midnightblue" d="M595.38,-168.44C639.16,-159.02 709.62,-143.87 756.99,-133.68"/>
<polygon fill="midnightblue" stroke="midnightblue" points="757.98,-137.04 767.02,-131.52 756.51,-130.2 757.98,-137.04"/>
</g>
<!-- Node13&#45;&gt;Node2 -->
<g id="edge23" class="edge">
<title>Node13&#45;&gt;Node2</title>
<path fill="none" stroke="midnightblue" d="M340.06,-112.44C302.35,-103.1 241.87,-88.12 200.74,-77.93"/>
<polygon fill="midnightblue" stroke="midnightblue" points="201.54,-74.52 190.99,-75.52 199.85,-81.32 201.54,-74.52"/>
</g>
<!-- Node13&#45;&gt;Node3 -->
<g id="edge22" class="edge">
<title>Node13&#45;&gt;Node3</title>
<path fill="none" stroke="midnightblue" d="M374.61,-112.08C374.61,-105.01 374.61,-94.86 374.61,-85.99"/>
<polygon fill="midnightblue" stroke="midnightblue" points="378.11,-85.75 374.61,-75.75 371.11,-85.75 378.11,-85.75"/>
</g>
<!-- Node13&#45;&gt;Node4 -->
<g id="edge24" class="edge">
<title>Node13&#45;&gt;Node4</title>
<path fill="none" stroke="midnightblue" d="M402.48,-112.46C466.36,-92.89 623.41,-44.77 695.86,-22.57"/>
<polygon fill="midnightblue" stroke="midnightblue" points="696.97,-25.89 705.5,-19.61 694.92,-19.19 696.97,-25.89"/>
</g>
<!-- Node15&#45;&gt;Node4 -->
<g id="edge28" class="edge">
<title>Node15&#45;&gt;Node4</title>
<path fill="none" stroke="midnightblue" d="M792.47,-112.34C780.49,-104.31 763.7,-91.32 753.61,-76 744.37,-61.98 739.22,-43.48 736.47,-29.81"/>
<polygon fill="midnightblue" stroke="midnightblue" points="739.87,-28.9 734.69,-19.66 732.97,-30.11 739.87,-28.9"/>
</g>
<!-- Node15&#45;&gt;Node6 -->
<g id="edge29" class="edge">
<title>Node15&#45;&gt;Node6</title>
<path fill="none" stroke="midnightblue" d="M810.9,-112.08C814.46,-104.69 819.63,-93.95 824.03,-84.81"/>
<polygon fill="midnightblue" stroke="midnightblue" points="827.21,-86.28 828.39,-75.75 820.9,-83.24 827.21,-86.28"/>
</g>
</g>
</svg>
