<?xml version="1.0" encoding="UTF-8" standalone="no"?>
<!DOCTYPE svg PUBLIC "-//W3C//DTD SVG 1.1//EN"
 "http://www.w3.org/Graphics/SVG/1.1/DTD/svg11.dtd">
<!-- Generated by graphviz version 2.43.0 (0)
 -->
<!-- Title: circle.h Pages: 1 -->
<svg width="1023pt" height="375pt"
 viewBox="0.00 0.00 1022.82 375.00" xmlns="http://www.w3.org/2000/svg" xmlns:xlink="http://www.w3.org/1999/xlink">
<g id="graph0" class="graph" transform="scale(1 1) rotate(0) translate(4 371)">
<title>circle.h</title>
<!-- Node1 -->
<g id="node1" class="node">
<title>Node1</title>
<g id="a_node1"><a xlink:title=" ">
<polygon fill="#bfbfbf" stroke="black" points="155.82,-347.5 155.82,-366.5 207.82,-366.5 207.82,-347.5 155.82,-347.5"/>
<text text-anchor="middle" x="181.82" y="-354.5" font-family="Helvetica,sans-Serif" font-size="10.00">circle.h</text>
</a>
</g>
</g>
<!-- Node2 -->
<g id="node2" class="node">
<title>Node2</title>
<g id="a_node2"><a xlink:href="../../da/d0b/limes__namespace_8h.html" target="_top" xlink:title=" ">
<polygon fill="none" stroke="black" points="181.82,-56.5 181.82,-75.5 295.82,-75.5 295.82,-56.5 181.82,-56.5"/>
<text text-anchor="middle" x="238.82" y="-63.5" font-family="Helvetica,sans-Serif" font-size="10.00">limes_namespace.h</text>
</a>
</g>
</g>
<!-- Node1&#45;&gt;Node2 -->
<g id="edge1" class="edge">
<title>Node1&#45;&gt;Node2</title>
<path fill="none" stroke="midnightblue" d="M178.78,-347.17C174.86,-334.68 168.88,-311.11 171.82,-291 183.32,-212.41 216.39,-123.08 231.33,-85.36"/>
<polygon fill="midnightblue" stroke="midnightblue" points="234.71,-86.34 235.19,-75.75 228.21,-83.73 234.71,-86.34"/>
</g>
<!-- Node3 -->
<g id="node3" class="node">
<title>Node3</title>
<g id="a_node3"><a xlink:title=" ">
<polygon fill="none" stroke="#bfbfbf" points="74.32,-56.5 74.32,-75.5 163.32,-75.5 163.32,-56.5 74.32,-56.5"/>
<text text-anchor="middle" x="118.82" y="-63.5" font-family="Helvetica,sans-Serif" font-size="10.00">limes_export.h</text>
</a>
</g>
</g>
<!-- Node1&#45;&gt;Node3 -->
<g id="edge2" class="edge">
<title>Node1&#45;&gt;Node3</title>
<path fill="none" stroke="midnightblue" d="M155.5,-352.39C105.3,-343.86 0.82,-317.52 0.82,-246 0.82,-246 0.82,-246 0.82,-188 0.82,-153.18 -2.46,-138.75 19.82,-112 32.99,-96.19 52.9,-85.68 71.41,-78.83"/>
<polygon fill="midnightblue" stroke="midnightblue" points="72.6,-82.13 80.92,-75.57 70.33,-75.5 72.6,-82.13"/>
</g>
<!-- Node4 -->
<g id="node4" class="node">
<title>Node4</title>
<g id="a_node4"><a xlink:title=" ">
<polygon fill="none" stroke="#bfbfbf" points="758.82,-0.5 758.82,-19.5 858.82,-19.5 858.82,-0.5 758.82,-0.5"/>
<text text-anchor="middle" x="808.82" y="-7.5" font-family="Helvetica,sans-Serif" font-size="10.00">limes_platform.h</text>
</a>
</g>
</g>
<!-- Node1&#45;&gt;Node4 -->
<g id="edge3" class="edge">
<title>Node1&#45;&gt;Node4</title>
<path fill="none" stroke="midnightblue" d="M207.9,-355.45C316.73,-352.98 734.92,-341.63 862.82,-311 934.27,-293.89 1014.82,-319.47 1014.82,-246 1014.82,-246 1014.82,-246 1014.82,-126.5 1014.82,-92.95 1012.92,-78.27 987.82,-56 955.37,-27.21 907.17,-16.28 868.96,-12.38"/>
<polygon fill="midnightblue" stroke="midnightblue" points="869.24,-8.89 858.97,-11.5 868.63,-15.87 869.24,-8.89"/>
</g>
<!-- Node5 -->
<g id="node5" class="node">
<title>Node5</title>
<g id="a_node5"><a xlink:href="../../d8/d23/2_dshape_8h.html" target="_top" xlink:title=" ">
<polygon fill="none" stroke="black" points="28.82,-118 28.82,-137 96.82,-137 96.82,-118 28.82,-118"/>
<text text-anchor="middle" x="62.82" y="-125" font-family="Helvetica,sans-Serif" font-size="10.00">2Dshape.h</text>
</a>
</g>
</g>
<!-- Node1&#45;&gt;Node5 -->
<g id="edge4" class="edge">
<title>Node1&#45;&gt;Node5</title>
<path fill="none" stroke="midnightblue" d="M160.07,-347.44C144.14,-340.08 123.23,-327.96 110.82,-311 73.63,-260.16 65.23,-182.75 63.35,-147.35"/>
<polygon fill="midnightblue" stroke="midnightblue" points="66.84,-146.9 62.93,-137.06 59.84,-147.19 66.84,-146.9"/>
</g>
<!-- Node6 -->
<g id="node6" class="node">
<title>Node6</title>
<g id="a_node6"><a xlink:href="../../d3/d53/preprocessor_8h.html" target="_top" xlink:title=" ">
<polygon fill="none" stroke="black" points="837.32,-56.5 837.32,-75.5 978.32,-75.5 978.32,-56.5 837.32,-56.5"/>
<text text-anchor="middle" x="907.82" y="-63.5" font-family="Helvetica,sans-Serif" font-size="10.00">../../../misc/preprocessor.h</text>
</a>
</g>
</g>
<!-- Node1&#45;&gt;Node6 -->
<g id="edge7" class="edge">
<title>Node1&#45;&gt;Node6</title>
<path fill="none" stroke="midnightblue" d="M208.27,-355.19C346.22,-350.63 976.82,-325.42 976.82,-246 976.82,-246 976.82,-246 976.82,-188 976.82,-145.76 944.69,-104.82 924.28,-83.08"/>
<polygon fill="midnightblue" stroke="midnightblue" points="926.61,-80.45 917.13,-75.73 921.59,-85.34 926.61,-80.45"/>
</g>
<!-- Node7 -->
<g id="node7" class="node">
<title>Node7</title>
<g id="a_node7"><a xlink:href="../../dc/d5c/math_functions_8h.html" target="_top" xlink:title=" ">
<polygon fill="none" stroke="black" points="180.82,-291.5 180.82,-310.5 296.82,-310.5 296.82,-291.5 180.82,-291.5"/>
<text text-anchor="middle" x="238.82" y="-298.5" font-family="Helvetica,sans-Serif" font-size="10.00">../../mathFunctions.h</text>
</a>
</g>
</g>
<!-- Node1&#45;&gt;Node7 -->
<g id="edge9" class="edge">
<title>Node1&#45;&gt;Node7</title>
<path fill="none" stroke="midnightblue" d="M190.98,-347.32C199.32,-339.42 211.85,-327.55 222,-317.94"/>
<polygon fill="midnightblue" stroke="midnightblue" points="224.64,-320.25 229.5,-310.83 219.83,-315.17 224.64,-320.25"/>
</g>
<!-- Node5&#45;&gt;Node2 -->
<g id="edge5" class="edge">
<title>Node5&#45;&gt;Node2</title>
<path fill="none" stroke="midnightblue" d="M88.04,-117.98C118.49,-107.68 169.87,-90.31 204.06,-78.75"/>
<polygon fill="midnightblue" stroke="midnightblue" points="205.3,-82.03 213.65,-75.51 203.06,-75.4 205.3,-82.03"/>
</g>
<!-- Node5&#45;&gt;Node3 -->
<g id="edge6" class="edge">
<title>Node5&#45;&gt;Node3</title>
<path fill="none" stroke="midnightblue" d="M70.84,-117.98C79.41,-108.87 93.18,-94.24 103.78,-82.98"/>
<polygon fill="midnightblue" stroke="midnightblue" points="106.51,-85.19 110.81,-75.51 101.41,-80.39 106.51,-85.19"/>
</g>
<!-- Node6&#45;&gt;Node4 -->
<g id="edge8" class="edge">
<title>Node6&#45;&gt;Node4</title>
<path fill="none" stroke="midnightblue" d="M891.92,-56.32C876.18,-47.74 851.88,-34.49 833.61,-24.52"/>
<polygon fill="midnightblue" stroke="midnightblue" points="835.14,-21.37 824.69,-19.65 831.79,-27.52 835.14,-21.37"/>
</g>
<!-- Node7&#45;&gt;Node2 -->
<g id="edge10" class="edge">
<title>Node7&#45;&gt;Node2</title>
<path fill="none" stroke="midnightblue" d="M238.82,-291.43C238.82,-257.75 238.82,-133.99 238.82,-86.1"/>
<polygon fill="midnightblue" stroke="midnightblue" points="242.32,-85.9 238.82,-75.9 235.32,-85.9 242.32,-85.9"/>
</g>
<!-- Node7&#45;&gt;Node3 -->
<g id="edge12" class="edge">
<title>Node7&#45;&gt;Node3</title>
<path fill="none" stroke="midnightblue" d="M234.41,-291.43C216.92,-257.47 152.24,-131.89 128.04,-84.9"/>
<polygon fill="midnightblue" stroke="midnightblue" points="131.09,-83.18 123.4,-75.9 124.87,-86.39 131.09,-83.18"/>
</g>
<!-- Node7&#45;&gt;Node6 -->
<g id="edge16" class="edge">
<title>Node7&#45;&gt;Node6</title>
<path fill="none" stroke="midnightblue" d="M297.11,-297.67C372.24,-293.62 506.46,-282.86 617.82,-255 750.65,-221.77 825.36,-254.51 904.82,-143 916.53,-126.57 915.33,-102.69 912.46,-86.1"/>
<polygon fill="midnightblue" stroke="midnightblue" points="915.82,-85.03 910.35,-75.96 908.96,-86.46 915.82,-85.03"/>
</g>
<!-- Node8 -->
<g id="node8" class="node">
<title>Node8</title>
<g id="a_node8"><a xlink:title=" ">
<polygon fill="none" stroke="#bfbfbf" points="267.32,-118 267.32,-137 336.32,-137 336.32,-118 267.32,-118"/>
<text text-anchor="middle" x="301.82" y="-125" font-family="Helvetica,sans-Serif" font-size="10.00">type_traits</text>
</a>
</g>
</g>
<!-- Node7&#45;&gt;Node8 -->
<g id="edge11" class="edge">
<title>Node7&#45;&gt;Node8</title>
<path fill="none" stroke="midnightblue" d="M242.03,-291.26C251.85,-264.54 281.61,-183.52 295.08,-146.86"/>
<polygon fill="midnightblue" stroke="midnightblue" points="298.53,-147.61 298.69,-137.02 291.96,-145.2 298.53,-147.61"/>
</g>
<!-- Node9 -->
<g id="node9" class="node">
<title>Node9</title>
<g id="a_node9"><a xlink:href="../../d0/d00/compiler__defs_8h.html" target="_top" xlink:title=" ">
<polygon fill="none" stroke="black" points="765.32,-112.5 765.32,-142.5 872.32,-142.5 872.32,-112.5 765.32,-112.5"/>
<text text-anchor="start" x="773.32" y="-130.5" font-family="Helvetica,sans-Serif" font-size="10.00">../system/compiler</text>
<text text-anchor="middle" x="818.82" y="-119.5" font-family="Helvetica,sans-Serif" font-size="10.00">_defs.h</text>
</a>
</g>
</g>
<!-- Node7&#45;&gt;Node9 -->
<g id="edge13" class="edge">
<title>Node7&#45;&gt;Node9</title>
<path fill="none" stroke="midnightblue" d="M297.07,-297.98C391.16,-292.55 580.16,-272.57 719.82,-199 746.65,-184.87 774.56,-164.38 793.88,-149.13"/>
<polygon fill="midnightblue" stroke="midnightblue" points="796.24,-151.72 801.86,-142.74 791.87,-146.26 796.24,-151.72"/>
</g>
<!-- Node10 -->
<g id="node10" class="node">
<title>Node10</title>
<g id="a_node10"><a xlink:href="../../dc/d9b/math_functions__impl_8h.html" target="_top" xlink:title=" ">
<polygon fill="none" stroke="black" points="432.32,-235.5 432.32,-254.5 557.32,-254.5 557.32,-235.5 432.32,-235.5"/>
<text text-anchor="middle" x="494.82" y="-242.5" font-family="Helvetica,sans-Serif" font-size="10.00">mathFunctions_impl.h</text>
</a>
</g>
</g>
<!-- Node7&#45;&gt;Node10 -->
<g id="edge17" class="edge">
<title>Node7&#45;&gt;Node10</title>
<path fill="none" stroke="midnightblue" d="M279.39,-291.44C324.14,-282 396.2,-266.8 444.52,-256.61"/>
<polygon fill="midnightblue" stroke="midnightblue" points="445.38,-260.01 454.45,-254.52 443.94,-253.16 445.38,-260.01"/>
</g>
<!-- Node9&#45;&gt;Node4 -->
<g id="edge14" class="edge">
<title>Node9&#45;&gt;Node4</title>
<path fill="none" stroke="midnightblue" d="M817.6,-112.34C815.8,-91.62 812.46,-53.02 810.46,-29.9"/>
<polygon fill="midnightblue" stroke="midnightblue" points="813.92,-29.33 809.57,-19.67 806.95,-29.93 813.92,-29.33"/>
</g>
<!-- Node9&#45;&gt;Node6 -->
<g id="edge15" class="edge">
<title>Node9&#45;&gt;Node6</title>
<path fill="none" stroke="midnightblue" d="M839.91,-112.4C853.91,-103.04 872.23,-90.79 886.32,-81.38"/>
<polygon fill="midnightblue" stroke="midnightblue" points="888.5,-84.13 894.87,-75.66 884.61,-78.31 888.5,-84.13"/>
</g>
<!-- Node10&#45;&gt;Node2 -->
<g id="edge18" class="edge">
<title>Node10&#45;&gt;Node2</title>
<path fill="none" stroke="midnightblue" d="M442.8,-235.47C388.98,-223.91 306.28,-198 258.82,-143 245.06,-127.05 240.62,-102.7 239.27,-85.88"/>
<polygon fill="midnightblue" stroke="midnightblue" points="242.75,-85.44 238.75,-75.64 235.76,-85.8 242.75,-85.44"/>
</g>
<!-- Node11 -->
<g id="node11" class="node">
<title>Node11</title>
<g id="a_node11"><a xlink:title=" ">
<polygon fill="none" stroke="#bfbfbf" points="581.32,-179.5 581.32,-198.5 628.32,-198.5 628.32,-179.5 581.32,-179.5"/>
<text text-anchor="middle" x="604.82" y="-186.5" font-family="Helvetica,sans-Serif" font-size="10.00">cmath</text>
</a>
</g>
</g>
<!-- Node10&#45;&gt;Node11 -->
<g id="edge19" class="edge">
<title>Node10&#45;&gt;Node11</title>
<path fill="none" stroke="midnightblue" d="M512.49,-235.32C530.22,-226.62 557.72,-213.12 578.11,-203.11"/>
<polygon fill="midnightblue" stroke="midnightblue" points="579.76,-206.2 587.19,-198.65 576.67,-199.92 579.76,-206.2"/>
</g>
<!-- Node12 -->
<g id="node12" class="node">
<title>Node12</title>
<g id="a_node12"><a xlink:title=" ">
<polygon fill="none" stroke="#bfbfbf" points="646.82,-179.5 646.82,-198.5 710.82,-198.5 710.82,-179.5 646.82,-179.5"/>
<text text-anchor="middle" x="678.82" y="-186.5" font-family="Helvetica,sans-Serif" font-size="10.00">algorithm</text>
</a>
</g>
</g>
<!-- Node10&#45;&gt;Node12 -->
<g id="edge20" class="edge">
<title>Node10&#45;&gt;Node12</title>
<path fill="none" stroke="midnightblue" d="M523.98,-235.44C555.33,-226.24 605.35,-211.56 640.02,-201.39"/>
<polygon fill="midnightblue" stroke="midnightblue" points="641.19,-204.69 649.8,-198.52 639.22,-197.97 641.19,-204.69"/>
</g>
<!-- Node13 -->
<g id="node13" class="node">
<title>Node13</title>
<g id="a_node13"><a xlink:href="../../d5/dbb/limes__assert_8h.html" target="_top" xlink:title=" ">
<polygon fill="none" stroke="black" points="426.82,-179.5 426.82,-198.5 562.82,-198.5 562.82,-179.5 426.82,-179.5"/>
<text text-anchor="middle" x="494.82" y="-186.5" font-family="Helvetica,sans-Serif" font-size="10.00">../system/limes_assert.h</text>
</a>
</g>
</g>
<!-- Node10&#45;&gt;Node13 -->
<g id="edge21" class="edge">
<title>Node10&#45;&gt;Node13</title>
<path fill="none" stroke="midnightblue" d="M494.82,-235.08C494.82,-228.01 494.82,-217.86 494.82,-208.99"/>
<polygon fill="midnightblue" stroke="midnightblue" points="498.32,-208.75 494.82,-198.75 491.32,-208.75 498.32,-208.75"/>
</g>
<!-- Node13&#45;&gt;Node2 -->
<g id="edge23" class="edge">
<title>Node13&#45;&gt;Node2</title>
<path fill="none" stroke="midnightblue" d="M480.08,-179.34C465.2,-170.5 441.63,-156.22 421.82,-143 402.23,-129.92 399.85,-122.62 378.82,-112 349.29,-97.08 313.79,-85.74 285.92,-78.17"/>
<polygon fill="midnightblue" stroke="midnightblue" points="286.59,-74.72 276.02,-75.55 284.8,-81.49 286.59,-74.72"/>
</g>
<!-- Node13&#45;&gt;Node3 -->
<g id="edge22" class="edge">
<title>Node13&#45;&gt;Node3</title>
<path fill="none" stroke="midnightblue" d="M463.51,-179.45C439.25,-172 405.41,-159.75 378.82,-143 361.79,-132.27 363.72,-121.2 345.82,-112 330.65,-104.2 235.74,-86.95 173.54,-76.22"/>
<polygon fill="midnightblue" stroke="midnightblue" points="173.93,-72.73 163.48,-74.49 172.74,-79.63 173.93,-72.73"/>
</g>
<!-- Node13&#45;&gt;Node4 -->
<g id="edge31" class="edge">
<title>Node13&#45;&gt;Node4</title>
<path fill="none" stroke="midnightblue" d="M562.92,-179.94C618.85,-172.29 692.77,-159.53 717.82,-143 760.86,-114.61 789.26,-58.18 801.67,-29.17"/>
<polygon fill="midnightblue" stroke="midnightblue" points="804.95,-30.4 805.52,-19.82 798.48,-27.74 804.95,-30.4"/>
</g>
<!-- Node13&#45;&gt;Node6 -->
<g id="edge24" class="edge">
<title>Node13&#45;&gt;Node6</title>
<path fill="none" stroke="midnightblue" d="M563.04,-180.13C674.01,-167.31 881.44,-143.31 881.82,-143 899,-129.15 904.88,-103.38 906.86,-85.72"/>
<polygon fill="midnightblue" stroke="midnightblue" points="910.35,-85.97 907.67,-75.72 903.37,-85.41 910.35,-85.97"/>
</g>
<!-- Node13&#45;&gt;Node8 -->
<g id="edge25" class="edge">
<title>Node13&#45;&gt;Node8</title>
<path fill="none" stroke="midnightblue" d="M467.17,-179.48C433.63,-169.14 376.95,-151.66 339.45,-140.1"/>
<polygon fill="midnightblue" stroke="midnightblue" points="340.01,-136.61 329.42,-137.01 337.95,-143.3 340.01,-136.61"/>
</g>
<!-- Node13&#45;&gt;Node9 -->
<g id="edge33" class="edge">
<title>Node13&#45;&gt;Node9</title>
<path fill="none" stroke="midnightblue" d="M546.41,-179.49C598.18,-170.83 680.17,-156.74 750.82,-143 752.27,-142.72 753.73,-142.43 755.2,-142.14"/>
<polygon fill="midnightblue" stroke="midnightblue" points="755.93,-145.56 765.04,-140.16 754.54,-138.7 755.93,-145.56"/>
</g>
<!-- Node14 -->
<g id="node14" class="node">
<title>Node14</title>
<g id="a_node14"><a xlink:title=" ">
<polygon fill="none" stroke="#bfbfbf" points="577.32,-118 577.32,-137 622.32,-137 622.32,-118 577.32,-118"/>
<text text-anchor="middle" x="599.82" y="-125" font-family="Helvetica,sans-Serif" font-size="10.00">utility</text>
</a>
</g>
</g>
<!-- Node13&#45;&gt;Node14 -->
<g id="edge26" class="edge">
<title>Node13&#45;&gt;Node14</title>
<path fill="none" stroke="midnightblue" d="M509.87,-179.48C527.1,-169.71 555.56,-153.58 575.86,-142.08"/>
<polygon fill="midnightblue" stroke="midnightblue" points="577.83,-144.98 584.81,-137.01 574.38,-138.89 577.83,-144.98"/>
</g>
<!-- Node15 -->
<g id="node15" class="node">
<title>Node15</title>
<g id="a_node15"><a xlink:href="../../d1/d57/_ignore_unused_8h.html" target="_top" xlink:title=" ">
<polygon fill="none" stroke="black" points="430.82,-118 430.82,-137 558.82,-137 558.82,-118 430.82,-118"/>
<text text-anchor="middle" x="494.82" y="-125" font-family="Helvetica,sans-Serif" font-size="10.00">../misc/IgnoreUnused.h</text>
</a>
</g>
</g>
<!-- Node13&#45;&gt;Node15 -->
<g id="edge27" class="edge">
<title>Node13&#45;&gt;Node15</title>
<path fill="none" stroke="midnightblue" d="M494.82,-179.48C494.82,-171.08 494.82,-157.98 494.82,-147.16"/>
<polygon fill="midnightblue" stroke="midnightblue" points="498.32,-147.01 494.82,-137.01 491.32,-147.01 498.32,-147.01"/>
</g>
<!-- Node16 -->
<g id="node16" class="node">
<title>Node16</title>
<g id="a_node16"><a xlink:title=" ">
<polygon fill="none" stroke="#bfbfbf" points="640.82,-118 640.82,-137 708.82,-137 708.82,-118 640.82,-118"/>
<text text-anchor="middle" x="674.82" y="-125" font-family="Helvetica,sans-Serif" font-size="10.00">filesystem</text>
</a>
</g>
</g>
<!-- Node13&#45;&gt;Node16 -->
<g id="edge32" class="edge">
<title>Node13&#45;&gt;Node16</title>
<path fill="none" stroke="midnightblue" d="M521.11,-179.43C548.7,-170.43 593.34,-155.81 631.82,-143 634.4,-142.14 637.06,-141.25 639.73,-140.36"/>
<polygon fill="midnightblue" stroke="midnightblue" points="641,-143.62 649.37,-137.12 638.77,-136.99 641,-143.62"/>
</g>
<!-- Node15&#45;&gt;Node2 -->
<g id="edge29" class="edge">
<title>Node15&#45;&gt;Node2</title>
<path fill="none" stroke="midnightblue" d="M458.14,-117.98C412.61,-107.39 334.92,-89.34 285.27,-77.8"/>
<polygon fill="midnightblue" stroke="midnightblue" points="285.96,-74.36 275.43,-75.51 284.38,-81.18 285.96,-74.36"/>
</g>
<!-- Node15&#45;&gt;Node3 -->
<g id="edge28" class="edge">
<title>Node15&#45;&gt;Node3</title>
<path fill="none" stroke="midnightblue" d="M439.53,-117.99C377.43,-108.4 273.36,-92.22 173.56,-76.11"/>
<polygon fill="midnightblue" stroke="midnightblue" points="174.04,-72.64 163.6,-74.5 172.92,-79.55 174.04,-72.64"/>
</g>
<!-- Node15&#45;&gt;Node4 -->
<g id="edge30" class="edge">
<title>Node15&#45;&gt;Node4</title>
<path fill="none" stroke="midnightblue" d="M518.17,-117.91C573.34,-97.62 711.96,-46.63 775.75,-23.16"/>
<polygon fill="midnightblue" stroke="midnightblue" points="777.15,-26.38 785.32,-19.64 774.73,-19.81 777.15,-26.38"/>
</g>
</g>
</svg>
