<?xml version="1.0" encoding="UTF-8" standalone="no"?>
<!DOCTYPE svg PUBLIC "-//W3C//DTD SVG 1.1//EN"
 "http://www.w3.org/Graphics/SVG/1.1/DTD/svg11.dtd">
<!-- Generated by graphviz version 2.43.0 (0)
 -->
<!-- Title: circle.h Pages: 1 -->
<svg width="738pt" height="375pt"
 viewBox="0.00 0.00 738.00 375.00" xmlns="http://www.w3.org/2000/svg" xmlns:xlink="http://www.w3.org/1999/xlink">
<g id="graph0" class="graph" transform="scale(1 1) rotate(0) translate(4 371)">
<title>circle.h</title>
<!-- Node1 -->
<g id="node1" class="node">
<title>Node1</title>
<g id="a_node1"><a xlink:title=" ">
<polygon fill="#bfbfbf" stroke="black" points="117,-347.5 117,-366.5 169,-366.5 169,-347.5 117,-347.5"/>
<text text-anchor="middle" x="143" y="-354.5" font-family="Helvetica,sans-Serif" font-size="10.00">circle.h</text>
</a>
</g>
</g>
<!-- Node2 -->
<g id="node2" class="node">
<title>Node2</title>
<g id="a_node2"><a xlink:href="../../da/d0b/limes__namespace_8h.html" target="_top" xlink:title=" ">
<polygon fill="none" stroke="black" points="181,-118 181,-137 295,-137 295,-118 181,-118"/>
<text text-anchor="middle" x="238" y="-125" font-family="Helvetica,sans-Serif" font-size="10.00">limes_namespace.h</text>
</a>
</g>
</g>
<!-- Node1&#45;&gt;Node2 -->
<g id="edge1" class="edge">
<title>Node1&#45;&gt;Node2</title>
<path fill="none" stroke="midnightblue" d="M146.61,-347.36C160.57,-313.93 211.22,-192.63 230.49,-146.49"/>
<polygon fill="midnightblue" stroke="midnightblue" points="233.76,-147.73 234.39,-137.15 227.31,-145.03 233.76,-147.73"/>
</g>
<!-- Node3 -->
<g id="node3" class="node">
<title>Node3</title>
<g id="a_node3"><a xlink:title=" ">
<polygon fill="none" stroke="#bfbfbf" points="64.5,-118 64.5,-137 153.5,-137 153.5,-118 64.5,-118"/>
<text text-anchor="middle" x="109" y="-125" font-family="Helvetica,sans-Serif" font-size="10.00">limes_export.h</text>
</a>
</g>
</g>
<!-- Node1&#45;&gt;Node3 -->
<g id="edge2" class="edge">
<title>Node1&#45;&gt;Node3</title>
<path fill="none" stroke="midnightblue" d="M136.26,-347.47C118.89,-324.89 72.87,-261.02 57,-199 54.8,-190.39 53.54,-187.19 57,-179 63.09,-164.59 75.53,-152.27 86.71,-143.4"/>
<polygon fill="midnightblue" stroke="midnightblue" points="88.96,-146.09 94.89,-137.32 84.78,-140.48 88.96,-146.09"/>
</g>
<!-- Node4 -->
<g id="node4" class="node">
<title>Node4</title>
<g id="a_node4"><a xlink:title=" ">
<polygon fill="none" stroke="#bfbfbf" points="445,-0.5 445,-19.5 545,-19.5 545,-0.5 445,-0.5"/>
<text text-anchor="middle" x="495" y="-7.5" font-family="Helvetica,sans-Serif" font-size="10.00">limes_platform.h</text>
</a>
</g>
</g>
<!-- Node1&#45;&gt;Node4 -->
<g id="edge3" class="edge">
<title>Node1&#45;&gt;Node4</title>
<path fill="none" stroke="midnightblue" d="M116.77,-348.89C75.49,-335.93 0,-304.26 0,-246 0,-246 0,-246 0,-126.5 0,-38.22 302.37,-17.38 434.46,-12.49"/>
<polygon fill="midnightblue" stroke="midnightblue" points="434.94,-15.97 444.81,-12.13 434.7,-8.98 434.94,-15.97"/>
</g>
<!-- Node5 -->
<g id="node5" class="node">
<title>Node5</title>
<g id="a_node5"><a xlink:href="../../d8/d23/2_dshape_8h.html" target="_top" xlink:title=" ">
<polygon fill="none" stroke="black" points="66,-179.5 66,-198.5 134,-198.5 134,-179.5 66,-179.5"/>
<text text-anchor="middle" x="100" y="-186.5" font-family="Helvetica,sans-Serif" font-size="10.00">2Dshape.h</text>
</a>
</g>
</g>
<!-- Node1&#45;&gt;Node5 -->
<g id="edge4" class="edge">
<title>Node1&#45;&gt;Node5</title>
<path fill="none" stroke="midnightblue" d="M140.69,-347.08C133.92,-320.95 114.04,-244.21 104.81,-208.58"/>
<polygon fill="midnightblue" stroke="midnightblue" points="108.12,-207.37 102.22,-198.57 101.34,-209.13 108.12,-207.37"/>
</g>
<!-- Node6 -->
<g id="node6" class="node">
<title>Node6</title>
<g id="a_node6"><a xlink:href="../../d3/d53/preprocessor_8h.html" target="_top" xlink:title=" ">
<polygon fill="none" stroke="black" points="542.5,-56.5 542.5,-75.5 683.5,-75.5 683.5,-56.5 542.5,-56.5"/>
<text text-anchor="middle" x="613" y="-63.5" font-family="Helvetica,sans-Serif" font-size="10.00">../../../misc/preprocessor.h</text>
</a>
</g>
</g>
<!-- Node1&#45;&gt;Node6 -->
<g id="edge7" class="edge">
<title>Node1&#45;&gt;Node6</title>
<path fill="none" stroke="midnightblue" d="M169.36,-353.9C283.58,-344.46 730,-303.87 730,-246 730,-246 730,-246 730,-188 730,-149.41 714.8,-139.77 688,-112 675.2,-98.73 657.67,-87.93 642.78,-80.24"/>
<polygon fill="midnightblue" stroke="midnightblue" points="643.97,-76.92 633.45,-75.64 640.87,-83.2 643.97,-76.92"/>
</g>
<!-- Node7 -->
<g id="node7" class="node">
<title>Node7</title>
<g id="a_node7"><a xlink:href="../../dc/d5c/math_functions_8h.html" target="_top" xlink:title=" ">
<polygon fill="none" stroke="black" points="218,-291.5 218,-310.5 334,-310.5 334,-291.5 218,-291.5"/>
<text text-anchor="middle" x="276" y="-298.5" font-family="Helvetica,sans-Serif" font-size="10.00">../../mathFunctions.h</text>
</a>
</g>
</g>
<!-- Node1&#45;&gt;Node7 -->
<g id="edge9" class="edge">
<title>Node1&#45;&gt;Node7</title>
<path fill="none" stroke="midnightblue" d="M164.07,-347.44C186.06,-338.52 220.73,-324.44 245.66,-314.32"/>
<polygon fill="midnightblue" stroke="midnightblue" points="247.08,-317.52 255.02,-310.52 244.44,-311.04 247.08,-317.52"/>
</g>
<!-- Node5&#45;&gt;Node2 -->
<g id="edge5" class="edge">
<title>Node5&#45;&gt;Node2</title>
<path fill="none" stroke="midnightblue" d="M119.77,-179.48C143.14,-169.4 182.21,-152.55 209,-141"/>
<polygon fill="midnightblue" stroke="midnightblue" points="210.47,-144.18 218.26,-137.01 207.7,-137.75 210.47,-144.18"/>
</g>
<!-- Node5&#45;&gt;Node3 -->
<g id="edge6" class="edge">
<title>Node5&#45;&gt;Node3</title>
<path fill="none" stroke="midnightblue" d="M101.29,-179.48C102.56,-171.08 104.54,-157.98 106.18,-147.16"/>
<polygon fill="midnightblue" stroke="midnightblue" points="109.68,-147.42 107.71,-137.01 102.76,-146.37 109.68,-147.42"/>
</g>
<!-- Node6&#45;&gt;Node4 -->
<g id="edge8" class="edge">
<title>Node6&#45;&gt;Node4</title>
<path fill="none" stroke="midnightblue" d="M594.3,-56.44C575.06,-47.64 544.85,-33.81 522.8,-23.72"/>
<polygon fill="midnightblue" stroke="midnightblue" points="524.16,-20.5 513.61,-19.52 521.25,-26.86 524.16,-20.5"/>
</g>
<!-- Node7&#45;&gt;Node2 -->
<g id="edge10" class="edge">
<title>Node7&#45;&gt;Node2</title>
<path fill="none" stroke="midnightblue" d="M273.02,-291.46C269.96,-282.46 265.21,-267.86 262,-255 252.56,-217.18 244.85,-172.19 240.88,-147.34"/>
<polygon fill="midnightblue" stroke="midnightblue" points="244.3,-146.5 239.29,-137.16 237.38,-147.58 244.3,-146.5"/>
</g>
<!-- Node7&#45;&gt;Node3 -->
<g id="edge12" class="edge">
<title>Node7&#45;&gt;Node3</title>
<path fill="none" stroke="midnightblue" d="M267.49,-291.26C240.91,-263.96 159.15,-180 124.63,-144.55"/>
<polygon fill="midnightblue" stroke="midnightblue" points="126.78,-141.74 117.3,-137.02 121.76,-146.63 126.78,-141.74"/>
</g>
<!-- Node7&#45;&gt;Node6 -->
<g id="edge16" class="edge">
<title>Node7&#45;&gt;Node6</title>
<path fill="none" stroke="midnightblue" d="M334.22,-297.58C393.05,-293.6 485.78,-283.02 561,-255 605.15,-238.55 621.72,-235.91 651,-199 675.6,-167.99 687.26,-147.62 670,-112 663.6,-98.8 651.25,-88.3 639.67,-80.78"/>
<polygon fill="midnightblue" stroke="midnightblue" points="641.45,-77.77 631.08,-75.61 637.84,-83.77 641.45,-77.77"/>
</g>
<!-- Node8 -->
<g id="node8" class="node">
<title>Node8</title>
<g id="a_node8"><a xlink:title=" ">
<polygon fill="none" stroke="#bfbfbf" points="346.5,-118 346.5,-137 415.5,-137 415.5,-118 346.5,-118"/>
<text text-anchor="middle" x="381" y="-125" font-family="Helvetica,sans-Serif" font-size="10.00">type_traits</text>
</a>
</g>
</g>
<!-- Node7&#45;&gt;Node8 -->
<g id="edge11" class="edge">
<title>Node7&#45;&gt;Node8</title>
<path fill="none" stroke="midnightblue" d="M277.81,-291.28C280.65,-278.51 286.81,-254.16 296,-235 313.36,-198.82 345.03,-163.83 364.43,-144.33"/>
<polygon fill="midnightblue" stroke="midnightblue" points="367.01,-146.71 371.68,-137.2 362.1,-141.72 367.01,-146.71"/>
</g>
<!-- Node9 -->
<g id="node9" class="node">
<title>Node9</title>
<g id="a_node9"><a xlink:href="../../d0/d00/compiler__defs_8h.html" target="_top" xlink:title=" ">
<polygon fill="none" stroke="black" points="553.5,-112.5 553.5,-142.5 660.5,-142.5 660.5,-112.5 553.5,-112.5"/>
<text text-anchor="start" x="561.5" y="-130.5" font-family="Helvetica,sans-Serif" font-size="10.00">../system/compiler</text>
<text text-anchor="middle" x="607" y="-119.5" font-family="Helvetica,sans-Serif" font-size="10.00">_defs.h</text>
</a>
</g>
</g>
<!-- Node7&#45;&gt;Node9 -->
<g id="edge13" class="edge">
<title>Node7&#45;&gt;Node9</title>
<path fill="none" stroke="midnightblue" d="M334.08,-292.2C426.12,-278.52 598.79,-247.01 635,-199 645.87,-184.59 637.07,-165.39 626.55,-150.67"/>
<polygon fill="midnightblue" stroke="midnightblue" points="629.18,-148.35 620.29,-142.59 623.65,-152.64 629.18,-148.35"/>
</g>
<!-- Node10 -->
<g id="node10" class="node">
<title>Node10</title>
<g id="a_node10"><a xlink:href="../../dc/d9b/math_functions__impl_8h.html" target="_top" xlink:title=" ">
<polygon fill="none" stroke="black" points="304.5,-235.5 304.5,-254.5 429.5,-254.5 429.5,-235.5 304.5,-235.5"/>
<text text-anchor="middle" x="367" y="-242.5" font-family="Helvetica,sans-Serif" font-size="10.00">mathFunctions_impl.h</text>
</a>
</g>
</g>
<!-- Node7&#45;&gt;Node10 -->
<g id="edge17" class="edge">
<title>Node7&#45;&gt;Node10</title>
<path fill="none" stroke="midnightblue" d="M290.62,-291.32C304.95,-282.82 327.01,-269.73 343.75,-259.8"/>
<polygon fill="midnightblue" stroke="midnightblue" points="345.6,-262.77 352.42,-254.65 342.03,-256.75 345.6,-262.77"/>
</g>
<!-- Node9&#45;&gt;Node4 -->
<g id="edge14" class="edge">
<title>Node9&#45;&gt;Node4</title>
<path fill="none" stroke="midnightblue" d="M581.31,-112.46C566.31,-103.41 547.7,-90.62 534,-76 520.95,-62.07 510.17,-43.06 503.27,-29.2"/>
<polygon fill="midnightblue" stroke="midnightblue" points="506.24,-27.3 498.79,-19.77 499.92,-30.31 506.24,-27.3"/>
</g>
<!-- Node9&#45;&gt;Node6 -->
<g id="edge15" class="edge">
<title>Node9&#45;&gt;Node6</title>
<path fill="none" stroke="midnightblue" d="M608.42,-112.4C609.22,-104.47 610.23,-94.46 611.1,-85.86"/>
<polygon fill="midnightblue" stroke="midnightblue" points="614.61,-85.96 612.13,-75.66 607.64,-85.26 614.61,-85.96"/>
</g>
<!-- Node10&#45;&gt;Node2 -->
<g id="edge18" class="edge">
<title>Node10&#45;&gt;Node2</title>
<path fill="none" stroke="midnightblue" d="M357.3,-235.32C335.64,-215.92 283.05,-168.83 255.49,-144.16"/>
<polygon fill="midnightblue" stroke="midnightblue" points="257.59,-141.34 247.81,-137.28 252.92,-146.56 257.59,-141.34"/>
</g>
<!-- Node11 -->
<g id="node11" class="node">
<title>Node11</title>
<g id="a_node11"><a xlink:title=" ">
<polygon fill="none" stroke="#bfbfbf" points="342.5,-179.5 342.5,-198.5 389.5,-198.5 389.5,-179.5 342.5,-179.5"/>
<text text-anchor="middle" x="366" y="-186.5" font-family="Helvetica,sans-Serif" font-size="10.00">cmath</text>
</a>
</g>
</g>
<!-- Node10&#45;&gt;Node11 -->
<g id="edge19" class="edge">
<title>Node10&#45;&gt;Node11</title>
<path fill="none" stroke="midnightblue" d="M366.83,-235.08C366.7,-228.01 366.52,-217.86 366.35,-208.99"/>
<polygon fill="midnightblue" stroke="midnightblue" points="369.85,-208.68 366.16,-198.75 362.85,-208.81 369.85,-208.68"/>
</g>
<!-- Node12 -->
<g id="node12" class="node">
<title>Node12</title>
<g id="a_node12"><a xlink:title=" ">
<polygon fill="none" stroke="#bfbfbf" points="562,-179.5 562,-198.5 626,-198.5 626,-179.5 562,-179.5"/>
<text text-anchor="middle" x="594" y="-186.5" font-family="Helvetica,sans-Serif" font-size="10.00">algorithm</text>
</a>
</g>
</g>
<!-- Node10&#45;&gt;Node12 -->
<g id="edge20" class="edge">
<title>Node10&#45;&gt;Node12</title>
<path fill="none" stroke="midnightblue" d="M402.97,-235.44C443.48,-225.81 509.22,-210.17 552.04,-199.98"/>
<polygon fill="midnightblue" stroke="midnightblue" points="552.95,-203.36 561.87,-197.64 551.33,-196.55 552.95,-203.36"/>
</g>
<!-- Node13 -->
<g id="node13" class="node">
<title>Node13</title>
<g id="a_node13"><a xlink:href="../../d5/dbb/limes__assert_8h.html" target="_top" xlink:title=" ">
<polygon fill="none" stroke="red" points="408,-179.5 408,-198.5 544,-198.5 544,-179.5 408,-179.5"/>
<text text-anchor="middle" x="476" y="-186.5" font-family="Helvetica,sans-Serif" font-size="10.00">../system/limes_assert.h</text>
</a>
</g>
</g>
<!-- Node10&#45;&gt;Node13 -->
<g id="edge21" class="edge">
<title>Node10&#45;&gt;Node13</title>
<path fill="none" stroke="midnightblue" d="M384.51,-235.32C402.07,-226.62 429.33,-213.12 449.53,-203.11"/>
<polygon fill="midnightblue" stroke="midnightblue" points="451.12,-206.23 458.53,-198.65 448.02,-199.96 451.12,-206.23"/>
</g>
<!-- Node13&#45;&gt;Node2 -->
<g id="edge23" class="edge">
<title>Node13&#45;&gt;Node2</title>
<path fill="none" stroke="midnightblue" d="M441.9,-179.48C399.75,-168.94 327.95,-150.99 281.77,-139.44"/>
<polygon fill="midnightblue" stroke="midnightblue" points="282.59,-136.04 272.04,-137.01 280.89,-142.83 282.59,-136.04"/>
</g>
<!-- Node13&#45;&gt;Node3 -->
<g id="edge22" class="edge">
<title>Node13&#45;&gt;Node3</title>
<path fill="none" stroke="midnightblue" d="M407.83,-179.48C346.04,-171.39 252.61,-158.22 172,-143 166.14,-141.89 159.99,-140.62 153.93,-139.3"/>
<polygon fill="midnightblue" stroke="midnightblue" points="154.41,-135.82 143.89,-137.05 152.88,-142.65 154.41,-135.82"/>
</g>
<!-- Node13&#45;&gt;Node4 -->
<g id="edge26" class="edge">
<title>Node13&#45;&gt;Node4</title>
<path fill="none" stroke="midnightblue" d="M476.92,-179.46C479.82,-152.43 488.86,-68.24 492.95,-30.11"/>
<polygon fill="midnightblue" stroke="midnightblue" points="496.46,-30.18 494.05,-19.87 489.5,-29.44 496.46,-30.18"/>
</g>
<!-- Node13&#45;&gt;Node6 -->
<g id="edge24" class="edge">
<title>Node13&#45;&gt;Node6</title>
<path fill="none" stroke="midnightblue" d="M482.64,-179.38C494.28,-164.58 519.57,-133.82 545,-112 558.62,-100.32 575.42,-89.17 588.92,-80.89"/>
<polygon fill="midnightblue" stroke="midnightblue" points="590.88,-83.8 597.65,-75.65 587.28,-77.8 590.88,-83.8"/>
</g>
<!-- Node13&#45;&gt;Node8 -->
<g id="edge25" class="edge">
<title>Node13&#45;&gt;Node8</title>
<path fill="none" stroke="midnightblue" d="M462.39,-179.48C446.94,-169.8 421.51,-153.87 403.18,-142.39"/>
<polygon fill="midnightblue" stroke="midnightblue" points="404.92,-139.35 394.59,-137.01 401.2,-145.28 404.92,-139.35"/>
</g>
<!-- Node13&#45;&gt;Node9 -->
<g id="edge27" class="edge">
<title>Node13&#45;&gt;Node9</title>
<path fill="none" stroke="midnightblue" d="M494.77,-179.48C513.51,-170.96 542.89,-157.62 566.89,-146.72"/>
<polygon fill="midnightblue" stroke="midnightblue" points="568.47,-149.85 576.13,-142.52 565.57,-143.47 568.47,-149.85"/>
</g>
</g>
</svg>
