<?xml version="1.0" encoding="UTF-8" standalone="no"?>
<!DOCTYPE svg PUBLIC "-//W3C//DTD SVG 1.1//EN"
 "http://www.w3.org/Graphics/SVG/1.1/DTD/svg11.dtd">
<!-- Generated by graphviz version 2.43.0 (0)
 -->
<!-- Title: angle.h Pages: 1 -->
<!--zoomable 308 -->
<svg id="main" version="1.1" xmlns="http://www.w3.org/2000/svg" xmlns:xlink="http://www.w3.org/1999/xlink" xml:space="preserve" onload="init(evt)">
<style type="text/css"><![CDATA[
.edge:hover path { stroke: red; }
.edge:hover polygon { stroke: red; fill: red; }
]]></style>
<script type="text/javascript"><![CDATA[
var edges = document.getElementsByTagName('g');
if (edges && edges.length) {
  for (var i=0;i<edges.length;i++) {
    if (edges[i].id.substr(0,4)=='edge') {
      edges[i].setAttribute('class','edge');
    }
  }
}
]]></script>
        <defs>
                <circle id="rim" cx="0" cy="0" r="7"/>
                <circle id="rim2" cx="0" cy="0" r="3.5"/>
                <g id="zoomPlus">
                        <use xlink:href="#rim" fill="#404040">
                                <set attributeName="fill" to="#808080" begin="zoomplus.mouseover" end="zoomplus.mouseout"/>
                        </use>
                        <path d="M-4,0h8M0,-4v8" fill="none" stroke="white" stroke-width="1.5" pointer-events="none"/>
                </g>
                <g id="zoomMin">
                        <use xlink:href="#rim" fill="#404040">
                                <set attributeName="fill" to="#808080" begin="zoomminus.mouseover" end="zoomminus.mouseout"/>
                        </use>
                        <path d="M-4,0h8" fill="none" stroke="white" stroke-width="1.5" pointer-events="none"/>
                </g>
                <g id="dirArrow">
                        <path fill="none" stroke="white" stroke-width="1.5" d="M0,-3.0v7 M-2.5,-0.5L0,-3.0L2.5,-0.5"/>
                </g>
               <g id="resetDef">
                       <use xlink:href="#rim2" fill="#404040">
                               <set attributeName="fill" to="#808080" begin="reset.mouseover" end="reset.mouseout"/>
                       </use>
               </g>
        </defs>

<script type="text/javascript">
var viewWidth = 836;
var viewHeight = 308;
var sectionId = 'dynsection-0';
</script>
<script xlink:href="../../svgpan.js"/>
<svg id="graph" class="graph">
<g id="viewport">
<title>angle.h</title>
<!-- Node1 -->
<g id="node1" class="node">
<title>Node1</title>
<g id="a_node1"><a xlink:title=" ">
<polygon fill="#bfbfbf" stroke="black" points="508,-280.5 508,-299.5 561,-299.5 561,-280.5 508,-280.5"/>
<text text-anchor="middle" x="534.5" y="-287.5" font-family="Helvetica,sans-Serif" font-size="10.00">angle.h</text>
</a>
</g>
</g>
<!-- Node2 -->
<g id="node2" class="node">
<title>Node2</title>
<g id="a_node2"><a xlink:title=" ">
<polygon fill="none" stroke="#bfbfbf" points="0,-56.5 0,-75.5 89,-75.5 89,-56.5 0,-56.5"/>
<text text-anchor="middle" x="44.5" y="-63.5" font-family="Helvetica,sans-Serif" font-size="10.00">limes_export.h</text>
</a>
</g>
</g>
<!-- Node1&#45;&gt;Node2 -->
<g id="edge1" class="edge">
<title>Node1&#45;&gt;Node2</title>
<path fill="none" stroke="midnightblue" d="M507.85,-287.23C416.94,-280.64 121.11,-254.37 58.5,-188 32.47,-160.41 36.04,-112.08 40.52,-85.62"/>
<polygon fill="midnightblue" stroke="midnightblue" points="43.96,-86.22 42.4,-75.74 37.09,-84.9 43.96,-86.22"/>
</g>
<!-- Node3 -->
<g id="node3" class="node">
<title>Node3</title>
<g id="a_node3"><a xlink:href="../../da/d0b/limes__namespace_8h.html" target="_top" xlink:title=" ">
<polygon fill="none" stroke="black" points="650.5,-56.5 650.5,-75.5 764.5,-75.5 764.5,-56.5 650.5,-56.5"/>
<text text-anchor="middle" x="707.5" y="-63.5" font-family="Helvetica,sans-Serif" font-size="10.00">limes_namespace.h</text>
</a>
</g>
</g>
<!-- Node1&#45;&gt;Node3 -->
<g id="edge2" class="edge">
<title>Node1&#45;&gt;Node3</title>
<path fill="none" stroke="midnightblue" d="M557.53,-280.45C603.92,-261.8 707.68,-212.57 748.5,-132 757.56,-114.12 741.87,-94.85 727.36,-81.97"/>
<polygon fill="midnightblue" stroke="midnightblue" points="729.52,-79.21 719.59,-75.53 725.05,-84.6 729.52,-79.21"/>
</g>
<!-- Node4 -->
<g id="node4" class="node">
<title>Node4</title>
<g id="a_node4"><a xlink:title=" ">
<polygon fill="none" stroke="#bfbfbf" points="445.5,-0.5 445.5,-19.5 545.5,-19.5 545.5,-0.5 445.5,-0.5"/>
<text text-anchor="middle" x="495.5" y="-7.5" font-family="Helvetica,sans-Serif" font-size="10.00">limes_platform.h</text>
</a>
</g>
</g>
<!-- Node1&#45;&gt;Node4 -->
<g id="edge3" class="edge">
<title>Node1&#45;&gt;Node4</title>
<path fill="none" stroke="midnightblue" d="M561.02,-284.89C633.14,-272.99 827.5,-235.64 827.5,-179 827.5,-179 827.5,-179 827.5,-121 827.5,-83.44 806.11,-74.63 773.5,-56 737.29,-35.31 625.87,-22.21 555.57,-15.77"/>
<polygon fill="midnightblue" stroke="midnightblue" points="555.78,-12.28 545.51,-14.87 555.16,-19.25 555.78,-12.28"/>
</g>
<!-- Node5 -->
<g id="node5" class="node">
<title>Node5</title>
<g id="a_node5"><a xlink:href="../../dd/dfb/math_helpers_8h.html" target="_top" xlink:title=" ">
<polygon fill="none" stroke="black" points="220,-224.5 220,-243.5 327,-243.5 327,-224.5 220,-224.5"/>
<text text-anchor="middle" x="273.5" y="-231.5" font-family="Helvetica,sans-Serif" font-size="10.00">../../mathHelpers.h</text>
</a>
</g>
</g>
<!-- Node1&#45;&gt;Node5 -->
<g id="edge4" class="edge">
<title>Node1&#45;&gt;Node5</title>
<path fill="none" stroke="midnightblue" d="M507.55,-283.42C464.51,-274.52 379.54,-256.94 324.69,-245.59"/>
<polygon fill="midnightblue" stroke="midnightblue" points="325.32,-242.15 314.81,-243.55 323.9,-249 325.32,-242.15"/>
</g>
<!-- Node5&#45;&gt;Node2 -->
<g id="edge8" class="edge">
<title>Node5&#45;&gt;Node2</title>
<path fill="none" stroke="midnightblue" d="M219.76,-226.91C168.73,-220.06 96.87,-207.31 76.5,-188 48.2,-161.18 43.85,-112.51 43.78,-85.79"/>
<polygon fill="midnightblue" stroke="midnightblue" points="47.28,-85.58 43.97,-75.52 40.29,-85.46 47.28,-85.58"/>
</g>
<!-- Node5&#45;&gt;Node3 -->
<g id="edge5" class="edge">
<title>Node5&#45;&gt;Node3</title>
<path fill="none" stroke="midnightblue" d="M327.12,-229.52C437.33,-221.12 683.11,-195.53 732.5,-132 743.68,-117.61 733.03,-97.64 722.38,-83.64"/>
<polygon fill="midnightblue" stroke="midnightblue" points="725,-81.31 715.94,-75.8 719.59,-85.75 725,-81.31"/>
</g>
<!-- Node6 -->
<g id="node6" class="node">
<title>Node6</title>
<g id="a_node6"><a xlink:title=" ">
<polygon fill="none" stroke="#bfbfbf" points="250,-168.5 250,-187.5 297,-187.5 297,-168.5 250,-168.5"/>
<text text-anchor="middle" x="273.5" y="-175.5" font-family="Helvetica,sans-Serif" font-size="10.00">cmath</text>
</a>
</g>
</g>
<!-- Node5&#45;&gt;Node6 -->
<g id="edge6" class="edge">
<title>Node5&#45;&gt;Node6</title>
<path fill="none" stroke="midnightblue" d="M273.5,-224.08C273.5,-217.01 273.5,-206.86 273.5,-197.99"/>
<polygon fill="midnightblue" stroke="midnightblue" points="277,-197.75 273.5,-187.75 270,-197.75 277,-197.75"/>
</g>
<!-- Node7 -->
<g id="node7" class="node">
<title>Node7</title>
<g id="a_node7"><a xlink:title=" ">
<polygon fill="none" stroke="#bfbfbf" points="654,-112.5 654,-131.5 723,-131.5 723,-112.5 654,-112.5"/>
<text text-anchor="middle" x="688.5" y="-119.5" font-family="Helvetica,sans-Serif" font-size="10.00">type_traits</text>
</a>
</g>
</g>
<!-- Node5&#45;&gt;Node7 -->
<g id="edge7" class="edge">
<title>Node5&#45;&gt;Node7</title>
<path fill="none" stroke="midnightblue" d="M312.42,-224.44C351.12,-215.79 412.11,-201.76 464.5,-188 530.45,-170.68 606.55,-148.02 650.92,-134.54"/>
<polygon fill="midnightblue" stroke="midnightblue" points="652.14,-137.83 660.69,-131.57 650.1,-131.13 652.14,-137.83"/>
</g>
<!-- Node8 -->
<g id="node8" class="node">
<title>Node8</title>
<g id="a_node8"><a xlink:title=" ">
<polygon fill="none" stroke="#bfbfbf" points="85.5,-168.5 85.5,-187.5 149.5,-187.5 149.5,-168.5 85.5,-168.5"/>
<text text-anchor="middle" x="117.5" y="-175.5" font-family="Helvetica,sans-Serif" font-size="10.00">algorithm</text>
</a>
</g>
</g>
<!-- Node5&#45;&gt;Node8 -->
<g id="edge9" class="edge">
<title>Node5&#45;&gt;Node8</title>
<path fill="none" stroke="midnightblue" d="M248.78,-224.44C222.65,-215.4 181.24,-201.06 151.92,-190.92"/>
<polygon fill="midnightblue" stroke="midnightblue" points="152.7,-187.48 142.1,-187.52 150.41,-194.1 152.7,-187.48"/>
</g>
<!-- Node9 -->
<g id="node9" class="node">
<title>Node9</title>
<g id="a_node9"><a xlink:href="../../d5/dbb/limes__assert_8h.html" target="_top" xlink:title=" ">
<polygon fill="none" stroke="black" points="319.5,-168.5 319.5,-187.5 455.5,-187.5 455.5,-168.5 319.5,-168.5"/>
<text text-anchor="middle" x="387.5" y="-175.5" font-family="Helvetica,sans-Serif" font-size="10.00">../system/limes_assert.h</text>
</a>
</g>
</g>
<!-- Node5&#45;&gt;Node9 -->
<g id="edge10" class="edge">
<title>Node5&#45;&gt;Node9</title>
<path fill="none" stroke="midnightblue" d="M291.56,-224.44C310.07,-215.68 339.08,-201.94 360.36,-191.86"/>
<polygon fill="midnightblue" stroke="midnightblue" points="361.98,-194.96 369.52,-187.52 358.99,-188.63 361.98,-194.96"/>
</g>
<!-- Node10 -->
<g id="node10" class="node">
<title>Node10</title>
<g id="a_node10"><a xlink:href="../../d3/d53/preprocessor_8h.html" target="_top" xlink:title=" ">
<polygon fill="none" stroke="black" points="186,-56.5 186,-75.5 309,-75.5 309,-56.5 186,-56.5"/>
<text text-anchor="middle" x="247.5" y="-63.5" font-family="Helvetica,sans-Serif" font-size="10.00">../misc/preprocessor.h</text>
</a>
</g>
</g>
<!-- Node5&#45;&gt;Node10 -->
<g id="edge27" class="edge">
<title>Node5&#45;&gt;Node10</title>
<path fill="none" stroke="midnightblue" d="M264.48,-224.34C256.43,-215.93 245.2,-202.36 240.5,-188 229.14,-153.3 236.4,-110.05 242.25,-85.78"/>
<polygon fill="midnightblue" stroke="midnightblue" points="245.72,-86.35 244.85,-75.79 238.94,-84.59 245.72,-86.35"/>
</g>
<!-- Node14 -->
<g id="node14" class="node">
<title>Node14</title>
<g id="a_node14"><a xlink:href="../../d0/d00/compiler__defs_8h.html" target="_top" xlink:title=" ">
<polygon fill="none" stroke="black" points="92,-112.5 92,-131.5 187,-131.5 187,-112.5 92,-112.5"/>
<text text-anchor="middle" x="139.5" y="-119.5" font-family="Helvetica,sans-Serif" font-size="10.00">compiler_defs.h</text>
</a>
</g>
</g>
<!-- Node5&#45;&gt;Node14 -->
<g id="edge26" class="edge">
<title>Node5&#45;&gt;Node14</title>
<path fill="none" stroke="midnightblue" d="M257.28,-224.42C242.16,-216.06 219.33,-202.53 201.5,-188 183.28,-173.15 165.02,-153.26 153.09,-139.4"/>
<polygon fill="midnightblue" stroke="midnightblue" points="155.66,-137.03 146.53,-131.66 150.32,-141.55 155.66,-137.03"/>
</g>
<!-- Node9&#45;&gt;Node2 -->
<g id="edge11" class="edge">
<title>Node9&#45;&gt;Node2</title>
<path fill="none" stroke="midnightblue" d="M319.62,-168.49C232.76,-157.39 92.26,-138.59 82.5,-132 66.29,-121.05 56.04,-100.68 50.33,-85.66"/>
<polygon fill="midnightblue" stroke="midnightblue" points="53.52,-84.18 46.95,-75.87 46.91,-86.46 53.52,-84.18"/>
</g>
<!-- Node9&#45;&gt;Node3 -->
<g id="edge12" class="edge">
<title>Node9&#45;&gt;Node3</title>
<path fill="none" stroke="midnightblue" d="M455.74,-168.75C498.65,-162.08 554.58,-150.67 601.5,-132 634,-119.07 667.82,-96.47 688.27,-81.62"/>
<polygon fill="midnightblue" stroke="midnightblue" points="690.47,-84.35 696.43,-75.59 686.3,-78.72 690.47,-84.35"/>
</g>
<!-- Node9&#45;&gt;Node4 -->
<g id="edge21" class="edge">
<title>Node9&#45;&gt;Node4</title>
<path fill="none" stroke="midnightblue" d="M434.44,-168.41C485.24,-158.65 560.15,-142.68 568.5,-132 596.28,-96.47 546.51,-49.56 516.25,-25.95"/>
<polygon fill="midnightblue" stroke="midnightblue" points="518.03,-22.91 507.95,-19.67 513.81,-28.49 518.03,-22.91"/>
</g>
<!-- Node9&#45;&gt;Node7 -->
<g id="edge15" class="edge">
<title>Node9&#45;&gt;Node7</title>
<path fill="none" stroke="midnightblue" d="M435.82,-168.44C486.56,-159.44 568.66,-144.83 639.5,-132 640.96,-131.74 642.45,-131.47 643.95,-131.19"/>
<polygon fill="midnightblue" stroke="midnightblue" points="644.76,-134.6 653.97,-129.36 643.5,-127.72 644.76,-134.6"/>
</g>
<!-- Node9&#45;&gt;Node10 -->
<g id="edge13" class="edge">
<title>Node9&#45;&gt;Node10</title>
<path fill="none" stroke="midnightblue" d="M342.26,-168.48C318.81,-162 291.24,-150.85 272.5,-132 260.12,-119.55 253.74,-100.32 250.54,-86"/>
<polygon fill="midnightblue" stroke="midnightblue" points="253.91,-84.96 248.6,-75.79 247.03,-86.27 253.91,-84.96"/>
</g>
<!-- Node11 -->
<g id="node11" class="node">
<title>Node11</title>
<g id="a_node11"><a xlink:title=" ">
<polygon fill="none" stroke="#bfbfbf" points="368,-112.5 368,-131.5 413,-131.5 413,-112.5 368,-112.5"/>
<text text-anchor="middle" x="390.5" y="-119.5" font-family="Helvetica,sans-Serif" font-size="10.00">utility</text>
</a>
</g>
</g>
<!-- Node9&#45;&gt;Node11 -->
<g id="edge16" class="edge">
<title>Node9&#45;&gt;Node11</title>
<path fill="none" stroke="midnightblue" d="M388,-168.08C388.39,-161.01 388.95,-150.86 389.45,-141.99"/>
<polygon fill="midnightblue" stroke="midnightblue" points="392.95,-141.93 390.01,-131.75 385.96,-141.54 392.95,-141.93"/>
</g>
<!-- Node12 -->
<g id="node12" class="node">
<title>Node12</title>
<g id="a_node12"><a xlink:href="../../d1/d57/_ignore_unused_8h.html" target="_top" xlink:title=" ">
<polygon fill="none" stroke="black" points="431.5,-112.5 431.5,-131.5 559.5,-131.5 559.5,-112.5 431.5,-112.5"/>
<text text-anchor="middle" x="495.5" y="-119.5" font-family="Helvetica,sans-Serif" font-size="10.00">../misc/IgnoreUnused.h</text>
</a>
</g>
</g>
<!-- Node9&#45;&gt;Node12 -->
<g id="edge17" class="edge">
<title>Node9&#45;&gt;Node12</title>
<path fill="none" stroke="midnightblue" d="M404.85,-168.32C422.17,-159.66 449.02,-146.24 469,-136.25"/>
<polygon fill="midnightblue" stroke="midnightblue" points="470.81,-139.26 478.19,-131.65 467.68,-133 470.81,-139.26"/>
</g>
<!-- Node13 -->
<g id="node13" class="node">
<title>Node13</title>
<g id="a_node13"><a xlink:title=" ">
<polygon fill="none" stroke="#bfbfbf" points="281.5,-112.5 281.5,-131.5 349.5,-131.5 349.5,-112.5 281.5,-112.5"/>
<text text-anchor="middle" x="315.5" y="-119.5" font-family="Helvetica,sans-Serif" font-size="10.00">filesystem</text>
</a>
</g>
</g>
<!-- Node9&#45;&gt;Node13 -->
<g id="edge22" class="edge">
<title>Node9&#45;&gt;Node13</title>
<path fill="none" stroke="midnightblue" d="M375.93,-168.32C365.08,-160.18 348.62,-147.84 335.62,-138.09"/>
<polygon fill="midnightblue" stroke="midnightblue" points="337.38,-135.03 327.28,-131.83 333.18,-140.63 337.38,-135.03"/>
</g>
<!-- Node9&#45;&gt;Node14 -->
<g id="edge23" class="edge">
<title>Node9&#45;&gt;Node14</title>
<path fill="none" stroke="midnightblue" d="M348.2,-168.44C304.94,-159.02 235.33,-143.87 188.53,-133.68"/>
<polygon fill="midnightblue" stroke="midnightblue" points="189.13,-130.22 178.61,-131.52 187.64,-137.06 189.13,-130.22"/>
</g>
<!-- Node10&#45;&gt;Node4 -->
<g id="edge14" class="edge">
<title>Node10&#45;&gt;Node4</title>
<path fill="none" stroke="midnightblue" d="M286.8,-56.44C330.06,-47.02 399.67,-31.87 446.47,-21.68"/>
<polygon fill="midnightblue" stroke="midnightblue" points="447.36,-25.06 456.39,-19.52 445.87,-18.22 447.36,-25.06"/>
</g>
<!-- Node12&#45;&gt;Node2 -->
<g id="edge18" class="edge">
<title>Node12&#45;&gt;Node2</title>
<path fill="none" stroke="midnightblue" d="M431.41,-113.08C428.4,-112.72 425.42,-112.35 422.5,-112 307.36,-98.05 172.44,-82.08 98.97,-73.41"/>
<polygon fill="midnightblue" stroke="midnightblue" points="99.36,-69.93 89.02,-72.24 98.54,-76.89 99.36,-69.93"/>
</g>
<!-- Node12&#45;&gt;Node3 -->
<g id="edge19" class="edge">
<title>Node12&#45;&gt;Node3</title>
<path fill="none" stroke="midnightblue" d="M529.09,-112.44C565.69,-103.12 624.34,-88.18 664.33,-78"/>
<polygon fill="midnightblue" stroke="midnightblue" points="665.24,-81.38 674.07,-75.52 663.51,-74.59 665.24,-81.38"/>
</g>
<!-- Node12&#45;&gt;Node4 -->
<g id="edge20" class="edge">
<title>Node12&#45;&gt;Node4</title>
<path fill="none" stroke="midnightblue" d="M495.5,-112.37C495.5,-94.62 495.5,-53.67 495.5,-29.6"/>
<polygon fill="midnightblue" stroke="midnightblue" points="499,-29.59 495.5,-19.59 492,-29.59 499,-29.59"/>
</g>
<!-- Node14&#45;&gt;Node4 -->
<g id="edge24" class="edge">
<title>Node14&#45;&gt;Node4</title>
<path fill="none" stroke="midnightblue" d="M141.81,-112.12C146.04,-97.74 156.52,-69.57 176.5,-56 217.54,-28.12 354.9,-17.27 435.37,-13.24"/>
<polygon fill="midnightblue" stroke="midnightblue" points="435.55,-16.73 445.37,-12.76 435.22,-9.74 435.55,-16.73"/>
</g>
<!-- Node14&#45;&gt;Node10 -->
<g id="edge25" class="edge">
<title>Node14&#45;&gt;Node10</title>
<path fill="none" stroke="midnightblue" d="M156.85,-112.32C174.17,-103.66 201.02,-90.24 221,-80.25"/>
<polygon fill="midnightblue" stroke="midnightblue" points="222.81,-83.26 230.19,-75.65 219.68,-77 222.81,-83.26"/>
</g>
</g>
</svg>
        <g id="navigator" transform="translate(0 0)" fill="#404254">
                <rect fill="#f2f5e9" fill-opacity="0.5" stroke="#606060" stroke-width=".5" x="0" y="0" width="60" height="60"/>
                <use id="zoomplus" xlink:href="#zoomPlus" x="17" y="9" onmousedown="handleZoom(evt,'in')"/>
                <use id="zoomminus" xlink:href="#zoomMin" x="42" y="9" onmousedown="handleZoom(evt,'out')"/>
                <use id="reset" xlink:href="#resetDef" x="30" y="36" onmousedown="handleReset()"/>
                <g id="arrowUp" xlink:href="#dirArrow" transform="translate(30 24)" onmousedown="handlePan(0,-1)">
                  <use xlink:href="#rim" fill="#404040">
                        <set attributeName="fill" to="#808080" begin="arrowUp.mouseover" end="arrowUp.mouseout"/>
                  </use>
                  <path fill="none" stroke="white" stroke-width="1.5" d="M0,-3.0v7 M-2.5,-0.5L0,-3.0L2.5,-0.5"/>
                </g>
                <g id="arrowRight" xlink:href="#dirArrow" transform="rotate(90) translate(36 -43)" onmousedown="handlePan(1,0)">
                  <use xlink:href="#rim" fill="#404040">
                        <set attributeName="fill" to="#808080" begin="arrowRight.mouseover" end="arrowRight.mouseout"/>
                  </use>
                  <path fill="none" stroke="white" stroke-width="1.5" d="M0,-3.0v7 M-2.5,-0.5L0,-3.0L2.5,-0.5"/>
                </g>
                <g id="arrowDown" xlink:href="#dirArrow" transform="rotate(180) translate(-30 -48)" onmousedown="handlePan(0,1)">
                  <use xlink:href="#rim" fill="#404040">
                        <set attributeName="fill" to="#808080" begin="arrowDown.mouseover" end="arrowDown.mouseout"/>
                  </use>
                  <path fill="none" stroke="white" stroke-width="1.5" d="M0,-3.0v7 M-2.5,-0.5L0,-3.0L2.5,-0.5"/>
                </g>
                <g id="arrowLeft" xlink:href="#dirArrow" transform="rotate(270) translate(-36 17)" onmousedown="handlePan(-1,0)">
                  <use xlink:href="#rim" fill="#404040">
                        <set attributeName="fill" to="#808080" begin="arrowLeft.mouseover" end="arrowLeft.mouseout"/>
                  </use>
                  <path fill="none" stroke="white" stroke-width="1.5" d="M0,-3.0v7 M-2.5,-0.5L0,-3.0L2.5,-0.5"/>
                </g>
        </g>
        <svg viewBox="0 0 15 15" width="100%" height="30px" preserveAspectRatio="xMaxYMin meet">
         <g id="arrow_out" transform="scale(0.3 0.3)">
          <a xlink:href="angle_8h__incl_org.svg" target="_base">
           <rect id="button" ry="5" rx="5" y="6" x="6" height="38" width="38"
                fill="#f2f5e9" fill-opacity="0.5" stroke="#606060" stroke-width="1.0"/>
           <path id="arrow"
             d="M 11.500037,31.436501 C 11.940474,20.09759 22.043105,11.32322 32.158766,21.979434 L 37.068811,17.246167 C 37.068811,17.246167 37.088388,32 37.088388,32 L 22.160133,31.978069 C 22.160133,31.978069 26.997745,27.140456 26.997745,27.140456 C 18.528582,18.264221 13.291696,25.230495 11.500037,31.436501 z"
             style="fill:#404040;"/>
          </a>
         </g>
        </svg>
</svg>
