<?xml version="1.0" encoding="UTF-8" standalone="no"?>
<!DOCTYPE svg PUBLIC "-//W3C//DTD SVG 1.1//EN"
 "http://www.w3.org/Graphics/SVG/1.1/DTD/svg11.dtd">
<!-- Generated by graphviz version 2.43.0 (0)
 -->
<!-- Title: angle.h Pages: 1 -->
<!--zoomable 375 -->
<svg id="main" version="1.1" xmlns="http://www.w3.org/2000/svg" xmlns:xlink="http://www.w3.org/1999/xlink" xml:space="preserve" onload="init(evt)">
<style type="text/css"><![CDATA[
.edge:hover path { stroke: red; }
.edge:hover polygon { stroke: red; fill: red; }
]]></style>
<script type="text/javascript"><![CDATA[
var edges = document.getElementsByTagName('g');
if (edges && edges.length) {
  for (var i=0;i<edges.length;i++) {
    if (edges[i].id.substr(0,4)=='edge') {
      edges[i].setAttribute('class','edge');
    }
  }
}
]]></script>
        <defs>
                <circle id="rim" cx="0" cy="0" r="7"/>
                <circle id="rim2" cx="0" cy="0" r="3.5"/>
                <g id="zoomPlus">
                        <use xlink:href="#rim" fill="#404040">
                                <set attributeName="fill" to="#808080" begin="zoomplus.mouseover" end="zoomplus.mouseout"/>
                        </use>
                        <path d="M-4,0h8M0,-4v8" fill="none" stroke="white" stroke-width="1.5" pointer-events="none"/>
                </g>
                <g id="zoomMin">
                        <use xlink:href="#rim" fill="#404040">
                                <set attributeName="fill" to="#808080" begin="zoomminus.mouseover" end="zoomminus.mouseout"/>
                        </use>
                        <path d="M-4,0h8" fill="none" stroke="white" stroke-width="1.5" pointer-events="none"/>
                </g>
                <g id="dirArrow">
                        <path fill="none" stroke="white" stroke-width="1.5" d="M0,-3.0v7 M-2.5,-0.5L0,-3.0L2.5,-0.5"/>
                </g>
               <g id="resetDef">
                       <use xlink:href="#rim2" fill="#404040">
                               <set attributeName="fill" to="#808080" begin="reset.mouseover" end="reset.mouseout"/>
                       </use>
               </g>
        </defs>

<script type="text/javascript">
var viewWidth = 726;
var viewHeight = 375;
var sectionId = 'dynsection-0';
</script>
<script xlink:href="../../svgpan.js"/>
<svg id="graph" class="graph">
<g id="viewport">
<title>angle.h</title>
<!-- Node1 -->
<g id="node1" class="node">
<title>Node1</title>
<g id="a_node1"><a xlink:title=" ">
<polygon fill="#bfbfbf" stroke="black" points="445,-347.5 445,-366.5 498,-366.5 498,-347.5 445,-347.5"/>
<text text-anchor="middle" x="471.5" y="-354.5" font-family="Helvetica,sans-Serif" font-size="10.00">angle.h</text>
</a>
</g>
</g>
<!-- Node2 -->
<g id="node2" class="node">
<title>Node2</title>
<g id="a_node2"><a xlink:title=" ">
<polygon fill="none" stroke="#bfbfbf" points="0,-118 0,-137 89,-137 89,-118 0,-118"/>
<text text-anchor="middle" x="44.5" y="-125" font-family="Helvetica,sans-Serif" font-size="10.00">limes_export.h</text>
</a>
</g>
</g>
<!-- Node1&#45;&gt;Node2 -->
<g id="edge1" class="edge">
<title>Node1&#45;&gt;Node2</title>
<path fill="none" stroke="midnightblue" d="M444.74,-353.96C384.24,-348.98 238.88,-334.83 196.5,-311 125.54,-271.1 73.62,-184.19 53.58,-146.52"/>
<polygon fill="midnightblue" stroke="midnightblue" points="56.5,-144.54 48.79,-137.28 50.29,-147.77 56.5,-144.54"/>
</g>
<!-- Node3 -->
<g id="node3" class="node">
<title>Node3</title>
<g id="a_node3"><a xlink:href="../../da/d0b/limes__namespace_8h.html" target="_top" xlink:title=" ">
<polygon fill="none" stroke="black" points="560.5,-118 560.5,-137 674.5,-137 674.5,-118 560.5,-118"/>
<text text-anchor="middle" x="617.5" y="-125" font-family="Helvetica,sans-Serif" font-size="10.00">limes_namespace.h</text>
</a>
</g>
</g>
<!-- Node1&#45;&gt;Node3 -->
<g id="edge2" class="edge">
<title>Node1&#45;&gt;Node3</title>
<path fill="none" stroke="midnightblue" d="M485.66,-347.21C517.77,-326.3 595.41,-270.02 622.5,-199 628.91,-182.19 626.34,-161.51 622.97,-146.91"/>
<polygon fill="midnightblue" stroke="midnightblue" points="626.31,-145.86 620.37,-137.09 619.55,-147.65 626.31,-145.86"/>
</g>
<!-- Node4 -->
<g id="node4" class="node">
<title>Node4</title>
<g id="a_node4"><a xlink:title=" ">
<polygon fill="none" stroke="#bfbfbf" points="295.5,-0.5 295.5,-19.5 395.5,-19.5 395.5,-0.5 295.5,-0.5"/>
<text text-anchor="middle" x="345.5" y="-7.5" font-family="Helvetica,sans-Serif" font-size="10.00">limes_platform.h</text>
</a>
</g>
</g>
<!-- Node1&#45;&gt;Node4 -->
<g id="edge3" class="edge">
<title>Node1&#45;&gt;Node4</title>
<path fill="none" stroke="midnightblue" d="M498.29,-356.03C562.05,-354.56 717.5,-341.2 717.5,-246 717.5,-246 717.5,-246 717.5,-126.5 717.5,-62.04 511.18,-29.53 405.85,-17.13"/>
<polygon fill="midnightblue" stroke="midnightblue" points="406,-13.63 395.67,-15.96 405.2,-20.58 406,-13.63"/>
</g>
<!-- Node5 -->
<g id="node5" class="node">
<title>Node5</title>
<g id="a_node5"><a xlink:href="../../dc/d5c/math_functions_8h.html" target="_top" xlink:title=" ">
<polygon fill="none" stroke="black" points="205.5,-291.5 205.5,-310.5 321.5,-310.5 321.5,-291.5 205.5,-291.5"/>
<text text-anchor="middle" x="263.5" y="-298.5" font-family="Helvetica,sans-Serif" font-size="10.00">../../mathFunctions.h</text>
</a>
</g>
</g>
<!-- Node1&#45;&gt;Node5 -->
<g id="edge4" class="edge">
<title>Node1&#45;&gt;Node5</title>
<path fill="none" stroke="midnightblue" d="M444.73,-349.05C409.66,-339.95 347.74,-323.87 306.17,-313.08"/>
<polygon fill="midnightblue" stroke="midnightblue" points="306.89,-309.65 296.33,-310.52 305.13,-316.42 306.89,-309.65"/>
</g>
<!-- Node5&#45;&gt;Node2 -->
<g id="edge7" class="edge">
<title>Node5&#45;&gt;Node2</title>
<path fill="none" stroke="midnightblue" d="M249.87,-291.43C236.13,-282.66 214.45,-268.44 196.5,-255 145.94,-217.14 89.55,-168.37 61.82,-143.92"/>
<polygon fill="midnightblue" stroke="midnightblue" points="63.98,-141.16 54.17,-137.15 59.34,-146.4 63.98,-141.16"/>
</g>
<!-- Node5&#45;&gt;Node3 -->
<g id="edge5" class="edge">
<title>Node5&#45;&gt;Node3</title>
<path fill="none" stroke="midnightblue" d="M321.6,-299.81C379.82,-297.55 470.71,-288.3 541.5,-255 575.7,-238.91 587.04,-231.98 605.5,-199 614.39,-183.11 617.03,-162.3 617.67,-147.41"/>
<polygon fill="midnightblue" stroke="midnightblue" points="621.17,-147.42 617.83,-137.36 614.17,-147.3 621.17,-147.42"/>
</g>
<!-- Node6 -->
<g id="node6" class="node">
<title>Node6</title>
<g id="a_node6"><a xlink:title=" ">
<polygon fill="none" stroke="#bfbfbf" points="271,-118 271,-137 340,-137 340,-118 271,-118"/>
<text text-anchor="middle" x="305.5" y="-125" font-family="Helvetica,sans-Serif" font-size="10.00">type_traits</text>
</a>
</g>
</g>
<!-- Node5&#45;&gt;Node6 -->
<g id="edge6" class="edge">
<title>Node5&#45;&gt;Node6</title>
<path fill="none" stroke="midnightblue" d="M264.05,-291.31C265.51,-271.18 270.21,-219.94 282.5,-179 285.88,-167.75 291.25,-155.76 295.96,-146.29"/>
<polygon fill="midnightblue" stroke="midnightblue" points="299.2,-147.65 300.68,-137.16 292.98,-144.44 299.2,-147.65"/>
</g>
<!-- Node7 -->
<g id="node7" class="node">
<title>Node7</title>
<g id="a_node7"><a xlink:href="../../d0/d00/compiler__defs_8h.html" target="_top" xlink:title=" ">
<polygon fill="none" stroke="black" points="107,-112.5 107,-142.5 214,-142.5 214,-112.5 107,-112.5"/>
<text text-anchor="start" x="115" y="-130.5" font-family="Helvetica,sans-Serif" font-size="10.00">../system/compiler</text>
<text text-anchor="middle" x="160.5" y="-119.5" font-family="Helvetica,sans-Serif" font-size="10.00">_defs.h</text>
</a>
</g>
</g>
<!-- Node5&#45;&gt;Node7 -->
<g id="edge8" class="edge">
<title>Node5&#45;&gt;Node7</title>
<path fill="none" stroke="midnightblue" d="M250.4,-291.39C238.83,-283.21 222.19,-269.96 211.5,-255 188.65,-223.02 174,-179.34 166.51,-152.57"/>
<polygon fill="midnightblue" stroke="midnightblue" points="169.88,-151.62 163.91,-142.87 163.12,-153.43 169.88,-151.62"/>
</g>
<!-- Node8 -->
<g id="node8" class="node">
<title>Node8</title>
<g id="a_node8"><a xlink:href="../../d3/d53/preprocessor_8h.html" target="_top" xlink:title=" ">
<polygon fill="none" stroke="black" points="239,-56.5 239,-75.5 362,-75.5 362,-56.5 239,-56.5"/>
<text text-anchor="middle" x="300.5" y="-63.5" font-family="Helvetica,sans-Serif" font-size="10.00">../misc/preprocessor.h</text>
</a>
</g>
</g>
<!-- Node5&#45;&gt;Node8 -->
<g id="edge12" class="edge">
<title>Node5&#45;&gt;Node8</title>
<path fill="none" stroke="midnightblue" d="M261.29,-291.38C254.72,-264.03 237.2,-177.14 261.5,-112 265.67,-100.81 274.02,-90.56 281.92,-82.68"/>
<polygon fill="midnightblue" stroke="midnightblue" points="284.56,-85 289.51,-75.63 279.8,-79.87 284.56,-85"/>
</g>
<!-- Node9 -->
<g id="node9" class="node">
<title>Node9</title>
<g id="a_node9"><a xlink:href="../../dc/d9b/math_functions__impl_8h.html" target="_top" xlink:title=" ">
<polygon fill="none" stroke="black" points="407,-235.5 407,-254.5 532,-254.5 532,-235.5 407,-235.5"/>
<text text-anchor="middle" x="469.5" y="-242.5" font-family="Helvetica,sans-Serif" font-size="10.00">mathFunctions_impl.h</text>
</a>
</g>
</g>
<!-- Node5&#45;&gt;Node9 -->
<g id="edge13" class="edge">
<title>Node5&#45;&gt;Node9</title>
<path fill="none" stroke="midnightblue" d="M296.14,-291.44C331.55,-282.16 388.21,-267.31 427.05,-257.13"/>
<polygon fill="midnightblue" stroke="midnightblue" points="428.23,-260.44 437.01,-254.52 426.45,-253.67 428.23,-260.44"/>
</g>
<!-- Node7&#45;&gt;Node4 -->
<g id="edge9" class="edge">
<title>Node7&#45;&gt;Node4</title>
<path fill="none" stroke="midnightblue" d="M171.29,-112.29C183.8,-96.65 205.77,-71.65 229.5,-56 252.04,-41.13 280.23,-30.05 303.17,-22.61"/>
<polygon fill="midnightblue" stroke="midnightblue" points="304.48,-25.87 312.97,-19.54 302.39,-19.19 304.48,-25.87"/>
</g>
<!-- Node7&#45;&gt;Node8 -->
<g id="edge10" class="edge">
<title>Node7&#45;&gt;Node8</title>
<path fill="none" stroke="midnightblue" d="M193.68,-112.4C217.06,-102.46 248.11,-89.26 270.71,-79.66"/>
<polygon fill="midnightblue" stroke="midnightblue" points="272.29,-82.79 280.13,-75.66 269.56,-76.35 272.29,-82.79"/>
</g>
<!-- Node8&#45;&gt;Node4 -->
<g id="edge11" class="edge">
<title>Node8&#45;&gt;Node4</title>
<path fill="none" stroke="midnightblue" d="M307.93,-56.08C314.35,-48.38 323.81,-37.03 331.62,-27.65"/>
<polygon fill="midnightblue" stroke="midnightblue" points="334.49,-29.67 338.21,-19.75 329.12,-25.19 334.49,-29.67"/>
</g>
<!-- Node9&#45;&gt;Node3 -->
<g id="edge14" class="edge">
<title>Node9&#45;&gt;Node3</title>
<path fill="none" stroke="midnightblue" d="M512.26,-235.5C535.95,-228.93 564.56,-217.69 584.5,-199 599.56,-184.88 608.4,-162.51 613.08,-146.76"/>
<polygon fill="midnightblue" stroke="midnightblue" points="616.46,-147.67 615.68,-137.1 609.7,-145.85 616.46,-147.67"/>
</g>
<!-- Node10 -->
<g id="node10" class="node">
<title>Node10</title>
<g id="a_node10"><a xlink:title=" ">
<polygon fill="none" stroke="#bfbfbf" points="446,-179.5 446,-198.5 493,-198.5 493,-179.5 446,-179.5"/>
<text text-anchor="middle" x="469.5" y="-186.5" font-family="Helvetica,sans-Serif" font-size="10.00">cmath</text>
</a>
</g>
</g>
<!-- Node9&#45;&gt;Node10 -->
<g id="edge15" class="edge">
<title>Node9&#45;&gt;Node10</title>
<path fill="none" stroke="midnightblue" d="M469.5,-235.08C469.5,-228.01 469.5,-217.86 469.5,-208.99"/>
<polygon fill="midnightblue" stroke="midnightblue" points="473,-208.75 469.5,-198.75 466,-208.75 473,-208.75"/>
</g>
<!-- Node11 -->
<g id="node11" class="node">
<title>Node11</title>
<g id="a_node11"><a xlink:title=" ">
<polygon fill="none" stroke="#bfbfbf" points="511.5,-179.5 511.5,-198.5 575.5,-198.5 575.5,-179.5 511.5,-179.5"/>
<text text-anchor="middle" x="543.5" y="-186.5" font-family="Helvetica,sans-Serif" font-size="10.00">algorithm</text>
</a>
</g>
</g>
<!-- Node9&#45;&gt;Node11 -->
<g id="edge16" class="edge">
<title>Node9&#45;&gt;Node11</title>
<path fill="none" stroke="midnightblue" d="M481.39,-235.32C492.65,-227.11 509.79,-214.6 523.21,-204.81"/>
<polygon fill="midnightblue" stroke="midnightblue" points="525.38,-207.56 531.39,-198.83 521.25,-201.9 525.38,-207.56"/>
</g>
<!-- Node12 -->
<g id="node12" class="node">
<title>Node12</title>
<g id="a_node12"><a xlink:href="../../d5/dbb/limes__assert_8h.html" target="_top" xlink:title=" ">
<polygon fill="none" stroke="red" points="291.5,-179.5 291.5,-198.5 427.5,-198.5 427.5,-179.5 291.5,-179.5"/>
<text text-anchor="middle" x="359.5" y="-186.5" font-family="Helvetica,sans-Serif" font-size="10.00">../system/limes_assert.h</text>
</a>
</g>
</g>
<!-- Node9&#45;&gt;Node12 -->
<g id="edge17" class="edge">
<title>Node9&#45;&gt;Node12</title>
<path fill="none" stroke="midnightblue" d="M451.83,-235.32C434.11,-226.62 406.6,-213.12 386.21,-203.11"/>
<polygon fill="midnightblue" stroke="midnightblue" points="387.65,-199.92 377.13,-198.65 384.56,-206.2 387.65,-199.92"/>
</g>
<!-- Node12&#45;&gt;Node2 -->
<g id="edge18" class="edge">
<title>Node12&#45;&gt;Node2</title>
<path fill="none" stroke="midnightblue" d="M300.13,-179.48C246.82,-171.44 166.55,-158.34 97.5,-143 93.03,-142.01 88.38,-140.88 83.76,-139.7"/>
<polygon fill="midnightblue" stroke="midnightblue" points="84.37,-136.24 73.81,-137.06 82.58,-143.01 84.37,-136.24"/>
</g>
<!-- Node12&#45;&gt;Node3 -->
<g id="edge19" class="edge">
<title>Node12&#45;&gt;Node3</title>
<path fill="none" stroke="midnightblue" d="M396.47,-179.48C442.35,-168.89 520.65,-150.84 570.68,-139.3"/>
<polygon fill="midnightblue" stroke="midnightblue" points="571.65,-142.67 580.6,-137.01 570.07,-135.85 571.65,-142.67"/>
</g>
<!-- Node12&#45;&gt;Node4 -->
<g id="edge22" class="edge">
<title>Node12&#45;&gt;Node4</title>
<path fill="none" stroke="midnightblue" d="M362.29,-179.49C368.82,-158.24 383.66,-101.34 371.5,-56 368.85,-46.1 363.43,-36.13 358.23,-28.1"/>
<polygon fill="midnightblue" stroke="midnightblue" points="360.96,-25.91 352.39,-19.68 355.21,-29.89 360.96,-25.91"/>
</g>
<!-- Node12&#45;&gt;Node6 -->
<g id="edge21" class="edge">
<title>Node12&#45;&gt;Node6</title>
<path fill="none" stroke="midnightblue" d="M351.76,-179.48C343.5,-170.37 330.22,-155.74 320.01,-144.48"/>
<polygon fill="midnightblue" stroke="midnightblue" points="322.53,-142.06 313.22,-137.01 317.35,-146.77 322.53,-142.06"/>
</g>
<!-- Node12&#45;&gt;Node7 -->
<g id="edge23" class="edge">
<title>Node12&#45;&gt;Node7</title>
<path fill="none" stroke="midnightblue" d="M330.99,-179.48C301.39,-170.63 254.31,-156.55 217.12,-145.43"/>
<polygon fill="midnightblue" stroke="midnightblue" points="217.98,-142.03 207.4,-142.52 215.98,-148.74 217.98,-142.03"/>
</g>
<!-- Node12&#45;&gt;Node8 -->
<g id="edge20" class="edge">
<title>Node12&#45;&gt;Node8</title>
<path fill="none" stroke="midnightblue" d="M360.2,-179.46C361.02,-164.78 361.04,-134.2 349.5,-112 343.24,-99.95 332.39,-89.48 322.5,-81.68"/>
<polygon fill="midnightblue" stroke="midnightblue" points="324.3,-78.66 314.18,-75.53 320.14,-84.29 324.3,-78.66"/>
</g>
</g>
</svg>
        <g id="navigator" transform="translate(0 0)" fill="#404254">
                <rect fill="#f2f5e9" fill-opacity="0.5" stroke="#606060" stroke-width=".5" x="0" y="0" width="60" height="60"/>
                <use id="zoomplus" xlink:href="#zoomPlus" x="17" y="9" onmousedown="handleZoom(evt,'in')"/>
                <use id="zoomminus" xlink:href="#zoomMin" x="42" y="9" onmousedown="handleZoom(evt,'out')"/>
                <use id="reset" xlink:href="#resetDef" x="30" y="36" onmousedown="handleReset()"/>
                <g id="arrowUp" xlink:href="#dirArrow" transform="translate(30 24)" onmousedown="handlePan(0,-1)">
                  <use xlink:href="#rim" fill="#404040">
                        <set attributeName="fill" to="#808080" begin="arrowUp.mouseover" end="arrowUp.mouseout"/>
                  </use>
                  <path fill="none" stroke="white" stroke-width="1.5" d="M0,-3.0v7 M-2.5,-0.5L0,-3.0L2.5,-0.5"/>
                </g>
                <g id="arrowRight" xlink:href="#dirArrow" transform="rotate(90) translate(36 -43)" onmousedown="handlePan(1,0)">
                  <use xlink:href="#rim" fill="#404040">
                        <set attributeName="fill" to="#808080" begin="arrowRight.mouseover" end="arrowRight.mouseout"/>
                  </use>
                  <path fill="none" stroke="white" stroke-width="1.5" d="M0,-3.0v7 M-2.5,-0.5L0,-3.0L2.5,-0.5"/>
                </g>
                <g id="arrowDown" xlink:href="#dirArrow" transform="rotate(180) translate(-30 -48)" onmousedown="handlePan(0,1)">
                  <use xlink:href="#rim" fill="#404040">
                        <set attributeName="fill" to="#808080" begin="arrowDown.mouseover" end="arrowDown.mouseout"/>
                  </use>
                  <path fill="none" stroke="white" stroke-width="1.5" d="M0,-3.0v7 M-2.5,-0.5L0,-3.0L2.5,-0.5"/>
                </g>
                <g id="arrowLeft" xlink:href="#dirArrow" transform="rotate(270) translate(-36 17)" onmousedown="handlePan(-1,0)">
                  <use xlink:href="#rim" fill="#404040">
                        <set attributeName="fill" to="#808080" begin="arrowLeft.mouseover" end="arrowLeft.mouseout"/>
                  </use>
                  <path fill="none" stroke="white" stroke-width="1.5" d="M0,-3.0v7 M-2.5,-0.5L0,-3.0L2.5,-0.5"/>
                </g>
        </g>
        <svg viewBox="0 0 15 15" width="100%" height="30px" preserveAspectRatio="xMaxYMin meet">
         <g id="arrow_out" transform="scale(0.3 0.3)">
          <a xlink:href="angle_8h__incl_org.svg" target="_base">
           <rect id="button" ry="5" rx="5" y="6" x="6" height="38" width="38"
                fill="#f2f5e9" fill-opacity="0.5" stroke="#606060" stroke-width="1.0"/>
           <path id="arrow"
             d="M 11.500037,31.436501 C 11.940474,20.09759 22.043105,11.32322 32.158766,21.979434 L 37.068811,17.246167 C 37.068811,17.246167 37.088388,32 37.088388,32 L 22.160133,31.978069 C 22.160133,31.978069 26.997745,27.140456 26.997745,27.140456 C 18.528582,18.264221 13.291696,25.230495 11.500037,31.436501 z"
             style="fill:#404040;"/>
          </a>
         </g>
        </svg>
</svg>
