<?xml version="1.0" encoding="UTF-8" standalone="no"?>
<!DOCTYPE svg PUBLIC "-//W3C//DTD SVG 1.1//EN"
 "http://www.w3.org/Graphics/SVG/1.1/DTD/svg11.dtd">
<!-- Generated by graphviz version 2.43.0 (0)
 -->
<!-- Title: hash.h Pages: 1 -->
<svg width="532pt" height="84pt"
 viewBox="0.00 0.00 531.50 84.00" xmlns="http://www.w3.org/2000/svg" xmlns:xlink="http://www.w3.org/1999/xlink">
<g id="graph0" class="graph" transform="scale(1 1) rotate(0) translate(4 80)">
<title>hash.h</title>
<!-- Node1 -->
<g id="node1" class="node">
<title>Node1</title>
<g id="a_node1"><a xlink:title=" ">
<polygon fill="#bfbfbf" stroke="black" points="275,-56.5 275,-75.5 324,-75.5 324,-56.5 275,-56.5"/>
<text text-anchor="middle" x="299.5" y="-63.5" font-family="Helvetica,sans-Serif" font-size="10.00">hash.h</text>
</a>
</g>
</g>
<!-- Node2 -->
<g id="node2" class="node">
<title>Node2</title>
<g id="a_node2"><a xlink:title=" ">
<polygon fill="none" stroke="#bfbfbf" points="0,-0.5 0,-19.5 89,-19.5 89,-0.5 0,-0.5"/>
<text text-anchor="middle" x="44.5" y="-7.5" font-family="Helvetica,sans-Serif" font-size="10.00">limes_export.h</text>
</a>
</g>
</g>
<!-- Node1&#45;&gt;Node2 -->
<g id="edge1" class="edge">
<title>Node1&#45;&gt;Node2</title>
<path fill="none" stroke="midnightblue" d="M274.59,-59.72C233.14,-50.95 149.25,-33.18 95.03,-21.7"/>
<polygon fill="midnightblue" stroke="midnightblue" points="95.45,-18.21 84.94,-19.56 94,-25.06 95.45,-18.21"/>
</g>
<!-- Node3 -->
<g id="node3" class="node">
<title>Node3</title>
<g id="a_node3"><a xlink:href="../../da/d0b/limes__namespace_8h.html" target="_top" xlink:title=" ">
<polygon fill="none" stroke="black" points="107.5,-0.5 107.5,-19.5 221.5,-19.5 221.5,-0.5 107.5,-0.5"/>
<text text-anchor="middle" x="164.5" y="-7.5" font-family="Helvetica,sans-Serif" font-size="10.00">limes_namespace.h</text>
</a>
</g>
</g>
<!-- Node1&#45;&gt;Node3 -->
<g id="edge2" class="edge">
<title>Node1&#45;&gt;Node3</title>
<path fill="none" stroke="midnightblue" d="M278.11,-56.44C255.79,-47.52 220.6,-33.44 195.29,-23.32"/>
<polygon fill="midnightblue" stroke="midnightblue" points="196.38,-19.98 185.79,-19.52 193.78,-26.48 196.38,-19.98"/>
</g>
<!-- Node4 -->
<g id="node4" class="node">
<title>Node4</title>
<g id="a_node4"><a xlink:title=" ">
<polygon fill="none" stroke="#bfbfbf" points="240,-0.5 240,-19.5 293,-19.5 293,-0.5 240,-0.5"/>
<text text-anchor="middle" x="266.5" y="-7.5" font-family="Helvetica,sans-Serif" font-size="10.00">cstddef</text>
</a>
</g>
</g>
<!-- Node1&#45;&gt;Node4 -->
<g id="edge3" class="edge">
<title>Node1&#45;&gt;Node4</title>
<path fill="none" stroke="midnightblue" d="M294.05,-56.08C289.49,-48.61 282.83,-37.72 277.21,-28.52"/>
<polygon fill="midnightblue" stroke="midnightblue" points="280.05,-26.46 271.85,-19.75 274.08,-30.11 280.05,-26.46"/>
</g>
<!-- Node5 -->
<g id="node5" class="node">
<title>Node5</title>
<g id="a_node5"><a xlink:title=" ">
<polygon fill="none" stroke="#bfbfbf" points="311.5,-0.5 311.5,-19.5 355.5,-19.5 355.5,-0.5 311.5,-0.5"/>
<text text-anchor="middle" x="333.5" y="-7.5" font-family="Helvetica,sans-Serif" font-size="10.00">string</text>
</a>
</g>
</g>
<!-- Node1&#45;&gt;Node5 -->
<g id="edge4" class="edge">
<title>Node1&#45;&gt;Node5</title>
<path fill="none" stroke="midnightblue" d="M305.11,-56.08C309.87,-48.53 316.82,-37.49 322.65,-28.23"/>
<polygon fill="midnightblue" stroke="midnightblue" points="325.62,-30.08 327.99,-19.75 319.7,-26.35 325.62,-30.08"/>
</g>
<!-- Node6 -->
<g id="node6" class="node">
<title>Node6</title>
<g id="a_node6"><a xlink:title=" ">
<polygon fill="none" stroke="#bfbfbf" points="374,-0.5 374,-19.5 447,-19.5 447,-0.5 374,-0.5"/>
<text text-anchor="middle" x="410.5" y="-7.5" font-family="Helvetica,sans-Serif" font-size="10.00">string_view</text>
</a>
</g>
</g>
<!-- Node1&#45;&gt;Node6 -->
<g id="edge5" class="edge">
<title>Node1&#45;&gt;Node6</title>
<path fill="none" stroke="midnightblue" d="M317.33,-56.32C335.22,-47.62 362.98,-34.12 383.55,-24.11"/>
<polygon fill="midnightblue" stroke="midnightblue" points="385.25,-27.18 392.71,-19.65 382.19,-20.88 385.25,-27.18"/>
</g>
<!-- Node7 -->
<g id="node7" class="node">
<title>Node7</title>
<g id="a_node7"><a xlink:title=" ">
<polygon fill="none" stroke="#bfbfbf" points="465.5,-0.5 465.5,-19.5 523.5,-19.5 523.5,-0.5 465.5,-0.5"/>
<text text-anchor="middle" x="494.5" y="-7.5" font-family="Helvetica,sans-Serif" font-size="10.00">memory</text>
</a>
</g>
</g>
<!-- Node1&#45;&gt;Node7 -->
<g id="edge6" class="edge">
<title>Node1&#45;&gt;Node7</title>
<path fill="none" stroke="midnightblue" d="M324.2,-58.16C357.29,-49 416.37,-32.63 455.51,-21.8"/>
<polygon fill="midnightblue" stroke="midnightblue" points="456.54,-25.14 465.24,-19.1 454.67,-18.4 456.54,-25.14"/>
</g>
</g>
</svg>
