<?xml version="1.0" encoding="UTF-8" standalone="no"?>
<!DOCTYPE svg PUBLIC "-//W3C//DTD SVG 1.1//EN"
 "http://www.w3.org/Graphics/SVG/1.1/DTD/svg11.dtd">
<!-- Generated by graphviz version 2.43.0 (0)
 -->
<!-- Title: sphere.h Pages: 1 -->
<!--zoomable 319 -->
<svg id="main" version="1.1" xmlns="http://www.w3.org/2000/svg" xmlns:xlink="http://www.w3.org/1999/xlink" xml:space="preserve" onload="init(evt)">
<style type="text/css"><![CDATA[
.edge:hover path { stroke: red; }
.edge:hover polygon { stroke: red; fill: red; }
]]></style>
<script type="text/javascript"><![CDATA[
var edges = document.getElementsByTagName('g');
if (edges && edges.length) {
  for (var i=0;i<edges.length;i++) {
    if (edges[i].id.substr(0,4)=='edge') {
      edges[i].setAttribute('class','edge');
    }
  }
}
]]></script>
        <defs>
                <circle id="rim" cx="0" cy="0" r="7"/>
                <circle id="rim2" cx="0" cy="0" r="3.5"/>
                <g id="zoomPlus">
                        <use xlink:href="#rim" fill="#404040">
                                <set attributeName="fill" to="#808080" begin="zoomplus.mouseover" end="zoomplus.mouseout"/>
                        </use>
                        <path d="M-4,0h8M0,-4v8" fill="none" stroke="white" stroke-width="1.5" pointer-events="none"/>
                </g>
                <g id="zoomMin">
                        <use xlink:href="#rim" fill="#404040">
                                <set attributeName="fill" to="#808080" begin="zoomminus.mouseover" end="zoomminus.mouseout"/>
                        </use>
                        <path d="M-4,0h8" fill="none" stroke="white" stroke-width="1.5" pointer-events="none"/>
                </g>
                <g id="dirArrow">
                        <path fill="none" stroke="white" stroke-width="1.5" d="M0,-3.0v7 M-2.5,-0.5L0,-3.0L2.5,-0.5"/>
                </g>
               <g id="resetDef">
                       <use xlink:href="#rim2" fill="#404040">
                               <set attributeName="fill" to="#808080" begin="reset.mouseover" end="reset.mouseout"/>
                       </use>
               </g>
        </defs>

<script type="text/javascript">
var viewWidth = 1141;
var viewHeight = 319;
var sectionId = 'dynsection-0';
</script>
<script xlink:href="../../svgpan.js"/>
<svg id="graph" class="graph">
<g id="viewport">
<title>sphere.h</title>
<!-- Node1 -->
<g id="node1" class="node">
<title>Node1</title>
<g id="a_node1"><a xlink:title=" ">
<polygon fill="#bfbfbf" stroke="black" points="684.5,-291.5 684.5,-310.5 743.5,-310.5 743.5,-291.5 684.5,-291.5"/>
<text text-anchor="middle" x="714" y="-298.5" font-family="Helvetica,sans-Serif" font-size="10.00">sphere.h</text>
</a>
</g>
</g>
<!-- Node2 -->
<g id="node2" class="node">
<title>Node2</title>
<g id="a_node2"><a xlink:href="../../da/d0b/limes__namespace_8h.html" target="_top" xlink:title=" ">
<polygon fill="none" stroke="black" points="714,-0.5 714,-19.5 828,-19.5 828,-0.5 714,-0.5"/>
<text text-anchor="middle" x="771" y="-7.5" font-family="Helvetica,sans-Serif" font-size="10.00">limes_namespace.h</text>
</a>
</g>
</g>
<!-- Node1&#45;&gt;Node2 -->
<g id="edge1" class="edge">
<title>Node1&#45;&gt;Node2</title>
<path fill="none" stroke="midnightblue" d="M715.71,-291.35C723.56,-251.55 756.3,-85.55 767.34,-29.55"/>
<polygon fill="midnightblue" stroke="midnightblue" points="770.8,-30.1 769.3,-19.62 763.93,-28.75 770.8,-30.1"/>
</g>
<!-- Node3 -->
<g id="node3" class="node">
<title>Node3</title>
<g id="a_node3"><a xlink:title=" ">
<polygon fill="none" stroke="#bfbfbf" points="902.5,-0.5 902.5,-19.5 991.5,-19.5 991.5,-0.5 902.5,-0.5"/>
<text text-anchor="middle" x="947" y="-7.5" font-family="Helvetica,sans-Serif" font-size="10.00">limes_export.h</text>
</a>
</g>
</g>
<!-- Node1&#45;&gt;Node3 -->
<g id="edge2" class="edge">
<title>Node1&#45;&gt;Node3</title>
<path fill="none" stroke="midnightblue" d="M743.8,-298.61C839.52,-293.33 1133,-270.57 1133,-190 1133,-190 1133,-190 1133,-126.5 1133,-90.25 1120.36,-78.58 1092,-56 1066.18,-35.44 1030.92,-24.22 1001.64,-18.13"/>
<polygon fill="midnightblue" stroke="midnightblue" points="1002.04,-14.65 991.55,-16.19 1000.71,-21.52 1002.04,-14.65"/>
</g>
<!-- Node4 -->
<g id="node4" class="node">
<title>Node4</title>
<g id="a_node4"><a xlink:title=" ">
<polygon fill="none" stroke="#bfbfbf" points="180,-0.5 180,-19.5 280,-19.5 280,-0.5 180,-0.5"/>
<text text-anchor="middle" x="230" y="-7.5" font-family="Helvetica,sans-Serif" font-size="10.00">limes_platform.h</text>
</a>
</g>
</g>
<!-- Node1&#45;&gt;Node4 -->
<g id="edge3" class="edge">
<title>Node1&#45;&gt;Node4</title>
<path fill="none" stroke="midnightblue" d="M684.23,-298.61C549.1,-291.92 0,-260.39 0,-190 0,-190 0,-190 0,-126.5 0,-50.53 101.45,-24.52 169.6,-15.63"/>
<polygon fill="midnightblue" stroke="midnightblue" points="170.3,-19.07 179.81,-14.39 169.46,-12.12 170.3,-19.07"/>
</g>
<!-- Node5 -->
<g id="node5" class="node">
<title>Node5</title>
<g id="a_node5"><a xlink:href="../../d3/d53/preprocessor_8h.html" target="_top" xlink:title=" ">
<polygon fill="none" stroke="black" points="66.5,-56.5 66.5,-75.5 207.5,-75.5 207.5,-56.5 66.5,-56.5"/>
<text text-anchor="middle" x="137" y="-63.5" font-family="Helvetica,sans-Serif" font-size="10.00">../../../misc/preprocessor.h</text>
</a>
</g>
</g>
<!-- Node1&#45;&gt;Node5 -->
<g id="edge4" class="edge">
<title>Node1&#45;&gt;Node5</title>
<path fill="none" stroke="midnightblue" d="M684.36,-297.56C601.18,-289.41 361.48,-256.84 206,-143 182.95,-126.12 161.71,-100.58 149.05,-83.84"/>
<polygon fill="midnightblue" stroke="midnightblue" points="151.7,-81.53 142.95,-75.56 146.06,-85.69 151.7,-81.53"/>
</g>
<!-- Node6 -->
<g id="node6" class="node">
<title>Node6</title>
<g id="a_node6"><a xlink:href="../../dd/dfb/math_helpers_8h.html" target="_top" xlink:title=" ">
<polygon fill="none" stroke="black" points="448.5,-179.5 448.5,-198.5 555.5,-198.5 555.5,-179.5 448.5,-179.5"/>
<text text-anchor="middle" x="502" y="-186.5" font-family="Helvetica,sans-Serif" font-size="10.00">../../mathHelpers.h</text>
</a>
</g>
</g>
<!-- Node1&#45;&gt;Node6 -->
<g id="edge6" class="edge">
<title>Node1&#45;&gt;Node6</title>
<path fill="none" stroke="midnightblue" d="M697.36,-291.37C660.44,-272.21 571.45,-226.04 527.47,-203.22"/>
<polygon fill="midnightblue" stroke="midnightblue" points="529.05,-200.09 518.56,-198.59 525.82,-206.3 529.05,-200.09"/>
</g>
<!-- Node15 -->
<g id="node15" class="node">
<title>Node15</title>
<g id="a_node15"><a xlink:href="../../d7/d88/3_dshape_8h.html" target="_top" xlink:title=" ">
<polygon fill="none" stroke="black" points="999,-56.5 999,-75.5 1067,-75.5 1067,-56.5 999,-56.5"/>
<text text-anchor="middle" x="1033" y="-63.5" font-family="Helvetica,sans-Serif" font-size="10.00">3Dshape.h</text>
</a>
</g>
</g>
<!-- Node1&#45;&gt;Node15 -->
<g id="edge28" class="edge">
<title>Node1&#45;&gt;Node15</title>
<path fill="none" stroke="midnightblue" d="M743.77,-291.71C767.86,-284.23 802.1,-271.82 829,-255 909.94,-204.39 987.83,-119.45 1018.88,-83.68"/>
<polygon fill="midnightblue" stroke="midnightblue" points="1021.87,-85.56 1025.73,-75.7 1016.56,-81 1021.87,-85.56"/>
</g>
<!-- Node16 -->
<g id="node16" class="node">
<title>Node16</title>
<g id="a_node16"><a xlink:href="../../d3/db6/circle_8h.html" target="_top" xlink:title=" ">
<polygon fill="none" stroke="black" points="742.5,-235.5 742.5,-254.5 819.5,-254.5 819.5,-235.5 742.5,-235.5"/>
<text text-anchor="middle" x="781" y="-242.5" font-family="Helvetica,sans-Serif" font-size="10.00">../2D/circle.h</text>
</a>
</g>
</g>
<!-- Node1&#45;&gt;Node16 -->
<g id="edge31" class="edge">
<title>Node1&#45;&gt;Node16</title>
<path fill="none" stroke="midnightblue" d="M724.76,-291.32C734.77,-283.26 749.89,-271.08 761.93,-261.37"/>
<polygon fill="midnightblue" stroke="midnightblue" points="764.45,-263.83 770.04,-254.83 760.06,-258.38 764.45,-263.83"/>
</g>
<!-- Node5&#45;&gt;Node4 -->
<g id="edge5" class="edge">
<title>Node5&#45;&gt;Node4</title>
<path fill="none" stroke="midnightblue" d="M151.94,-56.32C166.59,-47.82 189.13,-34.73 206.24,-24.8"/>
<polygon fill="midnightblue" stroke="midnightblue" points="208.2,-27.7 215.1,-19.65 204.69,-21.65 208.2,-27.7"/>
</g>
<!-- Node6&#45;&gt;Node2 -->
<g id="edge7" class="edge">
<title>Node6&#45;&gt;Node2</title>
<path fill="none" stroke="midnightblue" d="M535.53,-179.48C561.54,-172.04 597.95,-159.81 627,-143 681.83,-111.28 733.31,-55.58 757.14,-27.77"/>
<polygon fill="midnightblue" stroke="midnightblue" points="760.1,-29.69 763.87,-19.79 754.75,-25.18 760.1,-29.69"/>
</g>
<!-- Node6&#45;&gt;Node3 -->
<g id="edge10" class="edge">
<title>Node6&#45;&gt;Node3</title>
<path fill="none" stroke="midnightblue" d="M538.99,-179.48C571.97,-171.45 621.35,-158.39 663,-143 761.74,-106.53 873.55,-49.73 922.2,-24.21"/>
<polygon fill="midnightblue" stroke="midnightblue" points="923.85,-27.29 931.07,-19.53 920.59,-21.1 923.85,-27.29"/>
</g>
<!-- Node6&#45;&gt;Node5 -->
<g id="edge27" class="edge">
<title>Node6&#45;&gt;Node5</title>
<path fill="none" stroke="midnightblue" d="M448.41,-183.06C403.72,-177.49 339.16,-166.01 287,-143 265.44,-133.49 264.55,-123.53 244,-112 220.53,-98.83 192.43,-87.15 170.91,-79"/>
<polygon fill="midnightblue" stroke="midnightblue" points="172.13,-75.71 161.53,-75.51 169.68,-82.27 172.13,-75.71"/>
</g>
<!-- Node7 -->
<g id="node7" class="node">
<title>Node7</title>
<g id="a_node7"><a xlink:title=" ">
<polygon fill="none" stroke="#bfbfbf" points="296.5,-118 296.5,-137 343.5,-137 343.5,-118 296.5,-118"/>
<text text-anchor="middle" x="320" y="-125" font-family="Helvetica,sans-Serif" font-size="10.00">cmath</text>
</a>
</g>
</g>
<!-- Node6&#45;&gt;Node7 -->
<g id="edge8" class="edge">
<title>Node6&#45;&gt;Node7</title>
<path fill="none" stroke="midnightblue" d="M469.66,-179.45C439.22,-171.12 392.55,-157.6 353,-143 351.35,-142.39 349.65,-141.74 347.96,-141.06"/>
<polygon fill="midnightblue" stroke="midnightblue" points="348.92,-137.67 338.34,-137.03 346.21,-144.12 348.92,-137.67"/>
</g>
<!-- Node8 -->
<g id="node8" class="node">
<title>Node8</title>
<g id="a_node8"><a xlink:title=" ">
<polygon fill="none" stroke="#bfbfbf" points="225.5,-56.5 225.5,-75.5 294.5,-75.5 294.5,-56.5 225.5,-56.5"/>
<text text-anchor="middle" x="260" y="-63.5" font-family="Helvetica,sans-Serif" font-size="10.00">type_traits</text>
</a>
</g>
</g>
<!-- Node6&#45;&gt;Node8 -->
<g id="edge9" class="edge">
<title>Node6&#45;&gt;Node8</title>
<path fill="none" stroke="midnightblue" d="M496.93,-179.43C487.08,-163.58 463.79,-129.65 435,-112 413.35,-98.73 349.1,-84.25 304.79,-75.39"/>
<polygon fill="midnightblue" stroke="midnightblue" points="305.31,-71.93 294.82,-73.43 303.96,-78.8 305.31,-71.93"/>
</g>
<!-- Node9 -->
<g id="node9" class="node">
<title>Node9</title>
<g id="a_node9"><a xlink:title=" ">
<polygon fill="none" stroke="#bfbfbf" points="362,-118 362,-137 426,-137 426,-118 362,-118"/>
<text text-anchor="middle" x="394" y="-125" font-family="Helvetica,sans-Serif" font-size="10.00">algorithm</text>
</a>
</g>
</g>
<!-- Node6&#45;&gt;Node9 -->
<g id="edge11" class="edge">
<title>Node6&#45;&gt;Node9</title>
<path fill="none" stroke="midnightblue" d="M486.53,-179.48C468.72,-169.67 439.26,-153.43 418.37,-141.92"/>
<polygon fill="midnightblue" stroke="midnightblue" points="419.89,-138.77 409.45,-137.01 416.51,-144.9 419.89,-138.77"/>
</g>
<!-- Node10 -->
<g id="node10" class="node">
<title>Node10</title>
<g id="a_node10"><a xlink:href="../../d5/dbb/limes__assert_8h.html" target="_top" xlink:title=" ">
<polygon fill="none" stroke="black" points="482,-118 482,-137 618,-137 618,-118 482,-118"/>
<text text-anchor="middle" x="550" y="-125" font-family="Helvetica,sans-Serif" font-size="10.00">../system/limes_assert.h</text>
</a>
</g>
</g>
<!-- Node6&#45;&gt;Node10 -->
<g id="edge12" class="edge">
<title>Node6&#45;&gt;Node10</title>
<path fill="none" stroke="midnightblue" d="M508.88,-179.48C516.15,-170.46 527.8,-156.02 536.84,-144.81"/>
<polygon fill="midnightblue" stroke="midnightblue" points="539.58,-146.99 543.14,-137.01 534.13,-142.59 539.58,-146.99"/>
</g>
<!-- Node14 -->
<g id="node14" class="node">
<title>Node14</title>
<g id="a_node14"><a xlink:href="../../d0/d00/compiler__defs_8h.html" target="_top" xlink:title=" ">
<polygon fill="none" stroke="black" points="56.5,-112.5 56.5,-142.5 163.5,-142.5 163.5,-112.5 56.5,-112.5"/>
<text text-anchor="start" x="64.5" y="-130.5" font-family="Helvetica,sans-Serif" font-size="10.00">../system/compiler</text>
<text text-anchor="middle" x="110" y="-119.5" font-family="Helvetica,sans-Serif" font-size="10.00">_defs.h</text>
</a>
</g>
</g>
<!-- Node6&#45;&gt;Node14 -->
<g id="edge24" class="edge">
<title>Node6&#45;&gt;Node14</title>
<path fill="none" stroke="midnightblue" d="M448.32,-179.85C376.67,-168.98 250,-149.75 173.63,-138.16"/>
<polygon fill="midnightblue" stroke="midnightblue" points="174.08,-134.69 163.66,-136.65 173.02,-141.61 174.08,-134.69"/>
</g>
<!-- Node10&#45;&gt;Node2 -->
<g id="edge14" class="edge">
<title>Node10&#45;&gt;Node2</title>
<path fill="none" stroke="midnightblue" d="M576.33,-117.85C602.35,-108.86 642.95,-93.66 676,-76 703.85,-61.12 733.5,-39.86 752.13,-25.75"/>
<polygon fill="midnightblue" stroke="midnightblue" points="754.29,-28.5 760.1,-19.64 750.03,-22.95 754.29,-28.5"/>
</g>
<!-- Node10&#45;&gt;Node3 -->
<g id="edge13" class="edge">
<title>Node10&#45;&gt;Node3</title>
<path fill="none" stroke="midnightblue" d="M579.52,-117.91C650.08,-97.38 828.59,-45.45 907.94,-22.36"/>
<polygon fill="midnightblue" stroke="midnightblue" points="908.94,-25.72 917.56,-19.56 906.98,-19 908.94,-25.72"/>
</g>
<!-- Node10&#45;&gt;Node4 -->
<g id="edge22" class="edge">
<title>Node10&#45;&gt;Node4</title>
<path fill="none" stroke="midnightblue" d="M508.88,-117.99C457.31,-107.05 372,-88.05 342,-76 324.09,-68.8 279.8,-42.01 252.59,-25.15"/>
<polygon fill="midnightblue" stroke="midnightblue" points="254.08,-21.96 243.74,-19.65 250.39,-27.9 254.08,-21.96"/>
</g>
<!-- Node10&#45;&gt;Node5 -->
<g id="edge15" class="edge">
<title>Node10&#45;&gt;Node5</title>
<path fill="none" stroke="midnightblue" d="M490.83,-117.98C415.54,-107.13 285.72,-88.43 206.01,-76.94"/>
<polygon fill="midnightblue" stroke="midnightblue" points="206.46,-73.47 196.06,-75.51 205.46,-80.4 206.46,-73.47"/>
</g>
<!-- Node10&#45;&gt;Node8 -->
<g id="edge16" class="edge">
<title>Node10&#45;&gt;Node8</title>
<path fill="none" stroke="midnightblue" d="M508.45,-117.98C454.34,-106.87 360.12,-87.54 304.57,-76.14"/>
<polygon fill="midnightblue" stroke="midnightblue" points="305.16,-72.69 294.66,-74.11 303.76,-79.55 305.16,-72.69"/>
</g>
<!-- Node11 -->
<g id="node11" class="node">
<title>Node11</title>
<g id="a_node11"><a xlink:title=" ">
<polygon fill="none" stroke="#bfbfbf" points="351.5,-56.5 351.5,-75.5 396.5,-75.5 396.5,-56.5 351.5,-56.5"/>
<text text-anchor="middle" x="374" y="-63.5" font-family="Helvetica,sans-Serif" font-size="10.00">utility</text>
</a>
</g>
</g>
<!-- Node10&#45;&gt;Node11 -->
<g id="edge17" class="edge">
<title>Node10&#45;&gt;Node11</title>
<path fill="none" stroke="midnightblue" d="M524.78,-117.98C493.55,-107.42 440.31,-89.42 406.17,-77.88"/>
<polygon fill="midnightblue" stroke="midnightblue" points="407.25,-74.55 396.66,-74.66 405.01,-81.18 407.25,-74.55"/>
</g>
<!-- Node12 -->
<g id="node12" class="node">
<title>Node12</title>
<g id="a_node12"><a xlink:href="../../d1/d57/_ignore_unused_8h.html" target="_top" xlink:title=" ">
<polygon fill="none" stroke="black" points="539,-56.5 539,-75.5 667,-75.5 667,-56.5 539,-56.5"/>
<text text-anchor="middle" x="603" y="-63.5" font-family="Helvetica,sans-Serif" font-size="10.00">../misc/IgnoreUnused.h</text>
</a>
</g>
</g>
<!-- Node10&#45;&gt;Node12 -->
<g id="edge18" class="edge">
<title>Node10&#45;&gt;Node12</title>
<path fill="none" stroke="midnightblue" d="M557.59,-117.98C565.7,-108.87 578.73,-94.24 588.76,-82.98"/>
<polygon fill="midnightblue" stroke="midnightblue" points="591.38,-85.3 595.42,-75.51 586.16,-80.65 591.38,-85.3"/>
</g>
<!-- Node13 -->
<g id="node13" class="node">
<title>Node13</title>
<g id="a_node13"><a xlink:title=" ">
<polygon fill="none" stroke="#bfbfbf" points="415,-56.5 415,-75.5 483,-75.5 483,-56.5 415,-56.5"/>
<text text-anchor="middle" x="449" y="-63.5" font-family="Helvetica,sans-Serif" font-size="10.00">filesystem</text>
</a>
</g>
</g>
<!-- Node10&#45;&gt;Node13 -->
<g id="edge23" class="edge">
<title>Node10&#45;&gt;Node13</title>
<path fill="none" stroke="midnightblue" d="M535.53,-117.98C519.03,-108.25 491.82,-92.23 472.32,-80.74"/>
<polygon fill="midnightblue" stroke="midnightblue" points="473.84,-77.57 463.44,-75.51 470.28,-83.6 473.84,-77.57"/>
</g>
<!-- Node12&#45;&gt;Node2 -->
<g id="edge20" class="edge">
<title>Node12&#45;&gt;Node2</title>
<path fill="none" stroke="midnightblue" d="M629.62,-56.44C658.01,-47.32 703.14,-32.81 734.75,-22.65"/>
<polygon fill="midnightblue" stroke="midnightblue" points="736.06,-25.91 744.5,-19.52 733.91,-19.24 736.06,-25.91"/>
</g>
<!-- Node12&#45;&gt;Node3 -->
<g id="edge19" class="edge">
<title>Node12&#45;&gt;Node3</title>
<path fill="none" stroke="midnightblue" d="M657.51,-56.44C721.8,-46.35 828.04,-29.67 892.38,-19.57"/>
<polygon fill="midnightblue" stroke="midnightblue" points="892.99,-23.02 902.33,-18.01 891.91,-16.11 892.99,-23.02"/>
</g>
<!-- Node12&#45;&gt;Node4 -->
<g id="edge21" class="edge">
<title>Node12&#45;&gt;Node4</title>
<path fill="none" stroke="midnightblue" d="M543.9,-56.44C474.49,-46.4 359.99,-29.82 290.13,-19.71"/>
<polygon fill="midnightblue" stroke="midnightblue" points="290.56,-16.23 280.16,-18.26 289.56,-23.16 290.56,-16.23"/>
</g>
<!-- Node14&#45;&gt;Node4 -->
<g id="edge25" class="edge">
<title>Node14&#45;&gt;Node4</title>
<path fill="none" stroke="midnightblue" d="M86.91,-112.37C66.46,-98.08 42.01,-75.38 57,-56 70.91,-38.01 125.61,-25.86 169.83,-18.77"/>
<polygon fill="midnightblue" stroke="midnightblue" points="170.6,-22.2 179.95,-17.21 169.53,-15.28 170.6,-22.2"/>
</g>
<!-- Node14&#45;&gt;Node5 -->
<g id="edge26" class="edge">
<title>Node14&#45;&gt;Node5</title>
<path fill="none" stroke="midnightblue" d="M116.4,-112.4C120.12,-104.2 124.85,-93.78 128.83,-84.99"/>
<polygon fill="midnightblue" stroke="midnightblue" points="132.13,-86.21 133.07,-75.66 125.75,-83.32 132.13,-86.21"/>
</g>
<!-- Node15&#45;&gt;Node2 -->
<g id="edge29" class="edge">
<title>Node15&#45;&gt;Node2</title>
<path fill="none" stroke="midnightblue" d="M998.73,-57.82C995.78,-57.2 992.84,-56.59 990,-56 932.88,-44.15 867.35,-30.71 822.97,-21.62"/>
<polygon fill="midnightblue" stroke="midnightblue" points="823.49,-18.16 812.99,-19.58 822.09,-25.02 823.49,-18.16"/>
</g>
<!-- Node15&#45;&gt;Node3 -->
<g id="edge30" class="edge">
<title>Node15&#45;&gt;Node3</title>
<path fill="none" stroke="midnightblue" d="M1019.18,-56.32C1005.77,-47.9 985.18,-34.97 969.41,-25.07"/>
<polygon fill="midnightblue" stroke="midnightblue" points="971.11,-22.01 960.78,-19.65 967.39,-27.94 971.11,-22.01"/>
</g>
<!-- Node16&#45;&gt;Node2 -->
<g id="edge32" class="edge">
<title>Node16&#45;&gt;Node2</title>
<path fill="none" stroke="midnightblue" d="M782.24,-235.31C785.83,-208.45 795.4,-124.42 785,-56 783.63,-47 780.81,-37.33 778.05,-29.26"/>
<polygon fill="midnightblue" stroke="midnightblue" points="781.31,-27.98 774.6,-19.78 774.73,-30.37 781.31,-27.98"/>
</g>
<!-- Node16&#45;&gt;Node3 -->
<g id="edge33" class="edge">
<title>Node16&#45;&gt;Node3</title>
<path fill="none" stroke="midnightblue" d="M819.13,-235.5C885.5,-218.4 1020.46,-172.9 1076,-76 1095.15,-42.59 1044.92,-25.88 1001.65,-17.85"/>
<polygon fill="midnightblue" stroke="midnightblue" points="1002.15,-14.38 991.7,-16.13 1000.96,-21.28 1002.15,-14.38"/>
</g>
<!-- Node16&#45;&gt;Node4 -->
<g id="edge34" class="edge">
<title>Node16&#45;&gt;Node4</title>
<path fill="none" stroke="midnightblue" d="M773.14,-235.41C751.74,-212.46 689.82,-148.98 627,-112 587.37,-88.67 571.99,-94.75 530,-76 512.57,-68.22 510.07,-62.14 492,-56 425.08,-33.28 344.47,-21.64 290.5,-15.95"/>
<polygon fill="midnightblue" stroke="midnightblue" points="290.71,-12.46 280.41,-14.93 290,-19.42 290.71,-12.46"/>
</g>
<!-- Node16&#45;&gt;Node5 -->
<g id="edge38" class="edge">
<title>Node16&#45;&gt;Node5</title>
<path fill="none" stroke="midnightblue" d="M742.41,-244.27C650.56,-243.39 414.01,-231.93 244,-143 224.69,-132.9 223.6,-124.86 206,-112 190.99,-101.03 173.43,-89.6 159.78,-81"/>
<polygon fill="midnightblue" stroke="midnightblue" points="161.37,-77.87 151.04,-75.54 157.67,-83.81 161.37,-77.87"/>
</g>
<!-- Node16&#45;&gt;Node6 -->
<g id="edge39" class="edge">
<title>Node16&#45;&gt;Node6</title>
<path fill="none" stroke="midnightblue" d="M742.5,-236.55C694.09,-227.18 610.7,-211.04 555.95,-200.44"/>
<polygon fill="midnightblue" stroke="midnightblue" points="556.56,-197 546.08,-198.53 555.23,-203.87 556.56,-197"/>
</g>
<!-- Node17 -->
<g id="node17" class="node">
<title>Node17</title>
<g id="a_node17"><a xlink:href="../../d8/d23/2_dshape_8h.html" target="_top" xlink:title=" ">
<polygon fill="none" stroke="black" points="913,-56.5 913,-75.5 981,-75.5 981,-56.5 913,-56.5"/>
<text text-anchor="middle" x="947" y="-63.5" font-family="Helvetica,sans-Serif" font-size="10.00">2Dshape.h</text>
</a>
</g>
</g>
<!-- Node16&#45;&gt;Node17 -->
<g id="edge35" class="edge">
<title>Node16&#45;&gt;Node17</title>
<path fill="none" stroke="midnightblue" d="M793.44,-235.31C816.2,-219 865.31,-181.95 899,-143 914.89,-124.62 929.21,-100.49 937.99,-84.4"/>
<polygon fill="midnightblue" stroke="midnightblue" points="941.09,-86.01 942.7,-75.54 934.91,-82.72 941.09,-86.01"/>
</g>
<!-- Node17&#45;&gt;Node2 -->
<g id="edge36" class="edge">
<title>Node17&#45;&gt;Node2</title>
<path fill="none" stroke="midnightblue" d="M919.11,-56.44C889.25,-47.28 841.69,-32.69 808.54,-22.52"/>
<polygon fill="midnightblue" stroke="midnightblue" points="809.34,-19.1 798.76,-19.52 807.29,-25.8 809.34,-19.1"/>
</g>
<!-- Node17&#45;&gt;Node3 -->
<g id="edge37" class="edge">
<title>Node17&#45;&gt;Node3</title>
<path fill="none" stroke="midnightblue" d="M947,-56.08C947,-49.01 947,-38.86 947,-29.99"/>
<polygon fill="midnightblue" stroke="midnightblue" points="950.5,-29.75 947,-19.75 943.5,-29.75 950.5,-29.75"/>
</g>
</g>
</svg>
        <g id="navigator" transform="translate(0 0)" fill="#404254">
                <rect fill="#f2f5e9" fill-opacity="0.5" stroke="#606060" stroke-width=".5" x="0" y="0" width="60" height="60"/>
                <use id="zoomplus" xlink:href="#zoomPlus" x="17" y="9" onmousedown="handleZoom(evt,'in')"/>
                <use id="zoomminus" xlink:href="#zoomMin" x="42" y="9" onmousedown="handleZoom(evt,'out')"/>
                <use id="reset" xlink:href="#resetDef" x="30" y="36" onmousedown="handleReset()"/>
                <g id="arrowUp" xlink:href="#dirArrow" transform="translate(30 24)" onmousedown="handlePan(0,-1)">
                  <use xlink:href="#rim" fill="#404040">
                        <set attributeName="fill" to="#808080" begin="arrowUp.mouseover" end="arrowUp.mouseout"/>
                  </use>
                  <path fill="none" stroke="white" stroke-width="1.5" d="M0,-3.0v7 M-2.5,-0.5L0,-3.0L2.5,-0.5"/>
                </g>
                <g id="arrowRight" xlink:href="#dirArrow" transform="rotate(90) translate(36 -43)" onmousedown="handlePan(1,0)">
                  <use xlink:href="#rim" fill="#404040">
                        <set attributeName="fill" to="#808080" begin="arrowRight.mouseover" end="arrowRight.mouseout"/>
                  </use>
                  <path fill="none" stroke="white" stroke-width="1.5" d="M0,-3.0v7 M-2.5,-0.5L0,-3.0L2.5,-0.5"/>
                </g>
                <g id="arrowDown" xlink:href="#dirArrow" transform="rotate(180) translate(-30 -48)" onmousedown="handlePan(0,1)">
                  <use xlink:href="#rim" fill="#404040">
                        <set attributeName="fill" to="#808080" begin="arrowDown.mouseover" end="arrowDown.mouseout"/>
                  </use>
                  <path fill="none" stroke="white" stroke-width="1.5" d="M0,-3.0v7 M-2.5,-0.5L0,-3.0L2.5,-0.5"/>
                </g>
                <g id="arrowLeft" xlink:href="#dirArrow" transform="rotate(270) translate(-36 17)" onmousedown="handlePan(-1,0)">
                  <use xlink:href="#rim" fill="#404040">
                        <set attributeName="fill" to="#808080" begin="arrowLeft.mouseover" end="arrowLeft.mouseout"/>
                  </use>
                  <path fill="none" stroke="white" stroke-width="1.5" d="M0,-3.0v7 M-2.5,-0.5L0,-3.0L2.5,-0.5"/>
                </g>
        </g>
        <svg viewBox="0 0 15 15" width="100%" height="30px" preserveAspectRatio="xMaxYMin meet">
         <g id="arrow_out" transform="scale(0.3 0.3)">
          <a xlink:href="sphere_8h__incl_org.svg" target="_base">
           <rect id="button" ry="5" rx="5" y="6" x="6" height="38" width="38"
                fill="#f2f5e9" fill-opacity="0.5" stroke="#606060" stroke-width="1.0"/>
           <path id="arrow"
             d="M 11.500037,31.436501 C 11.940474,20.09759 22.043105,11.32322 32.158766,21.979434 L 37.068811,17.246167 C 37.068811,17.246167 37.088388,32 37.088388,32 L 22.160133,31.978069 C 22.160133,31.978069 26.997745,27.140456 26.997745,27.140456 C 18.528582,18.264221 13.291696,25.230495 11.500037,31.436501 z"
             style="fill:#404040;"/>
          </a>
         </g>
        </svg>
</svg>
