<?xml version="1.0" encoding="UTF-8" standalone="no"?>
<!DOCTYPE svg PUBLIC "-//W3C//DTD SVG 1.1//EN"
 "http://www.w3.org/Graphics/SVG/1.1/DTD/svg11.dtd">
<!-- Generated by graphviz version 2.43.0 (0)
 -->
<!-- Title: fallback_fft.h Pages: 1 -->
<svg width="514pt" height="252pt"
 viewBox="0.00 0.00 514.00 252.00" xmlns="http://www.w3.org/2000/svg" xmlns:xlink="http://www.w3.org/1999/xlink">
<g id="graph0" class="graph" transform="scale(1 1) rotate(0) translate(4 248)">
<title>fallback_fft.h</title>
<!-- Node1 -->
<g id="node1" class="node">
<title>Node1</title>
<g id="a_node1"><a xlink:title=" ">
<polygon fill="#bfbfbf" stroke="black" points="303.5,-224.5 303.5,-243.5 383.5,-243.5 383.5,-224.5 303.5,-224.5"/>
<text text-anchor="middle" x="343.5" y="-231.5" font-family="Helvetica,sans-Serif" font-size="10.00">fallback_fft.h</text>
</a>
</g>
</g>
<!-- Node2 -->
<g id="node2" class="node">
<title>Node2</title>
<g id="a_node2"><a xlink:href="../../d6/db4/fft__common_8h.html" target="_top" xlink:title=" ">
<polygon fill="none" stroke="black" points="263.5,-168.5 263.5,-187.5 347.5,-187.5 347.5,-168.5 263.5,-168.5"/>
<text text-anchor="middle" x="305.5" y="-175.5" font-family="Helvetica,sans-Serif" font-size="10.00">fft_common.h</text>
</a>
</g>
</g>
<!-- Node1&#45;&gt;Node2 -->
<g id="edge1" class="edge">
<title>Node1&#45;&gt;Node2</title>
<path fill="none" stroke="midnightblue" d="M337.23,-224.08C331.86,-216.46 323.98,-205.26 317.42,-195.94"/>
<polygon fill="midnightblue" stroke="midnightblue" points="320.28,-193.91 311.66,-187.75 314.55,-197.94 320.28,-193.91"/>
</g>
<!-- Node3 -->
<g id="node3" class="node">
<title>Node3</title>
<g id="a_node3"><a xlink:title=" ">
<polygon fill="none" stroke="#bfbfbf" points="0,-56.5 0,-75.5 89,-75.5 89,-56.5 0,-56.5"/>
<text text-anchor="middle" x="44.5" y="-63.5" font-family="Helvetica,sans-Serif" font-size="10.00">limes_export.h</text>
</a>
</g>
</g>
<!-- Node1&#45;&gt;Node3 -->
<g id="edge13" class="edge">
<title>Node1&#45;&gt;Node3</title>
<path fill="none" stroke="midnightblue" d="M321.33,-224.47C281.4,-208.71 195.35,-172.88 128.5,-132 103.99,-117.01 78.19,-96.18 61.76,-82.18"/>
<polygon fill="midnightblue" stroke="midnightblue" points="63.93,-79.43 54.07,-75.55 59.36,-84.73 63.93,-79.43"/>
</g>
<!-- Node8 -->
<g id="node8" class="node">
<title>Node8</title>
<g id="a_node8"><a xlink:href="../../d9/df8/limes__core_8h.html" target="_top" xlink:title=" ">
<polygon fill="none" stroke="red" points="427,-56.5 427,-75.5 506,-75.5 506,-56.5 427,-56.5"/>
<text text-anchor="middle" x="466.5" y="-63.5" font-family="Helvetica,sans-Serif" font-size="10.00">limes_core.h</text>
</a>
</g>
</g>
<!-- Node1&#45;&gt;Node8 -->
<g id="edge15" class="edge">
<title>Node1&#45;&gt;Node8</title>
<path fill="none" stroke="midnightblue" d="M350.11,-224.08C369.81,-197.49 428.31,-118.54 454.08,-83.76"/>
<polygon fill="midnightblue" stroke="midnightblue" points="457.01,-85.69 460.15,-75.57 451.39,-81.52 457.01,-85.69"/>
</g>
<!-- Node10 -->
<g id="node9" class="node">
<title>Node10</title>
<g id="a_node9"><a xlink:href="../../da/d0b/limes__namespace_8h.html" target="_top" xlink:title=" ">
<polygon fill="none" stroke="black" points="294.5,-56.5 294.5,-75.5 408.5,-75.5 408.5,-56.5 294.5,-56.5"/>
<text text-anchor="middle" x="351.5" y="-63.5" font-family="Helvetica,sans-Serif" font-size="10.00">limes_namespace.h</text>
</a>
</g>
</g>
<!-- Node1&#45;&gt;Node10 -->
<g id="edge14" class="edge">
<title>Node1&#45;&gt;Node10</title>
<path fill="none" stroke="midnightblue" d="M346.84,-224.2C350.05,-215.24 354.68,-200.88 356.5,-188 361.59,-152.04 357.53,-109.52 354.36,-85.66"/>
<polygon fill="midnightblue" stroke="midnightblue" points="357.79,-84.96 352.91,-75.56 350.86,-85.96 357.79,-84.96"/>
</g>
<!-- Node2&#45;&gt;Node3 -->
<g id="edge2" class="edge">
<title>Node2&#45;&gt;Node3</title>
<path fill="none" stroke="midnightblue" d="M277.96,-168.47C251.59,-160.05 210.85,-146.39 176.5,-132 138.31,-116.01 95.56,-94.21 69.34,-80.37"/>
<polygon fill="midnightblue" stroke="midnightblue" points="70.94,-77.25 60.46,-75.65 67.65,-83.43 70.94,-77.25"/>
</g>
<!-- Node4 -->
<g id="node4" class="node">
<title>Node4</title>
<g id="a_node4"><a xlink:href="../../de/d1f/limes__vecops_8h.html" target="_top" xlink:title=" ">
<polygon fill="none" stroke="black" points="185.5,-112.5 185.5,-131.5 277.5,-131.5 277.5,-112.5 185.5,-112.5"/>
<text text-anchor="middle" x="231.5" y="-119.5" font-family="Helvetica,sans-Serif" font-size="10.00">limes_vecops.h</text>
</a>
</g>
</g>
<!-- Node2&#45;&gt;Node4 -->
<g id="edge3" class="edge">
<title>Node2&#45;&gt;Node4</title>
<path fill="none" stroke="midnightblue" d="M293.61,-168.32C282.35,-160.11 265.21,-147.6 251.79,-137.81"/>
<polygon fill="midnightblue" stroke="midnightblue" points="253.75,-134.9 243.61,-131.83 249.62,-140.56 253.75,-134.9"/>
</g>
<!-- Node2&#45;&gt;Node8 -->
<g id="edge12" class="edge">
<title>Node2&#45;&gt;Node8</title>
<path fill="none" stroke="midnightblue" d="M318.13,-168.37C345.76,-149.49 411.78,-104.38 445.66,-81.24"/>
<polygon fill="midnightblue" stroke="midnightblue" points="447.64,-84.12 453.93,-75.59 443.69,-78.34 447.64,-84.12"/>
</g>
<!-- Node2&#45;&gt;Node10 -->
<g id="edge11" class="edge">
<title>Node2&#45;&gt;Node10</title>
<path fill="none" stroke="midnightblue" d="M308.34,-168.48C312.58,-155.96 320.98,-131.91 329.5,-112 333.44,-102.79 338.29,-92.76 342.43,-84.51"/>
<polygon fill="midnightblue" stroke="midnightblue" points="345.59,-86.01 347.02,-75.51 339.36,-82.82 345.59,-86.01"/>
</g>
<!-- Node4&#45;&gt;Node3 -->
<g id="edge6" class="edge">
<title>Node4&#45;&gt;Node3</title>
<path fill="none" stroke="midnightblue" d="M201.87,-112.44C170,-103.24 119.17,-88.56 83.94,-78.39"/>
<polygon fill="midnightblue" stroke="midnightblue" points="84.57,-74.93 73.99,-75.52 82.63,-81.65 84.57,-74.93"/>
</g>
<!-- Node5 -->
<g id="node5" class="node">
<title>Node5</title>
<g id="a_node5"><a xlink:title=" ">
<polygon fill="none" stroke="#bfbfbf" points="107,-56.5 107,-75.5 176,-75.5 176,-56.5 107,-56.5"/>
<text text-anchor="middle" x="141.5" y="-63.5" font-family="Helvetica,sans-Serif" font-size="10.00">type_traits</text>
</a>
</g>
</g>
<!-- Node4&#45;&gt;Node5 -->
<g id="edge4" class="edge">
<title>Node4&#45;&gt;Node5</title>
<path fill="none" stroke="midnightblue" d="M217.04,-112.32C203,-103.9 181.45,-90.97 164.96,-81.07"/>
<polygon fill="midnightblue" stroke="midnightblue" points="166.3,-77.8 155.92,-75.65 162.7,-83.8 166.3,-77.8"/>
</g>
<!-- Node6 -->
<g id="node6" class="node">
<title>Node6</title>
<g id="a_node6"><a xlink:title=" ">
<polygon fill="none" stroke="#bfbfbf" points="194.5,-56.5 194.5,-75.5 238.5,-75.5 238.5,-56.5 194.5,-56.5"/>
<text text-anchor="middle" x="216.5" y="-63.5" font-family="Helvetica,sans-Serif" font-size="10.00">string</text>
</a>
</g>
</g>
<!-- Node4&#45;&gt;Node6 -->
<g id="edge5" class="edge">
<title>Node4&#45;&gt;Node6</title>
<path fill="none" stroke="midnightblue" d="M229.02,-112.08C227.01,-104.85 224.11,-94.41 221.61,-85.4"/>
<polygon fill="midnightblue" stroke="midnightblue" points="224.98,-84.45 218.93,-75.75 218.24,-86.32 224.98,-84.45"/>
</g>
<!-- Node7 -->
<g id="node7" class="node">
<title>Node7</title>
<g id="a_node7"><a xlink:title=" ">
<polygon fill="none" stroke="#bfbfbf" points="316.5,-0.5 316.5,-19.5 416.5,-19.5 416.5,-0.5 316.5,-0.5"/>
<text text-anchor="middle" x="366.5" y="-7.5" font-family="Helvetica,sans-Serif" font-size="10.00">limes_platform.h</text>
</a>
</g>
</g>
<!-- Node4&#45;&gt;Node7 -->
<g id="edge7" class="edge">
<title>Node4&#45;&gt;Node7</title>
<path fill="none" stroke="midnightblue" d="M237.28,-112.12C246.32,-98.71 264.95,-73.04 285.5,-56 301.23,-42.95 321.3,-31.77 337.53,-23.82"/>
<polygon fill="midnightblue" stroke="midnightblue" points="339.05,-26.97 346.58,-19.52 336.04,-20.65 339.05,-26.97"/>
</g>
<!-- Node4&#45;&gt;Node8 -->
<g id="edge8" class="edge">
<title>Node4&#45;&gt;Node8</title>
<path fill="none" stroke="midnightblue" d="M268.74,-112.44C309.56,-103.06 375.14,-87.99 419.48,-77.8"/>
<polygon fill="midnightblue" stroke="midnightblue" points="420.48,-81.17 429.44,-75.52 418.91,-74.34 420.48,-81.17"/>
</g>
<!-- Node4&#45;&gt;Node10 -->
<g id="edge10" class="edge">
<title>Node4&#45;&gt;Node10</title>
<path fill="none" stroke="midnightblue" d="M250.51,-112.44C270.09,-103.64 300.81,-89.81 323.23,-79.72"/>
<polygon fill="midnightblue" stroke="midnightblue" points="324.89,-82.81 332.57,-75.52 322.02,-76.43 324.89,-82.81"/>
</g>
<!-- Node8&#45;&gt;Node7 -->
<g id="edge9" class="edge">
<title>Node8&#45;&gt;Node7</title>
<path fill="none" stroke="midnightblue" d="M450.43,-56.32C434.54,-47.74 409.99,-34.49 391.54,-24.52"/>
<polygon fill="midnightblue" stroke="midnightblue" points="392.99,-21.33 382.53,-19.65 389.66,-27.49 392.99,-21.33"/>
</g>
</g>
</svg>
