<?xml version="1.0" encoding="UTF-8" standalone="no"?>
<!DOCTYPE svg PUBLIC "-//W3C//DTD SVG 1.1//EN"
 "http://www.w3.org/Graphics/SVG/1.1/DTD/svg11.dtd">
<!-- Generated by graphviz version 2.43.0 (0)
 -->
<!-- Title: limes_data_structures.h Pages: 1 -->
<svg width="1652pt" height="308pt"
 viewBox="0.00 0.00 1651.50 308.00" xmlns="http://www.w3.org/2000/svg" xmlns:xlink="http://www.w3.org/1999/xlink">
<g id="graph0" class="graph" transform="scale(1 1) rotate(0) translate(4 304)">
<title>limes_data_structures.h</title>
<!-- Node1 -->
<g id="node1" class="node">
<title>Node1</title>
<g id="a_node1"><a xlink:title=" ">
<polygon fill="#bfbfbf" stroke="black" points="669,-280.5 669,-299.5 803,-299.5 803,-280.5 669,-280.5"/>
<text text-anchor="middle" x="736" y="-287.5" font-family="Helvetica,sans-Serif" font-size="10.00">limes_data_structures.h</text>
</a>
</g>
</g>
<!-- Node2 -->
<g id="node2" class="node">
<title>Node2</title>
<g id="a_node2"><a xlink:href="../../d2/d8d/limes_8h.html" target="_top" xlink:title=" ">
<polygon fill="none" stroke="black" points="771.5,-0.5 771.5,-19.5 824.5,-19.5 824.5,-0.5 771.5,-0.5"/>
<text text-anchor="middle" x="798" y="-7.5" font-family="Helvetica,sans-Serif" font-size="10.00">limes.h</text>
</a>
</g>
</g>
<!-- Node1&#45;&gt;Node2 -->
<g id="edge1" class="edge">
<title>Node1&#45;&gt;Node2</title>
<path fill="none" stroke="midnightblue" d="M658.7,-286.91C518.81,-282.51 229.12,-270.46 132,-244 68.91,-226.81 0,-244.39 0,-179 0,-179 0,-179 0,-121 0,-41.28 632.98,-16.31 771.45,-11.8"/>
<polygon fill="midnightblue" stroke="midnightblue" points="658.82,-290.41 668.92,-287.22 659.03,-283.41 658.82,-290.41"/>
</g>
<!-- Node3 -->
<g id="node3" class="node">
<title>Node3</title>
<g id="a_node3"><a xlink:href="../../d7/d56/_coeffecients_8h.html" target="_top" xlink:title=" ">
<polygon fill="none" stroke="black" points="193,-224.5 193,-243.5 279,-243.5 279,-224.5 193,-224.5"/>
<text text-anchor="middle" x="236" y="-231.5" font-family="Helvetica,sans-Serif" font-size="10.00">Coeffecients.h</text>
</a>
</g>
</g>
<!-- Node1&#45;&gt;Node3 -->
<g id="edge2" class="edge">
<title>Node1&#45;&gt;Node3</title>
<path fill="none" stroke="midnightblue" d="M658.82,-282.13C571.05,-274.08 423.51,-259.81 297,-244 291.26,-243.28 285.23,-242.47 279.29,-241.63"/>
<polygon fill="midnightblue" stroke="midnightblue" points="658.68,-285.63 668.96,-283.06 659.32,-278.66 658.68,-285.63"/>
</g>
<!-- Node4 -->
<g id="node4" class="node">
<title>Node4</title>
<g id="a_node4"><a xlink:href="../../da/d2d/_filter_8h.html" target="_top" xlink:title=" ">
<polygon fill="none" stroke="black" points="122,-168.5 122,-187.5 172,-187.5 172,-168.5 122,-168.5"/>
<text text-anchor="middle" x="147" y="-175.5" font-family="Helvetica,sans-Serif" font-size="10.00">Filter.h</text>
</a>
</g>
</g>
<!-- Node1&#45;&gt;Node4 -->
<g id="edge6" class="edge">
<title>Node1&#45;&gt;Node4</title>
<path fill="none" stroke="midnightblue" d="M658.56,-286.67C516.02,-281.8 223.06,-268.89 184,-244 163.41,-230.88 153.11,-201.98 149.09,-187.55"/>
<polygon fill="midnightblue" stroke="midnightblue" points="658.86,-290.18 668.97,-287.02 659.09,-283.19 658.86,-290.18"/>
</g>
<!-- Node6 -->
<g id="node6" class="node">
<title>Node6</title>
<g id="a_node6"><a xlink:href="../../dc/ddf/_pitch_detector_8h.html" target="_top" xlink:title=" ">
<polygon fill="none" stroke="black" points="306.5,-224.5 306.5,-243.5 397.5,-243.5 397.5,-224.5 306.5,-224.5"/>
<text text-anchor="middle" x="352" y="-231.5" font-family="Helvetica,sans-Serif" font-size="10.00">PitchDetector.h</text>
</a>
</g>
</g>
<!-- Node1&#45;&gt;Node6 -->
<g id="edge7" class="edge">
<title>Node1&#45;&gt;Node6</title>
<path fill="none" stroke="midnightblue" d="M663.54,-279.08C598.07,-270.07 499.05,-256.34 413,-244 408.02,-243.29 402.81,-242.53 397.63,-241.77"/>
<polygon fill="midnightblue" stroke="midnightblue" points="663.37,-282.58 673.76,-280.48 664.33,-275.65 663.37,-282.58"/>
</g>
<!-- Node7 -->
<g id="node7" class="node">
<title>Node7</title>
<g id="a_node7"><a xlink:href="../../d3/d19/analyzer_8h.html" target="_top" xlink:title=" ">
<polygon fill="none" stroke="black" points="318.5,-168.5 318.5,-187.5 385.5,-187.5 385.5,-168.5 318.5,-168.5"/>
<text text-anchor="middle" x="352" y="-175.5" font-family="Helvetica,sans-Serif" font-size="10.00">analyzer.h</text>
</a>
</g>
</g>
<!-- Node1&#45;&gt;Node7 -->
<g id="edge30" class="edge">
<title>Node1&#45;&gt;Node7</title>
<path fill="none" stroke="midnightblue" d="M658.55,-285.61C599.89,-280.97 518.22,-269.98 451,-244 415.14,-230.14 378.84,-201.85 361.88,-187.6"/>
<polygon fill="midnightblue" stroke="midnightblue" points="658.62,-289.13 668.85,-286.38 659.14,-282.15 658.62,-289.13"/>
</g>
<!-- Node8 -->
<g id="node8" class="node">
<title>Node8</title>
<g id="a_node8"><a xlink:href="../../d7/d4f/shifter_8h.html" target="_top" xlink:title=" ">
<polygon fill="none" stroke="black" points="266,-112.5 266,-131.5 322,-131.5 322,-112.5 266,-112.5"/>
<text text-anchor="middle" x="294" y="-119.5" font-family="Helvetica,sans-Serif" font-size="10.00">shifter.h</text>
</a>
</g>
</g>
<!-- Node1&#45;&gt;Node8 -->
<g id="edge33" class="edge">
<title>Node1&#45;&gt;Node8</title>
<path fill="none" stroke="midnightblue" d="M703.76,-276.89C618.69,-244.94 389.71,-158.94 316.7,-131.52"/>
<polygon fill="midnightblue" stroke="midnightblue" points="702.57,-280.19 713.17,-280.42 705.04,-273.63 702.57,-280.19"/>
</g>
<!-- Node9 -->
<g id="node9" class="node">
<title>Node9</title>
<g id="a_node9"><a xlink:href="../../d5/d33/_mono_stereo_converter_8h.html" target="_top" xlink:title=" ">
<polygon fill="none" stroke="black" points="340.5,-112.5 340.5,-131.5 471.5,-131.5 471.5,-112.5 340.5,-112.5"/>
<text text-anchor="middle" x="406" y="-119.5" font-family="Helvetica,sans-Serif" font-size="10.00">MonoStereoConverter.h</text>
</a>
</g>
</g>
<!-- Node1&#45;&gt;Node9 -->
<g id="edge13" class="edge">
<title>Node1&#45;&gt;Node9</title>
<path fill="none" stroke="midnightblue" d="M715.68,-274.13C703.98,-265.47 689.04,-254.27 676,-244 634.33,-211.19 631.31,-191.97 584,-168 547.32,-149.41 502.41,-138.13 466.88,-131.51"/>
<polygon fill="midnightblue" stroke="midnightblue" points="713.79,-277.09 723.92,-280.2 717.95,-271.45 713.79,-277.09"/>
</g>
<!-- Node10 -->
<g id="node10" class="node">
<title>Node10</title>
<g id="a_node10"><a xlink:href="../../dd/d28/_circular_buffer_8h.html" target="_top" xlink:title=" ">
<polygon fill="none" stroke="black" points="490,-112.5 490,-131.5 582,-131.5 582,-112.5 490,-112.5"/>
<text text-anchor="middle" x="536" y="-119.5" font-family="Helvetica,sans-Serif" font-size="10.00">CircularBuffer.h</text>
</a>
</g>
</g>
<!-- Node1&#45;&gt;Node10 -->
<g id="edge15" class="edge">
<title>Node1&#45;&gt;Node10</title>
<path fill="none" stroke="midnightblue" d="M722.13,-272.83C697.08,-243.86 644.89,-184.59 623,-168 602.4,-152.39 575.59,-139.45 557.21,-131.52"/>
<polygon fill="midnightblue" stroke="midnightblue" points="719.52,-275.16 728.7,-280.45 724.82,-270.59 719.52,-275.16"/>
</g>
<!-- Node11 -->
<g id="node11" class="node">
<title>Node11</title>
<g id="a_node11"><a xlink:href="../../d4/d5f/_perlin_noise_8h.html" target="_top" xlink:title=" ">
<polygon fill="none" stroke="black" points="600.5,-112.5 600.5,-131.5 681.5,-131.5 681.5,-112.5 600.5,-112.5"/>
<text text-anchor="middle" x="641" y="-119.5" font-family="Helvetica,sans-Serif" font-size="10.00">PerlinNoise.h</text>
</a>
</g>
</g>
<!-- Node1&#45;&gt;Node11 -->
<g id="edge17" class="edge">
<title>Node1&#45;&gt;Node11</title>
<path fill="none" stroke="midnightblue" d="M725.88,-271.31C705.62,-235.92 660.78,-157.56 645.9,-131.57"/>
<polygon fill="midnightblue" stroke="midnightblue" points="722.89,-273.13 730.89,-280.08 728.96,-269.66 722.89,-273.13"/>
</g>
<!-- Node12 -->
<g id="node12" class="node">
<title>Node12</title>
<g id="a_node12"><a xlink:href="../../d5/d84/_sample_stream_8h.html" target="_top" xlink:title=" ">
<polygon fill="none" stroke="black" points="738,-224.5 738,-243.5 836,-243.5 836,-224.5 738,-224.5"/>
<text text-anchor="middle" x="787" y="-231.5" font-family="Helvetica,sans-Serif" font-size="10.00">SampleStream.h</text>
</a>
</g>
</g>
<!-- Node1&#45;&gt;Node12 -->
<g id="edge19" class="edge">
<title>Node1&#45;&gt;Node12</title>
<path fill="none" stroke="midnightblue" d="M751.38,-272.72C760.37,-263.2 771.36,-251.56 778.74,-243.75"/>
<polygon fill="midnightblue" stroke="midnightblue" points="748.74,-270.41 744.42,-280.08 753.83,-275.22 748.74,-270.41"/>
</g>
<!-- Node16 -->
<g id="node16" class="node">
<title>Node16</title>
<g id="a_node16"><a xlink:href="../../d7/ddb/_detunable_model_8h.html" target="_top" xlink:title=" ">
<polygon fill="none" stroke="black" points="28,-112.5 28,-131.5 134,-131.5 134,-112.5 28,-112.5"/>
<text text-anchor="middle" x="81" y="-119.5" font-family="Helvetica,sans-Serif" font-size="10.00">DetunableModel.h</text>
</a>
</g>
</g>
<!-- Node1&#45;&gt;Node16 -->
<g id="edge28" class="edge">
<title>Node1&#45;&gt;Node16</title>
<path fill="none" stroke="midnightblue" d="M658.58,-286.17C512.14,-280.35 205.3,-265.73 162,-244 115,-220.42 90.9,-155.28 83.52,-131.68"/>
<polygon fill="midnightblue" stroke="midnightblue" points="658.71,-289.68 668.84,-286.58 658.99,-282.69 658.71,-289.68"/>
</g>
<!-- Node17 -->
<g id="node17" class="node">
<title>Node17</title>
<g id="a_node17"><a xlink:href="../../dc/dad/_peak_finder_8h.html" target="_top" xlink:title=" ">
<polygon fill="none" stroke="black" points="460.5,-224.5 460.5,-243.5 539.5,-243.5 539.5,-224.5 460.5,-224.5"/>
<text text-anchor="middle" x="500" y="-231.5" font-family="Helvetica,sans-Serif" font-size="10.00">PeakFinder.h</text>
</a>
</g>
</g>
<!-- Node1&#45;&gt;Node17 -->
<g id="edge31" class="edge">
<title>Node1&#45;&gt;Node17</title>
<path fill="none" stroke="midnightblue" d="M688.59,-278.15C644,-267.95 578.15,-252.88 537.22,-243.52"/>
<polygon fill="midnightblue" stroke="midnightblue" points="688.08,-281.62 698.61,-280.44 689.64,-274.8 688.08,-281.62"/>
</g>
<!-- Node18 -->
<g id="node18" class="node">
<title>Node18</title>
<g id="a_node18"><a xlink:href="../../d7/d35/countries_8h.html" target="_top" xlink:title=" ">
<polygon fill="none" stroke="black" points="1565.5,-224.5 1565.5,-243.5 1636.5,-243.5 1636.5,-224.5 1565.5,-224.5"/>
<text text-anchor="middle" x="1601" y="-231.5" font-family="Helvetica,sans-Serif" font-size="10.00">countries.h</text>
</a>
</g>
</g>
<!-- Node1&#45;&gt;Node18 -->
<g id="edge34" class="edge">
<title>Node1&#45;&gt;Node18</title>
<path fill="none" stroke="midnightblue" d="M813.45,-288.42C959.32,-286.52 1284.58,-278.41 1556,-244 1559,-243.62 1562.11,-243.15 1565.21,-242.64"/>
<polygon fill="midnightblue" stroke="midnightblue" points="813.21,-284.92 803.26,-288.55 813.3,-291.92 813.21,-284.92"/>
</g>
<!-- Node19 -->
<g id="node19" class="node">
<title>Node19</title>
<g id="a_node19"><a xlink:href="../../d0/d0f/languages_8h.html" target="_top" xlink:title=" ">
<polygon fill="none" stroke="black" points="857,-224.5 857,-243.5 933,-243.5 933,-224.5 857,-224.5"/>
<text text-anchor="middle" x="895" y="-231.5" font-family="Helvetica,sans-Serif" font-size="10.00">languages.h</text>
</a>
</g>
</g>
<!-- Node1&#45;&gt;Node19 -->
<g id="edge35" class="edge">
<title>Node1&#45;&gt;Node19</title>
<path fill="none" stroke="midnightblue" d="M770.83,-277.17C800.77,-267 843.22,-252.59 869.92,-243.52"/>
<polygon fill="midnightblue" stroke="midnightblue" points="769.54,-273.91 761.19,-280.44 771.79,-280.54 769.54,-273.91"/>
</g>
<!-- Node21 -->
<g id="node21" class="node">
<title>Node21</title>
<g id="a_node21"><a xlink:href="../../d8/d57/_chord_8h.html" target="_top" xlink:title=" ">
<polygon fill="none" stroke="black" points="1088,-112.5 1088,-131.5 1142,-131.5 1142,-112.5 1088,-112.5"/>
<text text-anchor="middle" x="1115" y="-119.5" font-family="Helvetica,sans-Serif" font-size="10.00">Chord.h</text>
</a>
</g>
</g>
<!-- Node1&#45;&gt;Node21 -->
<g id="edge38" class="edge">
<title>Node1&#45;&gt;Node21</title>
<path fill="none" stroke="midnightblue" d="M813.27,-287.4C854.97,-283.02 905.26,-271.67 942,-244 972.66,-220.91 953.7,-192.79 983,-168 1013.31,-142.35 1058.96,-131.1 1087.85,-126.32"/>
<polygon fill="midnightblue" stroke="midnightblue" points="812.77,-283.94 803.14,-288.35 813.43,-290.9 812.77,-283.94"/>
</g>
<!-- Node23 -->
<g id="node23" class="node">
<title>Node23</title>
<g id="a_node23"><a xlink:href="../../d4/d81/_scale_8h.html" target="_top" xlink:title=" ">
<polygon fill="none" stroke="black" points="1192,-224.5 1192,-243.5 1244,-243.5 1244,-224.5 1192,-224.5"/>
<text text-anchor="middle" x="1218" y="-231.5" font-family="Helvetica,sans-Serif" font-size="10.00">Scale.h</text>
</a>
</g>
</g>
<!-- Node1&#45;&gt;Node23 -->
<g id="edge41" class="edge">
<title>Node1&#45;&gt;Node23</title>
<path fill="none" stroke="midnightblue" d="M813.4,-281.06C896.43,-272.43 1032.13,-257.99 1149,-244 1163.15,-242.31 1178.92,-240.26 1191.8,-238.55"/>
<polygon fill="midnightblue" stroke="midnightblue" points="812.88,-277.6 803.29,-282.11 813.6,-284.56 812.88,-277.6"/>
</g>
<!-- Node24 -->
<g id="node24" class="node">
<title>Node24</title>
<g id="a_node24"><a xlink:href="../../d3/d6f/_chromatic_8h.html" target="_top" xlink:title=" ">
<polygon fill="none" stroke="black" points="1180,-168.5 1180,-187.5 1256,-187.5 1256,-168.5 1180,-168.5"/>
<text text-anchor="middle" x="1218" y="-175.5" font-family="Helvetica,sans-Serif" font-size="10.00">Chromatic.h</text>
</a>
</g>
</g>
<!-- Node1&#45;&gt;Node24 -->
<g id="edge54" class="edge">
<title>Node1&#45;&gt;Node24</title>
<path fill="none" stroke="midnightblue" d="M813.28,-281.94C875.24,-275.24 964.07,-263.27 1040,-244 1099.31,-228.95 1166.4,-201.46 1198.66,-187.55"/>
<polygon fill="midnightblue" stroke="midnightblue" points="812.76,-278.48 803.19,-283.01 813.5,-285.44 812.76,-278.48"/>
</g>
<!-- Node25 -->
<g id="node25" class="node">
<title>Node25</title>
<g id="a_node25"><a xlink:href="../../dd/d47/_key_signature_8h.html" target="_top" xlink:title=" ">
<polygon fill="none" stroke="black" points="1388,-168.5 1388,-187.5 1478,-187.5 1478,-168.5 1388,-168.5"/>
<text text-anchor="middle" x="1433" y="-175.5" font-family="Helvetica,sans-Serif" font-size="10.00">KeySignature.h</text>
</a>
</g>
</g>
<!-- Node1&#45;&gt;Node25 -->
<g id="edge55" class="edge">
<title>Node1&#45;&gt;Node25</title>
<path fill="none" stroke="midnightblue" d="M813.2,-286.77C972.03,-281.72 1324.7,-267.94 1374,-244 1399.77,-231.48 1419.51,-202.3 1428.18,-187.67"/>
<polygon fill="midnightblue" stroke="midnightblue" points="812.91,-283.28 803.02,-287.09 813.13,-290.27 812.91,-283.28"/>
</g>
<!-- Node26 -->
<g id="node26" class="node">
<title>Node26</title>
<g id="a_node26"><a xlink:href="../../d8/daa/_mode_8h.html" target="_top" xlink:title=" ">
<polygon fill="none" stroke="black" points="1323.5,-112.5 1323.5,-131.5 1376.5,-131.5 1376.5,-112.5 1323.5,-112.5"/>
<text text-anchor="middle" x="1350" y="-119.5" font-family="Helvetica,sans-Serif" font-size="10.00">Mode.h</text>
</a>
</g>
</g>
<!-- Node1&#45;&gt;Node26 -->
<g id="edge56" class="edge">
<title>Node1&#45;&gt;Node26</title>
<path fill="none" stroke="midnightblue" d="M813.36,-287.79C937.55,-284.94 1175.31,-275.42 1253,-244 1289.61,-229.19 1298.16,-219.49 1322,-188 1335.5,-170.17 1343.95,-144.84 1347.72,-131.68"/>
<polygon fill="midnightblue" stroke="midnightblue" points="813.08,-284.3 803.16,-288.02 813.24,-291.3 813.08,-284.3"/>
</g>
<!-- Node27 -->
<g id="node27" class="node">
<title>Node27</title>
<g id="a_node27"><a xlink:href="../../d7/db9/_octatonic_8h.html" target="_top" xlink:title=" ">
<polygon fill="none" stroke="black" points="992,-168.5 992,-187.5 1064,-187.5 1064,-168.5 992,-168.5"/>
<text text-anchor="middle" x="1028" y="-175.5" font-family="Helvetica,sans-Serif" font-size="10.00">Octatonic.h</text>
</a>
</g>
</g>
<!-- Node1&#45;&gt;Node27 -->
<g id="edge57" class="edge">
<title>Node1&#45;&gt;Node27</title>
<path fill="none" stroke="midnightblue" d="M813.4,-280.68C873.44,-273.12 950.87,-260.61 978,-244 1000.58,-230.17 1016.74,-202.12 1023.89,-187.82"/>
<polygon fill="midnightblue" stroke="midnightblue" points="812.66,-277.25 803.16,-281.95 813.52,-284.2 812.66,-277.25"/>
</g>
<!-- Node28 -->
<g id="node28" class="node">
<title>Node28</title>
<g id="a_node28"><a xlink:href="../../d0/dce/_whole_tone_8h.html" target="_top" xlink:title=" ">
<polygon fill="none" stroke="black" points="1082.5,-168.5 1082.5,-187.5 1161.5,-187.5 1161.5,-168.5 1082.5,-168.5"/>
<text text-anchor="middle" x="1122" y="-175.5" font-family="Helvetica,sans-Serif" font-size="10.00">WholeTone.h</text>
</a>
</g>
</g>
<!-- Node1&#45;&gt;Node28 -->
<g id="edge58" class="edge">
<title>Node1&#45;&gt;Node28</title>
<path fill="none" stroke="midnightblue" d="M813.32,-282.83C867.56,-276.86 941.14,-265.43 1003,-244 1044.37,-229.67 1088.45,-201.85 1109.45,-187.71"/>
<polygon fill="midnightblue" stroke="midnightblue" points="812.66,-279.38 803.09,-283.92 813.4,-286.34 812.66,-279.38"/>
</g>
<!-- Node29 -->
<g id="node29" class="node">
<title>Node29</title>
<g id="a_node29"><a xlink:href="../../d5/d45/_note_length_8h.html" target="_top" xlink:title=" ">
<polygon fill="none" stroke="black" points="1465,-224.5 1465,-243.5 1547,-243.5 1547,-224.5 1465,-224.5"/>
<text text-anchor="middle" x="1506" y="-231.5" font-family="Helvetica,sans-Serif" font-size="10.00">NoteLength.h</text>
</a>
</g>
</g>
<!-- Node1&#45;&gt;Node29 -->
<g id="edge59" class="edge">
<title>Node1&#45;&gt;Node29</title>
<path fill="none" stroke="midnightblue" d="M813.2,-285.34C941.44,-278.95 1206.4,-264.47 1430,-244 1441.25,-242.97 1453.4,-241.63 1464.63,-240.3"/>
<polygon fill="midnightblue" stroke="midnightblue" points="812.9,-281.85 803.09,-285.84 813.25,-288.84 812.9,-281.85"/>
</g>
<!-- Node3&#45;&gt;Node4 -->
<g id="edge3" class="edge">
<title>Node3&#45;&gt;Node4</title>
<path fill="none" stroke="midnightblue" d="M212.76,-218.9C196.44,-209 175.13,-196.07 161.26,-187.65"/>
<polygon fill="midnightblue" stroke="midnightblue" points="211.34,-222.13 221.7,-224.32 214.97,-216.14 211.34,-222.13"/>
</g>
<!-- Node5 -->
<g id="node5" class="node">
<title>Node5</title>
<g id="a_node5"><a xlink:href="../../d6/d15/limes__audio_8h.html" target="_top" xlink:title=" ">
<polygon fill="none" stroke="black" points="493.5,-56.5 493.5,-75.5 578.5,-75.5 578.5,-56.5 493.5,-56.5"/>
<text text-anchor="middle" x="536" y="-63.5" font-family="Helvetica,sans-Serif" font-size="10.00">limes_audio.h</text>
</a>
</g>
</g>
<!-- Node4&#45;&gt;Node5 -->
<g id="edge4" class="edge">
<title>Node4&#45;&gt;Node5</title>
<path fill="none" stroke="midnightblue" d="M153.06,-158.25C158.97,-143.17 169.51,-122.78 186,-112 235.8,-79.43 411.54,-70.38 493.42,-67.91"/>
<polygon fill="midnightblue" stroke="midnightblue" points="149.62,-157.49 149.56,-168.08 156.21,-159.84 149.62,-157.49"/>
</g>
<!-- Node5&#45;&gt;Node2 -->
<g id="edge5" class="edge">
<title>Node5&#45;&gt;Node2</title>
<path fill="none" stroke="midnightblue" d="M587.47,-54.39C642.74,-43 728.42,-25.34 771.44,-16.47"/>
<polygon fill="midnightblue" stroke="midnightblue" points="586.6,-51 577.51,-56.44 588.02,-57.85 586.6,-51"/>
</g>
<!-- Node6&#45;&gt;Node5 -->
<g id="edge8" class="edge">
<title>Node6&#45;&gt;Node5</title>
<path fill="none" stroke="midnightblue" d="M325.42,-219.59C284.59,-197.29 214.5,-151.15 248,-112 279.06,-75.72 420.88,-68.47 493.25,-67.17"/>
<polygon fill="midnightblue" stroke="midnightblue" points="323.89,-222.74 334.36,-224.35 327.18,-216.56 323.89,-222.74"/>
</g>
<!-- Node6&#45;&gt;Node7 -->
<g id="edge9" class="edge">
<title>Node6&#45;&gt;Node7</title>
<path fill="none" stroke="midnightblue" d="M352,-213.8C352,-204.91 352,-194.78 352,-187.75"/>
<polygon fill="midnightblue" stroke="midnightblue" points="348.5,-214.08 352,-224.08 355.5,-214.08 348.5,-214.08"/>
</g>
<!-- Node7&#45;&gt;Node5 -->
<g id="edge10" class="edge">
<title>Node7&#45;&gt;Node5</title>
<path fill="none" stroke="midnightblue" d="M309.15,-165.38C275.39,-154.15 237.07,-135.4 257,-112 286.86,-76.93 422.99,-69.1 493.45,-67.41"/>
<polygon fill="midnightblue" stroke="midnightblue" points="308.36,-168.81 318.95,-168.49 310.48,-162.13 308.36,-168.81"/>
</g>
<!-- Node7&#45;&gt;Node8 -->
<g id="edge11" class="edge">
<title>Node7&#45;&gt;Node8</title>
<path fill="none" stroke="midnightblue" d="M335.09,-161.25C324.8,-151.67 312.03,-139.79 303.49,-131.83"/>
<polygon fill="midnightblue" stroke="midnightblue" points="332.98,-164.07 342.68,-168.32 337.75,-158.95 332.98,-164.07"/>
</g>
<!-- Node8&#45;&gt;Node5 -->
<g id="edge12" class="edge">
<title>Node8&#45;&gt;Node5</title>
<path fill="none" stroke="midnightblue" d="M332.3,-111.74C394.83,-97.33 456.6,-83.94 495.87,-75.53"/>
<polygon fill="midnightblue" stroke="midnightblue" points="331.22,-108.39 322.27,-114.06 332.8,-115.21 331.22,-108.39"/>
</g>
<!-- Node9&#45;&gt;Node5 -->
<g id="edge14" class="edge">
<title>Node9&#45;&gt;Node5</title>
<path fill="none" stroke="midnightblue" d="M436.09,-108.5C460.46,-98.38 494.14,-84.39 515.5,-75.52"/>
<polygon fill="midnightblue" stroke="midnightblue" points="434.49,-105.38 426.6,-112.44 437.18,-111.84 434.49,-105.38"/>
</g>
<!-- Node10&#45;&gt;Node5 -->
<g id="edge16" class="edge">
<title>Node10&#45;&gt;Node5</title>
<path fill="none" stroke="midnightblue" d="M536,-101.8C536,-92.91 536,-82.78 536,-75.75"/>
<polygon fill="midnightblue" stroke="midnightblue" points="532.5,-102.08 536,-112.08 539.5,-102.08 532.5,-102.08"/>
</g>
<!-- Node11&#45;&gt;Node5 -->
<g id="edge18" class="edge">
<title>Node11&#45;&gt;Node5</title>
<path fill="none" stroke="midnightblue" d="M615.19,-107.73C595.75,-97.73 569.65,-84.31 552.83,-75.65"/>
<polygon fill="midnightblue" stroke="midnightblue" points="613.64,-110.86 624.13,-112.32 616.84,-104.64 613.64,-110.86"/>
</g>
<!-- Node12&#45;&gt;Node5 -->
<g id="edge20" class="edge">
<title>Node12&#45;&gt;Node5</title>
<path fill="none" stroke="midnightblue" d="M814.78,-220.01C873.11,-192.73 1003,-132 1003,-132 1007.77,-124.5 1008.98,-118.58 1003,-112 974.76,-80.91 688.9,-70.71 578.86,-67.92"/>
<polygon fill="midnightblue" stroke="midnightblue" points="812.99,-216.98 805.42,-224.39 815.96,-223.32 812.99,-216.98"/>
</g>
<!-- Node12&#45;&gt;Node8 -->
<g id="edge27" class="edge">
<title>Node12&#45;&gt;Node8</title>
<path fill="none" stroke="midnightblue" d="M755.13,-220.94C715.54,-206.4 645.68,-182.16 584,-168 473.3,-142.59 442.53,-153.45 331,-132 328.14,-131.45 325.18,-130.82 322.22,-130.16"/>
<polygon fill="midnightblue" stroke="midnightblue" points="753.92,-224.23 764.52,-224.42 756.35,-217.67 753.92,-224.23"/>
</g>
<!-- Node13 -->
<g id="node13" class="node">
<title>Node13</title>
<g id="a_node13"><a xlink:href="../../dc/da4/oscillator_8h.html" target="_top" xlink:title=" ">
<polygon fill="none" stroke="black" points="752,-168.5 752,-187.5 822,-187.5 822,-168.5 752,-168.5"/>
<text text-anchor="middle" x="787" y="-175.5" font-family="Helvetica,sans-Serif" font-size="10.00">oscillator.h</text>
</a>
</g>
</g>
<!-- Node12&#45;&gt;Node13 -->
<g id="edge21" class="edge">
<title>Node12&#45;&gt;Node13</title>
<path fill="none" stroke="midnightblue" d="M787,-213.8C787,-204.91 787,-194.78 787,-187.75"/>
<polygon fill="midnightblue" stroke="midnightblue" points="783.5,-214.08 787,-224.08 790.5,-214.08 783.5,-214.08"/>
</g>
<!-- Node15 -->
<g id="node15" class="node">
<title>Node15</title>
<g id="a_node15"><a xlink:href="../../d6/db1/_white_noise_generator_8h.html" target="_top" xlink:title=" ">
<polygon fill="none" stroke="black" points="864,-112.5 864,-131.5 994,-131.5 994,-112.5 864,-112.5"/>
<text text-anchor="middle" x="929" y="-119.5" font-family="Helvetica,sans-Serif" font-size="10.00">WhiteNoiseGenerator.h</text>
</a>
</g>
</g>
<!-- Node12&#45;&gt;Node15 -->
<g id="edge25" class="edge">
<title>Node12&#45;&gt;Node15</title>
<path fill="none" stroke="midnightblue" d="M806.21,-218.12C836.35,-194.77 893.8,-150.27 917.91,-131.59"/>
<polygon fill="midnightblue" stroke="midnightblue" points="803.9,-215.48 798.14,-224.37 808.19,-221.01 803.9,-215.48"/>
</g>
<!-- Node13&#45;&gt;Node5 -->
<g id="edge22" class="edge">
<title>Node13&#45;&gt;Node5</title>
<path fill="none" stroke="midnightblue" d="M768.6,-162.15C749.82,-147.61 719.33,-125.71 690,-112 653.67,-95.01 609.48,-82.9 577.77,-75.55"/>
<polygon fill="midnightblue" stroke="midnightblue" points="766.57,-165.01 776.59,-168.44 770.9,-159.5 766.57,-165.01"/>
</g>
<!-- Node14 -->
<g id="node14" class="node">
<title>Node14</title>
<g id="a_node14"><a xlink:href="../../d8/dee/basic__oscillators_8h.html" target="_top" xlink:title=" ">
<polygon fill="none" stroke="black" points="738.5,-112.5 738.5,-131.5 845.5,-131.5 845.5,-112.5 738.5,-112.5"/>
<text text-anchor="middle" x="792" y="-119.5" font-family="Helvetica,sans-Serif" font-size="10.00">basic_oscillators.h</text>
</a>
</g>
</g>
<!-- Node13&#45;&gt;Node14 -->
<g id="edge23" class="edge">
<title>Node13&#45;&gt;Node14</title>
<path fill="none" stroke="midnightblue" d="M788.75,-158.1C789.58,-149.14 790.53,-138.86 791.19,-131.75"/>
<polygon fill="midnightblue" stroke="midnightblue" points="785.26,-157.8 787.83,-168.08 792.23,-158.45 785.26,-157.8"/>
</g>
<!-- Node14&#45;&gt;Node5 -->
<g id="edge24" class="edge">
<title>Node14&#45;&gt;Node5</title>
<path fill="none" stroke="midnightblue" d="M741.49,-110.35C693.11,-100.14 621.05,-84.94 576.37,-75.52"/>
<polygon fill="midnightblue" stroke="midnightblue" points="740.93,-113.8 751.44,-112.44 742.37,-106.95 740.93,-113.8"/>
</g>
<!-- Node15&#45;&gt;Node5 -->
<g id="edge26" class="edge">
<title>Node15&#45;&gt;Node5</title>
<path fill="none" stroke="midnightblue" d="M856.54,-111.04C775,-99.84 645.26,-82.01 578.6,-72.85"/>
<polygon fill="midnightblue" stroke="midnightblue" points="856.34,-114.55 866.73,-112.44 857.3,-107.61 856.34,-114.55"/>
</g>
<!-- Node16&#45;&gt;Node5 -->
<g id="edge29" class="edge">
<title>Node16&#45;&gt;Node5</title>
<path fill="none" stroke="midnightblue" d="M144.13,-112.49C145.43,-112.32 146.72,-112.16 148,-112 273.49,-96.3 422.06,-79.59 493.48,-71.68"/>
<polygon fill="midnightblue" stroke="midnightblue" points="143.49,-109.04 134.02,-113.79 144.38,-115.98 143.49,-109.04"/>
</g>
<!-- Node17&#45;&gt;Node7 -->
<g id="edge32" class="edge">
<title>Node17&#45;&gt;Node7</title>
<path fill="none" stroke="midnightblue" d="M466.85,-220.91C439.03,-210.75 399.98,-196.51 375.34,-187.52"/>
<polygon fill="midnightblue" stroke="midnightblue" points="465.96,-224.3 476.55,-224.44 468.35,-217.73 465.96,-224.3"/>
</g>
<!-- Node20 -->
<g id="node20" class="node">
<title>Node20</title>
<g id="a_node20"><a xlink:href="../../da/d18/limes__locale_8h.html" target="_top" xlink:title=" ">
<polygon fill="none" stroke="black" points="885.5,-56.5 885.5,-75.5 972.5,-75.5 972.5,-56.5 885.5,-56.5"/>
<text text-anchor="middle" x="929" y="-63.5" font-family="Helvetica,sans-Serif" font-size="10.00">limes_locale.h</text>
</a>
</g>
</g>
<!-- Node19&#45;&gt;Node20 -->
<g id="edge36" class="edge">
<title>Node19&#45;&gt;Node20</title>
<path fill="none" stroke="midnightblue" d="M906.09,-215.81C916.11,-201.42 932,-181.19 950,-168 983.42,-143.5 1013.04,-166.5 1036,-132 1055.15,-103.23 1009.23,-85.12 971.69,-75.53"/>
<polygon fill="midnightblue" stroke="midnightblue" points="903.07,-214.03 900.4,-224.28 908.88,-217.93 903.07,-214.03"/>
</g>
<!-- Node20&#45;&gt;Node2 -->
<g id="edge37" class="edge">
<title>Node20&#45;&gt;Node2</title>
<path fill="none" stroke="midnightblue" d="M898.68,-52.5C874.12,-42.38 840.18,-28.39 818.66,-19.52"/>
<polygon fill="midnightblue" stroke="midnightblue" points="897.66,-55.87 908.24,-56.44 900.33,-49.4 897.66,-55.87"/>
</g>
<!-- Node22 -->
<g id="node22" class="node">
<title>Node22</title>
<g id="a_node22"><a xlink:href="../../d4/dbe/limes__music_8h.html" target="_top" xlink:title=" ">
<polygon fill="none" stroke="black" points="1202.5,-56.5 1202.5,-75.5 1289.5,-75.5 1289.5,-56.5 1202.5,-56.5"/>
<text text-anchor="middle" x="1246" y="-63.5" font-family="Helvetica,sans-Serif" font-size="10.00">limes_music.h</text>
</a>
</g>
</g>
<!-- Node21&#45;&gt;Node22 -->
<g id="edge39" class="edge">
<title>Node21&#45;&gt;Node22</title>
<path fill="none" stroke="midnightblue" d="M1145.32,-108.5C1169.88,-98.38 1203.82,-84.39 1225.34,-75.52"/>
<polygon fill="midnightblue" stroke="midnightblue" points="1143.67,-105.4 1135.76,-112.44 1146.34,-111.87 1143.67,-105.4"/>
</g>
<!-- Node22&#45;&gt;Node2 -->
<g id="edge40" class="edge">
<title>Node22&#45;&gt;Node2</title>
<path fill="none" stroke="midnightblue" d="M1192.09,-58.5C1095.52,-46.86 896.39,-22.86 824.57,-14.2"/>
<polygon fill="midnightblue" stroke="midnightblue" points="1191.88,-62 1202.23,-59.72 1192.72,-55.05 1191.88,-62"/>
</g>
<!-- Node23&#45;&gt;Node22 -->
<g id="edge53" class="edge">
<title>Node23&#45;&gt;Node22</title>
<path fill="none" stroke="midnightblue" d="M1240.17,-218.16C1249.72,-210.42 1259.85,-200.05 1265,-188 1281.87,-148.5 1260.29,-96 1250.43,-75.61"/>
<polygon fill="midnightblue" stroke="midnightblue" points="1237.96,-215.45 1232.08,-224.26 1242.17,-221.04 1237.96,-215.45"/>
</g>
<!-- Node23&#45;&gt;Node24 -->
<g id="edge42" class="edge">
<title>Node23&#45;&gt;Node24</title>
<path fill="none" stroke="midnightblue" d="M1218,-213.8C1218,-204.91 1218,-194.78 1218,-187.75"/>
<polygon fill="midnightblue" stroke="midnightblue" points="1214.5,-214.08 1218,-224.08 1221.5,-214.08 1214.5,-214.08"/>
</g>
<!-- Node23&#45;&gt;Node25 -->
<g id="edge44" class="edge">
<title>Node23&#45;&gt;Node25</title>
<path fill="none" stroke="midnightblue" d="M1254.07,-223.94C1294.47,-213.79 1359.44,-197.48 1398.98,-187.55"/>
<polygon fill="midnightblue" stroke="midnightblue" points="1253.21,-220.55 1244.36,-226.38 1254.91,-227.34 1253.21,-220.55"/>
</g>
<!-- Node23&#45;&gt;Node26 -->
<g id="edge48" class="edge">
<title>Node23&#45;&gt;Node26</title>
<path fill="none" stroke="midnightblue" d="M1247.46,-219.85C1263.38,-211.94 1282.81,-200.9 1298,-188 1318.04,-170.97 1335.87,-145.3 1344.5,-131.89"/>
<polygon fill="midnightblue" stroke="midnightblue" points="1245.57,-216.87 1238.08,-224.36 1248.61,-223.18 1245.57,-216.87"/>
</g>
<!-- Node23&#45;&gt;Node27 -->
<g id="edge49" class="edge">
<title>Node23&#45;&gt;Node27</title>
<path fill="none" stroke="midnightblue" d="M1181.94,-222.75C1146.08,-212.56 1091.7,-197.1 1058.09,-187.55"/>
<polygon fill="midnightblue" stroke="midnightblue" points="1181.4,-226.24 1191.98,-225.6 1183.32,-219.5 1181.4,-226.24"/>
</g>
<!-- Node23&#45;&gt;Node28 -->
<g id="edge51" class="edge">
<title>Node23&#45;&gt;Node28</title>
<path fill="none" stroke="midnightblue" d="M1193.43,-219.18C1175.76,-209.24 1152.49,-196.15 1137.39,-187.65"/>
<polygon fill="midnightblue" stroke="midnightblue" points="1192.14,-222.47 1202.58,-224.32 1195.58,-216.37 1192.14,-222.47"/>
</g>
<!-- Node24&#45;&gt;Node22 -->
<g id="edge43" class="edge">
<title>Node24&#45;&gt;Node22</title>
<path fill="none" stroke="midnightblue" d="M1222.66,-158.67C1228.79,-134.62 1239.28,-93.39 1243.81,-75.59"/>
<polygon fill="midnightblue" stroke="midnightblue" points="1219.27,-157.81 1220.2,-168.37 1226.06,-159.54 1219.27,-157.81"/>
</g>
<!-- Node25&#45;&gt;Node22 -->
<g id="edge47" class="edge">
<title>Node25&#45;&gt;Node22</title>
<path fill="none" stroke="midnightblue" d="M1424.1,-159.45C1415.83,-144.8 1402.21,-124.39 1385,-112 1356.69,-91.62 1318.7,-80.15 1289.58,-73.9"/>
<polygon fill="midnightblue" stroke="midnightblue" points="1421.14,-161.34 1428.95,-168.5 1427.31,-158.03 1421.14,-161.34"/>
</g>
<!-- Node25&#45;&gt;Node26 -->
<g id="edge45" class="edge">
<title>Node25&#45;&gt;Node26</title>
<path fill="none" stroke="midnightblue" d="M1410.9,-162.62C1395.74,-152.76 1376.12,-139.99 1363.3,-131.65"/>
<polygon fill="midnightblue" stroke="midnightblue" points="1409.37,-165.8 1419.66,-168.32 1413.19,-159.94 1409.37,-165.8"/>
</g>
<!-- Node26&#45;&gt;Node22 -->
<g id="edge46" class="edge">
<title>Node26&#45;&gt;Node22</title>
<path fill="none" stroke="midnightblue" d="M1324.17,-107.59C1304.94,-97.61 1279.26,-84.27 1262.67,-75.65"/>
<polygon fill="midnightblue" stroke="midnightblue" points="1322.8,-110.82 1333.29,-112.32 1326.03,-104.61 1322.8,-110.82"/>
</g>
<!-- Node27&#45;&gt;Node22 -->
<g id="edge50" class="edge">
<title>Node27&#45;&gt;Node22</title>
<path fill="none" stroke="midnightblue" d="M1067.44,-165.35C1092.1,-157.4 1124.17,-145.81 1151,-132 1168.06,-123.22 1212.97,-91.05 1234.35,-75.51"/>
<polygon fill="midnightblue" stroke="midnightblue" points="1066.18,-162.08 1057.7,-168.43 1068.29,-168.75 1066.18,-162.08"/>
</g>
<!-- Node28&#45;&gt;Node22 -->
<g id="edge52" class="edge">
<title>Node28&#45;&gt;Node22</title>
<path fill="none" stroke="midnightblue" d="M1143.64,-162.73C1155.89,-154.3 1171.27,-143.13 1184,-132 1205.13,-113.52 1227.2,-88.89 1238.44,-75.9"/>
<polygon fill="midnightblue" stroke="midnightblue" points="1141.66,-159.84 1135.35,-168.35 1145.59,-165.64 1141.66,-159.84"/>
</g>
<!-- Node29&#45;&gt;Node22 -->
<g id="edge60" class="edge">
<title>Node29&#45;&gt;Node22</title>
<path fill="none" stroke="midnightblue" d="M1503.78,-213.99C1501.42,-200.21 1496.62,-181.67 1487,-168 1462.65,-133.39 1448.13,-130.34 1410,-112 1371.29,-93.38 1323.6,-81.39 1289.65,-74.51"/>
<polygon fill="midnightblue" stroke="midnightblue" points="1500.36,-214.83 1505.24,-224.23 1507.29,-213.84 1500.36,-214.83"/>
</g>
<!-- Node30 -->
<g id="node30" class="node">
<title>Node30</title>
<g id="a_node30"><a xlink:href="../../d8/dd4/_note_length__impl_8h.html" target="_top" xlink:title=" ">
<polygon fill="none" stroke="black" points="1534.5,-168.5 1534.5,-187.5 1643.5,-187.5 1643.5,-168.5 1534.5,-168.5"/>
<text text-anchor="middle" x="1589" y="-175.5" font-family="Helvetica,sans-Serif" font-size="10.00">NoteLength_impl.h</text>
</a>
</g>
</g>
<!-- Node29&#45;&gt;Node30 -->
<g id="edge61" class="edge">
<title>Node29&#45;&gt;Node30</title>
<path fill="none" stroke="midnightblue" d="M1522.45,-218.34C1536.41,-208.52 1556.1,-195.91 1570.59,-187.65"/>
<polygon fill="midnightblue" stroke="midnightblue" points="1520.25,-215.61 1514.22,-224.32 1524.37,-221.28 1520.25,-215.61"/>
</g>
<!-- Node30&#45;&gt;Node29 -->
<g id="edge62" class="edge">
<title>Node30&#45;&gt;Node29</title>
<path fill="none" stroke="midnightblue" d="M1572.34,-193.81C1558.41,-203.6 1538.86,-216.11 1524.45,-224.32"/>
<polygon fill="midnightblue" stroke="midnightblue" points="1574.53,-196.54 1580.57,-187.83 1570.42,-190.87 1574.53,-196.54"/>
</g>
</g>
</svg>
