<?xml version="1.0" encoding="UTF-8" standalone="no"?>
<!DOCTYPE svg PUBLIC "-//W3C//DTD SVG 1.1//EN"
 "http://www.w3.org/Graphics/SVG/1.1/DTD/svg11.dtd">
<!-- Generated by graphviz version 2.43.0 (0)
 -->
<!-- Title: rectangular_prism.h Pages: 1 -->
<!--zoomable 599 -->
<svg id="main" version="1.1" xmlns="http://www.w3.org/2000/svg" xmlns:xlink="http://www.w3.org/1999/xlink" xml:space="preserve" onload="init(evt)">
<style type="text/css"><![CDATA[
.edge:hover path { stroke: red; }
.edge:hover polygon { stroke: red; fill: red; }
]]></style>
<script type="text/javascript"><![CDATA[
var edges = document.getElementsByTagName('g');
if (edges && edges.length) {
  for (var i=0;i<edges.length;i++) {
    if (edges[i].id.substr(0,4)=='edge') {
      edges[i].setAttribute('class','edge');
    }
  }
}
]]></script>
        <defs>
                <circle id="rim" cx="0" cy="0" r="7"/>
                <circle id="rim2" cx="0" cy="0" r="3.5"/>
                <g id="zoomPlus">
                        <use xlink:href="#rim" fill="#404040">
                                <set attributeName="fill" to="#808080" begin="zoomplus.mouseover" end="zoomplus.mouseout"/>
                        </use>
                        <path d="M-4,0h8M0,-4v8" fill="none" stroke="white" stroke-width="1.5" pointer-events="none"/>
                </g>
                <g id="zoomMin">
                        <use xlink:href="#rim" fill="#404040">
                                <set attributeName="fill" to="#808080" begin="zoomminus.mouseover" end="zoomminus.mouseout"/>
                        </use>
                        <path d="M-4,0h8" fill="none" stroke="white" stroke-width="1.5" pointer-events="none"/>
                </g>
                <g id="dirArrow">
                        <path fill="none" stroke="white" stroke-width="1.5" d="M0,-3.0v7 M-2.5,-0.5L0,-3.0L2.5,-0.5"/>
                </g>
               <g id="resetDef">
                       <use xlink:href="#rim2" fill="#404040">
                               <set attributeName="fill" to="#808080" begin="reset.mouseover" end="reset.mouseout"/>
                       </use>
               </g>
        </defs>

<script type="text/javascript">
var viewWidth = 1668;
var viewHeight = 599;
var sectionId = 'dynsection-0';
</script>
<script xlink:href="../../svgpan.js"/>
<svg id="graph" class="graph">
<g id="viewport">
<title>rectangular_prism.h</title>
<!-- Node1 -->
<g id="node1" class="node">
<title>Node1</title>
<g id="a_node1"><a xlink:title=" ">
<polygon fill="#bfbfbf" stroke="black" points="1451,-571.5 1451,-590.5 1565,-590.5 1565,-571.5 1451,-571.5"/>
<text text-anchor="middle" x="1508" y="-578.5" font-family="Helvetica,sans-Serif" font-size="10.00">rectangular_prism.h</text>
</a>
</g>
</g>
<!-- Node2 -->
<g id="node2" class="node">
<title>Node2</title>
<g id="a_node2"><a xlink:href="../../da/d0b/limes__namespace_8h.html" target="_top" xlink:title=" ">
<polygon fill="none" stroke="black" points="763,-56.5 763,-75.5 877,-75.5 877,-56.5 763,-56.5"/>
<text text-anchor="middle" x="820" y="-63.5" font-family="Helvetica,sans-Serif" font-size="10.00">limes_namespace.h</text>
</a>
</g>
</g>
<!-- Node1&#45;&gt;Node2 -->
<g id="edge1" class="edge">
<title>Node1&#45;&gt;Node2</title>
<path fill="none" stroke="midnightblue" d="M1450.97,-579.52C1237.08,-577.08 483.5,-562.62 261,-479 154.48,-438.97 76,-415.79 76,-302 76,-302 76,-302 76,-188 76,-122.98 139.07,-131.8 201,-112 302.13,-79.67 614.37,-70.45 752.77,-67.92"/>
<polygon fill="midnightblue" stroke="midnightblue" points="752.89,-71.41 762.83,-67.74 752.77,-64.42 752.89,-71.41"/>
</g>
<!-- Node3 -->
<g id="node3" class="node">
<title>Node3</title>
<g id="a_node3"><a xlink:title=" ">
<polygon fill="none" stroke="#bfbfbf" points="1244.5,-56.5 1244.5,-75.5 1333.5,-75.5 1333.5,-56.5 1244.5,-56.5"/>
<text text-anchor="middle" x="1289" y="-63.5" font-family="Helvetica,sans-Serif" font-size="10.00">limes_export.h</text>
</a>
</g>
</g>
<!-- Node1&#45;&gt;Node3 -->
<g id="edge2" class="edge">
<title>Node1&#45;&gt;Node3</title>
<path fill="none" stroke="midnightblue" d="M1528.64,-571.42C1561.5,-556.23 1622,-521.29 1622,-470 1622,-470 1622,-470 1622,-356 1622,-230.53 1580.82,-186.69 1480,-112 1440.51,-82.74 1384.86,-72.17 1343.82,-68.51"/>
<polygon fill="midnightblue" stroke="midnightblue" points="1343.96,-65.02 1333.72,-67.73 1343.41,-71.99 1343.96,-65.02"/>
</g>
<!-- Node4 -->
<g id="node4" class="node">
<title>Node4</title>
<g id="a_node4"><a xlink:title=" ">
<polygon fill="none" stroke="#bfbfbf" points="1068,-0.5 1068,-19.5 1168,-19.5 1168,-0.5 1068,-0.5"/>
<text text-anchor="middle" x="1118" y="-7.5" font-family="Helvetica,sans-Serif" font-size="10.00">limes_platform.h</text>
</a>
</g>
</g>
<!-- Node1&#45;&gt;Node4 -->
<g id="edge3" class="edge">
<title>Node1&#45;&gt;Node4</title>
<path fill="none" stroke="midnightblue" d="M1542.87,-571.4C1587.75,-558 1660,-527.49 1660,-470 1660,-470 1660,-470 1660,-126.5 1660,-28.88 1319.45,-13.45 1178.24,-11.25"/>
<polygon fill="midnightblue" stroke="midnightblue" points="1178.07,-7.74 1168.02,-11.11 1177.97,-14.74 1178.07,-7.74"/>
</g>
<!-- Node5 -->
<g id="node5" class="node">
<title>Node5</title>
<g id="a_node5"><a xlink:href="../../d3/d53/preprocessor_8h.html" target="_top" xlink:title=" ">
<polygon fill="none" stroke="black" points="119.5,-56.5 119.5,-75.5 260.5,-75.5 260.5,-56.5 119.5,-56.5"/>
<text text-anchor="middle" x="190" y="-63.5" font-family="Helvetica,sans-Serif" font-size="10.00">../../../misc/preprocessor.h</text>
</a>
</g>
</g>
<!-- Node1&#45;&gt;Node5 -->
<g id="edge4" class="edge">
<title>Node1&#45;&gt;Node5</title>
<path fill="none" stroke="midnightblue" d="M1450.73,-578.88C1175.27,-573.11 0,-544.16 0,-470 0,-470 0,-470 0,-188 0,-150.24 9.05,-136.26 38,-112 58.2,-95.07 84.57,-84.51 109.66,-77.92"/>
<polygon fill="midnightblue" stroke="midnightblue" points="110.68,-81.27 119.56,-75.5 109.02,-74.47 110.68,-81.27"/>
</g>
<!-- Node6 -->
<g id="node6" class="node">
<title>Node6</title>
<g id="a_node6"><a xlink:href="../../d7/d3c/square_8h.html" target="_top" xlink:title=" ">
<polygon fill="none" stroke="black" points="1238,-515.5 1238,-534.5 1322,-534.5 1322,-515.5 1238,-515.5"/>
<text text-anchor="middle" x="1280" y="-522.5" font-family="Helvetica,sans-Serif" font-size="10.00">../2D/square.h</text>
</a>
</g>
</g>
<!-- Node1&#45;&gt;Node6 -->
<g id="edge6" class="edge">
<title>Node1&#45;&gt;Node6</title>
<path fill="none" stroke="midnightblue" d="M1471.87,-571.44C1432.35,-562.08 1368.9,-547.06 1325.89,-536.87"/>
<polygon fill="midnightblue" stroke="midnightblue" points="1326.5,-533.42 1315.96,-534.52 1324.88,-540.23 1326.5,-533.42"/>
</g>
<!-- Node15 -->
<g id="node15" class="node">
<title>Node15</title>
<g id="a_node15"><a xlink:title=" ">
<polygon fill="none" stroke="#bfbfbf" points="1332.5,-179.5 1332.5,-198.5 1379.5,-198.5 1379.5,-179.5 1332.5,-179.5"/>
<text text-anchor="middle" x="1356" y="-186.5" font-family="Helvetica,sans-Serif" font-size="10.00">cmath</text>
</a>
</g>
</g>
<!-- Node1&#45;&gt;Node15 -->
<g id="edge63" class="edge">
<title>Node1&#45;&gt;Node15</title>
<path fill="none" stroke="midnightblue" d="M1506.63,-571.44C1499.93,-531.17 1467.97,-357.5 1397,-235 1390.8,-224.3 1381.7,-213.98 1373.65,-205.93"/>
<polygon fill="midnightblue" stroke="midnightblue" points="1375.74,-203.09 1366.1,-198.7 1370.91,-208.15 1375.74,-203.09"/>
</g>
<!-- Node21 -->
<g id="node21" class="node">
<title>Node21</title>
<g id="a_node21"><a xlink:href="../../d7/d88/3_dshape_8h.html" target="_top" xlink:title=" ">
<polygon fill="none" stroke="black" points="1374,-118 1374,-137 1442,-137 1442,-118 1374,-118"/>
<text text-anchor="middle" x="1408" y="-125" font-family="Helvetica,sans-Serif" font-size="10.00">3Dshape.h</text>
</a>
</g>
</g>
<!-- Node1&#45;&gt;Node21 -->
<g id="edge60" class="edge">
<title>Node1&#45;&gt;Node21</title>
<path fill="none" stroke="midnightblue" d="M1508.99,-571.39C1509.98,-562.34 1511.44,-547.69 1512,-535 1512.39,-526.12 1512.94,-523.84 1512,-515 1509.32,-489.69 1505.96,-483.75 1500,-459 1471.08,-338.95 1428.66,-196.59 1413.58,-146.78"/>
<polygon fill="midnightblue" stroke="midnightblue" points="1416.9,-145.67 1410.64,-137.12 1410.2,-147.71 1416.9,-145.67"/>
</g>
<!-- Node5&#45;&gt;Node4 -->
<g id="edge5" class="edge">
<title>Node5&#45;&gt;Node4</title>
<path fill="none" stroke="midnightblue" d="M260.51,-60.9C436.52,-50.66 892.82,-24.1 1057.56,-14.52"/>
<polygon fill="midnightblue" stroke="midnightblue" points="1058.2,-17.99 1067.98,-13.91 1057.8,-11 1058.2,-17.99"/>
</g>
<!-- Node6&#45;&gt;Node2 -->
<g id="edge7" class="edge">
<title>Node6&#45;&gt;Node2</title>
<path fill="none" stroke="midnightblue" d="M1237.94,-524.25C1037.62,-524.91 190,-521.34 190,-414 190,-414 190,-414 190,-188 190,-145.78 210,-132.35 247,-112 290.37,-88.15 610.71,-74.24 752.64,-69.19"/>
<polygon fill="midnightblue" stroke="midnightblue" points="753.08,-72.67 762.95,-68.82 752.83,-65.68 753.08,-72.67"/>
</g>
<!-- Node6&#45;&gt;Node3 -->
<g id="edge8" class="edge">
<title>Node6&#45;&gt;Node3</title>
<path fill="none" stroke="midnightblue" d="M1315.7,-515.45C1337.46,-508.68 1364.54,-497.24 1383,-479 1460.67,-402.23 1461.04,-361.77 1484,-255 1497.71,-191.23 1501.22,-153.62 1451,-112 1420.96,-87.1 1378.12,-75.94 1344.04,-70.95"/>
<polygon fill="midnightblue" stroke="midnightblue" points="1344.14,-67.43 1333.77,-69.59 1343.22,-74.37 1344.14,-67.43"/>
</g>
<!-- Node6&#45;&gt;Node4 -->
<g id="edge9" class="edge">
<title>Node6&#45;&gt;Node4</title>
<path fill="none" stroke="midnightblue" d="M1319.26,-515.5C1345.61,-508.54 1380.27,-496.88 1407,-479 1540.06,-389.99 1622,-350.09 1622,-190 1622,-190 1622,-190 1622,-126.5 1622,-36.39 1312.01,-16.58 1178.25,-12.23"/>
<polygon fill="midnightblue" stroke="midnightblue" points="1178.27,-8.72 1168.17,-11.92 1178.06,-15.72 1178.27,-8.72"/>
</g>
<!-- Node6&#45;&gt;Node5 -->
<g id="edge13" class="edge">
<title>Node6&#45;&gt;Node5</title>
<path fill="none" stroke="midnightblue" d="M1237.9,-523.59C1057.42,-521.65 353.98,-512.01 261,-479 141.76,-436.66 38,-428.54 38,-302 38,-302 38,-302 38,-188 38,-152.58 37.36,-137.45 62,-112 78.06,-95.42 100.58,-84.94 122.26,-78.32"/>
<polygon fill="midnightblue" stroke="midnightblue" points="123.46,-81.61 132.13,-75.54 121.56,-74.88 123.46,-81.61"/>
</g>
<!-- Node7 -->
<g id="node7" class="node">
<title>Node7</title>
<g id="a_node7"><a xlink:href="../../d8/d23/2_dshape_8h.html" target="_top" xlink:title=" ">
<polygon fill="none" stroke="black" points="282,-347.5 282,-366.5 350,-366.5 350,-347.5 282,-347.5"/>
<text text-anchor="middle" x="316" y="-354.5" font-family="Helvetica,sans-Serif" font-size="10.00">2Dshape.h</text>
</a>
</g>
</g>
<!-- Node6&#45;&gt;Node7 -->
<g id="edge10" class="edge">
<title>Node6&#45;&gt;Node7</title>
<path fill="none" stroke="midnightblue" d="M1237.76,-518.02C1134.8,-503.31 862.78,-463.57 637,-423 537.6,-405.14 421.61,-380.77 359.9,-367.53"/>
<polygon fill="midnightblue" stroke="midnightblue" points="360.62,-364.1 350.11,-365.42 359.15,-370.95 360.62,-364.1"/>
</g>
<!-- Node8 -->
<g id="node8" class="node">
<title>Node8</title>
<g id="a_node8"><a xlink:href="../../db/dd0/rectangle_8h.html" target="_top" xlink:title=" ">
<polygon fill="none" stroke="black" points="1244.5,-459.5 1244.5,-478.5 1315.5,-478.5 1315.5,-459.5 1244.5,-459.5"/>
<text text-anchor="middle" x="1280" y="-466.5" font-family="Helvetica,sans-Serif" font-size="10.00">rectangle.h</text>
</a>
</g>
</g>
<!-- Node6&#45;&gt;Node8 -->
<g id="edge14" class="edge">
<title>Node6&#45;&gt;Node8</title>
<path fill="none" stroke="midnightblue" d="M1280,-515.08C1280,-508.01 1280,-497.86 1280,-488.99"/>
<polygon fill="midnightblue" stroke="midnightblue" points="1283.5,-488.75 1280,-478.75 1276.5,-488.75 1283.5,-488.75"/>
</g>
<!-- Node9 -->
<g id="node9" class="node">
<title>Node9</title>
<g id="a_node9"><a xlink:href="../../dd/d6a/triangle_8h.html" target="_top" xlink:title=" ">
<polygon fill="none" stroke="black" points="1096.5,-403.5 1096.5,-422.5 1159.5,-422.5 1159.5,-403.5 1096.5,-403.5"/>
<text text-anchor="middle" x="1128" y="-410.5" font-family="Helvetica,sans-Serif" font-size="10.00">triangle.h</text>
</a>
</g>
</g>
<!-- Node6&#45;&gt;Node9 -->
<g id="edge58" class="edge">
<title>Node6&#45;&gt;Node9</title>
<path fill="none" stroke="midnightblue" d="M1268.07,-515.37C1242.1,-496.57 1180.19,-451.77 1148.08,-428.53"/>
<polygon fill="midnightblue" stroke="midnightblue" points="1150.02,-425.62 1139.87,-422.59 1145.92,-431.29 1150.02,-425.62"/>
</g>
<!-- Node6&#45;&gt;Node15 -->
<g id="edge59" class="edge">
<title>Node6&#45;&gt;Node15</title>
<path fill="none" stroke="midnightblue" d="M1300.64,-515.42C1333.5,-500.23 1394,-465.29 1394,-414 1394,-414 1394,-414 1394,-300 1394,-265.81 1377.4,-228.76 1366.14,-207.57"/>
<polygon fill="midnightblue" stroke="midnightblue" points="1369.18,-205.83 1361.28,-198.77 1363.05,-209.22 1369.18,-205.83"/>
</g>
<!-- Node7&#45;&gt;Node2 -->
<g id="edge11" class="edge">
<title>Node7&#45;&gt;Node2</title>
<path fill="none" stroke="midnightblue" d="M316.53,-347.47C319.25,-311.75 334.87,-173.21 416,-112 467.54,-73.11 651.77,-66.83 752.7,-66.4"/>
<polygon fill="midnightblue" stroke="midnightblue" points="752.8,-69.9 762.8,-66.38 752.79,-62.9 752.8,-69.9"/>
</g>
<!-- Node7&#45;&gt;Node3 -->
<g id="edge12" class="edge">
<title>Node7&#45;&gt;Node3</title>
<path fill="none" stroke="midnightblue" d="M350.33,-355.1C456.84,-352.01 780.54,-340.4 881,-311 1033.28,-266.43 1063.94,-230.95 1196,-143 1224.04,-124.33 1253.73,-98.95 1271.82,-82.77"/>
<polygon fill="midnightblue" stroke="midnightblue" points="1274.64,-84.94 1279.71,-75.64 1269.94,-79.75 1274.64,-84.94"/>
</g>
<!-- Node8&#45;&gt;Node2 -->
<g id="edge15" class="edge">
<title>Node8&#45;&gt;Node2</title>
<path fill="none" stroke="midnightblue" d="M1271.9,-459.29C1232.86,-417.57 1059.25,-235.15 895,-112 879.35,-100.27 860.47,-88.95 845.56,-80.6"/>
<polygon fill="midnightblue" stroke="midnightblue" points="846.86,-77.32 836.42,-75.57 843.49,-83.46 846.86,-77.32"/>
</g>
<!-- Node8&#45;&gt;Node3 -->
<g id="edge16" class="edge">
<title>Node8&#45;&gt;Node3</title>
<path fill="none" stroke="midnightblue" d="M1283.6,-459.22C1287.06,-450.28 1292.03,-435.94 1294,-423 1313.42,-295.19 1297.77,-138.59 1291.39,-85.56"/>
<polygon fill="midnightblue" stroke="midnightblue" points="1294.86,-85.1 1290.16,-75.61 1287.92,-85.97 1294.86,-85.1"/>
</g>
<!-- Node8&#45;&gt;Node4 -->
<g id="edge17" class="edge">
<title>Node8&#45;&gt;Node4</title>
<path fill="none" stroke="midnightblue" d="M1304.36,-459.43C1376.5,-432.34 1584,-341.26 1584,-190 1584,-190 1584,-190 1584,-126.5 1584,-43.91 1304.73,-19.97 1178.58,-13.37"/>
<polygon fill="midnightblue" stroke="midnightblue" points="1178.48,-9.87 1168.31,-12.86 1178.12,-16.86 1178.48,-9.87"/>
</g>
<!-- Node8&#45;&gt;Node5 -->
<g id="edge19" class="edge">
<title>Node8&#45;&gt;Node5</title>
<path fill="none" stroke="midnightblue" d="M1244.47,-466.56C1049.06,-458.39 114,-416.27 114,-358 114,-358 114,-358 114,-188 114,-144.48 149.7,-103.77 172.16,-82.47"/>
<polygon fill="midnightblue" stroke="midnightblue" points="174.73,-84.86 179.75,-75.53 170.01,-79.7 174.73,-84.86"/>
</g>
<!-- Node8&#45;&gt;Node7 -->
<g id="edge18" class="edge">
<title>Node8&#45;&gt;Node7</title>
<path fill="none" stroke="midnightblue" d="M1244.08,-465.02C1121,-454.61 705.03,-417.7 364,-367 362.73,-366.81 361.43,-366.61 360.13,-366.41"/>
<polygon fill="midnightblue" stroke="midnightblue" points="360.48,-362.91 350.03,-364.71 359.32,-369.82 360.48,-362.91"/>
</g>
<!-- Node8&#45;&gt;Node9 -->
<g id="edge20" class="edge">
<title>Node8&#45;&gt;Node9</title>
<path fill="none" stroke="midnightblue" d="M1255.92,-459.44C1230.46,-450.4 1190.11,-436.06 1161.54,-425.92"/>
<polygon fill="midnightblue" stroke="midnightblue" points="1162.57,-422.57 1151.97,-422.52 1160.22,-429.16 1162.57,-422.57"/>
</g>
<!-- Node8&#45;&gt;Node15 -->
<g id="edge57" class="edge">
<title>Node8&#45;&gt;Node15</title>
<path fill="none" stroke="midnightblue" d="M1293.2,-459.46C1304.84,-451.33 1321.53,-438.12 1332,-423 1349.53,-397.68 1356,-388.8 1356,-358 1356,-358 1356,-358 1356,-300 1356,-267.95 1356,-230.64 1356,-208.75"/>
<polygon fill="midnightblue" stroke="midnightblue" points="1359.5,-208.56 1356,-198.56 1352.5,-208.56 1359.5,-208.56"/>
</g>
<!-- Node9&#45;&gt;Node2 -->
<g id="edge21" class="edge">
<title>Node9&#45;&gt;Node2</title>
<path fill="none" stroke="midnightblue" d="M1096.38,-411.74C981.87,-408.86 588.27,-381.4 449,-143 442.05,-131.1 439.86,-122.31 449,-112 468.76,-89.7 651.18,-76.23 752.65,-70.4"/>
<polygon fill="midnightblue" stroke="midnightblue" points="753.03,-73.89 762.81,-69.83 752.63,-66.9 753.03,-73.89"/>
</g>
<!-- Node9&#45;&gt;Node3 -->
<g id="edge22" class="edge">
<title>Node9&#45;&gt;Node3</title>
<path fill="none" stroke="midnightblue" d="M1130.21,-403.21C1138.69,-370.82 1171.49,-256.01 1229,-179 1243.91,-159.03 1259.04,-164.29 1272,-143 1282.64,-125.53 1286.64,-102.17 1288.13,-85.98"/>
<polygon fill="midnightblue" stroke="midnightblue" points="1291.65,-85.86 1288.84,-75.64 1284.67,-85.38 1291.65,-85.86"/>
</g>
<!-- Node9&#45;&gt;Node4 -->
<g id="edge23" class="edge">
<title>Node9&#45;&gt;Node4</title>
<path fill="none" stroke="midnightblue" d="M1134.05,-403.49C1161.3,-365.41 1273.39,-211.08 1323,-179 1372.62,-146.91 1415.32,-190.11 1451,-143 1459.32,-132.02 1458.18,-123.76 1451,-112 1422.35,-65.07 1266.06,-33.81 1178.15,-19.67"/>
<polygon fill="midnightblue" stroke="midnightblue" points="1178.46,-16.17 1168.04,-18.07 1177.37,-23.09 1178.46,-16.17"/>
</g>
<!-- Node9&#45;&gt;Node5 -->
<g id="edge25" class="edge">
<title>Node9&#45;&gt;Node5</title>
<path fill="none" stroke="midnightblue" d="M1096.28,-411.38C1027.8,-409.4 861.43,-401.17 727,-367 470.8,-301.87 323.59,-362.32 176,-143 164.34,-125.67 172.04,-101.31 179.86,-84.88"/>
<polygon fill="midnightblue" stroke="midnightblue" points="183.07,-86.3 184.58,-75.81 176.86,-83.07 183.07,-86.3"/>
</g>
<!-- Node9&#45;&gt;Node7 -->
<g id="edge24" class="edge">
<title>Node9&#45;&gt;Node7</title>
<path fill="none" stroke="midnightblue" d="M1096.21,-411.57C991.29,-409.83 646.55,-401.67 364,-367 362.72,-366.84 361.43,-366.67 360.12,-366.49"/>
<polygon fill="midnightblue" stroke="midnightblue" points="360.42,-363 350.01,-364.93 359.35,-369.92 360.42,-363"/>
</g>
<!-- Node10 -->
<g id="node10" class="node">
<title>Node10</title>
<g id="a_node10"><a xlink:href="../../da/dac/angle_8h.html" target="_top" xlink:title=" ">
<polygon fill="none" stroke="black" points="1063.5,-347.5 1063.5,-366.5 1116.5,-366.5 1116.5,-347.5 1063.5,-347.5"/>
<text text-anchor="middle" x="1090" y="-354.5" font-family="Helvetica,sans-Serif" font-size="10.00">angle.h</text>
</a>
</g>
</g>
<!-- Node9&#45;&gt;Node10 -->
<g id="edge26" class="edge">
<title>Node9&#45;&gt;Node10</title>
<path fill="none" stroke="midnightblue" d="M1121.73,-403.08C1116.36,-395.46 1108.48,-384.26 1101.92,-374.94"/>
<polygon fill="midnightblue" stroke="midnightblue" points="1104.78,-372.91 1096.16,-366.75 1099.05,-376.94 1104.78,-372.91"/>
</g>
<!-- Node11 -->
<g id="node11" class="node">
<title>Node11</title>
<g id="a_node11"><a xlink:href="../../dc/d5c/math_functions_8h.html" target="_top" xlink:title=" ">
<polygon fill="none" stroke="black" points="756,-291.5 756,-310.5 872,-310.5 872,-291.5 756,-291.5"/>
<text text-anchor="middle" x="814" y="-298.5" font-family="Helvetica,sans-Serif" font-size="10.00">../../mathFunctions.h</text>
</a>
</g>
</g>
<!-- Node9&#45;&gt;Node11 -->
<g id="edge55" class="edge">
<title>Node9&#45;&gt;Node11</title>
<path fill="none" stroke="midnightblue" d="M1103.62,-403.46C1048.09,-384.01 912.07,-336.36 848.19,-313.98"/>
<polygon fill="midnightblue" stroke="midnightblue" points="849.17,-310.61 838.58,-310.61 846.86,-317.22 849.17,-310.61"/>
</g>
<!-- Node9&#45;&gt;Node15 -->
<g id="edge56" class="edge">
<title>Node9&#45;&gt;Node15</title>
<path fill="none" stroke="midnightblue" d="M1138.56,-403.26C1149.21,-394.35 1166.03,-380.03 1180,-367 1241.37,-309.74 1310.63,-237.8 1340.7,-206.18"/>
<polygon fill="midnightblue" stroke="midnightblue" points="1343.45,-208.37 1347.79,-198.7 1338.37,-203.55 1343.45,-208.37"/>
</g>
<!-- Node10&#45;&gt;Node2 -->
<g id="edge28" class="edge">
<title>Node10&#45;&gt;Node2</title>
<path fill="none" stroke="midnightblue" d="M1082.42,-347.42C1054.33,-315.67 953.23,-202.04 866,-112 856.48,-102.17 845.54,-91.44 836.71,-82.93"/>
<polygon fill="midnightblue" stroke="midnightblue" points="838.95,-80.22 829.31,-75.82 834.1,-85.27 838.95,-80.22"/>
</g>
<!-- Node10&#45;&gt;Node3 -->
<g id="edge27" class="edge">
<title>Node10&#45;&gt;Node3</title>
<path fill="none" stroke="midnightblue" d="M1093.15,-347.32C1103.43,-319.89 1138.38,-233.65 1190,-179 1210.32,-157.49 1225.68,-164.5 1246,-143 1262.06,-126.01 1274.37,-101.91 1281.63,-85.43"/>
<polygon fill="midnightblue" stroke="midnightblue" points="1285.01,-86.43 1285.65,-75.85 1278.55,-83.72 1285.01,-86.43"/>
</g>
<!-- Node10&#45;&gt;Node4 -->
<g id="edge29" class="edge">
<title>Node10&#45;&gt;Node4</title>
<path fill="none" stroke="midnightblue" d="M1091.84,-347.42C1098.07,-318.04 1118,-221.56 1118,-190 1118,-190 1118,-190 1118,-126.5 1118,-92.36 1118,-52.55 1118,-29.71"/>
<polygon fill="midnightblue" stroke="midnightblue" points="1121.5,-29.69 1118,-19.69 1114.5,-29.69 1121.5,-29.69"/>
</g>
<!-- Node10&#45;&gt;Node11 -->
<g id="edge30" class="edge">
<title>Node10&#45;&gt;Node11</title>
<path fill="none" stroke="midnightblue" d="M1063.29,-350.77C1018.27,-341.97 926.47,-324.01 867.72,-312.51"/>
<polygon fill="midnightblue" stroke="midnightblue" points="868.35,-309.07 857.87,-310.58 867.01,-315.94 868.35,-309.07"/>
</g>
<!-- Node11&#45;&gt;Node2 -->
<g id="edge31" class="edge">
<title>Node11&#45;&gt;Node2</title>
<path fill="none" stroke="midnightblue" d="M806.85,-291.36C800.23,-282.76 790.84,-268.87 787,-255 770.08,-193.91 796.87,-119.14 811.5,-85.25"/>
<polygon fill="midnightblue" stroke="midnightblue" points="814.86,-86.31 815.75,-75.75 808.47,-83.45 814.86,-86.31"/>
</g>
<!-- Node11&#45;&gt;Node3 -->
<g id="edge33" class="edge">
<title>Node11&#45;&gt;Node3</title>
<path fill="none" stroke="midnightblue" d="M838.86,-291.49C862.64,-283.09 899.31,-269.44 930,-255 992.65,-225.52 1003.74,-209.31 1066,-179 1103.26,-160.86 1114.72,-161.08 1152,-143 1193.16,-123.04 1239.36,-96.51 1266.22,-80.65"/>
<polygon fill="midnightblue" stroke="midnightblue" points="1268.06,-83.63 1274.88,-75.52 1264.49,-77.61 1268.06,-83.63"/>
</g>
<!-- Node11&#45;&gt;Node5 -->
<g id="edge37" class="edge">
<title>Node11&#45;&gt;Node5</title>
<path fill="none" stroke="midnightblue" d="M755.78,-296.83C646.43,-288.28 406.94,-256.92 247,-143 225.55,-127.72 208.68,-101.94 199.03,-84.7"/>
<polygon fill="midnightblue" stroke="midnightblue" points="202,-82.84 194.2,-75.68 195.83,-86.14 202,-82.84"/>
</g>
<!-- Node12 -->
<g id="node12" class="node">
<title>Node12</title>
<g id="a_node12"><a xlink:title=" ">
<polygon fill="none" stroke="#bfbfbf" points="458.5,-118 458.5,-137 527.5,-137 527.5,-118 458.5,-118"/>
<text text-anchor="middle" x="493" y="-125" font-family="Helvetica,sans-Serif" font-size="10.00">type_traits</text>
</a>
</g>
</g>
<!-- Node11&#45;&gt;Node12 -->
<g id="edge32" class="edge">
<title>Node11&#45;&gt;Node12</title>
<path fill="none" stroke="midnightblue" d="M790.27,-291.48C748,-275.85 657.48,-240.4 587,-199 558.88,-182.49 529.23,-159.11 510.92,-143.88"/>
<polygon fill="midnightblue" stroke="midnightblue" points="512.81,-140.89 502.9,-137.12 508.3,-146.24 512.81,-140.89"/>
</g>
<!-- Node13 -->
<g id="node13" class="node">
<title>Node13</title>
<g id="a_node13"><a xlink:href="../../d0/d00/compiler__defs_8h.html" target="_top" xlink:title=" ">
<polygon fill="none" stroke="black" points="256.5,-112.5 256.5,-142.5 363.5,-142.5 363.5,-112.5 256.5,-112.5"/>
<text text-anchor="start" x="264.5" y="-130.5" font-family="Helvetica,sans-Serif" font-size="10.00">../system/compiler</text>
<text text-anchor="middle" x="310" y="-119.5" font-family="Helvetica,sans-Serif" font-size="10.00">_defs.h</text>
</a>
</g>
</g>
<!-- Node11&#45;&gt;Node13 -->
<g id="edge34" class="edge">
<title>Node11&#45;&gt;Node13</title>
<path fill="none" stroke="midnightblue" d="M780.46,-291.47C747.73,-282.95 696.63,-269.12 653,-255 544.73,-219.97 419.87,-171.95 354.77,-146.33"/>
<polygon fill="midnightblue" stroke="midnightblue" points="355.81,-142.98 345.22,-142.56 353.24,-149.49 355.81,-142.98"/>
</g>
<!-- Node14 -->
<g id="node14" class="node">
<title>Node14</title>
<g id="a_node14"><a xlink:href="../../dc/d9b/math_functions__impl_8h.html" target="_top" xlink:title=" ">
<polygon fill="none" stroke="black" points="796.5,-235.5 796.5,-254.5 921.5,-254.5 921.5,-235.5 796.5,-235.5"/>
<text text-anchor="middle" x="859" y="-242.5" font-family="Helvetica,sans-Serif" font-size="10.00">mathFunctions_impl.h</text>
</a>
</g>
</g>
<!-- Node11&#45;&gt;Node14 -->
<g id="edge38" class="edge">
<title>Node11&#45;&gt;Node14</title>
<path fill="none" stroke="midnightblue" d="M821.43,-291.08C827.85,-283.38 837.31,-272.03 845.12,-262.65"/>
<polygon fill="midnightblue" stroke="midnightblue" points="847.99,-264.67 851.71,-254.75 842.62,-260.19 847.99,-264.67"/>
</g>
<!-- Node13&#45;&gt;Node4 -->
<g id="edge35" class="edge">
<title>Node13&#45;&gt;Node4</title>
<path fill="none" stroke="midnightblue" d="M354.39,-112.39C407.48,-96.11 499.3,-69.81 580,-56 751.77,-26.62 957.8,-16.18 1057.74,-12.66"/>
<polygon fill="midnightblue" stroke="midnightblue" points="1058.07,-16.16 1067.94,-12.32 1057.83,-9.16 1058.07,-16.16"/>
</g>
<!-- Node13&#45;&gt;Node5 -->
<g id="edge36" class="edge">
<title>Node13&#45;&gt;Node5</title>
<path fill="none" stroke="midnightblue" d="M281.56,-112.4C261.88,-102.64 235.86,-89.74 216.59,-80.18"/>
<polygon fill="midnightblue" stroke="midnightblue" points="217.98,-76.96 207.46,-75.66 214.87,-83.24 217.98,-76.96"/>
</g>
<!-- Node14&#45;&gt;Node2 -->
<g id="edge39" class="edge">
<title>Node14&#45;&gt;Node2</title>
<path fill="none" stroke="midnightblue" d="M862.38,-235.11C866.7,-222.55 873.16,-198.89 869,-179 861.61,-143.67 842.41,-105.85 830.36,-84.44"/>
<polygon fill="midnightblue" stroke="midnightblue" points="833.27,-82.49 825.24,-75.58 827.21,-85.99 833.27,-82.49"/>
</g>
<!-- Node14&#45;&gt;Node15 -->
<g id="edge40" class="edge">
<title>Node14&#45;&gt;Node15</title>
<path fill="none" stroke="midnightblue" d="M921.69,-237.19C1027.94,-225.64 1239.85,-202.62 1322.19,-193.67"/>
<polygon fill="midnightblue" stroke="midnightblue" points="1322.69,-197.14 1332.25,-192.58 1321.93,-190.18 1322.69,-197.14"/>
</g>
<!-- Node16 -->
<g id="node16" class="node">
<title>Node16</title>
<g id="a_node16"><a xlink:title=" ">
<polygon fill="none" stroke="#bfbfbf" points="796,-179.5 796,-198.5 860,-198.5 860,-179.5 796,-179.5"/>
<text text-anchor="middle" x="828" y="-186.5" font-family="Helvetica,sans-Serif" font-size="10.00">algorithm</text>
</a>
</g>
</g>
<!-- Node14&#45;&gt;Node16 -->
<g id="edge41" class="edge">
<title>Node14&#45;&gt;Node16</title>
<path fill="none" stroke="midnightblue" d="M853.88,-235.08C849.59,-227.61 843.34,-216.72 838.06,-207.52"/>
<polygon fill="midnightblue" stroke="midnightblue" points="841.04,-205.68 833.02,-198.75 834.97,-209.17 841.04,-205.68"/>
</g>
<!-- Node17 -->
<g id="node17" class="node">
<title>Node17</title>
<g id="a_node17"><a xlink:href="../../d5/dbb/limes__assert_8h.html" target="_top" xlink:title=" ">
<polygon fill="none" stroke="black" points="596,-179.5 596,-198.5 732,-198.5 732,-179.5 596,-179.5"/>
<text text-anchor="middle" x="664" y="-186.5" font-family="Helvetica,sans-Serif" font-size="10.00">../system/limes_assert.h</text>
</a>
</g>
</g>
<!-- Node14&#45;&gt;Node17 -->
<g id="edge42" class="edge">
<title>Node14&#45;&gt;Node17</title>
<path fill="none" stroke="midnightblue" d="M828.1,-235.44C794.73,-226.2 741.41,-211.44 704.65,-201.26"/>
<polygon fill="midnightblue" stroke="midnightblue" points="705.33,-197.81 694.75,-198.52 703.46,-204.56 705.33,-197.81"/>
</g>
<!-- Node17&#45;&gt;Node2 -->
<g id="edge44" class="edge">
<title>Node17&#45;&gt;Node2</title>
<path fill="none" stroke="midnightblue" d="M691.77,-179.37C712.57,-171.97 740.95,-159.84 762,-143 782.59,-126.53 799.95,-101.24 810.17,-84.42"/>
<polygon fill="midnightblue" stroke="midnightblue" points="813.29,-86.02 815.33,-75.62 807.25,-82.48 813.29,-86.02"/>
</g>
<!-- Node17&#45;&gt;Node3 -->
<g id="edge43" class="edge">
<title>Node17&#45;&gt;Node3</title>
<path fill="none" stroke="midnightblue" d="M732.44,-181.97C846,-171.81 1064.35,-151.54 1099,-143 1107.16,-140.99 1207.14,-100.4 1258.69,-79.38"/>
<polygon fill="midnightblue" stroke="midnightblue" points="1260.08,-82.59 1268.01,-75.58 1257.43,-76.11 1260.08,-82.59"/>
</g>
<!-- Node17&#45;&gt;Node4 -->
<g id="edge52" class="edge">
<title>Node17&#45;&gt;Node4</title>
<path fill="none" stroke="midnightblue" d="M648.27,-179.24C636.11,-171.48 620.19,-158.93 613,-143 607.33,-130.44 605.26,-123.4 613,-112 662.45,-39.15 934.75,-18.61 1057.71,-13.01"/>
<polygon fill="midnightblue" stroke="midnightblue" points="1057.88,-16.51 1067.71,-12.58 1057.57,-9.52 1057.88,-16.51"/>
</g>
<!-- Node17&#45;&gt;Node5 -->
<g id="edge45" class="edge">
<title>Node17&#45;&gt;Node5</title>
<path fill="none" stroke="midnightblue" d="M646.6,-179.46C629.37,-170.83 602.39,-156.81 580,-143 559.64,-130.44 558.29,-120.69 536,-112 449.66,-78.36 342.95,-68.85 271.06,-66.65"/>
<polygon fill="midnightblue" stroke="midnightblue" points="270.8,-63.14 260.71,-66.38 270.61,-70.14 270.8,-63.14"/>
</g>
<!-- Node17&#45;&gt;Node12 -->
<g id="edge46" class="edge">
<title>Node17&#45;&gt;Node12</title>
<path fill="none" stroke="midnightblue" d="M639.5,-179.48C610.04,-169.22 560.42,-151.96 527.2,-140.4"/>
<polygon fill="midnightblue" stroke="midnightblue" points="528.05,-136.99 517.45,-137.01 525.75,-143.6 528.05,-136.99"/>
</g>
<!-- Node17&#45;&gt;Node13 -->
<g id="edge54" class="edge">
<title>Node17&#45;&gt;Node13</title>
<path fill="none" stroke="midnightblue" d="M613.28,-179.48C550.18,-168.87 442.4,-150.75 373.77,-139.22"/>
<polygon fill="midnightblue" stroke="midnightblue" points="373.96,-135.7 363.52,-137.5 372.8,-142.61 373.96,-135.7"/>
</g>
<!-- Node18 -->
<g id="node18" class="node">
<title>Node18</title>
<g id="a_node18"><a xlink:title=" ">
<polygon fill="none" stroke="#bfbfbf" points="708.5,-118 708.5,-137 753.5,-137 753.5,-118 708.5,-118"/>
<text text-anchor="middle" x="731" y="-125" font-family="Helvetica,sans-Serif" font-size="10.00">utility</text>
</a>
</g>
</g>
<!-- Node17&#45;&gt;Node18 -->
<g id="edge47" class="edge">
<title>Node17&#45;&gt;Node18</title>
<path fill="none" stroke="midnightblue" d="M673.6,-179.48C684.05,-170.2 700.97,-155.17 713.74,-143.83"/>
<polygon fill="midnightblue" stroke="midnightblue" points="716.27,-146.27 721.42,-137.01 711.62,-141.03 716.27,-146.27"/>
</g>
<!-- Node19 -->
<g id="node19" class="node">
<title>Node19</title>
<g id="a_node19"><a xlink:href="../../d1/d57/_ignore_unused_8h.html" target="_top" xlink:title=" ">
<polygon fill="none" stroke="black" points="962,-118 962,-137 1090,-137 1090,-118 962,-118"/>
<text text-anchor="middle" x="1026" y="-125" font-family="Helvetica,sans-Serif" font-size="10.00">../misc/IgnoreUnused.h</text>
</a>
</g>
</g>
<!-- Node17&#45;&gt;Node19 -->
<g id="edge48" class="edge">
<title>Node17&#45;&gt;Node19</title>
<path fill="none" stroke="midnightblue" d="M715.87,-179.48C781.46,-168.69 894.25,-150.15 964.23,-138.65"/>
<polygon fill="midnightblue" stroke="midnightblue" points="964.93,-142.08 974.23,-137.01 963.8,-135.18 964.93,-142.08"/>
</g>
<!-- Node20 -->
<g id="node20" class="node">
<title>Node20</title>
<g id="a_node20"><a xlink:title=" ">
<polygon fill="none" stroke="#bfbfbf" points="622,-118 622,-137 690,-137 690,-118 622,-118"/>
<text text-anchor="middle" x="656" y="-125" font-family="Helvetica,sans-Serif" font-size="10.00">filesystem</text>
</a>
</g>
</g>
<!-- Node17&#45;&gt;Node20 -->
<g id="edge53" class="edge">
<title>Node17&#45;&gt;Node20</title>
<path fill="none" stroke="midnightblue" d="M662.85,-179.48C661.73,-171.08 659.96,-157.98 658.51,-147.16"/>
<polygon fill="midnightblue" stroke="midnightblue" points="661.95,-146.45 657.14,-137.01 655.01,-147.39 661.95,-146.45"/>
</g>
<!-- Node19&#45;&gt;Node2 -->
<g id="edge50" class="edge">
<title>Node19&#45;&gt;Node2</title>
<path fill="none" stroke="midnightblue" d="M996.49,-117.98C960.38,-107.55 899.15,-89.86 859.15,-78.31"/>
<polygon fill="midnightblue" stroke="midnightblue" points="860.04,-74.92 849.46,-75.51 858.1,-81.65 860.04,-74.92"/>
</g>
<!-- Node19&#45;&gt;Node3 -->
<g id="edge49" class="edge">
<title>Node19&#45;&gt;Node3</title>
<path fill="none" stroke="midnightblue" d="M1063.68,-117.98C1110.55,-107.37 1190.61,-89.26 1241.6,-77.72"/>
<polygon fill="midnightblue" stroke="midnightblue" points="1242.41,-81.13 1251.39,-75.51 1240.86,-74.3 1242.41,-81.13"/>
</g>
<!-- Node19&#45;&gt;Node4 -->
<g id="edge51" class="edge">
<title>Node19&#45;&gt;Node4</title>
<path fill="none" stroke="midnightblue" d="M1032.91,-117.82C1048.17,-98.67 1084.91,-52.54 1104.75,-27.63"/>
<polygon fill="midnightblue" stroke="midnightblue" points="1107.51,-29.78 1111,-19.78 1102.04,-25.42 1107.51,-29.78"/>
</g>
<!-- Node21&#45;&gt;Node2 -->
<g id="edge61" class="edge">
<title>Node21&#45;&gt;Node2</title>
<path fill="none" stroke="midnightblue" d="M1373.85,-123.04C1279.32,-113.48 1012.96,-86.53 887.26,-73.81"/>
<polygon fill="midnightblue" stroke="midnightblue" points="887.3,-70.29 877,-72.77 886.6,-77.26 887.3,-70.29"/>
</g>
<!-- Node21&#45;&gt;Node3 -->
<g id="edge62" class="edge">
<title>Node21&#45;&gt;Node3</title>
<path fill="none" stroke="midnightblue" d="M1390.95,-117.98C1371.16,-108.08 1338.28,-91.64 1315.23,-80.12"/>
<polygon fill="midnightblue" stroke="midnightblue" points="1316.53,-76.85 1306.02,-75.51 1313.4,-83.11 1316.53,-76.85"/>
</g>
</g>
</svg>
        <g id="navigator" transform="translate(0 0)" fill="#404254">
                <rect fill="#f2f5e9" fill-opacity="0.5" stroke="#606060" stroke-width=".5" x="0" y="0" width="60" height="60"/>
                <use id="zoomplus" xlink:href="#zoomPlus" x="17" y="9" onmousedown="handleZoom(evt,'in')"/>
                <use id="zoomminus" xlink:href="#zoomMin" x="42" y="9" onmousedown="handleZoom(evt,'out')"/>
                <use id="reset" xlink:href="#resetDef" x="30" y="36" onmousedown="handleReset()"/>
                <g id="arrowUp" xlink:href="#dirArrow" transform="translate(30 24)" onmousedown="handlePan(0,-1)">
                  <use xlink:href="#rim" fill="#404040">
                        <set attributeName="fill" to="#808080" begin="arrowUp.mouseover" end="arrowUp.mouseout"/>
                  </use>
                  <path fill="none" stroke="white" stroke-width="1.5" d="M0,-3.0v7 M-2.5,-0.5L0,-3.0L2.5,-0.5"/>
                </g>
                <g id="arrowRight" xlink:href="#dirArrow" transform="rotate(90) translate(36 -43)" onmousedown="handlePan(1,0)">
                  <use xlink:href="#rim" fill="#404040">
                        <set attributeName="fill" to="#808080" begin="arrowRight.mouseover" end="arrowRight.mouseout"/>
                  </use>
                  <path fill="none" stroke="white" stroke-width="1.5" d="M0,-3.0v7 M-2.5,-0.5L0,-3.0L2.5,-0.5"/>
                </g>
                <g id="arrowDown" xlink:href="#dirArrow" transform="rotate(180) translate(-30 -48)" onmousedown="handlePan(0,1)">
                  <use xlink:href="#rim" fill="#404040">
                        <set attributeName="fill" to="#808080" begin="arrowDown.mouseover" end="arrowDown.mouseout"/>
                  </use>
                  <path fill="none" stroke="white" stroke-width="1.5" d="M0,-3.0v7 M-2.5,-0.5L0,-3.0L2.5,-0.5"/>
                </g>
                <g id="arrowLeft" xlink:href="#dirArrow" transform="rotate(270) translate(-36 17)" onmousedown="handlePan(-1,0)">
                  <use xlink:href="#rim" fill="#404040">
                        <set attributeName="fill" to="#808080" begin="arrowLeft.mouseover" end="arrowLeft.mouseout"/>
                  </use>
                  <path fill="none" stroke="white" stroke-width="1.5" d="M0,-3.0v7 M-2.5,-0.5L0,-3.0L2.5,-0.5"/>
                </g>
        </g>
        <svg viewBox="0 0 15 15" width="100%" height="30px" preserveAspectRatio="xMaxYMin meet">
         <g id="arrow_out" transform="scale(0.3 0.3)">
          <a xlink:href="rectangular__prism_8h__incl_org.svg" target="_base">
           <rect id="button" ry="5" rx="5" y="6" x="6" height="38" width="38"
                fill="#f2f5e9" fill-opacity="0.5" stroke="#606060" stroke-width="1.0"/>
           <path id="arrow"
             d="M 11.500037,31.436501 C 11.940474,20.09759 22.043105,11.32322 32.158766,21.979434 L 37.068811,17.246167 C 37.068811,17.246167 37.088388,32 37.088388,32 L 22.160133,31.978069 C 22.160133,31.978069 26.997745,27.140456 26.997745,27.140456 C 18.528582,18.264221 13.291696,25.230495 11.500037,31.436501 z"
             style="fill:#404040;"/>
          </a>
         </g>
        </svg>
</svg>
