<?xml version="1.0" encoding="UTF-8" standalone="no"?>
<!DOCTYPE svg PUBLIC "-//W3C//DTD SVG 1.1//EN"
 "http://www.w3.org/Graphics/SVG/1.1/DTD/svg11.dtd">
<!-- Generated by graphviz version 2.43.0 (0)
 -->
<!-- Title: month.h Pages: 1 -->
<!--zoomable 375 -->
<svg id="main" version="1.1" xmlns="http://www.w3.org/2000/svg" xmlns:xlink="http://www.w3.org/1999/xlink" xml:space="preserve" onload="init(evt)">
<style type="text/css"><![CDATA[
.edge:hover path { stroke: red; }
.edge:hover polygon { stroke: red; fill: red; }
]]></style>
<script type="text/javascript"><![CDATA[
var edges = document.getElementsByTagName('g');
if (edges && edges.length) {
  for (var i=0;i<edges.length;i++) {
    if (edges[i].id.substr(0,4)=='edge') {
      edges[i].setAttribute('class','edge');
    }
  }
}
]]></script>
        <defs>
                <circle id="rim" cx="0" cy="0" r="7"/>
                <circle id="rim2" cx="0" cy="0" r="3.5"/>
                <g id="zoomPlus">
                        <use xlink:href="#rim" fill="#404040">
                                <set attributeName="fill" to="#808080" begin="zoomplus.mouseover" end="zoomplus.mouseout"/>
                        </use>
                        <path d="M-4,0h8M0,-4v8" fill="none" stroke="white" stroke-width="1.5" pointer-events="none"/>
                </g>
                <g id="zoomMin">
                        <use xlink:href="#rim" fill="#404040">
                                <set attributeName="fill" to="#808080" begin="zoomminus.mouseover" end="zoomminus.mouseout"/>
                        </use>
                        <path d="M-4,0h8" fill="none" stroke="white" stroke-width="1.5" pointer-events="none"/>
                </g>
                <g id="dirArrow">
                        <path fill="none" stroke="white" stroke-width="1.5" d="M0,-3.0v7 M-2.5,-0.5L0,-3.0L2.5,-0.5"/>
                </g>
               <g id="resetDef">
                       <use xlink:href="#rim2" fill="#404040">
                               <set attributeName="fill" to="#808080" begin="reset.mouseover" end="reset.mouseout"/>
                       </use>
               </g>
        </defs>

<script type="text/javascript">
var viewWidth = 1050;
var viewHeight = 375;
var sectionId = 'dynsection-0';
</script>
<script xlink:href="../../svgpan.js"/>
<svg id="graph" class="graph">
<g id="viewport">
<title>month.h</title>
<!-- Node1 -->
<g id="node1" class="node">
<title>Node1</title>
<g id="a_node1"><a xlink:title=" ">
<polygon fill="#bfbfbf" stroke="black" points="234.5,-347.5 234.5,-366.5 291.5,-366.5 291.5,-347.5 234.5,-347.5"/>
<text text-anchor="middle" x="263" y="-354.5" font-family="Helvetica,sans-Serif" font-size="10.00">month.h</text>
</a>
</g>
</g>
<!-- Node2 -->
<g id="node2" class="node">
<title>Node2</title>
<g id="a_node2"><a xlink:title=" ">
<polygon fill="none" stroke="#bfbfbf" points="722.5,-56.5 722.5,-75.5 811.5,-75.5 811.5,-56.5 722.5,-56.5"/>
<text text-anchor="middle" x="767" y="-63.5" font-family="Helvetica,sans-Serif" font-size="10.00">limes_export.h</text>
</a>
</g>
</g>
<!-- Node1&#45;&gt;Node2 -->
<g id="edge1" class="edge">
<title>Node1&#45;&gt;Node2</title>
<path fill="none" stroke="midnightblue" d="M291.65,-355.04C432.19,-349.93 1042,-323.34 1042,-246 1042,-246 1042,-246 1042,-188 1042,-92.9 902.53,-71.89 822.23,-67.67"/>
<polygon fill="midnightblue" stroke="midnightblue" points="821.94,-64.15 811.8,-67.2 821.63,-71.14 821.94,-64.15"/>
</g>
<!-- Node3 -->
<g id="node3" class="node">
<title>Node3</title>
<g id="a_node3"><a xlink:href="../../da/d0b/limes__namespace_8h.html" target="_top" xlink:title=" ">
<polygon fill="none" stroke="black" points="38,-56.5 38,-75.5 152,-75.5 152,-56.5 38,-56.5"/>
<text text-anchor="middle" x="95" y="-63.5" font-family="Helvetica,sans-Serif" font-size="10.00">limes_namespace.h</text>
</a>
</g>
</g>
<!-- Node1&#45;&gt;Node3 -->
<g id="edge2" class="edge">
<title>Node1&#45;&gt;Node3</title>
<path fill="none" stroke="midnightblue" d="M234.35,-356.73C166.19,-356.82 0,-346.72 0,-246 0,-246 0,-246 0,-188 0,-141.25 44.42,-101.86 72.51,-81.62"/>
<polygon fill="midnightblue" stroke="midnightblue" points="74.77,-84.32 80.98,-75.74 70.77,-78.57 74.77,-84.32"/>
</g>
<!-- Node4 -->
<g id="node4" class="node">
<title>Node4</title>
<g id="a_node4"><a xlink:href="../../d3/d53/preprocessor_8h.html" target="_top" xlink:title=" ">
<polygon fill="none" stroke="black" points="219.5,-56.5 219.5,-75.5 342.5,-75.5 342.5,-56.5 219.5,-56.5"/>
<text text-anchor="middle" x="281" y="-63.5" font-family="Helvetica,sans-Serif" font-size="10.00">../misc/preprocessor.h</text>
</a>
</g>
</g>
<!-- Node1&#45;&gt;Node4 -->
<g id="edge3" class="edge">
<title>Node1&#45;&gt;Node4</title>
<path fill="none" stroke="midnightblue" d="M244.5,-347.43C229.21,-339.63 207.7,-326.92 193,-311 149.28,-263.66 109.99,-239.19 133,-179 152.38,-128.3 210.34,-95.83 247.71,-79.55"/>
<polygon fill="midnightblue" stroke="midnightblue" points="249.33,-82.67 257.19,-75.57 246.62,-76.21 249.33,-82.67"/>
</g>
<!-- Node6 -->
<g id="node6" class="node">
<title>Node6</title>
<g id="a_node6"><a xlink:href="../../d0/d00/compiler__defs_8h.html" target="_top" xlink:title=" ">
<polygon fill="none" stroke="black" points="256.5,-112.5 256.5,-142.5 363.5,-142.5 363.5,-112.5 256.5,-112.5"/>
<text text-anchor="start" x="264.5" y="-130.5" font-family="Helvetica,sans-Serif" font-size="10.00">../system/compiler</text>
<text text-anchor="middle" x="310" y="-119.5" font-family="Helvetica,sans-Serif" font-size="10.00">_defs.h</text>
</a>
</g>
</g>
<!-- Node1&#45;&gt;Node6 -->
<g id="edge5" class="edge">
<title>Node1&#45;&gt;Node6</title>
<path fill="none" stroke="midnightblue" d="M242.15,-347.43C227.42,-340.13 208.8,-328.09 200,-311 195.93,-303.1 197.39,-299.5 200,-291 217.44,-234.14 262.25,-179.25 288.99,-150.1"/>
<polygon fill="midnightblue" stroke="midnightblue" points="291.75,-152.27 296.02,-142.58 286.63,-147.5 291.75,-152.27"/>
</g>
<!-- Node7 -->
<g id="node7" class="node">
<title>Node7</title>
<g id="a_node7"><a xlink:title=" ">
<polygon fill="none" stroke="#bfbfbf" points="335.5,-291.5 335.5,-310.5 408.5,-310.5 408.5,-291.5 335.5,-291.5"/>
<text text-anchor="middle" x="372" y="-298.5" font-family="Helvetica,sans-Serif" font-size="10.00">string_view</text>
</a>
</g>
</g>
<!-- Node1&#45;&gt;Node7 -->
<g id="edge8" class="edge">
<title>Node1&#45;&gt;Node7</title>
<path fill="none" stroke="midnightblue" d="M280.51,-347.32C298.07,-338.62 325.33,-325.12 345.53,-315.11"/>
<polygon fill="midnightblue" stroke="midnightblue" points="347.12,-318.23 354.53,-310.65 344.02,-311.96 347.12,-318.23"/>
</g>
<!-- Node8 -->
<g id="node8" class="node">
<title>Node8</title>
<g id="a_node8"><a xlink:title=" ">
<polygon fill="none" stroke="#bfbfbf" points="427,-291.5 427,-310.5 471,-310.5 471,-291.5 427,-291.5"/>
<text text-anchor="middle" x="449" y="-298.5" font-family="Helvetica,sans-Serif" font-size="10.00">ctime</text>
</a>
</g>
</g>
<!-- Node1&#45;&gt;Node8 -->
<g id="edge9" class="edge">
<title>Node1&#45;&gt;Node8</title>
<path fill="none" stroke="midnightblue" d="M291.65,-347.68C325.51,-337.85 381.67,-321.55 416.94,-311.31"/>
<polygon fill="midnightblue" stroke="midnightblue" points="418.11,-314.61 426.74,-308.46 416.16,-307.89 418.11,-314.61"/>
</g>
<!-- Node9 -->
<g id="node9" class="node">
<title>Node9</title>
<g id="a_node9"><a xlink:href="../../da/d19/month__impl_8h.html" target="_top" xlink:title=" ">
<polygon fill="none" stroke="black" points="208.5,-291.5 208.5,-310.5 317.5,-310.5 317.5,-291.5 208.5,-291.5"/>
<text text-anchor="middle" x="263" y="-298.5" font-family="Helvetica,sans-Serif" font-size="10.00">impl/month_impl.h</text>
</a>
</g>
</g>
<!-- Node1&#45;&gt;Node9 -->
<g id="edge10" class="edge">
<title>Node1&#45;&gt;Node9</title>
<path fill="none" stroke="midnightblue" d="M263,-347.08C263,-340.01 263,-329.86 263,-320.99"/>
<polygon fill="midnightblue" stroke="midnightblue" points="266.5,-320.75 263,-310.75 259.5,-320.75 266.5,-320.75"/>
</g>
<!-- Node5 -->
<g id="node5" class="node">
<title>Node5</title>
<g id="a_node5"><a xlink:title=" ">
<polygon fill="none" stroke="#bfbfbf" points="472,-0.5 472,-19.5 572,-19.5 572,-0.5 472,-0.5"/>
<text text-anchor="middle" x="522" y="-7.5" font-family="Helvetica,sans-Serif" font-size="10.00">limes_platform.h</text>
</a>
</g>
</g>
<!-- Node4&#45;&gt;Node5 -->
<g id="edge4" class="edge">
<title>Node4&#45;&gt;Node5</title>
<path fill="none" stroke="midnightblue" d="M319.19,-56.44C361.14,-47.04 428.59,-31.93 474.07,-21.74"/>
<polygon fill="midnightblue" stroke="midnightblue" points="475,-25.12 483.99,-19.52 473.47,-18.29 475,-25.12"/>
</g>
<!-- Node6&#45;&gt;Node4 -->
<g id="edge7" class="edge">
<title>Node6&#45;&gt;Node4</title>
<path fill="none" stroke="midnightblue" d="M303.13,-112.4C299.09,-104.11 293.94,-93.55 289.63,-84.71"/>
<polygon fill="midnightblue" stroke="midnightblue" points="292.75,-83.11 285.22,-75.66 286.45,-86.18 292.75,-83.11"/>
</g>
<!-- Node6&#45;&gt;Node5 -->
<g id="edge6" class="edge">
<title>Node6&#45;&gt;Node5</title>
<path fill="none" stroke="midnightblue" d="M336,-112.34C377.25,-89.86 457.15,-46.33 497.46,-24.37"/>
<polygon fill="midnightblue" stroke="midnightblue" points="499.25,-27.38 506.36,-19.52 495.9,-21.23 499.25,-27.38"/>
</g>
<!-- Node9&#45;&gt;Node3 -->
<g id="edge11" class="edge">
<title>Node9&#45;&gt;Node3</title>
<path fill="none" stroke="midnightblue" d="M242.83,-291.4C210.97,-276.85 148.9,-244.46 113,-199 86.92,-165.98 88.82,-113.22 92.1,-85.46"/>
<polygon fill="midnightblue" stroke="midnightblue" points="95.57,-85.91 93.46,-75.53 88.64,-84.96 95.57,-85.91"/>
</g>
<!-- Node9&#45;&gt;Node5 -->
<g id="edge12" class="edge">
<title>Node9&#45;&gt;Node5</title>
<path fill="none" stroke="midnightblue" d="M317.79,-292.1C320.9,-291.71 323.99,-291.34 327,-291 402.57,-282.42 1004,-266.05 1004,-190 1004,-190 1004,-190 1004,-126.5 1004,-40.73 711.72,-18.5 582.36,-12.86"/>
<polygon fill="midnightblue" stroke="midnightblue" points="582.36,-9.36 572.22,-12.44 582.06,-16.36 582.36,-9.36"/>
</g>
<!-- Node10 -->
<g id="node10" class="node">
<title>Node10</title>
<g id="a_node10"><a xlink:href="../../dd/dfb/math_helpers_8h.html" target="_top" xlink:title=" ">
<polygon fill="none" stroke="black" points="597.5,-235.5 597.5,-254.5 732.5,-254.5 732.5,-235.5 597.5,-235.5"/>
<text text-anchor="middle" x="665" y="-242.5" font-family="Helvetica,sans-Serif" font-size="10.00">../../math/mathHelpers.h</text>
</a>
</g>
</g>
<!-- Node9&#45;&gt;Node10 -->
<g id="edge13" class="edge">
<title>Node9&#45;&gt;Node10</title>
<path fill="none" stroke="midnightblue" d="M317.81,-292.27C320.92,-291.84 324,-291.41 327,-291 417.24,-278.65 521.09,-264.89 589.6,-255.88"/>
<polygon fill="midnightblue" stroke="midnightblue" points="590.41,-259.3 599.87,-254.53 589.5,-252.36 590.41,-259.3"/>
</g>
<!-- Node18 -->
<g id="node18" class="node">
<title>Node18</title>
<g id="a_node18"><a xlink:href="../../dc/db3/build__date_8h.html" target="_top" xlink:title=" ">
<polygon fill="none" stroke="black" points="142,-179.5 142,-198.5 228,-198.5 228,-179.5 142,-179.5"/>
<text text-anchor="middle" x="185" y="-186.5" font-family="Helvetica,sans-Serif" font-size="10.00">../build_date.h</text>
</a>
</g>
</g>
<!-- Node9&#45;&gt;Node18 -->
<g id="edge34" class="edge">
<title>Node9&#45;&gt;Node18</title>
<path fill="none" stroke="midnightblue" d="M260.07,-291.47C255.38,-278.51 245.33,-253.44 232,-235 224.01,-223.95 213.11,-213.33 203.82,-205.17"/>
<polygon fill="midnightblue" stroke="midnightblue" points="206.08,-202.49 196.18,-198.7 201.55,-207.83 206.08,-202.49"/>
</g>
<!-- Node10&#45;&gt;Node2 -->
<g id="edge17" class="edge">
<title>Node10&#45;&gt;Node2</title>
<path fill="none" stroke="midnightblue" d="M691.95,-235.39C718.23,-226.81 759.21,-212.94 794,-199 813.94,-191.01 817.99,-186.82 838,-179 885.51,-160.42 917.11,-184.35 947,-143 981.47,-95.31 886.58,-77.36 821.81,-70.73"/>
<polygon fill="midnightblue" stroke="midnightblue" points="821.99,-67.24 811.7,-69.77 821.32,-74.2 821.99,-67.24"/>
</g>
<!-- Node10&#45;&gt;Node3 -->
<g id="edge14" class="edge">
<title>Node10&#45;&gt;Node3</title>
<path fill="none" stroke="midnightblue" d="M597.33,-242.51C462.05,-238.92 168.15,-227.86 133,-199 98.99,-171.08 94.27,-114.84 94.28,-85.6"/>
<polygon fill="midnightblue" stroke="midnightblue" points="97.78,-85.58 94.48,-75.52 90.78,-85.45 97.78,-85.58"/>
</g>
<!-- Node10&#45;&gt;Node4 -->
<g id="edge33" class="edge">
<title>Node10&#45;&gt;Node4</title>
<path fill="none" stroke="midnightblue" d="M597.15,-237.68C490.2,-226.15 290.22,-197.69 248,-143 233.93,-124.77 250.36,-99.62 264.65,-83.33"/>
<polygon fill="midnightblue" stroke="midnightblue" points="267.5,-85.41 271.75,-75.71 262.38,-80.64 267.5,-85.41"/>
</g>
<!-- Node10&#45;&gt;Node6 -->
<g id="edge32" class="edge">
<title>Node10&#45;&gt;Node6</title>
<path fill="none" stroke="midnightblue" d="M638.61,-235.41C580.36,-216.46 439.87,-170.75 362.79,-145.68"/>
<polygon fill="midnightblue" stroke="midnightblue" points="363.85,-142.34 353.26,-142.58 361.69,-149 363.85,-142.34"/>
</g>
<!-- Node11 -->
<g id="node11" class="node">
<title>Node11</title>
<g id="a_node11"><a xlink:title=" ">
<polygon fill="none" stroke="#bfbfbf" points="846.5,-179.5 846.5,-198.5 893.5,-198.5 893.5,-179.5 846.5,-179.5"/>
<text text-anchor="middle" x="870" y="-186.5" font-family="Helvetica,sans-Serif" font-size="10.00">cmath</text>
</a>
</g>
</g>
<!-- Node10&#45;&gt;Node11 -->
<g id="edge15" class="edge">
<title>Node10&#45;&gt;Node11</title>
<path fill="none" stroke="midnightblue" d="M697.48,-235.44C735.52,-225.42 798.19,-208.92 836.61,-198.79"/>
<polygon fill="midnightblue" stroke="midnightblue" points="837.52,-202.18 846.3,-196.24 835.74,-195.41 837.52,-202.18"/>
</g>
<!-- Node12 -->
<g id="node12" class="node">
<title>Node12</title>
<g id="a_node12"><a xlink:title=" ">
<polygon fill="none" stroke="#bfbfbf" points="868.5,-118 868.5,-137 937.5,-137 937.5,-118 868.5,-118"/>
<text text-anchor="middle" x="903" y="-125" font-family="Helvetica,sans-Serif" font-size="10.00">type_traits</text>
</a>
</g>
</g>
<!-- Node10&#45;&gt;Node12 -->
<g id="edge16" class="edge">
<title>Node10&#45;&gt;Node12</title>
<path fill="none" stroke="midnightblue" d="M682.89,-235.32C724.34,-215.2 827.16,-165.31 876.18,-141.52"/>
<polygon fill="midnightblue" stroke="midnightblue" points="877.76,-144.64 885.23,-137.12 874.7,-138.34 877.76,-144.64"/>
</g>
<!-- Node13 -->
<g id="node13" class="node">
<title>Node13</title>
<g id="a_node13"><a xlink:title=" ">
<polygon fill="none" stroke="#bfbfbf" points="912,-179.5 912,-198.5 976,-198.5 976,-179.5 912,-179.5"/>
<text text-anchor="middle" x="944" y="-186.5" font-family="Helvetica,sans-Serif" font-size="10.00">algorithm</text>
</a>
</g>
</g>
<!-- Node10&#45;&gt;Node13 -->
<g id="edge18" class="edge">
<title>Node10&#45;&gt;Node13</title>
<path fill="none" stroke="midnightblue" d="M712.49,-235.44C758.43,-227.07 830.26,-213.73 901.71,-199.22"/>
<polygon fill="midnightblue" stroke="midnightblue" points="902.69,-202.59 911.79,-197.16 901.29,-195.73 902.69,-202.59"/>
</g>
<!-- Node14 -->
<g id="node14" class="node">
<title>Node14</title>
<g id="a_node14"><a xlink:href="../../d5/dbb/limes__assert_8h.html" target="_top" xlink:title=" ">
<polygon fill="none" stroke="black" points="597,-179.5 597,-198.5 733,-198.5 733,-179.5 597,-179.5"/>
<text text-anchor="middle" x="665" y="-186.5" font-family="Helvetica,sans-Serif" font-size="10.00">../system/limes_assert.h</text>
</a>
</g>
</g>
<!-- Node10&#45;&gt;Node14 -->
<g id="edge19" class="edge">
<title>Node10&#45;&gt;Node14</title>
<path fill="none" stroke="midnightblue" d="M665,-235.08C665,-228.01 665,-217.86 665,-208.99"/>
<polygon fill="midnightblue" stroke="midnightblue" points="668.5,-208.75 665,-198.75 661.5,-208.75 668.5,-208.75"/>
</g>
<!-- Node14&#45;&gt;Node2 -->
<g id="edge20" class="edge">
<title>Node14&#45;&gt;Node2</title>
<path fill="none" stroke="midnightblue" d="M725.48,-179.47C747.32,-173.14 769.82,-162.14 783,-143 794.91,-125.71 786.42,-101.34 777.93,-84.9"/>
<polygon fill="midnightblue" stroke="midnightblue" points="780.78,-82.82 772.83,-75.82 774.68,-86.25 780.78,-82.82"/>
</g>
<!-- Node14&#45;&gt;Node3 -->
<g id="edge21" class="edge">
<title>Node14&#45;&gt;Node3</title>
<path fill="none" stroke="midnightblue" d="M596.77,-186.77C542.51,-183.36 466.02,-172.97 406,-143 388,-134.01 391.06,-120.89 373,-112 336.89,-94.23 232.23,-80.7 162.13,-73.31"/>
<polygon fill="midnightblue" stroke="midnightblue" points="162.36,-69.82 152.06,-72.27 161.64,-76.78 162.36,-69.82"/>
</g>
<!-- Node14&#45;&gt;Node4 -->
<g id="edge22" class="edge">
<title>Node14&#45;&gt;Node4</title>
<path fill="none" stroke="midnightblue" d="M596.59,-181.18C552.95,-175.06 495.97,-163.7 449,-143 427.44,-133.5 426.84,-122.99 406,-112 379.19,-97.87 346.97,-86.39 321.96,-78.56"/>
<polygon fill="midnightblue" stroke="midnightblue" points="322.65,-75.11 312.06,-75.54 320.6,-81.81 322.65,-75.11"/>
</g>
<!-- Node14&#45;&gt;Node5 -->
<g id="edge29" class="edge">
<title>Node14&#45;&gt;Node5</title>
<path fill="none" stroke="midnightblue" d="M727.48,-179.47C752.56,-173.15 779.98,-162.15 799,-143 827.11,-114.7 847.02,-86.23 821,-56 790.85,-20.97 660.7,-12.84 582.39,-11.18"/>
<polygon fill="midnightblue" stroke="midnightblue" points="582.24,-7.67 572.17,-10.99 582.11,-14.67 582.24,-7.67"/>
</g>
<!-- Node14&#45;&gt;Node6 -->
<g id="edge31" class="edge">
<title>Node14&#45;&gt;Node6</title>
<path fill="none" stroke="midnightblue" d="M604.37,-179.47C546.17,-171.06 455.86,-157.39 378,-143 376.55,-142.73 375.09,-142.46 373.62,-142.18"/>
<polygon fill="midnightblue" stroke="midnightblue" points="374.25,-138.74 363.77,-140.25 372.91,-145.6 374.25,-138.74"/>
</g>
<!-- Node14&#45;&gt;Node12 -->
<g id="edge23" class="edge">
<title>Node14&#45;&gt;Node12</title>
<path fill="none" stroke="midnightblue" d="M703.52,-179.47C741.82,-170.84 802.18,-156.82 854,-143 857.64,-142.03 861.43,-140.98 865.2,-139.91"/>
<polygon fill="midnightblue" stroke="midnightblue" points="866.46,-143.19 875.09,-137.04 864.51,-136.46 866.46,-143.19"/>
</g>
<!-- Node15 -->
<g id="node15" class="node">
<title>Node15</title>
<g id="a_node15"><a xlink:title=" ">
<polygon fill="none" stroke="#bfbfbf" points="642.5,-118 642.5,-137 687.5,-137 687.5,-118 642.5,-118"/>
<text text-anchor="middle" x="665" y="-125" font-family="Helvetica,sans-Serif" font-size="10.00">utility</text>
</a>
</g>
</g>
<!-- Node14&#45;&gt;Node15 -->
<g id="edge24" class="edge">
<title>Node14&#45;&gt;Node15</title>
<path fill="none" stroke="midnightblue" d="M665,-179.48C665,-171.08 665,-157.98 665,-147.16"/>
<polygon fill="midnightblue" stroke="midnightblue" points="668.5,-147.01 665,-137.01 661.5,-147.01 668.5,-147.01"/>
</g>
<!-- Node16 -->
<g id="node16" class="node">
<title>Node16</title>
<g id="a_node16"><a xlink:href="../../d1/d57/_ignore_unused_8h.html" target="_top" xlink:title=" ">
<polygon fill="none" stroke="black" points="458,-118 458,-137 586,-137 586,-118 458,-118"/>
<text text-anchor="middle" x="522" y="-125" font-family="Helvetica,sans-Serif" font-size="10.00">../misc/IgnoreUnused.h</text>
</a>
</g>
</g>
<!-- Node14&#45;&gt;Node16 -->
<g id="edge25" class="edge">
<title>Node14&#45;&gt;Node16</title>
<path fill="none" stroke="midnightblue" d="M644.51,-179.48C620.19,-169.36 579.45,-152.4 551.68,-140.85"/>
<polygon fill="midnightblue" stroke="midnightblue" points="553.03,-137.62 542.45,-137.01 550.34,-144.08 553.03,-137.62"/>
</g>
<!-- Node17 -->
<g id="node17" class="node">
<title>Node17</title>
<g id="a_node17"><a xlink:title=" ">
<polygon fill="none" stroke="#bfbfbf" points="706,-118 706,-137 774,-137 774,-118 706,-118"/>
<text text-anchor="middle" x="740" y="-125" font-family="Helvetica,sans-Serif" font-size="10.00">filesystem</text>
</a>
</g>
</g>
<!-- Node14&#45;&gt;Node17 -->
<g id="edge30" class="edge">
<title>Node14&#45;&gt;Node17</title>
<path fill="none" stroke="midnightblue" d="M675.75,-179.48C687.55,-170.11 706.74,-154.88 721.08,-143.51"/>
<polygon fill="midnightblue" stroke="midnightblue" points="723.62,-145.97 729.27,-137.01 719.26,-140.48 723.62,-145.97"/>
</g>
<!-- Node16&#45;&gt;Node2 -->
<g id="edge26" class="edge">
<title>Node16&#45;&gt;Node2</title>
<path fill="none" stroke="midnightblue" d="M557.1,-117.98C600.49,-107.44 674.41,-89.49 721.95,-77.94"/>
<polygon fill="midnightblue" stroke="midnightblue" points="723.07,-81.27 731.96,-75.51 721.42,-74.47 723.07,-81.27"/>
</g>
<!-- Node16&#45;&gt;Node3 -->
<g id="edge27" class="edge">
<title>Node16&#45;&gt;Node3</title>
<path fill="none" stroke="midnightblue" d="M460.82,-117.98C381.68,-106.95 244.28,-87.8 162.27,-76.37"/>
<polygon fill="midnightblue" stroke="midnightblue" points="162.7,-72.9 152.31,-74.99 161.73,-79.83 162.7,-72.9"/>
</g>
<!-- Node16&#45;&gt;Node5 -->
<g id="edge28" class="edge">
<title>Node16&#45;&gt;Node5</title>
<path fill="none" stroke="midnightblue" d="M522,-117.82C522,-99.26 522,-55.34 522,-29.97"/>
<polygon fill="midnightblue" stroke="midnightblue" points="525.5,-29.78 522,-19.78 518.5,-29.78 525.5,-29.78"/>
</g>
<!-- Node18&#45;&gt;Node2 -->
<g id="edge35" class="edge">
<title>Node18&#45;&gt;Node2</title>
<path fill="none" stroke="midnightblue" d="M228.16,-186.29C319.5,-182.18 529.36,-170.02 595,-143 615.48,-134.57 614.56,-122.59 634,-112 661.52,-97 694.95,-85.72 721.4,-78.2"/>
<polygon fill="midnightblue" stroke="midnightblue" points="722.47,-81.54 731.18,-75.51 720.6,-74.79 722.47,-81.54"/>
</g>
<!-- Node18&#45;&gt;Node3 -->
<g id="edge36" class="edge">
<title>Node18&#45;&gt;Node3</title>
<path fill="none" stroke="midnightblue" d="M178.53,-179.3C163.67,-159.33 126.92,-109.92 107.5,-83.8"/>
<polygon fill="midnightblue" stroke="midnightblue" points="110.19,-81.56 101.41,-75.62 104.57,-85.74 110.19,-81.56"/>
</g>
<!-- Node18&#45;&gt;Node4 -->
<g id="edge37" class="edge">
<title>Node18&#45;&gt;Node4</title>
<path fill="none" stroke="midnightblue" d="M186.55,-179.16C189.58,-164.03 197.47,-132.78 214,-112 224.49,-98.81 239.91,-88.09 253.31,-80.42"/>
<polygon fill="midnightblue" stroke="midnightblue" points="255.06,-83.45 262.18,-75.6 251.72,-77.3 255.06,-83.45"/>
</g>
<!-- Node18&#45;&gt;Node6 -->
<g id="edge38" class="edge">
<title>Node18&#45;&gt;Node6</title>
<path fill="none" stroke="midnightblue" d="M202.91,-179.48C220.71,-171 248.58,-157.74 271.42,-146.86"/>
<polygon fill="midnightblue" stroke="midnightblue" points="273.01,-149.98 280.54,-142.52 270.01,-143.66 273.01,-149.98"/>
</g>
</g>
</svg>
        <g id="navigator" transform="translate(0 0)" fill="#404254">
                <rect fill="#f2f5e9" fill-opacity="0.5" stroke="#606060" stroke-width=".5" x="0" y="0" width="60" height="60"/>
                <use id="zoomplus" xlink:href="#zoomPlus" x="17" y="9" onmousedown="handleZoom(evt,'in')"/>
                <use id="zoomminus" xlink:href="#zoomMin" x="42" y="9" onmousedown="handleZoom(evt,'out')"/>
                <use id="reset" xlink:href="#resetDef" x="30" y="36" onmousedown="handleReset()"/>
                <g id="arrowUp" xlink:href="#dirArrow" transform="translate(30 24)" onmousedown="handlePan(0,-1)">
                  <use xlink:href="#rim" fill="#404040">
                        <set attributeName="fill" to="#808080" begin="arrowUp.mouseover" end="arrowUp.mouseout"/>
                  </use>
                  <path fill="none" stroke="white" stroke-width="1.5" d="M0,-3.0v7 M-2.5,-0.5L0,-3.0L2.5,-0.5"/>
                </g>
                <g id="arrowRight" xlink:href="#dirArrow" transform="rotate(90) translate(36 -43)" onmousedown="handlePan(1,0)">
                  <use xlink:href="#rim" fill="#404040">
                        <set attributeName="fill" to="#808080" begin="arrowRight.mouseover" end="arrowRight.mouseout"/>
                  </use>
                  <path fill="none" stroke="white" stroke-width="1.5" d="M0,-3.0v7 M-2.5,-0.5L0,-3.0L2.5,-0.5"/>
                </g>
                <g id="arrowDown" xlink:href="#dirArrow" transform="rotate(180) translate(-30 -48)" onmousedown="handlePan(0,1)">
                  <use xlink:href="#rim" fill="#404040">
                        <set attributeName="fill" to="#808080" begin="arrowDown.mouseover" end="arrowDown.mouseout"/>
                  </use>
                  <path fill="none" stroke="white" stroke-width="1.5" d="M0,-3.0v7 M-2.5,-0.5L0,-3.0L2.5,-0.5"/>
                </g>
                <g id="arrowLeft" xlink:href="#dirArrow" transform="rotate(270) translate(-36 17)" onmousedown="handlePan(-1,0)">
                  <use xlink:href="#rim" fill="#404040">
                        <set attributeName="fill" to="#808080" begin="arrowLeft.mouseover" end="arrowLeft.mouseout"/>
                  </use>
                  <path fill="none" stroke="white" stroke-width="1.5" d="M0,-3.0v7 M-2.5,-0.5L0,-3.0L2.5,-0.5"/>
                </g>
        </g>
        <svg viewBox="0 0 15 15" width="100%" height="30px" preserveAspectRatio="xMaxYMin meet">
         <g id="arrow_out" transform="scale(0.3 0.3)">
          <a xlink:href="month_8h__incl_org.svg" target="_base">
           <rect id="button" ry="5" rx="5" y="6" x="6" height="38" width="38"
                fill="#f2f5e9" fill-opacity="0.5" stroke="#606060" stroke-width="1.0"/>
           <path id="arrow"
             d="M 11.500037,31.436501 C 11.940474,20.09759 22.043105,11.32322 32.158766,21.979434 L 37.068811,17.246167 C 37.068811,17.246167 37.088388,32 37.088388,32 L 22.160133,31.978069 C 22.160133,31.978069 26.997745,27.140456 26.997745,27.140456 C 18.528582,18.264221 13.291696,25.230495 11.500037,31.436501 z"
             style="fill:#404040;"/>
          </a>
         </g>
        </svg>
</svg>
