<?xml version="1.0" encoding="UTF-8" standalone="no"?>
<!DOCTYPE svg PUBLIC "-//W3C//DTD SVG 1.1//EN"
 "http://www.w3.org/Graphics/SVG/1.1/DTD/svg11.dtd">
<!-- Generated by graphviz version 2.43.0 (0)
 -->
<!-- Title: month.h Pages: 1 -->
<svg width="890pt" height="319pt"
 viewBox="0.00 0.00 890.37 319.00" xmlns="http://www.w3.org/2000/svg" xmlns:xlink="http://www.w3.org/1999/xlink">
<g id="graph0" class="graph" transform="scale(1 1) rotate(0) translate(4 315)">
<title>month.h</title>
<!-- Node1 -->
<g id="node1" class="node">
<title>Node1</title>
<g id="a_node1"><a xlink:title=" ">
<polygon fill="#bfbfbf" stroke="black" points="487.87,-291.5 487.87,-310.5 544.87,-310.5 544.87,-291.5 487.87,-291.5"/>
<text text-anchor="middle" x="516.37" y="-298.5" font-family="Helvetica,sans-Serif" font-size="10.00">month.h</text>
</a>
</g>
</g>
<!-- Node2 -->
<g id="node2" class="node">
<title>Node2</title>
<g id="a_node2"><a xlink:title=" ">
<polygon fill="none" stroke="#bfbfbf" points="216.87,-118 216.87,-137 305.87,-137 305.87,-118 216.87,-118"/>
<text text-anchor="middle" x="261.37" y="-125" font-family="Helvetica,sans-Serif" font-size="10.00">limes_export.h</text>
</a>
</g>
</g>
<!-- Node1&#45;&gt;Node2 -->
<g id="edge1" class="edge">
<title>Node1&#45;&gt;Node2</title>
<path fill="none" stroke="midnightblue" d="M491.25,-291.43C451.22,-276.92 371.81,-244.57 316.37,-199 297.89,-183.82 281.74,-161.38 271.8,-145.92"/>
<polygon fill="midnightblue" stroke="midnightblue" points="274.7,-143.96 266.45,-137.32 268.76,-147.66 274.7,-143.96"/>
</g>
<!-- Node3 -->
<g id="node3" class="node">
<title>Node3</title>
<g id="a_node3"><a xlink:href="../../da/d0b/limes__namespace_8h.html" target="_top" xlink:title=" ">
<polygon fill="none" stroke="black" points="494.37,-56.5 494.37,-75.5 608.37,-75.5 608.37,-56.5 494.37,-56.5"/>
<text text-anchor="middle" x="551.37" y="-63.5" font-family="Helvetica,sans-Serif" font-size="10.00">limes_namespace.h</text>
</a>
</g>
</g>
<!-- Node1&#45;&gt;Node3 -->
<g id="edge2" class="edge">
<title>Node1&#45;&gt;Node3</title>
<path fill="none" stroke="midnightblue" d="M532.72,-291.43C546.72,-283.46 566.73,-270.5 580.37,-255 617.52,-212.75 625.86,-197.62 639.37,-143 642.67,-129.63 646.56,-123.75 639.37,-112 629.86,-96.46 613.1,-86.07 596.75,-79.23"/>
<polygon fill="midnightblue" stroke="midnightblue" points="597.81,-75.89 587.22,-75.6 595.32,-82.43 597.81,-75.89"/>
</g>
<!-- Node4 -->
<g id="node4" class="node">
<title>Node4</title>
<g id="a_node4"><a xlink:href="../../d3/d53/preprocessor_8h.html" target="_top" xlink:title=" ">
<polygon fill="none" stroke="black" points="92.87,-56.5 92.87,-75.5 215.87,-75.5 215.87,-56.5 92.87,-56.5"/>
<text text-anchor="middle" x="154.37" y="-63.5" font-family="Helvetica,sans-Serif" font-size="10.00">../misc/preprocessor.h</text>
</a>
</g>
</g>
<!-- Node1&#45;&gt;Node4 -->
<g id="edge3" class="edge">
<title>Node1&#45;&gt;Node4</title>
<path fill="none" stroke="midnightblue" d="M487.55,-299.21C432.08,-296.95 307.22,-288.27 208.37,-255 110.7,-222.13 57.75,-231.73 5.37,-143 -16.04,-106.74 34.61,-87.17 82.56,-77.02"/>
<polygon fill="midnightblue" stroke="midnightblue" points="83.28,-80.45 92.4,-75.06 81.91,-73.58 83.28,-80.45"/>
</g>
<!-- Node6 -->
<g id="node6" class="node">
<title>Node6</title>
<g id="a_node6"><a xlink:href="../../d0/d00/compiler__defs_8h.html" target="_top" xlink:title=" ">
<polygon fill="none" stroke="black" points="14.87,-112.5 14.87,-142.5 121.87,-142.5 121.87,-112.5 14.87,-112.5"/>
<text text-anchor="start" x="22.87" y="-130.5" font-family="Helvetica,sans-Serif" font-size="10.00">../system/compiler</text>
<text text-anchor="middle" x="68.37" y="-119.5" font-family="Helvetica,sans-Serif" font-size="10.00">_defs.h</text>
</a>
</g>
</g>
<!-- Node1&#45;&gt;Node6 -->
<g id="edge5" class="edge">
<title>Node1&#45;&gt;Node6</title>
<path fill="none" stroke="midnightblue" d="M487.66,-297.65C421.44,-291.15 254.64,-268.55 136.37,-199 115.59,-186.78 96.97,-166.48 84.49,-150.79"/>
<polygon fill="midnightblue" stroke="midnightblue" points="87.09,-148.42 78.22,-142.63 81.54,-152.69 87.09,-148.42"/>
</g>
<!-- Node7 -->
<g id="node7" class="node">
<title>Node7</title>
<g id="a_node7"><a xlink:title=" ">
<polygon fill="none" stroke="#bfbfbf" points="746.87,-235.5 746.87,-254.5 819.87,-254.5 819.87,-235.5 746.87,-235.5"/>
<text text-anchor="middle" x="783.37" y="-242.5" font-family="Helvetica,sans-Serif" font-size="10.00">string_view</text>
</a>
</g>
</g>
<!-- Node1&#45;&gt;Node7 -->
<g id="edge8" class="edge">
<title>Node1&#45;&gt;Node7</title>
<path fill="none" stroke="midnightblue" d="M544.94,-294.22C590.79,-284.95 681.23,-266.66 736.59,-255.46"/>
<polygon fill="midnightblue" stroke="midnightblue" points="737.4,-258.87 746.5,-253.46 736.01,-252.01 737.4,-258.87"/>
</g>
<!-- Node8 -->
<g id="node8" class="node">
<title>Node8</title>
<g id="a_node8"><a xlink:title=" ">
<polygon fill="none" stroke="#bfbfbf" points="838.37,-235.5 838.37,-254.5 882.37,-254.5 882.37,-235.5 838.37,-235.5"/>
<text text-anchor="middle" x="860.37" y="-242.5" font-family="Helvetica,sans-Serif" font-size="10.00">ctime</text>
</a>
</g>
</g>
<!-- Node1&#45;&gt;Node8 -->
<g id="edge9" class="edge">
<title>Node1&#45;&gt;Node8</title>
<path fill="none" stroke="midnightblue" d="M545.09,-297.23C598.87,-291.75 718.52,-278.19 828.21,-254.99"/>
<polygon fill="midnightblue" stroke="midnightblue" points="829.07,-258.39 838.11,-252.87 827.6,-251.54 829.07,-258.39"/>
</g>
<!-- Node9 -->
<g id="node9" class="node">
<title>Node9</title>
<g id="a_node9"><a xlink:href="../../da/d19/month__impl_8h.html" target="_top" xlink:title=" ">
<polygon fill="none" stroke="black" points="461.87,-235.5 461.87,-254.5 570.87,-254.5 570.87,-235.5 461.87,-235.5"/>
<text text-anchor="middle" x="516.37" y="-242.5" font-family="Helvetica,sans-Serif" font-size="10.00">impl/month_impl.h</text>
</a>
</g>
</g>
<!-- Node1&#45;&gt;Node9 -->
<g id="edge10" class="edge">
<title>Node1&#45;&gt;Node9</title>
<path fill="none" stroke="midnightblue" d="M516.37,-291.08C516.37,-284.01 516.37,-273.86 516.37,-264.99"/>
<polygon fill="midnightblue" stroke="midnightblue" points="519.87,-264.75 516.37,-254.75 512.87,-264.75 519.87,-264.75"/>
</g>
<!-- Node5 -->
<g id="node5" class="node">
<title>Node5</title>
<g id="a_node5"><a xlink:title=" ">
<polygon fill="none" stroke="#bfbfbf" points="104.37,-0.5 104.37,-19.5 204.37,-19.5 204.37,-0.5 104.37,-0.5"/>
<text text-anchor="middle" x="154.37" y="-7.5" font-family="Helvetica,sans-Serif" font-size="10.00">limes_platform.h</text>
</a>
</g>
</g>
<!-- Node4&#45;&gt;Node5 -->
<g id="edge4" class="edge">
<title>Node4&#45;&gt;Node5</title>
<path fill="none" stroke="midnightblue" d="M154.37,-56.08C154.37,-49.01 154.37,-38.86 154.37,-29.99"/>
<polygon fill="midnightblue" stroke="midnightblue" points="157.87,-29.75 154.37,-19.75 150.87,-29.75 157.87,-29.75"/>
</g>
<!-- Node6&#45;&gt;Node4 -->
<g id="edge7" class="edge">
<title>Node6&#45;&gt;Node4</title>
<path fill="none" stroke="midnightblue" d="M88.75,-112.4C102.27,-103.04 119.98,-90.79 133.59,-81.38"/>
<polygon fill="midnightblue" stroke="midnightblue" points="135.62,-84.23 141.85,-75.66 131.64,-78.47 135.62,-84.23"/>
</g>
<!-- Node6&#45;&gt;Node5 -->
<g id="edge6" class="edge">
<title>Node6&#45;&gt;Node5</title>
<path fill="none" stroke="midnightblue" d="M68.25,-112.26C68.79,-97.04 71.65,-72.85 83.37,-56 93.14,-41.95 108.87,-31.32 123.04,-23.94"/>
<polygon fill="midnightblue" stroke="midnightblue" points="124.59,-27.08 132.04,-19.55 121.52,-20.78 124.59,-27.08"/>
</g>
<!-- Node9&#45;&gt;Node3 -->
<g id="edge11" class="edge">
<title>Node9&#45;&gt;Node3</title>
<path fill="none" stroke="midnightblue" d="M531.77,-235.26C556.59,-220.18 604.55,-186.63 623.37,-143 628.82,-130.35 630.05,-124.05 623.37,-112 615.28,-97.41 600.26,-86.92 586.03,-79.76"/>
<polygon fill="midnightblue" stroke="midnightblue" points="587.42,-76.55 576.87,-75.53 584.48,-82.9 587.42,-76.55"/>
</g>
<!-- Node9&#45;&gt;Node5 -->
<g id="edge12" class="edge">
<title>Node9&#45;&gt;Node5</title>
<path fill="none" stroke="midnightblue" d="M541.31,-235.44C560.24,-228.02 586.03,-215.82 604.37,-199 651.39,-155.85 668.3,-94.45 617.37,-56 585.89,-32.23 332.84,-18.54 214.71,-13.38"/>
<polygon fill="midnightblue" stroke="midnightblue" points="214.53,-9.87 204.39,-12.93 214.23,-16.86 214.53,-9.87"/>
</g>
<!-- Node10 -->
<g id="node10" class="node">
<title>Node10</title>
<g id="a_node10"><a xlink:href="../../dc/d5c/math_functions_8h.html" target="_top" xlink:title=" ">
<polygon fill="none" stroke="black" points="325.37,-179.5 325.37,-198.5 469.37,-198.5 469.37,-179.5 325.37,-179.5"/>
<text text-anchor="middle" x="397.37" y="-186.5" font-family="Helvetica,sans-Serif" font-size="10.00">../../math/mathFunctions.h</text>
</a>
</g>
</g>
<!-- Node9&#45;&gt;Node10 -->
<g id="edge13" class="edge">
<title>Node9&#45;&gt;Node10</title>
<path fill="none" stroke="midnightblue" d="M497.51,-235.44C478.1,-226.64 447.64,-212.81 425.4,-202.72"/>
<polygon fill="midnightblue" stroke="midnightblue" points="426.69,-199.46 416.13,-198.52 423.79,-205.84 426.69,-199.46"/>
</g>
<!-- Node19 -->
<g id="node13" class="node">
<title>Node19</title>
<g id="a_node13"><a xlink:href="../../dc/db3/build__date_8h.html" target="_top" xlink:title=" ">
<polygon fill="none" stroke="black" points="145.37,-179.5 145.37,-198.5 231.37,-198.5 231.37,-179.5 145.37,-179.5"/>
<text text-anchor="middle" x="188.37" y="-186.5" font-family="Helvetica,sans-Serif" font-size="10.00">../build_date.h</text>
</a>
</g>
</g>
<!-- Node9&#45;&gt;Node19 -->
<g id="edge21" class="edge">
<title>Node9&#45;&gt;Node19</title>
<path fill="none" stroke="midnightblue" d="M464.39,-235.44C403.39,-225.4 302.78,-208.84 241.35,-198.72"/>
<polygon fill="midnightblue" stroke="midnightblue" points="241.9,-195.27 231.46,-197.1 240.76,-202.17 241.9,-195.27"/>
</g>
<!-- Node10&#45;&gt;Node2 -->
<g id="edge16" class="edge">
<title>Node10&#45;&gt;Node2</title>
<path fill="none" stroke="midnightblue" d="M377.88,-179.48C354.96,-169.45 316.68,-152.7 290.29,-141.15"/>
<polygon fill="midnightblue" stroke="midnightblue" points="291.38,-137.81 280.82,-137.01 288.57,-144.22 291.38,-137.81"/>
</g>
<!-- Node10&#45;&gt;Node3 -->
<g id="edge14" class="edge">
<title>Node10&#45;&gt;Node3</title>
<path fill="none" stroke="midnightblue" d="M405.65,-179.49C420.11,-164.85 451.2,-134.32 480.37,-112 495.39,-100.51 513.4,-89.12 527.52,-80.67"/>
<polygon fill="midnightblue" stroke="midnightblue" points="529.33,-83.67 536.17,-75.57 525.78,-77.64 529.33,-83.67"/>
</g>
<!-- Node10&#45;&gt;Node4 -->
<g id="edge18" class="edge">
<title>Node10&#45;&gt;Node4</title>
<path fill="none" stroke="midnightblue" d="M388.85,-179.24C371.27,-161.32 331.18,-121.36 314.37,-112 284.69,-95.49 248.48,-84.65 218.02,-77.75"/>
<polygon fill="midnightblue" stroke="midnightblue" points="218.44,-74.26 207.93,-75.56 216.96,-81.1 218.44,-74.26"/>
</g>
<!-- Node10&#45;&gt;Node6 -->
<g id="edge17" class="edge">
<title>Node10&#45;&gt;Node6</title>
<path fill="none" stroke="midnightblue" d="M350.23,-179.48C292.89,-169.1 195.84,-151.55 131.93,-140"/>
<polygon fill="midnightblue" stroke="midnightblue" points="132.43,-136.53 121.97,-138.19 131.19,-143.42 132.43,-136.53"/>
</g>
<!-- Node11 -->
<g id="node11" class="node">
<title>Node11</title>
<g id="a_node11"><a xlink:title=" ">
<polygon fill="none" stroke="#bfbfbf" points="362.87,-118 362.87,-137 431.87,-137 431.87,-118 362.87,-118"/>
<text text-anchor="middle" x="397.37" y="-125" font-family="Helvetica,sans-Serif" font-size="10.00">type_traits</text>
</a>
</g>
</g>
<!-- Node10&#45;&gt;Node11 -->
<g id="edge15" class="edge">
<title>Node10&#45;&gt;Node11</title>
<path fill="none" stroke="midnightblue" d="M397.37,-179.48C397.37,-171.08 397.37,-157.98 397.37,-147.16"/>
<polygon fill="midnightblue" stroke="midnightblue" points="400.87,-147.01 397.37,-137.01 393.87,-147.01 400.87,-147.01"/>
</g>
<!-- Node12 -->
<g id="node12" class="node">
<title>Node12</title>
<g id="a_node12"><a xlink:href="../../dc/d9b/math_functions__impl_8h.html" target="_top" xlink:title=" ">
<polygon fill="none" stroke="red" points="488.87,-118 488.87,-137 613.87,-137 613.87,-118 488.87,-118"/>
<text text-anchor="middle" x="551.37" y="-125" font-family="Helvetica,sans-Serif" font-size="10.00">mathFunctions_impl.h</text>
</a>
</g>
</g>
<!-- Node10&#45;&gt;Node12 -->
<g id="edge19" class="edge">
<title>Node10&#45;&gt;Node12</title>
<path fill="none" stroke="midnightblue" d="M419.43,-179.48C445.73,-169.31 489.88,-152.26 519.79,-140.7"/>
<polygon fill="midnightblue" stroke="midnightblue" points="521.28,-143.88 529.34,-137.01 518.75,-137.35 521.28,-143.88"/>
</g>
<!-- Node12&#45;&gt;Node3 -->
<g id="edge20" class="edge">
<title>Node12&#45;&gt;Node3</title>
<path fill="none" stroke="midnightblue" d="M551.37,-117.98C551.37,-109.58 551.37,-96.48 551.37,-85.66"/>
<polygon fill="midnightblue" stroke="midnightblue" points="554.87,-85.51 551.37,-75.51 547.87,-85.51 554.87,-85.51"/>
</g>
<!-- Node19&#45;&gt;Node2 -->
<g id="edge22" class="edge">
<title>Node19&#45;&gt;Node2</title>
<path fill="none" stroke="midnightblue" d="M198.83,-179.48C210.32,-170.11 229,-154.88 242.95,-143.51"/>
<polygon fill="midnightblue" stroke="midnightblue" points="245.39,-146.04 250.93,-137.01 240.96,-140.61 245.39,-146.04"/>
</g>
<!-- Node19&#45;&gt;Node3 -->
<g id="edge23" class="edge">
<title>Node19&#45;&gt;Node3</title>
<path fill="none" stroke="midnightblue" d="M187.68,-179.38C186.93,-163.44 187.87,-129.37 207.37,-112 247.05,-76.63 395.55,-68.64 483.94,-67.09"/>
<polygon fill="midnightblue" stroke="midnightblue" points="484.2,-70.59 494.15,-66.94 484.1,-63.59 484.2,-70.59"/>
</g>
<!-- Node19&#45;&gt;Node4 -->
<g id="edge24" class="edge">
<title>Node19&#45;&gt;Node4</title>
<path fill="none" stroke="midnightblue" d="M185.57,-179.41C182.66,-170.38 178.02,-155.74 174.37,-143 168.79,-123.58 162.98,-101.2 159.06,-85.78"/>
<polygon fill="midnightblue" stroke="midnightblue" points="162.42,-84.77 156.58,-75.93 155.63,-86.48 162.42,-84.77"/>
</g>
<!-- Node19&#45;&gt;Node6 -->
<g id="edge25" class="edge">
<title>Node19&#45;&gt;Node6</title>
<path fill="none" stroke="midnightblue" d="M171.17,-179.48C154.16,-171.04 127.57,-157.86 105.69,-147.01"/>
<polygon fill="midnightblue" stroke="midnightblue" points="107.16,-143.83 96.65,-142.52 104.05,-150.1 107.16,-143.83"/>
</g>
</g>
</svg>
