<?xml version="1.0" encoding="UTF-8" standalone="no"?>
<!DOCTYPE svg PUBLIC "-//W3C//DTD SVG 1.1//EN"
 "http://www.w3.org/Graphics/SVG/1.1/DTD/svg11.dtd">
<!-- Generated by graphviz version 2.43.0 (0)
 -->
<!-- Title: build_date.h Pages: 1 -->
<svg width="477pt" height="308pt"
 viewBox="0.00 0.00 476.81 308.00" xmlns="http://www.w3.org/2000/svg" xmlns:xlink="http://www.w3.org/1999/xlink">
<g id="graph0" class="graph" transform="scale(1 1) rotate(0) translate(4 304)">
<title>build_date.h</title>
<!-- Node1 -->
<g id="node1" class="node">
<title>Node1</title>
<g id="a_node1"><a xlink:title=" ">
<polygon fill="#bfbfbf" stroke="black" points="213.31,-280.5 213.31,-299.5 290.31,-299.5 290.31,-280.5 213.31,-280.5"/>
<text text-anchor="middle" x="251.81" y="-287.5" font-family="Helvetica,sans-Serif" font-size="10.00">build_date.h</text>
</a>
</g>
</g>
<!-- Node2 -->
<g id="node2" class="node">
<title>Node2</title>
<g id="a_node2"><a xlink:href="../../d5/dab/hour__impl_8h.html" target="_top" xlink:title=" ">
<polygon fill="none" stroke="black" points="28.81,-224.5 28.81,-243.5 102.81,-243.5 102.81,-224.5 28.81,-224.5"/>
<text text-anchor="middle" x="65.81" y="-231.5" font-family="Helvetica,sans-Serif" font-size="10.00">hour_impl.h</text>
</a>
</g>
</g>
<!-- Node1&#45;&gt;Node2 -->
<g id="edge1" class="edge">
<title>Node1&#45;&gt;Node2</title>
<path fill="none" stroke="midnightblue" d="M212.43,-277.57C177.35,-267.38 126.79,-252.7 95.15,-243.52"/>
<polygon fill="midnightblue" stroke="midnightblue" points="211.76,-281.02 222.34,-280.44 213.71,-274.29 211.76,-281.02"/>
</g>
<!-- Node10 -->
<g id="node5" class="node">
<title>Node10</title>
<g id="a_node5"><a xlink:href="../../d9/df8/limes__core_8h.html" target="_top" xlink:title=" ">
<polygon fill="none" stroke="red" points="129.31,-0.5 129.31,-19.5 208.31,-19.5 208.31,-0.5 129.31,-0.5"/>
<text text-anchor="middle" x="168.81" y="-7.5" font-family="Helvetica,sans-Serif" font-size="10.00">limes_core.h</text>
</a>
</g>
</g>
<!-- Node1&#45;&gt;Node10 -->
<g id="edge25" class="edge">
<title>Node1&#45;&gt;Node10</title>
<path fill="none" stroke="midnightblue" d="M203.22,-285.46C143.29,-280.12 46.11,-267.97 19.81,-244 -2.43,-223.73 0.81,-209.1 0.81,-179 0.81,-179 0.81,-179 0.81,-121 0.81,-59.99 79.32,-30.99 129,-18.74"/>
<polygon fill="midnightblue" stroke="midnightblue" points="202.96,-288.95 213.22,-286.32 203.56,-281.97 202.96,-288.95"/>
</g>
<!-- Node77 -->
<g id="node6" class="node">
<title>Node77</title>
<g id="a_node6"><a xlink:href="../../d3/d09/time__impl_8h.html" target="_top" xlink:title=" ">
<polygon fill="none" stroke="black" points="121.31,-224.5 121.31,-243.5 196.31,-243.5 196.31,-224.5 121.31,-224.5"/>
<text text-anchor="middle" x="158.81" y="-231.5" font-family="Helvetica,sans-Serif" font-size="10.00">time_impl.h</text>
</a>
</g>
</g>
<!-- Node1&#45;&gt;Node77 -->
<g id="edge6" class="edge">
<title>Node1&#45;&gt;Node77</title>
<path fill="none" stroke="midnightblue" d="M228.01,-275.18C210.89,-265.24 188.35,-252.15 173.72,-243.65"/>
<polygon fill="midnightblue" stroke="midnightblue" points="226.46,-278.33 236.87,-280.32 229.98,-272.28 226.46,-278.33"/>
</g>
<!-- Node78 -->
<g id="node7" class="node">
<title>Node78</title>
<g id="a_node7"><a xlink:href="../../d2/d38/year__impl_8h.html" target="_top" xlink:title=" ">
<polygon fill="none" stroke="black" points="214.81,-224.5 214.81,-243.5 288.81,-243.5 288.81,-224.5 214.81,-224.5"/>
<text text-anchor="middle" x="251.81" y="-231.5" font-family="Helvetica,sans-Serif" font-size="10.00">year_impl.h</text>
</a>
</g>
</g>
<!-- Node1&#45;&gt;Node78 -->
<g id="edge8" class="edge">
<title>Node1&#45;&gt;Node78</title>
<path fill="none" stroke="midnightblue" d="M251.81,-269.8C251.81,-260.91 251.81,-250.78 251.81,-243.75"/>
<polygon fill="midnightblue" stroke="midnightblue" points="248.31,-270.08 251.81,-280.08 255.31,-270.08 248.31,-270.08"/>
</g>
<!-- Node82 -->
<g id="node11" class="node">
<title>Node82</title>
<g id="a_node11"><a xlink:href="../../da/d19/month__impl_8h.html" target="_top" xlink:title=" ">
<polygon fill="none" stroke="black" points="384.81,-224.5 384.81,-243.5 468.81,-243.5 468.81,-224.5 384.81,-224.5"/>
<text text-anchor="middle" x="426.81" y="-231.5" font-family="Helvetica,sans-Serif" font-size="10.00">month_impl.h</text>
</a>
</g>
</g>
<!-- Node1&#45;&gt;Node82 -->
<g id="edge16" class="edge">
<title>Node1&#45;&gt;Node82</title>
<path fill="none" stroke="midnightblue" d="M289.29,-277.44C322.28,-267.26 369.57,-252.66 399.21,-243.52"/>
<polygon fill="midnightblue" stroke="midnightblue" points="288.06,-274.15 279.54,-280.44 290.13,-280.84 288.06,-274.15"/>
</g>
<!-- Node84 -->
<g id="node13" class="node">
<title>Node84</title>
<g id="a_node13"><a xlink:href="../../d4/d9a/weekday__impl_8h.html" target="_top" xlink:title=" ">
<polygon fill="none" stroke="black" points="231.31,-168.5 231.31,-187.5 328.31,-187.5 328.31,-168.5 231.31,-168.5"/>
<text text-anchor="middle" x="279.81" y="-175.5" font-family="Helvetica,sans-Serif" font-size="10.00">weekday_impl.h</text>
</a>
</g>
</g>
<!-- Node1&#45;&gt;Node84 -->
<g id="edge21" class="edge">
<title>Node1&#45;&gt;Node84</title>
<path fill="none" stroke="midnightblue" d="M273.52,-274.07C282.87,-266.31 292.79,-255.95 297.81,-244 305.98,-224.57 293.77,-200.33 285.79,-187.65"/>
<polygon fill="midnightblue" stroke="midnightblue" points="271.37,-271.31 265.6,-280.19 275.65,-276.85 271.37,-271.31"/>
</g>
<!-- Node85 -->
<g id="node14" class="node">
<title>Node85</title>
<g id="a_node14"><a xlink:href="../../d1/d95/date__impl_8h.html" target="_top" xlink:title=" ">
<polygon fill="none" stroke="black" points="320.81,-112.5 320.81,-131.5 394.81,-131.5 394.81,-112.5 320.81,-112.5"/>
<text text-anchor="middle" x="357.81" y="-119.5" font-family="Helvetica,sans-Serif" font-size="10.00">date_impl.h</text>
</a>
</g>
</g>
<!-- Node1&#45;&gt;Node85 -->
<g id="edge23" class="edge">
<title>Node1&#45;&gt;Node85</title>
<path fill="none" stroke="midnightblue" d="M276.45,-275.03C288.63,-267.16 302.82,-256.42 312.81,-244 341.47,-208.38 353.03,-152.69 356.54,-131.54"/>
<polygon fill="midnightblue" stroke="midnightblue" points="274.3,-272.24 267.63,-280.47 277.97,-278.2 274.3,-272.24"/>
</g>
<!-- Node3 -->
<g id="node3" class="node">
<title>Node3</title>
<g id="a_node3"><a xlink:href="../../d4/d37/hour_8h.html" target="_top" xlink:title=" ">
<polygon fill="none" stroke="black" points="42.31,-168.5 42.31,-187.5 89.31,-187.5 89.31,-168.5 42.31,-168.5"/>
<text text-anchor="middle" x="65.81" y="-175.5" font-family="Helvetica,sans-Serif" font-size="10.00">hour.h</text>
</a>
</g>
</g>
<!-- Node2&#45;&gt;Node3 -->
<g id="edge2" class="edge">
<title>Node2&#45;&gt;Node3</title>
<path fill="none" stroke="midnightblue" d="M65.81,-213.8C65.81,-204.91 65.81,-194.78 65.81,-187.75"/>
<polygon fill="midnightblue" stroke="midnightblue" points="62.31,-214.08 65.81,-224.08 69.31,-214.08 62.31,-214.08"/>
</g>
<!-- Node4 -->
<g id="node4" class="node">
<title>Node4</title>
<g id="a_node4"><a xlink:href="../../de/df7/time_8h.html" target="_top" xlink:title=" ">
<polygon fill="none" stroke="red" points="92.81,-112.5 92.81,-131.5 140.81,-131.5 140.81,-112.5 92.81,-112.5"/>
<text text-anchor="middle" x="116.81" y="-119.5" font-family="Helvetica,sans-Serif" font-size="10.00">time.h</text>
</a>
</g>
</g>
<!-- Node3&#45;&gt;Node4 -->
<g id="edge3" class="edge">
<title>Node3&#45;&gt;Node4</title>
<path fill="none" stroke="midnightblue" d="M81.19,-160.72C90.18,-151.2 101.17,-139.56 108.55,-131.75"/>
<polygon fill="midnightblue" stroke="midnightblue" points="78.55,-158.41 74.23,-168.08 83.64,-163.22 78.55,-158.41"/>
</g>
<!-- Node3&#45;&gt;Node10 -->
<g id="edge5" class="edge">
<title>Node3&#45;&gt;Node10</title>
<path fill="none" stroke="midnightblue" d="M68.81,-158.17C71.46,-144.75 76.14,-126.57 83.81,-112 104.21,-73.27 141.49,-36.11 159.1,-19.74"/>
<polygon fill="midnightblue" stroke="midnightblue" points="65.34,-157.69 67.03,-168.15 72.23,-158.91 65.34,-157.69"/>
</g>
<!-- Node4&#45;&gt;Node10 -->
<g id="edge4" class="edge">
<title>Node4&#45;&gt;Node10</title>
<path fill="none" stroke="midnightblue" d="M125.17,-103.32C136.49,-79.37 156.26,-37.55 164.75,-19.59"/>
<polygon fill="midnightblue" stroke="midnightblue" points="122,-101.83 120.89,-112.37 128.33,-104.82 122,-101.83"/>
</g>
<!-- Node77&#45;&gt;Node4 -->
<g id="edge7" class="edge">
<title>Node77&#45;&gt;Node4</title>
<path fill="none" stroke="midnightblue" d="M151.94,-215C142.77,-191 126.92,-149.47 120.09,-131.59"/>
<polygon fill="midnightblue" stroke="midnightblue" points="148.68,-216.27 155.52,-224.37 155.22,-213.78 148.68,-216.27"/>
</g>
<!-- Node79 -->
<g id="node8" class="node">
<title>Node79</title>
<g id="a_node8"><a xlink:href="../../d5/d98/year_8h.html" target="_top" xlink:title=" ">
<polygon fill="none" stroke="black" points="166.31,-168.5 166.31,-187.5 213.31,-187.5 213.31,-168.5 166.31,-168.5"/>
<text text-anchor="middle" x="189.81" y="-175.5" font-family="Helvetica,sans-Serif" font-size="10.00">year.h</text>
</a>
</g>
</g>
<!-- Node78&#45;&gt;Node79 -->
<g id="edge9" class="edge">
<title>Node78&#45;&gt;Node79</title>
<path fill="none" stroke="midnightblue" d="M234.06,-217.54C223,-207.91 209.18,-195.87 199.95,-187.83"/>
<polygon fill="midnightblue" stroke="midnightblue" points="232.01,-220.4 241.85,-224.32 236.61,-215.12 232.01,-220.4"/>
</g>
<!-- Node79&#45;&gt;Node10 -->
<g id="edge15" class="edge">
<title>Node79&#45;&gt;Node10</title>
<path fill="none" stroke="midnightblue" d="M187.4,-157.93C182.84,-121.92 173.14,-45.23 169.9,-19.57"/>
<polygon fill="midnightblue" stroke="midnightblue" points="183.96,-158.59 188.68,-168.08 190.9,-157.71 183.96,-158.59"/>
</g>
<!-- Node80 -->
<g id="node9" class="node">
<title>Node80</title>
<g id="a_node9"><a xlink:href="../../d0/ddc/weekday_8h.html" target="_top" xlink:title=" ">
<polygon fill="none" stroke="black" points="234.81,-112.5 234.81,-131.5 302.81,-131.5 302.81,-112.5 234.81,-112.5"/>
<text text-anchor="middle" x="268.81" y="-119.5" font-family="Helvetica,sans-Serif" font-size="10.00">weekday.h</text>
</a>
</g>
</g>
<!-- Node79&#45;&gt;Node80 -->
<g id="edge10" class="edge">
<title>Node79&#45;&gt;Node80</title>
<path fill="none" stroke="midnightblue" d="M210.85,-162.62C225.28,-152.76 243.95,-139.99 256.15,-131.65"/>
<polygon fill="midnightblue" stroke="midnightblue" points="208.78,-159.79 202.5,-168.32 212.74,-165.57 208.78,-159.79"/>
</g>
<!-- Node81 -->
<g id="node10" class="node">
<title>Node81</title>
<g id="a_node10"><a xlink:href="../../db/d96/date_8h.html" target="_top" xlink:title=" ">
<polygon fill="none" stroke="red" points="245.31,-56.5 245.31,-75.5 292.31,-75.5 292.31,-56.5 245.31,-56.5"/>
<text text-anchor="middle" x="268.81" y="-63.5" font-family="Helvetica,sans-Serif" font-size="10.00">date.h</text>
</a>
</g>
</g>
<!-- Node79&#45;&gt;Node81 -->
<g id="edge14" class="edge">
<title>Node79&#45;&gt;Node81</title>
<path fill="none" stroke="midnightblue" d="M198.21,-159C204.87,-145.51 214.85,-126.9 225.81,-112 235.93,-98.25 249.94,-84.33 259.18,-75.69"/>
<polygon fill="midnightblue" stroke="midnightblue" points="194.98,-157.63 193.81,-168.16 201.29,-160.66 194.98,-157.63"/>
</g>
<!-- Node80&#45;&gt;Node10 -->
<g id="edge13" class="edge">
<title>Node80&#45;&gt;Node10</title>
<path fill="none" stroke="midnightblue" d="M254.17,-104.9C232.67,-81.25 193.31,-37.95 176.62,-19.59"/>
<polygon fill="midnightblue" stroke="midnightblue" points="251.65,-107.32 260.96,-112.37 256.83,-102.61 251.65,-107.32"/>
</g>
<!-- Node80&#45;&gt;Node81 -->
<g id="edge11" class="edge">
<title>Node80&#45;&gt;Node81</title>
<path fill="none" stroke="midnightblue" d="M268.81,-101.8C268.81,-92.91 268.81,-82.78 268.81,-75.75"/>
<polygon fill="midnightblue" stroke="midnightblue" points="265.31,-102.08 268.81,-112.08 272.31,-102.08 265.31,-102.08"/>
</g>
<!-- Node81&#45;&gt;Node10 -->
<g id="edge12" class="edge">
<title>Node81&#45;&gt;Node10</title>
<path fill="none" stroke="midnightblue" d="M243.72,-51.45C225.26,-41.48 200.72,-28.23 184.84,-19.65"/>
<polygon fill="midnightblue" stroke="midnightblue" points="242.28,-54.65 252.74,-56.32 245.61,-48.49 242.28,-54.65"/>
</g>
<!-- Node83 -->
<g id="node12" class="node">
<title>Node83</title>
<g id="a_node12"><a xlink:href="../../d7/d38/month_8h.html" target="_top" xlink:title=" ">
<polygon fill="none" stroke="black" points="396.31,-168.5 396.31,-187.5 453.31,-187.5 453.31,-168.5 396.31,-168.5"/>
<text text-anchor="middle" x="424.81" y="-175.5" font-family="Helvetica,sans-Serif" font-size="10.00">month.h</text>
</a>
</g>
</g>
<!-- Node82&#45;&gt;Node83 -->
<g id="edge17" class="edge">
<title>Node82&#45;&gt;Node83</title>
<path fill="none" stroke="midnightblue" d="M426.1,-213.8C425.77,-204.91 425.4,-194.78 425.14,-187.75"/>
<polygon fill="midnightblue" stroke="midnightblue" points="422.61,-214.22 426.48,-224.08 429.61,-213.96 422.61,-214.22"/>
</g>
<!-- Node83&#45;&gt;Node10 -->
<g id="edge20" class="edge">
<title>Node83&#45;&gt;Node10</title>
<path fill="none" stroke="midnightblue" d="M429.16,-158.24C431.29,-144.33 431.75,-125.53 422.81,-112 375.32,-40.15 267.49,-19.41 208.76,-13.43"/>
<polygon fill="midnightblue" stroke="midnightblue" points="425.71,-157.66 427.25,-168.14 432.58,-158.99 425.71,-157.66"/>
</g>
<!-- Node83&#45;&gt;Node80 -->
<g id="edge18" class="edge">
<title>Node83&#45;&gt;Node80</title>
<path fill="none" stroke="midnightblue" d="M390.64,-165.17C361.27,-155 319.61,-140.59 293.41,-131.52"/>
<polygon fill="midnightblue" stroke="midnightblue" points="389.5,-168.48 400.09,-168.44 391.79,-161.86 389.5,-168.48"/>
</g>
<!-- Node83&#45;&gt;Node81 -->
<g id="edge19" class="edge">
<title>Node83&#45;&gt;Node81</title>
<path fill="none" stroke="midnightblue" d="M423.23,-157.88C421.06,-143.5 415.93,-124.23 403.81,-112 373.64,-81.55 322.36,-71.7 292.44,-68.52"/>
<polygon fill="midnightblue" stroke="midnightblue" points="419.79,-158.61 424.41,-168.15 426.74,-157.81 419.79,-158.61"/>
</g>
<!-- Node84&#45;&gt;Node80 -->
<g id="edge22" class="edge">
<title>Node84&#45;&gt;Node80</title>
<path fill="none" stroke="midnightblue" d="M275.96,-158.1C274.14,-149.14 272.04,-138.86 270.59,-131.75"/>
<polygon fill="midnightblue" stroke="midnightblue" points="272.57,-158.98 278,-168.08 279.43,-157.59 272.57,-158.98"/>
</g>
<!-- Node85&#45;&gt;Node81 -->
<g id="edge24" class="edge">
<title>Node85&#45;&gt;Node81</title>
<path fill="none" stroke="midnightblue" d="M334.57,-106.9C318.25,-97 296.95,-84.07 283.08,-75.65"/>
<polygon fill="midnightblue" stroke="midnightblue" points="333.15,-110.13 343.51,-112.32 336.78,-104.14 333.15,-110.13"/>
</g>
</g>
</svg>
