<?xml version="1.0" encoding="UTF-8" standalone="no"?>
<!DOCTYPE svg PUBLIC "-//W3C//DTD SVG 1.1//EN"
 "http://www.w3.org/Graphics/SVG/1.1/DTD/svg11.dtd">
<!-- Generated by graphviz version 2.43.0 (0)
 -->
<!-- Title: hash::Hasher Pages: 1 -->
<svg width="574pt" height="84pt"
 viewBox="0.00 0.00 574.00 84.00" xmlns="http://www.w3.org/2000/svg" xmlns:xlink="http://www.w3.org/1999/xlink">
<g id="graph0" class="graph" transform="scale(1 1) rotate(0) translate(4 80)">
<title>hash::Hasher</title>
<!-- Node1 -->
<g id="node1" class="node">
<title>Node1</title>
<g id="a_node1"><a xlink:title="A base class representing an object that calculates a hash function.">
<polygon fill="#bfbfbf" stroke="black" points="229,-56.5 229,-75.5 309,-75.5 309,-56.5 229,-56.5"/>
<text text-anchor="middle" x="269" y="-63.5" font-family="Helvetica,sans-Serif" font-size="10.00">hash::Hasher</text>
</a>
</g>
</g>
<!-- Node2 -->
<g id="node2" class="node">
<title>Node2</title>
<g id="a_node2"><a xlink:href="../../dc/d36/classhash_1_1_m_d5.html" target="_top" xlink:title="A Hasher object that calculates an MD5 hash.">
<polygon fill="none" stroke="black" points="0,-0.5 0,-19.5 68,-19.5 68,-0.5 0,-0.5"/>
<text text-anchor="middle" x="34" y="-7.5" font-family="Helvetica,sans-Serif" font-size="10.00">hash::MD5</text>
</a>
</g>
</g>
<!-- Node1&#45;&gt;Node2 -->
<g id="edge1" class="edge">
<title>Node1&#45;&gt;Node2</title>
<path fill="none" stroke="midnightblue" d="M221.84,-54.16C176.31,-43.7 108.49,-28.12 68.01,-18.82"/>
<polygon fill="midnightblue" stroke="midnightblue" points="221.23,-57.62 231.76,-56.44 222.8,-50.79 221.23,-57.62"/>
</g>
<!-- Node3 -->
<g id="node3" class="node">
<title>Node3</title>
<g id="a_node3"><a xlink:href="../../d9/d90/classhash_1_1_s_h_a1.html" target="_top" xlink:title="A Hasher object that calculates a SHA1 hash.">
<polygon fill="none" stroke="black" points="86,-0.5 86,-19.5 158,-19.5 158,-0.5 86,-0.5"/>
<text text-anchor="middle" x="122" y="-7.5" font-family="Helvetica,sans-Serif" font-size="10.00">hash::SHA1</text>
</a>
</g>
</g>
<!-- Node1&#45;&gt;Node3 -->
<g id="edge2" class="edge">
<title>Node1&#45;&gt;Node3</title>
<path fill="none" stroke="midnightblue" d="M236.08,-52.91C208.44,-42.75 169.66,-28.51 145.18,-19.52"/>
<polygon fill="midnightblue" stroke="midnightblue" points="235.11,-56.28 245.71,-56.44 237.53,-49.71 235.11,-56.28"/>
</g>
<!-- Node4 -->
<g id="node4" class="node">
<title>Node4</title>
<g id="a_node4"><a xlink:href="../../d4/dc3/classhash_1_1_s_h_a224.html" target="_top" xlink:title="A Hasher object that calculates a SHA224 hash.">
<polygon fill="none" stroke="black" points="176,-0.5 176,-19.5 260,-19.5 260,-0.5 176,-0.5"/>
<text text-anchor="middle" x="218" y="-7.5" font-family="Helvetica,sans-Serif" font-size="10.00">hash::SHA224</text>
</a>
</g>
</g>
<!-- Node1&#45;&gt;Node4 -->
<g id="edge3" class="edge">
<title>Node1&#45;&gt;Node4</title>
<path fill="none" stroke="midnightblue" d="M253.62,-48.72C244.63,-39.2 233.64,-27.56 226.26,-19.75"/>
<polygon fill="midnightblue" stroke="midnightblue" points="251.17,-51.22 260.58,-56.08 256.26,-46.41 251.17,-51.22"/>
</g>
<!-- Node5 -->
<g id="node5" class="node">
<title>Node5</title>
<g id="a_node5"><a xlink:href="../../d4/d97/classhash_1_1_s_h_a256.html" target="_top" xlink:title="A Hasher object that calculates a SHA256 hash.">
<polygon fill="none" stroke="black" points="278,-0.5 278,-19.5 362,-19.5 362,-0.5 278,-0.5"/>
<text text-anchor="middle" x="320" y="-7.5" font-family="Helvetica,sans-Serif" font-size="10.00">hash::SHA256</text>
</a>
</g>
</g>
<!-- Node1&#45;&gt;Node5 -->
<g id="edge4" class="edge">
<title>Node1&#45;&gt;Node5</title>
<path fill="none" stroke="midnightblue" d="M284.38,-48.72C293.37,-39.2 304.36,-27.56 311.74,-19.75"/>
<polygon fill="midnightblue" stroke="midnightblue" points="281.74,-46.41 277.42,-56.08 286.83,-51.22 281.74,-46.41"/>
</g>
<!-- Node6 -->
<g id="node6" class="node">
<title>Node6</title>
<g id="a_node6"><a xlink:href="../../da/d0a/classhash_1_1_s_h_a384.html" target="_top" xlink:title="A Hasher object that calculates a SHA384 hash.">
<polygon fill="none" stroke="black" points="380,-0.5 380,-19.5 464,-19.5 464,-0.5 380,-0.5"/>
<text text-anchor="middle" x="422" y="-7.5" font-family="Helvetica,sans-Serif" font-size="10.00">hash::SHA384</text>
</a>
</g>
</g>
<!-- Node1&#45;&gt;Node6 -->
<g id="edge5" class="edge">
<title>Node1&#45;&gt;Node6</title>
<path fill="none" stroke="midnightblue" d="M302.89,-53.04C331.68,-42.88 372.29,-28.55 397.87,-19.52"/>
<polygon fill="midnightblue" stroke="midnightblue" points="301.51,-49.81 293.24,-56.44 303.84,-56.42 301.51,-49.81"/>
</g>
<!-- Node7 -->
<g id="node7" class="node">
<title>Node7</title>
<g id="a_node7"><a xlink:href="../../d9/d5e/classhash_1_1_s_h_a512.html" target="_top" xlink:title="A Hasher object that calculates a SHA512 hash.">
<polygon fill="none" stroke="black" points="482,-0.5 482,-19.5 566,-19.5 566,-0.5 482,-0.5"/>
<text text-anchor="middle" x="524" y="-7.5" font-family="Helvetica,sans-Serif" font-size="10.00">hash::SHA512</text>
</a>
</g>
</g>
<!-- Node1&#45;&gt;Node7 -->
<g id="edge6" class="edge">
<title>Node1&#45;&gt;Node7</title>
<path fill="none" stroke="midnightblue" d="M319.02,-54.41C367.18,-44.21 439.09,-28.98 483.69,-19.54"/>
<polygon fill="midnightblue" stroke="midnightblue" points="318.18,-51.01 309.12,-56.5 319.63,-57.86 318.18,-51.01"/>
</g>
</g>
</svg>
