<?xml version="1.0" encoding="UTF-8" standalone="no"?>
<!DOCTYPE svg PUBLIC "-//W3C//DTD SVG 1.1//EN"
 "http://www.w3.org/Graphics/SVG/1.1/DTD/svg11.dtd">
<!-- Generated by graphviz version 2.43.0 (0)
 -->
<!-- Title: limes::math::geometry::ThreeDShape&lt; ValueType &gt; Pages: 1 -->
<svg width="385pt" height="333pt"
 viewBox="0.00 0.00 385.00 333.00" xmlns="http://www.w3.org/2000/svg" xmlns:xlink="http://www.w3.org/1999/xlink">
<g id="graph0" class="graph" transform="scale(1 1) rotate(0) translate(4 329)">
<title>limes::math::geometry::ThreeDShape&lt; ValueType &gt;</title>
<!-- Node1 -->
<g id="node1" class="node">
<title>Node1</title>
<g id="a_node1"><a xlink:title="A base class for any kind of 3&#45;dimensional shape.">
<polygon fill="#bfbfbf" stroke="black" points="0,-147.5 0,-177.5 160,-177.5 160,-147.5 0,-147.5"/>
<text text-anchor="start" x="8" y="-165.5" font-family="Helvetica,sans-Serif" font-size="10.00">limes::math::geometry</text>
<text text-anchor="middle" x="80" y="-154.5" font-family="Helvetica,sans-Serif" font-size="10.00">::ThreeDShape&lt; ValueType &gt;</text>
</a>
</g>
</g>
<!-- Node2 -->
<g id="node2" class="node">
<title>Node2</title>
<g id="a_node2"><a xlink:href="../../d7/d9f/classlimes_1_1math_1_1geometry_1_1_cone.html" target="_top" xlink:title="This class represents a cone.">
<polygon fill="none" stroke="black" points="222.5,-294.5 222.5,-324.5 350.5,-324.5 350.5,-294.5 222.5,-294.5"/>
<text text-anchor="start" x="230.5" y="-312.5" font-family="Helvetica,sans-Serif" font-size="10.00">limes::math::geometry</text>
<text text-anchor="middle" x="286.5" y="-301.5" font-family="Helvetica,sans-Serif" font-size="10.00">::Cone&lt; ValueType &gt;</text>
</a>
</g>
</g>
<!-- Node1&#45;&gt;Node2 -->
<g id="edge1" class="edge">
<title>Node1&#45;&gt;Node2</title>
<path fill="none" stroke="midnightblue" d="M96.6,-185.89C116.42,-213.79 153.25,-259.85 196,-285.5 204,-290.3 212.97,-294.16 222.06,-297.25"/>
<polygon fill="midnightblue" stroke="midnightblue" points="99.36,-183.73 90.77,-177.52 93.61,-187.73 99.36,-183.73"/>
</g>
<!-- Node3 -->
<g id="node3" class="node">
<title>Node3</title>
<g id="a_node3"><a xlink:href="../../de/d8f/classlimes_1_1math_1_1geometry_1_1_cube.html" target="_top" xlink:title="This class represents a cube.">
<polygon fill="none" stroke="black" points="222.5,-245.5 222.5,-275.5 350.5,-275.5 350.5,-245.5 222.5,-245.5"/>
<text text-anchor="start" x="230.5" y="-263.5" font-family="Helvetica,sans-Serif" font-size="10.00">limes::math::geometry</text>
<text text-anchor="middle" x="286.5" y="-252.5" font-family="Helvetica,sans-Serif" font-size="10.00">::Cube&lt; ValueType &gt;</text>
</a>
</g>
</g>
<!-- Node1&#45;&gt;Node3 -->
<g id="edge2" class="edge">
<title>Node1&#45;&gt;Node3</title>
<path fill="none" stroke="midnightblue" d="M108.35,-183.57C130.82,-200.01 164.05,-222.35 196,-236.5 204.24,-240.15 213.15,-243.35 222.06,-246.12"/>
<polygon fill="midnightblue" stroke="midnightblue" points="110.4,-180.74 100.29,-177.59 106.23,-186.36 110.4,-180.74"/>
</g>
<!-- Node4 -->
<g id="node4" class="node">
<title>Node4</title>
<g id="a_node4"><a xlink:href="../../d7/d42/classlimes_1_1math_1_1geometry_1_1_cylinder.html" target="_top" xlink:title="This class represents a cylinder.">
<polygon fill="none" stroke="black" points="219,-196.5 219,-226.5 354,-226.5 354,-196.5 219,-196.5"/>
<text text-anchor="start" x="227" y="-214.5" font-family="Helvetica,sans-Serif" font-size="10.00">limes::math::geometry</text>
<text text-anchor="middle" x="286.5" y="-203.5" font-family="Helvetica,sans-Serif" font-size="10.00">::Cylinder&lt; ValueType &gt;</text>
</a>
</g>
</g>
<!-- Node1&#45;&gt;Node4 -->
<g id="edge3" class="edge">
<title>Node1&#45;&gt;Node4</title>
<path fill="none" stroke="midnightblue" d="M153.63,-179.9C176.26,-185.32 201,-191.25 222.87,-196.49"/>
<polygon fill="midnightblue" stroke="midnightblue" points="154.29,-176.46 143.75,-177.53 152.66,-183.27 154.29,-176.46"/>
</g>
<!-- Node5 -->
<g id="node5" class="node">
<title>Node5</title>
<g id="a_node5"><a xlink:href="../../de/d43/classlimes_1_1math_1_1geometry_1_1_pyramid.html" target="_top" xlink:title="This class represents a pyramid.">
<polygon fill="none" stroke="black" points="219,-147.5 219,-177.5 354,-177.5 354,-147.5 219,-147.5"/>
<text text-anchor="start" x="227" y="-165.5" font-family="Helvetica,sans-Serif" font-size="10.00">limes::math::geometry</text>
<text text-anchor="middle" x="286.5" y="-154.5" font-family="Helvetica,sans-Serif" font-size="10.00">::Pyramid&lt; ValueType &gt;</text>
</a>
</g>
</g>
<!-- Node1&#45;&gt;Node5 -->
<g id="edge4" class="edge">
<title>Node1&#45;&gt;Node5</title>
<path fill="none" stroke="midnightblue" d="M170.18,-162.5C186.55,-162.5 203.36,-162.5 218.92,-162.5"/>
<polygon fill="midnightblue" stroke="midnightblue" points="170.07,-159 160.07,-162.5 170.07,-166 170.07,-159"/>
</g>
<!-- Node6 -->
<g id="node6" class="node">
<title>Node6</title>
<g id="a_node6"><a xlink:href="../../de/d19/classlimes_1_1math_1_1geometry_1_1_rectangular_prism.html" target="_top" xlink:title="This class represents a rectagular prism.">
<polygon fill="none" stroke="black" points="196,-98.5 196,-128.5 377,-128.5 377,-98.5 196,-98.5"/>
<text text-anchor="start" x="204" y="-116.5" font-family="Helvetica,sans-Serif" font-size="10.00">limes::math::geometry</text>
<text text-anchor="middle" x="286.5" y="-105.5" font-family="Helvetica,sans-Serif" font-size="10.00">::RectangularPrism&lt; ValueType &gt;</text>
</a>
</g>
</g>
<!-- Node1&#45;&gt;Node6 -->
<g id="edge5" class="edge">
<title>Node1&#45;&gt;Node6</title>
<path fill="none" stroke="midnightblue" d="M153.63,-145.1C176.26,-139.68 201,-133.75 222.87,-128.51"/>
<polygon fill="midnightblue" stroke="midnightblue" points="152.66,-141.73 143.75,-147.47 154.29,-148.54 152.66,-141.73"/>
</g>
<!-- Node7 -->
<g id="node7" class="node">
<title>Node7</title>
<g id="a_node7"><a xlink:href="../../da/dbb/classlimes_1_1math_1_1geometry_1_1_sphere.html" target="_top" xlink:title="This class represents a sphere.">
<polygon fill="none" stroke="black" points="222.5,-49.5 222.5,-79.5 350.5,-79.5 350.5,-49.5 222.5,-49.5"/>
<text text-anchor="start" x="230.5" y="-67.5" font-family="Helvetica,sans-Serif" font-size="10.00">limes::math::geometry</text>
<text text-anchor="middle" x="286.5" y="-56.5" font-family="Helvetica,sans-Serif" font-size="10.00">::Sphere&lt; ValueType &gt;</text>
</a>
</g>
</g>
<!-- Node1&#45;&gt;Node7 -->
<g id="edge6" class="edge">
<title>Node1&#45;&gt;Node7</title>
<path fill="none" stroke="midnightblue" d="M109.14,-141.32C131.64,-125.21 164.53,-103.51 196,-89.5 204.4,-85.76 213.5,-82.44 222.56,-79.55"/>
<polygon fill="midnightblue" stroke="midnightblue" points="106.79,-138.7 100.75,-147.4 110.9,-144.36 106.79,-138.7"/>
</g>
<!-- Node8 -->
<g id="node8" class="node">
<title>Node8</title>
<g id="a_node8"><a xlink:href="../../db/ddc/classlimes_1_1math_1_1geometry_1_1_triangular_prism.html" target="_top" xlink:title="This class represents a triangular prism.">
<polygon fill="none" stroke="black" points="201.5,-0.5 201.5,-30.5 371.5,-30.5 371.5,-0.5 201.5,-0.5"/>
<text text-anchor="start" x="209.5" y="-18.5" font-family="Helvetica,sans-Serif" font-size="10.00">limes::math::geometry</text>
<text text-anchor="middle" x="286.5" y="-7.5" font-family="Helvetica,sans-Serif" font-size="10.00">::TriangularPrism&lt; ValueType &gt;</text>
</a>
</g>
</g>
<!-- Node1&#45;&gt;Node8 -->
<g id="edge7" class="edge">
<title>Node1&#45;&gt;Node8</title>
<path fill="none" stroke="midnightblue" d="M97,-138.94C116.99,-111.3 153.74,-66.04 196,-40.5 202.35,-36.66 209.31,-33.39 216.45,-30.62"/>
<polygon fill="midnightblue" stroke="midnightblue" points="94.05,-137.06 91.12,-147.24 99.76,-141.11 94.05,-137.06"/>
</g>
</g>
</svg>
