<?xml version="1.0" encoding="UTF-8" standalone="no"?>
<!DOCTYPE svg PUBLIC "-//W3C//DTD SVG 1.1//EN"
 "http://www.w3.org/Graphics/SVG/1.1/DTD/svg11.dtd">
<!-- Generated by graphviz version 2.43.0 (0)
 -->
<!-- Title: MemoryPoolAllocator.h Pages: 1 -->
<svg width="800pt" height="252pt"
 viewBox="0.00 0.00 800.47 252.00" xmlns="http://www.w3.org/2000/svg" xmlns:xlink="http://www.w3.org/1999/xlink">
<g id="graph0" class="graph" transform="scale(1 1) rotate(0) translate(4 248)">
<title>MemoryPoolAllocator.h</title>
<!-- Node1 -->
<g id="node1" class="node">
<title>Node1</title>
<g id="a_node1"><a xlink:title=" ">
<polygon fill="#bfbfbf" stroke="black" points="476.97,-224.5 476.97,-243.5 606.97,-243.5 606.97,-224.5 476.97,-224.5"/>
<text text-anchor="middle" x="541.97" y="-231.5" font-family="Helvetica,sans-Serif" font-size="10.00">MemoryPoolAllocator.h</text>
</a>
</g>
</g>
<!-- Node2 -->
<g id="node2" class="node">
<title>Node2</title>
<g id="a_node2"><a xlink:href="../../d2/daa/_memory_pool_8h.html" target="_top" xlink:title=" ">
<polygon fill="none" stroke="black" points="364.47,-168.5 364.47,-187.5 451.47,-187.5 451.47,-168.5 364.47,-168.5"/>
<text text-anchor="middle" x="407.97" y="-175.5" font-family="Helvetica,sans-Serif" font-size="10.00">MemoryPool.h</text>
</a>
</g>
</g>
<!-- Node1&#45;&gt;Node2 -->
<g id="edge1" class="edge">
<title>Node1&#45;&gt;Node2</title>
<path fill="none" stroke="midnightblue" d="M520.74,-224.44C498.59,-215.52 463.65,-201.44 438.53,-191.32"/>
<polygon fill="midnightblue" stroke="midnightblue" points="439.69,-188.01 429.1,-187.52 437.07,-194.5 439.69,-188.01"/>
</g>
<!-- Node5 -->
<g id="node5" class="node">
<title>Node5</title>
<g id="a_node5"><a xlink:title=" ">
<polygon fill="none" stroke="#bfbfbf" points="38.47,-0.5 38.47,-19.5 127.47,-19.5 127.47,-0.5 38.47,-0.5"/>
<text text-anchor="middle" x="82.97" y="-7.5" font-family="Helvetica,sans-Serif" font-size="10.00">limes_export.h</text>
</a>
</g>
</g>
<!-- Node1&#45;&gt;Node5 -->
<g id="edge25" class="edge">
<title>Node1&#45;&gt;Node5</title>
<path fill="none" stroke="midnightblue" d="M476.57,-230.77C373.32,-226.48 177.7,-214.98 113.97,-188 49.43,-160.68 25.88,-142.23 2.97,-76 0.06,-67.6 -1.52,-63.67 2.97,-56 11.83,-40.85 27.88,-30.41 43.28,-23.42"/>
<polygon fill="midnightblue" stroke="midnightblue" points="44.82,-26.57 52.72,-19.51 42.14,-20.11 44.82,-26.57"/>
</g>
<!-- Node6 -->
<g id="node6" class="node">
<title>Node6</title>
<g id="a_node6"><a xlink:href="../../da/d0b/limes__namespace_8h.html" target="_top" xlink:title=" ">
<polygon fill="none" stroke="black" points="517.97,-0.5 517.97,-19.5 631.97,-19.5 631.97,-0.5 517.97,-0.5"/>
<text text-anchor="middle" x="574.97" y="-7.5" font-family="Helvetica,sans-Serif" font-size="10.00">limes_namespace.h</text>
</a>
</g>
</g>
<!-- Node1&#45;&gt;Node6 -->
<g id="edge24" class="edge">
<title>Node1&#45;&gt;Node6</title>
<path fill="none" stroke="midnightblue" d="M554.24,-224.25C565.6,-215.78 582.57,-202.17 594.97,-188 633.95,-143.48 650.29,-132.78 666.97,-76 669.48,-67.47 671.68,-63.54 666.97,-56 657.21,-40.36 640.27,-30.01 623.57,-23.23"/>
<polygon fill="midnightblue" stroke="midnightblue" points="624.41,-19.81 613.82,-19.64 621.99,-26.38 624.41,-19.81"/>
</g>
<!-- Node9 -->
<g id="node9" class="node">
<title>Node9</title>
<g id="a_node9"><a xlink:title=" ">
<polygon fill="none" stroke="#bfbfbf" points="572.47,-56.5 572.47,-75.5 641.47,-75.5 641.47,-56.5 572.47,-56.5"/>
<text text-anchor="middle" x="606.97" y="-63.5" font-family="Helvetica,sans-Serif" font-size="10.00">type_traits</text>
</a>
</g>
</g>
<!-- Node1&#45;&gt;Node9 -->
<g id="edge28" class="edge">
<title>Node1&#45;&gt;Node9</title>
<path fill="none" stroke="midnightblue" d="M549.31,-224.26C562.8,-207.59 591.26,-169.55 602.97,-132 607.66,-116.97 608.43,-99.07 608.16,-85.86"/>
<polygon fill="midnightblue" stroke="midnightblue" points="611.65,-85.49 607.72,-75.65 604.65,-85.79 611.65,-85.49"/>
</g>
<!-- Node11 -->
<g id="node11" class="node">
<title>Node11</title>
<g id="a_node11"><a xlink:href="../../d3/d53/preprocessor_8h.html" target="_top" xlink:title=" ">
<polygon fill="none" stroke="black" points="21.47,-56.5 21.47,-75.5 144.47,-75.5 144.47,-56.5 21.47,-56.5"/>
<text text-anchor="middle" x="82.97" y="-63.5" font-family="Helvetica,sans-Serif" font-size="10.00">../misc/preprocessor.h</text>
</a>
</g>
</g>
<!-- Node1&#45;&gt;Node11 -->
<g id="edge27" class="edge">
<title>Node1&#45;&gt;Node11</title>
<path fill="none" stroke="midnightblue" d="M476.63,-229.34C356.36,-221.09 107.43,-196.46 54.97,-132 43.17,-117.5 55.28,-97.28 67.06,-83.26"/>
<polygon fill="midnightblue" stroke="midnightblue" points="69.67,-85.58 73.77,-75.81 64.47,-80.9 69.67,-85.58"/>
</g>
<!-- Node16 -->
<g id="node16" class="node">
<title>Node16</title>
<g id="a_node16"><a xlink:title=" ">
<polygon fill="none" stroke="#bfbfbf" points="743.47,-168.5 743.47,-187.5 792.47,-187.5 792.47,-168.5 743.47,-168.5"/>
<text text-anchor="middle" x="767.97" y="-175.5" font-family="Helvetica,sans-Serif" font-size="10.00">cstdlib</text>
</a>
</g>
</g>
<!-- Node1&#45;&gt;Node16 -->
<g id="edge26" class="edge">
<title>Node1&#45;&gt;Node16</title>
<path fill="none" stroke="midnightblue" d="M577.78,-224.44C620.44,-214.25 691.21,-197.34 733.34,-187.27"/>
<polygon fill="midnightblue" stroke="midnightblue" points="734.24,-190.66 743.15,-184.93 732.61,-183.85 734.24,-190.66"/>
</g>
<!-- Node3 -->
<g id="node3" class="node">
<title>Node3</title>
<g id="a_node3"><a xlink:title=" ">
<polygon fill="none" stroke="#bfbfbf" points="167.97,-112.5 167.97,-131.5 225.97,-131.5 225.97,-112.5 167.97,-112.5"/>
<text text-anchor="middle" x="196.97" y="-119.5" font-family="Helvetica,sans-Serif" font-size="10.00">memory</text>
</a>
</g>
</g>
<!-- Node2&#45;&gt;Node3 -->
<g id="edge2" class="edge">
<title>Node2&#45;&gt;Node3</title>
<path fill="none" stroke="midnightblue" d="M374.54,-168.44C336.91,-158.81 275.85,-143.19 236.05,-133"/>
<polygon fill="midnightblue" stroke="midnightblue" points="236.73,-129.56 226.17,-130.47 234.99,-136.34 236.73,-129.56"/>
</g>
<!-- Node4 -->
<g id="node4" class="node">
<title>Node4</title>
<g id="a_node4"><a xlink:title=" ">
<polygon fill="none" stroke="#bfbfbf" points="509.47,-56.5 509.47,-75.5 554.47,-75.5 554.47,-56.5 509.47,-56.5"/>
<text text-anchor="middle" x="531.97" y="-63.5" font-family="Helvetica,sans-Serif" font-size="10.00">utility</text>
</a>
</g>
</g>
<!-- Node2&#45;&gt;Node4 -->
<g id="edge3" class="edge">
<title>Node2&#45;&gt;Node4</title>
<path fill="none" stroke="midnightblue" d="M408.39,-168.31C409.48,-154.68 413.48,-128.18 427.97,-112 437.98,-100.83 472.98,-86.99 499.63,-77.64"/>
<polygon fill="midnightblue" stroke="midnightblue" points="501.06,-80.85 509.37,-74.28 498.78,-74.23 501.06,-80.85"/>
</g>
<!-- Node2&#45;&gt;Node5 -->
<g id="edge4" class="edge">
<title>Node2&#45;&gt;Node5</title>
<path fill="none" stroke="midnightblue" d="M364.39,-175.59C281.96,-172.25 106.8,-161.77 54.97,-132 21.32,-112.67 -6.74,-90 11.97,-56 19.86,-41.66 34.46,-31.25 48.37,-24.08"/>
<polygon fill="midnightblue" stroke="midnightblue" points="50.26,-27.06 57.81,-19.62 47.27,-20.73 50.26,-27.06"/>
</g>
<!-- Node2&#45;&gt;Node6 -->
<g id="edge5" class="edge">
<title>Node2&#45;&gt;Node6</title>
<path fill="none" stroke="midnightblue" d="M451.57,-174.73C493.14,-170.85 556.16,-160.34 602.97,-132 637.14,-111.31 670.75,-90.71 650.97,-56 642.56,-41.25 627.2,-30.84 612.49,-23.77"/>
<polygon fill="midnightblue" stroke="midnightblue" points="613.55,-20.42 602.99,-19.6 610.73,-26.83 613.55,-20.42"/>
</g>
<!-- Node7 -->
<g id="node7" class="node">
<title>Node7</title>
<g id="a_node7"><a xlink:title=" ">
<polygon fill="none" stroke="#bfbfbf" points="436.47,-112.5 436.47,-131.5 489.47,-131.5 489.47,-112.5 436.47,-112.5"/>
<text text-anchor="middle" x="462.97" y="-119.5" font-family="Helvetica,sans-Serif" font-size="10.00">cstddef</text>
</a>
</g>
</g>
<!-- Node2&#45;&gt;Node7 -->
<g id="edge6" class="edge">
<title>Node2&#45;&gt;Node7</title>
<path fill="none" stroke="midnightblue" d="M417.05,-168.08C425.14,-160.14 437.17,-148.34 446.88,-138.8"/>
<polygon fill="midnightblue" stroke="midnightblue" points="449.37,-141.25 454.06,-131.75 444.47,-136.26 449.37,-141.25"/>
</g>
<!-- Node8 -->
<g id="node8" class="node">
<title>Node8</title>
<g id="a_node8"><a xlink:title=" ">
<polygon fill="none" stroke="#bfbfbf" points="507.47,-112.5 507.47,-131.5 572.47,-131.5 572.47,-112.5 507.47,-112.5"/>
<text text-anchor="middle" x="539.97" y="-119.5" font-family="Helvetica,sans-Serif" font-size="10.00">exception</text>
</a>
</g>
</g>
<!-- Node2&#45;&gt;Node8 -->
<g id="edge7" class="edge">
<title>Node2&#45;&gt;Node8</title>
<path fill="none" stroke="midnightblue" d="M428.89,-168.44C450.71,-159.52 485.12,-145.44 509.86,-135.32"/>
<polygon fill="midnightblue" stroke="midnightblue" points="511.22,-138.54 519.15,-131.52 508.57,-132.06 511.22,-138.54"/>
</g>
<!-- Node2&#45;&gt;Node9 -->
<g id="edge8" class="edge">
<title>Node2&#45;&gt;Node9</title>
<path fill="none" stroke="midnightblue" d="M451.75,-176.49C490.43,-173.77 546.11,-163.98 581.97,-132 595.34,-120.07 601.61,-100.17 604.52,-85.52"/>
<polygon fill="midnightblue" stroke="midnightblue" points="607.99,-86 606.15,-75.56 601.08,-84.87 607.99,-86"/>
</g>
<!-- Node10 -->
<g id="node10" class="node">
<title>Node10</title>
<g id="a_node10"><a xlink:title=" ">
<polygon fill="none" stroke="#bfbfbf" points="64.47,-112.5 64.47,-131.5 111.47,-131.5 111.47,-112.5 64.47,-112.5"/>
<text text-anchor="middle" x="87.97" y="-119.5" font-family="Helvetica,sans-Serif" font-size="10.00">vector</text>
</a>
</g>
</g>
<!-- Node2&#45;&gt;Node10 -->
<g id="edge9" class="edge">
<title>Node2&#45;&gt;Node10</title>
<path fill="none" stroke="midnightblue" d="M364.31,-171.06C308.74,-163.26 209.86,-148.6 125.97,-132 124.52,-131.71 123.03,-131.41 121.53,-131.09"/>
<polygon fill="midnightblue" stroke="midnightblue" points="122.15,-127.64 111.63,-128.89 120.63,-134.48 122.15,-127.64"/>
</g>
<!-- Node2&#45;&gt;Node11 -->
<g id="edge10" class="edge">
<title>Node2&#45;&gt;Node11</title>
<path fill="none" stroke="midnightblue" d="M364.02,-175.95C312.56,-173.19 225.84,-163.74 158.97,-132 134.35,-120.32 111.36,-98.53 97.25,-83.42"/>
<polygon fill="midnightblue" stroke="midnightblue" points="99.67,-80.88 90.37,-75.82 94.48,-85.58 99.67,-80.88"/>
</g>
<!-- Node13 -->
<g id="node13" class="node">
<title>Node13</title>
<g id="a_node13"><a xlink:href="../../d5/dbb/limes__assert_8h.html" target="_top" xlink:title=" ">
<polygon fill="none" stroke="black" points="243.97,-112.5 243.97,-131.5 379.97,-131.5 379.97,-112.5 243.97,-112.5"/>
<text text-anchor="middle" x="311.97" y="-119.5" font-family="Helvetica,sans-Serif" font-size="10.00">../system/limes_assert.h</text>
</a>
</g>
</g>
<!-- Node2&#45;&gt;Node13 -->
<g id="edge12" class="edge">
<title>Node2&#45;&gt;Node13</title>
<path fill="none" stroke="midnightblue" d="M392.55,-168.32C377.43,-159.82 354.15,-146.73 336.5,-136.8"/>
<polygon fill="midnightblue" stroke="midnightblue" points="337.79,-133.51 327.36,-131.65 334.36,-139.61 337.79,-133.51"/>
</g>
<!-- Node12 -->
<g id="node12" class="node">
<title>Node12</title>
<g id="a_node12"><a xlink:title=" ">
<polygon fill="none" stroke="#bfbfbf" points="246.97,-0.5 246.97,-19.5 346.97,-19.5 346.97,-0.5 246.97,-0.5"/>
<text text-anchor="middle" x="296.97" y="-7.5" font-family="Helvetica,sans-Serif" font-size="10.00">limes_platform.h</text>
</a>
</g>
</g>
<!-- Node11&#45;&gt;Node12 -->
<g id="edge11" class="edge">
<title>Node11&#45;&gt;Node12</title>
<path fill="none" stroke="midnightblue" d="M116.88,-56.44C153.82,-47.12 213.02,-32.18 253.39,-22"/>
<polygon fill="midnightblue" stroke="midnightblue" points="254.38,-25.36 263.22,-19.52 252.67,-18.57 254.38,-25.36"/>
</g>
<!-- Node13&#45;&gt;Node4 -->
<g id="edge17" class="edge">
<title>Node13&#45;&gt;Node4</title>
<path fill="none" stroke="midnightblue" d="M346.83,-112.44C388.83,-102.14 458.82,-84.96 499.65,-74.93"/>
<polygon fill="midnightblue" stroke="midnightblue" points="500.49,-78.33 509.36,-72.55 498.82,-71.53 500.49,-78.33"/>
</g>
<!-- Node13&#45;&gt;Node5 -->
<g id="edge13" class="edge">
<title>Node13&#45;&gt;Node5</title>
<path fill="none" stroke="midnightblue" d="M285.19,-112.49C260.49,-104.29 223.05,-90.95 191.97,-76 160.18,-60.71 125.51,-39.12 104.01,-25.09"/>
<polygon fill="midnightblue" stroke="midnightblue" points="105.92,-22.16 95.64,-19.58 102.07,-28 105.92,-22.16"/>
</g>
<!-- Node13&#45;&gt;Node6 -->
<g id="edge14" class="edge">
<title>Node13&#45;&gt;Node6</title>
<path fill="none" stroke="midnightblue" d="M348.87,-112.46C379.75,-104.73 424.64,-92.08 461.97,-76 479.9,-68.28 524.97,-41.45 552.47,-24.77"/>
<polygon fill="midnightblue" stroke="midnightblue" points="554.33,-27.73 561.06,-19.54 550.69,-21.75 554.33,-27.73"/>
</g>
<!-- Node13&#45;&gt;Node9 -->
<g id="edge16" class="edge">
<title>Node13&#45;&gt;Node9</title>
<path fill="none" stroke="midnightblue" d="M362.25,-112.47C410.99,-104.11 487.26,-90.74 562.17,-76.31"/>
<polygon fill="midnightblue" stroke="midnightblue" points="563.1,-79.69 572.25,-74.36 561.77,-72.82 563.1,-79.69"/>
</g>
<!-- Node13&#45;&gt;Node11 -->
<g id="edge15" class="edge">
<title>Node13&#45;&gt;Node11</title>
<path fill="none" stroke="midnightblue" d="M275.68,-112.44C235.99,-103.08 172.26,-88.06 129.06,-77.87"/>
<polygon fill="midnightblue" stroke="midnightblue" points="129.62,-74.41 119.09,-75.52 128.02,-81.22 129.62,-74.41"/>
</g>
<!-- Node13&#45;&gt;Node12 -->
<g id="edge22" class="edge">
<title>Node13&#45;&gt;Node12</title>
<path fill="none" stroke="midnightblue" d="M310.79,-112.37C308.37,-94.62 302.79,-53.67 299.51,-29.6"/>
<polygon fill="midnightblue" stroke="midnightblue" points="302.96,-29.03 298.14,-19.59 296.02,-29.97 302.96,-29.03"/>
</g>
<!-- Node14 -->
<g id="node14" class="node">
<title>Node14</title>
<g id="a_node14"><a xlink:href="../../d1/d57/_ignore_unused_8h.html" target="_top" xlink:title=" ">
<polygon fill="none" stroke="black" points="324.97,-56.5 324.97,-75.5 452.97,-75.5 452.97,-56.5 324.97,-56.5"/>
<text text-anchor="middle" x="388.97" y="-63.5" font-family="Helvetica,sans-Serif" font-size="10.00">../misc/IgnoreUnused.h</text>
</a>
</g>
</g>
<!-- Node13&#45;&gt;Node14 -->
<g id="edge18" class="edge">
<title>Node13&#45;&gt;Node14</title>
<path fill="none" stroke="midnightblue" d="M324.34,-112.32C336.13,-104.06 354.1,-91.45 368.11,-81.63"/>
<polygon fill="midnightblue" stroke="midnightblue" points="370.45,-84.26 376.63,-75.65 366.43,-78.53 370.45,-84.26"/>
</g>
<!-- Node15 -->
<g id="node15" class="node">
<title>Node15</title>
<g id="a_node15"><a xlink:title=" ">
<polygon fill="none" stroke="#bfbfbf" points="200.97,-56.5 200.97,-75.5 268.97,-75.5 268.97,-56.5 200.97,-56.5"/>
<text text-anchor="middle" x="234.97" y="-63.5" font-family="Helvetica,sans-Serif" font-size="10.00">filesystem</text>
</a>
</g>
</g>
<!-- Node13&#45;&gt;Node15 -->
<g id="edge23" class="edge">
<title>Node13&#45;&gt;Node15</title>
<path fill="none" stroke="midnightblue" d="M299.6,-112.32C287.81,-104.06 269.84,-91.45 255.83,-81.63"/>
<polygon fill="midnightblue" stroke="midnightblue" points="257.51,-78.53 247.31,-75.65 253.49,-84.26 257.51,-78.53"/>
</g>
<!-- Node14&#45;&gt;Node5 -->
<g id="edge19" class="edge">
<title>Node14&#45;&gt;Node5</title>
<path fill="none" stroke="midnightblue" d="M340.48,-56.44C285.32,-46.71 195.43,-30.85 137.77,-20.67"/>
<polygon fill="midnightblue" stroke="midnightblue" points="138.2,-17.19 127.75,-18.9 136.99,-24.09 138.2,-17.19"/>
</g>
<!-- Node14&#45;&gt;Node6 -->
<g id="edge20" class="edge">
<title>Node14&#45;&gt;Node6</title>
<path fill="none" stroke="midnightblue" d="M418.44,-56.44C450.14,-47.24 500.7,-32.56 535.74,-22.39"/>
<polygon fill="midnightblue" stroke="midnightblue" points="537.01,-25.67 545.64,-19.52 535.06,-18.94 537.01,-25.67"/>
</g>
<!-- Node14&#45;&gt;Node12 -->
<g id="edge21" class="edge">
<title>Node14&#45;&gt;Node12</title>
<path fill="none" stroke="midnightblue" d="M374.19,-56.32C359.7,-47.82 337.4,-34.73 320.48,-24.8"/>
<polygon fill="midnightblue" stroke="midnightblue" points="322.11,-21.7 311.71,-19.65 318.57,-27.74 322.11,-21.7"/>
</g>
</g>
</svg>
