<?xml version="1.0" encoding="UTF-8" standalone="no"?>
<!DOCTYPE svg PUBLIC "-//W3C//DTD SVG 1.1//EN"
 "http://www.w3.org/Graphics/SVG/1.1/DTD/svg11.dtd">
<!-- Generated by graphviz version 2.43.0 (0)
 -->
<!-- Title: MemoryPoolAllocator.h Pages: 1 -->
<!--zoomable 308 -->
<svg id="main" version="1.1" xmlns="http://www.w3.org/2000/svg" xmlns:xlink="http://www.w3.org/1999/xlink" xml:space="preserve" onload="init(evt)">
<style type="text/css"><![CDATA[
.edge:hover path { stroke: red; }
.edge:hover polygon { stroke: red; fill: red; }
]]></style>
<script type="text/javascript"><![CDATA[
var edges = document.getElementsByTagName('g');
if (edges && edges.length) {
  for (var i=0;i<edges.length;i++) {
    if (edges[i].id.substr(0,4)=='edge') {
      edges[i].setAttribute('class','edge');
    }
  }
}
]]></script>
        <defs>
                <circle id="rim" cx="0" cy="0" r="7"/>
                <circle id="rim2" cx="0" cy="0" r="3.5"/>
                <g id="zoomPlus">
                        <use xlink:href="#rim" fill="#404040">
                                <set attributeName="fill" to="#808080" begin="zoomplus.mouseover" end="zoomplus.mouseout"/>
                        </use>
                        <path d="M-4,0h8M0,-4v8" fill="none" stroke="white" stroke-width="1.5" pointer-events="none"/>
                </g>
                <g id="zoomMin">
                        <use xlink:href="#rim" fill="#404040">
                                <set attributeName="fill" to="#808080" begin="zoomminus.mouseover" end="zoomminus.mouseout"/>
                        </use>
                        <path d="M-4,0h8" fill="none" stroke="white" stroke-width="1.5" pointer-events="none"/>
                </g>
                <g id="dirArrow">
                        <path fill="none" stroke="white" stroke-width="1.5" d="M0,-3.0v7 M-2.5,-0.5L0,-3.0L2.5,-0.5"/>
                </g>
               <g id="resetDef">
                       <use xlink:href="#rim2" fill="#404040">
                               <set attributeName="fill" to="#808080" begin="reset.mouseover" end="reset.mouseout"/>
                       </use>
               </g>
        </defs>

<script type="text/javascript">
var viewWidth = 946;
var viewHeight = 308;
var sectionId = 'dynsection-0';
</script>
<script xlink:href="../../svgpan.js"/>
<svg id="graph" class="graph">
<g id="viewport">
<title>MemoryPoolAllocator.h</title>
<!-- Node1 -->
<g id="node1" class="node">
<title>Node1</title>
<g id="a_node1"><a xlink:title=" ">
<polygon fill="#bfbfbf" stroke="black" points="382.4,-280.5 382.4,-299.5 512.4,-299.5 512.4,-280.5 382.4,-280.5"/>
<text text-anchor="middle" x="447.4" y="-287.5" font-family="Helvetica,sans-Serif" font-size="10.00">MemoryPoolAllocator.h</text>
</a>
</g>
</g>
<!-- Node2 -->
<g id="node2" class="node">
<title>Node2</title>
<g id="a_node2"><a xlink:href="../../d2/daa/_memory_pool_8h.html" target="_top" xlink:title=" ">
<polygon fill="none" stroke="black" points="250.9,-224.5 250.9,-243.5 337.9,-243.5 337.9,-224.5 250.9,-224.5"/>
<text text-anchor="middle" x="294.4" y="-231.5" font-family="Helvetica,sans-Serif" font-size="10.00">MemoryPool.h</text>
</a>
</g>
</g>
<!-- Node1&#45;&gt;Node2 -->
<g id="edge1" class="edge">
<title>Node1&#45;&gt;Node2</title>
<path fill="none" stroke="midnightblue" d="M423.15,-280.44C397.52,-271.4 356.91,-257.06 328.16,-246.92"/>
<polygon fill="midnightblue" stroke="midnightblue" points="329.12,-243.54 318.53,-243.52 326.79,-250.15 329.12,-243.54"/>
</g>
<!-- Node5 -->
<g id="node5" class="node">
<title>Node5</title>
<g id="a_node5"><a xlink:title=" ">
<polygon fill="none" stroke="#bfbfbf" points="531.9,-56.5 531.9,-75.5 620.9,-75.5 620.9,-56.5 531.9,-56.5"/>
<text text-anchor="middle" x="576.4" y="-63.5" font-family="Helvetica,sans-Serif" font-size="10.00">limes_export.h</text>
</a>
</g>
</g>
<!-- Node1&#45;&gt;Node5 -->
<g id="edge28" class="edge">
<title>Node1&#45;&gt;Node5</title>
<path fill="none" stroke="midnightblue" d="M461.22,-280.37C485.27,-264.71 535.07,-229.38 564.4,-188 584.73,-159.31 590.23,-146.95 586.4,-112 585.42,-103.14 583.4,-93.47 581.43,-85.38"/>
<polygon fill="midnightblue" stroke="midnightblue" points="584.78,-84.33 578.88,-75.53 578,-86.09 584.78,-84.33"/>
</g>
<!-- Node6 -->
<g id="node6" class="node">
<title>Node6</title>
<g id="a_node6"><a xlink:href="../../da/d0b/limes__namespace_8h.html" target="_top" xlink:title=" ">
<polygon fill="none" stroke="black" points="746.4,-56.5 746.4,-75.5 860.4,-75.5 860.4,-56.5 746.4,-56.5"/>
<text text-anchor="middle" x="803.4" y="-63.5" font-family="Helvetica,sans-Serif" font-size="10.00">limes_namespace.h</text>
</a>
</g>
</g>
<!-- Node1&#45;&gt;Node6 -->
<g id="edge27" class="edge">
<title>Node1&#45;&gt;Node6</title>
<path fill="none" stroke="midnightblue" d="M512.44,-282.79C598.23,-270.62 745.57,-235.05 807.4,-132 815.75,-118.08 813.47,-99.32 809.86,-85.53"/>
<polygon fill="midnightblue" stroke="midnightblue" points="813.13,-84.27 806.86,-75.73 806.44,-86.32 813.13,-84.27"/>
</g>
<!-- Node9 -->
<g id="node9" class="node">
<title>Node9</title>
<g id="a_node9"><a xlink:title=" ">
<polygon fill="none" stroke="#bfbfbf" points="87.9,-112.5 87.9,-131.5 156.9,-131.5 156.9,-112.5 87.9,-112.5"/>
<text text-anchor="middle" x="122.4" y="-119.5" font-family="Helvetica,sans-Serif" font-size="10.00">type_traits</text>
</a>
</g>
</g>
<!-- Node1&#45;&gt;Node9 -->
<g id="edge31" class="edge">
<title>Node1&#45;&gt;Node9</title>
<path fill="none" stroke="midnightblue" d="M382.33,-283.47C273.44,-272.72 61.84,-244.87 17.4,-188 -3.33,-161.48 40.84,-143.05 78.11,-132.75"/>
<polygon fill="midnightblue" stroke="midnightblue" points="79.1,-136.11 87.89,-130.19 77.33,-129.34 79.1,-136.11"/>
</g>
<!-- Node11 -->
<g id="node11" class="node">
<title>Node11</title>
<g id="a_node11"><a xlink:href="../../d3/d53/preprocessor_8h.html" target="_top" xlink:title=" ">
<polygon fill="none" stroke="black" points="186.9,-56.5 186.9,-75.5 309.9,-75.5 309.9,-56.5 186.9,-56.5"/>
<text text-anchor="middle" x="248.4" y="-63.5" font-family="Helvetica,sans-Serif" font-size="10.00">../misc/preprocessor.h</text>
</a>
</g>
</g>
<!-- Node1&#45;&gt;Node11 -->
<g id="edge30" class="edge">
<title>Node1&#45;&gt;Node11</title>
<path fill="none" stroke="midnightblue" d="M382.24,-285.39C290.54,-279.59 128.53,-266.5 74.4,-244 37.28,-228.57 20.93,-224.16 3.4,-188 -7.16,-166.22 12.42,-118.41 19.4,-112 42.01,-91.21 118.19,-79.26 176.54,-72.97"/>
<polygon fill="midnightblue" stroke="midnightblue" points="177.25,-76.42 186.84,-71.9 176.53,-69.45 177.25,-76.42"/>
</g>
<!-- Node17 -->
<g id="node17" class="node">
<title>Node17</title>
<g id="a_node17"><a xlink:title=" ">
<polygon fill="none" stroke="#bfbfbf" points="888.9,-224.5 888.9,-243.5 937.9,-243.5 937.9,-224.5 888.9,-224.5"/>
<text text-anchor="middle" x="913.4" y="-231.5" font-family="Helvetica,sans-Serif" font-size="10.00">cstdlib</text>
</a>
</g>
</g>
<!-- Node1&#45;&gt;Node17 -->
<g id="edge29" class="edge">
<title>Node1&#45;&gt;Node17</title>
<path fill="none" stroke="midnightblue" d="M512.47,-284.62C596.48,-278.4 747.02,-265.33 874.4,-244 875.85,-243.76 877.33,-243.49 878.83,-243.21"/>
<polygon fill="midnightblue" stroke="midnightblue" points="879.64,-246.62 888.73,-241.17 878.23,-239.76 879.64,-246.62"/>
</g>
<!-- Node3 -->
<g id="node3" class="node">
<title>Node3</title>
<g id="a_node3"><a xlink:title=" ">
<polygon fill="none" stroke="#bfbfbf" points="476.4,-168.5 476.4,-187.5 534.4,-187.5 534.4,-168.5 476.4,-168.5"/>
<text text-anchor="middle" x="505.4" y="-175.5" font-family="Helvetica,sans-Serif" font-size="10.00">memory</text>
</a>
</g>
</g>
<!-- Node2&#45;&gt;Node3 -->
<g id="edge2" class="edge">
<title>Node2&#45;&gt;Node3</title>
<path fill="none" stroke="midnightblue" d="M327.83,-224.44C365.46,-214.81 426.51,-199.19 466.31,-189"/>
<polygon fill="midnightblue" stroke="midnightblue" points="467.38,-192.34 476.2,-186.47 465.64,-185.56 467.38,-192.34"/>
</g>
<!-- Node4 -->
<g id="node4" class="node">
<title>Node4</title>
<g id="a_node4"><a xlink:title=" ">
<polygon fill="none" stroke="#bfbfbf" points="174.9,-112.5 174.9,-131.5 219.9,-131.5 219.9,-112.5 174.9,-112.5"/>
<text text-anchor="middle" x="197.4" y="-119.5" font-family="Helvetica,sans-Serif" font-size="10.00">utility</text>
</a>
</g>
</g>
<!-- Node2&#45;&gt;Node4 -->
<g id="edge3" class="edge">
<title>Node2&#45;&gt;Node4</title>
<path fill="none" stroke="midnightblue" d="M293.02,-224.09C290.54,-210.65 284.26,-184.94 270.4,-168 259.18,-154.3 242.62,-143.61 228.12,-136.1"/>
<polygon fill="midnightblue" stroke="midnightblue" points="229.47,-132.87 218.95,-131.62 226.4,-139.16 229.47,-132.87"/>
</g>
<!-- Node2&#45;&gt;Node5 -->
<g id="edge4" class="edge">
<title>Node2&#45;&gt;Node5</title>
<path fill="none" stroke="midnightblue" d="M337.92,-230.63C401.12,-226.29 514,-214.93 543.4,-188 572.21,-161.61 576.84,-112.76 577.04,-85.91"/>
<polygon fill="midnightblue" stroke="midnightblue" points="580.53,-85.53 576.9,-75.58 573.53,-85.62 580.53,-85.53"/>
</g>
<!-- Node2&#45;&gt;Node6 -->
<g id="edge5" class="edge">
<title>Node2&#45;&gt;Node6</title>
<path fill="none" stroke="midnightblue" d="M337.92,-230.19C446.57,-222.27 725.53,-196.02 788.4,-132 800.18,-120 803.42,-100.71 804.02,-86.25"/>
<polygon fill="midnightblue" stroke="midnightblue" points="807.52,-85.93 804.05,-75.92 800.52,-85.92 807.52,-85.93"/>
</g>
<!-- Node7 -->
<g id="node7" class="node">
<title>Node7</title>
<g id="a_node7"><a xlink:title=" ">
<polygon fill="none" stroke="#bfbfbf" points="26.9,-168.5 26.9,-187.5 79.9,-187.5 79.9,-168.5 26.9,-168.5"/>
<text text-anchor="middle" x="53.4" y="-175.5" font-family="Helvetica,sans-Serif" font-size="10.00">cstddef</text>
</a>
</g>
</g>
<!-- Node2&#45;&gt;Node7 -->
<g id="edge6" class="edge">
<title>Node2&#45;&gt;Node7</title>
<path fill="none" stroke="midnightblue" d="M253.86,-224.46C214.56,-216.11 152.98,-202.8 90.19,-188.13"/>
<polygon fill="midnightblue" stroke="midnightblue" points="90.65,-184.65 80.11,-185.77 89.05,-191.46 90.65,-184.65"/>
</g>
<!-- Node8 -->
<g id="node8" class="node">
<title>Node8</title>
<g id="a_node8"><a xlink:title=" ">
<polygon fill="none" stroke="#bfbfbf" points="97.9,-168.5 97.9,-187.5 162.9,-187.5 162.9,-168.5 97.9,-168.5"/>
<text text-anchor="middle" x="130.4" y="-175.5" font-family="Helvetica,sans-Serif" font-size="10.00">exception</text>
</a>
</g>
</g>
<!-- Node2&#45;&gt;Node8 -->
<g id="edge7" class="edge">
<title>Node2&#45;&gt;Node8</title>
<path fill="none" stroke="midnightblue" d="M268.41,-224.44C240.7,-215.32 196.64,-200.81 165.78,-190.65"/>
<polygon fill="midnightblue" stroke="midnightblue" points="166.85,-187.32 156.26,-187.52 164.66,-193.97 166.85,-187.32"/>
</g>
<!-- Node2&#45;&gt;Node9 -->
<g id="edge8" class="edge">
<title>Node2&#45;&gt;Node9</title>
<path fill="none" stroke="midnightblue" d="M288.77,-224.23C279.56,-210.5 260,-183.86 237.4,-168 215.84,-152.87 188.5,-141.9 165.88,-134.58"/>
<polygon fill="midnightblue" stroke="midnightblue" points="166.77,-131.2 156.19,-131.57 164.7,-137.88 166.77,-131.2"/>
</g>
<!-- Node10 -->
<g id="node10" class="node">
<title>Node10</title>
<g id="a_node10"><a xlink:title=" ">
<polygon fill="none" stroke="#bfbfbf" points="180.9,-168.5 180.9,-187.5 227.9,-187.5 227.9,-168.5 180.9,-168.5"/>
<text text-anchor="middle" x="204.4" y="-175.5" font-family="Helvetica,sans-Serif" font-size="10.00">vector</text>
</a>
</g>
</g>
<!-- Node2&#45;&gt;Node10 -->
<g id="edge9" class="edge">
<title>Node2&#45;&gt;Node10</title>
<path fill="none" stroke="midnightblue" d="M279.94,-224.32C265.9,-215.9 244.35,-202.97 227.85,-193.07"/>
<polygon fill="midnightblue" stroke="midnightblue" points="229.2,-189.8 218.82,-187.65 225.59,-195.8 229.2,-189.8"/>
</g>
<!-- Node2&#45;&gt;Node11 -->
<g id="edge10" class="edge">
<title>Node2&#45;&gt;Node11</title>
<path fill="none" stroke="midnightblue" d="M250.74,-232.5C180.39,-230.67 46.83,-222.61 17.4,-188 -34.24,-127.3 94.36,-92.86 179.74,-77.28"/>
<polygon fill="midnightblue" stroke="midnightblue" points="180.43,-80.71 189.66,-75.51 179.2,-73.82 180.43,-80.71"/>
</g>
<!-- Node13 -->
<g id="node13" class="node">
<title>Node13</title>
<g id="a_node13"><a xlink:href="../../d5/dbb/limes__assert_8h.html" target="_top" xlink:title=" ">
<polygon fill="none" stroke="black" points="322.4,-168.5 322.4,-187.5 458.4,-187.5 458.4,-168.5 322.4,-168.5"/>
<text text-anchor="middle" x="390.4" y="-175.5" font-family="Helvetica,sans-Serif" font-size="10.00">../system/limes_assert.h</text>
</a>
</g>
</g>
<!-- Node2&#45;&gt;Node13 -->
<g id="edge12" class="edge">
<title>Node2&#45;&gt;Node13</title>
<path fill="none" stroke="midnightblue" d="M309.82,-224.32C324.93,-215.82 348.21,-202.73 365.87,-192.8"/>
<polygon fill="midnightblue" stroke="midnightblue" points="368.01,-195.61 375.01,-187.65 364.58,-189.51 368.01,-195.61"/>
</g>
<!-- Node12 -->
<g id="node12" class="node">
<title>Node12</title>
<g id="a_node12"><a xlink:title=" ">
<polygon fill="none" stroke="#bfbfbf" points="325.4,-0.5 325.4,-19.5 425.4,-19.5 425.4,-0.5 325.4,-0.5"/>
<text text-anchor="middle" x="375.4" y="-7.5" font-family="Helvetica,sans-Serif" font-size="10.00">limes_platform.h</text>
</a>
</g>
</g>
<!-- Node11&#45;&gt;Node12 -->
<g id="edge11" class="edge">
<title>Node11&#45;&gt;Node12</title>
<path fill="none" stroke="midnightblue" d="M268.52,-56.44C289.42,-47.56 322.33,-33.56 346.11,-23.45"/>
<polygon fill="midnightblue" stroke="midnightblue" points="347.53,-26.65 355.37,-19.52 344.79,-20.21 347.53,-26.65"/>
</g>
<!-- Node13&#45;&gt;Node4 -->
<g id="edge17" class="edge">
<title>Node13&#45;&gt;Node4</title>
<path fill="none" stroke="midnightblue" d="M359.81,-168.44C324.41,-158.54 266.32,-142.28 230.05,-132.14"/>
<polygon fill="midnightblue" stroke="midnightblue" points="230.57,-128.65 219.99,-129.32 228.68,-135.39 230.57,-128.65"/>
</g>
<!-- Node13&#45;&gt;Node5 -->
<g id="edge13" class="edge">
<title>Node13&#45;&gt;Node5</title>
<path fill="none" stroke="midnightblue" d="M421.13,-168.38C445.16,-160.86 478.83,-148.55 505.4,-132 527.21,-118.41 548.44,-97.68 561.92,-83.31"/>
<polygon fill="midnightblue" stroke="midnightblue" points="564.73,-85.41 568.9,-75.67 559.57,-80.69 564.73,-85.41"/>
</g>
<!-- Node13&#45;&gt;Node6 -->
<g id="edge14" class="edge">
<title>Node13&#45;&gt;Node6</title>
<path fill="none" stroke="midnightblue" d="M458.82,-168.98C566.56,-156.33 763.8,-133.05 765.4,-132 781.75,-121.27 791.97,-100.87 797.64,-85.77"/>
<polygon fill="midnightblue" stroke="midnightblue" points="801.08,-86.52 800.99,-75.93 794.45,-84.27 801.08,-86.52"/>
</g>
<!-- Node13&#45;&gt;Node9 -->
<g id="edge16" class="edge">
<title>Node13&#45;&gt;Node9</title>
<path fill="none" stroke="midnightblue" d="M347.44,-168.42C304.46,-159.82 236.15,-146.13 167.16,-132.15"/>
<polygon fill="midnightblue" stroke="midnightblue" points="167.48,-128.64 156.98,-130.09 166.09,-135.5 167.48,-128.64"/>
</g>
<!-- Node13&#45;&gt;Node11 -->
<g id="edge15" class="edge">
<title>Node13&#45;&gt;Node11</title>
<path fill="none" stroke="midnightblue" d="M337.3,-168.49C313.37,-162.14 286.48,-151.1 268.4,-132 256.61,-119.55 251.76,-100.32 249.77,-86"/>
<polygon fill="midnightblue" stroke="midnightblue" points="253.22,-85.37 248.71,-75.79 246.26,-86.1 253.22,-85.37"/>
</g>
<!-- Node13&#45;&gt;Node12 -->
<g id="edge22" class="edge">
<title>Node13&#45;&gt;Node12</title>
<path fill="none" stroke="midnightblue" d="M389.59,-168.08C387.23,-141.95 380.29,-65.21 377.07,-29.58"/>
<polygon fill="midnightblue" stroke="midnightblue" points="380.56,-29.21 376.17,-19.57 373.58,-29.84 380.56,-29.21"/>
</g>
<!-- Node14 -->
<g id="node14" class="node">
<title>Node14</title>
<g id="a_node14"><a xlink:href="../../d1/d57/_ignore_unused_8h.html" target="_top" xlink:title=" ">
<polygon fill="none" stroke="black" points="628.4,-112.5 628.4,-131.5 756.4,-131.5 756.4,-112.5 628.4,-112.5"/>
<text text-anchor="middle" x="692.4" y="-119.5" font-family="Helvetica,sans-Serif" font-size="10.00">../misc/IgnoreUnused.h</text>
</a>
</g>
</g>
<!-- Node13&#45;&gt;Node14 -->
<g id="edge18" class="edge">
<title>Node13&#45;&gt;Node14</title>
<path fill="none" stroke="midnightblue" d="M438.25,-168.44C491.59,-158.9 577.84,-143.48 634.83,-133.29"/>
<polygon fill="midnightblue" stroke="midnightblue" points="635.54,-136.72 644.77,-131.52 634.31,-129.83 635.54,-136.72"/>
</g>
<!-- Node15 -->
<g id="node15" class="node">
<title>Node15</title>
<g id="a_node15"><a xlink:title=" ">
<polygon fill="none" stroke="#bfbfbf" points="428.4,-112.5 428.4,-131.5 496.4,-131.5 496.4,-112.5 428.4,-112.5"/>
<text text-anchor="middle" x="462.4" y="-119.5" font-family="Helvetica,sans-Serif" font-size="10.00">filesystem</text>
</a>
</g>
</g>
<!-- Node13&#45;&gt;Node15 -->
<g id="edge23" class="edge">
<title>Node13&#45;&gt;Node15</title>
<path fill="none" stroke="midnightblue" d="M401.96,-168.32C412.82,-160.18 429.28,-147.84 442.28,-138.09"/>
<polygon fill="midnightblue" stroke="midnightblue" points="444.72,-140.63 450.62,-131.83 440.52,-135.03 444.72,-140.63"/>
</g>
<!-- Node16 -->
<g id="node16" class="node">
<title>Node16</title>
<g id="a_node16"><a xlink:href="../../d0/d00/compiler__defs_8h.html" target="_top" xlink:title=" ">
<polygon fill="none" stroke="black" points="276.9,-112.5 276.9,-131.5 371.9,-131.5 371.9,-112.5 276.9,-112.5"/>
<text text-anchor="middle" x="324.4" y="-119.5" font-family="Helvetica,sans-Serif" font-size="10.00">compiler_defs.h</text>
</a>
</g>
</g>
<!-- Node13&#45;&gt;Node16 -->
<g id="edge24" class="edge">
<title>Node13&#45;&gt;Node16</title>
<path fill="none" stroke="midnightblue" d="M379.79,-168.32C369.94,-160.26 355.04,-148.08 343.18,-138.37"/>
<polygon fill="midnightblue" stroke="midnightblue" points="345.15,-135.46 335.19,-131.83 340.72,-140.88 345.15,-135.46"/>
</g>
<!-- Node14&#45;&gt;Node5 -->
<g id="edge19" class="edge">
<title>Node14&#45;&gt;Node5</title>
<path fill="none" stroke="midnightblue" d="M674.01,-112.44C655.18,-103.68 625.66,-89.94 604.02,-79.86"/>
<polygon fill="midnightblue" stroke="midnightblue" points="605.23,-76.56 594.69,-75.52 602.28,-82.91 605.23,-76.56"/>
</g>
<!-- Node14&#45;&gt;Node6 -->
<g id="edge20" class="edge">
<title>Node14&#45;&gt;Node6</title>
<path fill="none" stroke="midnightblue" d="M710.23,-112.32C728.11,-103.62 755.87,-90.12 776.44,-80.11"/>
<polygon fill="midnightblue" stroke="midnightblue" points="778.14,-83.18 785.61,-75.65 775.08,-76.88 778.14,-83.18"/>
</g>
<!-- Node14&#45;&gt;Node12 -->
<g id="edge21" class="edge">
<title>Node14&#45;&gt;Node12</title>
<path fill="none" stroke="midnightblue" d="M686.76,-112.15C677.11,-97.8 655.96,-69.7 630.4,-56 569.53,-23.39 489.9,-13.71 435.94,-11.19"/>
<polygon fill="midnightblue" stroke="midnightblue" points="435.97,-7.69 425.84,-10.78 435.69,-14.68 435.97,-7.69"/>
</g>
<!-- Node16&#45;&gt;Node11 -->
<g id="edge26" class="edge">
<title>Node16&#45;&gt;Node11</title>
<path fill="none" stroke="midnightblue" d="M312.18,-112.32C300.62,-104.11 283.02,-91.6 269.23,-81.81"/>
<polygon fill="midnightblue" stroke="midnightblue" points="271.01,-78.77 260.83,-75.83 266.95,-84.48 271.01,-78.77"/>
</g>
<!-- Node16&#45;&gt;Node12 -->
<g id="edge25" class="edge">
<title>Node16&#45;&gt;Node12</title>
<path fill="none" stroke="midnightblue" d="M328.4,-112.37C336.7,-94.46 355.96,-52.92 367.07,-28.95"/>
<polygon fill="midnightblue" stroke="midnightblue" points="370.38,-30.14 371.41,-19.59 364.03,-27.19 370.38,-30.14"/>
</g>
</g>
</svg>
        <g id="navigator" transform="translate(0 0)" fill="#404254">
                <rect fill="#f2f5e9" fill-opacity="0.5" stroke="#606060" stroke-width=".5" x="0" y="0" width="60" height="60"/>
                <use id="zoomplus" xlink:href="#zoomPlus" x="17" y="9" onmousedown="handleZoom(evt,'in')"/>
                <use id="zoomminus" xlink:href="#zoomMin" x="42" y="9" onmousedown="handleZoom(evt,'out')"/>
                <use id="reset" xlink:href="#resetDef" x="30" y="36" onmousedown="handleReset()"/>
                <g id="arrowUp" xlink:href="#dirArrow" transform="translate(30 24)" onmousedown="handlePan(0,-1)">
                  <use xlink:href="#rim" fill="#404040">
                        <set attributeName="fill" to="#808080" begin="arrowUp.mouseover" end="arrowUp.mouseout"/>
                  </use>
                  <path fill="none" stroke="white" stroke-width="1.5" d="M0,-3.0v7 M-2.5,-0.5L0,-3.0L2.5,-0.5"/>
                </g>
                <g id="arrowRight" xlink:href="#dirArrow" transform="rotate(90) translate(36 -43)" onmousedown="handlePan(1,0)">
                  <use xlink:href="#rim" fill="#404040">
                        <set attributeName="fill" to="#808080" begin="arrowRight.mouseover" end="arrowRight.mouseout"/>
                  </use>
                  <path fill="none" stroke="white" stroke-width="1.5" d="M0,-3.0v7 M-2.5,-0.5L0,-3.0L2.5,-0.5"/>
                </g>
                <g id="arrowDown" xlink:href="#dirArrow" transform="rotate(180) translate(-30 -48)" onmousedown="handlePan(0,1)">
                  <use xlink:href="#rim" fill="#404040">
                        <set attributeName="fill" to="#808080" begin="arrowDown.mouseover" end="arrowDown.mouseout"/>
                  </use>
                  <path fill="none" stroke="white" stroke-width="1.5" d="M0,-3.0v7 M-2.5,-0.5L0,-3.0L2.5,-0.5"/>
                </g>
                <g id="arrowLeft" xlink:href="#dirArrow" transform="rotate(270) translate(-36 17)" onmousedown="handlePan(-1,0)">
                  <use xlink:href="#rim" fill="#404040">
                        <set attributeName="fill" to="#808080" begin="arrowLeft.mouseover" end="arrowLeft.mouseout"/>
                  </use>
                  <path fill="none" stroke="white" stroke-width="1.5" d="M0,-3.0v7 M-2.5,-0.5L0,-3.0L2.5,-0.5"/>
                </g>
        </g>
        <svg viewBox="0 0 15 15" width="100%" height="30px" preserveAspectRatio="xMaxYMin meet">
         <g id="arrow_out" transform="scale(0.3 0.3)">
          <a xlink:href="_memory_pool_allocator_8h__incl_org.svg" target="_base">
           <rect id="button" ry="5" rx="5" y="6" x="6" height="38" width="38"
                fill="#f2f5e9" fill-opacity="0.5" stroke="#606060" stroke-width="1.0"/>
           <path id="arrow"
             d="M 11.500037,31.436501 C 11.940474,20.09759 22.043105,11.32322 32.158766,21.979434 L 37.068811,17.246167 C 37.068811,17.246167 37.088388,32 37.088388,32 L 22.160133,31.978069 C 22.160133,31.978069 26.997745,27.140456 26.997745,27.140456 C 18.528582,18.264221 13.291696,25.230495 11.500037,31.436501 z"
             style="fill:#404040;"/>
          </a>
         </g>
        </svg>
</svg>
