<?xml version="1.0" encoding="UTF-8" standalone="no"?>
<!DOCTYPE svg PUBLIC "-//W3C//DTD SVG 1.1//EN"
 "http://www.w3.org/Graphics/SVG/1.1/DTD/svg11.dtd">
<!-- Generated by graphviz version 2.43.0 (0)
 -->
<!-- Title: cone.h Pages: 1 -->
<!--zoomable 364 -->
<svg id="main" version="1.1" xmlns="http://www.w3.org/2000/svg" xmlns:xlink="http://www.w3.org/1999/xlink" xml:space="preserve" onload="init(evt)">
<style type="text/css"><![CDATA[
.edge:hover path { stroke: red; }
.edge:hover polygon { stroke: red; fill: red; }
]]></style>
<script type="text/javascript"><![CDATA[
var edges = document.getElementsByTagName('g');
if (edges && edges.length) {
  for (var i=0;i<edges.length;i++) {
    if (edges[i].id.substr(0,4)=='edge') {
      edges[i].setAttribute('class','edge');
    }
  }
}
]]></script>
        <defs>
                <circle id="rim" cx="0" cy="0" r="7"/>
                <circle id="rim2" cx="0" cy="0" r="3.5"/>
                <g id="zoomPlus">
                        <use xlink:href="#rim" fill="#404040">
                                <set attributeName="fill" to="#808080" begin="zoomplus.mouseover" end="zoomplus.mouseout"/>
                        </use>
                        <path d="M-4,0h8M0,-4v8" fill="none" stroke="white" stroke-width="1.5" pointer-events="none"/>
                </g>
                <g id="zoomMin">
                        <use xlink:href="#rim" fill="#404040">
                                <set attributeName="fill" to="#808080" begin="zoomminus.mouseover" end="zoomminus.mouseout"/>
                        </use>
                        <path d="M-4,0h8" fill="none" stroke="white" stroke-width="1.5" pointer-events="none"/>
                </g>
                <g id="dirArrow">
                        <path fill="none" stroke="white" stroke-width="1.5" d="M0,-3.0v7 M-2.5,-0.5L0,-3.0L2.5,-0.5"/>
                </g>
               <g id="resetDef">
                       <use xlink:href="#rim2" fill="#404040">
                               <set attributeName="fill" to="#808080" begin="reset.mouseover" end="reset.mouseout"/>
                       </use>
               </g>
        </defs>

<script type="text/javascript">
var viewWidth = 1210;
var viewHeight = 364;
var sectionId = 'dynsection-0';
</script>
<script xlink:href="../../svgpan.js"/>
<svg id="graph" class="graph">
<g id="viewport">
<title>cone.h</title>
<!-- Node1 -->
<g id="node1" class="node">
<title>Node1</title>
<g id="a_node1"><a xlink:title=" ">
<polygon fill="#bfbfbf" stroke="black" points="378.5,-336.5 378.5,-355.5 427.5,-355.5 427.5,-336.5 378.5,-336.5"/>
<text text-anchor="middle" x="403" y="-343.5" font-family="Helvetica,sans-Serif" font-size="10.00">cone.h</text>
</a>
</g>
</g>
<!-- Node2 -->
<g id="node2" class="node">
<title>Node2</title>
<g id="a_node2"><a xlink:href="../../da/d0b/limes__namespace_8h.html" target="_top" xlink:title=" ">
<polygon fill="none" stroke="black" points="129,-56.5 129,-75.5 243,-75.5 243,-56.5 129,-56.5"/>
<text text-anchor="middle" x="186" y="-63.5" font-family="Helvetica,sans-Serif" font-size="10.00">limes_namespace.h</text>
</a>
</g>
</g>
<!-- Node1&#45;&gt;Node2 -->
<g id="edge1" class="edge">
<title>Node1&#45;&gt;Node2</title>
<path fill="none" stroke="midnightblue" d="M378.4,-343.64C290.9,-338.12 0,-313.87 0,-235 0,-235 0,-235 0,-177 0,-118.99 67.86,-90.93 121.6,-77.8"/>
<polygon fill="midnightblue" stroke="midnightblue" points="122.5,-81.18 131.45,-75.52 120.92,-74.36 122.5,-81.18"/>
</g>
<!-- Node3 -->
<g id="node3" class="node">
<title>Node3</title>
<g id="a_node3"><a xlink:title=" ">
<polygon fill="none" stroke="#bfbfbf" points="279.5,-56.5 279.5,-75.5 368.5,-75.5 368.5,-56.5 279.5,-56.5"/>
<text text-anchor="middle" x="324" y="-63.5" font-family="Helvetica,sans-Serif" font-size="10.00">limes_export.h</text>
</a>
</g>
</g>
<!-- Node1&#45;&gt;Node3 -->
<g id="edge2" class="edge">
<title>Node1&#45;&gt;Node3</title>
<path fill="none" stroke="midnightblue" d="M378.44,-339.6C334.73,-328.4 248,-298.19 248,-235 248,-235 248,-235 248,-177 248,-137.28 281.96,-101.5 304.48,-82.15"/>
<polygon fill="midnightblue" stroke="midnightblue" points="306.98,-84.63 312.46,-75.57 302.52,-79.24 306.98,-84.63"/>
</g>
<!-- Node4 -->
<g id="node4" class="node">
<title>Node4</title>
<g id="a_node4"><a xlink:title=" ">
<polygon fill="none" stroke="#bfbfbf" points="943,-0.5 943,-19.5 1043,-19.5 1043,-0.5 943,-0.5"/>
<text text-anchor="middle" x="993" y="-7.5" font-family="Helvetica,sans-Serif" font-size="10.00">limes_platform.h</text>
</a>
</g>
</g>
<!-- Node1&#45;&gt;Node4 -->
<g id="edge3" class="edge">
<title>Node1&#45;&gt;Node4</title>
<path fill="none" stroke="midnightblue" d="M427.79,-344.26C562.65,-339.93 1202,-315.16 1202,-235 1202,-235 1202,-235 1202,-121 1202,-53.22 1114.86,-27.11 1053.12,-17.12"/>
<polygon fill="midnightblue" stroke="midnightblue" points="1053.47,-13.63 1043.06,-15.59 1052.42,-20.55 1053.47,-13.63"/>
</g>
<!-- Node5 -->
<g id="node5" class="node">
<title>Node5</title>
<g id="a_node5"><a xlink:href="../../d3/d53/preprocessor_8h.html" target="_top" xlink:title=" ">
<polygon fill="none" stroke="black" points="975.5,-56.5 975.5,-75.5 1116.5,-75.5 1116.5,-56.5 975.5,-56.5"/>
<text text-anchor="middle" x="1046" y="-63.5" font-family="Helvetica,sans-Serif" font-size="10.00">../../../misc/preprocessor.h</text>
</a>
</g>
</g>
<!-- Node1&#45;&gt;Node5 -->
<g id="edge4" class="edge">
<title>Node1&#45;&gt;Node5</title>
<path fill="none" stroke="midnightblue" d="M427.64,-344.45C511.27,-341.86 790.75,-327.1 1002,-244 1044.1,-227.44 1065.19,-227.64 1087,-188 1103.29,-158.4 1100.39,-143.43 1088,-112 1083.49,-100.55 1074.53,-90.29 1066.05,-82.47"/>
<polygon fill="midnightblue" stroke="midnightblue" points="1068.09,-79.61 1058.21,-75.76 1063.53,-84.93 1068.09,-79.61"/>
</g>
<!-- Node6 -->
<g id="node6" class="node">
<title>Node6</title>
<g id="a_node6"><a xlink:href="../../d3/db6/circle_8h.html" target="_top" xlink:title=" ">
<polygon fill="none" stroke="black" points="364.5,-280.5 364.5,-299.5 441.5,-299.5 441.5,-280.5 364.5,-280.5"/>
<text text-anchor="middle" x="403" y="-287.5" font-family="Helvetica,sans-Serif" font-size="10.00">../2D/circle.h</text>
</a>
</g>
</g>
<!-- Node1&#45;&gt;Node6 -->
<g id="edge6" class="edge">
<title>Node1&#45;&gt;Node6</title>
<path fill="none" stroke="midnightblue" d="M403,-336.08C403,-329.01 403,-318.86 403,-309.99"/>
<polygon fill="midnightblue" stroke="midnightblue" points="406.5,-309.75 403,-299.75 399.5,-309.75 406.5,-309.75"/>
</g>
<!-- Node9 -->
<g id="node9" class="node">
<title>Node9</title>
<g id="a_node9"><a xlink:title=" ">
<polygon fill="none" stroke="#bfbfbf" points="1012.5,-168.5 1012.5,-187.5 1059.5,-187.5 1059.5,-168.5 1012.5,-168.5"/>
<text text-anchor="middle" x="1036" y="-175.5" font-family="Helvetica,sans-Serif" font-size="10.00">cmath</text>
</a>
</g>
</g>
<!-- Node1&#45;&gt;Node9 -->
<g id="edge40" class="edge">
<title>Node1&#45;&gt;Node9</title>
<path fill="none" stroke="midnightblue" d="M427.81,-338.49C526.34,-312.65 890.03,-217.28 1002.58,-187.76"/>
<polygon fill="midnightblue" stroke="midnightblue" points="1003.59,-191.12 1012.37,-185.2 1001.81,-184.35 1003.59,-191.12"/>
</g>
<!-- Node17 -->
<g id="node17" class="node">
<title>Node17</title>
<g id="a_node17"><a xlink:href="../../d7/d88/3_dshape_8h.html" target="_top" xlink:title=" ">
<polygon fill="none" stroke="black" points="66,-112.5 66,-131.5 134,-131.5 134,-112.5 66,-112.5"/>
<text text-anchor="middle" x="100" y="-119.5" font-family="Helvetica,sans-Serif" font-size="10.00">3Dshape.h</text>
</a>
</g>
</g>
<!-- Node1&#45;&gt;Node17 -->
<g id="edge37" class="edge">
<title>Node1&#45;&gt;Node17</title>
<path fill="none" stroke="midnightblue" d="M378.28,-343.43C343.4,-340.18 278.99,-330.22 234,-300 171.39,-257.94 126.2,-176.76 108.38,-140.84"/>
<polygon fill="midnightblue" stroke="midnightblue" points="111.42,-139.09 103.92,-131.61 105.12,-142.14 111.42,-139.09"/>
</g>
<!-- Node5&#45;&gt;Node4 -->
<g id="edge5" class="edge">
<title>Node5&#45;&gt;Node4</title>
<path fill="none" stroke="midnightblue" d="M1037.25,-56.08C1029.53,-48.22 1018.1,-36.57 1008.78,-27.08"/>
<polygon fill="midnightblue" stroke="midnightblue" points="1011.09,-24.44 1001.59,-19.75 1006.1,-29.34 1011.09,-24.44"/>
</g>
<!-- Node6&#45;&gt;Node2 -->
<g id="edge7" class="edge">
<title>Node6&#45;&gt;Node2</title>
<path fill="none" stroke="midnightblue" d="M364.37,-285.07C289.13,-275.07 124.45,-241.14 57,-132 38.61,-102.24 78.56,-85.61 118.74,-76.64"/>
<polygon fill="midnightblue" stroke="midnightblue" points="119.57,-80.04 128.65,-74.58 118.15,-73.19 119.57,-80.04"/>
</g>
<!-- Node6&#45;&gt;Node3 -->
<g id="edge8" class="edge">
<title>Node6&#45;&gt;Node3</title>
<path fill="none" stroke="midnightblue" d="M399.9,-280.3C388.23,-247.49 346.73,-130.88 330.54,-85.38"/>
<polygon fill="midnightblue" stroke="midnightblue" points="333.81,-84.13 327.16,-75.88 327.22,-86.48 333.81,-84.13"/>
</g>
<!-- Node6&#45;&gt;Node4 -->
<g id="edge9" class="edge">
<title>Node6&#45;&gt;Node4</title>
<path fill="none" stroke="midnightblue" d="M441.54,-288.62C556.86,-287.09 897.62,-279.61 1002,-244 1096.73,-211.68 1184.34,-137.33 1126,-56 1109.37,-32.82 1080.14,-21.43 1053.32,-15.89"/>
<polygon fill="midnightblue" stroke="midnightblue" points="1053.65,-12.39 1043.18,-14.04 1052.39,-19.28 1053.65,-12.39"/>
</g>
<!-- Node6&#45;&gt;Node5 -->
<g id="edge13" class="edge">
<title>Node6&#45;&gt;Node5</title>
<path fill="none" stroke="midnightblue" d="M441.56,-289.39C571.06,-289.8 986.85,-283.55 1069,-188 1094.34,-158.53 1072.1,-109.9 1057.07,-84.18"/>
<polygon fill="midnightblue" stroke="midnightblue" points="1059.98,-82.24 1051.78,-75.54 1054.01,-85.89 1059.98,-82.24"/>
</g>
<!-- Node7 -->
<g id="node7" class="node">
<title>Node7</title>
<g id="a_node7"><a xlink:href="../../d8/d23/2_dshape_8h.html" target="_top" xlink:title=" ">
<polygon fill="none" stroke="black" points="152,-112.5 152,-131.5 220,-131.5 220,-112.5 152,-112.5"/>
<text text-anchor="middle" x="186" y="-119.5" font-family="Helvetica,sans-Serif" font-size="10.00">2Dshape.h</text>
</a>
</g>
</g>
<!-- Node6&#45;&gt;Node7 -->
<g id="edge10" class="edge">
<title>Node6&#45;&gt;Node7</title>
<path fill="none" stroke="midnightblue" d="M380.09,-280.35C360.54,-272.42 332.17,-259.56 310,-244 265.07,-212.47 221.19,-164.41 199.69,-139.4"/>
<polygon fill="midnightblue" stroke="midnightblue" points="202.19,-136.95 193.05,-131.59 196.86,-141.48 202.19,-136.95"/>
</g>
<!-- Node8 -->
<g id="node8" class="node">
<title>Node8</title>
<g id="a_node8"><a xlink:href="../../dd/dfb/math_helpers_8h.html" target="_top" xlink:title=" ">
<polygon fill="none" stroke="black" points="428.5,-224.5 428.5,-243.5 535.5,-243.5 535.5,-224.5 428.5,-224.5"/>
<text text-anchor="middle" x="482" y="-231.5" font-family="Helvetica,sans-Serif" font-size="10.00">../../mathHelpers.h</text>
</a>
</g>
</g>
<!-- Node6&#45;&gt;Node8 -->
<g id="edge14" class="edge">
<title>Node6&#45;&gt;Node8</title>
<path fill="none" stroke="midnightblue" d="M415.69,-280.32C427.9,-271.98 446.58,-259.21 461,-249.35"/>
<polygon fill="midnightblue" stroke="midnightblue" points="463.06,-252.19 469.34,-243.65 459.11,-246.41 463.06,-252.19"/>
</g>
<!-- Node7&#45;&gt;Node2 -->
<g id="edge11" class="edge">
<title>Node7&#45;&gt;Node2</title>
<path fill="none" stroke="midnightblue" d="M186,-112.08C186,-105.01 186,-94.86 186,-85.99"/>
<polygon fill="midnightblue" stroke="midnightblue" points="189.5,-85.75 186,-75.75 182.5,-85.75 189.5,-85.75"/>
</g>
<!-- Node7&#45;&gt;Node3 -->
<g id="edge12" class="edge">
<title>Node7&#45;&gt;Node3</title>
<path fill="none" stroke="midnightblue" d="M207.87,-112.44C230.78,-103.48 266.98,-89.31 292.87,-79.18"/>
<polygon fill="midnightblue" stroke="midnightblue" points="294.2,-82.42 302.24,-75.52 291.65,-75.9 294.2,-82.42"/>
</g>
<!-- Node8&#45;&gt;Node2 -->
<g id="edge15" class="edge">
<title>Node8&#45;&gt;Node2</title>
<path fill="none" stroke="midnightblue" d="M457.61,-224.39C435.13,-216.12 401.1,-202.74 373,-188 309.45,-154.68 239.78,-106.09 206.25,-81.88"/>
<polygon fill="midnightblue" stroke="midnightblue" points="207.93,-78.77 197.79,-75.72 203.82,-84.43 207.93,-78.77"/>
</g>
<!-- Node8&#45;&gt;Node3 -->
<g id="edge18" class="edge">
<title>Node8&#45;&gt;Node3</title>
<path fill="none" stroke="midnightblue" d="M481.72,-224.33C480.83,-210.74 477.24,-184.29 463,-168 437.07,-138.34 413.83,-155.22 382,-132 363.56,-118.55 346.7,-98.36 335.97,-84.06"/>
<polygon fill="midnightblue" stroke="midnightblue" points="338.56,-81.67 329.85,-75.64 332.9,-85.79 338.56,-81.67"/>
</g>
<!-- Node8&#45;&gt;Node5 -->
<g id="edge36" class="edge">
<title>Node8&#45;&gt;Node5</title>
<path fill="none" stroke="midnightblue" d="M535.52,-229.52C656.32,-220.64 945.27,-193.38 1018,-132 1031.92,-120.25 1039.11,-100.32 1042.69,-85.62"/>
<polygon fill="midnightblue" stroke="midnightblue" points="1046.16,-86.12 1044.78,-75.62 1039.31,-84.69 1046.16,-86.12"/>
</g>
<!-- Node8&#45;&gt;Node9 -->
<g id="edge16" class="edge">
<title>Node8&#45;&gt;Node9</title>
<path fill="none" stroke="midnightblue" d="M535.8,-230.89C629.99,-226.62 830.65,-214.97 998,-188 999.46,-187.76 1000.96,-187.5 1002.46,-187.22"/>
<polygon fill="midnightblue" stroke="midnightblue" points="1003.31,-190.62 1012.39,-185.15 1001.89,-183.77 1003.31,-190.62"/>
</g>
<!-- Node10 -->
<g id="node10" class="node">
<title>Node10</title>
<g id="a_node10"><a xlink:title=" ">
<polygon fill="none" stroke="#bfbfbf" points="390.5,-112.5 390.5,-131.5 459.5,-131.5 459.5,-112.5 390.5,-112.5"/>
<text text-anchor="middle" x="425" y="-119.5" font-family="Helvetica,sans-Serif" font-size="10.00">type_traits</text>
</a>
</g>
</g>
<!-- Node8&#45;&gt;Node10 -->
<g id="edge17" class="edge">
<title>Node8&#45;&gt;Node10</title>
<path fill="none" stroke="midnightblue" d="M436.35,-224.43C415.76,-218.04 393.33,-207 381,-188 369.69,-170.58 387.45,-150.86 403.67,-137.75"/>
<polygon fill="midnightblue" stroke="midnightblue" points="405.99,-140.38 411.85,-131.55 401.76,-134.8 405.99,-140.38"/>
</g>
<!-- Node11 -->
<g id="node11" class="node">
<title>Node11</title>
<g id="a_node11"><a xlink:title=" ">
<polygon fill="none" stroke="#bfbfbf" points="390,-168.5 390,-187.5 454,-187.5 454,-168.5 390,-168.5"/>
<text text-anchor="middle" x="422" y="-175.5" font-family="Helvetica,sans-Serif" font-size="10.00">algorithm</text>
</a>
</g>
</g>
<!-- Node8&#45;&gt;Node11 -->
<g id="edge19" class="edge">
<title>Node8&#45;&gt;Node11</title>
<path fill="none" stroke="midnightblue" d="M472.36,-224.32C463.49,-216.34 450.13,-204.31 439.39,-194.65"/>
<polygon fill="midnightblue" stroke="midnightblue" points="441.59,-191.92 431.82,-187.83 436.91,-197.13 441.59,-191.92"/>
</g>
<!-- Node12 -->
<g id="node12" class="node">
<title>Node12</title>
<g id="a_node12"><a xlink:href="../../d5/dbb/limes__assert_8h.html" target="_top" xlink:title=" ">
<polygon fill="none" stroke="black" points="596,-168.5 596,-187.5 732,-187.5 732,-168.5 596,-168.5"/>
<text text-anchor="middle" x="664" y="-175.5" font-family="Helvetica,sans-Serif" font-size="10.00">../system/limes_assert.h</text>
</a>
</g>
</g>
<!-- Node8&#45;&gt;Node12 -->
<g id="edge20" class="edge">
<title>Node8&#45;&gt;Node12</title>
<path fill="none" stroke="midnightblue" d="M510.84,-224.44C541.86,-215.24 591.33,-200.56 625.62,-190.39"/>
<polygon fill="midnightblue" stroke="midnightblue" points="626.71,-193.72 635.3,-187.52 624.71,-187.01 626.71,-193.72"/>
</g>
<!-- Node16 -->
<g id="node16" class="node">
<title>Node16</title>
<g id="a_node16"><a xlink:href="../../d0/d00/compiler__defs_8h.html" target="_top" xlink:title=" ">
<polygon fill="none" stroke="black" points="888.5,-112.5 888.5,-131.5 983.5,-131.5 983.5,-112.5 888.5,-112.5"/>
<text text-anchor="middle" x="936" y="-119.5" font-family="Helvetica,sans-Serif" font-size="10.00">compiler_defs.h</text>
</a>
</g>
</g>
<!-- Node8&#45;&gt;Node16 -->
<g id="edge35" class="edge">
<title>Node8&#45;&gt;Node16</title>
<path fill="none" stroke="midnightblue" d="M535.57,-226.08C588.29,-218.72 670.86,-205.68 741,-188 799.76,-173.19 866.38,-149.42 904.56,-135.1"/>
<polygon fill="midnightblue" stroke="midnightblue" points="905.98,-138.31 914.09,-131.5 903.5,-131.76 905.98,-138.31"/>
</g>
<!-- Node12&#45;&gt;Node2 -->
<g id="edge22" class="edge">
<title>Node12&#45;&gt;Node2</title>
<path fill="none" stroke="midnightblue" d="M620.96,-168.43C587.66,-161 540.85,-148.79 502,-132 486.26,-125.2 485.1,-117.9 469,-112 430.49,-97.89 324.18,-83.29 253.39,-74.68"/>
<polygon fill="midnightblue" stroke="midnightblue" points="253.56,-71.17 243.21,-73.45 252.72,-78.12 253.56,-71.17"/>
</g>
<!-- Node12&#45;&gt;Node3 -->
<g id="edge21" class="edge">
<title>Node12&#45;&gt;Node3</title>
<path fill="none" stroke="midnightblue" d="M639.63,-168.38C615.43,-159.68 577.37,-145.63 545,-132 525.57,-123.82 521.86,-119.06 502,-112 461,-97.43 413.1,-85.6 377.33,-77.73"/>
<polygon fill="midnightblue" stroke="midnightblue" points="377.62,-74.22 367.11,-75.52 376.14,-81.06 377.62,-74.22"/>
</g>
<!-- Node12&#45;&gt;Node4 -->
<g id="edge30" class="edge">
<title>Node12&#45;&gt;Node4</title>
<path fill="none" stroke="midnightblue" d="M670.82,-168.27C681.91,-154.59 705.12,-128.02 730,-112 800.07,-66.87 893.38,-37.07 947.95,-22.19"/>
<polygon fill="midnightblue" stroke="midnightblue" points="948.92,-25.55 957.67,-19.58 947.11,-18.79 948.92,-25.55"/>
</g>
<!-- Node12&#45;&gt;Node5 -->
<g id="edge23" class="edge">
<title>Node12&#45;&gt;Node5</title>
<path fill="none" stroke="midnightblue" d="M732.33,-173.53C815.33,-168.3 949.64,-156.33 993,-132 1012.37,-121.13 1027.48,-100.13 1036.53,-84.93"/>
<polygon fill="midnightblue" stroke="midnightblue" points="1039.73,-86.38 1041.58,-75.95 1033.62,-82.95 1039.73,-86.38"/>
</g>
<!-- Node12&#45;&gt;Node10 -->
<g id="edge24" class="edge">
<title>Node12&#45;&gt;Node10</title>
<path fill="none" stroke="midnightblue" d="M626.13,-168.44C583.55,-158.82 514.47,-143.21 469.38,-133.03"/>
<polygon fill="midnightblue" stroke="midnightblue" points="470.11,-129.61 459.59,-130.82 468.57,-136.43 470.11,-129.61"/>
</g>
<!-- Node13 -->
<g id="node13" class="node">
<title>Node13</title>
<g id="a_node13"><a xlink:title=" ">
<polygon fill="none" stroke="#bfbfbf" points="738.5,-112.5 738.5,-131.5 783.5,-131.5 783.5,-112.5 738.5,-112.5"/>
<text text-anchor="middle" x="761" y="-119.5" font-family="Helvetica,sans-Serif" font-size="10.00">utility</text>
</a>
</g>
</g>
<!-- Node12&#45;&gt;Node13 -->
<g id="edge25" class="edge">
<title>Node12&#45;&gt;Node13</title>
<path fill="none" stroke="midnightblue" d="M679.58,-168.32C695,-159.74 718.81,-146.49 736.71,-136.52"/>
<polygon fill="midnightblue" stroke="midnightblue" points="738.42,-139.58 745.45,-131.65 735.01,-133.46 738.42,-139.58"/>
</g>
<!-- Node14 -->
<g id="node14" class="node">
<title>Node14</title>
<g id="a_node14"><a xlink:href="../../d1/d57/_ignore_unused_8h.html" target="_top" xlink:title=" ">
<polygon fill="none" stroke="black" points="554,-112.5 554,-131.5 682,-131.5 682,-112.5 554,-112.5"/>
<text text-anchor="middle" x="618" y="-119.5" font-family="Helvetica,sans-Serif" font-size="10.00">../misc/IgnoreUnused.h</text>
</a>
</g>
</g>
<!-- Node12&#45;&gt;Node14 -->
<g id="edge26" class="edge">
<title>Node12&#45;&gt;Node14</title>
<path fill="none" stroke="midnightblue" d="M656.4,-168.08C649.77,-160.3 639.98,-148.8 631.94,-139.37"/>
<polygon fill="midnightblue" stroke="midnightblue" points="634.6,-137.09 625.45,-131.75 629.27,-141.63 634.6,-137.09"/>
</g>
<!-- Node15 -->
<g id="node15" class="node">
<title>Node15</title>
<g id="a_node15"><a xlink:title=" ">
<polygon fill="none" stroke="#bfbfbf" points="802,-112.5 802,-131.5 870,-131.5 870,-112.5 802,-112.5"/>
<text text-anchor="middle" x="836" y="-119.5" font-family="Helvetica,sans-Serif" font-size="10.00">filesystem</text>
</a>
</g>
</g>
<!-- Node12&#45;&gt;Node15 -->
<g id="edge31" class="edge">
<title>Node12&#45;&gt;Node15</title>
<path fill="none" stroke="midnightblue" d="M691.25,-168.44C720.44,-159.28 766.92,-144.69 799.31,-134.52"/>
<polygon fill="midnightblue" stroke="midnightblue" points="800.38,-137.85 808.87,-131.52 798.28,-131.17 800.38,-137.85"/>
</g>
<!-- Node12&#45;&gt;Node16 -->
<g id="edge32" class="edge">
<title>Node12&#45;&gt;Node16</title>
<path fill="none" stroke="midnightblue" d="M707.1,-168.44C754.85,-158.96 831.86,-143.67 883.19,-133.48"/>
<polygon fill="midnightblue" stroke="midnightblue" points="883.98,-136.9 893.1,-131.52 882.61,-130.03 883.98,-136.9"/>
</g>
<!-- Node14&#45;&gt;Node2 -->
<g id="edge28" class="edge">
<title>Node14&#45;&gt;Node2</title>
<path fill="none" stroke="midnightblue" d="M553.79,-112.97C473.13,-102.89 335.36,-85.67 253.28,-75.41"/>
<polygon fill="midnightblue" stroke="midnightblue" points="253.66,-71.93 243.3,-74.16 252.79,-78.88 253.66,-71.93"/>
</g>
<!-- Node14&#45;&gt;Node3 -->
<g id="edge27" class="edge">
<title>Node14&#45;&gt;Node3</title>
<path fill="none" stroke="midnightblue" d="M571.41,-112.44C519.13,-102.84 434.39,-87.28 378.92,-77.09"/>
<polygon fill="midnightblue" stroke="midnightblue" points="379.39,-73.61 368.92,-75.25 378.12,-80.5 379.39,-73.61"/>
</g>
<!-- Node14&#45;&gt;Node4 -->
<g id="edge29" class="edge">
<title>Node14&#45;&gt;Node4</title>
<path fill="none" stroke="midnightblue" d="M625.6,-112.09C638.47,-97.67 666.1,-69.45 696,-56 772.82,-21.46 870.92,-12.59 932.88,-10.75"/>
<polygon fill="midnightblue" stroke="midnightblue" points="932.97,-14.25 942.88,-10.5 932.8,-7.25 932.97,-14.25"/>
</g>
<!-- Node16&#45;&gt;Node4 -->
<g id="edge33" class="edge">
<title>Node16&#45;&gt;Node4</title>
<path fill="none" stroke="midnightblue" d="M939.8,-112.48C945.45,-99.96 956.52,-75.91 967,-56 971.89,-46.7 977.71,-36.55 982.61,-28.25"/>
<polygon fill="midnightblue" stroke="midnightblue" points="985.7,-29.9 987.81,-19.51 979.69,-26.31 985.7,-29.9"/>
</g>
<!-- Node16&#45;&gt;Node5 -->
<g id="edge34" class="edge">
<title>Node16&#45;&gt;Node5</title>
<path fill="none" stroke="midnightblue" d="M953.67,-112.32C971.39,-103.62 998.9,-90.12 1019.29,-80.11"/>
<polygon fill="midnightblue" stroke="midnightblue" points="1020.94,-83.2 1028.37,-75.65 1017.85,-76.92 1020.94,-83.2"/>
</g>
<!-- Node17&#45;&gt;Node2 -->
<g id="edge38" class="edge">
<title>Node17&#45;&gt;Node2</title>
<path fill="none" stroke="midnightblue" d="M113.82,-112.32C127.23,-103.9 147.82,-90.97 163.59,-81.07"/>
<polygon fill="midnightblue" stroke="midnightblue" points="165.61,-83.94 172.22,-75.65 161.89,-78.01 165.61,-83.94"/>
</g>
<!-- Node17&#45;&gt;Node3 -->
<g id="edge39" class="edge">
<title>Node17&#45;&gt;Node3</title>
<path fill="none" stroke="midnightblue" d="M134.02,-112.8C172.66,-103.48 235.87,-88.24 278.67,-77.93"/>
<polygon fill="midnightblue" stroke="midnightblue" points="279.65,-81.29 288.55,-75.55 278.01,-74.49 279.65,-81.29"/>
</g>
</g>
</svg>
        <g id="navigator" transform="translate(0 0)" fill="#404254">
                <rect fill="#f2f5e9" fill-opacity="0.5" stroke="#606060" stroke-width=".5" x="0" y="0" width="60" height="60"/>
                <use id="zoomplus" xlink:href="#zoomPlus" x="17" y="9" onmousedown="handleZoom(evt,'in')"/>
                <use id="zoomminus" xlink:href="#zoomMin" x="42" y="9" onmousedown="handleZoom(evt,'out')"/>
                <use id="reset" xlink:href="#resetDef" x="30" y="36" onmousedown="handleReset()"/>
                <g id="arrowUp" xlink:href="#dirArrow" transform="translate(30 24)" onmousedown="handlePan(0,-1)">
                  <use xlink:href="#rim" fill="#404040">
                        <set attributeName="fill" to="#808080" begin="arrowUp.mouseover" end="arrowUp.mouseout"/>
                  </use>
                  <path fill="none" stroke="white" stroke-width="1.5" d="M0,-3.0v7 M-2.5,-0.5L0,-3.0L2.5,-0.5"/>
                </g>
                <g id="arrowRight" xlink:href="#dirArrow" transform="rotate(90) translate(36 -43)" onmousedown="handlePan(1,0)">
                  <use xlink:href="#rim" fill="#404040">
                        <set attributeName="fill" to="#808080" begin="arrowRight.mouseover" end="arrowRight.mouseout"/>
                  </use>
                  <path fill="none" stroke="white" stroke-width="1.5" d="M0,-3.0v7 M-2.5,-0.5L0,-3.0L2.5,-0.5"/>
                </g>
                <g id="arrowDown" xlink:href="#dirArrow" transform="rotate(180) translate(-30 -48)" onmousedown="handlePan(0,1)">
                  <use xlink:href="#rim" fill="#404040">
                        <set attributeName="fill" to="#808080" begin="arrowDown.mouseover" end="arrowDown.mouseout"/>
                  </use>
                  <path fill="none" stroke="white" stroke-width="1.5" d="M0,-3.0v7 M-2.5,-0.5L0,-3.0L2.5,-0.5"/>
                </g>
                <g id="arrowLeft" xlink:href="#dirArrow" transform="rotate(270) translate(-36 17)" onmousedown="handlePan(-1,0)">
                  <use xlink:href="#rim" fill="#404040">
                        <set attributeName="fill" to="#808080" begin="arrowLeft.mouseover" end="arrowLeft.mouseout"/>
                  </use>
                  <path fill="none" stroke="white" stroke-width="1.5" d="M0,-3.0v7 M-2.5,-0.5L0,-3.0L2.5,-0.5"/>
                </g>
        </g>
        <svg viewBox="0 0 15 15" width="100%" height="30px" preserveAspectRatio="xMaxYMin meet">
         <g id="arrow_out" transform="scale(0.3 0.3)">
          <a xlink:href="cone_8h__incl_org.svg" target="_base">
           <rect id="button" ry="5" rx="5" y="6" x="6" height="38" width="38"
                fill="#f2f5e9" fill-opacity="0.5" stroke="#606060" stroke-width="1.0"/>
           <path id="arrow"
             d="M 11.500037,31.436501 C 11.940474,20.09759 22.043105,11.32322 32.158766,21.979434 L 37.068811,17.246167 C 37.068811,17.246167 37.088388,32 37.088388,32 L 22.160133,31.978069 C 22.160133,31.978069 26.997745,27.140456 26.997745,27.140456 C 18.528582,18.264221 13.291696,25.230495 11.500037,31.436501 z"
             style="fill:#404040;"/>
          </a>
         </g>
        </svg>
</svg>
