<?xml version="1.0" encoding="UTF-8" standalone="no"?>
<!DOCTYPE svg PUBLIC "-//W3C//DTD SVG 1.1//EN"
 "http://www.w3.org/Graphics/SVG/1.1/DTD/svg11.dtd">
<!-- Generated by graphviz version 2.43.0 (0)
 -->
<!-- Title: cone.h Pages: 1 -->
<svg width="814pt" height="319pt"
 viewBox="0.00 0.00 814.47 319.00" xmlns="http://www.w3.org/2000/svg" xmlns:xlink="http://www.w3.org/1999/xlink">
<g id="graph0" class="graph" transform="scale(1 1) rotate(0) translate(4 315)">
<title>cone.h</title>
<!-- Node1 -->
<g id="node1" class="node">
<title>Node1</title>
<g id="a_node1"><a xlink:title=" ">
<polygon fill="#bfbfbf" stroke="black" points="137.5,-291.5 137.5,-310.5 186.5,-310.5 186.5,-291.5 137.5,-291.5"/>
<text text-anchor="middle" x="162" y="-298.5" font-family="Helvetica,sans-Serif" font-size="10.00">cone.h</text>
</a>
</g>
</g>
<!-- Node2 -->
<g id="node2" class="node">
<title>Node2</title>
<g id="a_node2"><a xlink:href="../../da/d0b/limes__namespace_8h.html" target="_top" xlink:title=" ">
<polygon fill="none" stroke="black" points="140,-56.5 140,-75.5 254,-75.5 254,-56.5 140,-56.5"/>
<text text-anchor="middle" x="197" y="-63.5" font-family="Helvetica,sans-Serif" font-size="10.00">limes_namespace.h</text>
</a>
</g>
</g>
<!-- Node1&#45;&gt;Node2 -->
<g id="edge1" class="edge">
<title>Node1&#45;&gt;Node2</title>
<path fill="none" stroke="midnightblue" d="M144.34,-291.46C110.98,-273.98 43.2,-231.31 57,-179 65.73,-145.9 69.61,-134.96 95,-112 111.82,-96.79 134.62,-86.07 154.4,-78.92"/>
<polygon fill="midnightblue" stroke="midnightblue" points="155.79,-82.15 164.12,-75.6 153.52,-75.52 155.79,-82.15"/>
</g>
<!-- Node3 -->
<g id="node3" class="node">
<title>Node3</title>
<g id="a_node3"><a xlink:title=" ">
<polygon fill="none" stroke="#bfbfbf" points="152.5,-118 152.5,-137 241.5,-137 241.5,-118 152.5,-118"/>
<text text-anchor="middle" x="197" y="-125" font-family="Helvetica,sans-Serif" font-size="10.00">limes_export.h</text>
</a>
</g>
</g>
<!-- Node1&#45;&gt;Node3 -->
<g id="edge2" class="edge">
<title>Node1&#45;&gt;Node3</title>
<path fill="none" stroke="midnightblue" d="M163.78,-291.26C169.24,-264.54 185.77,-183.52 193.25,-146.86"/>
<polygon fill="midnightblue" stroke="midnightblue" points="196.69,-147.52 195.26,-137.02 189.83,-146.12 196.69,-147.52"/>
</g>
<!-- Node4 -->
<g id="node4" class="node">
<title>Node4</title>
<g id="a_node4"><a xlink:title=" ">
<polygon fill="none" stroke="#bfbfbf" points="618,-0.5 618,-19.5 718,-19.5 718,-0.5 618,-0.5"/>
<text text-anchor="middle" x="668" y="-7.5" font-family="Helvetica,sans-Serif" font-size="10.00">limes_platform.h</text>
</a>
</g>
</g>
<!-- Node1&#45;&gt;Node4 -->
<g id="edge3" class="edge">
<title>Node1&#45;&gt;Node4</title>
<path fill="none" stroke="midnightblue" d="M137.4,-295.21C92.08,-284.81 0,-255.61 0,-190 0,-190 0,-190 0,-126.5 0,-60.38 67.62,-74.82 131,-56 218.8,-29.93 486.41,-17.41 607.43,-12.97"/>
<polygon fill="midnightblue" stroke="midnightblue" points="607.77,-16.46 617.63,-12.6 607.51,-9.46 607.77,-16.46"/>
</g>
<!-- Node5 -->
<g id="node5" class="node">
<title>Node5</title>
<g id="a_node5"><a xlink:href="../../d3/d53/preprocessor_8h.html" target="_top" xlink:title=" ">
<polygon fill="none" stroke="black" points="647.5,-56.5 647.5,-75.5 788.5,-75.5 788.5,-56.5 647.5,-56.5"/>
<text text-anchor="middle" x="718" y="-63.5" font-family="Helvetica,sans-Serif" font-size="10.00">../../../misc/preprocessor.h</text>
</a>
</g>
</g>
<!-- Node1&#45;&gt;Node5 -->
<g id="edge4" class="edge">
<title>Node1&#45;&gt;Node5</title>
<path fill="none" stroke="midnightblue" d="M186.52,-298.01C237.66,-293.47 359.15,-280.73 458,-255 595.33,-219.25 676.15,-259.62 757,-143 770.58,-123.41 751.74,-98.47 735.83,-82.61"/>
<polygon fill="midnightblue" stroke="midnightblue" points="738.09,-79.93 728.42,-75.62 733.29,-85.03 738.09,-79.93"/>
</g>
<!-- Node6 -->
<g id="node6" class="node">
<title>Node6</title>
<g id="a_node6"><a xlink:href="../../d3/db6/circle_8h.html" target="_top" xlink:title=" ">
<polygon fill="none" stroke="black" points="261.5,-235.5 261.5,-254.5 338.5,-254.5 338.5,-235.5 261.5,-235.5"/>
<text text-anchor="middle" x="300" y="-242.5" font-family="Helvetica,sans-Serif" font-size="10.00">../2D/circle.h</text>
</a>
</g>
</g>
<!-- Node1&#45;&gt;Node6 -->
<g id="edge6" class="edge">
<title>Node1&#45;&gt;Node6</title>
<path fill="none" stroke="midnightblue" d="M183.87,-291.44C206.78,-282.48 242.98,-268.31 268.87,-258.18"/>
<polygon fill="midnightblue" stroke="midnightblue" points="270.2,-261.42 278.24,-254.52 267.65,-254.9 270.2,-261.42"/>
</g>
<!-- Node12 -->
<g id="node12" class="node">
<title>Node12</title>
<g id="a_node12"><a xlink:title=" ">
<polygon fill="none" stroke="#bfbfbf" points="459.5,-56.5 459.5,-75.5 506.5,-75.5 506.5,-56.5 459.5,-56.5"/>
<text text-anchor="middle" x="483" y="-63.5" font-family="Helvetica,sans-Serif" font-size="10.00">cmath</text>
</a>
</g>
</g>
<!-- Node1&#45;&gt;Node12 -->
<g id="edge28" class="edge">
<title>Node1&#45;&gt;Node12</title>
<path fill="none" stroke="midnightblue" d="M186.62,-299.99C261.4,-298.4 485.19,-281.86 558,-143 564.4,-130.8 564.79,-123.99 558,-112 548.95,-96.02 531.72,-85.1 516.06,-78.02"/>
<polygon fill="midnightblue" stroke="midnightblue" points="517.17,-74.69 506.59,-74.1 514.49,-81.16 517.17,-74.69"/>
</g>
<!-- Node18 -->
<g id="node13" class="node">
<title>Node18</title>
<g id="a_node13"><a xlink:href="../../d7/d88/3_dshape_8h.html" target="_top" xlink:title=" ">
<polygon fill="none" stroke="black" points="66,-179.5 66,-198.5 134,-198.5 134,-179.5 66,-179.5"/>
<text text-anchor="middle" x="100" y="-186.5" font-family="Helvetica,sans-Serif" font-size="10.00">3Dshape.h</text>
</a>
</g>
</g>
<!-- Node1&#45;&gt;Node18 -->
<g id="edge25" class="edge">
<title>Node1&#45;&gt;Node18</title>
<path fill="none" stroke="midnightblue" d="M157.13,-291.37C146.95,-273.3 123.21,-231.18 109.76,-207.31"/>
<polygon fill="midnightblue" stroke="midnightblue" points="112.8,-205.58 104.84,-198.59 106.7,-209.02 112.8,-205.58"/>
</g>
<!-- Node5&#45;&gt;Node4 -->
<g id="edge5" class="edge">
<title>Node5&#45;&gt;Node4</title>
<path fill="none" stroke="midnightblue" d="M709.74,-56.08C702.54,-48.3 691.89,-36.8 683.15,-27.37"/>
<polygon fill="midnightblue" stroke="midnightblue" points="685.47,-24.71 676.1,-19.75 680.33,-29.47 685.47,-24.71"/>
</g>
<!-- Node6&#45;&gt;Node2 -->
<g id="edge7" class="edge">
<title>Node6&#45;&gt;Node2</title>
<path fill="none" stroke="midnightblue" d="M272.4,-235.41C235.41,-222.25 171.28,-193.17 144,-143 137.42,-130.9 138.21,-124.5 144,-112 149.92,-99.21 161.47,-88.72 172.28,-81.1"/>
<polygon fill="midnightblue" stroke="midnightblue" points="174.21,-84.02 180.67,-75.61 170.38,-78.16 174.21,-84.02"/>
</g>
<!-- Node6&#45;&gt;Node3 -->
<g id="edge8" class="edge">
<title>Node6&#45;&gt;Node3</title>
<path fill="none" stroke="midnightblue" d="M291.28,-235.18C282.48,-226.21 268.58,-211.84 257,-199 240.78,-181.01 222.86,-159.77 210.86,-145.34"/>
<polygon fill="midnightblue" stroke="midnightblue" points="213.3,-142.79 204.23,-137.32 207.91,-147.26 213.3,-142.79"/>
</g>
<!-- Node6&#45;&gt;Node4 -->
<g id="edge9" class="edge">
<title>Node6&#45;&gt;Node4</title>
<path fill="none" stroke="midnightblue" d="M338.77,-244.51C406.78,-244.26 551.18,-238.59 665,-199 710.21,-183.27 723.11,-176.81 757,-143 787.26,-112.81 822.79,-90.82 798,-56 781.97,-33.49 753.87,-22.13 727.89,-16.45"/>
<polygon fill="midnightblue" stroke="midnightblue" points="728.55,-13.01 718.06,-14.54 727.21,-19.88 728.55,-13.01"/>
</g>
<!-- Node6&#45;&gt;Node5 -->
<g id="edge13" class="edge">
<title>Node6&#45;&gt;Node5</title>
<path fill="none" stroke="midnightblue" d="M338.75,-241.11C436.68,-232.94 689.83,-205.99 740,-143 753.57,-125.96 741.88,-100.85 731.02,-84.22"/>
<polygon fill="midnightblue" stroke="midnightblue" points="733.84,-82.15 725.24,-75.96 728.1,-86.16 733.84,-82.15"/>
</g>
<!-- Node7 -->
<g id="node7" class="node">
<title>Node7</title>
<g id="a_node7"><a xlink:href="../../d8/d23/2_dshape_8h.html" target="_top" xlink:title=" ">
<polygon fill="none" stroke="black" points="266,-179.5 266,-198.5 334,-198.5 334,-179.5 266,-179.5"/>
<text text-anchor="middle" x="300" y="-186.5" font-family="Helvetica,sans-Serif" font-size="10.00">2Dshape.h</text>
</a>
</g>
</g>
<!-- Node6&#45;&gt;Node7 -->
<g id="edge10" class="edge">
<title>Node6&#45;&gt;Node7</title>
<path fill="none" stroke="midnightblue" d="M300,-235.08C300,-228.01 300,-217.86 300,-208.99"/>
<polygon fill="midnightblue" stroke="midnightblue" points="303.5,-208.75 300,-198.75 296.5,-208.75 303.5,-208.75"/>
</g>
<!-- Node8 -->
<g id="node8" class="node">
<title>Node8</title>
<g id="a_node8"><a xlink:href="../../dc/d5c/math_functions_8h.html" target="_top" xlink:title=" ">
<polygon fill="none" stroke="black" points="352,-179.5 352,-198.5 468,-198.5 468,-179.5 352,-179.5"/>
<text text-anchor="middle" x="410" y="-186.5" font-family="Helvetica,sans-Serif" font-size="10.00">../../mathFunctions.h</text>
</a>
</g>
</g>
<!-- Node6&#45;&gt;Node8 -->
<g id="edge14" class="edge">
<title>Node6&#45;&gt;Node8</title>
<path fill="none" stroke="midnightblue" d="M317.67,-235.32C335.39,-226.62 362.9,-213.12 383.29,-203.11"/>
<polygon fill="midnightblue" stroke="midnightblue" points="384.94,-206.2 392.37,-198.65 381.85,-199.92 384.94,-206.2"/>
</g>
<!-- Node7&#45;&gt;Node2 -->
<g id="edge11" class="edge">
<title>Node7&#45;&gt;Node2</title>
<path fill="none" stroke="midnightblue" d="M295.6,-179.44C287.82,-164.73 270.56,-134.1 251,-112 241.14,-100.86 228.43,-90.13 217.82,-81.94"/>
<polygon fill="midnightblue" stroke="midnightblue" points="219.61,-78.91 209.51,-75.71 215.41,-84.51 219.61,-78.91"/>
</g>
<!-- Node7&#45;&gt;Node3 -->
<g id="edge12" class="edge">
<title>Node7&#45;&gt;Node3</title>
<path fill="none" stroke="midnightblue" d="M285.24,-179.48C268.34,-169.71 240.42,-153.58 220.51,-142.08"/>
<polygon fill="midnightblue" stroke="midnightblue" points="222.14,-138.98 211.73,-137.01 218.64,-145.04 222.14,-138.98"/>
</g>
<!-- Node8&#45;&gt;Node2 -->
<g id="edge15" class="edge">
<title>Node8&#45;&gt;Node2</title>
<path fill="none" stroke="midnightblue" d="M393.88,-179.37C377.27,-170.44 350.69,-155.98 328,-143 304.65,-129.64 299.25,-125.55 276,-112 257.7,-101.34 236.89,-89.49 221.22,-80.63"/>
<polygon fill="midnightblue" stroke="midnightblue" points="222.62,-77.41 212.2,-75.54 219.18,-83.5 222.62,-77.41"/>
</g>
<!-- Node8&#45;&gt;Node3 -->
<g id="edge17" class="edge">
<title>Node8&#45;&gt;Node3</title>
<path fill="none" stroke="midnightblue" d="M379.48,-179.48C342.08,-169.03 278.57,-151.29 237.21,-139.73"/>
<polygon fill="midnightblue" stroke="midnightblue" points="238.03,-136.33 227.46,-137.01 236.15,-143.07 238.03,-136.33"/>
</g>
<!-- Node8&#45;&gt;Node5 -->
<g id="edge21" class="edge">
<title>Node8&#45;&gt;Node5</title>
<path fill="none" stroke="midnightblue" d="M468.35,-183.67C554.05,-176.71 705.65,-161.87 722,-143 735.61,-127.29 730.98,-102.18 725.39,-85.16"/>
<polygon fill="midnightblue" stroke="midnightblue" points="728.67,-83.95 721.94,-75.77 722.1,-86.36 728.67,-83.95"/>
</g>
<!-- Node9 -->
<g id="node9" class="node">
<title>Node9</title>
<g id="a_node9"><a xlink:title=" ">
<polygon fill="none" stroke="#bfbfbf" points="479.5,-118 479.5,-137 548.5,-137 548.5,-118 479.5,-118"/>
<text text-anchor="middle" x="514" y="-125" font-family="Helvetica,sans-Serif" font-size="10.00">type_traits</text>
</a>
</g>
</g>
<!-- Node8&#45;&gt;Node9 -->
<g id="edge16" class="edge">
<title>Node8&#45;&gt;Node9</title>
<path fill="none" stroke="midnightblue" d="M424.9,-179.48C441.97,-169.71 470.16,-153.58 490.26,-142.08"/>
<polygon fill="midnightblue" stroke="midnightblue" points="492.19,-145.01 499.13,-137.01 488.71,-138.94 492.19,-145.01"/>
</g>
<!-- Node10 -->
<g id="node10" class="node">
<title>Node10</title>
<g id="a_node10"><a xlink:href="../../d0/d00/compiler__defs_8h.html" target="_top" xlink:title=" ">
<polygon fill="none" stroke="black" points="605.5,-112.5 605.5,-142.5 712.5,-142.5 712.5,-112.5 605.5,-112.5"/>
<text text-anchor="start" x="613.5" y="-130.5" font-family="Helvetica,sans-Serif" font-size="10.00">../system/compiler</text>
<text text-anchor="middle" x="659" y="-119.5" font-family="Helvetica,sans-Serif" font-size="10.00">_defs.h</text>
</a>
</g>
</g>
<!-- Node8&#45;&gt;Node10 -->
<g id="edge18" class="edge">
<title>Node8&#45;&gt;Node10</title>
<path fill="none" stroke="midnightblue" d="M445.68,-179.48C484.59,-170.18 547.68,-155.1 595.17,-143.75"/>
<polygon fill="midnightblue" stroke="midnightblue" points="596.14,-147.12 605.05,-141.39 594.51,-140.31 596.14,-147.12"/>
</g>
<!-- Node11 -->
<g id="node11" class="node">
<title>Node11</title>
<g id="a_node11"><a xlink:href="../../dc/d9b/math_functions__impl_8h.html" target="_top" xlink:title=" ">
<polygon fill="none" stroke="red" points="336.5,-118 336.5,-137 461.5,-137 461.5,-118 336.5,-118"/>
<text text-anchor="middle" x="399" y="-125" font-family="Helvetica,sans-Serif" font-size="10.00">mathFunctions_impl.h</text>
</a>
</g>
</g>
<!-- Node8&#45;&gt;Node11 -->
<g id="edge22" class="edge">
<title>Node8&#45;&gt;Node11</title>
<path fill="none" stroke="midnightblue" d="M408.42,-179.48C406.87,-171.08 404.45,-157.98 402.45,-147.16"/>
<polygon fill="midnightblue" stroke="midnightblue" points="405.83,-146.21 400.57,-137.01 398.95,-147.48 405.83,-146.21"/>
</g>
<!-- Node10&#45;&gt;Node4 -->
<g id="edge19" class="edge">
<title>Node10&#45;&gt;Node4</title>
<path fill="none" stroke="midnightblue" d="M650.25,-112.43C642.5,-98.19 633.25,-75.53 639,-56 642.01,-45.76 648.15,-35.66 654.01,-27.63"/>
<polygon fill="midnightblue" stroke="midnightblue" points="656.93,-29.58 660.33,-19.54 651.41,-25.27 656.93,-29.58"/>
</g>
<!-- Node10&#45;&gt;Node5 -->
<g id="edge20" class="edge">
<title>Node10&#45;&gt;Node5</title>
<path fill="none" stroke="midnightblue" d="M672.98,-112.4C681.73,-103.58 693.03,-92.18 702.12,-83.02"/>
<polygon fill="midnightblue" stroke="midnightblue" points="704.86,-85.22 709.41,-75.66 699.89,-80.29 704.86,-85.22"/>
</g>
<!-- Node11&#45;&gt;Node2 -->
<g id="edge23" class="edge">
<title>Node11&#45;&gt;Node2</title>
<path fill="none" stroke="midnightblue" d="M370.06,-117.98C334.73,-107.57 274.87,-89.94 235.64,-78.38"/>
<polygon fill="midnightblue" stroke="midnightblue" points="236.47,-74.98 225.89,-75.51 234.49,-81.69 236.47,-74.98"/>
</g>
<!-- Node11&#45;&gt;Node12 -->
<g id="edge24" class="edge">
<title>Node11&#45;&gt;Node12</title>
<path fill="none" stroke="midnightblue" d="M411.04,-117.98C424.51,-108.43 446.57,-92.81 462.72,-81.37"/>
<polygon fill="midnightblue" stroke="midnightblue" points="464.85,-84.15 470.99,-75.51 460.8,-78.43 464.85,-84.15"/>
</g>
<!-- Node18&#45;&gt;Node2 -->
<g id="edge26" class="edge">
<title>Node18&#45;&gt;Node2</title>
<path fill="none" stroke="midnightblue" d="M98.7,-179.1C96.97,-163.87 95.62,-132.48 110,-112 120.78,-96.64 138.43,-86.16 155.03,-79.21"/>
<polygon fill="midnightblue" stroke="midnightblue" points="156.55,-82.38 164.62,-75.52 154.03,-75.85 156.55,-82.38"/>
</g>
<!-- Node18&#45;&gt;Node3 -->
<g id="edge27" class="edge">
<title>Node18&#45;&gt;Node3</title>
<path fill="none" stroke="midnightblue" d="M113.9,-179.48C129.67,-169.8 155.64,-153.87 174.35,-142.39"/>
<polygon fill="midnightblue" stroke="midnightblue" points="176.43,-145.22 183.13,-137.01 172.77,-139.25 176.43,-145.22"/>
</g>
</g>
</svg>
