<?xml version="1.0" encoding="UTF-8" standalone="no"?>
<!DOCTYPE svg PUBLIC "-//W3C//DTD SVG 1.1//EN"
 "http://www.w3.org/Graphics/SVG/1.1/DTD/svg11.dtd">
<!-- Generated by graphviz version 2.43.0 (0)
 -->
<!-- Title: cone.h Pages: 1 -->
<svg width="1260pt" height="431pt"
 viewBox="0.00 0.00 1260.00 431.00" xmlns="http://www.w3.org/2000/svg" xmlns:xlink="http://www.w3.org/1999/xlink">
<g id="graph0" class="graph" transform="scale(1 1) rotate(0) translate(4 427)">
<title>cone.h</title>
<!-- Node1 -->
<g id="node1" class="node">
<title>Node1</title>
<g id="a_node1"><a xlink:title=" ">
<polygon fill="#bfbfbf" stroke="black" points="1048.5,-403.5 1048.5,-422.5 1097.5,-422.5 1097.5,-403.5 1048.5,-403.5"/>
<text text-anchor="middle" x="1073" y="-410.5" font-family="Helvetica,sans-Serif" font-size="10.00">cone.h</text>
</a>
</g>
</g>
<!-- Node2 -->
<g id="node2" class="node">
<title>Node2</title>
<g id="a_node2"><a xlink:href="../../da/d0b/limes__namespace_8h.html" target="_top" xlink:title=" ">
<polygon fill="none" stroke="black" points="630,-56.5 630,-75.5 744,-75.5 744,-56.5 630,-56.5"/>
<text text-anchor="middle" x="687" y="-63.5" font-family="Helvetica,sans-Serif" font-size="10.00">limes_namespace.h</text>
</a>
</g>
</g>
<!-- Node1&#45;&gt;Node2 -->
<g id="edge1" class="edge">
<title>Node1&#45;&gt;Node2</title>
<path fill="none" stroke="midnightblue" d="M1077.18,-403.29C1096.07,-362.57 1168.74,-189.74 1081,-112 1057.09,-90.82 860.82,-76.7 754.63,-70.53"/>
<polygon fill="midnightblue" stroke="midnightblue" points="754.51,-67.02 744.33,-69.94 754.11,-74.01 754.51,-67.02"/>
</g>
<!-- Node3 -->
<g id="node3" class="node">
<title>Node3</title>
<g id="a_node3"><a xlink:title=" ">
<polygon fill="none" stroke="#bfbfbf" points="131.5,-56.5 131.5,-75.5 220.5,-75.5 220.5,-56.5 131.5,-56.5"/>
<text text-anchor="middle" x="176" y="-63.5" font-family="Helvetica,sans-Serif" font-size="10.00">limes_export.h</text>
</a>
</g>
</g>
<!-- Node1&#45;&gt;Node3 -->
<g id="edge2" class="edge">
<title>Node1&#45;&gt;Node3</title>
<path fill="none" stroke="midnightblue" d="M1048.32,-412.14C887.9,-412.72 0,-411.02 0,-302 0,-302 0,-302 0,-188 0,-126.17 74.68,-93.55 126.74,-78.32"/>
<polygon fill="midnightblue" stroke="midnightblue" points="127.82,-81.65 136.5,-75.59 125.93,-74.91 127.82,-81.65"/>
</g>
<!-- Node4 -->
<g id="node4" class="node">
<title>Node4</title>
<g id="a_node4"><a xlink:title=" ">
<polygon fill="none" stroke="#bfbfbf" points="710,-0.5 710,-19.5 810,-19.5 810,-0.5 710,-0.5"/>
<text text-anchor="middle" x="760" y="-7.5" font-family="Helvetica,sans-Serif" font-size="10.00">limes_platform.h</text>
</a>
</g>
</g>
<!-- Node1&#45;&gt;Node4 -->
<g id="edge3" class="edge">
<title>Node1&#45;&gt;Node4</title>
<path fill="none" stroke="midnightblue" d="M1097.51,-408.55C1146.54,-400.13 1252,-373.67 1252,-302 1252,-302 1252,-302 1252,-126.5 1252,-38.83 952.19,-17.65 820.65,-12.58"/>
<polygon fill="midnightblue" stroke="midnightblue" points="820.46,-9.07 810.34,-12.2 820.21,-16.07 820.46,-9.07"/>
</g>
<!-- Node5 -->
<g id="node5" class="node">
<title>Node5</title>
<g id="a_node5"><a xlink:href="../../d3/d53/preprocessor_8h.html" target="_top" xlink:title=" ">
<polygon fill="none" stroke="black" points="1007.5,-56.5 1007.5,-75.5 1148.5,-75.5 1148.5,-56.5 1007.5,-56.5"/>
<text text-anchor="middle" x="1078" y="-63.5" font-family="Helvetica,sans-Serif" font-size="10.00">../../../misc/preprocessor.h</text>
</a>
</g>
</g>
<!-- Node1&#45;&gt;Node5 -->
<g id="edge4" class="edge">
<title>Node1&#45;&gt;Node5</title>
<path fill="none" stroke="midnightblue" d="M1097.56,-405.19C1137.96,-392.33 1214,-360.37 1214,-302 1214,-302 1214,-302 1214,-188 1214,-133.11 1151.4,-97.01 1111.14,-79.46"/>
<polygon fill="midnightblue" stroke="midnightblue" points="1112.27,-76.14 1101.69,-75.5 1109.56,-82.59 1112.27,-76.14"/>
</g>
<!-- Node6 -->
<g id="node6" class="node">
<title>Node6</title>
<g id="a_node6"><a xlink:href="../../d3/db6/circle_8h.html" target="_top" xlink:title=" ">
<polygon fill="none" stroke="black" points="636.5,-347.5 636.5,-366.5 713.5,-366.5 713.5,-347.5 636.5,-347.5"/>
<text text-anchor="middle" x="675" y="-354.5" font-family="Helvetica,sans-Serif" font-size="10.00">../2D/circle.h</text>
</a>
</g>
</g>
<!-- Node1&#45;&gt;Node6 -->
<g id="edge6" class="edge">
<title>Node1&#45;&gt;Node6</title>
<path fill="none" stroke="midnightblue" d="M1048.4,-408.66C983.99,-399.92 809.46,-376.24 723.78,-364.62"/>
<polygon fill="midnightblue" stroke="midnightblue" points="724.17,-361.14 713.79,-363.26 723.23,-368.08 724.17,-361.14"/>
</g>
<!-- Node12 -->
<g id="node12" class="node">
<title>Node12</title>
<g id="a_node12"><a xlink:title=" ">
<polygon fill="none" stroke="#bfbfbf" points="1040.5,-179.5 1040.5,-198.5 1087.5,-198.5 1087.5,-179.5 1040.5,-179.5"/>
<text text-anchor="middle" x="1064" y="-186.5" font-family="Helvetica,sans-Serif" font-size="10.00">cmath</text>
</a>
</g>
</g>
<!-- Node1&#45;&gt;Node12 -->
<g id="edge42" class="edge">
<title>Node1&#45;&gt;Node12</title>
<path fill="none" stroke="midnightblue" d="M1072.65,-403.3C1071.32,-370.63 1066.63,-254.87 1064.77,-208.96"/>
<polygon fill="midnightblue" stroke="midnightblue" points="1068.26,-208.73 1064.36,-198.88 1061.27,-209.02 1068.26,-208.73"/>
</g>
<!-- Node18 -->
<g id="node18" class="node">
<title>Node18</title>
<g id="a_node18"><a xlink:href="../../d7/d88/3_dshape_8h.html" target="_top" xlink:title=" ">
<polygon fill="none" stroke="black" points="142,-118 142,-137 210,-137 210,-118 142,-118"/>
<text text-anchor="middle" x="176" y="-125" font-family="Helvetica,sans-Serif" font-size="10.00">3Dshape.h</text>
</a>
</g>
</g>
<!-- Node1&#45;&gt;Node18 -->
<g id="edge39" class="edge">
<title>Node1&#45;&gt;Node18</title>
<path fill="none" stroke="midnightblue" d="M1048.28,-410.75C966.87,-406.43 707.82,-391.09 628,-367 449.04,-312.98 258.5,-186.34 196.65,-143.2"/>
<polygon fill="midnightblue" stroke="midnightblue" points="198.36,-140.12 188.16,-137.23 194.33,-145.85 198.36,-140.12"/>
</g>
<!-- Node5&#45;&gt;Node4 -->
<g id="edge5" class="edge">
<title>Node5&#45;&gt;Node4</title>
<path fill="none" stroke="midnightblue" d="M1027.61,-56.44C971.32,-46.89 880.25,-31.42 820.24,-21.23"/>
<polygon fill="midnightblue" stroke="midnightblue" points="820.6,-17.74 810.15,-19.52 819.43,-24.64 820.6,-17.74"/>
</g>
<!-- Node6&#45;&gt;Node2 -->
<g id="edge7" class="edge">
<title>Node6&#45;&gt;Node2</title>
<path fill="none" stroke="midnightblue" d="M697.49,-347.46C731.95,-333.29 797.81,-301.78 836,-255 852.81,-234.41 852.26,-225.15 857,-199 864,-160.39 868.87,-140.6 842,-112 819.5,-88.06 785.1,-76.61 754.42,-71.23"/>
<polygon fill="midnightblue" stroke="midnightblue" points="754.6,-67.71 744.18,-69.63 753.52,-74.63 754.6,-67.71"/>
</g>
<!-- Node6&#45;&gt;Node3 -->
<g id="edge8" class="edge">
<title>Node6&#45;&gt;Node3</title>
<path fill="none" stroke="midnightblue" d="M636.26,-356.27C528.3,-356.49 226.19,-353.2 138,-311 101.99,-293.77 76,-285.92 76,-246 76,-246 76,-246 76,-188 76,-140.09 123.16,-100.91 152.71,-81.08"/>
<polygon fill="midnightblue" stroke="midnightblue" points="154.75,-83.92 161.24,-75.55 150.95,-78.05 154.75,-83.92"/>
</g>
<!-- Node6&#45;&gt;Node4 -->
<g id="edge9" class="edge">
<title>Node6&#45;&gt;Node4</title>
<path fill="none" stroke="midnightblue" d="M639.13,-347.48C538.51,-323.16 255.82,-251.76 177,-199 120.54,-161.21 76.69,-105.7 123,-56 161.81,-14.35 548.44,-10.57 699.74,-10.7"/>
<polygon fill="midnightblue" stroke="midnightblue" points="699.78,-14.2 709.79,-10.71 699.79,-7.2 699.78,-14.2"/>
</g>
<!-- Node6&#45;&gt;Node5 -->
<g id="edge13" class="edge">
<title>Node6&#45;&gt;Node5</title>
<path fill="none" stroke="midnightblue" d="M713.78,-355.07C799.93,-350.66 1006.71,-326.63 1097,-199 1121.42,-164.47 1101.32,-112.01 1087.8,-84.79"/>
<polygon fill="midnightblue" stroke="midnightblue" points="1090.77,-82.93 1083.04,-75.68 1084.57,-86.17 1090.77,-82.93"/>
</g>
<!-- Node7 -->
<g id="node7" class="node">
<title>Node7</title>
<g id="a_node7"><a xlink:href="../../d8/d23/2_dshape_8h.html" target="_top" xlink:title=" ">
<polygon fill="none" stroke="black" points="228,-118 228,-137 296,-137 296,-118 228,-118"/>
<text text-anchor="middle" x="262" y="-125" font-family="Helvetica,sans-Serif" font-size="10.00">2Dshape.h</text>
</a>
</g>
</g>
<!-- Node6&#45;&gt;Node7 -->
<g id="edge10" class="edge">
<title>Node6&#45;&gt;Node7</title>
<path fill="none" stroke="midnightblue" d="M659.31,-347.36C596.58,-312.8 363.41,-184.36 286.66,-142.09"/>
<polygon fill="midnightblue" stroke="midnightblue" points="288.15,-138.91 277.7,-137.15 284.77,-145.04 288.15,-138.91"/>
</g>
<!-- Node8 -->
<g id="node8" class="node">
<title>Node8</title>
<g id="a_node8"><a xlink:href="../../dc/d5c/math_functions_8h.html" target="_top" xlink:title=" ">
<polygon fill="none" stroke="black" points="617,-291.5 617,-310.5 733,-310.5 733,-291.5 617,-291.5"/>
<text text-anchor="middle" x="675" y="-298.5" font-family="Helvetica,sans-Serif" font-size="10.00">../../mathFunctions.h</text>
</a>
</g>
</g>
<!-- Node6&#45;&gt;Node8 -->
<g id="edge14" class="edge">
<title>Node6&#45;&gt;Node8</title>
<path fill="none" stroke="midnightblue" d="M675,-347.08C675,-340.01 675,-329.86 675,-320.99"/>
<polygon fill="midnightblue" stroke="midnightblue" points="678.5,-320.75 675,-310.75 671.5,-320.75 678.5,-320.75"/>
</g>
<!-- Node7&#45;&gt;Node2 -->
<g id="edge11" class="edge">
<title>Node7&#45;&gt;Node2</title>
<path fill="none" stroke="midnightblue" d="M285.05,-117.94C291.73,-115.72 299.09,-113.53 306,-112 414.45,-87.98 543.28,-76.16 619.92,-70.84"/>
<polygon fill="midnightblue" stroke="midnightblue" points="620.18,-74.33 629.92,-70.16 619.71,-67.34 620.18,-74.33"/>
</g>
<!-- Node7&#45;&gt;Node3 -->
<g id="edge12" class="edge">
<title>Node7&#45;&gt;Node3</title>
<path fill="none" stroke="midnightblue" d="M249.68,-117.98C235.88,-108.43 213.3,-92.81 196.77,-81.37"/>
<polygon fill="midnightblue" stroke="midnightblue" points="198.51,-78.32 188.3,-75.51 194.53,-84.08 198.51,-78.32"/>
</g>
<!-- Node8&#45;&gt;Node2 -->
<g id="edge15" class="edge">
<title>Node8&#45;&gt;Node2</title>
<path fill="none" stroke="midnightblue" d="M663.55,-291.22C640.11,-272.08 590.08,-224.68 605,-179 617.82,-139.77 650.18,-102.9 670.21,-82.79"/>
<polygon fill="midnightblue" stroke="midnightblue" points="672.75,-85.2 677.46,-75.71 667.86,-80.2 672.75,-85.2"/>
</g>
<!-- Node8&#45;&gt;Node3 -->
<g id="edge17" class="edge">
<title>Node8&#45;&gt;Node3</title>
<path fill="none" stroke="midnightblue" d="M616.99,-291.99C489.56,-273.09 191.85,-221.32 133,-143 118.23,-123.35 139.43,-98.1 156.95,-82.23"/>
<polygon fill="midnightblue" stroke="midnightblue" points="159.3,-84.82 164.6,-75.65 154.74,-79.51 159.3,-84.82"/>
</g>
<!-- Node8&#45;&gt;Node5 -->
<g id="edge21" class="edge">
<title>Node8&#45;&gt;Node5</title>
<path fill="none" stroke="midnightblue" d="M726.97,-291.49C766.2,-284.2 820.95,-272.13 867,-255 892.15,-245.64 1067.1,-165.96 1081,-143 1091.44,-125.74 1088.36,-102.02 1084.17,-85.7"/>
<polygon fill="midnightblue" stroke="midnightblue" points="1087.42,-84.35 1081.24,-75.74 1080.7,-86.32 1087.42,-84.35"/>
</g>
<!-- Node9 -->
<g id="node9" class="node">
<title>Node9</title>
<g id="a_node9"><a xlink:title=" ">
<polygon fill="none" stroke="#bfbfbf" points="314.5,-118 314.5,-137 383.5,-137 383.5,-118 314.5,-118"/>
<text text-anchor="middle" x="349" y="-125" font-family="Helvetica,sans-Serif" font-size="10.00">type_traits</text>
</a>
</g>
</g>
<!-- Node8&#45;&gt;Node9 -->
<g id="edge16" class="edge">
<title>Node8&#45;&gt;Node9</title>
<path fill="none" stroke="midnightblue" d="M653.79,-291.49C632.76,-282.88 599.75,-268.88 572,-255 496.82,-217.38 411.2,-166.42 371.46,-142.28"/>
<polygon fill="midnightblue" stroke="midnightblue" points="373.17,-139.22 362.81,-137.01 369.53,-145.2 373.17,-139.22"/>
</g>
<!-- Node10 -->
<g id="node10" class="node">
<title>Node10</title>
<g id="a_node10"><a xlink:href="../../d0/d00/compiler__defs_8h.html" target="_top" xlink:title=" ">
<polygon fill="none" stroke="black" points="964.5,-112.5 964.5,-142.5 1071.5,-142.5 1071.5,-112.5 964.5,-112.5"/>
<text text-anchor="start" x="972.5" y="-130.5" font-family="Helvetica,sans-Serif" font-size="10.00">../system/compiler</text>
<text text-anchor="middle" x="1018" y="-119.5" font-family="Helvetica,sans-Serif" font-size="10.00">_defs.h</text>
</a>
</g>
</g>
<!-- Node8&#45;&gt;Node10 -->
<g id="edge18" class="edge">
<title>Node8&#45;&gt;Node10</title>
<path fill="none" stroke="midnightblue" d="M720.86,-291.47C753.89,-284.31 798.98,-272.43 836,-255 897.3,-226.14 960.38,-177.14 993.78,-149.35"/>
<polygon fill="midnightblue" stroke="midnightblue" points="996.21,-151.88 1001.62,-142.77 991.71,-146.52 996.21,-151.88"/>
</g>
<!-- Node11 -->
<g id="node11" class="node">
<title>Node11</title>
<g id="a_node11"><a xlink:href="../../dc/d9b/math_functions__impl_8h.html" target="_top" xlink:title=" ">
<polygon fill="none" stroke="black" points="701.5,-235.5 701.5,-254.5 826.5,-254.5 826.5,-235.5 701.5,-235.5"/>
<text text-anchor="middle" x="764" y="-242.5" font-family="Helvetica,sans-Serif" font-size="10.00">mathFunctions_impl.h</text>
</a>
</g>
</g>
<!-- Node8&#45;&gt;Node11 -->
<g id="edge22" class="edge">
<title>Node8&#45;&gt;Node11</title>
<path fill="none" stroke="midnightblue" d="M689.3,-291.32C703.18,-282.9 724.49,-269.97 740.8,-260.07"/>
<polygon fill="midnightblue" stroke="midnightblue" points="743,-262.83 749.74,-254.65 739.37,-256.85 743,-262.83"/>
</g>
<!-- Node10&#45;&gt;Node4 -->
<g id="edge19" class="edge">
<title>Node10&#45;&gt;Node4</title>
<path fill="none" stroke="midnightblue" d="M986.62,-112.45C935.99,-89.79 837.04,-45.49 788.39,-23.71"/>
<polygon fill="midnightblue" stroke="midnightblue" points="789.64,-20.43 779.08,-19.54 786.78,-26.82 789.64,-20.43"/>
</g>
<!-- Node10&#45;&gt;Node5 -->
<g id="edge20" class="edge">
<title>Node10&#45;&gt;Node5</title>
<path fill="none" stroke="midnightblue" d="M1032.22,-112.4C1041.21,-103.49 1052.84,-91.95 1062.13,-82.74"/>
<polygon fill="midnightblue" stroke="midnightblue" points="1064.63,-85.18 1069.27,-75.66 1059.7,-80.21 1064.63,-85.18"/>
</g>
<!-- Node11&#45;&gt;Node2 -->
<g id="edge23" class="edge">
<title>Node11&#45;&gt;Node2</title>
<path fill="none" stroke="midnightblue" d="M792.37,-235.49C809.75,-228.65 830.6,-217.13 841,-199 855.34,-174.01 837.45,-130.66 819,-112 801.65,-94.45 777.18,-83.74 754.02,-77.21"/>
<polygon fill="midnightblue" stroke="midnightblue" points="754.76,-73.78 744.2,-74.66 753,-80.56 754.76,-73.78"/>
</g>
<!-- Node11&#45;&gt;Node12 -->
<g id="edge24" class="edge">
<title>Node11&#45;&gt;Node12</title>
<path fill="none" stroke="midnightblue" d="M811.54,-235.44C872.56,-224.46 976.94,-205.67 1030.35,-196.06"/>
<polygon fill="midnightblue" stroke="midnightblue" points="1031.1,-199.48 1040.32,-194.26 1029.86,-192.59 1031.1,-199.48"/>
</g>
<!-- Node13 -->
<g id="node13" class="node">
<title>Node13</title>
<g id="a_node13"><a xlink:title=" ">
<polygon fill="none" stroke="#bfbfbf" points="614,-179.5 614,-198.5 678,-198.5 678,-179.5 614,-179.5"/>
<text text-anchor="middle" x="646" y="-186.5" font-family="Helvetica,sans-Serif" font-size="10.00">algorithm</text>
</a>
</g>
</g>
<!-- Node11&#45;&gt;Node13 -->
<g id="edge25" class="edge">
<title>Node11&#45;&gt;Node13</title>
<path fill="none" stroke="midnightblue" d="M745.3,-235.44C726.06,-226.64 695.85,-212.81 673.8,-202.72"/>
<polygon fill="midnightblue" stroke="midnightblue" points="675.16,-199.5 664.61,-198.52 672.25,-205.86 675.16,-199.5"/>
</g>
<!-- Node14 -->
<g id="node14" class="node">
<title>Node14</title>
<g id="a_node14"><a xlink:href="../../d5/dbb/limes__assert_8h.html" target="_top" xlink:title=" ">
<polygon fill="none" stroke="black" points="696,-179.5 696,-198.5 832,-198.5 832,-179.5 696,-179.5"/>
<text text-anchor="middle" x="764" y="-186.5" font-family="Helvetica,sans-Serif" font-size="10.00">../system/limes_assert.h</text>
</a>
</g>
</g>
<!-- Node11&#45;&gt;Node14 -->
<g id="edge26" class="edge">
<title>Node11&#45;&gt;Node14</title>
<path fill="none" stroke="midnightblue" d="M764,-235.08C764,-228.01 764,-217.86 764,-208.99"/>
<polygon fill="midnightblue" stroke="midnightblue" points="767.5,-208.75 764,-198.75 760.5,-208.75 767.5,-208.75"/>
</g>
<!-- Node14&#45;&gt;Node2 -->
<g id="edge28" class="edge">
<title>Node14&#45;&gt;Node2</title>
<path fill="none" stroke="midnightblue" d="M774.39,-179.4C790.64,-164.89 818.67,-134.88 803,-112 791.52,-95.23 772.8,-84.71 753.72,-78.1"/>
<polygon fill="midnightblue" stroke="midnightblue" points="754.64,-74.73 744.06,-75.08 752.56,-81.41 754.64,-74.73"/>
</g>
<!-- Node14&#45;&gt;Node3 -->
<g id="edge27" class="edge">
<title>Node14&#45;&gt;Node3</title>
<path fill="none" stroke="midnightblue" d="M695.68,-179.48C603.11,-167.82 447.92,-147.77 436,-143 414.13,-134.25 414.56,-121.49 393,-112 340.73,-89 276.12,-77.54 231.05,-71.97"/>
<polygon fill="midnightblue" stroke="midnightblue" points="231.23,-68.47 220.89,-70.78 230.41,-75.42 231.23,-68.47"/>
</g>
<!-- Node14&#45;&gt;Node4 -->
<g id="edge36" class="edge">
<title>Node14&#45;&gt;Node4</title>
<path fill="none" stroke="midnightblue" d="M695.94,-179.87C611.14,-169.42 476.37,-151.58 469,-143 399.99,-62.67 595.71,-28.74 699.72,-16.68"/>
<polygon fill="midnightblue" stroke="midnightblue" points="700.24,-20.15 709.79,-15.55 699.46,-13.19 700.24,-20.15"/>
</g>
<!-- Node14&#45;&gt;Node5 -->
<g id="edge29" class="edge">
<title>Node14&#45;&gt;Node5</title>
<path fill="none" stroke="midnightblue" d="M785.25,-179.4C820.58,-165.14 893.72,-135.81 956,-112 985.84,-100.59 1019.97,-88.05 1044.52,-79.11"/>
<polygon fill="midnightblue" stroke="midnightblue" points="1045.89,-82.33 1054.09,-75.63 1043.5,-75.76 1045.89,-82.33"/>
</g>
<!-- Node14&#45;&gt;Node9 -->
<g id="edge30" class="edge">
<title>Node14&#45;&gt;Node9</title>
<path fill="none" stroke="midnightblue" d="M695.61,-179.89C593.7,-167.75 412.36,-145.99 398,-143 393.75,-142.12 389.33,-141.04 384.97,-139.88"/>
<polygon fill="midnightblue" stroke="midnightblue" points="385.56,-136.41 374.99,-137.06 383.66,-143.15 385.56,-136.41"/>
</g>
<!-- Node14&#45;&gt;Node10 -->
<g id="edge38" class="edge">
<title>Node14&#45;&gt;Node10</title>
<path fill="none" stroke="midnightblue" d="M800.39,-179.48C840.56,-170.07 905.96,-154.75 954.59,-143.35"/>
<polygon fill="midnightblue" stroke="midnightblue" points="955.45,-146.75 964.39,-141.06 953.86,-139.93 955.45,-146.75"/>
</g>
<!-- Node15 -->
<g id="node15" class="node">
<title>Node15</title>
<g id="a_node15"><a xlink:title=" ">
<polygon fill="none" stroke="#bfbfbf" points="662.5,-118 662.5,-137 707.5,-137 707.5,-118 662.5,-118"/>
<text text-anchor="middle" x="685" y="-125" font-family="Helvetica,sans-Serif" font-size="10.00">utility</text>
</a>
</g>
</g>
<!-- Node14&#45;&gt;Node15 -->
<g id="edge31" class="edge">
<title>Node14&#45;&gt;Node15</title>
<path fill="none" stroke="midnightblue" d="M752.68,-179.48C740.13,-170.02 719.65,-154.6 704.5,-143.19"/>
<polygon fill="midnightblue" stroke="midnightblue" points="706.39,-140.23 696.3,-137.01 702.18,-145.82 706.39,-140.23"/>
</g>
<!-- Node16 -->
<g id="node16" class="node">
<title>Node16</title>
<g id="a_node16"><a xlink:href="../../d1/d57/_ignore_unused_8h.html" target="_top" xlink:title=" ">
<polygon fill="none" stroke="black" points="478,-118 478,-137 606,-137 606,-118 478,-118"/>
<text text-anchor="middle" x="542" y="-125" font-family="Helvetica,sans-Serif" font-size="10.00">../misc/IgnoreUnused.h</text>
</a>
</g>
</g>
<!-- Node14&#45;&gt;Node16 -->
<g id="edge32" class="edge">
<title>Node14&#45;&gt;Node16</title>
<path fill="none" stroke="midnightblue" d="M732.19,-179.48C693.12,-169 626.74,-151.21 583.64,-139.66"/>
<polygon fill="midnightblue" stroke="midnightblue" points="584.31,-136.22 573.75,-137.01 582.5,-142.98 584.31,-136.22"/>
</g>
<!-- Node17 -->
<g id="node17" class="node">
<title>Node17</title>
<g id="a_node17"><a xlink:title=" ">
<polygon fill="none" stroke="#bfbfbf" points="726,-118 726,-137 794,-137 794,-118 726,-118"/>
<text text-anchor="middle" x="760" y="-125" font-family="Helvetica,sans-Serif" font-size="10.00">filesystem</text>
</a>
</g>
</g>
<!-- Node14&#45;&gt;Node17 -->
<g id="edge37" class="edge">
<title>Node14&#45;&gt;Node17</title>
<path fill="none" stroke="midnightblue" d="M763.43,-179.48C762.86,-171.08 761.98,-157.98 761.25,-147.16"/>
<polygon fill="midnightblue" stroke="midnightblue" points="764.74,-146.75 760.57,-137.01 757.75,-147.22 764.74,-146.75"/>
</g>
<!-- Node16&#45;&gt;Node2 -->
<g id="edge34" class="edge">
<title>Node16&#45;&gt;Node2</title>
<path fill="none" stroke="midnightblue" d="M562.77,-117.98C587.43,-107.86 628.75,-90.9 656.9,-79.35"/>
<polygon fill="midnightblue" stroke="midnightblue" points="658.34,-82.54 666.26,-75.51 655.68,-76.07 658.34,-82.54"/>
</g>
<!-- Node16&#45;&gt;Node3 -->
<g id="edge33" class="edge">
<title>Node16&#45;&gt;Node3</title>
<path fill="none" stroke="midnightblue" d="M489.56,-117.98C420.7,-106.78 300.38,-87.22 230.51,-75.86"/>
<polygon fill="midnightblue" stroke="midnightblue" points="231.01,-72.4 220.58,-74.25 229.89,-79.31 231.01,-72.4"/>
</g>
<!-- Node16&#45;&gt;Node4 -->
<g id="edge35" class="edge">
<title>Node16&#45;&gt;Node4</title>
<path fill="none" stroke="midnightblue" d="M549.42,-117.86C562.47,-103.16 591.02,-73.2 621,-56 648.34,-40.32 681.88,-29.26 709.16,-22.03"/>
<polygon fill="midnightblue" stroke="midnightblue" points="710.09,-25.4 718.91,-19.54 708.35,-18.62 710.09,-25.4"/>
</g>
<!-- Node18&#45;&gt;Node2 -->
<g id="edge40" class="edge">
<title>Node18&#45;&gt;Node2</title>
<path fill="none" stroke="midnightblue" d="M198.05,-117.99C204.69,-115.71 212.07,-113.48 219,-112 359.46,-81.98 527.95,-71.97 619.56,-68.64"/>
<polygon fill="midnightblue" stroke="midnightblue" points="619.94,-72.13 629.81,-68.29 619.69,-65.14 619.94,-72.13"/>
</g>
<!-- Node18&#45;&gt;Node3 -->
<g id="edge41" class="edge">
<title>Node18&#45;&gt;Node3</title>
<path fill="none" stroke="midnightblue" d="M176,-117.98C176,-109.58 176,-96.48 176,-85.66"/>
<polygon fill="midnightblue" stroke="midnightblue" points="179.5,-85.51 176,-75.51 172.5,-85.51 179.5,-85.51"/>
</g>
</g>
</svg>
