<?xml version="1.0" encoding="UTF-8" standalone="no"?>
<!DOCTYPE svg PUBLIC "-//W3C//DTD SVG 1.1//EN"
 "http://www.w3.org/Graphics/SVG/1.1/DTD/svg11.dtd">
<!-- Generated by graphviz version 2.43.0 (0)
 -->
<!-- Title: IgnoreUnused.h Pages: 1 -->
<!--zoomable 252 -->
<svg id="main" version="1.1" xmlns="http://www.w3.org/2000/svg" xmlns:xlink="http://www.w3.org/1999/xlink" xml:space="preserve" onload="init(evt)">
<style type="text/css"><![CDATA[
.edge:hover path { stroke: red; }
.edge:hover polygon { stroke: red; fill: red; }
]]></style>
<script type="text/javascript"><![CDATA[
var edges = document.getElementsByTagName('g');
if (edges && edges.length) {
  for (var i=0;i<edges.length;i++) {
    if (edges[i].id.substr(0,4)=='edge') {
      edges[i].setAttribute('class','edge');
    }
  }
}
]]></script>
        <defs>
                <circle id="rim" cx="0" cy="0" r="7"/>
                <circle id="rim2" cx="0" cy="0" r="3.5"/>
                <g id="zoomPlus">
                        <use xlink:href="#rim" fill="#404040">
                                <set attributeName="fill" to="#808080" begin="zoomplus.mouseover" end="zoomplus.mouseout"/>
                        </use>
                        <path d="M-4,0h8M0,-4v8" fill="none" stroke="white" stroke-width="1.5" pointer-events="none"/>
                </g>
                <g id="zoomMin">
                        <use xlink:href="#rim" fill="#404040">
                                <set attributeName="fill" to="#808080" begin="zoomminus.mouseover" end="zoomminus.mouseout"/>
                        </use>
                        <path d="M-4,0h8" fill="none" stroke="white" stroke-width="1.5" pointer-events="none"/>
                </g>
                <g id="dirArrow">
                        <path fill="none" stroke="white" stroke-width="1.5" d="M0,-3.0v7 M-2.5,-0.5L0,-3.0L2.5,-0.5"/>
                </g>
               <g id="resetDef">
                       <use xlink:href="#rim2" fill="#404040">
                               <set attributeName="fill" to="#808080" begin="reset.mouseover" end="reset.mouseout"/>
                       </use>
               </g>
        </defs>

<script type="text/javascript">
var viewWidth = 520;
var viewHeight = 252;
var sectionId = 'dynsection-1';
</script>
<script xlink:href="../../svgpan.js"/>
<svg id="graph" class="graph">
<g id="viewport">
<title>IgnoreUnused.h</title>
<!-- Node1 -->
<g id="node1" class="node">
<title>Node1</title>
<g id="a_node1"><a xlink:title=" ">
<polygon fill="#bfbfbf" stroke="black" points="308.5,-224.5 308.5,-243.5 401.5,-243.5 401.5,-224.5 308.5,-224.5"/>
<text text-anchor="middle" x="355" y="-231.5" font-family="Helvetica,sans-Serif" font-size="10.00">IgnoreUnused.h</text>
</a>
</g>
</g>
<!-- Node2 -->
<g id="node2" class="node">
<title>Node2</title>
<g id="a_node2"><a xlink:href="../../d5/dbb/limes__assert_8h.html" target="_top" xlink:title=" ">
<polygon fill="none" stroke="black" points="211,-168.5 211,-187.5 299,-187.5 299,-168.5 211,-168.5"/>
<text text-anchor="middle" x="255" y="-175.5" font-family="Helvetica,sans-Serif" font-size="10.00">limes_assert.h</text>
</a>
</g>
</g>
<!-- Node1&#45;&gt;Node2 -->
<g id="edge1" class="edge">
<title>Node1&#45;&gt;Node2</title>
<path fill="none" stroke="midnightblue" d="M329.91,-219.45C311.45,-209.48 286.9,-196.23 271.03,-187.65"/>
<polygon fill="midnightblue" stroke="midnightblue" points="328.47,-222.65 338.93,-224.32 331.8,-216.49 328.47,-222.65"/>
</g>
<!-- Node11 -->
<g id="node5" class="node">
<title>Node11</title>
<g id="a_node5"><a xlink:href="../../d9/df8/limes__core_8h.html" target="_top" xlink:title=" ">
<polygon fill="none" stroke="red" points="216.5,-0.5 216.5,-19.5 295.5,-19.5 295.5,-0.5 216.5,-0.5"/>
<text text-anchor="middle" x="256" y="-7.5" font-family="Helvetica,sans-Serif" font-size="10.00">limes_core.h</text>
</a>
</g>
</g>
<!-- Node1&#45;&gt;Node11 -->
<g id="edge15" class="edge">
<title>Node1&#45;&gt;Node11</title>
<path fill="none" stroke="midnightblue" d="M380.7,-219.62C434.38,-189.98 549.43,-116.62 499,-56 473.59,-25.45 357.71,-15.55 295.6,-12.41"/>
<polygon fill="midnightblue" stroke="midnightblue" points="378.86,-216.63 371.74,-224.47 382.2,-222.78 378.86,-216.63"/>
</g>
<!-- Node3 -->
<g id="node3" class="node">
<title>Node3</title>
<g id="a_node3"><a xlink:href="../../d5/dab/hour__impl_8h.html" target="_top" xlink:title=" ">
<polygon fill="none" stroke="black" points="0,-112.5 0,-131.5 74,-131.5 74,-112.5 0,-112.5"/>
<text text-anchor="middle" x="37" y="-119.5" font-family="Helvetica,sans-Serif" font-size="10.00">hour_impl.h</text>
</a>
</g>
</g>
<!-- Node2&#45;&gt;Node3 -->
<g id="edge2" class="edge">
<title>Node2&#45;&gt;Node3</title>
<path fill="none" stroke="midnightblue" d="M210.69,-166.02C169.51,-155.82 109.03,-140.84 71.38,-131.52"/>
<polygon fill="midnightblue" stroke="midnightblue" points="209.91,-169.44 220.46,-168.44 211.59,-162.64 209.91,-169.44"/>
</g>
<!-- Node2&#45;&gt;Node11 -->
<g id="edge8" class="edge">
<title>Node2&#45;&gt;Node11</title>
<path fill="none" stroke="midnightblue" d="M200.68,-173.1C172.41,-168.01 140.06,-156.71 122,-132 102.07,-104.73 101.25,-83.4 121,-56 142.52,-26.14 184.73,-15.79 216.24,-12.36"/>
<polygon fill="midnightblue" stroke="midnightblue" points="200.45,-176.61 210.87,-174.71 201.54,-169.7 200.45,-176.61"/>
</g>
<!-- Node79 -->
<g id="node6" class="node">
<title>Node79</title>
<g id="a_node6"><a xlink:href="../../dc/d9b/math_functions__impl_8h.html" target="_top" xlink:title=" ">
<polygon fill="none" stroke="black" points="130.5,-112.5 130.5,-131.5 255.5,-131.5 255.5,-112.5 130.5,-112.5"/>
<text text-anchor="middle" x="193" y="-119.5" font-family="Helvetica,sans-Serif" font-size="10.00">mathFunctions_impl.h</text>
</a>
</g>
</g>
<!-- Node2&#45;&gt;Node79 -->
<g id="edge5" class="edge">
<title>Node2&#45;&gt;Node79</title>
<path fill="none" stroke="midnightblue" d="M237.25,-161.54C226.19,-151.91 212.37,-139.87 203.14,-131.83"/>
<polygon fill="midnightblue" stroke="midnightblue" points="235.2,-164.4 245.04,-168.32 239.8,-159.12 235.2,-164.4"/>
</g>
<!-- Node102 -->
<g id="node8" class="node">
<title>Node102</title>
<g id="a_node8"><a xlink:href="../../d2/daa/_memory_pool_8h.html" target="_top" xlink:title=" ">
<polygon fill="none" stroke="black" points="273.5,-112.5 273.5,-131.5 360.5,-131.5 360.5,-112.5 273.5,-112.5"/>
<text text-anchor="middle" x="317" y="-119.5" font-family="Helvetica,sans-Serif" font-size="10.00">MemoryPool.h</text>
</a>
</g>
</g>
<!-- Node2&#45;&gt;Node102 -->
<g id="edge9" class="edge">
<title>Node2&#45;&gt;Node102</title>
<path fill="none" stroke="midnightblue" d="M272.75,-161.54C283.81,-151.91 297.63,-139.87 306.86,-131.83"/>
<polygon fill="midnightblue" stroke="midnightblue" points="270.2,-159.12 264.96,-168.32 274.8,-164.4 270.2,-159.12"/>
</g>
<!-- Node104 -->
<g id="node10" class="node">
<title>Node104</title>
<g id="a_node10"><a xlink:href="../../dd/df4/matrix_8h.html" target="_top" xlink:title=" ">
<polygon fill="none" stroke="black" points="432,-56.5 432,-75.5 490,-75.5 490,-56.5 432,-56.5"/>
<text text-anchor="middle" x="461" y="-63.5" font-family="Helvetica,sans-Serif" font-size="10.00">matrix.h</text>
</a>
</g>
</g>
<!-- Node2&#45;&gt;Node104 -->
<g id="edge13" class="edge">
<title>Node2&#45;&gt;Node104</title>
<path fill="none" stroke="midnightblue" d="M292.08,-165.12C315.14,-157.1 345.04,-145.53 370,-132 401.24,-115.07 434.32,-89.13 450.64,-75.71"/>
<polygon fill="midnightblue" stroke="midnightblue" points="290.67,-161.9 282.33,-168.44 292.93,-168.53 290.67,-161.9"/>
</g>
<!-- Node4 -->
<g id="node4" class="node">
<title>Node4</title>
<g id="a_node4"><a xlink:href="../../d4/d37/hour_8h.html" target="_top" xlink:title=" ">
<polygon fill="none" stroke="red" points="20.5,-56.5 20.5,-75.5 67.5,-75.5 67.5,-56.5 20.5,-56.5"/>
<text text-anchor="middle" x="44" y="-63.5" font-family="Helvetica,sans-Serif" font-size="10.00">hour.h</text>
</a>
</g>
</g>
<!-- Node3&#45;&gt;Node4 -->
<g id="edge3" class="edge">
<title>Node3&#45;&gt;Node4</title>
<path fill="none" stroke="midnightblue" d="M39.45,-102.1C40.61,-93.14 41.94,-82.86 42.87,-75.75"/>
<polygon fill="midnightblue" stroke="midnightblue" points="35.97,-101.72 38.16,-112.08 42.91,-102.62 35.97,-101.72"/>
</g>
<!-- Node4&#45;&gt;Node11 -->
<g id="edge4" class="edge">
<title>Node4&#45;&gt;Node11</title>
<path fill="none" stroke="midnightblue" d="M77.64,-56.43C117.3,-46.33 182.81,-29.64 222.44,-19.55"/>
<polygon fill="midnightblue" stroke="midnightblue" points="76.73,-53.05 67.91,-58.91 78.46,-59.83 76.73,-53.05"/>
</g>
<!-- Node80 -->
<g id="node7" class="node">
<title>Node80</title>
<g id="a_node7"><a xlink:href="../../dc/d5c/math_functions_8h.html" target="_top" xlink:title=" ">
<polygon fill="none" stroke="red" points="130,-56.5 130,-75.5 228,-75.5 228,-56.5 130,-56.5"/>
<text text-anchor="middle" x="179" y="-63.5" font-family="Helvetica,sans-Serif" font-size="10.00">mathFunctions.h</text>
</a>
</g>
</g>
<!-- Node79&#45;&gt;Node80 -->
<g id="edge6" class="edge">
<title>Node79&#45;&gt;Node80</title>
<path fill="none" stroke="midnightblue" d="M188.18,-102.4C185.83,-93.36 183.13,-82.94 181.27,-75.75"/>
<polygon fill="midnightblue" stroke="midnightblue" points="184.79,-103.28 190.69,-112.08 191.57,-101.52 184.79,-103.28"/>
</g>
<!-- Node80&#45;&gt;Node11 -->
<g id="edge7" class="edge">
<title>Node80&#45;&gt;Node11</title>
<path fill="none" stroke="midnightblue" d="M199.9,-50.34C213.91,-40.52 231.88,-27.91 243.66,-19.65"/>
<polygon fill="midnightblue" stroke="midnightblue" points="197.55,-47.72 191.37,-56.32 201.57,-53.45 197.55,-47.72"/>
</g>
<!-- Node102&#45;&gt;Node11 -->
<g id="edge10" class="edge">
<title>Node102&#45;&gt;Node11</title>
<path fill="none" stroke="midnightblue" d="M299.03,-105.47C290.69,-97.41 281.25,-86.98 275,-76 264.53,-57.61 259.39,-32.95 257.26,-19.92"/>
<polygon fill="midnightblue" stroke="midnightblue" points="296.83,-108.2 306.56,-112.4 301.57,-103.05 296.83,-108.2"/>
</g>
<!-- Node103 -->
<g id="node9" class="node">
<title>Node103</title>
<g id="a_node9"><a xlink:href="../../d5/d53/_memory_pool_allocator_8h.html" target="_top" xlink:title=" ">
<polygon fill="none" stroke="black" points="284,-56.5 284,-75.5 414,-75.5 414,-56.5 284,-56.5"/>
<text text-anchor="middle" x="349" y="-63.5" font-family="Helvetica,sans-Serif" font-size="10.00">MemoryPoolAllocator.h</text>
</a>
</g>
</g>
<!-- Node102&#45;&gt;Node103 -->
<g id="edge11" class="edge">
<title>Node102&#45;&gt;Node103</title>
<path fill="none" stroke="midnightblue" d="M327.5,-103.27C332.97,-94.05 339.42,-83.17 343.81,-75.75"/>
<polygon fill="midnightblue" stroke="midnightblue" points="324.37,-101.7 322.28,-112.08 330.39,-105.26 324.37,-101.7"/>
</g>
<!-- Node103&#45;&gt;Node11 -->
<g id="edge12" class="edge">
<title>Node103&#45;&gt;Node11</title>
<path fill="none" stroke="midnightblue" d="M325.19,-51.18C308.08,-41.24 285.53,-28.15 270.9,-19.65"/>
<polygon fill="midnightblue" stroke="midnightblue" points="323.65,-54.33 334.06,-56.32 327.17,-48.28 323.65,-54.33"/>
</g>
<!-- Node104&#45;&gt;Node11 -->
<g id="edge14" class="edge">
<title>Node104&#45;&gt;Node11</title>
<path fill="none" stroke="midnightblue" d="M421.75,-54.66C383.02,-44.46 324.51,-29.05 288.36,-19.52"/>
<polygon fill="midnightblue" stroke="midnightblue" points="421.07,-58.1 431.63,-57.26 422.85,-51.33 421.07,-58.1"/>
</g>
</g>
</svg>
        <g id="navigator" transform="translate(0 0)" fill="#404254">
                <rect fill="#f2f5e9" fill-opacity="0.5" stroke="#606060" stroke-width=".5" x="0" y="0" width="60" height="60"/>
                <use id="zoomplus" xlink:href="#zoomPlus" x="17" y="9" onmousedown="handleZoom(evt,'in')"/>
                <use id="zoomminus" xlink:href="#zoomMin" x="42" y="9" onmousedown="handleZoom(evt,'out')"/>
                <use id="reset" xlink:href="#resetDef" x="30" y="36" onmousedown="handleReset()"/>
                <g id="arrowUp" xlink:href="#dirArrow" transform="translate(30 24)" onmousedown="handlePan(0,-1)">
                  <use xlink:href="#rim" fill="#404040">
                        <set attributeName="fill" to="#808080" begin="arrowUp.mouseover" end="arrowUp.mouseout"/>
                  </use>
                  <path fill="none" stroke="white" stroke-width="1.5" d="M0,-3.0v7 M-2.5,-0.5L0,-3.0L2.5,-0.5"/>
                </g>
                <g id="arrowRight" xlink:href="#dirArrow" transform="rotate(90) translate(36 -43)" onmousedown="handlePan(1,0)">
                  <use xlink:href="#rim" fill="#404040">
                        <set attributeName="fill" to="#808080" begin="arrowRight.mouseover" end="arrowRight.mouseout"/>
                  </use>
                  <path fill="none" stroke="white" stroke-width="1.5" d="M0,-3.0v7 M-2.5,-0.5L0,-3.0L2.5,-0.5"/>
                </g>
                <g id="arrowDown" xlink:href="#dirArrow" transform="rotate(180) translate(-30 -48)" onmousedown="handlePan(0,1)">
                  <use xlink:href="#rim" fill="#404040">
                        <set attributeName="fill" to="#808080" begin="arrowDown.mouseover" end="arrowDown.mouseout"/>
                  </use>
                  <path fill="none" stroke="white" stroke-width="1.5" d="M0,-3.0v7 M-2.5,-0.5L0,-3.0L2.5,-0.5"/>
                </g>
                <g id="arrowLeft" xlink:href="#dirArrow" transform="rotate(270) translate(-36 17)" onmousedown="handlePan(-1,0)">
                  <use xlink:href="#rim" fill="#404040">
                        <set attributeName="fill" to="#808080" begin="arrowLeft.mouseover" end="arrowLeft.mouseout"/>
                  </use>
                  <path fill="none" stroke="white" stroke-width="1.5" d="M0,-3.0v7 M-2.5,-0.5L0,-3.0L2.5,-0.5"/>
                </g>
        </g>
        <svg viewBox="0 0 15 15" width="100%" height="30px" preserveAspectRatio="xMaxYMin meet">
         <g id="arrow_out" transform="scale(0.3 0.3)">
          <a xlink:href="_ignore_unused_8h__dep__incl_org.svg" target="_base">
           <rect id="button" ry="5" rx="5" y="6" x="6" height="38" width="38"
                fill="#f2f5e9" fill-opacity="0.5" stroke="#606060" stroke-width="1.0"/>
           <path id="arrow"
             d="M 11.500037,31.436501 C 11.940474,20.09759 22.043105,11.32322 32.158766,21.979434 L 37.068811,17.246167 C 37.068811,17.246167 37.088388,32 37.088388,32 L 22.160133,31.978069 C 22.160133,31.978069 26.997745,27.140456 26.997745,27.140456 C 18.528582,18.264221 13.291696,25.230495 11.500037,31.436501 z"
             style="fill:#404040;"/>
          </a>
         </g>
        </svg>
</svg>
