<?xml version="1.0" encoding="UTF-8" standalone="no"?>
<!DOCTYPE svg PUBLIC "-//W3C//DTD SVG 1.1//EN"
 "http://www.w3.org/Graphics/SVG/1.1/DTD/svg11.dtd">
<!-- Generated by graphviz version 2.43.0 (0)
 -->
<!-- Title: IgnoreUnused.h Pages: 1 -->
<svg width="520pt" height="252pt"
 viewBox="0.00 0.00 520.17 252.00" xmlns="http://www.w3.org/2000/svg" xmlns:xlink="http://www.w3.org/1999/xlink">
<g id="graph0" class="graph" transform="scale(1 1) rotate(0) translate(4 248)">
<title>IgnoreUnused.h</title>
<!-- Node1 -->
<g id="node1" class="node">
<title>Node1</title>
<g id="a_node1"><a xlink:title=" ">
<polygon fill="#bfbfbf" stroke="black" points="308.5,-224.5 308.5,-243.5 401.5,-243.5 401.5,-224.5 308.5,-224.5"/>
<text text-anchor="middle" x="355" y="-231.5" font-family="Helvetica,sans-Serif" font-size="10.00">IgnoreUnused.h</text>
</a>
</g>
</g>
<!-- Node2 -->
<g id="node2" class="node">
<title>Node2</title>
<g id="a_node2"><a xlink:href="../../d5/dbb/limes__assert_8h.html" target="_top" xlink:title=" ">
<polygon fill="none" stroke="black" points="211,-168.5 211,-187.5 299,-187.5 299,-168.5 211,-168.5"/>
<text text-anchor="middle" x="255" y="-175.5" font-family="Helvetica,sans-Serif" font-size="10.00">limes_assert.h</text>
</a>
</g>
</g>
<!-- Node1&#45;&gt;Node2 -->
<g id="edge1" class="edge">
<title>Node1&#45;&gt;Node2</title>
<path fill="none" stroke="midnightblue" d="M329.91,-219.45C311.45,-209.48 286.9,-196.23 271.03,-187.65"/>
<polygon fill="midnightblue" stroke="midnightblue" points="328.47,-222.65 338.93,-224.32 331.8,-216.49 328.47,-222.65"/>
</g>
<!-- Node11 -->
<g id="node5" class="node">
<title>Node11</title>
<g id="a_node5"><a xlink:href="../../d9/df8/limes__core_8h.html" target="_top" xlink:title=" ">
<polygon fill="none" stroke="red" points="216.5,-0.5 216.5,-19.5 295.5,-19.5 295.5,-0.5 216.5,-0.5"/>
<text text-anchor="middle" x="256" y="-7.5" font-family="Helvetica,sans-Serif" font-size="10.00">limes_core.h</text>
</a>
</g>
</g>
<!-- Node1&#45;&gt;Node11 -->
<g id="edge15" class="edge">
<title>Node1&#45;&gt;Node11</title>
<path fill="none" stroke="midnightblue" d="M380.7,-219.62C434.38,-189.98 549.43,-116.62 499,-56 473.59,-25.45 357.71,-15.55 295.6,-12.41"/>
<polygon fill="midnightblue" stroke="midnightblue" points="378.86,-216.63 371.74,-224.47 382.2,-222.78 378.86,-216.63"/>
</g>
<!-- Node3 -->
<g id="node3" class="node">
<title>Node3</title>
<g id="a_node3"><a xlink:href="../../d5/dab/hour__impl_8h.html" target="_top" xlink:title=" ">
<polygon fill="none" stroke="black" points="0,-112.5 0,-131.5 74,-131.5 74,-112.5 0,-112.5"/>
<text text-anchor="middle" x="37" y="-119.5" font-family="Helvetica,sans-Serif" font-size="10.00">hour_impl.h</text>
</a>
</g>
</g>
<!-- Node2&#45;&gt;Node3 -->
<g id="edge2" class="edge">
<title>Node2&#45;&gt;Node3</title>
<path fill="none" stroke="midnightblue" d="M210.69,-166.02C169.51,-155.82 109.03,-140.84 71.38,-131.52"/>
<polygon fill="midnightblue" stroke="midnightblue" points="209.91,-169.44 220.46,-168.44 211.59,-162.64 209.91,-169.44"/>
</g>
<!-- Node2&#45;&gt;Node11 -->
<g id="edge8" class="edge">
<title>Node2&#45;&gt;Node11</title>
<path fill="none" stroke="midnightblue" d="M200.68,-173.1C172.41,-168.01 140.06,-156.71 122,-132 102.07,-104.73 101.25,-83.4 121,-56 142.52,-26.14 184.73,-15.79 216.24,-12.36"/>
<polygon fill="midnightblue" stroke="midnightblue" points="200.45,-176.61 210.87,-174.71 201.54,-169.7 200.45,-176.61"/>
</g>
<!-- Node79 -->
<g id="node6" class="node">
<title>Node79</title>
<g id="a_node6"><a xlink:href="../../dc/d9b/math_functions__impl_8h.html" target="_top" xlink:title=" ">
<polygon fill="none" stroke="black" points="130.5,-112.5 130.5,-131.5 255.5,-131.5 255.5,-112.5 130.5,-112.5"/>
<text text-anchor="middle" x="193" y="-119.5" font-family="Helvetica,sans-Serif" font-size="10.00">mathFunctions_impl.h</text>
</a>
</g>
</g>
<!-- Node2&#45;&gt;Node79 -->
<g id="edge5" class="edge">
<title>Node2&#45;&gt;Node79</title>
<path fill="none" stroke="midnightblue" d="M237.25,-161.54C226.19,-151.91 212.37,-139.87 203.14,-131.83"/>
<polygon fill="midnightblue" stroke="midnightblue" points="235.2,-164.4 245.04,-168.32 239.8,-159.12 235.2,-164.4"/>
</g>
<!-- Node102 -->
<g id="node8" class="node">
<title>Node102</title>
<g id="a_node8"><a xlink:href="../../d2/daa/_memory_pool_8h.html" target="_top" xlink:title=" ">
<polygon fill="none" stroke="black" points="273.5,-112.5 273.5,-131.5 360.5,-131.5 360.5,-112.5 273.5,-112.5"/>
<text text-anchor="middle" x="317" y="-119.5" font-family="Helvetica,sans-Serif" font-size="10.00">MemoryPool.h</text>
</a>
</g>
</g>
<!-- Node2&#45;&gt;Node102 -->
<g id="edge9" class="edge">
<title>Node2&#45;&gt;Node102</title>
<path fill="none" stroke="midnightblue" d="M272.75,-161.54C283.81,-151.91 297.63,-139.87 306.86,-131.83"/>
<polygon fill="midnightblue" stroke="midnightblue" points="270.2,-159.12 264.96,-168.32 274.8,-164.4 270.2,-159.12"/>
</g>
<!-- Node104 -->
<g id="node10" class="node">
<title>Node104</title>
<g id="a_node10"><a xlink:href="../../dd/df4/matrix_8h.html" target="_top" xlink:title=" ">
<polygon fill="none" stroke="black" points="432,-56.5 432,-75.5 490,-75.5 490,-56.5 432,-56.5"/>
<text text-anchor="middle" x="461" y="-63.5" font-family="Helvetica,sans-Serif" font-size="10.00">matrix.h</text>
</a>
</g>
</g>
<!-- Node2&#45;&gt;Node104 -->
<g id="edge13" class="edge">
<title>Node2&#45;&gt;Node104</title>
<path fill="none" stroke="midnightblue" d="M292.08,-165.12C315.14,-157.1 345.04,-145.53 370,-132 401.24,-115.07 434.32,-89.13 450.64,-75.71"/>
<polygon fill="midnightblue" stroke="midnightblue" points="290.67,-161.9 282.33,-168.44 292.93,-168.53 290.67,-161.9"/>
</g>
<!-- Node4 -->
<g id="node4" class="node">
<title>Node4</title>
<g id="a_node4"><a xlink:href="../../d4/d37/hour_8h.html" target="_top" xlink:title=" ">
<polygon fill="none" stroke="red" points="20.5,-56.5 20.5,-75.5 67.5,-75.5 67.5,-56.5 20.5,-56.5"/>
<text text-anchor="middle" x="44" y="-63.5" font-family="Helvetica,sans-Serif" font-size="10.00">hour.h</text>
</a>
</g>
</g>
<!-- Node3&#45;&gt;Node4 -->
<g id="edge3" class="edge">
<title>Node3&#45;&gt;Node4</title>
<path fill="none" stroke="midnightblue" d="M39.45,-102.1C40.61,-93.14 41.94,-82.86 42.87,-75.75"/>
<polygon fill="midnightblue" stroke="midnightblue" points="35.97,-101.72 38.16,-112.08 42.91,-102.62 35.97,-101.72"/>
</g>
<!-- Node4&#45;&gt;Node11 -->
<g id="edge4" class="edge">
<title>Node4&#45;&gt;Node11</title>
<path fill="none" stroke="midnightblue" d="M77.64,-56.43C117.3,-46.33 182.81,-29.64 222.44,-19.55"/>
<polygon fill="midnightblue" stroke="midnightblue" points="76.73,-53.05 67.91,-58.91 78.46,-59.83 76.73,-53.05"/>
</g>
<!-- Node80 -->
<g id="node7" class="node">
<title>Node80</title>
<g id="a_node7"><a xlink:href="../../dc/d5c/math_functions_8h.html" target="_top" xlink:title=" ">
<polygon fill="none" stroke="red" points="130,-56.5 130,-75.5 228,-75.5 228,-56.5 130,-56.5"/>
<text text-anchor="middle" x="179" y="-63.5" font-family="Helvetica,sans-Serif" font-size="10.00">mathFunctions.h</text>
</a>
</g>
</g>
<!-- Node79&#45;&gt;Node80 -->
<g id="edge6" class="edge">
<title>Node79&#45;&gt;Node80</title>
<path fill="none" stroke="midnightblue" d="M188.18,-102.4C185.83,-93.36 183.13,-82.94 181.27,-75.75"/>
<polygon fill="midnightblue" stroke="midnightblue" points="184.79,-103.28 190.69,-112.08 191.57,-101.52 184.79,-103.28"/>
</g>
<!-- Node80&#45;&gt;Node11 -->
<g id="edge7" class="edge">
<title>Node80&#45;&gt;Node11</title>
<path fill="none" stroke="midnightblue" d="M199.9,-50.34C213.91,-40.52 231.88,-27.91 243.66,-19.65"/>
<polygon fill="midnightblue" stroke="midnightblue" points="197.55,-47.72 191.37,-56.32 201.57,-53.45 197.55,-47.72"/>
</g>
<!-- Node102&#45;&gt;Node11 -->
<g id="edge10" class="edge">
<title>Node102&#45;&gt;Node11</title>
<path fill="none" stroke="midnightblue" d="M299.03,-105.47C290.69,-97.41 281.25,-86.98 275,-76 264.53,-57.61 259.39,-32.95 257.26,-19.92"/>
<polygon fill="midnightblue" stroke="midnightblue" points="296.83,-108.2 306.56,-112.4 301.57,-103.05 296.83,-108.2"/>
</g>
<!-- Node103 -->
<g id="node9" class="node">
<title>Node103</title>
<g id="a_node9"><a xlink:href="../../d5/d53/_memory_pool_allocator_8h.html" target="_top" xlink:title=" ">
<polygon fill="none" stroke="black" points="284,-56.5 284,-75.5 414,-75.5 414,-56.5 284,-56.5"/>
<text text-anchor="middle" x="349" y="-63.5" font-family="Helvetica,sans-Serif" font-size="10.00">MemoryPoolAllocator.h</text>
</a>
</g>
</g>
<!-- Node102&#45;&gt;Node103 -->
<g id="edge11" class="edge">
<title>Node102&#45;&gt;Node103</title>
<path fill="none" stroke="midnightblue" d="M327.5,-103.27C332.97,-94.05 339.42,-83.17 343.81,-75.75"/>
<polygon fill="midnightblue" stroke="midnightblue" points="324.37,-101.7 322.28,-112.08 330.39,-105.26 324.37,-101.7"/>
</g>
<!-- Node103&#45;&gt;Node11 -->
<g id="edge12" class="edge">
<title>Node103&#45;&gt;Node11</title>
<path fill="none" stroke="midnightblue" d="M325.19,-51.18C308.08,-41.24 285.53,-28.15 270.9,-19.65"/>
<polygon fill="midnightblue" stroke="midnightblue" points="323.65,-54.33 334.06,-56.32 327.17,-48.28 323.65,-54.33"/>
</g>
<!-- Node104&#45;&gt;Node11 -->
<g id="edge14" class="edge">
<title>Node104&#45;&gt;Node11</title>
<path fill="none" stroke="midnightblue" d="M421.75,-54.66C383.02,-44.46 324.51,-29.05 288.36,-19.52"/>
<polygon fill="midnightblue" stroke="midnightblue" points="421.07,-58.1 431.63,-57.26 422.85,-51.33 421.07,-58.1"/>
</g>
</g>
</svg>
