<?xml version="1.0" encoding="UTF-8" standalone="no"?>
<!DOCTYPE svg PUBLIC "-//W3C//DTD SVG 1.1//EN"
 "http://www.w3.org/Graphics/SVG/1.1/DTD/svg11.dtd">
<!-- Generated by graphviz version 2.43.0 (0)
 -->
<!-- Title: Interval_impl.h Pages: 1 -->
<svg width="154pt" height="196pt"
 viewBox="0.00 0.00 154.00 196.00" xmlns="http://www.w3.org/2000/svg" xmlns:xlink="http://www.w3.org/1999/xlink">
<g id="graph0" class="graph" transform="scale(1 1) rotate(0) translate(4 192)">
<title>Interval_impl.h</title>
<!-- Node1 -->
<g id="node1" class="node">
<title>Node1</title>
<g id="a_node1"><a xlink:title=" ">
<polygon fill="#bfbfbf" stroke="black" points="56,-168.5 56,-187.5 146,-187.5 146,-168.5 56,-168.5"/>
<text text-anchor="middle" x="101" y="-175.5" font-family="Helvetica,sans-Serif" font-size="10.00">Interval_impl.h</text>
</a>
</g>
</g>
<!-- Node2 -->
<g id="node2" class="node">
<title>Node2</title>
<g id="a_node2"><a xlink:href="../../d1/d6b/_interval_8h.html" target="_top" xlink:title=" ">
<polygon fill="none" stroke="black" points="69.5,-112.5 69.5,-131.5 132.5,-131.5 132.5,-112.5 69.5,-112.5"/>
<text text-anchor="middle" x="101" y="-119.5" font-family="Helvetica,sans-Serif" font-size="10.00">Interval.h</text>
</a>
</g>
</g>
<!-- Node1&#45;&gt;Node2 -->
<g id="edge1" class="edge">
<title>Node1&#45;&gt;Node2</title>
<path fill="none" stroke="midnightblue" d="M101,-157.8C101,-148.91 101,-138.78 101,-131.75"/>
<polygon fill="midnightblue" stroke="midnightblue" points="97.5,-158.08 101,-168.08 104.5,-158.08 97.5,-158.08"/>
</g>
<!-- Node3 -->
<g id="node3" class="node">
<title>Node3</title>
<g id="a_node3"><a xlink:href="../../d4/d61/_compound_interval_8h.html" target="_top" xlink:title=" ">
<polygon fill="none" stroke="black" points="0,-56.5 0,-75.5 116,-75.5 116,-56.5 0,-56.5"/>
<text text-anchor="middle" x="58" y="-63.5" font-family="Helvetica,sans-Serif" font-size="10.00">CompoundInterval.h</text>
</a>
</g>
</g>
<!-- Node2&#45;&gt;Node3 -->
<g id="edge2" class="edge">
<title>Node2&#45;&gt;Node3</title>
<path fill="none" stroke="midnightblue" d="M87.58,-104.14C80.09,-94.74 71.06,-83.4 64.97,-75.75"/>
<polygon fill="midnightblue" stroke="midnightblue" points="84.93,-106.44 93.9,-112.08 90.41,-102.08 84.93,-106.44"/>
</g>
<!-- Node4 -->
<g id="node4" class="node">
<title>Node4</title>
<g id="a_node4"><a xlink:href="../../d4/dbe/limes__music_8h.html" target="_top" xlink:title=" ">
<polygon fill="none" stroke="red" points="57.5,-0.5 57.5,-19.5 144.5,-19.5 144.5,-0.5 57.5,-0.5"/>
<text text-anchor="middle" x="101" y="-7.5" font-family="Helvetica,sans-Serif" font-size="10.00">limes_music.h</text>
</a>
</g>
</g>
<!-- Node2&#45;&gt;Node4 -->
<g id="edge4" class="edge">
<title>Node2&#45;&gt;Node4</title>
<path fill="none" stroke="midnightblue" d="M112.76,-103.77C117.56,-95.71 122.56,-85.75 125,-76 130.19,-55.23 116.56,-31.92 107.77,-19.64"/>
<polygon fill="midnightblue" stroke="midnightblue" points="109.79,-101.92 107.37,-112.23 115.69,-105.68 109.79,-101.92"/>
</g>
<!-- Node3&#45;&gt;Node4 -->
<g id="edge3" class="edge">
<title>Node3&#45;&gt;Node4</title>
<path fill="none" stroke="midnightblue" d="M71.42,-48.14C78.91,-38.74 87.94,-27.4 94.03,-19.75"/>
<polygon fill="midnightblue" stroke="midnightblue" points="68.59,-46.08 65.1,-56.08 74.07,-50.44 68.59,-46.08"/>
</g>
</g>
</svg>
