<?xml version="1.0" encoding="UTF-8" standalone="no"?>
<!DOCTYPE svg PUBLIC "-//W3C//DTD SVG 1.1//EN"
 "http://www.w3.org/Graphics/SVG/1.1/DTD/svg11.dtd">
<!-- Generated by graphviz version 2.43.0 (0)
 -->
<!-- Title: Threading.h Pages: 1 -->
<svg width="700pt" height="196pt"
 viewBox="0.00 0.00 700.00 196.00" xmlns="http://www.w3.org/2000/svg" xmlns:xlink="http://www.w3.org/1999/xlink">
<g id="graph0" class="graph" transform="scale(1 1) rotate(0) translate(4 192)">
<title>Threading.h</title>
<!-- Node1 -->
<g id="node1" class="node">
<title>Node1</title>
<g id="a_node1"><a xlink:title=" ">
<polygon fill="#bfbfbf" stroke="black" points="120,-168.5 120,-187.5 194,-187.5 194,-168.5 120,-168.5"/>
<text text-anchor="middle" x="157" y="-175.5" font-family="Helvetica,sans-Serif" font-size="10.00">Threading.h</text>
</a>
</g>
</g>
<!-- Node2 -->
<g id="node2" class="node">
<title>Node2</title>
<g id="a_node2"><a xlink:title=" ">
<polygon fill="none" stroke="#bfbfbf" points="0,-112.5 0,-131.5 46,-131.5 46,-112.5 0,-112.5"/>
<text text-anchor="middle" x="23" y="-119.5" font-family="Helvetica,sans-Serif" font-size="10.00">future</text>
</a>
</g>
</g>
<!-- Node1&#45;&gt;Node2 -->
<g id="edge1" class="edge">
<title>Node1&#45;&gt;Node2</title>
<path fill="none" stroke="midnightblue" d="M135.77,-168.44C113.62,-159.52 78.68,-145.44 53.56,-135.32"/>
<polygon fill="midnightblue" stroke="midnightblue" points="54.72,-132.01 44.13,-131.52 52.1,-138.5 54.72,-132.01"/>
</g>
<!-- Node3 -->
<g id="node3" class="node">
<title>Node3</title>
<g id="a_node3"><a xlink:title=" ">
<polygon fill="none" stroke="#bfbfbf" points="64.5,-112.5 64.5,-131.5 109.5,-131.5 109.5,-112.5 64.5,-112.5"/>
<text text-anchor="middle" x="87" y="-119.5" font-family="Helvetica,sans-Serif" font-size="10.00">utility</text>
</a>
</g>
</g>
<!-- Node1&#45;&gt;Node3 -->
<g id="edge2" class="edge">
<title>Node1&#45;&gt;Node3</title>
<path fill="none" stroke="midnightblue" d="M145.75,-168.32C135.2,-160.18 119.2,-147.84 106.56,-138.09"/>
<polygon fill="midnightblue" stroke="midnightblue" points="108.51,-135.17 98.45,-131.83 104.23,-140.71 108.51,-135.17"/>
</g>
<!-- Node4 -->
<g id="node4" class="node">
<title>Node4</title>
<g id="a_node4"><a xlink:title=" ">
<polygon fill="none" stroke="#bfbfbf" points="7.5,-56.5 7.5,-75.5 96.5,-75.5 96.5,-56.5 7.5,-56.5"/>
<text text-anchor="middle" x="52" y="-63.5" font-family="Helvetica,sans-Serif" font-size="10.00">limes_export.h</text>
</a>
</g>
</g>
<!-- Node1&#45;&gt;Node4 -->
<g id="edge3" class="edge">
<title>Node1&#45;&gt;Node4</title>
<path fill="none" stroke="midnightblue" d="M153.23,-168.21C147.22,-154.92 134.44,-129.42 118,-112 106.36,-99.66 90.77,-88.84 77.67,-80.91"/>
<polygon fill="midnightblue" stroke="midnightblue" points="79.07,-77.67 68.66,-75.66 75.54,-83.71 79.07,-77.67"/>
</g>
<!-- Node5 -->
<g id="node5" class="node">
<title>Node5</title>
<g id="a_node5"><a xlink:href="../../da/d0b/limes__namespace_8h.html" target="_top" xlink:title=" ">
<polygon fill="none" stroke="black" points="115,-56.5 115,-75.5 229,-75.5 229,-56.5 115,-56.5"/>
<text text-anchor="middle" x="172" y="-63.5" font-family="Helvetica,sans-Serif" font-size="10.00">limes_namespace.h</text>
</a>
</g>
</g>
<!-- Node1&#45;&gt;Node5 -->
<g id="edge4" class="edge">
<title>Node1&#45;&gt;Node5</title>
<path fill="none" stroke="midnightblue" d="M158.18,-168.37C160.6,-150.62 166.18,-109.67 169.46,-85.6"/>
<polygon fill="midnightblue" stroke="midnightblue" points="172.95,-85.97 170.83,-75.59 166.01,-85.03 172.95,-85.97"/>
</g>
<!-- Node6 -->
<g id="node6" class="node">
<title>Node6</title>
<g id="a_node6"><a xlink:href="../../d3/d53/preprocessor_8h.html" target="_top" xlink:title=" ">
<polygon fill="none" stroke="black" points="247.5,-56.5 247.5,-75.5 370.5,-75.5 370.5,-56.5 247.5,-56.5"/>
<text text-anchor="middle" x="309" y="-63.5" font-family="Helvetica,sans-Serif" font-size="10.00">../misc/preprocessor.h</text>
</a>
</g>
</g>
<!-- Node1&#45;&gt;Node6 -->
<g id="edge5" class="edge">
<title>Node1&#45;&gt;Node6</title>
<path fill="none" stroke="midnightblue" d="M168.93,-168.37C194.9,-149.57 256.81,-104.77 288.92,-81.53"/>
<polygon fill="midnightblue" stroke="midnightblue" points="291.08,-84.29 297.13,-75.59 286.98,-78.62 291.08,-84.29"/>
</g>
<!-- Node8 -->
<g id="node8" class="node">
<title>Node8</title>
<g id="a_node8"><a xlink:href="../../d6/d9b/_functions_8h.html" target="_top" xlink:title=" ">
<polygon fill="none" stroke="black" points="300.5,-112.5 300.5,-131.5 407.5,-131.5 407.5,-112.5 300.5,-112.5"/>
<text text-anchor="middle" x="354" y="-119.5" font-family="Helvetica,sans-Serif" font-size="10.00">../misc/Functions.h</text>
</a>
</g>
</g>
<!-- Node1&#45;&gt;Node8 -->
<g id="edge7" class="edge">
<title>Node1&#45;&gt;Node8</title>
<path fill="none" stroke="midnightblue" d="M188.22,-168.44C221.93,-159.2 275.8,-144.44 312.93,-134.26"/>
<polygon fill="midnightblue" stroke="midnightblue" points="314.21,-137.54 322.93,-131.52 312.36,-130.78 314.21,-137.54"/>
</g>
<!-- Node7 -->
<g id="node7" class="node">
<title>Node7</title>
<g id="a_node7"><a xlink:title=" ">
<polygon fill="none" stroke="#bfbfbf" points="259,-0.5 259,-19.5 359,-19.5 359,-0.5 259,-0.5"/>
<text text-anchor="middle" x="309" y="-7.5" font-family="Helvetica,sans-Serif" font-size="10.00">limes_platform.h</text>
</a>
</g>
</g>
<!-- Node6&#45;&gt;Node7 -->
<g id="edge6" class="edge">
<title>Node6&#45;&gt;Node7</title>
<path fill="none" stroke="midnightblue" d="M309,-56.08C309,-49.01 309,-38.86 309,-29.99"/>
<polygon fill="midnightblue" stroke="midnightblue" points="312.5,-29.75 309,-19.75 305.5,-29.75 312.5,-29.75"/>
</g>
<!-- Node8&#45;&gt;Node4 -->
<g id="edge10" class="edge">
<title>Node8&#45;&gt;Node4</title>
<path fill="none" stroke="midnightblue" d="M306.15,-112.44C251.86,-102.74 163.5,-86.94 106.57,-76.76"/>
<polygon fill="midnightblue" stroke="midnightblue" points="107.14,-73.3 96.68,-74.99 105.9,-80.19 107.14,-73.3"/>
</g>
<!-- Node8&#45;&gt;Node5 -->
<g id="edge11" class="edge">
<title>Node8&#45;&gt;Node5</title>
<path fill="none" stroke="midnightblue" d="M325.16,-112.44C294.14,-103.24 244.67,-88.56 210.38,-78.39"/>
<polygon fill="midnightblue" stroke="midnightblue" points="211.29,-75.01 200.7,-75.52 209.29,-81.72 211.29,-75.01"/>
</g>
<!-- Node8&#45;&gt;Node6 -->
<g id="edge14" class="edge">
<title>Node8&#45;&gt;Node6</title>
<path fill="none" stroke="midnightblue" d="M346.57,-112.08C340.15,-104.38 330.69,-93.03 322.88,-83.65"/>
<polygon fill="midnightblue" stroke="midnightblue" points="325.38,-81.19 316.29,-75.75 320.01,-85.67 325.38,-81.19"/>
</g>
<!-- Node9 -->
<g id="node9" class="node">
<title>Node9</title>
<g id="a_node9"><a xlink:title=" ">
<polygon fill="none" stroke="#bfbfbf" points="642,-56.5 642,-75.5 692,-75.5 692,-56.5 642,-56.5"/>
<text text-anchor="middle" x="667" y="-63.5" font-family="Helvetica,sans-Serif" font-size="10.00">atomic</text>
</a>
</g>
</g>
<!-- Node8&#45;&gt;Node9 -->
<g id="edge8" class="edge">
<title>Node8&#45;&gt;Node9</title>
<path fill="none" stroke="midnightblue" d="M407.52,-113.97C461.75,-106.49 548.23,-93.57 631.89,-76.06"/>
<polygon fill="midnightblue" stroke="midnightblue" points="632.76,-79.46 641.82,-73.96 631.31,-72.61 632.76,-79.46"/>
</g>
<!-- Node10 -->
<g id="node10" class="node">
<title>Node10</title>
<g id="a_node10"><a xlink:title=" ">
<polygon fill="none" stroke="#bfbfbf" points="388.5,-56.5 388.5,-75.5 457.5,-75.5 457.5,-56.5 388.5,-56.5"/>
<text text-anchor="middle" x="423" y="-63.5" font-family="Helvetica,sans-Serif" font-size="10.00">type_traits</text>
</a>
</g>
</g>
<!-- Node8&#45;&gt;Node10 -->
<g id="edge9" class="edge">
<title>Node8&#45;&gt;Node10</title>
<path fill="none" stroke="midnightblue" d="M365.09,-112.32C375.49,-104.18 391.26,-91.84 403.72,-82.09"/>
<polygon fill="midnightblue" stroke="midnightblue" points="405.99,-84.75 411.71,-75.83 401.68,-79.24 405.99,-84.75"/>
</g>
<!-- Node11 -->
<g id="node11" class="node">
<title>Node11</title>
<g id="a_node11"><a xlink:title=" ">
<polygon fill="none" stroke="#bfbfbf" points="475.5,-56.5 475.5,-75.5 540.5,-75.5 540.5,-56.5 475.5,-56.5"/>
<text text-anchor="middle" x="508" y="-63.5" font-family="Helvetica,sans-Serif" font-size="10.00">functional</text>
</a>
</g>
</g>
<!-- Node8&#45;&gt;Node11 -->
<g id="edge12" class="edge">
<title>Node8&#45;&gt;Node11</title>
<path fill="none" stroke="midnightblue" d="M378.4,-112.44C404.2,-103.4 445.08,-89.06 474.02,-78.92"/>
<polygon fill="midnightblue" stroke="midnightblue" points="475.43,-82.13 483.71,-75.52 473.12,-75.52 475.43,-82.13"/>
</g>
<!-- Node12 -->
<g id="node12" class="node">
<title>Node12</title>
<g id="a_node12"><a xlink:title=" ">
<polygon fill="none" stroke="#bfbfbf" points="558.5,-56.5 558.5,-75.5 623.5,-75.5 623.5,-56.5 558.5,-56.5"/>
<text text-anchor="middle" x="591" y="-63.5" font-family="Helvetica,sans-Serif" font-size="10.00">exception</text>
</a>
</g>
</g>
<!-- Node8&#45;&gt;Node12 -->
<g id="edge13" class="edge">
<title>Node8&#45;&gt;Node12</title>
<path fill="none" stroke="midnightblue" d="M391.55,-112.44C434.18,-102.73 503.57,-86.92 548.24,-76.74"/>
<polygon fill="midnightblue" stroke="midnightblue" points="549.23,-80.11 558.2,-74.47 547.67,-73.28 549.23,-80.11"/>
</g>
</g>
</svg>
