<?xml version="1.0" encoding="UTF-8" standalone="no"?>
<!DOCTYPE svg PUBLIC "-//W3C//DTD SVG 1.1//EN"
 "http://www.w3.org/Graphics/SVG/1.1/DTD/svg11.dtd">
<!-- Generated by graphviz version 2.43.0 (0)
 -->
<!-- Title: limes_locale.h Pages: 1 -->
<!--zoomable 308 -->
<svg id="main" version="1.1" xmlns="http://www.w3.org/2000/svg" xmlns:xlink="http://www.w3.org/1999/xlink" xml:space="preserve" onload="init(evt)">
<style type="text/css"><![CDATA[
.edge:hover path { stroke: red; }
.edge:hover polygon { stroke: red; fill: red; }
]]></style>
<script type="text/javascript"><![CDATA[
var edges = document.getElementsByTagName('g');
if (edges && edges.length) {
  for (var i=0;i<edges.length;i++) {
    if (edges[i].id.substr(0,4)=='edge') {
      edges[i].setAttribute('class','edge');
    }
  }
}
]]></script>
        <defs>
                <circle id="rim" cx="0" cy="0" r="7"/>
                <circle id="rim2" cx="0" cy="0" r="3.5"/>
                <g id="zoomPlus">
                        <use xlink:href="#rim" fill="#404040">
                                <set attributeName="fill" to="#808080" begin="zoomplus.mouseover" end="zoomplus.mouseout"/>
                        </use>
                        <path d="M-4,0h8M0,-4v8" fill="none" stroke="white" stroke-width="1.5" pointer-events="none"/>
                </g>
                <g id="zoomMin">
                        <use xlink:href="#rim" fill="#404040">
                                <set attributeName="fill" to="#808080" begin="zoomminus.mouseover" end="zoomminus.mouseout"/>
                        </use>
                        <path d="M-4,0h8" fill="none" stroke="white" stroke-width="1.5" pointer-events="none"/>
                </g>
                <g id="dirArrow">
                        <path fill="none" stroke="white" stroke-width="1.5" d="M0,-3.0v7 M-2.5,-0.5L0,-3.0L2.5,-0.5"/>
                </g>
               <g id="resetDef">
                       <use xlink:href="#rim2" fill="#404040">
                               <set attributeName="fill" to="#808080" begin="reset.mouseover" end="reset.mouseout"/>
                       </use>
               </g>
        </defs>

<script type="text/javascript">
var viewWidth = 1193;
var viewHeight = 308;
var sectionId = 'dynsection-0';
</script>
<script xlink:href="../../svgpan.js"/>
<svg id="graph" class="graph">
<g id="viewport">
<title>limes_locale.h</title>
<!-- Node1 -->
<g id="node1" class="node">
<title>Node1</title>
<g id="a_node1"><a xlink:title=" ">
<polygon fill="#bfbfbf" stroke="black" points="323.17,-280.5 323.17,-299.5 410.17,-299.5 410.17,-280.5 323.17,-280.5"/>
<text text-anchor="middle" x="366.67" y="-287.5" font-family="Helvetica,sans-Serif" font-size="10.00">limes_locale.h</text>
</a>
</g>
</g>
<!-- Node2 -->
<g id="node2" class="node">
<title>Node2</title>
<g id="a_node2"><a xlink:href="../../d0/d0f/languages_8h.html" target="_top" xlink:title=" ">
<polygon fill="none" stroke="black" points="231.17,-224.5 231.17,-243.5 360.17,-243.5 360.17,-224.5 231.17,-224.5"/>
<text text-anchor="middle" x="295.67" y="-231.5" font-family="Helvetica,sans-Serif" font-size="10.00">languages/languages.h</text>
</a>
</g>
</g>
<!-- Node1&#45;&gt;Node2 -->
<g id="edge1" class="edge">
<title>Node1&#45;&gt;Node2</title>
<path fill="none" stroke="midnightblue" d="M355.26,-280.32C344.56,-272.18 328.33,-259.84 315.51,-250.09"/>
<polygon fill="midnightblue" stroke="midnightblue" points="317.37,-247.1 307.29,-243.83 313.13,-252.67 317.37,-247.1"/>
</g>
<!-- Node141 -->
<g id="node15" class="node">
<title>Node141</title>
<g id="a_node15"><a xlink:href="../../d7/d35/countries_8h.html" target="_top" xlink:title=" ">
<polygon fill="none" stroke="black" points="513.17,-224.5 513.17,-243.5 632.17,-243.5 632.17,-224.5 513.17,-224.5"/>
<text text-anchor="middle" x="572.67" y="-231.5" font-family="Helvetica,sans-Serif" font-size="10.00">countries/countries.h</text>
</a>
</g>
</g>
<!-- Node1&#45;&gt;Node141 -->
<g id="edge33" class="edge">
<title>Node1&#45;&gt;Node141</title>
<path fill="none" stroke="midnightblue" d="M399.31,-280.44C434.72,-271.16 491.38,-256.31 530.22,-246.13"/>
<polygon fill="midnightblue" stroke="midnightblue" points="531.4,-249.44 540.18,-243.52 529.62,-242.67 531.4,-249.44"/>
</g>
<!-- Node3 -->
<g id="node3" class="node">
<title>Node3</title>
<g id="a_node3"><a xlink:title=" ">
<polygon fill="none" stroke="#bfbfbf" points="839.17,-0.5 839.17,-19.5 928.17,-19.5 928.17,-0.5 839.17,-0.5"/>
<text text-anchor="middle" x="883.67" y="-7.5" font-family="Helvetica,sans-Serif" font-size="10.00">limes_export.h</text>
</a>
</g>
</g>
<!-- Node2&#45;&gt;Node3 -->
<g id="edge2" class="edge">
<title>Node2&#45;&gt;Node3</title>
<path fill="none" stroke="midnightblue" d="M360.48,-225.27C431.34,-216.7 548.19,-202.19 648.67,-188 843.37,-160.49 993.4,-254.12 1076.67,-76 1080.44,-67.95 1082.2,-62.96 1076.67,-56 1059.66,-34.57 989.3,-22.4 938.44,-16.25"/>
<polygon fill="midnightblue" stroke="midnightblue" points="938.56,-12.74 928.23,-15.07 937.75,-19.7 938.56,-12.74"/>
</g>
<!-- Node4 -->
<g id="node4" class="node">
<title>Node4</title>
<g id="a_node4"><a xlink:title=" ">
<polygon fill="none" stroke="#bfbfbf" points="119.67,-0.5 119.67,-19.5 163.67,-19.5 163.67,-0.5 119.67,-0.5"/>
<text text-anchor="middle" x="141.67" y="-7.5" font-family="Helvetica,sans-Serif" font-size="10.00">string</text>
</a>
</g>
</g>
<!-- Node2&#45;&gt;Node4 -->
<g id="edge3" class="edge">
<title>Node2&#45;&gt;Node4</title>
<path fill="none" stroke="midnightblue" d="M230.99,-226.86C168.42,-219.93 78.9,-207.06 49.67,-188 24.48,-171.57 20.51,-160.75 11.67,-132 1.75,-99.71 -7.92,-83.52 11.67,-56 33.67,-25.11 78.39,-15.23 109.18,-12.18"/>
<polygon fill="midnightblue" stroke="midnightblue" points="109.74,-15.64 119.43,-11.36 109.19,-8.66 109.74,-15.64"/>
</g>
<!-- Node5 -->
<g id="node5" class="node">
<title>Node5</title>
<g id="a_node5"><a xlink:href="../../d8/d1d/limes__data__structures_8h_source.html" target="_top" xlink:title=" ">
<polygon fill="none" stroke="black" points="505.67,-168.5 505.67,-187.5 639.67,-187.5 639.67,-168.5 505.67,-168.5"/>
<text text-anchor="middle" x="572.67" y="-175.5" font-family="Helvetica,sans-Serif" font-size="10.00">limes_data_structures.h</text>
</a>
</g>
</g>
<!-- Node2&#45;&gt;Node5 -->
<g id="edge4" class="edge">
<title>Node2&#45;&gt;Node5</title>
<path fill="none" stroke="midnightblue" d="M339.56,-224.44C388.19,-214.96 466.62,-199.67 518.9,-189.48"/>
<polygon fill="midnightblue" stroke="midnightblue" points="519.84,-192.87 528.99,-187.52 518.5,-185.99 519.84,-192.87"/>
</g>
<!-- Node13 -->
<g id="node7" class="node">
<title>Node13</title>
<g id="a_node7"><a xlink:href="../../da/d0b/limes__namespace_8h.html" target="_top" xlink:title=" ">
<polygon fill="none" stroke="black" points="576.67,-0.5 576.67,-19.5 690.67,-19.5 690.67,-0.5 576.67,-0.5"/>
<text text-anchor="middle" x="633.67" y="-7.5" font-family="Helvetica,sans-Serif" font-size="10.00">limes_namespace.h</text>
</a>
</g>
</g>
<!-- Node2&#45;&gt;Node13 -->
<g id="edge32" class="edge">
<title>Node2&#45;&gt;Node13</title>
<path fill="none" stroke="midnightblue" d="M268.87,-224.42C197.87,-200.42 14.9,-129.54 82.67,-56 114.84,-21.1 426.24,-13.27 566.17,-11.51"/>
<polygon fill="midnightblue" stroke="midnightblue" points="566.39,-15.01 576.35,-11.39 566.31,-8.01 566.39,-15.01"/>
</g>
<!-- Node10 -->
<g id="node14" class="node">
<title>Node10</title>
<g id="a_node14"><a xlink:title=" ">
<polygon fill="none" stroke="#bfbfbf" points="91.67,-56.5 91.67,-75.5 191.67,-75.5 191.67,-56.5 91.67,-56.5"/>
<text text-anchor="middle" x="141.67" y="-63.5" font-family="Helvetica,sans-Serif" font-size="10.00">limes_platform.h</text>
</a>
</g>
</g>
<!-- Node2&#45;&gt;Node10 -->
<g id="edge31" class="edge">
<title>Node2&#45;&gt;Node10</title>
<path fill="none" stroke="midnightblue" d="M287.39,-224.08C262.63,-197.38 188.86,-117.87 156.81,-83.32"/>
<polygon fill="midnightblue" stroke="midnightblue" points="158.99,-80.52 149.62,-75.57 153.86,-85.28 158.99,-80.52"/>
</g>
<!-- Node6 -->
<g id="node6" class="node">
<title>Node6</title>
<g id="a_node6"><a xlink:href="../../d6/d68/vector_8h_source.html" target="_top" xlink:title=" ">
<polygon fill="none" stroke="red" points="210.17,-56.5 210.17,-75.5 305.17,-75.5 305.17,-56.5 210.17,-56.5"/>
<text text-anchor="middle" x="257.67" y="-63.5" font-family="Helvetica,sans-Serif" font-size="10.00">vectors/vector.h</text>
</a>
</g>
</g>
<!-- Node5&#45;&gt;Node6 -->
<g id="edge5" class="edge">
<title>Node5&#45;&gt;Node6</title>
<path fill="none" stroke="midnightblue" d="M548.22,-168.46C492.51,-149.01 356.05,-101.36 291.97,-78.98"/>
<polygon fill="midnightblue" stroke="midnightblue" points="292.92,-75.6 282.33,-75.61 290.62,-82.21 292.92,-75.6"/>
</g>
<!-- Node133 -->
<g id="node8" class="node">
<title>Node133</title>
<g id="a_node8"><a xlink:href="../../d2/dd0/owned__vector_8h_source.html" target="_top" xlink:title=" ">
<polygon fill="none" stroke="red" points="918.67,-56.5 918.67,-75.5 1050.67,-75.5 1050.67,-56.5 918.67,-56.5"/>
<text text-anchor="middle" x="984.67" y="-63.5" font-family="Helvetica,sans-Serif" font-size="10.00">vectors/owned_vector.h</text>
</a>
</g>
</g>
<!-- Node5&#45;&gt;Node133 -->
<g id="edge8" class="edge">
<title>Node5&#45;&gt;Node133</title>
<path fill="none" stroke="midnightblue" d="M604.66,-168.46C678.44,-148.76 860.5,-100.15 942.93,-78.15"/>
<polygon fill="midnightblue" stroke="midnightblue" points="943.95,-81.5 952.71,-75.53 942.14,-74.73 943.95,-81.5"/>
</g>
<!-- Node134 -->
<g id="node9" class="node">
<title>Node134</title>
<g id="a_node9"><a xlink:href="../../d0/dd0/_dimensions_8h_source.html" target="_top" xlink:title=" ">
<polygon fill="none" stroke="red" points="323.67,-56.5 323.67,-75.5 485.67,-75.5 485.67,-56.5 323.67,-56.5"/>
<text text-anchor="middle" x="404.67" y="-63.5" font-family="Helvetica,sans-Serif" font-size="10.00">data_structures/Dimensions.h</text>
</a>
</g>
</g>
<!-- Node5&#45;&gt;Node134 -->
<g id="edge11" class="edge">
<title>Node5&#45;&gt;Node134</title>
<path fill="none" stroke="midnightblue" d="M553.15,-168.45C534.87,-160.13 507.1,-146.61 484.67,-132 461.65,-117 437.46,-96.6 421.79,-82.69"/>
<polygon fill="midnightblue" stroke="midnightblue" points="423.8,-79.78 414.02,-75.7 419.11,-84.99 423.8,-79.78"/>
</g>
<!-- Node135 -->
<g id="node10" class="node">
<title>Node135</title>
<g id="a_node10"><a xlink:href="../../d1/d4c/_linked_list_model_8h_source.html" target="_top" xlink:title=" ">
<polygon fill="none" stroke="red" points="705.17,-56.5 705.17,-75.5 862.17,-75.5 862.17,-56.5 705.17,-56.5"/>
<text text-anchor="middle" x="783.67" y="-63.5" font-family="Helvetica,sans-Serif" font-size="10.00">linked_list/LinkedListModel.h</text>
</a>
</g>
</g>
<!-- Node5&#45;&gt;Node135 -->
<g id="edge15" class="edge">
<title>Node5&#45;&gt;Node135</title>
<path fill="none" stroke="midnightblue" d="M589.23,-168.37C625.98,-149.21 714.55,-103.04 758.32,-80.22"/>
<polygon fill="midnightblue" stroke="midnightblue" points="759.94,-83.32 767.19,-75.59 756.71,-77.11 759.94,-83.32"/>
</g>
<!-- Node137 -->
<g id="node11" class="node">
<title>Node137</title>
<g id="a_node11"><a xlink:href="../../de/dc6/_linked_list_8h.html" target="_top" xlink:title=" ">
<polygon fill="none" stroke="red" points="874.17,-112.5 874.17,-131.5 1001.17,-131.5 1001.17,-112.5 874.17,-112.5"/>
<text text-anchor="middle" x="937.67" y="-119.5" font-family="Helvetica,sans-Serif" font-size="10.00">linked_list/LinkedList.h</text>
</a>
</g>
</g>
<!-- Node5&#45;&gt;Node137 -->
<g id="edge18" class="edge">
<title>Node5&#45;&gt;Node137</title>
<path fill="none" stroke="midnightblue" d="M630.51,-168.44C695.52,-158.83 800.95,-143.23 869.8,-133.04"/>
<polygon fill="midnightblue" stroke="midnightblue" points="870.73,-136.44 880.11,-131.52 869.7,-129.52 870.73,-136.44"/>
</g>
<!-- Node139 -->
<g id="node12" class="node">
<title>Node139</title>
<g id="a_node12"><a xlink:href="../../d9/daa/_abstract_f_i_f_o_8h_source.html" target="_top" xlink:title=" ">
<polygon fill="none" stroke="red" points="580.17,-56.5 580.17,-75.5 687.17,-75.5 687.17,-56.5 580.17,-56.5"/>
<text text-anchor="middle" x="633.67" y="-63.5" font-family="Helvetica,sans-Serif" font-size="10.00">fifo/AbstractFIFO.h</text>
</a>
</g>
</g>
<!-- Node5&#45;&gt;Node139 -->
<g id="edge22" class="edge">
<title>Node5&#45;&gt;Node139</title>
<path fill="none" stroke="midnightblue" d="M577.46,-168.37C587.44,-150.38 610.63,-108.55 623.9,-84.63"/>
<polygon fill="midnightblue" stroke="midnightblue" points="627.12,-86.03 628.91,-75.59 621,-82.64 627.12,-86.03"/>
</g>
<!-- Node140 -->
<g id="node13" class="node">
<title>Node140</title>
<g id="a_node13"><a xlink:href="../../dd/d35/_f_i_f_o_8h_source.html" target="_top" xlink:title=" ">
<polygon fill="none" stroke="red" points="494.17,-112.5 494.17,-131.5 561.17,-131.5 561.17,-112.5 494.17,-112.5"/>
<text text-anchor="middle" x="527.67" y="-119.5" font-family="Helvetica,sans-Serif" font-size="10.00">fifo/FIFO.h</text>
</a>
</g>
</g>
<!-- Node5&#45;&gt;Node140 -->
<g id="edge25" class="edge">
<title>Node5&#45;&gt;Node140</title>
<path fill="none" stroke="midnightblue" d="M565.24,-168.08C558.82,-160.38 549.37,-149.03 541.55,-139.65"/>
<polygon fill="midnightblue" stroke="midnightblue" points="544.06,-137.19 534.96,-131.75 538.68,-141.67 544.06,-137.19"/>
</g>
<!-- Node6&#45;&gt;Node4 -->
<g id="edge6" class="edge">
<title>Node6&#45;&gt;Node4</title>
<path fill="none" stroke="midnightblue" d="M239.29,-56.44C220.46,-47.68 190.94,-33.94 169.29,-23.86"/>
<polygon fill="midnightblue" stroke="midnightblue" points="170.51,-20.56 159.97,-19.52 167.56,-26.91 170.51,-20.56"/>
</g>
<!-- Node6&#45;&gt;Node13 -->
<g id="edge7" class="edge">
<title>Node6&#45;&gt;Node13</title>
<path fill="none" stroke="midnightblue" d="M305.25,-57.43C308.44,-56.94 311.6,-56.46 314.67,-56 401.57,-43.01 501.94,-29.02 566.53,-20.14"/>
<polygon fill="midnightblue" stroke="midnightblue" points="567.15,-23.59 576.58,-18.76 566.2,-16.66 567.15,-23.59"/>
</g>
<!-- Node133&#45;&gt;Node3 -->
<g id="edge9" class="edge">
<title>Node133&#45;&gt;Node3</title>
<path fill="none" stroke="midnightblue" d="M968.44,-56.32C952.32,-47.7 927.37,-34.36 908.71,-24.39"/>
<polygon fill="midnightblue" stroke="midnightblue" points="910.33,-21.28 899.86,-19.65 907.03,-27.46 910.33,-21.28"/>
</g>
<!-- Node133&#45;&gt;Node13 -->
<g id="edge10" class="edge">
<title>Node133&#45;&gt;Node13</title>
<path fill="none" stroke="midnightblue" d="M929.05,-56.44C866.54,-46.83 765.15,-31.23 698.94,-21.04"/>
<polygon fill="midnightblue" stroke="midnightblue" points="699.44,-17.58 689.03,-19.52 698.38,-24.5 699.44,-17.58"/>
</g>
<!-- Node134&#45;&gt;Node3 -->
<g id="edge12" class="edge">
<title>Node134&#45;&gt;Node3</title>
<path fill="none" stroke="midnightblue" d="M480.31,-56.47C577.33,-45.54 743.29,-26.83 828.95,-17.17"/>
<polygon fill="midnightblue" stroke="midnightblue" points="829.44,-20.64 838.99,-16.04 828.66,-13.68 829.44,-20.64"/>
</g>
<!-- Node134&#45;&gt;Node4 -->
<g id="edge14" class="edge">
<title>Node134&#45;&gt;Node4</title>
<path fill="none" stroke="midnightblue" d="M363,-56.44C310.48,-45.66 221.35,-27.36 173.8,-17.6"/>
<polygon fill="midnightblue" stroke="midnightblue" points="174.26,-14.12 163.76,-15.54 172.85,-20.98 174.26,-14.12"/>
</g>
<!-- Node134&#45;&gt;Node13 -->
<g id="edge13" class="edge">
<title>Node134&#45;&gt;Node13</title>
<path fill="none" stroke="midnightblue" d="M440.96,-56.44C480.65,-47.08 544.38,-32.06 587.58,-21.87"/>
<polygon fill="midnightblue" stroke="midnightblue" points="588.63,-25.22 597.56,-19.52 587.02,-18.41 588.63,-25.22"/>
</g>
<!-- Node135&#45;&gt;Node3 -->
<g id="edge16" class="edge">
<title>Node135&#45;&gt;Node3</title>
<path fill="none" stroke="midnightblue" d="M799.74,-56.32C815.63,-47.74 840.18,-34.49 858.63,-24.52"/>
<polygon fill="midnightblue" stroke="midnightblue" points="860.51,-27.49 867.65,-19.65 857.18,-21.33 860.51,-27.49"/>
</g>
<!-- Node135&#45;&gt;Node13 -->
<g id="edge17" class="edge">
<title>Node135&#45;&gt;Node13</title>
<path fill="none" stroke="midnightblue" d="M759.9,-56.44C734.78,-47.4 694.96,-33.06 666.77,-22.92"/>
<polygon fill="midnightblue" stroke="midnightblue" points="667.92,-19.61 657.33,-19.52 665.55,-26.2 667.92,-19.61"/>
</g>
<!-- Node137&#45;&gt;Node3 -->
<g id="edge19" class="edge">
<title>Node137&#45;&gt;Node3</title>
<path fill="none" stroke="midnightblue" d="M989.9,-112.44C1032.63,-103.13 1082.56,-85.48 1059.67,-56 1044.84,-36.89 984.59,-24.53 938.67,-17.68"/>
<polygon fill="midnightblue" stroke="midnightblue" points="938.93,-14.18 928.53,-16.23 937.93,-21.11 938.93,-14.18"/>
</g>
<!-- Node137&#45;&gt;Node13 -->
<g id="edge21" class="edge">
<title>Node137&#45;&gt;Node13</title>
<path fill="none" stroke="midnightblue" d="M931.38,-112.19C920.67,-97.91 897.42,-69.89 870.67,-56 817.75,-28.52 750.39,-17.69 701.02,-13.49"/>
<polygon fill="midnightblue" stroke="midnightblue" points="701.01,-9.97 690.77,-12.69 700.47,-16.95 701.01,-9.97"/>
</g>
<!-- Node137&#45;&gt;Node133 -->
<g id="edge20" class="edge">
<title>Node137&#45;&gt;Node133</title>
<path fill="none" stroke="midnightblue" d="M945.43,-112.08C952.21,-104.3 962.22,-92.8 970.43,-83.37"/>
<polygon fill="midnightblue" stroke="midnightblue" points="973.13,-85.59 977.06,-75.75 967.85,-81 973.13,-85.59"/>
</g>
<!-- Node139&#45;&gt;Node3 -->
<g id="edge23" class="edge">
<title>Node139&#45;&gt;Node3</title>
<path fill="none" stroke="midnightblue" d="M673.29,-56.44C716.9,-47.02 787.07,-31.87 834.25,-21.68"/>
<polygon fill="midnightblue" stroke="midnightblue" points="835.21,-25.05 844.24,-19.52 833.73,-18.21 835.21,-25.05"/>
</g>
<!-- Node139&#45;&gt;Node13 -->
<g id="edge24" class="edge">
<title>Node139&#45;&gt;Node13</title>
<path fill="none" stroke="midnightblue" d="M633.67,-56.08C633.67,-49.01 633.67,-38.86 633.67,-29.99"/>
<polygon fill="midnightblue" stroke="midnightblue" points="637.17,-29.75 633.67,-19.75 630.17,-29.75 637.17,-29.75"/>
</g>
<!-- Node140&#45;&gt;Node3 -->
<g id="edge26" class="edge">
<title>Node140&#45;&gt;Node3</title>
<path fill="none" stroke="midnightblue" d="M530.79,-112.1C536.35,-97.68 549.41,-69.47 570.67,-56 612.51,-29.5 750.81,-18 828.85,-13.52"/>
<polygon fill="midnightblue" stroke="midnightblue" points="829.19,-17.01 838.98,-12.96 828.8,-10.02 829.19,-17.01"/>
</g>
<!-- Node140&#45;&gt;Node6 -->
<g id="edge29" class="edge">
<title>Node140&#45;&gt;Node6</title>
<path fill="none" stroke="midnightblue" d="M494.02,-114.27C447.94,-105.05 364.72,-88.41 310.34,-77.53"/>
<polygon fill="midnightblue" stroke="midnightblue" points="310.7,-74.04 300.21,-75.51 309.33,-80.9 310.7,-74.04"/>
</g>
<!-- Node140&#45;&gt;Node13 -->
<g id="edge30" class="edge">
<title>Node140&#45;&gt;Node13</title>
<path fill="none" stroke="midnightblue" d="M526.61,-112.46C525.42,-99.04 525.08,-72.82 537.67,-56 549.49,-40.21 568.24,-29.75 586.04,-22.93"/>
<polygon fill="midnightblue" stroke="midnightblue" points="587.51,-26.13 595.78,-19.51 585.19,-19.52 587.51,-26.13"/>
</g>
<!-- Node140&#45;&gt;Node139 -->
<g id="edge28" class="edge">
<title>Node140&#45;&gt;Node139</title>
<path fill="none" stroke="midnightblue" d="M544.7,-112.32C561.7,-103.66 588.05,-90.24 607.66,-80.25"/>
<polygon fill="midnightblue" stroke="midnightblue" points="609.36,-83.31 616.68,-75.65 606.18,-77.08 609.36,-83.31"/>
</g>
<!-- Node140&#45;&gt;Node10 -->
<g id="edge27" class="edge">
<title>Node140&#45;&gt;Node10</title>
<path fill="none" stroke="midnightblue" d="M493.76,-116.5C436.08,-108.81 314.94,-92.5 202.07,-76.19"/>
<polygon fill="midnightblue" stroke="midnightblue" points="202.28,-72.68 191.88,-74.71 201.27,-79.61 202.28,-72.68"/>
</g>
<!-- Node141&#45;&gt;Node3 -->
<g id="edge34" class="edge">
<title>Node141&#45;&gt;Node3</title>
<path fill="none" stroke="midnightblue" d="M632.2,-232.46C769.65,-229.8 1102.45,-214.77 1168.67,-132 1189.77,-105.62 1190.61,-81.68 1168.67,-56 1139.65,-22.04 1012.72,-13.56 938.4,-11.54"/>
<polygon fill="midnightblue" stroke="midnightblue" points="938.36,-8.03 928.28,-11.29 938.2,-15.03 938.36,-8.03"/>
</g>
<!-- Node141&#45;&gt;Node4 -->
<g id="edge36" class="edge">
<title>Node141&#45;&gt;Node4</title>
<path fill="none" stroke="midnightblue" d="M522.29,-224.49C408.16,-204.09 135.66,-148.61 82.67,-76 68.76,-56.93 93.27,-37.15 114.81,-24.49"/>
<polygon fill="midnightblue" stroke="midnightblue" points="116.7,-27.44 123.74,-19.52 113.3,-21.33 116.7,-27.44"/>
</g>
<!-- Node141&#45;&gt;Node5 -->
<g id="edge35" class="edge">
<title>Node141&#45;&gt;Node5</title>
<path fill="none" stroke="midnightblue" d="M572.67,-224.08C572.67,-217.01 572.67,-206.86 572.67,-197.99"/>
<polygon fill="midnightblue" stroke="midnightblue" points="576.17,-197.75 572.67,-187.75 569.17,-197.75 576.17,-197.75"/>
</g>
<!-- Node141&#45;&gt;Node13 -->
<g id="edge37" class="edge">
<title>Node141&#45;&gt;Node13</title>
<path fill="none" stroke="midnightblue" d="M632.36,-230.54C720.62,-224.5 888.56,-203.7 1009.67,-132 1038.38,-115 1047.78,-107.17 1059.67,-76 1062.84,-67.69 1065.62,-62.61 1059.67,-56 1047.84,-42.85 818.3,-24.39 701.18,-15.78"/>
<polygon fill="midnightblue" stroke="midnightblue" points="701.13,-12.26 690.9,-15.03 700.61,-19.25 701.13,-12.26"/>
</g>
</g>
</svg>
        <g id="navigator" transform="translate(0 0)" fill="#404254">
                <rect fill="#f2f5e9" fill-opacity="0.5" stroke="#606060" stroke-width=".5" x="0" y="0" width="60" height="60"/>
                <use id="zoomplus" xlink:href="#zoomPlus" x="17" y="9" onmousedown="handleZoom(evt,'in')"/>
                <use id="zoomminus" xlink:href="#zoomMin" x="42" y="9" onmousedown="handleZoom(evt,'out')"/>
                <use id="reset" xlink:href="#resetDef" x="30" y="36" onmousedown="handleReset()"/>
                <g id="arrowUp" xlink:href="#dirArrow" transform="translate(30 24)" onmousedown="handlePan(0,-1)">
                  <use xlink:href="#rim" fill="#404040">
                        <set attributeName="fill" to="#808080" begin="arrowUp.mouseover" end="arrowUp.mouseout"/>
                  </use>
                  <path fill="none" stroke="white" stroke-width="1.5" d="M0,-3.0v7 M-2.5,-0.5L0,-3.0L2.5,-0.5"/>
                </g>
                <g id="arrowRight" xlink:href="#dirArrow" transform="rotate(90) translate(36 -43)" onmousedown="handlePan(1,0)">
                  <use xlink:href="#rim" fill="#404040">
                        <set attributeName="fill" to="#808080" begin="arrowRight.mouseover" end="arrowRight.mouseout"/>
                  </use>
                  <path fill="none" stroke="white" stroke-width="1.5" d="M0,-3.0v7 M-2.5,-0.5L0,-3.0L2.5,-0.5"/>
                </g>
                <g id="arrowDown" xlink:href="#dirArrow" transform="rotate(180) translate(-30 -48)" onmousedown="handlePan(0,1)">
                  <use xlink:href="#rim" fill="#404040">
                        <set attributeName="fill" to="#808080" begin="arrowDown.mouseover" end="arrowDown.mouseout"/>
                  </use>
                  <path fill="none" stroke="white" stroke-width="1.5" d="M0,-3.0v7 M-2.5,-0.5L0,-3.0L2.5,-0.5"/>
                </g>
                <g id="arrowLeft" xlink:href="#dirArrow" transform="rotate(270) translate(-36 17)" onmousedown="handlePan(-1,0)">
                  <use xlink:href="#rim" fill="#404040">
                        <set attributeName="fill" to="#808080" begin="arrowLeft.mouseover" end="arrowLeft.mouseout"/>
                  </use>
                  <path fill="none" stroke="white" stroke-width="1.5" d="M0,-3.0v7 M-2.5,-0.5L0,-3.0L2.5,-0.5"/>
                </g>
        </g>
        <svg viewBox="0 0 15 15" width="100%" height="30px" preserveAspectRatio="xMaxYMin meet">
         <g id="arrow_out" transform="scale(0.3 0.3)">
          <a xlink:href="limes__locale_8h__incl_org.svg" target="_base">
           <rect id="button" ry="5" rx="5" y="6" x="6" height="38" width="38"
                fill="#f2f5e9" fill-opacity="0.5" stroke="#606060" stroke-width="1.0"/>
           <path id="arrow"
             d="M 11.500037,31.436501 C 11.940474,20.09759 22.043105,11.32322 32.158766,21.979434 L 37.068811,17.246167 C 37.068811,17.246167 37.088388,32 37.088388,32 L 22.160133,31.978069 C 22.160133,31.978069 26.997745,27.140456 26.997745,27.140456 C 18.528582,18.264221 13.291696,25.230495 11.500037,31.436501 z"
             style="fill:#404040;"/>
          </a>
         </g>
        </svg>
</svg>
