<?xml version="1.0" encoding="UTF-8" standalone="no"?>
<!DOCTYPE svg PUBLIC "-//W3C//DTD SVG 1.1//EN"
 "http://www.w3.org/Graphics/SVG/1.1/DTD/svg11.dtd">
<!-- Generated by graphviz version 2.43.0 (0)
 -->
<!-- Title: hash.h Pages: 1 -->
<!--zoomable 252 -->
<svg id="main" version="1.1" xmlns="http://www.w3.org/2000/svg" xmlns:xlink="http://www.w3.org/1999/xlink" xml:space="preserve" onload="init(evt)">
<style type="text/css"><![CDATA[
.edge:hover path { stroke: red; }
.edge:hover polygon { stroke: red; fill: red; }
]]></style>
<script type="text/javascript"><![CDATA[
var edges = document.getElementsByTagName('g');
if (edges && edges.length) {
  for (var i=0;i<edges.length;i++) {
    if (edges[i].id.substr(0,4)=='edge') {
      edges[i].setAttribute('class','edge');
    }
  }
}
]]></script>
        <defs>
                <circle id="rim" cx="0" cy="0" r="7"/>
                <circle id="rim2" cx="0" cy="0" r="3.5"/>
                <g id="zoomPlus">
                        <use xlink:href="#rim" fill="#404040">
                                <set attributeName="fill" to="#808080" begin="zoomplus.mouseover" end="zoomplus.mouseout"/>
                        </use>
                        <path d="M-4,0h8M0,-4v8" fill="none" stroke="white" stroke-width="1.5" pointer-events="none"/>
                </g>
                <g id="zoomMin">
                        <use xlink:href="#rim" fill="#404040">
                                <set attributeName="fill" to="#808080" begin="zoomminus.mouseover" end="zoomminus.mouseout"/>
                        </use>
                        <path d="M-4,0h8" fill="none" stroke="white" stroke-width="1.5" pointer-events="none"/>
                </g>
                <g id="dirArrow">
                        <path fill="none" stroke="white" stroke-width="1.5" d="M0,-3.0v7 M-2.5,-0.5L0,-3.0L2.5,-0.5"/>
                </g>
               <g id="resetDef">
                       <use xlink:href="#rim2" fill="#404040">
                               <set attributeName="fill" to="#808080" begin="reset.mouseover" end="reset.mouseout"/>
                       </use>
               </g>
        </defs>

<script type="text/javascript">
var viewWidth = 654;
var viewHeight = 252;
var sectionId = 'dynsection-1';
</script>
<script xlink:href="../../svgpan.js"/>
<svg id="graph" class="graph">
<g id="viewport">
<title>hash.h</title>
<!-- Node1 -->
<g id="node1" class="node">
<title>Node1</title>
<g id="a_node1"><a xlink:title=" ">
<polygon fill="#bfbfbf" stroke="black" points="340.11,-224.5 340.11,-243.5 389.11,-243.5 389.11,-224.5 340.11,-224.5"/>
<text text-anchor="middle" x="364.61" y="-231.5" font-family="Helvetica,sans-Serif" font-size="10.00">hash.h</text>
</a>
</g>
</g>
<!-- Node2 -->
<g id="node2" class="node">
<title>Node2</title>
<g id="a_node2"><a xlink:href="../../d2/d4d/file_8h.html" target="_top" xlink:title=" ">
<polygon fill="none" stroke="black" points="56.11,-112.5 56.11,-131.5 97.11,-131.5 97.11,-112.5 56.11,-112.5"/>
<text text-anchor="middle" x="76.61" y="-119.5" font-family="Helvetica,sans-Serif" font-size="10.00">file.h</text>
</a>
</g>
</g>
<!-- Node1&#45;&gt;Node2 -->
<g id="edge1" class="edge">
<title>Node1&#45;&gt;Node2</title>
<path fill="none" stroke="midnightblue" d="M329.85,-231.23C285.78,-227.78 208.44,-217.65 149.61,-188 121.42,-173.79 95.66,-145.92 83.67,-131.74"/>
<polygon fill="midnightblue" stroke="midnightblue" points="329.82,-234.73 340.05,-231.95 330.32,-227.75 329.82,-234.73"/>
</g>
<!-- Node4 -->
<g id="node4" class="node">
<title>Node4</title>
<g id="a_node4"><a xlink:href="../../d9/df8/limes__core_8h.html" target="_top" xlink:title=" ">
<polygon fill="none" stroke="red" points="254.11,-0.5 254.11,-19.5 333.11,-19.5 333.11,-0.5 254.11,-0.5"/>
<text text-anchor="middle" x="293.61" y="-7.5" font-family="Helvetica,sans-Serif" font-size="10.00">limes_core.h</text>
</a>
</g>
</g>
<!-- Node1&#45;&gt;Node4 -->
<g id="edge24" class="edge">
<title>Node1&#45;&gt;Node4</title>
<path fill="none" stroke="midnightblue" d="M329.62,-232.46C247.92,-228.99 48.1,-206.99 3.61,-76 0.75,-67.58 -2.18,-62.75 3.61,-56 35.39,-18.91 182.26,-12.13 253.98,-11.07"/>
<polygon fill="midnightblue" stroke="midnightblue" points="329.77,-235.97 339.89,-232.82 330.02,-228.97 329.77,-235.97"/>
</g>
<!-- Node71 -->
<g id="node6" class="node">
<title>Node71</title>
<g id="a_node6"><a xlink:href="../../d2/dea/_raw_data_8h.html" target="_top" xlink:title=" ">
<polygon fill="none" stroke="black" points="158.61,-168.5 158.61,-187.5 228.61,-187.5 228.61,-168.5 158.61,-168.5"/>
<text text-anchor="middle" x="193.61" y="-175.5" font-family="Helvetica,sans-Serif" font-size="10.00">RawData.h</text>
</a>
</g>
</g>
<!-- Node1&#45;&gt;Node71 -->
<g id="edge7" class="edge">
<title>Node1&#45;&gt;Node71</title>
<path fill="none" stroke="midnightblue" d="M330.2,-222.14C297.9,-211.94 250.24,-196.88 220.6,-187.52"/>
<polygon fill="midnightblue" stroke="midnightblue" points="329.52,-225.59 340.11,-225.26 331.62,-218.91 329.52,-225.59"/>
</g>
<!-- Node73 -->
<g id="node8" class="node">
<title>Node73</title>
<g id="a_node8"><a xlink:href="../../da/db0/md5_8h.html" target="_top" xlink:title=" ">
<polygon fill="none" stroke="black" points="289.11,-112.5 289.11,-131.5 336.11,-131.5 336.11,-112.5 289.11,-112.5"/>
<text text-anchor="middle" x="312.61" y="-119.5" font-family="Helvetica,sans-Serif" font-size="10.00">md5.h</text>
</a>
</g>
</g>
<!-- Node1&#45;&gt;Node73 -->
<g id="edge12" class="edge">
<title>Node1&#45;&gt;Node73</title>
<path fill="none" stroke="midnightblue" d="M356.25,-215.32C344.93,-191.37 325.16,-149.55 316.67,-131.59"/>
<polygon fill="midnightblue" stroke="midnightblue" points="353.09,-216.82 360.53,-224.37 359.42,-213.83 353.09,-216.82"/>
</g>
<!-- Node74 -->
<g id="node9" class="node">
<title>Node74</title>
<g id="a_node9"><a xlink:href="../../db/db5/sha1_8h.html" target="_top" xlink:title=" ">
<polygon fill="none" stroke="black" points="341.11,-56.5 341.11,-75.5 390.11,-75.5 390.11,-56.5 341.11,-56.5"/>
<text text-anchor="middle" x="365.61" y="-63.5" font-family="Helvetica,sans-Serif" font-size="10.00">sha1.h</text>
</a>
</g>
</g>
<!-- Node1&#45;&gt;Node74 -->
<g id="edge14" class="edge">
<title>Node1&#45;&gt;Node74</title>
<path fill="none" stroke="midnightblue" d="M364.72,-213.93C364.94,-177.92 365.4,-101.23 365.55,-75.57"/>
<polygon fill="midnightblue" stroke="midnightblue" points="361.22,-214.05 364.66,-224.08 368.22,-214.1 361.22,-214.05"/>
</g>
<!-- Node75 -->
<g id="node10" class="node">
<title>Node75</title>
<g id="a_node10"><a xlink:href="../../d3/d51/sha224_8h.html" target="_top" xlink:title=" ">
<polygon fill="none" stroke="black" points="393.11,-112.5 393.11,-131.5 454.11,-131.5 454.11,-112.5 393.11,-112.5"/>
<text text-anchor="middle" x="423.61" y="-119.5" font-family="Helvetica,sans-Serif" font-size="10.00">sha224.h</text>
</a>
</g>
</g>
<!-- Node1&#45;&gt;Node75 -->
<g id="edge16" class="edge">
<title>Node1&#45;&gt;Node75</title>
<path fill="none" stroke="midnightblue" d="M374.09,-215.32C386.94,-191.37 409.37,-149.55 419,-131.59"/>
<polygon fill="midnightblue" stroke="midnightblue" points="370.88,-213.9 369.24,-224.37 377.05,-217.21 370.88,-213.9"/>
</g>
<!-- Node76 -->
<g id="node11" class="node">
<title>Node76</title>
<g id="a_node11"><a xlink:href="../../d5/de3/sha256_8h.html" target="_top" xlink:title=" ">
<polygon fill="none" stroke="black" points="447.11,-56.5 447.11,-75.5 508.11,-75.5 508.11,-56.5 447.11,-56.5"/>
<text text-anchor="middle" x="477.61" y="-63.5" font-family="Helvetica,sans-Serif" font-size="10.00">sha256.h</text>
</a>
</g>
</g>
<!-- Node1&#45;&gt;Node76 -->
<g id="edge18" class="edge">
<title>Node1&#45;&gt;Node76</title>
<path fill="none" stroke="midnightblue" d="M384.55,-218.11C407.06,-200.2 443.07,-168.02 462.61,-132 472.66,-113.47 476,-88.44 477.09,-75.51"/>
<polygon fill="midnightblue" stroke="midnightblue" points="382.13,-215.56 376.38,-224.46 386.42,-221.09 382.13,-215.56"/>
</g>
<!-- Node77 -->
<g id="node12" class="node">
<title>Node77</title>
<g id="a_node12"><a xlink:href="../../d5/de0/sha384_8h.html" target="_top" xlink:title=" ">
<polygon fill="none" stroke="black" points="506.11,-168.5 506.11,-187.5 567.11,-187.5 567.11,-168.5 506.11,-168.5"/>
<text text-anchor="middle" x="536.61" y="-175.5" font-family="Helvetica,sans-Serif" font-size="10.00">sha384.h</text>
</a>
</g>
</g>
<!-- Node1&#45;&gt;Node77 -->
<g id="edge20" class="edge">
<title>Node1&#45;&gt;Node77</title>
<path fill="none" stroke="midnightblue" d="M398.79,-222.27C431.28,-212.07 479.51,-196.92 509.45,-187.52"/>
<polygon fill="midnightblue" stroke="midnightblue" points="397.74,-218.93 389.25,-225.26 399.84,-225.61 397.74,-218.93"/>
</g>
<!-- Node78 -->
<g id="node13" class="node">
<title>Node78</title>
<g id="a_node13"><a xlink:href="../../da/d73/sha512_8h.html" target="_top" xlink:title=" ">
<polygon fill="none" stroke="black" points="585.11,-168.5 585.11,-187.5 646.11,-187.5 646.11,-168.5 585.11,-168.5"/>
<text text-anchor="middle" x="615.61" y="-175.5" font-family="Helvetica,sans-Serif" font-size="10.00">sha512.h</text>
</a>
</g>
</g>
<!-- Node1&#45;&gt;Node78 -->
<g id="edge22" class="edge">
<title>Node1&#45;&gt;Node78</title>
<path fill="none" stroke="midnightblue" d="M399.26,-225.73C441.09,-216.93 513.54,-201.6 575.61,-188 578.67,-187.33 581.86,-186.62 585.04,-185.91"/>
<polygon fill="midnightblue" stroke="midnightblue" points="398.38,-222.34 389.31,-227.82 399.82,-229.19 398.38,-222.34"/>
</g>
<!-- Node3 -->
<g id="node3" class="node">
<title>Node3</title>
<g id="a_node3"><a xlink:href="../../d9/d0f/directory_8h.html" target="_top" xlink:title=" ">
<polygon fill="none" stroke="black" points="20.61,-56.5 20.61,-75.5 88.61,-75.5 88.61,-56.5 20.61,-56.5"/>
<text text-anchor="middle" x="54.61" y="-63.5" font-family="Helvetica,sans-Serif" font-size="10.00">directory.h</text>
</a>
</g>
</g>
<!-- Node2&#45;&gt;Node3 -->
<g id="edge2" class="edge">
<title>Node2&#45;&gt;Node3</title>
<path fill="none" stroke="midnightblue" d="M69.15,-102.69C65.44,-93.59 61.13,-83.01 58.17,-75.75"/>
<polygon fill="midnightblue" stroke="midnightblue" points="65.96,-104.14 72.97,-112.08 72.44,-101.5 65.96,-104.14"/>
</g>
<!-- Node2&#45;&gt;Node4 -->
<g id="edge6" class="edge">
<title>Node2&#45;&gt;Node4</title>
<path fill="none" stroke="midnightblue" d="M47.64,-107.9C23.46,-95.18 -4.65,-75.06 11.61,-56 42.29,-20.03 183.82,-12.68 253.97,-11.27"/>
<polygon fill="midnightblue" stroke="midnightblue" points="46.11,-111.04 56.62,-112.39 49.24,-104.78 46.11,-111.04"/>
</g>
<!-- Node70 -->
<g id="node5" class="node">
<title>Node70</title>
<g id="a_node5"><a xlink:href="../../d3/d36/_dynamic_library_8h.html" target="_top" xlink:title=" ">
<polygon fill="none" stroke="black" points="107.11,-56.5 107.11,-75.5 208.11,-75.5 208.11,-56.5 107.11,-56.5"/>
<text text-anchor="middle" x="157.61" y="-63.5" font-family="Helvetica,sans-Serif" font-size="10.00">DynamicLibrary.h</text>
</a>
</g>
</g>
<!-- Node2&#45;&gt;Node70 -->
<g id="edge4" class="edge">
<title>Node2&#45;&gt;Node70</title>
<path fill="none" stroke="midnightblue" d="M98.17,-106.62C112.97,-96.76 132.12,-83.99 144.62,-75.65"/>
<polygon fill="midnightblue" stroke="midnightblue" points="96,-103.86 89.62,-112.32 99.88,-109.69 96,-103.86"/>
</g>
<!-- Node3&#45;&gt;Node4 -->
<g id="edge3" class="edge">
<title>Node3&#45;&gt;Node4</title>
<path fill="none" stroke="midnightblue" d="M98.65,-55.05C143.78,-44.85 213.2,-29.17 255.88,-19.52"/>
<polygon fill="midnightblue" stroke="midnightblue" points="97.83,-51.65 88.85,-57.26 99.37,-58.47 97.83,-51.65"/>
</g>
<!-- Node70&#45;&gt;Node4 -->
<g id="edge5" class="edge">
<title>Node70&#45;&gt;Node4</title>
<path fill="none" stroke="midnightblue" d="M188.74,-52.64C214.26,-42.5 249.72,-28.43 272.16,-19.52"/>
<polygon fill="midnightblue" stroke="midnightblue" points="187.16,-49.5 179.16,-56.44 189.74,-56.01 187.16,-49.5"/>
</g>
<!-- Node71&#45;&gt;Node2 -->
<g id="edge8" class="edge">
<title>Node71&#45;&gt;Node2</title>
<path fill="none" stroke="midnightblue" d="M165.94,-164.23C144.06,-154.13 114.11,-140.31 95.06,-131.52"/>
<polygon fill="midnightblue" stroke="midnightblue" points="164.52,-167.43 175.07,-168.44 167.45,-161.08 164.52,-167.43"/>
</g>
<!-- Node71&#45;&gt;Node4 -->
<g id="edge11" class="edge">
<title>Node71&#45;&gt;Node4</title>
<path fill="none" stroke="midnightblue" d="M170.36,-162.61C152.73,-149.79 133.31,-130.29 144.61,-112 163.42,-81.57 186.73,-95.68 216.61,-76 243.2,-58.49 270.9,-33.02 284.69,-19.76"/>
<polygon fill="midnightblue" stroke="midnightblue" points="168.5,-165.57 178.73,-168.33 172.45,-159.8 168.5,-165.57"/>
</g>
<!-- Node72 -->
<g id="node7" class="node">
<title>Node72</title>
<g id="a_node7"><a xlink:href="../../d0/dd9/_embedded_binaries_8h.html" target="_top" xlink:title=" ">
<polygon fill="none" stroke="black" points="154.11,-112.5 154.11,-131.5 271.11,-131.5 271.11,-112.5 154.11,-112.5"/>
<text text-anchor="middle" x="212.61" y="-119.5" font-family="Helvetica,sans-Serif" font-size="10.00">EmbeddedBinaries.h</text>
</a>
</g>
</g>
<!-- Node71&#45;&gt;Node72 -->
<g id="edge9" class="edge">
<title>Node71&#45;&gt;Node72</title>
<path fill="none" stroke="midnightblue" d="M200.15,-158.4C203.33,-149.36 207,-138.94 209.53,-131.75"/>
<polygon fill="midnightblue" stroke="midnightblue" points="196.76,-157.49 196.74,-168.08 203.36,-159.81 196.76,-157.49"/>
</g>
<!-- Node72&#45;&gt;Node4 -->
<g id="edge10" class="edge">
<title>Node72&#45;&gt;Node4</title>
<path fill="none" stroke="midnightblue" d="M227.16,-104.71C234.44,-96.32 243.25,-85.82 250.61,-76 265.21,-56.51 280.53,-32.29 288.35,-19.63"/>
<polygon fill="midnightblue" stroke="midnightblue" points="224.47,-102.47 220.49,-112.29 229.72,-107.09 224.47,-102.47"/>
</g>
<!-- Node73&#45;&gt;Node4 -->
<g id="edge13" class="edge">
<title>Node73&#45;&gt;Node4</title>
<path fill="none" stroke="midnightblue" d="M309.38,-102.35C305.22,-78.25 298.15,-37.31 295.09,-19.59"/>
<polygon fill="midnightblue" stroke="midnightblue" points="305.96,-103.11 311.12,-112.37 312.86,-101.92 305.96,-103.11"/>
</g>
<!-- Node74&#45;&gt;Node4 -->
<g id="edge15" class="edge">
<title>Node74&#45;&gt;Node4</title>
<path fill="none" stroke="midnightblue" d="M345.74,-50.1C332.78,-40.38 316.31,-28.03 305.38,-19.83"/>
<polygon fill="midnightblue" stroke="midnightblue" points="343.94,-53.12 354.04,-56.32 348.14,-47.52 343.94,-53.12"/>
</g>
<!-- Node75&#45;&gt;Node4 -->
<g id="edge17" class="edge">
<title>Node75&#45;&gt;Node4</title>
<path fill="none" stroke="midnightblue" d="M420.45,-102.11C417.19,-87.85 410.78,-68.64 398.61,-56 380.79,-37.5 354.13,-26.2 332.13,-19.55"/>
<polygon fill="midnightblue" stroke="midnightblue" points="417.09,-103.13 422.45,-112.27 423.96,-101.78 417.09,-103.13"/>
</g>
<!-- Node76&#45;&gt;Node4 -->
<g id="edge19" class="edge">
<title>Node76&#45;&gt;Node4</title>
<path fill="none" stroke="midnightblue" d="M438.65,-53.57C403.94,-43.38 353.93,-28.7 322.63,-19.52"/>
<polygon fill="midnightblue" stroke="midnightblue" points="437.87,-56.99 448.45,-56.44 439.84,-50.27 437.87,-56.99"/>
</g>
<!-- Node77&#45;&gt;Node4 -->
<g id="edge21" class="edge">
<title>Node77&#45;&gt;Node4</title>
<path fill="none" stroke="midnightblue" d="M539.47,-158C542.31,-131.42 543.01,-83.36 516.61,-56 491.78,-30.28 390.58,-18.44 333.42,-13.7"/>
<polygon fill="midnightblue" stroke="midnightblue" points="535.96,-157.88 538.15,-168.25 542.9,-158.77 535.96,-157.88"/>
</g>
<!-- Node78&#45;&gt;Node4 -->
<g id="edge23" class="edge">
<title>Node78&#45;&gt;Node4</title>
<path fill="none" stroke="midnightblue" d="M609.27,-158.8C598.84,-131.72 575.37,-81.3 537.61,-56 504.77,-34 393.64,-20.42 333.33,-14.49"/>
<polygon fill="midnightblue" stroke="midnightblue" points="606,-160.06 612.74,-168.24 612.57,-157.64 606,-160.06"/>
</g>
</g>
</svg>
        <g id="navigator" transform="translate(0 0)" fill="#404254">
                <rect fill="#f2f5e9" fill-opacity="0.5" stroke="#606060" stroke-width=".5" x="0" y="0" width="60" height="60"/>
                <use id="zoomplus" xlink:href="#zoomPlus" x="17" y="9" onmousedown="handleZoom(evt,'in')"/>
                <use id="zoomminus" xlink:href="#zoomMin" x="42" y="9" onmousedown="handleZoom(evt,'out')"/>
                <use id="reset" xlink:href="#resetDef" x="30" y="36" onmousedown="handleReset()"/>
                <g id="arrowUp" xlink:href="#dirArrow" transform="translate(30 24)" onmousedown="handlePan(0,-1)">
                  <use xlink:href="#rim" fill="#404040">
                        <set attributeName="fill" to="#808080" begin="arrowUp.mouseover" end="arrowUp.mouseout"/>
                  </use>
                  <path fill="none" stroke="white" stroke-width="1.5" d="M0,-3.0v7 M-2.5,-0.5L0,-3.0L2.5,-0.5"/>
                </g>
                <g id="arrowRight" xlink:href="#dirArrow" transform="rotate(90) translate(36 -43)" onmousedown="handlePan(1,0)">
                  <use xlink:href="#rim" fill="#404040">
                        <set attributeName="fill" to="#808080" begin="arrowRight.mouseover" end="arrowRight.mouseout"/>
                  </use>
                  <path fill="none" stroke="white" stroke-width="1.5" d="M0,-3.0v7 M-2.5,-0.5L0,-3.0L2.5,-0.5"/>
                </g>
                <g id="arrowDown" xlink:href="#dirArrow" transform="rotate(180) translate(-30 -48)" onmousedown="handlePan(0,1)">
                  <use xlink:href="#rim" fill="#404040">
                        <set attributeName="fill" to="#808080" begin="arrowDown.mouseover" end="arrowDown.mouseout"/>
                  </use>
                  <path fill="none" stroke="white" stroke-width="1.5" d="M0,-3.0v7 M-2.5,-0.5L0,-3.0L2.5,-0.5"/>
                </g>
                <g id="arrowLeft" xlink:href="#dirArrow" transform="rotate(270) translate(-36 17)" onmousedown="handlePan(-1,0)">
                  <use xlink:href="#rim" fill="#404040">
                        <set attributeName="fill" to="#808080" begin="arrowLeft.mouseover" end="arrowLeft.mouseout"/>
                  </use>
                  <path fill="none" stroke="white" stroke-width="1.5" d="M0,-3.0v7 M-2.5,-0.5L0,-3.0L2.5,-0.5"/>
                </g>
        </g>
        <svg viewBox="0 0 15 15" width="100%" height="30px" preserveAspectRatio="xMaxYMin meet">
         <g id="arrow_out" transform="scale(0.3 0.3)">
          <a xlink:href="hash_8h__dep__incl_org.svg" target="_base">
           <rect id="button" ry="5" rx="5" y="6" x="6" height="38" width="38"
                fill="#f2f5e9" fill-opacity="0.5" stroke="#606060" stroke-width="1.0"/>
           <path id="arrow"
             d="M 11.500037,31.436501 C 11.940474,20.09759 22.043105,11.32322 32.158766,21.979434 L 37.068811,17.246167 C 37.068811,17.246167 37.088388,32 37.088388,32 L 22.160133,31.978069 C 22.160133,31.978069 26.997745,27.140456 26.997745,27.140456 C 18.528582,18.264221 13.291696,25.230495 11.500037,31.436501 z"
             style="fill:#404040;"/>
          </a>
         </g>
        </svg>
</svg>
