<?xml version="1.0" encoding="UTF-8" standalone="no"?>
<!DOCTYPE svg PUBLIC "-//W3C//DTD SVG 1.1//EN"
 "http://www.w3.org/Graphics/SVG/1.1/DTD/svg11.dtd">
<!-- Generated by graphviz version 2.43.0 (0)
 -->
<!-- Title: limes::dsp::SampleStream&lt; SampleType &gt; Pages: 1 -->
<svg width="532pt" height="137pt"
 viewBox="0.00 0.00 532.00 137.00" xmlns="http://www.w3.org/2000/svg" xmlns:xlink="http://www.w3.org/1999/xlink">
<g id="graph0" class="graph" transform="scale(1 1) rotate(0) translate(4 133)">
<title>limes::dsp::SampleStream&lt; SampleType &gt;</title>
<!-- Node1 -->
<g id="node1" class="node">
<title>Node1</title>
<g id="a_node1"><a xlink:title="Base class for any object that can output a stream of audio samples, with no audio or MIDI input.">
<polygon fill="#bfbfbf" stroke="black" points="0,-24.5 0,-54.5 145,-54.5 145,-24.5 0,-24.5"/>
<text text-anchor="start" x="8" y="-42.5" font-family="Helvetica,sans-Serif" font-size="10.00">limes::dsp::SampleStream</text>
<text text-anchor="middle" x="72.5" y="-31.5" font-family="Helvetica,sans-Serif" font-size="10.00">&lt; SampleType &gt;</text>
</a>
</g>
</g>
<!-- Node2 -->
<g id="node2" class="node">
<title>Node2</title>
<g id="a_node2"><a xlink:href="../../d3/d36/structlimes_1_1dsp_1_1_oscillator.html" target="_top" xlink:title="Base class for any kind of oscillator.">
<polygon fill="none" stroke="black" points="210.5,-49.5 210.5,-79.5 329.5,-79.5 329.5,-49.5 210.5,-49.5"/>
<text text-anchor="start" x="218.5" y="-67.5" font-family="Helvetica,sans-Serif" font-size="10.00">limes::dsp::Oscillator</text>
<text text-anchor="middle" x="270" y="-56.5" font-family="Helvetica,sans-Serif" font-size="10.00">&lt; SampleType &gt;</text>
</a>
</g>
</g>
<!-- Node1&#45;&gt;Node2 -->
<g id="edge1" class="edge">
<title>Node1&#45;&gt;Node2</title>
<path fill="none" stroke="midnightblue" d="M155.11,-49.94C173.68,-52.31 193.06,-54.79 210.45,-57.01"/>
<polygon fill="midnightblue" stroke="midnightblue" points="155.55,-46.46 145.19,-48.67 154.66,-53.41 155.55,-46.46"/>
</g>
<!-- Node6 -->
<g id="node6" class="node">
<title>Node6</title>
<g id="a_node6"><a xlink:href="../../dc/d18/structlimes_1_1dsp_1_1_white_noise_generator.html" target="_top" xlink:title="A class that produces white noise.">
<polygon fill="none" stroke="black" points="181,-0.5 181,-30.5 359,-30.5 359,-0.5 181,-0.5"/>
<text text-anchor="start" x="189" y="-18.5" font-family="Helvetica,sans-Serif" font-size="10.00">limes::dsp::WhiteNoiseGenerator</text>
<text text-anchor="middle" x="270" y="-7.5" font-family="Helvetica,sans-Serif" font-size="10.00">&lt; SampleType &gt;</text>
</a>
</g>
</g>
<!-- Node1&#45;&gt;Node6 -->
<g id="edge5" class="edge">
<title>Node1&#45;&gt;Node6</title>
<path fill="none" stroke="midnightblue" d="M155.32,-29.46C163.7,-28.43 172.25,-27.38 180.7,-26.34"/>
<polygon fill="midnightblue" stroke="midnightblue" points="154.69,-26.01 145.19,-30.7 155.54,-32.95 154.69,-26.01"/>
</g>
<!-- Node3 -->
<g id="node3" class="node">
<title>Node3</title>
<g id="a_node3"><a xlink:href="../../d2/df5/structlimes_1_1dsp_1_1osc_1_1_saw.html" target="_top" xlink:title="A basic sawtooth wave oscillator.">
<polygon fill="none" stroke="black" points="401.5,-98.5 401.5,-128.5 517.5,-128.5 517.5,-98.5 401.5,-98.5"/>
<text text-anchor="start" x="409.5" y="-116.5" font-family="Helvetica,sans-Serif" font-size="10.00">limes::dsp::osc::Saw</text>
<text text-anchor="middle" x="459.5" y="-105.5" font-family="Helvetica,sans-Serif" font-size="10.00">&lt; SampleType &gt;</text>
</a>
</g>
</g>
<!-- Node2&#45;&gt;Node3 -->
<g id="edge2" class="edge">
<title>Node2&#45;&gt;Node3</title>
<path fill="none" stroke="midnightblue" d="M338.48,-82.14C359.09,-87.52 381.55,-93.39 401.4,-98.58"/>
<polygon fill="midnightblue" stroke="midnightblue" points="339.09,-78.68 328.53,-79.53 337.32,-85.45 339.09,-78.68"/>
</g>
<!-- Node4 -->
<g id="node4" class="node">
<title>Node4</title>
<g id="a_node4"><a xlink:href="../../d7/d5a/structlimes_1_1dsp_1_1osc_1_1_sine.html" target="_top" xlink:title="A basic sine wave oscillator.">
<polygon fill="none" stroke="black" points="401.5,-49.5 401.5,-79.5 517.5,-79.5 517.5,-49.5 401.5,-49.5"/>
<text text-anchor="start" x="409.5" y="-67.5" font-family="Helvetica,sans-Serif" font-size="10.00">limes::dsp::osc::Sine</text>
<text text-anchor="middle" x="459.5" y="-56.5" font-family="Helvetica,sans-Serif" font-size="10.00">&lt; SampleType &gt;</text>
</a>
</g>
</g>
<!-- Node2&#45;&gt;Node4 -->
<g id="edge3" class="edge">
<title>Node2&#45;&gt;Node4</title>
<path fill="none" stroke="midnightblue" d="M339.66,-64.5C359.93,-64.5 381.89,-64.5 401.35,-64.5"/>
<polygon fill="midnightblue" stroke="midnightblue" points="339.55,-61 329.55,-64.5 339.55,-68 339.55,-61"/>
</g>
<!-- Node5 -->
<g id="node5" class="node">
<title>Node5</title>
<g id="a_node5"><a xlink:href="../../dc/d1a/structlimes_1_1dsp_1_1osc_1_1_square.html" target="_top" xlink:title="A basic square wave oscillator.">
<polygon fill="none" stroke="black" points="395,-0.5 395,-30.5 524,-30.5 524,-0.5 395,-0.5"/>
<text text-anchor="start" x="403" y="-18.5" font-family="Helvetica,sans-Serif" font-size="10.00">limes::dsp::osc::Square</text>
<text text-anchor="middle" x="459.5" y="-7.5" font-family="Helvetica,sans-Serif" font-size="10.00">&lt; SampleType &gt;</text>
</a>
</g>
</g>
<!-- Node2&#45;&gt;Node5 -->
<g id="edge4" class="edge">
<title>Node2&#45;&gt;Node5</title>
<path fill="none" stroke="midnightblue" d="M338.43,-46.88C358.95,-41.52 381.29,-35.68 401.08,-30.51"/>
<polygon fill="midnightblue" stroke="midnightblue" points="337.32,-43.55 328.53,-49.47 339.09,-50.32 337.32,-43.55"/>
</g>
</g>
</svg>
