<?xml version="1.0" encoding="UTF-8" standalone="no"?>
<!DOCTYPE svg PUBLIC "-//W3C//DTD SVG 1.1//EN"
 "http://www.w3.org/Graphics/SVG/1.1/DTD/svg11.dtd">
<!-- Generated by graphviz version 2.43.0 (0)
 -->
<!-- Title: math::geometry::TwoDShape&lt; ValueType &gt; Pages: 1 -->
<svg width="350pt" height="333pt"
 viewBox="0.00 0.00 350.00 333.00" xmlns="http://www.w3.org/2000/svg" xmlns:xlink="http://www.w3.org/1999/xlink">
<g id="graph0" class="graph" transform="scale(1 1) rotate(0) translate(4 329)">
<title>math::geometry::TwoDShape&lt; ValueType &gt;</title>
<!-- Node1 -->
<g id="node1" class="node">
<title>Node1</title>
<g id="a_node1"><a xlink:title="A base class for any kind of 2&#45;dimensional shape.">
<polygon fill="#bfbfbf" stroke="black" points="0,-147.5 0,-177.5 157,-177.5 157,-147.5 0,-147.5"/>
<text text-anchor="start" x="8" y="-165.5" font-family="Helvetica,sans-Serif" font-size="10.00">math::geometry::TwoDShape</text>
<text text-anchor="middle" x="78.5" y="-154.5" font-family="Helvetica,sans-Serif" font-size="10.00">&lt; ValueType &gt;</text>
</a>
</g>
</g>
<!-- Node2 -->
<g id="node2" class="node">
<title>Node2</title>
<g id="a_node2"><a xlink:href="../../da/d47/classmath_1_1geometry_1_1_circle.html" target="_top" xlink:title="Represents a circle.">
<polygon fill="none" stroke="black" points="203.5,-294.5 203.5,-324.5 331.5,-324.5 331.5,-294.5 203.5,-294.5"/>
<text text-anchor="start" x="211.5" y="-312.5" font-family="Helvetica,sans-Serif" font-size="10.00">math::geometry::Circle</text>
<text text-anchor="middle" x="267.5" y="-301.5" font-family="Helvetica,sans-Serif" font-size="10.00">&lt; ValueType &gt;</text>
</a>
</g>
</g>
<!-- Node1&#45;&gt;Node2 -->
<g id="edge1" class="edge">
<title>Node1&#45;&gt;Node2</title>
<path fill="none" stroke="midnightblue" d="M95.37,-185.96C115.17,-213.53 151.52,-258.88 193,-285.5 198.31,-288.91 204.15,-291.87 210.14,-294.44"/>
<polygon fill="midnightblue" stroke="midnightblue" points="98.16,-183.84 89.54,-177.68 92.44,-187.87 98.16,-183.84"/>
</g>
<!-- Node3 -->
<g id="node3" class="node">
<title>Node3</title>
<g id="a_node3"><a xlink:href="../../df/d80/classmath_1_1geometry_1_1_hexagon.html" target="_top" xlink:title="Represents a hexagon.">
<polygon fill="none" stroke="black" points="195.5,-245.5 195.5,-275.5 339.5,-275.5 339.5,-245.5 195.5,-245.5"/>
<text text-anchor="start" x="203.5" y="-263.5" font-family="Helvetica,sans-Serif" font-size="10.00">math::geometry::Hexagon</text>
<text text-anchor="middle" x="267.5" y="-252.5" font-family="Helvetica,sans-Serif" font-size="10.00">&lt; ValueType &gt;</text>
</a>
</g>
</g>
<!-- Node1&#45;&gt;Node3 -->
<g id="edge2" class="edge">
<title>Node1&#45;&gt;Node3</title>
<path fill="none" stroke="midnightblue" d="M107.36,-183.64C129.62,-199.78 162.1,-221.7 193,-236.5 199.78,-239.75 207.11,-242.72 214.43,-245.39"/>
<polygon fill="midnightblue" stroke="midnightblue" points="109.19,-180.65 99.06,-177.55 105.05,-186.29 109.19,-180.65"/>
</g>
<!-- Node4 -->
<g id="node4" class="node">
<title>Node4</title>
<g id="a_node4"><a xlink:href="../../d3/dc1/classmath_1_1geometry_1_1_octagon.html" target="_top" xlink:title="Represents an octagon.">
<polygon fill="none" stroke="black" points="197,-196.5 197,-226.5 338,-226.5 338,-196.5 197,-196.5"/>
<text text-anchor="start" x="205" y="-214.5" font-family="Helvetica,sans-Serif" font-size="10.00">math::geometry::Octagon</text>
<text text-anchor="middle" x="267.5" y="-203.5" font-family="Helvetica,sans-Serif" font-size="10.00">&lt; ValueType &gt;</text>
</a>
</g>
</g>
<!-- Node1&#45;&gt;Node4 -->
<g id="edge3" class="edge">
<title>Node1&#45;&gt;Node4</title>
<path fill="none" stroke="midnightblue" d="M146.75,-180.12C167.21,-185.48 189.5,-191.32 209.23,-196.49"/>
<polygon fill="midnightblue" stroke="midnightblue" points="147.44,-176.68 136.88,-177.53 145.66,-183.46 147.44,-176.68"/>
</g>
<!-- Node5 -->
<g id="node5" class="node">
<title>Node5</title>
<g id="a_node5"><a xlink:href="../../d4/d55/classmath_1_1geometry_1_1_pentagon.html" target="_top" xlink:title="Represents a pentagon.">
<polygon fill="none" stroke="black" points="194.5,-147.5 194.5,-177.5 340.5,-177.5 340.5,-147.5 194.5,-147.5"/>
<text text-anchor="start" x="202.5" y="-165.5" font-family="Helvetica,sans-Serif" font-size="10.00">math::geometry::Pentagon</text>
<text text-anchor="middle" x="267.5" y="-154.5" font-family="Helvetica,sans-Serif" font-size="10.00">&lt; ValueType &gt;</text>
</a>
</g>
</g>
<!-- Node1&#45;&gt;Node5 -->
<g id="edge4" class="edge">
<title>Node1&#45;&gt;Node5</title>
<path fill="none" stroke="midnightblue" d="M167.37,-162.5C176.44,-162.5 185.58,-162.5 194.45,-162.5"/>
<polygon fill="midnightblue" stroke="midnightblue" points="167.18,-159 157.18,-162.5 167.18,-166 167.18,-159"/>
</g>
<!-- Node6 -->
<g id="node6" class="node">
<title>Node6</title>
<g id="a_node6"><a xlink:href="../../d0/d60/classmath_1_1geometry_1_1_rectangle.html" target="_top" xlink:title="Represents a rectangle.">
<polygon fill="none" stroke="black" points="193,-98.5 193,-128.5 342,-128.5 342,-98.5 193,-98.5"/>
<text text-anchor="start" x="201" y="-116.5" font-family="Helvetica,sans-Serif" font-size="10.00">math::geometry::Rectangle</text>
<text text-anchor="middle" x="267.5" y="-105.5" font-family="Helvetica,sans-Serif" font-size="10.00">&lt; ValueType &gt;</text>
</a>
</g>
</g>
<!-- Node1&#45;&gt;Node6 -->
<g id="edge5" class="edge">
<title>Node1&#45;&gt;Node6</title>
<path fill="none" stroke="midnightblue" d="M146.75,-144.88C167.21,-139.52 189.5,-133.68 209.23,-128.51"/>
<polygon fill="midnightblue" stroke="midnightblue" points="145.66,-141.54 136.88,-147.47 147.44,-148.32 145.66,-141.54"/>
</g>
<!-- Node7 -->
<g id="node7" class="node">
<title>Node7</title>
<g id="a_node7"><a xlink:href="../../d3/d06/classmath_1_1geometry_1_1_square.html" target="_top" xlink:title="Represents a square.">
<polygon fill="none" stroke="black" points="200.5,-49.5 200.5,-79.5 334.5,-79.5 334.5,-49.5 200.5,-49.5"/>
<text text-anchor="start" x="208.5" y="-67.5" font-family="Helvetica,sans-Serif" font-size="10.00">math::geometry::Square</text>
<text text-anchor="middle" x="267.5" y="-56.5" font-family="Helvetica,sans-Serif" font-size="10.00">&lt; ValueType &gt;</text>
</a>
</g>
</g>
<!-- Node1&#45;&gt;Node7 -->
<g id="edge6" class="edge">
<title>Node1&#45;&gt;Node7</title>
<path fill="none" stroke="midnightblue" d="M107.86,-141.49C130.15,-125.66 162.45,-104.25 193,-89.5 200.53,-85.87 208.72,-82.53 216.81,-79.55"/>
<polygon fill="midnightblue" stroke="midnightblue" points="105.61,-138.79 99.53,-147.46 109.7,-144.47 105.61,-138.79"/>
</g>
<!-- Node8 -->
<g id="node8" class="node">
<title>Node8</title>
<g id="a_node8"><a xlink:href="../../dc/da1/classmath_1_1geometry_1_1_triangle.html" target="_top" xlink:title="Represents a triangle.">
<polygon fill="none" stroke="black" points="198,-0.5 198,-30.5 337,-30.5 337,-0.5 198,-0.5"/>
<text text-anchor="start" x="206" y="-18.5" font-family="Helvetica,sans-Serif" font-size="10.00">math::geometry::Triangle</text>
<text text-anchor="middle" x="267.5" y="-7.5" font-family="Helvetica,sans-Serif" font-size="10.00">&lt; ValueType &gt;</text>
</a>
</g>
</g>
<!-- Node1&#45;&gt;Node8 -->
<g id="edge7" class="edge">
<title>Node1&#45;&gt;Node8</title>
<path fill="none" stroke="midnightblue" d="M95.79,-138.89C115.76,-111.59 152.03,-67.03 193,-40.5 198.88,-36.69 205.41,-33.4 212.07,-30.57"/>
<polygon fill="midnightblue" stroke="midnightblue" points="92.88,-136.93 89.9,-147.1 98.57,-141.02 92.88,-136.93"/>
</g>
</g>
</svg>
