<?xml version="1.0" encoding="UTF-8" standalone="no"?>
<!DOCTYPE svg PUBLIC "-//W3C//DTD SVG 1.1//EN"
 "http://www.w3.org/Graphics/SVG/1.1/DTD/svg11.dtd">
<!-- Generated by graphviz version 2.43.0 (0)
 -->
<!-- Title: Random.h Pages: 1 -->
<svg width="692pt" height="263pt"
 viewBox="0.00 0.00 692.50 263.00" xmlns="http://www.w3.org/2000/svg" xmlns:xlink="http://www.w3.org/1999/xlink">
<g id="graph0" class="graph" transform="scale(1 1) rotate(0) translate(4 259)">
<title>Random.h</title>
<!-- Node1 -->
<g id="node1" class="node">
<title>Node1</title>
<g id="a_node1"><a xlink:title=" ">
<polygon fill="#bfbfbf" stroke="black" points="132.5,-235.5 132.5,-254.5 198.5,-254.5 198.5,-235.5 132.5,-235.5"/>
<text text-anchor="middle" x="165.5" y="-242.5" font-family="Helvetica,sans-Serif" font-size="10.00">Random.h</text>
</a>
</g>
</g>
<!-- Node2 -->
<g id="node2" class="node">
<title>Node2</title>
<g id="a_node2"><a xlink:title=" ">
<polygon fill="none" stroke="#bfbfbf" points="0,-0.5 0,-19.5 89,-19.5 89,-0.5 0,-0.5"/>
<text text-anchor="middle" x="44.5" y="-7.5" font-family="Helvetica,sans-Serif" font-size="10.00">limes_export.h</text>
</a>
</g>
</g>
<!-- Node1&#45;&gt;Node2 -->
<g id="edge1" class="edge">
<title>Node1&#45;&gt;Node2</title>
<path fill="none" stroke="midnightblue" d="M132.44,-237.24C107.11,-230.76 72.39,-218.95 47.5,-199 24.22,-180.34 19.09,-171.57 10.5,-143 -1.71,-102.38 19.84,-53.95 33.86,-28.54"/>
<polygon fill="midnightblue" stroke="midnightblue" points="36.99,-30.13 38.95,-19.71 30.93,-26.63 36.99,-30.13"/>
</g>
<!-- Node3 -->
<g id="node3" class="node">
<title>Node3</title>
<g id="a_node3"><a xlink:href="../../da/d0b/limes__namespace_8h.html" target="_top" xlink:title=" ">
<polygon fill="none" stroke="black" points="160.5,-0.5 160.5,-19.5 274.5,-19.5 274.5,-0.5 160.5,-0.5"/>
<text text-anchor="middle" x="217.5" y="-7.5" font-family="Helvetica,sans-Serif" font-size="10.00">limes_namespace.h</text>
</a>
</g>
</g>
<!-- Node1&#45;&gt;Node3 -->
<g id="edge2" class="edge">
<title>Node1&#45;&gt;Node3</title>
<path fill="none" stroke="midnightblue" d="M132.06,-236.31C110.76,-229.76 84.15,-218.27 67.5,-199 24.65,-149.41 -9.03,-107.5 31.5,-56 46.29,-37.21 103.25,-25.32 150.28,-18.52"/>
<polygon fill="midnightblue" stroke="midnightblue" points="151.03,-21.95 160.45,-17.1 150.07,-15.01 151.03,-21.95"/>
</g>
<!-- Node4 -->
<g id="node4" class="node">
<title>Node4</title>
<g id="a_node4"><a xlink:title=" ">
<polygon fill="none" stroke="#bfbfbf" points="76.5,-179.5 76.5,-198.5 120.5,-198.5 120.5,-179.5 76.5,-179.5"/>
<text text-anchor="middle" x="98.5" y="-186.5" font-family="Helvetica,sans-Serif" font-size="10.00">limits</text>
</a>
</g>
</g>
<!-- Node1&#45;&gt;Node4 -->
<g id="edge3" class="edge">
<title>Node1&#45;&gt;Node4</title>
<path fill="none" stroke="midnightblue" d="M154.74,-235.32C144.73,-227.26 129.61,-215.08 117.57,-205.37"/>
<polygon fill="midnightblue" stroke="midnightblue" points="119.44,-202.38 109.46,-198.83 115.05,-207.83 119.44,-202.38"/>
</g>
<!-- Node5 -->
<g id="node5" class="node">
<title>Node5</title>
<g id="a_node5"><a xlink:title=" ">
<polygon fill="none" stroke="#bfbfbf" points="138.5,-179.5 138.5,-198.5 192.5,-198.5 192.5,-179.5 138.5,-179.5"/>
<text text-anchor="middle" x="165.5" y="-186.5" font-family="Helvetica,sans-Serif" font-size="10.00">random</text>
</a>
</g>
</g>
<!-- Node1&#45;&gt;Node5 -->
<g id="edge4" class="edge">
<title>Node1&#45;&gt;Node5</title>
<path fill="none" stroke="midnightblue" d="M165.5,-235.08C165.5,-228.01 165.5,-217.86 165.5,-208.99"/>
<polygon fill="midnightblue" stroke="midnightblue" points="169,-208.75 165.5,-198.75 162,-208.75 169,-208.75"/>
</g>
<!-- Node6 -->
<g id="node6" class="node">
<title>Node6</title>
<g id="a_node6"><a xlink:href="../../d3/d53/preprocessor_8h.html" target="_top" xlink:title=" ">
<polygon fill="none" stroke="black" points="546,-56.5 546,-75.5 669,-75.5 669,-56.5 546,-56.5"/>
<text text-anchor="middle" x="607.5" y="-63.5" font-family="Helvetica,sans-Serif" font-size="10.00">../misc/preprocessor.h</text>
</a>
</g>
</g>
<!-- Node1&#45;&gt;Node6 -->
<g id="edge5" class="edge">
<title>Node1&#45;&gt;Node6</title>
<path fill="none" stroke="midnightblue" d="M198.53,-240.99C289.68,-231.99 541.59,-202.16 595.5,-143 609.46,-127.68 610.91,-103 609.88,-85.95"/>
<polygon fill="midnightblue" stroke="midnightblue" points="613.32,-85.19 608.9,-75.56 606.35,-85.85 613.32,-85.19"/>
</g>
<!-- Node8 -->
<g id="node8" class="node">
<title>Node8</title>
<g id="a_node8"><a xlink:href="../../dd/dfb/math_helpers_8h.html" target="_top" xlink:title=" ">
<polygon fill="none" stroke="black" points="211,-179.5 211,-198.5 300,-198.5 300,-179.5 211,-179.5"/>
<text text-anchor="middle" x="255.5" y="-186.5" font-family="Helvetica,sans-Serif" font-size="10.00">mathHelpers.h</text>
</a>
</g>
</g>
<!-- Node1&#45;&gt;Node8 -->
<g id="edge7" class="edge">
<title>Node1&#45;&gt;Node8</title>
<path fill="none" stroke="midnightblue" d="M179.96,-235.32C194,-226.9 215.55,-213.97 232.04,-204.07"/>
<polygon fill="midnightblue" stroke="midnightblue" points="234.3,-206.8 241.08,-198.65 230.7,-200.8 234.3,-206.8"/>
</g>
<!-- Node11 -->
<g id="node11" class="node">
<title>Node11</title>
<g id="a_node11"><a xlink:title=" ">
<polygon fill="none" stroke="#bfbfbf" points="522.5,-118 522.5,-137 586.5,-137 586.5,-118 522.5,-118"/>
<text text-anchor="middle" x="554.5" y="-125" font-family="Helvetica,sans-Serif" font-size="10.00">algorithm</text>
</a>
</g>
</g>
<!-- Node1&#45;&gt;Node11 -->
<g id="edge29" class="edge">
<title>Node1&#45;&gt;Node11</title>
<path fill="none" stroke="midnightblue" d="M197.35,-235.41C258.82,-218.7 397.92,-180.18 513.5,-143 516.11,-142.16 518.8,-141.27 521.49,-140.36"/>
<polygon fill="midnightblue" stroke="midnightblue" points="522.86,-143.59 531.16,-137.01 520.57,-136.97 522.86,-143.59"/>
</g>
<!-- Node7 -->
<g id="node7" class="node">
<title>Node7</title>
<g id="a_node7"><a xlink:title=" ">
<polygon fill="none" stroke="#bfbfbf" points="512.5,-0.5 512.5,-19.5 612.5,-19.5 612.5,-0.5 512.5,-0.5"/>
<text text-anchor="middle" x="562.5" y="-7.5" font-family="Helvetica,sans-Serif" font-size="10.00">limes_platform.h</text>
</a>
</g>
</g>
<!-- Node6&#45;&gt;Node7 -->
<g id="edge6" class="edge">
<title>Node6&#45;&gt;Node7</title>
<path fill="none" stroke="midnightblue" d="M600.07,-56.08C593.65,-48.38 584.19,-37.03 576.38,-27.65"/>
<polygon fill="midnightblue" stroke="midnightblue" points="578.88,-25.19 569.79,-19.75 573.51,-29.67 578.88,-25.19"/>
</g>
<!-- Node8&#45;&gt;Node2 -->
<g id="edge11" class="edge">
<title>Node8&#45;&gt;Node2</title>
<path fill="none" stroke="midnightblue" d="M210.66,-180.26C155.32,-170.36 67.1,-153.26 55.5,-143 25.45,-116.43 25.88,-95.72 31.5,-56 32.77,-47.04 35.39,-37.37 37.95,-29.3"/>
<polygon fill="midnightblue" stroke="midnightblue" points="41.27,-30.4 41.16,-19.8 34.64,-28.16 41.27,-30.4"/>
</g>
<!-- Node8&#45;&gt;Node3 -->
<g id="edge8" class="edge">
<title>Node8&#45;&gt;Node3</title>
<path fill="none" stroke="midnightblue" d="M218.03,-179.45C179.05,-170.14 121.03,-154.98 101.5,-143 66.66,-121.63 53.56,-114 38.5,-76 35.23,-67.74 33.03,-63.01 38.5,-56 52.42,-38.15 105.52,-26.29 150.29,-19.25"/>
<polygon fill="midnightblue" stroke="midnightblue" points="150.93,-22.7 160.29,-17.74 149.88,-15.78 150.93,-22.7"/>
</g>
<!-- Node8&#45;&gt;Node6 -->
<g id="edge28" class="edge">
<title>Node8&#45;&gt;Node6</title>
<path fill="none" stroke="midnightblue" d="M260.53,-179.18C270.33,-162.88 293.65,-128.27 323.5,-112 341.85,-102 457.75,-85.82 535.7,-75.83"/>
<polygon fill="midnightblue" stroke="midnightblue" points="536.48,-79.26 545.96,-74.53 535.59,-72.32 536.48,-79.26"/>
</g>
<!-- Node9 -->
<g id="node9" class="node">
<title>Node9</title>
<g id="a_node9"><a xlink:title=" ">
<polygon fill="none" stroke="#bfbfbf" points="332,-118 332,-137 379,-137 379,-118 332,-118"/>
<text text-anchor="middle" x="355.5" y="-125" font-family="Helvetica,sans-Serif" font-size="10.00">cmath</text>
</a>
</g>
</g>
<!-- Node8&#45;&gt;Node9 -->
<g id="edge9" class="edge">
<title>Node8&#45;&gt;Node9</title>
<path fill="none" stroke="midnightblue" d="M269.83,-179.48C286.16,-169.75 313.1,-153.73 332.41,-142.24"/>
<polygon fill="midnightblue" stroke="midnightblue" points="334.39,-145.13 341.2,-137.01 330.82,-139.11 334.39,-145.13"/>
</g>
<!-- Node10 -->
<g id="node10" class="node">
<title>Node10</title>
<g id="a_node10"><a xlink:title=" ">
<polygon fill="none" stroke="#bfbfbf" points="48,-56.5 48,-75.5 117,-75.5 117,-56.5 48,-56.5"/>
<text text-anchor="middle" x="82.5" y="-63.5" font-family="Helvetica,sans-Serif" font-size="10.00">type_traits</text>
</a>
</g>
</g>
<!-- Node8&#45;&gt;Node10 -->
<g id="edge10" class="edge">
<title>Node8&#45;&gt;Node10</title>
<path fill="none" stroke="midnightblue" d="M210.86,-179.52C185.26,-172.91 153.7,-161.63 130.5,-143 111.25,-127.55 97.47,-102.18 89.74,-85.04"/>
<polygon fill="midnightblue" stroke="midnightblue" points="92.86,-83.43 85.72,-75.6 86.42,-86.17 92.86,-83.43"/>
</g>
<!-- Node8&#45;&gt;Node11 -->
<g id="edge12" class="edge">
<title>Node8&#45;&gt;Node11</title>
<path fill="none" stroke="midnightblue" d="M300.27,-182.51C352.11,-175.61 439.83,-162.31 513.5,-143 516.54,-142.2 519.68,-141.28 522.8,-140.3"/>
<polygon fill="midnightblue" stroke="midnightblue" points="524.22,-143.51 532.58,-137.01 521.99,-136.88 524.22,-143.51"/>
</g>
<!-- Node12 -->
<g id="node12" class="node">
<title>Node12</title>
<g id="a_node12"><a xlink:href="../../d5/dbb/limes__assert_8h.html" target="_top" xlink:title=" ">
<polygon fill="none" stroke="black" points="139.5,-118 139.5,-137 275.5,-137 275.5,-118 139.5,-118"/>
<text text-anchor="middle" x="207.5" y="-125" font-family="Helvetica,sans-Serif" font-size="10.00">../system/limes_assert.h</text>
</a>
</g>
</g>
<!-- Node8&#45;&gt;Node12 -->
<g id="edge13" class="edge">
<title>Node8&#45;&gt;Node12</title>
<path fill="none" stroke="midnightblue" d="M248.62,-179.48C241.35,-170.46 229.7,-156.02 220.66,-144.81"/>
<polygon fill="midnightblue" stroke="midnightblue" points="223.37,-142.59 214.36,-137.01 217.92,-146.99 223.37,-142.59"/>
</g>
<!-- Node16 -->
<g id="node16" class="node">
<title>Node16</title>
<g id="a_node16"><a xlink:href="../../d0/d00/compiler__defs_8h.html" target="_top" xlink:title=" ">
<polygon fill="none" stroke="black" points="397,-112.5 397,-142.5 504,-142.5 504,-112.5 397,-112.5"/>
<text text-anchor="start" x="405" y="-130.5" font-family="Helvetica,sans-Serif" font-size="10.00">../system/compiler</text>
<text text-anchor="middle" x="450.5" y="-119.5" font-family="Helvetica,sans-Serif" font-size="10.00">_defs.h</text>
</a>
</g>
</g>
<!-- Node8&#45;&gt;Node16 -->
<g id="edge25" class="edge">
<title>Node8&#45;&gt;Node16</title>
<path fill="none" stroke="midnightblue" d="M283.44,-179.48C312.32,-170.66 358.18,-156.67 394.56,-145.57"/>
<polygon fill="midnightblue" stroke="midnightblue" points="396,-148.79 404.54,-142.52 393.96,-142.09 396,-148.79"/>
</g>
<!-- Node12&#45;&gt;Node2 -->
<g id="edge14" class="edge">
<title>Node12&#45;&gt;Node2</title>
<path fill="none" stroke="midnightblue" d="M198.42,-117.59C183.8,-103.53 153.84,-75.75 125.5,-56 108.18,-43.93 87.33,-32.41 71.12,-24.04"/>
<polygon fill="midnightblue" stroke="midnightblue" points="72.68,-20.91 62.18,-19.51 69.51,-27.15 72.68,-20.91"/>
</g>
<!-- Node12&#45;&gt;Node3 -->
<g id="edge15" class="edge">
<title>Node12&#45;&gt;Node3</title>
<path fill="none" stroke="midnightblue" d="M218.42,-117.82C228.93,-108.69 244.14,-93.29 250.5,-76 256.88,-58.66 245.25,-39.95 234.07,-27.08"/>
<polygon fill="midnightblue" stroke="midnightblue" points="236.39,-24.43 226.99,-19.54 231.28,-29.22 236.39,-24.43"/>
</g>
<!-- Node12&#45;&gt;Node6 -->
<g id="edge16" class="edge">
<title>Node12&#45;&gt;Node6</title>
<path fill="none" stroke="midnightblue" d="M254.29,-117.94C265.79,-115.92 278.08,-113.82 289.5,-112 373.91,-98.57 471.26,-85.09 535.78,-76.43"/>
<polygon fill="midnightblue" stroke="midnightblue" points="536.4,-79.88 545.85,-75.08 535.47,-72.94 536.4,-79.88"/>
</g>
<!-- Node12&#45;&gt;Node7 -->
<g id="edge23" class="edge">
<title>Node12&#45;&gt;Node7</title>
<path fill="none" stroke="midnightblue" d="M251.27,-117.97C261.82,-115.97 273.05,-113.87 283.5,-112 378.87,-94.92 412.54,-120.7 498.5,-76 520.14,-64.75 538.91,-43.5 550.43,-28.37"/>
<polygon fill="midnightblue" stroke="midnightblue" points="553.56,-30.02 556.62,-19.87 547.9,-25.89 553.56,-30.02"/>
</g>
<!-- Node12&#45;&gt;Node10 -->
<g id="edge17" class="edge">
<title>Node12&#45;&gt;Node10</title>
<path fill="none" stroke="midnightblue" d="M189.59,-117.98C168.61,-107.99 133.65,-91.35 109.41,-79.81"/>
<polygon fill="midnightblue" stroke="midnightblue" points="110.91,-76.65 100.38,-75.51 107.9,-82.97 110.91,-76.65"/>
</g>
<!-- Node13 -->
<g id="node13" class="node">
<title>Node13</title>
<g id="a_node13"><a xlink:title=" ">
<polygon fill="none" stroke="#bfbfbf" points="298,-56.5 298,-75.5 343,-75.5 343,-56.5 298,-56.5"/>
<text text-anchor="middle" x="320.5" y="-63.5" font-family="Helvetica,sans-Serif" font-size="10.00">utility</text>
</a>
</g>
</g>
<!-- Node12&#45;&gt;Node13 -->
<g id="edge18" class="edge">
<title>Node12&#45;&gt;Node13</title>
<path fill="none" stroke="midnightblue" d="M223.69,-117.98C242.4,-108.12 273.42,-91.79 295.3,-80.27"/>
<polygon fill="midnightblue" stroke="midnightblue" points="297.12,-83.27 304.34,-75.51 293.86,-77.07 297.12,-83.27"/>
</g>
<!-- Node14 -->
<g id="node14" class="node">
<title>Node14</title>
<g id="a_node14"><a xlink:href="../../d1/d57/_ignore_unused_8h.html" target="_top" xlink:title=" ">
<polygon fill="none" stroke="black" points="361.5,-56.5 361.5,-75.5 489.5,-75.5 489.5,-56.5 361.5,-56.5"/>
<text text-anchor="middle" x="425.5" y="-63.5" font-family="Helvetica,sans-Serif" font-size="10.00">../misc/IgnoreUnused.h</text>
</a>
</g>
</g>
<!-- Node12&#45;&gt;Node14 -->
<g id="edge19" class="edge">
<title>Node12&#45;&gt;Node14</title>
<path fill="none" stroke="midnightblue" d="M238.73,-117.98C277.1,-107.5 342.29,-89.71 384.61,-78.16"/>
<polygon fill="midnightblue" stroke="midnightblue" points="385.6,-81.52 394.32,-75.51 383.76,-74.77 385.6,-81.52"/>
</g>
<!-- Node15 -->
<g id="node15" class="node">
<title>Node15</title>
<g id="a_node15"><a xlink:title=" ">
<polygon fill="none" stroke="#bfbfbf" points="173.5,-56.5 173.5,-75.5 241.5,-75.5 241.5,-56.5 173.5,-56.5"/>
<text text-anchor="middle" x="207.5" y="-63.5" font-family="Helvetica,sans-Serif" font-size="10.00">filesystem</text>
</a>
</g>
</g>
<!-- Node12&#45;&gt;Node15 -->
<g id="edge24" class="edge">
<title>Node12&#45;&gt;Node15</title>
<path fill="none" stroke="midnightblue" d="M207.5,-117.98C207.5,-109.58 207.5,-96.48 207.5,-85.66"/>
<polygon fill="midnightblue" stroke="midnightblue" points="211,-85.51 207.5,-75.51 204,-85.51 211,-85.51"/>
</g>
<!-- Node14&#45;&gt;Node2 -->
<g id="edge20" class="edge">
<title>Node14&#45;&gt;Node2</title>
<path fill="none" stroke="midnightblue" d="M365.13,-56.44C291.93,-46.07 169.64,-28.74 99.13,-18.74"/>
<polygon fill="midnightblue" stroke="midnightblue" points="99.5,-15.26 89.11,-17.32 98.52,-22.19 99.5,-15.26"/>
</g>
<!-- Node14&#45;&gt;Node3 -->
<g id="edge21" class="edge">
<title>Node14&#45;&gt;Node3</title>
<path fill="none" stroke="midnightblue" d="M392.54,-56.44C356.71,-47.14 299.34,-32.25 260.11,-22.06"/>
<polygon fill="midnightblue" stroke="midnightblue" points="260.86,-18.64 250.3,-19.52 259.1,-25.42 260.86,-18.64"/>
</g>
<!-- Node14&#45;&gt;Node7 -->
<g id="edge22" class="edge">
<title>Node14&#45;&gt;Node7</title>
<path fill="none" stroke="midnightblue" d="M447.21,-56.44C469.85,-47.52 505.57,-33.44 531.25,-23.32"/>
<polygon fill="midnightblue" stroke="midnightblue" points="532.87,-26.44 540.89,-19.52 530.31,-19.93 532.87,-26.44"/>
</g>
<!-- Node16&#45;&gt;Node6 -->
<g id="edge27" class="edge">
<title>Node16&#45;&gt;Node6</title>
<path fill="none" stroke="midnightblue" d="M487.71,-112.4C514.28,-102.33 549.69,-88.91 575.11,-79.28"/>
<polygon fill="midnightblue" stroke="midnightblue" points="576.54,-82.47 584.66,-75.66 574.06,-75.93 576.54,-82.47"/>
</g>
<!-- Node16&#45;&gt;Node7 -->
<g id="edge26" class="edge">
<title>Node16&#45;&gt;Node7</title>
<path fill="none" stroke="midnightblue" d="M504.11,-114.12C507.28,-113.4 510.43,-112.69 513.5,-112 586.74,-95.58 631.42,-134.46 678.5,-76 699.79,-49.56 658.36,-32.05 619.23,-21.93"/>
<polygon fill="midnightblue" stroke="midnightblue" points="619.91,-18.5 609.37,-19.52 618.25,-25.3 619.91,-18.5"/>
</g>
</g>
</svg>
