<?xml version="1.0" encoding="UTF-8" standalone="no"?>
<!DOCTYPE svg PUBLIC "-//W3C//DTD SVG 1.1//EN"
 "http://www.w3.org/Graphics/SVG/1.1/DTD/svg11.dtd">
<!-- Generated by graphviz version 2.43.0 (0)
 -->
<!-- Title: Random.h Pages: 1 -->
<svg width="1042pt" height="375pt"
 viewBox="0.00 0.00 1042.00 375.00" xmlns="http://www.w3.org/2000/svg" xmlns:xlink="http://www.w3.org/1999/xlink">
<g id="graph0" class="graph" transform="scale(1 1) rotate(0) translate(4 371)">
<title>Random.h</title>
<!-- Node1 -->
<g id="node1" class="node">
<title>Node1</title>
<g id="a_node1"><a xlink:title=" ">
<polygon fill="#bfbfbf" stroke="black" points="781,-347.5 781,-366.5 847,-366.5 847,-347.5 781,-347.5"/>
<text text-anchor="middle" x="814" y="-354.5" font-family="Helvetica,sans-Serif" font-size="10.00">Random.h</text>
</a>
</g>
</g>
<!-- Node2 -->
<g id="node2" class="node">
<title>Node2</title>
<g id="a_node2"><a xlink:title=" ">
<polygon fill="none" stroke="#bfbfbf" points="442.5,-56.5 442.5,-75.5 531.5,-75.5 531.5,-56.5 442.5,-56.5"/>
<text text-anchor="middle" x="487" y="-63.5" font-family="Helvetica,sans-Serif" font-size="10.00">limes_export.h</text>
</a>
</g>
</g>
<!-- Node1&#45;&gt;Node2 -->
<g id="edge1" class="edge">
<title>Node1&#45;&gt;Node2</title>
<path fill="none" stroke="midnightblue" d="M814,-347.44C814,-328.94 814,-283.81 814,-246 814,-246 814,-246 814,-188 814,-153.18 820.82,-135.36 795,-112 776.54,-95.29 625,-79.32 541.59,-71.68"/>
<polygon fill="midnightblue" stroke="midnightblue" points="541.79,-68.18 531.52,-70.77 541.16,-75.16 541.79,-68.18"/>
</g>
<!-- Node3 -->
<g id="node3" class="node">
<title>Node3</title>
<g id="a_node3"><a xlink:href="../../da/d0b/limes__namespace_8h.html" target="_top" xlink:title=" ">
<polygon fill="none" stroke="black" points="19,-56.5 19,-75.5 133,-75.5 133,-56.5 19,-56.5"/>
<text text-anchor="middle" x="76" y="-63.5" font-family="Helvetica,sans-Serif" font-size="10.00">limes_namespace.h</text>
</a>
</g>
</g>
<!-- Node1&#45;&gt;Node3 -->
<g id="edge2" class="edge">
<title>Node1&#45;&gt;Node3</title>
<path fill="none" stroke="midnightblue" d="M780.83,-355.07C628.1,-350.37 0,-326.17 0,-246 0,-246 0,-246 0,-188 0,-144.48 35.7,-103.77 58.16,-82.47"/>
<polygon fill="midnightblue" stroke="midnightblue" points="60.73,-84.86 65.75,-75.53 56.01,-79.7 60.73,-84.86"/>
</g>
<!-- Node4 -->
<g id="node4" class="node">
<title>Node4</title>
<g id="a_node4"><a xlink:title=" ">
<polygon fill="none" stroke="#bfbfbf" points="918,-291.5 918,-310.5 962,-310.5 962,-291.5 918,-291.5"/>
<text text-anchor="middle" x="940" y="-298.5" font-family="Helvetica,sans-Serif" font-size="10.00">limits</text>
</a>
</g>
</g>
<!-- Node1&#45;&gt;Node4 -->
<g id="edge3" class="edge">
<title>Node1&#45;&gt;Node4</title>
<path fill="none" stroke="midnightblue" d="M833.97,-347.44C854.61,-338.6 887.06,-324.69 910.63,-314.59"/>
<polygon fill="midnightblue" stroke="midnightblue" points="912.32,-317.67 920.13,-310.52 909.56,-311.24 912.32,-317.67"/>
</g>
<!-- Node5 -->
<g id="node5" class="node">
<title>Node5</title>
<g id="a_node5"><a xlink:title=" ">
<polygon fill="none" stroke="#bfbfbf" points="980,-291.5 980,-310.5 1034,-310.5 1034,-291.5 980,-291.5"/>
<text text-anchor="middle" x="1007" y="-298.5" font-family="Helvetica,sans-Serif" font-size="10.00">random</text>
</a>
</g>
</g>
<!-- Node1&#45;&gt;Node5 -->
<g id="edge4" class="edge">
<title>Node1&#45;&gt;Node5</title>
<path fill="none" stroke="midnightblue" d="M844.58,-347.44C878.68,-337.9 933.82,-322.47 970.24,-312.28"/>
<polygon fill="midnightblue" stroke="midnightblue" points="971.3,-315.62 979.99,-309.56 969.41,-308.88 971.3,-315.62"/>
</g>
<!-- Node6 -->
<g id="node6" class="node">
<title>Node6</title>
<g id="a_node6"><a xlink:href="../../d3/d53/preprocessor_8h.html" target="_top" xlink:title=" ">
<polygon fill="none" stroke="black" points="670.5,-56.5 670.5,-75.5 793.5,-75.5 793.5,-56.5 670.5,-56.5"/>
<text text-anchor="middle" x="732" y="-63.5" font-family="Helvetica,sans-Serif" font-size="10.00">../misc/preprocessor.h</text>
</a>
</g>
</g>
<!-- Node1&#45;&gt;Node6 -->
<g id="edge5" class="edge">
<title>Node1&#45;&gt;Node6</title>
<path fill="none" stroke="midnightblue" d="M825.54,-347.43C846.8,-330.57 890,-290.8 890,-246 890,-246 890,-246 890,-188 890,-129.13 820.01,-95.03 773.2,-78.8"/>
<polygon fill="midnightblue" stroke="midnightblue" points="774.19,-75.44 763.59,-75.6 771.98,-82.08 774.19,-75.44"/>
</g>
<!-- Node8 -->
<g id="node8" class="node">
<title>Node8</title>
<g id="a_node8"><a xlink:href="../../dc/d5c/math_functions_8h.html" target="_top" xlink:title=" ">
<polygon fill="none" stroke="black" points="457,-291.5 457,-310.5 555,-310.5 555,-291.5 457,-291.5"/>
<text text-anchor="middle" x="506" y="-298.5" font-family="Helvetica,sans-Serif" font-size="10.00">mathFunctions.h</text>
</a>
</g>
</g>
<!-- Node1&#45;&gt;Node8 -->
<g id="edge7" class="edge">
<title>Node1&#45;&gt;Node8</title>
<path fill="none" stroke="midnightblue" d="M780.75,-350.17C728.99,-341.1 628.49,-323.48 564.44,-312.25"/>
<polygon fill="midnightblue" stroke="midnightblue" points="564.94,-308.78 554.49,-310.5 563.73,-315.68 564.94,-308.78"/>
</g>
<!-- Node13 -->
<g id="node13" class="node">
<title>Node13</title>
<g id="a_node13"><a xlink:title=" ">
<polygon fill="none" stroke="#bfbfbf" points="529,-179.5 529,-198.5 593,-198.5 593,-179.5 529,-179.5"/>
<text text-anchor="middle" x="561" y="-186.5" font-family="Helvetica,sans-Serif" font-size="10.00">algorithm</text>
</a>
</g>
</g>
<!-- Node1&#45;&gt;Node13 -->
<g id="edge32" class="edge">
<title>Node1&#45;&gt;Node13</title>
<path fill="none" stroke="midnightblue" d="M800.75,-347.31C759.6,-320.3 633.65,-237.67 582.72,-204.25"/>
<polygon fill="midnightblue" stroke="midnightblue" points="584.4,-201.16 574.12,-198.61 580.56,-207.02 584.4,-201.16"/>
</g>
<!-- Node7 -->
<g id="node7" class="node">
<title>Node7</title>
<g id="a_node7"><a xlink:title=" ">
<polygon fill="none" stroke="#bfbfbf" points="450,-0.5 450,-19.5 550,-19.5 550,-0.5 450,-0.5"/>
<text text-anchor="middle" x="500" y="-7.5" font-family="Helvetica,sans-Serif" font-size="10.00">limes_platform.h</text>
</a>
</g>
</g>
<!-- Node6&#45;&gt;Node7 -->
<g id="edge6" class="edge">
<title>Node6&#45;&gt;Node7</title>
<path fill="none" stroke="midnightblue" d="M695.24,-56.44C654.94,-47.06 590.19,-31.99 546.42,-21.8"/>
<polygon fill="midnightblue" stroke="midnightblue" points="547.12,-18.37 536.59,-19.52 545.54,-25.19 547.12,-18.37"/>
</g>
<!-- Node8&#45;&gt;Node2 -->
<g id="edge10" class="edge">
<title>Node8&#45;&gt;Node2</title>
<path fill="none" stroke="midnightblue" d="M517.57,-291.34C528.74,-282.72 545.85,-268.81 559,-255 580.64,-232.27 591.91,-228.71 602,-199 604.86,-190.58 602.59,-187.87 602,-179 600,-149.02 611.22,-135.89 593,-112 580.35,-95.41 560.4,-84.86 541.2,-78.2"/>
<polygon fill="midnightblue" stroke="midnightblue" points="542.16,-74.83 531.57,-75.14 540.04,-81.5 542.16,-74.83"/>
</g>
<!-- Node8&#45;&gt;Node3 -->
<g id="edge8" class="edge">
<title>Node8&#45;&gt;Node3</title>
<path fill="none" stroke="midnightblue" d="M456.8,-299.16C363.58,-294.58 162.79,-269.71 76,-143 64.61,-126.37 66.81,-102.53 70.44,-86"/>
<polygon fill="midnightblue" stroke="midnightblue" points="73.94,-86.46 73.03,-75.91 67.16,-84.72 73.94,-86.46"/>
</g>
<!-- Node8&#45;&gt;Node6 -->
<g id="edge14" class="edge">
<title>Node8&#45;&gt;Node6</title>
<path fill="none" stroke="midnightblue" d="M554.81,-291.47C625.03,-276.14 750.95,-236.34 795,-143 800.88,-130.54 801.3,-124.25 795,-112 787.92,-98.25 774.48,-87.77 761.82,-80.39"/>
<polygon fill="midnightblue" stroke="midnightblue" points="763.31,-77.22 752.85,-75.57 760,-83.39 763.31,-77.22"/>
</g>
<!-- Node9 -->
<g id="node9" class="node">
<title>Node9</title>
<g id="a_node9"><a xlink:title=" ">
<polygon fill="none" stroke="#bfbfbf" points="104.5,-118 104.5,-137 173.5,-137 173.5,-118 104.5,-118"/>
<text text-anchor="middle" x="139" y="-125" font-family="Helvetica,sans-Serif" font-size="10.00">type_traits</text>
</a>
</g>
</g>
<!-- Node8&#45;&gt;Node9 -->
<g id="edge9" class="edge">
<title>Node8&#45;&gt;Node9</title>
<path fill="none" stroke="midnightblue" d="M487.8,-291.5C428.13,-263.61 238.12,-174.82 166.59,-141.39"/>
<polygon fill="midnightblue" stroke="midnightblue" points="167.85,-138.12 157.31,-137.06 164.89,-144.46 167.85,-138.12"/>
</g>
<!-- Node10 -->
<g id="node10" class="node">
<title>Node10</title>
<g id="a_node10"><a xlink:href="../../d0/d00/compiler__defs_8h.html" target="_top" xlink:title=" ">
<polygon fill="none" stroke="black" points="678.5,-112.5 678.5,-142.5 785.5,-142.5 785.5,-112.5 678.5,-112.5"/>
<text text-anchor="start" x="686.5" y="-130.5" font-family="Helvetica,sans-Serif" font-size="10.00">../system/compiler</text>
<text text-anchor="middle" x="732" y="-119.5" font-family="Helvetica,sans-Serif" font-size="10.00">_defs.h</text>
</a>
</g>
</g>
<!-- Node8&#45;&gt;Node10 -->
<g id="edge11" class="edge">
<title>Node8&#45;&gt;Node10</title>
<path fill="none" stroke="midnightblue" d="M549.62,-291.47C576.13,-284.74 609.63,-273.35 635,-255 673.48,-227.17 703.96,-179.81 719.87,-151.61"/>
<polygon fill="midnightblue" stroke="midnightblue" points="722.94,-153.28 724.7,-142.83 716.81,-149.91 722.94,-153.28"/>
</g>
<!-- Node11 -->
<g id="node11" class="node">
<title>Node11</title>
<g id="a_node11"><a xlink:href="../../dc/d9b/math_functions__impl_8h.html" target="_top" xlink:title=" ">
<polygon fill="none" stroke="black" points="424.5,-235.5 424.5,-254.5 549.5,-254.5 549.5,-235.5 424.5,-235.5"/>
<text text-anchor="middle" x="487" y="-242.5" font-family="Helvetica,sans-Serif" font-size="10.00">mathFunctions_impl.h</text>
</a>
</g>
</g>
<!-- Node8&#45;&gt;Node11 -->
<g id="edge15" class="edge">
<title>Node8&#45;&gt;Node11</title>
<path fill="none" stroke="midnightblue" d="M502.86,-291.08C500.32,-283.85 496.64,-273.41 493.47,-264.4"/>
<polygon fill="midnightblue" stroke="midnightblue" points="496.7,-263.02 490.08,-254.75 490.1,-265.35 496.7,-263.02"/>
</g>
<!-- Node10&#45;&gt;Node6 -->
<g id="edge13" class="edge">
<title>Node10&#45;&gt;Node6</title>
<path fill="none" stroke="midnightblue" d="M732,-112.4C732,-104.47 732,-94.46 732,-85.86"/>
<polygon fill="midnightblue" stroke="midnightblue" points="735.5,-85.66 732,-75.66 728.5,-85.66 735.5,-85.66"/>
</g>
<!-- Node10&#45;&gt;Node7 -->
<g id="edge12" class="edge">
<title>Node10&#45;&gt;Node7</title>
<path fill="none" stroke="midnightblue" d="M703.55,-112.34C658.22,-89.77 570.23,-45.97 526.29,-24.09"/>
<polygon fill="midnightblue" stroke="midnightblue" points="527.63,-20.85 517.12,-19.52 524.51,-27.11 527.63,-20.85"/>
</g>
<!-- Node11&#45;&gt;Node3 -->
<g id="edge16" class="edge">
<title>Node11&#45;&gt;Node3</title>
<path fill="none" stroke="midnightblue" d="M424.38,-235.7C325.99,-221.4 141.68,-189.16 96,-143 81.11,-127.95 76.92,-103.22 75.93,-86.07"/>
<polygon fill="midnightblue" stroke="midnightblue" points="79.42,-85.54 75.67,-75.63 72.42,-85.71 79.42,-85.54"/>
</g>
<!-- Node12 -->
<g id="node12" class="node">
<title>Node12</title>
<g id="a_node12"><a xlink:title=" ">
<polygon fill="none" stroke="#bfbfbf" points="463.5,-179.5 463.5,-198.5 510.5,-198.5 510.5,-179.5 463.5,-179.5"/>
<text text-anchor="middle" x="487" y="-186.5" font-family="Helvetica,sans-Serif" font-size="10.00">cmath</text>
</a>
</g>
</g>
<!-- Node11&#45;&gt;Node12 -->
<g id="edge17" class="edge">
<title>Node11&#45;&gt;Node12</title>
<path fill="none" stroke="midnightblue" d="M487,-235.08C487,-228.01 487,-217.86 487,-208.99"/>
<polygon fill="midnightblue" stroke="midnightblue" points="490.5,-208.75 487,-198.75 483.5,-208.75 490.5,-208.75"/>
</g>
<!-- Node11&#45;&gt;Node13 -->
<g id="edge18" class="edge">
<title>Node11&#45;&gt;Node13</title>
<path fill="none" stroke="midnightblue" d="M498.89,-235.32C510.15,-227.11 527.29,-214.6 540.71,-204.81"/>
<polygon fill="midnightblue" stroke="midnightblue" points="542.88,-207.56 548.89,-198.83 538.75,-201.9 542.88,-207.56"/>
</g>
<!-- Node14 -->
<g id="node14" class="node">
<title>Node14</title>
<g id="a_node14"><a xlink:href="../../d5/dbb/limes__assert_8h.html" target="_top" xlink:title=" ">
<polygon fill="none" stroke="black" points="309,-179.5 309,-198.5 445,-198.5 445,-179.5 309,-179.5"/>
<text text-anchor="middle" x="377" y="-186.5" font-family="Helvetica,sans-Serif" font-size="10.00">../system/limes_assert.h</text>
</a>
</g>
</g>
<!-- Node11&#45;&gt;Node14 -->
<g id="edge19" class="edge">
<title>Node11&#45;&gt;Node14</title>
<path fill="none" stroke="midnightblue" d="M469.33,-235.32C451.61,-226.62 424.1,-213.12 403.71,-203.11"/>
<polygon fill="midnightblue" stroke="midnightblue" points="405.15,-199.92 394.63,-198.65 402.06,-206.2 405.15,-199.92"/>
</g>
<!-- Node14&#45;&gt;Node2 -->
<g id="edge20" class="edge">
<title>Node14&#45;&gt;Node2</title>
<path fill="none" stroke="midnightblue" d="M384.33,-179.47C396.53,-165.3 421.88,-136.1 444,-112 452.97,-102.23 463.23,-91.48 471.47,-82.94"/>
<polygon fill="midnightblue" stroke="midnightblue" points="474.21,-85.15 478.65,-75.53 469.18,-80.27 474.21,-85.15"/>
</g>
<!-- Node14&#45;&gt;Node3 -->
<g id="edge21" class="edge">
<title>Node14&#45;&gt;Node3</title>
<path fill="none" stroke="midnightblue" d="M329.39,-179.49C297.48,-172.55 255.21,-160.92 221,-143 201.69,-132.89 201.68,-123.23 183,-112 160.48,-98.47 133.16,-87.05 111.75,-79.1"/>
<polygon fill="midnightblue" stroke="midnightblue" points="112.67,-75.71 102.07,-75.59 110.28,-82.29 112.67,-75.71"/>
</g>
<!-- Node14&#45;&gt;Node6 -->
<g id="edge22" class="edge">
<title>Node14&#45;&gt;Node6</title>
<path fill="none" stroke="midnightblue" d="M442.66,-179.47C486.21,-172.58 544.11,-161 593,-143 637.1,-126.76 684.25,-98.34 710.73,-81.24"/>
<polygon fill="midnightblue" stroke="midnightblue" points="712.75,-84.1 719.2,-75.7 708.92,-78.25 712.75,-84.1"/>
</g>
<!-- Node14&#45;&gt;Node7 -->
<g id="edge29" class="edge">
<title>Node14&#45;&gt;Node7</title>
<path fill="none" stroke="midnightblue" d="M378.93,-179.4C384.31,-156.96 401.27,-95.66 434,-56 444.76,-42.96 460.23,-32.14 473.49,-24.38"/>
<polygon fill="midnightblue" stroke="midnightblue" points="475.21,-27.43 482.23,-19.5 471.8,-21.32 475.21,-27.43"/>
</g>
<!-- Node14&#45;&gt;Node9 -->
<g id="edge23" class="edge">
<title>Node14&#45;&gt;Node9</title>
<path fill="none" stroke="midnightblue" d="M338.48,-179.47C300.18,-170.84 239.82,-156.82 188,-143 184.36,-142.03 180.57,-140.98 176.8,-139.91"/>
<polygon fill="midnightblue" stroke="midnightblue" points="177.49,-136.46 166.91,-137.04 175.54,-143.19 177.49,-136.46"/>
</g>
<!-- Node14&#45;&gt;Node10 -->
<g id="edge31" class="edge">
<title>Node14&#45;&gt;Node10</title>
<path fill="none" stroke="midnightblue" d="M437.63,-179.47C495.83,-171.06 586.14,-157.39 664,-143 665.45,-142.73 666.91,-142.46 668.38,-142.18"/>
<polygon fill="midnightblue" stroke="midnightblue" points="669.09,-145.6 678.23,-140.25 667.75,-138.74 669.09,-145.6"/>
</g>
<!-- Node15 -->
<g id="node15" class="node">
<title>Node15</title>
<g id="a_node15"><a xlink:title=" ">
<polygon fill="none" stroke="#bfbfbf" points="452.5,-118 452.5,-137 497.5,-137 497.5,-118 452.5,-118"/>
<text text-anchor="middle" x="475" y="-125" font-family="Helvetica,sans-Serif" font-size="10.00">utility</text>
</a>
</g>
</g>
<!-- Node14&#45;&gt;Node15 -->
<g id="edge24" class="edge">
<title>Node14&#45;&gt;Node15</title>
<path fill="none" stroke="midnightblue" d="M391.04,-179.48C407.05,-169.75 433.45,-153.73 452.37,-142.24"/>
<polygon fill="midnightblue" stroke="midnightblue" points="454.25,-145.19 460.99,-137.01 450.62,-139.21 454.25,-145.19"/>
</g>
<!-- Node16 -->
<g id="node16" class="node">
<title>Node16</title>
<g id="a_node16"><a xlink:href="../../d1/d57/_ignore_unused_8h.html" target="_top" xlink:title=" ">
<polygon fill="none" stroke="black" points="230,-118 230,-137 358,-137 358,-118 230,-118"/>
<text text-anchor="middle" x="294" y="-125" font-family="Helvetica,sans-Serif" font-size="10.00">../misc/IgnoreUnused.h</text>
</a>
</g>
</g>
<!-- Node14&#45;&gt;Node16 -->
<g id="edge25" class="edge">
<title>Node14&#45;&gt;Node16</title>
<path fill="none" stroke="midnightblue" d="M365.11,-179.48C351.8,-169.93 330,-154.31 314.04,-142.87"/>
<polygon fill="midnightblue" stroke="midnightblue" points="316.04,-139.99 305.87,-137.01 311.96,-145.68 316.04,-139.99"/>
</g>
<!-- Node17 -->
<g id="node17" class="node">
<title>Node17</title>
<g id="a_node17"><a xlink:title=" ">
<polygon fill="none" stroke="#bfbfbf" points="516,-118 516,-137 584,-137 584,-118 516,-118"/>
<text text-anchor="middle" x="550" y="-125" font-family="Helvetica,sans-Serif" font-size="10.00">filesystem</text>
</a>
</g>
</g>
<!-- Node14&#45;&gt;Node17 -->
<g id="edge30" class="edge">
<title>Node14&#45;&gt;Node17</title>
<path fill="none" stroke="midnightblue" d="M401.79,-179.48C431.59,-169.22 481.79,-151.96 515.4,-140.4"/>
<polygon fill="midnightblue" stroke="midnightblue" points="516.94,-143.57 525.26,-137.01 514.66,-136.95 516.94,-143.57"/>
</g>
<!-- Node16&#45;&gt;Node2 -->
<g id="edge26" class="edge">
<title>Node16&#45;&gt;Node2</title>
<path fill="none" stroke="midnightblue" d="M321.65,-117.98C355.19,-107.64 411.87,-90.16 449.37,-78.6"/>
<polygon fill="midnightblue" stroke="midnightblue" points="450.87,-81.8 459.4,-75.51 448.81,-75.11 450.87,-81.8"/>
</g>
<!-- Node16&#45;&gt;Node3 -->
<g id="edge27" class="edge">
<title>Node16&#45;&gt;Node3</title>
<path fill="none" stroke="midnightblue" d="M262.77,-117.98C224.4,-107.5 159.21,-89.71 116.89,-78.16"/>
<polygon fill="midnightblue" stroke="midnightblue" points="117.74,-74.77 107.18,-75.51 115.9,-81.52 117.74,-74.77"/>
</g>
<!-- Node16&#45;&gt;Node7 -->
<g id="edge28" class="edge">
<title>Node16&#45;&gt;Node7</title>
<path fill="none" stroke="midnightblue" d="M301.34,-117.93C314.26,-103.34 342.51,-73.54 372,-56 397.47,-40.85 428.82,-29.73 454.12,-22.33"/>
<polygon fill="midnightblue" stroke="midnightblue" points="455.17,-25.66 463.84,-19.58 453.27,-18.93 455.17,-25.66"/>
</g>
</g>
</svg>
