<?xml version="1.0" encoding="UTF-8" standalone="no"?>
<!DOCTYPE svg PUBLIC "-//W3C//DTD SVG 1.1//EN"
 "http://www.w3.org/Graphics/SVG/1.1/DTD/svg11.dtd">
<!-- Generated by graphviz version 2.43.0 (0)
 -->
<!-- Title: Random.h Pages: 1 -->
<svg width="934pt" height="308pt"
 viewBox="0.00 0.00 933.50 308.00" xmlns="http://www.w3.org/2000/svg" xmlns:xlink="http://www.w3.org/1999/xlink">
<g id="graph0" class="graph" transform="scale(1 1) rotate(0) translate(4 304)">
<title>Random.h</title>
<!-- Node1 -->
<g id="node1" class="node">
<title>Node1</title>
<g id="a_node1"><a xlink:title=" ">
<polygon fill="#bfbfbf" stroke="black" points="688.5,-280.5 688.5,-299.5 754.5,-299.5 754.5,-280.5 688.5,-280.5"/>
<text text-anchor="middle" x="721.5" y="-287.5" font-family="Helvetica,sans-Serif" font-size="10.00">Random.h</text>
</a>
</g>
</g>
<!-- Node2 -->
<g id="node2" class="node">
<title>Node2</title>
<g id="a_node2"><a xlink:title=" ">
<polygon fill="none" stroke="#bfbfbf" points="0,-56.5 0,-75.5 89,-75.5 89,-56.5 0,-56.5"/>
<text text-anchor="middle" x="44.5" y="-63.5" font-family="Helvetica,sans-Serif" font-size="10.00">limes_export.h</text>
</a>
</g>
</g>
<!-- Node1&#45;&gt;Node2 -->
<g id="edge1" class="edge">
<title>Node1&#45;&gt;Node2</title>
<path fill="none" stroke="midnightblue" d="M688.49,-288.65C610.04,-287.24 406.68,-280.08 241.5,-244 167.89,-227.92 145.11,-228.37 81.5,-188 52.05,-169.31 39.7,-164.29 26.5,-132 20.14,-116.45 26.56,-97.92 33.43,-84.63"/>
<polygon fill="midnightblue" stroke="midnightblue" points="36.66,-86.05 38.57,-75.63 30.58,-82.58 36.66,-86.05"/>
</g>
<!-- Node3 -->
<g id="node3" class="node">
<title>Node3</title>
<g id="a_node3"><a xlink:href="../../da/d0b/limes__namespace_8h.html" target="_top" xlink:title=" ">
<polygon fill="none" stroke="black" points="305.5,-56.5 305.5,-75.5 419.5,-75.5 419.5,-56.5 305.5,-56.5"/>
<text text-anchor="middle" x="362.5" y="-63.5" font-family="Helvetica,sans-Serif" font-size="10.00">limes_namespace.h</text>
</a>
</g>
</g>
<!-- Node1&#45;&gt;Node3 -->
<g id="edge2" class="edge">
<title>Node1&#45;&gt;Node3</title>
<path fill="none" stroke="midnightblue" d="M688.15,-286.85C561.9,-277.95 116.44,-239.23 36.5,-132 31.19,-124.87 30.66,-118.7 36.5,-112 69.37,-74.28 209.83,-67.11 295.3,-66.34"/>
<polygon fill="midnightblue" stroke="midnightblue" points="295.46,-69.84 305.44,-66.28 295.42,-62.84 295.46,-69.84"/>
</g>
<!-- Node4 -->
<g id="node4" class="node">
<title>Node4</title>
<g id="a_node4"><a xlink:title=" ">
<polygon fill="none" stroke="#bfbfbf" points="809.5,-224.5 809.5,-243.5 853.5,-243.5 853.5,-224.5 809.5,-224.5"/>
<text text-anchor="middle" x="831.5" y="-231.5" font-family="Helvetica,sans-Serif" font-size="10.00">limits</text>
</a>
</g>
</g>
<!-- Node1&#45;&gt;Node4 -->
<g id="edge3" class="edge">
<title>Node1&#45;&gt;Node4</title>
<path fill="none" stroke="midnightblue" d="M739.17,-280.32C756.89,-271.62 784.4,-258.12 804.79,-248.11"/>
<polygon fill="midnightblue" stroke="midnightblue" points="806.44,-251.2 813.87,-243.65 803.35,-244.92 806.44,-251.2"/>
</g>
<!-- Node5 -->
<g id="node5" class="node">
<title>Node5</title>
<g id="a_node5"><a xlink:title=" ">
<polygon fill="none" stroke="#bfbfbf" points="871.5,-224.5 871.5,-243.5 925.5,-243.5 925.5,-224.5 871.5,-224.5"/>
<text text-anchor="middle" x="898.5" y="-231.5" font-family="Helvetica,sans-Serif" font-size="10.00">random</text>
</a>
</g>
</g>
<!-- Node1&#45;&gt;Node5 -->
<g id="edge4" class="edge">
<title>Node1&#45;&gt;Node5</title>
<path fill="none" stroke="midnightblue" d="M749.55,-280.44C779.85,-271.2 828.26,-256.43 861.62,-246.25"/>
<polygon fill="midnightblue" stroke="midnightblue" points="862.91,-249.52 871.46,-243.25 860.87,-242.82 862.91,-249.52"/>
</g>
<!-- Node6 -->
<g id="node6" class="node">
<title>Node6</title>
<g id="a_node6"><a xlink:href="../../d3/d53/preprocessor_8h.html" target="_top" xlink:title=" ">
<polygon fill="none" stroke="black" points="644,-56.5 644,-75.5 767,-75.5 767,-56.5 644,-56.5"/>
<text text-anchor="middle" x="705.5" y="-63.5" font-family="Helvetica,sans-Serif" font-size="10.00">../misc/preprocessor.h</text>
</a>
</g>
</g>
<!-- Node1&#45;&gt;Node6 -->
<g id="edge5" class="edge">
<title>Node1&#45;&gt;Node6</title>
<path fill="none" stroke="midnightblue" d="M728.15,-280.32C742.41,-260.62 773.77,-210.9 762.5,-168 754.01,-135.7 732.6,-102.86 718.57,-83.73"/>
<polygon fill="midnightblue" stroke="midnightblue" points="721.18,-81.39 712.36,-75.51 715.59,-85.6 721.18,-81.39"/>
</g>
<!-- Node8 -->
<g id="node8" class="node">
<title>Node8</title>
<g id="a_node8"><a xlink:href="../../dd/dfb/math_helpers_8h.html" target="_top" xlink:title=" ">
<polygon fill="none" stroke="black" points="509,-224.5 509,-243.5 598,-243.5 598,-224.5 509,-224.5"/>
<text text-anchor="middle" x="553.5" y="-231.5" font-family="Helvetica,sans-Serif" font-size="10.00">mathHelpers.h</text>
</a>
</g>
</g>
<!-- Node1&#45;&gt;Node8 -->
<g id="edge7" class="edge">
<title>Node1&#45;&gt;Node8</title>
<path fill="none" stroke="midnightblue" d="M694.88,-280.44C666.49,-271.32 621.36,-256.81 589.75,-246.65"/>
<polygon fill="midnightblue" stroke="midnightblue" points="590.59,-243.24 580,-243.52 588.44,-249.91 590.59,-243.24"/>
</g>
<!-- Node11 -->
<g id="node11" class="node">
<title>Node11</title>
<g id="a_node11"><a xlink:title=" ">
<polygon fill="none" stroke="#bfbfbf" points="689.5,-168.5 689.5,-187.5 753.5,-187.5 753.5,-168.5 689.5,-168.5"/>
<text text-anchor="middle" x="721.5" y="-175.5" font-family="Helvetica,sans-Serif" font-size="10.00">algorithm</text>
</a>
</g>
</g>
<!-- Node1&#45;&gt;Node11 -->
<g id="edge30" class="edge">
<title>Node1&#45;&gt;Node11</title>
<path fill="none" stroke="midnightblue" d="M721.5,-280.37C721.5,-262.62 721.5,-221.67 721.5,-197.6"/>
<polygon fill="midnightblue" stroke="midnightblue" points="725,-197.59 721.5,-187.59 718,-197.59 725,-197.59"/>
</g>
<!-- Node7 -->
<g id="node7" class="node">
<title>Node7</title>
<g id="a_node7"><a xlink:title=" ">
<polygon fill="none" stroke="#bfbfbf" points="396.5,-0.5 396.5,-19.5 496.5,-19.5 496.5,-0.5 396.5,-0.5"/>
<text text-anchor="middle" x="446.5" y="-7.5" font-family="Helvetica,sans-Serif" font-size="10.00">limes_platform.h</text>
</a>
</g>
</g>
<!-- Node6&#45;&gt;Node7 -->
<g id="edge6" class="edge">
<title>Node6&#45;&gt;Node7</title>
<path fill="none" stroke="midnightblue" d="M664.46,-56.44C619.18,-47 546.27,-31.8 497.39,-21.61"/>
<polygon fill="midnightblue" stroke="midnightblue" points="497.85,-18.13 487.35,-19.52 496.42,-24.98 497.85,-18.13"/>
</g>
<!-- Node8&#45;&gt;Node2 -->
<g id="edge11" class="edge">
<title>Node8&#45;&gt;Node2</title>
<path fill="none" stroke="midnightblue" d="M508.9,-231.61C393.99,-226.95 92.87,-207.61 36.5,-132 26.54,-118.63 30.61,-99.26 35.91,-85.14"/>
<polygon fill="midnightblue" stroke="midnightblue" points="39.29,-86.12 39.99,-75.55 32.85,-83.38 39.29,-86.12"/>
</g>
<!-- Node8&#45;&gt;Node3 -->
<g id="edge8" class="edge">
<title>Node8&#45;&gt;Node3</title>
<path fill="none" stroke="midnightblue" d="M555.02,-224.36C558.34,-202.47 563.74,-144.33 534.5,-112 520.27,-96.27 471.72,-84.45 429.81,-76.89"/>
<polygon fill="midnightblue" stroke="midnightblue" points="430.34,-73.43 419.88,-75.15 429.13,-80.32 430.34,-73.43"/>
</g>
<!-- Node8&#45;&gt;Node6 -->
<g id="edge29" class="edge">
<title>Node8&#45;&gt;Node6</title>
<path fill="none" stroke="midnightblue" d="M579.98,-224.48C616.17,-211.23 679.65,-181.89 706.5,-132 714.1,-117.87 712.95,-99.38 710.43,-85.74"/>
<polygon fill="midnightblue" stroke="midnightblue" points="713.76,-84.6 708.14,-75.62 706.93,-86.14 713.76,-84.6"/>
</g>
<!-- Node9 -->
<g id="node9" class="node">
<title>Node9</title>
<g id="a_node9"><a xlink:title=" ">
<polygon fill="none" stroke="#bfbfbf" points="478,-168.5 478,-187.5 525,-187.5 525,-168.5 478,-168.5"/>
<text text-anchor="middle" x="501.5" y="-175.5" font-family="Helvetica,sans-Serif" font-size="10.00">cmath</text>
</a>
</g>
</g>
<!-- Node8&#45;&gt;Node9 -->
<g id="edge9" class="edge">
<title>Node8&#45;&gt;Node9</title>
<path fill="none" stroke="midnightblue" d="M544.91,-224.08C537.34,-216.22 526.12,-204.57 516.99,-195.08"/>
<polygon fill="midnightblue" stroke="midnightblue" points="519.38,-192.53 509.93,-187.75 514.34,-197.38 519.38,-192.53"/>
</g>
<!-- Node10 -->
<g id="node10" class="node">
<title>Node10</title>
<g id="a_node10"><a xlink:title=" ">
<polygon fill="none" stroke="#bfbfbf" points="46,-112.5 46,-131.5 115,-131.5 115,-112.5 46,-112.5"/>
<text text-anchor="middle" x="80.5" y="-119.5" font-family="Helvetica,sans-Serif" font-size="10.00">type_traits</text>
</a>
</g>
</g>
<!-- Node8&#45;&gt;Node10 -->
<g id="edge10" class="edge">
<title>Node8&#45;&gt;Node10</title>
<path fill="none" stroke="midnightblue" d="M508.59,-226.5C457.95,-218.82 373.31,-204.92 301.5,-188 235.05,-172.34 158.95,-148.67 115.62,-134.63"/>
<polygon fill="midnightblue" stroke="midnightblue" points="116.71,-131.3 106.11,-131.53 114.54,-137.95 116.71,-131.3"/>
</g>
<!-- Node8&#45;&gt;Node11 -->
<g id="edge12" class="edge">
<title>Node8&#45;&gt;Node11</title>
<path fill="none" stroke="midnightblue" d="M580.12,-224.44C608.51,-215.32 653.64,-200.81 685.25,-190.65"/>
<polygon fill="midnightblue" stroke="midnightblue" points="686.56,-193.91 695,-187.52 684.41,-187.24 686.56,-193.91"/>
</g>
<!-- Node12 -->
<g id="node12" class="node">
<title>Node12</title>
<g id="a_node12"><a xlink:href="../../d5/dbb/limes__assert_8h.html" target="_top" xlink:title=" ">
<polygon fill="none" stroke="black" points="310.5,-168.5 310.5,-187.5 446.5,-187.5 446.5,-168.5 310.5,-168.5"/>
<text text-anchor="middle" x="378.5" y="-175.5" font-family="Helvetica,sans-Serif" font-size="10.00">../system/limes_assert.h</text>
</a>
</g>
</g>
<!-- Node8&#45;&gt;Node12 -->
<g id="edge13" class="edge">
<title>Node8&#45;&gt;Node12</title>
<path fill="none" stroke="midnightblue" d="M525.77,-224.44C496.07,-215.28 448.78,-200.69 415.83,-190.52"/>
<polygon fill="midnightblue" stroke="midnightblue" points="416.69,-187.12 406.1,-187.52 414.62,-193.81 416.69,-187.12"/>
</g>
<!-- Node16 -->
<g id="node16" class="node">
<title>Node16</title>
<g id="a_node16"><a xlink:href="../../d0/d00/compiler__defs_8h.html" target="_top" xlink:title=" ">
<polygon fill="none" stroke="black" points="582,-112.5 582,-131.5 677,-131.5 677,-112.5 582,-112.5"/>
<text text-anchor="middle" x="629.5" y="-119.5" font-family="Helvetica,sans-Serif" font-size="10.00">compiler_defs.h</text>
</a>
</g>
</g>
<!-- Node8&#45;&gt;Node16 -->
<g id="edge28" class="edge">
<title>Node8&#45;&gt;Node16</title>
<path fill="none" stroke="midnightblue" d="M559.46,-224.37C572.01,-206.22 601.31,-163.8 617.76,-139.99"/>
<polygon fill="midnightblue" stroke="midnightblue" points="620.76,-141.81 623.56,-131.59 615,-137.83 620.76,-141.81"/>
</g>
<!-- Node12&#45;&gt;Node2 -->
<g id="edge14" class="edge">
<title>Node12&#45;&gt;Node2</title>
<path fill="none" stroke="midnightblue" d="M316.77,-168.45C274.02,-161.42 216.26,-149.7 167.5,-132 147.83,-124.86 98.45,-97.62 68.58,-80.75"/>
<polygon fill="midnightblue" stroke="midnightblue" points="70.06,-77.56 59.63,-75.67 66.61,-83.65 70.06,-77.56"/>
</g>
<!-- Node12&#45;&gt;Node3 -->
<g id="edge15" class="edge">
<title>Node12&#45;&gt;Node3</title>
<path fill="none" stroke="midnightblue" d="M377.24,-168.37C374.66,-150.62 368.71,-109.67 365.21,-85.6"/>
<polygon fill="midnightblue" stroke="midnightblue" points="368.65,-84.98 363.75,-75.59 361.73,-85.99 368.65,-84.98"/>
</g>
<!-- Node12&#45;&gt;Node6 -->
<g id="edge16" class="edge">
<title>Node12&#45;&gt;Node6</title>
<path fill="none" stroke="midnightblue" d="M446.56,-168.94C534.51,-158.25 677.5,-139.82 686.5,-132 699.65,-120.57 703.94,-100.58 705.22,-85.78"/>
<polygon fill="midnightblue" stroke="midnightblue" points="708.73,-85.86 705.72,-75.7 701.73,-85.52 708.73,-85.86"/>
</g>
<!-- Node12&#45;&gt;Node7 -->
<g id="edge23" class="edge">
<title>Node12&#45;&gt;Node7</title>
<path fill="none" stroke="midnightblue" d="M310.42,-168.5C266.16,-161.41 214.21,-149.6 200.5,-132 195.04,-124.99 196.42,-119.9 200.5,-112 235.02,-45.22 325.15,-22.53 386.18,-14.86"/>
<polygon fill="midnightblue" stroke="midnightblue" points="386.93,-18.3 396.47,-13.67 386.13,-11.34 386.93,-18.3"/>
</g>
<!-- Node12&#45;&gt;Node10 -->
<g id="edge17" class="edge">
<title>Node12&#45;&gt;Node10</title>
<path fill="none" stroke="midnightblue" d="M331.22,-168.5C281.13,-159.48 199.73,-144.8 129.5,-132 128.04,-131.73 126.55,-131.46 125.05,-131.19"/>
<polygon fill="midnightblue" stroke="midnightblue" points="125.5,-127.71 115.03,-129.36 124.24,-134.6 125.5,-127.71"/>
</g>
<!-- Node13 -->
<g id="node13" class="node">
<title>Node13</title>
<g id="a_node13"><a xlink:title=" ">
<polygon fill="none" stroke="#bfbfbf" points="394,-112.5 394,-131.5 439,-131.5 439,-112.5 394,-112.5"/>
<text text-anchor="middle" x="416.5" y="-119.5" font-family="Helvetica,sans-Serif" font-size="10.00">utility</text>
</a>
</g>
</g>
<!-- Node12&#45;&gt;Node13 -->
<g id="edge18" class="edge">
<title>Node12&#45;&gt;Node13</title>
<path fill="none" stroke="midnightblue" d="M384.77,-168.08C390.14,-160.46 398.02,-149.26 404.58,-139.94"/>
<polygon fill="midnightblue" stroke="midnightblue" points="407.45,-141.94 410.34,-131.75 401.72,-137.91 407.45,-141.94"/>
</g>
<!-- Node14 -->
<g id="node14" class="node">
<title>Node14</title>
<g id="a_node14"><a xlink:href="../../d1/d57/_ignore_unused_8h.html" target="_top" xlink:title=" ">
<polygon fill="none" stroke="black" points="209.5,-112.5 209.5,-131.5 337.5,-131.5 337.5,-112.5 209.5,-112.5"/>
<text text-anchor="middle" x="273.5" y="-119.5" font-family="Helvetica,sans-Serif" font-size="10.00">../misc/IgnoreUnused.h</text>
</a>
</g>
</g>
<!-- Node12&#45;&gt;Node14 -->
<g id="edge19" class="edge">
<title>Node12&#45;&gt;Node14</title>
<path fill="none" stroke="midnightblue" d="M361.63,-168.32C344.79,-159.66 318.69,-146.24 299.26,-136.25"/>
<polygon fill="midnightblue" stroke="midnightblue" points="300.82,-133.12 290.33,-131.65 297.62,-139.34 300.82,-133.12"/>
</g>
<!-- Node15 -->
<g id="node15" class="node">
<title>Node15</title>
<g id="a_node15"><a xlink:title=" ">
<polygon fill="none" stroke="#bfbfbf" points="457.5,-112.5 457.5,-131.5 525.5,-131.5 525.5,-112.5 457.5,-112.5"/>
<text text-anchor="middle" x="491.5" y="-119.5" font-family="Helvetica,sans-Serif" font-size="10.00">filesystem</text>
</a>
</g>
</g>
<!-- Node12&#45;&gt;Node15 -->
<g id="edge24" class="edge">
<title>Node12&#45;&gt;Node15</title>
<path fill="none" stroke="midnightblue" d="M396.41,-168.44C414.75,-159.68 443.51,-145.94 464.59,-135.86"/>
<polygon fill="midnightblue" stroke="midnightblue" points="466.17,-138.99 473.68,-131.52 463.15,-132.67 466.17,-138.99"/>
</g>
<!-- Node12&#45;&gt;Node16 -->
<g id="edge25" class="edge">
<title>Node12&#45;&gt;Node16</title>
<path fill="none" stroke="midnightblue" d="M418.27,-168.44C462.06,-159.02 532.51,-143.87 579.88,-133.68"/>
<polygon fill="midnightblue" stroke="midnightblue" points="580.87,-137.04 589.91,-131.52 579.4,-130.2 580.87,-137.04"/>
</g>
<!-- Node14&#45;&gt;Node2 -->
<g id="edge20" class="edge">
<title>Node14&#45;&gt;Node2</title>
<path fill="none" stroke="midnightblue" d="M237.21,-112.44C197.52,-103.08 133.79,-88.06 90.59,-77.87"/>
<polygon fill="midnightblue" stroke="midnightblue" points="91.15,-74.41 80.62,-75.52 89.55,-81.22 91.15,-74.41"/>
</g>
<!-- Node14&#45;&gt;Node3 -->
<g id="edge21" class="edge">
<title>Node14&#45;&gt;Node3</title>
<path fill="none" stroke="midnightblue" d="M287.8,-112.32C301.68,-103.9 322.99,-90.97 339.3,-81.07"/>
<polygon fill="midnightblue" stroke="midnightblue" points="341.5,-83.83 348.24,-75.65 337.87,-77.85 341.5,-83.83"/>
</g>
<!-- Node14&#45;&gt;Node7 -->
<g id="edge22" class="edge">
<title>Node14&#45;&gt;Node7</title>
<path fill="none" stroke="midnightblue" d="M274.15,-112.07C275.65,-98.12 280.55,-71.19 296.5,-56 320.55,-33.09 355.82,-21.8 386.11,-16.25"/>
<polygon fill="midnightblue" stroke="midnightblue" points="386.88,-19.67 396.17,-14.58 385.73,-12.77 386.88,-19.67"/>
</g>
<!-- Node16&#45;&gt;Node6 -->
<g id="edge27" class="edge">
<title>Node16&#45;&gt;Node6</title>
<path fill="none" stroke="midnightblue" d="M641.71,-112.32C653.28,-104.11 670.88,-91.6 684.66,-81.81"/>
<polygon fill="midnightblue" stroke="midnightblue" points="686.94,-84.48 693.07,-75.83 682.89,-78.77 686.94,-84.48"/>
</g>
<!-- Node16&#45;&gt;Node7 -->
<g id="edge26" class="edge">
<title>Node16&#45;&gt;Node7</title>
<path fill="none" stroke="midnightblue" d="M615.14,-112.37C583.6,-93.41 508.06,-48 469.7,-24.94"/>
<polygon fill="midnightblue" stroke="midnightblue" points="471.17,-21.74 460.79,-19.59 467.56,-27.74 471.17,-21.74"/>
</g>
</g>
</svg>
