<?xml version="1.0" encoding="UTF-8" standalone="no"?>
<!DOCTYPE svg PUBLIC "-//W3C//DTD SVG 1.1//EN"
 "http://www.w3.org/Graphics/SVG/1.1/DTD/svg11.dtd">
<!-- Generated by graphviz version 2.43.0 (0)
 -->
<!-- Title: serializing.h Pages: 1 -->
<!--zoomable 252 -->
<svg id="main" version="1.1" xmlns="http://www.w3.org/2000/svg" xmlns:xlink="http://www.w3.org/1999/xlink" xml:space="preserve" onload="init(evt)">
<style type="text/css"><![CDATA[
.edge:hover path { stroke: red; }
.edge:hover polygon { stroke: red; fill: red; }
]]></style>
<script type="text/javascript"><![CDATA[
var edges = document.getElementsByTagName('g');
if (edges && edges.length) {
  for (var i=0;i<edges.length;i++) {
    if (edges[i].id.substr(0,4)=='edge') {
      edges[i].setAttribute('class','edge');
    }
  }
}
]]></script>
        <defs>
                <circle id="rim" cx="0" cy="0" r="7"/>
                <circle id="rim2" cx="0" cy="0" r="3.5"/>
                <g id="zoomPlus">
                        <use xlink:href="#rim" fill="#404040">
                                <set attributeName="fill" to="#808080" begin="zoomplus.mouseover" end="zoomplus.mouseout"/>
                        </use>
                        <path d="M-4,0h8M0,-4v8" fill="none" stroke="white" stroke-width="1.5" pointer-events="none"/>
                </g>
                <g id="zoomMin">
                        <use xlink:href="#rim" fill="#404040">
                                <set attributeName="fill" to="#808080" begin="zoomminus.mouseover" end="zoomminus.mouseout"/>
                        </use>
                        <path d="M-4,0h8" fill="none" stroke="white" stroke-width="1.5" pointer-events="none"/>
                </g>
                <g id="dirArrow">
                        <path fill="none" stroke="white" stroke-width="1.5" d="M0,-3.0v7 M-2.5,-0.5L0,-3.0L2.5,-0.5"/>
                </g>
               <g id="resetDef">
                       <use xlink:href="#rim2" fill="#404040">
                               <set attributeName="fill" to="#808080" begin="reset.mouseover" end="reset.mouseout"/>
                       </use>
               </g>
        </defs>

<script type="text/javascript">
var viewWidth = 1095;
var viewHeight = 252;
var sectionId = 'dynsection-0';
</script>
<script xlink:href="../../svgpan.js"/>
<svg id="graph" class="graph">
<g id="viewport">
<title>serializing.h</title>
<!-- Node1 -->
<g id="node1" class="node">
<title>Node1</title>
<g id="a_node1"><a xlink:title=" ">
<polygon fill="#bfbfbf" stroke="black" points="787.5,-224.5 787.5,-243.5 863.5,-243.5 863.5,-224.5 787.5,-224.5"/>
<text text-anchor="middle" x="825.5" y="-231.5" font-family="Helvetica,sans-Serif" font-size="10.00">serializing.h</text>
</a>
</g>
</g>
<!-- Node2 -->
<g id="node2" class="node">
<title>Node2</title>
<g id="a_node2"><a xlink:href="../../da/d0b/limes__namespace_8h.html" target="_top" xlink:title=" ">
<polygon fill="none" stroke="black" points="211.5,-0.5 211.5,-19.5 325.5,-19.5 325.5,-0.5 211.5,-0.5"/>
<text text-anchor="middle" x="268.5" y="-7.5" font-family="Helvetica,sans-Serif" font-size="10.00">limes_namespace.h</text>
</a>
</g>
</g>
<!-- Node1&#45;&gt;Node2 -->
<g id="edge1" class="edge">
<title>Node1&#45;&gt;Node2</title>
<path fill="none" stroke="midnightblue" d="M787.18,-230.85C641.3,-222.28 126.58,-188.22 82.5,-132 39.51,-77.17 150.09,-39.42 218.72,-21.98"/>
<polygon fill="midnightblue" stroke="midnightblue" points="219.65,-25.36 228.51,-19.56 217.97,-18.56 219.65,-25.36"/>
</g>
<!-- Node3 -->
<g id="node3" class="node">
<title>Node3</title>
<g id="a_node3"><a xlink:title=" ">
<polygon fill="none" stroke="#bfbfbf" points="0,-0.5 0,-19.5 89,-19.5 89,-0.5 0,-0.5"/>
<text text-anchor="middle" x="44.5" y="-7.5" font-family="Helvetica,sans-Serif" font-size="10.00">limes_export.h</text>
</a>
</g>
</g>
<!-- Node1&#45;&gt;Node3 -->
<g id="edge2" class="edge">
<title>Node1&#45;&gt;Node3</title>
<path fill="none" stroke="midnightblue" d="M787.46,-232.23C667.67,-229.5 299.4,-218.77 184.5,-188 129.59,-173.3 109.32,-172.57 69.5,-132 50.28,-112.42 49.42,-102.8 43.5,-76 41.58,-67.32 43.4,-64.89 43.5,-56 43.6,-47.4 43.79,-37.87 43.99,-29.8"/>
<polygon fill="midnightblue" stroke="midnightblue" points="47.49,-29.71 44.25,-19.63 40.49,-29.53 47.49,-29.71"/>
</g>
<!-- Node4 -->
<g id="node4" class="node">
<title>Node4</title>
<g id="a_node4"><a xlink:title=" ">
<polygon fill="none" stroke="#bfbfbf" points="949,-168.5 949,-187.5 1022,-187.5 1022,-168.5 949,-168.5"/>
<text text-anchor="middle" x="985.5" y="-175.5" font-family="Helvetica,sans-Serif" font-size="10.00">string_view</text>
</a>
</g>
</g>
<!-- Node1&#45;&gt;Node4 -->
<g id="edge3" class="edge">
<title>Node1&#45;&gt;Node4</title>
<path fill="none" stroke="midnightblue" d="M850.85,-224.44C877.77,-215.36 920.5,-200.94 950.59,-190.78"/>
<polygon fill="midnightblue" stroke="midnightblue" points="951.91,-194.03 960.27,-187.52 949.67,-187.4 951.91,-194.03"/>
</g>
<!-- Node5 -->
<g id="node5" class="node">
<title>Node5</title>
<g id="a_node5"><a xlink:title=" ">
<polygon fill="none" stroke="#bfbfbf" points="836.5,-0.5 836.5,-19.5 880.5,-19.5 880.5,-0.5 836.5,-0.5"/>
<text text-anchor="middle" x="858.5" y="-7.5" font-family="Helvetica,sans-Serif" font-size="10.00">string</text>
</a>
</g>
</g>
<!-- Node1&#45;&gt;Node5 -->
<g id="edge4" class="edge">
<title>Node1&#45;&gt;Node5</title>
<path fill="none" stroke="midnightblue" d="M850.66,-224.38C866.92,-217.34 886.79,-205.65 896.5,-188 924.78,-136.6 916.65,-111.1 896.5,-56 892.44,-44.91 884.31,-34.67 876.61,-26.76"/>
<polygon fill="midnightblue" stroke="midnightblue" points="878.86,-24.07 869.21,-19.7 874.03,-29.14 878.86,-24.07"/>
</g>
<!-- Node6 -->
<g id="node6" class="node">
<title>Node6</title>
<g id="a_node6"><a xlink:title=" ">
<polygon fill="none" stroke="#bfbfbf" points="1040,-168.5 1040,-187.5 1087,-187.5 1087,-168.5 1040,-168.5"/>
<text text-anchor="middle" x="1063.5" y="-175.5" font-family="Helvetica,sans-Serif" font-size="10.00">vector</text>
</a>
</g>
</g>
<!-- Node1&#45;&gt;Node6 -->
<g id="edge5" class="edge">
<title>Node1&#45;&gt;Node6</title>
<path fill="none" stroke="midnightblue" d="M863.62,-225.38C903.07,-217.33 966.66,-203.93 1030.02,-188.27"/>
<polygon fill="midnightblue" stroke="midnightblue" points="1030.92,-191.65 1039.78,-185.84 1029.23,-184.86 1030.92,-191.65"/>
</g>
<!-- Node7 -->
<g id="node7" class="node">
<title>Node7</title>
<g id="a_node7"><a xlink:title=" ">
<polygon fill="none" stroke="#bfbfbf" points="733,-112.5 733,-131.5 778,-131.5 778,-112.5 733,-112.5"/>
<text text-anchor="middle" x="755.5" y="-119.5" font-family="Helvetica,sans-Serif" font-size="10.00">utility</text>
</a>
</g>
</g>
<!-- Node1&#45;&gt;Node7 -->
<g id="edge6" class="edge">
<title>Node1&#45;&gt;Node7</title>
<path fill="none" stroke="midnightblue" d="M818.62,-224.25C811.71,-215.33 800.93,-201.01 792.5,-188 782.37,-172.37 771.98,-153.85 764.79,-140.58"/>
<polygon fill="midnightblue" stroke="midnightblue" points="767.79,-138.76 759.99,-131.6 761.62,-142.07 767.79,-138.76"/>
</g>
<!-- Node8 -->
<g id="node8" class="node">
<title>Node8</title>
<g id="a_node8"><a xlink:title=" ">
<polygon fill="none" stroke="#bfbfbf" points="688,-0.5 688,-19.5 757,-19.5 757,-0.5 688,-0.5"/>
<text text-anchor="middle" x="722.5" y="-7.5" font-family="Helvetica,sans-Serif" font-size="10.00">type_traits</text>
</a>
</g>
</g>
<!-- Node1&#45;&gt;Node8 -->
<g id="edge7" class="edge">
<title>Node1&#45;&gt;Node8</title>
<path fill="none" stroke="midnightblue" d="M829.93,-224.23C843.22,-196.53 879.58,-109.56 841.5,-56 824.61,-32.24 793.51,-21.02 767.33,-15.72"/>
<polygon fill="midnightblue" stroke="midnightblue" points="767.68,-12.23 757.22,-13.91 766.44,-19.12 767.68,-12.23"/>
</g>
<!-- Node9 -->
<g id="node9" class="node">
<title>Node9</title>
<g id="a_node9"><a xlink:href="../../d3/d53/preprocessor_8h.html" target="_top" xlink:title=" ">
<polygon fill="none" stroke="black" points="571,-56.5 571,-75.5 694,-75.5 694,-56.5 571,-56.5"/>
<text text-anchor="middle" x="632.5" y="-63.5" font-family="Helvetica,sans-Serif" font-size="10.00">../misc/preprocessor.h</text>
</a>
</g>
</g>
<!-- Node1&#45;&gt;Node9 -->
<g id="edge8" class="edge">
<title>Node1&#45;&gt;Node9</title>
<path fill="none" stroke="midnightblue" d="M825.33,-224.26C824.43,-202.16 818.93,-143.55 786.5,-112 764.53,-90.63 733,-79.32 704.18,-73.36"/>
<polygon fill="midnightblue" stroke="midnightblue" points="704.6,-69.88 694.12,-71.47 703.31,-76.76 704.6,-69.88"/>
</g>
<!-- Node11 -->
<g id="node11" class="node">
<title>Node11</title>
<g id="a_node11"><a xlink:href="../../d4/d83/_type_list_8h.html" target="_top" xlink:title=" ">
<polygon fill="none" stroke="black" points="320,-168.5 320,-187.5 423,-187.5 423,-168.5 320,-168.5"/>
<text text-anchor="middle" x="371.5" y="-175.5" font-family="Helvetica,sans-Serif" font-size="10.00">../meta/TypeList.h</text>
</a>
</g>
</g>
<!-- Node1&#45;&gt;Node11 -->
<g id="edge10" class="edge">
<title>Node1&#45;&gt;Node11</title>
<path fill="none" stroke="midnightblue" d="M787.18,-228.44C708.6,-219.1 528.58,-197.68 433.29,-186.35"/>
<polygon fill="midnightblue" stroke="midnightblue" points="433.56,-182.86 423.22,-185.15 432.73,-189.81 433.56,-182.86"/>
</g>
<!-- Node20 -->
<g id="node18" class="node">
<title>Node20</title>
<g id="a_node18"><a xlink:title=" ">
<polygon fill="none" stroke="#bfbfbf" points="751,-56.5 751,-75.5 816,-75.5 816,-56.5 751,-56.5"/>
<text text-anchor="middle" x="783.5" y="-63.5" font-family="Helvetica,sans-Serif" font-size="10.00">functional</text>
</a>
</g>
</g>
<!-- Node1&#45;&gt;Node20 -->
<g id="edge37" class="edge">
<title>Node1&#45;&gt;Node20</title>
<path fill="none" stroke="midnightblue" d="M826.95,-224.42C830,-204.08 835.65,-151.68 820.5,-112 816.33,-101.09 808.39,-90.86 800.94,-82.92"/>
<polygon fill="midnightblue" stroke="midnightblue" points="803.35,-80.39 793.79,-75.81 798.41,-85.35 803.35,-80.39"/>
</g>
<!-- Node10 -->
<g id="node10" class="node">
<title>Node10</title>
<g id="a_node10"><a xlink:title=" ">
<polygon fill="none" stroke="#bfbfbf" points="513.5,-0.5 513.5,-19.5 613.5,-19.5 613.5,-0.5 513.5,-0.5"/>
<text text-anchor="middle" x="563.5" y="-7.5" font-family="Helvetica,sans-Serif" font-size="10.00">limes_platform.h</text>
</a>
</g>
</g>
<!-- Node9&#45;&gt;Node10 -->
<g id="edge9" class="edge">
<title>Node9&#45;&gt;Node10</title>
<path fill="none" stroke="midnightblue" d="M621.41,-56.32C611.01,-48.18 595.24,-35.84 582.78,-26.09"/>
<polygon fill="midnightblue" stroke="midnightblue" points="584.82,-23.24 574.79,-19.83 580.51,-28.75 584.82,-23.24"/>
</g>
<!-- Node11&#45;&gt;Node2 -->
<g id="edge11" class="edge">
<title>Node11&#45;&gt;Node2</title>
<path fill="none" stroke="midnightblue" d="M319.99,-172.19C263.15,-163.7 175.02,-140.32 139.5,-76 122.73,-45.64 161.72,-29.12 201.12,-20.34"/>
<polygon fill="midnightblue" stroke="midnightblue" points="202.03,-23.72 211.11,-18.27 200.61,-16.87 202.03,-23.72"/>
</g>
<!-- Node11&#45;&gt;Node3 -->
<g id="edge12" class="edge">
<title>Node11&#45;&gt;Node3</title>
<path fill="none" stroke="midnightblue" d="M319.98,-175.37C246.66,-172 117.24,-161.89 82.5,-132 52.41,-106.12 45.86,-56.69 44.61,-29.71"/>
<polygon fill="midnightblue" stroke="midnightblue" points="48.11,-29.56 44.35,-19.66 41.11,-29.75 48.11,-29.56"/>
</g>
<!-- Node11&#45;&gt;Node7 -->
<g id="edge35" class="edge">
<title>Node11&#45;&gt;Node7</title>
<path fill="none" stroke="midnightblue" d="M423.22,-172.08C491.27,-165.2 614.43,-151.34 718.5,-132 719.96,-131.73 721.45,-131.43 722.96,-131.13"/>
<polygon fill="midnightblue" stroke="midnightblue" points="723.89,-134.5 732.89,-128.92 722.37,-127.67 723.89,-134.5"/>
</g>
<!-- Node11&#45;&gt;Node8 -->
<g id="edge34" class="edge">
<title>Node11&#45;&gt;Node8</title>
<path fill="none" stroke="midnightblue" d="M416.74,-168.49C528.87,-147.19 811.59,-92.11 824.5,-76 844.85,-50.62 803.21,-32.15 767.15,-21.52"/>
<polygon fill="midnightblue" stroke="midnightblue" points="767.76,-18.06 757.19,-18.74 765.88,-24.8 767.76,-18.06"/>
</g>
<!-- Node12 -->
<g id="node12" class="node">
<title>Node12</title>
<g id="a_node12"><a xlink:href="../../d7/dfe/_type_list__impl_8h.html" target="_top" xlink:title=" ">
<polygon fill="none" stroke="black" points="237.5,-112.5 237.5,-131.5 329.5,-131.5 329.5,-112.5 237.5,-112.5"/>
<text text-anchor="middle" x="283.5" y="-119.5" font-family="Helvetica,sans-Serif" font-size="10.00">TypeList_impl.h</text>
</a>
</g>
</g>
<!-- Node11&#45;&gt;Node12 -->
<g id="edge13" class="edge">
<title>Node11&#45;&gt;Node12</title>
<path fill="none" stroke="midnightblue" d="M357.36,-168.32C343.63,-159.9 322.56,-146.97 306.44,-137.07"/>
<polygon fill="midnightblue" stroke="midnightblue" points="307.96,-133.9 297.6,-131.65 304.3,-139.87 307.96,-133.9"/>
</g>
<!-- Node14 -->
<g id="node14" class="node">
<title>Node14</title>
<g id="a_node14"><a xlink:href="../../d4/dd5/_type_traits_8h.html" target="_top" xlink:title=" ">
<polygon fill="none" stroke="red" points="334.5,-56.5 334.5,-75.5 408.5,-75.5 408.5,-56.5 334.5,-56.5"/>
<text text-anchor="middle" x="371.5" y="-63.5" font-family="Helvetica,sans-Serif" font-size="10.00">TypeTraits.h</text>
</a>
</g>
</g>
<!-- Node11&#45;&gt;Node14 -->
<g id="edge33" class="edge">
<title>Node11&#45;&gt;Node14</title>
<path fill="none" stroke="midnightblue" d="M371.5,-168.37C371.5,-150.62 371.5,-109.67 371.5,-85.6"/>
<polygon fill="midnightblue" stroke="midnightblue" points="375,-85.59 371.5,-75.59 368,-85.59 375,-85.59"/>
</g>
<!-- Node18 -->
<g id="node16" class="node">
<title>Node18</title>
<g id="a_node16"><a xlink:href="../../d6/d9b/_functions_8h.html" target="_top" xlink:title=" ">
<polygon fill="none" stroke="black" points="437,-112.5 437,-131.5 544,-131.5 544,-112.5 437,-112.5"/>
<text text-anchor="middle" x="490.5" y="-119.5" font-family="Helvetica,sans-Serif" font-size="10.00">../misc/Functions.h</text>
</a>
</g>
</g>
<!-- Node11&#45;&gt;Node18 -->
<g id="edge25" class="edge">
<title>Node11&#45;&gt;Node18</title>
<path fill="none" stroke="midnightblue" d="M390.36,-168.44C409.77,-159.64 440.23,-145.81 462.46,-135.72"/>
<polygon fill="midnightblue" stroke="midnightblue" points="464.07,-138.84 471.73,-131.52 461.18,-132.46 464.07,-138.84"/>
</g>
<!-- Node21 -->
<g id="node19" class="node">
<title>Node21</title>
<g id="a_node19"><a xlink:title=" ">
<polygon fill="none" stroke="#bfbfbf" points="91.5,-112.5 91.5,-131.5 149.5,-131.5 149.5,-112.5 91.5,-112.5"/>
<text text-anchor="middle" x="120.5" y="-119.5" font-family="Helvetica,sans-Serif" font-size="10.00">memory</text>
</a>
</g>
</g>
<!-- Node11&#45;&gt;Node21 -->
<g id="edge36" class="edge">
<title>Node11&#45;&gt;Node21</title>
<path fill="none" stroke="midnightblue" d="M331.73,-168.44C284.56,-158.3 206.46,-141.49 159.59,-131.41"/>
<polygon fill="midnightblue" stroke="midnightblue" points="160.03,-127.93 149.52,-129.24 158.56,-134.77 160.03,-127.93"/>
</g>
<!-- Node12&#45;&gt;Node2 -->
<g id="edge15" class="edge">
<title>Node12&#45;&gt;Node2</title>
<path fill="none" stroke="midnightblue" d="M282.32,-112.37C279.9,-94.62 274.32,-53.67 271.04,-29.6"/>
<polygon fill="midnightblue" stroke="midnightblue" points="274.49,-29.03 269.67,-19.59 267.55,-29.97 274.49,-29.03"/>
</g>
<!-- Node12&#45;&gt;Node3 -->
<g id="edge14" class="edge">
<title>Node12&#45;&gt;Node3</title>
<path fill="none" stroke="midnightblue" d="M245.65,-112.46C215.91,-104.97 173.91,-92.68 139.5,-76 110.91,-62.14 81.19,-40.42 62.77,-25.96"/>
<polygon fill="midnightblue" stroke="midnightblue" points="64.69,-23.01 54.69,-19.5 60.32,-28.48 64.69,-23.01"/>
</g>
<!-- Node12&#45;&gt;Node8 -->
<g id="edge16" class="edge">
<title>Node12&#45;&gt;Node8</title>
<path fill="none" stroke="midnightblue" d="M308.15,-112.43C347.14,-99.1 425.59,-73.13 493.5,-56 556.87,-40.01 631.3,-26.31 677.69,-18.36"/>
<polygon fill="midnightblue" stroke="midnightblue" points="678.45,-21.78 687.72,-16.65 677.27,-14.88 678.45,-21.78"/>
</g>
<!-- Node13 -->
<g id="node13" class="node">
<title>Node13</title>
<g id="a_node13"><a xlink:title=" ">
<polygon fill="none" stroke="#bfbfbf" points="149,-56.5 149,-75.5 202,-75.5 202,-56.5 149,-56.5"/>
<text text-anchor="middle" x="175.5" y="-63.5" font-family="Helvetica,sans-Serif" font-size="10.00">cstddef</text>
</a>
</g>
</g>
<!-- Node12&#45;&gt;Node13 -->
<g id="edge17" class="edge">
<title>Node12&#45;&gt;Node13</title>
<path fill="none" stroke="midnightblue" d="M266.15,-112.32C248.83,-103.66 221.98,-90.24 202,-80.25"/>
<polygon fill="midnightblue" stroke="midnightblue" points="203.32,-77 192.81,-75.65 200.19,-83.26 203.32,-77"/>
</g>
<!-- Node12&#45;&gt;Node14 -->
<g id="edge18" class="edge">
<title>Node12&#45;&gt;Node14</title>
<path fill="none" stroke="midnightblue" d="M297.64,-112.32C311.37,-103.9 332.44,-90.97 348.56,-81.07"/>
<polygon fill="midnightblue" stroke="midnightblue" points="350.7,-83.87 357.4,-75.65 347.04,-77.9 350.7,-83.87"/>
</g>
<!-- Node14&#45;&gt;Node2 -->
<g id="edge23" class="edge">
<title>Node14&#45;&gt;Node2</title>
<path fill="none" stroke="midnightblue" d="M354.95,-56.32C338.51,-47.7 313.07,-34.36 294.03,-24.39"/>
<polygon fill="midnightblue" stroke="midnightblue" points="295.49,-21.2 285.01,-19.65 292.24,-27.4 295.49,-21.2"/>
</g>
<!-- Node14&#45;&gt;Node3 -->
<g id="edge21" class="edge">
<title>Node14&#45;&gt;Node3</title>
<path fill="none" stroke="midnightblue" d="M334.31,-58.86C276.75,-49.35 165.79,-31.03 99.12,-20.02"/>
<polygon fill="midnightblue" stroke="midnightblue" points="99.65,-16.56 89.21,-18.38 98.51,-23.47 99.65,-16.56"/>
</g>
<!-- Node14&#45;&gt;Node5 -->
<g id="edge20" class="edge">
<title>Node14&#45;&gt;Node5</title>
<path fill="none" stroke="midnightblue" d="M408.5,-60.9C500.66,-50.68 739.26,-24.22 826.2,-14.58"/>
<polygon fill="midnightblue" stroke="midnightblue" points="826.71,-18.05 836.27,-13.47 825.94,-11.09 826.71,-18.05"/>
</g>
<!-- Node14&#45;&gt;Node8 -->
<g id="edge19" class="edge">
<title>Node14&#45;&gt;Node8</title>
<path fill="none" stroke="midnightblue" d="M408.73,-59.27C473.76,-49.27 607.77,-28.65 677.74,-17.89"/>
<polygon fill="midnightblue" stroke="midnightblue" points="678.64,-21.29 687.99,-16.31 677.58,-14.37 678.64,-21.29"/>
</g>
<!-- Node14&#45;&gt;Node10 -->
<g id="edge22" class="edge">
<title>Node14&#45;&gt;Node10</title>
<path fill="none" stroke="midnightblue" d="M401.92,-56.44C434.78,-47.2 487.28,-32.44 523.47,-22.26"/>
<polygon fill="midnightblue" stroke="midnightblue" points="524.54,-25.59 533.22,-19.52 522.65,-18.85 524.54,-25.59"/>
</g>
<!-- Node16 -->
<g id="node15" class="node">
<title>Node16</title>
<g id="a_node15"><a xlink:title=" ">
<polygon fill="none" stroke="#bfbfbf" points="374,-0.5 374,-19.5 439,-19.5 439,-0.5 374,-0.5"/>
<text text-anchor="middle" x="406.5" y="-7.5" font-family="Helvetica,sans-Serif" font-size="10.00">exception</text>
</a>
</g>
</g>
<!-- Node14&#45;&gt;Node16 -->
<g id="edge24" class="edge">
<title>Node14&#45;&gt;Node16</title>
<path fill="none" stroke="midnightblue" d="M377.28,-56.08C382.17,-48.53 389.33,-37.49 395.33,-28.23"/>
<polygon fill="midnightblue" stroke="midnightblue" points="398.33,-30.05 400.83,-19.75 392.45,-26.24 398.33,-30.05"/>
</g>
<!-- Node18&#45;&gt;Node2 -->
<g id="edge29" class="edge">
<title>Node18&#45;&gt;Node2</title>
<path fill="none" stroke="midnightblue" d="M436.79,-114.45C402.87,-108.43 359.24,-97.09 325.5,-76 306.08,-63.86 289.56,-43.1 279.38,-28.31"/>
<polygon fill="midnightblue" stroke="midnightblue" points="282.07,-26.03 273.64,-19.6 276.22,-29.88 282.07,-26.03"/>
</g>
<!-- Node18&#45;&gt;Node3 -->
<g id="edge28" class="edge">
<title>Node18&#45;&gt;Node3</title>
<path fill="none" stroke="midnightblue" d="M452.92,-112.43C414.17,-103.54 352.04,-89.12 298.5,-76 223.85,-57.7 137.16,-35.26 86.8,-22.1"/>
<polygon fill="midnightblue" stroke="midnightblue" points="87.48,-18.67 76.92,-19.52 85.71,-25.44 87.48,-18.67"/>
</g>
<!-- Node18&#45;&gt;Node8 -->
<g id="edge27" class="edge">
<title>Node18&#45;&gt;Node8</title>
<path fill="none" stroke="midnightblue" d="M544.14,-115.81C599.13,-109.43 679.73,-96.82 702.5,-76 715.41,-64.19 720.08,-44.27 721.72,-29.58"/>
<polygon fill="midnightblue" stroke="midnightblue" points="725.21,-29.83 722.47,-19.6 718.23,-29.31 725.21,-29.83"/>
</g>
<!-- Node18&#45;&gt;Node9 -->
<g id="edge32" class="edge">
<title>Node18&#45;&gt;Node9</title>
<path fill="none" stroke="midnightblue" d="M513,-112.44C536.58,-103.48 573.82,-89.31 600.46,-79.18"/>
<polygon fill="midnightblue" stroke="midnightblue" points="602,-82.34 610.1,-75.52 599.51,-75.8 602,-82.34"/>
</g>
<!-- Node18&#45;&gt;Node16 -->
<g id="edge31" class="edge">
<title>Node18&#45;&gt;Node16</title>
<path fill="none" stroke="midnightblue" d="M483.91,-112.37C469.98,-94.14 437.37,-51.43 419.23,-27.68"/>
<polygon fill="midnightblue" stroke="midnightblue" points="421.91,-25.41 413.06,-19.59 416.35,-29.66 421.91,-25.41"/>
</g>
<!-- Node19 -->
<g id="node17" class="node">
<title>Node19</title>
<g id="a_node17"><a xlink:title=" ">
<polygon fill="none" stroke="#bfbfbf" points="502.5,-56.5 502.5,-75.5 552.5,-75.5 552.5,-56.5 502.5,-56.5"/>
<text text-anchor="middle" x="527.5" y="-63.5" font-family="Helvetica,sans-Serif" font-size="10.00">atomic</text>
</a>
</g>
</g>
<!-- Node18&#45;&gt;Node19 -->
<g id="edge26" class="edge">
<title>Node18&#45;&gt;Node19</title>
<path fill="none" stroke="midnightblue" d="M496.61,-112.08C501.78,-104.53 509.35,-93.49 515.69,-84.23"/>
<polygon fill="midnightblue" stroke="midnightblue" points="518.74,-85.98 521.5,-75.75 512.96,-82.02 518.74,-85.98"/>
</g>
<!-- Node18&#45;&gt;Node20 -->
<g id="edge30" class="edge">
<title>Node18&#45;&gt;Node20</title>
<path fill="none" stroke="midnightblue" d="M537.68,-112.49C587.22,-103.52 667.37,-88.94 736.5,-76 737.95,-75.73 739.43,-75.45 740.93,-75.17"/>
<polygon fill="midnightblue" stroke="midnightblue" points="741.72,-78.58 750.89,-73.28 740.41,-71.7 741.72,-78.58"/>
</g>
</g>
</svg>
        <g id="navigator" transform="translate(0 0)" fill="#404254">
                <rect fill="#f2f5e9" fill-opacity="0.5" stroke="#606060" stroke-width=".5" x="0" y="0" width="60" height="60"/>
                <use id="zoomplus" xlink:href="#zoomPlus" x="17" y="9" onmousedown="handleZoom(evt,'in')"/>
                <use id="zoomminus" xlink:href="#zoomMin" x="42" y="9" onmousedown="handleZoom(evt,'out')"/>
                <use id="reset" xlink:href="#resetDef" x="30" y="36" onmousedown="handleReset()"/>
                <g id="arrowUp" xlink:href="#dirArrow" transform="translate(30 24)" onmousedown="handlePan(0,-1)">
                  <use xlink:href="#rim" fill="#404040">
                        <set attributeName="fill" to="#808080" begin="arrowUp.mouseover" end="arrowUp.mouseout"/>
                  </use>
                  <path fill="none" stroke="white" stroke-width="1.5" d="M0,-3.0v7 M-2.5,-0.5L0,-3.0L2.5,-0.5"/>
                </g>
                <g id="arrowRight" xlink:href="#dirArrow" transform="rotate(90) translate(36 -43)" onmousedown="handlePan(1,0)">
                  <use xlink:href="#rim" fill="#404040">
                        <set attributeName="fill" to="#808080" begin="arrowRight.mouseover" end="arrowRight.mouseout"/>
                  </use>
                  <path fill="none" stroke="white" stroke-width="1.5" d="M0,-3.0v7 M-2.5,-0.5L0,-3.0L2.5,-0.5"/>
                </g>
                <g id="arrowDown" xlink:href="#dirArrow" transform="rotate(180) translate(-30 -48)" onmousedown="handlePan(0,1)">
                  <use xlink:href="#rim" fill="#404040">
                        <set attributeName="fill" to="#808080" begin="arrowDown.mouseover" end="arrowDown.mouseout"/>
                  </use>
                  <path fill="none" stroke="white" stroke-width="1.5" d="M0,-3.0v7 M-2.5,-0.5L0,-3.0L2.5,-0.5"/>
                </g>
                <g id="arrowLeft" xlink:href="#dirArrow" transform="rotate(270) translate(-36 17)" onmousedown="handlePan(-1,0)">
                  <use xlink:href="#rim" fill="#404040">
                        <set attributeName="fill" to="#808080" begin="arrowLeft.mouseover" end="arrowLeft.mouseout"/>
                  </use>
                  <path fill="none" stroke="white" stroke-width="1.5" d="M0,-3.0v7 M-2.5,-0.5L0,-3.0L2.5,-0.5"/>
                </g>
        </g>
        <svg viewBox="0 0 15 15" width="100%" height="30px" preserveAspectRatio="xMaxYMin meet">
         <g id="arrow_out" transform="scale(0.3 0.3)">
          <a xlink:href="serializing_8h__incl_org.svg" target="_base">
           <rect id="button" ry="5" rx="5" y="6" x="6" height="38" width="38"
                fill="#f2f5e9" fill-opacity="0.5" stroke="#606060" stroke-width="1.0"/>
           <path id="arrow"
             d="M 11.500037,31.436501 C 11.940474,20.09759 22.043105,11.32322 32.158766,21.979434 L 37.068811,17.246167 C 37.068811,17.246167 37.088388,32 37.088388,32 L 22.160133,31.978069 C 22.160133,31.978069 26.997745,27.140456 26.997745,27.140456 C 18.528582,18.264221 13.291696,25.230495 11.500037,31.436501 z"
             style="fill:#404040;"/>
          </a>
         </g>
        </svg>
</svg>
