<?xml version="1.0" encoding="UTF-8" standalone="no"?>
<!DOCTYPE svg PUBLIC "-//W3C//DTD SVG 1.1//EN"
 "http://www.w3.org/Graphics/SVG/1.1/DTD/svg11.dtd">
<!-- Generated by graphviz version 2.43.0 (0)
 -->
<!-- Title: serializing.h Pages: 1 -->
<!--zoomable 308 -->
<svg id="main" version="1.1" xmlns="http://www.w3.org/2000/svg" xmlns:xlink="http://www.w3.org/1999/xlink" xml:space="preserve" onload="init(evt)">
<style type="text/css"><![CDATA[
.edge:hover path { stroke: red; }
.edge:hover polygon { stroke: red; fill: red; }
]]></style>
<script type="text/javascript"><![CDATA[
var edges = document.getElementsByTagName('g');
if (edges && edges.length) {
  for (var i=0;i<edges.length;i++) {
    if (edges[i].id.substr(0,4)=='edge') {
      edges[i].setAttribute('class','edge');
    }
  }
}
]]></script>
        <defs>
                <circle id="rim" cx="0" cy="0" r="7"/>
                <circle id="rim2" cx="0" cy="0" r="3.5"/>
                <g id="zoomPlus">
                        <use xlink:href="#rim" fill="#404040">
                                <set attributeName="fill" to="#808080" begin="zoomplus.mouseover" end="zoomplus.mouseout"/>
                        </use>
                        <path d="M-4,0h8M0,-4v8" fill="none" stroke="white" stroke-width="1.5" pointer-events="none"/>
                </g>
                <g id="zoomMin">
                        <use xlink:href="#rim" fill="#404040">
                                <set attributeName="fill" to="#808080" begin="zoomminus.mouseover" end="zoomminus.mouseout"/>
                        </use>
                        <path d="M-4,0h8" fill="none" stroke="white" stroke-width="1.5" pointer-events="none"/>
                </g>
                <g id="dirArrow">
                        <path fill="none" stroke="white" stroke-width="1.5" d="M0,-3.0v7 M-2.5,-0.5L0,-3.0L2.5,-0.5"/>
                </g>
               <g id="resetDef">
                       <use xlink:href="#rim2" fill="#404040">
                               <set attributeName="fill" to="#808080" begin="reset.mouseover" end="reset.mouseout"/>
                       </use>
               </g>
        </defs>

<script type="text/javascript">
var viewWidth = 1002;
var viewHeight = 308;
var sectionId = 'dynsection-0';
</script>
<script xlink:href="../../svgpan.js"/>
<svg id="graph" class="graph">
<g id="viewport">
<title>serializing.h</title>
<!-- Node1 -->
<g id="node1" class="node">
<title>Node1</title>
<g id="a_node1"><a xlink:title=" ">
<polygon fill="#bfbfbf" stroke="black" points="700.5,-280.5 700.5,-299.5 776.5,-299.5 776.5,-280.5 700.5,-280.5"/>
<text text-anchor="middle" x="738.5" y="-287.5" font-family="Helvetica,sans-Serif" font-size="10.00">serializing.h</text>
</a>
</g>
</g>
<!-- Node2 -->
<g id="node2" class="node">
<title>Node2</title>
<g id="a_node2"><a xlink:href="../../da/d0b/limes__namespace_8h.html" target="_top" xlink:title=" ">
<polygon fill="none" stroke="black" points="141.5,-56.5 141.5,-75.5 255.5,-75.5 255.5,-56.5 141.5,-56.5"/>
<text text-anchor="middle" x="198.5" y="-63.5" font-family="Helvetica,sans-Serif" font-size="10.00">limes_namespace.h</text>
</a>
</g>
</g>
<!-- Node1&#45;&gt;Node2 -->
<g id="edge1" class="edge">
<title>Node1&#45;&gt;Node2</title>
<path fill="none" stroke="midnightblue" d="M700.16,-285.54C647.07,-280.09 548.54,-267.62 467.5,-244 345.53,-208.45 279.36,-234.65 204.5,-132 194.8,-118.71 194.18,-99.58 195.45,-85.52"/>
<polygon fill="midnightblue" stroke="midnightblue" points="198.93,-85.9 196.74,-75.53 191.99,-85 198.93,-85.9"/>
</g>
<!-- Node3 -->
<g id="node3" class="node">
<title>Node3</title>
<g id="a_node3"><a xlink:title=" ">
<polygon fill="none" stroke="#bfbfbf" points="634,-56.5 634,-75.5 723,-75.5 723,-56.5 634,-56.5"/>
<text text-anchor="middle" x="678.5" y="-63.5" font-family="Helvetica,sans-Serif" font-size="10.00">limes_export.h</text>
</a>
</g>
</g>
<!-- Node1&#45;&gt;Node3 -->
<g id="edge2" class="edge">
<title>Node1&#45;&gt;Node3</title>
<path fill="none" stroke="midnightblue" d="M744.34,-280.28C757.1,-260.08 785.13,-208.69 769.5,-168 755.38,-131.24 721.01,-99.49 698.78,-81.84"/>
<polygon fill="midnightblue" stroke="midnightblue" points="700.71,-78.9 690.65,-75.58 696.44,-84.45 700.71,-78.9"/>
</g>
<!-- Node4 -->
<g id="node4" class="node">
<title>Node4</title>
<g id="a_node4"><a xlink:title=" ">
<polygon fill="none" stroke="#bfbfbf" points="856,-224.5 856,-243.5 929,-243.5 929,-224.5 856,-224.5"/>
<text text-anchor="middle" x="892.5" y="-231.5" font-family="Helvetica,sans-Serif" font-size="10.00">string_view</text>
</a>
</g>
</g>
<!-- Node1&#45;&gt;Node4 -->
<g id="edge3" class="edge">
<title>Node1&#45;&gt;Node4</title>
<path fill="none" stroke="midnightblue" d="M762.9,-280.44C788.7,-271.4 829.58,-257.06 858.52,-246.92"/>
<polygon fill="midnightblue" stroke="midnightblue" points="859.93,-250.13 868.21,-243.52 857.62,-243.52 859.93,-250.13"/>
</g>
<!-- Node5 -->
<g id="node5" class="node">
<title>Node5</title>
<g id="a_node5"><a xlink:title=" ">
<polygon fill="none" stroke="#bfbfbf" points="773.5,-56.5 773.5,-75.5 817.5,-75.5 817.5,-56.5 773.5,-56.5"/>
<text text-anchor="middle" x="795.5" y="-63.5" font-family="Helvetica,sans-Serif" font-size="10.00">string</text>
</a>
</g>
</g>
<!-- Node1&#45;&gt;Node5 -->
<g id="edge4" class="edge">
<title>Node1&#45;&gt;Node5</title>
<path fill="none" stroke="midnightblue" d="M760.31,-280.45C775.44,-273.22 794.45,-261.26 803.5,-244 830.69,-192.1 812.99,-119.45 802.15,-85.65"/>
<polygon fill="midnightblue" stroke="midnightblue" points="805.33,-84.12 798.81,-75.77 798.69,-86.36 805.33,-84.12"/>
</g>
<!-- Node6 -->
<g id="node6" class="node">
<title>Node6</title>
<g id="a_node6"><a xlink:title=" ">
<polygon fill="none" stroke="#bfbfbf" points="947,-224.5 947,-243.5 994,-243.5 994,-224.5 947,-224.5"/>
<text text-anchor="middle" x="970.5" y="-231.5" font-family="Helvetica,sans-Serif" font-size="10.00">vector</text>
</a>
</g>
</g>
<!-- Node1&#45;&gt;Node6 -->
<g id="edge5" class="edge">
<title>Node1&#45;&gt;Node6</title>
<path fill="none" stroke="midnightblue" d="M776.61,-281.05C814.91,-272.93 875.85,-259.62 936.96,-244.3"/>
<polygon fill="midnightblue" stroke="midnightblue" points="937.93,-247.67 946.77,-241.82 936.22,-240.88 937.93,-247.67"/>
</g>
<!-- Node7 -->
<g id="node7" class="node">
<title>Node7</title>
<g id="a_node7"><a xlink:title=" ">
<polygon fill="none" stroke="#bfbfbf" points="716,-168.5 716,-187.5 761,-187.5 761,-168.5 716,-168.5"/>
<text text-anchor="middle" x="738.5" y="-175.5" font-family="Helvetica,sans-Serif" font-size="10.00">utility</text>
</a>
</g>
</g>
<!-- Node1&#45;&gt;Node7 -->
<g id="edge6" class="edge">
<title>Node1&#45;&gt;Node7</title>
<path fill="none" stroke="midnightblue" d="M738.5,-280.37C738.5,-262.62 738.5,-221.67 738.5,-197.6"/>
<polygon fill="midnightblue" stroke="midnightblue" points="742,-197.59 738.5,-187.59 735,-197.59 742,-197.59"/>
</g>
<!-- Node8 -->
<g id="node8" class="node">
<title>Node8</title>
<g id="a_node8"><a xlink:title=" ">
<polygon fill="none" stroke="#bfbfbf" points="425,-56.5 425,-75.5 494,-75.5 494,-56.5 425,-56.5"/>
<text text-anchor="middle" x="459.5" y="-63.5" font-family="Helvetica,sans-Serif" font-size="10.00">type_traits</text>
</a>
</g>
</g>
<!-- Node1&#45;&gt;Node8 -->
<g id="edge7" class="edge">
<title>Node1&#45;&gt;Node8</title>
<path fill="none" stroke="midnightblue" d="M700.12,-284.18C657.8,-278.07 588.2,-265.63 531.5,-244 484.27,-225.98 458.36,-231.44 432.5,-188 415.22,-158.97 422.22,-144.48 431.5,-112 434.4,-101.84 440.33,-91.75 445.99,-83.7"/>
<polygon fill="midnightblue" stroke="midnightblue" points="448.88,-85.69 452.09,-75.59 443.28,-81.48 448.88,-85.69"/>
</g>
<!-- Node9 -->
<g id="node9" class="node">
<title>Node9</title>
<g id="a_node9"><a xlink:href="../../d3/d53/preprocessor_8h.html" target="_top" xlink:title=" ">
<polygon fill="none" stroke="black" points="0,-56.5 0,-75.5 123,-75.5 123,-56.5 0,-56.5"/>
<text text-anchor="middle" x="61.5" y="-63.5" font-family="Helvetica,sans-Serif" font-size="10.00">../misc/preprocessor.h</text>
</a>
</g>
</g>
<!-- Node1&#45;&gt;Node9 -->
<g id="edge8" class="edge">
<title>Node1&#45;&gt;Node9</title>
<path fill="none" stroke="midnightblue" d="M700.26,-287.67C632.7,-284.58 488.22,-274.67 370.5,-244 306.85,-227.42 291.21,-219.57 233.5,-188 174.03,-155.47 110.35,-106.48 79.85,-82.01"/>
<polygon fill="midnightblue" stroke="midnightblue" points="81.8,-79.09 71.82,-75.52 77.4,-84.53 81.8,-79.09"/>
</g>
<!-- Node11 -->
<g id="node11" class="node">
<title>Node11</title>
<g id="a_node11"><a xlink:href="../../d4/d83/_type_list_8h.html" target="_top" xlink:title=" ">
<polygon fill="none" stroke="black" points="541,-224.5 541,-243.5 644,-243.5 644,-224.5 541,-224.5"/>
<text text-anchor="middle" x="592.5" y="-231.5" font-family="Helvetica,sans-Serif" font-size="10.00">../meta/TypeList.h</text>
</a>
</g>
</g>
<!-- Node1&#45;&gt;Node11 -->
<g id="edge10" class="edge">
<title>Node1&#45;&gt;Node11</title>
<path fill="none" stroke="midnightblue" d="M715.37,-280.44C691.02,-271.44 652.49,-257.19 625.08,-247.05"/>
<polygon fill="midnightblue" stroke="midnightblue" points="626.12,-243.7 615.53,-243.52 623.69,-250.27 626.12,-243.7"/>
</g>
<!-- Node10 -->
<g id="node10" class="node">
<title>Node10</title>
<g id="a_node10"><a xlink:title=" ">
<polygon fill="none" stroke="#bfbfbf" points="283.5,-0.5 283.5,-19.5 383.5,-19.5 383.5,-0.5 283.5,-0.5"/>
<text text-anchor="middle" x="333.5" y="-7.5" font-family="Helvetica,sans-Serif" font-size="10.00">limes_platform.h</text>
</a>
</g>
</g>
<!-- Node9&#45;&gt;Node10 -->
<g id="edge9" class="edge">
<title>Node9&#45;&gt;Node10</title>
<path fill="none" stroke="midnightblue" d="M104.6,-56.44C152.35,-46.96 229.36,-31.67 280.69,-21.48"/>
<polygon fill="midnightblue" stroke="midnightblue" points="281.48,-24.9 290.6,-19.52 280.11,-18.03 281.48,-24.9"/>
</g>
<!-- Node11&#45;&gt;Node2 -->
<g id="edge11" class="edge">
<title>Node11&#45;&gt;Node2</title>
<path fill="none" stroke="midnightblue" d="M540.79,-225.66C449.18,-211.6 263.82,-178.15 219.5,-132 207.57,-119.58 202.42,-100.34 200.19,-86.01"/>
<polygon fill="midnightblue" stroke="midnightblue" points="203.63,-85.31 198.96,-75.8 196.68,-86.14 203.63,-85.31"/>
</g>
<!-- Node11&#45;&gt;Node3 -->
<g id="edge12" class="edge">
<title>Node11&#45;&gt;Node3</title>
<path fill="none" stroke="midnightblue" d="M605.83,-224.42C617.61,-216.27 634.57,-203.04 645.5,-188 668.14,-156.84 675.25,-110.96 677.48,-85.59"/>
<polygon fill="midnightblue" stroke="midnightblue" points="680.98,-85.72 678.2,-75.5 674,-85.23 680.98,-85.72"/>
</g>
<!-- Node11&#45;&gt;Node7 -->
<g id="edge35" class="edge">
<title>Node11&#45;&gt;Node7</title>
<path fill="none" stroke="midnightblue" d="M615.63,-224.44C640.13,-215.39 678.96,-201.02 706.41,-190.87"/>
<polygon fill="midnightblue" stroke="midnightblue" points="707.79,-194.09 715.95,-187.34 705.36,-187.53 707.79,-194.09"/>
</g>
<!-- Node11&#45;&gt;Node8 -->
<g id="edge34" class="edge">
<title>Node11&#45;&gt;Node8</title>
<path fill="none" stroke="midnightblue" d="M540.86,-232.07C507.55,-228.45 466.49,-217.67 444.5,-188 421.9,-157.51 438.32,-110.37 450.18,-84.87"/>
<polygon fill="midnightblue" stroke="midnightblue" points="453.44,-86.17 454.71,-75.65 447.16,-83.08 453.44,-86.17"/>
</g>
<!-- Node12 -->
<g id="node12" class="node">
<title>Node12</title>
<g id="a_node12"><a xlink:href="../../d7/dfe/_type_list__impl_8h.html" target="_top" xlink:title=" ">
<polygon fill="none" stroke="black" points="453.5,-168.5 453.5,-187.5 545.5,-187.5 545.5,-168.5 453.5,-168.5"/>
<text text-anchor="middle" x="499.5" y="-175.5" font-family="Helvetica,sans-Serif" font-size="10.00">TypeList_impl.h</text>
</a>
</g>
</g>
<!-- Node11&#45;&gt;Node12 -->
<g id="edge13" class="edge">
<title>Node11&#45;&gt;Node12</title>
<path fill="none" stroke="midnightblue" d="M577.56,-224.32C562.91,-215.82 540.37,-202.73 523.26,-192.8"/>
<polygon fill="midnightblue" stroke="midnightblue" points="524.81,-189.65 514.4,-187.65 521.3,-195.7 524.81,-189.65"/>
</g>
<!-- Node14 -->
<g id="node14" class="node">
<title>Node14</title>
<g id="a_node14"><a xlink:href="../../d4/dd5/_type_traits_8h.html" target="_top" xlink:title=" ">
<polygon fill="none" stroke="red" points="563.5,-112.5 563.5,-131.5 637.5,-131.5 637.5,-112.5 563.5,-112.5"/>
<text text-anchor="middle" x="600.5" y="-119.5" font-family="Helvetica,sans-Serif" font-size="10.00">TypeTraits.h</text>
</a>
</g>
</g>
<!-- Node11&#45;&gt;Node14 -->
<g id="edge33" class="edge">
<title>Node11&#45;&gt;Node14</title>
<path fill="none" stroke="midnightblue" d="M603.21,-224.3C612.44,-216.07 625.09,-202.79 630.5,-188 636.73,-170.96 626.1,-152.21 615.81,-139.25"/>
<polygon fill="midnightblue" stroke="midnightblue" points="618.44,-136.95 609.27,-131.64 613.13,-141.51 618.44,-136.95"/>
</g>
<!-- Node18 -->
<g id="node16" class="node">
<title>Node18</title>
<g id="a_node16"><a xlink:href="../../d6/d9b/_functions_8h.html" target="_top" xlink:title=" ">
<polygon fill="none" stroke="black" points="252,-112.5 252,-131.5 359,-131.5 359,-112.5 252,-112.5"/>
<text text-anchor="middle" x="305.5" y="-119.5" font-family="Helvetica,sans-Serif" font-size="10.00">../misc/Functions.h</text>
</a>
</g>
</g>
<!-- Node11&#45;&gt;Node18 -->
<g id="edge25" class="edge">
<title>Node11&#45;&gt;Node18</title>
<path fill="none" stroke="midnightblue" d="M540.84,-224.52C503.88,-217.42 453.46,-205.59 411.5,-188 379.42,-174.55 345.72,-152.28 325.16,-137.62"/>
<polygon fill="midnightblue" stroke="midnightblue" points="327.09,-134.7 316.94,-131.66 322.98,-140.37 327.09,-134.7"/>
</g>
<!-- Node21 -->
<g id="node19" class="node">
<title>Node21</title>
<g id="a_node19"><a xlink:title=" ">
<polygon fill="none" stroke="#bfbfbf" points="563.5,-168.5 563.5,-187.5 621.5,-187.5 621.5,-168.5 563.5,-168.5"/>
<text text-anchor="middle" x="592.5" y="-175.5" font-family="Helvetica,sans-Serif" font-size="10.00">memory</text>
</a>
</g>
</g>
<!-- Node11&#45;&gt;Node21 -->
<g id="edge36" class="edge">
<title>Node11&#45;&gt;Node21</title>
<path fill="none" stroke="midnightblue" d="M592.5,-224.08C592.5,-217.01 592.5,-206.86 592.5,-197.99"/>
<polygon fill="midnightblue" stroke="midnightblue" points="596,-197.75 592.5,-187.75 589,-197.75 596,-197.75"/>
</g>
<!-- Node12&#45;&gt;Node2 -->
<g id="edge15" class="edge">
<title>Node12&#45;&gt;Node2</title>
<path fill="none" stroke="midnightblue" d="M453.24,-173.24C388.93,-167.29 276.58,-154.06 242.5,-132 225.21,-120.81 213,-100.18 205.9,-85.15"/>
<polygon fill="midnightblue" stroke="midnightblue" points="209.03,-83.58 201.8,-75.83 202.62,-86.4 209.03,-83.58"/>
</g>
<!-- Node12&#45;&gt;Node3 -->
<g id="edge14" class="edge">
<title>Node12&#45;&gt;Node3</title>
<path fill="none" stroke="midnightblue" d="M539.86,-168.44C577.55,-159.78 630.34,-145.75 646.5,-132 660.7,-119.92 669.18,-100.04 673.81,-85.44"/>
<polygon fill="midnightblue" stroke="midnightblue" points="677.26,-86.1 676.63,-75.52 670.53,-84.18 677.26,-86.1"/>
</g>
<!-- Node12&#45;&gt;Node8 -->
<g id="edge16" class="edge">
<title>Node12&#45;&gt;Node8</title>
<path fill="none" stroke="midnightblue" d="M496.19,-168.39C492.72,-159.35 487.15,-144.71 482.5,-132 476.78,-116.37 470.49,-98.54 465.93,-85.51"/>
<polygon fill="midnightblue" stroke="midnightblue" points="469.16,-84.14 462.57,-75.85 462.55,-86.45 469.16,-84.14"/>
</g>
<!-- Node13 -->
<g id="node13" class="node">
<title>Node13</title>
<g id="a_node13"><a xlink:title=" ">
<polygon fill="none" stroke="#bfbfbf" points="492,-112.5 492,-131.5 545,-131.5 545,-112.5 492,-112.5"/>
<text text-anchor="middle" x="518.5" y="-119.5" font-family="Helvetica,sans-Serif" font-size="10.00">cstddef</text>
</a>
</g>
</g>
<!-- Node12&#45;&gt;Node13 -->
<g id="edge17" class="edge">
<title>Node12&#45;&gt;Node13</title>
<path fill="none" stroke="midnightblue" d="M502.64,-168.08C505.18,-160.85 508.86,-150.41 512.03,-141.4"/>
<polygon fill="midnightblue" stroke="midnightblue" points="515.4,-142.35 515.42,-131.75 508.8,-140.02 515.4,-142.35"/>
</g>
<!-- Node12&#45;&gt;Node14 -->
<g id="edge18" class="edge">
<title>Node12&#45;&gt;Node14</title>
<path fill="none" stroke="midnightblue" d="M515.73,-168.32C531.85,-159.7 556.8,-146.36 575.46,-136.39"/>
<polygon fill="midnightblue" stroke="midnightblue" points="577.14,-139.46 584.31,-131.65 573.84,-133.28 577.14,-139.46"/>
</g>
<!-- Node14&#45;&gt;Node2 -->
<g id="edge23" class="edge">
<title>Node14&#45;&gt;Node2</title>
<path fill="none" stroke="midnightblue" d="M563.34,-113.65C560.02,-113.07 556.7,-112.51 553.5,-112 428.89,-92.33 394.58,-92.71 265.98,-76.17"/>
<polygon fill="midnightblue" stroke="midnightblue" points="266.1,-72.66 255.73,-74.85 265.2,-79.6 266.1,-72.66"/>
</g>
<!-- Node14&#45;&gt;Node3 -->
<g id="edge21" class="edge">
<title>Node14&#45;&gt;Node3</title>
<path fill="none" stroke="midnightblue" d="M613.03,-112.32C625.09,-103.98 643.53,-91.21 657.77,-81.35"/>
<polygon fill="midnightblue" stroke="midnightblue" points="659.77,-84.22 666,-75.65 655.78,-78.47 659.77,-84.22"/>
</g>
<!-- Node14&#45;&gt;Node5 -->
<g id="edge20" class="edge">
<title>Node14&#45;&gt;Node5</title>
<path fill="none" stroke="midnightblue" d="M631.4,-112.44C667.52,-102.44 727.01,-85.97 763.57,-75.84"/>
<polygon fill="midnightblue" stroke="midnightblue" points="764.53,-79.21 773.24,-73.16 762.67,-72.46 764.53,-79.21"/>
</g>
<!-- Node14&#45;&gt;Node8 -->
<g id="edge19" class="edge">
<title>Node14&#45;&gt;Node8</title>
<path fill="none" stroke="midnightblue" d="M578.16,-112.44C554.75,-103.48 517.76,-89.31 491.31,-79.18"/>
<polygon fill="midnightblue" stroke="midnightblue" points="492.33,-75.82 481.74,-75.52 489.82,-82.36 492.33,-75.82"/>
</g>
<!-- Node14&#45;&gt;Node10 -->
<g id="edge22" class="edge">
<title>Node14&#45;&gt;Node10</title>
<path fill="none" stroke="midnightblue" d="M601.25,-112.41C601.95,-98.43 601.11,-70.85 585.5,-56 558.6,-30.42 459.49,-19.06 393.87,-14.26"/>
<polygon fill="midnightblue" stroke="midnightblue" points="393.87,-10.75 383.65,-13.54 393.38,-17.73 393.87,-10.75"/>
</g>
<!-- Node16 -->
<g id="node15" class="node">
<title>Node16</title>
<g id="a_node15"><a xlink:title=" ">
<polygon fill="none" stroke="#bfbfbf" points="512,-56.5 512,-75.5 577,-75.5 577,-56.5 512,-56.5"/>
<text text-anchor="middle" x="544.5" y="-63.5" font-family="Helvetica,sans-Serif" font-size="10.00">exception</text>
</a>
</g>
</g>
<!-- Node14&#45;&gt;Node16 -->
<g id="edge24" class="edge">
<title>Node14&#45;&gt;Node16</title>
<path fill="none" stroke="midnightblue" d="M591.5,-112.32C583.31,-104.42 570.99,-92.55 561.03,-82.94"/>
<polygon fill="midnightblue" stroke="midnightblue" points="563.29,-80.26 553.66,-75.83 558.43,-85.29 563.29,-80.26"/>
</g>
<!-- Node18&#45;&gt;Node2 -->
<g id="edge29" class="edge">
<title>Node18&#45;&gt;Node2</title>
<path fill="none" stroke="midnightblue" d="M288.31,-112.32C271.15,-103.66 244.55,-90.24 224.75,-80.25"/>
<polygon fill="midnightblue" stroke="midnightblue" points="226.15,-77.04 215.65,-75.65 223,-83.28 226.15,-77.04"/>
</g>
<!-- Node18&#45;&gt;Node3 -->
<g id="edge28" class="edge">
<title>Node18&#45;&gt;Node3</title>
<path fill="none" stroke="midnightblue" d="M359.34,-113.21C429.81,-103 552.69,-85.21 623.66,-74.94"/>
<polygon fill="midnightblue" stroke="midnightblue" points="624.34,-78.38 633.74,-73.48 623.34,-71.45 624.34,-78.38"/>
</g>
<!-- Node18&#45;&gt;Node8 -->
<g id="edge27" class="edge">
<title>Node18&#45;&gt;Node8</title>
<path fill="none" stroke="midnightblue" d="M329.9,-112.44C355.7,-103.4 396.58,-89.06 425.52,-78.92"/>
<polygon fill="midnightblue" stroke="midnightblue" points="426.93,-82.13 435.21,-75.52 424.62,-75.52 426.93,-82.13"/>
</g>
<!-- Node18&#45;&gt;Node9 -->
<g id="edge32" class="edge">
<title>Node18&#45;&gt;Node9</title>
<path fill="none" stroke="midnightblue" d="M266.84,-112.44C224.36,-103.04 156.07,-87.93 110.03,-77.74"/>
<polygon fill="midnightblue" stroke="midnightblue" points="110.5,-74.26 99.98,-75.52 108.99,-81.09 110.5,-74.26"/>
</g>
<!-- Node18&#45;&gt;Node16 -->
<g id="edge31" class="edge">
<title>Node18&#45;&gt;Node16</title>
<path fill="none" stroke="midnightblue" d="M343.37,-112.44C386.57,-102.68 457.02,-86.77 502.04,-76.59"/>
<polygon fill="midnightblue" stroke="midnightblue" points="502.82,-80.01 511.8,-74.39 501.27,-73.18 502.82,-80.01"/>
</g>
<!-- Node19 -->
<g id="node17" class="node">
<title>Node19</title>
<g id="a_node17"><a xlink:title=" ">
<polygon fill="none" stroke="#bfbfbf" points="273.5,-56.5 273.5,-75.5 323.5,-75.5 323.5,-56.5 273.5,-56.5"/>
<text text-anchor="middle" x="298.5" y="-63.5" font-family="Helvetica,sans-Serif" font-size="10.00">atomic</text>
</a>
</g>
</g>
<!-- Node18&#45;&gt;Node19 -->
<g id="edge26" class="edge">
<title>Node18&#45;&gt;Node19</title>
<path fill="none" stroke="midnightblue" d="M304.34,-112.08C303.42,-104.93 302.08,-94.64 300.92,-85.69"/>
<polygon fill="midnightblue" stroke="midnightblue" points="304.39,-85.22 299.63,-75.75 297.45,-86.12 304.39,-85.22"/>
</g>
<!-- Node20 -->
<g id="node18" class="node">
<title>Node20</title>
<g id="a_node18"><a xlink:title=" ">
<polygon fill="none" stroke="#bfbfbf" points="342,-56.5 342,-75.5 407,-75.5 407,-56.5 342,-56.5"/>
<text text-anchor="middle" x="374.5" y="-63.5" font-family="Helvetica,sans-Serif" font-size="10.00">functional</text>
</a>
</g>
</g>
<!-- Node18&#45;&gt;Node20 -->
<g id="edge30" class="edge">
<title>Node18&#45;&gt;Node20</title>
<path fill="none" stroke="midnightblue" d="M316.59,-112.32C326.99,-104.18 342.76,-91.84 355.22,-82.09"/>
<polygon fill="midnightblue" stroke="midnightblue" points="357.49,-84.75 363.21,-75.83 353.18,-79.24 357.49,-84.75"/>
</g>
</g>
</svg>
        <g id="navigator" transform="translate(0 0)" fill="#404254">
                <rect fill="#f2f5e9" fill-opacity="0.5" stroke="#606060" stroke-width=".5" x="0" y="0" width="60" height="60"/>
                <use id="zoomplus" xlink:href="#zoomPlus" x="17" y="9" onmousedown="handleZoom(evt,'in')"/>
                <use id="zoomminus" xlink:href="#zoomMin" x="42" y="9" onmousedown="handleZoom(evt,'out')"/>
                <use id="reset" xlink:href="#resetDef" x="30" y="36" onmousedown="handleReset()"/>
                <g id="arrowUp" xlink:href="#dirArrow" transform="translate(30 24)" onmousedown="handlePan(0,-1)">
                  <use xlink:href="#rim" fill="#404040">
                        <set attributeName="fill" to="#808080" begin="arrowUp.mouseover" end="arrowUp.mouseout"/>
                  </use>
                  <path fill="none" stroke="white" stroke-width="1.5" d="M0,-3.0v7 M-2.5,-0.5L0,-3.0L2.5,-0.5"/>
                </g>
                <g id="arrowRight" xlink:href="#dirArrow" transform="rotate(90) translate(36 -43)" onmousedown="handlePan(1,0)">
                  <use xlink:href="#rim" fill="#404040">
                        <set attributeName="fill" to="#808080" begin="arrowRight.mouseover" end="arrowRight.mouseout"/>
                  </use>
                  <path fill="none" stroke="white" stroke-width="1.5" d="M0,-3.0v7 M-2.5,-0.5L0,-3.0L2.5,-0.5"/>
                </g>
                <g id="arrowDown" xlink:href="#dirArrow" transform="rotate(180) translate(-30 -48)" onmousedown="handlePan(0,1)">
                  <use xlink:href="#rim" fill="#404040">
                        <set attributeName="fill" to="#808080" begin="arrowDown.mouseover" end="arrowDown.mouseout"/>
                  </use>
                  <path fill="none" stroke="white" stroke-width="1.5" d="M0,-3.0v7 M-2.5,-0.5L0,-3.0L2.5,-0.5"/>
                </g>
                <g id="arrowLeft" xlink:href="#dirArrow" transform="rotate(270) translate(-36 17)" onmousedown="handlePan(-1,0)">
                  <use xlink:href="#rim" fill="#404040">
                        <set attributeName="fill" to="#808080" begin="arrowLeft.mouseover" end="arrowLeft.mouseout"/>
                  </use>
                  <path fill="none" stroke="white" stroke-width="1.5" d="M0,-3.0v7 M-2.5,-0.5L0,-3.0L2.5,-0.5"/>
                </g>
        </g>
        <svg viewBox="0 0 15 15" width="100%" height="30px" preserveAspectRatio="xMaxYMin meet">
         <g id="arrow_out" transform="scale(0.3 0.3)">
          <a xlink:href="serializing_8h__incl_org.svg" target="_base">
           <rect id="button" ry="5" rx="5" y="6" x="6" height="38" width="38"
                fill="#f2f5e9" fill-opacity="0.5" stroke="#606060" stroke-width="1.0"/>
           <path id="arrow"
             d="M 11.500037,31.436501 C 11.940474,20.09759 22.043105,11.32322 32.158766,21.979434 L 37.068811,17.246167 C 37.068811,17.246167 37.088388,32 37.088388,32 L 22.160133,31.978069 C 22.160133,31.978069 26.997745,27.140456 26.997745,27.140456 C 18.528582,18.264221 13.291696,25.230495 11.500037,31.436501 z"
             style="fill:#404040;"/>
          </a>
         </g>
        </svg>
</svg>
