<?xml version="1.0" encoding="UTF-8" standalone="no"?>
<!DOCTYPE svg PUBLIC "-//W3C//DTD SVG 1.1//EN"
 "http://www.w3.org/Graphics/SVG/1.1/DTD/svg11.dtd">
<!-- Generated by graphviz version 2.43.0 (0)
 -->
<!-- Title: serializing.h Pages: 1 -->
<svg width="653pt" height="140pt"
 viewBox="0.00 0.00 652.50 140.00" xmlns="http://www.w3.org/2000/svg" xmlns:xlink="http://www.w3.org/1999/xlink">
<g id="graph0" class="graph" transform="scale(1 1) rotate(0) translate(4 136)">
<title>serializing.h</title>
<!-- Node1 -->
<g id="node1" class="node">
<title>Node1</title>
<g id="a_node1"><a xlink:title=" ">
<polygon fill="#bfbfbf" stroke="black" points="315,-112.5 315,-131.5 391,-131.5 391,-112.5 315,-112.5"/>
<text text-anchor="middle" x="353" y="-119.5" font-family="Helvetica,sans-Serif" font-size="10.00">serializing.h</text>
</a>
</g>
</g>
<!-- Node2 -->
<g id="node2" class="node">
<title>Node2</title>
<g id="a_node2"><a xlink:href="../../da/d0b/limes__namespace_8h.html" target="_top" xlink:title=" ">
<polygon fill="none" stroke="black" points="0,-56.5 0,-75.5 114,-75.5 114,-56.5 0,-56.5"/>
<text text-anchor="middle" x="57" y="-63.5" font-family="Helvetica,sans-Serif" font-size="10.00">limes_namespace.h</text>
</a>
</g>
</g>
<!-- Node1&#45;&gt;Node2 -->
<g id="edge1" class="edge">
<title>Node1&#45;&gt;Node2</title>
<path fill="none" stroke="midnightblue" d="M314.91,-114.05C263.84,-104.73 172.77,-88.12 113.64,-77.33"/>
<polygon fill="midnightblue" stroke="midnightblue" points="114.18,-73.87 103.72,-75.52 112.93,-80.76 114.18,-73.87"/>
</g>
<!-- Node3 -->
<g id="node3" class="node">
<title>Node3</title>
<g id="a_node3"><a xlink:title=" ">
<polygon fill="none" stroke="#bfbfbf" points="132.5,-56.5 132.5,-75.5 221.5,-75.5 221.5,-56.5 132.5,-56.5"/>
<text text-anchor="middle" x="177" y="-63.5" font-family="Helvetica,sans-Serif" font-size="10.00">limes_export.h</text>
</a>
</g>
</g>
<!-- Node1&#45;&gt;Node3 -->
<g id="edge2" class="edge">
<title>Node1&#45;&gt;Node3</title>
<path fill="none" stroke="midnightblue" d="M325.11,-112.44C295.25,-103.28 247.69,-88.69 214.54,-78.52"/>
<polygon fill="midnightblue" stroke="midnightblue" points="215.34,-75.1 204.76,-75.52 213.29,-81.8 215.34,-75.1"/>
</g>
<!-- Node4 -->
<g id="node4" class="node">
<title>Node4</title>
<g id="a_node4"><a xlink:title=" ">
<polygon fill="none" stroke="#bfbfbf" points="239.5,-56.5 239.5,-75.5 312.5,-75.5 312.5,-56.5 239.5,-56.5"/>
<text text-anchor="middle" x="276" y="-63.5" font-family="Helvetica,sans-Serif" font-size="10.00">string_view</text>
</a>
</g>
</g>
<!-- Node1&#45;&gt;Node4 -->
<g id="edge3" class="edge">
<title>Node1&#45;&gt;Node4</title>
<path fill="none" stroke="midnightblue" d="M340.63,-112.32C328.84,-104.06 310.87,-91.45 296.86,-81.63"/>
<polygon fill="midnightblue" stroke="midnightblue" points="298.54,-78.53 288.34,-75.65 294.52,-84.26 298.54,-78.53"/>
</g>
<!-- Node5 -->
<g id="node5" class="node">
<title>Node5</title>
<g id="a_node5"><a xlink:title=" ">
<polygon fill="none" stroke="#bfbfbf" points="331,-56.5 331,-75.5 375,-75.5 375,-56.5 331,-56.5"/>
<text text-anchor="middle" x="353" y="-63.5" font-family="Helvetica,sans-Serif" font-size="10.00">string</text>
</a>
</g>
</g>
<!-- Node1&#45;&gt;Node5 -->
<g id="edge4" class="edge">
<title>Node1&#45;&gt;Node5</title>
<path fill="none" stroke="midnightblue" d="M353,-112.08C353,-105.01 353,-94.86 353,-85.99"/>
<polygon fill="midnightblue" stroke="midnightblue" points="356.5,-85.75 353,-75.75 349.5,-85.75 356.5,-85.75"/>
</g>
<!-- Node6 -->
<g id="node6" class="node">
<title>Node6</title>
<g id="a_node6"><a xlink:title=" ">
<polygon fill="none" stroke="#bfbfbf" points="393.5,-56.5 393.5,-75.5 440.5,-75.5 440.5,-56.5 393.5,-56.5"/>
<text text-anchor="middle" x="417" y="-63.5" font-family="Helvetica,sans-Serif" font-size="10.00">vector</text>
</a>
</g>
</g>
<!-- Node1&#45;&gt;Node6 -->
<g id="edge5" class="edge">
<title>Node1&#45;&gt;Node6</title>
<path fill="none" stroke="midnightblue" d="M363.28,-112.32C372.84,-104.26 387.28,-92.08 398.78,-82.37"/>
<polygon fill="midnightblue" stroke="midnightblue" points="401.14,-84.96 406.53,-75.83 396.63,-79.61 401.14,-84.96"/>
</g>
<!-- Node7 -->
<g id="node7" class="node">
<title>Node7</title>
<g id="a_node7"><a xlink:title=" ">
<polygon fill="none" stroke="#bfbfbf" points="458.5,-56.5 458.5,-75.5 503.5,-75.5 503.5,-56.5 458.5,-56.5"/>
<text text-anchor="middle" x="481" y="-63.5" font-family="Helvetica,sans-Serif" font-size="10.00">utility</text>
</a>
</g>
</g>
<!-- Node1&#45;&gt;Node7 -->
<g id="edge6" class="edge">
<title>Node1&#45;&gt;Node7</title>
<path fill="none" stroke="midnightblue" d="M373.28,-112.44C394.35,-103.56 427.52,-89.56 451.49,-79.45"/>
<polygon fill="midnightblue" stroke="midnightblue" points="452.96,-82.63 460.81,-75.52 450.24,-76.18 452.96,-82.63"/>
</g>
<!-- Node8 -->
<g id="node8" class="node">
<title>Node8</title>
<g id="a_node8"><a xlink:href="../../d3/d53/preprocessor_8h.html" target="_top" xlink:title=" ">
<polygon fill="none" stroke="black" points="521.5,-56.5 521.5,-75.5 644.5,-75.5 644.5,-56.5 521.5,-56.5"/>
<text text-anchor="middle" x="583" y="-63.5" font-family="Helvetica,sans-Serif" font-size="10.00">../misc/preprocessor.h</text>
</a>
</g>
</g>
<!-- Node1&#45;&gt;Node8 -->
<g id="edge7" class="edge">
<title>Node1&#45;&gt;Node8</title>
<path fill="none" stroke="midnightblue" d="M389.44,-112.44C429.4,-103.06 493.59,-87.99 536.98,-77.8"/>
<polygon fill="midnightblue" stroke="midnightblue" points="537.79,-81.21 546.73,-75.52 536.19,-74.39 537.79,-81.21"/>
</g>
<!-- Node9 -->
<g id="node9" class="node">
<title>Node9</title>
<g id="a_node9"><a xlink:title=" ">
<polygon fill="none" stroke="#bfbfbf" points="533,-0.5 533,-19.5 633,-19.5 633,-0.5 533,-0.5"/>
<text text-anchor="middle" x="583" y="-7.5" font-family="Helvetica,sans-Serif" font-size="10.00">limes_platform.h</text>
</a>
</g>
</g>
<!-- Node8&#45;&gt;Node9 -->
<g id="edge8" class="edge">
<title>Node8&#45;&gt;Node9</title>
<path fill="none" stroke="midnightblue" d="M583,-56.08C583,-49.01 583,-38.86 583,-29.99"/>
<polygon fill="midnightblue" stroke="midnightblue" points="586.5,-29.75 583,-19.75 579.5,-29.75 586.5,-29.75"/>
</g>
</g>
</svg>
