<?xml version="1.0" encoding="UTF-8" standalone="no"?>
<!DOCTYPE svg PUBLIC "-//W3C//DTD SVG 1.1//EN"
 "http://www.w3.org/Graphics/SVG/1.1/DTD/svg11.dtd">
<!-- Generated by graphviz version 2.43.0 (0)
 -->
<!-- Title: limes::ds::scalar_vector&lt; ElementType, Allocator &gt; Pages: 1 -->
<svg width="945pt" height="186pt"
 viewBox="0.00 0.00 945.00 186.00" xmlns="http://www.w3.org/2000/svg" xmlns:xlink="http://www.w3.org/1999/xlink">
<g id="graph0" class="graph" transform="scale(1 1) rotate(0) translate(4 182)">
<title>limes::ds::scalar_vector&lt; ElementType, Allocator &gt;</title>
<!-- Node1 -->
<g id="node1" class="node">
<title>Node1</title>
<g id="a_node1"><a xlink:title=" ">
<polygon fill="#bfbfbf" stroke="black" points="532,-73.5 532,-103.5 684,-103.5 684,-73.5 532,-73.5"/>
<text text-anchor="start" x="540" y="-91.5" font-family="Helvetica,sans-Serif" font-size="10.00">limes::ds::scalar_vector</text>
<text text-anchor="middle" x="608" y="-80.5" font-family="Helvetica,sans-Serif" font-size="10.00">&lt; ElementType, Allocator &gt;</text>
</a>
</g>
</g>
<!-- Node4 -->
<g id="node4" class="node">
<title>Node4</title>
<g id="a_node4"><a xlink:href="../../df/d0d/classlimes_1_1ds_1_1scalar__vector.html" target="_top" xlink:title=" ">
<polygon fill="none" stroke="black" points="805,-147.5 805,-177.5 937,-177.5 937,-147.5 805,-147.5"/>
<text text-anchor="start" x="813" y="-165.5" font-family="Helvetica,sans-Serif" font-size="10.00">limes::ds::scalar_vector</text>
<text text-anchor="middle" x="871" y="-154.5" font-family="Helvetica,sans-Serif" font-size="10.00">&lt; SampleType &gt;</text>
</a>
</g>
</g>
<!-- Node1&#45;&gt;Node4 -->
<g id="edge3" class="edge">
<title>Node1&#45;&gt;Node4</title>
<path fill="none" stroke="orange" stroke-dasharray="5,2" d="M662.06,-106.91C675.07,-111.22 688.99,-115.67 702,-119.5 736.37,-129.61 775.09,-139.62 806.69,-147.43"/>
<polygon fill="orange" stroke="orange" points="662.92,-103.51 652.33,-103.65 660.7,-110.15 662.92,-103.51"/>
<text text-anchor="middle" x="744.5" y="-144.5" font-family="Helvetica,sans-Serif" font-size="10.00"> &lt; SampleType &gt;</text>
</g>
<!-- Node5 -->
<g id="node5" class="node">
<title>Node5</title>
<g id="a_node5"><a xlink:href="../../df/d0d/classlimes_1_1ds_1_1scalar__vector.html" target="_top" xlink:title=" ">
<polygon fill="none" stroke="black" points="805,-98.5 805,-128.5 937,-128.5 937,-98.5 805,-98.5"/>
<text text-anchor="start" x="813" y="-116.5" font-family="Helvetica,sans-Serif" font-size="10.00">limes::ds::scalar_vector</text>
<text text-anchor="middle" x="871" y="-105.5" font-family="Helvetica,sans-Serif" font-size="10.00">&lt; float &gt;</text>
</a>
</g>
</g>
<!-- Node1&#45;&gt;Node5 -->
<g id="edge4" class="edge">
<title>Node1&#45;&gt;Node5</title>
<path fill="none" stroke="orange" stroke-dasharray="5,2" d="M694.13,-96.65C730.05,-100.09 771.22,-104.04 804.69,-107.24"/>
<polygon fill="orange" stroke="orange" points="694.43,-93.17 684.14,-95.7 693.76,-100.14 694.43,-93.17"/>
<text text-anchor="middle" x="744.5" y="-107.5" font-family="Helvetica,sans-Serif" font-size="10.00"> &lt; float &gt;</text>
</g>
<!-- Node6 -->
<g id="node6" class="node">
<title>Node6</title>
<g id="a_node6"><a xlink:href="../../df/d0d/classlimes_1_1ds_1_1scalar__vector.html" target="_top" xlink:title=" ">
<polygon fill="none" stroke="black" points="805,-49.5 805,-79.5 937,-79.5 937,-49.5 805,-49.5"/>
<text text-anchor="start" x="813" y="-67.5" font-family="Helvetica,sans-Serif" font-size="10.00">limes::ds::scalar_vector</text>
<text text-anchor="middle" x="871" y="-56.5" font-family="Helvetica,sans-Serif" font-size="10.00">&lt; int &gt;</text>
</a>
</g>
</g>
<!-- Node1&#45;&gt;Node6 -->
<g id="edge5" class="edge">
<title>Node1&#45;&gt;Node6</title>
<path fill="none" stroke="orange" stroke-dasharray="5,2" d="M694.13,-80.67C730.05,-77.37 771.22,-73.58 804.69,-70.51"/>
<polygon fill="orange" stroke="orange" points="693.78,-77.19 684.14,-81.59 694.42,-84.16 693.78,-77.19"/>
<text text-anchor="middle" x="744.5" y="-82.5" font-family="Helvetica,sans-Serif" font-size="10.00"> &lt; int &gt;</text>
</g>
<!-- Node7 -->
<g id="node7" class="node">
<title>Node7</title>
<g id="a_node7"><a xlink:href="../../df/d0d/classlimes_1_1ds_1_1scalar__vector.html" target="_top" xlink:title=" ">
<polygon fill="none" stroke="black" points="805,-0.5 805,-30.5 937,-30.5 937,-0.5 805,-0.5"/>
<text text-anchor="start" x="813" y="-18.5" font-family="Helvetica,sans-Serif" font-size="10.00">limes::ds::scalar_vector</text>
<text text-anchor="middle" x="871" y="-7.5" font-family="Helvetica,sans-Serif" font-size="10.00">&lt; Sampletype &gt;</text>
</a>
</g>
</g>
<!-- Node1&#45;&gt;Node7 -->
<g id="edge6" class="edge">
<title>Node1&#45;&gt;Node7</title>
<path fill="none" stroke="orange" stroke-dasharray="5,2" d="M661.66,-70.17C674.77,-65.82 688.85,-61.33 702,-57.5 735.77,-47.67 773.77,-38.05 805.07,-30.5"/>
<polygon fill="orange" stroke="orange" points="660.21,-66.96 651.84,-73.45 662.44,-73.6 660.21,-66.96"/>
<text text-anchor="middle" x="744.5" y="-60.5" font-family="Helvetica,sans-Serif" font-size="10.00"> &lt; Sampletype &gt;</text>
</g>
<!-- Node2 -->
<g id="node2" class="node">
<title>Node2</title>
<g id="a_node2"><a xlink:href="../../dd/dbe/classlimes_1_1ds_1_1basic__vector.html" target="_top" xlink:title=" ">
<polygon fill="none" stroke="black" points="334,-68 334,-109 495,-109 495,-68 334,-68"/>
<text text-anchor="start" x="342" y="-97" font-family="Helvetica,sans-Serif" font-size="10.00">limes::ds::basic_vector</text>
<text text-anchor="start" x="342" y="-86" font-family="Helvetica,sans-Serif" font-size="10.00">&lt; ElementType, std::allocator</text>
<text text-anchor="middle" x="414.5" y="-75" font-family="Helvetica,sans-Serif" font-size="10.00">&lt; ElementType &gt; &gt;</text>
</a>
</g>
</g>
<!-- Node2&#45;&gt;Node1 -->
<g id="edge1" class="edge">
<title>Node2&#45;&gt;Node1</title>
<path fill="none" stroke="midnightblue" d="M505.15,-88.5C514.13,-88.5 523.19,-88.5 532,-88.5"/>
<polygon fill="midnightblue" stroke="midnightblue" points="505.05,-85 495.05,-88.5 505.05,-92 505.05,-85"/>
</g>
<!-- Node3 -->
<g id="node3" class="node">
<title>Node3</title>
<g id="a_node3"><a xlink:href="../../dd/dbe/classlimes_1_1ds_1_1basic__vector.html" target="_top" xlink:title=" ">
<polygon fill="none" stroke="black" points="0,-73.5 0,-103.5 152,-103.5 152,-73.5 0,-73.5"/>
<text text-anchor="start" x="8" y="-91.5" font-family="Helvetica,sans-Serif" font-size="10.00">limes::ds::basic_vector</text>
<text text-anchor="middle" x="76" y="-80.5" font-family="Helvetica,sans-Serif" font-size="10.00">&lt; ElementType, Allocator &gt;</text>
</a>
</g>
</g>
<!-- Node3&#45;&gt;Node2 -->
<g id="edge2" class="edge">
<title>Node3&#45;&gt;Node2</title>
<path fill="none" stroke="orange" stroke-dasharray="5,2" d="M162.11,-88.5C214.89,-88.5 282.24,-88.5 333.94,-88.5"/>
<polygon fill="orange" stroke="orange" points="162.1,-85 152.1,-88.5 162.1,-92 162.1,-85"/>
<text text-anchor="start" x="170" y="-102.5" font-family="Helvetica,sans-Serif" font-size="10.00"> &lt; ElementType, std</text>
<text text-anchor="middle" x="243" y="-91.5" font-family="Helvetica,sans-Serif" font-size="10.00">::allocator&lt; ElementType &gt; &gt;</text>
</g>
</g>
</svg>
