<?xml version="1.0" encoding="UTF-8" standalone="no"?>
<!DOCTYPE svg PUBLIC "-//W3C//DTD SVG 1.1//EN"
 "http://www.w3.org/Graphics/SVG/1.1/DTD/svg11.dtd">
<!-- Generated by graphviz version 2.43.0 (0)
 -->
<!-- Title: limes_midi.h Pages: 1 -->
<svg width="316pt" height="140pt"
 viewBox="0.00 0.00 315.50 140.00" xmlns="http://www.w3.org/2000/svg" xmlns:xlink="http://www.w3.org/1999/xlink">
<g id="graph0" class="graph" transform="scale(1 1) rotate(0) translate(4 136)">
<title>limes_midi.h</title>
<!-- Node1 -->
<g id="node1" class="node">
<title>Node1</title>
<g id="a_node1"><a xlink:title=" ">
<polygon fill="#bfbfbf" stroke="black" points="115.5,-112.5 115.5,-131.5 195.5,-131.5 195.5,-112.5 115.5,-112.5"/>
<text text-anchor="middle" x="155.5" y="-119.5" font-family="Helvetica,sans-Serif" font-size="10.00">limes_midi.h</text>
</a>
</g>
</g>
<!-- Node2 -->
<g id="node2" class="node">
<title>Node2</title>
<g id="a_node2"><a xlink:href="../../d1/df2/_pitchbend_mapper_8h.html" target="_top" xlink:title=" ">
<polygon fill="none" stroke="black" points="0,-56.5 0,-75.5 149,-75.5 149,-56.5 0,-56.5"/>
<text text-anchor="middle" x="74.5" y="-63.5" font-family="Helvetica,sans-Serif" font-size="10.00">utilities/PitchbendMapper.h</text>
</a>
</g>
</g>
<!-- Node1&#45;&gt;Node2 -->
<g id="edge1" class="edge">
<title>Node1&#45;&gt;Node2</title>
<path fill="none" stroke="midnightblue" d="M142.49,-112.32C129.97,-103.98 110.82,-91.21 96.03,-81.35"/>
<polygon fill="midnightblue" stroke="midnightblue" points="97.74,-78.29 87.48,-75.65 93.86,-84.11 97.74,-78.29"/>
</g>
<!-- Node5 -->
<g id="node5" class="node">
<title>Node5</title>
<g id="a_node5"><a xlink:href="../../d0/d0d/_velocity_mapper_8h.html" target="_top" xlink:title=" ">
<polygon fill="none" stroke="black" points="167.5,-56.5 167.5,-75.5 307.5,-75.5 307.5,-56.5 167.5,-56.5"/>
<text text-anchor="middle" x="237.5" y="-63.5" font-family="Helvetica,sans-Serif" font-size="10.00">utilities/VelocityMapper.h</text>
</a>
</g>
</g>
<!-- Node1&#45;&gt;Node5 -->
<g id="edge4" class="edge">
<title>Node1&#45;&gt;Node5</title>
<path fill="none" stroke="midnightblue" d="M168.67,-112.32C181.35,-103.98 200.73,-91.21 215.71,-81.35"/>
<polygon fill="midnightblue" stroke="midnightblue" points="217.93,-84.08 224.36,-75.65 214.08,-78.23 217.93,-84.08"/>
</g>
<!-- Node3 -->
<g id="node3" class="node">
<title>Node3</title>
<g id="a_node3"><a xlink:title=" ">
<polygon fill="none" stroke="#bfbfbf" points="51,-0.5 51,-19.5 140,-19.5 140,-0.5 51,-0.5"/>
<text text-anchor="middle" x="95.5" y="-7.5" font-family="Helvetica,sans-Serif" font-size="10.00">limes_export.h</text>
</a>
</g>
</g>
<!-- Node2&#45;&gt;Node3 -->
<g id="edge2" class="edge">
<title>Node2&#45;&gt;Node3</title>
<path fill="none" stroke="midnightblue" d="M77.97,-56.08C80.81,-48.77 84.93,-38.18 88.46,-29.1"/>
<polygon fill="midnightblue" stroke="midnightblue" points="91.73,-30.34 92.1,-19.75 85.21,-27.8 91.73,-30.34"/>
</g>
<!-- Node4 -->
<g id="node4" class="node">
<title>Node4</title>
<g id="a_node4"><a xlink:href="../../da/d0b/limes__namespace_8h.html" target="_top" xlink:title=" ">
<polygon fill="none" stroke="black" points="169.5,-0.5 169.5,-19.5 283.5,-19.5 283.5,-0.5 169.5,-0.5"/>
<text text-anchor="middle" x="226.5" y="-7.5" font-family="Helvetica,sans-Serif" font-size="10.00">limes_namespace.h</text>
</a>
</g>
</g>
<!-- Node2&#45;&gt;Node4 -->
<g id="edge3" class="edge">
<title>Node2&#45;&gt;Node4</title>
<path fill="none" stroke="midnightblue" d="M98.58,-56.44C124.04,-47.4 164.39,-33.06 192.96,-22.92"/>
<polygon fill="midnightblue" stroke="midnightblue" points="194.28,-26.16 202.53,-19.52 191.93,-19.57 194.28,-26.16"/>
</g>
<!-- Node5&#45;&gt;Node3 -->
<g id="edge5" class="edge">
<title>Node5&#45;&gt;Node3</title>
<path fill="none" stroke="midnightblue" d="M215,-56.44C191.42,-47.48 154.18,-33.31 127.54,-23.18"/>
<polygon fill="midnightblue" stroke="midnightblue" points="128.49,-19.8 117.9,-19.52 126,-26.34 128.49,-19.8"/>
</g>
<!-- Node5&#45;&gt;Node4 -->
<g id="edge6" class="edge">
<title>Node5&#45;&gt;Node4</title>
<path fill="none" stroke="midnightblue" d="M235.68,-56.08C234.23,-48.93 232.13,-38.64 230.31,-29.69"/>
<polygon fill="midnightblue" stroke="midnightblue" points="233.71,-28.85 228.28,-19.75 226.85,-30.25 233.71,-28.85"/>
</g>
</g>
</svg>
