<?xml version="1.0" encoding="UTF-8" standalone="no"?>
<!DOCTYPE svg PUBLIC "-//W3C//DTD SVG 1.1//EN"
 "http://www.w3.org/Graphics/SVG/1.1/DTD/svg11.dtd">
<!-- Generated by graphviz version 2.43.0 (0)
 -->
<!-- Title: limes_midi.h Pages: 1 -->
<svg width="316pt" height="140pt"
 viewBox="0.00 0.00 315.50 140.00" xmlns="http://www.w3.org/2000/svg" xmlns:xlink="http://www.w3.org/1999/xlink">
<g id="graph0" class="graph" transform="scale(1 1) rotate(0) translate(4 136)">
<title>limes_midi.h</title>
<!-- Node1 -->
<g id="node1" class="node">
<title>Node1</title>
<g id="a_node1"><a xlink:title=" ">
<polygon fill="#bfbfbf" stroke="black" points="111,-112.5 111,-131.5 191,-131.5 191,-112.5 111,-112.5"/>
<text text-anchor="middle" x="151" y="-119.5" font-family="Helvetica,sans-Serif" font-size="10.00">limes_midi.h</text>
</a>
</g>
</g>
<!-- Node2 -->
<g id="node2" class="node">
<title>Node2</title>
<g id="a_node2"><a xlink:href="../../d0/d0d/_velocity_mapper_8h.html" target="_top" xlink:title=" ">
<polygon fill="none" stroke="black" points="0,-56.5 0,-75.5 140,-75.5 140,-56.5 0,-56.5"/>
<text text-anchor="middle" x="70" y="-63.5" font-family="Helvetica,sans-Serif" font-size="10.00">utilities/VelocityMapper.h</text>
</a>
</g>
</g>
<!-- Node1&#45;&gt;Node2 -->
<g id="edge1" class="edge">
<title>Node1&#45;&gt;Node2</title>
<path fill="none" stroke="midnightblue" d="M137.99,-112.32C125.47,-103.98 106.32,-91.21 91.53,-81.35"/>
<polygon fill="midnightblue" stroke="midnightblue" points="93.24,-78.29 82.98,-75.65 89.36,-84.11 93.24,-78.29"/>
</g>
<!-- Node5 -->
<g id="node5" class="node">
<title>Node5</title>
<g id="a_node5"><a xlink:href="../../d1/df2/_pitchbend_mapper_8h.html" target="_top" xlink:title=" ">
<polygon fill="none" stroke="black" points="158.5,-56.5 158.5,-75.5 307.5,-75.5 307.5,-56.5 158.5,-56.5"/>
<text text-anchor="middle" x="233" y="-63.5" font-family="Helvetica,sans-Serif" font-size="10.00">utilities/PitchbendMapper.h</text>
</a>
</g>
</g>
<!-- Node1&#45;&gt;Node5 -->
<g id="edge4" class="edge">
<title>Node1&#45;&gt;Node5</title>
<path fill="none" stroke="midnightblue" d="M164.17,-112.32C176.85,-103.98 196.23,-91.21 211.21,-81.35"/>
<polygon fill="midnightblue" stroke="midnightblue" points="213.43,-84.08 219.86,-75.65 209.58,-78.23 213.43,-84.08"/>
</g>
<!-- Node3 -->
<g id="node3" class="node">
<title>Node3</title>
<g id="a_node3"><a xlink:title=" ">
<polygon fill="none" stroke="#bfbfbf" points="46.5,-0.5 46.5,-19.5 135.5,-19.5 135.5,-0.5 46.5,-0.5"/>
<text text-anchor="middle" x="91" y="-7.5" font-family="Helvetica,sans-Serif" font-size="10.00">limes_export.h</text>
</a>
</g>
</g>
<!-- Node2&#45;&gt;Node3 -->
<g id="edge2" class="edge">
<title>Node2&#45;&gt;Node3</title>
<path fill="none" stroke="midnightblue" d="M73.47,-56.08C76.31,-48.77 80.43,-38.18 83.96,-29.1"/>
<polygon fill="midnightblue" stroke="midnightblue" points="87.23,-30.34 87.6,-19.75 80.71,-27.8 87.23,-30.34"/>
</g>
<!-- Node4 -->
<g id="node4" class="node">
<title>Node4</title>
<g id="a_node4"><a xlink:href="../../da/d0b/limes__namespace_8h.html" target="_top" xlink:title=" ">
<polygon fill="none" stroke="black" points="165,-0.5 165,-19.5 279,-19.5 279,-0.5 165,-0.5"/>
<text text-anchor="middle" x="222" y="-7.5" font-family="Helvetica,sans-Serif" font-size="10.00">limes_namespace.h</text>
</a>
</g>
</g>
<!-- Node2&#45;&gt;Node4 -->
<g id="edge3" class="edge">
<title>Node2&#45;&gt;Node4</title>
<path fill="none" stroke="midnightblue" d="M94.08,-56.44C119.54,-47.4 159.89,-33.06 188.46,-22.92"/>
<polygon fill="midnightblue" stroke="midnightblue" points="189.78,-26.16 198.03,-19.52 187.43,-19.57 189.78,-26.16"/>
</g>
<!-- Node5&#45;&gt;Node3 -->
<g id="edge5" class="edge">
<title>Node5&#45;&gt;Node3</title>
<path fill="none" stroke="midnightblue" d="M210.5,-56.44C186.92,-47.48 149.68,-33.31 123.04,-23.18"/>
<polygon fill="midnightblue" stroke="midnightblue" points="123.99,-19.8 113.4,-19.52 121.5,-26.34 123.99,-19.8"/>
</g>
<!-- Node5&#45;&gt;Node4 -->
<g id="edge6" class="edge">
<title>Node5&#45;&gt;Node4</title>
<path fill="none" stroke="midnightblue" d="M231.18,-56.08C229.73,-48.93 227.63,-38.64 225.81,-29.69"/>
<polygon fill="midnightblue" stroke="midnightblue" points="229.21,-28.85 223.78,-19.75 222.35,-30.25 229.21,-28.85"/>
</g>
</g>
</svg>
