<?xml version="1.0" encoding="UTF-8" standalone="no"?>
<!DOCTYPE svg PUBLIC "-//W3C//DTD SVG 1.1//EN"
 "http://www.w3.org/Graphics/SVG/1.1/DTD/svg11.dtd">
<!-- Generated by graphviz version 2.43.0 (0)
 -->
<!-- Title: PitchUtils.h Pages: 1 -->
<svg width="674pt" height="308pt"
 viewBox="0.00 0.00 674.00 308.00" xmlns="http://www.w3.org/2000/svg" xmlns:xlink="http://www.w3.org/1999/xlink">
<g id="graph0" class="graph" transform="scale(1 1) rotate(0) translate(4 304)">
<title>PitchUtils.h</title>
<!-- Node1 -->
<g id="node1" class="node">
<title>Node1</title>
<g id="a_node1"><a xlink:title=" ">
<polygon fill="#bfbfbf" stroke="black" points="398,-280.5 398,-299.5 470,-299.5 470,-280.5 398,-280.5"/>
<text text-anchor="middle" x="434" y="-287.5" font-family="Helvetica,sans-Serif" font-size="10.00">PitchUtils.h</text>
</a>
</g>
</g>
<!-- Node2 -->
<g id="node2" class="node">
<title>Node2</title>
<g id="a_node2"><a xlink:href="../../db/ddf/_pitch_8h.html" target="_top" xlink:title=" ">
<polygon fill="none" stroke="black" points="149,-224.5 149,-243.5 199,-243.5 199,-224.5 149,-224.5"/>
<text text-anchor="middle" x="174" y="-231.5" font-family="Helvetica,sans-Serif" font-size="10.00">Pitch.h</text>
</a>
</g>
</g>
<!-- Node1&#45;&gt;Node2 -->
<g id="edge1" class="edge">
<title>Node1&#45;&gt;Node2</title>
<path fill="none" stroke="midnightblue" d="M388.01,-279.45C333.01,-268.03 242.94,-249.32 199.29,-240.25"/>
<polygon fill="midnightblue" stroke="midnightblue" points="387.35,-282.88 397.85,-281.49 388.77,-276.03 387.35,-282.88"/>
</g>
<!-- Node4 -->
<g id="node4" class="node">
<title>Node4</title>
<g id="a_node4"><a xlink:href="../../d4/dbe/limes__music_8h.html" target="_top" xlink:title=" ">
<polygon fill="none" stroke="red" points="314.5,-0.5 314.5,-19.5 401.5,-19.5 401.5,-0.5 314.5,-0.5"/>
<text text-anchor="middle" x="358" y="-7.5" font-family="Helvetica,sans-Serif" font-size="10.00">limes_music.h</text>
</a>
</g>
</g>
<!-- Node1&#45;&gt;Node4 -->
<g id="edge22" class="edge">
<title>Node1&#45;&gt;Node4</title>
<path fill="none" stroke="midnightblue" d="M480.25,-287.13C547.93,-281.65 666,-260.41 666,-179 666,-179 666,-179 666,-121 666,-86.36 652.03,-74.9 623,-56 587.22,-32.7 467.18,-19.72 401.63,-14.21"/>
<polygon fill="midnightblue" stroke="midnightblue" points="479.97,-283.64 470.25,-287.86 480.48,-290.63 479.97,-283.64"/>
</g>
<!-- Node3 -->
<g id="node3" class="node">
<title>Node3</title>
<g id="a_node3"><a xlink:href="../../d8/d57/_chord_8h.html" target="_top" xlink:title=" ">
<polygon fill="none" stroke="black" points="0,-168.5 0,-187.5 54,-187.5 54,-168.5 0,-168.5"/>
<text text-anchor="middle" x="27" y="-175.5" font-family="Helvetica,sans-Serif" font-size="10.00">Chord.h</text>
</a>
</g>
</g>
<!-- Node2&#45;&gt;Node3 -->
<g id="edge2" class="edge">
<title>Node2&#45;&gt;Node3</title>
<path fill="none" stroke="midnightblue" d="M141.08,-220.91C113.44,-210.75 74.66,-196.51 50.18,-187.52"/>
<polygon fill="midnightblue" stroke="midnightblue" points="140.11,-224.28 150.71,-224.44 142.53,-217.71 140.11,-224.28"/>
</g>
<!-- Node2&#45;&gt;Node4 -->
<g id="edge21" class="edge">
<title>Node2&#45;&gt;Node4</title>
<path fill="none" stroke="midnightblue" d="M161.4,-216.08C137.58,-181.89 91.74,-103.8 131,-56 153.76,-28.29 255.14,-17.34 314.44,-13.26"/>
<polygon fill="midnightblue" stroke="midnightblue" points="158.76,-218.41 167.44,-224.49 164.45,-214.33 158.76,-218.41"/>
</g>
<!-- Node6 -->
<g id="node5" class="node">
<title>Node6</title>
<g id="a_node5"><a xlink:href="../../d1/d6b/_interval_8h.html" target="_top" xlink:title=" ">
<polygon fill="none" stroke="black" points="142.5,-112.5 142.5,-131.5 205.5,-131.5 205.5,-112.5 142.5,-112.5"/>
<text text-anchor="middle" x="174" y="-119.5" font-family="Helvetica,sans-Serif" font-size="10.00">Interval.h</text>
</a>
</g>
</g>
<!-- Node2&#45;&gt;Node6 -->
<g id="edge4" class="edge">
<title>Node2&#45;&gt;Node6</title>
<path fill="none" stroke="midnightblue" d="M174,-214.35C174,-190.25 174,-149.31 174,-131.59"/>
<polygon fill="midnightblue" stroke="midnightblue" points="170.5,-214.37 174,-224.37 177.5,-214.37 170.5,-214.37"/>
</g>
<!-- Node8 -->
<g id="node7" class="node">
<title>Node8</title>
<g id="a_node7"><a xlink:href="../../d4/d81/_scale_8h.html" target="_top" xlink:title=" ">
<polygon fill="none" stroke="black" points="393,-168.5 393,-187.5 445,-187.5 445,-168.5 393,-168.5"/>
<text text-anchor="middle" x="419" y="-175.5" font-family="Helvetica,sans-Serif" font-size="10.00">Scale.h</text>
</a>
</g>
</g>
<!-- Node2&#45;&gt;Node8 -->
<g id="edge8" class="edge">
<title>Node2&#45;&gt;Node8</title>
<path fill="none" stroke="midnightblue" d="M209.27,-225.23C258.96,-214.27 348.46,-194.55 392.73,-184.79"/>
<polygon fill="midnightblue" stroke="midnightblue" points="208.31,-221.85 199.3,-227.42 209.82,-228.69 208.31,-221.85"/>
</g>
<!-- Node3&#45;&gt;Node4 -->
<g id="edge3" class="edge">
<title>Node3&#45;&gt;Node4</title>
<path fill="none" stroke="midnightblue" d="M27.61,-158.24C29.56,-131.21 37.4,-81.73 68,-56 104.51,-25.31 242.77,-15.44 314.39,-12.35"/>
<polygon fill="midnightblue" stroke="midnightblue" points="24.11,-158.15 27.08,-168.32 31.1,-158.52 24.11,-158.15"/>
</g>
<!-- Node6&#45;&gt;Node4 -->
<g id="edge7" class="edge">
<title>Node6&#45;&gt;Node4</title>
<path fill="none" stroke="midnightblue" d="M155.7,-105.43C141.64,-91.6 126.56,-71.25 139,-56 160.65,-29.45 256.55,-18.12 314.02,-13.64"/>
<polygon fill="midnightblue" stroke="midnightblue" points="153.5,-108.17 163.22,-112.38 158.25,-103.02 153.5,-108.17"/>
</g>
<!-- Node7 -->
<g id="node6" class="node">
<title>Node7</title>
<g id="a_node6"><a xlink:href="../../d4/d61/_compound_interval_8h.html" target="_top" xlink:title=" ">
<polygon fill="none" stroke="black" points="148,-56.5 148,-75.5 264,-75.5 264,-56.5 148,-56.5"/>
<text text-anchor="middle" x="206" y="-63.5" font-family="Helvetica,sans-Serif" font-size="10.00">CompoundInterval.h</text>
</a>
</g>
</g>
<!-- Node6&#45;&gt;Node7 -->
<g id="edge5" class="edge">
<title>Node6&#45;&gt;Node7</title>
<path fill="none" stroke="midnightblue" d="M184.5,-103.27C189.97,-94.05 196.42,-83.17 200.81,-75.75"/>
<polygon fill="midnightblue" stroke="midnightblue" points="181.37,-101.7 179.28,-112.08 187.39,-105.26 181.37,-101.7"/>
</g>
<!-- Node7&#45;&gt;Node4 -->
<g id="edge6" class="edge">
<title>Node7&#45;&gt;Node4</title>
<path fill="none" stroke="midnightblue" d="M239.67,-53.04C268.27,-42.88 308.61,-28.55 334.03,-19.52"/>
<polygon fill="midnightblue" stroke="midnightblue" points="238.34,-49.8 230.08,-56.44 240.68,-56.39 238.34,-49.8"/>
</g>
<!-- Node8&#45;&gt;Node4 -->
<g id="edge20" class="edge">
<title>Node8&#45;&gt;Node4</title>
<path fill="none" stroke="midnightblue" d="M393.61,-163.32C366.31,-146.86 324.95,-116.33 311,-76 308.09,-67.6 307.51,-64.17 311,-56 317.65,-40.42 332.65,-27.65 343.92,-19.74"/>
<polygon fill="midnightblue" stroke="midnightblue" points="391.86,-166.36 402.27,-168.36 395.38,-160.31 391.86,-166.36"/>
</g>
<!-- Node9 -->
<g id="node8" class="node">
<title>Node9</title>
<g id="a_node8"><a xlink:href="../../d3/d6f/_chromatic_8h.html" target="_top" xlink:title=" ">
<polygon fill="none" stroke="black" points="320,-56.5 320,-75.5 396,-75.5 396,-56.5 320,-56.5"/>
<text text-anchor="middle" x="358" y="-63.5" font-family="Helvetica,sans-Serif" font-size="10.00">Chromatic.h</text>
</a>
</g>
</g>
<!-- Node8&#45;&gt;Node9 -->
<g id="edge9" class="edge">
<title>Node8&#45;&gt;Node9</title>
<path fill="none" stroke="midnightblue" d="M394.65,-162.85C383.72,-155.17 371.77,-144.65 365,-132 355.25,-113.79 355.82,-88.62 356.97,-75.59"/>
<polygon fill="midnightblue" stroke="midnightblue" points="392.8,-165.83 403.08,-168.39 396.64,-159.97 392.8,-165.83"/>
</g>
<!-- Node10 -->
<g id="node9" class="node">
<title>Node10</title>
<g id="a_node9"><a xlink:href="../../dd/d47/_key_signature_8h.html" target="_top" xlink:title=" ">
<polygon fill="none" stroke="black" points="374,-112.5 374,-131.5 464,-131.5 464,-112.5 374,-112.5"/>
<text text-anchor="middle" x="419" y="-119.5" font-family="Helvetica,sans-Serif" font-size="10.00">KeySignature.h</text>
</a>
</g>
</g>
<!-- Node8&#45;&gt;Node10 -->
<g id="edge11" class="edge">
<title>Node8&#45;&gt;Node10</title>
<path fill="none" stroke="midnightblue" d="M419,-157.8C419,-148.91 419,-138.78 419,-131.75"/>
<polygon fill="midnightblue" stroke="midnightblue" points="415.5,-158.08 419,-168.08 422.5,-158.08 415.5,-158.08"/>
</g>
<!-- Node11 -->
<g id="node10" class="node">
<title>Node11</title>
<g id="a_node10"><a xlink:href="../../d8/daa/_mode_8h.html" target="_top" xlink:title=" ">
<polygon fill="none" stroke="black" points="452.5,-56.5 452.5,-75.5 505.5,-75.5 505.5,-56.5 452.5,-56.5"/>
<text text-anchor="middle" x="479" y="-63.5" font-family="Helvetica,sans-Serif" font-size="10.00">Mode.h</text>
</a>
</g>
</g>
<!-- Node8&#45;&gt;Node11 -->
<g id="edge15" class="edge">
<title>Node8&#45;&gt;Node11</title>
<path fill="none" stroke="midnightblue" d="M443.44,-162.9C454.39,-155.23 466.32,-144.7 473,-132 482.6,-113.74 481.58,-88.59 480.19,-75.58"/>
<polygon fill="midnightblue" stroke="midnightblue" points="441.44,-160.02 434.98,-168.42 445.27,-165.88 441.44,-160.02"/>
</g>
<!-- Node12 -->
<g id="node11" class="node">
<title>Node12</title>
<g id="a_node11"><a xlink:href="../../d7/db9/_octatonic_8h.html" target="_top" xlink:title=" ">
<polygon fill="none" stroke="black" points="524,-56.5 524,-75.5 596,-75.5 596,-56.5 524,-56.5"/>
<text text-anchor="middle" x="560" y="-63.5" font-family="Helvetica,sans-Serif" font-size="10.00">Octatonic.h</text>
</a>
</g>
</g>
<!-- Node8&#45;&gt;Node12 -->
<g id="edge16" class="edge">
<title>Node8&#45;&gt;Node12</title>
<path fill="none" stroke="midnightblue" d="M443.53,-163.3C457.84,-154.91 475.97,-143.6 491,-132 514.72,-113.7 539.59,-88.57 551.98,-75.57"/>
<polygon fill="midnightblue" stroke="midnightblue" points="441.67,-160.33 434.75,-168.36 445.17,-166.4 441.67,-160.33"/>
</g>
<!-- Node13 -->
<g id="node12" class="node">
<title>Node13</title>
<g id="a_node12"><a xlink:href="../../d0/dce/_whole_tone_8h.html" target="_top" xlink:title=" ">
<polygon fill="none" stroke="black" points="558.5,-112.5 558.5,-131.5 637.5,-131.5 637.5,-112.5 558.5,-112.5"/>
<text text-anchor="middle" x="598" y="-119.5" font-family="Helvetica,sans-Serif" font-size="10.00">WholeTone.h</text>
</a>
</g>
</g>
<!-- Node8&#45;&gt;Node13 -->
<g id="edge18" class="edge">
<title>Node8&#45;&gt;Node13</title>
<path fill="none" stroke="midnightblue" d="M454.95,-166.16C488.7,-155.97 538.52,-140.95 569.57,-131.58"/>
<polygon fill="midnightblue" stroke="midnightblue" points="453.59,-162.91 445.03,-169.15 455.61,-169.61 453.59,-162.91"/>
</g>
<!-- Node9&#45;&gt;Node4 -->
<g id="edge10" class="edge">
<title>Node9&#45;&gt;Node4</title>
<path fill="none" stroke="midnightblue" d="M358,-45.8C358,-36.91 358,-26.78 358,-19.75"/>
<polygon fill="midnightblue" stroke="midnightblue" points="354.5,-46.08 358,-56.08 361.5,-46.08 354.5,-46.08"/>
</g>
<!-- Node10&#45;&gt;Node4 -->
<g id="edge14" class="edge">
<title>Node10&#45;&gt;Node4</title>
<path fill="none" stroke="midnightblue" d="M417.91,-102.38C416.44,-88.79 413.01,-70.33 405,-56 396.51,-40.81 381.23,-27.61 370.4,-19.51"/>
<polygon fill="midnightblue" stroke="midnightblue" points="414.43,-102.76 418.74,-112.44 421.4,-102.19 414.43,-102.76"/>
</g>
<!-- Node10&#45;&gt;Node11 -->
<g id="edge12" class="edge">
<title>Node10&#45;&gt;Node11</title>
<path fill="none" stroke="midnightblue" d="M436.18,-105.54C446.88,-95.91 460.26,-83.87 469.18,-75.83"/>
<polygon fill="midnightblue" stroke="midnightblue" points="433.73,-103.03 428.64,-112.32 438.41,-108.24 433.73,-103.03"/>
</g>
<!-- Node11&#45;&gt;Node4 -->
<g id="edge13" class="edge">
<title>Node11&#45;&gt;Node4</title>
<path fill="none" stroke="midnightblue" d="M450.69,-52.37C428.03,-42.26 396.87,-28.35 377.08,-19.52"/>
<polygon fill="midnightblue" stroke="midnightblue" points="449.27,-55.56 459.83,-56.44 452.12,-49.17 449.27,-55.56"/>
</g>
<!-- Node12&#45;&gt;Node4 -->
<g id="edge17" class="edge">
<title>Node12&#45;&gt;Node4</title>
<path fill="none" stroke="midnightblue" d="M518.21,-53.83C480.07,-43.63 424.52,-28.78 389.86,-19.52"/>
<polygon fill="midnightblue" stroke="midnightblue" points="517.43,-57.24 527.99,-56.44 519.24,-50.48 517.43,-57.24"/>
</g>
<!-- Node13&#45;&gt;Node4 -->
<g id="edge19" class="edge">
<title>Node13&#45;&gt;Node4</title>
<path fill="none" stroke="midnightblue" d="M606.43,-102.96C611.74,-88.62 615.77,-68.9 605,-56 579.59,-25.54 465.47,-15.65 401.61,-12.47"/>
<polygon fill="midnightblue" stroke="midnightblue" points="603.16,-101.7 602.52,-112.27 609.62,-104.4 603.16,-101.7"/>
</g>
</g>
</svg>
