<?xml version="1.0" encoding="UTF-8" standalone="no"?>
<!DOCTYPE svg PUBLIC "-//W3C//DTD SVG 1.1//EN"
 "http://www.w3.org/Graphics/SVG/1.1/DTD/svg11.dtd">
<!-- Generated by graphviz version 2.43.0 (0)
 -->
<!-- Title: PitchDetector.h Pages: 1 -->
<svg width="1664pt" height="420pt"
 viewBox="0.00 0.00 1664.00 420.00" xmlns="http://www.w3.org/2000/svg" xmlns:xlink="http://www.w3.org/1999/xlink">
<g id="graph0" class="graph" transform="scale(1 1) rotate(0) translate(4 416)">
<title>PitchDetector.h</title>
<!-- Node1 -->
<g id="node1" class="node">
<title>Node1</title>
<g id="a_node1"><a xlink:title=" ">
<polygon fill="#bfbfbf" stroke="black" points="956.5,-392.5 956.5,-411.5 1047.5,-411.5 1047.5,-392.5 956.5,-392.5"/>
<text text-anchor="middle" x="1002" y="-399.5" font-family="Helvetica,sans-Serif" font-size="10.00">PitchDetector.h</text>
</a>
</g>
</g>
<!-- Node2 -->
<g id="node2" class="node">
<title>Node2</title>
<g id="a_node2"><a xlink:title=" ">
<polygon fill="none" stroke="#bfbfbf" points="482.5,-56.5 482.5,-75.5 571.5,-75.5 571.5,-56.5 482.5,-56.5"/>
<text text-anchor="middle" x="527" y="-63.5" font-family="Helvetica,sans-Serif" font-size="10.00">limes_export.h</text>
</a>
</g>
</g>
<!-- Node1&#45;&gt;Node2 -->
<g id="edge1" class="edge">
<title>Node1&#45;&gt;Node2</title>
<path fill="none" stroke="midnightblue" d="M956.48,-400.65C765.39,-398.6 38,-384.65 38,-291 38,-291 38,-291 38,-177 38,-140.55 56.17,-129.75 88,-112 152.61,-75.97 369.56,-68.69 472.25,-67.29"/>
<polygon fill="midnightblue" stroke="midnightblue" points="472.45,-70.79 482.41,-67.17 472.37,-63.79 472.45,-70.79"/>
</g>
<!-- Node3 -->
<g id="node3" class="node">
<title>Node3</title>
<g id="a_node3"><a xlink:href="../../d8/d1d/limes__data__structures_8h_source.html" target="_top" xlink:title=" ">
<polygon fill="none" stroke="black" points="723,-336.5 723,-355.5 857,-355.5 857,-336.5 723,-336.5"/>
<text text-anchor="middle" x="790" y="-343.5" font-family="Helvetica,sans-Serif" font-size="10.00">limes_data_structures.h</text>
</a>
</g>
</g>
<!-- Node1&#45;&gt;Node3 -->
<g id="edge2" class="edge">
<title>Node1&#45;&gt;Node3</title>
<path fill="none" stroke="midnightblue" d="M968.41,-392.44C931.81,-383.12 873.16,-368.18 833.17,-358"/>
<polygon fill="midnightblue" stroke="midnightblue" points="833.99,-354.59 823.43,-355.52 832.26,-361.38 833.99,-354.59"/>
</g>
<!-- Node10 -->
<g id="node6" class="node">
<title>Node10</title>
<g id="a_node6"><a xlink:href="../../d9/df8/limes__core_8h.html" target="_top" xlink:title=" ">
<polygon fill="none" stroke="red" points="1355.5,-56.5 1355.5,-75.5 1434.5,-75.5 1434.5,-56.5 1355.5,-56.5"/>
<text text-anchor="middle" x="1395" y="-63.5" font-family="Helvetica,sans-Serif" font-size="10.00">limes_core.h</text>
</a>
</g>
</g>
<!-- Node1&#45;&gt;Node10 -->
<g id="edge60" class="edge">
<title>Node1&#45;&gt;Node10</title>
<path fill="none" stroke="midnightblue" d="M1047.73,-398.15C1196.32,-388.29 1656,-352.78 1656,-291 1656,-291 1656,-291 1656,-177 1656,-86.36 1520.68,-69.22 1444.92,-66.72"/>
<polygon fill="midnightblue" stroke="midnightblue" points="1444.73,-63.22 1434.64,-66.46 1444.55,-70.22 1444.73,-63.22"/>
</g>
<!-- Node12 -->
<g id="node8" class="node">
<title>Node12</title>
<g id="a_node8"><a xlink:href="../../da/d0b/limes__namespace_8h.html" target="_top" xlink:title=" ">
<polygon fill="none" stroke="black" points="823,-56.5 823,-75.5 937,-75.5 937,-56.5 823,-56.5"/>
<text text-anchor="middle" x="880" y="-63.5" font-family="Helvetica,sans-Serif" font-size="10.00">limes_namespace.h</text>
</a>
</g>
</g>
<!-- Node1&#45;&gt;Node12 -->
<g id="edge59" class="edge">
<title>Node1&#45;&gt;Node12</title>
<path fill="none" stroke="midnightblue" d="M1047.63,-393.33C1128.84,-378.38 1290,-342.25 1290,-291 1290,-291 1290,-291 1290,-233 1290,-172.77 1278.15,-146.8 1229,-112 1184.99,-80.85 1035.76,-71.26 947.32,-68.31"/>
<polygon fill="midnightblue" stroke="midnightblue" points="947.22,-64.81 937.11,-67.99 947,-71.8 947.22,-64.81"/>
</g>
<!-- Node139 -->
<g id="node22" class="node">
<title>Node139</title>
<g id="a_node22"><a xlink:href="../../d1/df0/limes__audio_2util_2_misc_8h.html" target="_top" xlink:title=" ">
<polygon fill="none" stroke="black" points="964,-112.5 964,-131.5 1040,-131.5 1040,-112.5 964,-112.5"/>
<text text-anchor="middle" x="1002" y="-119.5" font-family="Helvetica,sans-Serif" font-size="10.00">../util/Misc.h</text>
</a>
</g>
</g>
<!-- Node1&#45;&gt;Node139 -->
<g id="edge55" class="edge">
<title>Node1&#45;&gt;Node139</title>
<path fill="none" stroke="midnightblue" d="M1002,-392.44C1002,-373.94 1002,-328.81 1002,-291 1002,-291 1002,-291 1002,-233 1002,-200.95 1002,-163.64 1002,-141.75"/>
<polygon fill="midnightblue" stroke="midnightblue" points="1005.5,-141.56 1002,-131.56 998.5,-141.56 1005.5,-141.56"/>
</g>
<!-- Node4 -->
<g id="node4" class="node">
<title>Node4</title>
<g id="a_node4"><a xlink:href="../../d6/d68/vector_8h_source.html" target="_top" xlink:title=" ">
<polygon fill="none" stroke="black" points="1093.5,-224.5 1093.5,-243.5 1188.5,-243.5 1188.5,-224.5 1093.5,-224.5"/>
<text text-anchor="middle" x="1141" y="-231.5" font-family="Helvetica,sans-Serif" font-size="10.00">vectors/vector.h</text>
</a>
</g>
</g>
<!-- Node3&#45;&gt;Node4 -->
<g id="edge3" class="edge">
<title>Node3&#45;&gt;Node4</title>
<path fill="none" stroke="midnightblue" d="M817.25,-336.46C879.58,-316.93 1032.63,-268.96 1103.66,-246.7"/>
<polygon fill="midnightblue" stroke="midnightblue" points="1105.03,-249.94 1113.53,-243.61 1102.94,-243.26 1105.03,-249.94"/>
</g>
<!-- Node131 -->
<g id="node11" class="node">
<title>Node131</title>
<g id="a_node11"><a xlink:href="../../d2/dd0/owned__vector_8h_source.html" target="_top" xlink:title=" ">
<polygon fill="none" stroke="black" points="445,-168.5 445,-187.5 577,-187.5 577,-168.5 445,-168.5"/>
<text text-anchor="middle" x="511" y="-175.5" font-family="Helvetica,sans-Serif" font-size="10.00">vectors/owned_vector.h</text>
</a>
</g>
</g>
<!-- Node3&#45;&gt;Node131 -->
<g id="edge18" class="edge">
<title>Node3&#45;&gt;Node131</title>
<path fill="none" stroke="midnightblue" d="M751.44,-336.45C723.28,-329.22 684.81,-317.27 654,-300 601.52,-270.58 550.22,-220.5 525.79,-194.98"/>
<polygon fill="midnightblue" stroke="midnightblue" points="528.25,-192.48 518.84,-187.61 523.16,-197.29 528.25,-192.48"/>
</g>
<!-- Node132 -->
<g id="node14" class="node">
<title>Node132</title>
<g id="a_node14"><a xlink:href="../../d0/dd0/_dimensions_8h_source.html" target="_top" xlink:title=" ">
<polygon fill="none" stroke="black" points="1314,-112.5 1314,-131.5 1476,-131.5 1476,-112.5 1314,-112.5"/>
<text text-anchor="middle" x="1395" y="-119.5" font-family="Helvetica,sans-Serif" font-size="10.00">data_structures/Dimensions.h</text>
</a>
</g>
</g>
<!-- Node3&#45;&gt;Node132 -->
<g id="edge25" class="edge">
<title>Node3&#45;&gt;Node132</title>
<path fill="none" stroke="midnightblue" d="M827.19,-336.42C865.53,-327.53 927.02,-313.11 980,-300 1076.69,-276.08 1104.04,-279.77 1197,-244 1247.09,-224.72 1258.27,-216.11 1304,-188 1329.87,-172.1 1358.1,-151.36 1376.14,-137.64"/>
<polygon fill="midnightblue" stroke="midnightblue" points="1378.32,-140.38 1384.13,-131.51 1374.06,-134.82 1378.32,-140.38"/>
</g>
<!-- Node133 -->
<g id="node15" class="node">
<title>Node133</title>
<g id="a_node15"><a xlink:href="../../d1/d4c/_linked_list_model_8h_source.html" target="_top" xlink:title=" ">
<polygon fill="none" stroke="black" points="776.5,-168.5 776.5,-187.5 933.5,-187.5 933.5,-168.5 776.5,-168.5"/>
<text text-anchor="middle" x="855" y="-175.5" font-family="Helvetica,sans-Serif" font-size="10.00">linked_list/LinkedListModel.h</text>
</a>
</g>
</g>
<!-- Node3&#45;&gt;Node133 -->
<g id="edge30" class="edge">
<title>Node3&#45;&gt;Node133</title>
<path fill="none" stroke="midnightblue" d="M793.49,-336.08C803.77,-309.83 834.03,-232.55 847.91,-197.12"/>
<polygon fill="midnightblue" stroke="midnightblue" points="851.26,-198.16 851.65,-187.57 844.74,-195.6 851.26,-198.16"/>
</g>
<!-- Node135 -->
<g id="node17" class="node">
<title>Node135</title>
<g id="a_node17"><a xlink:href="../../de/dc6/_linked_list_8h.html" target="_top" xlink:title=" ">
<polygon fill="none" stroke="black" points="297.5,-224.5 297.5,-243.5 424.5,-243.5 424.5,-224.5 297.5,-224.5"/>
<text text-anchor="middle" x="361" y="-231.5" font-family="Helvetica,sans-Serif" font-size="10.00">linked_list/LinkedList.h</text>
</a>
</g>
</g>
<!-- Node3&#45;&gt;Node135 -->
<g id="edge35" class="edge">
<title>Node3&#45;&gt;Node135</title>
<path fill="none" stroke="midnightblue" d="M735.65,-336.47C688.36,-328.57 618.15,-315.69 558,-300 499.14,-284.65 432.19,-261.26 393.45,-247.12"/>
<polygon fill="midnightblue" stroke="midnightblue" points="394.36,-243.73 383.77,-243.56 391.95,-250.3 394.36,-243.73"/>
</g>
<!-- Node137 -->
<g id="node19" class="node">
<title>Node137</title>
<g id="a_node19"><a xlink:href="../../d9/daa/_abstract_f_i_f_o_8h_source.html" target="_top" xlink:title=" ">
<polygon fill="none" stroke="black" points="612.5,-112.5 612.5,-131.5 719.5,-131.5 719.5,-112.5 612.5,-112.5"/>
<text text-anchor="middle" x="666" y="-119.5" font-family="Helvetica,sans-Serif" font-size="10.00">fifo/AbstractFIFO.h</text>
</a>
</g>
</g>
<!-- Node3&#45;&gt;Node137 -->
<g id="edge43" class="edge">
<title>Node3&#45;&gt;Node137</title>
<path fill="none" stroke="midnightblue" d="M760.13,-336.37C741.54,-329.47 718.65,-317.94 705,-300 668.54,-252.08 664.8,-176.89 665.23,-141.99"/>
<polygon fill="midnightblue" stroke="midnightblue" points="668.73,-141.88 665.5,-131.79 661.74,-141.69 668.73,-141.88"/>
</g>
<!-- Node138 -->
<g id="node21" class="node">
<title>Node138</title>
<g id="a_node21"><a xlink:href="../../dd/d35/_f_i_f_o_8h_source.html" target="_top" xlink:title=" ">
<polygon fill="none" stroke="black" points="714.5,-280.5 714.5,-299.5 781.5,-299.5 781.5,-280.5 714.5,-280.5"/>
<text text-anchor="middle" x="748" y="-287.5" font-family="Helvetica,sans-Serif" font-size="10.00">fifo/FIFO.h</text>
</a>
</g>
</g>
<!-- Node3&#45;&gt;Node138 -->
<g id="edge48" class="edge">
<title>Node3&#45;&gt;Node138</title>
<path fill="none" stroke="midnightblue" d="M783.06,-336.08C777.07,-328.38 768.25,-317.03 760.95,-307.65"/>
<polygon fill="midnightblue" stroke="midnightblue" points="763.71,-305.5 754.81,-299.75 758.18,-309.79 763.71,-305.5"/>
</g>
<!-- Node5 -->
<g id="node5" class="node">
<title>Node5</title>
<g id="a_node5"><a xlink:href="../../d5/d47/basic__vector_8h_source.html" target="_top" xlink:title=" ">
<polygon fill="none" stroke="red" points="1134,-112.5 1134,-131.5 1220,-131.5 1220,-112.5 1134,-112.5"/>
<text text-anchor="middle" x="1177" y="-119.5" font-family="Helvetica,sans-Serif" font-size="10.00">basic_vector.h</text>
</a>
</g>
</g>
<!-- Node4&#45;&gt;Node5 -->
<g id="edge4" class="edge">
<title>Node4&#45;&gt;Node5</title>
<path fill="none" stroke="midnightblue" d="M1157.63,-224.46C1170.49,-216.84 1187.34,-204.36 1195,-188 1202.19,-172.64 1195.48,-153.85 1188.3,-140.43"/>
<polygon fill="midnightblue" stroke="midnightblue" points="1191.27,-138.58 1183.18,-131.74 1185.24,-142.13 1191.27,-138.58"/>
</g>
<!-- Node4&#45;&gt;Node10 -->
<g id="edge17" class="edge">
<title>Node4&#45;&gt;Node10</title>
<path fill="none" stroke="midnightblue" d="M1188.64,-228.65C1287.76,-218.5 1510.7,-189.65 1556,-132 1588.24,-90.97 1503.26,-75.71 1444.85,-70.13"/>
<polygon fill="midnightblue" stroke="midnightblue" points="1444.92,-66.62 1434.65,-69.22 1444.3,-73.59 1444.92,-66.62"/>
</g>
<!-- Node4&#45;&gt;Node12 -->
<g id="edge16" class="edge">
<title>Node4&#45;&gt;Node12</title>
<path fill="none" stroke="midnightblue" d="M1127.67,-224.28C1115.84,-216.02 1098.67,-202.73 1087,-188 1063.55,-158.4 1078.28,-135.85 1049,-112 1032.15,-98.27 981.27,-85.82 939.71,-77.51"/>
<polygon fill="midnightblue" stroke="midnightblue" points="940.13,-74.03 929.64,-75.55 938.78,-80.9 940.13,-74.03"/>
</g>
<!-- Node130 -->
<g id="node9" class="node">
<title>Node130</title>
<g id="a_node9"><a xlink:href="../../d2/d8d/scalar__vector_8h_source.html" target="_top" xlink:title=" ">
<polygon fill="none" stroke="red" points="1096,-168.5 1096,-187.5 1186,-187.5 1186,-168.5 1096,-168.5"/>
<text text-anchor="middle" x="1141" y="-175.5" font-family="Helvetica,sans-Serif" font-size="10.00">scalar_vector.h</text>
</a>
</g>
</g>
<!-- Node4&#45;&gt;Node130 -->
<g id="edge10" class="edge">
<title>Node4&#45;&gt;Node130</title>
<path fill="none" stroke="midnightblue" d="M1141,-224.08C1141,-217.01 1141,-206.86 1141,-197.99"/>
<polygon fill="midnightblue" stroke="midnightblue" points="1144.5,-197.75 1141,-187.75 1137.5,-197.75 1144.5,-197.75"/>
</g>
<!-- Node8 -->
<g id="node10" class="node">
<title>Node8</title>
<g id="a_node10"><a xlink:title=" ">
<polygon fill="none" stroke="#bfbfbf" points="1562,-56.5 1562,-75.5 1606,-75.5 1606,-56.5 1562,-56.5"/>
<text text-anchor="middle" x="1584" y="-63.5" font-family="Helvetica,sans-Serif" font-size="10.00">string</text>
</a>
</g>
</g>
<!-- Node4&#45;&gt;Node8 -->
<g id="edge15" class="edge">
<title>Node4&#45;&gt;Node8</title>
<path fill="none" stroke="midnightblue" d="M1188.64,-232.95C1256.09,-231.52 1382.41,-223.72 1483,-188 1527.75,-172.11 1547.74,-171.57 1574,-132 1582.98,-118.47 1585.07,-99.92 1585.15,-86.1"/>
<polygon fill="midnightblue" stroke="midnightblue" points="1588.64,-85.71 1584.86,-75.81 1581.64,-85.91 1588.64,-85.71"/>
</g>
<!-- Node5&#45;&gt;Node2 -->
<g id="edge7" class="edge">
<title>Node5&#45;&gt;Node2</title>
<path fill="none" stroke="midnightblue" d="M1133.9,-117.49C1041.77,-109.97 818.85,-91.72 632,-76 615.77,-74.63 598.14,-73.13 582.03,-71.75"/>
<polygon fill="midnightblue" stroke="midnightblue" points="581.97,-68.23 571.7,-70.86 581.37,-75.21 581.97,-68.23"/>
</g>
<!-- Node5&#45;&gt;Node10 -->
<g id="edge5" class="edge">
<title>Node5&#45;&gt;Node10</title>
<path fill="none" stroke="midnightblue" d="M1211.54,-112.44C1249.25,-103.1 1309.74,-88.12 1350.86,-77.93"/>
<polygon fill="midnightblue" stroke="midnightblue" points="1351.75,-81.32 1360.62,-75.52 1350.07,-74.52 1351.75,-81.32"/>
</g>
<!-- Node9 -->
<g id="node7" class="node">
<title>Node9</title>
<g id="a_node7"><a xlink:title=" ">
<polygon fill="none" stroke="#bfbfbf" points="756,-0.5 756,-19.5 856,-19.5 856,-0.5 756,-0.5"/>
<text text-anchor="middle" x="806" y="-7.5" font-family="Helvetica,sans-Serif" font-size="10.00">limes_platform.h</text>
</a>
</g>
</g>
<!-- Node5&#45;&gt;Node9 -->
<g id="edge8" class="edge">
<title>Node5&#45;&gt;Node9</title>
<path fill="none" stroke="midnightblue" d="M1148.2,-112.46C1082.1,-92.86 919.48,-44.65 844.73,-22.48"/>
<polygon fill="midnightblue" stroke="midnightblue" points="845.37,-19.02 834.78,-19.53 843.38,-25.73 845.37,-19.02"/>
</g>
<!-- Node5&#45;&gt;Node12 -->
<g id="edge9" class="edge">
<title>Node5&#45;&gt;Node12</title>
<path fill="none" stroke="midnightblue" d="M1133.81,-113.15C1081.91,-103.71 994.64,-87.84 937.18,-77.4"/>
<polygon fill="midnightblue" stroke="midnightblue" points="937.63,-73.92 927.17,-75.58 936.38,-80.81 937.63,-73.92"/>
</g>
<!-- Node10&#45;&gt;Node9 -->
<g id="edge6" class="edge">
<title>Node10&#45;&gt;Node9</title>
<path fill="none" stroke="midnightblue" d="M1355.44,-61.37C1254.56,-52.12 987.2,-27.61 866.56,-16.55"/>
<polygon fill="midnightblue" stroke="midnightblue" points="866.68,-13.05 856.4,-15.62 866.04,-20.02 866.68,-13.05"/>
</g>
<!-- Node130&#45;&gt;Node2 -->
<g id="edge13" class="edge">
<title>Node130&#45;&gt;Node2</title>
<path fill="none" stroke="midnightblue" d="M1095.66,-174.81C974.24,-168.71 647.92,-150.75 603,-132 577.59,-121.39 554.49,-98.97 540.59,-83.45"/>
<polygon fill="midnightblue" stroke="midnightblue" points="543.05,-80.94 533.86,-75.66 537.75,-85.52 543.05,-80.94"/>
</g>
<!-- Node130&#45;&gt;Node5 -->
<g id="edge11" class="edge">
<title>Node130&#45;&gt;Node5</title>
<path fill="none" stroke="midnightblue" d="M1146.94,-168.08C1151.98,-160.53 1159.34,-149.49 1165.51,-140.23"/>
<polygon fill="midnightblue" stroke="midnightblue" points="1168.53,-142.01 1171.17,-131.75 1162.71,-138.13 1168.53,-142.01"/>
</g>
<!-- Node130&#45;&gt;Node10 -->
<g id="edge12" class="edge">
<title>Node130&#45;&gt;Node10</title>
<path fill="none" stroke="midnightblue" d="M1186.18,-172.67C1277.28,-163.73 1475.23,-143.13 1485,-132 1504.7,-109.55 1467.57,-90.46 1435.19,-78.89"/>
<polygon fill="midnightblue" stroke="midnightblue" points="1435.96,-75.46 1425.37,-75.55 1433.71,-82.08 1435.96,-75.46"/>
</g>
<!-- Node130&#45;&gt;Node12 -->
<g id="edge14" class="edge">
<title>Node130&#45;&gt;Node12</title>
<path fill="none" stroke="midnightblue" d="M1135.68,-168.27C1126.55,-154.1 1106.51,-126.24 1082,-112 1040.96,-88.15 988.49,-76.93 947.31,-71.66"/>
<polygon fill="midnightblue" stroke="midnightblue" points="947.71,-68.18 937.36,-70.47 946.88,-75.13 947.71,-68.18"/>
</g>
<!-- Node131&#45;&gt;Node2 -->
<g id="edge22" class="edge">
<title>Node131&#45;&gt;Node2</title>
<path fill="none" stroke="midnightblue" d="M444.97,-174.58C379.79,-169.72 294.52,-155.2 329,-112 346.63,-89.92 419.82,-77.84 472.08,-71.91"/>
<polygon fill="midnightblue" stroke="midnightblue" points="472.67,-75.36 482.23,-70.8 471.91,-68.4 472.67,-75.36"/>
</g>
<!-- Node131&#45;&gt;Node5 -->
<g id="edge19" class="edge">
<title>Node131&#45;&gt;Node5</title>
<path fill="none" stroke="midnightblue" d="M577.29,-171.62C709.33,-160.92 1002.81,-137.12 1123.54,-127.33"/>
<polygon fill="midnightblue" stroke="midnightblue" points="1123.96,-130.81 1133.65,-126.52 1123.4,-123.83 1123.96,-130.81"/>
</g>
<!-- Node131&#45;&gt;Node10 -->
<g id="edge24" class="edge">
<title>Node131&#45;&gt;Node10</title>
<path fill="none" stroke="midnightblue" d="M577.09,-174.03C742.65,-166.42 1166.43,-145.85 1229,-132 1280.48,-120.6 1336.97,-95.58 1368.99,-80.12"/>
<polygon fill="midnightblue" stroke="midnightblue" points="1370.67,-83.2 1378.11,-75.66 1367.59,-76.91 1370.67,-83.2"/>
</g>
<!-- Node131&#45;&gt;Node12 -->
<g id="edge23" class="edge">
<title>Node131&#45;&gt;Node12</title>
<path fill="none" stroke="midnightblue" d="M520.07,-168.4C535.66,-154.14 569.15,-125.84 603,-112 671.07,-84.17 755.16,-73.52 812.72,-69.46"/>
<polygon fill="midnightblue" stroke="midnightblue" points="813.05,-72.94 822.8,-68.79 812.59,-65.96 813.05,-72.94"/>
</g>
<!-- Node37 -->
<g id="node12" class="node">
<title>Node37</title>
<g id="a_node12"><a xlink:title=" ">
<polygon fill="none" stroke="#bfbfbf" points="422,-112.5 422,-131.5 480,-131.5 480,-112.5 422,-112.5"/>
<text text-anchor="middle" x="451" y="-119.5" font-family="Helvetica,sans-Serif" font-size="10.00">memory</text>
</a>
</g>
</g>
<!-- Node131&#45;&gt;Node37 -->
<g id="edge20" class="edge">
<title>Node131&#45;&gt;Node37</title>
<path fill="none" stroke="midnightblue" d="M501.36,-168.32C492.49,-160.34 479.13,-148.31 468.39,-138.65"/>
<polygon fill="midnightblue" stroke="midnightblue" points="470.59,-135.92 460.82,-131.83 465.91,-141.13 470.59,-135.92"/>
</g>
<!-- Node25 -->
<g id="node13" class="node">
<title>Node25</title>
<g id="a_node13"><a xlink:title=" ">
<polygon fill="none" stroke="#bfbfbf" points="338.5,-112.5 338.5,-131.5 403.5,-131.5 403.5,-112.5 338.5,-112.5"/>
<text text-anchor="middle" x="371" y="-119.5" font-family="Helvetica,sans-Serif" font-size="10.00">functional</text>
</a>
</g>
</g>
<!-- Node131&#45;&gt;Node25 -->
<g id="edge21" class="edge">
<title>Node131&#45;&gt;Node25</title>
<path fill="none" stroke="midnightblue" d="M488.82,-168.44C465.57,-159.48 428.85,-145.31 402.58,-135.18"/>
<polygon fill="midnightblue" stroke="midnightblue" points="403.67,-131.85 393.08,-131.52 401.15,-138.38 403.67,-131.85"/>
</g>
<!-- Node132&#45;&gt;Node2 -->
<g id="edge26" class="edge">
<title>Node132&#45;&gt;Node2</title>
<path fill="none" stroke="midnightblue" d="M1313.83,-116.49C1145.38,-107.08 762.61,-85.45 632,-76 615.76,-74.83 598.12,-73.38 582.02,-71.99"/>
<polygon fill="midnightblue" stroke="midnightblue" points="581.95,-68.47 571.69,-71.09 581.34,-75.45 581.95,-68.47"/>
</g>
<!-- Node132&#45;&gt;Node10 -->
<g id="edge28" class="edge">
<title>Node132&#45;&gt;Node10</title>
<path fill="none" stroke="midnightblue" d="M1395,-112.08C1395,-105.01 1395,-94.86 1395,-85.99"/>
<polygon fill="midnightblue" stroke="midnightblue" points="1398.5,-85.75 1395,-75.75 1391.5,-85.75 1398.5,-85.75"/>
</g>
<!-- Node132&#45;&gt;Node12 -->
<g id="edge27" class="edge">
<title>Node132&#45;&gt;Node12</title>
<path fill="none" stroke="midnightblue" d="M1313.96,-112.5C1212.71,-101.89 1041.3,-83.91 947.06,-74.03"/>
<polygon fill="midnightblue" stroke="midnightblue" points="947.38,-70.55 937.07,-72.98 946.65,-77.51 947.38,-70.55"/>
</g>
<!-- Node132&#45;&gt;Node8 -->
<g id="edge29" class="edge">
<title>Node132&#45;&gt;Node8</title>
<path fill="none" stroke="midnightblue" d="M1424.95,-112.44C1459.62,-102.54 1516.5,-86.28 1552.02,-76.14"/>
<polygon fill="midnightblue" stroke="midnightblue" points="1553.22,-79.44 1561.87,-73.32 1551.29,-72.7 1553.22,-79.44"/>
</g>
<!-- Node133&#45;&gt;Node2 -->
<g id="edge31" class="edge">
<title>Node133&#45;&gt;Node2</title>
<path fill="none" stroke="midnightblue" d="M776.39,-176.95C691.59,-175.07 564.33,-166.39 532,-132 520.63,-119.91 520.65,-100.35 522.73,-85.84"/>
<polygon fill="midnightblue" stroke="midnightblue" points="526.19,-86.4 524.58,-75.93 519.31,-85.12 526.19,-86.4"/>
</g>
<!-- Node133&#45;&gt;Node12 -->
<g id="edge32" class="edge">
<title>Node133&#45;&gt;Node12</title>
<path fill="none" stroke="midnightblue" d="M839.79,-168.31C820.92,-156.35 792.65,-133.8 805,-112 813.35,-97.26 828.66,-86.82 843.29,-79.73"/>
<polygon fill="midnightblue" stroke="midnightblue" points="845,-82.8 852.72,-75.55 842.16,-76.4 845,-82.8"/>
</g>
<!-- Node134 -->
<g id="node16" class="node">
<title>Node134</title>
<g id="a_node16"><a xlink:href="../../d3/da1/_linked_list_model__impl_8h.html" target="_top" xlink:title=" ">
<polygon fill="none" stroke="red" points="814.5,-112.5 814.5,-131.5 945.5,-131.5 945.5,-112.5 814.5,-112.5"/>
<text text-anchor="middle" x="880" y="-119.5" font-family="Helvetica,sans-Serif" font-size="10.00">LinkedListModel_impl.h</text>
</a>
</g>
</g>
<!-- Node133&#45;&gt;Node134 -->
<g id="edge33" class="edge">
<title>Node133&#45;&gt;Node134</title>
<path fill="none" stroke="midnightblue" d="M859.13,-168.08C862.51,-160.77 867.42,-150.18 871.62,-141.1"/>
<polygon fill="midnightblue" stroke="midnightblue" points="874.92,-142.3 875.95,-131.75 868.57,-139.36 874.92,-142.3"/>
</g>
<!-- Node134&#45;&gt;Node12 -->
<g id="edge34" class="edge">
<title>Node134&#45;&gt;Node12</title>
<path fill="none" stroke="midnightblue" d="M880,-112.08C880,-105.01 880,-94.86 880,-85.99"/>
<polygon fill="midnightblue" stroke="midnightblue" points="883.5,-85.75 880,-75.75 876.5,-85.75 883.5,-85.75"/>
</g>
<!-- Node135&#45;&gt;Node2 -->
<g id="edge36" class="edge">
<title>Node135&#45;&gt;Node2</title>
<path fill="none" stroke="midnightblue" d="M313.67,-224.42C292.9,-218.05 270.45,-207.02 258,-188 239.5,-159.74 236.17,-137.78 258,-112 271.68,-95.84 397.52,-80.3 472.14,-72.4"/>
<polygon fill="midnightblue" stroke="midnightblue" points="472.74,-75.85 482.32,-71.33 472.01,-68.89 472.74,-75.85"/>
</g>
<!-- Node135&#45;&gt;Node10 -->
<g id="edge39" class="edge">
<title>Node135&#45;&gt;Node10</title>
<path fill="none" stroke="midnightblue" d="M424.76,-232.48C654.88,-229.93 1432.62,-215.18 1502,-132 1523.09,-106.72 1481.76,-88.6 1444.5,-78.02"/>
<polygon fill="midnightblue" stroke="midnightblue" points="1445.22,-74.59 1434.66,-75.36 1443.4,-81.34 1445.22,-74.59"/>
</g>
<!-- Node135&#45;&gt;Node12 -->
<g id="edge38" class="edge">
<title>Node135&#45;&gt;Node12</title>
<path fill="none" stroke="midnightblue" d="M354.1,-224.41C337.49,-202.64 298.81,-144.75 329,-112 337.11,-103.2 667.49,-80.77 812.7,-71.31"/>
<polygon fill="midnightblue" stroke="midnightblue" points="813.08,-74.79 822.83,-70.65 812.62,-67.81 813.08,-74.79"/>
</g>
<!-- Node135&#45;&gt;Node131 -->
<g id="edge37" class="edge">
<title>Node135&#45;&gt;Node131</title>
<path fill="none" stroke="midnightblue" d="M384.77,-224.44C409.89,-215.4 449.71,-201.06 477.9,-190.92"/>
<polygon fill="midnightblue" stroke="midnightblue" points="479.12,-194.2 487.34,-187.52 476.75,-187.61 479.12,-194.2"/>
</g>
<!-- Node136 -->
<g id="node18" class="node">
<title>Node136</title>
<g id="a_node18"><a xlink:href="../../d5/dea/_linked_list__impl_8h.html" target="_top" xlink:title=" ">
<polygon fill="none" stroke="red" points="104.5,-112.5 104.5,-131.5 205.5,-131.5 205.5,-112.5 104.5,-112.5"/>
<text text-anchor="middle" x="155" y="-119.5" font-family="Helvetica,sans-Serif" font-size="10.00">LinkedList_impl.h</text>
</a>
</g>
</g>
<!-- Node135&#45;&gt;Node136 -->
<g id="edge40" class="edge">
<title>Node135&#45;&gt;Node136</title>
<path fill="none" stroke="midnightblue" d="M316.13,-224.44C287.22,-217.57 249.62,-206.05 220,-188 199.23,-175.35 180.16,-154.73 168.12,-140.11"/>
<polygon fill="midnightblue" stroke="midnightblue" points="170.55,-137.54 161.58,-131.91 165.08,-141.91 170.55,-137.54"/>
</g>
<!-- Node136&#45;&gt;Node9 -->
<g id="edge41" class="edge">
<title>Node136&#45;&gt;Node9</title>
<path fill="none" stroke="midnightblue" d="M192.54,-112.47C251.87,-99.19 371.05,-73.29 473,-56 568.06,-39.88 679.16,-25.82 745.98,-17.88"/>
<polygon fill="midnightblue" stroke="midnightblue" points="746.39,-21.35 755.91,-16.7 745.57,-14.4 746.39,-21.35"/>
</g>
<!-- Node136&#45;&gt;Node12 -->
<g id="edge42" class="edge">
<title>Node136&#45;&gt;Node12</title>
<path fill="none" stroke="midnightblue" d="M205.54,-116.43C222.24,-114.96 240.91,-113.36 258,-112 459.93,-95.87 698.95,-79.28 812.97,-71.52"/>
<polygon fill="midnightblue" stroke="midnightblue" points="813.21,-75.01 822.95,-70.84 812.74,-68.03 813.21,-75.01"/>
</g>
<!-- Node137&#45;&gt;Node2 -->
<g id="edge45" class="edge">
<title>Node137&#45;&gt;Node2</title>
<path fill="none" stroke="midnightblue" d="M643.98,-112.44C620.9,-103.48 584.44,-89.31 558.36,-79.18"/>
<polygon fill="midnightblue" stroke="midnightblue" points="559.51,-75.88 548.92,-75.52 556.98,-82.4 559.51,-75.88"/>
</g>
<!-- Node137&#45;&gt;Node10 -->
<g id="edge47" class="edge">
<title>Node137&#45;&gt;Node10</title>
<path fill="none" stroke="midnightblue" d="M719.61,-117.03C855.67,-106.95 1212.95,-80.49 1345.01,-70.7"/>
<polygon fill="midnightblue" stroke="midnightblue" points="1345.52,-74.18 1355.23,-69.95 1345,-67.19 1345.52,-74.18"/>
</g>
<!-- Node137&#45;&gt;Node12 -->
<g id="edge46" class="edge">
<title>Node137&#45;&gt;Node12</title>
<path fill="none" stroke="midnightblue" d="M699.91,-112.44C736.85,-103.12 796.05,-88.18 836.42,-78"/>
<polygon fill="midnightblue" stroke="midnightblue" points="837.41,-81.36 846.25,-75.52 835.7,-74.57 837.41,-81.36"/>
</g>
<!-- Node27 -->
<g id="node20" class="node">
<title>Node27</title>
<g id="a_node20"><a xlink:title=" ">
<polygon fill="none" stroke="#bfbfbf" points="641,-56.5 641,-75.5 691,-75.5 691,-56.5 641,-56.5"/>
<text text-anchor="middle" x="666" y="-63.5" font-family="Helvetica,sans-Serif" font-size="10.00">atomic</text>
</a>
</g>
</g>
<!-- Node137&#45;&gt;Node27 -->
<g id="edge44" class="edge">
<title>Node137&#45;&gt;Node27</title>
<path fill="none" stroke="midnightblue" d="M666,-112.08C666,-105.01 666,-94.86 666,-85.99"/>
<polygon fill="midnightblue" stroke="midnightblue" points="669.5,-85.75 666,-75.75 662.5,-85.75 669.5,-85.75"/>
</g>
<!-- Node138&#45;&gt;Node2 -->
<g id="edge49" class="edge">
<title>Node138&#45;&gt;Node2</title>
<path fill="none" stroke="midnightblue" d="M714.26,-287.55C622.08,-283.3 367.56,-269.53 288,-244 193.57,-213.69 144.4,-218 95,-132 90.57,-124.29 89.05,-118.6 95,-112 119.82,-84.46 361.44,-72.68 472.12,-68.69"/>
<polygon fill="midnightblue" stroke="midnightblue" points="472.54,-72.18 482.41,-68.33 472.3,-65.19 472.54,-72.18"/>
</g>
<!-- Node138&#45;&gt;Node4 -->
<g id="edge52" class="edge">
<title>Node138&#45;&gt;Node4</title>
<path fill="none" stroke="midnightblue" d="M781.51,-284.4C848.6,-275.18 1000.11,-254.36 1083.42,-242.91"/>
<polygon fill="midnightblue" stroke="midnightblue" points="1084.05,-246.36 1093.48,-241.53 1083.09,-239.42 1084.05,-246.36"/>
</g>
<!-- Node138&#45;&gt;Node10 -->
<g id="edge54" class="edge">
<title>Node138&#45;&gt;Node10</title>
<path fill="none" stroke="midnightblue" d="M781.68,-288.93C926.76,-287.76 1494.61,-274.08 1574,-132 1602.42,-81.15 1506.93,-69.5 1444.63,-67.19"/>
<polygon fill="midnightblue" stroke="midnightblue" points="1444.66,-63.69 1434.56,-66.88 1444.45,-70.68 1444.66,-63.69"/>
</g>
<!-- Node138&#45;&gt;Node9 -->
<g id="edge50" class="edge">
<title>Node138&#45;&gt;Node9</title>
<path fill="none" stroke="midnightblue" d="M714.41,-287.66C568.86,-281.4 0,-252.26 0,-179 0,-179 0,-179 0,-121 0,-45.76 558.48,-19.56 745.67,-12.89"/>
<polygon fill="midnightblue" stroke="midnightblue" points="746.01,-16.38 755.89,-12.54 745.77,-9.39 746.01,-16.38"/>
</g>
<!-- Node138&#45;&gt;Node12 -->
<g id="edge53" class="edge">
<title>Node138&#45;&gt;Node12</title>
<path fill="none" stroke="midnightblue" d="M747.69,-280.17C747.18,-251.51 749.59,-160.23 798,-112 812.04,-98.01 831.33,-87.13 847.67,-79.58"/>
<polygon fill="midnightblue" stroke="midnightblue" points="849.15,-82.75 856.89,-75.52 846.33,-76.35 849.15,-82.75"/>
</g>
<!-- Node138&#45;&gt;Node137 -->
<g id="edge51" class="edge">
<title>Node138&#45;&gt;Node137</title>
<path fill="none" stroke="midnightblue" d="M743.59,-280.08C730.57,-253.72 692.12,-175.88 674.72,-140.66"/>
<polygon fill="midnightblue" stroke="midnightblue" points="677.8,-138.98 670.23,-131.57 671.52,-142.08 677.8,-138.98"/>
</g>
<!-- Node139&#45;&gt;Node2 -->
<g id="edge57" class="edge">
<title>Node139&#45;&gt;Node2</title>
<path fill="none" stroke="midnightblue" d="M963.79,-113.55C960.49,-112.99 957.19,-112.47 954,-112 883.48,-101.69 680.04,-81.67 581.62,-72.2"/>
<polygon fill="midnightblue" stroke="midnightblue" points="581.87,-68.71 571.58,-71.24 581.2,-75.68 581.87,-68.71"/>
</g>
<!-- Node139&#45;&gt;Node10 -->
<g id="edge56" class="edge">
<title>Node139&#45;&gt;Node10</title>
<path fill="none" stroke="midnightblue" d="M1040.04,-115.77C1111.48,-105.96 1265.65,-84.77 1345.23,-73.84"/>
<polygon fill="midnightblue" stroke="midnightblue" points="1346.05,-77.26 1355.48,-72.43 1345.1,-70.32 1346.05,-77.26"/>
</g>
<!-- Node139&#45;&gt;Node12 -->
<g id="edge58" class="edge">
<title>Node139&#45;&gt;Node12</title>
<path fill="none" stroke="midnightblue" d="M982.67,-112.44C962.68,-103.6 931.26,-89.69 908.44,-79.59"/>
<polygon fill="midnightblue" stroke="midnightblue" points="909.8,-76.36 899.24,-75.52 906.97,-82.76 909.8,-76.36"/>
</g>
</g>
</svg>
