<?xml version="1.0" encoding="UTF-8" standalone="no"?>
<!DOCTYPE svg PUBLIC "-//W3C//DTD SVG 1.1//EN"
 "http://www.w3.org/Graphics/SVG/1.1/DTD/svg11.dtd">
<!-- Generated by graphviz version 2.43.0 (0)
 -->
<!-- Title: shifter.h Pages: 1 -->
<!--zoomable 532 -->
<svg id="main" version="1.1" xmlns="http://www.w3.org/2000/svg" xmlns:xlink="http://www.w3.org/1999/xlink" xml:space="preserve" onload="init(evt)">
<style type="text/css"><![CDATA[
.edge:hover path { stroke: red; }
.edge:hover polygon { stroke: red; fill: red; }
]]></style>
<script type="text/javascript"><![CDATA[
var edges = document.getElementsByTagName('g');
if (edges && edges.length) {
  for (var i=0;i<edges.length;i++) {
    if (edges[i].id.substr(0,4)=='edge') {
      edges[i].setAttribute('class','edge');
    }
  }
}
]]></script>
        <defs>
                <circle id="rim" cx="0" cy="0" r="7"/>
                <circle id="rim2" cx="0" cy="0" r="3.5"/>
                <g id="zoomPlus">
                        <use xlink:href="#rim" fill="#404040">
                                <set attributeName="fill" to="#808080" begin="zoomplus.mouseover" end="zoomplus.mouseout"/>
                        </use>
                        <path d="M-4,0h8M0,-4v8" fill="none" stroke="white" stroke-width="1.5" pointer-events="none"/>
                </g>
                <g id="zoomMin">
                        <use xlink:href="#rim" fill="#404040">
                                <set attributeName="fill" to="#808080" begin="zoomminus.mouseover" end="zoomminus.mouseout"/>
                        </use>
                        <path d="M-4,0h8" fill="none" stroke="white" stroke-width="1.5" pointer-events="none"/>
                </g>
                <g id="dirArrow">
                        <path fill="none" stroke="white" stroke-width="1.5" d="M0,-3.0v7 M-2.5,-0.5L0,-3.0L2.5,-0.5"/>
                </g>
               <g id="resetDef">
                       <use xlink:href="#rim2" fill="#404040">
                               <set attributeName="fill" to="#808080" begin="reset.mouseover" end="reset.mouseout"/>
                       </use>
               </g>
        </defs>

<script type="text/javascript">
var viewWidth = 2140;
var viewHeight = 532;
var sectionId = 'dynsection-0';
</script>
<script xlink:href="../../svgpan.js"/>
<svg id="graph" class="graph">
<g id="viewport">
<title>shifter.h</title>
<!-- Node1 -->
<g id="node1" class="node">
<title>Node1</title>
<g id="a_node1"><a xlink:title=" ">
<polygon fill="#bfbfbf" stroke="black" points="448.02,-504.5 448.02,-523.5 504.02,-523.5 504.02,-504.5 448.02,-504.5"/>
<text text-anchor="middle" x="476.02" y="-511.5" font-family="Helvetica,sans-Serif" font-size="10.00">shifter.h</text>
</a>
</g>
</g>
<!-- Node2 -->
<g id="node2" class="node">
<title>Node2</title>
<g id="a_node2"><a xlink:title=" ">
<polygon fill="none" stroke="#bfbfbf" points="754.52,-56.5 754.52,-75.5 843.52,-75.5 843.52,-56.5 754.52,-56.5"/>
<text text-anchor="middle" x="799.02" y="-63.5" font-family="Helvetica,sans-Serif" font-size="10.00">limes_export.h</text>
</a>
</g>
</g>
<!-- Node1&#45;&gt;Node2 -->
<g id="edge1" class="edge">
<title>Node1&#45;&gt;Node2</title>
<path fill="none" stroke="midnightblue" d="M447.96,-512.01C351.29,-507.86 38.02,-487.87 38.02,-403 38.02,-403 38.02,-403 38.02,-289 38.02,-114.68 220.92,-161.62 388.02,-112 421.4,-102.09 640.3,-81.35 744.31,-71.89"/>
<polygon fill="midnightblue" stroke="midnightblue" points="744.67,-75.37 754.31,-70.98 744.03,-68.4 744.67,-75.37"/>
</g>
<!-- Node3 -->
<g id="node3" class="node">
<title>Node3</title>
<g id="a_node3"><a xlink:href="../../d8/d1d/limes__data__structures_8h_source.html" target="_top" xlink:title=" ">
<polygon fill="none" stroke="black" points="745.02,-336.5 745.02,-355.5 879.02,-355.5 879.02,-336.5 745.02,-336.5"/>
<text text-anchor="middle" x="812.02" y="-343.5" font-family="Helvetica,sans-Serif" font-size="10.00">limes_data_structures.h</text>
</a>
</g>
</g>
<!-- Node1&#45;&gt;Node3 -->
<g id="edge2" class="edge">
<title>Node1&#45;&gt;Node3</title>
<path fill="none" stroke="midnightblue" d="M504.1,-510.69C543.15,-506.57 615.22,-495.62 670.02,-468 723.79,-440.9 774.34,-389.36 798,-363.16"/>
<polygon fill="midnightblue" stroke="midnightblue" points="800.68,-365.41 804.71,-355.61 795.45,-360.76 800.68,-365.41"/>
</g>
<!-- Node10 -->
<g id="node6" class="node">
<title>Node10</title>
<g id="a_node6"><a xlink:href="../../d9/df8/limes__core_8h.html" target="_top" xlink:title=" ">
<polygon fill="none" stroke="red" points="321.52,-56.5 321.52,-75.5 400.52,-75.5 400.52,-56.5 321.52,-56.5"/>
<text text-anchor="middle" x="361.02" y="-63.5" font-family="Helvetica,sans-Serif" font-size="10.00">limes_core.h</text>
</a>
</g>
</g>
<!-- Node1&#45;&gt;Node10 -->
<g id="edge85" class="edge">
<title>Node1&#45;&gt;Node10</title>
<path fill="none" stroke="midnightblue" d="M447.86,-511.92C354.27,-508.08 57.6,-493.96 24.02,-468 -0.34,-449.16 0.02,-433.8 0.02,-403 0.02,-403 0.02,-403 0.02,-177 0.02,-135.19 30.52,-130.47 68.02,-112 109.83,-91.41 239.11,-77.43 311.18,-71.02"/>
<polygon fill="midnightblue" stroke="midnightblue" points="311.73,-74.48 321.39,-70.12 311.12,-67.51 311.73,-74.48"/>
</g>
<!-- Node12 -->
<g id="node8" class="node">
<title>Node12</title>
<g id="a_node8"><a xlink:href="../../da/d0b/limes__namespace_8h.html" target="_top" xlink:title=" ">
<polygon fill="none" stroke="black" points="1659.02,-56.5 1659.02,-75.5 1773.02,-75.5 1773.02,-56.5 1659.02,-56.5"/>
<text text-anchor="middle" x="1716.02" y="-63.5" font-family="Helvetica,sans-Serif" font-size="10.00">limes_namespace.h</text>
</a>
</g>
</g>
<!-- Node1&#45;&gt;Node12 -->
<g id="edge84" class="edge">
<title>Node1&#45;&gt;Node12</title>
<path fill="none" stroke="midnightblue" d="M504.07,-512.66C721.68,-509.81 2132.02,-488.09 2132.02,-403 2132.02,-403 2132.02,-403 2132.02,-177 2132.02,-139.72 2111.64,-130.04 2079.02,-112 2029.66,-84.71 1873.99,-73.62 1783.34,-69.4"/>
<polygon fill="midnightblue" stroke="midnightblue" points="1783.3,-65.89 1773.16,-68.94 1782.99,-72.88 1783.3,-65.89"/>
</g>
<!-- Node139 -->
<g id="node22" class="node">
<title>Node139</title>
<g id="a_node22"><a xlink:href="../../d5/d84/_sample_stream_8h.html" target="_top" xlink:title=" ">
<polygon fill="none" stroke="black" points="299.52,-392.5 299.52,-411.5 448.52,-411.5 448.52,-392.5 299.52,-392.5"/>
<text text-anchor="middle" x="374.02" y="-399.5" font-family="Helvetica,sans-Serif" font-size="10.00">../streams/SampleStream.h</text>
</a>
</g>
</g>
<!-- Node1&#45;&gt;Node139 -->
<g id="edge55" class="edge">
<title>Node1&#45;&gt;Node139</title>
<path fill="none" stroke="midnightblue" d="M468.02,-504.37C450.96,-485.97 410.81,-442.67 388.91,-419.05"/>
<polygon fill="midnightblue" stroke="midnightblue" points="391.36,-416.54 381.99,-411.59 386.22,-421.3 391.36,-416.54"/>
</g>
<!-- Node140 -->
<g id="node23" class="node">
<title>Node140</title>
<g id="a_node23"><a xlink:href="../../d1/df0/limes__audio_2util_2_misc_8h.html" target="_top" xlink:title=" ">
<polygon fill="none" stroke="black" points="438.02,-336.5 438.02,-355.5 514.02,-355.5 514.02,-336.5 438.02,-336.5"/>
<text text-anchor="middle" x="476.02" y="-343.5" font-family="Helvetica,sans-Serif" font-size="10.00">../util/Misc.h</text>
</a>
</g>
</g>
<!-- Node1&#45;&gt;Node140 -->
<g id="edge83" class="edge">
<title>Node1&#45;&gt;Node140</title>
<path fill="none" stroke="midnightblue" d="M476.02,-504.08C476.02,-477.95 476.02,-401.21 476.02,-365.58"/>
<polygon fill="midnightblue" stroke="midnightblue" points="479.52,-365.57 476.02,-355.57 472.52,-365.57 479.52,-365.57"/>
</g>
<!-- Node141 -->
<g id="node24" class="node">
<title>Node141</title>
<g id="a_node24"><a xlink:href="../../d3/d19/analyzer_8h.html" target="_top" xlink:title=" ">
<polygon fill="none" stroke="black" points="593.52,-448.5 593.52,-467.5 660.52,-467.5 660.52,-448.5 593.52,-448.5"/>
<text text-anchor="middle" x="627.02" y="-455.5" font-family="Helvetica,sans-Serif" font-size="10.00">analyzer.h</text>
</a>
</g>
</g>
<!-- Node1&#45;&gt;Node141 -->
<g id="edge65" class="edge">
<title>Node1&#45;&gt;Node141</title>
<path fill="none" stroke="midnightblue" d="M499.95,-504.44C525.24,-495.4 565.33,-481.06 593.7,-470.92"/>
<polygon fill="midnightblue" stroke="midnightblue" points="594.97,-474.18 603.21,-467.52 592.61,-467.59 594.97,-474.18"/>
</g>
<!-- Node4 -->
<g id="node4" class="node">
<title>Node4</title>
<g id="a_node4"><a xlink:href="../../d6/d68/vector_8h_source.html" target="_top" xlink:title=" ">
<polygon fill="none" stroke="black" points="1086.52,-224.5 1086.52,-243.5 1181.52,-243.5 1181.52,-224.5 1086.52,-224.5"/>
<text text-anchor="middle" x="1134.02" y="-231.5" font-family="Helvetica,sans-Serif" font-size="10.00">vectors/vector.h</text>
</a>
</g>
</g>
<!-- Node3&#45;&gt;Node4 -->
<g id="edge3" class="edge">
<title>Node3&#45;&gt;Node4</title>
<path fill="none" stroke="midnightblue" d="M837.02,-336.46C893.97,-317.01 1033.46,-269.36 1098.96,-246.98"/>
<polygon fill="midnightblue" stroke="midnightblue" points="1100.49,-250.16 1108.82,-243.61 1098.22,-243.53 1100.49,-250.16"/>
</g>
<!-- Node131 -->
<g id="node11" class="node">
<title>Node131</title>
<g id="a_node11"><a xlink:href="../../d2/dd0/owned__vector_8h_source.html" target="_top" xlink:title=" ">
<polygon fill="none" stroke="black" points="809.02,-168.5 809.02,-187.5 941.02,-187.5 941.02,-168.5 809.02,-168.5"/>
<text text-anchor="middle" x="875.02" y="-175.5" font-family="Helvetica,sans-Serif" font-size="10.00">vectors/owned_vector.h</text>
</a>
</g>
</g>
<!-- Node3&#45;&gt;Node131 -->
<g id="edge18" class="edge">
<title>Node3&#45;&gt;Node131</title>
<path fill="none" stroke="midnightblue" d="M815.41,-336.08C825.37,-309.83 854.7,-232.55 868.15,-197.12"/>
<polygon fill="midnightblue" stroke="midnightblue" points="871.49,-198.16 871.77,-187.57 864.95,-195.68 871.49,-198.16"/>
</g>
<!-- Node132 -->
<g id="node14" class="node">
<title>Node132</title>
<g id="a_node14"><a xlink:href="../../d0/dd0/_dimensions_8h_source.html" target="_top" xlink:title=" ">
<polygon fill="none" stroke="black" points="1216.02,-112.5 1216.02,-131.5 1378.02,-131.5 1378.02,-112.5 1216.02,-112.5"/>
<text text-anchor="middle" x="1297.02" y="-119.5" font-family="Helvetica,sans-Serif" font-size="10.00">data_structures/Dimensions.h</text>
</a>
</g>
</g>
<!-- Node3&#45;&gt;Node132 -->
<g id="edge25" class="edge">
<title>Node3&#45;&gt;Node132</title>
<path fill="none" stroke="midnightblue" d="M879.09,-339.19C958.77,-329.69 1093.21,-305.28 1191.02,-244 1234.44,-216.8 1270.07,-166.44 1286.77,-140.08"/>
<polygon fill="midnightblue" stroke="midnightblue" points="1289.77,-141.9 1292.05,-131.55 1283.82,-138.21 1289.77,-141.9"/>
</g>
<!-- Node133 -->
<g id="node15" class="node">
<title>Node133</title>
<g id="a_node15"><a xlink:href="../../d1/d4c/_linked_list_model_8h_source.html" target="_top" xlink:title=" ">
<polygon fill="none" stroke="black" points="1794.52,-168.5 1794.52,-187.5 1951.52,-187.5 1951.52,-168.5 1794.52,-168.5"/>
<text text-anchor="middle" x="1873.02" y="-175.5" font-family="Helvetica,sans-Serif" font-size="10.00">linked_list/LinkedListModel.h</text>
</a>
</g>
</g>
<!-- Node3&#45;&gt;Node133 -->
<g id="edge30" class="edge">
<title>Node3&#45;&gt;Node133</title>
<path fill="none" stroke="midnightblue" d="M879.26,-342.81C1029.24,-337.58 1387.27,-323.04 1506.02,-300 1635.48,-274.89 1782.5,-217.01 1843.79,-191.48"/>
<polygon fill="midnightblue" stroke="midnightblue" points="1845.34,-194.62 1853.21,-187.53 1842.64,-188.17 1845.34,-194.62"/>
</g>
<!-- Node135 -->
<g id="node17" class="node">
<title>Node135</title>
<g id="a_node17"><a xlink:href="../../de/dc6/_linked_list_8h.html" target="_top" xlink:title=" ">
<polygon fill="none" stroke="black" points="897.52,-224.5 897.52,-243.5 1024.52,-243.5 1024.52,-224.5 897.52,-224.5"/>
<text text-anchor="middle" x="961.02" y="-231.5" font-family="Helvetica,sans-Serif" font-size="10.00">linked_list/LinkedList.h</text>
</a>
</g>
</g>
<!-- Node3&#45;&gt;Node135 -->
<g id="edge35" class="edge">
<title>Node3&#45;&gt;Node135</title>
<path fill="none" stroke="midnightblue" d="M823.72,-336.38C836,-327.32 855.87,-312.66 873.02,-300 896.32,-282.81 923.07,-263.04 940.9,-249.87"/>
<polygon fill="midnightblue" stroke="midnightblue" points="943.39,-252.38 949.35,-243.62 939.23,-246.75 943.39,-252.38"/>
</g>
<!-- Node137 -->
<g id="node19" class="node">
<title>Node137</title>
<g id="a_node19"><a xlink:href="../../d9/daa/_abstract_f_i_f_o_8h_source.html" target="_top" xlink:title=" ">
<polygon fill="none" stroke="black" points="606.52,-112.5 606.52,-131.5 713.52,-131.5 713.52,-112.5 606.52,-112.5"/>
<text text-anchor="middle" x="660.02" y="-119.5" font-family="Helvetica,sans-Serif" font-size="10.00">fifo/AbstractFIFO.h</text>
</a>
</g>
</g>
<!-- Node3&#45;&gt;Node137 -->
<g id="edge43" class="edge">
<title>Node3&#45;&gt;Node137</title>
<path fill="none" stroke="midnightblue" d="M791.15,-336.49C774.86,-328.96 752.63,-316.59 738.02,-300 695.54,-251.78 672.99,-176.74 664.3,-141.93"/>
<polygon fill="midnightblue" stroke="midnightblue" points="667.61,-140.68 661.88,-131.76 660.8,-142.3 667.61,-140.68"/>
</g>
<!-- Node138 -->
<g id="node21" class="node">
<title>Node138</title>
<g id="a_node21"><a xlink:href="../../dd/d35/_f_i_f_o_8h_source.html" target="_top" xlink:title=" ">
<polygon fill="none" stroke="black" points="746.52,-280.5 746.52,-299.5 813.52,-299.5 813.52,-280.5 746.52,-280.5"/>
<text text-anchor="middle" x="780.02" y="-287.5" font-family="Helvetica,sans-Serif" font-size="10.00">fifo/FIFO.h</text>
</a>
</g>
</g>
<!-- Node3&#45;&gt;Node138 -->
<g id="edge48" class="edge">
<title>Node3&#45;&gt;Node138</title>
<path fill="none" stroke="midnightblue" d="M806.74,-336.08C802.31,-328.61 795.86,-317.72 790.4,-308.52"/>
<polygon fill="midnightblue" stroke="midnightblue" points="793.32,-306.57 785.21,-299.75 787.3,-310.14 793.32,-306.57"/>
</g>
<!-- Node5 -->
<g id="node5" class="node">
<title>Node5</title>
<g id="a_node5"><a xlink:href="../../d5/d47/basic__vector_8h_source.html" target="_top" xlink:title=" ">
<polygon fill="none" stroke="red" points="1036.02,-112.5 1036.02,-131.5 1122.02,-131.5 1122.02,-112.5 1036.02,-112.5"/>
<text text-anchor="middle" x="1079.02" y="-119.5" font-family="Helvetica,sans-Serif" font-size="10.00">basic_vector.h</text>
</a>
</g>
</g>
<!-- Node4&#45;&gt;Node5 -->
<g id="edge4" class="edge">
<title>Node4&#45;&gt;Node5</title>
<path fill="none" stroke="midnightblue" d="M1132.57,-224.18C1130.21,-211.28 1124.79,-186.78 1115.02,-168 1109.61,-157.59 1101.6,-147.28 1094.51,-139.15"/>
<polygon fill="midnightblue" stroke="midnightblue" points="1096.93,-136.6 1087.6,-131.57 1091.75,-141.32 1096.93,-136.6"/>
</g>
<!-- Node4&#45;&gt;Node10 -->
<g id="edge17" class="edge">
<title>Node4&#45;&gt;Node10</title>
<path fill="none" stroke="midnightblue" d="M1086.46,-227.66C939.21,-210.91 497.16,-158.93 438.02,-132 413.04,-120.62 389.75,-98.77 375.46,-83.56"/>
<polygon fill="midnightblue" stroke="midnightblue" points="377.82,-80.94 368.5,-75.9 372.64,-85.65 377.82,-80.94"/>
</g>
<!-- Node4&#45;&gt;Node12 -->
<g id="edge16" class="edge">
<title>Node4&#45;&gt;Node12</title>
<path fill="none" stroke="midnightblue" d="M1181.55,-233.42C1254.09,-232.72 1395.9,-226.02 1509.02,-188 1584,-162.8 1661.72,-108.35 1696.8,-81.95"/>
<polygon fill="midnightblue" stroke="midnightblue" points="1699.32,-84.43 1705.15,-75.59 1695.08,-78.86 1699.32,-84.43"/>
</g>
<!-- Node130 -->
<g id="node9" class="node">
<title>Node130</title>
<g id="a_node9"><a xlink:href="../../d2/d8d/scalar__vector_8h_source.html" target="_top" xlink:title=" ">
<polygon fill="none" stroke="red" points="1016.02,-168.5 1016.02,-187.5 1106.02,-187.5 1106.02,-168.5 1016.02,-168.5"/>
<text text-anchor="middle" x="1061.02" y="-175.5" font-family="Helvetica,sans-Serif" font-size="10.00">scalar_vector.h</text>
</a>
</g>
</g>
<!-- Node4&#45;&gt;Node130 -->
<g id="edge10" class="edge">
<title>Node4&#45;&gt;Node130</title>
<path fill="none" stroke="midnightblue" d="M1122.29,-224.32C1111.19,-216.11 1094.28,-203.6 1081.04,-193.81"/>
<polygon fill="midnightblue" stroke="midnightblue" points="1083.09,-190.97 1072.96,-187.83 1078.92,-196.59 1083.09,-190.97"/>
</g>
<!-- Node8 -->
<g id="node10" class="node">
<title>Node8</title>
<g id="a_node10"><a xlink:title=" ">
<polygon fill="none" stroke="#bfbfbf" points="1363.02,-56.5 1363.02,-75.5 1407.02,-75.5 1407.02,-56.5 1363.02,-56.5"/>
<text text-anchor="middle" x="1385.02" y="-63.5" font-family="Helvetica,sans-Serif" font-size="10.00">string</text>
</a>
</g>
</g>
<!-- Node4&#45;&gt;Node8 -->
<g id="edge15" class="edge">
<title>Node4&#45;&gt;Node8</title>
<path fill="none" stroke="midnightblue" d="M1181.91,-229.57C1287.14,-220.94 1533.11,-194.39 1583.02,-132 1627.86,-75.95 1484.3,-67.74 1417.41,-66.88"/>
<polygon fill="midnightblue" stroke="midnightblue" points="1417.4,-63.38 1407.37,-66.8 1417.34,-70.38 1417.4,-63.38"/>
</g>
<!-- Node5&#45;&gt;Node2 -->
<g id="edge7" class="edge">
<title>Node5&#45;&gt;Node2</title>
<path fill="none" stroke="midnightblue" d="M1035.89,-112.68C986.74,-103.2 906.37,-87.7 853.08,-77.43"/>
<polygon fill="midnightblue" stroke="midnightblue" points="853.61,-73.96 843.13,-75.51 852.29,-80.84 853.61,-73.96"/>
</g>
<!-- Node5&#45;&gt;Node10 -->
<g id="edge5" class="edge">
<title>Node5&#45;&gt;Node10</title>
<path fill="none" stroke="midnightblue" d="M1035.99,-117.76C910.38,-108.32 544.65,-80.81 410.82,-70.75"/>
<polygon fill="midnightblue" stroke="midnightblue" points="411.08,-67.26 400.85,-70 410.56,-74.24 411.08,-67.26"/>
</g>
<!-- Node9 -->
<g id="node7" class="node">
<title>Node9</title>
<g id="a_node7"><a xlink:title=" ">
<polygon fill="none" stroke="#bfbfbf" points="698.02,-0.5 698.02,-19.5 798.02,-19.5 798.02,-0.5 698.02,-0.5"/>
<text text-anchor="middle" x="748.02" y="-7.5" font-family="Helvetica,sans-Serif" font-size="10.00">limes_platform.h</text>
</a>
</g>
</g>
<!-- Node5&#45;&gt;Node9 -->
<g id="edge8" class="edge">
<title>Node5&#45;&gt;Node9</title>
<path fill="none" stroke="midnightblue" d="M1053.33,-112.46C994.67,-92.97 850.81,-45.16 783.65,-22.84"/>
<polygon fill="midnightblue" stroke="midnightblue" points="784.53,-19.44 773.93,-19.61 782.32,-26.09 784.53,-19.44"/>
</g>
<!-- Node5&#45;&gt;Node12 -->
<g id="edge9" class="edge">
<title>Node5&#45;&gt;Node12</title>
<path fill="none" stroke="midnightblue" d="M1122.31,-117.33C1231.22,-108.1 1517.31,-83.85 1648.52,-72.72"/>
<polygon fill="midnightblue" stroke="midnightblue" points="1649.16,-76.18 1658.83,-71.85 1648.57,-69.21 1649.16,-76.18"/>
</g>
<!-- Node10&#45;&gt;Node9 -->
<g id="edge6" class="edge">
<title>Node10&#45;&gt;Node9</title>
<path fill="none" stroke="midnightblue" d="M400.62,-59.47C468.6,-49.99 607.92,-30.55 687.93,-19.38"/>
<polygon fill="midnightblue" stroke="midnightblue" points="688.44,-22.85 697.86,-18 687.48,-15.91 688.44,-22.85"/>
</g>
<!-- Node130&#45;&gt;Node2 -->
<g id="edge13" class="edge">
<title>Node130&#45;&gt;Node2</title>
<path fill="none" stroke="midnightblue" d="M1053.41,-168.38C1040.54,-154.37 1013.04,-126.73 984.02,-112 942.9,-91.12 891.65,-79.63 853.52,-73.5"/>
<polygon fill="midnightblue" stroke="midnightblue" points="854.05,-70.04 843.63,-71.98 852.98,-76.96 854.05,-70.04"/>
</g>
<!-- Node130&#45;&gt;Node5 -->
<g id="edge11" class="edge">
<title>Node130&#45;&gt;Node5</title>
<path fill="none" stroke="midnightblue" d="M1063.99,-168.08C1066.41,-160.85 1069.89,-150.41 1072.89,-141.4"/>
<polygon fill="midnightblue" stroke="midnightblue" points="1076.26,-142.34 1076.11,-131.75 1069.62,-140.13 1076.26,-142.34"/>
</g>
<!-- Node130&#45;&gt;Node10 -->
<g id="edge12" class="edge">
<title>Node130&#45;&gt;Node10</title>
<path fill="none" stroke="midnightblue" d="M1046.07,-168.41C1020.01,-153.92 964.17,-124.93 913.02,-112 818.58,-88.13 527.8,-73.85 410.67,-68.94"/>
<polygon fill="midnightblue" stroke="midnightblue" points="410.69,-65.44 400.55,-68.52 410.4,-72.43 410.69,-65.44"/>
</g>
<!-- Node130&#45;&gt;Node12 -->
<g id="edge14" class="edge">
<title>Node130&#45;&gt;Node12</title>
<path fill="none" stroke="midnightblue" d="M1106.24,-173.05C1189.07,-165.52 1362,-148.41 1420.02,-132 1440.69,-126.15 1443.51,-118.38 1464.02,-112 1525.29,-92.94 1597.6,-81.06 1649.01,-74.33"/>
<polygon fill="midnightblue" stroke="midnightblue" points="1649.53,-77.79 1659.01,-73.05 1648.65,-70.85 1649.53,-77.79"/>
</g>
<!-- Node131&#45;&gt;Node2 -->
<g id="edge22" class="edge">
<title>Node131&#45;&gt;Node2</title>
<path fill="none" stroke="midnightblue" d="M866.98,-168.4C858.95,-159.6 846.46,-145.36 837.02,-132 826.2,-116.69 815.58,-98.13 808.33,-84.77"/>
<polygon fill="midnightblue" stroke="midnightblue" points="811.29,-82.88 803.49,-75.7 805.11,-86.17 811.29,-82.88"/>
</g>
<!-- Node131&#45;&gt;Node5 -->
<g id="edge19" class="edge">
<title>Node131&#45;&gt;Node5</title>
<path fill="none" stroke="midnightblue" d="M907.35,-168.44C942.41,-159.16 998.52,-144.31 1036.99,-134.13"/>
<polygon fill="midnightblue" stroke="midnightblue" points="1038.08,-137.46 1046.85,-131.52 1036.29,-130.69 1038.08,-137.46"/>
</g>
<!-- Node131&#45;&gt;Node10 -->
<g id="edge24" class="edge">
<title>Node131&#45;&gt;Node10</title>
<path fill="none" stroke="midnightblue" d="M810.29,-168.48C753.92,-160.58 670.15,-147.7 598.02,-132 578.77,-127.81 463.91,-95.82 401.44,-78.34"/>
<polygon fill="midnightblue" stroke="midnightblue" points="402.09,-74.89 391.52,-75.56 400.2,-81.63 402.09,-74.89"/>
</g>
<!-- Node131&#45;&gt;Node12 -->
<g id="edge23" class="edge">
<title>Node131&#45;&gt;Node12</title>
<path fill="none" stroke="midnightblue" d="M941.25,-171.98C1074.94,-161.74 1366.17,-138.83 1387.02,-132 1403.32,-126.67 1403.9,-117.85 1420.02,-112 1495.32,-84.7 1587.21,-73.96 1648.44,-69.74"/>
<polygon fill="midnightblue" stroke="midnightblue" points="1649,-73.21 1658.75,-69.07 1648.54,-66.22 1649,-73.21"/>
</g>
<!-- Node37 -->
<g id="node12" class="node">
<title>Node37</title>
<g id="a_node12"><a xlink:title=" ">
<polygon fill="none" stroke="#bfbfbf" points="846.02,-112.5 846.02,-131.5 904.02,-131.5 904.02,-112.5 846.02,-112.5"/>
<text text-anchor="middle" x="875.02" y="-119.5" font-family="Helvetica,sans-Serif" font-size="10.00">memory</text>
</a>
</g>
</g>
<!-- Node131&#45;&gt;Node37 -->
<g id="edge20" class="edge">
<title>Node131&#45;&gt;Node37</title>
<path fill="none" stroke="midnightblue" d="M875.02,-168.08C875.02,-161.01 875.02,-150.86 875.02,-141.99"/>
<polygon fill="midnightblue" stroke="midnightblue" points="878.52,-141.75 875.02,-131.75 871.52,-141.75 878.52,-141.75"/>
</g>
<!-- Node25 -->
<g id="node13" class="node">
<title>Node25</title>
<g id="a_node13"><a xlink:title=" ">
<polygon fill="none" stroke="#bfbfbf" points="446.52,-112.5 446.52,-131.5 511.52,-131.5 511.52,-112.5 446.52,-112.5"/>
<text text-anchor="middle" x="479.02" y="-119.5" font-family="Helvetica,sans-Serif" font-size="10.00">functional</text>
</a>
</g>
</g>
<!-- Node131&#45;&gt;Node25 -->
<g id="edge21" class="edge">
<title>Node131&#45;&gt;Node25</title>
<path fill="none" stroke="midnightblue" d="M812.28,-168.44C731.06,-157.37 591.7,-138.36 521.73,-128.82"/>
<polygon fill="midnightblue" stroke="midnightblue" points="521.9,-125.32 511.52,-127.43 520.96,-132.25 521.9,-125.32"/>
</g>
<!-- Node132&#45;&gt;Node2 -->
<g id="edge26" class="edge">
<title>Node132&#45;&gt;Node2</title>
<path fill="none" stroke="midnightblue" d="M1218.39,-112.47C1116.75,-101.45 942.36,-82.54 853.91,-72.95"/>
<polygon fill="midnightblue" stroke="midnightblue" points="854.14,-69.46 843.82,-71.86 853.39,-76.42 854.14,-69.46"/>
</g>
<!-- Node132&#45;&gt;Node10 -->
<g id="edge28" class="edge">
<title>Node132&#45;&gt;Node10</title>
<path fill="none" stroke="midnightblue" d="M1216,-116.33C1027.37,-105.44 563.32,-78.67 410.62,-69.86"/>
<polygon fill="midnightblue" stroke="midnightblue" points="410.78,-66.36 400.6,-69.28 410.38,-73.35 410.78,-66.36"/>
</g>
<!-- Node132&#45;&gt;Node12 -->
<g id="edge27" class="edge">
<title>Node132&#45;&gt;Node12</title>
<path fill="none" stroke="midnightblue" d="M1363.41,-112.44C1441.48,-102.38 1570.33,-85.78 1648.77,-75.67"/>
<polygon fill="midnightblue" stroke="midnightblue" points="1649.55,-79.1 1659.02,-74.35 1648.66,-72.15 1649.55,-79.1"/>
</g>
<!-- Node132&#45;&gt;Node8 -->
<g id="edge29" class="edge">
<title>Node132&#45;&gt;Node8</title>
<path fill="none" stroke="midnightblue" d="M1311.16,-112.32C1324.89,-103.9 1345.96,-90.97 1362.09,-81.07"/>
<polygon fill="midnightblue" stroke="midnightblue" points="1364.23,-83.87 1370.92,-75.65 1360.57,-77.9 1364.23,-83.87"/>
</g>
<!-- Node133&#45;&gt;Node2 -->
<g id="edge31" class="edge">
<title>Node133&#45;&gt;Node2</title>
<path fill="none" stroke="midnightblue" d="M1794.39,-169.2C1789.53,-168.78 1784.71,-168.37 1780.02,-168 1525.66,-147.71 1454.32,-194.89 1207.02,-132 1186.6,-126.8 1184.28,-117.8 1164.02,-112 1056.96,-81.33 926.35,-71.56 853.98,-68.45"/>
<polygon fill="midnightblue" stroke="midnightblue" points="853.87,-64.95 843.73,-68.04 853.59,-71.94 853.87,-64.95"/>
</g>
<!-- Node133&#45;&gt;Node12 -->
<g id="edge32" class="edge">
<title>Node133&#45;&gt;Node12</title>
<path fill="none" stroke="midnightblue" d="M1860.7,-168.37C1833.88,-149.57 1769.93,-104.77 1736.77,-81.53"/>
<polygon fill="midnightblue" stroke="midnightblue" points="1738.48,-78.46 1728.28,-75.59 1734.47,-84.2 1738.48,-78.46"/>
</g>
<!-- Node134 -->
<g id="node16" class="node">
<title>Node134</title>
<g id="a_node16"><a xlink:href="../../d3/da1/_linked_list_model__impl_8h.html" target="_top" xlink:title=" ">
<polygon fill="none" stroke="red" points="1820.52,-112.5 1820.52,-131.5 1951.52,-131.5 1951.52,-112.5 1820.52,-112.5"/>
<text text-anchor="middle" x="1886.02" y="-119.5" font-family="Helvetica,sans-Serif" font-size="10.00">LinkedListModel_impl.h</text>
</a>
</g>
</g>
<!-- Node133&#45;&gt;Node134 -->
<g id="edge33" class="edge">
<title>Node133&#45;&gt;Node134</title>
<path fill="none" stroke="midnightblue" d="M1875.17,-168.08C1876.89,-160.93 1879.37,-150.64 1881.52,-141.69"/>
<polygon fill="midnightblue" stroke="midnightblue" points="1884.98,-142.29 1883.92,-131.75 1878.17,-140.65 1884.98,-142.29"/>
</g>
<!-- Node134&#45;&gt;Node12 -->
<g id="edge34" class="edge">
<title>Node134&#45;&gt;Node12</title>
<path fill="none" stroke="midnightblue" d="M1859.09,-112.44C1830.36,-103.32 1784.69,-88.81 1752.7,-78.65"/>
<polygon fill="midnightblue" stroke="midnightblue" points="1753.42,-75.21 1742.83,-75.52 1751.3,-81.88 1753.42,-75.21"/>
</g>
<!-- Node135&#45;&gt;Node2 -->
<g id="edge36" class="edge">
<title>Node135&#45;&gt;Node2</title>
<path fill="none" stroke="midnightblue" d="M960.69,-224.28C959.95,-211.51 957.58,-187.16 950.02,-168 939.08,-140.25 936.19,-130.79 913.02,-112 893.68,-96.31 868.18,-85.56 846.21,-78.51"/>
<polygon fill="midnightblue" stroke="midnightblue" points="846.98,-75.09 836.4,-75.53 844.95,-81.79 846.98,-75.09"/>
</g>
<!-- Node135&#45;&gt;Node10 -->
<g id="edge39" class="edge">
<title>Node135&#45;&gt;Node10</title>
<path fill="none" stroke="midnightblue" d="M897.32,-227.74C768.94,-216.13 484.54,-185.08 404.02,-132 386.95,-120.75 375.05,-100.13 368.16,-85.12"/>
<polygon fill="midnightblue" stroke="midnightblue" points="371.34,-83.64 364.2,-75.81 364.9,-86.39 371.34,-83.64"/>
</g>
<!-- Node135&#45;&gt;Node12 -->
<g id="edge38" class="edge">
<title>Node135&#45;&gt;Node12</title>
<path fill="none" stroke="midnightblue" d="M1024.73,-225.38C1161.67,-208.55 1480,-166.95 1583.02,-132 1601.1,-125.87 1603.95,-120.53 1621.02,-112 1643.4,-100.82 1669.06,-88.7 1688.06,-79.87"/>
<polygon fill="midnightblue" stroke="midnightblue" points="1689.74,-82.95 1697.34,-75.57 1686.8,-76.6 1689.74,-82.95"/>
</g>
<!-- Node135&#45;&gt;Node131 -->
<g id="edge37" class="edge">
<title>Node135&#45;&gt;Node131</title>
<path fill="none" stroke="midnightblue" d="M947.21,-224.32C933.79,-215.9 913.2,-202.97 897.44,-193.07"/>
<polygon fill="midnightblue" stroke="midnightblue" points="899.14,-190.01 888.81,-187.65 895.41,-195.94 899.14,-190.01"/>
</g>
<!-- Node136 -->
<g id="node18" class="node">
<title>Node136</title>
<g id="a_node18"><a xlink:href="../../d5/dea/_linked_list__impl_8h.html" target="_top" xlink:title=" ">
<polygon fill="none" stroke="red" points="1472.52,-112.5 1472.52,-131.5 1573.52,-131.5 1573.52,-112.5 1472.52,-112.5"/>
<text text-anchor="middle" x="1523.02" y="-119.5" font-family="Helvetica,sans-Serif" font-size="10.00">LinkedList_impl.h</text>
</a>
</g>
</g>
<!-- Node135&#45;&gt;Node136 -->
<g id="edge40" class="edge">
<title>Node135&#45;&gt;Node136</title>
<path fill="none" stroke="midnightblue" d="M1004.65,-224.46C1106.32,-204.56 1358.71,-155.16 1469.47,-133.48"/>
<polygon fill="midnightblue" stroke="midnightblue" points="1470.28,-136.89 1479.42,-131.53 1468.93,-130.02 1470.28,-136.89"/>
</g>
<!-- Node136&#45;&gt;Node9 -->
<g id="edge41" class="edge">
<title>Node136&#45;&gt;Node9</title>
<path fill="none" stroke="midnightblue" d="M1512.63,-112.29C1494.42,-97.61 1454.98,-68.33 1416.02,-56 1303.86,-20.49 951.38,-13 808.79,-11.42"/>
<polygon fill="midnightblue" stroke="midnightblue" points="808.52,-7.92 798.49,-11.31 808.45,-14.92 808.52,-7.92"/>
</g>
<!-- Node136&#45;&gt;Node12 -->
<g id="edge42" class="edge">
<title>Node136&#45;&gt;Node12</title>
<path fill="none" stroke="midnightblue" d="M1553.6,-112.44C1586.64,-103.2 1639.41,-88.44 1675.79,-78.26"/>
<polygon fill="midnightblue" stroke="midnightblue" points="1676.9,-81.58 1685.58,-75.52 1675.01,-74.84 1676.9,-81.58"/>
</g>
<!-- Node137&#45;&gt;Node2 -->
<g id="edge45" class="edge">
<title>Node137&#45;&gt;Node2</title>
<path fill="none" stroke="midnightblue" d="M682.05,-112.44C705.13,-103.48 741.58,-89.31 767.66,-79.18"/>
<polygon fill="midnightblue" stroke="midnightblue" points="769.05,-82.4 777.1,-75.52 766.51,-75.88 769.05,-82.4"/>
</g>
<!-- Node137&#45;&gt;Node10 -->
<g id="edge47" class="edge">
<title>Node137&#45;&gt;Node10</title>
<path fill="none" stroke="midnightblue" d="M612.65,-112.44C557.46,-102.48 466.71,-86.09 410.6,-75.95"/>
<polygon fill="midnightblue" stroke="midnightblue" points="411,-72.47 400.54,-74.14 409.76,-79.36 411,-72.47"/>
</g>
<!-- Node137&#45;&gt;Node12 -->
<g id="edge46" class="edge">
<title>Node137&#45;&gt;Node12</title>
<path fill="none" stroke="midnightblue" d="M713.84,-118.25C890.67,-109.21 1453.59,-80.42 1648.68,-70.44"/>
<polygon fill="midnightblue" stroke="midnightblue" points="1648.99,-73.93 1658.8,-69.93 1648.63,-66.94 1648.99,-73.93"/>
</g>
<!-- Node27 -->
<g id="node20" class="node">
<title>Node27</title>
<g id="a_node20"><a xlink:title=" ">
<polygon fill="none" stroke="#bfbfbf" points="635.02,-56.5 635.02,-75.5 685.02,-75.5 685.02,-56.5 635.02,-56.5"/>
<text text-anchor="middle" x="660.02" y="-63.5" font-family="Helvetica,sans-Serif" font-size="10.00">atomic</text>
</a>
</g>
</g>
<!-- Node137&#45;&gt;Node27 -->
<g id="edge44" class="edge">
<title>Node137&#45;&gt;Node27</title>
<path fill="none" stroke="midnightblue" d="M660.02,-112.08C660.02,-105.01 660.02,-94.86 660.02,-85.99"/>
<polygon fill="midnightblue" stroke="midnightblue" points="663.52,-85.75 660.02,-75.75 656.52,-85.75 663.52,-85.75"/>
</g>
<!-- Node138&#45;&gt;Node2 -->
<g id="edge49" class="edge">
<title>Node138&#45;&gt;Node2</title>
<path fill="none" stroke="midnightblue" d="M780.77,-280.3C783.56,-247.63 793.47,-131.87 797.4,-85.96"/>
<polygon fill="midnightblue" stroke="midnightblue" points="800.9,-86.15 798.26,-75.88 793.92,-85.55 800.9,-86.15"/>
</g>
<!-- Node138&#45;&gt;Node4 -->
<g id="edge52" class="edge">
<title>Node138&#45;&gt;Node4</title>
<path fill="none" stroke="midnightblue" d="M813.65,-283.87C874.06,-274.66 1001.61,-255.2 1076.26,-243.81"/>
<polygon fill="midnightblue" stroke="midnightblue" points="1077.08,-247.23 1086.43,-242.26 1076.02,-240.31 1077.08,-247.23"/>
</g>
<!-- Node138&#45;&gt;Node10 -->
<g id="edge54" class="edge">
<title>Node138&#45;&gt;Node10</title>
<path fill="none" stroke="midnightblue" d="M746.29,-285.66C669.61,-276.26 481.07,-242.54 380.02,-132 368.51,-119.4 363.94,-100.19 362.15,-85.91"/>
<polygon fill="midnightblue" stroke="midnightblue" points="365.61,-85.39 361.22,-75.74 358.64,-86.02 365.61,-85.39"/>
</g>
<!-- Node138&#45;&gt;Node9 -->
<g id="edge50" class="edge">
<title>Node138&#45;&gt;Node9</title>
<path fill="none" stroke="midnightblue" d="M746.14,-287.24C694.44,-283.7 593.4,-273.32 513.02,-244 466.98,-227.2 456.5,-218.36 418.02,-188 359.18,-141.56 262.82,-111.67 313.02,-56 337.65,-28.7 574.05,-16.95 687.65,-12.85"/>
<polygon fill="midnightblue" stroke="midnightblue" points="688.05,-16.34 697.92,-12.49 687.81,-9.34 688.05,-16.34"/>
</g>
<!-- Node138&#45;&gt;Node12 -->
<g id="edge53" class="edge">
<title>Node138&#45;&gt;Node12</title>
<path fill="none" stroke="midnightblue" d="M813.87,-289.01C922.97,-288.1 1274.12,-277.9 1546.02,-188 1596.98,-171.15 1610.02,-164.12 1653.02,-132 1672,-117.82 1690.47,-97.81 1702.45,-83.75"/>
<polygon fill="midnightblue" stroke="midnightblue" points="1705.31,-85.79 1709.02,-75.86 1699.93,-81.3 1705.31,-85.79"/>
</g>
<!-- Node138&#45;&gt;Node137 -->
<g id="edge51" class="edge">
<title>Node138&#45;&gt;Node137</title>
<path fill="none" stroke="midnightblue" d="M773.57,-280.08C754.35,-253.49 697.28,-174.54 672.14,-139.76"/>
<polygon fill="midnightblue" stroke="midnightblue" points="674.91,-137.62 666.22,-131.57 669.24,-141.72 674.91,-137.62"/>
</g>
<!-- Node139&#45;&gt;Node2 -->
<g id="edge61" class="edge">
<title>Node139&#45;&gt;Node2</title>
<path fill="none" stroke="midnightblue" d="M367.07,-392.48C353.33,-374.75 324.02,-332.12 324.02,-291 324.02,-291 324.02,-291 324.02,-233 324.02,-161.21 366.35,-143.17 431.02,-112 458.61,-98.7 648.56,-80.31 744.22,-71.74"/>
<polygon fill="midnightblue" stroke="midnightblue" points="744.64,-75.22 754.29,-70.84 744.02,-68.25 744.64,-75.22"/>
</g>
<!-- Node139&#45;&gt;Node3 -->
<g id="edge62" class="edge">
<title>Node139&#45;&gt;Node3</title>
<path fill="none" stroke="midnightblue" d="M443.43,-392.44C522.73,-382.67 652.18,-366.71 734.67,-356.54"/>
<polygon fill="midnightblue" stroke="midnightblue" points="735.25,-359.99 744.74,-355.29 734.39,-353.04 735.25,-359.99"/>
</g>
<!-- Node139&#45;&gt;Node10 -->
<g id="edge64" class="edge">
<title>Node139&#45;&gt;Node10</title>
<path fill="none" stroke="midnightblue" d="M299.52,-399.89C222.69,-394.32 114.02,-372.12 114.02,-291 114.02,-291 114.02,-291 114.02,-233 114.02,-178.86 65.15,-153.4 100.02,-112 126.51,-80.56 243.34,-71.08 311.38,-68.23"/>
<polygon fill="midnightblue" stroke="midnightblue" points="311.6,-71.72 321.45,-67.84 311.33,-64.73 311.6,-71.72"/>
</g>
<!-- Node139&#45;&gt;Node12 -->
<g id="edge63" class="edge">
<title>Node139&#45;&gt;Node12</title>
<path fill="none" stroke="midnightblue" d="M448.78,-396.48C674.16,-382.54 1344.72,-338.88 1560.02,-300 1742.12,-267.12 1849.15,-335.4 1961.02,-188 1981.44,-161.09 1982.64,-137.95 1961.02,-112 1938.79,-85.31 1847.97,-74.4 1783.41,-69.97"/>
<polygon fill="midnightblue" stroke="midnightblue" points="1783.49,-66.47 1773.29,-69.31 1783.04,-73.45 1783.49,-66.47"/>
</g>
<!-- Node139&#45;&gt;Node25 -->
<g id="edge60" class="edge">
<title>Node139&#45;&gt;Node25</title>
<path fill="none" stroke="midnightblue" d="M372.45,-392.48C369.2,-374.04 362.02,-329.04 362.02,-291 362.02,-291 362.02,-291 362.02,-233 362.02,-185.6 413.63,-152.64 448.29,-135.85"/>
<polygon fill="midnightblue" stroke="midnightblue" points="449.97,-138.93 457.56,-131.54 447.02,-132.58 449.97,-138.93"/>
</g>
<!-- Node139&#45;&gt;Node140 -->
<g id="edge56" class="edge">
<title>Node139&#45;&gt;Node140</title>
<path fill="none" stroke="midnightblue" d="M390.41,-392.32C406.69,-383.7 431.89,-370.36 450.74,-360.39"/>
<polygon fill="midnightblue" stroke="midnightblue" points="452.48,-363.43 459.68,-355.65 449.2,-357.24 452.48,-363.43"/>
</g>
<!-- Node140&#45;&gt;Node2 -->
<g id="edge58" class="edge">
<title>Node140&#45;&gt;Node2</title>
<path fill="none" stroke="midnightblue" d="M477.85,-336.1C485.51,-301.27 518.32,-173.14 598.02,-112 620.63,-94.66 692.99,-81.47 744.4,-73.98"/>
<polygon fill="midnightblue" stroke="midnightblue" points="744.97,-77.43 754.38,-72.56 743.98,-70.5 744.97,-77.43"/>
</g>
<!-- Node140&#45;&gt;Node10 -->
<g id="edge57" class="edge">
<title>Node140&#45;&gt;Node10</title>
<path fill="none" stroke="midnightblue" d="M438.09,-336.49C368.61,-319.79 228.02,-280.39 228.02,-235 228.02,-235 228.02,-235 228.02,-177 228.02,-126.73 285.15,-95.1 324.53,-79.27"/>
<polygon fill="midnightblue" stroke="midnightblue" points="326.03,-82.45 334.11,-75.59 323.52,-75.91 326.03,-82.45"/>
</g>
<!-- Node140&#45;&gt;Node12 -->
<g id="edge59" class="edge">
<title>Node140&#45;&gt;Node12</title>
<path fill="none" stroke="midnightblue" d="M514.41,-342.95C640.18,-335.75 1050.78,-308.52 1384.02,-244 1521.3,-217.42 1579.79,-231.51 1678.02,-132 1691.34,-118.51 1701.76,-99.44 1708.3,-85.45"/>
<polygon fill="midnightblue" stroke="midnightblue" points="1711.67,-86.47 1712.52,-75.91 1705.27,-83.64 1711.67,-86.47"/>
</g>
<!-- Node141&#45;&gt;Node2 -->
<g id="edge66" class="edge">
<title>Node141&#45;&gt;Node2</title>
<path fill="none" stroke="midnightblue" d="M630.78,-448.49C652.32,-399.64 760.39,-154.6 790.96,-85.29"/>
<polygon fill="midnightblue" stroke="midnightblue" points="794.34,-86.29 795.17,-75.73 787.93,-83.47 794.34,-86.29"/>
</g>
<!-- Node141&#45;&gt;Node3 -->
<g id="edge68" class="edge">
<title>Node141&#45;&gt;Node3</title>
<path fill="none" stroke="midnightblue" d="M641.54,-448.37C673.42,-429.41 749.79,-384 788.57,-360.94"/>
<polygon fill="midnightblue" stroke="midnightblue" points="790.77,-363.71 797.57,-355.59 787.19,-357.69 790.77,-363.71"/>
</g>
<!-- Node141&#45;&gt;Node10 -->
<g id="edge67" class="edge">
<title>Node141&#45;&gt;Node10</title>
<path fill="none" stroke="midnightblue" d="M593.38,-457.48C473.75,-458.31 76.02,-453.08 76.02,-347 76.02,-347 76.02,-347 76.02,-289 76.02,-210.21 33.33,-170.58 86.02,-112 115.28,-79.47 240.45,-70.45 311.41,-67.95"/>
<polygon fill="midnightblue" stroke="midnightblue" points="311.59,-71.44 321.47,-67.63 311.36,-64.45 311.59,-71.44"/>
</g>
<!-- Node141&#45;&gt;Node12 -->
<g id="edge82" class="edge">
<title>Node141&#45;&gt;Node12</title>
<path fill="none" stroke="midnightblue" d="M660.77,-456.29C880.09,-451.46 2094.02,-421.35 2094.02,-347 2094.02,-347 2094.02,-347 2094.02,-177 2094.02,-142.84 2081.77,-130.44 2053.02,-112 2009.64,-84.17 1868.6,-73.37 1783.34,-69.31"/>
<polygon fill="midnightblue" stroke="midnightblue" points="1783.38,-65.81 1773.23,-68.85 1783.06,-72.8 1783.38,-65.81"/>
</g>
<!-- Node141&#45;&gt;Node140 -->
<g id="edge81" class="edge">
<title>Node141&#45;&gt;Node140</title>
<path fill="none" stroke="midnightblue" d="M604.03,-448.39C584.8,-440.56 557.19,-427.84 536.02,-412 517.29,-397.98 499.6,-377.62 488.35,-363.44"/>
<polygon fill="midnightblue" stroke="midnightblue" points="491.11,-361.29 482.22,-355.52 485.57,-365.57 491.11,-361.29"/>
</g>
<!-- Node142 -->
<g id="node25" class="node">
<title>Node142</title>
<g id="a_node25"><a xlink:href="../../dc/ddf/_pitch_detector_8h.html" target="_top" xlink:title=" ">
<polygon fill="none" stroke="black" points="544.52,-392.5 544.52,-411.5 635.52,-411.5 635.52,-392.5 544.52,-392.5"/>
<text text-anchor="middle" x="590.02" y="-399.5" font-family="Helvetica,sans-Serif" font-size="10.00">PitchDetector.h</text>
</a>
</g>
</g>
<!-- Node141&#45;&gt;Node142 -->
<g id="edge69" class="edge">
<title>Node141&#45;&gt;Node142</title>
<path fill="none" stroke="midnightblue" d="M620.91,-448.08C615.74,-440.53 608.18,-429.49 601.83,-420.23"/>
<polygon fill="midnightblue" stroke="midnightblue" points="604.56,-418.02 596.02,-411.75 598.78,-421.98 604.56,-418.02"/>
</g>
<!-- Node143 -->
<g id="node26" class="node">
<title>Node143</title>
<g id="a_node26"><a xlink:href="../../dc/dad/_peak_finder_8h.html" target="_top" xlink:title=" ">
<polygon fill="none" stroke="black" points="1357.52,-392.5 1357.52,-411.5 1436.52,-411.5 1436.52,-392.5 1357.52,-392.5"/>
<text text-anchor="middle" x="1397.02" y="-399.5" font-family="Helvetica,sans-Serif" font-size="10.00">PeakFinder.h</text>
</a>
</g>
</g>
<!-- Node141&#45;&gt;Node143 -->
<g id="edge75" class="edge">
<title>Node141&#45;&gt;Node143</title>
<path fill="none" stroke="midnightblue" d="M660.6,-454.64C782.46,-446.1 1201.76,-416.69 1347.02,-406.51"/>
<polygon fill="midnightblue" stroke="midnightblue" points="1347.67,-409.97 1357.4,-405.78 1347.18,-402.99 1347.67,-409.97"/>
</g>
<!-- Node142&#45;&gt;Node2 -->
<g id="edge70" class="edge">
<title>Node142&#45;&gt;Node2</title>
<path fill="none" stroke="midnightblue" d="M584.2,-392.25C553.91,-346.54 416.63,-136.22 438.02,-112 448.05,-100.64 646.01,-81.02 744.43,-71.91"/>
<polygon fill="midnightblue" stroke="midnightblue" points="744.86,-75.38 754.49,-70.98 744.21,-68.41 744.86,-75.38"/>
</g>
<!-- Node142&#45;&gt;Node3 -->
<g id="edge71" class="edge">
<title>Node142&#45;&gt;Node3</title>
<path fill="none" stroke="midnightblue" d="M625.2,-392.44C663.6,-383.1 725.2,-368.12 767.08,-357.93"/>
<polygon fill="midnightblue" stroke="midnightblue" points="768.12,-361.28 777.01,-355.52 766.47,-354.48 768.12,-361.28"/>
</g>
<!-- Node142&#45;&gt;Node10 -->
<g id="edge74" class="edge">
<title>Node142&#45;&gt;Node10</title>
<path fill="none" stroke="midnightblue" d="M544.38,-399.09C459.41,-392.66 280.48,-364.72 224.02,-244 198.91,-190.31 198.8,-151.47 243.02,-112 262.19,-94.9 288.53,-84.02 311.46,-77.26"/>
<polygon fill="midnightblue" stroke="midnightblue" points="312.67,-80.55 321.38,-74.52 310.81,-73.81 312.67,-80.55"/>
</g>
<!-- Node142&#45;&gt;Node12 -->
<g id="edge73" class="edge">
<title>Node142&#45;&gt;Node12</title>
<path fill="none" stroke="midnightblue" d="M635.84,-400.64C860.9,-398.71 1840.6,-388.46 1896.02,-356 1996.87,-296.94 2069.77,-200.99 1994.02,-112 1967.5,-80.84 1856.82,-71.19 1783.37,-68.24"/>
<polygon fill="midnightblue" stroke="midnightblue" points="1783.39,-64.74 1773.26,-67.87 1783.13,-71.74 1783.39,-64.74"/>
</g>
<!-- Node142&#45;&gt;Node140 -->
<g id="edge72" class="edge">
<title>Node142&#45;&gt;Node140</title>
<path fill="none" stroke="midnightblue" d="M571.96,-392.44C553.45,-383.68 524.44,-369.94 503.17,-359.86"/>
<polygon fill="midnightblue" stroke="midnightblue" points="504.54,-356.63 494,-355.52 501.54,-362.96 504.54,-356.63"/>
</g>
<!-- Node143&#45;&gt;Node2 -->
<g id="edge76" class="edge">
<title>Node143&#45;&gt;Node2</title>
<path fill="none" stroke="midnightblue" d="M1390.42,-392.39C1356.41,-348.22 1199.8,-147.87 1131.02,-112 1083.98,-87.46 935.36,-75.04 853.84,-69.93"/>
<polygon fill="midnightblue" stroke="midnightblue" points="853.96,-66.43 843.77,-69.32 853.53,-73.42 853.96,-66.43"/>
</g>
<!-- Node143&#45;&gt;Node3 -->
<g id="edge78" class="edge">
<title>Node143&#45;&gt;Node3</title>
<path fill="none" stroke="midnightblue" d="M1357.27,-397.33C1261.25,-388.47 1015.3,-365.76 889.16,-354.12"/>
<polygon fill="midnightblue" stroke="midnightblue" points="889.46,-350.63 879.18,-353.2 888.82,-357.6 889.46,-350.63"/>
</g>
<!-- Node143&#45;&gt;Node12 -->
<g id="edge80" class="edge">
<title>Node143&#45;&gt;Node12</title>
<path fill="none" stroke="midnightblue" d="M1436.76,-399.85C1559.28,-396.03 1925.81,-382.48 1972.02,-356 1998.34,-340.92 1999.3,-327.97 2011.02,-300 2043.52,-222.46 2087.12,-175.5 2032.02,-112 2000.47,-75.64 1866.18,-67.91 1783.15,-66.69"/>
<polygon fill="midnightblue" stroke="midnightblue" points="1783.08,-63.19 1773.04,-66.57 1782.99,-70.19 1783.08,-63.19"/>
</g>
<!-- Node143&#45;&gt;Node140 -->
<g id="edge79" class="edge">
<title>Node143&#45;&gt;Node140</title>
<path fill="none" stroke="midnightblue" d="M1357.45,-398.68C1209.12,-389.98 686.4,-359.34 524.32,-349.83"/>
<polygon fill="midnightblue" stroke="midnightblue" points="524.36,-346.33 514.17,-349.24 523.95,-353.32 524.36,-346.33"/>
</g>
<!-- Node102 -->
<g id="node27" class="node">
<title>Node102</title>
<g id="a_node27"><a xlink:title=" ">
<polygon fill="none" stroke="#bfbfbf" points="2024.02,-336.5 2024.02,-355.5 2066.02,-355.5 2066.02,-336.5 2024.02,-336.5"/>
<text text-anchor="middle" x="2045.02" y="-343.5" font-family="Helvetica,sans-Serif" font-size="10.00">array</text>
</a>
</g>
</g>
<!-- Node143&#45;&gt;Node102 -->
<g id="edge77" class="edge">
<title>Node143&#45;&gt;Node102</title>
<path fill="none" stroke="midnightblue" d="M1436.75,-400.53C1534.77,-398.84 1795.73,-391.13 2010.02,-356 2011.28,-355.79 2012.55,-355.57 2013.83,-355.32"/>
<polygon fill="midnightblue" stroke="midnightblue" points="2014.68,-358.72 2023.68,-353.13 2013.16,-351.88 2014.68,-358.72"/>
</g>
</g>
</svg>
        <g id="navigator" transform="translate(0 0)" fill="#404254">
                <rect fill="#f2f5e9" fill-opacity="0.5" stroke="#606060" stroke-width=".5" x="0" y="0" width="60" height="60"/>
                <use id="zoomplus" xlink:href="#zoomPlus" x="17" y="9" onmousedown="handleZoom(evt,'in')"/>
                <use id="zoomminus" xlink:href="#zoomMin" x="42" y="9" onmousedown="handleZoom(evt,'out')"/>
                <use id="reset" xlink:href="#resetDef" x="30" y="36" onmousedown="handleReset()"/>
                <g id="arrowUp" xlink:href="#dirArrow" transform="translate(30 24)" onmousedown="handlePan(0,-1)">
                  <use xlink:href="#rim" fill="#404040">
                        <set attributeName="fill" to="#808080" begin="arrowUp.mouseover" end="arrowUp.mouseout"/>
                  </use>
                  <path fill="none" stroke="white" stroke-width="1.5" d="M0,-3.0v7 M-2.5,-0.5L0,-3.0L2.5,-0.5"/>
                </g>
                <g id="arrowRight" xlink:href="#dirArrow" transform="rotate(90) translate(36 -43)" onmousedown="handlePan(1,0)">
                  <use xlink:href="#rim" fill="#404040">
                        <set attributeName="fill" to="#808080" begin="arrowRight.mouseover" end="arrowRight.mouseout"/>
                  </use>
                  <path fill="none" stroke="white" stroke-width="1.5" d="M0,-3.0v7 M-2.5,-0.5L0,-3.0L2.5,-0.5"/>
                </g>
                <g id="arrowDown" xlink:href="#dirArrow" transform="rotate(180) translate(-30 -48)" onmousedown="handlePan(0,1)">
                  <use xlink:href="#rim" fill="#404040">
                        <set attributeName="fill" to="#808080" begin="arrowDown.mouseover" end="arrowDown.mouseout"/>
                  </use>
                  <path fill="none" stroke="white" stroke-width="1.5" d="M0,-3.0v7 M-2.5,-0.5L0,-3.0L2.5,-0.5"/>
                </g>
                <g id="arrowLeft" xlink:href="#dirArrow" transform="rotate(270) translate(-36 17)" onmousedown="handlePan(-1,0)">
                  <use xlink:href="#rim" fill="#404040">
                        <set attributeName="fill" to="#808080" begin="arrowLeft.mouseover" end="arrowLeft.mouseout"/>
                  </use>
                  <path fill="none" stroke="white" stroke-width="1.5" d="M0,-3.0v7 M-2.5,-0.5L0,-3.0L2.5,-0.5"/>
                </g>
        </g>
        <svg viewBox="0 0 15 15" width="100%" height="30px" preserveAspectRatio="xMaxYMin meet">
         <g id="arrow_out" transform="scale(0.3 0.3)">
          <a xlink:href="shifter_8h__incl_org.svg" target="_base">
           <rect id="button" ry="5" rx="5" y="6" x="6" height="38" width="38"
                fill="#f2f5e9" fill-opacity="0.5" stroke="#606060" stroke-width="1.0"/>
           <path id="arrow"
             d="M 11.500037,31.436501 C 11.940474,20.09759 22.043105,11.32322 32.158766,21.979434 L 37.068811,17.246167 C 37.068811,17.246167 37.088388,32 37.088388,32 L 22.160133,31.978069 C 22.160133,31.978069 26.997745,27.140456 26.997745,27.140456 C 18.528582,18.264221 13.291696,25.230495 11.500037,31.436501 z"
             style="fill:#404040;"/>
          </a>
         </g>
        </svg>
</svg>
