<?xml version="1.0" encoding="UTF-8" standalone="no"?>
<!DOCTYPE svg PUBLIC "-//W3C//DTD SVG 1.1//EN"
 "http://www.w3.org/Graphics/SVG/1.1/DTD/svg11.dtd">
<!-- Generated by graphviz version 2.43.0 (0)
 -->
<!-- Title: cylinder.h Pages: 1 -->
<!--zoomable 431 -->
<svg id="main" version="1.1" xmlns="http://www.w3.org/2000/svg" xmlns:xlink="http://www.w3.org/1999/xlink" xml:space="preserve" onload="init(evt)">
<style type="text/css"><![CDATA[
.edge:hover path { stroke: red; }
.edge:hover polygon { stroke: red; fill: red; }
]]></style>
<script type="text/javascript"><![CDATA[
var edges = document.getElementsByTagName('g');
if (edges && edges.length) {
  for (var i=0;i<edges.length;i++) {
    if (edges[i].id.substr(0,4)=='edge') {
      edges[i].setAttribute('class','edge');
    }
  }
}
]]></script>
        <defs>
                <circle id="rim" cx="0" cy="0" r="7"/>
                <circle id="rim2" cx="0" cy="0" r="3.5"/>
                <g id="zoomPlus">
                        <use xlink:href="#rim" fill="#404040">
                                <set attributeName="fill" to="#808080" begin="zoomplus.mouseover" end="zoomplus.mouseout"/>
                        </use>
                        <path d="M-4,0h8M0,-4v8" fill="none" stroke="white" stroke-width="1.5" pointer-events="none"/>
                </g>
                <g id="zoomMin">
                        <use xlink:href="#rim" fill="#404040">
                                <set attributeName="fill" to="#808080" begin="zoomminus.mouseover" end="zoomminus.mouseout"/>
                        </use>
                        <path d="M-4,0h8" fill="none" stroke="white" stroke-width="1.5" pointer-events="none"/>
                </g>
                <g id="dirArrow">
                        <path fill="none" stroke="white" stroke-width="1.5" d="M0,-3.0v7 M-2.5,-0.5L0,-3.0L2.5,-0.5"/>
                </g>
               <g id="resetDef">
                       <use xlink:href="#rim2" fill="#404040">
                               <set attributeName="fill" to="#808080" begin="reset.mouseover" end="reset.mouseout"/>
                       </use>
               </g>
        </defs>

<script type="text/javascript">
var viewWidth = 995;
var viewHeight = 431;
var sectionId = 'dynsection-0';
</script>
<script xlink:href="../../svgpan.js"/>
<svg id="graph" class="graph">
<g id="viewport">
<title>cylinder.h</title>
<!-- Node1 -->
<g id="node1" class="node">
<title>Node1</title>
<g id="a_node1"><a xlink:title=" ">
<polygon fill="#bfbfbf" stroke="black" points="554,-403.5 554,-422.5 618,-422.5 618,-403.5 554,-403.5"/>
<text text-anchor="middle" x="586" y="-410.5" font-family="Helvetica,sans-Serif" font-size="10.00">cylinder.h</text>
</a>
</g>
</g>
<!-- Node2 -->
<g id="node2" class="node">
<title>Node2</title>
<g id="a_node2"><a xlink:href="../../da/d0b/limes__namespace_8h.html" target="_top" xlink:title=" ">
<polygon fill="none" stroke="black" points="205,-118 205,-137 319,-137 319,-118 205,-118"/>
<text text-anchor="middle" x="262" y="-125" font-family="Helvetica,sans-Serif" font-size="10.00">limes_namespace.h</text>
</a>
</g>
</g>
<!-- Node1&#45;&gt;Node2 -->
<g id="edge1" class="edge">
<title>Node1&#45;&gt;Node2</title>
<path fill="none" stroke="midnightblue" d="M553.79,-410.39C463.3,-405.62 208.25,-390.41 128,-367 66.75,-349.13 0,-365.8 0,-302 0,-302 0,-302 0,-244 0,-158.96 116.99,-136 194.62,-130.12"/>
<polygon fill="midnightblue" stroke="midnightblue" points="195.09,-133.6 204.83,-129.43 194.61,-126.62 195.09,-133.6"/>
</g>
<!-- Node3 -->
<g id="node3" class="node">
<title>Node3</title>
<g id="a_node3"><a xlink:title=" ">
<polygon fill="none" stroke="#bfbfbf" points="411.5,-118 411.5,-137 500.5,-137 500.5,-118 411.5,-118"/>
<text text-anchor="middle" x="456" y="-125" font-family="Helvetica,sans-Serif" font-size="10.00">limes_export.h</text>
</a>
</g>
</g>
<!-- Node1&#45;&gt;Node3 -->
<g id="edge2" class="edge">
<title>Node1&#45;&gt;Node3</title>
<path fill="none" stroke="midnightblue" d="M596.71,-403.24C618.66,-384.15 665.66,-336.83 653,-291 637.55,-235.09 630.32,-216.42 586,-179 563.36,-159.89 532.66,-147.51 506.78,-139.79"/>
<polygon fill="midnightblue" stroke="midnightblue" points="507.7,-136.41 497.12,-137.06 505.79,-143.15 507.7,-136.41"/>
</g>
<!-- Node4 -->
<g id="node4" class="node">
<title>Node4</title>
<g id="a_node4"><a xlink:title=" ">
<polygon fill="none" stroke="#bfbfbf" points="617,-0.5 617,-19.5 717,-19.5 717,-0.5 617,-0.5"/>
<text text-anchor="middle" x="667" y="-7.5" font-family="Helvetica,sans-Serif" font-size="10.00">limes_platform.h</text>
</a>
</g>
</g>
<!-- Node1&#45;&gt;Node4 -->
<g id="edge3" class="edge">
<title>Node1&#45;&gt;Node4</title>
<path fill="none" stroke="midnightblue" d="M618.14,-410.1C713.29,-403.62 987,-378.34 987,-302 987,-302 987,-302 987,-126.5 987,-71.92 820.21,-35.95 727.46,-20.16"/>
<polygon fill="midnightblue" stroke="midnightblue" points="727.79,-16.67 717.35,-18.47 726.64,-23.57 727.79,-16.67"/>
</g>
<!-- Node5 -->
<g id="node5" class="node">
<title>Node5</title>
<g id="a_node5"><a xlink:href="../../d3/d53/preprocessor_8h.html" target="_top" xlink:title=" ">
<polygon fill="none" stroke="black" points="695.5,-56.5 695.5,-75.5 836.5,-75.5 836.5,-56.5 695.5,-56.5"/>
<text text-anchor="middle" x="766" y="-63.5" font-family="Helvetica,sans-Serif" font-size="10.00">../../../misc/preprocessor.h</text>
</a>
</g>
</g>
<!-- Node1&#45;&gt;Node5 -->
<g id="edge4" class="edge">
<title>Node1&#45;&gt;Node5</title>
<path fill="none" stroke="midnightblue" d="M618.21,-409.2C707.05,-400.58 949,-370.81 949,-302 949,-302 949,-302 949,-188 949,-125.07 872.78,-92.97 818.72,-78.12"/>
<polygon fill="midnightblue" stroke="midnightblue" points="819.47,-74.69 808.91,-75.54 817.69,-81.47 819.47,-74.69"/>
</g>
<!-- Node6 -->
<g id="node6" class="node">
<title>Node6</title>
<g id="a_node6"><a xlink:href="../../dc/d5c/math_functions_8h.html" target="_top" xlink:title=" ">
<polygon fill="none" stroke="black" points="528,-291.5 528,-310.5 644,-310.5 644,-291.5 528,-291.5"/>
<text text-anchor="middle" x="586" y="-298.5" font-family="Helvetica,sans-Serif" font-size="10.00">../../mathFunctions.h</text>
</a>
</g>
</g>
<!-- Node1&#45;&gt;Node6 -->
<g id="edge6" class="edge">
<title>Node1&#45;&gt;Node6</title>
<path fill="none" stroke="midnightblue" d="M586,-403.37C586,-385.62 586,-344.67 586,-320.6"/>
<polygon fill="midnightblue" stroke="midnightblue" points="589.5,-320.59 586,-310.59 582.5,-320.59 589.5,-320.59"/>
</g>
<!-- Node16 -->
<g id="node13" class="node">
<title>Node16</title>
<g id="a_node13"><a xlink:href="../../d3/db6/circle_8h.html" target="_top" xlink:title=" ">
<polygon fill="none" stroke="black" points="137.5,-347.5 137.5,-366.5 214.5,-366.5 214.5,-347.5 137.5,-347.5"/>
<text text-anchor="middle" x="176" y="-354.5" font-family="Helvetica,sans-Serif" font-size="10.00">../2D/circle.h</text>
</a>
</g>
</g>
<!-- Node1&#45;&gt;Node16 -->
<g id="edge25" class="edge">
<title>Node1&#45;&gt;Node16</title>
<path fill="none" stroke="midnightblue" d="M553.83,-407.76C482.34,-398.35 309.9,-375.64 224.96,-364.45"/>
<polygon fill="midnightblue" stroke="midnightblue" points="225.17,-360.95 214.8,-363.11 224.25,-367.89 225.17,-360.95"/>
</g>
<!-- Node18 -->
<g id="node15" class="node">
<title>Node18</title>
<g id="a_node15"><a xlink:href="../../d7/d88/3_dshape_8h.html" target="_top" xlink:title=" ">
<polygon fill="none" stroke="black" points="228,-179.5 228,-198.5 296,-198.5 296,-179.5 228,-179.5"/>
<text text-anchor="middle" x="262" y="-186.5" font-family="Helvetica,sans-Serif" font-size="10.00">3Dshape.h</text>
</a>
</g>
</g>
<!-- Node1&#45;&gt;Node18 -->
<g id="edge34" class="edge">
<title>Node1&#45;&gt;Node18</title>
<path fill="none" stroke="midnightblue" d="M573.3,-403.3C524,-369.52 345,-246.87 283.18,-204.51"/>
<polygon fill="midnightblue" stroke="midnightblue" points="284.84,-201.41 274.61,-198.64 280.88,-207.18 284.84,-201.41"/>
</g>
<!-- Node5&#45;&gt;Node4 -->
<g id="edge5" class="edge">
<title>Node5&#45;&gt;Node4</title>
<path fill="none" stroke="midnightblue" d="M750.09,-56.32C734.36,-47.74 710.06,-34.49 691.79,-24.52"/>
<polygon fill="midnightblue" stroke="midnightblue" points="693.32,-21.37 682.87,-19.65 689.97,-27.52 693.32,-21.37"/>
</g>
<!-- Node6&#45;&gt;Node2 -->
<g id="edge7" class="edge">
<title>Node6&#45;&gt;Node2</title>
<path fill="none" stroke="midnightblue" d="M535.62,-291.47C502.41,-284.57 458.64,-273 423,-255 363.51,-224.95 304.8,-171.07 277.64,-144.37"/>
<polygon fill="midnightblue" stroke="midnightblue" points="280.1,-141.89 270.55,-137.31 275.16,-146.85 280.1,-141.89"/>
</g>
<!-- Node6&#45;&gt;Node3 -->
<g id="edge9" class="edge">
<title>Node6&#45;&gt;Node3</title>
<path fill="none" stroke="midnightblue" d="M587.22,-291.33C589.73,-269.87 593.25,-213.54 567,-179 552.45,-159.85 528.95,-147.75 507.32,-140.22"/>
<polygon fill="midnightblue" stroke="midnightblue" points="508.14,-136.8 497.55,-137.07 505.99,-143.47 508.14,-136.8"/>
</g>
<!-- Node6&#45;&gt;Node5 -->
<g id="edge13" class="edge">
<title>Node6&#45;&gt;Node5</title>
<path fill="none" stroke="midnightblue" d="M644.14,-298.14C687.67,-294.3 747.04,-283.64 791,-255 842.69,-221.32 853.83,-201.64 873,-143 877.28,-129.9 880.62,-123.48 873,-112 862.22,-95.78 844.34,-85.39 826.24,-78.75"/>
<polygon fill="midnightblue" stroke="midnightblue" points="827.1,-75.34 816.51,-75.51 824.9,-81.99 827.1,-75.34"/>
</g>
<!-- Node7 -->
<g id="node7" class="node">
<title>Node7</title>
<g id="a_node7"><a xlink:title=" ">
<polygon fill="none" stroke="#bfbfbf" points="794.5,-118 794.5,-137 863.5,-137 863.5,-118 794.5,-118"/>
<text text-anchor="middle" x="829" y="-125" font-family="Helvetica,sans-Serif" font-size="10.00">type_traits</text>
</a>
</g>
</g>
<!-- Node6&#45;&gt;Node7 -->
<g id="edge8" class="edge">
<title>Node6&#45;&gt;Node7</title>
<path fill="none" stroke="midnightblue" d="M644.34,-294.48C681.16,-288.87 728.49,-277.6 765,-255 792.87,-237.75 798.27,-228.29 813,-199 821.19,-182.72 825.23,-162.23 827.2,-147.54"/>
<polygon fill="midnightblue" stroke="midnightblue" points="830.73,-147.53 828.38,-137.2 823.77,-146.74 830.73,-147.53"/>
</g>
<!-- Node8 -->
<g id="node8" class="node">
<title>Node8</title>
<g id="a_node8"><a xlink:href="../../d0/d00/compiler__defs_8h.html" target="_top" xlink:title=" ">
<polygon fill="none" stroke="black" points="630.5,-112.5 630.5,-142.5 737.5,-142.5 737.5,-112.5 630.5,-112.5"/>
<text text-anchor="start" x="638.5" y="-130.5" font-family="Helvetica,sans-Serif" font-size="10.00">../system/compiler</text>
<text text-anchor="middle" x="684" y="-119.5" font-family="Helvetica,sans-Serif" font-size="10.00">_defs.h</text>
</a>
</g>
</g>
<!-- Node6&#45;&gt;Node8 -->
<g id="edge10" class="edge">
<title>Node6&#45;&gt;Node8</title>
<path fill="none" stroke="midnightblue" d="M637.21,-291.45C687.68,-280.01 762.15,-254.32 797,-199 813.56,-172.71 781.61,-154.6 747.5,-143.32"/>
<polygon fill="midnightblue" stroke="midnightblue" points="748.45,-139.95 737.87,-140.32 746.37,-146.63 748.45,-139.95"/>
</g>
<!-- Node9 -->
<g id="node9" class="node">
<title>Node9</title>
<g id="a_node9"><a xlink:href="../../dc/d9b/math_functions__impl_8h.html" target="_top" xlink:title=" ">
<polygon fill="none" stroke="black" points="432.5,-235.5 432.5,-254.5 557.5,-254.5 557.5,-235.5 432.5,-235.5"/>
<text text-anchor="middle" x="495" y="-242.5" font-family="Helvetica,sans-Serif" font-size="10.00">mathFunctions_impl.h</text>
</a>
</g>
</g>
<!-- Node6&#45;&gt;Node9 -->
<g id="edge14" class="edge">
<title>Node6&#45;&gt;Node9</title>
<path fill="none" stroke="midnightblue" d="M571.38,-291.32C557.05,-282.82 534.99,-269.73 518.25,-259.8"/>
<polygon fill="midnightblue" stroke="midnightblue" points="519.97,-256.75 509.58,-254.65 516.4,-262.77 519.97,-256.75"/>
</g>
<!-- Node8&#45;&gt;Node4 -->
<g id="edge11" class="edge">
<title>Node8&#45;&gt;Node4</title>
<path fill="none" stroke="midnightblue" d="M681.92,-112.34C678.85,-91.53 673.13,-52.66 669.74,-29.58"/>
<polygon fill="midnightblue" stroke="midnightblue" points="673.19,-29.05 668.28,-19.67 666.27,-30.07 673.19,-29.05"/>
</g>
<!-- Node8&#45;&gt;Node5 -->
<g id="edge12" class="edge">
<title>Node8&#45;&gt;Node5</title>
<path fill="none" stroke="midnightblue" d="M703.43,-112.4C716.21,-103.13 732.89,-91.03 745.81,-81.65"/>
<polygon fill="midnightblue" stroke="midnightblue" points="748.03,-84.36 754.07,-75.66 743.92,-78.7 748.03,-84.36"/>
</g>
<!-- Node9&#45;&gt;Node2 -->
<g id="edge15" class="edge">
<title>Node9&#45;&gt;Node2</title>
<path fill="none" stroke="midnightblue" d="M480.18,-235.39C457.88,-222.54 414.21,-197.86 376,-179 347.98,-165.17 315.3,-150.88 292.14,-141.04"/>
<polygon fill="midnightblue" stroke="midnightblue" points="293.41,-137.78 282.83,-137.11 290.68,-144.23 293.41,-137.78"/>
</g>
<!-- Node10 -->
<g id="node10" class="node">
<title>Node10</title>
<g id="a_node10"><a xlink:title=" ">
<polygon fill="none" stroke="#bfbfbf" points="510.5,-179.5 510.5,-198.5 557.5,-198.5 557.5,-179.5 510.5,-179.5"/>
<text text-anchor="middle" x="534" y="-186.5" font-family="Helvetica,sans-Serif" font-size="10.00">cmath</text>
</a>
</g>
</g>
<!-- Node9&#45;&gt;Node10 -->
<g id="edge16" class="edge">
<title>Node9&#45;&gt;Node10</title>
<path fill="none" stroke="midnightblue" d="M501.44,-235.08C506.95,-227.46 515.03,-216.26 521.76,-206.94"/>
<polygon fill="midnightblue" stroke="midnightblue" points="524.66,-208.91 527.68,-198.75 518.99,-204.81 524.66,-208.91"/>
</g>
<!-- Node11 -->
<g id="node11" class="node">
<title>Node11</title>
<g id="a_node11"><a xlink:title=" ">
<polygon fill="none" stroke="#bfbfbf" points="428,-179.5 428,-198.5 492,-198.5 492,-179.5 428,-179.5"/>
<text text-anchor="middle" x="460" y="-186.5" font-family="Helvetica,sans-Serif" font-size="10.00">algorithm</text>
</a>
</g>
</g>
<!-- Node9&#45;&gt;Node11 -->
<g id="edge17" class="edge">
<title>Node9&#45;&gt;Node11</title>
<path fill="none" stroke="midnightblue" d="M489.22,-235.08C484.33,-227.53 477.17,-216.49 471.17,-207.23"/>
<polygon fill="midnightblue" stroke="midnightblue" points="474.05,-205.24 465.67,-198.75 468.17,-209.05 474.05,-205.24"/>
</g>
<!-- Node12 -->
<g id="node12" class="node">
<title>Node12</title>
<g id="a_node12"><a xlink:href="../../d5/dbb/limes__assert_8h.html" target="_top" xlink:title=" ">
<polygon fill="none" stroke="red" points="652,-179.5 652,-198.5 788,-198.5 788,-179.5 652,-179.5"/>
<text text-anchor="middle" x="720" y="-186.5" font-family="Helvetica,sans-Serif" font-size="10.00">../system/limes_assert.h</text>
</a>
</g>
</g>
<!-- Node9&#45;&gt;Node12 -->
<g id="edge18" class="edge">
<title>Node9&#45;&gt;Node12</title>
<path fill="none" stroke="midnightblue" d="M530.65,-235.44C569.66,-226.08 632.27,-211.06 674.72,-200.87"/>
<polygon fill="midnightblue" stroke="midnightblue" points="675.61,-204.25 684.51,-198.52 673.97,-197.45 675.61,-204.25"/>
</g>
<!-- Node12&#45;&gt;Node2 -->
<g id="edge20" class="edge">
<title>Node12&#45;&gt;Node2</title>
<path fill="none" stroke="midnightblue" d="M654.38,-179.48C567.89,-168.24 416.54,-148.58 329.25,-137.24"/>
<polygon fill="midnightblue" stroke="midnightblue" points="329.55,-133.75 319.19,-135.93 328.65,-140.69 329.55,-133.75"/>
</g>
<!-- Node12&#45;&gt;Node3 -->
<g id="edge19" class="edge">
<title>Node12&#45;&gt;Node3</title>
<path fill="none" stroke="midnightblue" d="M682.18,-179.48C635.13,-168.87 554.77,-150.76 503.58,-139.22"/>
<polygon fill="midnightblue" stroke="midnightblue" points="504.28,-135.79 493.75,-137.01 502.74,-142.62 504.28,-135.79"/>
</g>
<!-- Node12&#45;&gt;Node4 -->
<g id="edge23" class="edge">
<title>Node12&#45;&gt;Node4</title>
<path fill="none" stroke="midnightblue" d="M676.93,-179.49C656.6,-173.07 634.18,-161.99 622,-143 597.93,-105.46 631.79,-53.61 652.68,-27.47"/>
<polygon fill="midnightblue" stroke="midnightblue" points="655.47,-29.59 659.16,-19.65 650.09,-25.12 655.47,-29.59"/>
</g>
<!-- Node12&#45;&gt;Node5 -->
<g id="edge21" class="edge">
<title>Node12&#45;&gt;Node5</title>
<path fill="none" stroke="midnightblue" d="M726.19,-179.44C732.27,-170.68 741.42,-156.47 747,-143 754.79,-124.19 759.97,-101.4 762.92,-85.71"/>
<polygon fill="midnightblue" stroke="midnightblue" points="766.4,-86.15 764.69,-75.7 759.5,-84.94 766.4,-86.15"/>
</g>
<!-- Node12&#45;&gt;Node7 -->
<g id="edge22" class="edge">
<title>Node12&#45;&gt;Node7</title>
<path fill="none" stroke="midnightblue" d="M735.62,-179.48C753.59,-169.67 783.32,-153.43 804.41,-141.92"/>
<polygon fill="midnightblue" stroke="midnightblue" points="806.31,-144.87 813.41,-137.01 802.96,-138.73 806.31,-144.87"/>
</g>
<!-- Node12&#45;&gt;Node8 -->
<g id="edge24" class="edge">
<title>Node12&#45;&gt;Node8</title>
<path fill="none" stroke="midnightblue" d="M714.84,-179.48C710.38,-172.09 703.71,-161.08 697.72,-151.17"/>
<polygon fill="midnightblue" stroke="midnightblue" points="700.66,-149.27 692.48,-142.52 694.67,-152.89 700.66,-149.27"/>
</g>
<!-- Node16&#45;&gt;Node2 -->
<g id="edge26" class="edge">
<title>Node16&#45;&gt;Node2</title>
<path fill="none" stroke="midnightblue" d="M169.55,-347.41C150.01,-320.22 95.03,-234.64 133,-179 147.24,-158.14 171.51,-145.89 195.18,-138.7"/>
<polygon fill="midnightblue" stroke="midnightblue" points="196.2,-142.05 204.9,-136.01 194.33,-135.31 196.2,-142.05"/>
</g>
<!-- Node16&#45;&gt;Node3 -->
<g id="edge27" class="edge">
<title>Node16&#45;&gt;Node3</title>
<path fill="none" stroke="midnightblue" d="M186.63,-347.36C228.65,-313.22 383.4,-187.49 437.32,-143.67"/>
<polygon fill="midnightblue" stroke="midnightblue" points="439.8,-146.17 445.35,-137.15 435.39,-140.74 439.8,-146.17"/>
</g>
<!-- Node16&#45;&gt;Node4 -->
<g id="edge28" class="edge">
<title>Node16&#45;&gt;Node4</title>
<path fill="none" stroke="midnightblue" d="M147.41,-347.49C106.99,-333.48 38,-301.46 38,-246 38,-246 38,-246 38,-126.5 38,-69.02 449.57,-28.96 606.87,-15.74"/>
<polygon fill="midnightblue" stroke="midnightblue" points="607.18,-19.23 616.85,-14.91 606.6,-12.26 607.18,-19.23"/>
</g>
<!-- Node16&#45;&gt;Node5 -->
<g id="edge32" class="edge">
<title>Node16&#45;&gt;Node5</title>
<path fill="none" stroke="midnightblue" d="M159.04,-347.36C130.51,-331.49 76,-294.78 76,-246 76,-246 76,-246 76,-188 76,-124.87 136.11,-131.96 196,-112 284.46,-82.52 550.03,-72.07 685.14,-68.6"/>
<polygon fill="midnightblue" stroke="midnightblue" points="685.52,-72.09 695.43,-68.34 685.35,-65.1 685.52,-72.09"/>
</g>
<!-- Node16&#45;&gt;Node6 -->
<g id="edge33" class="edge">
<title>Node16&#45;&gt;Node6</title>
<path fill="none" stroke="midnightblue" d="M214.57,-350.92C284.08,-341.76 431.19,-322.39 517.96,-310.96"/>
<polygon fill="midnightblue" stroke="midnightblue" points="518.52,-314.42 527.97,-309.64 517.6,-307.48 518.52,-314.42"/>
</g>
<!-- Node17 -->
<g id="node14" class="node">
<title>Node17</title>
<g id="a_node14"><a xlink:href="../../d8/d23/2_dshape_8h.html" target="_top" xlink:title=" ">
<polygon fill="none" stroke="black" points="142,-179.5 142,-198.5 210,-198.5 210,-179.5 142,-179.5"/>
<text text-anchor="middle" x="176" y="-186.5" font-family="Helvetica,sans-Serif" font-size="10.00">2Dshape.h</text>
</a>
</g>
</g>
<!-- Node16&#45;&gt;Node17 -->
<g id="edge29" class="edge">
<title>Node16&#45;&gt;Node17</title>
<path fill="none" stroke="midnightblue" d="M176,-347.08C176,-320.95 176,-244.21 176,-208.58"/>
<polygon fill="midnightblue" stroke="midnightblue" points="179.5,-208.57 176,-198.57 172.5,-208.57 179.5,-208.57"/>
</g>
<!-- Node17&#45;&gt;Node2 -->
<g id="edge30" class="edge">
<title>Node17&#45;&gt;Node2</title>
<path fill="none" stroke="midnightblue" d="M188.32,-179.48C202.12,-169.93 224.7,-154.31 241.23,-142.87"/>
<polygon fill="midnightblue" stroke="midnightblue" points="243.47,-145.58 249.7,-137.01 239.49,-139.82 243.47,-145.58"/>
</g>
<!-- Node17&#45;&gt;Node3 -->
<g id="edge31" class="edge">
<title>Node17&#45;&gt;Node3</title>
<path fill="none" stroke="midnightblue" d="M210.05,-180.76C259,-170.36 349.55,-151.12 406.07,-139.11"/>
<polygon fill="midnightblue" stroke="midnightblue" points="406.81,-142.53 415.87,-137.03 405.36,-135.68 406.81,-142.53"/>
</g>
<!-- Node18&#45;&gt;Node2 -->
<g id="edge35" class="edge">
<title>Node18&#45;&gt;Node2</title>
<path fill="none" stroke="midnightblue" d="M262,-179.48C262,-171.08 262,-157.98 262,-147.16"/>
<polygon fill="midnightblue" stroke="midnightblue" points="265.5,-147.01 262,-137.01 258.5,-147.01 265.5,-147.01"/>
</g>
<!-- Node18&#45;&gt;Node3 -->
<g id="edge36" class="edge">
<title>Node18&#45;&gt;Node3</title>
<path fill="none" stroke="midnightblue" d="M289.8,-179.48C323.65,-169.09 380.97,-151.51 418.65,-139.95"/>
<polygon fill="midnightblue" stroke="midnightblue" points="419.72,-143.29 428.26,-137.01 417.67,-136.6 419.72,-143.29"/>
</g>
</g>
</svg>
        <g id="navigator" transform="translate(0 0)" fill="#404254">
                <rect fill="#f2f5e9" fill-opacity="0.5" stroke="#606060" stroke-width=".5" x="0" y="0" width="60" height="60"/>
                <use id="zoomplus" xlink:href="#zoomPlus" x="17" y="9" onmousedown="handleZoom(evt,'in')"/>
                <use id="zoomminus" xlink:href="#zoomMin" x="42" y="9" onmousedown="handleZoom(evt,'out')"/>
                <use id="reset" xlink:href="#resetDef" x="30" y="36" onmousedown="handleReset()"/>
                <g id="arrowUp" xlink:href="#dirArrow" transform="translate(30 24)" onmousedown="handlePan(0,-1)">
                  <use xlink:href="#rim" fill="#404040">
                        <set attributeName="fill" to="#808080" begin="arrowUp.mouseover" end="arrowUp.mouseout"/>
                  </use>
                  <path fill="none" stroke="white" stroke-width="1.5" d="M0,-3.0v7 M-2.5,-0.5L0,-3.0L2.5,-0.5"/>
                </g>
                <g id="arrowRight" xlink:href="#dirArrow" transform="rotate(90) translate(36 -43)" onmousedown="handlePan(1,0)">
                  <use xlink:href="#rim" fill="#404040">
                        <set attributeName="fill" to="#808080" begin="arrowRight.mouseover" end="arrowRight.mouseout"/>
                  </use>
                  <path fill="none" stroke="white" stroke-width="1.5" d="M0,-3.0v7 M-2.5,-0.5L0,-3.0L2.5,-0.5"/>
                </g>
                <g id="arrowDown" xlink:href="#dirArrow" transform="rotate(180) translate(-30 -48)" onmousedown="handlePan(0,1)">
                  <use xlink:href="#rim" fill="#404040">
                        <set attributeName="fill" to="#808080" begin="arrowDown.mouseover" end="arrowDown.mouseout"/>
                  </use>
                  <path fill="none" stroke="white" stroke-width="1.5" d="M0,-3.0v7 M-2.5,-0.5L0,-3.0L2.5,-0.5"/>
                </g>
                <g id="arrowLeft" xlink:href="#dirArrow" transform="rotate(270) translate(-36 17)" onmousedown="handlePan(-1,0)">
                  <use xlink:href="#rim" fill="#404040">
                        <set attributeName="fill" to="#808080" begin="arrowLeft.mouseover" end="arrowLeft.mouseout"/>
                  </use>
                  <path fill="none" stroke="white" stroke-width="1.5" d="M0,-3.0v7 M-2.5,-0.5L0,-3.0L2.5,-0.5"/>
                </g>
        </g>
        <svg viewBox="0 0 15 15" width="100%" height="30px" preserveAspectRatio="xMaxYMin meet">
         <g id="arrow_out" transform="scale(0.3 0.3)">
          <a xlink:href="cylinder_8h__incl_org.svg" target="_base">
           <rect id="button" ry="5" rx="5" y="6" x="6" height="38" width="38"
                fill="#f2f5e9" fill-opacity="0.5" stroke="#606060" stroke-width="1.0"/>
           <path id="arrow"
             d="M 11.500037,31.436501 C 11.940474,20.09759 22.043105,11.32322 32.158766,21.979434 L 37.068811,17.246167 C 37.068811,17.246167 37.088388,32 37.088388,32 L 22.160133,31.978069 C 22.160133,31.978069 26.997745,27.140456 26.997745,27.140456 C 18.528582,18.264221 13.291696,25.230495 11.500037,31.436501 z"
             style="fill:#404040;"/>
          </a>
         </g>
        </svg>
</svg>
