<?xml version="1.0" encoding="UTF-8" standalone="no"?>
<!DOCTYPE svg PUBLIC "-//W3C//DTD SVG 1.1//EN"
 "http://www.w3.org/Graphics/SVG/1.1/DTD/svg11.dtd">
<!-- Generated by graphviz version 2.43.0 (0)
 -->
<!-- Title: date.h Pages: 1 -->
<svg width="1831pt" height="431pt"
 viewBox="0.00 0.00 1830.50 431.00" xmlns="http://www.w3.org/2000/svg" xmlns:xlink="http://www.w3.org/1999/xlink">
<g id="graph0" class="graph" transform="scale(1 1) rotate(0) translate(4 427)">
<title>date.h</title>
<!-- Node1 -->
<g id="node1" class="node">
<title>Node1</title>
<g id="a_node1"><a xlink:title=" ">
<polygon fill="#bfbfbf" stroke="black" points="1050,-403.5 1050,-422.5 1097,-422.5 1097,-403.5 1050,-403.5"/>
<text text-anchor="middle" x="1073.5" y="-410.5" font-family="Helvetica,sans-Serif" font-size="10.00">date.h</text>
</a>
</g>
</g>
<!-- Node2 -->
<g id="node2" class="node">
<title>Node2</title>
<g id="a_node2"><a xlink:title=" ">
<polygon fill="none" stroke="#bfbfbf" points="941,-118 941,-137 1030,-137 1030,-118 941,-118"/>
<text text-anchor="middle" x="985.5" y="-125" font-family="Helvetica,sans-Serif" font-size="10.00">limes_export.h</text>
</a>
</g>
</g>
<!-- Node1&#45;&gt;Node2 -->
<g id="edge1" class="edge">
<title>Node1&#45;&gt;Node2</title>
<path fill="none" stroke="midnightblue" d="M1078.32,-403.46C1092.52,-377.14 1131.49,-295.38 1104.5,-235 1085.41,-192.29 1039.78,-159.61 1010.9,-142.3"/>
<polygon fill="midnightblue" stroke="midnightblue" points="1012.57,-139.22 1002.16,-137.22 1009.05,-145.27 1012.57,-139.22"/>
</g>
<!-- Node3 -->
<g id="node3" class="node">
<title>Node3</title>
<g id="a_node3"><a xlink:href="../../da/d0b/limes__namespace_8h.html" target="_top" xlink:title=" ">
<polygon fill="none" stroke="black" points="482.5,-118 482.5,-137 596.5,-137 596.5,-118 482.5,-118"/>
<text text-anchor="middle" x="539.5" y="-125" font-family="Helvetica,sans-Serif" font-size="10.00">limes_namespace.h</text>
</a>
</g>
</g>
<!-- Node1&#45;&gt;Node3 -->
<g id="edge2" class="edge">
<title>Node1&#45;&gt;Node3</title>
<path fill="none" stroke="midnightblue" d="M1049.64,-411.8C902.77,-410.3 127.5,-397.8 127.5,-302 127.5,-302 127.5,-302 127.5,-244 127.5,-209.11 141.87,-197.41 171.5,-179 220.4,-148.61 380.11,-136.05 472.27,-131.23"/>
<polygon fill="midnightblue" stroke="midnightblue" points="472.53,-134.72 482.34,-130.72 472.17,-127.73 472.53,-134.72"/>
</g>
<!-- Node4 -->
<g id="node4" class="node">
<title>Node4</title>
<g id="a_node4"><a xlink:href="../../d3/d53/preprocessor_8h.html" target="_top" xlink:title=" ">
<polygon fill="none" stroke="black" points="810,-56.5 810,-75.5 933,-75.5 933,-56.5 810,-56.5"/>
<text text-anchor="middle" x="871.5" y="-63.5" font-family="Helvetica,sans-Serif" font-size="10.00">../misc/preprocessor.h</text>
</a>
</g>
</g>
<!-- Node1&#45;&gt;Node4 -->
<g id="edge3" class="edge">
<title>Node1&#45;&gt;Node4</title>
<path fill="none" stroke="midnightblue" d="M1087.64,-403.36C1112.51,-386.95 1161.5,-348.71 1161.5,-302 1161.5,-302 1161.5,-302 1161.5,-188 1161.5,-137.15 1007.72,-96.19 924.12,-77.69"/>
<polygon fill="midnightblue" stroke="midnightblue" points="924.81,-74.25 914.29,-75.54 923.31,-81.09 924.81,-74.25"/>
</g>
<!-- Node6 -->
<g id="node6" class="node">
<title>Node6</title>
<g id="a_node6"><a xlink:href="../../d0/ddc/weekday_8h.html" target="_top" xlink:title=" ">
<polygon fill="none" stroke="black" points="899.5,-347.5 899.5,-366.5 967.5,-366.5 967.5,-347.5 899.5,-347.5"/>
<text text-anchor="middle" x="933.5" y="-354.5" font-family="Helvetica,sans-Serif" font-size="10.00">weekday.h</text>
</a>
</g>
</g>
<!-- Node1&#45;&gt;Node6 -->
<g id="edge5" class="edge">
<title>Node1&#45;&gt;Node6</title>
<path fill="none" stroke="midnightblue" d="M1051.32,-403.44C1028.07,-394.48 991.35,-380.31 965.08,-370.18"/>
<polygon fill="midnightblue" stroke="midnightblue" points="966.17,-366.85 955.58,-366.52 963.65,-373.38 966.17,-366.85"/>
</g>
<!-- Node7 -->
<g id="node7" class="node">
<title>Node7</title>
<g id="a_node7"><a xlink:href="../../d5/d98/year_8h.html" target="_top" xlink:title=" ">
<polygon fill="none" stroke="black" points="910,-291.5 910,-310.5 957,-310.5 957,-291.5 910,-291.5"/>
<text text-anchor="middle" x="933.5" y="-298.5" font-family="Helvetica,sans-Serif" font-size="10.00">year.h</text>
</a>
</g>
</g>
<!-- Node1&#45;&gt;Node7 -->
<g id="edge44" class="edge">
<title>Node1&#45;&gt;Node7</title>
<path fill="none" stroke="midnightblue" d="M1062.51,-403.37C1038.69,-384.65 982.06,-340.15 952.38,-316.83"/>
<polygon fill="midnightblue" stroke="midnightblue" points="954.46,-314.02 944.43,-310.59 950.14,-319.52 954.46,-314.02"/>
</g>
<!-- Node8 -->
<g id="node8" class="node">
<title>Node8</title>
<g id="a_node8"><a xlink:href="../../d0/d00/compiler__defs_8h.html" target="_top" xlink:title=" ">
<polygon fill="none" stroke="black" points="1190,-112.5 1190,-142.5 1297,-142.5 1297,-112.5 1190,-112.5"/>
<text text-anchor="start" x="1198" y="-130.5" font-family="Helvetica,sans-Serif" font-size="10.00">../system/compiler</text>
<text text-anchor="middle" x="1243.5" y="-119.5" font-family="Helvetica,sans-Serif" font-size="10.00">_defs.h</text>
</a>
</g>
</g>
<!-- Node1&#45;&gt;Node8 -->
<g id="edge63" class="edge">
<title>Node1&#45;&gt;Node8</title>
<path fill="none" stroke="midnightblue" d="M1097.36,-412.1C1154.43,-410.87 1298.55,-398.82 1359.5,-311 1399.5,-253.37 1319.3,-182.63 1273.06,-148.63"/>
<polygon fill="midnightblue" stroke="midnightblue" points="1275.02,-145.73 1264.86,-142.72 1270.93,-151.41 1275.02,-145.73"/>
</g>
<!-- Node9 -->
<g id="node9" class="node">
<title>Node9</title>
<g id="a_node9"><a xlink:title=" ">
<polygon fill="none" stroke="#bfbfbf" points="1051.5,-235.5 1051.5,-254.5 1095.5,-254.5 1095.5,-235.5 1051.5,-235.5"/>
<text text-anchor="middle" x="1073.5" y="-242.5" font-family="Helvetica,sans-Serif" font-size="10.00">ctime</text>
</a>
</g>
</g>
<!-- Node1&#45;&gt;Node9 -->
<g id="edge45" class="edge">
<title>Node1&#45;&gt;Node9</title>
<path fill="none" stroke="midnightblue" d="M1073.5,-403.08C1073.5,-376.95 1073.5,-300.21 1073.5,-264.58"/>
<polygon fill="midnightblue" stroke="midnightblue" points="1077,-264.57 1073.5,-254.57 1070,-264.57 1077,-264.57"/>
</g>
<!-- Node21 -->
<g id="node12" class="node">
<title>Node21</title>
<g id="a_node12"><a xlink:href="../../d7/d38/month_8h.html" target="_top" xlink:title=" ">
<polygon fill="none" stroke="black" points="767,-291.5 767,-310.5 824,-310.5 824,-291.5 767,-291.5"/>
<text text-anchor="middle" x="795.5" y="-298.5" font-family="Helvetica,sans-Serif" font-size="10.00">month.h</text>
</a>
</g>
</g>
<!-- Node1&#45;&gt;Node21 -->
<g id="edge43" class="edge">
<title>Node1&#45;&gt;Node21</title>
<path fill="none" stroke="midnightblue" d="M1049.8,-408.94C1014.04,-403.73 944.71,-391.25 890.5,-367 861.34,-353.96 831.56,-331.86 813.3,-317.1"/>
<polygon fill="midnightblue" stroke="midnightblue" points="815.26,-314.18 805.31,-310.52 810.8,-319.58 815.26,-314.18"/>
</g>
<!-- Node25 -->
<g id="node17" class="node">
<title>Node25</title>
<g id="a_node17"><a xlink:title=" ">
<polygon fill="none" stroke="#bfbfbf" points="1778.5,-179.5 1778.5,-198.5 1822.5,-198.5 1822.5,-179.5 1778.5,-179.5"/>
<text text-anchor="middle" x="1800.5" y="-186.5" font-family="Helvetica,sans-Serif" font-size="10.00">string</text>
</a>
</g>
</g>
<!-- Node1&#45;&gt;Node25 -->
<g id="edge46" class="edge">
<title>Node1&#45;&gt;Node25</title>
<path fill="none" stroke="midnightblue" d="M1097.4,-411.53C1155.57,-409.86 1308.66,-402.17 1430.5,-367 1543.59,-334.36 1564.52,-306.21 1670.5,-255 1706.76,-237.48 1748.34,-216.54 1774.51,-203.25"/>
<polygon fill="midnightblue" stroke="midnightblue" points="1776.42,-206.21 1783.74,-198.56 1773.24,-199.97 1776.42,-206.21"/>
</g>
<!-- Node26 -->
<g id="node18" class="node">
<title>Node26</title>
<g id="a_node18"><a xlink:href="../../d5/dd4/time__utils_8h.html" target="_top" xlink:title=" ">
<polygon fill="none" stroke="black" points="1276.5,-291.5 1276.5,-310.5 1350.5,-310.5 1350.5,-291.5 1276.5,-291.5"/>
<text text-anchor="middle" x="1313.5" y="-298.5" font-family="Helvetica,sans-Serif" font-size="10.00">time_utils.h</text>
</a>
</g>
</g>
<!-- Node1&#45;&gt;Node26 -->
<g id="edge47" class="edge">
<title>Node1&#45;&gt;Node26</title>
<path fill="none" stroke="midnightblue" d="M1093.5,-403.35C1114.11,-394.39 1147.15,-379.93 1175.5,-367 1214.3,-349.31 1258.88,-328.16 1286.63,-314.9"/>
<polygon fill="midnightblue" stroke="midnightblue" points="1288.19,-318.03 1295.7,-310.56 1285.17,-311.71 1288.19,-318.03"/>
</g>
<!-- Node32 -->
<g id="node24" class="node">
<title>Node32</title>
<g id="a_node24"><a xlink:href="../../d1/d95/date__impl_8h.html" target="_top" xlink:title=" ">
<polygon fill="none" stroke="black" points="0,-235.5 0,-254.5 99,-254.5 99,-235.5 0,-235.5"/>
<text text-anchor="middle" x="49.5" y="-242.5" font-family="Helvetica,sans-Serif" font-size="10.00">impl/date_impl.h</text>
</a>
</g>
</g>
<!-- Node1&#45;&gt;Node32 -->
<g id="edge64" class="edge">
<title>Node1&#45;&gt;Node32</title>
<path fill="none" stroke="midnightblue" d="M1049.92,-411.55C906.35,-408.75 154.26,-392.87 113.5,-367 77,-343.83 60.05,-292.48 53.31,-264.71"/>
<polygon fill="midnightblue" stroke="midnightblue" points="56.67,-263.7 51.07,-254.7 49.84,-265.23 56.67,-263.7"/>
</g>
<!-- Node5 -->
<g id="node5" class="node">
<title>Node5</title>
<g id="a_node5"><a xlink:title=" ">
<polygon fill="none" stroke="#bfbfbf" points="587.5,-0.5 587.5,-19.5 687.5,-19.5 687.5,-0.5 587.5,-0.5"/>
<text text-anchor="middle" x="637.5" y="-7.5" font-family="Helvetica,sans-Serif" font-size="10.00">limes_platform.h</text>
</a>
</g>
</g>
<!-- Node4&#45;&gt;Node5 -->
<g id="edge4" class="edge">
<title>Node4&#45;&gt;Node5</title>
<path fill="none" stroke="midnightblue" d="M834.42,-56.44C793.77,-47.06 728.47,-31.99 684.32,-21.8"/>
<polygon fill="midnightblue" stroke="midnightblue" points="684.94,-18.35 674.4,-19.52 683.36,-25.18 684.94,-18.35"/>
</g>
<!-- Node6&#45;&gt;Node2 -->
<g id="edge6" class="edge">
<title>Node6&#45;&gt;Node2</title>
<path fill="none" stroke="midnightblue" d="M941.61,-347.49C949.19,-338.98 960.11,-325.16 965.5,-311 987,-254.51 987.62,-181.56 986.5,-147.54"/>
<polygon fill="midnightblue" stroke="midnightblue" points="989.98,-147.07 986.06,-137.22 982.99,-147.36 989.98,-147.07"/>
</g>
<!-- Node6&#45;&gt;Node3 -->
<g id="edge7" class="edge">
<title>Node6&#45;&gt;Node3</title>
<path fill="none" stroke="midnightblue" d="M899.43,-354.01C759.26,-345.48 232.21,-309.91 184.5,-255 101.34,-159.28 347.54,-135.99 472.09,-130.32"/>
<polygon fill="midnightblue" stroke="midnightblue" points="472.45,-133.81 482.29,-129.89 472.15,-126.82 472.45,-133.81"/>
</g>
<!-- Node6&#45;&gt;Node4 -->
<g id="edge34" class="edge">
<title>Node6&#45;&gt;Node4</title>
<path fill="none" stroke="midnightblue" d="M924.35,-347.25C907.11,-329.77 871.5,-288.53 871.5,-246 871.5,-246 871.5,-246 871.5,-188 871.5,-151.71 871.5,-109.31 871.5,-85.56"/>
<polygon fill="midnightblue" stroke="midnightblue" points="875,-85.51 871.5,-75.51 868,-85.51 875,-85.51"/>
</g>
<!-- Node6&#45;&gt;Node7 -->
<g id="edge8" class="edge">
<title>Node6&#45;&gt;Node7</title>
<path fill="none" stroke="midnightblue" d="M933.5,-347.08C933.5,-340.01 933.5,-329.86 933.5,-320.99"/>
<polygon fill="midnightblue" stroke="midnightblue" points="937,-320.75 933.5,-310.75 930,-320.75 937,-320.75"/>
</g>
<!-- Node6&#45;&gt;Node8 -->
<g id="edge35" class="edge">
<title>Node6&#45;&gt;Node8</title>
<path fill="none" stroke="midnightblue" d="M953.12,-347.34C971.86,-338.84 1000.7,-325.11 1024.5,-311 1104.79,-263.42 1185.63,-186.9 1222.64,-149.9"/>
<polygon fill="midnightblue" stroke="midnightblue" points="1225.3,-152.19 1229.86,-142.63 1220.33,-147.26 1225.3,-152.19"/>
</g>
<!-- Node6&#45;&gt;Node9 -->
<g id="edge38" class="edge">
<title>Node6&#45;&gt;Node9</title>
<path fill="none" stroke="midnightblue" d="M946.99,-347.5C960.57,-338.78 981.96,-324.6 999.5,-311 1020.02,-295.09 1042.24,-275.18 1056.92,-261.61"/>
<polygon fill="midnightblue" stroke="midnightblue" points="1059.3,-264.17 1064.24,-254.8 1054.53,-259.05 1059.3,-264.17"/>
</g>
<!-- Node6&#45;&gt;Node21 -->
<g id="edge23" class="edge">
<title>Node6&#45;&gt;Node21</title>
<path fill="none" stroke="midnightblue" d="M911.63,-347.44C888.72,-338.48 852.52,-324.31 826.63,-314.18"/>
<polygon fill="midnightblue" stroke="midnightblue" points="827.85,-310.9 817.26,-310.52 825.3,-317.42 827.85,-310.9"/>
</g>
<!-- Node22 -->
<g id="node13" class="node">
<title>Node22</title>
<g id="a_node13"><a xlink:title=" ">
<polygon fill="none" stroke="#bfbfbf" points="462,-235.5 462,-254.5 535,-254.5 535,-235.5 462,-235.5"/>
<text text-anchor="middle" x="498.5" y="-242.5" font-family="Helvetica,sans-Serif" font-size="10.00">string_view</text>
</a>
</g>
</g>
<!-- Node6&#45;&gt;Node22 -->
<g id="edge36" class="edge">
<title>Node6&#45;&gt;Node22</title>
<path fill="none" stroke="midnightblue" d="M899.73,-347.46C821.67,-327.72 628.82,-278.96 542.05,-257.01"/>
<polygon fill="midnightblue" stroke="midnightblue" points="542.8,-253.59 532.25,-254.53 541.09,-260.38 542.8,-253.59"/>
</g>
<!-- Node12 -->
<g id="node15" class="node">
<title>Node12</title>
<g id="a_node15"><a xlink:title=" ">
<polygon fill="none" stroke="#bfbfbf" points="1691,-179.5 1691,-198.5 1760,-198.5 1760,-179.5 1691,-179.5"/>
<text text-anchor="middle" x="1725.5" y="-186.5" font-family="Helvetica,sans-Serif" font-size="10.00">type_traits</text>
</a>
</g>
</g>
<!-- Node6&#45;&gt;Node12 -->
<g id="edge37" class="edge">
<title>Node6&#45;&gt;Node12</title>
<path fill="none" stroke="midnightblue" d="M967.9,-353.64C1092.23,-344.7 1517.5,-310.63 1640.5,-255 1667.31,-242.87 1693.48,-220.87 1709.54,-205.85"/>
<polygon fill="midnightblue" stroke="midnightblue" points="1712.18,-208.18 1716.97,-198.73 1707.33,-203.13 1712.18,-208.18"/>
</g>
<!-- Node24 -->
<g id="node16" class="node">
<title>Node24</title>
<g id="a_node16"><a xlink:href="../../d4/d9a/weekday__impl_8h.html" target="_top" xlink:title=" ">
<polygon fill="none" stroke="black" points="321.5,-235.5 321.5,-254.5 443.5,-254.5 443.5,-235.5 321.5,-235.5"/>
<text text-anchor="middle" x="382.5" y="-242.5" font-family="Helvetica,sans-Serif" font-size="10.00">impl/weekday_impl.h</text>
</a>
</g>
</g>
<!-- Node6&#45;&gt;Node24 -->
<g id="edge39" class="edge">
<title>Node6&#45;&gt;Node24</title>
<path fill="none" stroke="midnightblue" d="M899.33,-350.63C849.53,-342.67 754.16,-326.98 673.5,-311 586.32,-293.73 485.18,-270.39 428.03,-256.89"/>
<polygon fill="midnightblue" stroke="midnightblue" points="428.76,-253.46 418.22,-254.56 427.15,-260.27 428.76,-253.46"/>
</g>
<!-- Node7&#45;&gt;Node2 -->
<g id="edge9" class="edge">
<title>Node7&#45;&gt;Node2</title>
<path fill="none" stroke="midnightblue" d="M936.15,-291.26C944.25,-264.54 968.82,-183.52 979.93,-146.86"/>
<polygon fill="midnightblue" stroke="midnightblue" points="983.36,-147.6 982.92,-137.02 976.67,-145.57 983.36,-147.6"/>
</g>
<!-- Node7&#45;&gt;Node3 -->
<g id="edge10" class="edge">
<title>Node7&#45;&gt;Node3</title>
<path fill="none" stroke="midnightblue" d="M909.65,-297.72C840.76,-290.98 644.79,-270.64 620.5,-255 599.53,-241.5 564.67,-177.54 548.39,-146.07"/>
<polygon fill="midnightblue" stroke="midnightblue" points="551.47,-144.41 543.8,-137.1 545.24,-147.6 551.47,-144.41"/>
</g>
<!-- Node7&#45;&gt;Node4 -->
<g id="edge11" class="edge">
<title>Node7&#45;&gt;Node4</title>
<path fill="none" stroke="midnightblue" d="M931.46,-291.34C925.1,-264.55 904.95,-180.72 885.5,-112 882.99,-103.13 879.98,-93.36 877.39,-85.19"/>
<polygon fill="midnightblue" stroke="midnightblue" points="880.7,-84.04 874.32,-75.59 874.04,-86.18 880.7,-84.04"/>
</g>
<!-- Node7&#45;&gt;Node8 -->
<g id="edge12" class="edge">
<title>Node7&#45;&gt;Node8</title>
<path fill="none" stroke="midnightblue" d="M947.48,-291.36C968.09,-278.68 1007.94,-254.45 1042.5,-235 1099.34,-203.02 1166.48,-167.98 1206.99,-147.14"/>
<polygon fill="midnightblue" stroke="midnightblue" points="1208.66,-150.22 1215.95,-142.54 1205.46,-143.99 1208.66,-150.22"/>
</g>
<!-- Node7&#45;&gt;Node9 -->
<g id="edge15" class="edge">
<title>Node7&#45;&gt;Node9</title>
<path fill="none" stroke="midnightblue" d="M955.68,-291.44C978.93,-282.48 1015.65,-268.31 1041.92,-258.18"/>
<polygon fill="midnightblue" stroke="midnightblue" points="1043.35,-261.38 1051.42,-254.52 1040.83,-254.85 1043.35,-261.38"/>
</g>
<!-- Node10 -->
<g id="node10" class="node">
<title>Node10</title>
<g id="a_node10"><a xlink:href="../../d2/d38/year__impl_8h.html" target="_top" xlink:title=" ">
<polygon fill="none" stroke="red" points="630,-235.5 630,-254.5 729,-254.5 729,-235.5 630,-235.5"/>
<text text-anchor="middle" x="679.5" y="-242.5" font-family="Helvetica,sans-Serif" font-size="10.00">impl/year_impl.h</text>
</a>
</g>
</g>
<!-- Node7&#45;&gt;Node10 -->
<g id="edge16" class="edge">
<title>Node7&#45;&gt;Node10</title>
<path fill="none" stroke="midnightblue" d="M909.6,-294.92C868.56,-286.19 783.86,-268.19 729.47,-256.62"/>
<polygon fill="midnightblue" stroke="midnightblue" points="730.19,-253.2 719.68,-254.54 728.73,-260.04 730.19,-253.2"/>
</g>
<!-- Node8&#45;&gt;Node4 -->
<g id="edge14" class="edge">
<title>Node8&#45;&gt;Node4</title>
<path fill="none" stroke="midnightblue" d="M1189.74,-114.71C1184.93,-113.75 1180.13,-112.84 1175.5,-112 1096.3,-97.71 1004.88,-84.63 943.14,-76.31"/>
<polygon fill="midnightblue" stroke="midnightblue" points="943.49,-72.82 933.11,-74.96 942.56,-79.76 943.49,-72.82"/>
</g>
<!-- Node8&#45;&gt;Node5 -->
<g id="edge13" class="edge">
<title>Node8&#45;&gt;Node5</title>
<path fill="none" stroke="midnightblue" d="M1189.78,-112.55C1129.61,-97.25 1029.03,-72.67 941.5,-56 857.35,-39.98 759.17,-26.35 697.66,-18.42"/>
<polygon fill="midnightblue" stroke="midnightblue" points="698.1,-14.95 687.74,-17.15 697.21,-21.89 698.1,-14.95"/>
</g>
<!-- Node10&#45;&gt;Node3 -->
<g id="edge17" class="edge">
<title>Node10&#45;&gt;Node3</title>
<path fill="none" stroke="midnightblue" d="M686.95,-235.21C697.27,-221.91 713.28,-196.4 700.5,-179 678.96,-149.67 640.41,-136.91 606.43,-131.55"/>
<polygon fill="midnightblue" stroke="midnightblue" points="606.91,-128.08 596.52,-130.17 605.94,-135.02 606.91,-128.08"/>
</g>
<!-- Node20 -->
<g id="node11" class="node">
<title>Node20</title>
<g id="a_node11"><a xlink:href="../../dc/db3/build__date_8h.html" target="_top" xlink:title=" ">
<polygon fill="none" stroke="black" points="605.5,-179.5 605.5,-198.5 691.5,-198.5 691.5,-179.5 605.5,-179.5"/>
<text text-anchor="middle" x="648.5" y="-186.5" font-family="Helvetica,sans-Serif" font-size="10.00">../build_date.h</text>
</a>
</g>
</g>
<!-- Node10&#45;&gt;Node20 -->
<g id="edge18" class="edge">
<title>Node10&#45;&gt;Node20</title>
<path fill="none" stroke="midnightblue" d="M674.38,-235.08C670.09,-227.61 663.84,-216.72 658.56,-207.52"/>
<polygon fill="midnightblue" stroke="midnightblue" points="661.54,-205.68 653.52,-198.75 655.47,-209.17 661.54,-205.68"/>
</g>
<!-- Node20&#45;&gt;Node2 -->
<g id="edge19" class="edge">
<title>Node20&#45;&gt;Node2</title>
<path fill="none" stroke="midnightblue" d="M691.52,-180.4C752.54,-169.63 864.19,-149.92 930.95,-138.13"/>
<polygon fill="midnightblue" stroke="midnightblue" points="931.62,-141.57 940.86,-136.38 930.4,-134.67 931.62,-141.57"/>
</g>
<!-- Node20&#45;&gt;Node3 -->
<g id="edge20" class="edge">
<title>Node20&#45;&gt;Node3</title>
<path fill="none" stroke="midnightblue" d="M632.88,-179.48C614.91,-169.67 585.18,-153.43 564.09,-141.92"/>
<polygon fill="midnightblue" stroke="midnightblue" points="565.54,-138.73 555.09,-137.01 562.19,-144.87 565.54,-138.73"/>
</g>
<!-- Node20&#45;&gt;Node4 -->
<g id="edge21" class="edge">
<title>Node20&#45;&gt;Node4</title>
<path fill="none" stroke="midnightblue" d="M663.11,-179.3C687.44,-164.88 737.89,-135.34 781.5,-112 802.42,-100.8 826.48,-88.82 844.46,-80.03"/>
<polygon fill="midnightblue" stroke="midnightblue" points="846.3,-83.03 853.76,-75.51 843.24,-76.74 846.3,-83.03"/>
</g>
<!-- Node20&#45;&gt;Node8 -->
<g id="edge22" class="edge">
<title>Node20&#45;&gt;Node8</title>
<path fill="none" stroke="midnightblue" d="M691.77,-183.67C795.32,-173.32 1057.81,-147.07 1179.61,-134.89"/>
<polygon fill="midnightblue" stroke="midnightblue" points="1180.29,-138.34 1189.89,-133.86 1179.59,-131.37 1180.29,-138.34"/>
</g>
<!-- Node21&#45;&gt;Node2 -->
<g id="edge24" class="edge">
<title>Node21&#45;&gt;Node2</title>
<path fill="none" stroke="midnightblue" d="M796.92,-291.12C799.44,-277.72 805.78,-252.06 819.5,-235 856.03,-189.55 917.41,-157.45 954.42,-141.04"/>
<polygon fill="midnightblue" stroke="midnightblue" points="955.93,-144.2 963.72,-137.02 953.15,-137.77 955.93,-144.2"/>
</g>
<!-- Node21&#45;&gt;Node3 -->
<g id="edge25" class="edge">
<title>Node21&#45;&gt;Node3</title>
<path fill="none" stroke="midnightblue" d="M766.83,-295.3C713.07,-286.26 601.29,-266.37 587.5,-255 554.53,-227.81 544.18,-175.38 540.95,-147.31"/>
<polygon fill="midnightblue" stroke="midnightblue" points="544.42,-146.85 539.98,-137.23 537.45,-147.52 544.42,-146.85"/>
</g>
<!-- Node21&#45;&gt;Node4 -->
<g id="edge26" class="edge">
<title>Node21&#45;&gt;Node4</title>
<path fill="none" stroke="midnightblue" d="M796.02,-291.46C796.94,-278.91 799.26,-254.82 804.5,-235 819.44,-178.52 848.05,-115.39 862.58,-85.12"/>
<polygon fill="midnightblue" stroke="midnightblue" points="865.86,-86.37 867.08,-75.84 859.56,-83.31 865.86,-86.37"/>
</g>
<!-- Node21&#45;&gt;Node8 -->
<g id="edge27" class="edge">
<title>Node21&#45;&gt;Node8</title>
<path fill="none" stroke="midnightblue" d="M816.78,-291.46C866.82,-271.42 995.89,-219.99 1104.5,-179 1134.24,-167.78 1167.72,-155.6 1194.37,-146.01"/>
<polygon fill="midnightblue" stroke="midnightblue" points="1195.63,-149.28 1203.86,-142.61 1193.27,-142.69 1195.63,-149.28"/>
</g>
<!-- Node21&#45;&gt;Node9 -->
<g id="edge29" class="edge">
<title>Node21&#45;&gt;Node9</title>
<path fill="none" stroke="midnightblue" d="M824.2,-294.42C876.47,-284.27 986.78,-262.84 1041.43,-252.23"/>
<polygon fill="midnightblue" stroke="midnightblue" points="1042.12,-255.66 1051.27,-250.32 1040.79,-248.79 1042.12,-255.66"/>
</g>
<!-- Node21&#45;&gt;Node22 -->
<g id="edge28" class="edge">
<title>Node21&#45;&gt;Node22</title>
<path fill="none" stroke="midnightblue" d="M766.75,-294.77C715.32,-285.42 607.12,-265.75 545,-254.45"/>
<polygon fill="midnightblue" stroke="midnightblue" points="545.54,-250.99 535.07,-252.65 544.28,-257.88 545.54,-250.99"/>
</g>
<!-- Node23 -->
<g id="node14" class="node">
<title>Node23</title>
<g id="a_node14"><a xlink:href="../../da/d19/month__impl_8h.html" target="_top" xlink:title=" ">
<polygon fill="none" stroke="red" points="194,-235.5 194,-254.5 303,-254.5 303,-235.5 194,-235.5"/>
<text text-anchor="middle" x="248.5" y="-242.5" font-family="Helvetica,sans-Serif" font-size="10.00">impl/month_impl.h</text>
</a>
</g>
</g>
<!-- Node21&#45;&gt;Node23 -->
<g id="edge30" class="edge">
<title>Node21&#45;&gt;Node23</title>
<path fill="none" stroke="midnightblue" d="M766.87,-297.8C693.45,-292.07 492.26,-275.73 313.41,-255.05"/>
<polygon fill="midnightblue" stroke="midnightblue" points="313.63,-251.56 303.29,-253.88 312.82,-258.51 313.63,-251.56"/>
</g>
<!-- Node23&#45;&gt;Node3 -->
<g id="edge31" class="edge">
<title>Node23&#45;&gt;Node3</title>
<path fill="none" stroke="midnightblue" d="M270.37,-235.32C321.48,-215.03 448.87,-164.47 508.19,-140.93"/>
<polygon fill="midnightblue" stroke="midnightblue" points="509.77,-144.07 517.77,-137.12 507.18,-137.56 509.77,-144.07"/>
</g>
<!-- Node23&#45;&gt;Node5 -->
<g id="edge32" class="edge">
<title>Node23&#45;&gt;Node5</title>
<path fill="none" stroke="midnightblue" d="M258.55,-235.44C292.61,-206.75 407.58,-112.66 515.5,-56 542.03,-42.07 573.84,-30.49 598.33,-22.57"/>
<polygon fill="midnightblue" stroke="midnightblue" points="599.52,-25.86 608,-19.5 597.41,-19.19 599.52,-25.86"/>
</g>
<!-- Node23&#45;&gt;Node20 -->
<g id="edge33" class="edge">
<title>Node23&#45;&gt;Node20</title>
<path fill="none" stroke="midnightblue" d="M303.31,-236.27C306.42,-235.84 309.5,-235.41 312.5,-235 412.26,-221.31 528.76,-205.82 595.06,-197.05"/>
<polygon fill="midnightblue" stroke="midnightblue" points="595.8,-200.48 605.26,-195.7 594.89,-193.54 595.8,-200.48"/>
</g>
<!-- Node24&#45;&gt;Node3 -->
<g id="edge41" class="edge">
<title>Node24&#45;&gt;Node3</title>
<path fill="none" stroke="midnightblue" d="M402.07,-235.41C419.7,-227.24 445.91,-214.01 466.5,-199 488.84,-182.71 511.23,-159.9 525.2,-144.68"/>
<polygon fill="midnightblue" stroke="midnightblue" points="527.95,-146.87 532.05,-137.1 522.75,-142.18 527.95,-146.87"/>
</g>
<!-- Node24&#45;&gt;Node5 -->
<g id="edge42" class="edge">
<title>Node24&#45;&gt;Node5</title>
<path fill="none" stroke="midnightblue" d="M386.8,-235.38C398.33,-212.9 431.92,-151.49 473.5,-112 515.06,-72.53 574.47,-40.64 609.21,-23.87"/>
<polygon fill="midnightblue" stroke="midnightblue" points="610.79,-27 618.32,-19.55 607.79,-20.68 610.79,-27"/>
</g>
<!-- Node24&#45;&gt;Node20 -->
<g id="edge40" class="edge">
<title>Node24&#45;&gt;Node20</title>
<path fill="none" stroke="midnightblue" d="M424.65,-235.44C471.25,-225.98 546.34,-210.74 596.55,-200.55"/>
<polygon fill="midnightblue" stroke="midnightblue" points="597.44,-203.94 606.55,-198.52 596.05,-197.08 597.44,-203.94"/>
</g>
<!-- Node26&#45;&gt;Node2 -->
<g id="edge48" class="edge">
<title>Node26&#45;&gt;Node2</title>
<path fill="none" stroke="midnightblue" d="M1301.17,-291.3C1282.58,-278.34 1246.09,-253.51 1213.5,-235 1145.33,-196.29 1060.72,-159.52 1016.2,-140.99"/>
<polygon fill="midnightblue" stroke="midnightblue" points="1017.39,-137.7 1006.81,-137.11 1014.71,-144.17 1017.39,-137.7"/>
</g>
<!-- Node26&#45;&gt;Node3 -->
<g id="edge49" class="edge">
<title>Node26&#45;&gt;Node3</title>
<path fill="none" stroke="midnightblue" d="M1289.3,-291.47C1250.63,-278.08 1172.35,-251.89 1104.5,-235 926.45,-190.69 712.78,-155.1 606.45,-138.56"/>
<polygon fill="midnightblue" stroke="midnightblue" points="606.92,-135.09 596.5,-137.02 605.85,-142.01 606.92,-135.09"/>
</g>
<!-- Node26&#45;&gt;Node8 -->
<g id="edge62" class="edge">
<title>Node26&#45;&gt;Node8</title>
<path fill="none" stroke="midnightblue" d="M1313.35,-291.28C1312.66,-270.63 1308.99,-217.62 1289.5,-179 1284.1,-168.3 1275.8,-158.18 1267.72,-149.84"/>
<polygon fill="midnightblue" stroke="midnightblue" points="1270.05,-147.23 1260.46,-142.73 1265.15,-152.23 1270.05,-147.23"/>
</g>
<!-- Node26&#45;&gt;Node9 -->
<g id="edge51" class="edge">
<title>Node26&#45;&gt;Node9</title>
<path fill="none" stroke="midnightblue" d="M1276.26,-291.62C1229.46,-281.09 1149.9,-263.19 1105.63,-253.23"/>
<polygon fill="midnightblue" stroke="midnightblue" points="1106.23,-249.78 1095.7,-251 1104.69,-256.61 1106.23,-249.78"/>
</g>
<!-- Node26&#45;&gt;Node12 -->
<g id="edge52" class="edge">
<title>Node26&#45;&gt;Node12</title>
<path fill="none" stroke="midnightblue" d="M1350.53,-293.34C1355.23,-292.54 1359.97,-291.74 1364.5,-291 1471.83,-273.55 1503.41,-289.6 1606.5,-255 1625.93,-248.48 1674,-220.75 1702.75,-203.68"/>
<polygon fill="midnightblue" stroke="midnightblue" points="1704.54,-206.69 1711.34,-198.56 1700.96,-200.67 1704.54,-206.69"/>
</g>
<!-- Node27 -->
<g id="node19" class="node">
<title>Node27</title>
<g id="a_node19"><a xlink:title=" ">
<polygon fill="none" stroke="#bfbfbf" points="1547.5,-235.5 1547.5,-254.5 1597.5,-254.5 1597.5,-235.5 1547.5,-235.5"/>
<text text-anchor="middle" x="1572.5" y="-242.5" font-family="Helvetica,sans-Serif" font-size="10.00">chrono</text>
</a>
</g>
</g>
<!-- Node26&#45;&gt;Node27 -->
<g id="edge50" class="edge">
<title>Node26&#45;&gt;Node27</title>
<path fill="none" stroke="midnightblue" d="M1350.68,-293.29C1393.4,-285.42 1465.85,-271.58 1537.23,-255.19"/>
<polygon fill="midnightblue" stroke="midnightblue" points="1538.34,-258.52 1547.29,-252.86 1536.76,-251.7 1538.34,-258.52"/>
</g>
<!-- Node28 -->
<g id="node20" class="node">
<title>Node28</title>
<g id="a_node20"><a xlink:href="../../d4/dd5/_type_traits_8h.html" target="_top" xlink:title=" ">
<polygon fill="none" stroke="black" points="1417.5,-235.5 1417.5,-254.5 1529.5,-254.5 1529.5,-235.5 1417.5,-235.5"/>
<text text-anchor="middle" x="1473.5" y="-242.5" font-family="Helvetica,sans-Serif" font-size="10.00">../meta/TypeTraits.h</text>
</a>
</g>
</g>
<!-- Node26&#45;&gt;Node28 -->
<g id="edge53" class="edge">
<title>Node26&#45;&gt;Node28</title>
<path fill="none" stroke="midnightblue" d="M1338.85,-291.44C1365.77,-282.36 1408.5,-267.94 1438.59,-257.78"/>
<polygon fill="midnightblue" stroke="midnightblue" points="1439.91,-261.03 1448.27,-254.52 1437.67,-254.4 1439.91,-261.03"/>
</g>
<!-- Node28&#45;&gt;Node2 -->
<g id="edge57" class="edge">
<title>Node28&#45;&gt;Node2</title>
<path fill="none" stroke="midnightblue" d="M1447.41,-235.46C1406.14,-222.17 1323.15,-196.25 1251.5,-179 1178.94,-161.53 1094.07,-146.31 1040.07,-137.26"/>
<polygon fill="midnightblue" stroke="midnightblue" points="1040.46,-133.78 1030.02,-135.59 1039.31,-140.69 1040.46,-133.78"/>
</g>
<!-- Node28&#45;&gt;Node3 -->
<g id="edge59" class="edge">
<title>Node28&#45;&gt;Node3</title>
<path fill="none" stroke="midnightblue" d="M1417.18,-237.04C1254.28,-216.89 783.06,-158.62 606.95,-136.84"/>
<polygon fill="midnightblue" stroke="midnightblue" points="607.14,-133.34 596.79,-135.58 606.28,-140.29 607.14,-133.34"/>
</g>
<!-- Node28&#45;&gt;Node5 -->
<g id="edge58" class="edge">
<title>Node28&#45;&gt;Node5</title>
<path fill="none" stroke="midnightblue" d="M1516.33,-235.48C1564.07,-225.56 1635.63,-209.22 1643.5,-199 1648.92,-191.96 1649.14,-185.87 1643.5,-179 1522.86,-32.01 896.52,-13.41 697.96,-11.23"/>
<polygon fill="midnightblue" stroke="midnightblue" points="697.75,-7.73 687.71,-11.13 697.68,-14.73 697.75,-7.73"/>
</g>
<!-- Node28&#45;&gt;Node12 -->
<g id="edge54" class="edge">
<title>Node28&#45;&gt;Node12</title>
<path fill="none" stroke="midnightblue" d="M1513.43,-235.44C1558.94,-225.69 1633.15,-209.79 1680.63,-199.62"/>
<polygon fill="midnightblue" stroke="midnightblue" points="1681.58,-202.99 1690.63,-197.47 1680.11,-196.15 1681.58,-202.99"/>
</g>
<!-- Node28&#45;&gt;Node25 -->
<g id="edge56" class="edge">
<title>Node28&#45;&gt;Node25</title>
<path fill="none" stroke="midnightblue" d="M1529.57,-235.88C1602.33,-225.29 1724.39,-207.32 1768.4,-198.87"/>
<polygon fill="midnightblue" stroke="midnightblue" points="1769.15,-202.29 1778.24,-196.84 1767.74,-195.43 1769.15,-202.29"/>
</g>
<!-- Node29 -->
<g id="node21" class="node">
<title>Node29</title>
<g id="a_node21"><a xlink:title=" ">
<polygon fill="none" stroke="#bfbfbf" points="1418,-179.5 1418,-198.5 1475,-198.5 1475,-179.5 1418,-179.5"/>
<text text-anchor="middle" x="1446.5" y="-186.5" font-family="Helvetica,sans-Serif" font-size="10.00">typeinfo</text>
</a>
</g>
</g>
<!-- Node28&#45;&gt;Node29 -->
<g id="edge55" class="edge">
<title>Node28&#45;&gt;Node29</title>
<path fill="none" stroke="midnightblue" d="M1469.04,-235.08C1465.35,-227.69 1459.98,-216.95 1455.41,-207.81"/>
<polygon fill="midnightblue" stroke="midnightblue" points="1458.48,-206.13 1450.88,-198.75 1452.22,-209.26 1458.48,-206.13"/>
</g>
<!-- Node30 -->
<g id="node22" class="node">
<title>Node30</title>
<g id="a_node22"><a xlink:title=" ">
<polygon fill="none" stroke="#bfbfbf" points="1493,-179.5 1493,-198.5 1558,-198.5 1558,-179.5 1493,-179.5"/>
<text text-anchor="middle" x="1525.5" y="-186.5" font-family="Helvetica,sans-Serif" font-size="10.00">exception</text>
</a>
</g>
</g>
<!-- Node28&#45;&gt;Node30 -->
<g id="edge60" class="edge">
<title>Node28&#45;&gt;Node30</title>
<path fill="none" stroke="midnightblue" d="M1482.09,-235.08C1489.66,-227.22 1500.88,-215.57 1510.01,-206.08"/>
<polygon fill="midnightblue" stroke="midnightblue" points="1512.66,-208.38 1517.07,-198.75 1507.62,-203.53 1512.66,-208.38"/>
</g>
<!-- Node31 -->
<g id="node23" class="node">
<title>Node31</title>
<g id="a_node23"><a xlink:title=" ">
<polygon fill="none" stroke="#bfbfbf" points="1576.5,-179.5 1576.5,-198.5 1634.5,-198.5 1634.5,-179.5 1576.5,-179.5"/>
<text text-anchor="middle" x="1605.5" y="-186.5" font-family="Helvetica,sans-Serif" font-size="10.00">cxxabi.h</text>
</a>
</g>
</g>
<!-- Node28&#45;&gt;Node31 -->
<g id="edge61" class="edge">
<title>Node28&#45;&gt;Node31</title>
<path fill="none" stroke="midnightblue" d="M1494.42,-235.44C1516.24,-226.52 1550.65,-212.44 1575.39,-202.32"/>
<polygon fill="midnightblue" stroke="midnightblue" points="1576.75,-205.54 1584.68,-198.52 1574.1,-199.06 1576.75,-205.54"/>
</g>
<!-- Node32&#45;&gt;Node3 -->
<g id="edge65" class="edge">
<title>Node32&#45;&gt;Node3</title>
<path fill="none" stroke="midnightblue" d="M54.99,-235.45C64.78,-221.01 86.76,-192.1 113.5,-179 175.07,-148.83 368.43,-135.94 472.17,-131.07"/>
<polygon fill="midnightblue" stroke="midnightblue" points="472.39,-134.57 482.22,-130.61 472.07,-127.57 472.39,-134.57"/>
</g>
<!-- Node32&#45;&gt;Node5 -->
<g id="edge66" class="edge">
<title>Node32&#45;&gt;Node5</title>
<path fill="none" stroke="midnightblue" d="M51.66,-235.48C55.61,-221.62 65.32,-194.18 83.5,-179 224.31,-61.42 301.63,-108.17 477.5,-56 517.69,-44.08 563.79,-31.2 596.15,-22.28"/>
<polygon fill="midnightblue" stroke="midnightblue" points="597.44,-25.56 606.15,-19.53 595.58,-18.81 597.44,-25.56"/>
</g>
<!-- Node32&#45;&gt;Node20 -->
<g id="edge67" class="edge">
<title>Node32&#45;&gt;Node20</title>
<path fill="none" stroke="midnightblue" d="M99.03,-239.54C210.47,-229.49 480.17,-205.17 595.14,-194.81"/>
<polygon fill="midnightblue" stroke="midnightblue" points="595.8,-198.26 605.45,-193.88 595.18,-191.29 595.8,-198.26"/>
</g>
</g>
</svg>
