<?xml version="1.0" encoding="UTF-8" standalone="no"?>
<!DOCTYPE svg PUBLIC "-//W3C//DTD SVG 1.1//EN"
 "http://www.w3.org/Graphics/SVG/1.1/DTD/svg11.dtd">
<!-- Generated by graphviz version 2.43.0 (0)
 -->
<!-- Title: LinkedList.h Pages: 1 -->
<!--zoomable 364 -->
<svg id="main" version="1.1" xmlns="http://www.w3.org/2000/svg" xmlns:xlink="http://www.w3.org/1999/xlink" xml:space="preserve" onload="init(evt)">
<style type="text/css"><![CDATA[
.edge:hover path { stroke: red; }
.edge:hover polygon { stroke: red; fill: red; }
]]></style>
<script type="text/javascript"><![CDATA[
var edges = document.getElementsByTagName('g');
if (edges && edges.length) {
  for (var i=0;i<edges.length;i++) {
    if (edges[i].id.substr(0,4)=='edge') {
      edges[i].setAttribute('class','edge');
    }
  }
}
]]></script>
        <defs>
                <circle id="rim" cx="0" cy="0" r="7"/>
                <circle id="rim2" cx="0" cy="0" r="3.5"/>
                <g id="zoomPlus">
                        <use xlink:href="#rim" fill="#404040">
                                <set attributeName="fill" to="#808080" begin="zoomplus.mouseover" end="zoomplus.mouseout"/>
                        </use>
                        <path d="M-4,0h8M0,-4v8" fill="none" stroke="white" stroke-width="1.5" pointer-events="none"/>
                </g>
                <g id="zoomMin">
                        <use xlink:href="#rim" fill="#404040">
                                <set attributeName="fill" to="#808080" begin="zoomminus.mouseover" end="zoomminus.mouseout"/>
                        </use>
                        <path d="M-4,0h8" fill="none" stroke="white" stroke-width="1.5" pointer-events="none"/>
                </g>
                <g id="dirArrow">
                        <path fill="none" stroke="white" stroke-width="1.5" d="M0,-3.0v7 M-2.5,-0.5L0,-3.0L2.5,-0.5"/>
                </g>
               <g id="resetDef">
                       <use xlink:href="#rim2" fill="#404040">
                               <set attributeName="fill" to="#808080" begin="reset.mouseover" end="reset.mouseout"/>
                       </use>
               </g>
        </defs>

<script type="text/javascript">
var viewWidth = 1729;
var viewHeight = 364;
var sectionId = 'dynsection-1';
</script>
<script xlink:href="../../svgpan.js"/>
<svg id="graph" class="graph">
<g id="viewport">
<title>LinkedList.h</title>
<!-- Node1 -->
<g id="node1" class="node">
<title>Node1</title>
<g id="a_node1"><a xlink:title=" ">
<polygon fill="#bfbfbf" stroke="black" points="776,-336.5 776,-355.5 850,-355.5 850,-336.5 776,-336.5"/>
<text text-anchor="middle" x="813" y="-343.5" font-family="Helvetica,sans-Serif" font-size="10.00">LinkedList.h</text>
</a>
</g>
</g>
<!-- Node2 -->
<g id="node2" class="node">
<title>Node2</title>
<g id="a_node2"><a xlink:href="../../d8/d1d/limes__data__structures_8h_source.html" target="_top" xlink:title=" ">
<polygon fill="none" stroke="black" points="746,-280.5 746,-299.5 880,-299.5 880,-280.5 746,-280.5"/>
<text text-anchor="middle" x="813" y="-287.5" font-family="Helvetica,sans-Serif" font-size="10.00">limes_data_structures.h</text>
</a>
</g>
</g>
<!-- Node1&#45;&gt;Node2 -->
<g id="edge1" class="edge">
<title>Node1&#45;&gt;Node2</title>
<path fill="none" stroke="midnightblue" d="M813,-325.8C813,-316.91 813,-306.78 813,-299.75"/>
<polygon fill="midnightblue" stroke="midnightblue" points="809.5,-326.08 813,-336.08 816.5,-326.08 809.5,-326.08"/>
</g>
<!-- Node3 -->
<g id="node3" class="node">
<title>Node3</title>
<g id="a_node3"><a xlink:href="../../d2/d8d/limes_8h.html" target="_top" xlink:title=" ">
<polygon fill="none" stroke="black" points="781.5,-0.5 781.5,-19.5 834.5,-19.5 834.5,-0.5 781.5,-0.5"/>
<text text-anchor="middle" x="808" y="-7.5" font-family="Helvetica,sans-Serif" font-size="10.00">limes.h</text>
</a>
</g>
</g>
<!-- Node2&#45;&gt;Node3 -->
<g id="edge2" class="edge">
<title>Node2&#45;&gt;Node3</title>
<path fill="none" stroke="midnightblue" d="M735.48,-286.57C532.32,-279.18 0,-252.76 0,-179 0,-179 0,-179 0,-121 0,-40.3 640.92,-16.09 781.12,-11.76"/>
<polygon fill="midnightblue" stroke="midnightblue" points="735.66,-290.08 745.78,-286.94 735.91,-283.08 735.66,-290.08"/>
</g>
<!-- Node4 -->
<g id="node4" class="node">
<title>Node4</title>
<g id="a_node4"><a xlink:href="../../d7/d56/_coeffecients_8h.html" target="_top" xlink:title=" ">
<polygon fill="none" stroke="black" points="351,-224.5 351,-243.5 437,-243.5 437,-224.5 351,-224.5"/>
<text text-anchor="middle" x="394" y="-231.5" font-family="Helvetica,sans-Serif" font-size="10.00">Coeffecients.h</text>
</a>
</g>
</g>
<!-- Node2&#45;&gt;Node4 -->
<g id="edge3" class="edge">
<title>Node2&#45;&gt;Node4</title>
<path fill="none" stroke="midnightblue" d="M735.78,-280.15C662.42,-271.56 549.07,-257.83 451,-244 446.54,-243.37 441.88,-242.68 437.24,-241.98"/>
<polygon fill="midnightblue" stroke="midnightblue" points="735.52,-283.64 745.86,-281.32 736.33,-276.69 735.52,-283.64"/>
</g>
<!-- Node5 -->
<g id="node5" class="node">
<title>Node5</title>
<g id="a_node5"><a xlink:href="../../da/d2d/_filter_8h.html" target="_top" xlink:title=" ">
<polygon fill="none" stroke="black" points="298,-168.5 298,-187.5 348,-187.5 348,-168.5 298,-168.5"/>
<text text-anchor="middle" x="323" y="-175.5" font-family="Helvetica,sans-Serif" font-size="10.00">Filter.h</text>
</a>
</g>
</g>
<!-- Node2&#45;&gt;Node5 -->
<g id="edge7" class="edge">
<title>Node2&#45;&gt;Node5</title>
<path fill="none" stroke="midnightblue" d="M735.23,-286.29C609.26,-281.2 371.6,-268.47 342,-244 325.15,-230.07 322.75,-202.07 322.7,-187.8"/>
<polygon fill="midnightblue" stroke="midnightblue" points="735.45,-289.8 745.58,-286.7 735.73,-282.8 735.45,-289.8"/>
</g>
<!-- Node7 -->
<g id="node7" class="node">
<title>Node7</title>
<g id="a_node7"><a xlink:href="../../d5/d33/_mono_stereo_converter_8h.html" target="_top" xlink:title=" ">
<polygon fill="none" stroke="black" points="190.5,-112.5 190.5,-131.5 321.5,-131.5 321.5,-112.5 190.5,-112.5"/>
<text text-anchor="middle" x="256" y="-119.5" font-family="Helvetica,sans-Serif" font-size="10.00">MonoStereoConverter.h</text>
</a>
</g>
</g>
<!-- Node2&#45;&gt;Node7 -->
<g id="edge8" class="edge">
<title>Node2&#45;&gt;Node7</title>
<path fill="none" stroke="midnightblue" d="M735.95,-280.19C683.45,-273.11 612.73,-261.42 552,-244 495.83,-227.89 331.9,-156.46 275.4,-131.58"/>
<polygon fill="midnightblue" stroke="midnightblue" points="735.49,-283.66 745.86,-281.5 736.41,-276.72 735.49,-283.66"/>
</g>
<!-- Node8 -->
<g id="node8" class="node">
<title>Node8</title>
<g id="a_node8"><a xlink:href="../../dd/d28/_circular_buffer_8h_source.html" target="_top" xlink:title=" ">
<polygon fill="none" stroke="black" points="340,-112.5 340,-131.5 432,-131.5 432,-112.5 340,-112.5"/>
<text text-anchor="middle" x="386" y="-119.5" font-family="Helvetica,sans-Serif" font-size="10.00">CircularBuffer.h</text>
</a>
</g>
</g>
<!-- Node2&#45;&gt;Node8 -->
<g id="edge10" class="edge">
<title>Node2&#45;&gt;Node8</title>
<path fill="none" stroke="midnightblue" d="M735.77,-280.81C692.3,-274.36 637.74,-263.15 592,-244 536.17,-220.63 531.48,-198.15 479,-168 454.43,-153.88 424.76,-140.05 405.65,-131.53"/>
<polygon fill="midnightblue" stroke="midnightblue" points="735.32,-284.28 745.72,-282.23 736.31,-277.35 735.32,-284.28"/>
</g>
<!-- Node9 -->
<g id="node9" class="node">
<title>Node9</title>
<g id="a_node9"><a xlink:href="../../d4/d5f/_perlin_noise_8h_source.html" target="_top" xlink:title=" ">
<polygon fill="none" stroke="black" points="450.5,-112.5 450.5,-131.5 531.5,-131.5 531.5,-112.5 450.5,-112.5"/>
<text text-anchor="middle" x="491" y="-119.5" font-family="Helvetica,sans-Serif" font-size="10.00">PerlinNoise.h</text>
</a>
</g>
</g>
<!-- Node2&#45;&gt;Node9 -->
<g id="edge12" class="edge">
<title>Node2&#45;&gt;Node9</title>
<path fill="none" stroke="midnightblue" d="M735.7,-279.03C700.55,-272.39 659.26,-261.53 625,-244 567.52,-214.58 515.78,-154.16 497.76,-131.68"/>
<polygon fill="midnightblue" stroke="midnightblue" points="735.46,-282.54 745.92,-280.88 736.7,-275.65 735.46,-282.54"/>
</g>
<!-- Node10 -->
<g id="node10" class="node">
<title>Node10</title>
<g id="a_node10"><a xlink:href="../../d5/d84/_sample_stream_8h.html" target="_top" xlink:title=" ">
<polygon fill="none" stroke="black" points="569,-168.5 569,-187.5 667,-187.5 667,-168.5 569,-168.5"/>
<text text-anchor="middle" x="618" y="-175.5" font-family="Helvetica,sans-Serif" font-size="10.00">SampleStream.h</text>
</a>
</g>
</g>
<!-- Node2&#45;&gt;Node10 -->
<g id="edge14" class="edge">
<title>Node2&#45;&gt;Node10</title>
<path fill="none" stroke="midnightblue" d="M736.04,-284.3C703.61,-278.69 667.54,-267.19 642,-244 625.43,-228.96 620.27,-201.46 618.69,-187.55"/>
<polygon fill="midnightblue" stroke="midnightblue" points="735.55,-287.76 745.97,-285.86 736.63,-280.85 735.55,-287.76"/>
</g>
<!-- Node14 -->
<g id="node13" class="node">
<title>Node14</title>
<g id="a_node13"><a xlink:href="../../d7/d4f/shifter_8h.html" target="_top" xlink:title=" ">
<polygon fill="none" stroke="black" points="824,-112.5 824,-131.5 880,-131.5 880,-112.5 824,-112.5"/>
<text text-anchor="middle" x="852" y="-119.5" font-family="Helvetica,sans-Serif" font-size="10.00">shifter.h</text>
</a>
</g>
</g>
<!-- Node2&#45;&gt;Node14 -->
<g id="edge32" class="edge">
<title>Node2&#45;&gt;Node14</title>
<path fill="none" stroke="midnightblue" d="M757.9,-277.79C724.45,-268.05 690.72,-251.14 705,-224 730.81,-174.95 792.4,-145.11 827.11,-131.6"/>
<polygon fill="midnightblue" stroke="midnightblue" points="757.18,-281.22 767.75,-280.47 759.02,-274.47 757.18,-281.22"/>
</g>
<!-- Node15 -->
<g id="node14" class="node">
<title>Node15</title>
<g id="a_node14"><a xlink:href="../../d7/ddb/_detunable_model_8h.html" target="_top" xlink:title=" ">
<polygon fill="none" stroke="black" points="28,-112.5 28,-131.5 134,-131.5 134,-112.5 28,-112.5"/>
<text text-anchor="middle" x="81" y="-119.5" font-family="Helvetica,sans-Serif" font-size="10.00">DetunableModel.h</text>
</a>
</g>
</g>
<!-- Node2&#45;&gt;Node15 -->
<g id="edge22" class="edge">
<title>Node2&#45;&gt;Node15</title>
<path fill="none" stroke="midnightblue" d="M735.64,-285.33C618.05,-279.16 400.07,-265.27 325,-244 230.6,-217.25 128.93,-154.37 93.79,-131.5"/>
<polygon fill="midnightblue" stroke="midnightblue" points="735.49,-288.83 745.66,-285.85 735.85,-281.83 735.49,-288.83"/>
</g>
<!-- Node16 -->
<g id="node15" class="node">
<title>Node16</title>
<g id="a_node15"><a xlink:href="../../dc/ddf/_pitch_detector_8h.html" target="_top" xlink:title=" ">
<polygon fill="none" stroke="black" points="819.5,-224.5 819.5,-243.5 910.5,-243.5 910.5,-224.5 819.5,-224.5"/>
<text text-anchor="middle" x="865" y="-231.5" font-family="Helvetica,sans-Serif" font-size="10.00">PitchDetector.h</text>
</a>
</g>
</g>
<!-- Node2&#45;&gt;Node16 -->
<g id="edge24" class="edge">
<title>Node2&#45;&gt;Node16</title>
<path fill="none" stroke="midnightblue" d="M828.68,-272.72C837.84,-263.2 849.05,-251.56 856.57,-243.75"/>
<polygon fill="midnightblue" stroke="midnightblue" points="826,-270.45 821.59,-280.08 831.04,-275.31 826,-270.45"/>
</g>
<!-- Node17 -->
<g id="node16" class="node">
<title>Node17</title>
<g id="a_node16"><a xlink:href="../../d3/d19/analyzer_8h.html" target="_top" xlink:title=" ">
<polygon fill="none" stroke="black" points="818.5,-168.5 818.5,-187.5 885.5,-187.5 885.5,-168.5 818.5,-168.5"/>
<text text-anchor="middle" x="852" y="-175.5" font-family="Helvetica,sans-Serif" font-size="10.00">analyzer.h</text>
</a>
</g>
</g>
<!-- Node2&#45;&gt;Node17 -->
<g id="edge29" class="edge">
<title>Node2&#45;&gt;Node17</title>
<path fill="none" stroke="midnightblue" d="M765.86,-277.56C731.84,-266.94 694.82,-248.99 713,-224 736.95,-191.08 785.5,-181.75 818.4,-179.37"/>
<polygon fill="midnightblue" stroke="midnightblue" points="765.22,-281.02 775.8,-280.49 767.2,-274.3 765.22,-281.02"/>
</g>
<!-- Node18 -->
<g id="node17" class="node">
<title>Node18</title>
<g id="a_node17"><a xlink:href="../../dc/dad/_peak_finder_8h.html" target="_top" xlink:title=" ">
<polygon fill="none" stroke="black" points="722.5,-224.5 722.5,-243.5 801.5,-243.5 801.5,-224.5 722.5,-224.5"/>
<text text-anchor="middle" x="762" y="-231.5" font-family="Helvetica,sans-Serif" font-size="10.00">PeakFinder.h</text>
</a>
</g>
</g>
<!-- Node2&#45;&gt;Node18 -->
<g id="edge30" class="edge">
<title>Node2&#45;&gt;Node18</title>
<path fill="none" stroke="midnightblue" d="M797.62,-272.72C788.63,-263.2 777.64,-251.56 770.26,-243.75"/>
<polygon fill="midnightblue" stroke="midnightblue" points="795.17,-275.22 804.58,-280.08 800.26,-270.41 795.17,-275.22"/>
</g>
<!-- Node19 -->
<g id="node18" class="node">
<title>Node19</title>
<g id="a_node18"><a xlink:href="../../d7/d35/countries_8h.html" target="_top" xlink:title=" ">
<polygon fill="none" stroke="black" points="928.5,-224.5 928.5,-243.5 999.5,-243.5 999.5,-224.5 928.5,-224.5"/>
<text text-anchor="middle" x="964" y="-231.5" font-family="Helvetica,sans-Serif" font-size="10.00">countries.h</text>
</a>
</g>
</g>
<!-- Node2&#45;&gt;Node19 -->
<g id="edge33" class="edge">
<title>Node2&#45;&gt;Node19</title>
<path fill="none" stroke="midnightblue" d="M846.45,-277.04C874.86,-266.88 914.94,-252.55 940.19,-243.52"/>
<polygon fill="midnightblue" stroke="midnightblue" points="845.16,-273.78 836.93,-280.44 847.52,-280.37 845.16,-273.78"/>
</g>
<!-- Node21 -->
<g id="node20" class="node">
<title>Node21</title>
<g id="a_node20"><a xlink:href="../../d0/d0f/languages_8h.html" target="_top" xlink:title=" ">
<polygon fill="none" stroke="black" points="1018,-224.5 1018,-243.5 1094,-243.5 1094,-224.5 1018,-224.5"/>
<text text-anchor="middle" x="1056" y="-231.5" font-family="Helvetica,sans-Serif" font-size="10.00">languages.h</text>
</a>
</g>
</g>
<!-- Node2&#45;&gt;Node21 -->
<g id="edge36" class="edge">
<title>Node2&#45;&gt;Node21</title>
<path fill="none" stroke="midnightblue" d="M861.52,-278.22C907.44,-268.01 975.45,-252.9 1017.68,-243.52"/>
<polygon fill="midnightblue" stroke="midnightblue" points="860.51,-274.86 851.5,-280.44 862.03,-281.69 860.51,-274.86"/>
</g>
<!-- Node22 -->
<g id="node21" class="node">
<title>Node22</title>
<g id="a_node21"><a xlink:href="../../d8/d57/_chord_8h.html" target="_top" xlink:title=" ">
<polygon fill="none" stroke="black" points="1112,-224.5 1112,-243.5 1166,-243.5 1166,-224.5 1112,-224.5"/>
<text text-anchor="middle" x="1139" y="-231.5" font-family="Helvetica,sans-Serif" font-size="10.00">Chord.h</text>
</a>
</g>
</g>
<!-- Node2&#45;&gt;Node22 -->
<g id="edge38" class="edge">
<title>Node2&#45;&gt;Node22</title>
<path fill="none" stroke="midnightblue" d="M889.18,-279.11C947.86,-271.03 1030.89,-258.58 1103,-244 1105.9,-243.41 1108.93,-242.75 1111.93,-242.05"/>
<polygon fill="midnightblue" stroke="midnightblue" points="888.68,-275.65 879.24,-280.47 889.62,-282.58 888.68,-275.65"/>
</g>
<!-- Node24 -->
<g id="node23" class="node">
<title>Node24</title>
<g id="a_node23"><a xlink:href="../../d4/d81/_scale_8h.html" target="_top" xlink:title=" ">
<polygon fill="none" stroke="black" points="1298,-224.5 1298,-243.5 1350,-243.5 1350,-224.5 1298,-224.5"/>
<text text-anchor="middle" x="1324" y="-231.5" font-family="Helvetica,sans-Serif" font-size="10.00">Scale.h</text>
</a>
</g>
</g>
<!-- Node2&#45;&gt;Node24 -->
<g id="edge41" class="edge">
<title>Node2&#45;&gt;Node24</title>
<path fill="none" stroke="midnightblue" d="M890.26,-284.62C983.88,-278.62 1146.2,-266 1284,-244 1288.5,-243.28 1293.25,-242.36 1297.84,-241.38"/>
<polygon fill="midnightblue" stroke="midnightblue" points="889.78,-281.14 880.02,-285.26 890.23,-288.13 889.78,-281.14"/>
</g>
<!-- Node25 -->
<g id="node24" class="node">
<title>Node25</title>
<g id="a_node24"><a xlink:href="../../d3/d6f/_chromatic_8h.html" target="_top" xlink:title=" ">
<polygon fill="none" stroke="black" points="1282,-168.5 1282,-187.5 1358,-187.5 1358,-168.5 1282,-168.5"/>
<text text-anchor="middle" x="1320" y="-175.5" font-family="Helvetica,sans-Serif" font-size="10.00">Chromatic.h</text>
</a>
</g>
</g>
<!-- Node2&#45;&gt;Node25 -->
<g id="edge54" class="edge">
<title>Node2&#45;&gt;Node25</title>
<path fill="none" stroke="midnightblue" d="M890.02,-284.42C989.49,-277.81 1156.77,-264.13 1215,-244 1253.09,-230.83 1291.86,-201.95 1309.77,-187.53"/>
<polygon fill="midnightblue" stroke="midnightblue" points="889.77,-280.93 880.02,-285.08 890.23,-287.91 889.77,-280.93"/>
</g>
<!-- Node26 -->
<g id="node25" class="node">
<title>Node26</title>
<g id="a_node25"><a xlink:href="../../dd/d47/_key_signature_8h.html" target="_top" xlink:title=" ">
<polygon fill="none" stroke="black" points="1452,-168.5 1452,-187.5 1542,-187.5 1542,-168.5 1452,-168.5"/>
<text text-anchor="middle" x="1497" y="-175.5" font-family="Helvetica,sans-Serif" font-size="10.00">KeySignature.h</text>
</a>
</g>
</g>
<!-- Node2&#45;&gt;Node26 -->
<g id="edge55" class="edge">
<title>Node2&#45;&gt;Node26</title>
<path fill="none" stroke="midnightblue" d="M890.51,-286.02C1019.55,-280.49 1272.78,-267.05 1359,-244 1407.1,-231.14 1458.98,-202.11 1483.14,-187.6"/>
<polygon fill="midnightblue" stroke="midnightblue" points="890.15,-282.53 880.3,-286.45 890.44,-289.53 890.15,-282.53"/>
</g>
<!-- Node27 -->
<g id="node26" class="node">
<title>Node27</title>
<g id="a_node26"><a xlink:href="../../d8/daa/_mode_8h.html" target="_top" xlink:title=" ">
<polygon fill="none" stroke="black" points="1465.5,-112.5 1465.5,-131.5 1518.5,-131.5 1518.5,-112.5 1465.5,-112.5"/>
<text text-anchor="middle" x="1492" y="-119.5" font-family="Helvetica,sans-Serif" font-size="10.00">Mode.h</text>
</a>
</g>
</g>
<!-- Node2&#45;&gt;Node27 -->
<g id="edge56" class="edge">
<title>Node2&#45;&gt;Node27</title>
<path fill="none" stroke="midnightblue" d="M890.51,-289.81C1003.61,-289.47 1219.91,-283.07 1399,-244 1469.34,-228.65 1509.82,-247.06 1551,-188 1566.34,-166 1532.7,-143.53 1510.18,-131.63"/>
<polygon fill="midnightblue" stroke="midnightblue" points="890.21,-286.31 880.22,-289.82 890.22,-293.31 890.21,-286.31"/>
</g>
<!-- Node28 -->
<g id="node27" class="node">
<title>Node28</title>
<g id="a_node27"><a xlink:href="../../d7/db9/_octatonic_8h.html" target="_top" xlink:title=" ">
<polygon fill="none" stroke="black" points="1094,-168.5 1094,-187.5 1166,-187.5 1166,-168.5 1094,-168.5"/>
<text text-anchor="middle" x="1130" y="-175.5" font-family="Helvetica,sans-Serif" font-size="10.00">Octatonic.h</text>
</a>
</g>
</g>
<!-- Node2&#45;&gt;Node28 -->
<g id="edge57" class="edge">
<title>Node2&#45;&gt;Node28</title>
<path fill="none" stroke="midnightblue" d="M890.39,-284.75C991.09,-278.43 1156.48,-264.96 1175,-244 1191.45,-225.38 1162.14,-200.6 1143.56,-187.67"/>
<polygon fill="midnightblue" stroke="midnightblue" points="890.01,-281.27 880.25,-285.38 890.44,-288.26 890.01,-281.27"/>
</g>
<!-- Node29 -->
<g id="node28" class="node">
<title>Node29</title>
<g id="a_node28"><a xlink:href="../../d0/dce/_whole_tone_8h.html" target="_top" xlink:title=" ">
<polygon fill="none" stroke="black" points="1184.5,-168.5 1184.5,-187.5 1263.5,-187.5 1263.5,-168.5 1184.5,-168.5"/>
<text text-anchor="middle" x="1224" y="-175.5" font-family="Helvetica,sans-Serif" font-size="10.00">WholeTone.h</text>
</a>
</g>
</g>
<!-- Node2&#45;&gt;Node29 -->
<g id="edge58" class="edge">
<title>Node2&#45;&gt;Node29</title>
<path fill="none" stroke="midnightblue" d="M890.11,-288.36C986.6,-286.13 1144.92,-277.31 1192,-244 1211.1,-230.49 1219.34,-202.3 1222.41,-187.89"/>
<polygon fill="midnightblue" stroke="midnightblue" points="890.03,-284.86 880.11,-288.57 890.18,-291.86 890.03,-284.86"/>
</g>
<!-- Node30 -->
<g id="node29" class="node">
<title>Node30</title>
<g id="a_node29"><a xlink:href="../../d5/d45/_note_length_8h_source.html" target="_top" xlink:title=" ">
<polygon fill="none" stroke="black" points="1612,-224.5 1612,-243.5 1694,-243.5 1694,-224.5 1612,-224.5"/>
<text text-anchor="middle" x="1653" y="-231.5" font-family="Helvetica,sans-Serif" font-size="10.00">NoteLength.h</text>
</a>
</g>
</g>
<!-- Node2&#45;&gt;Node30 -->
<g id="edge59" class="edge">
<title>Node2&#45;&gt;Node30</title>
<path fill="none" stroke="midnightblue" d="M890.29,-286.32C1029.31,-281.08 1330.7,-267.88 1584,-244 1593.02,-243.15 1602.68,-242.02 1611.82,-240.86"/>
<polygon fill="midnightblue" stroke="midnightblue" points="890.02,-282.82 880.16,-286.69 890.28,-289.82 890.02,-282.82"/>
</g>
<!-- Node4&#45;&gt;Node5 -->
<g id="edge4" class="edge">
<title>Node4&#45;&gt;Node5</title>
<path fill="none" stroke="midnightblue" d="M374.41,-218.1C361.63,-208.38 345.39,-196.03 334.61,-187.83"/>
<polygon fill="midnightblue" stroke="midnightblue" points="372.51,-221.06 382.59,-224.32 376.75,-215.48 372.51,-221.06"/>
</g>
<!-- Node6 -->
<g id="node6" class="node">
<title>Node6</title>
<g id="a_node6"><a xlink:href="../../d6/d15/limes__audio_8h.html" target="_top" xlink:title=" ">
<polygon fill="none" stroke="black" points="548.5,-56.5 548.5,-75.5 633.5,-75.5 633.5,-56.5 548.5,-56.5"/>
<text text-anchor="middle" x="591" y="-63.5" font-family="Helvetica,sans-Serif" font-size="10.00">limes_audio.h</text>
</a>
</g>
</g>
<!-- Node5&#45;&gt;Node6 -->
<g id="edge5" class="edge">
<title>Node5&#45;&gt;Node6</title>
<path fill="none" stroke="midnightblue" d="M287.58,-173.26C235.47,-166.45 147.73,-149.12 181,-112 205.22,-84.97 448.25,-72.53 548.31,-68.52"/>
<polygon fill="midnightblue" stroke="midnightblue" points="287.44,-176.77 297.79,-174.53 288.3,-169.83 287.44,-176.77"/>
</g>
<!-- Node6&#45;&gt;Node3 -->
<g id="edge6" class="edge">
<title>Node6&#45;&gt;Node3</title>
<path fill="none" stroke="midnightblue" d="M635.21,-54C679.07,-43.08 744.86,-26.71 781.3,-17.64"/>
<polygon fill="midnightblue" stroke="midnightblue" points="634.24,-50.63 625.38,-56.44 635.93,-57.43 634.24,-50.63"/>
</g>
<!-- Node7&#45;&gt;Node6 -->
<g id="edge9" class="edge">
<title>Node7&#45;&gt;Node6</title>
<path fill="none" stroke="midnightblue" d="M319.1,-110.83C386.13,-100.02 490.25,-83.24 548.27,-73.89"/>
<polygon fill="midnightblue" stroke="midnightblue" points="318.4,-107.4 309.08,-112.44 319.51,-114.31 318.4,-107.4"/>
</g>
<!-- Node8&#45;&gt;Node6 -->
<g id="edge11" class="edge">
<title>Node8&#45;&gt;Node6</title>
<path fill="none" stroke="midnightblue" d="M428.41,-109.83C467.11,-99.63 523.49,-84.78 558.67,-75.52"/>
<polygon fill="midnightblue" stroke="midnightblue" points="427.26,-106.51 418.48,-112.44 429.04,-113.28 427.26,-106.51"/>
</g>
<!-- Node9&#45;&gt;Node6 -->
<g id="edge13" class="edge">
<title>Node9&#45;&gt;Node6</title>
<path fill="none" stroke="midnightblue" d="M516.09,-107.45C534.55,-97.48 559.1,-84.23 574.97,-75.65"/>
<polygon fill="midnightblue" stroke="midnightblue" points="514.2,-104.49 507.07,-112.32 517.53,-110.65 514.2,-104.49"/>
</g>
<!-- Node10&#45;&gt;Node6 -->
<g id="edge15" class="edge">
<title>Node10&#45;&gt;Node6</title>
<path fill="none" stroke="midnightblue" d="M599.42,-161.32C591.52,-153.44 583.17,-143.19 579,-132 571.78,-112.65 580.65,-88.37 586.55,-75.67"/>
<polygon fill="midnightblue" stroke="midnightblue" points="597.3,-164.13 607.01,-168.37 602.06,-159 597.3,-164.13"/>
</g>
<!-- Node11 -->
<g id="node11" class="node">
<title>Node11</title>
<g id="a_node11"><a xlink:href="../../dc/da4/oscillator_8h.html" target="_top" xlink:title=" ">
<polygon fill="none" stroke="red" points="588,-112.5 588,-131.5 658,-131.5 658,-112.5 588,-112.5"/>
<text text-anchor="middle" x="623" y="-119.5" font-family="Helvetica,sans-Serif" font-size="10.00">oscillator.h</text>
</a>
</g>
</g>
<!-- Node10&#45;&gt;Node11 -->
<g id="edge16" class="edge">
<title>Node10&#45;&gt;Node11</title>
<path fill="none" stroke="midnightblue" d="M619.75,-158.1C620.58,-149.14 621.53,-138.86 622.19,-131.75"/>
<polygon fill="midnightblue" stroke="midnightblue" points="616.26,-157.8 618.83,-168.08 623.23,-158.45 616.26,-157.8"/>
</g>
<!-- Node13 -->
<g id="node12" class="node">
<title>Node13</title>
<g id="a_node12"><a xlink:href="../../d6/db1/_white_noise_generator_8h.html" target="_top" xlink:title=" ">
<polygon fill="none" stroke="black" points="676,-112.5 676,-131.5 806,-131.5 806,-112.5 676,-112.5"/>
<text text-anchor="middle" x="741" y="-119.5" font-family="Helvetica,sans-Serif" font-size="10.00">WhiteNoiseGenerator.h</text>
</a>
</g>
</g>
<!-- Node10&#45;&gt;Node13 -->
<g id="edge18" class="edge">
<title>Node10&#45;&gt;Node13</title>
<path fill="none" stroke="midnightblue" d="M646.77,-164.37C669.81,-154.26 701.48,-140.35 721.6,-131.52"/>
<polygon fill="midnightblue" stroke="midnightblue" points="645.24,-161.22 637.49,-168.44 648.05,-167.63 645.24,-161.22"/>
</g>
<!-- Node10&#45;&gt;Node14 -->
<g id="edge20" class="edge">
<title>Node10&#45;&gt;Node14</title>
<path fill="none" stroke="midnightblue" d="M666.16,-166.2C706.07,-157.2 764.27,-143.96 815,-132 817.83,-131.33 820.78,-130.63 823.73,-129.92"/>
<polygon fill="midnightblue" stroke="midnightblue" points="665.16,-162.84 656.17,-168.45 666.7,-169.66 665.16,-162.84"/>
</g>
<!-- Node11&#45;&gt;Node6 -->
<g id="edge17" class="edge">
<title>Node11&#45;&gt;Node6</title>
<path fill="none" stroke="midnightblue" d="M612.5,-103.27C607.03,-94.05 600.58,-83.17 596.19,-75.75"/>
<polygon fill="midnightblue" stroke="midnightblue" points="609.61,-105.26 617.72,-112.08 615.63,-101.7 609.61,-105.26"/>
</g>
<!-- Node13&#45;&gt;Node6 -->
<g id="edge19" class="edge">
<title>Node13&#45;&gt;Node6</title>
<path fill="none" stroke="midnightblue" d="M707.78,-109.04C679.55,-98.88 639.74,-84.55 614.66,-75.52"/>
<polygon fill="midnightblue" stroke="midnightblue" points="706.64,-112.35 717.23,-112.44 709.01,-105.76 706.64,-112.35"/>
</g>
<!-- Node14&#45;&gt;Node6 -->
<g id="edge21" class="edge">
<title>Node14&#45;&gt;Node6</title>
<path fill="none" stroke="midnightblue" d="M813.66,-111.77C745.26,-96.7 676.66,-83.26 633.63,-75.03"/>
<polygon fill="midnightblue" stroke="midnightblue" points="813.23,-115.26 823.75,-114 814.74,-108.42 813.23,-115.26"/>
</g>
<!-- Node15&#45;&gt;Node6 -->
<g id="edge23" class="edge">
<title>Node15&#45;&gt;Node6</title>
<path fill="none" stroke="midnightblue" d="M144.13,-112.46C145.43,-112.31 146.72,-112.15 148,-112 294.83,-94.69 469.52,-78.13 548.5,-70.86"/>
<polygon fill="midnightblue" stroke="midnightblue" points="143.5,-109.01 134.01,-113.72 144.37,-115.96 143.5,-109.01"/>
</g>
<!-- Node16&#45;&gt;Node6 -->
<g id="edge25" class="edge">
<title>Node16&#45;&gt;Node6</title>
<path fill="none" stroke="midnightblue" d="M879.76,-216.36C900.4,-191.04 932.52,-142.58 906,-112 871.25,-71.94 711.44,-66.66 633.7,-66.52"/>
<polygon fill="midnightblue" stroke="midnightblue" points="876.85,-214.39 873.06,-224.28 882.19,-218.91 876.85,-214.39"/>
</g>
<!-- Node16&#45;&gt;Node17 -->
<g id="edge26" class="edge">
<title>Node16&#45;&gt;Node17</title>
<path fill="none" stroke="midnightblue" d="M860.45,-214.1C858.29,-205.14 855.82,-194.86 854.11,-187.75"/>
<polygon fill="midnightblue" stroke="midnightblue" points="857.11,-215.18 862.85,-224.08 863.92,-213.54 857.11,-215.18"/>
</g>
<!-- Node17&#45;&gt;Node6 -->
<g id="edge27" class="edge">
<title>Node17&#45;&gt;Node6</title>
<path fill="none" stroke="midnightblue" d="M871.28,-161.37C886.09,-147.49 902,-127.12 889,-112 856.58,-74.32 708.13,-67.78 633.74,-66.92"/>
<polygon fill="midnightblue" stroke="midnightblue" points="868.55,-159.11 863.35,-168.34 873.17,-164.36 868.55,-159.11"/>
</g>
<!-- Node17&#45;&gt;Node14 -->
<g id="edge28" class="edge">
<title>Node17&#45;&gt;Node14</title>
<path fill="none" stroke="midnightblue" d="M852,-157.8C852,-148.91 852,-138.78 852,-131.75"/>
<polygon fill="midnightblue" stroke="midnightblue" points="848.5,-158.08 852,-168.08 855.5,-158.08 848.5,-158.08"/>
</g>
<!-- Node18&#45;&gt;Node17 -->
<g id="edge31" class="edge">
<title>Node18&#45;&gt;Node17</title>
<path fill="none" stroke="midnightblue" d="M785.04,-219.18C801.6,-209.24 823.42,-196.15 837.58,-187.65"/>
<polygon fill="midnightblue" stroke="midnightblue" points="783.23,-216.18 776.46,-224.32 786.84,-222.18 783.23,-216.18"/>
</g>
<!-- Node20 -->
<g id="node19" class="node">
<title>Node20</title>
<g id="a_node19"><a xlink:href="../../da/d18/limes__locale_8h.html" target="_top" xlink:title=" ">
<polygon fill="none" stroke="black" points="950.5,-168.5 950.5,-187.5 1037.5,-187.5 1037.5,-168.5 950.5,-168.5"/>
<text text-anchor="middle" x="994" y="-175.5" font-family="Helvetica,sans-Serif" font-size="10.00">limes_locale.h</text>
</a>
</g>
</g>
<!-- Node19&#45;&gt;Node20 -->
<g id="edge34" class="edge">
<title>Node19&#45;&gt;Node20</title>
<path fill="none" stroke="midnightblue" d="M973.85,-215.27C978.97,-206.05 985.02,-195.17 989.14,-187.75"/>
<polygon fill="midnightblue" stroke="midnightblue" points="970.75,-213.64 968.95,-224.08 976.87,-217.04 970.75,-213.64"/>
</g>
<!-- Node20&#45;&gt;Node3 -->
<g id="edge35" class="edge">
<title>Node20&#45;&gt;Node3</title>
<path fill="none" stroke="midnightblue" d="M987.34,-158.68C981.63,-144.76 972.36,-125.72 960,-112 920.56,-68.21 858.19,-34.73 827.03,-19.7"/>
<polygon fill="midnightblue" stroke="midnightblue" points="984.14,-160.1 991.01,-168.16 990.66,-157.57 984.14,-160.1"/>
</g>
<!-- Node21&#45;&gt;Node20 -->
<g id="edge37" class="edge">
<title>Node21&#45;&gt;Node20</title>
<path fill="none" stroke="midnightblue" d="M1038.25,-217.54C1027.19,-207.91 1013.37,-195.87 1004.14,-187.83"/>
<polygon fill="midnightblue" stroke="midnightblue" points="1036.2,-220.4 1046.04,-224.32 1040.8,-215.12 1036.2,-220.4"/>
</g>
<!-- Node23 -->
<g id="node22" class="node">
<title>Node23</title>
<g id="a_node22"><a xlink:href="../../d4/dbe/limes__music_8h.html" target="_top" xlink:title=" ">
<polygon fill="none" stroke="black" points="1276.5,-56.5 1276.5,-75.5 1363.5,-75.5 1363.5,-56.5 1276.5,-56.5"/>
<text text-anchor="middle" x="1320" y="-63.5" font-family="Helvetica,sans-Serif" font-size="10.00">limes_music.h</text>
</a>
</g>
</g>
<!-- Node22&#45;&gt;Node23 -->
<g id="edge39" class="edge">
<title>Node22&#45;&gt;Node23</title>
<path fill="none" stroke="midnightblue" d="M1113.83,-219.01C1094.5,-206.37 1073,-186.91 1085,-168 1126.52,-102.57 1220.63,-79.41 1276.34,-71.3"/>
<polygon fill="midnightblue" stroke="midnightblue" points="1112.07,-222.04 1122.42,-224.31 1115.75,-216.08 1112.07,-222.04"/>
</g>
<!-- Node23&#45;&gt;Node3 -->
<g id="edge40" class="edge">
<title>Node23&#45;&gt;Node3</title>
<path fill="none" stroke="midnightblue" d="M1266.26,-59.33C1157.66,-47.88 915.51,-22.34 834.78,-13.82"/>
<polygon fill="midnightblue" stroke="midnightblue" points="1266.04,-62.83 1276.35,-60.4 1266.77,-55.87 1266.04,-62.83"/>
</g>
<!-- Node24&#45;&gt;Node23 -->
<g id="edge53" class="edge">
<title>Node24&#45;&gt;Node23</title>
<path fill="none" stroke="midnightblue" d="M1344.24,-217.86C1353.01,-210.03 1362.32,-199.67 1367,-188 1370.31,-179.75 1368.92,-176.68 1367,-168 1358.94,-131.55 1336.32,-92.66 1325.67,-75.72"/>
<polygon fill="midnightblue" stroke="midnightblue" points="1341.95,-215.22 1336.5,-224.3 1346.42,-220.6 1341.95,-215.22"/>
</g>
<!-- Node24&#45;&gt;Node25 -->
<g id="edge42" class="edge">
<title>Node24&#45;&gt;Node25</title>
<path fill="none" stroke="midnightblue" d="M1322.6,-214.1C1321.94,-205.14 1321.17,-194.86 1320.65,-187.75"/>
<polygon fill="midnightblue" stroke="midnightblue" points="1319.11,-214.37 1323.34,-224.08 1326.09,-213.85 1319.11,-214.37"/>
</g>
<!-- Node24&#45;&gt;Node26 -->
<g id="edge44" class="edge">
<title>Node24&#45;&gt;Node26</title>
<path fill="none" stroke="midnightblue" d="M1359.89,-221.8C1392.51,-211.61 1439.96,-196.81 1469.62,-187.55"/>
<polygon fill="midnightblue" stroke="midnightblue" points="1358.78,-218.48 1350.27,-224.8 1360.86,-225.16 1358.78,-218.48"/>
</g>
<!-- Node24&#45;&gt;Node27 -->
<g id="edge48" class="edge">
<title>Node24&#45;&gt;Node27</title>
<path fill="none" stroke="midnightblue" d="M1348.09,-219.4C1363.19,-210.71 1382.95,-199.05 1400,-188 1429.71,-168.75 1463.4,-144.23 1480.59,-131.51"/>
<polygon fill="midnightblue" stroke="midnightblue" points="1346.31,-216.39 1339.36,-224.39 1349.78,-222.47 1346.31,-216.39"/>
</g>
<!-- Node24&#45;&gt;Node28 -->
<g id="edge49" class="edge">
<title>Node24&#45;&gt;Node28</title>
<path fill="none" stroke="midnightblue" d="M1288.08,-223C1251.53,-212.83 1195.47,-197.22 1160.86,-187.59"/>
<polygon fill="midnightblue" stroke="midnightblue" points="1287.26,-226.41 1297.84,-225.72 1289.14,-219.66 1287.26,-226.41"/>
</g>
<!-- Node24&#45;&gt;Node29 -->
<g id="edge51" class="edge">
<title>Node24&#45;&gt;Node29</title>
<path fill="none" stroke="midnightblue" d="M1298.91,-219.45C1280.45,-209.48 1255.9,-196.23 1240.03,-187.65"/>
<polygon fill="midnightblue" stroke="midnightblue" points="1297.47,-222.65 1307.93,-224.32 1300.8,-216.49 1297.47,-222.65"/>
</g>
<!-- Node25&#45;&gt;Node23 -->
<g id="edge43" class="edge">
<title>Node25&#45;&gt;Node23</title>
<path fill="none" stroke="midnightblue" d="M1320,-158.35C1320,-134.25 1320,-93.31 1320,-75.59"/>
<polygon fill="midnightblue" stroke="midnightblue" points="1316.5,-158.37 1320,-168.37 1323.5,-158.37 1316.5,-158.37"/>
</g>
<!-- Node26&#45;&gt;Node23 -->
<g id="edge47" class="edge">
<title>Node26&#45;&gt;Node23</title>
<path fill="none" stroke="midnightblue" d="M1476.59,-162.64C1457.16,-149.15 1426.98,-128.59 1400,-112 1378.28,-98.64 1352.46,-84.4 1336.15,-75.6"/>
<polygon fill="midnightblue" stroke="midnightblue" points="1474.75,-165.63 1484.95,-168.48 1478.75,-159.89 1474.75,-165.63"/>
</g>
<!-- Node26&#45;&gt;Node27 -->
<g id="edge45" class="edge">
<title>Node26&#45;&gt;Node27</title>
<path fill="none" stroke="midnightblue" d="M1495.25,-158.1C1494.42,-149.14 1493.47,-138.86 1492.81,-131.75"/>
<polygon fill="midnightblue" stroke="midnightblue" points="1491.77,-158.45 1496.17,-168.08 1498.74,-157.8 1491.77,-158.45"/>
</g>
<!-- Node27&#45;&gt;Node23 -->
<g id="edge46" class="edge">
<title>Node27&#45;&gt;Node23</title>
<path fill="none" stroke="midnightblue" d="M1455.56,-109.56C1423.16,-99.39 1376.52,-84.74 1347.25,-75.56"/>
<polygon fill="midnightblue" stroke="midnightblue" points="1454.54,-112.91 1465.12,-112.56 1456.63,-106.23 1454.54,-112.91"/>
</g>
<!-- Node28&#45;&gt;Node23 -->
<g id="edge50" class="edge">
<title>Node28&#45;&gt;Node23</title>
<path fill="none" stroke="midnightblue" d="M1153.66,-163.3C1193.38,-140.3 1272.34,-94.59 1305.16,-75.59"/>
<polygon fill="midnightblue" stroke="midnightblue" points="1151.81,-160.33 1144.91,-168.37 1155.32,-166.39 1151.81,-160.33"/>
</g>
<!-- Node29&#45;&gt;Node23 -->
<g id="edge52" class="edge">
<title>Node29&#45;&gt;Node23</title>
<path fill="none" stroke="midnightblue" d="M1238.33,-160.59C1259.02,-136.87 1296.55,-93.87 1312.5,-75.59"/>
<polygon fill="midnightblue" stroke="midnightblue" points="1235.47,-158.53 1231.53,-168.37 1240.75,-163.14 1235.47,-158.53"/>
</g>
<!-- Node30&#45;&gt;Node23 -->
<g id="edge60" class="edge">
<title>Node30&#45;&gt;Node23</title>
<path fill="none" stroke="midnightblue" d="M1681.72,-219.9C1705.01,-207.44 1731.74,-187.71 1717,-168 1674.57,-111.26 1457.69,-81.66 1363.62,-71.32"/>
<polygon fill="midnightblue" stroke="midnightblue" points="1680.07,-216.82 1672.73,-224.46 1683.24,-223.06 1680.07,-216.82"/>
</g>
<!-- Node31 -->
<g id="node30" class="node">
<title>Node31</title>
<g id="a_node30"><a xlink:href="../../d8/dd4/_note_length__impl_8h_source.html" target="_top" xlink:title=" ">
<polygon fill="none" stroke="black" points="1598.5,-168.5 1598.5,-187.5 1707.5,-187.5 1707.5,-168.5 1598.5,-168.5"/>
<text text-anchor="middle" x="1653" y="-175.5" font-family="Helvetica,sans-Serif" font-size="10.00">NoteLength_impl.h</text>
</a>
</g>
</g>
<!-- Node30&#45;&gt;Node31 -->
<g id="edge61" class="edge">
<title>Node30&#45;&gt;Node31</title>
<path fill="none" stroke="midnightblue" d="M1646.53,-214.1C1645.9,-205.14 1646.34,-194.86 1647.87,-187.75"/>
<polygon fill="midnightblue" stroke="midnightblue" points="1643.07,-214.62 1647.83,-224.08 1650.01,-213.71 1643.07,-214.62"/>
</g>
<!-- Node31&#45;&gt;Node30 -->
<g id="edge62" class="edge">
<title>Node31&#45;&gt;Node30</title>
<path fill="none" stroke="midnightblue" d="M1659.46,-197.69C1660.11,-206.64 1659.68,-216.93 1658.17,-224.08"/>
<polygon fill="midnightblue" stroke="midnightblue" points="1662.92,-197.2 1658.13,-187.75 1655.98,-198.13 1662.92,-197.2"/>
</g>
</g>
</svg>
        <g id="navigator" transform="translate(0 0)" fill="#404254">
                <rect fill="#f2f5e9" fill-opacity="0.5" stroke="#606060" stroke-width=".5" x="0" y="0" width="60" height="60"/>
                <use id="zoomplus" xlink:href="#zoomPlus" x="17" y="9" onmousedown="handleZoom(evt,'in')"/>
                <use id="zoomminus" xlink:href="#zoomMin" x="42" y="9" onmousedown="handleZoom(evt,'out')"/>
                <use id="reset" xlink:href="#resetDef" x="30" y="36" onmousedown="handleReset()"/>
                <g id="arrowUp" xlink:href="#dirArrow" transform="translate(30 24)" onmousedown="handlePan(0,-1)">
                  <use xlink:href="#rim" fill="#404040">
                        <set attributeName="fill" to="#808080" begin="arrowUp.mouseover" end="arrowUp.mouseout"/>
                  </use>
                  <path fill="none" stroke="white" stroke-width="1.5" d="M0,-3.0v7 M-2.5,-0.5L0,-3.0L2.5,-0.5"/>
                </g>
                <g id="arrowRight" xlink:href="#dirArrow" transform="rotate(90) translate(36 -43)" onmousedown="handlePan(1,0)">
                  <use xlink:href="#rim" fill="#404040">
                        <set attributeName="fill" to="#808080" begin="arrowRight.mouseover" end="arrowRight.mouseout"/>
                  </use>
                  <path fill="none" stroke="white" stroke-width="1.5" d="M0,-3.0v7 M-2.5,-0.5L0,-3.0L2.5,-0.5"/>
                </g>
                <g id="arrowDown" xlink:href="#dirArrow" transform="rotate(180) translate(-30 -48)" onmousedown="handlePan(0,1)">
                  <use xlink:href="#rim" fill="#404040">
                        <set attributeName="fill" to="#808080" begin="arrowDown.mouseover" end="arrowDown.mouseout"/>
                  </use>
                  <path fill="none" stroke="white" stroke-width="1.5" d="M0,-3.0v7 M-2.5,-0.5L0,-3.0L2.5,-0.5"/>
                </g>
                <g id="arrowLeft" xlink:href="#dirArrow" transform="rotate(270) translate(-36 17)" onmousedown="handlePan(-1,0)">
                  <use xlink:href="#rim" fill="#404040">
                        <set attributeName="fill" to="#808080" begin="arrowLeft.mouseover" end="arrowLeft.mouseout"/>
                  </use>
                  <path fill="none" stroke="white" stroke-width="1.5" d="M0,-3.0v7 M-2.5,-0.5L0,-3.0L2.5,-0.5"/>
                </g>
        </g>
        <svg viewBox="0 0 15 15" width="100%" height="30px" preserveAspectRatio="xMaxYMin meet">
         <g id="arrow_out" transform="scale(0.3 0.3)">
          <a xlink:href="_linked_list_8h__dep__incl_org.svg" target="_base">
           <rect id="button" ry="5" rx="5" y="6" x="6" height="38" width="38"
                fill="#f2f5e9" fill-opacity="0.5" stroke="#606060" stroke-width="1.0"/>
           <path id="arrow"
             d="M 11.500037,31.436501 C 11.940474,20.09759 22.043105,11.32322 32.158766,21.979434 L 37.068811,17.246167 C 37.068811,17.246167 37.088388,32 37.088388,32 L 22.160133,31.978069 C 22.160133,31.978069 26.997745,27.140456 26.997745,27.140456 C 18.528582,18.264221 13.291696,25.230495 11.500037,31.436501 z"
             style="fill:#404040;"/>
          </a>
         </g>
        </svg>
</svg>
