<?xml version="1.0" encoding="UTF-8" standalone="no"?>
<!DOCTYPE svg PUBLIC "-//W3C//DTD SVG 1.1//EN"
 "http://www.w3.org/Graphics/SVG/1.1/DTD/svg11.dtd">
<!-- Generated by graphviz version 2.43.0 (0)
 -->
<!-- Title: LinkedList.h Pages: 1 -->
<!--zoomable 364 -->
<svg id="main" version="1.1" xmlns="http://www.w3.org/2000/svg" xmlns:xlink="http://www.w3.org/1999/xlink" xml:space="preserve" onload="init(evt)">
<style type="text/css"><![CDATA[
.edge:hover path { stroke: red; }
.edge:hover polygon { stroke: red; fill: red; }
]]></style>
<script type="text/javascript"><![CDATA[
var edges = document.getElementsByTagName('g');
if (edges && edges.length) {
  for (var i=0;i<edges.length;i++) {
    if (edges[i].id.substr(0,4)=='edge') {
      edges[i].setAttribute('class','edge');
    }
  }
}
]]></script>
        <defs>
                <circle id="rim" cx="0" cy="0" r="7"/>
                <circle id="rim2" cx="0" cy="0" r="3.5"/>
                <g id="zoomPlus">
                        <use xlink:href="#rim" fill="#404040">
                                <set attributeName="fill" to="#808080" begin="zoomplus.mouseover" end="zoomplus.mouseout"/>
                        </use>
                        <path d="M-4,0h8M0,-4v8" fill="none" stroke="white" stroke-width="1.5" pointer-events="none"/>
                </g>
                <g id="zoomMin">
                        <use xlink:href="#rim" fill="#404040">
                                <set attributeName="fill" to="#808080" begin="zoomminus.mouseover" end="zoomminus.mouseout"/>
                        </use>
                        <path d="M-4,0h8" fill="none" stroke="white" stroke-width="1.5" pointer-events="none"/>
                </g>
                <g id="dirArrow">
                        <path fill="none" stroke="white" stroke-width="1.5" d="M0,-3.0v7 M-2.5,-0.5L0,-3.0L2.5,-0.5"/>
                </g>
               <g id="resetDef">
                       <use xlink:href="#rim2" fill="#404040">
                               <set attributeName="fill" to="#808080" begin="reset.mouseover" end="reset.mouseout"/>
                       </use>
               </g>
        </defs>

<script type="text/javascript">
var viewWidth = 1768;
var viewHeight = 364;
var sectionId = 'dynsection-1';
</script>
<script xlink:href="../../svgpan.js"/>
<svg id="graph" class="graph">
<g id="viewport">
<title>LinkedList.h</title>
<!-- Node1 -->
<g id="node1" class="node">
<title>Node1</title>
<g id="a_node1"><a xlink:title=" ">
<polygon fill="#bfbfbf" stroke="black" points="862,-336.5 862,-355.5 936,-355.5 936,-336.5 862,-336.5"/>
<text text-anchor="middle" x="899" y="-343.5" font-family="Helvetica,sans-Serif" font-size="10.00">LinkedList.h</text>
</a>
</g>
</g>
<!-- Node2 -->
<g id="node2" class="node">
<title>Node2</title>
<g id="a_node2"><a xlink:href="../../d8/d1d/limes__data__structures_8h_source.html" target="_top" xlink:title=" ">
<polygon fill="none" stroke="black" points="832,-280.5 832,-299.5 966,-299.5 966,-280.5 832,-280.5"/>
<text text-anchor="middle" x="899" y="-287.5" font-family="Helvetica,sans-Serif" font-size="10.00">limes_data_structures.h</text>
</a>
</g>
</g>
<!-- Node1&#45;&gt;Node2 -->
<g id="edge1" class="edge">
<title>Node1&#45;&gt;Node2</title>
<path fill="none" stroke="midnightblue" d="M899,-325.8C899,-316.91 899,-306.78 899,-299.75"/>
<polygon fill="midnightblue" stroke="midnightblue" points="895.5,-326.08 899,-336.08 902.5,-326.08 895.5,-326.08"/>
</g>
<!-- Node3 -->
<g id="node3" class="node">
<title>Node3</title>
<g id="a_node3"><a xlink:href="../../d2/d8d/limes_8h.html" target="_top" xlink:title=" ">
<polygon fill="none" stroke="black" points="781.5,-0.5 781.5,-19.5 834.5,-19.5 834.5,-0.5 781.5,-0.5"/>
<text text-anchor="middle" x="808" y="-7.5" font-family="Helvetica,sans-Serif" font-size="10.00">limes.h</text>
</a>
</g>
</g>
<!-- Node2&#45;&gt;Node3 -->
<g id="edge2" class="edge">
<title>Node2&#45;&gt;Node3</title>
<path fill="none" stroke="midnightblue" d="M821.71,-287.6C603.77,-282.65 0,-261.47 0,-179 0,-179 0,-179 0,-121 0,-40.3 640.92,-16.09 781.12,-11.76"/>
<polygon fill="midnightblue" stroke="midnightblue" points="821.72,-291.1 831.8,-287.83 821.88,-284.11 821.72,-291.1"/>
</g>
<!-- Node4 -->
<g id="node4" class="node">
<title>Node4</title>
<g id="a_node4"><a xlink:href="../../d7/d56/_coeffecients_8h.html" target="_top" xlink:title=" ">
<polygon fill="none" stroke="black" points="208,-224.5 208,-243.5 294,-243.5 294,-224.5 208,-224.5"/>
<text text-anchor="middle" x="251" y="-231.5" font-family="Helvetica,sans-Serif" font-size="10.00">Coeffecients.h</text>
</a>
</g>
</g>
<!-- Node2&#45;&gt;Node4 -->
<g id="edge3" class="edge">
<title>Node2&#45;&gt;Node4</title>
<path fill="none" stroke="midnightblue" d="M821.63,-285.1C708.55,-278.95 491.6,-265.45 308,-244 303.52,-243.48 298.86,-242.86 294.21,-242.2"/>
<polygon fill="midnightblue" stroke="midnightblue" points="821.74,-288.61 831.91,-285.66 822.12,-281.62 821.74,-288.61"/>
</g>
<!-- Node5 -->
<g id="node5" class="node">
<title>Node5</title>
<g id="a_node5"><a xlink:href="../../da/d2d/_filter_8h.html" target="_top" xlink:title=" ">
<polygon fill="none" stroke="black" points="155,-168.5 155,-187.5 205,-187.5 205,-168.5 155,-168.5"/>
<text text-anchor="middle" x="180" y="-175.5" font-family="Helvetica,sans-Serif" font-size="10.00">Filter.h</text>
</a>
</g>
</g>
<!-- Node2&#45;&gt;Node5 -->
<g id="edge7" class="edge">
<title>Node2&#45;&gt;Node5</title>
<path fill="none" stroke="midnightblue" d="M821.67,-288.95C649.65,-288.16 246.68,-282.19 199,-244 181.93,-230.33 179.64,-202.21 179.66,-187.86"/>
<polygon fill="midnightblue" stroke="midnightblue" points="821.9,-292.46 831.92,-289 821.93,-285.46 821.9,-292.46"/>
</g>
<!-- Node7 -->
<g id="node7" class="node">
<title>Node7</title>
<g id="a_node7"><a xlink:href="../../d5/d33/_mono_stereo_converter_8h.html" target="_top" xlink:title=" ">
<polygon fill="none" stroke="black" points="66.5,-112.5 66.5,-131.5 197.5,-131.5 197.5,-112.5 66.5,-112.5"/>
<text text-anchor="middle" x="132" y="-119.5" font-family="Helvetica,sans-Serif" font-size="10.00">MonoStereoConverter.h</text>
</a>
</g>
</g>
<!-- Node2&#45;&gt;Node7 -->
<g id="edge8" class="edge">
<title>Node2&#45;&gt;Node7</title>
<path fill="none" stroke="midnightblue" d="M821.76,-288.16C728.76,-285.63 568.42,-276.41 435,-244 321.06,-216.32 193.27,-154.29 148.53,-131.56"/>
<polygon fill="midnightblue" stroke="midnightblue" points="821.85,-291.66 831.93,-288.41 822.03,-284.66 821.85,-291.66"/>
</g>
<!-- Node8 -->
<g id="node8" class="node">
<title>Node8</title>
<g id="a_node8"><a xlink:href="../../dd/d28/_circular_buffer_8h_source.html" target="_top" xlink:title=" ">
<polygon fill="none" stroke="black" points="216,-112.5 216,-131.5 308,-131.5 308,-112.5 216,-112.5"/>
<text text-anchor="middle" x="262" y="-119.5" font-family="Helvetica,sans-Serif" font-size="10.00">CircularBuffer.h</text>
</a>
</g>
</g>
<!-- Node2&#45;&gt;Node8 -->
<g id="edge10" class="edge">
<title>Node2&#45;&gt;Node8</title>
<path fill="none" stroke="midnightblue" d="M821.78,-284.47C718.2,-277.76 540.1,-263.79 478,-244 456.19,-237.05 321.14,-157.9 276.39,-131.51"/>
<polygon fill="midnightblue" stroke="midnightblue" points="821.67,-287.97 831.87,-285.12 822.12,-280.99 821.67,-287.97"/>
</g>
<!-- Node9 -->
<g id="node9" class="node">
<title>Node9</title>
<g id="a_node9"><a xlink:href="../../d4/d5f/_perlin_noise_8h_source.html" target="_top" xlink:title=" ">
<polygon fill="none" stroke="black" points="326.5,-112.5 326.5,-131.5 407.5,-131.5 407.5,-112.5 326.5,-112.5"/>
<text text-anchor="middle" x="367" y="-119.5" font-family="Helvetica,sans-Serif" font-size="10.00">PerlinNoise.h</text>
</a>
</g>
</g>
<!-- Node2&#45;&gt;Node9 -->
<g id="edge12" class="edge">
<title>Node2&#45;&gt;Node9</title>
<path fill="none" stroke="midnightblue" d="M821.49,-284.89C726.36,-278.97 571.13,-266.25 518,-244 453.86,-217.14 394.72,-154.61 374.43,-131.65"/>
<polygon fill="midnightblue" stroke="midnightblue" points="821.45,-288.39 831.65,-285.51 821.88,-281.41 821.45,-288.39"/>
</g>
<!-- Node10 -->
<g id="node10" class="node">
<title>Node10</title>
<g id="a_node10"><a xlink:href="../../d5/d84/_sample_stream_8h.html" target="_top" xlink:title=" ">
<polygon fill="none" stroke="black" points="527,-224.5 527,-243.5 625,-243.5 625,-224.5 527,-224.5"/>
<text text-anchor="middle" x="576" y="-231.5" font-family="Helvetica,sans-Serif" font-size="10.00">SampleStream.h</text>
</a>
</g>
</g>
<!-- Node2&#45;&gt;Node10 -->
<g id="edge14" class="edge">
<title>Node2&#45;&gt;Node10</title>
<path fill="none" stroke="midnightblue" d="M837.83,-278.77C776.13,-268.46 682.08,-252.73 625.09,-243.21"/>
<polygon fill="midnightblue" stroke="midnightblue" points="837.38,-282.25 847.82,-280.44 838.53,-275.34 837.38,-282.25"/>
</g>
<!-- Node14 -->
<g id="node14" class="node">
<title>Node14</title>
<g id="a_node14"><a xlink:href="../../d7/d4f/shifter_8h.html" target="_top" xlink:title=" ">
<polygon fill="none" stroke="black" points="776,-112.5 776,-131.5 832,-131.5 832,-112.5 776,-112.5"/>
<text text-anchor="middle" x="804" y="-119.5" font-family="Helvetica,sans-Serif" font-size="10.00">shifter.h</text>
</a>
</g>
</g>
<!-- Node2&#45;&gt;Node14 -->
<g id="edge34" class="edge">
<title>Node2&#45;&gt;Node14</title>
<path fill="none" stroke="midnightblue" d="M821.99,-281.35C773.09,-274.72 716.25,-263.11 701,-244 666.49,-200.77 749.22,-151.03 786.71,-131.5"/>
<polygon fill="midnightblue" stroke="midnightblue" points="821.59,-284.83 831.96,-282.65 822.5,-277.89 821.59,-284.83"/>
</g>
<!-- Node15 -->
<g id="node15" class="node">
<title>Node15</title>
<g id="a_node15"><a xlink:href="../../d7/ddb/_detunable_model_8h.html" target="_top" xlink:title=" ">
<polygon fill="none" stroke="black" points="926,-112.5 926,-131.5 1032,-131.5 1032,-112.5 926,-112.5"/>
<text text-anchor="middle" x="979" y="-119.5" font-family="Helvetica,sans-Serif" font-size="10.00">DetunableModel.h</text>
</a>
</g>
</g>
<!-- Node2&#45;&gt;Node15 -->
<g id="edge24" class="edge">
<title>Node2&#45;&gt;Node15</title>
<path fill="none" stroke="midnightblue" d="M906.84,-271.25C917.39,-247.54 936.95,-204.29 955,-168 961.39,-155.16 969.3,-140.55 974.25,-131.55"/>
<polygon fill="midnightblue" stroke="midnightblue" points="903.63,-269.85 902.77,-280.41 910.03,-272.69 903.63,-269.85"/>
</g>
<!-- Node16 -->
<g id="node16" class="node">
<title>Node16</title>
<g id="a_node16"><a xlink:href="../../dc/ddf/_pitch_detector_8h.html" target="_top" xlink:title=" ">
<polygon fill="none" stroke="black" points="816.5,-224.5 816.5,-243.5 907.5,-243.5 907.5,-224.5 816.5,-224.5"/>
<text text-anchor="middle" x="862" y="-231.5" font-family="Helvetica,sans-Serif" font-size="10.00">PitchDetector.h</text>
</a>
</g>
</g>
<!-- Node2&#45;&gt;Node16 -->
<g id="edge26" class="edge">
<title>Node2&#45;&gt;Node16</title>
<path fill="none" stroke="midnightblue" d="M887.05,-271.57C880.69,-262.27 873.13,-251.25 868,-243.75"/>
<polygon fill="midnightblue" stroke="midnightblue" points="884.35,-273.81 892.89,-280.08 890.13,-269.86 884.35,-273.81"/>
</g>
<!-- Node17 -->
<g id="node17" class="node">
<title>Node17</title>
<g id="a_node17"><a xlink:href="../../d3/d19/analyzer_8h.html" target="_top" xlink:title=" ">
<polygon fill="none" stroke="black" points="770.5,-168.5 770.5,-187.5 837.5,-187.5 837.5,-168.5 770.5,-168.5"/>
<text text-anchor="middle" x="804" y="-175.5" font-family="Helvetica,sans-Serif" font-size="10.00">analyzer.h</text>
</a>
</g>
</g>
<!-- Node2&#45;&gt;Node17 -->
<g id="edge31" class="edge">
<title>Node2&#45;&gt;Node17</title>
<path fill="none" stroke="midnightblue" d="M821.79,-280.33C775.97,-273.42 724.12,-261.88 710,-244 689.4,-217.92 736,-198.14 770.68,-187.58"/>
<polygon fill="midnightblue" stroke="midnightblue" points="821.37,-283.81 831.76,-281.78 822.37,-276.88 821.37,-283.81"/>
</g>
<!-- Node18 -->
<g id="node18" class="node">
<title>Node18</title>
<g id="a_node18"><a xlink:href="../../dc/dad/_peak_finder_8h.html" target="_top" xlink:title=" ">
<polygon fill="none" stroke="black" points="719.5,-224.5 719.5,-243.5 798.5,-243.5 798.5,-224.5 719.5,-224.5"/>
<text text-anchor="middle" x="759" y="-231.5" font-family="Helvetica,sans-Serif" font-size="10.00">PeakFinder.h</text>
</a>
</g>
</g>
<!-- Node2&#45;&gt;Node18 -->
<g id="edge32" class="edge">
<title>Node2&#45;&gt;Node18</title>
<path fill="none" stroke="midnightblue" d="M867.3,-276.77C841,-266.63 804.28,-252.47 781.08,-243.52"/>
<polygon fill="midnightblue" stroke="midnightblue" points="866.23,-280.11 876.82,-280.44 868.75,-273.58 866.23,-280.11"/>
</g>
<!-- Node19 -->
<g id="node19" class="node">
<title>Node19</title>
<g id="a_node19"><a xlink:href="../../d7/d35/countries_8h.html" target="_top" xlink:title=" ">
<polygon fill="none" stroke="black" points="964.5,-224.5 964.5,-243.5 1035.5,-243.5 1035.5,-224.5 964.5,-224.5"/>
<text text-anchor="middle" x="1000" y="-231.5" font-family="Helvetica,sans-Serif" font-size="10.00">countries.h</text>
</a>
</g>
</g>
<!-- Node2&#45;&gt;Node19 -->
<g id="edge35" class="edge">
<title>Node2&#45;&gt;Node19</title>
<path fill="none" stroke="midnightblue" d="M924.08,-275.59C942.76,-265.61 967.7,-252.27 983.81,-243.65"/>
<polygon fill="midnightblue" stroke="midnightblue" points="922.4,-272.52 915.23,-280.32 925.7,-278.7 922.4,-272.52"/>
</g>
<!-- Node21 -->
<g id="node21" class="node">
<title>Node21</title>
<g id="a_node21"><a xlink:href="../../d0/d0f/languages_8h.html" target="_top" xlink:title=" ">
<polygon fill="none" stroke="black" points="1054,-224.5 1054,-243.5 1130,-243.5 1130,-224.5 1054,-224.5"/>
<text text-anchor="middle" x="1092" y="-231.5" font-family="Helvetica,sans-Serif" font-size="10.00">languages.h</text>
</a>
</g>
</g>
<!-- Node2&#45;&gt;Node21 -->
<g id="edge38" class="edge">
<title>Node2&#45;&gt;Node21</title>
<path fill="none" stroke="midnightblue" d="M939.39,-277.7C975.82,-267.51 1028.59,-252.74 1061.56,-243.52"/>
<polygon fill="midnightblue" stroke="midnightblue" points="938.27,-274.38 929.58,-280.44 940.15,-281.12 938.27,-274.38"/>
</g>
<!-- Node22 -->
<g id="node22" class="node">
<title>Node22</title>
<g id="a_node22"><a xlink:href="../../d8/d57/_chord_8h.html" target="_top" xlink:title=" ">
<polygon fill="none" stroke="black" points="1098,-112.5 1098,-131.5 1152,-131.5 1152,-112.5 1098,-112.5"/>
<text text-anchor="middle" x="1125" y="-119.5" font-family="Helvetica,sans-Serif" font-size="10.00">Chord.h</text>
</a>
</g>
</g>
<!-- Node2&#45;&gt;Node22 -->
<g id="edge40" class="edge">
<title>Node2&#45;&gt;Node22</title>
<path fill="none" stroke="midnightblue" d="M976.29,-284.96C1038.39,-279.91 1118.52,-268.68 1139,-244 1162.35,-215.87 1101.88,-194.47 1099,-188 1090.1,-168.02 1106.57,-144 1117.13,-131.5"/>
<polygon fill="midnightblue" stroke="midnightblue" points="975.8,-281.49 966.1,-285.75 976.34,-288.47 975.8,-281.49"/>
</g>
<!-- Node24 -->
<g id="node24" class="node">
<title>Node24</title>
<g id="a_node24"><a xlink:href="../../d4/d81/_scale_8h.html" target="_top" xlink:title=" ">
<polygon fill="none" stroke="black" points="1294,-224.5 1294,-243.5 1346,-243.5 1346,-224.5 1294,-224.5"/>
<text text-anchor="middle" x="1320" y="-231.5" font-family="Helvetica,sans-Serif" font-size="10.00">Scale.h</text>
</a>
</g>
</g>
<!-- Node2&#45;&gt;Node24 -->
<g id="edge43" class="edge">
<title>Node2&#45;&gt;Node24</title>
<path fill="none" stroke="midnightblue" d="M976.42,-279.4C1048.35,-270.43 1158.45,-256.57 1254,-244 1267.19,-242.27 1281.84,-240.27 1293.99,-238.6"/>
<polygon fill="midnightblue" stroke="midnightblue" points="975.58,-275.98 966.09,-280.69 976.45,-282.92 975.58,-275.98"/>
</g>
<!-- Node25 -->
<g id="node25" class="node">
<title>Node25</title>
<g id="a_node25"><a xlink:href="../../d3/d6f/_chromatic_8h.html" target="_top" xlink:title=" ">
<polygon fill="none" stroke="black" points="1108,-168.5 1108,-187.5 1184,-187.5 1184,-168.5 1108,-168.5"/>
<text text-anchor="middle" x="1146" y="-175.5" font-family="Helvetica,sans-Serif" font-size="10.00">Chromatic.h</text>
</a>
</g>
</g>
<!-- Node2&#45;&gt;Node25 -->
<g id="edge56" class="edge">
<title>Node2&#45;&gt;Node25</title>
<path fill="none" stroke="midnightblue" d="M976.65,-287.03C1048.34,-283.38 1147.34,-273.06 1172,-244 1186.31,-227.13 1167.13,-201.4 1154.85,-187.93"/>
<polygon fill="midnightblue" stroke="midnightblue" points="976.11,-283.56 966.28,-287.53 976.44,-290.55 976.11,-283.56"/>
</g>
<!-- Node26 -->
<g id="node26" class="node">
<title>Node26</title>
<g id="a_node26"><a xlink:href="../../dd/d47/_key_signature_8h.html" target="_top" xlink:title=" ">
<polygon fill="none" stroke="black" points="1202,-168.5 1202,-187.5 1292,-187.5 1292,-168.5 1202,-168.5"/>
<text text-anchor="middle" x="1247" y="-175.5" font-family="Helvetica,sans-Serif" font-size="10.00">KeySignature.h</text>
</a>
</g>
</g>
<!-- Node2&#45;&gt;Node26 -->
<g id="edge57" class="edge">
<title>Node2&#45;&gt;Node26</title>
<path fill="none" stroke="midnightblue" d="M976.34,-282.91C1049.52,-276.1 1153.31,-263.41 1189,-244 1213.71,-230.56 1233.13,-202.34 1241.91,-187.91"/>
<polygon fill="midnightblue" stroke="midnightblue" points="975.87,-279.44 966.23,-283.83 976.51,-286.41 975.87,-279.44"/>
</g>
<!-- Node27 -->
<g id="node27" class="node">
<title>Node27</title>
<g id="a_node27"><a xlink:href="../../d8/daa/_mode_8h.html" target="_top" xlink:title=" ">
<polygon fill="none" stroke="black" points="1348.5,-112.5 1348.5,-131.5 1401.5,-131.5 1401.5,-112.5 1348.5,-112.5"/>
<text text-anchor="middle" x="1375" y="-119.5" font-family="Helvetica,sans-Serif" font-size="10.00">Mode.h</text>
</a>
</g>
</g>
<!-- Node2&#45;&gt;Node27 -->
<g id="edge58" class="edge">
<title>Node2&#45;&gt;Node27</title>
<path fill="none" stroke="midnightblue" d="M976.54,-286.42C1099.47,-281.59 1328,-269.29 1355,-244 1387.01,-214.02 1380.46,-153.94 1376.67,-131.61"/>
<polygon fill="midnightblue" stroke="midnightblue" points="976.29,-282.93 966.43,-286.81 976.56,-289.92 976.29,-282.93"/>
</g>
<!-- Node28 -->
<g id="node28" class="node">
<title>Node28</title>
<g id="a_node28"><a xlink:href="../../d7/db9/_octatonic_8h.html" target="_top" xlink:title=" ">
<polygon fill="none" stroke="black" points="1424,-168.5 1424,-187.5 1496,-187.5 1496,-168.5 1424,-168.5"/>
<text text-anchor="middle" x="1460" y="-175.5" font-family="Helvetica,sans-Serif" font-size="10.00">Octatonic.h</text>
</a>
</g>
</g>
<!-- Node2&#45;&gt;Node28 -->
<g id="edge59" class="edge">
<title>Node2&#45;&gt;Node28</title>
<path fill="none" stroke="midnightblue" d="M976.39,-289.68C1100.48,-289.53 1337.37,-283.82 1410,-244 1433.47,-231.13 1449.43,-202.11 1456.26,-187.6"/>
<polygon fill="midnightblue" stroke="midnightblue" points="976.2,-286.18 966.2,-289.68 976.2,-293.18 976.2,-286.18"/>
</g>
<!-- Node29 -->
<g id="node29" class="node">
<title>Node29</title>
<g id="a_node29"><a xlink:href="../../d0/dce/_whole_tone_8h.html" target="_top" xlink:title=" ">
<polygon fill="none" stroke="black" points="1514.5,-168.5 1514.5,-187.5 1593.5,-187.5 1593.5,-168.5 1514.5,-168.5"/>
<text text-anchor="middle" x="1554" y="-175.5" font-family="Helvetica,sans-Serif" font-size="10.00">WholeTone.h</text>
</a>
</g>
</g>
<!-- Node2&#45;&gt;Node29 -->
<g id="edge60" class="edge">
<title>Node2&#45;&gt;Node29</title>
<path fill="none" stroke="midnightblue" d="M976.39,-286.49C1103.85,-281.68 1352.19,-269.34 1436,-244 1478.09,-231.28 1522,-202.19 1542.36,-187.63"/>
<polygon fill="midnightblue" stroke="midnightblue" points="976.17,-282.99 966.3,-286.86 976.43,-289.99 976.17,-282.99"/>
</g>
<!-- Node30 -->
<g id="node30" class="node">
<title>Node30</title>
<g id="a_node30"><a xlink:href="../../d5/d45/_note_length_8h_source.html" target="_top" xlink:title=" ">
<polygon fill="none" stroke="black" points="1595,-224.5 1595,-243.5 1677,-243.5 1677,-224.5 1595,-224.5"/>
<text text-anchor="middle" x="1636" y="-231.5" font-family="Helvetica,sans-Serif" font-size="10.00">NoteLength.h</text>
</a>
</g>
</g>
<!-- Node2&#45;&gt;Node30 -->
<g id="edge61" class="edge">
<title>Node2&#45;&gt;Node30</title>
<path fill="none" stroke="midnightblue" d="M976.05,-284.73C1098.57,-277.7 1345.29,-262.62 1554,-244 1567.27,-242.82 1581.72,-241.31 1594.74,-239.86"/>
<polygon fill="midnightblue" stroke="midnightblue" points="975.8,-281.23 966.02,-285.3 976.2,-288.22 975.8,-281.23"/>
</g>
<!-- Node4&#45;&gt;Node5 -->
<g id="edge4" class="edge">
<title>Node4&#45;&gt;Node5</title>
<path fill="none" stroke="midnightblue" d="M231.41,-218.1C218.63,-208.38 202.39,-196.03 191.61,-187.83"/>
<polygon fill="midnightblue" stroke="midnightblue" points="229.51,-221.06 239.59,-224.32 233.75,-215.48 229.51,-221.06"/>
</g>
<!-- Node6 -->
<g id="node6" class="node">
<title>Node6</title>
<g id="a_node6"><a xlink:href="../../d6/d15/limes__audio_8h.html" target="_top" xlink:title=" ">
<polygon fill="none" stroke="black" points="513.5,-56.5 513.5,-75.5 598.5,-75.5 598.5,-56.5 513.5,-56.5"/>
<text text-anchor="middle" x="556" y="-63.5" font-family="Helvetica,sans-Serif" font-size="10.00">limes_audio.h</text>
</a>
</g>
</g>
<!-- Node5&#45;&gt;Node6 -->
<g id="edge5" class="edge">
<title>Node5&#45;&gt;Node6</title>
<path fill="none" stroke="midnightblue" d="M145.01,-171.49C99.19,-162.87 27.92,-143.82 57,-112 87.51,-78.61 397.86,-69.77 513.17,-67.63"/>
<polygon fill="midnightblue" stroke="midnightblue" points="144.45,-174.94 154.92,-173.26 145.69,-168.05 144.45,-174.94"/>
</g>
<!-- Node6&#45;&gt;Node3 -->
<g id="edge6" class="edge">
<title>Node6&#45;&gt;Node3</title>
<path fill="none" stroke="midnightblue" d="M605.75,-54.34C658.48,-43.04 739.75,-25.62 781.4,-16.7"/>
<polygon fill="midnightblue" stroke="midnightblue" points="604.97,-50.93 595.93,-56.44 606.44,-57.77 604.97,-50.93"/>
</g>
<!-- Node7&#45;&gt;Node6 -->
<g id="edge9" class="edge">
<title>Node7&#45;&gt;Node6</title>
<path fill="none" stroke="midnightblue" d="M207.84,-111.34C296.98,-99.99 441.81,-81.54 513.3,-72.44"/>
<polygon fill="midnightblue" stroke="midnightblue" points="207.26,-107.89 197.78,-112.62 208.15,-114.83 207.26,-107.89"/>
</g>
<!-- Node8&#45;&gt;Node6 -->
<g id="edge11" class="edge">
<title>Node8&#45;&gt;Node6</title>
<path fill="none" stroke="midnightblue" d="M318.17,-110.68C375.08,-100.23 461.85,-84.29 513.35,-74.83"/>
<polygon fill="midnightblue" stroke="midnightblue" points="317.46,-107.25 308.26,-112.5 318.73,-114.14 317.46,-107.25"/>
</g>
<!-- Node9&#45;&gt;Node6 -->
<g id="edge13" class="edge">
<title>Node9&#45;&gt;Node6</title>
<path fill="none" stroke="midnightblue" d="M407.01,-109.57C442.67,-99.38 494.04,-84.7 526.19,-75.52"/>
<polygon fill="midnightblue" stroke="midnightblue" points="405.6,-106.33 396.95,-112.44 407.52,-113.06 405.6,-106.33"/>
</g>
<!-- Node10&#45;&gt;Node6 -->
<g id="edge15" class="edge">
<title>Node10&#45;&gt;Node6</title>
<path fill="none" stroke="midnightblue" d="M517.26,-221.48C499.01,-214.84 480.85,-204.4 470,-188 457.76,-169.51 474.14,-127.97 486,-112 498.49,-95.18 519.29,-82.98 534.98,-75.56"/>
<polygon fill="midnightblue" stroke="midnightblue" points="516.18,-224.81 526.78,-224.61 518.38,-218.16 516.18,-224.81"/>
</g>
<!-- Node11 -->
<g id="node11" class="node">
<title>Node11</title>
<g id="a_node11"><a xlink:href="../../dc/da4/oscillator_8h.html" target="_top" xlink:title=" ">
<polygon fill="none" stroke="black" points="479,-168.5 479,-187.5 549,-187.5 549,-168.5 479,-168.5"/>
<text text-anchor="middle" x="514" y="-175.5" font-family="Helvetica,sans-Serif" font-size="10.00">oscillator.h</text>
</a>
</g>
</g>
<!-- Node10&#45;&gt;Node11 -->
<g id="edge16" class="edge">
<title>Node10&#45;&gt;Node11</title>
<path fill="none" stroke="midnightblue" d="M558.25,-217.54C547.19,-207.91 533.37,-195.87 524.14,-187.83"/>
<polygon fill="midnightblue" stroke="midnightblue" points="556.2,-220.4 566.04,-224.32 560.8,-215.12 556.2,-220.4"/>
</g>
<!-- Node13 -->
<g id="node13" class="node">
<title>Node13</title>
<g id="a_node13"><a xlink:href="../../d6/db1/_white_noise_generator_8h.html" target="_top" xlink:title=" ">
<polygon fill="none" stroke="black" points="628,-112.5 628,-131.5 758,-131.5 758,-112.5 628,-112.5"/>
<text text-anchor="middle" x="693" y="-119.5" font-family="Helvetica,sans-Serif" font-size="10.00">WhiteNoiseGenerator.h</text>
</a>
</g>
</g>
<!-- Node10&#45;&gt;Node13 -->
<g id="edge20" class="edge">
<title>Node10&#45;&gt;Node13</title>
<path fill="none" stroke="midnightblue" d="M579.33,-214.28C582.69,-200.11 589.14,-180.95 601,-168 617.33,-150.17 642.28,-138.58 662.07,-131.64"/>
<polygon fill="midnightblue" stroke="midnightblue" points="575.85,-213.86 577.25,-224.36 582.7,-215.27 575.85,-213.86"/>
</g>
<!-- Node10&#45;&gt;Node14 -->
<g id="edge22" class="edge">
<title>Node10&#45;&gt;Node14</title>
<path fill="none" stroke="midnightblue" d="M588.1,-216.14C599.59,-201.34 618.16,-180.31 639,-168 644.98,-164.47 730.26,-142.09 775.8,-130.28"/>
<polygon fill="midnightblue" stroke="midnightblue" points="585.1,-214.31 581.91,-224.41 590.7,-218.5 585.1,-214.31"/>
</g>
<!-- Node11&#45;&gt;Node6 -->
<g id="edge17" class="edge">
<title>Node11&#45;&gt;Node6</title>
<path fill="none" stroke="midnightblue" d="M501.35,-159.91C493.05,-146.44 485.06,-127.42 493,-112 501.8,-94.91 520.42,-82.87 535.15,-75.57"/>
<polygon fill="midnightblue" stroke="midnightblue" points="498.47,-161.9 506.96,-168.23 504.28,-157.98 498.47,-161.9"/>
</g>
<!-- Node12 -->
<g id="node12" class="node">
<title>Node12</title>
<g id="a_node12"><a xlink:href="../../d8/dee/basic__oscillators_8h.html" target="_top" xlink:title=" ">
<polygon fill="none" stroke="black" points="502.5,-112.5 502.5,-131.5 609.5,-131.5 609.5,-112.5 502.5,-112.5"/>
<text text-anchor="middle" x="556" y="-119.5" font-family="Helvetica,sans-Serif" font-size="10.00">basic_oscillators.h</text>
</a>
</g>
</g>
<!-- Node11&#45;&gt;Node12 -->
<g id="edge18" class="edge">
<title>Node11&#45;&gt;Node12</title>
<path fill="none" stroke="midnightblue" d="M527.11,-160.14C534.43,-150.74 543.24,-139.4 549.19,-131.75"/>
<polygon fill="midnightblue" stroke="midnightblue" points="524.31,-158.04 520.94,-168.08 529.84,-162.34 524.31,-158.04"/>
</g>
<!-- Node12&#45;&gt;Node6 -->
<g id="edge19" class="edge">
<title>Node12&#45;&gt;Node6</title>
<path fill="none" stroke="midnightblue" d="M556,-101.8C556,-92.91 556,-82.78 556,-75.75"/>
<polygon fill="midnightblue" stroke="midnightblue" points="552.5,-102.08 556,-112.08 559.5,-102.08 552.5,-102.08"/>
</g>
<!-- Node13&#45;&gt;Node6 -->
<g id="edge21" class="edge">
<title>Node13&#45;&gt;Node6</title>
<path fill="none" stroke="midnightblue" d="M661.98,-108.77C636.24,-98.63 600.31,-84.47 577.61,-75.52"/>
<polygon fill="midnightblue" stroke="midnightblue" points="660.71,-112.03 671.29,-112.44 663.27,-105.52 660.71,-112.03"/>
</g>
<!-- Node14&#45;&gt;Node6 -->
<g id="edge23" class="edge">
<title>Node14&#45;&gt;Node6</title>
<path fill="none" stroke="midnightblue" d="M765.87,-111.79C701.8,-97.24 638.25,-83.9 597.71,-75.53"/>
<polygon fill="midnightblue" stroke="midnightblue" points="765.21,-115.23 775.74,-114.04 766.77,-108.4 765.21,-115.23"/>
</g>
<!-- Node15&#45;&gt;Node6 -->
<g id="edge25" class="edge">
<title>Node15&#45;&gt;Node6</title>
<path fill="none" stroke="midnightblue" d="M915.87,-112.51C914.57,-112.34 913.28,-112.17 912,-112 798.95,-97.26 665.61,-80.6 598.76,-72.3"/>
<polygon fill="midnightblue" stroke="midnightblue" points="915.6,-116 925.97,-113.84 916.52,-109.06 915.6,-116"/>
</g>
<!-- Node16&#45;&gt;Node6 -->
<g id="edge27" class="edge">
<title>Node16&#45;&gt;Node6</title>
<path fill="none" stroke="midnightblue" d="M867.88,-214.53C874.98,-188.25 883.08,-140.15 858,-112 824.41,-74.31 673.58,-67.79 598.6,-66.93"/>
<polygon fill="midnightblue" stroke="midnightblue" points="864.46,-213.76 865,-224.34 871.18,-215.73 864.46,-213.76"/>
</g>
<!-- Node16&#45;&gt;Node17 -->
<g id="edge28" class="edge">
<title>Node16&#45;&gt;Node17</title>
<path fill="none" stroke="midnightblue" d="M845.09,-217.25C834.8,-207.67 822.03,-195.79 813.49,-187.83"/>
<polygon fill="midnightblue" stroke="midnightblue" points="842.98,-220.07 852.68,-224.32 847.75,-214.95 842.98,-220.07"/>
</g>
<!-- Node17&#45;&gt;Node6 -->
<g id="edge29" class="edge">
<title>Node17&#45;&gt;Node6</title>
<path fill="none" stroke="midnightblue" d="M823.25,-161.39C838.05,-147.52 853.95,-127.16 841,-112 810.33,-76.11 670.31,-68.67 598.6,-67.25"/>
<polygon fill="midnightblue" stroke="midnightblue" points="820.53,-159.12 815.34,-168.35 825.16,-164.38 820.53,-159.12"/>
</g>
<!-- Node17&#45;&gt;Node14 -->
<g id="edge30" class="edge">
<title>Node17&#45;&gt;Node14</title>
<path fill="none" stroke="midnightblue" d="M804,-157.8C804,-148.91 804,-138.78 804,-131.75"/>
<polygon fill="midnightblue" stroke="midnightblue" points="800.5,-158.08 804,-168.08 807.5,-158.08 800.5,-158.08"/>
</g>
<!-- Node18&#45;&gt;Node17 -->
<g id="edge33" class="edge">
<title>Node18&#45;&gt;Node17</title>
<path fill="none" stroke="midnightblue" d="M773.05,-216.14C780.89,-206.74 790.33,-195.4 796.71,-187.75"/>
<polygon fill="midnightblue" stroke="midnightblue" points="770.14,-214.16 766.43,-224.08 775.52,-218.64 770.14,-214.16"/>
</g>
<!-- Node20 -->
<g id="node20" class="node">
<title>Node20</title>
<g id="a_node20"><a xlink:href="../../da/d18/limes__locale_8h.html" target="_top" xlink:title=" ">
<polygon fill="none" stroke="black" points="964.5,-168.5 964.5,-187.5 1051.5,-187.5 1051.5,-168.5 964.5,-168.5"/>
<text text-anchor="middle" x="1008" y="-175.5" font-family="Helvetica,sans-Serif" font-size="10.00">limes_locale.h</text>
</a>
</g>
</g>
<!-- Node19&#45;&gt;Node20 -->
<g id="edge36" class="edge">
<title>Node19&#45;&gt;Node20</title>
<path fill="none" stroke="midnightblue" d="M1002.8,-214.1C1004.13,-205.14 1005.65,-194.86 1006.7,-187.75"/>
<polygon fill="midnightblue" stroke="midnightblue" points="999.32,-213.68 1001.32,-224.08 1006.25,-214.7 999.32,-213.68"/>
</g>
<!-- Node20&#45;&gt;Node3 -->
<g id="edge37" class="edge">
<title>Node20&#45;&gt;Node3</title>
<path fill="none" stroke="midnightblue" d="M1025.53,-161.09C1038.22,-147.58 1051.45,-127.92 1041,-112 994.18,-40.68 885.02,-19.47 834.51,-13.37"/>
<polygon fill="midnightblue" stroke="midnightblue" points="1022.94,-158.72 1018.3,-168.25 1027.87,-163.69 1022.94,-158.72"/>
</g>
<!-- Node21&#45;&gt;Node20 -->
<g id="edge39" class="edge">
<title>Node21&#45;&gt;Node20</title>
<path fill="none" stroke="midnightblue" d="M1070.07,-218.9C1054.66,-209 1034.55,-196.07 1021.46,-187.65"/>
<polygon fill="midnightblue" stroke="midnightblue" points="1068.2,-221.86 1078.5,-224.32 1071.98,-215.97 1068.2,-221.86"/>
</g>
<!-- Node23 -->
<g id="node23" class="node">
<title>Node23</title>
<g id="a_node23"><a xlink:href="../../d4/dbe/limes__music_8h.html" target="_top" xlink:title=" ">
<polygon fill="none" stroke="black" points="1276.5,-56.5 1276.5,-75.5 1363.5,-75.5 1363.5,-56.5 1276.5,-56.5"/>
<text text-anchor="middle" x="1320" y="-63.5" font-family="Helvetica,sans-Serif" font-size="10.00">limes_music.h</text>
</a>
</g>
</g>
<!-- Node22&#45;&gt;Node23 -->
<g id="edge41" class="edge">
<title>Node22&#45;&gt;Node23</title>
<path fill="none" stroke="midnightblue" d="M1161.97,-110.76C1198.82,-100.56 1254.77,-85.06 1289.26,-75.51"/>
<polygon fill="midnightblue" stroke="midnightblue" points="1160.82,-107.45 1152.11,-113.49 1162.69,-114.2 1160.82,-107.45"/>
</g>
<!-- Node23&#45;&gt;Node3 -->
<g id="edge42" class="edge">
<title>Node23&#45;&gt;Node3</title>
<path fill="none" stroke="midnightblue" d="M1266.26,-59.33C1157.66,-47.88 915.51,-22.34 834.78,-13.82"/>
<polygon fill="midnightblue" stroke="midnightblue" points="1266.04,-62.83 1276.35,-60.4 1266.77,-55.87 1266.04,-62.83"/>
</g>
<!-- Node24&#45;&gt;Node23 -->
<g id="edge55" class="edge">
<title>Node24&#45;&gt;Node23</title>
<path fill="none" stroke="midnightblue" d="M1320,-213.93C1320,-177.92 1320,-101.23 1320,-75.57"/>
<polygon fill="midnightblue" stroke="midnightblue" points="1316.5,-214.08 1320,-224.08 1323.5,-214.08 1316.5,-214.08"/>
</g>
<!-- Node24&#45;&gt;Node25 -->
<g id="edge44" class="edge">
<title>Node24&#45;&gt;Node25</title>
<path fill="none" stroke="midnightblue" d="M1284.3,-221.92C1251.52,-211.75 1203.63,-196.88 1173.67,-187.59"/>
<polygon fill="midnightblue" stroke="midnightblue" points="1283.36,-225.29 1293.95,-224.92 1285.44,-218.61 1283.36,-225.29"/>
</g>
<!-- Node24&#45;&gt;Node26 -->
<g id="edge46" class="edge">
<title>Node24&#45;&gt;Node26</title>
<path fill="none" stroke="midnightblue" d="M1299.86,-218.1C1286.72,-208.38 1270.02,-196.03 1258.94,-187.83"/>
<polygon fill="midnightblue" stroke="midnightblue" points="1298.15,-221.19 1308.27,-224.32 1302.31,-215.56 1298.15,-221.19"/>
</g>
<!-- Node24&#45;&gt;Node27 -->
<g id="edge50" class="edge">
<title>Node24&#45;&gt;Node27</title>
<path fill="none" stroke="midnightblue" d="M1328.84,-215.32C1340.82,-191.37 1361.73,-149.55 1370.7,-131.59"/>
<polygon fill="midnightblue" stroke="midnightblue" points="1325.66,-213.86 1324.32,-224.37 1331.92,-216.99 1325.66,-213.86"/>
</g>
<!-- Node24&#45;&gt;Node28 -->
<g id="edge51" class="edge">
<title>Node24&#45;&gt;Node28</title>
<path fill="none" stroke="midnightblue" d="M1351.7,-220.77C1378,-210.63 1414.72,-196.47 1437.92,-187.52"/>
<polygon fill="midnightblue" stroke="midnightblue" points="1350.25,-217.58 1342.18,-224.44 1352.77,-224.11 1350.25,-217.58"/>
</g>
<!-- Node24&#45;&gt;Node29 -->
<g id="edge53" class="edge">
<title>Node24&#45;&gt;Node29</title>
<path fill="none" stroke="midnightblue" d="M1356.3,-224.62C1399.99,-214.54 1472.94,-197.71 1516.96,-187.55"/>
<polygon fill="midnightblue" stroke="midnightblue" points="1355.34,-221.25 1346.39,-226.91 1356.92,-228.07 1355.34,-221.25"/>
</g>
<!-- Node25&#45;&gt;Node23 -->
<g id="edge45" class="edge">
<title>Node25&#45;&gt;Node23</title>
<path fill="none" stroke="midnightblue" d="M1168.13,-163.01C1204.66,-139.92 1276.48,-94.51 1306.41,-75.59"/>
<polygon fill="midnightblue" stroke="midnightblue" points="1166.24,-160.07 1159.65,-168.37 1169.98,-165.98 1166.24,-160.07"/>
</g>
<!-- Node26&#45;&gt;Node23 -->
<g id="edge49" class="edge">
<title>Node26&#45;&gt;Node23</title>
<path fill="none" stroke="midnightblue" d="M1258.31,-159.96C1274.13,-136.12 1302.28,-93.71 1314.3,-75.59"/>
<polygon fill="midnightblue" stroke="midnightblue" points="1255.34,-158.1 1252.73,-168.37 1261.17,-161.97 1255.34,-158.1"/>
</g>
<!-- Node26&#45;&gt;Node27 -->
<g id="edge47" class="edge">
<title>Node26&#45;&gt;Node27</title>
<path fill="none" stroke="midnightblue" d="M1276.62,-164.5C1300.62,-154.38 1333.78,-140.39 1354.81,-131.52"/>
<polygon fill="midnightblue" stroke="midnightblue" points="1275.14,-161.33 1267.28,-168.44 1277.86,-167.78 1275.14,-161.33"/>
</g>
<!-- Node27&#45;&gt;Node23 -->
<g id="edge48" class="edge">
<title>Node27&#45;&gt;Node23</title>
<path fill="none" stroke="midnightblue" d="M1358.71,-105C1348.96,-95.43 1336.95,-83.64 1328.91,-75.75"/>
<polygon fill="midnightblue" stroke="midnightblue" points="1356.33,-107.57 1365.92,-112.08 1361.23,-102.58 1356.33,-107.57"/>
</g>
<!-- Node28&#45;&gt;Node23 -->
<g id="edge52" class="edge">
<title>Node28&#45;&gt;Node23</title>
<path fill="none" stroke="midnightblue" d="M1449.77,-159.64C1440.72,-145.43 1426.42,-125.54 1410,-112 1390.18,-95.67 1363.45,-83.25 1344.28,-75.64"/>
<polygon fill="midnightblue" stroke="midnightblue" points="1446.94,-161.73 1455.16,-168.42 1452.91,-158.07 1446.94,-161.73"/>
</g>
<!-- Node29&#45;&gt;Node23 -->
<g id="edge54" class="edge">
<title>Node29&#45;&gt;Node23</title>
<path fill="none" stroke="midnightblue" d="M1530.83,-163.36C1506.97,-149.58 1468.5,-128.08 1434,-112 1403.72,-97.89 1367.7,-84.16 1344.38,-75.65"/>
<polygon fill="midnightblue" stroke="midnightblue" points="1529.11,-166.41 1539.51,-168.41 1532.63,-160.36 1529.11,-166.41"/>
</g>
<!-- Node30&#45;&gt;Node23 -->
<g id="edge62" class="edge">
<title>Node30&#45;&gt;Node23</title>
<path fill="none" stroke="midnightblue" d="M1630.23,-214.45C1624.93,-200.09 1615.78,-180.61 1602,-168 1533.71,-105.51 1424.05,-81.09 1363.57,-72.01"/>
<polygon fill="midnightblue" stroke="midnightblue" points="1627.02,-215.88 1633.55,-224.22 1633.65,-213.63 1627.02,-215.88"/>
</g>
<!-- Node31 -->
<g id="node31" class="node">
<title>Node31</title>
<g id="a_node31"><a xlink:href="../../d8/dd4/_note_length__impl_8h_source.html" target="_top" xlink:title=" ">
<polygon fill="none" stroke="black" points="1650.5,-168.5 1650.5,-187.5 1759.5,-187.5 1759.5,-168.5 1650.5,-168.5"/>
<text text-anchor="middle" x="1705" y="-175.5" font-family="Helvetica,sans-Serif" font-size="10.00">NoteLength_impl.h</text>
</a>
</g>
</g>
<!-- Node30&#45;&gt;Node31 -->
<g id="edge63" class="edge">
<title>Node30&#45;&gt;Node31</title>
<path fill="none" stroke="midnightblue" d="M1649.64,-217.49C1660.99,-207.8 1676.84,-195.68 1688.83,-187.65"/>
<polygon fill="midnightblue" stroke="midnightblue" points="1647.11,-215.06 1641.97,-224.32 1651.77,-220.29 1647.11,-215.06"/>
</g>
<!-- Node31&#45;&gt;Node30 -->
<g id="edge64" class="edge">
<title>Node31&#45;&gt;Node30</title>
<path fill="none" stroke="midnightblue" d="M1691.19,-194.65C1679.86,-204.31 1664.13,-216.34 1652.2,-224.32"/>
<polygon fill="midnightblue" stroke="midnightblue" points="1693.71,-197.09 1698.86,-187.83 1689.06,-191.86 1693.71,-197.09"/>
</g>
</g>
</svg>
        <g id="navigator" transform="translate(0 0)" fill="#404254">
                <rect fill="#f2f5e9" fill-opacity="0.5" stroke="#606060" stroke-width=".5" x="0" y="0" width="60" height="60"/>
                <use id="zoomplus" xlink:href="#zoomPlus" x="17" y="9" onmousedown="handleZoom(evt,'in')"/>
                <use id="zoomminus" xlink:href="#zoomMin" x="42" y="9" onmousedown="handleZoom(evt,'out')"/>
                <use id="reset" xlink:href="#resetDef" x="30" y="36" onmousedown="handleReset()"/>
                <g id="arrowUp" xlink:href="#dirArrow" transform="translate(30 24)" onmousedown="handlePan(0,-1)">
                  <use xlink:href="#rim" fill="#404040">
                        <set attributeName="fill" to="#808080" begin="arrowUp.mouseover" end="arrowUp.mouseout"/>
                  </use>
                  <path fill="none" stroke="white" stroke-width="1.5" d="M0,-3.0v7 M-2.5,-0.5L0,-3.0L2.5,-0.5"/>
                </g>
                <g id="arrowRight" xlink:href="#dirArrow" transform="rotate(90) translate(36 -43)" onmousedown="handlePan(1,0)">
                  <use xlink:href="#rim" fill="#404040">
                        <set attributeName="fill" to="#808080" begin="arrowRight.mouseover" end="arrowRight.mouseout"/>
                  </use>
                  <path fill="none" stroke="white" stroke-width="1.5" d="M0,-3.0v7 M-2.5,-0.5L0,-3.0L2.5,-0.5"/>
                </g>
                <g id="arrowDown" xlink:href="#dirArrow" transform="rotate(180) translate(-30 -48)" onmousedown="handlePan(0,1)">
                  <use xlink:href="#rim" fill="#404040">
                        <set attributeName="fill" to="#808080" begin="arrowDown.mouseover" end="arrowDown.mouseout"/>
                  </use>
                  <path fill="none" stroke="white" stroke-width="1.5" d="M0,-3.0v7 M-2.5,-0.5L0,-3.0L2.5,-0.5"/>
                </g>
                <g id="arrowLeft" xlink:href="#dirArrow" transform="rotate(270) translate(-36 17)" onmousedown="handlePan(-1,0)">
                  <use xlink:href="#rim" fill="#404040">
                        <set attributeName="fill" to="#808080" begin="arrowLeft.mouseover" end="arrowLeft.mouseout"/>
                  </use>
                  <path fill="none" stroke="white" stroke-width="1.5" d="M0,-3.0v7 M-2.5,-0.5L0,-3.0L2.5,-0.5"/>
                </g>
        </g>
        <svg viewBox="0 0 15 15" width="100%" height="30px" preserveAspectRatio="xMaxYMin meet">
         <g id="arrow_out" transform="scale(0.3 0.3)">
          <a xlink:href="_linked_list_8h__dep__incl_org.svg" target="_base">
           <rect id="button" ry="5" rx="5" y="6" x="6" height="38" width="38"
                fill="#f2f5e9" fill-opacity="0.5" stroke="#606060" stroke-width="1.0"/>
           <path id="arrow"
             d="M 11.500037,31.436501 C 11.940474,20.09759 22.043105,11.32322 32.158766,21.979434 L 37.068811,17.246167 C 37.068811,17.246167 37.088388,32 37.088388,32 L 22.160133,31.978069 C 22.160133,31.978069 26.997745,27.140456 26.997745,27.140456 C 18.528582,18.264221 13.291696,25.230495 11.500037,31.436501 z"
             style="fill:#404040;"/>
          </a>
         </g>
        </svg>
</svg>
