<?xml version="1.0" encoding="UTF-8" standalone="no"?>
<!DOCTYPE svg PUBLIC "-//W3C//DTD SVG 1.1//EN"
 "http://www.w3.org/Graphics/SVG/1.1/DTD/svg11.dtd">
<!-- Generated by graphviz version 2.43.0 (0)
 -->
<!-- Title: hour_impl.h Pages: 1 -->
<!--zoomable 263 -->
<svg id="main" version="1.1" xmlns="http://www.w3.org/2000/svg" xmlns:xlink="http://www.w3.org/1999/xlink" xml:space="preserve" onload="init(evt)">
<style type="text/css"><![CDATA[
.edge:hover path { stroke: red; }
.edge:hover polygon { stroke: red; fill: red; }
]]></style>
<script type="text/javascript"><![CDATA[
var edges = document.getElementsByTagName('g');
if (edges && edges.length) {
  for (var i=0;i<edges.length;i++) {
    if (edges[i].id.substr(0,4)=='edge') {
      edges[i].setAttribute('class','edge');
    }
  }
}
]]></script>
        <defs>
                <circle id="rim" cx="0" cy="0" r="7"/>
                <circle id="rim2" cx="0" cy="0" r="3.5"/>
                <g id="zoomPlus">
                        <use xlink:href="#rim" fill="#404040">
                                <set attributeName="fill" to="#808080" begin="zoomplus.mouseover" end="zoomplus.mouseout"/>
                        </use>
                        <path d="M-4,0h8M0,-4v8" fill="none" stroke="white" stroke-width="1.5" pointer-events="none"/>
                </g>
                <g id="zoomMin">
                        <use xlink:href="#rim" fill="#404040">
                                <set attributeName="fill" to="#808080" begin="zoomminus.mouseover" end="zoomminus.mouseout"/>
                        </use>
                        <path d="M-4,0h8" fill="none" stroke="white" stroke-width="1.5" pointer-events="none"/>
                </g>
                <g id="dirArrow">
                        <path fill="none" stroke="white" stroke-width="1.5" d="M0,-3.0v7 M-2.5,-0.5L0,-3.0L2.5,-0.5"/>
                </g>
               <g id="resetDef">
                       <use xlink:href="#rim2" fill="#404040">
                               <set attributeName="fill" to="#808080" begin="reset.mouseover" end="reset.mouseout"/>
                       </use>
               </g>
        </defs>

<script type="text/javascript">
var viewWidth = 699;
var viewHeight = 263;
var sectionId = 'dynsection-0';
</script>
<script xlink:href="../../svgpan.js"/>
<svg id="graph" class="graph">
<g id="viewport">
<title>hour_impl.h</title>
<!-- Node1 -->
<g id="node1" class="node">
<title>Node1</title>
<g id="a_node1"><a xlink:title=" ">
<polygon fill="#bfbfbf" stroke="black" points="170.69,-235.5 170.69,-254.5 244.69,-254.5 244.69,-235.5 170.69,-235.5"/>
<text text-anchor="middle" x="207.69" y="-242.5" font-family="Helvetica,sans-Serif" font-size="10.00">hour_impl.h</text>
</a>
</g>
</g>
<!-- Node2 -->
<g id="node2" class="node">
<title>Node2</title>
<g id="a_node2"><a xlink:href="../../da/d0b/limes__namespace_8h.html" target="_top" xlink:title=" ">
<polygon fill="none" stroke="black" points="79.69,-56.5 79.69,-75.5 193.69,-75.5 193.69,-56.5 79.69,-56.5"/>
<text text-anchor="middle" x="136.69" y="-63.5" font-family="Helvetica,sans-Serif" font-size="10.00">limes_namespace.h</text>
</a>
</g>
</g>
<!-- Node1&#45;&gt;Node2 -->
<g id="edge1" class="edge">
<title>Node1&#45;&gt;Node2</title>
<path fill="none" stroke="midnightblue" d="M170.33,-235.68C122.21,-222.72 40.5,-192.66 4.69,-132 -13.59,-101.05 28.11,-84.48 69.38,-75.84"/>
<polygon fill="midnightblue" stroke="midnightblue" points="70.11,-79.26 79.26,-73.91 68.77,-72.39 70.11,-79.26"/>
</g>
<!-- Node3 -->
<g id="node3" class="node">
<title>Node3</title>
<g id="a_node3"><a xlink:href="../../d5/dbb/limes__assert_8h.html" target="_top" xlink:title=" ">
<polygon fill="none" stroke="black" points="157.19,-168.5 157.19,-198.5 258.19,-198.5 258.19,-168.5 157.19,-168.5"/>
<text text-anchor="start" x="165.19" y="-186.5" font-family="Helvetica,sans-Serif" font-size="10.00">../../system/limes</text>
<text text-anchor="middle" x="207.69" y="-175.5" font-family="Helvetica,sans-Serif" font-size="10.00">_assert.h</text>
</a>
</g>
</g>
<!-- Node1&#45;&gt;Node3 -->
<g id="edge2" class="edge">
<title>Node1&#45;&gt;Node3</title>
<path fill="none" stroke="midnightblue" d="M207.69,-235.48C207.69,-228.47 207.69,-218.19 207.69,-208.7"/>
<polygon fill="midnightblue" stroke="midnightblue" points="211.19,-208.52 207.69,-198.52 204.19,-208.52 211.19,-208.52"/>
</g>
<!-- Node12 -->
<g id="node12" class="node">
<title>Node12</title>
<g id="a_node12"><a xlink:href="../../dc/db3/build__date_8h.html" target="_top" xlink:title=" ">
<polygon fill="none" stroke="black" points="486.69,-174 486.69,-193 572.69,-193 572.69,-174 486.69,-174"/>
<text text-anchor="middle" x="529.69" y="-181" font-family="Helvetica,sans-Serif" font-size="10.00">../build_date.h</text>
</a>
</g>
</g>
<!-- Node1&#45;&gt;Node12 -->
<g id="edge18" class="edge">
<title>Node1&#45;&gt;Node12</title>
<path fill="none" stroke="midnightblue" d="M244.94,-237.12C301.98,-226.58 411.21,-206.39 476.55,-194.32"/>
<polygon fill="midnightblue" stroke="midnightblue" points="477.45,-197.71 486.65,-192.45 476.18,-190.83 477.45,-197.71"/>
</g>
<!-- Node3&#45;&gt;Node2 -->
<g id="edge4" class="edge">
<title>Node3&#45;&gt;Node2</title>
<path fill="none" stroke="midnightblue" d="M156.82,-176.3C105.4,-168.87 31.09,-154.51 13.69,-132 -7.46,-104.64 33.53,-87.55 73.76,-77.8"/>
<polygon fill="midnightblue" stroke="midnightblue" points="74.7,-81.18 83.67,-75.54 73.14,-74.35 74.7,-81.18"/>
</g>
<!-- Node4 -->
<g id="node4" class="node">
<title>Node4</title>
<g id="a_node4"><a xlink:title=" ">
<polygon fill="none" stroke="#bfbfbf" points="390.19,-56.5 390.19,-75.5 479.19,-75.5 479.19,-56.5 390.19,-56.5"/>
<text text-anchor="middle" x="434.69" y="-63.5" font-family="Helvetica,sans-Serif" font-size="10.00">limes_export.h</text>
</a>
</g>
</g>
<!-- Node3&#45;&gt;Node4 -->
<g id="edge3" class="edge">
<title>Node3&#45;&gt;Node4</title>
<path fill="none" stroke="midnightblue" d="M258.21,-178.48C318.24,-172.53 413,-159.05 434.69,-132 445.04,-119.09 443.53,-99.65 440.36,-85.39"/>
<polygon fill="midnightblue" stroke="midnightblue" points="443.73,-84.45 437.77,-75.69 436.97,-86.25 443.73,-84.45"/>
</g>
<!-- Node5 -->
<g id="node5" class="node">
<title>Node5</title>
<g id="a_node5"><a xlink:href="../../d3/d53/preprocessor_8h.html" target="_top" xlink:title=" ">
<polygon fill="none" stroke="black" points="497.19,-56.5 497.19,-75.5 620.19,-75.5 620.19,-56.5 497.19,-56.5"/>
<text text-anchor="middle" x="558.69" y="-63.5" font-family="Helvetica,sans-Serif" font-size="10.00">../misc/preprocessor.h</text>
</a>
</g>
</g>
<!-- Node3&#45;&gt;Node5 -->
<g id="edge5" class="edge">
<title>Node3&#45;&gt;Node5</title>
<path fill="none" stroke="midnightblue" d="M258.19,-177.16C308.57,-170.66 387.48,-157.27 451.69,-132 484.46,-119.1 518.61,-96.49 539.26,-81.63"/>
<polygon fill="midnightblue" stroke="midnightblue" points="541.5,-84.33 547.5,-75.6 537.36,-78.69 541.5,-84.33"/>
</g>
<!-- Node6 -->
<g id="node6" class="node">
<title>Node6</title>
<g id="a_node6"><a xlink:title=" ">
<polygon fill="none" stroke="#bfbfbf" points="409.69,-0.5 409.69,-19.5 509.69,-19.5 509.69,-0.5 409.69,-0.5"/>
<text text-anchor="middle" x="459.69" y="-7.5" font-family="Helvetica,sans-Serif" font-size="10.00">limes_platform.h</text>
</a>
</g>
</g>
<!-- Node3&#45;&gt;Node6 -->
<g id="edge13" class="edge">
<title>Node3&#45;&gt;Node6</title>
<path fill="none" stroke="midnightblue" d="M156.94,-176.97C103.1,-169.93 23.25,-155.75 4.69,-132 -0.79,-125 0.95,-120.07 4.69,-112 20.85,-77.09 35.4,-71.31 70.69,-56 128.25,-31.02 305.03,-18.67 399.19,-13.72"/>
<polygon fill="midnightblue" stroke="midnightblue" points="399.61,-17.2 409.42,-13.2 399.26,-10.21 399.61,-17.2"/>
</g>
<!-- Node7 -->
<g id="node7" class="node">
<title>Node7</title>
<g id="a_node7"><a xlink:title=" ">
<polygon fill="none" stroke="#bfbfbf" points="23.19,-112.5 23.19,-131.5 92.19,-131.5 92.19,-112.5 23.19,-112.5"/>
<text text-anchor="middle" x="57.69" y="-119.5" font-family="Helvetica,sans-Serif" font-size="10.00">type_traits</text>
</a>
</g>
</g>
<!-- Node3&#45;&gt;Node7 -->
<g id="edge7" class="edge">
<title>Node3&#45;&gt;Node7</title>
<path fill="none" stroke="midnightblue" d="M172.14,-168.4C146.86,-158.37 113.22,-145.03 88.96,-135.4"/>
<polygon fill="midnightblue" stroke="midnightblue" points="90.1,-132.09 79.51,-131.66 87.52,-138.6 90.1,-132.09"/>
</g>
<!-- Node8 -->
<g id="node8" class="node">
<title>Node8</title>
<g id="a_node8"><a xlink:title=" ">
<polygon fill="none" stroke="#bfbfbf" points="110.19,-112.5 110.19,-131.5 155.19,-131.5 155.19,-112.5 110.19,-112.5"/>
<text text-anchor="middle" x="132.69" y="-119.5" font-family="Helvetica,sans-Serif" font-size="10.00">utility</text>
</a>
</g>
</g>
<!-- Node3&#45;&gt;Node8 -->
<g id="edge8" class="edge">
<title>Node3&#45;&gt;Node8</title>
<path fill="none" stroke="midnightblue" d="M189.91,-168.4C178.34,-159.22 163.26,-147.26 151.49,-137.92"/>
<polygon fill="midnightblue" stroke="midnightblue" points="153.61,-135.13 143.6,-131.66 149.26,-140.61 153.61,-135.13"/>
</g>
<!-- Node9 -->
<g id="node9" class="node">
<title>Node9</title>
<g id="a_node9"><a xlink:href="../../d1/d57/_ignore_unused_8h.html" target="_top" xlink:title=" ">
<polygon fill="none" stroke="black" points="297.69,-112.5 297.69,-131.5 425.69,-131.5 425.69,-112.5 297.69,-112.5"/>
<text text-anchor="middle" x="361.69" y="-119.5" font-family="Helvetica,sans-Serif" font-size="10.00">../misc/IgnoreUnused.h</text>
</a>
</g>
</g>
<!-- Node3&#45;&gt;Node9 -->
<g id="edge9" class="edge">
<title>Node3&#45;&gt;Node9</title>
<path fill="none" stroke="midnightblue" d="M244.18,-168.4C270.25,-158.33 304.98,-144.91 329.91,-135.28"/>
<polygon fill="midnightblue" stroke="midnightblue" points="331.21,-138.53 339.28,-131.66 328.69,-132 331.21,-138.53"/>
</g>
<!-- Node10 -->
<g id="node10" class="node">
<title>Node10</title>
<g id="a_node10"><a xlink:title=" ">
<polygon fill="none" stroke="#bfbfbf" points="173.69,-112.5 173.69,-131.5 241.69,-131.5 241.69,-112.5 173.69,-112.5"/>
<text text-anchor="middle" x="207.69" y="-119.5" font-family="Helvetica,sans-Serif" font-size="10.00">filesystem</text>
</a>
</g>
</g>
<!-- Node3&#45;&gt;Node10 -->
<g id="edge14" class="edge">
<title>Node3&#45;&gt;Node10</title>
<path fill="none" stroke="midnightblue" d="M207.69,-168.4C207.69,-160.47 207.69,-150.46 207.69,-141.86"/>
<polygon fill="midnightblue" stroke="midnightblue" points="211.19,-141.66 207.69,-131.66 204.19,-141.66 211.19,-141.66"/>
</g>
<!-- Node11 -->
<g id="node11" class="node">
<title>Node11</title>
<g id="a_node11"><a xlink:href="../../d0/d00/compiler__defs_8h.html" target="_top" xlink:title=" ">
<polygon fill="none" stroke="black" points="596.19,-112.5 596.19,-131.5 691.19,-131.5 691.19,-112.5 596.19,-112.5"/>
<text text-anchor="middle" x="643.69" y="-119.5" font-family="Helvetica,sans-Serif" font-size="10.00">compiler_defs.h</text>
</a>
</g>
</g>
<!-- Node3&#45;&gt;Node11 -->
<g id="edge15" class="edge">
<title>Node3&#45;&gt;Node11</title>
<path fill="none" stroke="midnightblue" d="M258.56,-175.56C340.26,-164.41 500.23,-142.58 586.05,-130.87"/>
<polygon fill="midnightblue" stroke="midnightblue" points="586.7,-134.31 596.13,-129.49 585.75,-127.37 586.7,-134.31"/>
</g>
<!-- Node5&#45;&gt;Node6 -->
<g id="edge6" class="edge">
<title>Node5&#45;&gt;Node6</title>
<path fill="none" stroke="midnightblue" d="M542.78,-56.32C527.05,-47.74 502.75,-34.49 484.48,-24.52"/>
<polygon fill="midnightblue" stroke="midnightblue" points="486.01,-21.37 475.55,-19.65 482.66,-27.52 486.01,-21.37"/>
</g>
<!-- Node9&#45;&gt;Node2 -->
<g id="edge11" class="edge">
<title>Node9&#45;&gt;Node2</title>
<path fill="none" stroke="midnightblue" d="M326.04,-112.44C287.03,-103.08 224.42,-88.06 181.97,-77.87"/>
<polygon fill="midnightblue" stroke="midnightblue" points="182.71,-74.45 172.17,-75.52 181.08,-81.25 182.71,-74.45"/>
</g>
<!-- Node9&#45;&gt;Node4 -->
<g id="edge10" class="edge">
<title>Node9&#45;&gt;Node4</title>
<path fill="none" stroke="midnightblue" d="M373.42,-112.32C384.53,-104.11 401.43,-91.6 414.67,-81.81"/>
<polygon fill="midnightblue" stroke="midnightblue" points="416.79,-84.59 422.75,-75.83 412.62,-78.97 416.79,-84.59"/>
</g>
<!-- Node9&#45;&gt;Node6 -->
<g id="edge12" class="edge">
<title>Node9&#45;&gt;Node6</title>
<path fill="none" stroke="midnightblue" d="M362.33,-112.5C363.74,-99.13 368.15,-72.99 381.69,-56 393.07,-41.73 410.29,-31.11 425.66,-23.79"/>
<polygon fill="midnightblue" stroke="midnightblue" points="427.22,-26.92 434.93,-19.65 424.37,-20.53 427.22,-26.92"/>
</g>
<!-- Node11&#45;&gt;Node5 -->
<g id="edge17" class="edge">
<title>Node11&#45;&gt;Node5</title>
<path fill="none" stroke="midnightblue" d="M630.03,-112.32C616.77,-103.9 596.42,-90.97 580.84,-81.07"/>
<polygon fill="midnightblue" stroke="midnightblue" points="582.63,-78.06 572.31,-75.65 578.87,-83.97 582.63,-78.06"/>
</g>
<!-- Node11&#45;&gt;Node6 -->
<g id="edge16" class="edge">
<title>Node11&#45;&gt;Node6</title>
<path fill="none" stroke="midnightblue" d="M644.47,-112.11C645.17,-98.22 644.35,-71.37 629.69,-56 601.56,-26.53 556.56,-15.55 519.92,-11.8"/>
<polygon fill="midnightblue" stroke="midnightblue" points="520.1,-8.3 509.83,-10.92 519.49,-15.28 520.1,-8.3"/>
</g>
<!-- Node12&#45;&gt;Node2 -->
<g id="edge20" class="edge">
<title>Node12&#45;&gt;Node2</title>
<path fill="none" stroke="midnightblue" d="M486.47,-177.14C437.46,-170.22 355.66,-156.11 288.69,-132 270.73,-125.54 268.03,-119.96 250.69,-112 224.07,-99.79 193.12,-87.7 170.19,-79.13"/>
<polygon fill="midnightblue" stroke="midnightblue" points="171.18,-75.76 160.58,-75.57 168.74,-82.33 171.18,-75.76"/>
</g>
<!-- Node12&#45;&gt;Node4 -->
<g id="edge19" class="edge">
<title>Node12&#45;&gt;Node4</title>
<path fill="none" stroke="midnightblue" d="M522.55,-173.82C506.8,-154.67 468.86,-108.54 448.37,-83.63"/>
<polygon fill="midnightblue" stroke="midnightblue" points="450.97,-81.28 441.91,-75.78 445.56,-85.73 450.97,-81.28"/>
</g>
<!-- Node12&#45;&gt;Node5 -->
<g id="edge21" class="edge">
<title>Node12&#45;&gt;Node5</title>
<path fill="none" stroke="midnightblue" d="M532.18,-173.95C535.07,-163.93 539.93,-146.81 543.69,-132 547.61,-116.55 551.65,-98.92 554.55,-85.92"/>
<polygon fill="midnightblue" stroke="midnightblue" points="558.03,-86.38 556.77,-75.86 551.2,-84.87 558.03,-86.38"/>
</g>
<!-- Node12&#45;&gt;Node11 -->
<g id="edge22" class="edge">
<title>Node12&#45;&gt;Node11</title>
<path fill="none" stroke="midnightblue" d="M546.02,-173.98C564.9,-164.12 596.19,-147.79 618.26,-136.27"/>
<polygon fill="midnightblue" stroke="midnightblue" points="620.14,-139.24 627.38,-131.51 616.9,-133.03 620.14,-139.24"/>
</g>
</g>
</svg>
        <g id="navigator" transform="translate(0 0)" fill="#404254">
                <rect fill="#f2f5e9" fill-opacity="0.5" stroke="#606060" stroke-width=".5" x="0" y="0" width="60" height="60"/>
                <use id="zoomplus" xlink:href="#zoomPlus" x="17" y="9" onmousedown="handleZoom(evt,'in')"/>
                <use id="zoomminus" xlink:href="#zoomMin" x="42" y="9" onmousedown="handleZoom(evt,'out')"/>
                <use id="reset" xlink:href="#resetDef" x="30" y="36" onmousedown="handleReset()"/>
                <g id="arrowUp" xlink:href="#dirArrow" transform="translate(30 24)" onmousedown="handlePan(0,-1)">
                  <use xlink:href="#rim" fill="#404040">
                        <set attributeName="fill" to="#808080" begin="arrowUp.mouseover" end="arrowUp.mouseout"/>
                  </use>
                  <path fill="none" stroke="white" stroke-width="1.5" d="M0,-3.0v7 M-2.5,-0.5L0,-3.0L2.5,-0.5"/>
                </g>
                <g id="arrowRight" xlink:href="#dirArrow" transform="rotate(90) translate(36 -43)" onmousedown="handlePan(1,0)">
                  <use xlink:href="#rim" fill="#404040">
                        <set attributeName="fill" to="#808080" begin="arrowRight.mouseover" end="arrowRight.mouseout"/>
                  </use>
                  <path fill="none" stroke="white" stroke-width="1.5" d="M0,-3.0v7 M-2.5,-0.5L0,-3.0L2.5,-0.5"/>
                </g>
                <g id="arrowDown" xlink:href="#dirArrow" transform="rotate(180) translate(-30 -48)" onmousedown="handlePan(0,1)">
                  <use xlink:href="#rim" fill="#404040">
                        <set attributeName="fill" to="#808080" begin="arrowDown.mouseover" end="arrowDown.mouseout"/>
                  </use>
                  <path fill="none" stroke="white" stroke-width="1.5" d="M0,-3.0v7 M-2.5,-0.5L0,-3.0L2.5,-0.5"/>
                </g>
                <g id="arrowLeft" xlink:href="#dirArrow" transform="rotate(270) translate(-36 17)" onmousedown="handlePan(-1,0)">
                  <use xlink:href="#rim" fill="#404040">
                        <set attributeName="fill" to="#808080" begin="arrowLeft.mouseover" end="arrowLeft.mouseout"/>
                  </use>
                  <path fill="none" stroke="white" stroke-width="1.5" d="M0,-3.0v7 M-2.5,-0.5L0,-3.0L2.5,-0.5"/>
                </g>
        </g>
        <svg viewBox="0 0 15 15" width="100%" height="30px" preserveAspectRatio="xMaxYMin meet">
         <g id="arrow_out" transform="scale(0.3 0.3)">
          <a xlink:href="hour__impl_8h__incl_org.svg" target="_base">
           <rect id="button" ry="5" rx="5" y="6" x="6" height="38" width="38"
                fill="#f2f5e9" fill-opacity="0.5" stroke="#606060" stroke-width="1.0"/>
           <path id="arrow"
             d="M 11.500037,31.436501 C 11.940474,20.09759 22.043105,11.32322 32.158766,21.979434 L 37.068811,17.246167 C 37.068811,17.246167 37.088388,32 37.088388,32 L 22.160133,31.978069 C 22.160133,31.978069 26.997745,27.140456 26.997745,27.140456 C 18.528582,18.264221 13.291696,25.230495 11.500037,31.436501 z"
             style="fill:#404040;"/>
          </a>
         </g>
        </svg>
</svg>
