<?xml version="1.0" encoding="UTF-8" standalone="no"?>
<!DOCTYPE svg PUBLIC "-//W3C//DTD SVG 1.1//EN"
 "http://www.w3.org/Graphics/SVG/1.1/DTD/svg11.dtd">
<!-- Generated by graphviz version 2.43.0 (0)
 -->
<!-- Title: memory::aligned_pointer&lt; T, UseExceptions &gt; Pages: 1 -->
<svg width="304pt" height="117pt"
 viewBox="0.00 0.00 304.00 117.00" xmlns="http://www.w3.org/2000/svg" xmlns:xlink="http://www.w3.org/1999/xlink">
<g id="graph0" class="graph" transform="scale(1 1) rotate(0) translate(4 113)">
<title>memory::aligned_pointer&lt; T, UseExceptions &gt;</title>
<!-- Node1 -->
<g id="node1" class="node">
<title>Node1</title>
<g id="a_node1"><a xlink:title="An RAII object that calls allocate_aligned() on construction and deallocate_aligned() on destruction.">
<polygon fill="#bfbfbf" stroke="black" points="78,-78.5 78,-108.5 217,-108.5 217,-78.5 78,-78.5"/>
<text text-anchor="start" x="86" y="-96.5" font-family="Helvetica,sans-Serif" font-size="10.00">memory::aligned_pointer</text>
<text text-anchor="middle" x="147.5" y="-85.5" font-family="Helvetica,sans-Serif" font-size="10.00">&lt; T, UseExceptions &gt;</text>
</a>
</g>
</g>
<!-- Node2 -->
<g id="node2" class="node">
<title>Node2</title>
<g id="a_node2"><a xlink:href="../../d8/dc8/classmemory_1_1aligned__pointer.html" target="_top" xlink:title=" ">
<polygon fill="none" stroke="black" points="0,-0.5 0,-30.5 139,-30.5 139,-0.5 0,-0.5"/>
<text text-anchor="start" x="8" y="-18.5" font-family="Helvetica,sans-Serif" font-size="10.00">memory::aligned_pointer</text>
<text text-anchor="middle" x="69.5" y="-7.5" font-family="Helvetica,sans-Serif" font-size="10.00">&lt; SampleType &gt;</text>
</a>
</g>
</g>
<!-- Node1&#45;&gt;Node2 -->
<g id="edge1" class="edge">
<title>Node1&#45;&gt;Node2</title>
<path fill="none" stroke="orange" stroke-dasharray="5,2" d="M125.47,-71.03C112.23,-58.13 95.74,-42.07 84.11,-30.73"/>
<polygon fill="orange" stroke="orange" points="123.22,-73.73 132.83,-78.2 128.11,-68.72 123.22,-73.73"/>
<text text-anchor="middle" x="156" y="-52" font-family="Helvetica,sans-Serif" font-size="10.00"> &lt; SampleType &gt;</text>
</g>
<!-- Node3 -->
<g id="node3" class="node">
<title>Node3</title>
<g id="a_node3"><a xlink:href="../../d8/dc8/classmemory_1_1aligned__pointer.html" target="_top" xlink:title=" ">
<polygon fill="none" stroke="black" points="157,-0.5 157,-30.5 296,-30.5 296,-0.5 157,-0.5"/>
<text text-anchor="start" x="165" y="-18.5" font-family="Helvetica,sans-Serif" font-size="10.00">memory::aligned_pointer</text>
<text text-anchor="middle" x="226.5" y="-7.5" font-family="Helvetica,sans-Serif" font-size="10.00">&lt; int &gt;</text>
</a>
</g>
</g>
<!-- Node1&#45;&gt;Node3 -->
<g id="edge2" class="edge">
<title>Node1&#45;&gt;Node3</title>
<path fill="none" stroke="orange" stroke-dasharray="5,2" d="M186.38,-73.13C192.17,-69.26 197.78,-64.87 202.5,-60 210.67,-51.58 216.93,-39.83 221.01,-30.67"/>
<polygon fill="orange" stroke="orange" points="184.49,-70.18 177.83,-78.43 188.17,-76.14 184.49,-70.18"/>
<text text-anchor="middle" x="230" y="-52" font-family="Helvetica,sans-Serif" font-size="10.00"> &lt; int &gt;</text>
</g>
</g>
</svg>
