<?xml version="1.0" encoding="UTF-8" standalone="no"?>
<!DOCTYPE svg PUBLIC "-//W3C//DTD SVG 1.1//EN"
 "http://www.w3.org/Graphics/SVG/1.1/DTD/svg11.dtd">
<!-- Generated by graphviz version 2.43.0 (0)
 -->
<!-- Title: TypeTraits.h Pages: 1 -->
<svg width="390pt" height="252pt"
 viewBox="0.00 0.00 390.09 252.00" xmlns="http://www.w3.org/2000/svg" xmlns:xlink="http://www.w3.org/1999/xlink">
<g id="graph0" class="graph" transform="scale(1 1) rotate(0) translate(4 248)">
<title>TypeTraits.h</title>
<!-- Node1 -->
<g id="node1" class="node">
<title>Node1</title>
<g id="a_node1"><a xlink:title=" ">
<polygon fill="#bfbfbf" stroke="black" points="213,-224.5 213,-243.5 287,-243.5 287,-224.5 213,-224.5"/>
<text text-anchor="middle" x="250" y="-231.5" font-family="Helvetica,sans-Serif" font-size="10.00">TypeTraits.h</text>
</a>
</g>
</g>
<!-- Node2 -->
<g id="node2" class="node">
<title>Node2</title>
<g id="a_node2"><a xlink:href="../../d5/dd4/time__utils_8h.html" target="_top" xlink:title=" ">
<polygon fill="none" stroke="black" points="9,-112.5 9,-131.5 83,-131.5 83,-112.5 9,-112.5"/>
<text text-anchor="middle" x="46" y="-119.5" font-family="Helvetica,sans-Serif" font-size="10.00">time_utils.h</text>
</a>
</g>
</g>
<!-- Node1&#45;&gt;Node2 -->
<g id="edge1" class="edge">
<title>Node1&#45;&gt;Node2</title>
<path fill="none" stroke="midnightblue" d="M202.65,-226.93C154.58,-219.84 84.54,-206.67 65,-188 49.19,-172.89 46.32,-145.43 45.94,-131.53"/>
<polygon fill="midnightblue" stroke="midnightblue" points="202.45,-230.44 212.85,-228.39 203.45,-223.51 202.45,-230.44"/>
</g>
<!-- Node9 -->
<g id="node5" class="node">
<title>Node9</title>
<g id="a_node5"><a xlink:href="../../d9/df8/limes__core_8h.html" target="_top" xlink:title=" ">
<polygon fill="none" stroke="red" points="153.5,-0.5 153.5,-19.5 232.5,-19.5 232.5,-0.5 153.5,-0.5"/>
<text text-anchor="middle" x="193" y="-7.5" font-family="Helvetica,sans-Serif" font-size="10.00">limes_core.h</text>
</a>
</g>
</g>
<!-- Node1&#45;&gt;Node9 -->
<g id="edge10" class="edge">
<title>Node1&#45;&gt;Node9</title>
<path fill="none" stroke="midnightblue" d="M297.4,-229.74C326.09,-225.03 360.59,-213.92 379,-188 384.15,-180.75 381.07,-176.64 379,-168 365.97,-113.69 364.07,-92.74 322,-56 296.9,-34.08 260.49,-22.67 232.75,-16.83"/>
<polygon fill="midnightblue" stroke="midnightblue" points="296.54,-226.33 287.14,-231.2 297.53,-233.26 296.54,-226.33"/>
</g>
<!-- Node77 -->
<g id="node7" class="node">
<title>Node77</title>
<g id="a_node7"><a xlink:href="../../d7/dfe/_type_list__impl_8h.html" target="_top" xlink:title=" ">
<polygon fill="none" stroke="black" points="278,-168.5 278,-187.5 370,-187.5 370,-168.5 278,-168.5"/>
<text text-anchor="middle" x="324" y="-175.5" font-family="Helvetica,sans-Serif" font-size="10.00">TypeList_impl.h</text>
</a>
</g>
</g>
<!-- Node1&#45;&gt;Node77 -->
<g id="edge11" class="edge">
<title>Node1&#45;&gt;Node77</title>
<path fill="none" stroke="midnightblue" d="M270.03,-218.38C283.41,-208.62 300.56,-196.11 311.89,-187.83"/>
<polygon fill="midnightblue" stroke="midnightblue" points="267.9,-215.6 261.89,-224.32 272.03,-221.26 267.9,-215.6"/>
</g>
<!-- Node78 -->
<g id="node8" class="node">
<title>Node78</title>
<g id="a_node8"><a xlink:href="../../d4/d83/_type_list_8h.html" target="_top" xlink:title=" ">
<polygon fill="none" stroke="black" points="258.5,-112.5 258.5,-131.5 323.5,-131.5 323.5,-112.5 258.5,-112.5"/>
<text text-anchor="middle" x="291" y="-119.5" font-family="Helvetica,sans-Serif" font-size="10.00">TypeList.h</text>
</a>
</g>
</g>
<!-- Node1&#45;&gt;Node78 -->
<g id="edge16" class="edge">
<title>Node1&#45;&gt;Node78</title>
<path fill="none" stroke="midnightblue" d="M254.46,-214.69C257.88,-201.51 263.03,-183.42 269,-168 274.03,-155.03 281.36,-140.69 286.16,-131.76"/>
<polygon fill="midnightblue" stroke="midnightblue" points="251.05,-213.88 252.01,-224.43 257.84,-215.59 251.05,-213.88"/>
</g>
<!-- Node80 -->
<g id="node10" class="node">
<title>Node80</title>
<g id="a_node10"><a xlink:href="../../df/dc8/_reference_counted_object_8h.html" target="_top" xlink:title=" ">
<polygon fill="none" stroke="black" points="74.5,-168.5 74.5,-187.5 221.5,-187.5 221.5,-168.5 74.5,-168.5"/>
<text text-anchor="middle" x="148" y="-175.5" font-family="Helvetica,sans-Serif" font-size="10.00">ReferenceCountedObject.h</text>
</a>
</g>
</g>
<!-- Node1&#45;&gt;Node80 -->
<g id="edge17" class="edge">
<title>Node1&#45;&gt;Node80</title>
<path fill="none" stroke="midnightblue" d="M224.67,-219.59C205.81,-209.61 180.62,-196.27 164.35,-187.65"/>
<polygon fill="midnightblue" stroke="midnightblue" points="223.14,-222.74 233.61,-224.32 226.41,-216.55 223.14,-222.74"/>
</g>
<!-- Node3 -->
<g id="node3" class="node">
<title>Node3</title>
<g id="a_node3"><a xlink:href="../../de/df7/time_8h.html" target="_top" xlink:title=" ">
<polygon fill="none" stroke="black" points="13,-56.5 13,-75.5 61,-75.5 61,-56.5 13,-56.5"/>
<text text-anchor="middle" x="37" y="-63.5" font-family="Helvetica,sans-Serif" font-size="10.00">time.h</text>
</a>
</g>
</g>
<!-- Node2&#45;&gt;Node3 -->
<g id="edge2" class="edge">
<title>Node2&#45;&gt;Node3</title>
<path fill="none" stroke="midnightblue" d="M42.85,-102.1C41.36,-93.14 39.64,-82.86 38.46,-75.75"/>
<polygon fill="midnightblue" stroke="midnightblue" points="39.42,-102.79 44.51,-112.08 46.32,-101.64 39.42,-102.79"/>
</g>
<!-- Node4 -->
<g id="node4" class="node">
<title>Node4</title>
<g id="a_node4"><a xlink:href="../../df/da8/_date_time_8h.html" target="_top" xlink:title=" ">
<polygon fill="none" stroke="red" points="0,-0.5 0,-19.5 74,-19.5 74,-0.5 0,-0.5"/>
<text text-anchor="middle" x="37" y="-7.5" font-family="Helvetica,sans-Serif" font-size="10.00">DateTime.h</text>
</a>
</g>
</g>
<!-- Node2&#45;&gt;Node4 -->
<g id="edge8" class="edge">
<title>Node2&#45;&gt;Node4</title>
<path fill="none" stroke="midnightblue" d="M25.95,-105.53C17.47,-97.71 8.51,-87.45 4,-76 -4.26,-55.04 14.92,-31.8 27.38,-19.59"/>
<polygon fill="midnightblue" stroke="midnightblue" points="23.91,-108.39 33.79,-112.24 28.47,-103.07 23.91,-108.39"/>
</g>
<!-- Node2&#45;&gt;Node9 -->
<g id="edge9" class="edge">
<title>Node2&#45;&gt;Node9</title>
<path fill="none" stroke="midnightblue" d="M77.92,-108.36C95.68,-100.5 117.62,-89.35 135,-76 157.07,-59.04 177.38,-32.88 187.05,-19.51"/>
<polygon fill="midnightblue" stroke="midnightblue" points="76.36,-105.22 68.55,-112.38 79.12,-111.66 76.36,-105.22"/>
</g>
<!-- Node76 -->
<g id="node6" class="node">
<title>Node76</title>
<g id="a_node6"><a xlink:href="../../db/d96/date_8h.html" target="_top" xlink:title=" ">
<polygon fill="none" stroke="black" points="79.5,-56.5 79.5,-75.5 126.5,-75.5 126.5,-56.5 79.5,-56.5"/>
<text text-anchor="middle" x="103" y="-63.5" font-family="Helvetica,sans-Serif" font-size="10.00">date.h</text>
</a>
</g>
</g>
<!-- Node2&#45;&gt;Node76 -->
<g id="edge5" class="edge">
<title>Node2&#45;&gt;Node76</title>
<path fill="none" stroke="midnightblue" d="M62.62,-105.25C72.73,-95.67 85.28,-83.79 93.68,-75.83"/>
<polygon fill="midnightblue" stroke="midnightblue" points="60.01,-102.91 55.16,-112.32 64.82,-107.99 60.01,-102.91"/>
</g>
<!-- Node3&#45;&gt;Node4 -->
<g id="edge3" class="edge">
<title>Node3&#45;&gt;Node4</title>
<path fill="none" stroke="midnightblue" d="M37,-45.8C37,-36.91 37,-26.78 37,-19.75"/>
<polygon fill="midnightblue" stroke="midnightblue" points="33.5,-46.08 37,-56.08 40.5,-46.08 33.5,-46.08"/>
</g>
<!-- Node3&#45;&gt;Node9 -->
<g id="edge4" class="edge">
<title>Node3&#45;&gt;Node9</title>
<path fill="none" stroke="midnightblue" d="M70.87,-53.28C100.27,-43.1 142.14,-28.61 168.42,-19.51"/>
<polygon fill="midnightblue" stroke="midnightblue" points="69.34,-50.1 61.03,-56.68 71.63,-56.72 69.34,-50.1"/>
</g>
<!-- Node76&#45;&gt;Node4 -->
<g id="edge6" class="edge">
<title>Node76&#45;&gt;Node4</title>
<path fill="none" stroke="midnightblue" d="M84.45,-49.82C72.62,-40.15 57.71,-27.95 47.8,-19.83"/>
<polygon fill="midnightblue" stroke="midnightblue" points="82.44,-52.7 92.4,-56.32 86.87,-47.28 82.44,-52.7"/>
</g>
<!-- Node76&#45;&gt;Node9 -->
<g id="edge7" class="edge">
<title>Node76&#45;&gt;Node9</title>
<path fill="none" stroke="midnightblue" d="M126.04,-51.18C142.6,-41.24 164.42,-28.15 178.58,-19.65"/>
<polygon fill="midnightblue" stroke="midnightblue" points="124.23,-48.18 117.46,-56.32 127.84,-54.18 124.23,-48.18"/>
</g>
<!-- Node77&#45;&gt;Node78 -->
<g id="edge12" class="edge">
<title>Node77&#45;&gt;Node78</title>
<path fill="none" stroke="midnightblue" d="M313.17,-159.27C307.53,-150.05 300.88,-139.17 296.35,-131.75"/>
<polygon fill="midnightblue" stroke="midnightblue" points="310.35,-161.38 318.55,-168.08 316.32,-157.73 310.35,-161.38"/>
</g>
<!-- Node78&#45;&gt;Node9 -->
<g id="edge13" class="edge">
<title>Node78&#45;&gt;Node9</title>
<path fill="none" stroke="midnightblue" d="M302.12,-103.19C309.24,-89.29 315.52,-70.04 306,-56 289.7,-31.97 258.31,-20.77 232.75,-15.55"/>
<polygon fill="midnightblue" stroke="midnightblue" points="298.89,-101.79 297,-112.22 304.98,-105.25 298.89,-101.79"/>
</g>
<!-- Node79 -->
<g id="node9" class="node">
<title>Node79</title>
<g id="a_node9"><a xlink:href="../../da/d17/serializing_8h.html" target="_top" xlink:title=" ">
<polygon fill="none" stroke="black" points="221,-56.5 221,-75.5 297,-75.5 297,-56.5 221,-56.5"/>
<text text-anchor="middle" x="259" y="-63.5" font-family="Helvetica,sans-Serif" font-size="10.00">serializing.h</text>
</a>
</g>
</g>
<!-- Node78&#45;&gt;Node79 -->
<g id="edge14" class="edge">
<title>Node78&#45;&gt;Node79</title>
<path fill="none" stroke="midnightblue" d="M280.5,-103.27C275.03,-94.05 268.58,-83.17 264.19,-75.75"/>
<polygon fill="midnightblue" stroke="midnightblue" points="277.61,-105.26 285.72,-112.08 283.63,-101.7 277.61,-105.26"/>
</g>
<!-- Node79&#45;&gt;Node9 -->
<g id="edge15" class="edge">
<title>Node79&#45;&gt;Node9</title>
<path fill="none" stroke="midnightblue" d="M240.45,-49.82C228.62,-40.15 213.71,-27.95 203.8,-19.83"/>
<polygon fill="midnightblue" stroke="midnightblue" points="238.44,-52.7 248.4,-56.32 242.87,-47.28 238.44,-52.7"/>
</g>
<!-- Node80&#45;&gt;Node9 -->
<g id="edge18" class="edge">
<title>Node80&#45;&gt;Node9</title>
<path fill="none" stroke="midnightblue" d="M153.04,-158.39C162.75,-122.59 183.69,-45.34 190.68,-19.57"/>
<polygon fill="midnightblue" stroke="midnightblue" points="149.66,-157.51 150.42,-168.08 156.41,-159.34 149.66,-157.51"/>
</g>
</g>
</svg>
