<?xml version="1.0" encoding="UTF-8" standalone="no"?>
<!DOCTYPE svg PUBLIC "-//W3C//DTD SVG 1.1//EN"
 "http://www.w3.org/Graphics/SVG/1.1/DTD/svg11.dtd">
<!-- Generated by graphviz version 2.43.0 (0)
 -->
<!-- Title: TypeTraits.h Pages: 1 -->
<svg width="525pt" height="196pt"
 viewBox="0.00 0.00 524.56 196.00" xmlns="http://www.w3.org/2000/svg" xmlns:xlink="http://www.w3.org/1999/xlink">
<g id="graph0" class="graph" transform="scale(1 1) rotate(0) translate(4 192)">
<title>TypeTraits.h</title>
<!-- Node1 -->
<g id="node1" class="node">
<title>Node1</title>
<g id="a_node1"><a xlink:title=" ">
<polygon fill="#bfbfbf" stroke="black" points="230.06,-168.5 230.06,-187.5 304.06,-187.5 304.06,-168.5 230.06,-168.5"/>
<text text-anchor="middle" x="267.06" y="-175.5" font-family="Helvetica,sans-Serif" font-size="10.00">TypeTraits.h</text>
</a>
</g>
</g>
<!-- Node2 -->
<g id="node2" class="node">
<title>Node2</title>
<g id="a_node2"><a xlink:href="../../d5/dd4/time__utils_8h.html" target="_top" xlink:title=" ">
<polygon fill="none" stroke="black" points="66.06,-112.5 66.06,-131.5 140.06,-131.5 140.06,-112.5 66.06,-112.5"/>
<text text-anchor="middle" x="103.06" y="-119.5" font-family="Helvetica,sans-Serif" font-size="10.00">time_utils.h</text>
</a>
</g>
</g>
<!-- Node1&#45;&gt;Node2 -->
<g id="edge1" class="edge">
<title>Node1&#45;&gt;Node2</title>
<path fill="none" stroke="midnightblue" d="M231.54,-165.3C200.64,-155.13 156.59,-140.62 128.93,-131.52"/>
<polygon fill="midnightblue" stroke="midnightblue" points="230.48,-168.64 241.08,-168.44 232.67,-161.99 230.48,-168.64"/>
</g>
<!-- Node9 -->
<g id="node5" class="node">
<title>Node9</title>
<g id="a_node5"><a xlink:href="../../d9/df8/limes__core_8h.html" target="_top" xlink:title=" ">
<polygon fill="none" stroke="red" points="134.56,-0.5 134.56,-19.5 213.56,-19.5 213.56,-0.5 134.56,-0.5"/>
<text text-anchor="middle" x="174.06" y="-7.5" font-family="Helvetica,sans-Serif" font-size="10.00">limes_core.h</text>
</a>
</g>
</g>
<!-- Node1&#45;&gt;Node9 -->
<g id="edge10" class="edge">
<title>Node1&#45;&gt;Node9</title>
<path fill="none" stroke="midnightblue" d="M243.99,-162.76C232.95,-154.91 220.35,-144.26 212.06,-132 187.02,-94.98 177.8,-40.58 175.05,-19.65"/>
<polygon fill="midnightblue" stroke="midnightblue" points="242.16,-165.75 252.41,-168.44 246.08,-159.95 242.16,-165.75"/>
</g>
<!-- Node78 -->
<g id="node7" class="node">
<title>Node78</title>
<g id="a_node7"><a xlink:href="../../d7/dfe/_type_list__impl_8h.html" target="_top" xlink:title=" ">
<polygon fill="none" stroke="black" points="221.06,-112.5 221.06,-131.5 313.06,-131.5 313.06,-112.5 221.06,-112.5"/>
<text text-anchor="middle" x="267.06" y="-119.5" font-family="Helvetica,sans-Serif" font-size="10.00">TypeList_impl.h</text>
</a>
</g>
</g>
<!-- Node1&#45;&gt;Node78 -->
<g id="edge11" class="edge">
<title>Node1&#45;&gt;Node78</title>
<path fill="none" stroke="midnightblue" d="M267.06,-157.8C267.06,-148.91 267.06,-138.78 267.06,-131.75"/>
<polygon fill="midnightblue" stroke="midnightblue" points="263.56,-158.08 267.06,-168.08 270.56,-158.08 263.56,-158.08"/>
</g>
<!-- Node79 -->
<g id="node8" class="node">
<title>Node79</title>
<g id="a_node8"><a xlink:href="../../d4/d83/_type_list_8h.html" target="_top" xlink:title=" ">
<polygon fill="none" stroke="black" points="234.56,-56.5 234.56,-75.5 299.56,-75.5 299.56,-56.5 234.56,-56.5"/>
<text text-anchor="middle" x="267.06" y="-63.5" font-family="Helvetica,sans-Serif" font-size="10.00">TypeList.h</text>
</a>
</g>
</g>
<!-- Node1&#45;&gt;Node79 -->
<g id="edge14" class="edge">
<title>Node1&#45;&gt;Node79</title>
<path fill="none" stroke="midnightblue" d="M292.35,-163.15C310.99,-150.96 331.57,-132.07 322.06,-112 314.3,-95.61 297.31,-83.21 284.26,-75.61"/>
<polygon fill="midnightblue" stroke="midnightblue" points="290.46,-160.21 283.77,-168.42 294.12,-166.17 290.46,-160.21"/>
</g>
<!-- Node80 -->
<g id="node9" class="node">
<title>Node80</title>
<g id="a_node9"><a xlink:href="../../df/dc8/_reference_counted_object_8h.html" target="_top" xlink:title=" ">
<polygon fill="none" stroke="black" points="369.56,-112.5 369.56,-131.5 516.56,-131.5 516.56,-112.5 369.56,-112.5"/>
<text text-anchor="middle" x="443.06" y="-119.5" font-family="Helvetica,sans-Serif" font-size="10.00">ReferenceCountedObject.h</text>
</a>
</g>
</g>
<!-- Node1&#45;&gt;Node80 -->
<g id="edge15" class="edge">
<title>Node1&#45;&gt;Node80</title>
<path fill="none" stroke="midnightblue" d="M304.75,-165.44C337.94,-155.26 385.49,-140.66 415.31,-131.52"/>
<polygon fill="midnightblue" stroke="midnightblue" points="303.48,-162.16 294.95,-168.44 305.54,-168.86 303.48,-162.16"/>
</g>
<!-- Node3 -->
<g id="node3" class="node">
<title>Node3</title>
<g id="a_node3"><a xlink:href="../../de/df7/time_8h.html" target="_top" xlink:title=" ">
<polygon fill="none" stroke="black" points="79.06,-56.5 79.06,-75.5 127.06,-75.5 127.06,-56.5 79.06,-56.5"/>
<text text-anchor="middle" x="103.06" y="-63.5" font-family="Helvetica,sans-Serif" font-size="10.00">time.h</text>
</a>
</g>
</g>
<!-- Node2&#45;&gt;Node3 -->
<g id="edge2" class="edge">
<title>Node2&#45;&gt;Node3</title>
<path fill="none" stroke="midnightblue" d="M103.06,-101.8C103.06,-92.91 103.06,-82.78 103.06,-75.75"/>
<polygon fill="midnightblue" stroke="midnightblue" points="99.56,-102.08 103.06,-112.08 106.56,-102.08 99.56,-102.08"/>
</g>
<!-- Node4 -->
<g id="node4" class="node">
<title>Node4</title>
<g id="a_node4"><a xlink:href="../../df/da8/_date_time_8h.html" target="_top" xlink:title=" ">
<polygon fill="none" stroke="red" points="0.06,-0.5 0.06,-19.5 74.06,-19.5 74.06,-0.5 0.06,-0.5"/>
<text text-anchor="middle" x="37.06" y="-7.5" font-family="Helvetica,sans-Serif" font-size="10.00">DateTime.h</text>
</a>
</g>
</g>
<!-- Node2&#45;&gt;Node4 -->
<g id="edge8" class="edge">
<title>Node2&#45;&gt;Node4</title>
<path fill="none" stroke="midnightblue" d="M56.11,-111.49C36.54,-104.96 15.69,-94.06 4.06,-76 -8.27,-56.85 13.05,-32.49 26.8,-19.72"/>
<polygon fill="midnightblue" stroke="midnightblue" points="55.29,-114.9 65.88,-114.44 57.32,-108.2 55.29,-114.9"/>
</g>
<!-- Node2&#45;&gt;Node9 -->
<g id="edge9" class="edge">
<title>Node2&#45;&gt;Node9</title>
<path fill="none" stroke="midnightblue" d="M116.1,-104.09C122.35,-95.78 129.82,-85.52 136.06,-76 148.97,-56.33 162.52,-32.19 169.42,-19.58"/>
<polygon fill="midnightblue" stroke="midnightblue" points="113.18,-102.15 109.92,-112.23 118.76,-106.39 113.18,-102.15"/>
</g>
<!-- Node77 -->
<g id="node6" class="node">
<title>Node77</title>
<g id="a_node6"><a xlink:href="../../db/d96/date_8h.html" target="_top" xlink:title=" ">
<polygon fill="none" stroke="black" points="13.56,-56.5 13.56,-75.5 60.56,-75.5 60.56,-56.5 13.56,-56.5"/>
<text text-anchor="middle" x="37.06" y="-63.5" font-family="Helvetica,sans-Serif" font-size="10.00">date.h</text>
</a>
</g>
</g>
<!-- Node2&#45;&gt;Node77 -->
<g id="edge5" class="edge">
<title>Node2&#45;&gt;Node77</title>
<path fill="none" stroke="midnightblue" d="M84.51,-105.82C72.68,-96.15 57.78,-83.95 47.86,-75.83"/>
<polygon fill="midnightblue" stroke="midnightblue" points="82.5,-108.7 92.46,-112.32 86.94,-103.28 82.5,-108.7"/>
</g>
<!-- Node3&#45;&gt;Node4 -->
<g id="edge3" class="edge">
<title>Node3&#45;&gt;Node4</title>
<path fill="none" stroke="midnightblue" d="M84.51,-49.82C72.68,-40.15 57.78,-27.95 47.86,-19.83"/>
<polygon fill="midnightblue" stroke="midnightblue" points="82.5,-52.7 92.46,-56.32 86.94,-47.28 82.5,-52.7"/>
</g>
<!-- Node3&#45;&gt;Node9 -->
<g id="edge4" class="edge">
<title>Node3&#45;&gt;Node9</title>
<path fill="none" stroke="midnightblue" d="M122.65,-50.1C135.43,-40.38 151.68,-28.03 162.45,-19.83"/>
<polygon fill="midnightblue" stroke="midnightblue" points="120.31,-47.48 114.47,-56.32 124.55,-53.06 120.31,-47.48"/>
</g>
<!-- Node77&#45;&gt;Node4 -->
<g id="edge6" class="edge">
<title>Node77&#45;&gt;Node4</title>
<path fill="none" stroke="midnightblue" d="M37.06,-45.8C37.06,-36.91 37.06,-26.78 37.06,-19.75"/>
<polygon fill="midnightblue" stroke="midnightblue" points="33.56,-46.08 37.06,-56.08 40.56,-46.08 33.56,-46.08"/>
</g>
<!-- Node77&#45;&gt;Node9 -->
<g id="edge7" class="edge">
<title>Node77&#45;&gt;Node9</title>
<path fill="none" stroke="midnightblue" d="M68.09,-52.77C93.82,-42.63 129.75,-28.47 152.46,-19.52"/>
<polygon fill="midnightblue" stroke="midnightblue" points="66.79,-49.52 58.77,-56.44 69.36,-56.03 66.79,-49.52"/>
</g>
<!-- Node78&#45;&gt;Node79 -->
<g id="edge12" class="edge">
<title>Node78&#45;&gt;Node79</title>
<path fill="none" stroke="midnightblue" d="M267.06,-101.8C267.06,-92.91 267.06,-82.78 267.06,-75.75"/>
<polygon fill="midnightblue" stroke="midnightblue" points="263.56,-102.08 267.06,-112.08 270.56,-102.08 263.56,-102.08"/>
</g>
<!-- Node79&#45;&gt;Node9 -->
<g id="edge13" class="edge">
<title>Node79&#45;&gt;Node9</title>
<path fill="none" stroke="midnightblue" d="M243.26,-51.18C226.14,-41.24 203.6,-28.15 188.97,-19.65"/>
<polygon fill="midnightblue" stroke="midnightblue" points="241.72,-54.33 252.12,-56.32 245.23,-48.28 241.72,-54.33"/>
</g>
<!-- Node80&#45;&gt;Node9 -->
<g id="edge16" class="edge">
<title>Node80&#45;&gt;Node9</title>
<path fill="none" stroke="midnightblue" d="M417.87,-107.56C391.26,-93.66 347.88,-71.81 309.06,-56 273.25,-41.42 230.77,-27.85 203.16,-19.5"/>
<polygon fill="midnightblue" stroke="midnightblue" points="416.39,-110.74 426.87,-112.29 419.65,-104.54 416.39,-110.74"/>
</g>
</g>
</svg>
