<?xml version="1.0" encoding="UTF-8" standalone="no"?>
<!DOCTYPE svg PUBLIC "-//W3C//DTD SVG 1.1//EN"
 "http://www.w3.org/Graphics/SVG/1.1/DTD/svg11.dtd">
<!-- Generated by graphviz version 2.43.0 (0)
 -->
<!-- Title: limes::threads::detail::is_rt_safe&lt; std::set&lt; T &gt;, move_tag, Tag &gt; Pages: 1 -->
<svg width="247pt" height="275pt"
 viewBox="0.00 0.00 246.50 275.00" xmlns="http://www.w3.org/2000/svg" xmlns:xlink="http://www.w3.org/1999/xlink">
<g id="graph0" class="graph" transform="scale(1 1) rotate(0) translate(4 271)">
<title>limes::threads::detail::is_rt_safe&lt; std::set&lt; T &gt;, move_tag, Tag &gt;</title>
<!-- Node1 -->
<g id="node1" class="node">
<title>Node1</title>
<g id="a_node1"><a xlink:title="Specialization of the is_rt_safe class template for move operations within a std::set .">
<polygon fill="#bfbfbf" stroke="black" points="15.5,-0.5 15.5,-41.5 149.5,-41.5 149.5,-0.5 15.5,-0.5"/>
<text text-anchor="start" x="23.5" y="-29.5" font-family="Helvetica,sans-Serif" font-size="10.00">limes::threads::detail</text>
<text text-anchor="start" x="23.5" y="-18.5" font-family="Helvetica,sans-Serif" font-size="10.00">::is_rt_safe&lt; std::set</text>
<text text-anchor="middle" x="82.5" y="-7.5" font-family="Helvetica,sans-Serif" font-size="10.00">&lt; T &gt;, move_tag, Tag &gt;</text>
</a>
</g>
</g>
<!-- Node2 -->
<g id="node2" class="node">
<title>Node2</title>
<g id="a_node2"><a xlink:href="../../d8/d3f/structlimes_1_1threads_1_1detail_1_1is__rt__safe.html" target="_top" xlink:title=" ">
<polygon fill="none" stroke="black" points="22,-79.5 22,-120.5 143,-120.5 143,-79.5 22,-79.5"/>
<text text-anchor="start" x="30" y="-108.5" font-family="Helvetica,sans-Serif" font-size="10.00">limes::threads::detail</text>
<text text-anchor="start" x="30" y="-97.5" font-family="Helvetica,sans-Serif" font-size="10.00">::is_rt_safe&lt; T, move</text>
<text text-anchor="middle" x="82.5" y="-86.5" font-family="Helvetica,sans-Serif" font-size="10.00">_tag, Tag &gt;</text>
</a>
</g>
</g>
<!-- Node2&#45;&gt;Node1 -->
<g id="edge1" class="edge">
<title>Node2&#45;&gt;Node1</title>
<path fill="none" stroke="midnightblue" d="M82.5,-68.91C82.5,-59.79 82.5,-50.02 82.5,-41.76"/>
<polygon fill="midnightblue" stroke="midnightblue" points="79,-69.17 82.5,-79.17 86,-69.17 79,-69.17"/>
</g>
<!-- Node3 -->
<g id="node3" class="node">
<title>Node3</title>
<g id="a_node3"><a xlink:title=" ">
<polygon fill="none" stroke="#bfbfbf" points="0,-179.5 0,-198.5 89,-198.5 89,-179.5 0,-179.5"/>
<text text-anchor="middle" x="44.5" y="-186.5" font-family="Helvetica,sans-Serif" font-size="10.00">std::false_type</text>
</a>
</g>
</g>
<!-- Node3&#45;&gt;Node2 -->
<g id="edge2" class="edge">
<title>Node3&#45;&gt;Node2</title>
<path fill="none" stroke="midnightblue" d="M52.34,-170.04C58.63,-155.66 67.43,-135.5 73.9,-120.68"/>
<polygon fill="midnightblue" stroke="midnightblue" points="49.08,-168.78 48.28,-179.34 55.49,-171.58 49.08,-168.78"/>
</g>
<!-- Node4 -->
<g id="node4" class="node">
<title>Node4</title>
<g id="a_node4"><a xlink:href="../../d8/d3f/structlimes_1_1threads_1_1detail_1_1is__rt__safe.html" target="_top" xlink:title="Represents a query for realtime safety of the operation represented by Tag1 and Tag2 on the type T .">
<polygon fill="none" stroke="black" points="106.5,-168.5 106.5,-209.5 226.5,-209.5 226.5,-168.5 106.5,-168.5"/>
<text text-anchor="start" x="114.5" y="-197.5" font-family="Helvetica,sans-Serif" font-size="10.00">limes::threads::detail</text>
<text text-anchor="start" x="114.5" y="-186.5" font-family="Helvetica,sans-Serif" font-size="10.00">::is_rt_safe&lt; T, Tag1,</text>
<text text-anchor="middle" x="166.5" y="-175.5" font-family="Helvetica,sans-Serif" font-size="10.00"> Tag2 &gt;</text>
</a>
</g>
</g>
<!-- Node4&#45;&gt;Node2 -->
<g id="edge3" class="edge">
<title>Node4&#45;&gt;Node2</title>
<path fill="none" stroke="orange" stroke-dasharray="5,2" d="M140.33,-160.9C127.76,-147.87 112.96,-132.55 101.49,-120.66"/>
<polygon fill="orange" stroke="orange" points="137.98,-163.5 147.44,-168.26 143.01,-158.63 137.98,-163.5"/>
<text text-anchor="middle" x="184" y="-142" font-family="Helvetica,sans-Serif" font-size="10.00"> &lt; T, move_tag, Tag &gt;</text>
</g>
<!-- Node5 -->
<g id="node5" class="node">
<title>Node5</title>
<g id="a_node5"><a xlink:title=" ">
<polygon fill="none" stroke="#bfbfbf" points="132.5,-247.5 132.5,-266.5 200.5,-266.5 200.5,-247.5 132.5,-247.5"/>
<text text-anchor="middle" x="166.5" y="-254.5" font-family="Helvetica,sans-Serif" font-size="10.00">false_type</text>
</a>
</g>
</g>
<!-- Node5&#45;&gt;Node4 -->
<g id="edge4" class="edge">
<title>Node5&#45;&gt;Node4</title>
<path fill="none" stroke="midnightblue" d="M166.5,-237.25C166.5,-228.65 166.5,-218.45 166.5,-209.74"/>
<polygon fill="midnightblue" stroke="midnightblue" points="163,-237.37 166.5,-247.37 170,-237.37 163,-237.37"/>
</g>
</g>
</svg>
