<?xml version="1.0" encoding="UTF-8" standalone="no"?>
<!DOCTYPE svg PUBLIC "-//W3C//DTD SVG 1.1//EN"
 "http://www.w3.org/Graphics/SVG/1.1/DTD/svg11.dtd">
<!-- Generated by graphviz version 2.43.0 (0)
 -->
<!-- Title: time.h Pages: 1 -->
<svg width="288pt" height="364pt"
 viewBox="0.00 0.00 288.00 364.00" xmlns="http://www.w3.org/2000/svg" xmlns:xlink="http://www.w3.org/1999/xlink">
<g id="graph0" class="graph" transform="scale(1 1) rotate(0) translate(4 360)">
<title>time.h</title>
<!-- Node1 -->
<g id="node1" class="node">
<title>Node1</title>
<g id="a_node1"><a xlink:title=" ">
<polygon fill="#bfbfbf" stroke="black" points="8,-336.5 8,-355.5 56,-355.5 56,-336.5 8,-336.5"/>
<text text-anchor="middle" x="32" y="-343.5" font-family="Helvetica,sans-Serif" font-size="10.00">time.h</text>
</a>
</g>
</g>
<!-- Node2 -->
<g id="node2" class="node">
<title>Node2</title>
<g id="a_node2"><a xlink:href="../../df/da8/_date_time_8h.html" target="_top" xlink:title=" ">
<polygon fill="none" stroke="black" points="41,-280.5 41,-299.5 115,-299.5 115,-280.5 41,-280.5"/>
<text text-anchor="middle" x="78" y="-287.5" font-family="Helvetica,sans-Serif" font-size="10.00">DateTime.h</text>
</a>
</g>
</g>
<!-- Node1&#45;&gt;Node2 -->
<g id="edge1" class="edge">
<title>Node1&#45;&gt;Node2</title>
<path fill="none" stroke="midnightblue" d="M46.11,-328.43C54.18,-318.97 63.96,-307.48 70.55,-299.75"/>
<polygon fill="midnightblue" stroke="midnightblue" points="43.42,-326.2 39.6,-336.08 48.75,-330.74 43.42,-326.2"/>
</g>
<!-- Node7 -->
<g id="node7" class="node">
<title>Node7</title>
<g id="a_node7"><a xlink:href="../../d9/df8/limes__core_8h.html" target="_top" xlink:title=" ">
<polygon fill="none" stroke="red" points="61.5,-0.5 61.5,-19.5 140.5,-19.5 140.5,-0.5 61.5,-0.5"/>
<text text-anchor="middle" x="101" y="-7.5" font-family="Helvetica,sans-Serif" font-size="10.00">limes_core.h</text>
</a>
</g>
</g>
<!-- Node1&#45;&gt;Node7 -->
<g id="edge15" class="edge">
<title>Node1&#45;&gt;Node7</title>
<path fill="none" stroke="midnightblue" d="M23.47,-327.28C13.99,-305.92 0,-268.67 0,-235 0,-235 0,-235 0,-121 0,-72 55.05,-35.39 83.87,-19.59"/>
<polygon fill="midnightblue" stroke="midnightblue" points="20.32,-328.79 27.68,-336.41 26.67,-325.86 20.32,-328.79"/>
</g>
<!-- Node3 -->
<g id="node3" class="node">
<title>Node3</title>
<g id="a_node3"><a xlink:href="../../d2/d83/_filesystem_entry_8h.html" target="_top" xlink:title=" ">
<polygon fill="none" stroke="black" points="65.5,-224.5 65.5,-243.5 168.5,-243.5 168.5,-224.5 65.5,-224.5"/>
<text text-anchor="middle" x="117" y="-231.5" font-family="Helvetica,sans-Serif" font-size="10.00">FilesystemEntry.h</text>
</a>
</g>
</g>
<!-- Node2&#45;&gt;Node3 -->
<g id="edge2" class="edge">
<title>Node2&#45;&gt;Node3</title>
<path fill="none" stroke="midnightblue" d="M90.38,-271.86C97.14,-262.5 105.21,-251.33 110.68,-243.75"/>
<polygon fill="midnightblue" stroke="midnightblue" points="87.46,-269.93 84.44,-280.08 93.13,-274.03 87.46,-269.93"/>
</g>
<!-- Node4 -->
<g id="node4" class="node">
<title>Node4</title>
<g id="a_node4"><a xlink:href="../../d9/d78/_c_file_8h.html" target="_top" xlink:title=" ">
<polygon fill="none" stroke="black" points="66,-168.5 66,-187.5 116,-187.5 116,-168.5 66,-168.5"/>
<text text-anchor="middle" x="91" y="-175.5" font-family="Helvetica,sans-Serif" font-size="10.00">CFile.h</text>
</a>
</g>
</g>
<!-- Node3&#45;&gt;Node4 -->
<g id="edge3" class="edge">
<title>Node3&#45;&gt;Node4</title>
<path fill="none" stroke="midnightblue" d="M108.33,-214.98C103.91,-205.82 98.75,-195.09 95.21,-187.75"/>
<polygon fill="midnightblue" stroke="midnightblue" points="105.21,-216.59 112.71,-224.08 111.52,-213.55 105.21,-216.59"/>
</g>
<!-- Node5 -->
<g id="node5" class="node">
<title>Node5</title>
<g id="a_node5"><a xlink:href="../../d2/d4d/file_8h.html" target="_top" xlink:title=" ">
<polygon fill="none" stroke="red" points="111.5,-112.5 111.5,-131.5 152.5,-131.5 152.5,-112.5 111.5,-112.5"/>
<text text-anchor="middle" x="132" y="-119.5" font-family="Helvetica,sans-Serif" font-size="10.00">file.h</text>
</a>
</g>
</g>
<!-- Node3&#45;&gt;Node5 -->
<g id="edge10" class="edge">
<title>Node3&#45;&gt;Node5</title>
<path fill="none" stroke="midnightblue" d="M120.58,-214.52C122.08,-206.4 123.75,-196.75 125,-188 127.85,-168 130.12,-144.39 131.24,-131.86"/>
<polygon fill="midnightblue" stroke="midnightblue" points="117.13,-213.92 118.71,-224.4 124.01,-215.23 117.13,-213.92"/>
</g>
<!-- Node6 -->
<g id="node6" class="node">
<title>Node6</title>
<g id="a_node6"><a xlink:href="../../d9/d0f/directory_8h.html" target="_top" xlink:title=" ">
<polygon fill="none" stroke="black" points="148,-56.5 148,-75.5 216,-75.5 216,-56.5 148,-56.5"/>
<text text-anchor="middle" x="182" y="-63.5" font-family="Helvetica,sans-Serif" font-size="10.00">directory.h</text>
</a>
</g>
</g>
<!-- Node3&#45;&gt;Node6 -->
<g id="edge9" class="edge">
<title>Node3&#45;&gt;Node6</title>
<path fill="none" stroke="midnightblue" d="M127.22,-215.29C131.73,-207.12 136.93,-197.21 141,-188 159.04,-147.23 174.03,-95.89 179.63,-75.71"/>
<polygon fill="midnightblue" stroke="midnightblue" points="124.04,-213.8 122.18,-224.23 130.14,-217.24 124.04,-213.8"/>
</g>
<!-- Node3&#45;&gt;Node7 -->
<g id="edge14" class="edge">
<title>Node3&#45;&gt;Node7</title>
<path fill="none" stroke="midnightblue" d="M88.71,-219.38C76.61,-211.93 63.73,-201.46 57,-188 26.98,-127.96 76.86,-45.98 94.89,-19.57"/>
<polygon fill="midnightblue" stroke="midnightblue" points="87.28,-222.59 97.7,-224.48 90.73,-216.5 87.28,-222.59"/>
</g>
<!-- Node73 -->
<g id="node8" class="node">
<title>Node73</title>
<g id="a_node8"><a xlink:href="../../d8/d06/sym__link_8h.html" target="_top" xlink:title=" ">
<polygon fill="none" stroke="black" points="210,-112.5 210,-131.5 280,-131.5 280,-112.5 210,-112.5"/>
<text text-anchor="middle" x="245" y="-119.5" font-family="Helvetica,sans-Serif" font-size="10.00">sym_link.h</text>
</a>
</g>
</g>
<!-- Node3&#45;&gt;Node73 -->
<g id="edge11" class="edge">
<title>Node3&#45;&gt;Node73</title>
<path fill="none" stroke="midnightblue" d="M146.23,-219.95C161.99,-212.07 181.18,-201.03 196,-188 215.31,-171.02 231.93,-145.33 239.93,-131.9"/>
<polygon fill="midnightblue" stroke="midnightblue" points="144.42,-216.94 136.94,-224.44 147.46,-223.25 144.42,-216.94"/>
</g>
<!-- Node4&#45;&gt;Node5 -->
<g id="edge4" class="edge">
<title>Node4&#45;&gt;Node5</title>
<path fill="none" stroke="midnightblue" d="M104.02,-159.86C111.12,-150.5 119.6,-139.33 125.36,-131.75"/>
<polygon fill="midnightblue" stroke="midnightblue" points="101.03,-158 97.77,-168.08 106.61,-162.24 101.03,-158"/>
</g>
<!-- Node4&#45;&gt;Node7 -->
<g id="edge8" class="edge">
<title>Node4&#45;&gt;Node7</title>
<path fill="none" stroke="midnightblue" d="M92.15,-157.93C94.32,-121.92 98.94,-45.23 100.48,-19.57"/>
<polygon fill="midnightblue" stroke="midnightblue" points="88.65,-157.88 91.54,-168.08 95.63,-158.3 88.65,-157.88"/>
</g>
<!-- Node5&#45;&gt;Node6 -->
<g id="edge5" class="edge">
<title>Node5&#45;&gt;Node6</title>
<path fill="none" stroke="midnightblue" d="M147.08,-104.72C155.89,-95.2 166.67,-83.56 173.9,-75.75"/>
<polygon fill="midnightblue" stroke="midnightblue" points="144.48,-102.37 140.26,-112.08 149.62,-107.12 144.48,-102.37"/>
</g>
<!-- Node5&#45;&gt;Node7 -->
<g id="edge7" class="edge">
<title>Node5&#45;&gt;Node7</title>
<path fill="none" stroke="midnightblue" d="M126.84,-102.67C120.06,-78.62 108.44,-37.39 103.42,-19.59"/>
<polygon fill="midnightblue" stroke="midnightblue" points="123.49,-103.69 129.57,-112.37 130.22,-101.79 123.49,-103.69"/>
</g>
<!-- Node6&#45;&gt;Node7 -->
<g id="edge6" class="edge">
<title>Node6&#45;&gt;Node7</title>
<path fill="none" stroke="midnightblue" d="M160.43,-50.62C145.64,-40.76 126.49,-27.99 113.98,-19.65"/>
<polygon fill="midnightblue" stroke="midnightblue" points="158.72,-53.69 168.99,-56.32 162.61,-47.86 158.72,-53.69"/>
</g>
<!-- Node73&#45;&gt;Node6 -->
<g id="edge12" class="edge">
<title>Node73&#45;&gt;Node6</title>
<path fill="none" stroke="midnightblue" d="M226.96,-105.54C215.73,-95.91 201.68,-83.87 192.31,-75.83"/>
<polygon fill="midnightblue" stroke="midnightblue" points="225.01,-108.47 234.88,-112.32 229.56,-103.16 225.01,-108.47"/>
</g>
<!-- Node73&#45;&gt;Node7 -->
<g id="edge13" class="edge">
<title>Node73&#45;&gt;Node7</title>
<path fill="none" stroke="midnightblue" d="M243.64,-101.99C241.66,-87.66 236.82,-68.42 225,-56 202.9,-32.77 167.89,-21.49 140.69,-16.04"/>
<polygon fill="midnightblue" stroke="midnightblue" points="240.19,-102.61 244.7,-112.2 247.15,-101.9 240.19,-102.61"/>
</g>
</g>
</svg>
