<?xml version="1.0" encoding="UTF-8" standalone="no"?>
<!DOCTYPE svg PUBLIC "-//W3C//DTD SVG 1.1//EN"
 "http://www.w3.org/Graphics/SVG/1.1/DTD/svg11.dtd">
<!-- Generated by graphviz version 2.43.0 (0)
 -->
<!-- Title: month.h Pages: 1 -->
<svg width="180pt" height="196pt"
 viewBox="0.00 0.00 179.50 196.00" xmlns="http://www.w3.org/2000/svg" xmlns:xlink="http://www.w3.org/1999/xlink">
<g id="graph0" class="graph" transform="scale(1 1) rotate(0) translate(4 192)">
<title>month.h</title>
<!-- Node1 -->
<g id="node1" class="node">
<title>Node1</title>
<g id="a_node1"><a xlink:title=" ">
<polygon fill="#bfbfbf" stroke="black" points="52.5,-168.5 52.5,-187.5 109.5,-187.5 109.5,-168.5 52.5,-168.5"/>
<text text-anchor="middle" x="81" y="-175.5" font-family="Helvetica,sans-Serif" font-size="10.00">month.h</text>
</a>
</g>
</g>
<!-- Node2 -->
<g id="node2" class="node">
<title>Node2</title>
<g id="a_node2"><a xlink:href="../../d0/ddc/weekday_8h.html" target="_top" xlink:title=" ">
<polygon fill="none" stroke="black" points="47,-112.5 47,-131.5 115,-131.5 115,-112.5 47,-112.5"/>
<text text-anchor="middle" x="81" y="-119.5" font-family="Helvetica,sans-Serif" font-size="10.00">weekday.h</text>
</a>
</g>
</g>
<!-- Node1&#45;&gt;Node2 -->
<g id="edge1" class="edge">
<title>Node1&#45;&gt;Node2</title>
<path fill="none" stroke="midnightblue" d="M81,-157.8C81,-148.91 81,-138.78 81,-131.75"/>
<polygon fill="midnightblue" stroke="midnightblue" points="77.5,-158.08 81,-168.08 84.5,-158.08 77.5,-158.08"/>
</g>
<!-- Node3 -->
<g id="node3" class="node">
<title>Node3</title>
<g id="a_node3"><a xlink:href="../../db/d96/date_8h.html" target="_top" xlink:title=" ">
<polygon fill="none" stroke="black" points="15.5,-56.5 15.5,-75.5 62.5,-75.5 62.5,-56.5 15.5,-56.5"/>
<text text-anchor="middle" x="39" y="-63.5" font-family="Helvetica,sans-Serif" font-size="10.00">date.h</text>
</a>
</g>
</g>
<!-- Node1&#45;&gt;Node3 -->
<g id="edge6" class="edge">
<title>Node1&#45;&gt;Node3</title>
<path fill="none" stroke="midnightblue" d="M60.76,-161.86C51.99,-154.03 42.68,-143.67 38,-132 30.44,-113.14 34.01,-88.67 36.79,-75.8"/>
<polygon fill="midnightblue" stroke="midnightblue" points="58.58,-164.6 68.5,-168.3 63.05,-159.22 58.58,-164.6"/>
</g>
<!-- Node9 -->
<g id="node5" class="node">
<title>Node9</title>
<g id="a_node5"><a xlink:href="../../d9/df8/limes__core_8h.html" target="_top" xlink:title=" ">
<polygon fill="none" stroke="red" points="92.5,-0.5 92.5,-19.5 171.5,-19.5 171.5,-0.5 92.5,-0.5"/>
<text text-anchor="middle" x="132" y="-7.5" font-family="Helvetica,sans-Serif" font-size="10.00">limes_core.h</text>
</a>
</g>
</g>
<!-- Node1&#45;&gt;Node9 -->
<g id="edge7" class="edge">
<title>Node1&#45;&gt;Node9</title>
<path fill="none" stroke="midnightblue" d="M100.9,-161.72C109.59,-153.86 118.94,-143.51 124,-132 141.12,-93.07 136.2,-40.24 133.37,-19.68"/>
<polygon fill="midnightblue" stroke="midnightblue" points="98.62,-159.06 93.25,-168.2 103.14,-164.41 98.62,-159.06"/>
</g>
<!-- Node2&#45;&gt;Node3 -->
<g id="edge2" class="edge">
<title>Node2&#45;&gt;Node3</title>
<path fill="none" stroke="midnightblue" d="M67.89,-104.14C60.57,-94.74 51.76,-83.4 45.81,-75.75"/>
<polygon fill="midnightblue" stroke="midnightblue" points="65.16,-106.34 74.06,-112.08 70.69,-102.04 65.16,-106.34"/>
</g>
<!-- Node2&#45;&gt;Node9 -->
<g id="edge5" class="edge">
<title>Node2&#45;&gt;Node9</title>
<path fill="none" stroke="midnightblue" d="M89.35,-103C100.47,-79 119.73,-37.47 128.02,-19.59"/>
<polygon fill="midnightblue" stroke="midnightblue" points="86.03,-101.82 85,-112.37 92.38,-104.77 86.03,-101.82"/>
</g>
<!-- Node4 -->
<g id="node4" class="node">
<title>Node4</title>
<g id="a_node4"><a xlink:href="../../df/da8/_date_time_8h.html" target="_top" xlink:title=" ">
<polygon fill="none" stroke="red" points="0,-0.5 0,-19.5 74,-19.5 74,-0.5 0,-0.5"/>
<text text-anchor="middle" x="37" y="-7.5" font-family="Helvetica,sans-Serif" font-size="10.00">DateTime.h</text>
</a>
</g>
</g>
<!-- Node3&#45;&gt;Node4 -->
<g id="edge3" class="edge">
<title>Node3&#45;&gt;Node4</title>
<path fill="none" stroke="midnightblue" d="M38.29,-45.8C37.96,-36.91 37.58,-26.78 37.32,-19.75"/>
<polygon fill="midnightblue" stroke="midnightblue" points="34.8,-46.22 38.67,-56.08 41.8,-45.96 34.8,-46.22"/>
</g>
<!-- Node3&#45;&gt;Node9 -->
<g id="edge4" class="edge">
<title>Node3&#45;&gt;Node9</title>
<path fill="none" stroke="midnightblue" d="M62.81,-51.18C79.92,-41.24 102.47,-28.15 117.1,-19.65"/>
<polygon fill="midnightblue" stroke="midnightblue" points="60.83,-48.28 53.94,-56.32 64.35,-54.33 60.83,-48.28"/>
</g>
</g>
</svg>
