<?xml version="1.0" encoding="UTF-8" standalone="no"?>
<!DOCTYPE svg PUBLIC "-//W3C//DTD SVG 1.1//EN"
 "http://www.w3.org/Graphics/SVG/1.1/DTD/svg11.dtd">
<!-- Generated by graphviz version 2.43.0 (0)
 -->
<!-- Title: file.h Pages: 1 -->
<svg width="1602pt" height="487pt"
 viewBox="0.00 0.00 1601.88 487.00" xmlns="http://www.w3.org/2000/svg" xmlns:xlink="http://www.w3.org/1999/xlink">
<g id="graph0" class="graph" transform="scale(1 1) rotate(0) translate(4 483)">
<title>file.h</title>
<!-- Node1 -->
<g id="node1" class="node">
<title>Node1</title>
<g id="a_node1"><a xlink:title=" ">
<polygon fill="#bfbfbf" stroke="black" points="452.5,-459.5 452.5,-478.5 493.5,-478.5 493.5,-459.5 452.5,-459.5"/>
<text text-anchor="middle" x="473" y="-466.5" font-family="Helvetica,sans-Serif" font-size="10.00">file.h</text>
</a>
</g>
</g>
<!-- Node2 -->
<g id="node2" class="node">
<title>Node2</title>
<g id="a_node2"><a xlink:title=" ">
<polygon fill="none" stroke="#bfbfbf" points="1292.5,-118 1292.5,-137 1381.5,-137 1381.5,-118 1292.5,-118"/>
<text text-anchor="middle" x="1337" y="-125" font-family="Helvetica,sans-Serif" font-size="10.00">limes_export.h</text>
</a>
</g>
</g>
<!-- Node1&#45;&gt;Node2 -->
<g id="edge1" class="edge">
<title>Node1&#45;&gt;Node2</title>
<path fill="none" stroke="midnightblue" d="M493.57,-467.68C633.38,-465.31 1440.59,-448.16 1508,-367 1550.96,-315.27 1715.8,-486.3 1427,-179 1411.22,-162.21 1388.59,-149.55 1369.97,-141.1"/>
<polygon fill="midnightblue" stroke="midnightblue" points="1371.22,-137.83 1360.65,-137.07 1368.44,-144.25 1371.22,-137.83"/>
</g>
<!-- Node3 -->
<g id="node3" class="node">
<title>Node3</title>
<g id="a_node3"><a xlink:href="../../da/d0b/limes__namespace_8h.html" target="_top" xlink:title=" ">
<polygon fill="none" stroke="black" points="618,-118 618,-137 732,-137 732,-118 618,-118"/>
<text text-anchor="middle" x="675" y="-125" font-family="Helvetica,sans-Serif" font-size="10.00">limes_namespace.h</text>
</a>
</g>
</g>
<!-- Node1&#45;&gt;Node3 -->
<g id="edge2" class="edge">
<title>Node1&#45;&gt;Node3</title>
<path fill="none" stroke="midnightblue" d="M487.34,-459.31C500.12,-451.07 518.78,-437.79 532,-423 570.65,-379.74 583.55,-366.91 599,-311 601.37,-302.43 602.89,-298.99 599,-291 587.63,-267.66 564.37,-278.34 553,-255 546.08,-240.8 541.07,-200.29 556,-179 569.75,-159.39 592.71,-147.35 614.82,-139.99"/>
<polygon fill="midnightblue" stroke="midnightblue" points="616,-143.28 624.54,-137.01 613.96,-136.59 616,-143.28"/>
</g>
<!-- Node4 -->
<g id="node4" class="node">
<title>Node4</title>
<g id="a_node4"><a xlink:title=" ">
<polygon fill="none" stroke="#bfbfbf" points="46.5,-235.5 46.5,-254.5 99.5,-254.5 99.5,-235.5 46.5,-235.5"/>
<text text-anchor="middle" x="73" y="-242.5" font-family="Helvetica,sans-Serif" font-size="10.00">cstddef</text>
</a>
</g>
</g>
<!-- Node1&#45;&gt;Node4 -->
<g id="edge3" class="edge">
<title>Node1&#45;&gt;Node4</title>
<path fill="none" stroke="midnightblue" d="M452.43,-464.11C419.72,-457.6 354.08,-443.19 301,-423 249.72,-403.5 236.78,-397.23 191,-367 158.61,-345.62 151.01,-338.86 124,-311 109.4,-295.94 94.83,-276.87 85.03,-263.29"/>
<polygon fill="midnightblue" stroke="midnightblue" points="87.71,-261.01 79.06,-254.88 82,-265.06 87.71,-261.01"/>
</g>
<!-- Node5 -->
<g id="node5" class="node">
<title>Node5</title>
<g id="a_node5"><a xlink:title=" ">
<polygon fill="none" stroke="#bfbfbf" points="565,-179.5 565,-198.5 609,-198.5 609,-179.5 565,-179.5"/>
<text text-anchor="middle" x="587" y="-186.5" font-family="Helvetica,sans-Serif" font-size="10.00">string</text>
</a>
</g>
</g>
<!-- Node1&#45;&gt;Node5 -->
<g id="edge4" class="edge">
<title>Node1&#45;&gt;Node5</title>
<path fill="none" stroke="midnightblue" d="M474.05,-459.19C477.41,-432.75 489.34,-352.17 516,-291 527.92,-263.65 535.78,-259.36 553,-235 559.8,-225.39 567.71,-214.88 574.19,-206.43"/>
<polygon fill="midnightblue" stroke="midnightblue" points="576.97,-208.56 580.32,-198.51 571.43,-204.28 576.97,-208.56"/>
</g>
<!-- Node6 -->
<g id="node6" class="node">
<title>Node6</title>
<g id="a_node6"><a xlink:title=" ">
<polygon fill="none" stroke="#bfbfbf" points="117.5,-235.5 117.5,-254.5 190.5,-254.5 190.5,-235.5 117.5,-235.5"/>
<text text-anchor="middle" x="154" y="-242.5" font-family="Helvetica,sans-Serif" font-size="10.00">string_view</text>
</a>
</g>
</g>
<!-- Node1&#45;&gt;Node6 -->
<g id="edge5" class="edge">
<title>Node1&#45;&gt;Node6</title>
<path fill="none" stroke="midnightblue" d="M452.27,-461.41C409.65,-447.4 309.84,-412.21 234,-367 197.65,-345.33 177.07,-348.26 157,-311 149.38,-296.86 149.3,-278.37 150.74,-264.73"/>
<polygon fill="midnightblue" stroke="midnightblue" points="154.23,-265.01 152.16,-254.62 147.3,-264.03 154.23,-265.01"/>
</g>
<!-- Node7 -->
<g id="node7" class="node">
<title>Node7</title>
<g id="a_node7"><a xlink:title=" ">
<polygon fill="none" stroke="#bfbfbf" points="423.5,-403.5 423.5,-422.5 470.5,-422.5 470.5,-403.5 423.5,-403.5"/>
<text text-anchor="middle" x="447" y="-410.5" font-family="Helvetica,sans-Serif" font-size="10.00">vector</text>
</a>
</g>
</g>
<!-- Node1&#45;&gt;Node7 -->
<g id="edge6" class="edge">
<title>Node1&#45;&gt;Node7</title>
<path fill="none" stroke="midnightblue" d="M468.71,-459.08C465.15,-451.69 459.98,-440.95 455.58,-431.81"/>
<polygon fill="midnightblue" stroke="midnightblue" points="458.71,-430.24 451.21,-422.75 452.4,-433.28 458.71,-430.24"/>
</g>
<!-- Node8 -->
<g id="node8" class="node">
<title>Node8</title>
<g id="a_node8"><a xlink:href="../../db/dfb/hash_8h.html" target="_top" xlink:title=" ">
<polygon fill="none" stroke="black" points="372.5,-291.5 372.5,-310.5 467.5,-310.5 467.5,-291.5 372.5,-291.5"/>
<text text-anchor="middle" x="420" y="-298.5" font-family="Helvetica,sans-Serif" font-size="10.00">../hashes/hash.h</text>
</a>
</g>
</g>
<!-- Node1&#45;&gt;Node8 -->
<g id="edge7" class="edge">
<title>Node1&#45;&gt;Node8</title>
<path fill="none" stroke="midnightblue" d="M454.02,-459.4C440.11,-451.95 422.29,-439.74 414,-423 397.58,-389.83 406.57,-345.09 413.79,-320.36"/>
<polygon fill="midnightblue" stroke="midnightblue" points="417.14,-321.39 416.8,-310.8 410.46,-319.29 417.14,-321.39"/>
</g>
<!-- Node10 -->
<g id="node10" class="node">
<title>Node10</title>
<g id="a_node10"><a xlink:href="../../d2/dea/_raw_data_8h.html" target="_top" xlink:title=" ">
<polygon fill="none" stroke="black" points="243.5,-347.5 243.5,-366.5 366.5,-366.5 366.5,-347.5 243.5,-347.5"/>
<text text-anchor="middle" x="305" y="-354.5" font-family="Helvetica,sans-Serif" font-size="10.00">../memory/RawData.h</text>
</a>
</g>
</g>
<!-- Node1&#45;&gt;Node10 -->
<g id="edge14" class="edge">
<title>Node1&#45;&gt;Node10</title>
<path fill="none" stroke="midnightblue" d="M452.47,-459.74C433.27,-451.61 404.18,-438.23 381,-423 358.72,-408.36 335.82,-387.9 321.06,-373.86"/>
<polygon fill="midnightblue" stroke="midnightblue" points="323.38,-371.24 313.76,-366.8 318.52,-376.27 323.38,-371.24"/>
</g>
<!-- Node12 -->
<g id="node12" class="node">
<title>Node12</title>
<g id="a_node12"><a xlink:href="../../d3/d53/preprocessor_8h.html" target="_top" xlink:title=" ">
<polygon fill="none" stroke="black" points="845.5,-56.5 845.5,-75.5 968.5,-75.5 968.5,-56.5 845.5,-56.5"/>
<text text-anchor="middle" x="907" y="-63.5" font-family="Helvetica,sans-Serif" font-size="10.00">../misc/preprocessor.h</text>
</a>
</g>
</g>
<!-- Node1&#45;&gt;Node12 -->
<g id="edge64" class="edge">
<title>Node1&#45;&gt;Node12</title>
<path fill="none" stroke="midnightblue" d="M452.37,-467.69C361.33,-465.8 0,-452.32 0,-358 0,-358 0,-358 0,-188 0,-103.89 620.73,-76.13 835.17,-69.05"/>
<polygon fill="midnightblue" stroke="midnightblue" points="835.49,-72.55 845.37,-68.72 835.26,-65.55 835.49,-72.55"/>
</g>
<!-- Node14 -->
<g id="node14" class="node">
<title>Node14</title>
<g id="a_node14"><a xlink:title=" ">
<polygon fill="none" stroke="#bfbfbf" points="524.5,-291.5 524.5,-310.5 589.5,-310.5 589.5,-291.5 524.5,-291.5"/>
<text text-anchor="middle" x="557" y="-298.5" font-family="Helvetica,sans-Serif" font-size="10.00">functional</text>
</a>
</g>
</g>
<!-- Node1&#45;&gt;Node14 -->
<g id="edge63" class="edge">
<title>Node1&#45;&gt;Node14</title>
<path fill="none" stroke="midnightblue" d="M482.72,-459.18C491.62,-450.65 504.65,-437.01 513,-423 533.05,-389.37 546.27,-345.11 552.61,-320.51"/>
<polygon fill="midnightblue" stroke="midnightblue" points="556.03,-321.25 555.04,-310.7 549.24,-319.57 556.03,-321.25"/>
</g>
<!-- Node15 -->
<g id="node15" class="node">
<title>Node15</title>
<g id="a_node15"><a xlink:href="../../d2/d83/_filesystem_entry_8h.html" target="_top" xlink:title=" ">
<polygon fill="none" stroke="black" points="733.5,-347.5 733.5,-366.5 836.5,-366.5 836.5,-347.5 733.5,-347.5"/>
<text text-anchor="middle" x="785" y="-354.5" font-family="Helvetica,sans-Serif" font-size="10.00">FilesystemEntry.h</text>
</a>
</g>
</g>
<!-- Node1&#45;&gt;Node15 -->
<g id="edge25" class="edge">
<title>Node1&#45;&gt;Node15</title>
<path fill="none" stroke="midnightblue" d="M493.59,-463.06C524.15,-455.52 583.16,-440.21 632,-423 676.95,-407.16 727.57,-384.71 757.84,-370.77"/>
<polygon fill="midnightblue" stroke="midnightblue" points="759.32,-373.94 766.92,-366.56 756.38,-367.59 759.32,-373.94"/>
</g>
<!-- Node48 -->
<g id="node24" class="node">
<title>Node48</title>
<g id="a_node24"><a xlink:href="../../d9/d78/_c_file_8h.html" target="_top" xlink:title=" ">
<polygon fill="none" stroke="black" points="1149,-403.5 1149,-422.5 1199,-422.5 1199,-403.5 1149,-403.5"/>
<text text-anchor="middle" x="1174" y="-410.5" font-family="Helvetica,sans-Serif" font-size="10.00">CFile.h</text>
</a>
</g>
</g>
<!-- Node1&#45;&gt;Node48 -->
<g id="edge65" class="edge">
<title>Node1&#45;&gt;Node48</title>
<path fill="none" stroke="midnightblue" d="M493.6,-466.41C591.83,-458.85 1013.05,-426.4 1138.57,-416.73"/>
<polygon fill="midnightblue" stroke="midnightblue" points="1139.07,-420.2 1148.77,-415.94 1138.53,-413.22 1139.07,-420.2"/>
</g>
<!-- Node8&#45;&gt;Node2 -->
<g id="edge8" class="edge">
<title>Node8&#45;&gt;Node2</title>
<path fill="none" stroke="midnightblue" d="M467.83,-295.22C483.2,-293.76 500.31,-292.22 516,-291 774.38,-270.9 843.5,-303.94 1098,-255 1176.12,-239.98 1200.48,-241.07 1268,-199 1291.06,-184.63 1312.03,-161 1324.65,-145.11"/>
<polygon fill="midnightblue" stroke="midnightblue" points="1327.43,-147.23 1330.77,-137.18 1321.89,-142.96 1327.43,-147.23"/>
</g>
<!-- Node8&#45;&gt;Node3 -->
<g id="edge9" class="edge">
<title>Node8&#45;&gt;Node3</title>
<path fill="none" stroke="midnightblue" d="M418.82,-291.24C416.36,-269.08 413.26,-210.34 444,-179 466.52,-156.04 548.01,-142.27 607.84,-135.04"/>
<polygon fill="midnightblue" stroke="midnightblue" points="608.47,-138.49 618,-133.85 607.66,-131.54 608.47,-138.49"/>
</g>
<!-- Node8&#45;&gt;Node4 -->
<g id="edge10" class="edge">
<title>Node8&#45;&gt;Node4</title>
<path fill="none" stroke="midnightblue" d="M372.42,-294.76C312.98,-287.87 208.01,-274.5 109.5,-255.13"/>
<polygon fill="midnightblue" stroke="midnightblue" points="110.18,-251.7 99.68,-253.18 108.81,-258.56 110.18,-251.7"/>
</g>
<!-- Node8&#45;&gt;Node5 -->
<g id="edge11" class="edge">
<title>Node8&#45;&gt;Node5</title>
<path fill="none" stroke="midnightblue" d="M433.1,-291.37C461.76,-272.49 530.24,-227.38 565.39,-204.24"/>
<polygon fill="midnightblue" stroke="midnightblue" points="567.53,-207.02 573.96,-198.59 563.68,-201.17 567.53,-207.02"/>
</g>
<!-- Node8&#45;&gt;Node6 -->
<g id="edge12" class="edge">
<title>Node8&#45;&gt;Node6</title>
<path fill="none" stroke="midnightblue" d="M377.85,-291.44C329.61,-281.65 250.82,-265.66 200.73,-255.49"/>
<polygon fill="midnightblue" stroke="midnightblue" points="201.31,-252.03 190.81,-253.47 199.92,-258.89 201.31,-252.03"/>
</g>
<!-- Node9 -->
<g id="node9" class="node">
<title>Node9</title>
<g id="a_node9"><a xlink:title=" ">
<polygon fill="none" stroke="#bfbfbf" points="562,-235.5 562,-254.5 620,-254.5 620,-235.5 562,-235.5"/>
<text text-anchor="middle" x="591" y="-242.5" font-family="Helvetica,sans-Serif" font-size="10.00">memory</text>
</a>
</g>
</g>
<!-- Node8&#45;&gt;Node9 -->
<g id="edge13" class="edge">
<title>Node8&#45;&gt;Node9</title>
<path fill="none" stroke="midnightblue" d="M447.1,-291.44C475.99,-282.32 521.92,-267.81 554.11,-257.65"/>
<polygon fill="midnightblue" stroke="midnightblue" points="555.55,-260.87 564.03,-254.52 553.44,-254.19 555.55,-260.87"/>
</g>
<!-- Node10&#45;&gt;Node2 -->
<g id="edge15" class="edge">
<title>Node10&#45;&gt;Node2</title>
<path fill="none" stroke="midnightblue" d="M366.76,-354.15C523.62,-349.18 934.48,-334.27 1069,-311 1156.59,-295.85 1181.85,-295.45 1261,-255 1297.1,-236.55 1314.16,-234.9 1333,-199 1341.35,-183.08 1341.45,-162.27 1340.01,-147.39"/>
<polygon fill="midnightblue" stroke="midnightblue" points="1343.46,-146.83 1338.72,-137.35 1336.52,-147.72 1343.46,-146.83"/>
</g>
<!-- Node10&#45;&gt;Node3 -->
<g id="edge16" class="edge">
<title>Node10&#45;&gt;Node3</title>
<path fill="none" stroke="midnightblue" d="M307.97,-347.47C318.67,-318.18 358.28,-221.14 427,-179 481.78,-145.41 554.91,-133.71 607.54,-129.86"/>
<polygon fill="midnightblue" stroke="midnightblue" points="608.04,-133.34 617.79,-129.19 607.58,-126.35 608.04,-133.34"/>
</g>
<!-- Node10&#45;&gt;Node4 -->
<g id="edge17" class="edge">
<title>Node10&#45;&gt;Node4</title>
<path fill="none" stroke="midnightblue" d="M262.6,-347.44C232.12,-340.27 190.64,-328.38 157,-311 131.33,-297.74 105.62,-276.36 89.53,-261.77"/>
<polygon fill="midnightblue" stroke="midnightblue" points="91.76,-259.06 82.04,-254.84 87,-264.2 91.76,-259.06"/>
</g>
<!-- Node10&#45;&gt;Node5 -->
<g id="edge19" class="edge">
<title>Node10&#45;&gt;Node5</title>
<path fill="none" stroke="midnightblue" d="M310.87,-347.39C320.45,-333.88 340.62,-307.54 363,-291 424.4,-245.63 509.43,-214.34 555.04,-199.61"/>
<polygon fill="midnightblue" stroke="midnightblue" points="556.21,-202.91 564.68,-196.55 554.09,-196.24 556.21,-202.91"/>
</g>
<!-- Node10&#45;&gt;Node6 -->
<g id="edge20" class="edge">
<title>Node10&#45;&gt;Node6</title>
<path fill="none" stroke="midnightblue" d="M243.31,-348.37C217.76,-342.21 189.76,-331.09 171,-311 159.44,-298.62 155.52,-279.38 154.3,-265.04"/>
<polygon fill="midnightblue" stroke="midnightblue" points="157.78,-264.63 153.8,-254.81 150.79,-264.97 157.78,-264.63"/>
</g>
<!-- Node10&#45;&gt;Node8 -->
<g id="edge21" class="edge">
<title>Node10&#45;&gt;Node8</title>
<path fill="none" stroke="midnightblue" d="M323.22,-347.44C341.9,-338.68 371.16,-324.94 392.62,-314.86"/>
<polygon fill="midnightblue" stroke="midnightblue" points="394.3,-317.93 401.86,-310.52 391.32,-311.6 394.3,-317.93"/>
</g>
<!-- Node11 -->
<g id="node11" class="node">
<title>Node11</title>
<g id="a_node11"><a xlink:title=" ">
<polygon fill="none" stroke="#bfbfbf" points="180,-291.5 180,-310.5 240,-310.5 240,-291.5 180,-291.5"/>
<text text-anchor="middle" x="210" y="-298.5" font-family="Helvetica,sans-Serif" font-size="10.00">iostream</text>
</a>
</g>
</g>
<!-- Node10&#45;&gt;Node11 -->
<g id="edge18" class="edge">
<title>Node10&#45;&gt;Node11</title>
<path fill="none" stroke="midnightblue" d="M289.74,-347.32C274.78,-338.82 251.75,-325.73 234.27,-315.8"/>
<polygon fill="midnightblue" stroke="midnightblue" points="235.65,-312.55 225.23,-310.65 232.19,-318.64 235.65,-312.55"/>
</g>
<!-- Node10&#45;&gt;Node12 -->
<g id="edge22" class="edge">
<title>Node10&#45;&gt;Node12</title>
<path fill="none" stroke="midnightblue" d="M300.01,-347.49C289.91,-329.44 268,-285.69 268,-246 268,-246 268,-246 268,-188 268,-130.8 668.35,-88.34 835.27,-73.13"/>
<polygon fill="midnightblue" stroke="midnightblue" points="835.8,-76.59 845.44,-72.21 835.17,-69.62 835.8,-76.59"/>
</g>
<!-- Node10&#45;&gt;Node14 -->
<g id="edge24" class="edge">
<title>Node10&#45;&gt;Node14</title>
<path fill="none" stroke="midnightblue" d="M344.93,-347.44C391.22,-337.52 467.19,-321.24 514.53,-311.1"/>
<polygon fill="midnightblue" stroke="midnightblue" points="515.42,-314.49 524.47,-308.97 513.96,-307.64 515.42,-314.49"/>
</g>
<!-- Node13 -->
<g id="node13" class="node">
<title>Node13</title>
<g id="a_node13"><a xlink:title=" ">
<polygon fill="none" stroke="#bfbfbf" points="812,-0.5 812,-19.5 912,-19.5 912,-0.5 812,-0.5"/>
<text text-anchor="middle" x="862" y="-7.5" font-family="Helvetica,sans-Serif" font-size="10.00">limes_platform.h</text>
</a>
</g>
</g>
<!-- Node12&#45;&gt;Node13 -->
<g id="edge23" class="edge">
<title>Node12&#45;&gt;Node13</title>
<path fill="none" stroke="midnightblue" d="M899.57,-56.08C893.15,-48.38 883.69,-37.03 875.88,-27.65"/>
<polygon fill="midnightblue" stroke="midnightblue" points="878.38,-25.19 869.29,-19.75 873.01,-29.67 878.38,-25.19"/>
</g>
<!-- Node15&#45;&gt;Node2 -->
<g id="edge27" class="edge">
<title>Node15&#45;&gt;Node2</title>
<path fill="none" stroke="midnightblue" d="M836.82,-356.07C976.32,-355.73 1351.8,-351.07 1389,-311 1428.91,-268 1411.85,-233.04 1389,-179 1382.91,-164.59 1370.47,-152.27 1359.29,-143.4"/>
<polygon fill="midnightblue" stroke="midnightblue" points="1361.22,-140.48 1351.11,-137.32 1357.04,-146.09 1361.22,-140.48"/>
</g>
<!-- Node15&#45;&gt;Node3 -->
<g id="edge28" class="edge">
<title>Node15&#45;&gt;Node3</title>
<path fill="none" stroke="midnightblue" d="M776.71,-347.16C750.92,-319.43 673.14,-233.94 661,-199 655,-181.74 660.45,-161.15 666.21,-146.7"/>
<polygon fill="midnightblue" stroke="midnightblue" points="669.48,-147.95 670.3,-137.39 663.07,-145.14 669.48,-147.95"/>
</g>
<!-- Node15&#45;&gt;Node5 -->
<g id="edge31" class="edge">
<title>Node15&#45;&gt;Node5</title>
<path fill="none" stroke="midnightblue" d="M770.96,-347.46C757.09,-338.82 735.48,-324.81 718,-311 673.91,-276.17 626.5,-229.91 602.63,-205.93"/>
<polygon fill="midnightblue" stroke="midnightblue" points="605,-203.35 595.48,-198.71 600.02,-208.28 605,-203.35"/>
</g>
<!-- Node15&#45;&gt;Node9 -->
<g id="edge26" class="edge">
<title>Node15&#45;&gt;Node9</title>
<path fill="none" stroke="midnightblue" d="M760.91,-347.46C739.14,-339.33 706.54,-326.12 680,-311 654.09,-296.24 626.75,-275.36 609.31,-261.29"/>
<polygon fill="midnightblue" stroke="midnightblue" points="611.12,-258.24 601.16,-254.61 606.68,-263.66 611.12,-258.24"/>
</g>
<!-- Node15&#45;&gt;Node12 -->
<g id="edge32" class="edge">
<title>Node15&#45;&gt;Node12</title>
<path fill="none" stroke="midnightblue" d="M836.54,-355.66C978.26,-354.27 1366.23,-347.16 1410,-311 1429.86,-294.59 1421.64,-280.55 1425,-255 1433.52,-190.23 1441.09,-153.93 1391,-112 1360.09,-86.13 1105.69,-73.81 978.64,-69.22"/>
<polygon fill="midnightblue" stroke="midnightblue" points="978.72,-65.72 968.6,-68.87 978.47,-72.72 978.72,-65.72"/>
</g>
<!-- Node15&#45;&gt;Node14 -->
<g id="edge62" class="edge">
<title>Node15&#45;&gt;Node14</title>
<path fill="none" stroke="midnightblue" d="M748.87,-347.44C708.3,-337.83 642.53,-322.26 599.51,-312.07"/>
<polygon fill="midnightblue" stroke="midnightblue" points="600.17,-308.63 589.63,-309.73 598.56,-315.44 600.17,-308.63"/>
</g>
<!-- Node16 -->
<g id="node16" class="node">
<title>Node16</title>
<g id="a_node16"><a xlink:title=" ">
<polygon fill="none" stroke="#bfbfbf" points="760,-291.5 760,-310.5 810,-310.5 810,-291.5 760,-291.5"/>
<text text-anchor="middle" x="785" y="-298.5" font-family="Helvetica,sans-Serif" font-size="10.00">cstdint</text>
</a>
</g>
</g>
<!-- Node15&#45;&gt;Node16 -->
<g id="edge29" class="edge">
<title>Node15&#45;&gt;Node16</title>
<path fill="none" stroke="midnightblue" d="M785,-347.08C785,-340.01 785,-329.86 785,-320.99"/>
<polygon fill="midnightblue" stroke="midnightblue" points="788.5,-320.75 785,-310.75 781.5,-320.75 788.5,-320.75"/>
</g>
<!-- Node17 -->
<g id="node17" class="node">
<title>Node17</title>
<g id="a_node17"><a xlink:title=" ">
<polygon fill="none" stroke="#bfbfbf" points="828,-291.5 828,-310.5 896,-310.5 896,-291.5 828,-291.5"/>
<text text-anchor="middle" x="862" y="-298.5" font-family="Helvetica,sans-Serif" font-size="10.00">filesystem</text>
</a>
</g>
</g>
<!-- Node15&#45;&gt;Node17 -->
<g id="edge30" class="edge">
<title>Node15&#45;&gt;Node17</title>
<path fill="none" stroke="midnightblue" d="M797.37,-347.32C809.16,-339.06 827.13,-326.45 841.14,-316.63"/>
<polygon fill="midnightblue" stroke="midnightblue" points="843.48,-319.26 849.66,-310.65 839.46,-313.53 843.48,-319.26"/>
</g>
<!-- Node18 -->
<g id="node18" class="node">
<title>Node18</title>
<g id="a_node18"><a xlink:href="../../df/da8/_date_time_8h.html" target="_top" xlink:title=" ">
<polygon fill="none" stroke="black" points="952,-291.5 952,-310.5 1060,-310.5 1060,-291.5 952,-291.5"/>
<text text-anchor="middle" x="1006" y="-298.5" font-family="Helvetica,sans-Serif" font-size="10.00">../time/DateTime.h</text>
</a>
</g>
</g>
<!-- Node15&#45;&gt;Node18 -->
<g id="edge33" class="edge">
<title>Node15&#45;&gt;Node18</title>
<path fill="none" stroke="midnightblue" d="M820.02,-347.44C858.25,-338.1 919.57,-323.12 961.26,-312.93"/>
<polygon fill="midnightblue" stroke="midnightblue" points="962.26,-316.29 971.15,-310.52 960.6,-309.49 962.26,-316.29"/>
</g>
<!-- Node18&#45;&gt;Node2 -->
<g id="edge34" class="edge">
<title>Node18&#45;&gt;Node2</title>
<path fill="none" stroke="midnightblue" d="M1060.13,-296.57C1128.06,-289.4 1244.01,-267.28 1313,-199 1326.9,-185.24 1332.75,-163.12 1335.22,-147.33"/>
<polygon fill="midnightblue" stroke="midnightblue" points="1338.72,-147.52 1336.48,-137.16 1331.77,-146.65 1338.72,-147.52"/>
</g>
<!-- Node18&#45;&gt;Node3 -->
<g id="edge35" class="edge">
<title>Node18&#45;&gt;Node3</title>
<path fill="none" stroke="midnightblue" d="M972.98,-291.43C944.35,-283.5 902.11,-270.61 867,-255 821.51,-234.78 811.61,-226.32 770,-199 742.73,-181.09 712.73,-158.27 693.88,-143.52"/>
<polygon fill="midnightblue" stroke="midnightblue" points="695.84,-140.61 685.82,-137.17 691.51,-146.11 695.84,-140.61"/>
</g>
<!-- Node18&#45;&gt;Node5 -->
<g id="edge59" class="edge">
<title>Node18&#45;&gt;Node5</title>
<path fill="none" stroke="midnightblue" d="M956.26,-291.5C911.42,-283.44 843.85,-270.31 786,-255 726.17,-239.17 657.89,-215.64 618.87,-201.66"/>
<polygon fill="midnightblue" stroke="midnightblue" points="619.73,-198.25 609.14,-198.15 617.36,-204.83 619.73,-198.25"/>
</g>
<!-- Node19 -->
<g id="node19" class="node">
<title>Node19</title>
<g id="a_node19"><a xlink:href="../../de/df7/time_8h.html" target="_top" xlink:title=" ">
<polygon fill="none" stroke="red" points="898,-235.5 898,-254.5 946,-254.5 946,-235.5 898,-235.5"/>
<text text-anchor="middle" x="922" y="-242.5" font-family="Helvetica,sans-Serif" font-size="10.00">time.h</text>
</a>
</g>
</g>
<!-- Node18&#45;&gt;Node19 -->
<g id="edge36" class="edge">
<title>Node18&#45;&gt;Node19</title>
<path fill="none" stroke="midnightblue" d="M992.5,-291.32C979.4,-282.9 959.29,-269.97 943.89,-260.07"/>
<polygon fill="midnightblue" stroke="midnightblue" points="945.77,-257.12 935.46,-254.65 941.98,-263.01 945.77,-257.12"/>
</g>
<!-- Node21 -->
<g id="node20" class="node">
<title>Node21</title>
<g id="a_node20"><a xlink:href="../../d0/d00/compiler__defs_8h.html" target="_top" xlink:title=" ">
<polygon fill="none" stroke="black" points="767.5,-112.5 767.5,-142.5 874.5,-142.5 874.5,-112.5 767.5,-112.5"/>
<text text-anchor="start" x="775.5" y="-130.5" font-family="Helvetica,sans-Serif" font-size="10.00">../system/compiler</text>
<text text-anchor="middle" x="821" y="-119.5" font-family="Helvetica,sans-Serif" font-size="10.00">_defs.h</text>
</a>
</g>
</g>
<!-- Node18&#45;&gt;Node21 -->
<g id="edge61" class="edge">
<title>Node18&#45;&gt;Node21</title>
<path fill="none" stroke="midnightblue" d="M963.74,-291.47C939.61,-284.84 910.06,-273.56 889,-255 857.32,-227.08 837.79,-180.74 828.21,-152.57"/>
<polygon fill="midnightblue" stroke="midnightblue" points="831.43,-151.16 825.02,-142.73 824.77,-153.33 831.43,-151.16"/>
</g>
<!-- Node22 -->
<g id="node21" class="node">
<title>Node22</title>
<g id="a_node21"><a xlink:title=" ">
<polygon fill="none" stroke="#bfbfbf" points="1035,-118 1035,-137 1079,-137 1079,-118 1035,-118"/>
<text text-anchor="middle" x="1057" y="-125" font-family="Helvetica,sans-Serif" font-size="10.00">ctime</text>
</a>
</g>
</g>
<!-- Node18&#45;&gt;Node22 -->
<g id="edge58" class="edge">
<title>Node18&#45;&gt;Node22</title>
<path fill="none" stroke="midnightblue" d="M1044.24,-291.44C1063.85,-284.92 1086.06,-273.75 1098,-255 1116.14,-226.5 1110.48,-210.77 1099,-179 1094.2,-165.73 1084.23,-153.49 1075.2,-144.38"/>
<polygon fill="midnightblue" stroke="midnightblue" points="1077.34,-141.58 1067.67,-137.24 1072.52,-146.66 1077.34,-141.58"/>
</g>
<!-- Node29 -->
<g id="node22" class="node">
<title>Node29</title>
<g id="a_node22"><a xlink:href="../../d5/dd4/time__utils_8h.html" target="_top" xlink:title=" ">
<polygon fill="none" stroke="red" points="969,-179.5 969,-198.5 1043,-198.5 1043,-179.5 969,-179.5"/>
<text text-anchor="middle" x="1006" y="-186.5" font-family="Helvetica,sans-Serif" font-size="10.00">time_utils.h</text>
</a>
</g>
</g>
<!-- Node18&#45;&gt;Node29 -->
<g id="edge60" class="edge">
<title>Node18&#45;&gt;Node29</title>
<path fill="none" stroke="midnightblue" d="M1006,-291.37C1006,-273.62 1006,-232.67 1006,-208.6"/>
<polygon fill="midnightblue" stroke="midnightblue" points="1009.5,-208.59 1006,-198.59 1002.5,-208.59 1009.5,-208.59"/>
</g>
<!-- Node36 -->
<g id="node23" class="node">
<title>Node36</title>
<g id="a_node23"><a xlink:href="../../db/d96/date_8h.html" target="_top" xlink:title=" ">
<polygon fill="none" stroke="red" points="1041.5,-235.5 1041.5,-254.5 1088.5,-254.5 1088.5,-235.5 1041.5,-235.5"/>
<text text-anchor="middle" x="1065" y="-242.5" font-family="Helvetica,sans-Serif" font-size="10.00">date.h</text>
</a>
</g>
</g>
<!-- Node18&#45;&gt;Node36 -->
<g id="edge50" class="edge">
<title>Node18&#45;&gt;Node36</title>
<path fill="none" stroke="midnightblue" d="M1015.48,-291.32C1024.2,-283.34 1037.34,-271.31 1047.9,-261.65"/>
<polygon fill="midnightblue" stroke="midnightblue" points="1050.33,-264.17 1055.35,-254.83 1045.61,-259 1050.33,-264.17"/>
</g>
<!-- Node19&#45;&gt;Node2 -->
<g id="edge37" class="edge">
<title>Node19&#45;&gt;Node2</title>
<path fill="none" stroke="midnightblue" d="M946.11,-237.29C1014.59,-218.23 1210.89,-163.6 1296.39,-139.8"/>
<polygon fill="midnightblue" stroke="midnightblue" points="1297.55,-143.11 1306.25,-137.06 1295.67,-136.37 1297.55,-143.11"/>
</g>
<!-- Node19&#45;&gt;Node3 -->
<g id="edge38" class="edge">
<title>Node19&#45;&gt;Node3</title>
<path fill="none" stroke="midnightblue" d="M899.64,-235.38C877.45,-226.69 842.56,-212.63 813,-199 772.78,-180.46 727.24,-156.62 699.84,-141.96"/>
<polygon fill="midnightblue" stroke="midnightblue" points="701.4,-138.83 690.94,-137.18 698.09,-144.99 701.4,-138.83"/>
</g>
<!-- Node19&#45;&gt;Node5 -->
<g id="edge44" class="edge">
<title>Node19&#45;&gt;Node5</title>
<path fill="none" stroke="midnightblue" d="M897.91,-240.12C838.67,-230.57 685.87,-205.94 619.07,-195.17"/>
<polygon fill="midnightblue" stroke="midnightblue" points="619.54,-191.7 609.11,-193.56 618.43,-198.61 619.54,-191.7"/>
</g>
<!-- Node19&#45;&gt;Node12 -->
<g id="edge39" class="edge">
<title>Node19&#45;&gt;Node12</title>
<path fill="none" stroke="midnightblue" d="M921.28,-235.46C918.99,-208.43 911.85,-124.24 908.62,-86.11"/>
<polygon fill="midnightblue" stroke="midnightblue" points="912.08,-85.54 907.75,-75.87 905.11,-86.13 912.08,-85.54"/>
</g>
<!-- Node19&#45;&gt;Node21 -->
<g id="edge40" class="edge">
<title>Node19&#45;&gt;Node21</title>
<path fill="none" stroke="midnightblue" d="M914.41,-235.32C898.76,-217.42 862.51,-175.97 840.05,-150.28"/>
<polygon fill="midnightblue" stroke="midnightblue" points="842.5,-147.77 833.28,-142.55 837.23,-152.38 842.5,-147.77"/>
</g>
<!-- Node19&#45;&gt;Node22 -->
<g id="edge43" class="edge">
<title>Node19&#45;&gt;Node22</title>
<path fill="none" stroke="midnightblue" d="M925.19,-235.4C930.57,-221.91 942.58,-195.59 960,-179 978.67,-161.22 1004.82,-148.1 1025.27,-139.69"/>
<polygon fill="midnightblue" stroke="midnightblue" points="1026.77,-142.86 1034.79,-135.94 1024.2,-136.35 1026.77,-142.86"/>
</g>
<!-- Node19&#45;&gt;Node29 -->
<g id="edge45" class="edge">
<title>Node19&#45;&gt;Node29</title>
<path fill="none" stroke="midnightblue" d="M935.5,-235.32C948.6,-226.9 968.71,-213.97 984.11,-204.07"/>
<polygon fill="midnightblue" stroke="midnightblue" points="986.02,-207.01 992.54,-198.65 982.23,-201.12 986.02,-207.01"/>
</g>
<!-- Node21&#45;&gt;Node12 -->
<g id="edge42" class="edge">
<title>Node21&#45;&gt;Node12</title>
<path fill="none" stroke="midnightblue" d="M841.38,-112.4C854.91,-103.04 872.61,-90.79 886.22,-81.38"/>
<polygon fill="midnightblue" stroke="midnightblue" points="888.25,-84.23 894.49,-75.66 884.27,-78.47 888.25,-84.23"/>
</g>
<!-- Node21&#45;&gt;Node13 -->
<g id="edge41" class="edge">
<title>Node21&#45;&gt;Node13</title>
<path fill="none" stroke="midnightblue" d="M822.99,-112.38C825.32,-97.89 829.78,-74.87 837,-56 840.67,-46.4 846.09,-36.34 850.94,-28.18"/>
<polygon fill="midnightblue" stroke="midnightblue" points="853.96,-29.95 856.24,-19.6 848.01,-26.27 853.96,-29.95"/>
</g>
<!-- Node29&#45;&gt;Node2 -->
<g id="edge46" class="edge">
<title>Node29&#45;&gt;Node2</title>
<path fill="none" stroke="midnightblue" d="M1043.01,-181.35C1101.25,-170.88 1214.64,-150.5 1282.31,-138.33"/>
<polygon fill="midnightblue" stroke="midnightblue" points="1283.13,-141.74 1292.36,-136.53 1281.89,-134.85 1283.13,-141.74"/>
</g>
<!-- Node29&#45;&gt;Node3 -->
<g id="edge47" class="edge">
<title>Node29&#45;&gt;Node3</title>
<path fill="none" stroke="midnightblue" d="M968.99,-181.35C911.55,-171.02 800.47,-151.05 732.51,-138.84"/>
<polygon fill="midnightblue" stroke="midnightblue" points="732.86,-135.35 722.4,-137.02 731.62,-142.23 732.86,-135.35"/>
</g>
<!-- Node29&#45;&gt;Node21 -->
<g id="edge49" class="edge">
<title>Node29&#45;&gt;Node21</title>
<path fill="none" stroke="midnightblue" d="M979.49,-179.48C952.21,-170.7 908.95,-156.79 874.52,-145.71"/>
<polygon fill="midnightblue" stroke="midnightblue" points="875.19,-142.25 864.6,-142.52 873.05,-148.92 875.19,-142.25"/>
</g>
<!-- Node29&#45;&gt;Node22 -->
<g id="edge48" class="edge">
<title>Node29&#45;&gt;Node22</title>
<path fill="none" stroke="midnightblue" d="M1013.31,-179.48C1021.03,-170.46 1033.41,-156.02 1043.02,-144.81"/>
<polygon fill="midnightblue" stroke="midnightblue" points="1045.86,-146.88 1049.71,-137.01 1040.54,-142.32 1045.86,-146.88"/>
</g>
<!-- Node36&#45;&gt;Node2 -->
<g id="edge51" class="edge">
<title>Node36&#45;&gt;Node2</title>
<path fill="none" stroke="midnightblue" d="M1088.72,-240.55C1122.77,-235.01 1186.89,-222.28 1237,-199 1268.41,-184.41 1300.37,-159.81 1319.44,-143.87"/>
<polygon fill="midnightblue" stroke="midnightblue" points="1321.9,-146.37 1327.25,-137.22 1317.36,-141.04 1321.9,-146.37"/>
</g>
<!-- Node36&#45;&gt;Node3 -->
<g id="edge52" class="edge">
<title>Node36&#45;&gt;Node3</title>
<path fill="none" stroke="midnightblue" d="M1041.48,-237.04C976.41,-217.77 793.53,-163.6 713.41,-139.88"/>
<polygon fill="midnightblue" stroke="midnightblue" points="714.3,-136.49 703.71,-137 712.31,-143.2 714.3,-136.49"/>
</g>
<!-- Node36&#45;&gt;Node5 -->
<g id="edge55" class="edge">
<title>Node36&#45;&gt;Node5</title>
<path fill="none" stroke="midnightblue" d="M1041.3,-241.32C962.55,-232.43 709.58,-203.85 619.35,-193.65"/>
<polygon fill="midnightblue" stroke="midnightblue" points="619.5,-190.15 609.17,-192.51 618.72,-197.11 619.5,-190.15"/>
</g>
<!-- Node36&#45;&gt;Node12 -->
<g id="edge53" class="edge">
<title>Node36&#45;&gt;Node12</title>
<path fill="none" stroke="midnightblue" d="M1074.29,-235.39C1082.58,-227.02 1094.14,-213.48 1099,-199 1107.14,-174.73 1099.52,-124.49 1088,-112 1073.03,-95.77 1022.64,-84.06 978.82,-76.66"/>
<polygon fill="midnightblue" stroke="midnightblue" points="979.16,-73.17 968.72,-75.01 978.03,-80.08 979.16,-73.17"/>
</g>
<!-- Node36&#45;&gt;Node21 -->
<g id="edge57" class="edge">
<title>Node36&#45;&gt;Node21</title>
<path fill="none" stroke="midnightblue" d="M1066.01,-235.05C1067.06,-221.08 1066.84,-194.11 1052,-179 1029.05,-155.64 945.01,-141.79 884.92,-134.66"/>
<polygon fill="midnightblue" stroke="midnightblue" points="885.08,-131.15 874.75,-133.49 884.28,-138.11 885.08,-131.15"/>
</g>
<!-- Node36&#45;&gt;Node22 -->
<g id="edge54" class="edge">
<title>Node36&#45;&gt;Node22</title>
<path fill="none" stroke="midnightblue" d="M1070.9,-235.24C1078.54,-222.82 1090.26,-199.35 1085,-179 1081.91,-167.06 1075.33,-154.94 1069.32,-145.56"/>
<polygon fill="midnightblue" stroke="midnightblue" points="1072.16,-143.52 1063.65,-137.21 1066.37,-147.45 1072.16,-143.52"/>
</g>
<!-- Node36&#45;&gt;Node29 -->
<g id="edge56" class="edge">
<title>Node36&#45;&gt;Node29</title>
<path fill="none" stroke="midnightblue" d="M1055.52,-235.32C1046.8,-227.34 1033.66,-215.31 1023.1,-205.65"/>
<polygon fill="midnightblue" stroke="midnightblue" points="1025.39,-203 1015.65,-198.83 1020.67,-208.17 1025.39,-203"/>
</g>
<!-- Node48&#45;&gt;Node2 -->
<g id="edge66" class="edge">
<title>Node48&#45;&gt;Node2</title>
<path fill="none" stroke="midnightblue" d="M1199.23,-408.53C1247.59,-400.52 1353.52,-376.17 1410,-311 1448.43,-266.65 1441.5,-226.47 1407,-179 1395.69,-163.44 1378.13,-150.79 1363.42,-142.04"/>
<polygon fill="midnightblue" stroke="midnightblue" points="1365.14,-138.99 1354.71,-137.11 1361.69,-145.08 1365.14,-138.99"/>
</g>
<!-- Node48&#45;&gt;Node3 -->
<g id="edge67" class="edge">
<title>Node48&#45;&gt;Node3</title>
<path fill="none" stroke="midnightblue" d="M1153.06,-403.44C1112.24,-386.63 1019.32,-347.71 943,-311 925.8,-302.73 922.21,-299.25 905,-291 868.74,-273.62 857.37,-274.13 822,-255 782.21,-233.47 771.13,-228.69 737,-199 718.09,-182.54 699.52,-160.41 687.71,-145.37"/>
<polygon fill="midnightblue" stroke="midnightblue" points="690.46,-143.2 681.58,-137.42 684.92,-147.48 690.46,-143.2"/>
</g>
<!-- Node48&#45;&gt;Node12 -->
<g id="edge69" class="edge">
<title>Node48&#45;&gt;Node12</title>
<path fill="none" stroke="midnightblue" d="M1199.15,-411.65C1268.19,-410.23 1458.79,-403.05 1508,-367 1555.96,-331.87 1565,-305.45 1565,-246 1565,-246 1565,-246 1565,-188 1565,-114.45 1488.63,-132.5 1418,-112 1337.59,-88.66 1099.65,-75.33 978.95,-69.9"/>
<polygon fill="midnightblue" stroke="midnightblue" points="978.85,-66.39 968.71,-69.44 978.54,-73.38 978.85,-66.39"/>
</g>
<!-- Node48&#45;&gt;Node15 -->
<g id="edge70" class="edge">
<title>Node48&#45;&gt;Node15</title>
<path fill="none" stroke="midnightblue" d="M1148.78,-408.5C1088.29,-400.1 933.57,-378.62 846.65,-366.56"/>
<polygon fill="midnightblue" stroke="midnightblue" points="847.04,-363.08 836.65,-365.17 846.08,-370.01 847.04,-363.08"/>
</g>
<!-- Node49 -->
<g id="node25" class="node">
<title>Node49</title>
<g id="a_node25"><a xlink:title=" ">
<polygon fill="none" stroke="#bfbfbf" points="1453,-347.5 1453,-366.5 1499,-366.5 1499,-347.5 1453,-347.5"/>
<text text-anchor="middle" x="1476" y="-354.5" font-family="Helvetica,sans-Serif" font-size="10.00">cstdio</text>
</a>
</g>
</g>
<!-- Node48&#45;&gt;Node49 -->
<g id="edge68" class="edge">
<title>Node48&#45;&gt;Node49</title>
<path fill="none" stroke="midnightblue" d="M1199.32,-408.31C1246.61,-401.28 1351.48,-385.05 1439,-367 1440.27,-366.74 1441.57,-366.46 1442.88,-366.18"/>
<polygon fill="midnightblue" stroke="midnightblue" points="1444,-369.51 1452.96,-363.87 1442.44,-362.69 1444,-369.51"/>
</g>
</g>
</svg>
