<?xml version="1.0" encoding="UTF-8" standalone="no"?>
<!DOCTYPE svg PUBLIC "-//W3C//DTD SVG 1.1//EN"
 "http://www.w3.org/Graphics/SVG/1.1/DTD/svg11.dtd">
<!-- Generated by graphviz version 2.43.0 (0)
 -->
<!-- Title: year.h Pages: 1 -->
<svg width="1084pt" height="375pt"
 viewBox="0.00 0.00 1084.00 375.00" xmlns="http://www.w3.org/2000/svg" xmlns:xlink="http://www.w3.org/1999/xlink">
<g id="graph0" class="graph" transform="scale(1 1) rotate(0) translate(4 371)">
<title>year.h</title>
<!-- Node1 -->
<g id="node1" class="node">
<title>Node1</title>
<g id="a_node1"><a xlink:title=" ">
<polygon fill="#bfbfbf" stroke="black" points="785.5,-347.5 785.5,-366.5 832.5,-366.5 832.5,-347.5 785.5,-347.5"/>
<text text-anchor="middle" x="809" y="-354.5" font-family="Helvetica,sans-Serif" font-size="10.00">year.h</text>
</a>
</g>
</g>
<!-- Node2 -->
<g id="node2" class="node">
<title>Node2</title>
<g id="a_node2"><a xlink:title=" ">
<polygon fill="none" stroke="#bfbfbf" points="382.5,-56.5 382.5,-75.5 471.5,-75.5 471.5,-56.5 382.5,-56.5"/>
<text text-anchor="middle" x="427" y="-63.5" font-family="Helvetica,sans-Serif" font-size="10.00">limes_export.h</text>
</a>
</g>
</g>
<!-- Node1&#45;&gt;Node2 -->
<g id="edge1" class="edge">
<title>Node1&#45;&gt;Node2</title>
<path fill="none" stroke="midnightblue" d="M800.78,-347.47C761.1,-306.35 590.08,-129.86 561,-112 535.41,-96.29 503.67,-85.31 477.5,-78.14"/>
<polygon fill="midnightblue" stroke="midnightblue" points="478.33,-74.74 467.77,-75.57 476.55,-81.51 478.33,-74.74"/>
</g>
<!-- Node3 -->
<g id="node3" class="node">
<title>Node3</title>
<g id="a_node3"><a xlink:href="../../da/d0b/limes__namespace_8h.html" target="_top" xlink:title=" ">
<polygon fill="none" stroke="black" points="808,-56.5 808,-75.5 922,-75.5 922,-56.5 808,-56.5"/>
<text text-anchor="middle" x="865" y="-63.5" font-family="Helvetica,sans-Serif" font-size="10.00">limes_namespace.h</text>
</a>
</g>
</g>
<!-- Node1&#45;&gt;Node3 -->
<g id="edge2" class="edge">
<title>Node1&#45;&gt;Node3</title>
<path fill="none" stroke="midnightblue" d="M832.52,-353.72C884.39,-347.27 1004,-323.93 1004,-246 1004,-246 1004,-246 1004,-188 1004,-132.61 940.43,-96.8 899.27,-79.42"/>
<polygon fill="midnightblue" stroke="midnightblue" points="900.43,-76.11 889.85,-75.59 897.8,-82.6 900.43,-76.11"/>
</g>
<!-- Node4 -->
<g id="node4" class="node">
<title>Node4</title>
<g id="a_node4"><a xlink:href="../../d3/d53/preprocessor_8h.html" target="_top" xlink:title=" ">
<polygon fill="none" stroke="black" points="55.5,-56.5 55.5,-75.5 178.5,-75.5 178.5,-56.5 55.5,-56.5"/>
<text text-anchor="middle" x="117" y="-63.5" font-family="Helvetica,sans-Serif" font-size="10.00">../misc/preprocessor.h</text>
</a>
</g>
</g>
<!-- Node1&#45;&gt;Node4 -->
<g id="edge3" class="edge">
<title>Node1&#45;&gt;Node4</title>
<path fill="none" stroke="midnightblue" d="M785.23,-355.34C651.6,-351.29 0,-327.41 0,-246 0,-246 0,-246 0,-188 0,-136.85 54.7,-99.08 89.3,-80.3"/>
<polygon fill="midnightblue" stroke="midnightblue" points="91.22,-83.25 98.46,-75.52 87.98,-77.04 91.22,-83.25"/>
</g>
<!-- Node6 -->
<g id="node6" class="node">
<title>Node6</title>
<g id="a_node6"><a xlink:href="../../d0/d00/compiler__defs_8h.html" target="_top" xlink:title=" ">
<polygon fill="none" stroke="black" points="104.5,-112.5 104.5,-142.5 211.5,-142.5 211.5,-112.5 104.5,-112.5"/>
<text text-anchor="start" x="112.5" y="-130.5" font-family="Helvetica,sans-Serif" font-size="10.00">../system/compiler</text>
<text text-anchor="middle" x="158" y="-119.5" font-family="Helvetica,sans-Serif" font-size="10.00">_defs.h</text>
</a>
</g>
</g>
<!-- Node1&#45;&gt;Node6 -->
<g id="edge5" class="edge">
<title>Node1&#45;&gt;Node6</title>
<path fill="none" stroke="midnightblue" d="M785.12,-353.31C734.71,-347.41 613.84,-332.18 514,-311 333.82,-272.78 225.72,-346.2 115,-199 103.11,-183.19 116.52,-163.95 131.42,-149.56"/>
<polygon fill="midnightblue" stroke="midnightblue" points="134.14,-151.83 139.22,-142.53 129.45,-146.63 134.14,-151.83"/>
</g>
<!-- Node7 -->
<g id="node7" class="node">
<title>Node7</title>
<g id="a_node7"><a xlink:title=" ">
<polygon fill="none" stroke="#bfbfbf" points="1032,-291.5 1032,-310.5 1076,-310.5 1076,-291.5 1032,-291.5"/>
<text text-anchor="middle" x="1054" y="-298.5" font-family="Helvetica,sans-Serif" font-size="10.00">ctime</text>
</a>
</g>
</g>
<!-- Node1&#45;&gt;Node7 -->
<g id="edge8" class="edge">
<title>Node1&#45;&gt;Node7</title>
<path fill="none" stroke="midnightblue" d="M832.56,-351.19C871.33,-343.22 950.94,-326.6 1018,-311 1019.27,-310.7 1020.57,-310.4 1021.87,-310.09"/>
<polygon fill="midnightblue" stroke="midnightblue" points="1023.05,-313.4 1031.94,-307.64 1021.4,-306.6 1023.05,-313.4"/>
</g>
<!-- Node8 -->
<g id="node8" class="node">
<title>Node8</title>
<g id="a_node8"><a xlink:href="../../d2/d38/year__impl_8h.html" target="_top" xlink:title=" ">
<polygon fill="none" stroke="black" points="522.5,-291.5 522.5,-310.5 621.5,-310.5 621.5,-291.5 522.5,-291.5"/>
<text text-anchor="middle" x="572" y="-298.5" font-family="Helvetica,sans-Serif" font-size="10.00">impl/year_impl.h</text>
</a>
</g>
</g>
<!-- Node1&#45;&gt;Node8 -->
<g id="edge9" class="edge">
<title>Node1&#45;&gt;Node8</title>
<path fill="none" stroke="midnightblue" d="M785.41,-350.62C746.85,-341.84 669.61,-324.24 619.39,-312.8"/>
<polygon fill="midnightblue" stroke="midnightblue" points="619.95,-309.34 609.42,-310.53 618.4,-316.16 619.95,-309.34"/>
</g>
<!-- Node5 -->
<g id="node5" class="node">
<title>Node5</title>
<g id="a_node5"><a xlink:title=" ">
<polygon fill="none" stroke="#bfbfbf" points="236,-0.5 236,-19.5 336,-19.5 336,-0.5 236,-0.5"/>
<text text-anchor="middle" x="286" y="-7.5" font-family="Helvetica,sans-Serif" font-size="10.00">limes_platform.h</text>
</a>
</g>
</g>
<!-- Node4&#45;&gt;Node5 -->
<g id="edge4" class="edge">
<title>Node4&#45;&gt;Node5</title>
<path fill="none" stroke="midnightblue" d="M143.78,-56.44C172.33,-47.32 217.73,-32.81 249.54,-22.65"/>
<polygon fill="midnightblue" stroke="midnightblue" points="250.89,-25.89 259.35,-19.52 248.76,-19.23 250.89,-25.89"/>
</g>
<!-- Node6&#45;&gt;Node4 -->
<g id="edge7" class="edge">
<title>Node6&#45;&gt;Node4</title>
<path fill="none" stroke="midnightblue" d="M148.28,-112.4C142.45,-103.93 134.98,-93.1 128.81,-84.14"/>
<polygon fill="midnightblue" stroke="midnightblue" points="131.52,-81.91 122.97,-75.66 125.76,-85.88 131.52,-81.91"/>
</g>
<!-- Node6&#45;&gt;Node5 -->
<g id="edge6" class="edge">
<title>Node6&#45;&gt;Node5</title>
<path fill="none" stroke="midnightblue" d="M173.7,-112.34C197.81,-90.58 243.78,-49.09 268.78,-26.54"/>
<polygon fill="midnightblue" stroke="midnightblue" points="271.31,-28.97 276.39,-19.67 266.62,-23.77 271.31,-28.97"/>
</g>
<!-- Node8&#45;&gt;Node3 -->
<g id="edge10" class="edge">
<title>Node8&#45;&gt;Node3</title>
<path fill="none" stroke="midnightblue" d="M621.77,-295.79C703.66,-285.8 863.82,-252.49 925,-143 931.72,-130.97 931.16,-124.32 925,-112 918.27,-98.54 905.39,-88.07 893.29,-80.62"/>
<polygon fill="midnightblue" stroke="midnightblue" points="894.72,-77.41 884.3,-75.52 891.27,-83.5 894.72,-77.41"/>
</g>
<!-- Node9 -->
<g id="node9" class="node">
<title>Node9</title>
<g id="a_node9"><a xlink:href="../../dd/dfb/math_helpers_8h.html" target="_top" xlink:title=" ">
<polygon fill="none" stroke="black" points="386.5,-235.5 386.5,-254.5 521.5,-254.5 521.5,-235.5 386.5,-235.5"/>
<text text-anchor="middle" x="454" y="-242.5" font-family="Helvetica,sans-Serif" font-size="10.00">../../math/mathHelpers.h</text>
</a>
</g>
</g>
<!-- Node8&#45;&gt;Node9 -->
<g id="edge11" class="edge">
<title>Node8&#45;&gt;Node9</title>
<path fill="none" stroke="midnightblue" d="M553.3,-291.44C534.06,-282.64 503.85,-268.81 481.8,-258.72"/>
<polygon fill="midnightblue" stroke="midnightblue" points="483.16,-255.5 472.61,-254.52 480.25,-261.86 483.16,-255.5"/>
</g>
<!-- Node17 -->
<g id="node17" class="node">
<title>Node17</title>
<g id="a_node17"><a xlink:href="../../dc/db3/build__date_8h.html" target="_top" xlink:title=" ">
<polygon fill="none" stroke="black" points="124,-179.5 124,-198.5 210,-198.5 210,-179.5 124,-179.5"/>
<text text-anchor="middle" x="167" y="-186.5" font-family="Helvetica,sans-Serif" font-size="10.00">../build_date.h</text>
</a>
</g>
</g>
<!-- Node8&#45;&gt;Node17 -->
<g id="edge32" class="edge">
<title>Node8&#45;&gt;Node17</title>
<path fill="none" stroke="midnightblue" d="M531.29,-291.44C491.89,-282.94 430.58,-269.18 378,-255 315.77,-238.22 244.27,-215.44 202.51,-201.79"/>
<polygon fill="midnightblue" stroke="midnightblue" points="203.41,-198.39 192.81,-198.6 201.22,-205.05 203.41,-198.39"/>
</g>
<!-- Node9&#45;&gt;Node2 -->
<g id="edge15" class="edge">
<title>Node9&#45;&gt;Node2</title>
<path fill="none" stroke="midnightblue" d="M425.63,-235.49C408.25,-228.65 387.4,-217.13 377,-199 354.65,-160.04 389.93,-109.21 411.78,-83.47"/>
<polygon fill="midnightblue" stroke="midnightblue" points="414.59,-85.58 418.57,-75.76 409.33,-80.95 414.59,-85.58"/>
</g>
<!-- Node9&#45;&gt;Node3 -->
<g id="edge12" class="edge">
<title>Node9&#45;&gt;Node3</title>
<path fill="none" stroke="midnightblue" d="M521.86,-239.12C636.67,-229.3 861.45,-202.75 909,-143 924.39,-123.65 902.63,-98.32 884.61,-82.35"/>
<polygon fill="midnightblue" stroke="midnightblue" points="886.64,-79.49 876.74,-75.73 882.13,-84.84 886.64,-79.49"/>
</g>
<!-- Node9&#45;&gt;Node4 -->
<g id="edge31" class="edge">
<title>Node9&#45;&gt;Node4</title>
<path fill="none" stroke="midnightblue" d="M386.36,-242.4C300.18,-239.12 157.29,-229.17 115,-199 81.93,-175.41 75.23,-150.88 87,-112 90.12,-101.7 96.45,-91.61 102.5,-83.6"/>
<polygon fill="midnightblue" stroke="midnightblue" points="105.23,-85.8 108.79,-75.82 99.78,-81.4 105.23,-85.8"/>
</g>
<!-- Node9&#45;&gt;Node6 -->
<g id="edge30" class="edge">
<title>Node9&#45;&gt;Node6</title>
<path fill="none" stroke="midnightblue" d="M387.14,-235.44C347.99,-228.81 298.29,-217.52 257,-199 228.83,-186.36 200.51,-165.13 181.42,-149.27"/>
<polygon fill="midnightblue" stroke="midnightblue" points="183.48,-146.42 173.59,-142.62 178.95,-151.76 183.48,-146.42"/>
</g>
<!-- Node10 -->
<g id="node10" class="node">
<title>Node10</title>
<g id="a_node10"><a xlink:title=" ">
<polygon fill="none" stroke="#bfbfbf" points="540.5,-179.5 540.5,-198.5 587.5,-198.5 587.5,-179.5 540.5,-179.5"/>
<text text-anchor="middle" x="564" y="-186.5" font-family="Helvetica,sans-Serif" font-size="10.00">cmath</text>
</a>
</g>
</g>
<!-- Node9&#45;&gt;Node10 -->
<g id="edge13" class="edge">
<title>Node9&#45;&gt;Node10</title>
<path fill="none" stroke="midnightblue" d="M471.67,-235.32C489.39,-226.62 516.9,-213.12 537.29,-203.11"/>
<polygon fill="midnightblue" stroke="midnightblue" points="538.94,-206.2 546.37,-198.65 535.85,-199.92 538.94,-206.2"/>
</g>
<!-- Node11 -->
<g id="node11" class="node">
<title>Node11</title>
<g id="a_node11"><a xlink:title=" ">
<polygon fill="none" stroke="#bfbfbf" points="830.5,-118 830.5,-137 899.5,-137 899.5,-118 830.5,-118"/>
<text text-anchor="middle" x="865" y="-125" font-family="Helvetica,sans-Serif" font-size="10.00">type_traits</text>
</a>
</g>
</g>
<!-- Node9&#45;&gt;Node11 -->
<g id="edge14" class="edge">
<title>Node9&#45;&gt;Node11</title>
<path fill="none" stroke="midnightblue" d="M485.52,-235.38C548.44,-218.15 694.03,-178.06 816,-143 819.53,-141.98 823.21,-140.92 826.88,-139.84"/>
<polygon fill="midnightblue" stroke="midnightblue" points="827.91,-143.19 836.52,-137.01 825.94,-136.47 827.91,-143.19"/>
</g>
<!-- Node12 -->
<g id="node12" class="node">
<title>Node12</title>
<g id="a_node12"><a xlink:title=" ">
<polygon fill="none" stroke="#bfbfbf" points="266,-179.5 266,-198.5 330,-198.5 330,-179.5 266,-179.5"/>
<text text-anchor="middle" x="298" y="-186.5" font-family="Helvetica,sans-Serif" font-size="10.00">algorithm</text>
</a>
</g>
</g>
<!-- Node9&#45;&gt;Node12 -->
<g id="edge16" class="edge">
<title>Node9&#45;&gt;Node12</title>
<path fill="none" stroke="midnightblue" d="M429.28,-235.44C403.15,-226.4 361.74,-212.06 332.42,-201.92"/>
<polygon fill="midnightblue" stroke="midnightblue" points="333.2,-198.48 322.6,-198.52 330.91,-205.1 333.2,-198.48"/>
</g>
<!-- Node13 -->
<g id="node13" class="node">
<title>Node13</title>
<g id="a_node13"><a xlink:href="../../d5/dbb/limes__assert_8h.html" target="_top" xlink:title=" ">
<polygon fill="none" stroke="black" points="386,-179.5 386,-198.5 522,-198.5 522,-179.5 386,-179.5"/>
<text text-anchor="middle" x="454" y="-186.5" font-family="Helvetica,sans-Serif" font-size="10.00">../system/limes_assert.h</text>
</a>
</g>
</g>
<!-- Node9&#45;&gt;Node13 -->
<g id="edge17" class="edge">
<title>Node9&#45;&gt;Node13</title>
<path fill="none" stroke="midnightblue" d="M454,-235.08C454,-228.01 454,-217.86 454,-208.99"/>
<polygon fill="midnightblue" stroke="midnightblue" points="457.5,-208.75 454,-198.75 450.5,-208.75 457.5,-208.75"/>
</g>
<!-- Node13&#45;&gt;Node2 -->
<g id="edge18" class="edge">
<title>Node13&#45;&gt;Node2</title>
<path fill="none" stroke="midnightblue" d="M441.5,-179.3C431.13,-171.25 417.11,-158.24 411,-143 403.34,-123.9 410.5,-100.57 417.53,-84.84"/>
<polygon fill="midnightblue" stroke="midnightblue" points="420.74,-86.24 421.97,-75.72 414.45,-83.17 420.74,-86.24"/>
</g>
<!-- Node13&#45;&gt;Node3 -->
<g id="edge19" class="edge">
<title>Node13&#45;&gt;Node3</title>
<path fill="none" stroke="midnightblue" d="M522.32,-179.52C613.93,-168.01 766.49,-148.25 778,-143 793.95,-135.72 828.68,-102.95 849.11,-82.89"/>
<polygon fill="midnightblue" stroke="midnightblue" points="851.76,-85.19 856.41,-75.67 846.84,-80.21 851.76,-85.19"/>
</g>
<!-- Node13&#45;&gt;Node4 -->
<g id="edge20" class="edge">
<title>Node13&#45;&gt;Node4</title>
<path fill="none" stroke="midnightblue" d="M430.3,-179.49C371.59,-158.41 219.21,-103.7 150.95,-79.19"/>
<polygon fill="midnightblue" stroke="midnightblue" points="151.72,-75.75 141.12,-75.66 149.35,-82.33 151.72,-75.75"/>
</g>
<!-- Node13&#45;&gt;Node5 -->
<g id="edge27" class="edge">
<title>Node13&#45;&gt;Node5</title>
<path fill="none" stroke="midnightblue" d="M443.51,-179.39C432.95,-170.59 416.37,-156.34 403,-143 363.44,-103.53 320.83,-53.26 299.62,-27.64"/>
<polygon fill="midnightblue" stroke="midnightblue" points="302.11,-25.16 293.05,-19.66 296.7,-29.61 302.11,-25.16"/>
</g>
<!-- Node13&#45;&gt;Node6 -->
<g id="edge29" class="edge">
<title>Node13&#45;&gt;Node6</title>
<path fill="none" stroke="midnightblue" d="M411.59,-179.48C361.9,-169.49 279.08,-152.84 221.67,-141.3"/>
<polygon fill="midnightblue" stroke="midnightblue" points="222.11,-137.82 211.61,-139.28 220.73,-144.68 222.11,-137.82"/>
</g>
<!-- Node13&#45;&gt;Node11 -->
<g id="edge21" class="edge">
<title>Node13&#45;&gt;Node11</title>
<path fill="none" stroke="midnightblue" d="M522.18,-180.14C619.07,-168.87 787.99,-148.84 816,-143 820.25,-142.11 824.67,-141.04 829.03,-139.87"/>
<polygon fill="midnightblue" stroke="midnightblue" points="830.34,-143.14 839.01,-137.05 828.43,-136.4 830.34,-143.14"/>
</g>
<!-- Node14 -->
<g id="node14" class="node">
<title>Node14</title>
<g id="a_node14"><a xlink:title=" ">
<polygon fill="none" stroke="#bfbfbf" points="506.5,-118 506.5,-137 551.5,-137 551.5,-118 506.5,-118"/>
<text text-anchor="middle" x="529" y="-125" font-family="Helvetica,sans-Serif" font-size="10.00">utility</text>
</a>
</g>
</g>
<!-- Node13&#45;&gt;Node14 -->
<g id="edge22" class="edge">
<title>Node13&#45;&gt;Node14</title>
<path fill="none" stroke="midnightblue" d="M464.75,-179.48C476.55,-170.11 495.74,-154.88 510.08,-143.51"/>
<polygon fill="midnightblue" stroke="midnightblue" points="512.62,-145.97 518.27,-137.01 508.26,-140.48 512.62,-145.97"/>
</g>
<!-- Node15 -->
<g id="node15" class="node">
<title>Node15</title>
<g id="a_node15"><a xlink:href="../../d1/d57/_ignore_unused_8h.html" target="_top" xlink:title=" ">
<polygon fill="none" stroke="black" points="608,-118 608,-137 736,-137 736,-118 608,-118"/>
<text text-anchor="middle" x="672" y="-125" font-family="Helvetica,sans-Serif" font-size="10.00">../misc/IgnoreUnused.h</text>
</a>
</g>
</g>
<!-- Node13&#45;&gt;Node15 -->
<g id="edge23" class="edge">
<title>Node13&#45;&gt;Node15</title>
<path fill="none" stroke="midnightblue" d="M485.23,-179.48C523.6,-169 588.79,-151.21 631.11,-139.66"/>
<polygon fill="midnightblue" stroke="midnightblue" points="632.1,-143.02 640.82,-137.01 630.26,-136.27 632.1,-143.02"/>
</g>
<!-- Node16 -->
<g id="node16" class="node">
<title>Node16</title>
<g id="a_node16"><a xlink:title=" ">
<polygon fill="none" stroke="#bfbfbf" points="420,-118 420,-137 488,-137 488,-118 420,-118"/>
<text text-anchor="middle" x="454" y="-125" font-family="Helvetica,sans-Serif" font-size="10.00">filesystem</text>
</a>
</g>
</g>
<!-- Node13&#45;&gt;Node16 -->
<g id="edge28" class="edge">
<title>Node13&#45;&gt;Node16</title>
<path fill="none" stroke="midnightblue" d="M454,-179.48C454,-171.08 454,-157.98 454,-147.16"/>
<polygon fill="midnightblue" stroke="midnightblue" points="457.5,-147.01 454,-137.01 450.5,-147.01 457.5,-147.01"/>
</g>
<!-- Node15&#45;&gt;Node2 -->
<g id="edge24" class="edge">
<title>Node15&#45;&gt;Node2</title>
<path fill="none" stroke="midnightblue" d="M636.9,-117.98C593.51,-107.44 519.59,-89.49 472.05,-77.94"/>
<polygon fill="midnightblue" stroke="midnightblue" points="472.58,-74.47 462.04,-75.51 470.93,-81.27 472.58,-74.47"/>
</g>
<!-- Node15&#45;&gt;Node3 -->
<g id="edge25" class="edge">
<title>Node15&#45;&gt;Node3</title>
<path fill="none" stroke="midnightblue" d="M699.65,-117.98C733.19,-107.64 789.87,-90.16 827.37,-78.6"/>
<polygon fill="midnightblue" stroke="midnightblue" points="828.87,-81.8 837.4,-75.51 826.81,-75.11 828.87,-81.8"/>
</g>
<!-- Node15&#45;&gt;Node5 -->
<g id="edge26" class="edge">
<title>Node15&#45;&gt;Node5</title>
<path fill="none" stroke="midnightblue" d="M651.38,-117.9C616.67,-103.66 544.16,-74.86 481,-56 433.99,-41.96 379.51,-29.72 340.11,-21.56"/>
<polygon fill="midnightblue" stroke="midnightblue" points="340.67,-18.11 330.17,-19.53 339.27,-24.96 340.67,-18.11"/>
</g>
<!-- Node17&#45;&gt;Node2 -->
<g id="edge33" class="edge">
<title>Node17&#45;&gt;Node2</title>
<path fill="none" stroke="midnightblue" d="M180.4,-179.45C204.22,-164.5 255.78,-133.15 302,-112 330.7,-98.87 364.43,-86.92 389.62,-78.64"/>
<polygon fill="midnightblue" stroke="midnightblue" points="390.73,-81.96 399.16,-75.54 388.57,-75.3 390.73,-81.96"/>
</g>
<!-- Node17&#45;&gt;Node3 -->
<g id="edge34" class="edge">
<title>Node17&#45;&gt;Node3</title>
<path fill="none" stroke="midnightblue" d="M210.01,-183.47C224.89,-181.96 241.67,-180.33 257,-179 365.33,-169.59 645.44,-186.73 745,-143 763.42,-134.91 761.57,-123.62 778,-112 796.04,-99.24 818.18,-87.84 835.61,-79.71"/>
<polygon fill="midnightblue" stroke="midnightblue" points="837.11,-82.87 844.75,-75.54 834.2,-76.5 837.11,-82.87"/>
</g>
<!-- Node17&#45;&gt;Node4 -->
<g id="edge35" class="edge">
<title>Node17&#45;&gt;Node4</title>
<path fill="none" stroke="midnightblue" d="M141.84,-179.38C125.58,-172.34 105.71,-160.65 96,-143 85.84,-124.53 95.51,-100.77 104.82,-84.77"/>
<polygon fill="midnightblue" stroke="midnightblue" points="108.02,-86.26 110.4,-75.94 102.1,-82.53 108.02,-86.26"/>
</g>
<!-- Node17&#45;&gt;Node6 -->
<g id="edge36" class="edge">
<title>Node17&#45;&gt;Node6</title>
<path fill="none" stroke="midnightblue" d="M165.71,-179.48C164.65,-172.47 163.1,-162.19 161.66,-152.7"/>
<polygon fill="midnightblue" stroke="midnightblue" points="165.08,-151.89 160.12,-142.52 158.16,-152.93 165.08,-151.89"/>
</g>
</g>
</svg>
