<?xml version="1.0" encoding="UTF-8" standalone="no"?>
<!DOCTYPE svg PUBLIC "-//W3C//DTD SVG 1.1//EN"
 "http://www.w3.org/Graphics/SVG/1.1/DTD/svg11.dtd">
<!-- Generated by graphviz version 2.43.0 (0)
 -->
<!-- Title: rectangle.h Pages: 1 -->
<svg width="1288pt" height="487pt"
 viewBox="0.00 0.00 1288.00 487.00" xmlns="http://www.w3.org/2000/svg" xmlns:xlink="http://www.w3.org/1999/xlink">
<g id="graph0" class="graph" transform="scale(1 1) rotate(0) translate(4 483)">
<title>rectangle.h</title>
<!-- Node1 -->
<g id="node1" class="node">
<title>Node1</title>
<g id="a_node1"><a xlink:title=" ">
<polygon fill="#bfbfbf" stroke="black" points="1130.5,-459.5 1130.5,-478.5 1201.5,-478.5 1201.5,-459.5 1130.5,-459.5"/>
<text text-anchor="middle" x="1166" y="-466.5" font-family="Helvetica,sans-Serif" font-size="10.00">rectangle.h</text>
</a>
</g>
</g>
<!-- Node2 -->
<g id="node2" class="node">
<title>Node2</title>
<g id="a_node2"><a xlink:href="../../da/d0b/limes__namespace_8h.html" target="_top" xlink:title=" ">
<polygon fill="none" stroke="black" points="833,-56.5 833,-75.5 947,-75.5 947,-56.5 833,-56.5"/>
<text text-anchor="middle" x="890" y="-63.5" font-family="Helvetica,sans-Serif" font-size="10.00">limes_namespace.h</text>
</a>
</g>
</g>
<!-- Node1&#45;&gt;Node2 -->
<g id="edge1" class="edge">
<title>Node1&#45;&gt;Node2</title>
<path fill="none" stroke="midnightblue" d="M1166.25,-459.39C1167.06,-414.1 1164.27,-202.14 1046,-112 1020.42,-92.5 986.65,-81.45 957.08,-75.18"/>
<polygon fill="midnightblue" stroke="midnightblue" points="957.71,-71.74 947.23,-73.23 956.36,-78.61 957.71,-71.74"/>
</g>
<!-- Node3 -->
<g id="node3" class="node">
<title>Node3</title>
<g id="a_node3"><a xlink:title=" ">
<polygon fill="none" stroke="#bfbfbf" points="1035.5,-56.5 1035.5,-75.5 1124.5,-75.5 1124.5,-56.5 1035.5,-56.5"/>
<text text-anchor="middle" x="1080" y="-63.5" font-family="Helvetica,sans-Serif" font-size="10.00">limes_export.h</text>
</a>
</g>
</g>
<!-- Node1&#45;&gt;Node3 -->
<g id="edge2" class="edge">
<title>Node1&#45;&gt;Node3</title>
<path fill="none" stroke="midnightblue" d="M1179.2,-459.46C1190.84,-451.33 1207.53,-438.12 1218,-423 1235.53,-397.68 1242,-388.8 1242,-358 1242,-358 1242,-358 1242,-188 1242,-128.39 1170.73,-94.62 1122.73,-78.64"/>
<polygon fill="midnightblue" stroke="midnightblue" points="1123.76,-75.3 1113.17,-75.59 1121.64,-81.97 1123.76,-75.3"/>
</g>
<!-- Node4 -->
<g id="node4" class="node">
<title>Node4</title>
<g id="a_node4"><a xlink:title=" ">
<polygon fill="none" stroke="#bfbfbf" points="354,-0.5 354,-19.5 454,-19.5 454,-0.5 354,-0.5"/>
<text text-anchor="middle" x="404" y="-7.5" font-family="Helvetica,sans-Serif" font-size="10.00">limes_platform.h</text>
</a>
</g>
</g>
<!-- Node1&#45;&gt;Node4 -->
<g id="edge3" class="edge">
<title>Node1&#45;&gt;Node4</title>
<path fill="none" stroke="midnightblue" d="M1186.64,-459.42C1219.5,-444.23 1280,-409.29 1280,-358 1280,-358 1280,-358 1280,-126.5 1280,-54.04 1203.13,-74.24 1133,-56 1007.19,-23.28 615.26,-14.11 464.21,-11.75"/>
<polygon fill="midnightblue" stroke="midnightblue" points="464.23,-8.25 454.18,-11.6 464.13,-15.25 464.23,-8.25"/>
</g>
<!-- Node5 -->
<g id="node5" class="node">
<title>Node5</title>
<g id="a_node5"><a xlink:href="../../d8/d23/2_dshape_8h.html" target="_top" xlink:title=" ">
<polygon fill="none" stroke="black" points="1070,-291.5 1070,-310.5 1138,-310.5 1138,-291.5 1070,-291.5"/>
<text text-anchor="middle" x="1104" y="-298.5" font-family="Helvetica,sans-Serif" font-size="10.00">2Dshape.h</text>
</a>
</g>
</g>
<!-- Node1&#45;&gt;Node5 -->
<g id="edge4" class="edge">
<title>Node1&#45;&gt;Node5</title>
<path fill="none" stroke="midnightblue" d="M1162.67,-459.08C1152.87,-432.83 1124,-355.55 1110.77,-320.12"/>
<polygon fill="midnightblue" stroke="midnightblue" points="1113.98,-318.71 1107.2,-310.57 1107.42,-321.16 1113.98,-318.71"/>
</g>
<!-- Node6 -->
<g id="node6" class="node">
<title>Node6</title>
<g id="a_node6"><a xlink:href="../../d3/d53/preprocessor_8h.html" target="_top" xlink:title=" ">
<polygon fill="none" stroke="black" points="97.5,-56.5 97.5,-75.5 238.5,-75.5 238.5,-56.5 97.5,-56.5"/>
<text text-anchor="middle" x="168" y="-63.5" font-family="Helvetica,sans-Serif" font-size="10.00">../../../misc/preprocessor.h</text>
</a>
</g>
</g>
<!-- Node1&#45;&gt;Node6 -->
<g id="edge7" class="edge">
<title>Node1&#45;&gt;Node6</title>
<path fill="none" stroke="midnightblue" d="M1130.31,-466.71C973.14,-460.7 342.4,-432.82 157,-367 114.37,-351.86 96.89,-348.78 72,-311 39.64,-261.87 51.93,-236.97 62,-179 67.41,-147.84 65.47,-136.06 86,-112 98.42,-97.44 116.79,-86.75 132.99,-79.45"/>
<polygon fill="midnightblue" stroke="midnightblue" points="134.38,-82.66 142.22,-75.54 131.65,-76.22 134.38,-82.66"/>
</g>
<!-- Node7 -->
<g id="node7" class="node">
<title>Node7</title>
<g id="a_node7"><a xlink:href="../../dd/d6a/triangle_8h.html" target="_top" xlink:title=" ">
<polygon fill="none" stroke="black" points="858.5,-403.5 858.5,-422.5 921.5,-422.5 921.5,-403.5 858.5,-403.5"/>
<text text-anchor="middle" x="890" y="-410.5" font-family="Helvetica,sans-Serif" font-size="10.00">triangle.h</text>
</a>
</g>
</g>
<!-- Node1&#45;&gt;Node7 -->
<g id="edge9" class="edge">
<title>Node1&#45;&gt;Node7</title>
<path fill="none" stroke="midnightblue" d="M1130.48,-461.05C1079.47,-451.07 985.64,-432.71 931.49,-422.12"/>
<polygon fill="midnightblue" stroke="midnightblue" points="932.03,-418.66 921.54,-420.17 930.68,-425.53 932.03,-418.66"/>
</g>
<!-- Node13 -->
<g id="node13" class="node">
<title>Node13</title>
<g id="a_node13"><a xlink:title=" ">
<polygon fill="none" stroke="#bfbfbf" points="890.5,-179.5 890.5,-198.5 937.5,-198.5 937.5,-179.5 890.5,-179.5"/>
<text text-anchor="middle" x="914" y="-186.5" font-family="Helvetica,sans-Serif" font-size="10.00">cmath</text>
</a>
</g>
</g>
<!-- Node1&#45;&gt;Node13 -->
<g id="edge46" class="edge">
<title>Node1&#45;&gt;Node13</title>
<path fill="none" stroke="midnightblue" d="M1130.45,-460.54C1082.76,-448.22 1004,-418.68 1004,-358 1004,-358 1004,-358 1004,-300 1004,-257.66 963.56,-222.66 936.9,-204.18"/>
<polygon fill="midnightblue" stroke="midnightblue" points="938.72,-201.19 928.46,-198.56 934.84,-207.02 938.72,-201.19"/>
</g>
<!-- Node5&#45;&gt;Node2 -->
<g id="edge5" class="edge">
<title>Node5&#45;&gt;Node2</title>
<path fill="none" stroke="midnightblue" d="M1102.71,-291.31C1097.81,-261.38 1077.47,-161.73 1018,-112 998.32,-95.54 972.21,-84.94 948.7,-78.19"/>
<polygon fill="midnightblue" stroke="midnightblue" points="949.38,-74.75 938.82,-75.53 947.56,-81.51 949.38,-74.75"/>
</g>
<!-- Node5&#45;&gt;Node3 -->
<g id="edge6" class="edge">
<title>Node5&#45;&gt;Node3</title>
<path fill="none" stroke="midnightblue" d="M1104.3,-291.29C1105.06,-264.37 1106.23,-180.21 1094,-112 1092.39,-103.04 1089.54,-93.37 1086.83,-85.3"/>
<polygon fill="midnightblue" stroke="midnightblue" points="1090.1,-84.06 1083.46,-75.8 1083.5,-86.4 1090.1,-84.06"/>
</g>
<!-- Node6&#45;&gt;Node4 -->
<g id="edge8" class="edge">
<title>Node6&#45;&gt;Node4</title>
<path fill="none" stroke="midnightblue" d="M205.39,-56.44C246.39,-47.06 312.25,-31.99 356.78,-21.8"/>
<polygon fill="midnightblue" stroke="midnightblue" points="357.81,-25.16 366.78,-19.52 356.25,-18.34 357.81,-25.16"/>
</g>
<!-- Node7&#45;&gt;Node2 -->
<g id="edge10" class="edge">
<title>Node7&#45;&gt;Node2</title>
<path fill="none" stroke="midnightblue" d="M921.86,-404.28C966.44,-391.37 1042,-360.8 1042,-302 1042,-302 1042,-302 1042,-244 1042,-166.83 957.81,-106.49 914.75,-80.67"/>
<polygon fill="midnightblue" stroke="midnightblue" points="916.38,-77.57 905.98,-75.55 912.85,-83.62 916.38,-77.57"/>
</g>
<!-- Node7&#45;&gt;Node3 -->
<g id="edge11" class="edge">
<title>Node7&#45;&gt;Node3</title>
<path fill="none" stroke="midnightblue" d="M921.51,-411.93C981.14,-409.81 1108.03,-395.18 1147,-311 1167.7,-266.28 1250.27,-440.62 1111,-112 1106.7,-101.86 1099.93,-91.67 1093.82,-83.56"/>
<polygon fill="midnightblue" stroke="midnightblue" points="1096.53,-81.34 1087.58,-75.67 1091.03,-85.68 1096.53,-81.34"/>
</g>
<!-- Node7&#45;&gt;Node4 -->
<g id="edge12" class="edge">
<title>Node7&#45;&gt;Node4</title>
<path fill="none" stroke="midnightblue" d="M858.48,-412.21C735.76,-412.71 290.04,-411.37 157,-367 57.25,-333.73 0,-295.15 0,-190 0,-190 0,-190 0,-126.5 0,-76.39 42.01,-75.9 88,-56 171.63,-19.8 278.22,-11.54 343.76,-10.26"/>
<polygon fill="midnightblue" stroke="midnightblue" points="343.96,-13.76 353.91,-10.11 343.86,-6.76 343.96,-13.76"/>
</g>
<!-- Node7&#45;&gt;Node5 -->
<g id="edge13" class="edge">
<title>Node7&#45;&gt;Node5</title>
<path fill="none" stroke="midnightblue" d="M921.63,-409.63C957.08,-405.66 1014.96,-395.06 1056,-367 1073.5,-355.03 1087.07,-334.54 1095.24,-319.76"/>
<polygon fill="midnightblue" stroke="midnightblue" points="1098.49,-321.1 1100.03,-310.62 1092.29,-317.86 1098.49,-321.1"/>
</g>
<!-- Node7&#45;&gt;Node6 -->
<g id="edge14" class="edge">
<title>Node7&#45;&gt;Node6</title>
<path fill="none" stroke="midnightblue" d="M858.09,-411.11C707.59,-406.51 76,-382.39 76,-302 76,-302 76,-302 76,-188 76,-141.57 119.46,-101.8 146.64,-81.47"/>
<polygon fill="midnightblue" stroke="midnightblue" points="148.76,-84.26 154.82,-75.57 144.66,-78.58 148.76,-84.26"/>
</g>
<!-- Node8 -->
<g id="node8" class="node">
<title>Node8</title>
<g id="a_node8"><a xlink:href="../../da/dac/angle_8h.html" target="_top" xlink:title=" ">
<polygon fill="none" stroke="black" points="808.5,-347.5 808.5,-366.5 861.5,-366.5 861.5,-347.5 808.5,-347.5"/>
<text text-anchor="middle" x="835" y="-354.5" font-family="Helvetica,sans-Serif" font-size="10.00">angle.h</text>
</a>
</g>
</g>
<!-- Node7&#45;&gt;Node8 -->
<g id="edge15" class="edge">
<title>Node7&#45;&gt;Node8</title>
<path fill="none" stroke="midnightblue" d="M880.92,-403.08C872.83,-395.14 860.8,-383.34 851.09,-373.8"/>
<polygon fill="midnightblue" stroke="midnightblue" points="853.5,-371.26 843.91,-366.75 848.6,-376.25 853.5,-371.26"/>
</g>
<!-- Node9 -->
<g id="node9" class="node">
<title>Node9</title>
<g id="a_node9"><a xlink:href="../../dc/d5c/math_functions_8h.html" target="_top" xlink:title=" ">
<polygon fill="none" stroke="black" points="264,-291.5 264,-310.5 380,-310.5 380,-291.5 264,-291.5"/>
<text text-anchor="middle" x="322" y="-298.5" font-family="Helvetica,sans-Serif" font-size="10.00">../../mathFunctions.h</text>
</a>
</g>
</g>
<!-- Node7&#45;&gt;Node9 -->
<g id="edge44" class="edge">
<title>Node7&#45;&gt;Node9</title>
<path fill="none" stroke="midnightblue" d="M858.24,-405.85C765.26,-387.84 492.82,-335.08 376.1,-312.48"/>
<polygon fill="midnightblue" stroke="midnightblue" points="376.45,-308.98 365.96,-310.51 375.12,-315.85 376.45,-308.98"/>
</g>
<!-- Node7&#45;&gt;Node13 -->
<g id="edge45" class="edge">
<title>Node7&#45;&gt;Node13</title>
<path fill="none" stroke="midnightblue" d="M890.94,-403.3C894.47,-370.63 906.99,-254.87 911.95,-208.96"/>
<polygon fill="midnightblue" stroke="midnightblue" points="915.44,-209.2 913.04,-198.88 908.48,-208.45 915.44,-209.2"/>
</g>
<!-- Node8&#45;&gt;Node2 -->
<g id="edge17" class="edge">
<title>Node8&#45;&gt;Node2</title>
<path fill="none" stroke="midnightblue" d="M836.65,-347.35C844.22,-307.55 875.81,-141.55 886.47,-85.55"/>
<polygon fill="midnightblue" stroke="midnightblue" points="889.93,-86.09 888.36,-75.62 883.05,-84.78 889.93,-86.09"/>
</g>
<!-- Node8&#45;&gt;Node3 -->
<g id="edge16" class="edge">
<title>Node8&#45;&gt;Node3</title>
<path fill="none" stroke="midnightblue" d="M846.13,-347.4C880.26,-320.53 984.88,-234.52 1047,-143 1059.34,-124.82 1068.7,-101.28 1074.25,-85.24"/>
<polygon fill="midnightblue" stroke="midnightblue" points="1077.65,-86.1 1077.47,-75.5 1071.01,-83.9 1077.65,-86.1"/>
</g>
<!-- Node8&#45;&gt;Node4 -->
<g id="edge18" class="edge">
<title>Node8&#45;&gt;Node4</title>
<path fill="none" stroke="midnightblue" d="M808.29,-355.9C730.96,-353.94 507.09,-336.22 423,-199 389.9,-144.99 395.92,-65.49 400.88,-29.69"/>
<polygon fill="midnightblue" stroke="midnightblue" points="404.36,-30.1 402.4,-19.69 397.44,-29.05 404.36,-30.1"/>
</g>
<!-- Node8&#45;&gt;Node9 -->
<g id="edge19" class="edge">
<title>Node8&#45;&gt;Node9</title>
<path fill="none" stroke="midnightblue" d="M808.38,-353.5C739.71,-346.99 550.95,-328.82 394,-311 392.73,-310.86 391.45,-310.71 390.16,-310.56"/>
<polygon fill="midnightblue" stroke="midnightblue" points="390.49,-307.07 380.15,-309.38 389.67,-314.03 390.49,-307.07"/>
</g>
<!-- Node9&#45;&gt;Node2 -->
<g id="edge20" class="edge">
<title>Node9&#45;&gt;Node2</title>
<path fill="none" stroke="midnightblue" d="M380.01,-299.58C447.55,-297.41 561.51,-288.49 653,-255 740.07,-223.13 759.95,-204.87 829,-143 848.8,-125.26 867.28,-100.66 878.6,-84.31"/>
<polygon fill="midnightblue" stroke="midnightblue" points="881.68,-85.99 884.39,-75.75 875.89,-82.07 881.68,-85.99"/>
</g>
<!-- Node9&#45;&gt;Node3 -->
<g id="edge22" class="edge">
<title>Node9&#45;&gt;Node3</title>
<path fill="none" stroke="midnightblue" d="M380.08,-295.52C515.57,-284.28 848.47,-251.96 946,-199 999.86,-169.75 1046.77,-112.44 1067.97,-83.93"/>
<polygon fill="midnightblue" stroke="midnightblue" points="1070.87,-85.91 1073.93,-75.76 1065.21,-81.78 1070.87,-85.91"/>
</g>
<!-- Node9&#45;&gt;Node6 -->
<g id="edge26" class="edge">
<title>Node9&#45;&gt;Node6</title>
<path fill="none" stroke="midnightblue" d="M303.04,-291.44C262.55,-271.94 168.43,-219.9 133,-143 127.23,-130.49 128.53,-125.03 133,-112 136.72,-101.16 144.23,-90.92 151.35,-82.96"/>
<polygon fill="midnightblue" stroke="midnightblue" points="154.05,-85.19 158.44,-75.55 149,-80.35 154.05,-85.19"/>
</g>
<!-- Node10 -->
<g id="node10" class="node">
<title>Node10</title>
<g id="a_node10"><a xlink:title=" ">
<polygon fill="none" stroke="#bfbfbf" points="142.5,-118 142.5,-137 211.5,-137 211.5,-118 142.5,-118"/>
<text text-anchor="middle" x="177" y="-125" font-family="Helvetica,sans-Serif" font-size="10.00">type_traits</text>
</a>
</g>
</g>
<!-- Node9&#45;&gt;Node10 -->
<g id="edge21" class="edge">
<title>Node9&#45;&gt;Node10</title>
<path fill="none" stroke="midnightblue" d="M314.61,-291.26C291.63,-264.08 221.14,-180.71 190.96,-145.01"/>
<polygon fill="midnightblue" stroke="midnightblue" points="193.33,-142.4 184.2,-137.02 187.99,-146.92 193.33,-142.4"/>
</g>
<!-- Node11 -->
<g id="node11" class="node">
<title>Node11</title>
<g id="a_node11"><a xlink:href="../../d0/d00/compiler__defs_8h.html" target="_top" xlink:title=" ">
<polygon fill="none" stroke="black" points="268.5,-112.5 268.5,-142.5 375.5,-142.5 375.5,-112.5 268.5,-112.5"/>
<text text-anchor="start" x="276.5" y="-130.5" font-family="Helvetica,sans-Serif" font-size="10.00">../system/compiler</text>
<text text-anchor="middle" x="322" y="-119.5" font-family="Helvetica,sans-Serif" font-size="10.00">_defs.h</text>
</a>
</g>
</g>
<!-- Node9&#45;&gt;Node11 -->
<g id="edge23" class="edge">
<title>Node9&#45;&gt;Node11</title>
<path fill="none" stroke="midnightblue" d="M322,-291.26C322,-265.97 322,-192.08 322,-153.15"/>
<polygon fill="midnightblue" stroke="midnightblue" points="325.5,-152.72 322,-142.72 318.5,-152.72 325.5,-152.72"/>
</g>
<!-- Node12 -->
<g id="node12" class="node">
<title>Node12</title>
<g id="a_node12"><a xlink:href="../../dc/d9b/math_functions__impl_8h.html" target="_top" xlink:title=" ">
<polygon fill="none" stroke="black" points="519.5,-235.5 519.5,-254.5 644.5,-254.5 644.5,-235.5 519.5,-235.5"/>
<text text-anchor="middle" x="582" y="-242.5" font-family="Helvetica,sans-Serif" font-size="10.00">mathFunctions_impl.h</text>
</a>
</g>
</g>
<!-- Node9&#45;&gt;Node12 -->
<g id="edge27" class="edge">
<title>Node9&#45;&gt;Node12</title>
<path fill="none" stroke="midnightblue" d="M363.2,-291.44C408.65,-282 481.84,-266.8 530.91,-256.61"/>
<polygon fill="midnightblue" stroke="midnightblue" points="531.92,-259.98 540.99,-254.52 530.49,-253.12 531.92,-259.98"/>
</g>
<!-- Node11&#45;&gt;Node4 -->
<g id="edge24" class="edge">
<title>Node11&#45;&gt;Node4</title>
<path fill="none" stroke="midnightblue" d="M332.05,-112.34C347.17,-91.05 375.68,-50.89 391.91,-28.03"/>
<polygon fill="midnightblue" stroke="midnightblue" points="394.91,-29.85 397.85,-19.67 389.2,-25.8 394.91,-29.85"/>
</g>
<!-- Node11&#45;&gt;Node6 -->
<g id="edge25" class="edge">
<title>Node11&#45;&gt;Node6</title>
<path fill="none" stroke="midnightblue" d="M285.5,-112.4C259.43,-102.33 224.71,-88.91 199.78,-79.28"/>
<polygon fill="midnightblue" stroke="midnightblue" points="201,-76 190.41,-75.66 198.47,-82.53 201,-76"/>
</g>
<!-- Node12&#45;&gt;Node2 -->
<g id="edge28" class="edge">
<title>Node12&#45;&gt;Node2</title>
<path fill="none" stroke="midnightblue" d="M604.34,-235.42C644.12,-219.7 729.24,-184.11 795,-143 810.63,-133.23 849.12,-101.44 872.02,-82.21"/>
<polygon fill="midnightblue" stroke="midnightblue" points="874.29,-84.88 879.68,-75.76 869.78,-79.52 874.29,-84.88"/>
</g>
<!-- Node12&#45;&gt;Node13 -->
<g id="edge29" class="edge">
<title>Node12&#45;&gt;Node13</title>
<path fill="none" stroke="midnightblue" d="M634.61,-235.44C703.46,-224.24 822.16,-204.94 880.15,-195.51"/>
<polygon fill="midnightblue" stroke="midnightblue" points="880.93,-198.92 890.24,-193.86 879.81,-192.02 880.93,-198.92"/>
</g>
<!-- Node14 -->
<g id="node14" class="node">
<title>Node14</title>
<g id="a_node14"><a xlink:title=" ">
<polygon fill="none" stroke="#bfbfbf" points="432,-179.5 432,-198.5 496,-198.5 496,-179.5 432,-179.5"/>
<text text-anchor="middle" x="464" y="-186.5" font-family="Helvetica,sans-Serif" font-size="10.00">algorithm</text>
</a>
</g>
</g>
<!-- Node12&#45;&gt;Node14 -->
<g id="edge30" class="edge">
<title>Node12&#45;&gt;Node14</title>
<path fill="none" stroke="midnightblue" d="M563.3,-235.44C544.06,-226.64 513.85,-212.81 491.8,-202.72"/>
<polygon fill="midnightblue" stroke="midnightblue" points="493.16,-199.5 482.61,-198.52 490.25,-205.86 493.16,-199.5"/>
</g>
<!-- Node15 -->
<g id="node15" class="node">
<title>Node15</title>
<g id="a_node15"><a xlink:href="../../d5/dbb/limes__assert_8h.html" target="_top" xlink:title=" ">
<polygon fill="none" stroke="black" points="514,-179.5 514,-198.5 650,-198.5 650,-179.5 514,-179.5"/>
<text text-anchor="middle" x="582" y="-186.5" font-family="Helvetica,sans-Serif" font-size="10.00">../system/limes_assert.h</text>
</a>
</g>
</g>
<!-- Node12&#45;&gt;Node15 -->
<g id="edge31" class="edge">
<title>Node12&#45;&gt;Node15</title>
<path fill="none" stroke="midnightblue" d="M582,-235.08C582,-228.01 582,-217.86 582,-208.99"/>
<polygon fill="midnightblue" stroke="midnightblue" points="585.5,-208.75 582,-198.75 578.5,-208.75 585.5,-208.75"/>
</g>
<!-- Node15&#45;&gt;Node2 -->
<g id="edge33" class="edge">
<title>Node15&#45;&gt;Node2</title>
<path fill="none" stroke="midnightblue" d="M586.96,-179.25C596.63,-163.09 619.63,-128.68 649,-112 702.33,-81.72 771.96,-71.27 822.66,-67.92"/>
<polygon fill="midnightblue" stroke="midnightblue" points="823.08,-71.4 832.86,-67.32 822.67,-64.41 823.08,-71.4"/>
</g>
<!-- Node15&#45;&gt;Node3 -->
<g id="edge32" class="edge">
<title>Node15&#45;&gt;Node3</title>
<path fill="none" stroke="midnightblue" d="M625.8,-179.44C668.97,-170.85 736.73,-156.91 795,-143 883.15,-121.95 985.64,-93.68 1040.5,-78.24"/>
<polygon fill="midnightblue" stroke="midnightblue" points="1041.5,-81.59 1050.18,-75.51 1039.6,-74.85 1041.5,-81.59"/>
</g>
<!-- Node15&#45;&gt;Node4 -->
<g id="edge41" class="edge">
<title>Node15&#45;&gt;Node4</title>
<path fill="none" stroke="midnightblue" d="M533.84,-179.48C509.47,-173.02 480.91,-161.91 461,-143 443.76,-126.63 420.62,-61.55 409.9,-29.3"/>
<polygon fill="midnightblue" stroke="midnightblue" points="413.21,-28.16 406.77,-19.74 406.56,-30.34 413.21,-28.16"/>
</g>
<!-- Node15&#45;&gt;Node6 -->
<g id="edge34" class="edge">
<title>Node15&#45;&gt;Node6</title>
<path fill="none" stroke="midnightblue" d="M513.91,-179.48C422.6,-167.92 270.53,-148.11 259,-143 254.75,-141.12 211.21,-104.07 185.93,-82.41"/>
<polygon fill="midnightblue" stroke="midnightblue" points="188.01,-79.58 178.14,-75.73 183.45,-84.89 188.01,-79.58"/>
</g>
<!-- Node15&#45;&gt;Node10 -->
<g id="edge35" class="edge">
<title>Node15&#45;&gt;Node10</title>
<path fill="none" stroke="midnightblue" d="M513.76,-179.98C418.29,-168.66 253.44,-148.75 226,-143 221.75,-142.11 217.34,-141.03 212.97,-139.86"/>
<polygon fill="midnightblue" stroke="midnightblue" points="213.57,-136.39 202.99,-137.04 211.66,-143.13 213.57,-136.39"/>
</g>
<!-- Node15&#45;&gt;Node11 -->
<g id="edge43" class="edge">
<title>Node15&#45;&gt;Node11</title>
<path fill="none" stroke="midnightblue" d="M544.75,-179.48C503.37,-170.01 435.83,-154.55 385.95,-143.14"/>
<polygon fill="midnightblue" stroke="midnightblue" points="386.44,-139.66 375.91,-140.84 384.88,-146.48 386.44,-139.66"/>
</g>
<!-- Node16 -->
<g id="node16" class="node">
<title>Node16</title>
<g id="a_node16"><a xlink:title=" ">
<polygon fill="none" stroke="#bfbfbf" points="470.5,-118 470.5,-137 515.5,-137 515.5,-118 470.5,-118"/>
<text text-anchor="middle" x="493" y="-125" font-family="Helvetica,sans-Serif" font-size="10.00">utility</text>
</a>
</g>
</g>
<!-- Node15&#45;&gt;Node16 -->
<g id="edge36" class="edge">
<title>Node15&#45;&gt;Node16</title>
<path fill="none" stroke="midnightblue" d="M569.25,-179.48C554.97,-169.93 531.6,-154.31 514.49,-142.87"/>
<polygon fill="midnightblue" stroke="midnightblue" points="515.99,-139.66 505.73,-137.01 512.1,-145.48 515.99,-139.66"/>
</g>
<!-- Node17 -->
<g id="node17" class="node">
<title>Node17</title>
<g id="a_node17"><a xlink:href="../../d1/d57/_ignore_unused_8h.html" target="_top" xlink:title=" ">
<polygon fill="none" stroke="black" points="658,-118 658,-137 786,-137 786,-118 658,-118"/>
<text text-anchor="middle" x="722" y="-125" font-family="Helvetica,sans-Serif" font-size="10.00">../misc/IgnoreUnused.h</text>
</a>
</g>
</g>
<!-- Node15&#45;&gt;Node17 -->
<g id="edge37" class="edge">
<title>Node15&#45;&gt;Node17</title>
<path fill="none" stroke="midnightblue" d="M602.06,-179.48C625.76,-169.4 665.41,-152.55 692.58,-141"/>
<polygon fill="midnightblue" stroke="midnightblue" points="694.14,-144.14 701.98,-137.01 691.41,-137.7 694.14,-144.14"/>
</g>
<!-- Node18 -->
<g id="node18" class="node">
<title>Node18</title>
<g id="a_node18"><a xlink:title=" ">
<polygon fill="none" stroke="#bfbfbf" points="534,-118 534,-137 602,-137 602,-118 534,-118"/>
<text text-anchor="middle" x="568" y="-125" font-family="Helvetica,sans-Serif" font-size="10.00">filesystem</text>
</a>
</g>
</g>
<!-- Node15&#45;&gt;Node18 -->
<g id="edge42" class="edge">
<title>Node15&#45;&gt;Node18</title>
<path fill="none" stroke="midnightblue" d="M579.99,-179.48C578,-170.99 574.87,-157.7 572.31,-146.82"/>
<polygon fill="midnightblue" stroke="midnightblue" points="575.7,-145.94 570,-137.01 568.89,-147.54 575.7,-145.94"/>
</g>
<!-- Node17&#45;&gt;Node2 -->
<g id="edge39" class="edge">
<title>Node17&#45;&gt;Node2</title>
<path fill="none" stroke="midnightblue" d="M746.07,-117.98C775.01,-107.72 823.76,-90.46 856.4,-78.9"/>
<polygon fill="midnightblue" stroke="midnightblue" points="857.72,-82.15 865.97,-75.51 855.38,-75.55 857.72,-82.15"/>
</g>
<!-- Node17&#45;&gt;Node3 -->
<g id="edge38" class="edge">
<title>Node17&#45;&gt;Node3</title>
<path fill="none" stroke="midnightblue" d="M773.29,-117.98C840.14,-106.86 956.57,-87.51 1025.13,-76.12"/>
<polygon fill="midnightblue" stroke="midnightblue" points="1026.01,-79.52 1035.3,-74.43 1024.86,-72.62 1026.01,-79.52"/>
</g>
<!-- Node17&#45;&gt;Node4 -->
<g id="edge40" class="edge">
<title>Node17&#45;&gt;Node4</title>
<path fill="none" stroke="midnightblue" d="M698.36,-117.91C642.48,-97.62 502.1,-46.63 437.49,-23.16"/>
<polygon fill="midnightblue" stroke="midnightblue" points="438.39,-19.77 427.8,-19.64 436,-26.35 438.39,-19.77"/>
</g>
</g>
</svg>
