<?xml version="1.0" encoding="UTF-8" standalone="no"?>
<!DOCTYPE svg PUBLIC "-//W3C//DTD SVG 1.1//EN"
 "http://www.w3.org/Graphics/SVG/1.1/DTD/svg11.dtd">
<!-- Generated by graphviz version 2.43.0 (0)
 -->
<!-- Title: rectangle.h Pages: 1 -->
<svg width="1228pt" height="420pt"
 viewBox="0.00 0.00 1228.00 420.00" xmlns="http://www.w3.org/2000/svg" xmlns:xlink="http://www.w3.org/1999/xlink">
<g id="graph0" class="graph" transform="scale(1 1) rotate(0) translate(4 416)">
<title>rectangle.h</title>
<!-- Node1 -->
<g id="node1" class="node">
<title>Node1</title>
<g id="a_node1"><a xlink:title=" ">
<polygon fill="#bfbfbf" stroke="black" points="1032.5,-392.5 1032.5,-411.5 1103.5,-411.5 1103.5,-392.5 1032.5,-392.5"/>
<text text-anchor="middle" x="1068" y="-399.5" font-family="Helvetica,sans-Serif" font-size="10.00">rectangle.h</text>
</a>
</g>
</g>
<!-- Node2 -->
<g id="node2" class="node">
<title>Node2</title>
<g id="a_node2"><a xlink:href="../../da/d0b/limes__namespace_8h.html" target="_top" xlink:title=" ">
<polygon fill="none" stroke="black" points="599,-56.5 599,-75.5 713,-75.5 713,-56.5 599,-56.5"/>
<text text-anchor="middle" x="656" y="-63.5" font-family="Helvetica,sans-Serif" font-size="10.00">limes_namespace.h</text>
</a>
</g>
</g>
<!-- Node1&#45;&gt;Node2 -->
<g id="edge1" class="edge">
<title>Node1&#45;&gt;Node2</title>
<path fill="none" stroke="midnightblue" d="M1070.07,-392.36C1076.22,-364.31 1091.5,-274.68 1049,-224 959.93,-117.79 875.83,-192.26 751,-132 735.68,-124.6 698.72,-98.3 675.68,-81.5"/>
<polygon fill="midnightblue" stroke="midnightblue" points="677.74,-78.68 667.6,-75.59 673.61,-84.32 677.74,-78.68"/>
</g>
<!-- Node3 -->
<g id="node3" class="node">
<title>Node3</title>
<g id="a_node3"><a xlink:title=" ">
<polygon fill="none" stroke="#bfbfbf" points="985.5,-56.5 985.5,-75.5 1074.5,-75.5 1074.5,-56.5 985.5,-56.5"/>
<text text-anchor="middle" x="1030" y="-63.5" font-family="Helvetica,sans-Serif" font-size="10.00">limes_export.h</text>
</a>
</g>
</g>
<!-- Node1&#45;&gt;Node3 -->
<g id="edge2" class="edge">
<title>Node1&#45;&gt;Node3</title>
<path fill="none" stroke="midnightblue" d="M1081.2,-392.46C1092.84,-384.33 1109.53,-371.12 1120,-356 1137.53,-330.68 1144,-321.8 1144,-291 1144,-291 1144,-291 1144,-177 1144,-130.11 1093.45,-96.89 1059.67,-79.93"/>
<polygon fill="midnightblue" stroke="midnightblue" points="1061.17,-76.77 1050.64,-75.58 1058.13,-83.07 1061.17,-76.77"/>
</g>
<!-- Node4 -->
<g id="node4" class="node">
<title>Node4</title>
<g id="a_node4"><a xlink:title=" ">
<polygon fill="none" stroke="#bfbfbf" points="774,-0.5 774,-19.5 874,-19.5 874,-0.5 774,-0.5"/>
<text text-anchor="middle" x="824" y="-7.5" font-family="Helvetica,sans-Serif" font-size="10.00">limes_platform.h</text>
</a>
</g>
</g>
<!-- Node1&#45;&gt;Node4 -->
<g id="edge3" class="edge">
<title>Node1&#45;&gt;Node4</title>
<path fill="none" stroke="midnightblue" d="M1102.87,-392.4C1147.75,-379 1220,-348.49 1220,-291 1220,-291 1220,-291 1220,-121 1220,-52.15 994.98,-24.6 884.19,-15.2"/>
<polygon fill="midnightblue" stroke="midnightblue" points="884.41,-11.71 874.15,-14.37 883.83,-18.68 884.41,-11.71"/>
</g>
<!-- Node5 -->
<g id="node5" class="node">
<title>Node5</title>
<g id="a_node5"><a xlink:href="../../d8/d23/2_dshape_8h.html" target="_top" xlink:title=" ">
<polygon fill="none" stroke="black" points="972,-224.5 972,-243.5 1040,-243.5 1040,-224.5 972,-224.5"/>
<text text-anchor="middle" x="1006" y="-231.5" font-family="Helvetica,sans-Serif" font-size="10.00">2Dshape.h</text>
</a>
</g>
</g>
<!-- Node1&#45;&gt;Node5 -->
<g id="edge4" class="edge">
<title>Node1&#45;&gt;Node5</title>
<path fill="none" stroke="midnightblue" d="M1064.67,-392.08C1054.87,-365.83 1026,-288.55 1012.77,-253.12"/>
<polygon fill="midnightblue" stroke="midnightblue" points="1015.98,-251.71 1009.2,-243.57 1009.42,-254.16 1015.98,-251.71"/>
</g>
<!-- Node6 -->
<g id="node6" class="node">
<title>Node6</title>
<g id="a_node6"><a xlink:href="../../d3/d53/preprocessor_8h.html" target="_top" xlink:title=" ">
<polygon fill="none" stroke="black" points="43.5,-56.5 43.5,-75.5 184.5,-75.5 184.5,-56.5 43.5,-56.5"/>
<text text-anchor="middle" x="114" y="-63.5" font-family="Helvetica,sans-Serif" font-size="10.00">../../../misc/preprocessor.h</text>
</a>
</g>
</g>
<!-- Node1&#45;&gt;Node6 -->
<g id="edge7" class="edge">
<title>Node1&#45;&gt;Node6</title>
<path fill="none" stroke="midnightblue" d="M1032.47,-401.15C847.15,-401.49 0,-397.25 0,-291 0,-291 0,-291 0,-177 0,-130.11 50.55,-96.89 84.33,-79.93"/>
<polygon fill="midnightblue" stroke="midnightblue" points="85.87,-83.07 93.36,-75.58 82.83,-76.77 85.87,-83.07"/>
</g>
<!-- Node7 -->
<g id="node7" class="node">
<title>Node7</title>
<g id="a_node7"><a xlink:href="../../dd/d6a/triangle_8h.html" target="_top" xlink:title=" ">
<polygon fill="none" stroke="black" points="685.5,-336.5 685.5,-355.5 748.5,-355.5 748.5,-336.5 685.5,-336.5"/>
<text text-anchor="middle" x="717" y="-343.5" font-family="Helvetica,sans-Serif" font-size="10.00">triangle.h</text>
</a>
</g>
</g>
<!-- Node1&#45;&gt;Node7 -->
<g id="edge9" class="edge">
<title>Node1&#45;&gt;Node7</title>
<path fill="none" stroke="midnightblue" d="M1032.41,-395.53C967.1,-385.48 828.41,-364.14 758.76,-353.42"/>
<polygon fill="midnightblue" stroke="midnightblue" points="759.01,-349.92 748.6,-351.86 757.95,-356.84 759.01,-349.92"/>
</g>
<!-- Node10 -->
<g id="node10" class="node">
<title>Node10</title>
<g id="a_node10"><a xlink:title=" ">
<polygon fill="none" stroke="#bfbfbf" points="66.5,-168.5 66.5,-187.5 113.5,-187.5 113.5,-168.5 66.5,-168.5"/>
<text text-anchor="middle" x="90" y="-175.5" font-family="Helvetica,sans-Serif" font-size="10.00">cmath</text>
</a>
</g>
</g>
<!-- Node1&#45;&gt;Node10 -->
<g id="edge44" class="edge">
<title>Node1&#45;&gt;Node10</title>
<path fill="none" stroke="midnightblue" d="M1032.41,-399.95C886.56,-395.2 334.92,-372.69 179,-300 146.23,-284.72 141.06,-273.38 120,-244 109.6,-229.49 101.43,-210.81 96.26,-197.2"/>
<polygon fill="midnightblue" stroke="midnightblue" points="99.46,-195.76 92.77,-187.55 92.88,-198.14 99.46,-195.76"/>
</g>
<!-- Node5&#45;&gt;Node2 -->
<g id="edge5" class="edge">
<title>Node5&#45;&gt;Node2</title>
<path fill="none" stroke="midnightblue" d="M971.75,-226.46C915.32,-214.54 800.8,-185.44 718,-132 698.03,-119.11 679.87,-98.54 668.44,-83.99"/>
<polygon fill="midnightblue" stroke="midnightblue" points="671.07,-81.68 662.23,-75.84 665.5,-85.92 671.07,-81.68"/>
</g>
<!-- Node5&#45;&gt;Node3 -->
<g id="edge6" class="edge">
<title>Node5&#45;&gt;Node3</title>
<path fill="none" stroke="midnightblue" d="M1010.46,-224.39C1019.03,-207.32 1037.5,-167.76 1044,-132 1046.87,-116.21 1042.49,-98.39 1037.89,-85.41"/>
<polygon fill="midnightblue" stroke="midnightblue" points="1041.03,-83.83 1034.13,-75.8 1034.52,-86.38 1041.03,-83.83"/>
</g>
<!-- Node6&#45;&gt;Node4 -->
<g id="edge8" class="edge">
<title>Node6&#45;&gt;Node4</title>
<path fill="none" stroke="midnightblue" d="M184.67,-59.62C324.18,-49.01 632.74,-25.55 763.52,-15.6"/>
<polygon fill="midnightblue" stroke="midnightblue" points="764.05,-19.07 773.75,-14.82 763.51,-12.09 764.05,-19.07"/>
</g>
<!-- Node7&#45;&gt;Node2 -->
<g id="edge10" class="edge">
<title>Node7&#45;&gt;Node2</title>
<path fill="none" stroke="midnightblue" d="M685.29,-344.67C576.93,-342.71 228,-329.09 228,-235 228,-235 228,-235 228,-177 228,-141.86 242.88,-130.1 273,-112 324.7,-80.93 493.36,-71.31 588.72,-68.33"/>
<polygon fill="midnightblue" stroke="midnightblue" points="588.96,-71.82 598.85,-68.03 588.75,-64.83 588.96,-71.82"/>
</g>
<!-- Node7&#45;&gt;Node3 -->
<g id="edge11" class="edge">
<title>Node7&#45;&gt;Node3</title>
<path fill="none" stroke="midnightblue" d="M748.62,-340C823.99,-327.39 1010.82,-291.86 1049,-244 1085.69,-198.01 1075.61,-168.44 1059,-112 1055.99,-101.76 1049.85,-91.66 1043.99,-83.63"/>
<polygon fill="midnightblue" stroke="midnightblue" points="1046.59,-81.27 1037.67,-75.54 1041.07,-85.58 1046.59,-81.27"/>
</g>
<!-- Node7&#45;&gt;Node4 -->
<g id="edge12" class="edge">
<title>Node7&#45;&gt;Node4</title>
<path fill="none" stroke="midnightblue" d="M748.51,-343.12C798.06,-339.36 896.65,-328.67 975,-300 1075.07,-263.38 1182,-285.56 1182,-179 1182,-179 1182,-179 1182,-121 1182,-59.47 986.35,-28.8 884.32,-16.99"/>
<polygon fill="midnightblue" stroke="midnightblue" points="884.49,-13.48 874.16,-15.84 883.7,-20.44 884.49,-13.48"/>
</g>
<!-- Node7&#45;&gt;Node5 -->
<g id="edge13" class="edge">
<title>Node7&#45;&gt;Node5</title>
<path fill="none" stroke="midnightblue" d="M739.68,-336.37C790.75,-316.93 914.9,-269.67 973.87,-247.23"/>
<polygon fill="midnightblue" stroke="midnightblue" points="975.33,-250.42 983.43,-243.59 972.84,-243.88 975.33,-250.42"/>
</g>
<!-- Node7&#45;&gt;Node6 -->
<g id="edge14" class="edge">
<title>Node7&#45;&gt;Node6</title>
<path fill="none" stroke="midnightblue" d="M685.37,-345.01C584.36,-344.65 270.75,-340.21 179,-300 111.58,-270.45 86.61,-255.39 57,-188 40.29,-149.97 74.77,-106 97.06,-82.96"/>
<polygon fill="midnightblue" stroke="midnightblue" points="99.71,-85.27 104.33,-75.73 94.77,-80.3 99.71,-85.27"/>
</g>
<!-- Node8 -->
<g id="node8" class="node">
<title>Node8</title>
<g id="a_node8"><a xlink:href="../../da/dac/angle_8h.html" target="_top" xlink:title=" ">
<polygon fill="none" stroke="black" points="690.5,-280.5 690.5,-299.5 743.5,-299.5 743.5,-280.5 690.5,-280.5"/>
<text text-anchor="middle" x="717" y="-287.5" font-family="Helvetica,sans-Serif" font-size="10.00">angle.h</text>
</a>
</g>
</g>
<!-- Node7&#45;&gt;Node8 -->
<g id="edge15" class="edge">
<title>Node7&#45;&gt;Node8</title>
<path fill="none" stroke="midnightblue" d="M717,-336.08C717,-329.01 717,-318.86 717,-309.99"/>
<polygon fill="midnightblue" stroke="midnightblue" points="720.5,-309.75 717,-299.75 713.5,-309.75 720.5,-309.75"/>
</g>
<!-- Node9 -->
<g id="node9" class="node">
<title>Node9</title>
<g id="a_node9"><a xlink:href="../../dd/dfb/math_helpers_8h.html" target="_top" xlink:title=" ">
<polygon fill="none" stroke="black" points="326.5,-224.5 326.5,-243.5 433.5,-243.5 433.5,-224.5 326.5,-224.5"/>
<text text-anchor="middle" x="380" y="-231.5" font-family="Helvetica,sans-Serif" font-size="10.00">../../mathHelpers.h</text>
</a>
</g>
</g>
<!-- Node7&#45;&gt;Node9 -->
<g id="edge42" class="edge">
<title>Node7&#45;&gt;Node9</title>
<path fill="none" stroke="midnightblue" d="M690.84,-336.46C631.12,-316.97 484.65,-269.16 416.27,-246.84"/>
<polygon fill="midnightblue" stroke="midnightblue" points="416.97,-243.39 406.38,-243.61 414.8,-250.04 416.97,-243.39"/>
</g>
<!-- Node7&#45;&gt;Node10 -->
<g id="edge43" class="edge">
<title>Node7&#45;&gt;Node10</title>
<path fill="none" stroke="midnightblue" d="M685.36,-344.91C588.66,-344.23 298.53,-338.89 214,-300 163.4,-276.72 121.13,-223.81 101.6,-196.32"/>
<polygon fill="midnightblue" stroke="midnightblue" points="104.24,-193.97 95.67,-187.74 98.48,-197.96 104.24,-193.97"/>
</g>
<!-- Node8&#45;&gt;Node2 -->
<g id="edge17" class="edge">
<title>Node8&#45;&gt;Node2</title>
<path fill="none" stroke="midnightblue" d="M714.61,-280.3C705.61,-247.56 673.69,-131.38 661.13,-85.67"/>
<polygon fill="midnightblue" stroke="midnightblue" points="664.47,-84.6 658.44,-75.88 657.72,-86.45 664.47,-84.6"/>
</g>
<!-- Node8&#45;&gt;Node3 -->
<g id="edge16" class="edge">
<title>Node8&#45;&gt;Node3</title>
<path fill="none" stroke="midnightblue" d="M743.62,-289.43C785.09,-288.81 865.95,-282.3 920,-244 977.52,-203.24 1011.2,-121.99 1024.01,-85.5"/>
<polygon fill="midnightblue" stroke="midnightblue" points="1027.44,-86.3 1027.32,-75.71 1020.81,-84.06 1027.44,-86.3"/>
</g>
<!-- Node8&#45;&gt;Node4 -->
<g id="edge18" class="edge">
<title>Node8&#45;&gt;Node4</title>
<path fill="none" stroke="midnightblue" d="M734.43,-280.44C772.57,-260.59 862.76,-207.31 897,-132 915.31,-91.72 871.6,-48.14 844.16,-25.9"/>
<polygon fill="midnightblue" stroke="midnightblue" points="846.28,-23.12 836.25,-19.71 841.97,-28.64 846.28,-23.12"/>
</g>
<!-- Node8&#45;&gt;Node9 -->
<g id="edge19" class="edge">
<title>Node8&#45;&gt;Node9</title>
<path fill="none" stroke="midnightblue" d="M690.27,-284.72C637.27,-276.22 517.55,-257.04 443.28,-245.14"/>
<polygon fill="midnightblue" stroke="midnightblue" points="443.55,-241.64 433.12,-243.51 442.44,-248.55 443.55,-241.64"/>
</g>
<!-- Node9&#45;&gt;Node2 -->
<g id="edge20" class="edge">
<title>Node9&#45;&gt;Node2</title>
<path fill="none" stroke="midnightblue" d="M364.06,-224.36C328.66,-204.11 249.31,-152.28 285,-112 304.76,-89.7 487.18,-76.23 588.65,-70.4"/>
<polygon fill="midnightblue" stroke="midnightblue" points="589.03,-73.89 598.81,-69.83 588.63,-66.9 589.03,-73.89"/>
</g>
<!-- Node9&#45;&gt;Node3 -->
<g id="edge23" class="edge">
<title>Node9&#45;&gt;Node3</title>
<path fill="none" stroke="midnightblue" d="M433.84,-230.75C535.64,-224.88 761.72,-204.12 936,-132 965.46,-119.81 994.98,-97.31 1012.87,-82.25"/>
<polygon fill="midnightblue" stroke="midnightblue" points="1015.38,-84.71 1020.67,-75.53 1010.81,-79.4 1015.38,-84.71"/>
</g>
<!-- Node9&#45;&gt;Node6 -->
<g id="edge41" class="edge">
<title>Node9&#45;&gt;Node6</title>
<path fill="none" stroke="midnightblue" d="M326.37,-232.31C258.34,-228.12 144.01,-209.23 95,-132 85.68,-117.32 93.47,-97.91 101.71,-84.14"/>
<polygon fill="midnightblue" stroke="midnightblue" points="104.73,-85.91 107.28,-75.62 98.88,-82.07 104.73,-85.91"/>
</g>
<!-- Node9&#45;&gt;Node10 -->
<g id="edge21" class="edge">
<title>Node9&#45;&gt;Node10</title>
<path fill="none" stroke="midnightblue" d="M327.23,-224.46C276.13,-215.98 196.54,-202.22 128,-188 126.55,-187.7 125.07,-187.38 123.57,-187.06"/>
<polygon fill="midnightblue" stroke="midnightblue" points="124.2,-183.61 113.67,-184.82 122.65,-190.44 124.2,-183.61"/>
</g>
<!-- Node11 -->
<g id="node11" class="node">
<title>Node11</title>
<g id="a_node11"><a xlink:title=" ">
<polygon fill="none" stroke="#bfbfbf" points="294.5,-112.5 294.5,-131.5 363.5,-131.5 363.5,-112.5 294.5,-112.5"/>
<text text-anchor="middle" x="329" y="-119.5" font-family="Helvetica,sans-Serif" font-size="10.00">type_traits</text>
</a>
</g>
</g>
<!-- Node9&#45;&gt;Node11 -->
<g id="edge22" class="edge">
<title>Node9&#45;&gt;Node11</title>
<path fill="none" stroke="midnightblue" d="M374.12,-224.31C368.27,-215.44 359.3,-201.14 353,-188 345.69,-172.75 339.17,-154.64 334.77,-141.41"/>
<polygon fill="midnightblue" stroke="midnightblue" points="338.02,-140.06 331.61,-131.62 331.36,-142.21 338.02,-140.06"/>
</g>
<!-- Node12 -->
<g id="node12" class="node">
<title>Node12</title>
<g id="a_node12"><a xlink:title=" ">
<polygon fill="none" stroke="#bfbfbf" points="516,-168.5 516,-187.5 580,-187.5 580,-168.5 516,-168.5"/>
<text text-anchor="middle" x="548" y="-175.5" font-family="Helvetica,sans-Serif" font-size="10.00">algorithm</text>
</a>
</g>
</g>
<!-- Node9&#45;&gt;Node12 -->
<g id="edge24" class="edge">
<title>Node9&#45;&gt;Node12</title>
<path fill="none" stroke="midnightblue" d="M406.62,-224.44C435.01,-215.32 480.14,-200.81 511.75,-190.65"/>
<polygon fill="midnightblue" stroke="midnightblue" points="513.06,-193.91 521.5,-187.52 510.91,-187.24 513.06,-193.91"/>
</g>
<!-- Node13 -->
<g id="node13" class="node">
<title>Node13</title>
<g id="a_node13"><a xlink:href="../../d5/dbb/limes__assert_8h.html" target="_top" xlink:title=" ">
<polygon fill="none" stroke="black" points="362,-168.5 362,-187.5 498,-187.5 498,-168.5 362,-168.5"/>
<text text-anchor="middle" x="430" y="-175.5" font-family="Helvetica,sans-Serif" font-size="10.00">../system/limes_assert.h</text>
</a>
</g>
</g>
<!-- Node9&#45;&gt;Node13 -->
<g id="edge25" class="edge">
<title>Node9&#45;&gt;Node13</title>
<path fill="none" stroke="midnightblue" d="M388.26,-224.08C395.46,-216.3 406.11,-204.8 414.85,-195.37"/>
<polygon fill="midnightblue" stroke="midnightblue" points="417.67,-197.47 421.9,-187.75 412.53,-192.71 417.67,-197.47"/>
</g>
<!-- Node17 -->
<g id="node17" class="node">
<title>Node17</title>
<g id="a_node17"><a xlink:href="../../d0/d00/compiler__defs_8h.html" target="_top" xlink:title=" ">
<polygon fill="none" stroke="black" points="104.5,-112.5 104.5,-131.5 199.5,-131.5 199.5,-112.5 104.5,-112.5"/>
<text text-anchor="middle" x="152" y="-119.5" font-family="Helvetica,sans-Serif" font-size="10.00">compiler_defs.h</text>
</a>
</g>
</g>
<!-- Node9&#45;&gt;Node17 -->
<g id="edge40" class="edge">
<title>Node9&#45;&gt;Node17</title>
<path fill="none" stroke="midnightblue" d="M349.17,-224.42C322.71,-216.54 283.92,-203.7 252,-188 222.35,-173.41 190.82,-151.76 171.26,-137.51"/>
<polygon fill="midnightblue" stroke="midnightblue" points="173.29,-134.66 163.17,-131.54 169.14,-140.3 173.29,-134.66"/>
</g>
<!-- Node13&#45;&gt;Node2 -->
<g id="edge27" class="edge">
<title>Node13&#45;&gt;Node2</title>
<path fill="none" stroke="midnightblue" d="M435.13,-168.38C443.94,-154.37 463.28,-126.72 487,-112 517.63,-92.99 556.19,-81.93 588.75,-75.54"/>
<polygon fill="midnightblue" stroke="midnightblue" points="589.45,-78.97 598.64,-73.7 588.17,-72.09 589.45,-78.97"/>
</g>
<!-- Node13&#45;&gt;Node3 -->
<g id="edge26" class="edge">
<title>Node13&#45;&gt;Node3</title>
<path fill="none" stroke="midnightblue" d="M498.01,-168.96C501.05,-168.63 504.06,-168.31 507,-168 680.13,-149.89 729.39,-178.99 897,-132 938.43,-120.38 982.56,-96.16 1008.14,-80.78"/>
<polygon fill="midnightblue" stroke="midnightblue" points="1009.97,-83.76 1016.68,-75.56 1006.32,-77.79 1009.97,-83.76"/>
</g>
<!-- Node13&#45;&gt;Node4 -->
<g id="edge35" class="edge">
<title>Node13&#45;&gt;Node4</title>
<path fill="none" stroke="midnightblue" d="M431.9,-168.26C435.29,-154.56 443.62,-127.96 460,-112 542.48,-31.61 683.09,-13.99 763.27,-10.84"/>
<polygon fill="midnightblue" stroke="midnightblue" points="763.81,-14.33 773.69,-10.5 763.58,-7.33 763.81,-14.33"/>
</g>
<!-- Node13&#45;&gt;Node6 -->
<g id="edge28" class="edge">
<title>Node13&#45;&gt;Node6</title>
<path fill="none" stroke="midnightblue" d="M424.88,-168.14C416.06,-153.79 396.59,-125.67 372,-112 317.78,-81.85 248.05,-71.06 194.76,-67.55"/>
<polygon fill="midnightblue" stroke="midnightblue" points="194.86,-64.05 184.67,-66.96 194.45,-71.04 194.86,-64.05"/>
</g>
<!-- Node13&#45;&gt;Node11 -->
<g id="edge29" class="edge">
<title>Node13&#45;&gt;Node11</title>
<path fill="none" stroke="midnightblue" d="M413.77,-168.32C397.65,-159.7 372.7,-146.36 354.04,-136.39"/>
<polygon fill="midnightblue" stroke="midnightblue" points="355.66,-133.28 345.19,-131.65 352.36,-139.46 355.66,-133.28"/>
</g>
<!-- Node14 -->
<g id="node14" class="node">
<title>Node14</title>
<g id="a_node14"><a xlink:title=" ">
<polygon fill="none" stroke="#bfbfbf" points="582.5,-112.5 582.5,-131.5 627.5,-131.5 627.5,-112.5 582.5,-112.5"/>
<text text-anchor="middle" x="605" y="-119.5" font-family="Helvetica,sans-Serif" font-size="10.00">utility</text>
</a>
</g>
</g>
<!-- Node13&#45;&gt;Node14 -->
<g id="edge30" class="edge">
<title>Node13&#45;&gt;Node14</title>
<path fill="none" stroke="midnightblue" d="M457.73,-168.44C489,-158.79 539.77,-143.13 572.78,-132.94"/>
<polygon fill="midnightblue" stroke="midnightblue" points="573.89,-136.26 582.41,-129.97 571.82,-129.58 573.89,-136.26"/>
</g>
<!-- Node15 -->
<g id="node15" class="node">
<title>Node15</title>
<g id="a_node15"><a xlink:href="../../d1/d57/_ignore_unused_8h.html" target="_top" xlink:title=" ">
<polygon fill="none" stroke="black" points="760,-112.5 760,-131.5 888,-131.5 888,-112.5 760,-112.5"/>
<text text-anchor="middle" x="824" y="-119.5" font-family="Helvetica,sans-Serif" font-size="10.00">../misc/IgnoreUnused.h</text>
</a>
</g>
</g>
<!-- Node13&#45;&gt;Node15 -->
<g id="edge31" class="edge">
<title>Node13&#45;&gt;Node15</title>
<path fill="none" stroke="midnightblue" d="M492.43,-168.44C562.89,-158.79 677.35,-143.1 751.65,-132.92"/>
<polygon fill="midnightblue" stroke="midnightblue" points="752.43,-136.34 761.86,-131.52 751.48,-129.41 752.43,-136.34"/>
</g>
<!-- Node16 -->
<g id="node16" class="node">
<title>Node16</title>
<g id="a_node16"><a xlink:title=" ">
<polygon fill="none" stroke="#bfbfbf" points="496,-112.5 496,-131.5 564,-131.5 564,-112.5 496,-112.5"/>
<text text-anchor="middle" x="530" y="-119.5" font-family="Helvetica,sans-Serif" font-size="10.00">filesystem</text>
</a>
</g>
</g>
<!-- Node13&#45;&gt;Node16 -->
<g id="edge36" class="edge">
<title>Node13&#45;&gt;Node16</title>
<path fill="none" stroke="midnightblue" d="M446.07,-168.32C461.96,-159.74 486.51,-146.49 504.96,-136.52"/>
<polygon fill="midnightblue" stroke="midnightblue" points="506.84,-139.49 513.97,-131.65 503.51,-133.33 506.84,-139.49"/>
</g>
<!-- Node13&#45;&gt;Node17 -->
<g id="edge37" class="edge">
<title>Node13&#45;&gt;Node17</title>
<path fill="none" stroke="midnightblue" d="M385.95,-168.44C337.15,-158.96 258.44,-143.67 205.97,-133.48"/>
<polygon fill="midnightblue" stroke="midnightblue" points="206.33,-129.99 195.84,-131.52 204.99,-136.86 206.33,-129.99"/>
</g>
<!-- Node15&#45;&gt;Node2 -->
<g id="edge33" class="edge">
<title>Node15&#45;&gt;Node2</title>
<path fill="none" stroke="midnightblue" d="M797.38,-112.44C768.99,-103.32 723.86,-88.81 692.25,-78.65"/>
<polygon fill="midnightblue" stroke="midnightblue" points="693.09,-75.24 682.5,-75.52 690.94,-81.91 693.09,-75.24"/>
</g>
<!-- Node15&#45;&gt;Node3 -->
<g id="edge32" class="edge">
<title>Node15&#45;&gt;Node3</title>
<path fill="none" stroke="midnightblue" d="M856.64,-112.44C892.05,-103.16 948.71,-88.31 987.55,-78.13"/>
<polygon fill="midnightblue" stroke="midnightblue" points="988.73,-81.44 997.51,-75.52 986.95,-74.67 988.73,-81.44"/>
</g>
<!-- Node15&#45;&gt;Node4 -->
<g id="edge34" class="edge">
<title>Node15&#45;&gt;Node4</title>
<path fill="none" stroke="midnightblue" d="M824,-112.37C824,-94.62 824,-53.67 824,-29.6"/>
<polygon fill="midnightblue" stroke="midnightblue" points="827.5,-29.59 824,-19.59 820.5,-29.59 827.5,-29.59"/>
</g>
<!-- Node17&#45;&gt;Node4 -->
<g id="edge38" class="edge">
<title>Node17&#45;&gt;Node4</title>
<path fill="none" stroke="midnightblue" d="M181.42,-112.41C229.9,-98.56 329.79,-71.3 416,-56 538.38,-34.28 683.4,-21.27 763.39,-15.18"/>
<polygon fill="midnightblue" stroke="midnightblue" points="764.06,-18.64 773.77,-14.4 763.53,-11.66 764.06,-18.64"/>
</g>
<!-- Node17&#45;&gt;Node6 -->
<g id="edge39" class="edge">
<title>Node17&#45;&gt;Node6</title>
<path fill="none" stroke="midnightblue" d="M145.73,-112.08C140.36,-104.46 132.48,-93.26 125.92,-83.94"/>
<polygon fill="midnightblue" stroke="midnightblue" points="128.78,-81.91 120.16,-75.75 123.05,-85.94 128.78,-81.91"/>
</g>
</g>
</svg>
