<?xml version="1.0" encoding="UTF-8" standalone="no"?>
<!DOCTYPE svg PUBLIC "-//W3C//DTD SVG 1.1//EN"
 "http://www.w3.org/Graphics/SVG/1.1/DTD/svg11.dtd">
<!-- Generated by graphviz version 2.43.0 (0)
 -->
<!-- Title: rectangle.h Pages: 1 -->
<svg width="578pt" height="308pt"
 viewBox="0.00 0.00 577.76 308.00" xmlns="http://www.w3.org/2000/svg" xmlns:xlink="http://www.w3.org/1999/xlink">
<g id="graph0" class="graph" transform="scale(1 1) rotate(0) translate(4 304)">
<title>rectangle.h</title>
<!-- Node1 -->
<g id="node1" class="node">
<title>Node1</title>
<g id="a_node1"><a xlink:title=" ">
<polygon fill="#bfbfbf" stroke="black" points="394.26,-280.5 394.26,-299.5 465.26,-299.5 465.26,-280.5 394.26,-280.5"/>
<text text-anchor="middle" x="429.76" y="-287.5" font-family="Helvetica,sans-Serif" font-size="10.00">rectangle.h</text>
</a>
</g>
</g>
<!-- Node2 -->
<g id="node2" class="node">
<title>Node2</title>
<g id="a_node2"><a xlink:href="../../da/d0b/limes__namespace_8h.html" target="_top" xlink:title=" ">
<polygon fill="none" stroke="black" points="172.76,-56.5 172.76,-75.5 286.76,-75.5 286.76,-56.5 172.76,-56.5"/>
<text text-anchor="middle" x="229.76" y="-63.5" font-family="Helvetica,sans-Serif" font-size="10.00">limes_namespace.h</text>
</a>
</g>
</g>
<!-- Node1&#45;&gt;Node2 -->
<g id="edge1" class="edge">
<title>Node1&#45;&gt;Node2</title>
<path fill="none" stroke="midnightblue" d="M393.93,-287.49C335.6,-282.8 222.14,-263.88 177.76,-188 160.55,-158.59 152.28,-142.35 167.76,-112 174.76,-98.27 188.12,-87.75 200.66,-80.35"/>
<polygon fill="midnightblue" stroke="midnightblue" points="202.43,-83.37 209.53,-75.51 199.08,-77.22 202.43,-83.37"/>
</g>
<!-- Node3 -->
<g id="node3" class="node">
<title>Node3</title>
<g id="a_node3"><a xlink:title=" ">
<polygon fill="none" stroke="#bfbfbf" points="363.26,-56.5 363.26,-75.5 452.26,-75.5 452.26,-56.5 363.26,-56.5"/>
<text text-anchor="middle" x="407.76" y="-63.5" font-family="Helvetica,sans-Serif" font-size="10.00">limes_export.h</text>
</a>
</g>
</g>
<!-- Node1&#45;&gt;Node3 -->
<g id="edge2" class="edge">
<title>Node1&#45;&gt;Node3</title>
<path fill="none" stroke="midnightblue" d="M439.78,-280.43C469.45,-254.03 552.37,-172.07 512.76,-112 501.27,-94.58 481.49,-83.88 462.17,-77.31"/>
<polygon fill="midnightblue" stroke="midnightblue" points="463.04,-73.92 452.46,-74.33 460.99,-80.61 463.04,-73.92"/>
</g>
<!-- Node4 -->
<g id="node4" class="node">
<title>Node4</title>
<g id="a_node4"><a xlink:title=" ">
<polygon fill="none" stroke="#bfbfbf" points="148.76,-0.5 148.76,-19.5 248.76,-19.5 248.76,-0.5 148.76,-0.5"/>
<text text-anchor="middle" x="198.76" y="-7.5" font-family="Helvetica,sans-Serif" font-size="10.00">limes_platform.h</text>
</a>
</g>
</g>
<!-- Node1&#45;&gt;Node4 -->
<g id="edge3" class="edge">
<title>Node1&#45;&gt;Node4</title>
<path fill="none" stroke="midnightblue" d="M459.11,-280.5C500.16,-266.59 569.76,-234.79 569.76,-179 569.76,-179 569.76,-179 569.76,-121 569.76,-56.96 363.99,-27.3 258.94,-16.32"/>
<polygon fill="midnightblue" stroke="midnightblue" points="259.09,-12.82 248.79,-15.29 258.38,-19.79 259.09,-12.82"/>
</g>
<!-- Node5 -->
<g id="node5" class="node">
<title>Node5</title>
<g id="a_node5"><a xlink:href="../../d8/d23/2_dshape_8h.html" target="_top" xlink:title=" ">
<polygon fill="none" stroke="black" points="435.76,-112.5 435.76,-131.5 503.76,-131.5 503.76,-112.5 435.76,-112.5"/>
<text text-anchor="middle" x="469.76" y="-119.5" font-family="Helvetica,sans-Serif" font-size="10.00">2Dshape.h</text>
</a>
</g>
</g>
<!-- Node1&#45;&gt;Node5 -->
<g id="edge4" class="edge">
<title>Node1&#45;&gt;Node5</title>
<path fill="none" stroke="midnightblue" d="M433.04,-280.5C439.55,-263.3 454.12,-223.04 461.76,-188 465.09,-172.71 467.15,-155.06 468.35,-142.02"/>
<polygon fill="midnightblue" stroke="midnightblue" points="471.85,-142.17 469.18,-131.92 464.87,-141.6 471.85,-142.17"/>
</g>
<!-- Node6 -->
<g id="node6" class="node">
<title>Node6</title>
<g id="a_node6"><a xlink:href="../../d3/d53/preprocessor_8h.html" target="_top" xlink:title=" ">
<polygon fill="none" stroke="black" points="13.26,-56.5 13.26,-75.5 154.26,-75.5 154.26,-56.5 13.26,-56.5"/>
<text text-anchor="middle" x="83.76" y="-63.5" font-family="Helvetica,sans-Serif" font-size="10.00">../../../misc/preprocessor.h</text>
</a>
</g>
</g>
<!-- Node1&#45;&gt;Node6 -->
<g id="edge7" class="edge">
<title>Node1&#45;&gt;Node6</title>
<path fill="none" stroke="midnightblue" d="M394.08,-289.6C347.08,-288.76 263.52,-281.51 204.76,-244 143.36,-204.81 105.13,-122.11 90.52,-85.32"/>
<polygon fill="midnightblue" stroke="midnightblue" points="93.73,-83.93 86.88,-75.85 87.2,-86.44 93.73,-83.93"/>
</g>
<!-- Node7 -->
<g id="node7" class="node">
<title>Node7</title>
<g id="a_node7"><a xlink:href="../../dd/d6a/triangle_8h.html" target="_top" xlink:title=" ">
<polygon fill="none" stroke="black" points="255.26,-224.5 255.26,-243.5 318.26,-243.5 318.26,-224.5 255.26,-224.5"/>
<text text-anchor="middle" x="286.76" y="-231.5" font-family="Helvetica,sans-Serif" font-size="10.00">triangle.h</text>
</a>
</g>
</g>
<!-- Node1&#45;&gt;Node7 -->
<g id="edge9" class="edge">
<title>Node1&#45;&gt;Node7</title>
<path fill="none" stroke="midnightblue" d="M407.1,-280.44C383.35,-271.48 345.85,-257.31 319.02,-247.18"/>
<polygon fill="midnightblue" stroke="midnightblue" points="319.9,-243.77 309.31,-243.52 317.43,-250.32 319.9,-243.77"/>
</g>
<!-- Node13 -->
<g id="node10" class="node">
<title>Node13</title>
<g id="a_node10"><a xlink:title=" ">
<polygon fill="none" stroke="#bfbfbf" points="406.26,-168.5 406.26,-187.5 453.26,-187.5 453.26,-168.5 406.26,-168.5"/>
<text text-anchor="middle" x="429.76" y="-175.5" font-family="Helvetica,sans-Serif" font-size="10.00">cmath</text>
</a>
</g>
</g>
<!-- Node1&#45;&gt;Node13 -->
<g id="edge25" class="edge">
<title>Node1&#45;&gt;Node13</title>
<path fill="none" stroke="midnightblue" d="M429.76,-280.37C429.76,-262.62 429.76,-221.67 429.76,-197.6"/>
<polygon fill="midnightblue" stroke="midnightblue" points="433.26,-197.59 429.76,-187.59 426.26,-197.59 433.26,-197.59"/>
</g>
<!-- Node5&#45;&gt;Node2 -->
<g id="edge5" class="edge">
<title>Node5&#45;&gt;Node2</title>
<path fill="none" stroke="midnightblue" d="M435.63,-113.32C394.27,-104.02 324.34,-88.28 277.62,-77.77"/>
<polygon fill="midnightblue" stroke="midnightblue" points="278.25,-74.32 267.73,-75.54 276.72,-81.15 278.25,-74.32"/>
</g>
<!-- Node5&#45;&gt;Node3 -->
<g id="edge6" class="edge">
<title>Node5&#45;&gt;Node3</title>
<path fill="none" stroke="midnightblue" d="M459.8,-112.32C450.63,-104.34 436.82,-92.31 425.73,-82.65"/>
<polygon fill="midnightblue" stroke="midnightblue" points="427.74,-79.76 417.9,-75.83 423.14,-85.04 427.74,-79.76"/>
</g>
<!-- Node6&#45;&gt;Node4 -->
<g id="edge8" class="edge">
<title>Node6&#45;&gt;Node4</title>
<path fill="none" stroke="midnightblue" d="M101.98,-56.44C120.65,-47.68 149.91,-33.94 171.37,-23.86"/>
<polygon fill="midnightblue" stroke="midnightblue" points="173.06,-26.93 180.62,-19.52 170.08,-20.6 173.06,-26.93"/>
</g>
<!-- Node7&#45;&gt;Node2 -->
<g id="edge10" class="edge">
<title>Node7&#45;&gt;Node2</title>
<path fill="none" stroke="midnightblue" d="M255.4,-224.42C235.75,-217.55 211.29,-206.02 195.76,-188 173.1,-161.7 163.33,-143.57 177.76,-112 183.53,-99.36 194.81,-88.91 205.39,-81.27"/>
<polygon fill="midnightblue" stroke="midnightblue" points="207.61,-84 213.97,-75.53 203.71,-78.18 207.61,-84"/>
</g>
<!-- Node7&#45;&gt;Node3 -->
<g id="edge11" class="edge">
<title>Node7&#45;&gt;Node3</title>
<path fill="none" stroke="midnightblue" d="M295.71,-224.47C312.82,-207.85 350.66,-169.48 375.76,-132 385.69,-117.15 394.45,-98.77 400.29,-85.35"/>
<polygon fill="midnightblue" stroke="midnightblue" points="403.65,-86.38 404.3,-75.81 397.2,-83.67 403.65,-86.38"/>
</g>
<!-- Node7&#45;&gt;Node4 -->
<g id="edge12" class="edge">
<title>Node7&#45;&gt;Node4</title>
<path fill="none" stroke="midnightblue" d="M255,-227.32C191.92,-214.05 52.67,-174.35 3.76,-76 -0.2,-68.04 -1.78,-62.96 3.76,-56 20.44,-35.03 87.79,-23 138.7,-16.74"/>
<polygon fill="midnightblue" stroke="midnightblue" points="139.13,-20.22 148.65,-15.57 138.31,-13.26 139.13,-20.22"/>
</g>
<!-- Node7&#45;&gt;Node5 -->
<g id="edge13" class="edge">
<title>Node7&#45;&gt;Node5</title>
<path fill="none" stroke="midnightblue" d="M301.12,-224.37C332.65,-205.41 408.2,-160 446.56,-136.94"/>
<polygon fill="midnightblue" stroke="midnightblue" points="448.7,-139.74 455.46,-131.59 445.09,-133.74 448.7,-139.74"/>
</g>
<!-- Node7&#45;&gt;Node6 -->
<g id="edge14" class="edge">
<title>Node7&#45;&gt;Node6</title>
<path fill="none" stroke="midnightblue" d="M254.92,-224.66C231.89,-217.53 200.88,-205.62 177.76,-188 139.46,-158.83 108.33,-110.43 93.38,-84.57"/>
<polygon fill="midnightblue" stroke="midnightblue" points="96.26,-82.55 88.3,-75.56 90.16,-85.99 96.26,-82.55"/>
</g>
<!-- Node8 -->
<g id="node8" class="node">
<title>Node8</title>
<g id="a_node8"><a xlink:href="../../da/dac/angle_8h.html" target="_top" xlink:title=" ">
<polygon fill="none" stroke="black" points="205.26,-168.5 205.26,-187.5 258.26,-187.5 258.26,-168.5 205.26,-168.5"/>
<text text-anchor="middle" x="231.76" y="-175.5" font-family="Helvetica,sans-Serif" font-size="10.00">angle.h</text>
</a>
</g>
</g>
<!-- Node7&#45;&gt;Node8 -->
<g id="edge15" class="edge">
<title>Node7&#45;&gt;Node8</title>
<path fill="none" stroke="midnightblue" d="M277.67,-224.08C269.59,-216.14 257.56,-204.34 247.85,-194.8"/>
<polygon fill="midnightblue" stroke="midnightblue" points="250.26,-192.26 240.67,-187.75 245.35,-197.25 250.26,-192.26"/>
</g>
<!-- Node9 -->
<g id="node9" class="node">
<title>Node9</title>
<g id="a_node9"><a xlink:href="../../dc/d5c/math_functions_8h.html" target="_top" xlink:title=" ">
<polygon fill="none" stroke="red" points="225.76,-112.5 225.76,-131.5 341.76,-131.5 341.76,-112.5 225.76,-112.5"/>
<text text-anchor="middle" x="283.76" y="-119.5" font-family="Helvetica,sans-Serif" font-size="10.00">../../mathFunctions.h</text>
</a>
</g>
</g>
<!-- Node7&#45;&gt;Node9 -->
<g id="edge23" class="edge">
<title>Node7&#45;&gt;Node9</title>
<path fill="none" stroke="midnightblue" d="M286.52,-224.37C286.04,-206.62 284.92,-165.67 284.26,-141.6"/>
<polygon fill="midnightblue" stroke="midnightblue" points="287.76,-141.49 283.99,-131.59 280.76,-141.68 287.76,-141.49"/>
</g>
<!-- Node7&#45;&gt;Node13 -->
<g id="edge24" class="edge">
<title>Node7&#45;&gt;Node13</title>
<path fill="none" stroke="midnightblue" d="M309.42,-224.44C333.16,-215.48 370.67,-201.31 397.49,-191.18"/>
<polygon fill="midnightblue" stroke="midnightblue" points="399.08,-194.32 407.2,-187.52 396.61,-187.77 399.08,-194.32"/>
</g>
<!-- Node8&#45;&gt;Node2 -->
<g id="edge17" class="edge">
<title>Node8&#45;&gt;Node2</title>
<path fill="none" stroke="midnightblue" d="M217.39,-168.33C205.88,-160.47 190.57,-147.72 183.76,-132 175.6,-113.16 192.38,-94.31 207.92,-81.79"/>
<polygon fill="midnightblue" stroke="midnightblue" points="210.36,-84.34 216.25,-75.53 206.16,-78.74 210.36,-84.34"/>
</g>
<!-- Node8&#45;&gt;Node3 -->
<g id="edge16" class="edge">
<title>Node8&#45;&gt;Node3</title>
<path fill="none" stroke="midnightblue" d="M258.6,-170.88C283.96,-164.21 322.26,-151.76 350.76,-132 369.37,-119.09 385.85,-98.81 396.24,-84.34"/>
<polygon fill="midnightblue" stroke="midnightblue" points="399.34,-86.01 402.15,-75.8 393.58,-82.03 399.34,-86.01"/>
</g>
<!-- Node8&#45;&gt;Node4 -->
<g id="edge18" class="edge">
<title>Node8&#45;&gt;Node4</title>
<path fill="none" stroke="midnightblue" d="M225.86,-168.29C217.75,-155.1 205.35,-129.73 216.76,-112 237.63,-79.55 274.88,-108.45 295.76,-76 300.57,-68.52 300.54,-63.49 295.76,-56 285.56,-40.03 268.07,-29.64 250.72,-22.92"/>
<polygon fill="midnightblue" stroke="midnightblue" points="251.74,-19.56 241.15,-19.55 249.42,-26.17 251.74,-19.56"/>
</g>
<!-- Node8&#45;&gt;Node9 -->
<g id="edge19" class="edge">
<title>Node8&#45;&gt;Node9</title>
<path fill="none" stroke="midnightblue" d="M240.34,-168.08C247.92,-160.22 259.13,-148.57 268.27,-139.08"/>
<polygon fill="midnightblue" stroke="midnightblue" points="270.91,-141.38 275.33,-131.75 265.87,-136.53 270.91,-141.38"/>
</g>
<!-- Node9&#45;&gt;Node2 -->
<g id="edge20" class="edge">
<title>Node9&#45;&gt;Node2</title>
<path fill="none" stroke="midnightblue" d="M274.84,-112.08C266.98,-104.22 255.33,-92.57 245.84,-83.08"/>
<polygon fill="midnightblue" stroke="midnightblue" points="248.05,-80.35 238.51,-75.75 243.1,-85.3 248.05,-80.35"/>
</g>
<!-- Node9&#45;&gt;Node3 -->
<g id="edge21" class="edge">
<title>Node9&#45;&gt;Node3</title>
<path fill="none" stroke="midnightblue" d="M303.4,-112.44C323.72,-103.6 355.66,-89.69 378.85,-79.59"/>
<polygon fill="midnightblue" stroke="midnightblue" points="380.43,-82.72 388.2,-75.52 377.63,-76.3 380.43,-82.72"/>
</g>
<!-- Node9&#45;&gt;Node6 -->
<g id="edge22" class="edge">
<title>Node9&#45;&gt;Node6</title>
<path fill="none" stroke="midnightblue" d="M252.07,-112.44C217.69,-103.16 162.68,-88.31 124.97,-78.13"/>
<polygon fill="midnightblue" stroke="midnightblue" points="125.87,-74.74 115.3,-75.52 124.04,-81.5 125.87,-74.74"/>
</g>
</g>
</svg>
