<?xml version="1.0" encoding="UTF-8" standalone="no"?>
<!DOCTYPE svg PUBLIC "-//W3C//DTD SVG 1.1//EN"
 "http://www.w3.org/Graphics/SVG/1.1/DTD/svg11.dtd">
<!-- Generated by graphviz version 2.43.0 (0)
 -->
<!-- Title: compiler_warnings.h Pages: 1 -->
<svg width="174pt" height="140pt"
 viewBox="0.00 0.00 173.50 140.00" xmlns="http://www.w3.org/2000/svg" xmlns:xlink="http://www.w3.org/1999/xlink">
<g id="graph0" class="graph" transform="scale(1 1) rotate(0) translate(4 136)">
<title>compiler_warnings.h</title>
<!-- Node1 -->
<g id="node1" class="node">
<title>Node1</title>
<g id="a_node1"><a xlink:title=" ">
<polygon fill="#bfbfbf" stroke="black" points="0,-112.5 0,-131.5 118,-131.5 118,-112.5 0,-112.5"/>
<text text-anchor="middle" x="59" y="-119.5" font-family="Helvetica,sans-Serif" font-size="10.00">compiler_warnings.h</text>
</a>
</g>
</g>
<!-- Node2 -->
<g id="node2" class="node">
<title>Node2</title>
<g id="a_node2"><a xlink:title=" ">
<polygon fill="none" stroke="#bfbfbf" points="9,-0.5 9,-19.5 109,-19.5 109,-0.5 9,-0.5"/>
<text text-anchor="middle" x="59" y="-7.5" font-family="Helvetica,sans-Serif" font-size="10.00">limes_platform.h</text>
</a>
</g>
</g>
<!-- Node1&#45;&gt;Node2 -->
<g id="edge1" class="edge">
<title>Node1&#45;&gt;Node2</title>
<path fill="none" stroke="midnightblue" d="M52.11,-112.32C45.73,-103.68 36.69,-89.77 33,-76 28.49,-59.19 37.17,-40.84 45.69,-27.94"/>
<polygon fill="midnightblue" stroke="midnightblue" points="48.68,-29.77 51.67,-19.61 42.99,-25.69 48.68,-29.77"/>
</g>
<!-- Node3 -->
<g id="node3" class="node">
<title>Node3</title>
<g id="a_node3"><a xlink:href="../../d3/d53/preprocessor_8h.html" target="_top" xlink:title=" ">
<polygon fill="none" stroke="black" points="42.5,-56.5 42.5,-75.5 165.5,-75.5 165.5,-56.5 42.5,-56.5"/>
<text text-anchor="middle" x="104" y="-63.5" font-family="Helvetica,sans-Serif" font-size="10.00">../misc/preprocessor.h</text>
</a>
</g>
</g>
<!-- Node1&#45;&gt;Node3 -->
<g id="edge2" class="edge">
<title>Node1&#45;&gt;Node3</title>
<path fill="none" stroke="midnightblue" d="M66.43,-112.08C72.85,-104.38 82.31,-93.03 90.12,-83.65"/>
<polygon fill="midnightblue" stroke="midnightblue" points="92.99,-85.67 96.71,-75.75 87.62,-81.19 92.99,-85.67"/>
</g>
<!-- Node3&#45;&gt;Node2 -->
<g id="edge3" class="edge">
<title>Node3&#45;&gt;Node2</title>
<path fill="none" stroke="midnightblue" d="M96.57,-56.08C90.15,-48.38 80.69,-37.03 72.88,-27.65"/>
<polygon fill="midnightblue" stroke="midnightblue" points="75.38,-25.19 66.29,-19.75 70.01,-29.67 75.38,-25.19"/>
</g>
</g>
</svg>
