<?xml version="1.0" encoding="UTF-8" standalone="no"?>
<!DOCTYPE svg PUBLIC "-//W3C//DTD SVG 1.1//EN"
 "http://www.w3.org/Graphics/SVG/1.1/DTD/svg11.dtd">
<!-- Generated by graphviz version 2.43.0 (0)
 -->
<!-- Title: directory.h Pages: 1 -->
<svg width="3650pt" height="834pt"
 viewBox="0.00 0.00 3650.00 834.00" xmlns="http://www.w3.org/2000/svg" xmlns:xlink="http://www.w3.org/1999/xlink">
<g id="graph0" class="graph" transform="scale(1 1) rotate(0) translate(4 830)">
<title>directory.h</title>
<!-- Node1 -->
<g id="node1" class="node">
<title>Node1</title>
<g id="a_node1"><a xlink:title=" ">
<polygon fill="#bfbfbf" stroke="black" points="572,-806.5 572,-825.5 640,-825.5 640,-806.5 572,-806.5"/>
<text text-anchor="middle" x="606" y="-813.5" font-family="Helvetica,sans-Serif" font-size="10.00">directory.h</text>
</a>
</g>
</g>
<!-- Node2 -->
<g id="node2" class="node">
<title>Node2</title>
<g id="a_node2"><a xlink:title=" ">
<polygon fill="none" stroke="#bfbfbf" points="142.5,-414.5 142.5,-433.5 207.5,-433.5 207.5,-414.5 142.5,-414.5"/>
<text text-anchor="middle" x="175" y="-421.5" font-family="Helvetica,sans-Serif" font-size="10.00">functional</text>
</a>
</g>
</g>
<!-- Node1&#45;&gt;Node2 -->
<g id="edge1" class="edge">
<title>Node1&#45;&gt;Node2</title>
<path fill="none" stroke="midnightblue" d="M571.94,-813.23C472.62,-807.26 186.91,-784.17 133,-714 68.56,-630.12 137.04,-491.02 164.6,-442.41"/>
<polygon fill="midnightblue" stroke="midnightblue" points="167.66,-444.11 169.65,-433.7 161.61,-440.59 167.66,-444.11"/>
</g>
<!-- Node3 -->
<g id="node3" class="node">
<title>Node3</title>
<g id="a_node3"><a xlink:title=" ">
<polygon fill="none" stroke="#bfbfbf" points="667.5,-56.5 667.5,-75.5 756.5,-75.5 756.5,-56.5 667.5,-56.5"/>
<text text-anchor="middle" x="712" y="-63.5" font-family="Helvetica,sans-Serif" font-size="10.00">limes_export.h</text>
</a>
</g>
</g>
<!-- Node1&#45;&gt;Node3 -->
<g id="edge2" class="edge">
<title>Node1&#45;&gt;Node3</title>
<path fill="none" stroke="midnightblue" d="M626.64,-806.42C659.5,-791.23 720,-756.29 720,-705 720,-705 720,-705 720,-591 720,-490.19 780.4,-477.27 798,-378 809.01,-315.94 747.5,-317.39 711,-266 694.77,-243.15 688.63,-237.23 682,-210 671.69,-167.68 669.38,-153.69 682,-112 685.12,-101.7 691.45,-91.61 697.5,-83.6"/>
<polygon fill="midnightblue" stroke="midnightblue" points="700.23,-85.8 703.79,-75.82 694.78,-81.4 700.23,-85.8"/>
</g>
<!-- Node4 -->
<g id="node4" class="node">
<title>Node4</title>
<g id="a_node4"><a xlink:href="../../da/d0b/limes__namespace_8h.html" target="_top" xlink:title=" ">
<polygon fill="none" stroke="black" points="2059,-56.5 2059,-75.5 2173,-75.5 2173,-56.5 2059,-56.5"/>
<text text-anchor="middle" x="2116" y="-63.5" font-family="Helvetica,sans-Serif" font-size="10.00">limes_namespace.h</text>
</a>
</g>
</g>
<!-- Node1&#45;&gt;Node4 -->
<g id="edge3" class="edge">
<title>Node1&#45;&gt;Node4</title>
<path fill="none" stroke="midnightblue" d="M640.1,-814.69C973.64,-811.57 3642,-784.11 3642,-705 3642,-705 3642,-705 3642,-479 3642,-403.31 3604,-388.69 3604,-313 3604,-313 3604,-313 3604,-255 3604,-173.87 3320.34,-117.68 3289,-112 3074.56,-73.13 2399.72,-67.8 2183.42,-67.1"/>
<polygon fill="midnightblue" stroke="midnightblue" points="2183.18,-63.6 2173.17,-67.07 2183.16,-70.6 2183.18,-63.6"/>
</g>
<!-- Node5 -->
<g id="node5" class="node">
<title>Node5</title>
<g id="a_node5"><a xlink:title=" ">
<polygon fill="none" stroke="#bfbfbf" points="514.5,-750.5 514.5,-769.5 567.5,-769.5 567.5,-750.5 514.5,-750.5"/>
<text text-anchor="middle" x="541" y="-757.5" font-family="Helvetica,sans-Serif" font-size="10.00">stdint.h</text>
</a>
</g>
</g>
<!-- Node1&#45;&gt;Node5 -->
<g id="edge4" class="edge">
<title>Node1&#45;&gt;Node5</title>
<path fill="none" stroke="midnightblue" d="M595.56,-806.32C585.85,-798.26 571.18,-786.08 559.5,-776.37"/>
<polygon fill="midnightblue" stroke="midnightblue" points="561.56,-773.53 551.63,-769.83 557.09,-778.92 561.56,-773.53"/>
</g>
<!-- Node6 -->
<g id="node6" class="node">
<title>Node6</title>
<g id="a_node6"><a xlink:title=" ">
<polygon fill="none" stroke="#bfbfbf" points="469,-185 469,-204 513,-204 513,-185 469,-185"/>
<text text-anchor="middle" x="491" y="-192" font-family="Helvetica,sans-Serif" font-size="10.00">string</text>
</a>
</g>
</g>
<!-- Node1&#45;&gt;Node6 -->
<g id="edge5" class="edge">
<title>Node1&#45;&gt;Node6</title>
<path fill="none" stroke="midnightblue" d="M571.63,-815.22C454.19,-815.05 76,-806.61 76,-705 76,-705 76,-705 76,-479 76,-293.58 361.97,-220.64 459.13,-201.21"/>
<polygon fill="midnightblue" stroke="midnightblue" points="459.83,-204.64 468.98,-199.3 458.5,-197.77 459.83,-204.64"/>
</g>
<!-- Node7 -->
<g id="node7" class="node">
<title>Node7</title>
<g id="a_node7"><a xlink:title=" ">
<polygon fill="none" stroke="#bfbfbf" points="142.5,-694.5 142.5,-713.5 189.5,-713.5 189.5,-694.5 142.5,-694.5"/>
<text text-anchor="middle" x="166" y="-701.5" font-family="Helvetica,sans-Serif" font-size="10.00">vector</text>
</a>
</g>
</g>
<!-- Node1&#45;&gt;Node7 -->
<g id="edge6" class="edge">
<title>Node1&#45;&gt;Node7</title>
<path fill="none" stroke="midnightblue" d="M571.84,-806.46C489.55,-785.89 281.1,-733.78 199.49,-713.37"/>
<polygon fill="midnightblue" stroke="midnightblue" points="200.29,-709.96 189.74,-710.93 198.59,-716.76 200.29,-709.96"/>
</g>
<!-- Node8 -->
<g id="node8" class="node">
<title>Node8</title>
<g id="a_node8"><a xlink:href="../../d2/d83/_filesystem_entry_8h.html" target="_top" xlink:title=" ">
<polygon fill="none" stroke="black" points="888.5,-638.5 888.5,-657.5 991.5,-657.5 991.5,-638.5 888.5,-638.5"/>
<text text-anchor="middle" x="940" y="-645.5" font-family="Helvetica,sans-Serif" font-size="10.00">FilesystemEntry.h</text>
</a>
</g>
</g>
<!-- Node1&#45;&gt;Node8 -->
<g id="edge7" class="edge">
<title>Node1&#45;&gt;Node8</title>
<path fill="none" stroke="midnightblue" d="M640.07,-810.58C698.37,-801.53 818.65,-776.23 898,-714 913.65,-701.72 925.25,-681.9 932.24,-667.37"/>
<polygon fill="midnightblue" stroke="midnightblue" points="935.59,-668.47 936.52,-657.91 929.21,-665.59 935.59,-668.47"/>
</g>
<!-- Node45 -->
<g id="node45" class="node">
<title>Node45</title>
<g id="a_node45"><a xlink:href="../../d2/d4d/file_8h.html" target="_top" xlink:title=" ">
<polygon fill="none" stroke="black" points="585.5,-750.5 585.5,-769.5 626.5,-769.5 626.5,-750.5 585.5,-750.5"/>
<text text-anchor="middle" x="606" y="-757.5" font-family="Helvetica,sans-Serif" font-size="10.00">file.h</text>
</a>
</g>
</g>
<!-- Node1&#45;&gt;Node45 -->
<g id="edge136" class="edge">
<title>Node1&#45;&gt;Node45</title>
<path fill="none" stroke="midnightblue" d="M606,-806.08C606,-799.01 606,-788.86 606,-779.99"/>
<polygon fill="midnightblue" stroke="midnightblue" points="609.5,-779.75 606,-769.75 602.5,-779.75 609.5,-779.75"/>
</g>
<!-- Node52 -->
<g id="node52" class="node">
<title>Node52</title>
<g id="a_node52"><a xlink:href="../../d8/d06/sym__link_8h.html" target="_top" xlink:title=" ">
<polygon fill="none" stroke="black" points="1061,-694.5 1061,-713.5 1131,-713.5 1131,-694.5 1061,-694.5"/>
<text text-anchor="middle" x="1096" y="-701.5" font-family="Helvetica,sans-Serif" font-size="10.00">sym_link.h</text>
</a>
</g>
</g>
<!-- Node1&#45;&gt;Node52 -->
<g id="edge169" class="edge">
<title>Node1&#45;&gt;Node52</title>
<path fill="none" stroke="midnightblue" d="M640.33,-814.99C731.51,-814.41 977.53,-809.16 1047,-770 1065.99,-759.3 1079.88,-737.9 1087.93,-722.58"/>
<polygon fill="midnightblue" stroke="midnightblue" points="1091.09,-724.08 1092.36,-713.56 1084.81,-720.99 1091.09,-724.08"/>
</g>
<!-- Node8&#45;&gt;Node2 -->
<g id="edge135" class="edge">
<title>Node8&#45;&gt;Node2</title>
<path fill="none" stroke="midnightblue" d="M888.35,-640.9C813.25,-631.79 677.7,-614.39 630,-602 494.66,-566.86 465.88,-541.78 336,-490 314.53,-481.44 309.4,-478.72 288,-470 260.4,-458.76 228.89,-446.23 206.17,-437.26"/>
<polygon fill="midnightblue" stroke="midnightblue" points="207.29,-433.94 196.7,-433.53 204.72,-440.45 207.29,-433.94"/>
</g>
<!-- Node8&#45;&gt;Node3 -->
<g id="edge9" class="edge">
<title>Node8&#45;&gt;Node3</title>
<path fill="none" stroke="midnightblue" d="M900.41,-638.41C786.93,-613.45 462.5,-539.55 366,-490 317.76,-465.23 198,-367.23 198,-313 198,-313 198,-313 198,-193.5 198,-137.19 243.21,-134.09 295,-112 358.9,-84.75 559.18,-73.12 657.06,-68.97"/>
<polygon fill="midnightblue" stroke="midnightblue" points="657.5,-72.45 667.34,-68.54 657.21,-65.46 657.5,-72.45"/>
</g>
<!-- Node8&#45;&gt;Node4 -->
<g id="edge10" class="edge">
<title>Node8&#45;&gt;Node4</title>
<path fill="none" stroke="midnightblue" d="M991.83,-639.43C996.61,-638.88 1001.39,-638.39 1006,-638 1461.06,-599.1 1576.63,-620.02 2033,-602 2599.77,-579.62 2741.59,-576.14 3308,-546 3372.03,-542.59 3452,-601.12 3452,-537 3452,-537 3452,-537 3452,-423 3452,-284.18 3381.05,-241.31 3257,-179 3177.36,-139 3155.45,-129.18 3068,-112 2898.31,-78.67 2371.03,-69.77 2183.25,-67.62"/>
<polygon fill="midnightblue" stroke="midnightblue" points="2183.27,-64.12 2173.23,-67.51 2183.19,-71.12 2183.27,-64.12"/>
</g>
<!-- Node8&#45;&gt;Node6 -->
<g id="edge13" class="edge">
<title>Node8&#45;&gt;Node6</title>
<path fill="none" stroke="midnightblue" d="M936.82,-638.28C920.7,-594.43 846.77,-398.59 798,-358 752.58,-320.2 724.65,-344.48 670,-322 622.53,-302.48 610.76,-295.85 569,-266 545.7,-249.34 521.65,-226.61 506.53,-211.52"/>
<polygon fill="midnightblue" stroke="midnightblue" points="508.63,-208.66 499.11,-204 503.65,-213.58 508.63,-208.66"/>
</g>
<!-- Node9 -->
<g id="node9" class="node">
<title>Node9</title>
<g id="a_node9"><a xlink:title=" ">
<polygon fill="none" stroke="#bfbfbf" points="640,-358.5 640,-377.5 698,-377.5 698,-358.5 640,-358.5"/>
<text text-anchor="middle" x="669" y="-365.5" font-family="Helvetica,sans-Serif" font-size="10.00">memory</text>
</a>
</g>
</g>
<!-- Node8&#45;&gt;Node9 -->
<g id="edge8" class="edge">
<title>Node8&#45;&gt;Node9</title>
<path fill="none" stroke="midnightblue" d="M928,-638.18C916.36,-629.44 898.4,-615.45 884,-602 802.85,-526.21 716.08,-425.17 682.94,-385.75"/>
<polygon fill="midnightblue" stroke="midnightblue" points="685.47,-383.32 676.37,-377.9 680.11,-387.81 685.47,-383.32"/>
</g>
<!-- Node10 -->
<g id="node10" class="node">
<title>Node10</title>
<g id="a_node10"><a xlink:title=" ">
<polygon fill="none" stroke="#bfbfbf" points="966,-582.5 966,-601.5 1016,-601.5 1016,-582.5 966,-582.5"/>
<text text-anchor="middle" x="991" y="-589.5" font-family="Helvetica,sans-Serif" font-size="10.00">cstdint</text>
</a>
</g>
</g>
<!-- Node8&#45;&gt;Node10 -->
<g id="edge11" class="edge">
<title>Node8&#45;&gt;Node10</title>
<path fill="none" stroke="midnightblue" d="M948.42,-638.08C955.85,-630.22 966.85,-618.57 975.81,-609.08"/>
<polygon fill="midnightblue" stroke="midnightblue" points="978.41,-611.42 982.74,-601.75 973.32,-606.62 978.41,-611.42"/>
</g>
<!-- Node11 -->
<g id="node11" class="node">
<title>Node11</title>
<g id="a_node11"><a xlink:title=" ">
<polygon fill="none" stroke="#bfbfbf" points="1944,-118 1944,-137 2012,-137 2012,-118 1944,-118"/>
<text text-anchor="middle" x="1978" y="-125" font-family="Helvetica,sans-Serif" font-size="10.00">filesystem</text>
</a>
</g>
</g>
<!-- Node8&#45;&gt;Node11 -->
<g id="edge12" class="edge">
<title>Node8&#45;&gt;Node11</title>
<path fill="none" stroke="midnightblue" d="M940.5,-638.28C941.63,-625.08 945.27,-599.69 957,-582 1069.78,-411.89 1137.84,-392.05 1321,-302 1349.4,-288.04 1791.87,-175.56 1934.24,-139.55"/>
<polygon fill="midnightblue" stroke="midnightblue" points="1935.12,-142.94 1943.96,-137.09 1933.41,-136.15 1935.12,-142.94"/>
</g>
<!-- Node12 -->
<g id="node12" class="node">
<title>Node12</title>
<g id="a_node12"><a xlink:href="../../d3/d53/preprocessor_8h.html" target="_top" xlink:title=" ">
<polygon fill="none" stroke="black" points="3181.5,-56.5 3181.5,-75.5 3304.5,-75.5 3304.5,-56.5 3181.5,-56.5"/>
<text text-anchor="middle" x="3243" y="-63.5" font-family="Helvetica,sans-Serif" font-size="10.00">../misc/preprocessor.h</text>
</a>
</g>
</g>
<!-- Node8&#45;&gt;Node12 -->
<g id="edge14" class="edge">
<title>Node8&#45;&gt;Node12</title>
<path fill="none" stroke="midnightblue" d="M991.82,-639.4C996.61,-638.86 1001.39,-638.38 1006,-638 1579.86,-591.03 1725.67,-624.73 2301,-602 2787.04,-582.8 2908.44,-574.74 3394,-546 3453.59,-542.47 3528,-596.69 3528,-537 3528,-537 3528,-537 3528,-193.5 3528,-100.38 3399.33,-75.29 3314.91,-68.85"/>
<polygon fill="midnightblue" stroke="midnightblue" points="3315.06,-65.35 3304.84,-68.15 3314.58,-72.33 3315.06,-65.35"/>
</g>
<!-- Node14 -->
<g id="node14" class="node">
<title>Node14</title>
<g id="a_node14"><a xlink:href="../../df/da8/_date_time_8h.html" target="_top" xlink:title=" ">
<polygon fill="none" stroke="black" points="1916,-582.5 1916,-601.5 2024,-601.5 2024,-582.5 1916,-582.5"/>
<text text-anchor="middle" x="1970" y="-589.5" font-family="Helvetica,sans-Serif" font-size="10.00">../time/DateTime.h</text>
</a>
</g>
</g>
<!-- Node8&#45;&gt;Node14 -->
<g id="edge16" class="edge">
<title>Node8&#45;&gt;Node14</title>
<path fill="none" stroke="midnightblue" d="M991.83,-639.49C996.62,-638.93 1001.39,-638.42 1006,-638 1343.82,-607.14 1750.29,-596.95 1905.5,-594.03"/>
<polygon fill="midnightblue" stroke="midnightblue" points="1905.86,-597.53 1915.79,-593.84 1905.73,-590.53 1905.86,-597.53"/>
</g>
<!-- Node13 -->
<g id="node13" class="node">
<title>Node13</title>
<g id="a_node13"><a xlink:title=" ">
<polygon fill="none" stroke="#bfbfbf" points="1915,-0.5 1915,-19.5 2015,-19.5 2015,-0.5 1915,-0.5"/>
<text text-anchor="middle" x="1965" y="-7.5" font-family="Helvetica,sans-Serif" font-size="10.00">limes_platform.h</text>
</a>
</g>
</g>
<!-- Node12&#45;&gt;Node13 -->
<g id="edge15" class="edge">
<title>Node12&#45;&gt;Node13</title>
<path fill="none" stroke="midnightblue" d="M3181.36,-62.4C2964.77,-53.24 2240.16,-22.63 2025.45,-13.55"/>
<polygon fill="midnightblue" stroke="midnightblue" points="2025.45,-10.05 2015.31,-13.13 2025.16,-17.05 2025.45,-10.05"/>
</g>
<!-- Node14&#45;&gt;Node3 -->
<g id="edge17" class="edge">
<title>Node14&#45;&gt;Node3</title>
<path fill="none" stroke="midnightblue" d="M1915.76,-589.21C1656.7,-580.46 551.95,-540.41 407,-490 369.26,-476.87 274,-408.96 274,-369 274,-369 274,-369 274,-193.5 274,-141.48 311.12,-134.55 358,-112 409.64,-87.16 571.48,-74.72 657.3,-69.73"/>
<polygon fill="midnightblue" stroke="midnightblue" points="657.6,-73.22 667.38,-69.16 657.2,-66.23 657.6,-73.22"/>
</g>
<!-- Node14&#45;&gt;Node4 -->
<g id="edge18" class="edge">
<title>Node14&#45;&gt;Node4</title>
<path fill="none" stroke="midnightblue" d="M2024.33,-590.76C2229.88,-589.56 2959.9,-582.75 3189,-546 3291.78,-529.51 3414,-585.09 3414,-481 3414,-481 3414,-481 3414,-423 3414,-282.78 3339.72,-241.1 3214,-179 3116.63,-130.9 3086.13,-129.83 2979,-112 2826.19,-86.57 2358.33,-72.88 2183.15,-68.54"/>
<polygon fill="midnightblue" stroke="midnightblue" points="2183.12,-65.04 2173.04,-68.3 2182.95,-72.04 2183.12,-65.04"/>
</g>
<!-- Node14&#45;&gt;Node6 -->
<g id="edge132" class="edge">
<title>Node14&#45;&gt;Node6</title>
<path fill="none" stroke="midnightblue" d="M1915.95,-584.09C1852.07,-575.77 1742.62,-561.03 1649,-546 1372.95,-501.7 1299.24,-509.31 1030,-434 939.22,-408.61 921.06,-388.87 832,-358 781,-340.32 765.58,-343.35 716,-322 637.88,-288.37 551.93,-235.08 512.69,-209.76"/>
<polygon fill="midnightblue" stroke="midnightblue" points="514.48,-206.75 504.19,-204.24 510.67,-212.62 514.48,-206.75"/>
</g>
<!-- Node15 -->
<g id="node15" class="node">
<title>Node15</title>
<g id="a_node15"><a xlink:href="../../de/df7/time_8h.html" target="_top" xlink:title=" ">
<polygon fill="none" stroke="black" points="2528,-358.5 2528,-377.5 2576,-377.5 2576,-358.5 2528,-358.5"/>
<text text-anchor="middle" x="2552" y="-365.5" font-family="Helvetica,sans-Serif" font-size="10.00">time.h</text>
</a>
</g>
</g>
<!-- Node14&#45;&gt;Node15 -->
<g id="edge19" class="edge">
<title>Node14&#45;&gt;Node15</title>
<path fill="none" stroke="midnightblue" d="M2024.38,-582.68C2150.94,-562.27 2459.99,-506.11 2533,-434 2545.14,-422.01 2549.63,-402.71 2551.23,-388.25"/>
<polygon fill="midnightblue" stroke="midnightblue" points="2554.75,-388.16 2551.99,-377.93 2547.76,-387.64 2554.75,-388.16"/>
</g>
<!-- Node17 -->
<g id="node17" class="node">
<title>Node17</title>
<g id="a_node17"><a xlink:href="../../d0/d00/compiler__defs_8h.html" target="_top" xlink:title=" ">
<polygon fill="none" stroke="black" points="2810.5,-112.5 2810.5,-142.5 2917.5,-142.5 2917.5,-112.5 2810.5,-112.5"/>
<text text-anchor="start" x="2818.5" y="-130.5" font-family="Helvetica,sans-Serif" font-size="10.00">../system/compiler</text>
<text text-anchor="middle" x="2864" y="-119.5" font-family="Helvetica,sans-Serif" font-size="10.00">_defs.h</text>
</a>
</g>
</g>
<!-- Node14&#45;&gt;Node17 -->
<g id="edge134" class="edge">
<title>Node14&#45;&gt;Node17</title>
<path fill="none" stroke="midnightblue" d="M2024.03,-589.83C2210.41,-585.63 2825.83,-570.21 3022,-546 3164.3,-528.44 3338,-624.38 3338,-481 3338,-481 3338,-481 3338,-367 3338,-185.6 3057.54,-142.15 2928.09,-131.76"/>
<polygon fill="midnightblue" stroke="midnightblue" points="2928.15,-128.25 2917.91,-130.99 2927.62,-135.23 2928.15,-128.25"/>
</g>
<!-- Node18 -->
<g id="node18" class="node">
<title>Node18</title>
<g id="a_node18"><a xlink:title=" ">
<polygon fill="none" stroke="#bfbfbf" points="2962,-246.5 2962,-265.5 3006,-265.5 3006,-246.5 2962,-246.5"/>
<text text-anchor="middle" x="2984" y="-253.5" font-family="Helvetica,sans-Serif" font-size="10.00">ctime</text>
</a>
</g>
</g>
<!-- Node14&#45;&gt;Node18 -->
<g id="edge131" class="edge">
<title>Node14&#45;&gt;Node18</title>
<path fill="none" stroke="midnightblue" d="M2024.12,-590.61C2246.77,-588.47 3084.1,-574.78 3162,-490 3233.25,-412.45 3073.1,-308.08 3009.01,-270.88"/>
<polygon fill="midnightblue" stroke="midnightblue" points="3010.37,-267.62 2999.95,-265.69 3006.89,-273.7 3010.37,-267.62"/>
</g>
<!-- Node25 -->
<g id="node25" class="node">
<title>Node25</title>
<g id="a_node25"><a xlink:href="../../d5/dd4/time__utils_8h.html" target="_top" xlink:title=" ">
<polygon fill="none" stroke="black" points="1330,-302.5 1330,-321.5 1404,-321.5 1404,-302.5 1330,-302.5"/>
<text text-anchor="middle" x="1367" y="-309.5" font-family="Helvetica,sans-Serif" font-size="10.00">time_utils.h</text>
</a>
</g>
</g>
<!-- Node14&#45;&gt;Node25 -->
<g id="edge133" class="edge">
<title>Node14&#45;&gt;Node25</title>
<path fill="none" stroke="midnightblue" d="M1915.87,-584.03C1834.58,-572.21 1677.37,-544.08 1554,-490 1478.77,-457.03 1459.78,-440.93 1407,-378 1394.65,-363.28 1383.46,-344.37 1376.07,-330.75"/>
<polygon fill="midnightblue" stroke="midnightblue" points="1378.97,-328.74 1371.21,-321.52 1372.77,-332 1378.97,-328.74"/>
</g>
<!-- Node32 -->
<g id="node32" class="node">
<title>Node32</title>
<g id="a_node32"><a xlink:href="../../db/d96/date_8h.html" target="_top" xlink:title=" ">
<polygon fill="none" stroke="black" points="1946.5,-526.5 1946.5,-545.5 1993.5,-545.5 1993.5,-526.5 1946.5,-526.5"/>
<text text-anchor="middle" x="1970" y="-533.5" font-family="Helvetica,sans-Serif" font-size="10.00">date.h</text>
</a>
</g>
</g>
<!-- Node14&#45;&gt;Node32 -->
<g id="edge73" class="edge">
<title>Node14&#45;&gt;Node32</title>
<path fill="none" stroke="midnightblue" d="M1970,-582.08C1970,-575.01 1970,-564.86 1970,-555.99"/>
<polygon fill="midnightblue" stroke="midnightblue" points="1973.5,-555.75 1970,-545.75 1966.5,-555.75 1973.5,-555.75"/>
</g>
<!-- Node15&#45;&gt;Node3 -->
<g id="edge20" class="edge">
<title>Node15&#45;&gt;Node3</title>
<path fill="none" stroke="midnightblue" d="M2527.76,-366.29C2365.98,-361.55 1445.18,-334.19 1321,-322 1164.66,-306.66 1121.03,-315.68 972,-266 953.89,-259.96 951.31,-254.03 934,-246 895.29,-228.04 877.76,-237.34 845,-210 805.43,-176.97 819.43,-148.46 783,-112 770.22,-99.21 753.19,-88.26 739.01,-80.37"/>
<polygon fill="midnightblue" stroke="midnightblue" points="740.64,-77.27 730.17,-75.63 737.33,-83.44 740.64,-77.27"/>
</g>
<!-- Node15&#45;&gt;Node4 -->
<g id="edge21" class="edge">
<title>Node15&#45;&gt;Node4</title>
<path fill="none" stroke="midnightblue" d="M2527.9,-365.76C2475.68,-361.63 2352.56,-343.69 2300,-266 2295.02,-258.64 2294.63,-253.08 2300,-246 2335.99,-198.59 2385.16,-250.26 2429,-210 2462.11,-179.59 2483.61,-145.82 2454,-112 2436.47,-91.99 2276.9,-77.89 2183.41,-71.27"/>
<polygon fill="midnightblue" stroke="midnightblue" points="2183.41,-67.76 2173.19,-70.56 2182.92,-74.74 2183.41,-67.76"/>
</g>
<!-- Node15&#45;&gt;Node6 -->
<g id="edge53" class="edge">
<title>Node15&#45;&gt;Node6</title>
<path fill="none" stroke="midnightblue" d="M2527.85,-366.35C2346.74,-361.42 1206.08,-330.18 1134,-322 896.7,-295.07 616.24,-227.25 522.95,-203.71"/>
<polygon fill="midnightblue" stroke="midnightblue" points="523.56,-200.25 513.01,-201.19 521.84,-207.04 523.56,-200.25"/>
</g>
<!-- Node15&#45;&gt;Node12 -->
<g id="edge22" class="edge">
<title>Node15&#45;&gt;Node12</title>
<path fill="none" stroke="midnightblue" d="M2576.17,-361.67C2607.13,-354.47 2662.15,-340.39 2707,-322 2724.3,-314.91 2727.32,-310.43 2744,-302 2920.68,-212.73 3137.4,-114.4 3214.29,-79.85"/>
<polygon fill="midnightblue" stroke="midnightblue" points="3216.09,-82.88 3223.78,-75.59 3213.22,-76.49 3216.09,-82.88"/>
</g>
<!-- Node16 -->
<g id="node16" class="node">
<title>Node16</title>
<g id="a_node16"><a xlink:href="../../d4/d37/hour_8h.html" target="_top" xlink:title=" ">
<polygon fill="none" stroke="black" points="2616.5,-302.5 2616.5,-321.5 2663.5,-321.5 2663.5,-302.5 2616.5,-302.5"/>
<text text-anchor="middle" x="2640" y="-309.5" font-family="Helvetica,sans-Serif" font-size="10.00">hour.h</text>
</a>
</g>
</g>
<!-- Node15&#45;&gt;Node16 -->
<g id="edge23" class="edge">
<title>Node15&#45;&gt;Node16</title>
<path fill="none" stroke="midnightblue" d="M2566.14,-358.32C2579.87,-349.9 2600.94,-336.97 2617.06,-327.07"/>
<polygon fill="midnightblue" stroke="midnightblue" points="2619.2,-329.87 2625.9,-321.65 2615.54,-323.9 2619.2,-329.87"/>
</g>
<!-- Node15&#45;&gt;Node17 -->
<g id="edge51" class="edge">
<title>Node15&#45;&gt;Node17</title>
<path fill="none" stroke="midnightblue" d="M2576.43,-358.84C2601.11,-350.38 2640.16,-336.41 2673,-322 2685.56,-316.49 2771.94,-274.11 2783,-266 2811.13,-245.37 2819.99,-239.87 2838,-210 2848.69,-192.26 2855.45,-169.67 2859.39,-152.77"/>
<polygon fill="midnightblue" stroke="midnightblue" points="2862.9,-153.11 2861.58,-142.59 2856.05,-151.63 2862.9,-153.11"/>
</g>
<!-- Node15&#45;&gt;Node18 -->
<g id="edge52" class="edge">
<title>Node15&#45;&gt;Node18</title>
<path fill="none" stroke="midnightblue" d="M2576.01,-361.65C2612.42,-353.47 2683.75,-337.21 2744,-322 2818.9,-303.08 2906.37,-278.85 2952.23,-265.98"/>
<polygon fill="midnightblue" stroke="midnightblue" points="2953.22,-269.33 2961.9,-263.26 2951.32,-262.6 2953.22,-269.33"/>
</g>
<!-- Node15&#45;&gt;Node25 -->
<g id="edge54" class="edge">
<title>Node15&#45;&gt;Node25</title>
<path fill="none" stroke="midnightblue" d="M2527.79,-365.9C2381.33,-359.22 1613.29,-324.22 1414.18,-315.15"/>
<polygon fill="midnightblue" stroke="midnightblue" points="1414.2,-311.65 1404.05,-314.69 1413.88,-318.64 1414.2,-311.65"/>
</g>
<!-- Node31 -->
<g id="node31" class="node">
<title>Node31</title>
<g id="a_node31"><a xlink:href="../../d3/d09/time__impl_8h.html" target="_top" xlink:title=" ">
<polygon fill="none" stroke="black" points="2502,-246.5 2502,-265.5 2602,-265.5 2602,-246.5 2502,-246.5"/>
<text text-anchor="middle" x="2552" y="-253.5" font-family="Helvetica,sans-Serif" font-size="10.00">impl/time_impl.h</text>
</a>
</g>
</g>
<!-- Node15&#45;&gt;Node31 -->
<g id="edge70" class="edge">
<title>Node15&#45;&gt;Node31</title>
<path fill="none" stroke="midnightblue" d="M2552,-358.37C2552,-340.62 2552,-299.67 2552,-275.6"/>
<polygon fill="midnightblue" stroke="midnightblue" points="2555.5,-275.59 2552,-265.59 2548.5,-275.59 2555.5,-275.59"/>
</g>
<!-- Node16&#45;&gt;Node3 -->
<g id="edge24" class="edge">
<title>Node16&#45;&gt;Node3</title>
<path fill="none" stroke="midnightblue" d="M2616.23,-310.57C2431.67,-307.19 1232.66,-284.57 1159,-266 1139.73,-261.14 1137.72,-252.67 1119,-246 1050.34,-221.52 1021.88,-246.86 959,-210 908.5,-180.4 920.68,-142.97 871,-112 839.37,-92.28 798.88,-80.98 766.68,-74.64"/>
<polygon fill="midnightblue" stroke="midnightblue" points="767.01,-71.14 756.54,-72.75 765.73,-78.03 767.01,-71.14"/>
</g>
<!-- Node16&#45;&gt;Node4 -->
<g id="edge25" class="edge">
<title>Node16&#45;&gt;Node4</title>
<path fill="none" stroke="midnightblue" d="M2643.78,-302.4C2656.58,-271.81 2694.72,-167.23 2644,-112 2613.45,-78.73 2319.05,-70.02 2183.6,-67.77"/>
<polygon fill="midnightblue" stroke="midnightblue" points="2183.39,-64.27 2173.34,-67.61 2183.28,-71.27 2183.39,-64.27"/>
</g>
<!-- Node16&#45;&gt;Node12 -->
<g id="edge26" class="edge">
<title>Node16&#45;&gt;Node12</title>
<path fill="none" stroke="midnightblue" d="M2663.57,-305.18C2692.36,-297.71 2742.26,-283.59 2783,-266 2911.6,-210.46 2927.63,-163.25 3058,-112 3098.07,-96.25 3145.26,-84.88 3181.95,-77.5"/>
<polygon fill="midnightblue" stroke="midnightblue" points="3182.86,-80.89 3192,-75.53 3181.51,-74.02 3182.86,-80.89"/>
</g>
<!-- Node16&#45;&gt;Node17 -->
<g id="edge27" class="edge">
<title>Node16&#45;&gt;Node17</title>
<path fill="none" stroke="midnightblue" d="M2663.6,-303.69C2693.4,-294.17 2742.65,-277.41 2758,-266 2800.35,-234.52 2834.34,-181.8 2851.61,-151.61"/>
<polygon fill="midnightblue" stroke="midnightblue" points="2854.79,-153.09 2856.62,-142.65 2848.68,-149.67 2854.79,-153.09"/>
</g>
<!-- Node16&#45;&gt;Node18 -->
<g id="edge30" class="edge">
<title>Node16&#45;&gt;Node18</title>
<path fill="none" stroke="midnightblue" d="M2663.64,-307.29C2723.87,-297.83 2883.14,-272.83 2951.78,-262.06"/>
<polygon fill="midnightblue" stroke="midnightblue" points="2952.65,-265.46 2961.99,-260.46 2951.56,-258.55 2952.65,-265.46"/>
</g>
<!-- Node19 -->
<g id="node19" class="node">
<title>Node19</title>
<g id="a_node19"><a xlink:href="../../d5/dab/hour__impl_8h.html" target="_top" xlink:title=" ">
<polygon fill="none" stroke="black" points="2308.5,-246.5 2308.5,-265.5 2407.5,-265.5 2407.5,-246.5 2308.5,-246.5"/>
<text text-anchor="middle" x="2358" y="-253.5" font-family="Helvetica,sans-Serif" font-size="10.00">impl/hour_impl.h</text>
</a>
</g>
</g>
<!-- Node16&#45;&gt;Node19 -->
<g id="edge31" class="edge">
<title>Node16&#45;&gt;Node19</title>
<path fill="none" stroke="midnightblue" d="M2616.44,-306.49C2571.86,-297.95 2474.12,-279.24 2412.44,-267.42"/>
<polygon fill="midnightblue" stroke="midnightblue" points="2412.97,-263.96 2402.49,-265.52 2411.65,-270.84 2412.97,-263.96"/>
</g>
<!-- Node17&#45;&gt;Node12 -->
<g id="edge29" class="edge">
<title>Node17&#45;&gt;Node12</title>
<path fill="none" stroke="midnightblue" d="M2917.9,-118.04C2986.6,-107.25 3105.25,-88.63 3178.63,-77.11"/>
<polygon fill="midnightblue" stroke="midnightblue" points="3179.34,-80.54 3188.67,-75.53 3178.25,-73.62 3179.34,-80.54"/>
</g>
<!-- Node17&#45;&gt;Node13 -->
<g id="edge28" class="edge">
<title>Node17&#45;&gt;Node13</title>
<path fill="none" stroke="midnightblue" d="M2810.38,-114.55C2738.33,-98.91 2606.13,-71.65 2492,-56 2323.74,-32.93 2123.53,-19.71 2025.36,-14.14"/>
<polygon fill="midnightblue" stroke="midnightblue" points="2025.51,-10.65 2015.33,-13.58 2025.12,-17.64 2025.51,-10.65"/>
</g>
<!-- Node19&#45;&gt;Node4 -->
<g id="edge32" class="edge">
<title>Node19&#45;&gt;Node4</title>
<path fill="none" stroke="midnightblue" d="M2387.92,-246.46C2410.84,-239.05 2442.56,-226.86 2467,-210 2500.65,-186.79 2514.94,-181 2530,-143 2535.08,-130.19 2539.2,-122.26 2530,-112 2507.32,-86.72 2294.93,-74.31 2183.52,-69.49"/>
<polygon fill="midnightblue" stroke="midnightblue" points="2183.52,-65.99 2173.38,-69.06 2183.23,-72.98 2183.52,-65.99"/>
</g>
<!-- Node20 -->
<g id="node20" class="node">
<title>Node20</title>
<g id="a_node20"><a xlink:href="../../d5/dbb/limes__assert_8h.html" target="_top" xlink:title=" ">
<polygon fill="none" stroke="black" points="2285.5,-179.5 2285.5,-209.5 2386.5,-209.5 2386.5,-179.5 2285.5,-179.5"/>
<text text-anchor="start" x="2293.5" y="-197.5" font-family="Helvetica,sans-Serif" font-size="10.00">../../system/limes</text>
<text text-anchor="middle" x="2336" y="-186.5" font-family="Helvetica,sans-Serif" font-size="10.00">_assert.h</text>
</a>
</g>
</g>
<!-- Node19&#45;&gt;Node20 -->
<g id="edge33" class="edge">
<title>Node19&#45;&gt;Node20</title>
<path fill="none" stroke="midnightblue" d="M2354.85,-246.48C2352.2,-239.32 2348.29,-228.75 2344.72,-219.08"/>
<polygon fill="midnightblue" stroke="midnightblue" points="2347.94,-217.69 2341.18,-209.52 2341.37,-220.12 2347.94,-217.69"/>
</g>
<!-- Node24 -->
<g id="node24" class="node">
<title>Node24</title>
<g id="a_node24"><a xlink:href="../../dc/db3/build__date_8h.html" target="_top" xlink:title=" ">
<polygon fill="none" stroke="black" points="2519,-185 2519,-204 2605,-204 2605,-185 2519,-185"/>
<text text-anchor="middle" x="2562" y="-192" font-family="Helvetica,sans-Serif" font-size="10.00">../build_date.h</text>
</a>
</g>
</g>
<!-- Node19&#45;&gt;Node24 -->
<g id="edge46" class="edge">
<title>Node19&#45;&gt;Node24</title>
<path fill="none" stroke="midnightblue" d="M2387.23,-246.48C2422.9,-236.07 2483.36,-218.44 2522.98,-206.88"/>
<polygon fill="midnightblue" stroke="midnightblue" points="2524.21,-210.17 2532.83,-204.01 2522.25,-203.45 2524.21,-210.17"/>
</g>
<!-- Node20&#45;&gt;Node3 -->
<g id="edge34" class="edge">
<title>Node20&#45;&gt;Node3</title>
<path fill="none" stroke="midnightblue" d="M2287.16,-179.47C2212.28,-158.19 2072.36,-119.44 2021,-112 1773.15,-76.12 982.73,-68.67 766.9,-67.29"/>
<polygon fill="midnightblue" stroke="midnightblue" points="766.79,-63.79 756.77,-67.23 766.74,-70.79 766.79,-63.79"/>
</g>
<!-- Node20&#45;&gt;Node4 -->
<g id="edge35" class="edge">
<title>Node20&#45;&gt;Node4</title>
<path fill="none" stroke="midnightblue" d="M2292.6,-179.49C2267.86,-170.65 2236.76,-158.07 2211,-143 2180.96,-125.43 2150.24,-98.99 2132.15,-82.38"/>
<polygon fill="midnightblue" stroke="midnightblue" points="2134.48,-79.77 2124.78,-75.51 2129.71,-84.89 2134.48,-79.77"/>
</g>
<!-- Node20&#45;&gt;Node11 -->
<g id="edge44" class="edge">
<title>Node20&#45;&gt;Node11</title>
<path fill="none" stroke="midnightblue" d="M2285.22,-180.68C2282.45,-180.09 2279.69,-179.52 2277,-179 2166.37,-157.53 2136.03,-167.36 2026,-143 2021.89,-142.09 2017.62,-141.01 2013.39,-139.85"/>
<polygon fill="midnightblue" stroke="midnightblue" points="2014.3,-136.46 2003.72,-137.05 2012.35,-143.19 2014.3,-136.46"/>
</g>
<!-- Node20&#45;&gt;Node12 -->
<g id="edge36" class="edge">
<title>Node20&#45;&gt;Node12</title>
<path fill="none" stroke="midnightblue" d="M2383.22,-179.47C2447.64,-160.92 2566.98,-128.64 2671,-112 2849.43,-83.47 3062.19,-72.78 3171.04,-68.97"/>
<polygon fill="midnightblue" stroke="midnightblue" points="3171.37,-72.46 3181.25,-68.62 3171.13,-65.46 3171.37,-72.46"/>
</g>
<!-- Node20&#45;&gt;Node13 -->
<g id="edge43" class="edge">
<title>Node20&#45;&gt;Node13</title>
<path fill="none" stroke="midnightblue" d="M2377.4,-179.4C2394.03,-171.46 2411.49,-159.71 2421,-143 2427.81,-131.03 2429.38,-122.94 2421,-112 2373.35,-49.82 2137.86,-23.97 2025.23,-15.03"/>
<polygon fill="midnightblue" stroke="midnightblue" points="2025.29,-11.52 2015.05,-14.24 2024.75,-18.5 2025.29,-11.52"/>
</g>
<!-- Node20&#45;&gt;Node17 -->
<g id="edge45" class="edge">
<title>Node20&#45;&gt;Node17</title>
<path fill="none" stroke="midnightblue" d="M2386.63,-187.27C2483.4,-175.35 2694.4,-149.38 2800.47,-136.32"/>
<polygon fill="midnightblue" stroke="midnightblue" points="2800.9,-139.79 2810.39,-135.1 2800.04,-132.85 2800.9,-139.79"/>
</g>
<!-- Node21 -->
<g id="node21" class="node">
<title>Node21</title>
<g id="a_node21"><a xlink:title=" ">
<polygon fill="none" stroke="#bfbfbf" points="1501.5,-118 1501.5,-137 1570.5,-137 1570.5,-118 1501.5,-118"/>
<text text-anchor="middle" x="1536" y="-125" font-family="Helvetica,sans-Serif" font-size="10.00">type_traits</text>
</a>
</g>
</g>
<!-- Node20&#45;&gt;Node21 -->
<g id="edge37" class="edge">
<title>Node20&#45;&gt;Node21</title>
<path fill="none" stroke="midnightblue" d="M2285.26,-180.44C2282.48,-179.91 2279.71,-179.42 2277,-179 2141.5,-157.89 1719.6,-137 1580.78,-130.53"/>
<polygon fill="midnightblue" stroke="midnightblue" points="1580.67,-127.02 1570.52,-130.06 1580.34,-134.02 1580.67,-127.02"/>
</g>
<!-- Node22 -->
<g id="node22" class="node">
<title>Node22</title>
<g id="a_node22"><a xlink:title=" ">
<polygon fill="none" stroke="#bfbfbf" points="2366.5,-118 2366.5,-137 2411.5,-137 2411.5,-118 2366.5,-118"/>
<text text-anchor="middle" x="2389" y="-125" font-family="Helvetica,sans-Serif" font-size="10.00">utility</text>
</a>
</g>
</g>
<!-- Node20&#45;&gt;Node22 -->
<g id="edge38" class="edge">
<title>Node20&#45;&gt;Node22</title>
<path fill="none" stroke="midnightblue" d="M2347.5,-179.4C2355.68,-169.36 2366.71,-155.84 2375.34,-145.25"/>
<polygon fill="midnightblue" stroke="midnightblue" points="2378.3,-147.16 2381.91,-137.19 2372.88,-142.73 2378.3,-147.16"/>
</g>
<!-- Node23 -->
<g id="node23" class="node">
<title>Node23</title>
<g id="a_node23"><a xlink:href="../../d1/d57/_ignore_unused_8h.html" target="_top" xlink:title=" ">
<polygon fill="none" stroke="black" points="2220,-118 2220,-137 2348,-137 2348,-118 2220,-118"/>
<text text-anchor="middle" x="2284" y="-125" font-family="Helvetica,sans-Serif" font-size="10.00">../misc/IgnoreUnused.h</text>
</a>
</g>
</g>
<!-- Node20&#45;&gt;Node23 -->
<g id="edge39" class="edge">
<title>Node20&#45;&gt;Node23</title>
<path fill="none" stroke="midnightblue" d="M2324.72,-179.4C2316.69,-169.36 2305.87,-155.84 2297.4,-145.25"/>
<polygon fill="midnightblue" stroke="midnightblue" points="2299.94,-142.82 2290.96,-137.19 2294.47,-147.19 2299.94,-142.82"/>
</g>
<!-- Node23&#45;&gt;Node3 -->
<g id="edge40" class="edge">
<title>Node23&#45;&gt;Node3</title>
<path fill="none" stroke="midnightblue" d="M2244.49,-117.94C2232.22,-115.61 2218.6,-113.35 2206,-112 1918.86,-81.17 1001.65,-69.93 767.06,-67.52"/>
<polygon fill="midnightblue" stroke="midnightblue" points="766.77,-64.02 756.73,-67.42 766.69,-71.02 766.77,-64.02"/>
</g>
<!-- Node23&#45;&gt;Node4 -->
<g id="edge41" class="edge">
<title>Node23&#45;&gt;Node4</title>
<path fill="none" stroke="midnightblue" d="M2259.93,-117.98C2230.99,-107.72 2182.24,-90.46 2149.6,-78.9"/>
<polygon fill="midnightblue" stroke="midnightblue" points="2150.62,-75.55 2140.03,-75.51 2148.28,-82.15 2150.62,-75.55"/>
</g>
<!-- Node23&#45;&gt;Node13 -->
<g id="edge42" class="edge">
<title>Node23&#45;&gt;Node13</title>
<path fill="none" stroke="midnightblue" d="M2274.38,-117.83C2257.17,-102.81 2219.4,-72.02 2182,-56 2131.63,-34.43 2070.15,-22.93 2025.51,-16.98"/>
<polygon fill="midnightblue" stroke="midnightblue" points="2025.76,-13.48 2015.4,-15.68 2024.87,-20.42 2025.76,-13.48"/>
</g>
<!-- Node24&#45;&gt;Node3 -->
<g id="edge47" class="edge">
<title>Node24&#45;&gt;Node3</title>
<path fill="none" stroke="midnightblue" d="M2519,-189.16C2452.5,-182.04 2320.92,-166.29 2211,-143 2161.31,-132.47 2151.2,-119.77 2101,-112 1837.1,-71.16 991.04,-67.3 766.91,-67.01"/>
<polygon fill="midnightblue" stroke="midnightblue" points="766.72,-63.51 756.72,-66.99 766.71,-70.51 766.72,-63.51"/>
</g>
<!-- Node24&#45;&gt;Node4 -->
<g id="edge48" class="edge">
<title>Node24&#45;&gt;Node4</title>
<path fill="none" stroke="midnightblue" d="M2573.07,-184.79C2592.02,-168.89 2626.7,-134.69 2606,-112 2578.08,-81.39 2311.09,-71.33 2183.39,-68.25"/>
<polygon fill="midnightblue" stroke="midnightblue" points="2183.41,-64.75 2173.33,-68.02 2183.25,-71.75 2183.41,-64.75"/>
</g>
<!-- Node24&#45;&gt;Node12 -->
<g id="edge49" class="edge">
<title>Node24&#45;&gt;Node12</title>
<path fill="none" stroke="midnightblue" d="M2578.83,-184.94C2613.3,-167.83 2694.89,-129.55 2768,-112 2908.13,-78.36 3077.18,-69.66 3171.12,-67.54"/>
<polygon fill="midnightblue" stroke="midnightblue" points="3171.44,-71.03 3181.36,-67.33 3171.29,-64.03 3171.44,-71.03"/>
</g>
<!-- Node24&#45;&gt;Node17 -->
<g id="edge50" class="edge">
<title>Node24&#45;&gt;Node17</title>
<path fill="none" stroke="midnightblue" d="M2601.79,-184.94C2652.36,-174.05 2740.27,-155.13 2800.24,-142.22"/>
<polygon fill="midnightblue" stroke="midnightblue" points="2801.32,-145.57 2810.36,-140.05 2799.85,-138.73 2801.32,-145.57"/>
</g>
<!-- Node25&#45;&gt;Node3 -->
<g id="edge55" class="edge">
<title>Node25&#45;&gt;Node3</title>
<path fill="none" stroke="midnightblue" d="M1329.76,-309.99C1264.68,-307.4 1126.57,-298.23 1015,-266 994.75,-260.15 991.53,-253.93 972,-246 927.07,-227.75 905.27,-242.19 869,-210 832.72,-177.81 856.37,-145.18 821,-112 804.05,-96.1 780.7,-85.45 759.96,-78.53"/>
<polygon fill="midnightblue" stroke="midnightblue" points="760.92,-75.16 750.33,-75.51 758.83,-81.84 760.92,-75.16"/>
</g>
<!-- Node25&#45;&gt;Node4 -->
<g id="edge56" class="edge">
<title>Node25&#45;&gt;Node4</title>
<path fill="none" stroke="midnightblue" d="M1385.52,-302.41C1404.24,-293.62 1433.9,-279.39 1459,-266 1579.54,-201.73 1595.32,-154.93 1725,-112 1834.26,-75.83 1969.01,-67.78 2048.41,-66.5"/>
<polygon fill="midnightblue" stroke="midnightblue" points="2048.81,-69.99 2058.76,-66.36 2048.72,-62.99 2048.81,-69.99"/>
</g>
<!-- Node25&#45;&gt;Node17 -->
<g id="edge69" class="edge">
<title>Node25&#45;&gt;Node17</title>
<path fill="none" stroke="midnightblue" d="M1404.13,-310.7C1598.3,-308.98 2492.4,-299.31 2611,-266 2687.06,-244.64 2696.43,-216.43 2766,-179 2786.04,-168.22 2808.61,-156.55 2827.03,-147.16"/>
<polygon fill="midnightblue" stroke="midnightblue" points="2828.66,-150.26 2835.98,-142.6 2825.48,-144.02 2828.66,-150.26"/>
</g>
<!-- Node25&#45;&gt;Node18 -->
<g id="edge58" class="edge">
<title>Node25&#45;&gt;Node18</title>
<path fill="none" stroke="midnightblue" d="M1404.2,-309.76C1623.6,-302.43 2746.06,-264.95 2951.64,-258.08"/>
<polygon fill="midnightblue" stroke="midnightblue" points="2951.91,-261.57 2961.78,-257.74 2951.67,-254.58 2951.91,-261.57"/>
</g>
<!-- Node25&#45;&gt;Node21 -->
<g id="edge59" class="edge">
<title>Node25&#45;&gt;Node21</title>
<path fill="none" stroke="midnightblue" d="M1383.53,-302.49C1398.31,-294.37 1420.04,-281.17 1436,-266 1475.45,-228.51 1509.94,-173.71 1526.16,-145.97"/>
<polygon fill="midnightblue" stroke="midnightblue" points="1529.33,-147.47 1531.28,-137.06 1523.26,-143.98 1529.33,-147.47"/>
</g>
<!-- Node26 -->
<g id="node26" class="node">
<title>Node26</title>
<g id="a_node26"><a xlink:title=" ">
<polygon fill="none" stroke="#bfbfbf" points="1024,-246.5 1024,-265.5 1074,-265.5 1074,-246.5 1024,-246.5"/>
<text text-anchor="middle" x="1049" y="-253.5" font-family="Helvetica,sans-Serif" font-size="10.00">chrono</text>
</a>
</g>
</g>
<!-- Node25&#45;&gt;Node26 -->
<g id="edge57" class="edge">
<title>Node25&#45;&gt;Node26</title>
<path fill="none" stroke="midnightblue" d="M1329.85,-305.82C1276.25,-298.15 1174.19,-282.88 1088,-266 1086.73,-265.75 1085.45,-265.49 1084.15,-265.23"/>
<polygon fill="midnightblue" stroke="midnightblue" points="1084.64,-261.75 1074.12,-263.06 1083.16,-268.59 1084.64,-261.75"/>
</g>
<!-- Node27 -->
<g id="node27" class="node">
<title>Node27</title>
<g id="a_node27"><a xlink:href="../../d4/dd5/_type_traits_8h.html" target="_top" xlink:title=" ">
<polygon fill="none" stroke="black" points="1168,-246.5 1168,-265.5 1280,-265.5 1280,-246.5 1168,-246.5"/>
<text text-anchor="middle" x="1224" y="-253.5" font-family="Helvetica,sans-Serif" font-size="10.00">../meta/TypeTraits.h</text>
</a>
</g>
</g>
<!-- Node25&#45;&gt;Node27 -->
<g id="edge60" class="edge">
<title>Node25&#45;&gt;Node27</title>
<path fill="none" stroke="midnightblue" d="M1344.34,-302.44C1320.6,-293.48 1283.09,-279.31 1256.26,-269.18"/>
<polygon fill="midnightblue" stroke="midnightblue" points="1257.14,-265.77 1246.55,-265.52 1254.67,-272.32 1257.14,-265.77"/>
</g>
<!-- Node27&#45;&gt;Node3 -->
<g id="edge64" class="edge">
<title>Node27&#45;&gt;Node3</title>
<path fill="none" stroke="midnightblue" d="M1167.89,-247.22C1101.35,-237.58 997.57,-221.08 983,-210 944.39,-180.65 973.4,-141.63 935,-112 909.19,-92.08 823.93,-79.14 766.63,-72.46"/>
<polygon fill="midnightblue" stroke="midnightblue" points="766.96,-68.97 756.63,-71.32 766.17,-75.93 766.96,-68.97"/>
</g>
<!-- Node27&#45;&gt;Node4 -->
<g id="edge66" class="edge">
<title>Node27&#45;&gt;Node4</title>
<path fill="none" stroke="midnightblue" d="M1229.72,-246.23C1235.43,-237.29 1244.31,-222.95 1251,-210 1272.84,-167.74 1254.91,-139.09 1294,-112 1355.32,-69.51 1863.45,-66.39 2048.73,-66.69"/>
<polygon fill="midnightblue" stroke="midnightblue" points="2048.88,-70.19 2058.89,-66.71 2048.9,-63.19 2048.88,-70.19"/>
</g>
<!-- Node27&#45;&gt;Node6 -->
<g id="edge63" class="edge">
<title>Node27&#45;&gt;Node6</title>
<path fill="none" stroke="midnightblue" d="M1167.7,-250.43C1022.21,-238.62 637.15,-207.36 523.2,-198.11"/>
<polygon fill="midnightblue" stroke="midnightblue" points="523.29,-194.61 513.04,-197.29 522.72,-201.59 523.29,-194.61"/>
</g>
<!-- Node27&#45;&gt;Node13 -->
<g id="edge65" class="edge">
<title>Node27&#45;&gt;Node13</title>
<path fill="none" stroke="midnightblue" d="M1167.99,-246.57C1109.72,-237.22 1025.6,-221.9 1016,-210 1007.35,-199.28 1007.61,-189.93 1016,-179 1124.83,-37.17 1713.22,-15.06 1904.73,-11.63"/>
<polygon fill="midnightblue" stroke="midnightblue" points="1904.95,-15.12 1914.89,-11.46 1904.83,-8.13 1904.95,-15.12"/>
</g>
<!-- Node27&#45;&gt;Node21 -->
<g id="edge61" class="edge">
<title>Node27&#45;&gt;Node21</title>
<path fill="none" stroke="midnightblue" d="M1245.45,-246.31C1299.68,-224.32 1442.45,-166.43 1505.42,-140.9"/>
<polygon fill="midnightblue" stroke="midnightblue" points="1506.87,-144.09 1514.82,-137.09 1504.24,-137.6 1506.87,-144.09"/>
</g>
<!-- Node28 -->
<g id="node28" class="node">
<title>Node28</title>
<g id="a_node28"><a xlink:title=" ">
<polygon fill="none" stroke="#bfbfbf" points="1025.5,-185 1025.5,-204 1082.5,-204 1082.5,-185 1025.5,-185"/>
<text text-anchor="middle" x="1054" y="-192" font-family="Helvetica,sans-Serif" font-size="10.00">typeinfo</text>
</a>
</g>
</g>
<!-- Node27&#45;&gt;Node28 -->
<g id="edge62" class="edge">
<title>Node27&#45;&gt;Node28</title>
<path fill="none" stroke="midnightblue" d="M1197.38,-246.4C1170.43,-237.6 1127.64,-223.37 1091,-210 1089.1,-209.31 1087.16,-208.59 1085.2,-207.85"/>
<polygon fill="midnightblue" stroke="midnightblue" points="1086.05,-204.42 1075.46,-204.11 1083.54,-210.96 1086.05,-204.42"/>
</g>
<!-- Node29 -->
<g id="node29" class="node">
<title>Node29</title>
<g id="a_node29"><a xlink:title=" ">
<polygon fill="none" stroke="#bfbfbf" points="1100.5,-185 1100.5,-204 1165.5,-204 1165.5,-185 1100.5,-185"/>
<text text-anchor="middle" x="1133" y="-192" font-family="Helvetica,sans-Serif" font-size="10.00">exception</text>
</a>
</g>
</g>
<!-- Node27&#45;&gt;Node29 -->
<g id="edge67" class="edge">
<title>Node27&#45;&gt;Node29</title>
<path fill="none" stroke="midnightblue" d="M1210.96,-246.48C1196.23,-236.84 1172.03,-221.02 1154.49,-209.55"/>
<polygon fill="midnightblue" stroke="midnightblue" points="1156.3,-206.55 1146.01,-204.01 1152.47,-212.41 1156.3,-206.55"/>
</g>
<!-- Node30 -->
<g id="node30" class="node">
<title>Node30</title>
<g id="a_node30"><a xlink:title=" ">
<polygon fill="none" stroke="#bfbfbf" points="1184,-185 1184,-204 1242,-204 1242,-185 1184,-185"/>
<text text-anchor="middle" x="1213" y="-192" font-family="Helvetica,sans-Serif" font-size="10.00">cxxabi.h</text>
</a>
</g>
</g>
<!-- Node27&#45;&gt;Node30 -->
<g id="edge68" class="edge">
<title>Node27&#45;&gt;Node30</title>
<path fill="none" stroke="midnightblue" d="M1222.42,-246.48C1220.87,-238.08 1218.45,-224.98 1216.45,-214.16"/>
<polygon fill="midnightblue" stroke="midnightblue" points="1219.83,-213.21 1214.57,-204.01 1212.95,-214.48 1219.83,-213.21"/>
</g>
<!-- Node31&#45;&gt;Node4 -->
<g id="edge71" class="edge">
<title>Node31&#45;&gt;Node4</title>
<path fill="none" stroke="midnightblue" d="M2570.99,-246.45C2585.28,-238.96 2604.05,-226.67 2614,-210 2636.42,-172.45 2652.53,-144.27 2623,-112 2593.92,-80.23 2315.06,-70.75 2183.75,-68.04"/>
<polygon fill="midnightblue" stroke="midnightblue" points="2183.48,-64.53 2173.41,-67.83 2183.34,-71.53 2183.48,-64.53"/>
</g>
<!-- Node31&#45;&gt;Node24 -->
<g id="edge72" class="edge">
<title>Node31&#45;&gt;Node24</title>
<path fill="none" stroke="midnightblue" d="M2553.43,-246.48C2554.84,-238.08 2557.05,-224.98 2558.86,-214.16"/>
<polygon fill="midnightblue" stroke="midnightblue" points="2562.36,-214.45 2560.57,-204.01 2555.46,-213.29 2562.36,-214.45"/>
</g>
<!-- Node32&#45;&gt;Node3 -->
<g id="edge74" class="edge">
<title>Node32&#45;&gt;Node3</title>
<path fill="none" stroke="midnightblue" d="M1946.22,-535C1825.36,-534.09 1269.75,-518.94 878,-322 837.91,-301.85 733.48,-248.23 710,-210 686.03,-170.98 697.64,-113.96 706,-85.13"/>
<polygon fill="midnightblue" stroke="midnightblue" points="709.35,-86.14 708.96,-75.56 702.66,-84.07 709.35,-86.14"/>
</g>
<!-- Node32&#45;&gt;Node4 -->
<g id="edge75" class="edge">
<title>Node32&#45;&gt;Node4</title>
<path fill="none" stroke="midnightblue" d="M1993.58,-535.21C2146.13,-535.97 2990.35,-530.67 3086,-322 3134.78,-215.58 3039.07,-145.86 2927,-112 2788.66,-70.21 2351.99,-66.49 2183.36,-66.67"/>
<polygon fill="midnightblue" stroke="midnightblue" points="2183.12,-63.17 2173.13,-66.69 2183.14,-70.17 2183.12,-63.17"/>
</g>
<!-- Node32&#45;&gt;Node6 -->
<g id="edge124" class="edge">
<title>Node32&#45;&gt;Node6</title>
<path fill="none" stroke="midnightblue" d="M1946.38,-533.59C1882.66,-529.55 1702.03,-516.46 1554,-490 1167.73,-420.95 1075.26,-380.69 700,-266 636.7,-246.65 563.6,-221.29 522.79,-206.86"/>
<polygon fill="midnightblue" stroke="midnightblue" points="523.73,-203.48 513.14,-203.43 521.39,-210.08 523.73,-203.48"/>
</g>
<!-- Node32&#45;&gt;Node12 -->
<g id="edge76" class="edge">
<title>Node32&#45;&gt;Node12</title>
<path fill="none" stroke="midnightblue" d="M1993.63,-535.41C2089.37,-536.69 2457.51,-538.05 2755,-490 2849.51,-474.74 2870.87,-460.05 2963,-434 3131.61,-386.33 3198.32,-423.71 3341,-322 3421.11,-264.89 3470.89,-190.05 3411,-112 3398.88,-96.21 3354.7,-84.75 3314.68,-77.35"/>
<polygon fill="midnightblue" stroke="midnightblue" points="3315.08,-73.86 3304.62,-75.55 3313.85,-80.75 3315.08,-73.86"/>
</g>
<!-- Node32&#45;&gt;Node17 -->
<g id="edge126" class="edge">
<title>Node32&#45;&gt;Node17</title>
<path fill="none" stroke="midnightblue" d="M1993.67,-533.84C2117.82,-527.54 2694.47,-495.36 2861,-434 2950.48,-401.03 2994.45,-403.47 3044,-322 3061.58,-293.1 3055.47,-278.99 3048,-246 3040.71,-213.82 3040.74,-200.83 3016,-179 2991.46,-157.35 2957.36,-144.93 2927.67,-137.83"/>
<polygon fill="midnightblue" stroke="midnightblue" points="2928.31,-134.39 2917.79,-135.62 2926.79,-141.22 2928.31,-134.39"/>
</g>
<!-- Node32&#45;&gt;Node18 -->
<g id="edge123" class="edge">
<title>Node32&#45;&gt;Node18</title>
<path fill="none" stroke="midnightblue" d="M1993.7,-531.44C2043.2,-523.97 2161.18,-506.05 2260,-490 2553.68,-442.3 2678.92,-552.37 2920,-378 2954.86,-352.78 2972.43,-302.71 2979.72,-275.56"/>
<polygon fill="midnightblue" stroke="midnightblue" points="2983.14,-276.31 2982.17,-265.76 2976.35,-274.61 2983.14,-276.31"/>
</g>
<!-- Node32&#45;&gt;Node25 -->
<g id="edge125" class="edge">
<title>Node32&#45;&gt;Node25</title>
<path fill="none" stroke="midnightblue" d="M1946.47,-533.78C1875.06,-529.81 1661.86,-516.03 1598,-490 1504.44,-451.86 1416.1,-365.31 1381.91,-329.24"/>
<polygon fill="midnightblue" stroke="midnightblue" points="1384.14,-326.51 1374.75,-321.6 1379.03,-331.29 1384.14,-326.51"/>
</g>
<!-- Node33 -->
<g id="node33" class="node">
<title>Node33</title>
<g id="a_node33"><a xlink:href="../../d0/ddc/weekday_8h.html" target="_top" xlink:title=" ">
<polygon fill="none" stroke="black" points="1936,-470.5 1936,-489.5 2004,-489.5 2004,-470.5 1936,-470.5"/>
<text text-anchor="middle" x="1970" y="-477.5" font-family="Helvetica,sans-Serif" font-size="10.00">weekday.h</text>
</a>
</g>
</g>
<!-- Node32&#45;&gt;Node33 -->
<g id="edge77" class="edge">
<title>Node32&#45;&gt;Node33</title>
<path fill="none" stroke="midnightblue" d="M1970,-526.08C1970,-519.01 1970,-508.86 1970,-499.99"/>
<polygon fill="midnightblue" stroke="midnightblue" points="1973.5,-499.75 1970,-489.75 1966.5,-499.75 1973.5,-499.75"/>
</g>
<!-- Node34 -->
<g id="node34" class="node">
<title>Node34</title>
<g id="a_node34"><a xlink:href="../../d5/d98/year_8h.html" target="_top" xlink:title=" ">
<polygon fill="none" stroke="black" points="2476.5,-414.5 2476.5,-433.5 2523.5,-433.5 2523.5,-414.5 2476.5,-414.5"/>
<text text-anchor="middle" x="2500" y="-421.5" font-family="Helvetica,sans-Serif" font-size="10.00">year.h</text>
</a>
</g>
</g>
<!-- Node32&#45;&gt;Node34 -->
<g id="edge122" class="edge">
<title>Node32&#45;&gt;Node34</title>
<path fill="none" stroke="midnightblue" d="M1993.61,-530.42C2064.61,-516.57 2282.35,-473.71 2462,-434 2463.45,-433.68 2464.93,-433.35 2466.42,-433.01"/>
<polygon fill="midnightblue" stroke="midnightblue" points="2467.35,-436.39 2476.31,-430.73 2465.78,-429.57 2467.35,-436.39"/>
</g>
<!-- Node40 -->
<g id="node40" class="node">
<title>Node40</title>
<g id="a_node40"><a xlink:href="../../d7/d38/month_8h.html" target="_top" xlink:title=" ">
<polygon fill="none" stroke="black" points="1854.5,-414.5 1854.5,-433.5 1911.5,-433.5 1911.5,-414.5 1854.5,-414.5"/>
<text text-anchor="middle" x="1883" y="-421.5" font-family="Helvetica,sans-Serif" font-size="10.00">month.h</text>
</a>
</g>
</g>
<!-- Node32&#45;&gt;Node40 -->
<g id="edge121" class="edge">
<title>Node32&#45;&gt;Node40</title>
<path fill="none" stroke="midnightblue" d="M1960.97,-526.44C1951.94,-517.67 1937.86,-503.46 1927,-490 1914.61,-474.64 1902.15,-455.85 1893.67,-442.43"/>
<polygon fill="midnightblue" stroke="midnightblue" points="1896.52,-440.38 1888.26,-433.74 1890.57,-444.08 1896.52,-440.38"/>
</g>
<!-- Node44 -->
<g id="node44" class="node">
<title>Node44</title>
<g id="a_node44"><a xlink:href="../../d1/d95/date__impl_8h.html" target="_top" xlink:title=" ">
<polygon fill="none" stroke="black" points="1640.5,-246.5 1640.5,-265.5 1739.5,-265.5 1739.5,-246.5 1640.5,-246.5"/>
<text text-anchor="middle" x="1690" y="-253.5" font-family="Helvetica,sans-Serif" font-size="10.00">impl/date_impl.h</text>
</a>
</g>
</g>
<!-- Node32&#45;&gt;Node44 -->
<g id="edge127" class="edge">
<title>Node32&#45;&gt;Node44</title>
<path fill="none" stroke="midnightblue" d="M1946.23,-532.9C1866.28,-525.19 1612,-495.14 1612,-425 1612,-425 1612,-425 1612,-367 1612,-326.97 1646.8,-291.34 1669.91,-272.09"/>
<polygon fill="midnightblue" stroke="midnightblue" points="1672.2,-274.74 1677.81,-265.76 1667.82,-269.28 1672.2,-274.74"/>
</g>
<!-- Node33&#45;&gt;Node3 -->
<g id="edge78" class="edge">
<title>Node33&#45;&gt;Node3</title>
<path fill="none" stroke="midnightblue" d="M1935.87,-476.27C1822.4,-466.9 1447.63,-433.49 1142,-378 1116.01,-373.28 934.58,-333.89 911,-322 863.94,-298.28 865.19,-273.1 820,-246 783.4,-224.06 759.5,-241.76 731,-210 700,-175.46 703.93,-115.99 708.46,-85.78"/>
<polygon fill="midnightblue" stroke="midnightblue" points="711.94,-86.19 710.15,-75.75 705.03,-85.03 711.94,-86.19"/>
</g>
<!-- Node33&#45;&gt;Node4 -->
<g id="edge79" class="edge">
<title>Node33&#45;&gt;Node4</title>
<path fill="none" stroke="midnightblue" d="M1970.88,-470.42C1973.8,-439.66 1982.09,-332.12 1965,-246 1952.9,-185.04 1886.42,-160.73 1925,-112 1940.4,-92.55 2000.1,-80.67 2048.7,-74.03"/>
<polygon fill="midnightblue" stroke="midnightblue" points="2049.43,-77.47 2058.89,-72.7 2048.52,-70.53 2049.43,-77.47"/>
</g>
<!-- Node33&#45;&gt;Node12 -->
<g id="edge112" class="edge">
<title>Node33&#45;&gt;Node12</title>
<path fill="none" stroke="midnightblue" d="M2004.24,-479C2164.47,-478.77 2841.25,-475.34 3048,-434 3226.17,-398.37 3315.35,-375.66 3390,-210 3407.89,-170.29 3415.9,-147.02 3390,-112 3372.47,-88.29 3342.69,-76.67 3314.5,-71.11"/>
<polygon fill="midnightblue" stroke="midnightblue" points="3315.07,-67.66 3304.62,-69.39 3313.87,-74.55 3315.07,-67.66"/>
</g>
<!-- Node33&#45;&gt;Node17 -->
<g id="edge113" class="edge">
<title>Node33&#45;&gt;Node17</title>
<path fill="none" stroke="midnightblue" d="M2004.09,-478.07C2156.28,-473.55 2773.78,-450.95 2951,-378 3014.65,-351.8 3052.06,-311.84 3032,-246 3021.55,-211.69 3014.79,-201.68 2987,-179 2969.32,-164.57 2946.95,-153.76 2926.15,-145.91"/>
<polygon fill="midnightblue" stroke="midnightblue" points="2927.33,-142.62 2916.73,-142.52 2924.95,-149.2 2927.33,-142.62"/>
</g>
<!-- Node33&#45;&gt;Node18 -->
<g id="edge116" class="edge">
<title>Node33&#45;&gt;Node18</title>
<path fill="none" stroke="midnightblue" d="M2004.08,-474.25C2084.66,-463.09 2293.3,-434.57 2468,-414 2620.23,-396.08 2667.41,-431.63 2811,-378 2844.54,-365.47 2927.62,-301.61 2965.11,-272.05"/>
<polygon fill="midnightblue" stroke="midnightblue" points="2967.53,-274.6 2973.2,-265.65 2963.19,-269.11 2967.53,-274.6"/>
</g>
<!-- Node33&#45;&gt;Node21 -->
<g id="edge115" class="edge">
<title>Node33&#45;&gt;Node21</title>
<path fill="none" stroke="midnightblue" d="M1940.05,-470.49C1914.36,-462.64 1876.74,-449.83 1846,-434 1728.95,-373.72 1699.89,-354.05 1602,-266 1577.63,-244.08 1568.64,-239.33 1554,-210 1544.01,-189.99 1539.52,-164.47 1537.53,-147.37"/>
<polygon fill="midnightblue" stroke="midnightblue" points="1540.98,-146.66 1536.52,-137.05 1534.01,-147.34 1540.98,-146.66"/>
</g>
<!-- Node33&#45;&gt;Node34 -->
<g id="edge80" class="edge">
<title>Node33&#45;&gt;Node34</title>
<path fill="none" stroke="midnightblue" d="M2004.21,-477.54C2084.56,-473.74 2291.43,-461.86 2462,-434 2463.46,-433.76 2464.95,-433.5 2466.46,-433.21"/>
<polygon fill="midnightblue" stroke="midnightblue" points="2467.32,-436.61 2476.39,-431.14 2465.88,-429.76 2467.32,-436.61"/>
</g>
<!-- Node33&#45;&gt;Node40 -->
<g id="edge100" class="edge">
<title>Node33&#45;&gt;Node40</title>
<path fill="none" stroke="midnightblue" d="M1956.02,-470.32C1942.45,-461.9 1921.62,-448.97 1905.68,-439.07"/>
<polygon fill="midnightblue" stroke="midnightblue" points="1907.29,-435.95 1896.94,-433.65 1903.59,-441.9 1907.29,-435.95"/>
</g>
<!-- Node41 -->
<g id="node41" class="node">
<title>Node41</title>
<g id="a_node41"><a xlink:title=" ">
<polygon fill="none" stroke="#bfbfbf" points="716.5,-358.5 716.5,-377.5 789.5,-377.5 789.5,-358.5 716.5,-358.5"/>
<text text-anchor="middle" x="753" y="-365.5" font-family="Helvetica,sans-Serif" font-size="10.00">string_view</text>
</a>
</g>
</g>
<!-- Node33&#45;&gt;Node41 -->
<g id="edge114" class="edge">
<title>Node33&#45;&gt;Node41</title>
<path fill="none" stroke="midnightblue" d="M1935.68,-477.33C1836.65,-472.38 1541.91,-456.7 1298,-434 1113.04,-416.79 893.74,-388.1 799.65,-375.39"/>
<polygon fill="midnightblue" stroke="midnightblue" points="799.99,-371.91 789.61,-374.03 799.05,-378.84 799.99,-371.91"/>
</g>
<!-- Node43 -->
<g id="node43" class="node">
<title>Node43</title>
<g id="a_node43"><a xlink:href="../../d4/d9a/weekday__impl_8h.html" target="_top" xlink:title=" ">
<polygon fill="none" stroke="black" points="1834,-246.5 1834,-265.5 1956,-265.5 1956,-246.5 1834,-246.5"/>
<text text-anchor="middle" x="1895" y="-253.5" font-family="Helvetica,sans-Serif" font-size="10.00">impl/weekday_impl.h</text>
</a>
</g>
</g>
<!-- Node33&#45;&gt;Node43 -->
<g id="edge117" class="edge">
<title>Node33&#45;&gt;Node43</title>
<path fill="none" stroke="midnightblue" d="M1967.06,-470.3C1955.98,-437.49 1916.58,-320.88 1901.21,-275.38"/>
<polygon fill="midnightblue" stroke="midnightblue" points="1904.52,-274.24 1898,-265.88 1897.89,-276.48 1904.52,-274.24"/>
</g>
<!-- Node34&#45;&gt;Node3 -->
<g id="edge81" class="edge">
<title>Node34&#45;&gt;Node3</title>
<path fill="none" stroke="midnightblue" d="M2476.32,-422.09C2315.83,-415.77 1385.6,-377.24 1108,-322 1028.32,-306.15 1009.48,-296.05 934,-266 907.22,-255.34 839.2,-228.39 817,-210 772.66,-173.26 737.08,-113.92 721.12,-84.58"/>
<polygon fill="midnightblue" stroke="midnightblue" points="724.09,-82.72 716.31,-75.54 717.91,-86.01 724.09,-82.72"/>
</g>
<!-- Node34&#45;&gt;Node4 -->
<g id="edge82" class="edge">
<title>Node34&#45;&gt;Node4</title>
<path fill="none" stroke="midnightblue" d="M2476.2,-415.38C2427.48,-398.17 2318.69,-351.04 2292,-266 2289.34,-257.52 2286.84,-253.24 2292,-246 2320.37,-206.16 2361,-244.17 2396,-210 2428.16,-178.6 2450.37,-146.03 2421,-112 2390.9,-77.13 2263.37,-68.81 2183.06,-67.1"/>
<polygon fill="midnightblue" stroke="midnightblue" points="2183.08,-63.6 2173.02,-66.91 2182.95,-70.6 2183.08,-63.6"/>
</g>
<!-- Node34&#45;&gt;Node12 -->
<g id="edge83" class="edge">
<title>Node34&#45;&gt;Node12</title>
<path fill="none" stroke="midnightblue" d="M2523.63,-421.85C2604.51,-417.72 2869.66,-402.6 2951,-378 3052.62,-347.26 3080.84,-334.44 3162,-266 3214.81,-221.47 3234.69,-208.37 3257,-143 3263.55,-123.81 3257.49,-100.79 3251.42,-85.15"/>
<polygon fill="midnightblue" stroke="midnightblue" points="3254.51,-83.47 3247.38,-75.64 3248.07,-86.21 3254.51,-83.47"/>
</g>
<!-- Node34&#45;&gt;Node17 -->
<g id="edge84" class="edge">
<title>Node34&#45;&gt;Node17</title>
<path fill="none" stroke="midnightblue" d="M2523.51,-422.75C2601.44,-421.56 2850.33,-414.9 2920,-378 2983.88,-344.17 3045.78,-311.4 3015,-246 2993.03,-199.31 2942.13,-166.02 2905.49,-147.06"/>
<polygon fill="midnightblue" stroke="midnightblue" points="2907.02,-143.91 2896.51,-142.55 2903.87,-150.16 2907.02,-143.91"/>
</g>
<!-- Node34&#45;&gt;Node18 -->
<g id="edge85" class="edge">
<title>Node34&#45;&gt;Node18</title>
<path fill="none" stroke="midnightblue" d="M2523.68,-422.94C2599.25,-422.34 2833.36,-417.3 2896,-378 2929.84,-356.77 2919.98,-333.93 2944,-302 2951.54,-291.98 2960.8,-281.46 2968.51,-273.12"/>
<polygon fill="midnightblue" stroke="midnightblue" points="2971.28,-275.28 2975.59,-265.6 2966.18,-270.49 2971.28,-275.28"/>
</g>
<!-- Node35 -->
<g id="node35" class="node">
<title>Node35</title>
<g id="a_node35"><a xlink:href="../../d2/d38/year__impl_8h.html" target="_top" xlink:title=" ">
<polygon fill="none" stroke="black" points="2114.5,-358.5 2114.5,-377.5 2213.5,-377.5 2213.5,-358.5 2114.5,-358.5"/>
<text text-anchor="middle" x="2164" y="-365.5" font-family="Helvetica,sans-Serif" font-size="10.00">impl/year_impl.h</text>
</a>
</g>
</g>
<!-- Node34&#45;&gt;Node35 -->
<g id="edge86" class="edge">
<title>Node34&#45;&gt;Node35</title>
<path fill="none" stroke="midnightblue" d="M2476.37,-419.2C2424.44,-410.86 2299.02,-390.7 2223.84,-378.62"/>
<polygon fill="midnightblue" stroke="midnightblue" points="2224.01,-375.1 2213.58,-376.97 2222.9,-382.01 2224.01,-375.1"/>
</g>
<!-- Node35&#45;&gt;Node4 -->
<g id="edge87" class="edge">
<title>Node35&#45;&gt;Node4</title>
<path fill="none" stroke="midnightblue" d="M2165.95,-358.08C2168.35,-344.61 2170.8,-318.88 2159,-302 2136.9,-270.37 2100.87,-298.45 2080,-266 2042.67,-207.97 2083.87,-121.76 2105.03,-84.84"/>
<polygon fill="midnightblue" stroke="midnightblue" points="2108.3,-86.18 2110.38,-75.79 2102.28,-82.61 2108.3,-86.18"/>
</g>
<!-- Node35&#45;&gt;Node24 -->
<g id="edge99" class="edge">
<title>Node35&#45;&gt;Node24</title>
<path fill="none" stroke="midnightblue" d="M2213.63,-364.35C2285.12,-359.68 2412.61,-347.91 2450,-322 2481.9,-299.9 2467.21,-275 2493,-246 2505.87,-231.53 2523.53,-218.7 2537.77,-209.59"/>
<polygon fill="midnightblue" stroke="midnightblue" points="2539.88,-212.4 2546.54,-204.16 2536.2,-206.44 2539.88,-212.4"/>
</g>
<!-- Node36 -->
<g id="node36" class="node">
<title>Node36</title>
<g id="a_node36"><a xlink:href="../../dc/d5c/math_functions_8h.html" target="_top" xlink:title=" ">
<polygon fill="none" stroke="black" points="2006,-302.5 2006,-321.5 2150,-321.5 2150,-302.5 2006,-302.5"/>
<text text-anchor="middle" x="2078" y="-309.5" font-family="Helvetica,sans-Serif" font-size="10.00">../../math/mathFunctions.h</text>
</a>
</g>
</g>
<!-- Node35&#45;&gt;Node36 -->
<g id="edge88" class="edge">
<title>Node35&#45;&gt;Node36</title>
<path fill="none" stroke="midnightblue" d="M2150.18,-358.32C2136.77,-349.9 2116.18,-336.97 2100.41,-327.07"/>
<polygon fill="midnightblue" stroke="midnightblue" points="2102.11,-324.01 2091.78,-321.65 2098.39,-329.94 2102.11,-324.01"/>
</g>
<!-- Node36&#45;&gt;Node3 -->
<g id="edge91" class="edge">
<title>Node36&#45;&gt;Node3</title>
<path fill="none" stroke="midnightblue" d="M2005.69,-311.18C1813.36,-311.1 1292.49,-306.97 1126,-266 1105.53,-260.96 1103.02,-252.6 1083,-246 1007.18,-220.99 972.7,-255.36 907,-210 864.59,-180.72 885.51,-143.86 845,-112 822.42,-94.24 792.44,-83.29 766.66,-76.65"/>
<polygon fill="midnightblue" stroke="midnightblue" points="767.19,-73.18 756.65,-74.23 765.54,-79.98 767.19,-73.18"/>
</g>
<!-- Node36&#45;&gt;Node4 -->
<g id="edge89" class="edge">
<title>Node36&#45;&gt;Node4</title>
<path fill="none" stroke="midnightblue" d="M2070.42,-302.26C2041.12,-268.46 1936.82,-147.94 1935,-143 1930.24,-130.07 1926.51,-122.85 1935,-112 1949.14,-93.92 2003.13,-82.06 2048.5,-75.08"/>
<polygon fill="midnightblue" stroke="midnightblue" points="2049.24,-78.51 2058.62,-73.58 2048.22,-71.58 2049.24,-78.51"/>
</g>
<!-- Node36&#45;&gt;Node12 -->
<g id="edge93" class="edge">
<title>Node36&#45;&gt;Node12</title>
<path fill="none" stroke="midnightblue" d="M2150.18,-310.11C2275.85,-307.7 2529.23,-298.79 2611,-266 2712.21,-225.41 2701.15,-153.47 2802,-112 2866.99,-85.28 3063.65,-73.78 3171.07,-69.39"/>
<polygon fill="midnightblue" stroke="midnightblue" points="3171.33,-72.88 3181.18,-68.98 3171.05,-65.88 3171.33,-72.88"/>
</g>
<!-- Node36&#45;&gt;Node17 -->
<g id="edge92" class="edge">
<title>Node36&#45;&gt;Node17</title>
<path fill="none" stroke="midnightblue" d="M2150.24,-310.44C2288.65,-308.57 2586.03,-300.54 2682,-266 2717.19,-253.33 2799.55,-184.49 2840.3,-149.27"/>
<polygon fill="midnightblue" stroke="midnightblue" points="2842.61,-151.9 2847.87,-142.7 2838.02,-146.62 2842.61,-151.9"/>
</g>
<!-- Node36&#45;&gt;Node21 -->
<g id="edge90" class="edge">
<title>Node36&#45;&gt;Node21</title>
<path fill="none" stroke="midnightblue" d="M2005.76,-310.92C1896.03,-309.6 1693.57,-302.15 1632,-266 1584.84,-238.31 1555.2,-177.22 1542.76,-146.66"/>
<polygon fill="midnightblue" stroke="midnightblue" points="1545.98,-145.27 1539.08,-137.22 1539.45,-147.81 1545.98,-145.27"/>
</g>
<!-- Node37 -->
<g id="node37" class="node">
<title>Node37</title>
<g id="a_node37"><a xlink:href="../../dc/d9b/math_functions__impl_8h.html" target="_top" xlink:title=" ">
<polygon fill="none" stroke="black" points="2088.5,-246.5 2088.5,-265.5 2213.5,-265.5 2213.5,-246.5 2088.5,-246.5"/>
<text text-anchor="middle" x="2151" y="-253.5" font-family="Helvetica,sans-Serif" font-size="10.00">mathFunctions_impl.h</text>
</a>
</g>
</g>
<!-- Node36&#45;&gt;Node37 -->
<g id="edge94" class="edge">
<title>Node36&#45;&gt;Node37</title>
<path fill="none" stroke="midnightblue" d="M2089.73,-302.32C2100.84,-294.11 2117.74,-281.6 2130.98,-271.81"/>
<polygon fill="midnightblue" stroke="midnightblue" points="2133.1,-274.59 2139.06,-265.83 2128.94,-268.97 2133.1,-274.59"/>
</g>
<!-- Node37&#45;&gt;Node4 -->
<g id="edge95" class="edge">
<title>Node37&#45;&gt;Node4</title>
<path fill="none" stroke="midnightblue" d="M2145.62,-246.41C2140.4,-237.63 2132.75,-223.4 2129,-210 2116.9,-166.73 2115.39,-113.5 2115.56,-85.79"/>
<polygon fill="midnightblue" stroke="midnightblue" points="2119.06,-85.62 2115.71,-75.57 2112.07,-85.52 2119.06,-85.62"/>
</g>
<!-- Node37&#45;&gt;Node20 -->
<g id="edge98" class="edge">
<title>Node37&#45;&gt;Node20</title>
<path fill="none" stroke="midnightblue" d="M2177.51,-246.48C2204.79,-237.7 2248.05,-223.79 2282.48,-212.71"/>
<polygon fill="midnightblue" stroke="midnightblue" points="2283.95,-215.92 2292.4,-209.52 2281.81,-209.25 2283.95,-215.92"/>
</g>
<!-- Node38 -->
<g id="node38" class="node">
<title>Node38</title>
<g id="a_node38"><a xlink:title=" ">
<polygon fill="none" stroke="#bfbfbf" points="2220.5,-185 2220.5,-204 2267.5,-204 2267.5,-185 2220.5,-185"/>
<text text-anchor="middle" x="2244" y="-192" font-family="Helvetica,sans-Serif" font-size="10.00">cmath</text>
</a>
</g>
</g>
<!-- Node37&#45;&gt;Node38 -->
<g id="edge96" class="edge">
<title>Node37&#45;&gt;Node38</title>
<path fill="none" stroke="midnightblue" d="M2164.32,-246.48C2179.38,-236.84 2204.12,-221.02 2222.04,-209.55"/>
<polygon fill="midnightblue" stroke="midnightblue" points="2224.16,-212.35 2230.7,-204.01 2220.39,-206.45 2224.16,-212.35"/>
</g>
<!-- Node39 -->
<g id="node39" class="node">
<title>Node39</title>
<g id="a_node39"><a xlink:title=" ">
<polygon fill="none" stroke="#bfbfbf" points="2138,-185 2138,-204 2202,-204 2202,-185 2138,-185"/>
<text text-anchor="middle" x="2170" y="-192" font-family="Helvetica,sans-Serif" font-size="10.00">algorithm</text>
</a>
</g>
</g>
<!-- Node37&#45;&gt;Node39 -->
<g id="edge97" class="edge">
<title>Node37&#45;&gt;Node39</title>
<path fill="none" stroke="midnightblue" d="M2153.72,-246.48C2156.43,-237.99 2160.67,-224.7 2164.15,-213.82"/>
<polygon fill="midnightblue" stroke="midnightblue" points="2167.57,-214.6 2167.28,-204.01 2160.91,-212.47 2167.57,-214.6"/>
</g>
<!-- Node40&#45;&gt;Node3 -->
<g id="edge101" class="edge">
<title>Node40&#45;&gt;Node3</title>
<path fill="none" stroke="midnightblue" d="M1854.31,-421.61C1769.23,-417.31 1510.96,-402.99 1298,-378 1258.45,-373.36 980.02,-338.97 944,-322 897.86,-300.26 902.01,-271.79 858,-246 816.16,-221.49 788.52,-245.04 755,-210 721.79,-175.29 714.13,-115.89 712.43,-85.74"/>
<polygon fill="midnightblue" stroke="midnightblue" points="715.92,-85.58 712.03,-75.73 708.93,-85.86 715.92,-85.58"/>
</g>
<!-- Node40&#45;&gt;Node4 -->
<g id="edge102" class="edge">
<title>Node40&#45;&gt;Node4</title>
<path fill="none" stroke="midnightblue" d="M1854.3,-416.89C1833.59,-410.82 1807.06,-399.24 1794,-378 1731.63,-276.57 1742.05,-196.44 1826,-112 1856.32,-81.5 1972.75,-71.66 2048.55,-68.49"/>
<polygon fill="midnightblue" stroke="midnightblue" points="2049.1,-71.97 2058.96,-68.09 2048.83,-64.98 2049.1,-71.97"/>
</g>
<!-- Node40&#45;&gt;Node12 -->
<g id="edge103" class="edge">
<title>Node40&#45;&gt;Node12</title>
<path fill="none" stroke="midnightblue" d="M1911.66,-422.38C2058.47,-419.09 2722.71,-402.94 2811,-378 3003.45,-323.65 3179.21,-138.97 3229,-83.13"/>
<polygon fill="midnightblue" stroke="midnightblue" points="3231.66,-85.4 3235.65,-75.58 3226.41,-80.77 3231.66,-85.4"/>
</g>
<!-- Node40&#45;&gt;Node17 -->
<g id="edge104" class="edge">
<title>Node40&#45;&gt;Node17</title>
<path fill="none" stroke="midnightblue" d="M1911.83,-422.55C2027.02,-420.54 2454.3,-410.98 2585,-378 2692.92,-350.77 2722.24,-335.73 2809,-266 2834.78,-245.28 2845.24,-240.51 2858,-210 2865.59,-191.85 2866.72,-169.46 2866.16,-152.74"/>
<polygon fill="midnightblue" stroke="midnightblue" points="2869.65,-152.47 2865.6,-142.68 2862.66,-152.86 2869.65,-152.47"/>
</g>
<!-- Node40&#45;&gt;Node18 -->
<g id="edge106" class="edge">
<title>Node40&#45;&gt;Node18</title>
<path fill="none" stroke="midnightblue" d="M1911.83,-422.69C2056.54,-420.96 2699.87,-411.46 2782,-378 2829.24,-358.75 2824.43,-328.53 2868,-302 2894.64,-285.78 2928.12,-273.54 2952.26,-265.96"/>
<polygon fill="midnightblue" stroke="midnightblue" points="2953.44,-269.25 2961.99,-262.99 2951.4,-262.56 2953.44,-269.25"/>
</g>
<!-- Node40&#45;&gt;Node41 -->
<g id="edge105" class="edge">
<title>Node40&#45;&gt;Node41</title>
<path fill="none" stroke="midnightblue" d="M1854.22,-421.62C1701.93,-414.35 989.92,-380.32 799.78,-371.24"/>
<polygon fill="midnightblue" stroke="midnightblue" points="799.72,-367.73 789.56,-370.75 799.38,-374.72 799.72,-367.73"/>
</g>
<!-- Node42 -->
<g id="node42" class="node">
<title>Node42</title>
<g id="a_node42"><a xlink:href="../../da/d19/month__impl_8h.html" target="_top" xlink:title=" ">
<polygon fill="none" stroke="black" points="1802.5,-358.5 1802.5,-377.5 1911.5,-377.5 1911.5,-358.5 1802.5,-358.5"/>
<text text-anchor="middle" x="1857" y="-365.5" font-family="Helvetica,sans-Serif" font-size="10.00">impl/month_impl.h</text>
</a>
</g>
</g>
<!-- Node40&#45;&gt;Node42 -->
<g id="edge107" class="edge">
<title>Node40&#45;&gt;Node42</title>
<path fill="none" stroke="midnightblue" d="M1878.71,-414.08C1875.15,-406.69 1869.98,-395.95 1865.58,-386.81"/>
<polygon fill="midnightblue" stroke="midnightblue" points="1868.71,-385.24 1861.21,-377.75 1862.4,-388.28 1868.71,-385.24"/>
</g>
<!-- Node42&#45;&gt;Node4 -->
<g id="edge108" class="edge">
<title>Node42&#45;&gt;Node4</title>
<path fill="none" stroke="midnightblue" d="M1853.24,-358.3C1846.02,-341.08 1830.45,-301.26 1825,-266 1816.44,-210.63 1819.64,-139.44 1847,-112 1874.6,-84.31 1978.52,-73.62 2048.81,-69.52"/>
<polygon fill="midnightblue" stroke="midnightblue" points="2049.14,-73.01 2058.93,-68.96 2048.75,-66.02 2049.14,-73.01"/>
</g>
<!-- Node42&#45;&gt;Node13 -->
<g id="edge109" class="edge">
<title>Node42&#45;&gt;Node13</title>
<path fill="none" stroke="midnightblue" d="M1802.23,-366.74C1594.56,-364.72 858.36,-347.8 679,-210 641.96,-181.54 634.14,-158.21 641,-112 644.82,-86.27 637.38,-71.85 658,-56 707.94,-17.62 1653.62,-11.96 1904.39,-11.14"/>
<polygon fill="midnightblue" stroke="midnightblue" points="1904.77,-14.64 1914.76,-11.11 1904.75,-7.64 1904.77,-14.64"/>
</g>
<!-- Node42&#45;&gt;Node24 -->
<g id="edge111" class="edge">
<title>Node42&#45;&gt;Node24</title>
<path fill="none" stroke="midnightblue" d="M1911.69,-362.78C2013.55,-353.69 2238.22,-327.87 2417,-266 2461.49,-250.61 2510.1,-225.01 2538.22,-209.26"/>
<polygon fill="midnightblue" stroke="midnightblue" points="2540.29,-212.11 2547.27,-204.14 2536.84,-206.02 2540.29,-212.11"/>
</g>
<!-- Node42&#45;&gt;Node36 -->
<g id="edge110" class="edge">
<title>Node42&#45;&gt;Node36</title>
<path fill="none" stroke="midnightblue" d="M1892.02,-358.44C1930.25,-349.1 1991.57,-334.12 2033.26,-323.93"/>
<polygon fill="midnightblue" stroke="midnightblue" points="2034.26,-327.29 2043.15,-321.52 2032.6,-320.49 2034.26,-327.29"/>
</g>
<!-- Node43&#45;&gt;Node4 -->
<g id="edge119" class="edge">
<title>Node43&#45;&gt;Node4</title>
<path fill="none" stroke="midnightblue" d="M1888.8,-246.43C1872.15,-222.26 1829.92,-152.71 1864,-112 1887.17,-84.33 1982.37,-73.66 2048.88,-69.55"/>
<polygon fill="midnightblue" stroke="midnightblue" points="2049.1,-73.04 2058.88,-68.97 2048.69,-66.06 2049.1,-73.04"/>
</g>
<!-- Node43&#45;&gt;Node13 -->
<g id="edge120" class="edge">
<title>Node43&#45;&gt;Node13</title>
<path fill="none" stroke="midnightblue" d="M1882.78,-246.18C1872.58,-238.06 1858.68,-225.01 1852,-210 1834.27,-170.15 1828.76,-151.62 1847,-112 1865.74,-71.29 1909.89,-40.87 1938.55,-24.53"/>
<polygon fill="midnightblue" stroke="midnightblue" points="1940.55,-27.43 1947.62,-19.54 1937.17,-21.3 1940.55,-27.43"/>
</g>
<!-- Node43&#45;&gt;Node24 -->
<g id="edge118" class="edge">
<title>Node43&#45;&gt;Node24</title>
<path fill="none" stroke="midnightblue" d="M1956.26,-249.54C2085.97,-237.96 2386.44,-211.16 2508.76,-200.25"/>
<polygon fill="midnightblue" stroke="midnightblue" points="2509.34,-203.71 2518.99,-199.34 2508.72,-196.74 2509.34,-203.71"/>
</g>
<!-- Node44&#45;&gt;Node4 -->
<g id="edge128" class="edge">
<title>Node44&#45;&gt;Node4</title>
<path fill="none" stroke="midnightblue" d="M1692.46,-246.12C1700.54,-217.63 1727.03,-129.39 1750,-112 1795.63,-77.46 1956.06,-69.21 2048.67,-67.38"/>
<polygon fill="midnightblue" stroke="midnightblue" points="2048.85,-70.88 2058.79,-67.2 2048.73,-63.88 2048.85,-70.88"/>
</g>
<!-- Node44&#45;&gt;Node13 -->
<g id="edge129" class="edge">
<title>Node44&#45;&gt;Node13</title>
<path fill="none" stroke="midnightblue" d="M1695.73,-246.29C1715.9,-216.24 1786.72,-115.42 1867,-56 1885.92,-41.99 1909.9,-30.89 1929.41,-23.22"/>
<polygon fill="midnightblue" stroke="midnightblue" points="1930.76,-26.45 1938.86,-19.62 1928.27,-19.9 1930.76,-26.45"/>
</g>
<!-- Node44&#45;&gt;Node24 -->
<g id="edge130" class="edge">
<title>Node44&#45;&gt;Node24</title>
<path fill="none" stroke="midnightblue" d="M1739.69,-251.64C1765.19,-249.93 1796.75,-247.83 1825,-246 2078.75,-229.54 2142.43,-229.06 2396,-210 2433.61,-207.17 2475.98,-203.46 2508.49,-200.5"/>
<polygon fill="midnightblue" stroke="midnightblue" points="2509.04,-203.97 2518.68,-199.57 2508.41,-197 2509.04,-203.97"/>
</g>
<!-- Node45&#45;&gt;Node2 -->
<g id="edge161" class="edge">
<title>Node45&#45;&gt;Node2</title>
<path fill="none" stroke="midnightblue" d="M585.35,-752.8C582.21,-751.86 579.02,-750.9 576,-750 522.24,-733.94 504.81,-739.83 455,-714 323.92,-646.01 218.41,-493.27 185.61,-442.08"/>
<polygon fill="midnightblue" stroke="midnightblue" points="188.49,-440.09 180.19,-433.5 182.57,-443.83 188.49,-440.09"/>
</g>
<!-- Node45&#45;&gt;Node3 -->
<g id="edge137" class="edge">
<title>Node45&#45;&gt;Node3</title>
<path fill="none" stroke="midnightblue" d="M585.43,-752.49C582.28,-751.6 579.07,-750.73 576,-750 488.16,-728.99 461.31,-743.67 376,-714 176.92,-644.77 0,-635.77 0,-425 0,-425 0,-425 0,-193.5 0,-149.3 18.52,-133.75 57,-112 108.6,-82.83 508.78,-71.35 657.01,-68.08"/>
<polygon fill="midnightblue" stroke="midnightblue" points="657.32,-71.57 667.24,-67.85 657.17,-64.57 657.32,-71.57"/>
</g>
<!-- Node45&#45;&gt;Node4 -->
<g id="edge138" class="edge">
<title>Node45&#45;&gt;Node4</title>
<path fill="none" stroke="midnightblue" d="M626.76,-759.03C718.38,-757.99 1082,-741.03 1082,-537 1082,-537 1082,-537 1082,-479 1082,-361.63 1179.3,-365.52 1278,-302 1311.81,-280.24 1328.65,-289.87 1361,-266 1433.54,-212.48 1412.51,-152.6 1493,-112 1541.66,-87.46 1897.99,-73.71 2048.84,-68.94"/>
<polygon fill="midnightblue" stroke="midnightblue" points="2049.02,-72.44 2058.91,-68.63 2048.8,-65.44 2049.02,-72.44"/>
</g>
<!-- Node45&#45;&gt;Node6 -->
<g id="edge140" class="edge">
<title>Node45&#45;&gt;Node6</title>
<path fill="none" stroke="midnightblue" d="M607.15,-750.29C612.08,-710.74 629.81,-544.38 598,-414 578.42,-333.73 526.29,-248.56 502.78,-212.84"/>
<polygon fill="midnightblue" stroke="midnightblue" points="505.43,-210.5 496.97,-204.12 499.61,-214.38 505.43,-210.5"/>
</g>
<!-- Node45&#45;&gt;Node7 -->
<g id="edge142" class="edge">
<title>Node45&#45;&gt;Node7</title>
<path fill="none" stroke="midnightblue" d="M585.48,-752.27C582.33,-751.4 579.09,-750.61 576,-750 413.01,-717.98 367.86,-741.2 204,-714 202.54,-713.76 201.05,-713.49 199.54,-713.2"/>
<polygon fill="midnightblue" stroke="midnightblue" points="200.12,-709.75 189.62,-711.12 198.68,-716.6 200.12,-709.75"/>
</g>
<!-- Node45&#45;&gt;Node8 -->
<g id="edge160" class="edge">
<title>Node45&#45;&gt;Node8</title>
<path fill="none" stroke="midnightblue" d="M626.65,-759.33C672.64,-759.27 786,-754.64 869,-714 892.34,-702.57 913.52,-681.05 926.55,-665.91"/>
<polygon fill="midnightblue" stroke="midnightblue" points="929.54,-667.78 933.24,-657.86 924.16,-663.31 929.54,-667.78"/>
</g>
<!-- Node45&#45;&gt;Node12 -->
<g id="edge162" class="edge">
<title>Node45&#45;&gt;Node12</title>
<path fill="none" stroke="midnightblue" d="M626.75,-758.81C891.63,-756.26 3604,-728.26 3604,-649 3604,-649 3604,-649 3604,-479 3604,-403.31 3642,-388.69 3642,-313 3642,-313 3642,-313 3642,-193.5 3642,-136.16 3594.43,-135.2 3542,-112 3469.02,-79.7 3377.26,-69.9 3314.77,-67.26"/>
<polygon fill="midnightblue" stroke="midnightblue" points="3314.74,-63.75 3304.62,-66.88 3314.48,-70.75 3314.74,-63.75"/>
</g>
<!-- Node45&#45;&gt;Node41 -->
<g id="edge141" class="edge">
<title>Node45&#45;&gt;Node41</title>
<path fill="none" stroke="midnightblue" d="M617.54,-750.43C638.8,-733.57 682,-693.8 682,-649 682,-649 682,-649 682,-591 682,-511.48 723.84,-423.22 743.28,-386.5"/>
<polygon fill="midnightblue" stroke="midnightblue" points="746.44,-388.03 748.12,-377.56 740.28,-384.69 746.44,-388.03"/>
</g>
<!-- Node46 -->
<g id="node46" class="node">
<title>Node46</title>
<g id="a_node46"><a xlink:title=" ">
<polygon fill="none" stroke="#bfbfbf" points="340.5,-358.5 340.5,-377.5 393.5,-377.5 393.5,-358.5 340.5,-358.5"/>
<text text-anchor="middle" x="367" y="-365.5" font-family="Helvetica,sans-Serif" font-size="10.00">cstddef</text>
</a>
</g>
</g>
<!-- Node45&#45;&gt;Node46 -->
<g id="edge139" class="edge">
<title>Node45&#45;&gt;Node46</title>
<path fill="none" stroke="midnightblue" d="M585.39,-752.62C582.26,-751.71 579.05,-750.81 576,-750 506.79,-731.7 483.87,-744.27 419,-714 257.8,-638.78 198.28,-599.47 133,-434 129.74,-425.73 127.34,-420.85 133,-414 145.45,-398.92 267.14,-381.57 329.93,-373.53"/>
<polygon fill="midnightblue" stroke="midnightblue" points="330.72,-376.96 340.2,-372.23 329.84,-370.01 330.72,-376.96"/>
</g>
<!-- Node47 -->
<g id="node47" class="node">
<title>Node47</title>
<g id="a_node47"><a xlink:href="../../db/dfb/hash_8h.html" target="_top" xlink:title=" ">
<polygon fill="none" stroke="black" points="494.5,-414.5 494.5,-433.5 589.5,-433.5 589.5,-414.5 494.5,-414.5"/>
<text text-anchor="middle" x="542" y="-421.5" font-family="Helvetica,sans-Serif" font-size="10.00">../hashes/hash.h</text>
</a>
</g>
</g>
<!-- Node45&#45;&gt;Node47 -->
<g id="edge143" class="edge">
<title>Node45&#45;&gt;Node47</title>
<path fill="none" stroke="midnightblue" d="M600.72,-750.23C590.27,-732.04 568,-688.6 568,-649 568,-649 568,-649 568,-535 568,-501.93 556.73,-464.73 549.03,-443.17"/>
<polygon fill="midnightblue" stroke="midnightblue" points="552.27,-441.83 545.51,-433.68 545.71,-444.27 552.27,-441.83"/>
</g>
<!-- Node48 -->
<g id="node48" class="node">
<title>Node48</title>
<g id="a_node48"><a xlink:href="../../d2/dea/_raw_data_8h.html" target="_top" xlink:title=" ">
<polygon fill="none" stroke="black" points="416.5,-470.5 416.5,-489.5 539.5,-489.5 539.5,-470.5 416.5,-470.5"/>
<text text-anchor="middle" x="478" y="-477.5" font-family="Helvetica,sans-Serif" font-size="10.00">../memory/RawData.h</text>
</a>
</g>
</g>
<!-- Node45&#45;&gt;Node48 -->
<g id="edge150" class="edge">
<title>Node45&#45;&gt;Node48</title>
<path fill="none" stroke="midnightblue" d="M585.49,-751.02C531.22,-729.6 388,-670.99 388,-649 388,-649 388,-649 388,-591 388,-548.66 428.44,-513.66 455.1,-495.18"/>
<polygon fill="midnightblue" stroke="midnightblue" points="457.16,-498.02 463.54,-489.56 453.28,-492.19 457.16,-498.02"/>
</g>
<!-- Node50 -->
<g id="node50" class="node">
<title>Node50</title>
<g id="a_node50"><a xlink:href="../../d9/d78/_c_file_8h.html" target="_top" xlink:title=" ">
<polygon fill="none" stroke="black" points="810,-694.5 810,-713.5 860,-713.5 860,-694.5 810,-694.5"/>
<text text-anchor="middle" x="835" y="-701.5" font-family="Helvetica,sans-Serif" font-size="10.00">CFile.h</text>
</a>
</g>
</g>
<!-- Node45&#45;&gt;Node50 -->
<g id="edge163" class="edge">
<title>Node45&#45;&gt;Node50</title>
<path fill="none" stroke="midnightblue" d="M626.73,-754.11C665.91,-744.87 751.25,-724.75 799.65,-713.34"/>
<polygon fill="midnightblue" stroke="midnightblue" points="800.74,-716.67 809.67,-710.97 799.13,-709.86 800.74,-716.67"/>
</g>
<!-- Node47&#45;&gt;Node3 -->
<g id="edge144" class="edge">
<title>Node47&#45;&gt;Node3</title>
<path fill="none" stroke="midnightblue" d="M531.39,-414.4C521.7,-406.03 507.62,-392.49 499,-378 452.91,-300.55 425.51,-262.27 460,-179 491.3,-103.43 593.08,-78.84 657.31,-70.85"/>
<polygon fill="midnightblue" stroke="midnightblue" points="657.74,-74.32 667.28,-69.7 656.94,-67.37 657.74,-74.32"/>
</g>
<!-- Node47&#45;&gt;Node4 -->
<g id="edge145" class="edge">
<title>Node47&#45;&gt;Node4</title>
<path fill="none" stroke="midnightblue" d="M546.54,-414.5C554.72,-400.13 573.37,-371.33 598,-358 599.06,-357.42 1288.09,-266.79 1289,-266 1342.64,-219.39 1276.65,-156.57 1332,-112 1387.14,-67.6 1868.96,-65.62 2048.74,-66.46"/>
<polygon fill="midnightblue" stroke="midnightblue" points="2048.85,-69.96 2058.86,-66.51 2048.88,-62.96 2048.85,-69.96"/>
</g>
<!-- Node47&#45;&gt;Node6 -->
<g id="edge147" class="edge">
<title>Node47&#45;&gt;Node6</title>
<path fill="none" stroke="midnightblue" d="M535.49,-414.42C523.28,-397.73 497.33,-359.22 488,-322 478.65,-284.67 483.5,-239.2 487.49,-214.21"/>
<polygon fill="midnightblue" stroke="midnightblue" points="490.96,-214.72 489.22,-204.27 484.06,-213.52 490.96,-214.72"/>
</g>
<!-- Node47&#45;&gt;Node9 -->
<g id="edge149" class="edge">
<title>Node47&#45;&gt;Node9</title>
<path fill="none" stroke="midnightblue" d="M562.12,-414.44C583.02,-405.56 615.93,-391.56 639.72,-381.45"/>
<polygon fill="midnightblue" stroke="midnightblue" points="641.14,-384.65 648.97,-377.52 638.4,-378.21 641.14,-384.65"/>
</g>
<!-- Node47&#45;&gt;Node41 -->
<g id="edge148" class="edge">
<title>Node47&#45;&gt;Node41</title>
<path fill="none" stroke="midnightblue" d="M575.43,-414.44C611.86,-405.12 670.23,-390.18 710.03,-380"/>
<polygon fill="midnightblue" stroke="midnightblue" points="710.9,-383.39 719.72,-377.52 709.17,-376.61 710.9,-383.39"/>
</g>
<!-- Node47&#45;&gt;Node46 -->
<g id="edge146" class="edge">
<title>Node47&#45;&gt;Node46</title>
<path fill="none" stroke="midnightblue" d="M514.27,-414.44C484.31,-405.2 436.45,-390.43 403.46,-380.25"/>
<polygon fill="midnightblue" stroke="midnightblue" points="404.33,-376.85 393.74,-377.25 402.26,-383.54 404.33,-376.85"/>
</g>
<!-- Node48&#45;&gt;Node2 -->
<g id="edge159" class="edge">
<title>Node48&#45;&gt;Node2</title>
<path fill="none" stroke="midnightblue" d="M429.99,-470.44C371.55,-460.03 273.76,-442.6 217.79,-432.63"/>
<polygon fill="midnightblue" stroke="midnightblue" points="218.3,-429.16 207.84,-430.85 217.08,-436.05 218.3,-429.16"/>
</g>
<!-- Node48&#45;&gt;Node3 -->
<g id="edge151" class="edge">
<title>Node48&#45;&gt;Node3</title>
<path fill="none" stroke="midnightblue" d="M436.11,-470.45C386.94,-457.68 312,-428.46 312,-369 312,-369 312,-369 312,-193.5 312,-121.97 547.46,-85.74 657.08,-72.74"/>
<polygon fill="midnightblue" stroke="midnightblue" points="657.75,-76.19 667.28,-71.56 656.94,-69.24 657.75,-76.19"/>
</g>
<!-- Node48&#45;&gt;Node4 -->
<g id="edge152" class="edge">
<title>Node48&#45;&gt;Node4</title>
<path fill="none" stroke="midnightblue" d="M525.45,-470.45C549.69,-463.98 578.16,-452.85 598,-434 624.69,-408.63 601.36,-379.86 631,-358 689.84,-314.61 885.75,-333.18 958,-322 1002.79,-315.07 1013.33,-309.65 1058,-302 1169.51,-282.9 1214.93,-327.34 1310,-266 1378.17,-222.02 1338.16,-153.28 1408,-112 1462.27,-79.93 1882.48,-70.37 2048.67,-67.83"/>
<polygon fill="midnightblue" stroke="midnightblue" points="2048.83,-71.33 2058.77,-67.68 2048.72,-64.33 2048.83,-71.33"/>
</g>
<!-- Node48&#45;&gt;Node6 -->
<g id="edge155" class="edge">
<title>Node48&#45;&gt;Node6</title>
<path fill="none" stroke="midnightblue" d="M477.34,-470.49C475.11,-439.97 468.6,-333.16 479,-246 480.27,-235.32 482.97,-223.63 485.48,-214.19"/>
<polygon fill="midnightblue" stroke="midnightblue" points="488.91,-214.9 488.25,-204.33 482.18,-213.01 488.91,-214.9"/>
</g>
<!-- Node48&#45;&gt;Node12 -->
<g id="edge158" class="edge">
<title>Node48&#45;&gt;Node12</title>
<path fill="none" stroke="midnightblue" d="M539.97,-478.47C838.58,-475.79 2131,-462.69 2533,-434 2739.31,-419.27 2796.05,-434.57 2995,-378 3124.12,-341.28 3171.22,-321.48 3246,-210 3271.1,-172.58 3284.72,-155.23 3272,-112 3268.99,-101.76 3262.85,-91.66 3256.99,-83.63"/>
<polygon fill="midnightblue" stroke="midnightblue" points="3259.59,-81.27 3250.67,-75.54 3254.07,-85.58 3259.59,-81.27"/>
</g>
<!-- Node48&#45;&gt;Node41 -->
<g id="edge156" class="edge">
<title>Node48&#45;&gt;Node41</title>
<path fill="none" stroke="midnightblue" d="M515.14,-470.46C546.8,-462.64 593.21,-449.88 632,-434 667.85,-419.32 706.92,-397.1 730.69,-382.82"/>
<polygon fill="midnightblue" stroke="midnightblue" points="732.58,-385.77 739.31,-377.59 728.94,-379.79 732.58,-385.77"/>
</g>
<!-- Node48&#45;&gt;Node46 -->
<g id="edge153" class="edge">
<title>Node48&#45;&gt;Node46</title>
<path fill="none" stroke="midnightblue" d="M426.56,-470.46C405.14,-464.12 382.22,-453.11 369,-434 359.78,-420.66 360.27,-401.84 362.49,-387.87"/>
<polygon fill="midnightblue" stroke="midnightblue" points="365.95,-388.41 364.48,-377.92 359.08,-387.04 365.95,-388.41"/>
</g>
<!-- Node48&#45;&gt;Node47 -->
<g id="edge157" class="edge">
<title>Node48&#45;&gt;Node47</title>
<path fill="none" stroke="midnightblue" d="M488.28,-470.32C497.84,-462.26 512.28,-450.08 523.78,-440.37"/>
<polygon fill="midnightblue" stroke="midnightblue" points="526.14,-442.96 531.53,-433.83 521.63,-437.61 526.14,-442.96"/>
</g>
<!-- Node49 -->
<g id="node49" class="node">
<title>Node49</title>
<g id="a_node49"><a xlink:title=" ">
<polygon fill="none" stroke="#bfbfbf" points="378,-414.5 378,-433.5 438,-433.5 438,-414.5 378,-414.5"/>
<text text-anchor="middle" x="408" y="-421.5" font-family="Helvetica,sans-Serif" font-size="10.00">iostream</text>
</a>
</g>
</g>
<!-- Node48&#45;&gt;Node49 -->
<g id="edge154" class="edge">
<title>Node48&#45;&gt;Node49</title>
<path fill="none" stroke="midnightblue" d="M466.75,-470.32C456.2,-462.18 440.2,-449.84 427.56,-440.09"/>
<polygon fill="midnightblue" stroke="midnightblue" points="429.51,-437.17 419.45,-433.83 425.23,-442.71 429.51,-437.17"/>
</g>
<!-- Node50&#45;&gt;Node3 -->
<g id="edge164" class="edge">
<title>Node50&#45;&gt;Node3</title>
<path fill="none" stroke="midnightblue" d="M809.83,-699.92C674.36,-682.65 38,-592.61 38,-425 38,-425 38,-425 38,-193.5 38,-105.28 133.68,-134.43 219,-112 374.07,-71.24 564.95,-65.99 657.09,-66.14"/>
<polygon fill="midnightblue" stroke="midnightblue" points="657.28,-69.64 667.29,-66.18 657.31,-62.64 657.28,-69.64"/>
</g>
<!-- Node50&#45;&gt;Node4 -->
<g id="edge165" class="edge">
<title>Node50&#45;&gt;Node4</title>
<path fill="none" stroke="midnightblue" d="M838.65,-694.33C856.03,-653.6 933.77,-478.14 1032,-358 1055.92,-328.74 1061.71,-317.9 1096,-302 1193.45,-256.81 1243.3,-321.95 1335,-266 1407.02,-222.05 1372.23,-152.94 1446,-112 1497.77,-83.27 1889.35,-71.8 2048.78,-68.29"/>
<polygon fill="midnightblue" stroke="midnightblue" points="2049.02,-71.78 2058.94,-68.07 2048.86,-64.78 2049.02,-71.78"/>
</g>
<!-- Node50&#45;&gt;Node8 -->
<g id="edge168" class="edge">
<title>Node50&#45;&gt;Node8</title>
<path fill="none" stroke="midnightblue" d="M851.87,-694.32C868.71,-685.66 894.81,-672.24 914.24,-662.25"/>
<polygon fill="midnightblue" stroke="midnightblue" points="915.88,-665.34 923.17,-657.65 912.68,-659.12 915.88,-665.34"/>
</g>
<!-- Node50&#45;&gt;Node12 -->
<g id="edge167" class="edge">
<title>Node50&#45;&gt;Node12</title>
<path fill="none" stroke="midnightblue" d="M860.29,-701.81C1135.61,-688.79 3566,-572.85 3566,-537 3566,-537 3566,-537 3566,-193.5 3566,-149.04 3545.66,-135.63 3508,-112 3476.56,-92.28 3381.86,-79.69 3314.66,-72.98"/>
<polygon fill="midnightblue" stroke="midnightblue" points="3314.84,-69.48 3304.55,-72 3314.16,-76.45 3314.84,-69.48"/>
</g>
<!-- Node51 -->
<g id="node51" class="node">
<title>Node51</title>
<g id="a_node51"><a xlink:title=" ">
<polygon fill="none" stroke="#bfbfbf" points="786,-638.5 786,-657.5 832,-657.5 832,-638.5 786,-638.5"/>
<text text-anchor="middle" x="809" y="-645.5" font-family="Helvetica,sans-Serif" font-size="10.00">cstdio</text>
</a>
</g>
</g>
<!-- Node50&#45;&gt;Node51 -->
<g id="edge166" class="edge">
<title>Node50&#45;&gt;Node51</title>
<path fill="none" stroke="midnightblue" d="M830.71,-694.08C827.15,-686.69 821.98,-675.95 817.58,-666.81"/>
<polygon fill="midnightblue" stroke="midnightblue" points="820.71,-665.24 813.21,-657.75 814.4,-668.28 820.71,-665.24"/>
</g>
<!-- Node52&#45;&gt;Node3 -->
<g id="edge171" class="edge">
<title>Node52&#45;&gt;Node3</title>
<path fill="none" stroke="midnightblue" d="M1091.22,-694.36C1080.09,-674.33 1051.33,-623.27 1025,-582 959.88,-479.94 954.35,-444.85 870,-358 799.03,-284.93 733.43,-304.34 695,-210 678.56,-169.64 682.95,-154.63 692,-112 694,-102.59 698.1,-92.76 702.07,-84.7"/>
<polygon fill="midnightblue" stroke="midnightblue" points="705.31,-86.07 706.87,-75.59 699.11,-82.81 705.31,-86.07"/>
</g>
<!-- Node52&#45;&gt;Node4 -->
<g id="edge170" class="edge">
<title>Node52&#45;&gt;Node4</title>
<path fill="none" stroke="midnightblue" d="M1131.23,-702.34C1427.34,-696.65 3490,-654.79 3490,-593 3490,-593 3490,-593 3490,-255 3490,-86.14 3302.98,-148.02 3138,-112 2955.18,-72.09 2380.84,-67.39 2183.42,-66.98"/>
<polygon fill="midnightblue" stroke="midnightblue" points="2183.2,-63.48 2173.19,-66.96 2183.19,-70.48 2183.2,-63.48"/>
</g>
<!-- Node52&#45;&gt;Node8 -->
<g id="edge172" class="edge">
<title>Node52&#45;&gt;Node8</title>
<path fill="none" stroke="midnightblue" d="M1071.28,-694.44C1045.15,-685.4 1003.74,-671.06 974.42,-660.92"/>
<polygon fill="midnightblue" stroke="midnightblue" points="975.2,-657.48 964.6,-657.52 972.91,-664.1 975.2,-657.48"/>
</g>
</g>
</svg>
