<?xml version="1.0" encoding="UTF-8" standalone="no"?>
<!DOCTYPE svg PUBLIC "-//W3C//DTD SVG 1.1//EN"
 "http://www.w3.org/Graphics/SVG/1.1/DTD/svg11.dtd">
<!-- Generated by graphviz version 2.43.0 (0)
 -->
<!-- Title: DateTime.h Pages: 1 -->
<svg width="235pt" height="308pt"
 viewBox="0.00 0.00 234.92 308.00" xmlns="http://www.w3.org/2000/svg" xmlns:xlink="http://www.w3.org/1999/xlink">
<g id="graph0" class="graph" transform="scale(1 1) rotate(0) translate(4 304)">
<title>DateTime.h</title>
<!-- Node1 -->
<g id="node1" class="node">
<title>Node1</title>
<g id="a_node1"><a xlink:title=" ">
<polygon fill="#bfbfbf" stroke="black" points="79,-280.5 79,-299.5 153,-299.5 153,-280.5 79,-280.5"/>
<text text-anchor="middle" x="116" y="-287.5" font-family="Helvetica,sans-Serif" font-size="10.00">DateTime.h</text>
</a>
</g>
</g>
<!-- Node2 -->
<g id="node2" class="node">
<title>Node2</title>
<g id="a_node2"><a xlink:href="../../d2/d83/_filesystem_entry_8h.html" target="_top" xlink:title=" ">
<polygon fill="none" stroke="black" points="64.5,-224.5 64.5,-243.5 167.5,-243.5 167.5,-224.5 64.5,-224.5"/>
<text text-anchor="middle" x="116" y="-231.5" font-family="Helvetica,sans-Serif" font-size="10.00">FilesystemEntry.h</text>
</a>
</g>
</g>
<!-- Node1&#45;&gt;Node2 -->
<g id="edge1" class="edge">
<title>Node1&#45;&gt;Node2</title>
<path fill="none" stroke="midnightblue" d="M116,-269.8C116,-260.91 116,-250.78 116,-243.75"/>
<polygon fill="midnightblue" stroke="midnightblue" points="112.5,-270.08 116,-280.08 119.5,-270.08 112.5,-270.08"/>
</g>
<!-- Node3 -->
<g id="node3" class="node">
<title>Node3</title>
<g id="a_node3"><a xlink:href="../../d9/d78/_c_file_8h.html" target="_top" xlink:title=" ">
<polygon fill="none" stroke="black" points="0,-168.5 0,-187.5 50,-187.5 50,-168.5 0,-168.5"/>
<text text-anchor="middle" x="25" y="-175.5" font-family="Helvetica,sans-Serif" font-size="10.00">CFile.h</text>
</a>
</g>
</g>
<!-- Node2&#45;&gt;Node3 -->
<g id="edge2" class="edge">
<title>Node2&#45;&gt;Node3</title>
<path fill="none" stroke="midnightblue" d="M92.71,-219.18C75.96,-209.24 53.9,-196.15 39.58,-187.65"/>
<polygon fill="midnightblue" stroke="midnightblue" points="90.99,-222.23 101.38,-224.32 94.57,-216.21 90.99,-222.23"/>
</g>
<!-- Node4 -->
<g id="node4" class="node">
<title>Node4</title>
<g id="a_node4"><a xlink:href="../../d2/d4d/file_8h.html" target="_top" xlink:title=" ">
<polygon fill="none" stroke="red" points="46.5,-112.5 46.5,-131.5 87.5,-131.5 87.5,-112.5 46.5,-112.5"/>
<text text-anchor="middle" x="67" y="-119.5" font-family="Helvetica,sans-Serif" font-size="10.00">file.h</text>
</a>
</g>
</g>
<!-- Node2&#45;&gt;Node4 -->
<g id="edge9" class="edge">
<title>Node2&#45;&gt;Node4</title>
<path fill="none" stroke="midnightblue" d="M107.98,-215C97.29,-191 78.79,-149.47 70.83,-131.59"/>
<polygon fill="midnightblue" stroke="midnightblue" points="104.89,-216.66 112.16,-224.37 111.28,-213.81 104.89,-216.66"/>
</g>
<!-- Node5 -->
<g id="node5" class="node">
<title>Node5</title>
<g id="a_node5"><a xlink:href="../../d9/d0f/directory_8h.html" target="_top" xlink:title=" ">
<polygon fill="none" stroke="black" points="84,-56.5 84,-75.5 152,-75.5 152,-56.5 84,-56.5"/>
<text text-anchor="middle" x="118" y="-63.5" font-family="Helvetica,sans-Serif" font-size="10.00">directory.h</text>
</a>
</g>
</g>
<!-- Node2&#45;&gt;Node5 -->
<g id="edge8" class="edge">
<title>Node2&#45;&gt;Node5</title>
<path fill="none" stroke="midnightblue" d="M116.23,-213.93C116.66,-177.92 117.59,-101.23 117.9,-75.57"/>
<polygon fill="midnightblue" stroke="midnightblue" points="112.73,-214.03 116.11,-224.08 119.73,-214.12 112.73,-214.03"/>
</g>
<!-- Node6 -->
<g id="node6" class="node">
<title>Node6</title>
<g id="a_node6"><a xlink:href="../../d9/df8/limes__core_8h.html" target="_top" xlink:title=" ">
<polygon fill="none" stroke="red" points="78.5,-0.5 78.5,-19.5 157.5,-19.5 157.5,-0.5 78.5,-0.5"/>
<text text-anchor="middle" x="118" y="-7.5" font-family="Helvetica,sans-Serif" font-size="10.00">limes_core.h</text>
</a>
</g>
</g>
<!-- Node2&#45;&gt;Node6 -->
<g id="edge13" class="edge">
<title>Node2&#45;&gt;Node6</title>
<path fill="none" stroke="midnightblue" d="M139.97,-218.88C166.02,-201.99 206.17,-171.03 223,-132 244.59,-81.94 171.57,-37.61 136.16,-19.58"/>
<polygon fill="midnightblue" stroke="midnightblue" points="138.01,-215.98 131.41,-224.26 141.74,-221.91 138.01,-215.98"/>
</g>
<!-- Node72 -->
<g id="node7" class="node">
<title>Node72</title>
<g id="a_node7"><a xlink:href="../../d8/d06/sym__link_8h.html" target="_top" xlink:title=" ">
<polygon fill="none" stroke="black" points="144,-112.5 144,-131.5 214,-131.5 214,-112.5 144,-112.5"/>
<text text-anchor="middle" x="179" y="-119.5" font-family="Helvetica,sans-Serif" font-size="10.00">sym_link.h</text>
</a>
</g>
</g>
<!-- Node2&#45;&gt;Node72 -->
<g id="edge10" class="edge">
<title>Node2&#45;&gt;Node72</title>
<path fill="none" stroke="midnightblue" d="M125.94,-215.64C139.63,-191.74 163.75,-149.63 174.08,-131.59"/>
<polygon fill="midnightblue" stroke="midnightblue" points="122.88,-213.95 120.94,-224.37 128.95,-217.43 122.88,-213.95"/>
</g>
<!-- Node3&#45;&gt;Node4 -->
<g id="edge3" class="edge">
<title>Node3&#45;&gt;Node4</title>
<path fill="none" stroke="midnightblue" d="M38.11,-160.14C45.43,-150.74 54.24,-139.4 60.19,-131.75"/>
<polygon fill="midnightblue" stroke="midnightblue" points="35.31,-158.04 31.94,-168.08 40.84,-162.34 35.31,-158.04"/>
</g>
<!-- Node3&#45;&gt;Node6 -->
<g id="edge7" class="edge">
<title>Node3&#45;&gt;Node6</title>
<path fill="none" stroke="midnightblue" d="M26.98,-158.2C28.73,-145.01 31.82,-127.11 37,-112 46.09,-85.49 48.65,-78.01 66,-56 77.53,-41.37 94.32,-27.86 105.67,-19.54"/>
<polygon fill="midnightblue" stroke="midnightblue" points="23.47,-158.04 25.77,-168.38 30.43,-158.86 23.47,-158.04"/>
</g>
<!-- Node4&#45;&gt;Node5 -->
<g id="edge4" class="edge">
<title>Node4&#45;&gt;Node5</title>
<path fill="none" stroke="midnightblue" d="M82.38,-104.72C91.37,-95.2 102.36,-83.56 109.74,-75.75"/>
<polygon fill="midnightblue" stroke="midnightblue" points="79.74,-102.41 75.42,-112.08 84.83,-107.22 79.74,-102.41"/>
</g>
<!-- Node4&#45;&gt;Node6 -->
<g id="edge6" class="edge">
<title>Node4&#45;&gt;Node6</title>
<path fill="none" stroke="midnightblue" d="M66.24,-102.1C66.41,-88.64 68.15,-70.45 75,-56 82.13,-40.96 96.24,-27.73 106.35,-19.58"/>
<polygon fill="midnightblue" stroke="midnightblue" points="62.74,-102.16 66.38,-112.11 69.74,-102.06 62.74,-102.16"/>
</g>
<!-- Node5&#45;&gt;Node6 -->
<g id="edge5" class="edge">
<title>Node5&#45;&gt;Node6</title>
<path fill="none" stroke="midnightblue" d="M118,-45.8C118,-36.91 118,-26.78 118,-19.75"/>
<polygon fill="midnightblue" stroke="midnightblue" points="114.5,-46.08 118,-56.08 121.5,-46.08 114.5,-46.08"/>
</g>
<!-- Node72&#45;&gt;Node5 -->
<g id="edge11" class="edge">
<title>Node72&#45;&gt;Node5</title>
<path fill="none" stroke="midnightblue" d="M161.53,-105.54C150.66,-95.91 137.06,-83.87 127.98,-75.83"/>
<polygon fill="midnightblue" stroke="midnightblue" points="159.39,-108.32 169.2,-112.32 164.03,-103.07 159.39,-108.32"/>
</g>
<!-- Node72&#45;&gt;Node6 -->
<g id="edge12" class="edge">
<title>Node72&#45;&gt;Node6</title>
<path fill="none" stroke="midnightblue" d="M176.36,-102.47C173.86,-88.93 169.22,-70.48 161,-56 152.68,-41.34 138.53,-27.84 128.75,-19.52"/>
<polygon fill="midnightblue" stroke="midnightblue" points="172.94,-103.18 178,-112.49 179.84,-102.06 172.94,-103.18"/>
</g>
</g>
</svg>
