<?xml version="1.0" encoding="UTF-8" standalone="no"?>
<!DOCTYPE svg PUBLIC "-//W3C//DTD SVG 1.1//EN"
 "http://www.w3.org/Graphics/SVG/1.1/DTD/svg11.dtd">
<!-- Generated by graphviz version 2.43.0 (0)
 -->
<!-- Title: basic_oscillators.h Pages: 1 -->
<svg width="565pt" height="252pt"
 viewBox="0.00 0.00 565.42 252.00" xmlns="http://www.w3.org/2000/svg" xmlns:xlink="http://www.w3.org/1999/xlink">
<g id="graph0" class="graph" transform="scale(1 1) rotate(0) translate(4 248)">
<title>basic_oscillators.h</title>
<!-- Node1 -->
<g id="node1" class="node">
<title>Node1</title>
<g id="a_node1"><a xlink:title=" ">
<polygon fill="#bfbfbf" stroke="black" points="292.92,-224.5 292.92,-243.5 399.92,-243.5 399.92,-224.5 292.92,-224.5"/>
<text text-anchor="middle" x="346.42" y="-231.5" font-family="Helvetica,sans-Serif" font-size="10.00">basic_oscillators.h</text>
</a>
</g>
</g>
<!-- Node2 -->
<g id="node2" class="node">
<title>Node2</title>
<g id="a_node2"><a xlink:title=" ">
<polygon fill="none" stroke="#bfbfbf" points="22.92,-56.5 22.92,-75.5 87.92,-75.5 87.92,-56.5 22.92,-56.5"/>
<text text-anchor="middle" x="55.42" y="-63.5" font-family="Helvetica,sans-Serif" font-size="10.00">functional</text>
</a>
</g>
</g>
<!-- Node1&#45;&gt;Node2 -->
<g id="edge1" class="edge">
<title>Node1&#45;&gt;Node2</title>
<path fill="none" stroke="midnightblue" d="M319.88,-224.42C296.28,-216.35 261.18,-203.26 232.42,-188 171.11,-155.47 105.21,-106.13 73.93,-81.73"/>
<polygon fill="midnightblue" stroke="midnightblue" points="76.09,-78.97 66.06,-75.54 71.76,-84.48 76.09,-78.97"/>
</g>
<!-- Node3 -->
<g id="node3" class="node">
<title>Node3</title>
<g id="a_node3"><a xlink:title=" ">
<polygon fill="none" stroke="#bfbfbf" points="86.92,-0.5 86.92,-19.5 175.92,-19.5 175.92,-0.5 86.92,-0.5"/>
<text text-anchor="middle" x="131.42" y="-7.5" font-family="Helvetica,sans-Serif" font-size="10.00">limes_export.h</text>
</a>
</g>
</g>
<!-- Node1&#45;&gt;Node3 -->
<g id="edge2" class="edge">
<title>Node1&#45;&gt;Node3</title>
<path fill="none" stroke="midnightblue" d="M292.72,-227.17C212.33,-215.16 63.81,-179.39 4.42,-76 -14.36,-43.29 34.15,-26.5 76.53,-18.26"/>
<polygon fill="midnightblue" stroke="midnightblue" points="77.36,-21.66 86.57,-16.43 76.11,-14.78 77.36,-21.66"/>
</g>
<!-- Node4 -->
<g id="node4" class="node">
<title>Node4</title>
<g id="a_node4"><a xlink:href="../../dc/da4/oscillator_8h.html" target="_top" xlink:title=" ">
<polygon fill="none" stroke="black" points="241.42,-168.5 241.42,-187.5 363.42,-187.5 363.42,-168.5 241.42,-168.5"/>
<text text-anchor="middle" x="302.42" y="-175.5" font-family="Helvetica,sans-Serif" font-size="10.00">../streams/oscillator.h</text>
</a>
</g>
</g>
<!-- Node1&#45;&gt;Node4 -->
<g id="edge3" class="edge">
<title>Node1&#45;&gt;Node4</title>
<path fill="none" stroke="midnightblue" d="M339.16,-224.08C332.88,-216.38 323.64,-205.03 315.99,-195.65"/>
<polygon fill="midnightblue" stroke="midnightblue" points="318.58,-193.29 309.55,-187.75 313.16,-197.71 318.58,-193.29"/>
</g>
<!-- Node6 -->
<g id="node6" class="node">
<title>Node6</title>
<g id="a_node6"><a xlink:href="../../d1/df0/limes__audio_2util_2_misc_8h.html" target="_top" xlink:title=" ">
<polygon fill="none" stroke="black" points="334.42,-56.5 334.42,-75.5 410.42,-75.5 410.42,-56.5 334.42,-56.5"/>
<text text-anchor="middle" x="372.42" y="-63.5" font-family="Helvetica,sans-Serif" font-size="10.00">../util/Misc.h</text>
</a>
</g>
</g>
<!-- Node1&#45;&gt;Node6 -->
<g id="edge17" class="edge">
<title>Node1&#45;&gt;Node6</title>
<path fill="none" stroke="midnightblue" d="M353.31,-224.32C359.69,-215.68 368.73,-201.77 372.42,-188 381.86,-152.79 378.51,-109.72 375.36,-85.62"/>
<polygon fill="midnightblue" stroke="midnightblue" points="378.82,-85.11 373.94,-75.71 371.9,-86.1 378.82,-85.11"/>
</g>
<!-- Node7 -->
<g id="node7" class="node">
<title>Node7</title>
<g id="a_node7"><a xlink:href="../../d9/df8/limes__core_8h.html" target="_top" xlink:title=" ">
<polygon fill="none" stroke="red" points="332.92,-0.5 332.92,-19.5 411.92,-19.5 411.92,-0.5 332.92,-0.5"/>
<text text-anchor="middle" x="372.42" y="-7.5" font-family="Helvetica,sans-Serif" font-size="10.00">limes_core.h</text>
</a>
</g>
</g>
<!-- Node1&#45;&gt;Node7 -->
<g id="edge19" class="edge">
<title>Node1&#45;&gt;Node7</title>
<path fill="none" stroke="midnightblue" d="M356.91,-224.42C366.46,-216.07 380.28,-202.55 388.42,-188 413.66,-142.94 412.47,-127.18 419.42,-76 420.62,-67.19 422.91,-64.17 419.42,-56 414.28,-43.95 404.14,-33.58 394.6,-25.84"/>
<polygon fill="midnightblue" stroke="midnightblue" points="396.59,-22.96 386.5,-19.74 392.38,-28.55 396.59,-22.96"/>
</g>
<!-- Node10 -->
<g id="node8" class="node">
<title>Node10</title>
<g id="a_node8"><a xlink:href="../../da/d0b/limes__namespace_8h.html" target="_top" xlink:title=" ">
<polygon fill="none" stroke="black" points="443.42,-0.5 443.42,-19.5 557.42,-19.5 557.42,-0.5 443.42,-0.5"/>
<text text-anchor="middle" x="500.42" y="-7.5" font-family="Helvetica,sans-Serif" font-size="10.00">limes_namespace.h</text>
</a>
</g>
</g>
<!-- Node1&#45;&gt;Node10 -->
<g id="edge18" class="edge">
<title>Node1&#45;&gt;Node10</title>
<path fill="none" stroke="midnightblue" d="M361.37,-224.49C374.65,-216.39 394,-203.19 407.42,-188 451.61,-138.01 481.87,-63.31 494.21,-29.19"/>
<polygon fill="midnightblue" stroke="midnightblue" points="497.56,-30.21 497.58,-19.61 490.95,-27.88 497.56,-30.21"/>
</g>
<!-- Node4&#45;&gt;Node3 -->
<g id="edge4" class="edge">
<title>Node4&#45;&gt;Node3</title>
<path fill="none" stroke="midnightblue" d="M241.16,-175.16C172.77,-169.43 64.95,-148.6 13.42,-76 -6.9,-47.37 37.19,-29.96 77.14,-20.47"/>
<polygon fill="midnightblue" stroke="midnightblue" points="77.9,-23.88 86.89,-18.28 76.37,-17.05 77.9,-23.88"/>
</g>
<!-- Node5 -->
<g id="node5" class="node">
<title>Node5</title>
<g id="a_node5"><a xlink:href="../../d5/d84/_sample_stream_8h.html" target="_top" xlink:title=" ">
<polygon fill="none" stroke="black" points="227.42,-112.5 227.42,-131.5 325.42,-131.5 325.42,-112.5 227.42,-112.5"/>
<text text-anchor="middle" x="276.42" y="-119.5" font-family="Helvetica,sans-Serif" font-size="10.00">SampleStream.h</text>
</a>
</g>
</g>
<!-- Node4&#45;&gt;Node5 -->
<g id="edge5" class="edge">
<title>Node4&#45;&gt;Node5</title>
<path fill="none" stroke="midnightblue" d="M298.13,-168.08C294.57,-160.69 289.4,-149.95 285,-140.81"/>
<polygon fill="midnightblue" stroke="midnightblue" points="288.13,-139.24 280.64,-131.75 281.82,-142.28 288.13,-139.24"/>
</g>
<!-- Node4&#45;&gt;Node6 -->
<g id="edge15" class="edge">
<title>Node4&#45;&gt;Node6</title>
<path fill="none" stroke="midnightblue" d="M309.04,-168.2C315.68,-159.24 326.1,-144.88 334.42,-132 344.6,-116.25 355.3,-97.74 362.74,-84.51"/>
<polygon fill="midnightblue" stroke="midnightblue" points="365.93,-86 367.74,-75.56 359.81,-82.59 365.93,-86"/>
</g>
<!-- Node4&#45;&gt;Node10 -->
<g id="edge16" class="edge">
<title>Node4&#45;&gt;Node10</title>
<path fill="none" stroke="midnightblue" d="M317.99,-168.29C345.92,-152.23 405.6,-115.94 448.42,-76 464.05,-61.42 478.97,-42 488.79,-28.19"/>
<polygon fill="midnightblue" stroke="midnightblue" points="491.89,-29.87 494.72,-19.66 486.14,-25.87 491.89,-29.87"/>
</g>
<!-- Node5&#45;&gt;Node2 -->
<g id="edge10" class="edge">
<title>Node5&#45;&gt;Node2</title>
<path fill="none" stroke="midnightblue" d="M241.4,-112.44C202.5,-102.94 139.68,-87.59 97.98,-77.4"/>
<polygon fill="midnightblue" stroke="midnightblue" points="98.66,-73.96 88.12,-74.99 97,-80.76 98.66,-73.96"/>
</g>
<!-- Node5&#45;&gt;Node3 -->
<g id="edge11" class="edge">
<title>Node5&#45;&gt;Node3</title>
<path fill="none" stroke="midnightblue" d="M275.04,-112.18C272.44,-98.39 265.55,-71.66 249.42,-56 232.17,-39.24 208.03,-28.59 186.08,-21.88"/>
<polygon fill="midnightblue" stroke="midnightblue" points="186.76,-18.43 176.18,-19.06 184.85,-25.16 186.76,-18.43"/>
</g>
<!-- Node5&#45;&gt;Node6 -->
<g id="edge6" class="edge">
<title>Node5&#45;&gt;Node6</title>
<path fill="none" stroke="midnightblue" d="M291.85,-112.32C306.96,-103.82 330.24,-90.73 347.89,-80.8"/>
<polygon fill="midnightblue" stroke="midnightblue" points="350.04,-83.61 357.04,-75.65 346.61,-77.51 350.04,-83.61"/>
</g>
<!-- Node5&#45;&gt;Node7 -->
<g id="edge14" class="edge">
<title>Node5&#45;&gt;Node7</title>
<path fill="none" stroke="midnightblue" d="M282.35,-112.24C291.16,-99.42 308.52,-75.01 325.42,-56 334.71,-45.55 346,-34.69 355.19,-26.25"/>
<polygon fill="midnightblue" stroke="midnightblue" points="357.55,-28.84 362.62,-19.54 352.85,-23.65 357.55,-28.84"/>
</g>
<!-- Node5&#45;&gt;Node10 -->
<g id="edge13" class="edge">
<title>Node5&#45;&gt;Node10</title>
<path fill="none" stroke="midnightblue" d="M317.16,-112.46C346.68,-105.27 386.94,-93.35 419.42,-76 444.11,-62.81 468.65,-41.71 484.13,-27.15"/>
<polygon fill="midnightblue" stroke="midnightblue" points="486.97,-29.28 491.75,-19.82 482.12,-24.23 486.97,-29.28"/>
</g>
<!-- Node128 -->
<g id="node9" class="node">
<title>Node128</title>
<g id="a_node9"><a xlink:href="../../d8/d1d/limes__data__structures_8h_source.html" target="_top" xlink:title=" ">
<polygon fill="none" stroke="red" points="106.42,-56.5 106.42,-75.5 240.42,-75.5 240.42,-56.5 106.42,-56.5"/>
<text text-anchor="middle" x="173.42" y="-63.5" font-family="Helvetica,sans-Serif" font-size="10.00">limes_data_structures.h</text>
</a>
</g>
</g>
<!-- Node5&#45;&gt;Node128 -->
<g id="edge12" class="edge">
<title>Node5&#45;&gt;Node128</title>
<path fill="none" stroke="midnightblue" d="M259.87,-112.32C243.43,-103.7 217.99,-90.36 198.95,-80.39"/>
<polygon fill="midnightblue" stroke="midnightblue" points="200.41,-77.2 189.93,-75.65 197.16,-83.4 200.41,-77.2"/>
</g>
<!-- Node6&#45;&gt;Node3 -->
<g id="edge8" class="edge">
<title>Node6&#45;&gt;Node3</title>
<path fill="none" stroke="midnightblue" d="M334.24,-56.44C292.28,-47.04 224.83,-31.93 179.35,-21.74"/>
<polygon fill="midnightblue" stroke="midnightblue" points="179.95,-18.29 169.43,-19.52 178.42,-25.12 179.95,-18.29"/>
</g>
<!-- Node6&#45;&gt;Node7 -->
<g id="edge7" class="edge">
<title>Node6&#45;&gt;Node7</title>
<path fill="none" stroke="midnightblue" d="M372.42,-56.08C372.42,-49.01 372.42,-38.86 372.42,-29.99"/>
<polygon fill="midnightblue" stroke="midnightblue" points="375.92,-29.75 372.42,-19.75 368.92,-29.75 375.92,-29.75"/>
</g>
<!-- Node6&#45;&gt;Node10 -->
<g id="edge9" class="edge">
<title>Node6&#45;&gt;Node10</title>
<path fill="none" stroke="midnightblue" d="M392.7,-56.44C413.77,-47.56 446.94,-33.56 470.91,-23.45"/>
<polygon fill="midnightblue" stroke="midnightblue" points="472.38,-26.63 480.24,-19.52 469.66,-20.18 472.38,-26.63"/>
</g>
</g>
</svg>
