<?xml version="1.0" encoding="UTF-8" standalone="no"?>
<!DOCTYPE svg PUBLIC "-//W3C//DTD SVG 1.1//EN"
 "http://www.w3.org/Graphics/SVG/1.1/DTD/svg11.dtd">
<!-- Generated by graphviz version 2.43.0 (0)
 -->
<!-- Title: limes::ds::LinkedListModel&lt; ObjectType &gt; Pages: 1 -->
<svg width="505pt" height="100pt"
 viewBox="0.00 0.00 505.00 99.50" xmlns="http://www.w3.org/2000/svg" xmlns:xlink="http://www.w3.org/1999/xlink">
<g id="graph0" class="graph" transform="scale(1 1) rotate(0) translate(4 95.5)">
<title>limes::ds::LinkedListModel&lt; ObjectType &gt;</title>
<!-- Node1 -->
<g id="node1" class="node">
<title>Node1</title>
<g id="a_node1"><a xlink:title=" ">
<polygon fill="#bfbfbf" stroke="black" points="0,-33 0,-63 146,-63 146,-33 0,-33"/>
<text text-anchor="start" x="8" y="-51" font-family="Helvetica,sans-Serif" font-size="10.00">limes::ds::LinkedListModel</text>
<text text-anchor="middle" x="73" y="-40" font-family="Helvetica,sans-Serif" font-size="10.00">&lt; ObjectType &gt;</text>
</a>
</g>
</g>
<!-- Node2 -->
<g id="node2" class="node">
<title>Node2</title>
<g id="a_node2"><a xlink:href="../../d3/d2e/structlimes_1_1ds_1_1_linked_list_model.html" target="_top" xlink:title=" ">
<polygon fill="none" stroke="black" points="333,-61 333,-91 497,-91 497,-61 333,-61"/>
<text text-anchor="start" x="341" y="-79" font-family="Helvetica,sans-Serif" font-size="10.00">limes::ds::LinkedListModel</text>
<text text-anchor="middle" x="415" y="-68" font-family="Helvetica,sans-Serif" font-size="10.00">&lt; limes::music::NoteLength &gt;</text>
</a>
</g>
</g>
<!-- Node1&#45;&gt;Node2 -->
<g id="edge1" class="edge">
<title>Node1&#45;&gt;Node2</title>
<path fill="none" stroke="orange" stroke-dasharray="5,2" d="M156.25,-54.77C209.82,-59.19 279.4,-64.91 332.76,-69.31"/>
<polygon fill="orange" stroke="orange" points="156.36,-51.27 146.11,-53.94 155.78,-58.25 156.36,-51.27"/>
<text text-anchor="middle" x="239.5" y="-70" font-family="Helvetica,sans-Serif" font-size="10.00"> &lt; limes::music::NoteLength &gt;</text>
</g>
<!-- Node3 -->
<g id="node3" class="node">
<title>Node3</title>
<g id="a_node3"><a xlink:href="../../d3/d2e/structlimes_1_1ds_1_1_linked_list_model.html" target="_top" xlink:title=" ">
<polygon fill="none" stroke="black" points="342,-0.5 342,-41.5 488,-41.5 488,-0.5 342,-0.5"/>
<text text-anchor="start" x="350" y="-29.5" font-family="Helvetica,sans-Serif" font-size="10.00">limes::ds::LinkedListModel</text>
<text text-anchor="start" x="350" y="-18.5" font-family="Helvetica,sans-Serif" font-size="10.00">&lt; limes::ds::LinkedList</text>
<text text-anchor="middle" x="415" y="-7.5" font-family="Helvetica,sans-Serif" font-size="10.00">::Node &gt;</text>
</a>
</g>
</g>
<!-- Node1&#45;&gt;Node3 -->
<g id="edge2" class="edge">
<title>Node1&#45;&gt;Node3</title>
<path fill="none" stroke="orange" stroke-dasharray="5,2" d="M156.24,-32.93C158.86,-32.59 161.45,-32.28 164,-32 223.7,-25.41 291.83,-22.73 341.87,-21.66"/>
<polygon fill="orange" stroke="orange" points="155.52,-29.49 146.09,-34.32 156.47,-36.43 155.52,-29.49"/>
<text text-anchor="start" x="182.5" y="-46" font-family="Helvetica,sans-Serif" font-size="10.00"> &lt; limes::ds::LinkedList</text>
<text text-anchor="middle" x="239.5" y="-35" font-family="Helvetica,sans-Serif" font-size="10.00">::Node &gt;</text>
</g>
</g>
</svg>
