<?xml version="1.0" encoding="UTF-8" standalone="no"?>
<!DOCTYPE svg PUBLIC "-//W3C//DTD SVG 1.1//EN"
 "http://www.w3.org/Graphics/SVG/1.1/DTD/svg11.dtd">
<!-- Generated by graphviz version 2.43.0 (0)
 -->
<!-- Title: compiler_defs.h Pages: 1 -->
<!--zoomable 476 -->
<svg id="main" version="1.1" xmlns="http://www.w3.org/2000/svg" xmlns:xlink="http://www.w3.org/1999/xlink" xml:space="preserve" onload="init(evt)">
<style type="text/css"><![CDATA[
.edge:hover path { stroke: red; }
.edge:hover polygon { stroke: red; fill: red; }
]]></style>
<script type="text/javascript"><![CDATA[
var edges = document.getElementsByTagName('g');
if (edges && edges.length) {
  for (var i=0;i<edges.length;i++) {
    if (edges[i].id.substr(0,4)=='edge') {
      edges[i].setAttribute('class','edge');
    }
  }
}
]]></script>
        <defs>
                <circle id="rim" cx="0" cy="0" r="7"/>
                <circle id="rim2" cx="0" cy="0" r="3.5"/>
                <g id="zoomPlus">
                        <use xlink:href="#rim" fill="#404040">
                                <set attributeName="fill" to="#808080" begin="zoomplus.mouseover" end="zoomplus.mouseout"/>
                        </use>
                        <path d="M-4,0h8M0,-4v8" fill="none" stroke="white" stroke-width="1.5" pointer-events="none"/>
                </g>
                <g id="zoomMin">
                        <use xlink:href="#rim" fill="#404040">
                                <set attributeName="fill" to="#808080" begin="zoomminus.mouseover" end="zoomminus.mouseout"/>
                        </use>
                        <path d="M-4,0h8" fill="none" stroke="white" stroke-width="1.5" pointer-events="none"/>
                </g>
                <g id="dirArrow">
                        <path fill="none" stroke="white" stroke-width="1.5" d="M0,-3.0v7 M-2.5,-0.5L0,-3.0L2.5,-0.5"/>
                </g>
               <g id="resetDef">
                       <use xlink:href="#rim2" fill="#404040">
                               <set attributeName="fill" to="#808080" begin="reset.mouseover" end="reset.mouseout"/>
                       </use>
               </g>
        </defs>

<script type="text/javascript">
var viewWidth = 1329;
var viewHeight = 476;
var sectionId = 'dynsection-1';
</script>
<script xlink:href="../../svgpan.js"/>
<svg id="graph" class="graph">
<g id="viewport">
<title>compiler_defs.h</title>
<!-- Node1 -->
<g id="node1" class="node">
<title>Node1</title>
<g id="a_node1"><a xlink:title=" ">
<polygon fill="#bfbfbf" stroke="black" points="648.5,-448.5 648.5,-467.5 743.5,-467.5 743.5,-448.5 648.5,-448.5"/>
<text text-anchor="middle" x="696" y="-455.5" font-family="Helvetica,sans-Serif" font-size="10.00">compiler_defs.h</text>
</a>
</g>
</g>
<!-- Node2 -->
<g id="node2" class="node">
<title>Node2</title>
<g id="a_node2"><a xlink:href="../../d4/d37/hour_8h.html" target="_top" xlink:title=" ">
<polygon fill="none" stroke="black" points="196.5,-112.5 196.5,-131.5 243.5,-131.5 243.5,-112.5 196.5,-112.5"/>
<text text-anchor="middle" x="220" y="-119.5" font-family="Helvetica,sans-Serif" font-size="10.00">hour.h</text>
</a>
</g>
</g>
<!-- Node1&#45;&gt;Node2 -->
<g id="edge1" class="edge">
<title>Node1&#45;&gt;Node2</title>
<path fill="none" stroke="midnightblue" d="M638.23,-456.24C528.22,-454.03 293.14,-445.42 220,-412 181.97,-394.63 152,-388.81 152,-347 152,-347 152,-347 152,-289 152,-260.51 221.72,-214.94 231,-188 237.71,-168.52 229.55,-144.3 224.11,-131.64"/>
<polygon fill="midnightblue" stroke="midnightblue" points="638.41,-459.74 648.47,-456.43 638.54,-452.74 638.41,-459.74"/>
</g>
<!-- Node3 -->
<g id="node3" class="node">
<title>Node3</title>
<g id="a_node3"><a xlink:href="../../de/df7/time_8h.html" target="_top" xlink:title=" ">
<polygon fill="none" stroke="black" points="142,-56.5 142,-75.5 190,-75.5 190,-56.5 142,-56.5"/>
<text text-anchor="middle" x="166" y="-63.5" font-family="Helvetica,sans-Serif" font-size="10.00">time.h</text>
</a>
</g>
</g>
<!-- Node1&#45;&gt;Node3 -->
<g id="edge44" class="edge">
<title>Node1&#45;&gt;Node3</title>
<path fill="none" stroke="midnightblue" d="M638.05,-455.77C493.49,-452.27 125.15,-440.64 78,-412 49.01,-394.39 38,-380.92 38,-347 38,-347 38,-347 38,-289 38,-239.84 133.39,-110.11 159.48,-75.56"/>
<polygon fill="midnightblue" stroke="midnightblue" points="638.39,-459.28 648.47,-456.01 638.56,-452.28 638.39,-459.28"/>
</g>
<!-- Node4 -->
<g id="node4" class="node">
<title>Node4</title>
<g id="a_node4"><a xlink:href="../../df/da8/_date_time_8h.html" target="_top" xlink:title=" ">
<polygon fill="none" stroke="red" points="75,-0.5 75,-19.5 149,-19.5 149,-0.5 75,-0.5"/>
<text text-anchor="middle" x="112" y="-7.5" font-family="Helvetica,sans-Serif" font-size="10.00">DateTime.h</text>
</a>
</g>
</g>
<!-- Node1&#45;&gt;Node4 -->
<g id="edge55" class="edge">
<title>Node1&#45;&gt;Node4</title>
<path fill="none" stroke="midnightblue" d="M637.98,-455.73C488.61,-452.09 98.98,-439.99 48,-412 16.52,-394.72 0,-382.91 0,-347 0,-347 0,-347 0,-121 0,-70.03 59.76,-34.83 91.98,-19.56"/>
<polygon fill="midnightblue" stroke="midnightblue" points="638.23,-459.24 648.31,-455.98 638.39,-452.24 638.23,-459.24"/>
</g>
<!-- Node9 -->
<g id="node5" class="node">
<title>Node9</title>
<g id="a_node5"><a xlink:href="../../d9/df8/limes__core_8h.html" target="_top" xlink:title=" ">
<polygon fill="none" stroke="red" points="725.5,-0.5 725.5,-19.5 804.5,-19.5 804.5,-0.5 725.5,-0.5"/>
<text text-anchor="middle" x="765" y="-7.5" font-family="Helvetica,sans-Serif" font-size="10.00">limes_core.h</text>
</a>
</g>
</g>
<!-- Node1&#45;&gt;Node9 -->
<g id="edge60" class="edge">
<title>Node1&#45;&gt;Node9</title>
<path fill="none" stroke="midnightblue" d="M754.25,-456.39C897.64,-454.35 1259.11,-445.89 1301,-412 1324.4,-393.07 1320,-377.1 1320,-347 1320,-347 1320,-347 1320,-121 1320,-15.9 932.17,-9.65 804.91,-10.42"/>
<polygon fill="midnightblue" stroke="midnightblue" points="753.85,-452.89 743.9,-456.53 753.95,-459.89 753.85,-452.89"/>
</g>
<!-- Node76 -->
<g id="node6" class="node">
<title>Node76</title>
<g id="a_node6"><a xlink:href="../../d5/dbb/limes__assert_8h.html" target="_top" xlink:title=" ">
<polygon fill="none" stroke="black" points="815,-392.5 815,-411.5 903,-411.5 903,-392.5 815,-392.5"/>
<text text-anchor="middle" x="859" y="-399.5" font-family="Helvetica,sans-Serif" font-size="10.00">limes_assert.h</text>
</a>
</g>
</g>
<!-- Node1&#45;&gt;Node76 -->
<g id="edge6" class="edge">
<title>Node1&#45;&gt;Node76</title>
<path fill="none" stroke="midnightblue" d="M731.7,-445.17C762.4,-435 805.92,-420.59 833.29,-411.52"/>
<polygon fill="midnightblue" stroke="midnightblue" points="730.22,-441.98 721.83,-448.44 732.42,-448.62 730.22,-441.98"/>
</g>
<!-- Node79 -->
<g id="node9" class="node">
<title>Node79</title>
<g id="a_node9"><a xlink:href="../../dc/d5c/math_functions_8h.html" target="_top" xlink:title=" ">
<polygon fill="none" stroke="red" points="639,-280.5 639,-299.5 737,-299.5 737,-280.5 639,-280.5"/>
<text text-anchor="middle" x="688" y="-287.5" font-family="Helvetica,sans-Serif" font-size="10.00">mathFunctions.h</text>
</a>
</g>
</g>
<!-- Node1&#45;&gt;Node79 -->
<g id="edge51" class="edge">
<title>Node1&#45;&gt;Node79</title>
<path fill="none" stroke="midnightblue" d="M679.94,-441.03C662.52,-422.47 635.76,-390 625,-356 622.32,-347.52 620.93,-343.9 625,-336 633.8,-318.91 652.42,-306.87 667.15,-299.57"/>
<polygon fill="midnightblue" stroke="midnightblue" points="677.52,-443.56 686.98,-448.32 682.55,-438.7 677.52,-443.56"/>
</g>
<!-- Node81 -->
<g id="node11" class="node">
<title>Node81</title>
<g id="a_node11"><a xlink:href="../../d5/d98/year_8h.html" target="_top" xlink:title=" ">
<polygon fill="none" stroke="black" points="365.5,-168.5 365.5,-187.5 412.5,-187.5 412.5,-168.5 365.5,-168.5"/>
<text text-anchor="middle" x="389" y="-175.5" font-family="Helvetica,sans-Serif" font-size="10.00">year.h</text>
</a>
</g>
</g>
<!-- Node1&#45;&gt;Node81 -->
<g id="edge50" class="edge">
<title>Node1&#45;&gt;Node81</title>
<path fill="none" stroke="midnightblue" d="M638.01,-456.5C505.14,-453.8 190,-437.81 190,-347 190,-347 190,-347 190,-289 190,-209.65 312.68,-187.09 365.39,-181.06"/>
<polygon fill="midnightblue" stroke="midnightblue" points="638.33,-460.01 648.4,-456.69 638.46,-453.01 638.33,-460.01"/>
</g>
<!-- Node82 -->
<g id="node12" class="node">
<title>Node82</title>
<g id="a_node12"><a xlink:href="../../d0/ddc/weekday_8h.html" target="_top" xlink:title=" ">
<polygon fill="none" stroke="black" points="470,-112.5 470,-131.5 538,-131.5 538,-112.5 470,-112.5"/>
<text text-anchor="middle" x="504" y="-119.5" font-family="Helvetica,sans-Serif" font-size="10.00">weekday.h</text>
</a>
</g>
</g>
<!-- Node1&#45;&gt;Node82 -->
<g id="edge53" class="edge">
<title>Node1&#45;&gt;Node82</title>
<path fill="none" stroke="midnightblue" d="M671.98,-442.94C660.35,-435.1 647,-424.42 638,-412 587.93,-342.9 636.03,-300.88 599,-224 579.26,-183.01 536.88,-147.49 516.06,-131.71"/>
<polygon fill="midnightblue" stroke="midnightblue" points="670.12,-445.91 680.43,-448.36 673.9,-440.02 670.12,-445.91"/>
</g>
<!-- Node83 -->
<g id="node13" class="node">
<title>Node83</title>
<g id="a_node13"><a xlink:href="../../db/d96/date_8h.html" target="_top" xlink:title=" ">
<polygon fill="none" stroke="black" points="351.5,-56.5 351.5,-75.5 398.5,-75.5 398.5,-56.5 351.5,-56.5"/>
<text text-anchor="middle" x="375" y="-63.5" font-family="Helvetica,sans-Serif" font-size="10.00">date.h</text>
</a>
</g>
</g>
<!-- Node1&#45;&gt;Node83 -->
<g id="edge54" class="edge">
<title>Node1&#45;&gt;Node83</title>
<path fill="none" stroke="midnightblue" d="M637.94,-457.28C519.28,-457 253.37,-451.8 173,-412 138.04,-394.69 114,-386.02 114,-347 114,-347 114,-347 114,-289 114,-234.17 101.37,-208.8 138,-168 173.78,-128.15 203.6,-152.68 253,-132 293.51,-115.04 338.45,-89.11 360.78,-75.7"/>
<polygon fill="midnightblue" stroke="midnightblue" points="638.27,-460.78 648.27,-457.29 638.28,-453.78 638.27,-460.78"/>
</g>
<!-- Node85 -->
<g id="node15" class="node">
<title>Node85</title>
<g id="a_node15"><a xlink:href="../../d7/d38/month_8h.html" target="_top" xlink:title=" ">
<polygon fill="none" stroke="black" points="584.5,-168.5 584.5,-187.5 641.5,-187.5 641.5,-168.5 584.5,-168.5"/>
<text text-anchor="middle" x="613" y="-175.5" font-family="Helvetica,sans-Serif" font-size="10.00">month.h</text>
</a>
</g>
</g>
<!-- Node1&#45;&gt;Node85 -->
<g id="edge52" class="edge">
<title>Node1&#45;&gt;Node85</title>
<path fill="none" stroke="midnightblue" d="M712.28,-441.08C729.94,-422.55 757.08,-390.12 768,-356 781.87,-312.65 778.33,-267.02 739,-224 713.77,-196.4 670.44,-185.72 641.75,-181.59"/>
<polygon fill="midnightblue" stroke="midnightblue" points="709.65,-438.76 705.14,-448.35 714.65,-443.66 709.65,-438.76"/>
</g>
<!-- Node104 -->
<g id="node19" class="node">
<title>Node104</title>
<g id="a_node19"><a xlink:href="../../dc/db3/build__date_8h.html" target="_top" xlink:title=" ">
<polygon fill="none" stroke="black" points="430.5,-280.5 430.5,-299.5 507.5,-299.5 507.5,-280.5 430.5,-280.5"/>
<text text-anchor="middle" x="469" y="-287.5" font-family="Helvetica,sans-Serif" font-size="10.00">build_date.h</text>
</a>
</g>
</g>
<!-- Node1&#45;&gt;Node104 -->
<g id="edge33" class="edge">
<title>Node1&#45;&gt;Node104</title>
<path fill="none" stroke="midnightblue" d="M638.33,-447.89C610.54,-441.35 577.92,-430.34 553,-412 510.78,-380.93 482.31,-322.03 472.65,-299.79"/>
<polygon fill="midnightblue" stroke="midnightblue" points="637.81,-451.36 648.33,-450.1 639.32,-444.52 637.81,-451.36"/>
</g>
<!-- Node108 -->
<g id="node23" class="node">
<title>Node108</title>
<g id="a_node23"><a xlink:href="../../d5/dd4/time__utils_8h.html" target="_top" xlink:title=" ">
<polygon fill="none" stroke="black" points="28,-112.5 28,-131.5 102,-131.5 102,-112.5 28,-112.5"/>
<text text-anchor="middle" x="65" y="-119.5" font-family="Helvetica,sans-Serif" font-size="10.00">time_utils.h</text>
</a>
</g>
</g>
<!-- Node1&#45;&gt;Node108 -->
<g id="edge45" class="edge">
<title>Node1&#45;&gt;Node108</title>
<path fill="none" stroke="midnightblue" d="M638.25,-456.14C496.97,-453.56 142.33,-443.93 100,-412 75.41,-393.46 76,-377.8 76,-347 76,-347 76,-347 76,-289 76,-228.64 68.67,-156.19 65.98,-131.63"/>
<polygon fill="midnightblue" stroke="midnightblue" points="638.39,-459.65 648.45,-456.32 638.51,-452.65 638.39,-459.65"/>
</g>
<!-- Node109 -->
<g id="node24" class="node">
<title>Node109</title>
<g id="a_node24"><a xlink:href="../../d1/d28/limes__core_2files_2_misc_8h.html" target="_top" xlink:title=" ">
<polygon fill="none" stroke="black" points="951.5,-336.5 951.5,-355.5 1000.5,-355.5 1000.5,-336.5 951.5,-336.5"/>
<text text-anchor="middle" x="976" y="-343.5" font-family="Helvetica,sans-Serif" font-size="10.00">misc.h</text>
</a>
</g>
</g>
<!-- Node1&#45;&gt;Node109 -->
<g id="edge56" class="edge">
<title>Node1&#45;&gt;Node109</title>
<path fill="none" stroke="midnightblue" d="M753.78,-454.08C799.18,-449.71 862.76,-438.85 912,-412 937.86,-397.9 959.93,-369.97 970.06,-355.76"/>
<polygon fill="midnightblue" stroke="midnightblue" points="753.45,-450.6 743.8,-454.97 754.07,-457.57 753.45,-450.6"/>
</g>
<!-- Node110 -->
<g id="node25" class="node">
<title>Node110</title>
<g id="a_node25"><a xlink:href="../../dc/d72/debugger_8h.html" target="_top" xlink:title=" ">
<polygon fill="none" stroke="black" points="1014.5,-280.5 1014.5,-299.5 1085.5,-299.5 1085.5,-280.5 1014.5,-280.5"/>
<text text-anchor="middle" x="1050" y="-287.5" font-family="Helvetica,sans-Serif" font-size="10.00">debugger.h</text>
</a>
</g>
</g>
<!-- Node1&#45;&gt;Node110 -->
<g id="edge58" class="edge">
<title>Node1&#45;&gt;Node110</title>
<path fill="none" stroke="midnightblue" d="M754.01,-453.94C804.52,-449.51 878.74,-438.64 938,-412 974.98,-395.38 982.94,-386.19 1010,-356 1026.09,-338.04 1039.52,-312.76 1045.94,-299.65"/>
<polygon fill="midnightblue" stroke="midnightblue" points="753.6,-450.46 743.92,-454.77 754.17,-457.44 753.6,-450.46"/>
</g>
<!-- Node111 -->
<g id="node26" class="node">
<title>Node111</title>
<g id="a_node26"><a xlink:href="../../de/dde/_string_utils_8h.html" target="_top" xlink:title=" ">
<polygon fill="none" stroke="black" points="1074.5,-168.5 1074.5,-187.5 1151.5,-187.5 1151.5,-168.5 1074.5,-168.5"/>
<text text-anchor="middle" x="1113" y="-175.5" font-family="Helvetica,sans-Serif" font-size="10.00">StringUtils.h</text>
</a>
</g>
</g>
<!-- Node1&#45;&gt;Node111 -->
<g id="edge61" class="edge">
<title>Node1&#45;&gt;Node111</title>
<path fill="none" stroke="midnightblue" d="M753.83,-456.69C811.07,-454.31 899.92,-444.95 969,-412 1036.63,-379.75 1059.35,-365.9 1095,-300 1115.51,-262.08 1114.81,-208.21 1113.64,-187.54"/>
<polygon fill="midnightblue" stroke="midnightblue" points="753.39,-453.2 743.52,-457.06 753.64,-460.2 753.39,-453.2"/>
</g>
<!-- Node112 -->
<g id="node27" class="node">
<title>Node112</title>
<g id="a_node27"><a xlink:href="../../db/d2b/hexagon_8h.html" target="_top" xlink:title=" ">
<polygon fill="none" stroke="black" points="1116,-336.5 1116,-355.5 1184,-355.5 1184,-336.5 1116,-336.5"/>
<text text-anchor="middle" x="1150" y="-343.5" font-family="Helvetica,sans-Serif" font-size="10.00">hexagon.h</text>
</a>
</g>
</g>
<!-- Node1&#45;&gt;Node112 -->
<g id="edge63" class="edge">
<title>Node1&#45;&gt;Node112</title>
<path fill="none" stroke="midnightblue" d="M753.81,-454.95C847.54,-450.87 1027.92,-439.59 1085,-412 1112.01,-398.94 1134.41,-370.01 1144.4,-355.56"/>
<polygon fill="midnightblue" stroke="midnightblue" points="753.49,-451.46 743.65,-455.38 753.79,-458.46 753.49,-451.46"/>
</g>
<!-- Node113 -->
<g id="node28" class="node">
<title>Node113</title>
<g id="a_node28"><a xlink:href="../../d0/db7/octagon_8h.html" target="_top" xlink:title=" ">
<polygon fill="none" stroke="black" points="1137.5,-392.5 1137.5,-411.5 1202.5,-411.5 1202.5,-392.5 1137.5,-392.5"/>
<text text-anchor="middle" x="1170" y="-399.5" font-family="Helvetica,sans-Serif" font-size="10.00">octagon.h</text>
</a>
</g>
</g>
<!-- Node1&#45;&gt;Node113 -->
<g id="edge65" class="edge">
<title>Node1&#45;&gt;Node113</title>
<path fill="none" stroke="midnightblue" d="M753.7,-452.47C835.93,-445.67 991.47,-431.49 1123,-412 1127.68,-411.31 1132.61,-410.47 1137.44,-409.6"/>
<polygon fill="midnightblue" stroke="midnightblue" points="753.23,-449 743.55,-453.3 753.81,-455.97 753.23,-449"/>
</g>
<!-- Node114 -->
<g id="node29" class="node">
<title>Node114</title>
<g id="a_node29"><a xlink:href="../../dc/d7f/pentagon_8h.html" target="_top" xlink:title=" ">
<polygon fill="none" stroke="black" points="1220.5,-392.5 1220.5,-411.5 1291.5,-411.5 1291.5,-392.5 1220.5,-392.5"/>
<text text-anchor="middle" x="1256" y="-399.5" font-family="Helvetica,sans-Serif" font-size="10.00">pentagon.h</text>
</a>
</g>
</g>
<!-- Node1&#45;&gt;Node114 -->
<g id="edge67" class="edge">
<title>Node1&#45;&gt;Node114</title>
<path fill="none" stroke="midnightblue" d="M753.56,-454.14C849.15,-448.91 1046.51,-436.06 1212,-412 1214.62,-411.62 1217.33,-411.18 1220.04,-410.71"/>
<polygon fill="midnightblue" stroke="midnightblue" points="753.32,-450.65 743.52,-454.68 753.69,-457.64 753.32,-450.65"/>
</g>
<!-- Node2&#45;&gt;Node3 -->
<g id="edge2" class="edge">
<title>Node2&#45;&gt;Node3</title>
<path fill="none" stroke="midnightblue" d="M204,-105C194.43,-95.43 182.64,-83.64 174.75,-75.75"/>
<polygon fill="midnightblue" stroke="midnightblue" points="201.54,-107.49 211.08,-112.08 206.49,-102.54 201.54,-107.49"/>
</g>
<!-- Node2&#45;&gt;Node9 -->
<g id="edge5" class="edge">
<title>Node2&#45;&gt;Node9</title>
<path fill="none" stroke="midnightblue" d="M240.71,-106.88C264.33,-91.55 304.66,-67.7 343,-56 478.83,-14.55 649.35,-10.01 725.32,-10.29"/>
<polygon fill="midnightblue" stroke="midnightblue" points="238.64,-104.05 232.23,-112.48 242.5,-109.89 238.64,-104.05"/>
</g>
<!-- Node3&#45;&gt;Node4 -->
<g id="edge3" class="edge">
<title>Node3&#45;&gt;Node4</title>
<path fill="none" stroke="midnightblue" d="M150,-49C140.43,-39.43 128.64,-27.64 120.75,-19.75"/>
<polygon fill="midnightblue" stroke="midnightblue" points="147.54,-51.49 157.08,-56.08 152.49,-46.54 147.54,-51.49"/>
</g>
<!-- Node3&#45;&gt;Node9 -->
<g id="edge4" class="edge">
<title>Node3&#45;&gt;Node9</title>
<path fill="none" stroke="midnightblue" d="M200.4,-61.56C217.68,-59.85 238.94,-57.78 258,-56 431.99,-39.77 639.7,-21.76 725.22,-14.41"/>
<polygon fill="midnightblue" stroke="midnightblue" points="199.81,-58.1 190.21,-62.57 200.5,-65.07 199.81,-58.1"/>
</g>
<!-- Node76&#45;&gt;Node9 -->
<g id="edge26" class="edge">
<title>Node76&#45;&gt;Node9</title>
<path fill="none" stroke="midnightblue" d="M854.56,-382.6C837.85,-313.24 779,-69.07 767.1,-19.73"/>
<polygon fill="midnightblue" stroke="midnightblue" points="851.2,-383.59 856.95,-392.49 858.01,-381.95 851.2,-383.59"/>
</g>
<!-- Node77 -->
<g id="node7" class="node">
<title>Node77</title>
<g id="a_node7"><a xlink:href="../../d5/dab/hour__impl_8h.html" target="_top" xlink:title=" ">
<polygon fill="none" stroke="black" points="256,-224.5 256,-243.5 330,-243.5 330,-224.5 256,-224.5"/>
<text text-anchor="middle" x="293" y="-231.5" font-family="Helvetica,sans-Serif" font-size="10.00">hour_impl.h</text>
</a>
</g>
</g>
<!-- Node76&#45;&gt;Node77 -->
<g id="edge7" class="edge">
<title>Node76&#45;&gt;Node77</title>
<path fill="none" stroke="midnightblue" d="M804.92,-393.52C720.91,-380.8 554.87,-351.22 422,-300 378.94,-283.4 331.14,-257.08 307.66,-243.59"/>
<polygon fill="midnightblue" stroke="midnightblue" points="804.59,-397.01 815,-395.03 805.62,-390.09 804.59,-397.01"/>
</g>
<!-- Node78 -->
<g id="node8" class="node">
<title>Node78</title>
<g id="a_node8"><a xlink:href="../../dc/d9b/math_functions__impl_8h.html" target="_top" xlink:title=" ">
<polygon fill="none" stroke="black" points="633.5,-336.5 633.5,-355.5 758.5,-355.5 758.5,-336.5 633.5,-336.5"/>
<text text-anchor="middle" x="696" y="-343.5" font-family="Helvetica,sans-Serif" font-size="10.00">mathFunctions_impl.h</text>
</a>
</g>
</g>
<!-- Node76&#45;&gt;Node78 -->
<g id="edge9" class="edge">
<title>Node76&#45;&gt;Node78</title>
<path fill="none" stroke="midnightblue" d="M823.3,-389.17C792.6,-379 749.08,-364.59 721.71,-355.52"/>
<polygon fill="midnightblue" stroke="midnightblue" points="822.58,-392.62 833.17,-392.44 824.78,-385.98 822.58,-392.62"/>
</g>
<!-- Node101 -->
<g id="node16" class="node">
<title>Node101</title>
<g id="a_node16"><a xlink:href="../../d2/daa/_memory_pool_8h.html" target="_top" xlink:title=" ">
<polygon fill="none" stroke="black" points="828.5,-112.5 828.5,-131.5 915.5,-131.5 915.5,-112.5 828.5,-112.5"/>
<text text-anchor="middle" x="872" y="-119.5" font-family="Helvetica,sans-Serif" font-size="10.00">MemoryPool.h</text>
</a>
</g>
</g>
<!-- Node76&#45;&gt;Node101 -->
<g id="edge27" class="edge">
<title>Node76&#45;&gt;Node101</title>
<path fill="none" stroke="midnightblue" d="M862.51,-382.63C866.36,-360.85 872,-323.42 872,-291 872,-291 872,-291 872,-233 872,-195.19 872,-150.06 872,-131.56"/>
<polygon fill="midnightblue" stroke="midnightblue" points="859.07,-382.01 860.7,-392.48 865.95,-383.28 859.07,-382.01"/>
</g>
<!-- Node103 -->
<g id="node18" class="node">
<title>Node103</title>
<g id="a_node18"><a xlink:href="../../dd/df4/matrix_8h.html" target="_top" xlink:title=" ">
<polygon fill="none" stroke="black" points="900,-280.5 900,-299.5 958,-299.5 958,-280.5 900,-280.5"/>
<text text-anchor="middle" x="929" y="-287.5" font-family="Helvetica,sans-Serif" font-size="10.00">matrix.h</text>
</a>
</g>
</g>
<!-- Node76&#45;&gt;Node103 -->
<g id="edge31" class="edge">
<title>Node76&#45;&gt;Node103</title>
<path fill="none" stroke="midnightblue" d="M870.05,-383.64C885.25,-359.74 912.05,-317.63 923.53,-299.59"/>
<polygon fill="midnightblue" stroke="midnightblue" points="866.91,-382.05 864.49,-392.37 872.81,-385.81 866.91,-382.05"/>
</g>
<!-- Node77&#45;&gt;Node2 -->
<g id="edge8" class="edge">
<title>Node77&#45;&gt;Node2</title>
<path fill="none" stroke="midnightblue" d="M286.74,-214.45C281.71,-200.93 273.87,-182.52 264,-168 254.42,-153.9 240.18,-140.28 230.51,-131.78"/>
<polygon fill="midnightblue" stroke="midnightblue" points="283.51,-215.83 290.16,-224.08 290.11,-213.48 283.51,-215.83"/>
</g>
<!-- Node78&#45;&gt;Node79 -->
<g id="edge10" class="edge">
<title>Node78&#45;&gt;Node79</title>
<path fill="none" stroke="midnightblue" d="M693.2,-326.1C691.87,-317.14 690.35,-306.86 689.3,-299.75"/>
<polygon fill="midnightblue" stroke="midnightblue" points="689.75,-326.7 694.68,-336.08 696.68,-325.68 689.75,-326.7"/>
</g>
<!-- Node79&#45;&gt;Node9 -->
<g id="edge25" class="edge">
<title>Node79&#45;&gt;Node9</title>
<path fill="none" stroke="midnightblue" d="M712.12,-274.47C722.44,-266.83 733.38,-256.44 739,-244 773.39,-167.79 705.99,-135.46 732,-56 736.7,-41.64 747.93,-28.07 755.98,-19.66"/>
<polygon fill="midnightblue" stroke="midnightblue" points="709.99,-271.69 703.73,-280.24 713.96,-277.46 709.99,-271.69"/>
</g>
<!-- Node80 -->
<g id="node10" class="node">
<title>Node80</title>
<g id="a_node10"><a xlink:href="../../d2/d38/year__impl_8h.html" target="_top" xlink:title=" ">
<polygon fill="none" stroke="black" points="516,-224.5 516,-243.5 590,-243.5 590,-224.5 516,-224.5"/>
<text text-anchor="middle" x="553" y="-231.5" font-family="Helvetica,sans-Serif" font-size="10.00">year_impl.h</text>
</a>
</g>
</g>
<!-- Node79&#45;&gt;Node80 -->
<g id="edge11" class="edge">
<title>Node79&#45;&gt;Node80</title>
<path fill="none" stroke="midnightblue" d="M657.09,-276.64C631.76,-266.5 596.57,-252.43 574.29,-243.52"/>
<polygon fill="midnightblue" stroke="midnightblue" points="656.02,-279.98 666.61,-280.44 658.62,-273.48 656.02,-279.98"/>
</g>
<!-- Node84 -->
<g id="node14" class="node">
<title>Node84</title>
<g id="a_node14"><a xlink:href="../../da/d19/month__impl_8h.html" target="_top" xlink:title=" ">
<polygon fill="none" stroke="black" points="646,-224.5 646,-243.5 730,-243.5 730,-224.5 646,-224.5"/>
<text text-anchor="middle" x="688" y="-231.5" font-family="Helvetica,sans-Serif" font-size="10.00">month_impl.h</text>
</a>
</g>
</g>
<!-- Node79&#45;&gt;Node84 -->
<g id="edge20" class="edge">
<title>Node79&#45;&gt;Node84</title>
<path fill="none" stroke="midnightblue" d="M688,-269.8C688,-260.91 688,-250.78 688,-243.75"/>
<polygon fill="midnightblue" stroke="midnightblue" points="684.5,-270.08 688,-280.08 691.5,-270.08 684.5,-270.08"/>
</g>
<!-- Node80&#45;&gt;Node81 -->
<g id="edge12" class="edge">
<title>Node80&#45;&gt;Node81</title>
<path fill="none" stroke="midnightblue" d="M517.24,-221.23C485.55,-210.79 440.15,-195.84 412.73,-186.82"/>
<polygon fill="midnightblue" stroke="midnightblue" points="516.42,-224.64 527.01,-224.44 518.61,-217.99 516.42,-224.64"/>
</g>
<!-- Node81&#45;&gt;Node9 -->
<g id="edge19" class="edge">
<title>Node81&#45;&gt;Node9</title>
<path fill="none" stroke="midnightblue" d="M404.55,-160.81C418.51,-146.84 439.97,-126.64 461,-112 505.05,-81.33 517.64,-74.57 568,-56 620.83,-36.51 684.85,-23.77 725.26,-16.98"/>
<polygon fill="midnightblue" stroke="midnightblue" points="401.78,-158.65 397.27,-168.24 406.77,-163.55 401.78,-158.65"/>
</g>
<!-- Node81&#45;&gt;Node82 -->
<g id="edge13" class="edge">
<title>Node81&#45;&gt;Node82</title>
<path fill="none" stroke="midnightblue" d="M416.48,-164.1C437.97,-154.01 467.22,-140.27 485.86,-131.52"/>
<polygon fill="midnightblue" stroke="midnightblue" points="414.79,-161.02 407.22,-168.44 417.76,-167.36 414.79,-161.02"/>
</g>
<!-- Node81&#45;&gt;Node83 -->
<g id="edge18" class="edge">
<title>Node81&#45;&gt;Node83</title>
<path fill="none" stroke="midnightblue" d="M386.63,-158.35C383.56,-134.25 378.35,-93.31 376.09,-75.59"/>
<polygon fill="midnightblue" stroke="midnightblue" points="383.17,-158.89 387.9,-168.37 390.11,-158.01 383.17,-158.89"/>
</g>
<!-- Node82&#45;&gt;Node9 -->
<g id="edge17" class="edge">
<title>Node82&#45;&gt;Node9</title>
<path fill="none" stroke="midnightblue" d="M523.61,-106.4C543.86,-91.9 576.79,-69.89 608,-56 646.34,-38.93 692.82,-26.56 725.22,-19.16"/>
<polygon fill="midnightblue" stroke="midnightblue" points="521.29,-103.76 515.26,-112.47 525.4,-109.42 521.29,-103.76"/>
</g>
<!-- Node82&#45;&gt;Node83 -->
<g id="edge14" class="edge">
<title>Node82&#45;&gt;Node83</title>
<path fill="none" stroke="midnightblue" d="M474.15,-108.5C449.96,-98.38 416.54,-84.39 395.34,-75.52"/>
<polygon fill="midnightblue" stroke="midnightblue" points="472.98,-111.81 483.56,-112.44 475.69,-105.35 472.98,-111.81"/>
</g>
<!-- Node83&#45;&gt;Node4 -->
<g id="edge15" class="edge">
<title>Node83&#45;&gt;Node4</title>
<path fill="none" stroke="midnightblue" d="M341.35,-58.09C292.08,-47.97 200.6,-29.19 149.32,-18.66"/>
<polygon fill="midnightblue" stroke="midnightblue" points="340.7,-61.53 351.2,-60.11 342.1,-54.67 340.7,-61.53"/>
</g>
<!-- Node83&#45;&gt;Node9 -->
<g id="edge16" class="edge">
<title>Node83&#45;&gt;Node9</title>
<path fill="none" stroke="midnightblue" d="M408.68,-58.01C412.49,-57.29 416.33,-56.61 420,-56 530.11,-37.83 660.97,-22.45 725.29,-15.29"/>
<polygon fill="midnightblue" stroke="midnightblue" points="407.91,-54.59 398.77,-59.93 409.25,-61.46 407.91,-54.59"/>
</g>
<!-- Node84&#45;&gt;Node85 -->
<g id="edge21" class="edge">
<title>Node84&#45;&gt;Node85</title>
<path fill="none" stroke="midnightblue" d="M667.69,-218.38C654.14,-208.62 636.76,-196.11 625.27,-187.83"/>
<polygon fill="midnightblue" stroke="midnightblue" points="665.79,-221.32 675.95,-224.32 669.88,-215.64 665.79,-221.32"/>
</g>
<!-- Node85&#45;&gt;Node9 -->
<g id="edge24" class="edge">
<title>Node85&#45;&gt;Node9</title>
<path fill="none" stroke="midnightblue" d="M614.89,-158.41C618.48,-132.33 628.56,-84.85 656,-56 674.41,-36.64 702.38,-25.33 725.37,-18.88"/>
<polygon fill="midnightblue" stroke="midnightblue" points="611.4,-158.1 613.69,-168.45 618.35,-158.94 611.4,-158.1"/>
</g>
<!-- Node85&#45;&gt;Node82 -->
<g id="edge22" class="edge">
<title>Node85&#45;&gt;Node82</title>
<path fill="none" stroke="midnightblue" d="M586.48,-163.86C566.27,-153.85 539.01,-140.35 521.47,-131.65"/>
<polygon fill="midnightblue" stroke="midnightblue" points="584.97,-167.02 595.49,-168.32 588.08,-160.75 584.97,-167.02"/>
</g>
<!-- Node85&#45;&gt;Node83 -->
<g id="edge23" class="edge">
<title>Node85&#45;&gt;Node83</title>
<path fill="none" stroke="midnightblue" d="M600.52,-160.52C588.42,-145.68 568.74,-124.36 547,-112 498.7,-84.55 433.29,-73.45 398.71,-69.28"/>
<polygon fill="midnightblue" stroke="midnightblue" points="597.79,-162.71 606.73,-168.39 603.28,-158.37 597.79,-162.71"/>
</g>
<!-- Node101&#45;&gt;Node9 -->
<g id="edge28" class="edge">
<title>Node101&#45;&gt;Node9</title>
<path fill="none" stroke="midnightblue" d="M845.2,-107.44C831.45,-99.57 815.1,-88.71 803,-76 786.59,-58.77 774.31,-33.19 768.58,-19.84"/>
<polygon fill="midnightblue" stroke="midnightblue" points="843.77,-110.64 854.21,-112.39 847.14,-104.51 843.77,-110.64"/>
</g>
<!-- Node102 -->
<g id="node17" class="node">
<title>Node102</title>
<g id="a_node17"><a xlink:href="../../d5/d53/_memory_pool_allocator_8h.html" target="_top" xlink:title=" ">
<polygon fill="none" stroke="black" points="812,-56.5 812,-75.5 942,-75.5 942,-56.5 812,-56.5"/>
<text text-anchor="middle" x="877" y="-63.5" font-family="Helvetica,sans-Serif" font-size="10.00">MemoryPoolAllocator.h</text>
</a>
</g>
</g>
<!-- Node101&#45;&gt;Node102 -->
<g id="edge29" class="edge">
<title>Node101&#45;&gt;Node102</title>
<path fill="none" stroke="midnightblue" d="M873.75,-102.1C874.58,-93.14 875.53,-82.86 876.19,-75.75"/>
<polygon fill="midnightblue" stroke="midnightblue" points="870.26,-101.8 872.83,-112.08 877.23,-102.45 870.26,-101.8"/>
</g>
<!-- Node102&#45;&gt;Node9 -->
<g id="edge30" class="edge">
<title>Node102&#45;&gt;Node9</title>
<path fill="none" stroke="midnightblue" d="M849.75,-51.86C828.98,-41.85 800.98,-28.35 782.95,-19.65"/>
<polygon fill="midnightblue" stroke="midnightblue" points="848.48,-55.13 859.01,-56.32 851.52,-48.83 848.48,-55.13"/>
</g>
<!-- Node103&#45;&gt;Node9 -->
<g id="edge32" class="edge">
<title>Node103&#45;&gt;Node9</title>
<path fill="none" stroke="midnightblue" d="M939.94,-271.53C952.09,-250.44 970,-213.48 970,-179 970,-179 970,-179 970,-121 970,-90.9 972.78,-76.78 951,-56 930.27,-36.22 853.02,-22.66 804.84,-15.93"/>
<polygon fill="midnightblue" stroke="midnightblue" points="936.84,-269.91 934.7,-280.29 942.84,-273.51 936.84,-269.91"/>
</g>
<!-- Node104&#45;&gt;Node9 -->
<g id="edge43" class="edge">
<title>Node104&#45;&gt;Node9</title>
<path fill="none" stroke="midnightblue" d="M475.12,-270.75C481.01,-255.97 491.35,-235.74 507,-224 559.78,-184.42 598.81,-228.35 651,-188 703.87,-147.12 683.89,-110.19 723,-56 732.88,-42.31 746.56,-28.38 755.59,-19.72"/>
<polygon fill="midnightblue" stroke="midnightblue" points="471.76,-269.76 471.61,-280.35 478.33,-272.16 471.76,-269.76"/>
</g>
<!-- Node104&#45;&gt;Node77 -->
<g id="edge34" class="edge">
<title>Node104&#45;&gt;Node77</title>
<path fill="none" stroke="midnightblue" d="M431.31,-277.44C398.13,-267.26 350.57,-252.66 320.76,-243.52"/>
<polygon fill="midnightblue" stroke="midnightblue" points="430.53,-280.86 441.11,-280.44 432.58,-274.16 430.53,-280.86"/>
</g>
<!-- Node104&#45;&gt;Node80 -->
<g id="edge37" class="edge">
<title>Node104&#45;&gt;Node80</title>
<path fill="none" stroke="midnightblue" d="M490.93,-274.9C506.34,-265 526.45,-252.07 539.54,-243.65"/>
<polygon fill="midnightblue" stroke="midnightblue" points="489.02,-271.97 482.5,-280.32 492.8,-277.86 489.02,-271.97"/>
</g>
<!-- Node104&#45;&gt;Node84 -->
<g id="edge38" class="edge">
<title>Node104&#45;&gt;Node84</title>
<path fill="none" stroke="midnightblue" d="M513.51,-278.02C554.88,-267.82 615.64,-252.84 653.46,-243.52"/>
<polygon fill="midnightblue" stroke="midnightblue" points="512.57,-274.65 503.7,-280.44 514.25,-281.45 512.57,-274.65"/>
</g>
<!-- Node105 -->
<g id="node20" class="node">
<title>Node105</title>
<g id="a_node20"><a xlink:href="../../d3/d09/time__impl_8h.html" target="_top" xlink:title=" ">
<polygon fill="none" stroke="black" points="146.5,-168.5 146.5,-187.5 221.5,-187.5 221.5,-168.5 146.5,-168.5"/>
<text text-anchor="middle" x="184" y="-175.5" font-family="Helvetica,sans-Serif" font-size="10.00">time_impl.h</text>
</a>
</g>
</g>
<!-- Node104&#45;&gt;Node105 -->
<g id="edge35" class="edge">
<title>Node104&#45;&gt;Node105</title>
<path fill="none" stroke="midnightblue" d="M419.9,-287.35C372.92,-283.92 301.37,-273.74 247,-244 221.35,-229.97 199.72,-202.02 189.8,-187.78"/>
<polygon fill="midnightblue" stroke="midnightblue" points="419.91,-290.85 430.12,-288.01 420.37,-283.87 419.91,-290.85"/>
</g>
<!-- Node106 -->
<g id="node21" class="node">
<title>Node106</title>
<g id="a_node21"><a xlink:href="../../d4/d9a/weekday__impl_8h.html" target="_top" xlink:title=" ">
<polygon fill="none" stroke="black" points="430.5,-168.5 430.5,-187.5 527.5,-187.5 527.5,-168.5 430.5,-168.5"/>
<text text-anchor="middle" x="479" y="-175.5" font-family="Helvetica,sans-Serif" font-size="10.00">weekday_impl.h</text>
</a>
</g>
</g>
<!-- Node104&#45;&gt;Node106 -->
<g id="edge39" class="edge">
<title>Node104&#45;&gt;Node106</title>
<path fill="none" stroke="midnightblue" d="M470.28,-270.12C471.21,-257.14 472.54,-239.51 474,-224 475.19,-211.32 476.88,-196.67 477.95,-187.62"/>
<polygon fill="midnightblue" stroke="midnightblue" points="466.79,-269.94 469.58,-280.16 473.77,-270.43 466.79,-269.94"/>
</g>
<!-- Node107 -->
<g id="node22" class="node">
<title>Node107</title>
<g id="a_node22"><a xlink:href="../../d1/d95/date__impl_8h.html" target="_top" xlink:title=" ">
<polygon fill="none" stroke="black" points="348,-224.5 348,-243.5 422,-243.5 422,-224.5 348,-224.5"/>
<text text-anchor="middle" x="385" y="-231.5" font-family="Helvetica,sans-Serif" font-size="10.00">date_impl.h</text>
</a>
</g>
</g>
<!-- Node104&#45;&gt;Node107 -->
<g id="edge41" class="edge">
<title>Node104&#45;&gt;Node107</title>
<path fill="none" stroke="midnightblue" d="M447.07,-274.9C431.66,-265 411.55,-252.07 398.46,-243.65"/>
<polygon fill="midnightblue" stroke="midnightblue" points="445.2,-277.86 455.5,-280.32 448.98,-271.97 445.2,-277.86"/>
</g>
<!-- Node105&#45;&gt;Node3 -->
<g id="edge36" class="edge">
<title>Node105&#45;&gt;Node3</title>
<path fill="none" stroke="midnightblue" d="M180.95,-158.35C177.01,-134.25 170.3,-93.31 167.41,-75.59"/>
<polygon fill="midnightblue" stroke="midnightblue" points="177.52,-159.06 182.59,-168.37 184.43,-157.93 177.52,-159.06"/>
</g>
<!-- Node106&#45;&gt;Node82 -->
<g id="edge40" class="edge">
<title>Node106&#45;&gt;Node82</title>
<path fill="none" stroke="midnightblue" d="M487.34,-158.98C491.58,-149.82 496.55,-139.09 499.95,-131.75"/>
<polygon fill="midnightblue" stroke="midnightblue" points="484.15,-157.54 483.13,-168.08 490.51,-160.48 484.15,-157.54"/>
</g>
<!-- Node107&#45;&gt;Node83 -->
<g id="edge42" class="edge">
<title>Node107&#45;&gt;Node83</title>
<path fill="none" stroke="midnightblue" d="M371.49,-216.3C365.83,-208.25 359.9,-198.16 357,-188 345.27,-146.95 363.06,-95.77 371.24,-75.67"/>
<polygon fill="midnightblue" stroke="midnightblue" points="368.78,-218.52 377.59,-224.41 374.38,-214.31 368.78,-218.52"/>
</g>
<!-- Node108&#45;&gt;Node3 -->
<g id="edge46" class="edge">
<title>Node108&#45;&gt;Node3</title>
<path fill="none" stroke="midnightblue" d="M90.08,-107.59C108.76,-97.61 133.7,-84.27 149.81,-75.65"/>
<polygon fill="midnightblue" stroke="midnightblue" points="88.4,-104.52 81.23,-112.32 91.7,-110.7 88.4,-104.52"/>
</g>
<!-- Node108&#45;&gt;Node4 -->
<g id="edge48" class="edge">
<title>Node108&#45;&gt;Node4</title>
<path fill="none" stroke="midnightblue" d="M72.69,-103C82.95,-79 100.69,-37.47 108.33,-19.59"/>
<polygon fill="midnightblue" stroke="midnightblue" points="69.4,-101.8 68.69,-112.37 75.84,-104.55 69.4,-101.8"/>
</g>
<!-- Node108&#45;&gt;Node9 -->
<g id="edge49" class="edge">
<title>Node108&#45;&gt;Node9</title>
<path fill="none" stroke="midnightblue" d="M77.09,-104.06C89.25,-88.52 109.53,-66.39 133,-56 187,-32.08 595.14,-16.63 725.27,-12.27"/>
<polygon fill="midnightblue" stroke="midnightblue" points="74.1,-102.21 70.9,-112.31 79.7,-106.41 74.1,-102.21"/>
</g>
<!-- Node108&#45;&gt;Node83 -->
<g id="edge47" class="edge">
<title>Node108&#45;&gt;Node83</title>
<path fill="none" stroke="midnightblue" d="M111.98,-112.82C179.13,-101.12 300.06,-80.05 351.17,-71.15"/>
<polygon fill="midnightblue" stroke="midnightblue" points="111.34,-109.38 102.09,-114.54 112.54,-116.27 111.34,-109.38"/>
</g>
<!-- Node109&#45;&gt;Node9 -->
<g id="edge57" class="edge">
<title>Node109&#45;&gt;Node9</title>
<path fill="none" stroke="midnightblue" d="M981.85,-326.87C991.08,-296.58 1008,-233.63 1008,-179 1008,-179 1008,-179 1008,-121 1008,-32.78 873.44,-14.95 804.58,-11.59"/>
<polygon fill="midnightblue" stroke="midnightblue" points="978.49,-325.88 978.84,-336.47 985.17,-327.97 978.49,-325.88"/>
</g>
<!-- Node110&#45;&gt;Node9 -->
<g id="edge59" class="edge">
<title>Node110&#45;&gt;Node9</title>
<path fill="none" stroke="midnightblue" d="M1048.9,-270.26C1047.72,-248.37 1046,-211.07 1046,-179 1046,-179 1046,-179 1046,-121 1046,-90.2 1045.65,-75.73 1022,-56 989.61,-28.98 868.32,-17.46 804.62,-13.18"/>
<polygon fill="midnightblue" stroke="midnightblue" points="1045.42,-270.66 1049.48,-280.45 1052.41,-270.27 1045.42,-270.66"/>
</g>
<!-- Node111&#45;&gt;Node9 -->
<g id="edge62" class="edge">
<title>Node111&#45;&gt;Node9</title>
<path fill="none" stroke="midnightblue" d="M1110.44,-158.1C1105.68,-130.88 1092.79,-81.17 1060,-56 1020.7,-25.83 875.48,-15.63 804.53,-12.39"/>
<polygon fill="midnightblue" stroke="midnightblue" points="1107.02,-158.9 1112.01,-168.25 1113.94,-157.83 1107.02,-158.9"/>
</g>
<!-- Node112&#45;&gt;Node9 -->
<g id="edge64" class="edge">
<title>Node112&#45;&gt;Node9</title>
<path fill="none" stroke="midnightblue" d="M1158.11,-326.93C1167,-305.47 1180,-268.36 1180,-235 1180,-235 1180,-235 1180,-121 1180,-43.85 908.66,-19.55 804.79,-13.07"/>
<polygon fill="midnightblue" stroke="midnightblue" points="1154.79,-325.81 1154.05,-336.38 1161.22,-328.58 1154.79,-325.81"/>
</g>
<!-- Node113&#45;&gt;Node9 -->
<g id="edge66" class="edge">
<title>Node113&#45;&gt;Node9</title>
<path fill="none" stroke="midnightblue" d="M1182.62,-384.08C1196.84,-363.29 1218,-326.42 1218,-291 1218,-291 1218,-291 1218,-121 1218,-36.33 915.34,-16.58 804.8,-12.19"/>
<polygon fill="midnightblue" stroke="midnightblue" points="1179.62,-382.26 1176.67,-392.44 1185.32,-386.32 1179.62,-382.26"/>
</g>
<!-- Node114&#45;&gt;Node9 -->
<g id="edge68" class="edge">
<title>Node114&#45;&gt;Node9</title>
<path fill="none" stroke="midnightblue" d="M1256,-382.25C1256,-360.36 1256,-323.05 1256,-291 1256,-291 1256,-291 1256,-121 1256,-28.73 921.65,-13.84 804.76,-11.45"/>
<polygon fill="midnightblue" stroke="midnightblue" points="1252.5,-382.44 1256,-392.44 1259.5,-382.44 1252.5,-382.44"/>
</g>
</g>
</svg>
        <g id="navigator" transform="translate(0 0)" fill="#404254">
                <rect fill="#f2f5e9" fill-opacity="0.5" stroke="#606060" stroke-width=".5" x="0" y="0" width="60" height="60"/>
                <use id="zoomplus" xlink:href="#zoomPlus" x="17" y="9" onmousedown="handleZoom(evt,'in')"/>
                <use id="zoomminus" xlink:href="#zoomMin" x="42" y="9" onmousedown="handleZoom(evt,'out')"/>
                <use id="reset" xlink:href="#resetDef" x="30" y="36" onmousedown="handleReset()"/>
                <g id="arrowUp" xlink:href="#dirArrow" transform="translate(30 24)" onmousedown="handlePan(0,-1)">
                  <use xlink:href="#rim" fill="#404040">
                        <set attributeName="fill" to="#808080" begin="arrowUp.mouseover" end="arrowUp.mouseout"/>
                  </use>
                  <path fill="none" stroke="white" stroke-width="1.5" d="M0,-3.0v7 M-2.5,-0.5L0,-3.0L2.5,-0.5"/>
                </g>
                <g id="arrowRight" xlink:href="#dirArrow" transform="rotate(90) translate(36 -43)" onmousedown="handlePan(1,0)">
                  <use xlink:href="#rim" fill="#404040">
                        <set attributeName="fill" to="#808080" begin="arrowRight.mouseover" end="arrowRight.mouseout"/>
                  </use>
                  <path fill="none" stroke="white" stroke-width="1.5" d="M0,-3.0v7 M-2.5,-0.5L0,-3.0L2.5,-0.5"/>
                </g>
                <g id="arrowDown" xlink:href="#dirArrow" transform="rotate(180) translate(-30 -48)" onmousedown="handlePan(0,1)">
                  <use xlink:href="#rim" fill="#404040">
                        <set attributeName="fill" to="#808080" begin="arrowDown.mouseover" end="arrowDown.mouseout"/>
                  </use>
                  <path fill="none" stroke="white" stroke-width="1.5" d="M0,-3.0v7 M-2.5,-0.5L0,-3.0L2.5,-0.5"/>
                </g>
                <g id="arrowLeft" xlink:href="#dirArrow" transform="rotate(270) translate(-36 17)" onmousedown="handlePan(-1,0)">
                  <use xlink:href="#rim" fill="#404040">
                        <set attributeName="fill" to="#808080" begin="arrowLeft.mouseover" end="arrowLeft.mouseout"/>
                  </use>
                  <path fill="none" stroke="white" stroke-width="1.5" d="M0,-3.0v7 M-2.5,-0.5L0,-3.0L2.5,-0.5"/>
                </g>
        </g>
        <svg viewBox="0 0 15 15" width="100%" height="30px" preserveAspectRatio="xMaxYMin meet">
         <g id="arrow_out" transform="scale(0.3 0.3)">
          <a xlink:href="compiler__defs_8h__dep__incl_org.svg" target="_base">
           <rect id="button" ry="5" rx="5" y="6" x="6" height="38" width="38"
                fill="#f2f5e9" fill-opacity="0.5" stroke="#606060" stroke-width="1.0"/>
           <path id="arrow"
             d="M 11.500037,31.436501 C 11.940474,20.09759 22.043105,11.32322 32.158766,21.979434 L 37.068811,17.246167 C 37.068811,17.246167 37.088388,32 37.088388,32 L 22.160133,31.978069 C 22.160133,31.978069 26.997745,27.140456 26.997745,27.140456 C 18.528582,18.264221 13.291696,25.230495 11.500037,31.436501 z"
             style="fill:#404040;"/>
          </a>
         </g>
        </svg>
</svg>
