<?xml version="1.0" encoding="UTF-8" standalone="no"?>
<!DOCTYPE svg PUBLIC "-//W3C//DTD SVG 1.1//EN"
 "http://www.w3.org/Graphics/SVG/1.1/DTD/svg11.dtd">
<!-- Generated by graphviz version 2.43.0 (0)
 -->
<!-- Title: limes_vecops.h Pages: 1 -->
<svg width="958pt" height="364pt"
 viewBox="0.00 0.00 957.50 364.00" xmlns="http://www.w3.org/2000/svg" xmlns:xlink="http://www.w3.org/1999/xlink">
<g id="graph0" class="graph" transform="scale(1 1) rotate(0) translate(4 360)">
<title>limes_vecops.h</title>
<!-- Node1 -->
<g id="node1" class="node">
<title>Node1</title>
<g id="a_node1"><a xlink:title=" ">
<polygon fill="#bfbfbf" stroke="black" points="479,-336.5 479,-355.5 571,-355.5 571,-336.5 479,-336.5"/>
<text text-anchor="middle" x="525" y="-343.5" font-family="Helvetica,sans-Serif" font-size="10.00">limes_vecops.h</text>
</a>
</g>
</g>
<!-- Node2 -->
<g id="node2" class="node">
<title>Node2</title>
<g id="a_node2"><a xlink:href="../../d2/d8d/limes_8h.html" target="_top" xlink:title=" ">
<polygon fill="none" stroke="black" points="24.5,-0.5 24.5,-19.5 77.5,-19.5 77.5,-0.5 24.5,-0.5"/>
<text text-anchor="middle" x="51" y="-7.5" font-family="Helvetica,sans-Serif" font-size="10.00">limes.h</text>
</a>
</g>
</g>
<!-- Node1&#45;&gt;Node2 -->
<g id="edge1" class="edge">
<title>Node1&#45;&gt;Node2</title>
<path fill="none" stroke="midnightblue" d="M468.85,-344.85C360.19,-343.73 125.63,-336.95 55,-300 21.47,-282.46 0,-272.84 0,-235 0,-235 0,-235 0,-121 0,-79.95 29.59,-37.61 43.69,-19.77"/>
<polygon fill="midnightblue" stroke="midnightblue" points="468.93,-348.35 478.96,-344.95 468.99,-341.36 468.93,-348.35"/>
</g>
<!-- Node3 -->
<g id="node3" class="node">
<title>Node3</title>
<g id="a_node3"><a xlink:href="../../d5/d47/basic__vector_8h_source.html" target="_top" xlink:title=" ">
<polygon fill="none" stroke="black" points="64,-280.5 64,-299.5 150,-299.5 150,-280.5 64,-280.5"/>
<text text-anchor="middle" x="107" y="-287.5" font-family="Helvetica,sans-Serif" font-size="10.00">basic_vector.h</text>
</a>
</g>
</g>
<!-- Node1&#45;&gt;Node3 -->
<g id="edge2" class="edge">
<title>Node1&#45;&gt;Node3</title>
<path fill="none" stroke="midnightblue" d="M468.7,-338.56C397.61,-330.29 271.59,-315.2 164,-300 159.54,-299.37 154.88,-298.68 150.24,-297.98"/>
<polygon fill="midnightblue" stroke="midnightblue" points="468.44,-342.05 478.78,-339.73 469.25,-335.1 468.44,-342.05"/>
</g>
<!-- Node35 -->
<g id="node7" class="node">
<title>Node35</title>
<g id="a_node7"><a xlink:href="../../d2/d8d/scalar__vector_8h_source.html" target="_top" xlink:title=" ">
<polygon fill="none" stroke="black" points="135,-224.5 135,-243.5 225,-243.5 225,-224.5 135,-224.5"/>
<text text-anchor="middle" x="180" y="-231.5" font-family="Helvetica,sans-Serif" font-size="10.00">scalar_vector.h</text>
</a>
</g>
</g>
<!-- Node1&#45;&gt;Node35 -->
<g id="edge14" class="edge">
<title>Node1&#45;&gt;Node35</title>
<path fill="none" stroke="midnightblue" d="M468.97,-344.61C386.05,-342.85 236.21,-334.79 197,-300 180.77,-285.6 179.15,-257.81 179.48,-243.69"/>
<polygon fill="midnightblue" stroke="midnightblue" points="468.92,-348.11 478.98,-344.79 469.05,-341.11 468.92,-348.11"/>
</g>
<!-- Node38 -->
<g id="node10" class="node">
<title>Node38</title>
<g id="a_node10"><a xlink:href="../../d3/da1/_linked_list_model__impl_8h.html" target="_top" xlink:title=" ">
<polygon fill="none" stroke="black" points="206.5,-280.5 206.5,-299.5 337.5,-299.5 337.5,-280.5 206.5,-280.5"/>
<text text-anchor="middle" x="272" y="-287.5" font-family="Helvetica,sans-Serif" font-size="10.00">LinkedListModel_impl.h</text>
</a>
</g>
</g>
<!-- Node1&#45;&gt;Node38 -->
<g id="edge15" class="edge">
<title>Node1&#45;&gt;Node38</title>
<path fill="none" stroke="midnightblue" d="M475.08,-334.35C427.27,-324.14 356.05,-308.94 311.9,-299.52"/>
<polygon fill="midnightblue" stroke="midnightblue" points="474.4,-337.78 484.91,-336.44 475.86,-330.93 474.4,-337.78"/>
</g>
<!-- Node34 -->
<g id="node12" class="node">
<title>Node34</title>
<g id="a_node12"><a xlink:href="../../d8/dd4/_note_length__impl_8h_source.html" target="_top" xlink:title=" ">
<polygon fill="none" stroke="red" points="355.5,-280.5 355.5,-299.5 464.5,-299.5 464.5,-280.5 355.5,-280.5"/>
<text text-anchor="middle" x="410" y="-287.5" font-family="Helvetica,sans-Serif" font-size="10.00">NoteLength_impl.h</text>
</a>
</g>
</g>
<!-- Node1&#45;&gt;Node34 -->
<g id="edge18" class="edge">
<title>Node1&#45;&gt;Node34</title>
<path fill="none" stroke="midnightblue" d="M497.52,-332.1C476.03,-322.01 446.78,-308.27 428.14,-299.52"/>
<polygon fill="midnightblue" stroke="midnightblue" points="496.24,-335.36 506.78,-336.44 499.21,-329.02 496.24,-335.36"/>
</g>
<!-- Node40 -->
<g id="node13" class="node">
<title>Node40</title>
<g id="a_node13"><a xlink:href="../../d6/db4/fft__common_8h.html" target="_top" xlink:title=" ">
<polygon fill="none" stroke="black" points="483,-280.5 483,-299.5 567,-299.5 567,-280.5 483,-280.5"/>
<text text-anchor="middle" x="525" y="-287.5" font-family="Helvetica,sans-Serif" font-size="10.00">fft_common.h</text>
</a>
</g>
</g>
<!-- Node1&#45;&gt;Node40 -->
<g id="edge19" class="edge">
<title>Node1&#45;&gt;Node40</title>
<path fill="none" stroke="midnightblue" d="M525,-325.8C525,-316.91 525,-306.78 525,-299.75"/>
<polygon fill="midnightblue" stroke="midnightblue" points="521.5,-326.08 525,-336.08 528.5,-326.08 521.5,-326.08"/>
</g>
<!-- Node45 -->
<g id="node18" class="node">
<title>Node45</title>
<g id="a_node18"><a xlink:href="../../d4/d39/limes__fft_8h.html" target="_top" xlink:title=" ">
<polygon fill="none" stroke="black" points="585,-280.5 585,-299.5 653,-299.5 653,-280.5 585,-280.5"/>
<text text-anchor="middle" x="619" y="-287.5" font-family="Helvetica,sans-Serif" font-size="10.00">limes_fft.h</text>
</a>
</g>
</g>
<!-- Node1&#45;&gt;Node45 -->
<g id="edge24" class="edge">
<title>Node1&#45;&gt;Node45</title>
<path fill="none" stroke="midnightblue" d="M549.06,-331.18C566.36,-321.24 589.15,-308.15 603.93,-299.65"/>
<polygon fill="midnightblue" stroke="midnightblue" points="547.03,-328.31 540.1,-336.32 550.52,-334.38 547.03,-328.31"/>
</g>
<!-- Node46 -->
<g id="node19" class="node">
<title>Node46</title>
<g id="a_node19"><a xlink:href="../../d6/d1a/fallback_8h.html" target="_top" xlink:title=" ">
<polygon fill="none" stroke="black" points="671.5,-280.5 671.5,-299.5 736.5,-299.5 736.5,-280.5 671.5,-280.5"/>
<text text-anchor="middle" x="704" y="-287.5" font-family="Helvetica,sans-Serif" font-size="10.00">fallback.h</text>
</a>
</g>
</g>
<!-- Node1&#45;&gt;Node46 -->
<g id="edge25" class="edge">
<title>Node1&#45;&gt;Node46</title>
<path fill="none" stroke="midnightblue" d="M563.33,-333.44C597.08,-323.26 645.45,-308.66 675.77,-299.52"/>
<polygon fill="midnightblue" stroke="midnightblue" points="561.93,-330.2 553.36,-336.44 563.95,-336.91 561.93,-330.2"/>
</g>
<!-- Node47 -->
<g id="node20" class="node">
<title>Node47</title>
<g id="a_node20"><a xlink:href="../../d3/d88/ipp_8h.html" target="_top" xlink:title=" ">
<polygon fill="none" stroke="black" points="754.5,-280.5 754.5,-299.5 795.5,-299.5 795.5,-280.5 754.5,-280.5"/>
<text text-anchor="middle" x="775" y="-287.5" font-family="Helvetica,sans-Serif" font-size="10.00">ipp.h</text>
</a>
</g>
</g>
<!-- Node1&#45;&gt;Node47 -->
<g id="edge26" class="edge">
<title>Node1&#45;&gt;Node47</title>
<path fill="none" stroke="midnightblue" d="M581.14,-335.17C626.02,-326.93 690.4,-314.25 746,-300 748.76,-299.29 751.64,-298.48 754.48,-297.65"/>
<polygon fill="midnightblue" stroke="midnightblue" points="580.23,-331.78 571.02,-337.02 581.48,-338.67 580.23,-331.78"/>
</g>
<!-- Node48 -->
<g id="node21" class="node">
<title>Node48</title>
<g id="a_node21"><a xlink:href="../../d4/dcb/mipp_8h.html" target="_top" xlink:title=" ">
<polygon fill="none" stroke="black" points="814,-280.5 814,-299.5 864,-299.5 864,-280.5 814,-280.5"/>
<text text-anchor="middle" x="839" y="-287.5" font-family="Helvetica,sans-Serif" font-size="10.00">mipp.h</text>
</a>
</g>
</g>
<!-- Node1&#45;&gt;Node48 -->
<g id="edge27" class="edge">
<title>Node1&#45;&gt;Node48</title>
<path fill="none" stroke="midnightblue" d="M581.54,-337.6C638.32,-329.77 728.15,-316.31 805,-300 807.87,-299.39 810.85,-298.7 813.82,-297.96"/>
<polygon fill="midnightblue" stroke="midnightblue" points="580.77,-334.17 571.34,-338.99 581.72,-341.1 580.77,-334.17"/>
</g>
<!-- Node49 -->
<g id="node22" class="node">
<title>Node49</title>
<g id="a_node22"><a xlink:href="../../d2/d36/vdsp_8h.html" target="_top" xlink:title=" ">
<polygon fill="none" stroke="black" points="900.5,-280.5 900.5,-299.5 949.5,-299.5 949.5,-280.5 900.5,-280.5"/>
<text text-anchor="middle" x="925" y="-287.5" font-family="Helvetica,sans-Serif" font-size="10.00">vdsp.h</text>
</a>
</g>
</g>
<!-- Node1&#45;&gt;Node49 -->
<g id="edge29" class="edge">
<title>Node1&#45;&gt;Node49</title>
<path fill="none" stroke="midnightblue" d="M581.49,-340.46C653.7,-334.12 782.4,-320.95 891,-300 894,-299.42 897.12,-298.73 900.21,-297.98"/>
<polygon fill="midnightblue" stroke="midnightblue" points="580.91,-337 571.25,-341.35 581.51,-343.98 580.91,-337"/>
</g>
<!-- Node4 -->
<g id="node4" class="node">
<title>Node4</title>
<g id="a_node4"><a xlink:href="../../d6/d68/vector_8h_source.html" target="_top" xlink:title=" ">
<polygon fill="none" stroke="black" points="143,-168.5 143,-187.5 199,-187.5 199,-168.5 143,-168.5"/>
<text text-anchor="middle" x="171" y="-175.5" font-family="Helvetica,sans-Serif" font-size="10.00">vector.h</text>
</a>
</g>
</g>
<!-- Node3&#45;&gt;Node4 -->
<g id="edge3" class="edge">
<title>Node3&#45;&gt;Node4</title>
<path fill="none" stroke="midnightblue" d="M109.87,-270.41C112.56,-256.84 117.48,-238.38 126,-224 134.67,-209.36 149.2,-196.05 159.39,-187.77"/>
<polygon fill="midnightblue" stroke="midnightblue" points="106.39,-270.01 108.11,-280.46 113.29,-271.22 106.39,-270.01"/>
</g>
<!-- Node3&#45;&gt;Node35 -->
<g id="edge8" class="edge">
<title>Node3&#45;&gt;Node35</title>
<path fill="none" stroke="midnightblue" d="M127.14,-274.1C140.28,-264.38 156.98,-252.03 168.06,-243.83"/>
<polygon fill="midnightblue" stroke="midnightblue" points="124.69,-271.56 118.73,-280.32 128.85,-277.19 124.69,-271.56"/>
</g>
<!-- Node36 -->
<g id="node8" class="node">
<title>Node36</title>
<g id="a_node8"><a xlink:href="../../d2/dd0/owned__vector_8h_source.html" target="_top" xlink:title=" ">
<polygon fill="none" stroke="black" points="28.5,-168.5 28.5,-187.5 121.5,-187.5 121.5,-168.5 28.5,-168.5"/>
<text text-anchor="middle" x="75" y="-175.5" font-family="Helvetica,sans-Serif" font-size="10.00">owned_vector.h</text>
</a>
</g>
</g>
<!-- Node3&#45;&gt;Node36 -->
<g id="edge10" class="edge">
<title>Node3&#45;&gt;Node36</title>
<path fill="none" stroke="midnightblue" d="M101.19,-270.79C98.62,-262.62 95.6,-252.84 93,-244 87.12,-224 80.72,-200.39 77.36,-187.86"/>
<polygon fill="midnightblue" stroke="midnightblue" points="97.88,-271.92 104.24,-280.4 104.55,-269.81 97.88,-271.92"/>
</g>
<!-- Node5 -->
<g id="node5" class="node">
<title>Node5</title>
<g id="a_node5"><a xlink:href="../../dd/d35/_f_i_f_o_8h_source.html" target="_top" xlink:title=" ">
<polygon fill="none" stroke="black" points="196,-112.5 196,-131.5 244,-131.5 244,-112.5 196,-112.5"/>
<text text-anchor="middle" x="220" y="-119.5" font-family="Helvetica,sans-Serif" font-size="10.00">FIFO.h</text>
</a>
</g>
</g>
<!-- Node4&#45;&gt;Node5 -->
<g id="edge4" class="edge">
<title>Node4&#45;&gt;Node5</title>
<path fill="none" stroke="midnightblue" d="M186.03,-160.43C194.62,-150.97 205.04,-139.48 212.06,-131.75"/>
<polygon fill="midnightblue" stroke="midnightblue" points="183.22,-158.33 179.09,-168.08 188.4,-163.03 183.22,-158.33"/>
</g>
<!-- Node6 -->
<g id="node6" class="node">
<title>Node6</title>
<g id="a_node6"><a xlink:href="../../d8/d1d/limes__data__structures_8h_source.html" target="_top" xlink:title=" ">
<polygon fill="none" stroke="red" points="68,-56.5 68,-75.5 202,-75.5 202,-56.5 68,-56.5"/>
<text text-anchor="middle" x="135" y="-63.5" font-family="Helvetica,sans-Serif" font-size="10.00">limes_data_structures.h</text>
</a>
</g>
</g>
<!-- Node4&#45;&gt;Node6 -->
<g id="edge7" class="edge">
<title>Node4&#45;&gt;Node6</title>
<path fill="none" stroke="midnightblue" d="M165,-158.67C157.13,-134.62 143.64,-93.39 137.81,-75.59"/>
<polygon fill="midnightblue" stroke="midnightblue" points="161.74,-159.95 168.18,-168.37 168.39,-157.78 161.74,-159.95"/>
</g>
<!-- Node5&#45;&gt;Node6 -->
<g id="edge5" class="edge">
<title>Node5&#45;&gt;Node6</title>
<path fill="none" stroke="midnightblue" d="M197.81,-106.9C182.22,-97 161.87,-84.07 148.62,-75.65"/>
<polygon fill="midnightblue" stroke="midnightblue" points="196.03,-109.92 206.34,-112.32 199.78,-104.01 196.03,-109.92"/>
</g>
<!-- Node6&#45;&gt;Node2 -->
<g id="edge6" class="edge">
<title>Node6&#45;&gt;Node2</title>
<path fill="none" stroke="midnightblue" d="M113.07,-50.9C97.66,-41 77.55,-28.07 64.46,-19.65"/>
<polygon fill="midnightblue" stroke="midnightblue" points="111.2,-53.86 121.5,-56.32 114.98,-47.97 111.2,-53.86"/>
</g>
<!-- Node35&#45;&gt;Node4 -->
<g id="edge9" class="edge">
<title>Node35&#45;&gt;Node4</title>
<path fill="none" stroke="midnightblue" d="M176.85,-214.1C175.36,-205.14 173.64,-194.86 172.46,-187.75"/>
<polygon fill="midnightblue" stroke="midnightblue" points="173.42,-214.79 178.51,-224.08 180.32,-213.64 173.42,-214.79"/>
</g>
<!-- Node36&#45;&gt;Node6 -->
<g id="edge11" class="edge">
<title>Node36&#45;&gt;Node6</title>
<path fill="none" stroke="midnightblue" d="M63.22,-159.64C55.55,-145.98 48.42,-126.85 57,-112 67.48,-93.86 88.36,-82.38 105.88,-75.56"/>
<polygon fill="midnightblue" stroke="midnightblue" points="60.45,-161.81 68.69,-168.47 66.4,-158.13 60.45,-161.81"/>
</g>
<!-- Node37 -->
<g id="node9" class="node">
<title>Node37</title>
<g id="a_node9"><a xlink:href="../../de/dc6/_linked_list_8h.html" target="_top" xlink:title=" ">
<polygon fill="none" stroke="black" points="66,-112.5 66,-131.5 140,-131.5 140,-112.5 66,-112.5"/>
<text text-anchor="middle" x="103" y="-119.5" font-family="Helvetica,sans-Serif" font-size="10.00">LinkedList.h</text>
</a>
</g>
</g>
<!-- Node36&#45;&gt;Node37 -->
<g id="edge12" class="edge">
<title>Node36&#45;&gt;Node37</title>
<path fill="none" stroke="midnightblue" d="M84.34,-158.98C89.09,-149.82 94.66,-139.09 98.46,-131.75"/>
<polygon fill="midnightblue" stroke="midnightblue" points="81.12,-157.59 79.62,-168.08 87.33,-160.82 81.12,-157.59"/>
</g>
<!-- Node37&#45;&gt;Node6 -->
<g id="edge13" class="edge">
<title>Node37&#45;&gt;Node6</title>
<path fill="none" stroke="midnightblue" d="M113.5,-103.27C118.97,-94.05 125.42,-83.17 129.81,-75.75"/>
<polygon fill="midnightblue" stroke="midnightblue" points="110.37,-101.7 108.28,-112.08 116.39,-105.26 110.37,-101.7"/>
</g>
<!-- Node39 -->
<g id="node11" class="node">
<title>Node39</title>
<g id="a_node11"><a xlink:href="../../d1/d4c/_linked_list_model_8h_source.html" target="_top" xlink:title=" ">
<polygon fill="none" stroke="black" points="220,-168.5 220,-187.5 324,-187.5 324,-168.5 220,-168.5"/>
<text text-anchor="middle" x="272" y="-175.5" font-family="Helvetica,sans-Serif" font-size="10.00">LinkedListModel.h</text>
</a>
</g>
</g>
<!-- Node38&#45;&gt;Node39 -->
<g id="edge16" class="edge">
<title>Node38&#45;&gt;Node39</title>
<path fill="none" stroke="midnightblue" d="M272,-270.35C272,-246.25 272,-205.31 272,-187.59"/>
<polygon fill="midnightblue" stroke="midnightblue" points="268.5,-270.37 272,-280.37 275.5,-270.37 268.5,-270.37"/>
</g>
<!-- Node39&#45;&gt;Node6 -->
<g id="edge17" class="edge">
<title>Node39&#45;&gt;Node6</title>
<path fill="none" stroke="midnightblue" d="M270.91,-158.06C269.13,-143.77 264.58,-124.54 253,-112 235.45,-92.99 209.01,-81.94 185.6,-75.56"/>
<polygon fill="midnightblue" stroke="midnightblue" points="267.44,-158.59 271.82,-168.24 274.42,-157.97 267.44,-158.59"/>
</g>
<!-- Node41 -->
<g id="node14" class="node">
<title>Node41</title>
<g id="a_node14"><a xlink:href="../../d9/d14/fallback__fft_8h.html" target="_top" xlink:title=" ">
<polygon fill="none" stroke="black" points="615,-224.5 615,-243.5 695,-243.5 695,-224.5 615,-224.5"/>
<text text-anchor="middle" x="655" y="-231.5" font-family="Helvetica,sans-Serif" font-size="10.00">fallback_fft.h</text>
</a>
</g>
</g>
<!-- Node40&#45;&gt;Node41 -->
<g id="edge20" class="edge">
<title>Node40&#45;&gt;Node41</title>
<path fill="none" stroke="midnightblue" d="M555.09,-276.5C579.46,-266.38 613.14,-252.39 634.5,-243.52"/>
<polygon fill="midnightblue" stroke="midnightblue" points="553.49,-273.38 545.6,-280.44 556.18,-279.84 553.49,-273.38"/>
</g>
<!-- Node42 -->
<g id="node15" class="node">
<title>Node42</title>
<g id="a_node15"><a xlink:href="../../dc/d24/fftw__fft_8h.html" target="_top" xlink:title=" ">
<polygon fill="none" stroke="black" points="379,-224.5 379,-243.5 439,-243.5 439,-224.5 379,-224.5"/>
<text text-anchor="middle" x="409" y="-231.5" font-family="Helvetica,sans-Serif" font-size="10.00">fftw_fft.h</text>
</a>
</g>
</g>
<!-- Node40&#45;&gt;Node42 -->
<g id="edge21" class="edge">
<title>Node40&#45;&gt;Node42</title>
<path fill="none" stroke="midnightblue" d="M497.28,-276.1C475.61,-266.01 446.1,-252.27 427.29,-243.52"/>
<polygon fill="midnightblue" stroke="midnightblue" points="496.08,-279.4 506.62,-280.44 499.03,-273.05 496.08,-279.4"/>
</g>
<!-- Node43 -->
<g id="node16" class="node">
<title>Node43</title>
<g id="a_node16"><a xlink:href="../../d3/d33/ipp__fft_8h.html" target="_top" xlink:title=" ">
<polygon fill="none" stroke="black" points="457,-224.5 457,-243.5 513,-243.5 513,-224.5 457,-224.5"/>
<text text-anchor="middle" x="485" y="-231.5" font-family="Helvetica,sans-Serif" font-size="10.00">ipp_fft.h</text>
</a>
</g>
</g>
<!-- Node40&#45;&gt;Node43 -->
<g id="edge22" class="edge">
<title>Node40&#45;&gt;Node43</title>
<path fill="none" stroke="midnightblue" d="M512.3,-271.86C505.37,-262.5 497.09,-251.33 491.48,-243.75"/>
<polygon fill="midnightblue" stroke="midnightblue" points="509.63,-274.13 518.39,-280.08 515.25,-269.96 509.63,-274.13"/>
</g>
<!-- Node44 -->
<g id="node17" class="node">
<title>Node44</title>
<g id="a_node17"><a xlink:href="../../d8/da3/vdsp__fft_8h.html" target="_top" xlink:title=" ">
<polygon fill="none" stroke="black" points="531.5,-224.5 531.5,-243.5 596.5,-243.5 596.5,-224.5 531.5,-224.5"/>
<text text-anchor="middle" x="564" y="-231.5" font-family="Helvetica,sans-Serif" font-size="10.00">vdsp_fft.h</text>
</a>
</g>
</g>
<!-- Node40&#45;&gt;Node44 -->
<g id="edge23" class="edge">
<title>Node40&#45;&gt;Node44</title>
<path fill="none" stroke="midnightblue" d="M537.38,-271.86C544.14,-262.5 552.21,-251.33 557.68,-243.75"/>
<polygon fill="midnightblue" stroke="midnightblue" points="534.46,-269.93 531.44,-280.08 540.13,-274.03 534.46,-269.93"/>
</g>
<!-- Node48&#45;&gt;Node48 -->
<g id="edge28" class="edge">
<title>Node48&#45;&gt;Node48</title>
<path fill="none" stroke="midnightblue" d="M867.67,-300.45C875.77,-300.01 882,-296.52 882,-290 882,-280.92 869.95,-277.73 857.56,-280.43"/>
<polygon fill="midnightblue" stroke="midnightblue" points="867.83,-296.95 857.56,-299.57 867.22,-303.93 867.83,-296.95"/>
</g>
</g>
</svg>
