<?xml version="1.0" encoding="UTF-8" standalone="no"?>
<!DOCTYPE svg PUBLIC "-//W3C//DTD SVG 1.1//EN"
 "http://www.w3.org/Graphics/SVG/1.1/DTD/svg11.dtd">
<!-- Generated by graphviz version 2.43.0 (0)
 -->
<!-- Title: limes::math::geometry::TwoDShape&lt; ValueType &gt; Pages: 1 -->
<svg width="338pt" height="333pt"
 viewBox="0.00 0.00 338.00 333.00" xmlns="http://www.w3.org/2000/svg" xmlns:xlink="http://www.w3.org/1999/xlink">
<g id="graph0" class="graph" transform="scale(1 1) rotate(0) translate(4 329)">
<title>limes::math::geometry::TwoDShape&lt; ValueType &gt;</title>
<!-- Node1 -->
<g id="node1" class="node">
<title>Node1</title>
<g id="a_node1"><a xlink:title="A base class for any kind of 2&#45;dimensional shape.">
<polygon fill="#bfbfbf" stroke="black" points="0,-147.5 0,-177.5 151,-177.5 151,-147.5 0,-147.5"/>
<text text-anchor="start" x="8" y="-165.5" font-family="Helvetica,sans-Serif" font-size="10.00">limes::math::geometry</text>
<text text-anchor="middle" x="75.5" y="-154.5" font-family="Helvetica,sans-Serif" font-size="10.00">::TwoDShape&lt; ValueType &gt;</text>
</a>
</g>
</g>
<!-- Node2 -->
<g id="node2" class="node">
<title>Node2</title>
<g id="a_node2"><a xlink:href="../../de/ddf/classlimes_1_1math_1_1geometry_1_1_circle.html" target="_top" xlink:title="Represents a circle.">
<polygon fill="none" stroke="black" points="194.5,-294.5 194.5,-324.5 322.5,-324.5 322.5,-294.5 194.5,-294.5"/>
<text text-anchor="start" x="202.5" y="-312.5" font-family="Helvetica,sans-Serif" font-size="10.00">limes::math::geometry</text>
<text text-anchor="middle" x="258.5" y="-301.5" font-family="Helvetica,sans-Serif" font-size="10.00">::Circle&lt; ValueType &gt;</text>
</a>
</g>
</g>
<!-- Node1&#45;&gt;Node2 -->
<g id="edge1" class="edge">
<title>Node1&#45;&gt;Node2</title>
<path fill="none" stroke="midnightblue" d="M91.87,-185.89C111.06,-213.39 146.36,-258.67 187,-285.5 192.18,-288.92 197.89,-291.9 203.76,-294.49"/>
<polygon fill="midnightblue" stroke="midnightblue" points="94.75,-183.91 86.21,-177.63 88.97,-187.86 94.75,-183.91"/>
</g>
<!-- Node3 -->
<g id="node3" class="node">
<title>Node3</title>
<g id="a_node3"><a xlink:href="../../d2/dac/classlimes_1_1math_1_1geometry_1_1_hexagon.html" target="_top" xlink:title="Represents a hexagon.">
<polygon fill="none" stroke="black" points="189.5,-245.5 189.5,-275.5 327.5,-275.5 327.5,-245.5 189.5,-245.5"/>
<text text-anchor="start" x="197.5" y="-263.5" font-family="Helvetica,sans-Serif" font-size="10.00">limes::math::geometry</text>
<text text-anchor="middle" x="258.5" y="-252.5" font-family="Helvetica,sans-Serif" font-size="10.00">::Hexagon&lt; ValueType &gt;</text>
</a>
</g>
</g>
<!-- Node1&#45;&gt;Node3 -->
<g id="edge2" class="edge">
<title>Node1&#45;&gt;Node3</title>
<path fill="none" stroke="midnightblue" d="M103.58,-183.58C125.24,-199.69 156.85,-221.6 187,-236.5 193.61,-239.77 200.77,-242.77 207.91,-245.46"/>
<polygon fill="midnightblue" stroke="midnightblue" points="105.61,-180.73 95.52,-177.5 101.4,-186.32 105.61,-180.73"/>
</g>
<!-- Node4 -->
<g id="node4" class="node">
<title>Node4</title>
<g id="a_node4"><a xlink:href="../../dd/d0b/classlimes_1_1math_1_1geometry_1_1_octagon.html" target="_top" xlink:title="Represents an octagon.">
<polygon fill="none" stroke="black" points="191,-196.5 191,-226.5 326,-226.5 326,-196.5 191,-196.5"/>
<text text-anchor="start" x="199" y="-214.5" font-family="Helvetica,sans-Serif" font-size="10.00">limes::math::geometry</text>
<text text-anchor="middle" x="258.5" y="-203.5" font-family="Helvetica,sans-Serif" font-size="10.00">::Octagon&lt; ValueType &gt;</text>
</a>
</g>
</g>
<!-- Node1&#45;&gt;Node4 -->
<g id="edge3" class="edge">
<title>Node1&#45;&gt;Node4</title>
<path fill="none" stroke="midnightblue" d="M142.06,-180.25C161.68,-185.56 182.99,-191.33 201.9,-196.45"/>
<polygon fill="midnightblue" stroke="midnightblue" points="142.85,-176.84 132.28,-177.6 141.02,-183.59 142.85,-176.84"/>
</g>
<!-- Node5 -->
<g id="node5" class="node">
<title>Node5</title>
<g id="a_node5"><a xlink:href="../../d4/d1e/classlimes_1_1math_1_1geometry_1_1_pentagon.html" target="_top" xlink:title="Represents a pentagon.">
<polygon fill="none" stroke="black" points="188.5,-147.5 188.5,-177.5 328.5,-177.5 328.5,-147.5 188.5,-147.5"/>
<text text-anchor="start" x="196.5" y="-165.5" font-family="Helvetica,sans-Serif" font-size="10.00">limes::math::geometry</text>
<text text-anchor="middle" x="258.5" y="-154.5" font-family="Helvetica,sans-Serif" font-size="10.00">::Pentagon&lt; ValueType &gt;</text>
</a>
</g>
</g>
<!-- Node1&#45;&gt;Node5 -->
<g id="edge4" class="edge">
<title>Node1&#45;&gt;Node5</title>
<path fill="none" stroke="midnightblue" d="M161.3,-162.5C170.32,-162.5 179.42,-162.5 188.24,-162.5"/>
<polygon fill="midnightblue" stroke="midnightblue" points="161.16,-159 151.16,-162.5 161.16,-166 161.16,-159"/>
</g>
<!-- Node6 -->
<g id="node6" class="node">
<title>Node6</title>
<g id="a_node6"><a xlink:href="../../d6/d5b/classlimes_1_1math_1_1geometry_1_1_rectangle.html" target="_top" xlink:title="Represents a rectangle.">
<polygon fill="none" stroke="black" points="187,-98.5 187,-128.5 330,-128.5 330,-98.5 187,-98.5"/>
<text text-anchor="start" x="195" y="-116.5" font-family="Helvetica,sans-Serif" font-size="10.00">limes::math::geometry</text>
<text text-anchor="middle" x="258.5" y="-105.5" font-family="Helvetica,sans-Serif" font-size="10.00">::Rectangle&lt; ValueType &gt;</text>
</a>
</g>
</g>
<!-- Node1&#45;&gt;Node6 -->
<g id="edge5" class="edge">
<title>Node1&#45;&gt;Node6</title>
<path fill="none" stroke="midnightblue" d="M142.06,-144.75C161.68,-139.44 182.99,-133.67 201.9,-128.55"/>
<polygon fill="midnightblue" stroke="midnightblue" points="141.02,-141.41 132.28,-147.4 142.85,-148.16 141.02,-141.41"/>
</g>
<!-- Node7 -->
<g id="node7" class="node">
<title>Node7</title>
<g id="a_node7"><a xlink:href="../../d6/db8/classlimes_1_1math_1_1geometry_1_1_square.html" target="_top" xlink:title="Represents a square.">
<polygon fill="none" stroke="black" points="194.5,-49.5 194.5,-79.5 322.5,-79.5 322.5,-49.5 194.5,-49.5"/>
<text text-anchor="start" x="202.5" y="-67.5" font-family="Helvetica,sans-Serif" font-size="10.00">limes::math::geometry</text>
<text text-anchor="middle" x="258.5" y="-56.5" font-family="Helvetica,sans-Serif" font-size="10.00">::Square&lt; ValueType &gt;</text>
</a>
</g>
</g>
<!-- Node1&#45;&gt;Node7 -->
<g id="edge6" class="edge">
<title>Node1&#45;&gt;Node7</title>
<path fill="none" stroke="midnightblue" d="M104.47,-141.25C126.15,-125.49 157.39,-104.26 187,-89.5 194.21,-85.91 202.06,-82.59 209.82,-79.62"/>
<polygon fill="midnightblue" stroke="midnightblue" points="102.35,-138.47 96.37,-147.22 106.5,-144.11 102.35,-138.47"/>
</g>
<!-- Node8 -->
<g id="node8" class="node">
<title>Node8</title>
<g id="a_node8"><a xlink:href="../../db/df4/classlimes_1_1math_1_1geometry_1_1_triangle.html" target="_top" xlink:title="Represents a triangle.">
<polygon fill="none" stroke="black" points="192,-0.5 192,-30.5 325,-30.5 325,-0.5 192,-0.5"/>
<text text-anchor="start" x="200" y="-18.5" font-family="Helvetica,sans-Serif" font-size="10.00">limes::math::geometry</text>
<text text-anchor="middle" x="258.5" y="-7.5" font-family="Helvetica,sans-Serif" font-size="10.00">::Triangle&lt; ValueType &gt;</text>
</a>
</g>
</g>
<!-- Node1&#45;&gt;Node8 -->
<g id="edge7" class="edge">
<title>Node1&#45;&gt;Node8</title>
<path fill="none" stroke="midnightblue" d="M92.53,-138.6C111.94,-111.35 147.05,-67.12 187,-40.5 192.73,-36.68 199.11,-33.38 205.62,-30.53"/>
<polygon fill="midnightblue" stroke="midnightblue" points="89.42,-136.94 86.56,-147.15 95.16,-140.95 89.42,-136.94"/>
</g>
</g>
</svg>
