<?xml version="1.0" encoding="UTF-8" standalone="no"?>
<!DOCTYPE svg PUBLIC "-//W3C//DTD SVG 1.1//EN"
 "http://www.w3.org/Graphics/SVG/1.1/DTD/svg11.dtd">
<!-- Generated by graphviz version 2.43.0 (0)
 -->
<!-- Title: time_impl.h Pages: 1 -->
<svg width="139pt" height="252pt"
 viewBox="0.00 0.00 139.00 252.00" xmlns="http://www.w3.org/2000/svg" xmlns:xlink="http://www.w3.org/1999/xlink">
<g id="graph0" class="graph" transform="scale(1 1) rotate(0) translate(4 248)">
<title>time_impl.h</title>
<!-- Node1 -->
<g id="node1" class="node">
<title>Node1</title>
<g id="a_node1"><a xlink:title=" ">
<polygon fill="#bfbfbf" stroke="black" points="54,-224.5 54,-243.5 129,-243.5 129,-224.5 54,-224.5"/>
<text text-anchor="middle" x="91.5" y="-231.5" font-family="Helvetica,sans-Serif" font-size="10.00">time_impl.h</text>
</a>
</g>
</g>
<!-- Node2 -->
<g id="node2" class="node">
<title>Node2</title>
<g id="a_node2"><a xlink:href="../../de/df7/time_8h.html" target="_top" xlink:title=" ">
<polygon fill="none" stroke="black" points="67.5,-168.5 67.5,-187.5 115.5,-187.5 115.5,-168.5 67.5,-168.5"/>
<text text-anchor="middle" x="91.5" y="-175.5" font-family="Helvetica,sans-Serif" font-size="10.00">time.h</text>
</a>
</g>
</g>
<!-- Node1&#45;&gt;Node2 -->
<g id="edge1" class="edge">
<title>Node1&#45;&gt;Node2</title>
<path fill="none" stroke="midnightblue" d="M91.5,-213.8C91.5,-204.91 91.5,-194.78 91.5,-187.75"/>
<polygon fill="midnightblue" stroke="midnightblue" points="88,-214.08 91.5,-224.08 95,-214.08 88,-214.08"/>
</g>
<!-- Node3 -->
<g id="node3" class="node">
<title>Node3</title>
<g id="a_node3"><a xlink:href="../../df/da8/_date_time_8h.html" target="_top" xlink:title=" ">
<polygon fill="none" stroke="black" points="22.5,-112.5 22.5,-131.5 96.5,-131.5 96.5,-112.5 22.5,-112.5"/>
<text text-anchor="middle" x="59.5" y="-119.5" font-family="Helvetica,sans-Serif" font-size="10.00">DateTime.h</text>
</a>
</g>
</g>
<!-- Node2&#45;&gt;Node3 -->
<g id="edge2" class="edge">
<title>Node2&#45;&gt;Node3</title>
<path fill="none" stroke="midnightblue" d="M81,-159.27C75.53,-150.05 69.08,-139.17 64.69,-131.75"/>
<polygon fill="midnightblue" stroke="midnightblue" points="78.11,-161.26 86.22,-168.08 84.13,-157.7 78.11,-161.26"/>
</g>
<!-- Node8 -->
<g id="node5" class="node">
<title>Node8</title>
<g id="a_node5"><a xlink:href="../../d9/df8/limes__core_8h.html" target="_top" xlink:title=" ">
<polygon fill="none" stroke="red" points="52,-0.5 52,-19.5 131,-19.5 131,-0.5 52,-0.5"/>
<text text-anchor="middle" x="91.5" y="-7.5" font-family="Helvetica,sans-Serif" font-size="10.00">limes_core.h</text>
</a>
</g>
</g>
<!-- Node2&#45;&gt;Node8 -->
<g id="edge5" class="edge">
<title>Node2&#45;&gt;Node8</title>
<path fill="none" stroke="midnightblue" d="M99.01,-158.98C107.9,-135.25 120.55,-92.28 112.5,-56 109.51,-42.53 102.06,-28.32 96.88,-19.56"/>
<polygon fill="midnightblue" stroke="midnightblue" points="95.69,-157.85 95.28,-168.44 102.2,-160.42 95.69,-157.85"/>
</g>
<!-- Node4 -->
<g id="node4" class="node">
<title>Node4</title>
<g id="a_node4"><a xlink:href="../../d2/d83/_filesystem_entry_8h.html" target="_top" xlink:title=" ">
<polygon fill="none" stroke="red" points="0,-56.5 0,-75.5 103,-75.5 103,-56.5 0,-56.5"/>
<text text-anchor="middle" x="51.5" y="-63.5" font-family="Helvetica,sans-Serif" font-size="10.00">FilesystemEntry.h</text>
</a>
</g>
</g>
<!-- Node3&#45;&gt;Node4 -->
<g id="edge3" class="edge">
<title>Node3&#45;&gt;Node4</title>
<path fill="none" stroke="midnightblue" d="M56.7,-102.1C55.37,-93.14 53.85,-82.86 52.8,-75.75"/>
<polygon fill="midnightblue" stroke="midnightblue" points="53.25,-102.7 58.18,-112.08 60.18,-101.68 53.25,-102.7"/>
</g>
<!-- Node4&#45;&gt;Node8 -->
<g id="edge4" class="edge">
<title>Node4&#45;&gt;Node8</title>
<path fill="none" stroke="midnightblue" d="M64.2,-47.86C71.13,-38.5 79.41,-27.33 85.02,-19.75"/>
<polygon fill="midnightblue" stroke="midnightblue" points="61.25,-45.96 58.11,-56.08 66.87,-50.13 61.25,-45.96"/>
</g>
</g>
</svg>
