<?xml version="1.0" encoding="UTF-8" standalone="no"?>
<!DOCTYPE svg PUBLIC "-//W3C//DTD SVG 1.1//EN"
 "http://www.w3.org/Graphics/SVG/1.1/DTD/svg11.dtd">
<!-- Generated by graphviz version 2.43.0 (0)
 -->
<!-- Title: Octatonic.h Pages: 1 -->
<svg width="1456pt" height="308pt"
 viewBox="0.00 0.00 1456.00 308.00" xmlns="http://www.w3.org/2000/svg" xmlns:xlink="http://www.w3.org/1999/xlink">
<g id="graph0" class="graph" transform="scale(1 1) rotate(0) translate(4 304)">
<title>Octatonic.h</title>
<!-- Node1 -->
<g id="node1" class="node">
<title>Node1</title>
<g id="a_node1"><a xlink:title=" ">
<polygon fill="#bfbfbf" stroke="black" points="512,-280.5 512,-299.5 584,-299.5 584,-280.5 512,-280.5"/>
<text text-anchor="middle" x="548" y="-287.5" font-family="Helvetica,sans-Serif" font-size="10.00">Octatonic.h</text>
</a>
</g>
</g>
<!-- Node2 -->
<g id="node2" class="node">
<title>Node2</title>
<g id="a_node2"><a xlink:title=" ">
<polygon fill="none" stroke="#bfbfbf" points="339.5,-0.5 339.5,-19.5 428.5,-19.5 428.5,-0.5 339.5,-0.5"/>
<text text-anchor="middle" x="384" y="-7.5" font-family="Helvetica,sans-Serif" font-size="10.00">limes_export.h</text>
</a>
</g>
</g>
<!-- Node1&#45;&gt;Node2 -->
<g id="edge1" class="edge">
<title>Node1&#45;&gt;Node2</title>
<path fill="none" stroke="midnightblue" d="M511.62,-289.46C389.23,-290.05 0,-283.68 0,-179 0,-179 0,-179 0,-121 0,-75.19 38.07,-74.46 80,-56 161.76,-20.01 266.61,-11.85 329.37,-10.51"/>
<polygon fill="midnightblue" stroke="midnightblue" points="329.51,-14.01 339.45,-10.35 329.4,-7.01 329.51,-14.01"/>
</g>
<!-- Node3 -->
<g id="node3" class="node">
<title>Node3</title>
<g id="a_node3"><a xlink:href="../../d4/d81/_scale_8h.html" target="_top" xlink:title=" ">
<polygon fill="none" stroke="black" points="495,-224.5 495,-243.5 547,-243.5 547,-224.5 495,-224.5"/>
<text text-anchor="middle" x="521" y="-231.5" font-family="Helvetica,sans-Serif" font-size="10.00">Scale.h</text>
</a>
</g>
</g>
<!-- Node1&#45;&gt;Node3 -->
<g id="edge2" class="edge">
<title>Node1&#45;&gt;Node3</title>
<path fill="none" stroke="midnightblue" d="M543.54,-280.08C539.85,-272.69 534.48,-261.95 529.91,-252.81"/>
<polygon fill="midnightblue" stroke="midnightblue" points="532.98,-251.13 525.38,-243.75 526.72,-254.26 532.98,-251.13"/>
</g>
<!-- Node5 -->
<g id="node5" class="node">
<title>Node5</title>
<g id="a_node5"><a xlink:href="../../d4/dc3/_pitch_class_8h.html" target="_top" xlink:title=" ">
<polygon fill="none" stroke="red" points="280,-56.5 280,-75.5 356,-75.5 356,-56.5 280,-56.5"/>
<text text-anchor="middle" x="318" y="-63.5" font-family="Helvetica,sans-Serif" font-size="10.00">PitchClass.h</text>
</a>
</g>
</g>
<!-- Node1&#45;&gt;Node5 -->
<g id="edge49" class="edge">
<title>Node1&#45;&gt;Node5</title>
<path fill="none" stroke="midnightblue" d="M526.24,-280.43C481.28,-261.42 378.58,-211.07 334,-132 325.88,-117.61 321.85,-99.15 319.86,-85.58"/>
<polygon fill="midnightblue" stroke="midnightblue" points="323.32,-85.04 318.63,-75.54 316.37,-85.89 323.32,-85.04"/>
</g>
<!-- Node7 -->
<g id="node6" class="node">
<title>Node7</title>
<g id="a_node6"><a xlink:href="../../da/d0b/limes__namespace_8h.html" target="_top" xlink:title=" ">
<polygon fill="none" stroke="black" points="680,-0.5 680,-19.5 794,-19.5 794,-0.5 680,-0.5"/>
<text text-anchor="middle" x="737" y="-7.5" font-family="Helvetica,sans-Serif" font-size="10.00">limes_namespace.h</text>
</a>
</g>
</g>
<!-- Node1&#45;&gt;Node7 -->
<g id="edge51" class="edge">
<title>Node1&#45;&gt;Node7</title>
<path fill="none" stroke="midnightblue" d="M584.07,-287.81C738.25,-282.24 1334,-255.77 1334,-179 1334,-179 1334,-179 1334,-121 1334,-90.9 1338.36,-74.97 1315,-56 1295.44,-40.11 952.59,-21.54 804.36,-14.21"/>
<polygon fill="midnightblue" stroke="midnightblue" points="804.2,-10.69 794.04,-13.7 803.85,-17.68 804.2,-10.69"/>
</g>
<!-- Node8 -->
<g id="node7" class="node">
<title>Node8</title>
<g id="a_node7"><a xlink:href="../../d9/df8/limes__core_8h.html" target="_top" xlink:title=" ">
<polygon fill="none" stroke="red" points="1019.5,-0.5 1019.5,-19.5 1098.5,-19.5 1098.5,-0.5 1019.5,-0.5"/>
<text text-anchor="middle" x="1059" y="-7.5" font-family="Helvetica,sans-Serif" font-size="10.00">limes_core.h</text>
</a>
</g>
</g>
<!-- Node1&#45;&gt;Node8 -->
<g id="edge52" class="edge">
<title>Node1&#45;&gt;Node8</title>
<path fill="none" stroke="midnightblue" d="M584.12,-288.45C752,-285.44 1448,-267.59 1448,-179 1448,-179 1448,-179 1448,-121 1448,-51.3 1213.8,-23.54 1108.84,-14.59"/>
<polygon fill="midnightblue" stroke="midnightblue" points="1109.06,-11.1 1098.8,-13.76 1108.48,-18.08 1109.06,-11.1"/>
</g>
<!-- Node130 -->
<g id="node9" class="node">
<title>Node130</title>
<g id="a_node9"><a xlink:href="../../d8/d1d/limes__data__structures_8h_source.html" target="_top" xlink:title=" ">
<polygon fill="none" stroke="black" points="726,-168.5 726,-187.5 860,-187.5 860,-168.5 726,-168.5"/>
<text text-anchor="middle" x="793" y="-175.5" font-family="Helvetica,sans-Serif" font-size="10.00">limes_data_structures.h</text>
</a>
</g>
</g>
<!-- Node1&#45;&gt;Node130 -->
<g id="edge50" class="edge">
<title>Node1&#45;&gt;Node130</title>
<path fill="none" stroke="midnightblue" d="M567.22,-280.37C610.16,-261.09 714.04,-214.45 764.51,-191.79"/>
<polygon fill="midnightblue" stroke="midnightblue" points="766.18,-194.88 773.86,-187.59 763.31,-188.49 766.18,-194.88"/>
</g>
<!-- Node3&#45;&gt;Node2 -->
<g id="edge3" class="edge">
<title>Node3&#45;&gt;Node2</title>
<path fill="none" stroke="midnightblue" d="M494.74,-230.04C431.82,-222.1 268.87,-196.36 150,-132 117.06,-114.16 102.35,-110.18 87,-76 83.36,-67.89 81.2,-62.74 87,-56 117.63,-20.38 252.24,-12.61 329.31,-11.13"/>
<polygon fill="midnightblue" stroke="midnightblue" points="329.39,-14.63 339.33,-10.97 329.27,-7.63 329.39,-14.63"/>
</g>
<!-- Node4 -->
<g id="node4" class="node">
<title>Node4</title>
<g id="a_node4"><a xlink:href="../../db/ddf/_pitch_8h.html" target="_top" xlink:title=" ">
<polygon fill="none" stroke="black" points="439.5,-168.5 439.5,-187.5 498.5,-187.5 498.5,-168.5 439.5,-168.5"/>
<text text-anchor="middle" x="469" y="-175.5" font-family="Helvetica,sans-Serif" font-size="10.00">../Pitch.h</text>
</a>
</g>
</g>
<!-- Node3&#45;&gt;Node4 -->
<g id="edge4" class="edge">
<title>Node3&#45;&gt;Node4</title>
<path fill="none" stroke="midnightblue" d="M512.41,-224.08C504.84,-216.22 493.62,-204.57 484.49,-195.08"/>
<polygon fill="midnightblue" stroke="midnightblue" points="486.88,-192.53 477.43,-187.75 481.84,-197.38 486.88,-192.53"/>
</g>
<!-- Node3&#45;&gt;Node5 -->
<g id="edge17" class="edge">
<title>Node3&#45;&gt;Node5</title>
<path fill="none" stroke="midnightblue" d="M497.36,-224.42C461.45,-210.31 393.04,-178.98 352,-132 339.85,-118.09 330.55,-99.08 324.78,-85.21"/>
<polygon fill="midnightblue" stroke="midnightblue" points="327.98,-83.8 321.06,-75.78 321.47,-86.36 327.98,-83.8"/>
</g>
<!-- Node3&#45;&gt;Node7 -->
<g id="edge48" class="edge">
<title>Node3&#45;&gt;Node7</title>
<path fill="none" stroke="midnightblue" d="M521.96,-224.15C525.54,-195.46 540.75,-104.06 593,-56 614.02,-36.66 643.27,-25.63 669.92,-19.34"/>
<polygon fill="midnightblue" stroke="midnightblue" points="670.95,-22.7 679.98,-17.16 669.47,-15.86 670.95,-22.7"/>
</g>
<!-- Node3&#45;&gt;Node130 -->
<g id="edge18" class="edge">
<title>Node3&#45;&gt;Node130</title>
<path fill="none" stroke="midnightblue" d="M547.08,-227.82C591.36,-219.03 682.07,-201.02 740.08,-189.51"/>
<polygon fill="midnightblue" stroke="midnightblue" points="741.03,-192.89 750.16,-187.5 739.67,-186.02 741.03,-192.89"/>
</g>
<!-- Node4&#45;&gt;Node2 -->
<g id="edge14" class="edge">
<title>Node4&#45;&gt;Node2</title>
<path fill="none" stroke="midnightblue" d="M439.26,-173.57C358.38,-163.58 137.58,-131.6 95,-76 89.6,-68.94 89.22,-62.75 95,-56 124.53,-21.51 253.84,-13.25 329.11,-11.4"/>
<polygon fill="midnightblue" stroke="midnightblue" points="329.43,-14.89 339.36,-11.18 329.28,-7.9 329.43,-14.89"/>
</g>
<!-- Node4&#45;&gt;Node5 -->
<g id="edge5" class="edge">
<title>Node4&#45;&gt;Node5</title>
<path fill="none" stroke="midnightblue" d="M445.71,-168.48C426.24,-160.72 398.32,-148.02 377,-132 358.61,-118.18 341.39,-98.06 330.36,-83.88"/>
<polygon fill="midnightblue" stroke="midnightblue" points="332.88,-81.4 324.06,-75.54 327.3,-85.62 332.88,-81.4"/>
</g>
<!-- Node4&#45;&gt;Node7 -->
<g id="edge15" class="edge">
<title>Node4&#45;&gt;Node7</title>
<path fill="none" stroke="midnightblue" d="M472.9,-168.39C483.47,-146.07 514.93,-86.01 560,-56 592.43,-34.41 634.5,-23.18 669.49,-17.33"/>
<polygon fill="midnightblue" stroke="midnightblue" points="670.29,-20.75 679.63,-15.76 669.21,-13.83 670.29,-20.75"/>
</g>
<!-- Node4&#45;&gt;Node8 -->
<g id="edge16" class="edge">
<title>Node4&#45;&gt;Node8</title>
<path fill="none" stroke="midnightblue" d="M498.75,-176.12C614.65,-172.51 1035.95,-157.87 1167,-132 1243.39,-116.92 1287.59,-139.25 1333,-76 1338.18,-68.78 1338.75,-62.78 1333,-56 1304.78,-22.77 1179.68,-14.03 1108.67,-11.77"/>
<polygon fill="midnightblue" stroke="midnightblue" points="1108.7,-8.27 1098.61,-11.48 1108.5,-15.26 1108.7,-8.27"/>
</g>
<!-- Node129 -->
<g id="node8" class="node">
<title>Node129</title>
<g id="a_node8"><a xlink:href="../../d5/d5b/_pitch_utils_8h.html" target="_top" xlink:title=" ">
<polygon fill="none" stroke="red" points="386,-112.5 386,-131.5 458,-131.5 458,-112.5 386,-112.5"/>
<text text-anchor="middle" x="422" y="-119.5" font-family="Helvetica,sans-Serif" font-size="10.00">PitchUtils.h</text>
</a>
</g>
</g>
<!-- Node4&#45;&gt;Node129 -->
<g id="edge9" class="edge">
<title>Node4&#45;&gt;Node129</title>
<path fill="none" stroke="midnightblue" d="M461.24,-168.08C454.46,-160.3 444.46,-148.8 436.24,-139.37"/>
<polygon fill="midnightblue" stroke="midnightblue" points="438.82,-137 429.62,-131.75 433.54,-141.59 438.82,-137"/>
</g>
<!-- Node5&#45;&gt;Node2 -->
<g id="edge6" class="edge">
<title>Node5&#45;&gt;Node2</title>
<path fill="none" stroke="midnightblue" d="M328.6,-56.32C338.46,-48.26 353.35,-36.08 365.22,-26.37"/>
<polygon fill="midnightblue" stroke="midnightblue" points="367.68,-28.88 373.2,-19.83 363.25,-23.46 367.68,-28.88"/>
</g>
<!-- Node5&#45;&gt;Node7 -->
<g id="edge7" class="edge">
<title>Node5&#45;&gt;Node7</title>
<path fill="none" stroke="midnightblue" d="M356.29,-60.06C427.49,-50.89 581.05,-31.1 669.85,-19.65"/>
<polygon fill="midnightblue" stroke="midnightblue" points="670.35,-23.12 679.82,-18.37 669.46,-16.18 670.35,-23.12"/>
</g>
<!-- Node5&#45;&gt;Node8 -->
<g id="edge8" class="edge">
<title>Node5&#45;&gt;Node8</title>
<path fill="none" stroke="midnightblue" d="M356.02,-62.23C479.49,-53.23 869.24,-24.83 1008.73,-14.66"/>
<polygon fill="midnightblue" stroke="midnightblue" points="1009.4,-18.12 1019.12,-13.91 1008.89,-11.14 1009.4,-18.12"/>
</g>
<!-- Node129&#45;&gt;Node2 -->
<g id="edge12" class="edge">
<title>Node129&#45;&gt;Node2</title>
<path fill="none" stroke="midnightblue" d="M419.02,-112.37C412.86,-94.54 398.61,-53.3 390.31,-29.27"/>
<polygon fill="midnightblue" stroke="midnightblue" points="393.54,-27.9 386.97,-19.59 386.93,-30.19 393.54,-27.9"/>
</g>
<!-- Node129&#45;&gt;Node5 -->
<g id="edge10" class="edge">
<title>Node129&#45;&gt;Node5</title>
<path fill="none" stroke="midnightblue" d="M405.29,-112.32C388.69,-103.7 363,-90.36 343.78,-80.39"/>
<polygon fill="midnightblue" stroke="midnightblue" points="345.16,-77.16 334.67,-75.65 341.93,-83.37 345.16,-77.16"/>
</g>
<!-- Node129&#45;&gt;Node7 -->
<g id="edge13" class="edge">
<title>Node129&#45;&gt;Node7</title>
<path fill="none" stroke="midnightblue" d="M432.36,-112.37C449.74,-98.35 486.4,-70.69 522,-56 569.32,-36.47 626.13,-25.05 669.47,-18.6"/>
<polygon fill="midnightblue" stroke="midnightblue" points="670.22,-22.03 679.62,-17.15 669.22,-15.1 670.22,-22.03"/>
</g>
<!-- Node129&#45;&gt;Node8 -->
<g id="edge11" class="edge">
<title>Node129&#45;&gt;Node8</title>
<path fill="none" stroke="midnightblue" d="M458.18,-120.32C563.39,-117.96 867.65,-108.44 961,-76 969.41,-73.08 1011.86,-43.96 1038.05,-25.7"/>
<polygon fill="midnightblue" stroke="midnightblue" points="1040.37,-28.35 1046.56,-19.76 1036.36,-22.62 1040.37,-28.35"/>
</g>
<!-- Node131 -->
<g id="node10" class="node">
<title>Node131</title>
<g id="a_node10"><a xlink:href="../../d6/d68/vector_8h_source.html" target="_top" xlink:title=" ">
<polygon fill="none" stroke="red" points="1210.5,-56.5 1210.5,-75.5 1305.5,-75.5 1305.5,-56.5 1210.5,-56.5"/>
<text text-anchor="middle" x="1258" y="-63.5" font-family="Helvetica,sans-Serif" font-size="10.00">vectors/vector.h</text>
</a>
</g>
</g>
<!-- Node130&#45;&gt;Node131 -->
<g id="edge19" class="edge">
<title>Node130&#45;&gt;Node131</title>
<path fill="none" stroke="midnightblue" d="M860.11,-172.93C952.22,-166.66 1112.58,-153.11 1167,-132 1196.24,-120.66 1224.82,-97.74 1241.92,-82.38"/>
<polygon fill="midnightblue" stroke="midnightblue" points="1244.37,-84.88 1249.35,-75.53 1239.63,-79.74 1244.37,-84.88"/>
</g>
<!-- Node136 -->
<g id="node11" class="node">
<title>Node136</title>
<g id="a_node11"><a xlink:href="../../d2/dd0/owned__vector_8h_source.html" target="_top" xlink:title=" ">
<polygon fill="none" stroke="red" points="820,-56.5 820,-75.5 952,-75.5 952,-56.5 820,-56.5"/>
<text text-anchor="middle" x="886" y="-63.5" font-family="Helvetica,sans-Serif" font-size="10.00">vectors/owned_vector.h</text>
</a>
</g>
</g>
<!-- Node130&#45;&gt;Node136 -->
<g id="edge22" class="edge">
<title>Node130&#45;&gt;Node136</title>
<path fill="none" stroke="midnightblue" d="M815.16,-168.43C831.42,-161.08 852.88,-148.96 866,-132 876.37,-118.59 881.4,-99.77 883.82,-85.83"/>
<polygon fill="midnightblue" stroke="midnightblue" points="887.29,-86.29 885.25,-75.89 880.36,-85.29 887.29,-86.29"/>
</g>
<!-- Node137 -->
<g id="node12" class="node">
<title>Node137</title>
<g id="a_node12"><a xlink:href="../../d0/dd0/_dimensions_8h_source.html" target="_top" xlink:title=" ">
<polygon fill="none" stroke="red" points="602,-56.5 602,-75.5 764,-75.5 764,-56.5 602,-56.5"/>
<text text-anchor="middle" x="683" y="-63.5" font-family="Helvetica,sans-Serif" font-size="10.00">data_structures/Dimensions.h</text>
</a>
</g>
</g>
<!-- Node130&#45;&gt;Node137 -->
<g id="edge26" class="edge">
<title>Node130&#45;&gt;Node137</title>
<path fill="none" stroke="midnightblue" d="M774.11,-168.4C758.47,-160.59 736.4,-147.86 721,-132 707.79,-118.4 697.36,-99.35 690.79,-85.38"/>
<polygon fill="midnightblue" stroke="midnightblue" points="693.81,-83.58 686.54,-75.87 687.42,-86.43 693.81,-83.58"/>
</g>
<!-- Node138 -->
<g id="node13" class="node">
<title>Node138</title>
<g id="a_node13"><a xlink:href="../../d1/d4c/_linked_list_model_8h_source.html" target="_top" xlink:title=" ">
<polygon fill="none" stroke="red" points="104.5,-56.5 104.5,-75.5 261.5,-75.5 261.5,-56.5 104.5,-56.5"/>
<text text-anchor="middle" x="183" y="-63.5" font-family="Helvetica,sans-Serif" font-size="10.00">linked_list/LinkedListModel.h</text>
</a>
</g>
</g>
<!-- Node130&#45;&gt;Node138 -->
<g id="edge30" class="edge">
<title>Node130&#45;&gt;Node138</title>
<path fill="none" stroke="midnightblue" d="M725.64,-174.18C642.77,-169.69 498.17,-158.53 377,-132 317.44,-118.96 250.52,-94.18 212.9,-79.27"/>
<polygon fill="midnightblue" stroke="midnightblue" points="214.13,-75.99 203.54,-75.52 211.53,-82.49 214.13,-75.99"/>
</g>
<!-- Node140 -->
<g id="node14" class="node">
<title>Node140</title>
<g id="a_node14"><a xlink:href="../../de/dc6/_linked_list_8h.html" target="_top" xlink:title=" ">
<polygon fill="none" stroke="red" points="729.5,-112.5 729.5,-131.5 856.5,-131.5 856.5,-112.5 729.5,-112.5"/>
<text text-anchor="middle" x="793" y="-119.5" font-family="Helvetica,sans-Serif" font-size="10.00">linked_list/LinkedList.h</text>
</a>
</g>
</g>
<!-- Node130&#45;&gt;Node140 -->
<g id="edge33" class="edge">
<title>Node130&#45;&gt;Node140</title>
<path fill="none" stroke="midnightblue" d="M793,-168.08C793,-161.01 793,-150.86 793,-141.99"/>
<polygon fill="midnightblue" stroke="midnightblue" points="796.5,-141.75 793,-131.75 789.5,-141.75 796.5,-141.75"/>
</g>
<!-- Node142 -->
<g id="node15" class="node">
<title>Node142</title>
<g id="a_node15"><a xlink:href="../../d9/daa/_abstract_f_i_f_o_8h_source.html" target="_top" xlink:title=" ">
<polygon fill="none" stroke="red" points="1046.5,-56.5 1046.5,-75.5 1153.5,-75.5 1153.5,-56.5 1046.5,-56.5"/>
<text text-anchor="middle" x="1100" y="-63.5" font-family="Helvetica,sans-Serif" font-size="10.00">fifo/AbstractFIFO.h</text>
</a>
</g>
</g>
<!-- Node130&#45;&gt;Node142 -->
<g id="edge38" class="edge">
<title>Node130&#45;&gt;Node142</title>
<path fill="none" stroke="midnightblue" d="M816.83,-168.46C871.02,-149.05 1003.57,-101.55 1066.19,-79.12"/>
<polygon fill="midnightblue" stroke="midnightblue" points="1067.74,-82.28 1075.97,-75.61 1065.37,-75.69 1067.74,-82.28"/>
</g>
<!-- Node143 -->
<g id="node16" class="node">
<title>Node143</title>
<g id="a_node16"><a xlink:href="../../dd/d35/_f_i_f_o_8h_source.html" target="_top" xlink:title=" ">
<polygon fill="none" stroke="red" points="1090.5,-112.5 1090.5,-131.5 1157.5,-131.5 1157.5,-112.5 1090.5,-112.5"/>
<text text-anchor="middle" x="1124" y="-119.5" font-family="Helvetica,sans-Serif" font-size="10.00">fifo/FIFO.h</text>
</a>
</g>
</g>
<!-- Node130&#45;&gt;Node143 -->
<g id="edge42" class="edge">
<title>Node130&#45;&gt;Node143</title>
<path fill="none" stroke="midnightblue" d="M845.45,-168.44C910.41,-157.84 1019.9,-139.98 1080.45,-130.1"/>
<polygon fill="midnightblue" stroke="midnightblue" points="1081.14,-133.54 1090.45,-128.47 1080.02,-126.63 1081.14,-133.54"/>
</g>
<!-- Node131&#45;&gt;Node7 -->
<g id="edge20" class="edge">
<title>Node131&#45;&gt;Node7</title>
<path fill="none" stroke="midnightblue" d="M1210.3,-57.85C1205.48,-57.19 1200.64,-56.56 1196,-56 1057.09,-39.12 893.93,-24.31 804.36,-16.62"/>
<polygon fill="midnightblue" stroke="midnightblue" points="804.6,-13.13 794.34,-15.76 804,-20.1 804.6,-13.13"/>
</g>
<!-- Node131&#45;&gt;Node8 -->
<g id="edge21" class="edge">
<title>Node131&#45;&gt;Node8</title>
<path fill="none" stroke="midnightblue" d="M1226.47,-56.44C1192.41,-47.2 1137.99,-32.44 1100.48,-22.26"/>
<polygon fill="midnightblue" stroke="midnightblue" points="1100.95,-18.76 1090.38,-19.52 1099.12,-25.51 1100.95,-18.76"/>
</g>
<!-- Node136&#45;&gt;Node2 -->
<g id="edge23" class="edge">
<title>Node136&#45;&gt;Node2</title>
<path fill="none" stroke="midnightblue" d="M819.86,-57.88C719.77,-47.12 531.71,-26.89 438.8,-16.89"/>
<polygon fill="midnightblue" stroke="midnightblue" points="439.08,-13.4 428.76,-15.81 438.33,-20.36 439.08,-13.4"/>
</g>
<!-- Node136&#45;&gt;Node7 -->
<g id="edge24" class="edge">
<title>Node136&#45;&gt;Node7</title>
<path fill="none" stroke="midnightblue" d="M862.39,-56.44C837.54,-47.44 798.23,-33.19 770.25,-23.05"/>
<polygon fill="midnightblue" stroke="midnightblue" points="771.09,-19.63 760.5,-19.52 768.71,-26.21 771.09,-19.63"/>
</g>
<!-- Node136&#45;&gt;Node8 -->
<g id="edge25" class="edge">
<title>Node136&#45;&gt;Node8</title>
<path fill="none" stroke="midnightblue" d="M913.41,-56.44C942.77,-47.28 989.52,-32.69 1022.1,-22.52"/>
<polygon fill="midnightblue" stroke="midnightblue" points="1023.21,-25.84 1031.72,-19.52 1021.13,-19.16 1023.21,-25.84"/>
</g>
<!-- Node137&#45;&gt;Node2 -->
<g id="edge27" class="edge">
<title>Node137&#45;&gt;Node2</title>
<path fill="none" stroke="midnightblue" d="M635.62,-56.44C582.14,-46.78 495.26,-31.09 438.87,-20.91"/>
<polygon fill="midnightblue" stroke="midnightblue" points="439.18,-17.41 428.71,-19.08 437.93,-24.3 439.18,-17.41"/>
</g>
<!-- Node137&#45;&gt;Node7 -->
<g id="edge28" class="edge">
<title>Node137&#45;&gt;Node7</title>
<path fill="none" stroke="midnightblue" d="M691.92,-56.08C699.78,-48.22 711.43,-36.57 720.92,-27.08"/>
<polygon fill="midnightblue" stroke="midnightblue" points="723.65,-29.3 728.25,-19.75 718.7,-24.35 723.65,-29.3"/>
</g>
<!-- Node137&#45;&gt;Node8 -->
<g id="edge29" class="edge">
<title>Node137&#45;&gt;Node8</title>
<path fill="none" stroke="midnightblue" d="M742.58,-56.44C816.24,-45.86 940.29,-28.05 1009.15,-18.16"/>
<polygon fill="midnightblue" stroke="midnightblue" points="1009.91,-21.59 1019.31,-16.7 1008.91,-14.66 1009.91,-21.59"/>
</g>
<!-- Node138&#45;&gt;Node2 -->
<g id="edge31" class="edge">
<title>Node138&#45;&gt;Node2</title>
<path fill="none" stroke="midnightblue" d="M214.85,-56.44C249.4,-47.16 304.68,-32.31 342.58,-22.13"/>
<polygon fill="midnightblue" stroke="midnightblue" points="343.55,-25.49 352.3,-19.52 341.73,-18.73 343.55,-25.49"/>
</g>
<!-- Node138&#45;&gt;Node7 -->
<g id="edge32" class="edge">
<title>Node138&#45;&gt;Node7</title>
<path fill="none" stroke="midnightblue" d="M261.68,-56.93C264.83,-56.62 267.94,-56.3 271,-56 412.93,-41.89 579.25,-25.98 669.83,-17.37"/>
<polygon fill="midnightblue" stroke="midnightblue" points="670.34,-20.83 679.96,-16.4 669.67,-13.87 670.34,-20.83"/>
</g>
<!-- Node140&#45;&gt;Node2 -->
<g id="edge34" class="edge">
<title>Node140&#45;&gt;Node2</title>
<path fill="none" stroke="midnightblue" d="M729.47,-119.67C665.58,-116.53 565.16,-106.6 484,-76 452.58,-64.16 420.84,-41.23 401.79,-26.02"/>
<polygon fill="midnightblue" stroke="midnightblue" points="403.94,-23.26 393.98,-19.64 399.51,-28.68 403.94,-23.26"/>
</g>
<!-- Node140&#45;&gt;Node7 -->
<g id="edge36" class="edge">
<title>Node140&#45;&gt;Node7</title>
<path fill="none" stroke="midnightblue" d="M791.39,-112.18C788.79,-99.29 782.94,-74.79 773,-56 767.51,-45.63 759.5,-35.32 752.42,-27.19"/>
<polygon fill="midnightblue" stroke="midnightblue" points="754.85,-24.65 745.54,-19.59 749.66,-29.35 754.85,-24.65"/>
</g>
<!-- Node140&#45;&gt;Node8 -->
<g id="edge37" class="edge">
<title>Node140&#45;&gt;Node8</title>
<path fill="none" stroke="midnightblue" d="M856.91,-115.94C898.12,-110.51 951.7,-99.26 994,-76 1015.54,-64.15 1034.69,-43.03 1046.53,-28.08"/>
<polygon fill="midnightblue" stroke="midnightblue" points="1049.63,-29.79 1052.91,-19.71 1044.07,-25.54 1049.63,-29.79"/>
</g>
<!-- Node140&#45;&gt;Node136 -->
<g id="edge35" class="edge">
<title>Node140&#45;&gt;Node136</title>
<path fill="none" stroke="midnightblue" d="M807.94,-112.32C822.59,-103.82 845.13,-90.73 862.24,-80.8"/>
<polygon fill="midnightblue" stroke="midnightblue" points="864.2,-83.7 871.1,-75.65 860.69,-77.65 864.2,-83.7"/>
</g>
<!-- Node142&#45;&gt;Node2 -->
<g id="edge39" class="edge">
<title>Node142&#45;&gt;Node2</title>
<path fill="none" stroke="midnightblue" d="M1046.48,-60.96C914.06,-50.98 572.2,-25.19 438.62,-15.12"/>
<polygon fill="midnightblue" stroke="midnightblue" points="438.85,-11.63 428.62,-14.36 438.32,-18.61 438.85,-11.63"/>
</g>
<!-- Node142&#45;&gt;Node7 -->
<g id="edge40" class="edge">
<title>Node142&#45;&gt;Node7</title>
<path fill="none" stroke="midnightblue" d="M1046.44,-57.03C982.06,-47.45 873.98,-31.38 804.1,-20.98"/>
<polygon fill="midnightblue" stroke="midnightblue" points="804.48,-17.5 794.08,-19.49 803.45,-24.42 804.48,-17.5"/>
</g>
<!-- Node142&#45;&gt;Node8 -->
<g id="edge41" class="edge">
<title>Node142&#45;&gt;Node8</title>
<path fill="none" stroke="midnightblue" d="M1093.23,-56.08C1087.44,-48.46 1078.94,-37.26 1071.86,-27.94"/>
<polygon fill="midnightblue" stroke="midnightblue" points="1074.48,-25.6 1065.64,-19.75 1068.9,-29.83 1074.48,-25.6"/>
</g>
<!-- Node143&#45;&gt;Node2 -->
<g id="edge43" class="edge">
<title>Node143&#45;&gt;Node2</title>
<path fill="none" stroke="midnightblue" d="M1090.41,-120.67C1006,-119.3 778.46,-112.25 593,-76 528.54,-63.4 455.84,-38.18 415.42,-23.13"/>
<polygon fill="midnightblue" stroke="midnightblue" points="416.46,-19.78 405.86,-19.54 413.99,-26.33 416.46,-19.78"/>
</g>
<!-- Node143&#45;&gt;Node7 -->
<g id="edge46" class="edge">
<title>Node143&#45;&gt;Node7</title>
<path fill="none" stroke="midnightblue" d="M1135.91,-112.31C1152.55,-99.15 1179.02,-73.8 1163,-56 1139.49,-29.87 918.4,-17.79 804.35,-13.26"/>
<polygon fill="midnightblue" stroke="midnightblue" points="804.46,-9.76 794.33,-12.87 804.19,-16.76 804.46,-9.76"/>
</g>
<!-- Node143&#45;&gt;Node8 -->
<g id="edge47" class="edge">
<title>Node143&#45;&gt;Node8</title>
<path fill="none" stroke="midnightblue" d="M1157.58,-120.63C1223.39,-118.77 1359.2,-108.65 1315,-56 1289.21,-25.29 1175.83,-15.53 1108.91,-12.43"/>
<polygon fill="midnightblue" stroke="midnightblue" points="1108.74,-8.92 1098.59,-11.99 1108.44,-15.92 1108.74,-8.92"/>
</g>
<!-- Node143&#45;&gt;Node131 -->
<g id="edge45" class="edge">
<title>Node143&#45;&gt;Node131</title>
<path fill="none" stroke="midnightblue" d="M1145.23,-112.44C1167.38,-103.52 1202.32,-89.44 1227.44,-79.32"/>
<polygon fill="midnightblue" stroke="midnightblue" points="1228.9,-82.5 1236.87,-75.52 1226.28,-76.01 1228.9,-82.5"/>
</g>
<!-- Node143&#45;&gt;Node142 -->
<g id="edge44" class="edge">
<title>Node143&#45;&gt;Node142</title>
<path fill="none" stroke="midnightblue" d="M1120.04,-112.08C1116.79,-104.77 1112.08,-94.18 1108.05,-85.1"/>
<polygon fill="midnightblue" stroke="midnightblue" points="1111.15,-83.47 1103.89,-75.75 1104.75,-86.31 1111.15,-83.47"/>
</g>
</g>
</svg>
