<?xml version="1.0" encoding="UTF-8" standalone="no"?>
<!DOCTYPE svg PUBLIC "-//W3C//DTD SVG 1.1//EN"
 "http://www.w3.org/Graphics/SVG/1.1/DTD/svg11.dtd">
<!-- Generated by graphviz version 2.43.0 (0)
 -->
<!-- Title: limes::threads::is_realtime_move_constructable&lt; T &gt; Pages: 1 -->
<svg width="841pt" height="77pt"
 viewBox="0.00 0.00 841.00 77.00" xmlns="http://www.w3.org/2000/svg" xmlns:xlink="http://www.w3.org/1999/xlink">
<g id="graph0" class="graph" transform="scale(1 1) rotate(0) translate(4 73)">
<title>limes::threads::is_realtime_move_constructable&lt; T &gt;</title>
<!-- Node1 -->
<g id="node1" class="node">
<title>Node1</title>
<g id="a_node1"><a xlink:title="A compile&#45;time boolean constant that evaluates to true if the type T is realtime&#45;safe move constructa...">
<polygon fill="#bfbfbf" stroke="black" points="637,-33 637,-63 833,-63 833,-33 637,-33"/>
<text text-anchor="start" x="645" y="-51" font-family="Helvetica,sans-Serif" font-size="10.00">limes::threads::is</text>
<text text-anchor="middle" x="735" y="-40" font-family="Helvetica,sans-Serif" font-size="10.00">_realtime_move_constructable&lt; T &gt;</text>
</a>
</g>
</g>
<!-- Node2 -->
<g id="node2" class="node">
<title>Node2</title>
<g id="a_node2"><a xlink:href="../../d8/d3f/structlimes_1_1threads_1_1detail_1_1is__rt__safe.html" target="_top" xlink:title=" ">
<polygon fill="none" stroke="black" points="394,-27.5 394,-68.5 600,-68.5 600,-27.5 394,-27.5"/>
<text text-anchor="start" x="402" y="-56.5" font-family="Helvetica,sans-Serif" font-size="10.00">limes::threads::detail</text>
<text text-anchor="start" x="402" y="-45.5" font-family="Helvetica,sans-Serif" font-size="10.00">::is_rt_safe&lt; T, detail</text>
<text text-anchor="middle" x="497" y="-34.5" font-family="Helvetica,sans-Serif" font-size="10.00">::move_tag, detail::constructible_tag &gt;</text>
</a>
</g>
</g>
<!-- Node2&#45;&gt;Node1 -->
<g id="edge1" class="edge">
<title>Node2&#45;&gt;Node1</title>
<path fill="none" stroke="midnightblue" d="M610.2,-48C619.13,-48 628.11,-48 636.92,-48"/>
<polygon fill="midnightblue" stroke="midnightblue" points="610.14,-44.5 600.14,-48 610.14,-51.5 610.14,-44.5"/>
</g>
<!-- Node3 -->
<g id="node3" class="node">
<title>Node3</title>
<g id="a_node3"><a xlink:title=" ">
<polygon fill="none" stroke="#bfbfbf" points="0,-35.5 0,-54.5 68,-54.5 68,-35.5 0,-35.5"/>
<text text-anchor="middle" x="34" y="-42.5" font-family="Helvetica,sans-Serif" font-size="10.00">false_type</text>
</a>
</g>
</g>
<!-- Node3&#45;&gt;Node2 -->
<g id="edge2" class="edge">
<title>Node3&#45;&gt;Node2</title>
<path fill="none" stroke="midnightblue" d="M78.23,-49.04C87.08,-49.77 96.34,-50.47 105,-51 225.24,-58.33 255.6,-60.01 376,-56 381.84,-55.81 387.84,-55.56 393.9,-55.27"/>
<polygon fill="midnightblue" stroke="midnightblue" points="78.35,-45.54 68.09,-48.17 77.76,-52.51 78.35,-45.54"/>
</g>
<!-- Node4 -->
<g id="node4" class="node">
<title>Node4</title>
<g id="a_node4"><a xlink:href="../../d8/d3f/structlimes_1_1threads_1_1detail_1_1is__rt__safe.html" target="_top" xlink:title="Represents a query for realtime safety of the operation represented by Tag1 and Tag2 on the type T .">
<polygon fill="none" stroke="black" points="105,-0.5 105,-41.5 225,-41.5 225,-0.5 105,-0.5"/>
<text text-anchor="start" x="113" y="-29.5" font-family="Helvetica,sans-Serif" font-size="10.00">limes::threads::detail</text>
<text text-anchor="start" x="113" y="-18.5" font-family="Helvetica,sans-Serif" font-size="10.00">::is_rt_safe&lt; T, Tag1,</text>
<text text-anchor="middle" x="165" y="-7.5" font-family="Helvetica,sans-Serif" font-size="10.00"> Tag2 &gt;</text>
</a>
</g>
</g>
<!-- Node3&#45;&gt;Node4 -->
<g id="edge4" class="edge">
<title>Node3&#45;&gt;Node4</title>
<path fill="none" stroke="midnightblue" d="M78.3,-36.94C86.83,-35.36 95.91,-33.67 104.86,-32"/>
<polygon fill="midnightblue" stroke="midnightblue" points="77.41,-33.55 68.22,-38.82 78.69,-40.43 77.41,-33.55"/>
</g>
<!-- Node4&#45;&gt;Node2 -->
<g id="edge3" class="edge">
<title>Node4&#45;&gt;Node2</title>
<path fill="none" stroke="orange" stroke-dasharray="5,2" d="M235.5,-24.35C276.44,-26.56 329.21,-29.83 376,-34 381.85,-34.52 387.86,-35.1 393.91,-35.71"/>
<polygon fill="orange" stroke="orange" points="235.53,-20.85 225.35,-23.81 235.15,-27.84 235.53,-20.85"/>
<text text-anchor="start" x="243" y="-48" font-family="Helvetica,sans-Serif" font-size="10.00"> &lt; T, detail::move_tag,</text>
<text text-anchor="middle" x="309.5" y="-37" font-family="Helvetica,sans-Serif" font-size="10.00"> detail::constructible_tag &gt;</text>
</g>
</g>
</svg>
