<?xml version="1.0" encoding="UTF-8" standalone="no"?>
<!DOCTYPE svg PUBLIC "-//W3C//DTD SVG 1.1//EN"
 "http://www.w3.org/Graphics/SVG/1.1/DTD/svg11.dtd">
<!-- Generated by graphviz version 2.43.0 (0)
 -->
<!-- Title: triangular_prism.h Pages: 1 -->
<svg width="1324pt" height="420pt"
 viewBox="0.00 0.00 1324.00 420.00" xmlns="http://www.w3.org/2000/svg" xmlns:xlink="http://www.w3.org/1999/xlink">
<g id="graph0" class="graph" transform="scale(1 1) rotate(0) translate(4 416)">
<title>triangular_prism.h</title>
<!-- Node1 -->
<g id="node1" class="node">
<title>Node1</title>
<g id="a_node1"><a xlink:title=" ">
<polygon fill="#bfbfbf" stroke="black" points="462,-392.5 462,-411.5 568,-411.5 568,-392.5 462,-392.5"/>
<text text-anchor="middle" x="515" y="-399.5" font-family="Helvetica,sans-Serif" font-size="10.00">triangular_prism.h</text>
</a>
</g>
</g>
<!-- Node2 -->
<g id="node2" class="node">
<title>Node2</title>
<g id="a_node2"><a xlink:href="../../da/d0b/limes__namespace_8h.html" target="_top" xlink:title=" ">
<polygon fill="none" stroke="black" points="1040,-56.5 1040,-75.5 1154,-75.5 1154,-56.5 1040,-56.5"/>
<text text-anchor="middle" x="1097" y="-63.5" font-family="Helvetica,sans-Serif" font-size="10.00">limes_namespace.h</text>
</a>
</g>
</g>
<!-- Node1&#45;&gt;Node2 -->
<g id="edge1" class="edge">
<title>Node1&#45;&gt;Node2</title>
<path fill="none" stroke="midnightblue" d="M568.05,-398.95C741.08,-391.56 1278,-362.85 1278,-291 1278,-291 1278,-291 1278,-177 1278,-119.66 1210.83,-91.36 1158.33,-78"/>
<polygon fill="midnightblue" stroke="midnightblue" points="1158.93,-74.54 1148.38,-75.59 1157.28,-81.34 1158.93,-74.54"/>
</g>
<!-- Node3 -->
<g id="node3" class="node">
<title>Node3</title>
<g id="a_node3"><a xlink:title=" ">
<polygon fill="none" stroke="#bfbfbf" points="814.5,-56.5 814.5,-75.5 903.5,-75.5 903.5,-56.5 814.5,-56.5"/>
<text text-anchor="middle" x="859" y="-63.5" font-family="Helvetica,sans-Serif" font-size="10.00">limes_export.h</text>
</a>
</g>
</g>
<!-- Node1&#45;&gt;Node3 -->
<g id="edge2" class="edge">
<title>Node1&#45;&gt;Node3</title>
<path fill="none" stroke="midnightblue" d="M461.83,-396.05C361,-385.19 152,-354.96 152,-291 152,-291 152,-291 152,-177 152,-138.58 174.57,-129.06 209,-112 261.65,-85.92 656.97,-72.53 804.07,-68.41"/>
<polygon fill="midnightblue" stroke="midnightblue" points="804.33,-71.91 814.23,-68.13 804.13,-64.91 804.33,-71.91"/>
</g>
<!-- Node4 -->
<g id="node4" class="node">
<title>Node4</title>
<g id="a_node4"><a xlink:title=" ">
<polygon fill="none" stroke="#bfbfbf" points="292,-0.5 292,-19.5 392,-19.5 392,-0.5 292,-0.5"/>
<text text-anchor="middle" x="342" y="-7.5" font-family="Helvetica,sans-Serif" font-size="10.00">limes_platform.h</text>
</a>
</g>
</g>
<!-- Node1&#45;&gt;Node4 -->
<g id="edge3" class="edge">
<title>Node1&#45;&gt;Node4</title>
<path fill="none" stroke="midnightblue" d="M461.71,-399.55C360.24,-396.13 143.28,-385.52 75,-356 34.51,-338.5 0,-335.11 0,-291 0,-291 0,-291 0,-121 0,-81.68 25.34,-74.57 60,-56 97.33,-36 210.43,-22.65 281.55,-15.99"/>
<polygon fill="midnightblue" stroke="midnightblue" points="282.08,-19.45 291.72,-15.05 281.44,-12.48 282.08,-19.45"/>
</g>
<!-- Node5 -->
<g id="node5" class="node">
<title>Node5</title>
<g id="a_node5"><a xlink:href="../../d3/d53/preprocessor_8h.html" target="_top" xlink:title=" ">
<polygon fill="none" stroke="black" points="69.5,-56.5 69.5,-75.5 210.5,-75.5 210.5,-56.5 69.5,-56.5"/>
<text text-anchor="middle" x="140" y="-63.5" font-family="Helvetica,sans-Serif" font-size="10.00">../../../misc/preprocessor.h</text>
</a>
</g>
</g>
<!-- Node1&#45;&gt;Node5 -->
<g id="edge4" class="edge">
<title>Node1&#45;&gt;Node5</title>
<path fill="none" stroke="midnightblue" d="M461.67,-399.88C337.2,-395.84 38,-377.15 38,-291 38,-291 38,-291 38,-177 38,-132.39 83.66,-98.23 113.88,-80.51"/>
<polygon fill="midnightblue" stroke="midnightblue" points="115.7,-83.5 122.7,-75.55 112.27,-77.4 115.7,-83.5"/>
</g>
<!-- Node6 -->
<g id="node6" class="node">
<title>Node6</title>
<g id="a_node6"><a xlink:href="../../dd/d6a/triangle_8h.html" target="_top" xlink:title=" ">
<polygon fill="none" stroke="black" points="833.5,-336.5 833.5,-355.5 922.5,-355.5 922.5,-336.5 833.5,-336.5"/>
<text text-anchor="middle" x="878" y="-343.5" font-family="Helvetica,sans-Serif" font-size="10.00">../2D/triangle.h</text>
</a>
</g>
</g>
<!-- Node1&#45;&gt;Node6 -->
<g id="edge6" class="edge">
<title>Node1&#45;&gt;Node6</title>
<path fill="none" stroke="midnightblue" d="M568.17,-393.09C636.35,-382.95 754,-365.45 823.04,-355.18"/>
<polygon fill="midnightblue" stroke="midnightblue" points="823.89,-358.59 833.27,-353.65 822.86,-351.66 823.89,-358.59"/>
</g>
<!-- Node18 -->
<g id="node18" class="node">
<title>Node18</title>
<g id="a_node18"><a xlink:href="../../d7/d88/3_dshape_8h.html" target="_top" xlink:title=" ">
<polygon fill="none" stroke="black" points="1144,-112.5 1144,-131.5 1212,-131.5 1212,-112.5 1144,-112.5"/>
<text text-anchor="middle" x="1178" y="-119.5" font-family="Helvetica,sans-Serif" font-size="10.00">3Dshape.h</text>
</a>
</g>
</g>
<!-- Node1&#45;&gt;Node18 -->
<g id="edge43" class="edge">
<title>Node1&#45;&gt;Node18</title>
<path fill="none" stroke="midnightblue" d="M568.05,-398.09C729.19,-388.56 1202,-355.13 1202,-291 1202,-291 1202,-291 1202,-233 1202,-200.06 1191.6,-162.82 1184.49,-141.21"/>
<polygon fill="midnightblue" stroke="midnightblue" points="1187.78,-140.03 1181.24,-131.7 1181.16,-142.29 1187.78,-140.03"/>
</g>
<!-- Node5&#45;&gt;Node4 -->
<g id="edge5" class="edge">
<title>Node5&#45;&gt;Node4</title>
<path fill="none" stroke="midnightblue" d="M172.01,-56.44C206.73,-47.16 262.29,-32.31 300.38,-22.13"/>
<polygon fill="midnightblue" stroke="midnightblue" points="301.39,-25.48 310.14,-19.52 299.58,-18.72 301.39,-25.48"/>
</g>
<!-- Node6&#45;&gt;Node2 -->
<g id="edge7" class="edge">
<title>Node6&#45;&gt;Node2</title>
<path fill="none" stroke="midnightblue" d="M913.3,-336.49C988.14,-316.25 1160.8,-257.25 1221,-132 1235.1,-102.66 1200.52,-86.23 1164.33,-77.23"/>
<polygon fill="midnightblue" stroke="midnightblue" points="1164.65,-73.72 1154.12,-74.89 1163.08,-80.54 1164.65,-73.72"/>
</g>
<!-- Node6&#45;&gt;Node3 -->
<g id="edge8" class="edge">
<title>Node6&#45;&gt;Node3</title>
<path fill="none" stroke="midnightblue" d="M878,-336.44C878,-317.94 878,-272.81 878,-235 878,-235 878,-235 878,-177 878,-144.49 869.84,-107.35 864.22,-85.61"/>
<polygon fill="midnightblue" stroke="midnightblue" points="867.54,-84.5 861.56,-75.75 860.78,-86.32 867.54,-84.5"/>
</g>
<!-- Node6&#45;&gt;Node4 -->
<g id="edge9" class="edge">
<title>Node6&#45;&gt;Node4</title>
<path fill="none" stroke="midnightblue" d="M922.82,-343.23C1034.45,-337.61 1316,-315.46 1316,-235 1316,-235 1316,-235 1316,-121 1316,-47.12 1234.97,-72.72 1163,-56 1018.44,-22.42 567.07,-13.7 402.67,-11.61"/>
<polygon fill="midnightblue" stroke="midnightblue" points="402.3,-8.11 392.26,-11.48 402.22,-15.11 402.3,-8.11"/>
</g>
<!-- Node6&#45;&gt;Node5 -->
<g id="edge13" class="edge">
<title>Node6&#45;&gt;Node5</title>
<path fill="none" stroke="midnightblue" d="M833.45,-343.62C664.94,-337.83 76,-312.08 76,-235 76,-235 76,-235 76,-177 76,-139.33 104.39,-103.04 123.35,-83.01"/>
<polygon fill="midnightblue" stroke="midnightblue" points="126.04,-85.27 130.56,-75.69 121.05,-80.36 126.04,-85.27"/>
</g>
<!-- Node7 -->
<g id="node7" class="node">
<title>Node7</title>
<g id="a_node7"><a xlink:href="../../d8/d23/2_dshape_8h.html" target="_top" xlink:title=" ">
<polygon fill="none" stroke="black" points="1020,-112.5 1020,-131.5 1088,-131.5 1088,-112.5 1020,-112.5"/>
<text text-anchor="middle" x="1054" y="-119.5" font-family="Helvetica,sans-Serif" font-size="10.00">2Dshape.h</text>
</a>
</g>
</g>
<!-- Node6&#45;&gt;Node7 -->
<g id="edge10" class="edge">
<title>Node6&#45;&gt;Node7</title>
<path fill="none" stroke="midnightblue" d="M920.98,-336.46C943.82,-329.94 970.86,-318.76 989,-300 1032.76,-254.76 1047.45,-177.64 1052.06,-142.04"/>
<polygon fill="midnightblue" stroke="midnightblue" points="1055.58,-142 1053.26,-131.66 1048.63,-141.19 1055.58,-142"/>
</g>
<!-- Node8 -->
<g id="node8" class="node">
<title>Node8</title>
<g id="a_node8"><a xlink:href="../../da/dac/angle_8h.html" target="_top" xlink:title=" ">
<polygon fill="none" stroke="black" points="927.5,-280.5 927.5,-299.5 980.5,-299.5 980.5,-280.5 927.5,-280.5"/>
<text text-anchor="middle" x="954" y="-287.5" font-family="Helvetica,sans-Serif" font-size="10.00">angle.h</text>
</a>
</g>
</g>
<!-- Node6&#45;&gt;Node8 -->
<g id="edge14" class="edge">
<title>Node6&#45;&gt;Node8</title>
<path fill="none" stroke="midnightblue" d="M890.21,-336.32C901.78,-328.11 919.38,-315.6 933.16,-305.81"/>
<polygon fill="midnightblue" stroke="midnightblue" points="935.44,-308.48 941.57,-299.83 931.39,-302.77 935.44,-308.48"/>
</g>
<!-- Node9 -->
<g id="node9" class="node">
<title>Node9</title>
<g id="a_node9"><a xlink:href="../../dd/dfb/math_helpers_8h.html" target="_top" xlink:title=" ">
<polygon fill="none" stroke="black" points="693.5,-224.5 693.5,-243.5 800.5,-243.5 800.5,-224.5 693.5,-224.5"/>
<text text-anchor="middle" x="747" y="-231.5" font-family="Helvetica,sans-Serif" font-size="10.00">../../mathHelpers.h</text>
</a>
</g>
</g>
<!-- Node6&#45;&gt;Node9 -->
<g id="edge41" class="edge">
<title>Node6&#45;&gt;Node9</title>
<path fill="none" stroke="midnightblue" d="M867.72,-336.37C845.53,-317.73 792.89,-273.53 765.02,-250.13"/>
<polygon fill="midnightblue" stroke="midnightblue" points="767.14,-247.34 757.23,-243.59 762.64,-252.7 767.14,-247.34"/>
</g>
<!-- Node10 -->
<g id="node10" class="node">
<title>Node10</title>
<g id="a_node10"><a xlink:title=" ">
<polygon fill="none" stroke="#bfbfbf" points="180.5,-168.5 180.5,-187.5 227.5,-187.5 227.5,-168.5 180.5,-168.5"/>
<text text-anchor="middle" x="204" y="-175.5" font-family="Helvetica,sans-Serif" font-size="10.00">cmath</text>
</a>
</g>
</g>
<!-- Node6&#45;&gt;Node10 -->
<g id="edge42" class="edge">
<title>Node6&#45;&gt;Node10</title>
<path fill="none" stroke="midnightblue" d="M843.18,-336.42C726.86,-307.78 352.57,-215.59 237.78,-187.32"/>
<polygon fill="midnightblue" stroke="midnightblue" points="238.36,-183.86 227.81,-184.86 236.68,-190.65 238.36,-183.86"/>
</g>
<!-- Node7&#45;&gt;Node2 -->
<g id="edge11" class="edge">
<title>Node7&#45;&gt;Node2</title>
<path fill="none" stroke="midnightblue" d="M1061.1,-112.08C1067.24,-104.38 1076.27,-93.03 1083.74,-83.65"/>
<polygon fill="midnightblue" stroke="midnightblue" points="1086.54,-85.75 1090.03,-75.75 1081.06,-81.39 1086.54,-85.75"/>
</g>
<!-- Node7&#45;&gt;Node3 -->
<g id="edge12" class="edge">
<title>Node7&#45;&gt;Node3</title>
<path fill="none" stroke="midnightblue" d="M1023.1,-112.44C989.73,-103.2 936.41,-88.44 899.65,-78.26"/>
<polygon fill="midnightblue" stroke="midnightblue" points="900.33,-74.81 889.75,-75.52 898.46,-81.56 900.33,-74.81"/>
</g>
<!-- Node8&#45;&gt;Node2 -->
<g id="edge16" class="edge">
<title>Node8&#45;&gt;Node2</title>
<path fill="none" stroke="midnightblue" d="M967.08,-280.36C997.45,-259.36 1072.08,-202.18 1097,-132 1102.26,-117.19 1101.8,-99.27 1100.28,-86"/>
<polygon fill="midnightblue" stroke="midnightblue" points="1103.69,-85.12 1098.8,-75.72 1096.76,-86.12 1103.69,-85.12"/>
</g>
<!-- Node8&#45;&gt;Node3 -->
<g id="edge15" class="edge">
<title>Node8&#45;&gt;Node3</title>
<path fill="none" stroke="midnightblue" d="M951.89,-280.15C945.38,-253.61 924.02,-172.78 892,-112 886.76,-102.05 879.49,-91.88 873.11,-83.73"/>
<polygon fill="midnightblue" stroke="midnightblue" points="875.68,-81.35 866.67,-75.78 870.25,-85.75 875.68,-81.35"/>
</g>
<!-- Node8&#45;&gt;Node4 -->
<g id="edge17" class="edge">
<title>Node8&#45;&gt;Node4</title>
<path fill="none" stroke="midnightblue" d="M959.28,-280.23C969.73,-262.04 992,-218.6 992,-179 992,-179 992,-179 992,-121 992,-75.19 954.53,-73.02 912,-56 820.79,-19.51 529.87,-12.55 402.59,-11.26"/>
<polygon fill="midnightblue" stroke="midnightblue" points="402.28,-7.76 392.25,-11.17 402.22,-14.76 402.28,-7.76"/>
</g>
<!-- Node8&#45;&gt;Node9 -->
<g id="edge18" class="edge">
<title>Node8&#45;&gt;Node9</title>
<path fill="none" stroke="midnightblue" d="M927.36,-282.05C892.46,-272.95 830.84,-256.87 789.46,-246.08"/>
<polygon fill="midnightblue" stroke="midnightblue" points="790.23,-242.66 779.67,-243.52 788.46,-249.43 790.23,-242.66"/>
</g>
<!-- Node9&#45;&gt;Node2 -->
<g id="edge19" class="edge">
<title>Node9&#45;&gt;Node2</title>
<path fill="none" stroke="midnightblue" d="M765.32,-224.31C822.97,-196.97 1000.85,-112.6 1069.54,-80.02"/>
<polygon fill="midnightblue" stroke="midnightblue" points="1071.32,-83.05 1078.86,-75.61 1068.32,-76.73 1071.32,-83.05"/>
</g>
<!-- Node9&#45;&gt;Node3 -->
<g id="edge22" class="edge">
<title>Node9&#45;&gt;Node3</title>
<path fill="none" stroke="midnightblue" d="M753.7,-224.26C766.88,-206.97 796.89,-167.04 820,-132 830.39,-116.24 841.38,-97.74 849.04,-84.51"/>
<polygon fill="midnightblue" stroke="midnightblue" points="852.24,-85.97 854.18,-75.56 846.16,-82.49 852.24,-85.97"/>
</g>
<!-- Node9&#45;&gt;Node5 -->
<g id="edge40" class="edge">
<title>Node9&#45;&gt;Node5</title>
<path fill="none" stroke="midnightblue" d="M693.48,-229.6C567.98,-220.68 259.24,-192.98 178,-132 162.35,-120.26 152.01,-100.03 146.12,-85.25"/>
<polygon fill="midnightblue" stroke="midnightblue" points="149.33,-83.83 142.61,-75.65 142.76,-86.24 149.33,-83.83"/>
</g>
<!-- Node9&#45;&gt;Node10 -->
<g id="edge20" class="edge">
<title>Node9&#45;&gt;Node10</title>
<path fill="none" stroke="midnightblue" d="M693.24,-230.75C600.61,-226.31 405.13,-214.45 242,-188 240.54,-187.76 239.04,-187.5 237.54,-187.22"/>
<polygon fill="midnightblue" stroke="midnightblue" points="238.12,-183.76 227.61,-185.15 236.69,-190.62 238.12,-183.76"/>
</g>
<!-- Node11 -->
<g id="node11" class="node">
<title>Node11</title>
<g id="a_node11"><a xlink:title=" ">
<polygon fill="none" stroke="#bfbfbf" points="742.5,-112.5 742.5,-131.5 811.5,-131.5 811.5,-112.5 742.5,-112.5"/>
<text text-anchor="middle" x="777" y="-119.5" font-family="Helvetica,sans-Serif" font-size="10.00">type_traits</text>
</a>
</g>
</g>
<!-- Node9&#45;&gt;Node11 -->
<g id="edge21" class="edge">
<title>Node9&#45;&gt;Node11</title>
<path fill="none" stroke="midnightblue" d="M749.35,-224.37C754.22,-206.54 765.46,-165.3 772.02,-141.27"/>
<polygon fill="midnightblue" stroke="midnightblue" points="775.4,-142.16 774.66,-131.59 768.65,-140.32 775.4,-142.16"/>
</g>
<!-- Node12 -->
<g id="node12" class="node">
<title>Node12</title>
<g id="a_node12"><a xlink:title=" ">
<polygon fill="none" stroke="#bfbfbf" points="685,-168.5 685,-187.5 749,-187.5 749,-168.5 685,-168.5"/>
<text text-anchor="middle" x="717" y="-175.5" font-family="Helvetica,sans-Serif" font-size="10.00">algorithm</text>
</a>
</g>
</g>
<!-- Node9&#45;&gt;Node12 -->
<g id="edge23" class="edge">
<title>Node9&#45;&gt;Node12</title>
<path fill="none" stroke="midnightblue" d="M742.05,-224.08C737.9,-216.61 731.85,-205.72 726.73,-196.52"/>
<polygon fill="midnightblue" stroke="midnightblue" points="729.78,-194.79 721.86,-187.75 723.66,-198.19 729.78,-194.79"/>
</g>
<!-- Node13 -->
<g id="node13" class="node">
<title>Node13</title>
<g id="a_node13"><a xlink:href="../../d5/dbb/limes__assert_8h.html" target="_top" xlink:title=" ">
<polygon fill="none" stroke="black" points="483,-168.5 483,-187.5 619,-187.5 619,-168.5 483,-168.5"/>
<text text-anchor="middle" x="551" y="-175.5" font-family="Helvetica,sans-Serif" font-size="10.00">../system/limes_assert.h</text>
</a>
</g>
</g>
<!-- Node9&#45;&gt;Node13 -->
<g id="edge24" class="edge">
<title>Node9&#45;&gt;Node13</title>
<path fill="none" stroke="midnightblue" d="M715.94,-224.44C682.4,-215.2 628.8,-200.44 591.86,-190.26"/>
<polygon fill="midnightblue" stroke="midnightblue" points="592.48,-186.8 581.91,-187.52 590.62,-193.55 592.48,-186.8"/>
</g>
<!-- Node17 -->
<g id="node17" class="node">
<title>Node17</title>
<g id="a_node17"><a xlink:href="../../d0/d00/compiler__defs_8h.html" target="_top" xlink:title=" ">
<polygon fill="none" stroke="black" points="218.5,-112.5 218.5,-131.5 313.5,-131.5 313.5,-112.5 218.5,-112.5"/>
<text text-anchor="middle" x="266" y="-119.5" font-family="Helvetica,sans-Serif" font-size="10.00">compiler_defs.h</text>
</a>
</g>
</g>
<!-- Node9&#45;&gt;Node17 -->
<g id="edge39" class="edge">
<title>Node9&#45;&gt;Node17</title>
<path fill="none" stroke="midnightblue" d="M693.46,-226.42C638.1,-219.1 549.36,-205.89 474,-188 411.39,-173.13 340.16,-149.33 299.4,-135.03"/>
<polygon fill="midnightblue" stroke="midnightblue" points="300.31,-131.64 289.72,-131.61 297.98,-138.24 300.31,-131.64"/>
</g>
<!-- Node13&#45;&gt;Node2 -->
<g id="edge26" class="edge">
<title>Node13&#45;&gt;Node2</title>
<path fill="none" stroke="midnightblue" d="M584.2,-168.47C613.78,-160.44 657.99,-147.37 695,-132 712.63,-124.68 714.79,-117.71 733,-112 833.25,-80.58 955.47,-70.97 1029.71,-68.1"/>
<polygon fill="midnightblue" stroke="midnightblue" points="1029.99,-71.6 1039.86,-67.74 1029.74,-64.6 1029.99,-71.6"/>
</g>
<!-- Node13&#45;&gt;Node3 -->
<g id="edge25" class="edge">
<title>Node13&#45;&gt;Node3</title>
<path fill="none" stroke="midnightblue" d="M546.6,-168.21C540.42,-154.44 531.34,-127.76 545,-112 577.91,-74.04 723.4,-67.33 804.28,-66.61"/>
<polygon fill="midnightblue" stroke="midnightblue" points="804.31,-70.11 814.29,-66.55 804.27,-63.11 804.31,-70.11"/>
</g>
<!-- Node13&#45;&gt;Node4 -->
<g id="edge34" class="edge">
<title>Node13&#45;&gt;Node4</title>
<path fill="none" stroke="midnightblue" d="M482.75,-168.91C435.22,-161.82 377.53,-149.85 361,-132 335.2,-104.14 336.15,-56.27 339.08,-29.86"/>
<polygon fill="midnightblue" stroke="midnightblue" points="342.59,-30.06 340.44,-19.69 335.65,-29.14 342.59,-30.06"/>
</g>
<!-- Node13&#45;&gt;Node5 -->
<g id="edge27" class="edge">
<title>Node13&#45;&gt;Node5</title>
<path fill="none" stroke="midnightblue" d="M482.7,-172.98C397.15,-167.1 256.07,-154.34 209,-132 185.63,-120.91 164.95,-98.94 152.47,-83.63"/>
<polygon fill="midnightblue" stroke="midnightblue" points="155.03,-81.22 146.1,-75.51 149.52,-85.54 155.03,-81.22"/>
</g>
<!-- Node13&#45;&gt;Node11 -->
<g id="edge28" class="edge">
<title>Node13&#45;&gt;Node11</title>
<path fill="none" stroke="midnightblue" d="M586.81,-168.44C626.33,-159 689.99,-143.79 732.64,-133.6"/>
<polygon fill="midnightblue" stroke="midnightblue" points="733.56,-136.98 742.47,-131.25 731.93,-130.17 733.56,-136.98"/>
</g>
<!-- Node14 -->
<g id="node14" class="node">
<title>Node14</title>
<g id="a_node14"><a xlink:title=" ">
<polygon fill="none" stroke="#bfbfbf" points="554.5,-112.5 554.5,-131.5 599.5,-131.5 599.5,-112.5 554.5,-112.5"/>
<text text-anchor="middle" x="577" y="-119.5" font-family="Helvetica,sans-Serif" font-size="10.00">utility</text>
</a>
</g>
</g>
<!-- Node13&#45;&gt;Node14 -->
<g id="edge29" class="edge">
<title>Node13&#45;&gt;Node14</title>
<path fill="none" stroke="midnightblue" d="M555.29,-168.08C558.85,-160.69 564.02,-149.95 568.42,-140.81"/>
<polygon fill="midnightblue" stroke="midnightblue" points="571.6,-142.28 572.79,-131.75 565.29,-139.24 571.6,-142.28"/>
</g>
<!-- Node15 -->
<g id="node15" class="node">
<title>Node15</title>
<g id="a_node15"><a xlink:href="../../d1/d57/_ignore_unused_8h.html" target="_top" xlink:title=" ">
<polygon fill="none" stroke="black" points="370,-112.5 370,-131.5 498,-131.5 498,-112.5 370,-112.5"/>
<text text-anchor="middle" x="434" y="-119.5" font-family="Helvetica,sans-Serif" font-size="10.00">../misc/IgnoreUnused.h</text>
</a>
</g>
</g>
<!-- Node13&#45;&gt;Node15 -->
<g id="edge30" class="edge">
<title>Node13&#45;&gt;Node15</title>
<path fill="none" stroke="midnightblue" d="M532.46,-168.44C513.38,-159.64 483.43,-145.81 461.56,-135.72"/>
<polygon fill="midnightblue" stroke="midnightblue" points="463,-132.53 452.45,-131.52 460.07,-138.88 463,-132.53"/>
</g>
<!-- Node16 -->
<g id="node16" class="node">
<title>Node16</title>
<g id="a_node16"><a xlink:title=" ">
<polygon fill="none" stroke="#bfbfbf" points="618,-112.5 618,-131.5 686,-131.5 686,-112.5 618,-112.5"/>
<text text-anchor="middle" x="652" y="-119.5" font-family="Helvetica,sans-Serif" font-size="10.00">filesystem</text>
</a>
</g>
</g>
<!-- Node13&#45;&gt;Node16 -->
<g id="edge35" class="edge">
<title>Node13&#45;&gt;Node16</title>
<path fill="none" stroke="midnightblue" d="M567.23,-168.32C583.35,-159.7 608.3,-146.36 626.96,-136.39"/>
<polygon fill="midnightblue" stroke="midnightblue" points="628.64,-139.46 635.81,-131.65 625.34,-133.28 628.64,-139.46"/>
</g>
<!-- Node13&#45;&gt;Node17 -->
<g id="edge36" class="edge">
<title>Node13&#45;&gt;Node17</title>
<path fill="none" stroke="midnightblue" d="M505.84,-168.44C455.71,-158.94 374.78,-143.61 320.99,-133.42"/>
<polygon fill="midnightblue" stroke="midnightblue" points="321.42,-129.94 310.95,-131.52 320.12,-136.82 321.42,-129.94"/>
</g>
<!-- Node15&#45;&gt;Node2 -->
<g id="edge32" class="edge">
<title>Node15&#45;&gt;Node2</title>
<path fill="none" stroke="midnightblue" d="M498.17,-115.77C623.95,-105.53 901.73,-82.9 1029.86,-72.47"/>
<polygon fill="midnightblue" stroke="midnightblue" points="1030.25,-75.95 1039.93,-71.65 1029.68,-68.97 1030.25,-75.95"/>
</g>
<!-- Node15&#45;&gt;Node3 -->
<g id="edge31" class="edge">
<title>Node15&#45;&gt;Node3</title>
<path fill="none" stroke="midnightblue" d="M498.09,-112.86C581.42,-102.27 725.57,-83.95 804.12,-73.97"/>
<polygon fill="midnightblue" stroke="midnightblue" points="804.81,-77.41 814.29,-72.68 803.93,-70.47 804.81,-77.41"/>
</g>
<!-- Node15&#45;&gt;Node4 -->
<g id="edge33" class="edge">
<title>Node15&#45;&gt;Node4</title>
<path fill="none" stroke="midnightblue" d="M426.78,-112.37C411.46,-94.05 375.5,-51.05 355.68,-27.36"/>
<polygon fill="midnightblue" stroke="midnightblue" points="358.29,-25.02 349.19,-19.59 352.92,-29.51 358.29,-25.02"/>
</g>
<!-- Node17&#45;&gt;Node4 -->
<g id="edge37" class="edge">
<title>Node17&#45;&gt;Node4</title>
<path fill="none" stroke="midnightblue" d="M271.96,-112.37C284.51,-94.22 313.81,-51.8 330.26,-27.99"/>
<polygon fill="midnightblue" stroke="midnightblue" points="333.26,-29.81 336.06,-19.59 327.5,-25.83 333.26,-29.81"/>
</g>
<!-- Node17&#45;&gt;Node5 -->
<g id="edge38" class="edge">
<title>Node17&#45;&gt;Node5</title>
<path fill="none" stroke="midnightblue" d="M246.03,-112.44C225.39,-103.6 192.94,-89.69 169.37,-79.59"/>
<polygon fill="midnightblue" stroke="midnightblue" points="170.44,-76.24 159.87,-75.52 167.68,-82.67 170.44,-76.24"/>
</g>
<!-- Node18&#45;&gt;Node2 -->
<g id="edge44" class="edge">
<title>Node18&#45;&gt;Node2</title>
<path fill="none" stroke="midnightblue" d="M1164.99,-112.32C1152.47,-103.98 1133.32,-91.21 1118.53,-81.35"/>
<polygon fill="midnightblue" stroke="midnightblue" points="1120.24,-78.29 1109.98,-75.65 1116.36,-84.11 1120.24,-78.29"/>
</g>
<!-- Node18&#45;&gt;Node3 -->
<g id="edge45" class="edge">
<title>Node18&#45;&gt;Node3</title>
<path fill="none" stroke="midnightblue" d="M1143.86,-115.22C1088.78,-105.9 979.83,-87.45 913.79,-76.28"/>
<polygon fill="midnightblue" stroke="midnightblue" points="914.02,-72.76 903.58,-74.55 912.85,-79.67 914.02,-72.76"/>
</g>
</g>
</svg>
