<?xml version="1.0" encoding="UTF-8" standalone="no"?>
<!DOCTYPE svg PUBLIC "-//W3C//DTD SVG 1.1//EN"
 "http://www.w3.org/Graphics/SVG/1.1/DTD/svg11.dtd">
<!-- Generated by graphviz version 2.43.0 (0)
 -->
<!-- Title: triangular_prism.h Pages: 1 -->
<!--zoomable 375 -->
<svg id="main" version="1.1" xmlns="http://www.w3.org/2000/svg" xmlns:xlink="http://www.w3.org/1999/xlink" xml:space="preserve" onload="init(evt)">
<style type="text/css"><![CDATA[
.edge:hover path { stroke: red; }
.edge:hover polygon { stroke: red; fill: red; }
]]></style>
<script type="text/javascript"><![CDATA[
var edges = document.getElementsByTagName('g');
if (edges && edges.length) {
  for (var i=0;i<edges.length;i++) {
    if (edges[i].id.substr(0,4)=='edge') {
      edges[i].setAttribute('class','edge');
    }
  }
}
]]></script>
        <defs>
                <circle id="rim" cx="0" cy="0" r="7"/>
                <circle id="rim2" cx="0" cy="0" r="3.5"/>
                <g id="zoomPlus">
                        <use xlink:href="#rim" fill="#404040">
                                <set attributeName="fill" to="#808080" begin="zoomplus.mouseover" end="zoomplus.mouseout"/>
                        </use>
                        <path d="M-4,0h8M0,-4v8" fill="none" stroke="white" stroke-width="1.5" pointer-events="none"/>
                </g>
                <g id="zoomMin">
                        <use xlink:href="#rim" fill="#404040">
                                <set attributeName="fill" to="#808080" begin="zoomminus.mouseover" end="zoomminus.mouseout"/>
                        </use>
                        <path d="M-4,0h8" fill="none" stroke="white" stroke-width="1.5" pointer-events="none"/>
                </g>
                <g id="dirArrow">
                        <path fill="none" stroke="white" stroke-width="1.5" d="M0,-3.0v7 M-2.5,-0.5L0,-3.0L2.5,-0.5"/>
                </g>
               <g id="resetDef">
                       <use xlink:href="#rim2" fill="#404040">
                               <set attributeName="fill" to="#808080" begin="reset.mouseover" end="reset.mouseout"/>
                       </use>
               </g>
        </defs>

<script type="text/javascript">
var viewWidth = 1298;
var viewHeight = 375;
var sectionId = 'dynsection-0';
</script>
<script xlink:href="../../svgpan.js"/>
<svg id="graph" class="graph">
<g id="viewport">
<title>triangular_prism.h</title>
<!-- Node1 -->
<g id="node1" class="node">
<title>Node1</title>
<g id="a_node1"><a xlink:title=" ">
<polygon fill="#bfbfbf" stroke="black" points="731,-347.5 731,-366.5 837,-366.5 837,-347.5 731,-347.5"/>
<text text-anchor="middle" x="784" y="-354.5" font-family="Helvetica,sans-Serif" font-size="10.00">triangular_prism.h</text>
</a>
</g>
</g>
<!-- Node2 -->
<g id="node2" class="node">
<title>Node2</title>
<g id="a_node2"><a xlink:href="../../da/d0b/limes__namespace_8h.html" target="_top" xlink:title=" ">
<polygon fill="none" stroke="black" points="833,-0.5 833,-19.5 947,-19.5 947,-0.5 833,-0.5"/>
<text text-anchor="middle" x="890" y="-7.5" font-family="Helvetica,sans-Serif" font-size="10.00">limes_namespace.h</text>
</a>
</g>
</g>
<!-- Node1&#45;&gt;Node2 -->
<g id="edge1" class="edge">
<title>Node1&#45;&gt;Node2</title>
<path fill="none" stroke="midnightblue" d="M837.2,-348.91C928.19,-335.28 1104,-301.74 1104,-246 1104,-246 1104,-246 1104,-188 1104,-127.53 1113.79,-98.73 1071,-56 1054.87,-39.89 1001.7,-27.88 957.13,-20.34"/>
<polygon fill="midnightblue" stroke="midnightblue" points="957.62,-16.88 947.18,-18.71 956.48,-23.78 957.62,-16.88"/>
</g>
<!-- Node3 -->
<g id="node3" class="node">
<title>Node3</title>
<g id="a_node3"><a xlink:title=" ">
<polygon fill="none" stroke="#bfbfbf" points="1045.5,-0.5 1045.5,-19.5 1134.5,-19.5 1134.5,-0.5 1045.5,-0.5"/>
<text text-anchor="middle" x="1090" y="-7.5" font-family="Helvetica,sans-Serif" font-size="10.00">limes_export.h</text>
</a>
</g>
</g>
<!-- Node1&#45;&gt;Node3 -->
<g id="edge2" class="edge">
<title>Node1&#45;&gt;Node3</title>
<path fill="none" stroke="midnightblue" d="M837.19,-355.6C967.11,-353.18 1290,-337.92 1290,-246 1290,-246 1290,-246 1290,-126.5 1290,-59.22 1204.08,-30.52 1144.87,-18.73"/>
<polygon fill="midnightblue" stroke="midnightblue" points="1145.36,-15.26 1134.88,-16.84 1144.06,-22.13 1145.36,-15.26"/>
</g>
<!-- Node4 -->
<g id="node4" class="node">
<title>Node4</title>
<g id="a_node4"><a xlink:title=" ">
<polygon fill="none" stroke="#bfbfbf" points="228,-0.5 228,-19.5 328,-19.5 328,-0.5 228,-0.5"/>
<text text-anchor="middle" x="278" y="-7.5" font-family="Helvetica,sans-Serif" font-size="10.00">limes_platform.h</text>
</a>
</g>
</g>
<!-- Node1&#45;&gt;Node4 -->
<g id="edge3" class="edge">
<title>Node1&#45;&gt;Node4</title>
<path fill="none" stroke="midnightblue" d="M730.58,-354.3C600.08,-349.79 267.9,-336.14 160,-311 85.25,-293.58 0,-322.76 0,-246 0,-246 0,-246 0,-126.5 0,-32.9 136.05,-13.73 217.8,-10.67"/>
<polygon fill="midnightblue" stroke="midnightblue" points="218.09,-14.16 227.98,-10.36 217.88,-7.16 218.09,-14.16"/>
</g>
<!-- Node5 -->
<g id="node5" class="node">
<title>Node5</title>
<g id="a_node5"><a xlink:href="../../d3/d53/preprocessor_8h.html" target="_top" xlink:title=" ">
<polygon fill="none" stroke="black" points="108.5,-56.5 108.5,-75.5 249.5,-75.5 249.5,-56.5 108.5,-56.5"/>
<text text-anchor="middle" x="179" y="-63.5" font-family="Helvetica,sans-Serif" font-size="10.00">../../../misc/preprocessor.h</text>
</a>
</g>
</g>
<!-- Node1&#45;&gt;Node5 -->
<g id="edge4" class="edge">
<title>Node1&#45;&gt;Node5</title>
<path fill="none" stroke="midnightblue" d="M730.78,-353.34C566.13,-344.4 76,-312.24 76,-246 76,-246 76,-246 76,-188 76,-139.75 124.08,-100.95 154.54,-81.21"/>
<polygon fill="midnightblue" stroke="midnightblue" points="156.73,-83.97 163.36,-75.7 153.02,-78.03 156.73,-83.97"/>
</g>
<!-- Node6 -->
<g id="node6" class="node">
<title>Node6</title>
<g id="a_node6"><a xlink:href="../../dd/d6a/triangle_8h.html" target="_top" xlink:title=" ">
<polygon fill="none" stroke="black" points="419.5,-291.5 419.5,-310.5 508.5,-310.5 508.5,-291.5 419.5,-291.5"/>
<text text-anchor="middle" x="464" y="-298.5" font-family="Helvetica,sans-Serif" font-size="10.00">../2D/triangle.h</text>
</a>
</g>
</g>
<!-- Node1&#45;&gt;Node6 -->
<g id="edge6" class="edge">
<title>Node1&#45;&gt;Node6</title>
<path fill="none" stroke="midnightblue" d="M733.3,-347.44C674.74,-337.56 578.76,-321.37 518.6,-311.21"/>
<polygon fill="midnightblue" stroke="midnightblue" points="518.98,-307.73 508.54,-309.52 517.81,-314.63 518.98,-307.73"/>
</g>
<!-- Node18 -->
<g id="node18" class="node">
<title>Node18</title>
<g id="a_node18"><a xlink:href="../../d7/d88/3_dshape_8h.html" target="_top" xlink:title=" ">
<polygon fill="none" stroke="black" points="1118,-56.5 1118,-75.5 1186,-75.5 1186,-56.5 1118,-56.5"/>
<text text-anchor="middle" x="1152" y="-63.5" font-family="Helvetica,sans-Serif" font-size="10.00">3Dshape.h</text>
</a>
</g>
</g>
<!-- Node1&#45;&gt;Node18 -->
<g id="edge42" class="edge">
<title>Node1&#45;&gt;Node18</title>
<path fill="none" stroke="midnightblue" d="M837.16,-355.01C919.96,-352.47 1074.73,-343.39 1118,-311 1143.33,-292.04 1147,-277.63 1147,-246 1147,-246 1147,-246 1147,-188 1147,-151.68 1149.28,-109.29 1150.76,-85.55"/>
<polygon fill="midnightblue" stroke="midnightblue" points="1154.25,-85.71 1151.41,-75.5 1147.27,-85.26 1154.25,-85.71"/>
</g>
<!-- Node5&#45;&gt;Node4 -->
<g id="edge5" class="edge">
<title>Node5&#45;&gt;Node4</title>
<path fill="none" stroke="midnightblue" d="M194.91,-56.32C210.64,-47.74 234.94,-34.49 253.21,-24.52"/>
<polygon fill="midnightblue" stroke="midnightblue" points="255.03,-27.52 262.13,-19.65 251.68,-21.37 255.03,-27.52"/>
</g>
<!-- Node6&#45;&gt;Node2 -->
<g id="edge7" class="edge">
<title>Node6&#45;&gt;Node2</title>
<path fill="none" stroke="midnightblue" d="M457.19,-291.36C444.29,-274.56 416.19,-235.88 401,-199 388.67,-169.06 351.12,-79.87 373,-56 402.82,-23.48 689.74,-14.38 822.82,-11.9"/>
<polygon fill="midnightblue" stroke="midnightblue" points="822.96,-15.4 832.9,-11.72 822.84,-8.4 822.96,-15.4"/>
</g>
<!-- Node6&#45;&gt;Node3 -->
<g id="edge8" class="edge">
<title>Node6&#45;&gt;Node3</title>
<path fill="none" stroke="midnightblue" d="M508.89,-296.53C619.88,-286.48 913.93,-250.85 1131,-143 1178.31,-119.49 1242.21,-99.34 1212,-56 1196.74,-34.11 1169.56,-22.84 1144.72,-17.05"/>
<polygon fill="midnightblue" stroke="midnightblue" points="1145.13,-13.56 1134.62,-14.95 1143.71,-20.41 1145.13,-13.56"/>
</g>
<!-- Node6&#45;&gt;Node4 -->
<g id="edge9" class="edge">
<title>Node6&#45;&gt;Node4</title>
<path fill="none" stroke="midnightblue" d="M419.22,-297.92C309.84,-291.62 38,-268.1 38,-190 38,-190 38,-190 38,-126.5 38,-46.84 146.69,-22.09 217.78,-14.42"/>
<polygon fill="midnightblue" stroke="midnightblue" points="218.37,-17.88 227.98,-13.41 217.68,-10.91 218.37,-17.88"/>
</g>
<!-- Node6&#45;&gt;Node5 -->
<g id="edge13" class="edge">
<title>Node6&#45;&gt;Node5</title>
<path fill="none" stroke="midnightblue" d="M419.42,-294.55C343.97,-282.6 193.43,-246.36 133,-143 126.05,-131.11 127.66,-124.7 133,-112 138.03,-100.05 147.94,-89.69 157.29,-81.93"/>
<polygon fill="midnightblue" stroke="midnightblue" points="159.44,-84.69 165.21,-75.81 155.16,-79.15 159.44,-84.69"/>
</g>
<!-- Node7 -->
<g id="node7" class="node">
<title>Node7</title>
<g id="a_node7"><a xlink:href="../../d8/d23/2_dshape_8h.html" target="_top" xlink:title=" ">
<polygon fill="none" stroke="black" points="994,-56.5 994,-75.5 1062,-75.5 1062,-56.5 994,-56.5"/>
<text text-anchor="middle" x="1028" y="-63.5" font-family="Helvetica,sans-Serif" font-size="10.00">2Dshape.h</text>
</a>
</g>
</g>
<!-- Node6&#45;&gt;Node7 -->
<g id="edge10" class="edge">
<title>Node6&#45;&gt;Node7</title>
<path fill="none" stroke="midnightblue" d="M486.95,-291.41C510.6,-282.51 548.5,-268.08 581,-255 739.51,-191.2 927.63,-110.4 998.79,-79.65"/>
<polygon fill="midnightblue" stroke="midnightblue" points="1000.25,-82.84 1008.04,-75.65 997.47,-76.41 1000.25,-82.84"/>
</g>
<!-- Node8 -->
<g id="node8" class="node">
<title>Node8</title>
<g id="a_node8"><a xlink:href="../../da/dac/angle_8h.html" target="_top" xlink:title=" ">
<polygon fill="none" stroke="black" points="519.5,-235.5 519.5,-254.5 572.5,-254.5 572.5,-235.5 519.5,-235.5"/>
<text text-anchor="middle" x="546" y="-242.5" font-family="Helvetica,sans-Serif" font-size="10.00">angle.h</text>
</a>
</g>
</g>
<!-- Node6&#45;&gt;Node8 -->
<g id="edge14" class="edge">
<title>Node6&#45;&gt;Node8</title>
<path fill="none" stroke="midnightblue" d="M477.17,-291.32C489.85,-282.98 509.23,-270.21 524.21,-260.35"/>
<polygon fill="midnightblue" stroke="midnightblue" points="526.43,-263.08 532.86,-254.65 522.58,-257.23 526.43,-263.08"/>
</g>
<!-- Node9 -->
<g id="node9" class="node">
<title>Node9</title>
<g id="a_node9"><a xlink:href="../../dd/dfb/math_helpers_8h.html" target="_top" xlink:title=" ">
<polygon fill="none" stroke="black" points="410.5,-179.5 410.5,-198.5 517.5,-198.5 517.5,-179.5 410.5,-179.5"/>
<text text-anchor="middle" x="464" y="-186.5" font-family="Helvetica,sans-Serif" font-size="10.00">../../mathHelpers.h</text>
</a>
</g>
</g>
<!-- Node6&#45;&gt;Node9 -->
<g id="edge40" class="edge">
<title>Node6&#45;&gt;Node9</title>
<path fill="none" stroke="midnightblue" d="M464,-291.37C464,-273.62 464,-232.67 464,-208.6"/>
<polygon fill="midnightblue" stroke="midnightblue" points="467.5,-208.59 464,-198.59 460.5,-208.59 467.5,-208.59"/>
</g>
<!-- Node10 -->
<g id="node10" class="node">
<title>Node10</title>
<g id="a_node10"><a xlink:title=" ">
<polygon fill="none" stroke="#bfbfbf" points="142.5,-118 142.5,-137 189.5,-137 189.5,-118 142.5,-118"/>
<text text-anchor="middle" x="166" y="-125" font-family="Helvetica,sans-Serif" font-size="10.00">cmath</text>
</a>
</g>
</g>
<!-- Node6&#45;&gt;Node10 -->
<g id="edge41" class="edge">
<title>Node6&#45;&gt;Node10</title>
<path fill="none" stroke="midnightblue" d="M443.79,-291.38C424.12,-282.8 393.54,-268.92 368,-255 299.96,-217.92 223.37,-167.4 187.15,-142.94"/>
<polygon fill="midnightblue" stroke="midnightblue" points="188.68,-139.75 178.44,-137.04 184.76,-145.55 188.68,-139.75"/>
</g>
<!-- Node7&#45;&gt;Node2 -->
<g id="edge11" class="edge">
<title>Node7&#45;&gt;Node2</title>
<path fill="none" stroke="midnightblue" d="M1006.13,-56.44C983.22,-47.48 947.02,-33.31 921.13,-23.18"/>
<polygon fill="midnightblue" stroke="midnightblue" points="922.35,-19.9 911.76,-19.52 919.8,-26.42 922.35,-19.9"/>
</g>
<!-- Node7&#45;&gt;Node3 -->
<g id="edge12" class="edge">
<title>Node7&#45;&gt;Node3</title>
<path fill="none" stroke="midnightblue" d="M1037.96,-56.32C1047.13,-48.34 1060.94,-36.31 1072.03,-26.65"/>
<polygon fill="midnightblue" stroke="midnightblue" points="1074.62,-29.04 1079.86,-19.83 1070.02,-23.76 1074.62,-29.04"/>
</g>
<!-- Node8&#45;&gt;Node2 -->
<g id="edge16" class="edge">
<title>Node8&#45;&gt;Node2</title>
<path fill="none" stroke="midnightblue" d="M572.55,-235.92C630.54,-217.05 769.8,-164.77 851,-76 863.88,-61.92 874.69,-42.93 881.63,-29.11"/>
<polygon fill="midnightblue" stroke="midnightblue" points="884.97,-30.25 886.16,-19.72 878.66,-27.21 884.97,-30.25"/>
</g>
<!-- Node8&#45;&gt;Node3 -->
<g id="edge15" class="edge">
<title>Node8&#45;&gt;Node3</title>
<path fill="none" stroke="midnightblue" d="M572.74,-241.34C684.97,-229.59 1115.83,-178.27 1195,-76 1214.55,-50.74 1175.78,-32.87 1139.95,-22.34"/>
<polygon fill="midnightblue" stroke="midnightblue" points="1140.54,-18.87 1129.97,-19.56 1138.67,-25.61 1140.54,-18.87"/>
</g>
<!-- Node8&#45;&gt;Node4 -->
<g id="edge17" class="edge">
<title>Node8&#45;&gt;Node4</title>
<path fill="none" stroke="midnightblue" d="M547.26,-235.19C550.07,-211.71 554.25,-147.01 521,-112 474.38,-62.92 434.83,-103.56 373,-76 343.82,-62.99 314.05,-40.89 295.79,-26.12"/>
<polygon fill="midnightblue" stroke="midnightblue" points="297.75,-23.2 287.81,-19.53 293.29,-28.59 297.75,-23.2"/>
</g>
<!-- Node8&#45;&gt;Node9 -->
<g id="edge18" class="edge">
<title>Node8&#45;&gt;Node9</title>
<path fill="none" stroke="midnightblue" d="M532.83,-235.32C520.15,-226.98 500.77,-214.21 485.79,-204.35"/>
<polygon fill="midnightblue" stroke="midnightblue" points="487.42,-201.23 477.14,-198.65 483.57,-207.08 487.42,-201.23"/>
</g>
<!-- Node9&#45;&gt;Node2 -->
<g id="edge19" class="edge">
<title>Node9&#45;&gt;Node2</title>
<path fill="none" stroke="midnightblue" d="M517.92,-183.83C569.37,-178.57 648.38,-167.1 713,-143 767.71,-122.6 780.02,-111.99 826,-76 844.8,-61.29 863.64,-41.37 875.97,-27.47"/>
<polygon fill="midnightblue" stroke="midnightblue" points="878.81,-29.54 882.74,-19.7 873.53,-24.94 878.81,-29.54"/>
</g>
<!-- Node9&#45;&gt;Node3 -->
<g id="edge22" class="edge">
<title>Node9&#45;&gt;Node3</title>
<path fill="none" stroke="midnightblue" d="M517.51,-183.54C577.21,-177.71 676.26,-165.49 759,-143 819.46,-126.57 991.44,-53.51 1060.63,-23.72"/>
<polygon fill="midnightblue" stroke="midnightblue" points="1062.27,-26.82 1070.07,-19.65 1059.5,-20.39 1062.27,-26.82"/>
</g>
<!-- Node9&#45;&gt;Node5 -->
<g id="edge39" class="edge">
<title>Node9&#45;&gt;Node5</title>
<path fill="none" stroke="midnightblue" d="M410.09,-187.87C361.45,-185.42 289.68,-175.83 237,-143 214.39,-128.91 197.33,-102.61 187.75,-84.96"/>
<polygon fill="midnightblue" stroke="midnightblue" points="190.68,-83 182.99,-75.71 184.46,-86.21 190.68,-83"/>
</g>
<!-- Node9&#45;&gt;Node10 -->
<g id="edge20" class="edge">
<title>Node9&#45;&gt;Node10</title>
<path fill="none" stroke="midnightblue" d="M410.31,-181.79C357.26,-174.93 274.13,-162.25 204,-143 201.35,-142.27 198.62,-141.43 195.91,-140.52"/>
<polygon fill="midnightblue" stroke="midnightblue" points="196.86,-137.15 186.27,-137.06 194.5,-143.74 196.86,-137.15"/>
</g>
<!-- Node11 -->
<g id="node11" class="node">
<title>Node11</title>
<g id="a_node11"><a xlink:title=" ">
<polygon fill="none" stroke="#bfbfbf" points="382.5,-56.5 382.5,-75.5 451.5,-75.5 451.5,-56.5 382.5,-56.5"/>
<text text-anchor="middle" x="417" y="-63.5" font-family="Helvetica,sans-Serif" font-size="10.00">type_traits</text>
</a>
</g>
</g>
<!-- Node9&#45;&gt;Node11 -->
<g id="edge21" class="edge">
<title>Node9&#45;&gt;Node11</title>
<path fill="none" stroke="midnightblue" d="M458.41,-179.33C452.89,-170.48 444.5,-156.2 439,-143 431.1,-124.02 424.92,-101.25 421.14,-85.62"/>
<polygon fill="midnightblue" stroke="midnightblue" points="424.5,-84.6 418.83,-75.65 417.68,-86.18 424.5,-84.6"/>
</g>
<!-- Node12 -->
<g id="node12" class="node">
<title>Node12</title>
<g id="a_node12"><a xlink:title=" ">
<polygon fill="none" stroke="#bfbfbf" points="448,-118 448,-137 512,-137 512,-118 448,-118"/>
<text text-anchor="middle" x="480" y="-125" font-family="Helvetica,sans-Serif" font-size="10.00">algorithm</text>
</a>
</g>
</g>
<!-- Node9&#45;&gt;Node12 -->
<g id="edge23" class="edge">
<title>Node9&#45;&gt;Node12</title>
<path fill="none" stroke="midnightblue" d="M466.29,-179.48C468.57,-170.99 472.15,-157.7 475.07,-146.82"/>
<polygon fill="midnightblue" stroke="midnightblue" points="478.49,-147.57 477.71,-137.01 471.74,-145.76 478.49,-147.57"/>
</g>
<!-- Node13 -->
<g id="node13" class="node">
<title>Node13</title>
<g id="a_node13"><a xlink:href="../../d5/dbb/limes__assert_8h.html" target="_top" xlink:title=" ">
<polygon fill="none" stroke="black" points="568,-118 568,-137 704,-137 704,-118 568,-118"/>
<text text-anchor="middle" x="636" y="-125" font-family="Helvetica,sans-Serif" font-size="10.00">../system/limes_assert.h</text>
</a>
</g>
</g>
<!-- Node9&#45;&gt;Node13 -->
<g id="edge24" class="edge">
<title>Node9&#45;&gt;Node13</title>
<path fill="none" stroke="midnightblue" d="M488.64,-179.48C518.28,-169.22 568.18,-151.96 601.6,-140.4"/>
<polygon fill="midnightblue" stroke="midnightblue" points="603.1,-143.59 611.4,-137.01 600.81,-136.97 603.1,-143.59"/>
</g>
<!-- Node17 -->
<g id="node17" class="node">
<title>Node17</title>
<g id="a_node17"><a xlink:href="../../d0/d00/compiler__defs_8h.html" target="_top" xlink:title=" ">
<polygon fill="none" stroke="black" points="246.5,-112.5 246.5,-142.5 353.5,-142.5 353.5,-112.5 246.5,-112.5"/>
<text text-anchor="start" x="254.5" y="-130.5" font-family="Helvetica,sans-Serif" font-size="10.00">../system/compiler</text>
<text text-anchor="middle" x="300" y="-119.5" font-family="Helvetica,sans-Serif" font-size="10.00">_defs.h</text>
</a>
</g>
</g>
<!-- Node9&#45;&gt;Node17 -->
<g id="edge36" class="edge">
<title>Node9&#45;&gt;Node17</title>
<path fill="none" stroke="midnightblue" d="M440.5,-179.48C416.53,-170.78 378.63,-157.03 348.23,-146"/>
<polygon fill="midnightblue" stroke="midnightblue" points="349.25,-142.64 338.65,-142.52 346.86,-149.22 349.25,-142.64"/>
</g>
<!-- Node13&#45;&gt;Node2 -->
<g id="edge26" class="edge">
<title>Node13&#45;&gt;Node2</title>
<path fill="none" stroke="midnightblue" d="M673.16,-117.99C706.16,-109.67 755.17,-95.43 795,-76 823.53,-62.08 853.23,-40.41 871.66,-25.97"/>
<polygon fill="midnightblue" stroke="midnightblue" points="873.88,-28.67 879.53,-19.71 869.52,-23.2 873.88,-28.67"/>
</g>
<!-- Node13&#45;&gt;Node3 -->
<g id="edge25" class="edge">
<title>Node13&#45;&gt;Node3</title>
<path fill="none" stroke="midnightblue" d="M669.75,-117.91C750.78,-97.3 956.25,-45.03 1046.43,-22.08"/>
<polygon fill="midnightblue" stroke="midnightblue" points="1047.51,-25.42 1056.33,-19.56 1045.78,-18.64 1047.51,-25.42"/>
</g>
<!-- Node13&#45;&gt;Node4 -->
<g id="edge34" class="edge">
<title>Node13&#45;&gt;Node4</title>
<path fill="none" stroke="midnightblue" d="M609.88,-117.92C582.03,-108.54 536.84,-92.6 499,-76 481.16,-68.17 478.24,-62.83 460,-56 419.32,-40.77 371.59,-29.19 335.22,-21.6"/>
<polygon fill="midnightblue" stroke="midnightblue" points="335.78,-18.14 325.28,-19.56 334.37,-25 335.78,-18.14"/>
</g>
<!-- Node13&#45;&gt;Node5 -->
<g id="edge27" class="edge">
<title>Node13&#45;&gt;Node5</title>
<path fill="none" stroke="midnightblue" d="M570.52,-117.98C486.87,-107.08 342.4,-88.27 254.28,-76.8"/>
<polygon fill="midnightblue" stroke="midnightblue" points="254.72,-73.33 244.36,-75.51 253.82,-80.27 254.72,-73.33"/>
</g>
<!-- Node13&#45;&gt;Node11 -->
<g id="edge28" class="edge">
<title>Node13&#45;&gt;Node11</title>
<path fill="none" stroke="midnightblue" d="M604.62,-117.98C566.08,-107.5 500.59,-89.71 458.08,-78.16"/>
<polygon fill="midnightblue" stroke="midnightblue" points="458.89,-74.75 448.32,-75.51 457.05,-81.51 458.89,-74.75"/>
</g>
<!-- Node14 -->
<g id="node14" class="node">
<title>Node14</title>
<g id="a_node14"><a xlink:title=" ">
<polygon fill="none" stroke="#bfbfbf" points="508.5,-56.5 508.5,-75.5 553.5,-75.5 553.5,-56.5 508.5,-56.5"/>
<text text-anchor="middle" x="531" y="-63.5" font-family="Helvetica,sans-Serif" font-size="10.00">utility</text>
</a>
</g>
</g>
<!-- Node13&#45;&gt;Node14 -->
<g id="edge29" class="edge">
<title>Node13&#45;&gt;Node14</title>
<path fill="none" stroke="midnightblue" d="M620.96,-117.98C603.72,-108.21 575.26,-92.08 554.97,-80.58"/>
<polygon fill="midnightblue" stroke="midnightblue" points="556.44,-77.39 546.02,-75.51 552.99,-83.48 556.44,-77.39"/>
</g>
<!-- Node15 -->
<g id="node15" class="node">
<title>Node15</title>
<g id="a_node15"><a xlink:href="../../d1/d57/_ignore_unused_8h.html" target="_top" xlink:title=" ">
<polygon fill="none" stroke="black" points="572,-56.5 572,-75.5 700,-75.5 700,-56.5 572,-56.5"/>
<text text-anchor="middle" x="636" y="-63.5" font-family="Helvetica,sans-Serif" font-size="10.00">../misc/IgnoreUnused.h</text>
</a>
</g>
</g>
<!-- Node13&#45;&gt;Node15 -->
<g id="edge30" class="edge">
<title>Node13&#45;&gt;Node15</title>
<path fill="none" stroke="midnightblue" d="M636,-117.98C636,-109.58 636,-96.48 636,-85.66"/>
<polygon fill="midnightblue" stroke="midnightblue" points="639.5,-85.51 636,-75.51 632.5,-85.51 639.5,-85.51"/>
</g>
<!-- Node16 -->
<g id="node16" class="node">
<title>Node16</title>
<g id="a_node16"><a xlink:title=" ">
<polygon fill="none" stroke="#bfbfbf" points="718,-56.5 718,-75.5 786,-75.5 786,-56.5 718,-56.5"/>
<text text-anchor="middle" x="752" y="-63.5" font-family="Helvetica,sans-Serif" font-size="10.00">filesystem</text>
</a>
</g>
</g>
<!-- Node13&#45;&gt;Node16 -->
<g id="edge35" class="edge">
<title>Node13&#45;&gt;Node16</title>
<path fill="none" stroke="midnightblue" d="M652.62,-117.98C671.92,-108.08 703.96,-91.64 726.43,-80.12"/>
<polygon fill="midnightblue" stroke="midnightblue" points="728.11,-83.19 735.41,-75.51 724.92,-76.96 728.11,-83.19"/>
</g>
<!-- Node15&#45;&gt;Node2 -->
<g id="edge32" class="edge">
<title>Node15&#45;&gt;Node2</title>
<path fill="none" stroke="midnightblue" d="M676.25,-56.44C720.65,-47 792.15,-31.8 840.09,-21.61"/>
<polygon fill="midnightblue" stroke="midnightblue" points="840.89,-25.02 849.94,-19.52 839.43,-18.17 840.89,-25.02"/>
</g>
<!-- Node15&#45;&gt;Node3 -->
<g id="edge31" class="edge">
<title>Node15&#45;&gt;Node3</title>
<path fill="none" stroke="midnightblue" d="M700.09,-57.08C703.1,-56.71 706.08,-56.35 709,-56 825.21,-41.97 961.41,-26 1035.39,-17.36"/>
<polygon fill="midnightblue" stroke="midnightblue" points="1035.89,-20.83 1045.41,-16.19 1035.07,-13.87 1035.89,-20.83"/>
</g>
<!-- Node15&#45;&gt;Node4 -->
<g id="edge33" class="edge">
<title>Node15&#45;&gt;Node4</title>
<path fill="none" stroke="midnightblue" d="M579.27,-56.44C513.45,-46.51 405.37,-30.21 338.13,-20.07"/>
<polygon fill="midnightblue" stroke="midnightblue" points="338.52,-16.59 328.11,-18.56 337.47,-23.51 338.52,-16.59"/>
</g>
<!-- Node17&#45;&gt;Node4 -->
<g id="edge37" class="edge">
<title>Node17&#45;&gt;Node4</title>
<path fill="none" stroke="midnightblue" d="M297.3,-112.34C293.34,-91.53 285.94,-52.66 281.54,-29.58"/>
<polygon fill="midnightblue" stroke="midnightblue" points="284.96,-28.84 279.65,-19.67 278.08,-30.15 284.96,-28.84"/>
</g>
<!-- Node17&#45;&gt;Node5 -->
<g id="edge38" class="edge">
<title>Node17&#45;&gt;Node5</title>
<path fill="none" stroke="midnightblue" d="M271.32,-112.4C251.48,-102.64 225.24,-89.74 205.81,-80.18"/>
<polygon fill="midnightblue" stroke="midnightblue" points="207.12,-76.93 196.61,-75.66 204.04,-83.21 207.12,-76.93"/>
</g>
<!-- Node18&#45;&gt;Node2 -->
<g id="edge43" class="edge">
<title>Node18&#45;&gt;Node2</title>
<path fill="none" stroke="midnightblue" d="M1117.75,-57.94C1072.88,-48.69 993.82,-32.4 941.66,-21.65"/>
<polygon fill="midnightblue" stroke="midnightblue" points="942.11,-18.17 931.61,-19.58 940.7,-25.02 942.11,-18.17"/>
</g>
<!-- Node18&#45;&gt;Node3 -->
<g id="edge44" class="edge">
<title>Node18&#45;&gt;Node3</title>
<path fill="none" stroke="midnightblue" d="M1142.04,-56.32C1132.87,-48.34 1119.06,-36.31 1107.97,-26.65"/>
<polygon fill="midnightblue" stroke="midnightblue" points="1109.98,-23.76 1100.14,-19.83 1105.38,-29.04 1109.98,-23.76"/>
</g>
</g>
</svg>
        <g id="navigator" transform="translate(0 0)" fill="#404254">
                <rect fill="#f2f5e9" fill-opacity="0.5" stroke="#606060" stroke-width=".5" x="0" y="0" width="60" height="60"/>
                <use id="zoomplus" xlink:href="#zoomPlus" x="17" y="9" onmousedown="handleZoom(evt,'in')"/>
                <use id="zoomminus" xlink:href="#zoomMin" x="42" y="9" onmousedown="handleZoom(evt,'out')"/>
                <use id="reset" xlink:href="#resetDef" x="30" y="36" onmousedown="handleReset()"/>
                <g id="arrowUp" xlink:href="#dirArrow" transform="translate(30 24)" onmousedown="handlePan(0,-1)">
                  <use xlink:href="#rim" fill="#404040">
                        <set attributeName="fill" to="#808080" begin="arrowUp.mouseover" end="arrowUp.mouseout"/>
                  </use>
                  <path fill="none" stroke="white" stroke-width="1.5" d="M0,-3.0v7 M-2.5,-0.5L0,-3.0L2.5,-0.5"/>
                </g>
                <g id="arrowRight" xlink:href="#dirArrow" transform="rotate(90) translate(36 -43)" onmousedown="handlePan(1,0)">
                  <use xlink:href="#rim" fill="#404040">
                        <set attributeName="fill" to="#808080" begin="arrowRight.mouseover" end="arrowRight.mouseout"/>
                  </use>
                  <path fill="none" stroke="white" stroke-width="1.5" d="M0,-3.0v7 M-2.5,-0.5L0,-3.0L2.5,-0.5"/>
                </g>
                <g id="arrowDown" xlink:href="#dirArrow" transform="rotate(180) translate(-30 -48)" onmousedown="handlePan(0,1)">
                  <use xlink:href="#rim" fill="#404040">
                        <set attributeName="fill" to="#808080" begin="arrowDown.mouseover" end="arrowDown.mouseout"/>
                  </use>
                  <path fill="none" stroke="white" stroke-width="1.5" d="M0,-3.0v7 M-2.5,-0.5L0,-3.0L2.5,-0.5"/>
                </g>
                <g id="arrowLeft" xlink:href="#dirArrow" transform="rotate(270) translate(-36 17)" onmousedown="handlePan(-1,0)">
                  <use xlink:href="#rim" fill="#404040">
                        <set attributeName="fill" to="#808080" begin="arrowLeft.mouseover" end="arrowLeft.mouseout"/>
                  </use>
                  <path fill="none" stroke="white" stroke-width="1.5" d="M0,-3.0v7 M-2.5,-0.5L0,-3.0L2.5,-0.5"/>
                </g>
        </g>
        <svg viewBox="0 0 15 15" width="100%" height="30px" preserveAspectRatio="xMaxYMin meet">
         <g id="arrow_out" transform="scale(0.3 0.3)">
          <a xlink:href="triangular__prism_8h__incl_org.svg" target="_base">
           <rect id="button" ry="5" rx="5" y="6" x="6" height="38" width="38"
                fill="#f2f5e9" fill-opacity="0.5" stroke="#606060" stroke-width="1.0"/>
           <path id="arrow"
             d="M 11.500037,31.436501 C 11.940474,20.09759 22.043105,11.32322 32.158766,21.979434 L 37.068811,17.246167 C 37.068811,17.246167 37.088388,32 37.088388,32 L 22.160133,31.978069 C 22.160133,31.978069 26.997745,27.140456 26.997745,27.140456 C 18.528582,18.264221 13.291696,25.230495 11.500037,31.436501 z"
             style="fill:#404040;"/>
          </a>
         </g>
        </svg>
</svg>
