<?xml version="1.0" encoding="UTF-8" standalone="no"?>
<!DOCTYPE svg PUBLIC "-//W3C//DTD SVG 1.1//EN"
 "http://www.w3.org/Graphics/SVG/1.1/DTD/svg11.dtd">
<!-- Generated by graphviz version 2.43.0 (0)
 -->
<!-- Title: triangular_prism.h Pages: 1 -->
<svg width="699pt" height="308pt"
 viewBox="0.00 0.00 698.50 308.00" xmlns="http://www.w3.org/2000/svg" xmlns:xlink="http://www.w3.org/1999/xlink">
<g id="graph0" class="graph" transform="scale(1 1) rotate(0) translate(4 304)">
<title>triangular_prism.h</title>
<!-- Node1 -->
<g id="node1" class="node">
<title>Node1</title>
<g id="a_node1"><a xlink:title=" ">
<polygon fill="#bfbfbf" stroke="black" points="181,-280.5 181,-299.5 287,-299.5 287,-280.5 181,-280.5"/>
<text text-anchor="middle" x="234" y="-287.5" font-family="Helvetica,sans-Serif" font-size="10.00">triangular_prism.h</text>
</a>
</g>
</g>
<!-- Node2 -->
<g id="node2" class="node">
<title>Node2</title>
<g id="a_node2"><a xlink:href="../../da/d0b/limes__namespace_8h.html" target="_top" xlink:title=" ">
<polygon fill="none" stroke="black" points="162,-56.5 162,-75.5 276,-75.5 276,-56.5 162,-56.5"/>
<text text-anchor="middle" x="219" y="-63.5" font-family="Helvetica,sans-Serif" font-size="10.00">limes_namespace.h</text>
</a>
</g>
</g>
<!-- Node1&#45;&gt;Node2 -->
<g id="edge1" class="edge">
<title>Node1&#45;&gt;Node2</title>
<path fill="none" stroke="midnightblue" d="M221.96,-280.49C193.24,-259.34 121.17,-201.11 95,-132 83.63,-101.98 117,-85.63 151.97,-76.84"/>
<polygon fill="midnightblue" stroke="midnightblue" points="152.89,-80.22 161.84,-74.56 151.31,-73.4 152.89,-80.22"/>
</g>
<!-- Node3 -->
<g id="node3" class="node">
<title>Node3</title>
<g id="a_node3"><a xlink:title=" ">
<polygon fill="none" stroke="#bfbfbf" points="415.5,-56.5 415.5,-75.5 504.5,-75.5 504.5,-56.5 415.5,-56.5"/>
<text text-anchor="middle" x="460" y="-63.5" font-family="Helvetica,sans-Serif" font-size="10.00">limes_export.h</text>
</a>
</g>
</g>
<!-- Node1&#45;&gt;Node3 -->
<g id="edge2" class="edge">
<title>Node1&#45;&gt;Node3</title>
<path fill="none" stroke="midnightblue" d="M287.03,-285.18C370.45,-275.78 527.15,-243.38 569,-132 579.71,-103.5 547.09,-86.82 514.8,-77.52"/>
<polygon fill="midnightblue" stroke="midnightblue" points="515.4,-74.05 504.84,-74.86 513.6,-80.82 515.4,-74.05"/>
</g>
<!-- Node4 -->
<g id="node4" class="node">
<title>Node4</title>
<g id="a_node4"><a xlink:title=" ">
<polygon fill="none" stroke="#bfbfbf" points="150,-0.5 150,-19.5 250,-19.5 250,-0.5 150,-0.5"/>
<text text-anchor="middle" x="200" y="-7.5" font-family="Helvetica,sans-Serif" font-size="10.00">limes_platform.h</text>
</a>
</g>
</g>
<!-- Node1&#45;&gt;Node4 -->
<g id="edge3" class="edge">
<title>Node1&#45;&gt;Node4</title>
<path fill="none" stroke="midnightblue" d="M180.9,-286.74C111.86,-280.62 0,-258.45 0,-179 0,-179 0,-179 0,-121 0,-56.47 80.91,-29.53 139.81,-18.46"/>
<polygon fill="midnightblue" stroke="midnightblue" points="140.55,-21.89 149.79,-16.7 139.33,-14.99 140.55,-21.89"/>
</g>
<!-- Node5 -->
<g id="node5" class="node">
<title>Node5</title>
<g id="a_node5"><a xlink:href="../../d3/d53/preprocessor_8h.html" target="_top" xlink:title=" ">
<polygon fill="none" stroke="black" points="549.5,-56.5 549.5,-75.5 690.5,-75.5 690.5,-56.5 549.5,-56.5"/>
<text text-anchor="middle" x="620" y="-63.5" font-family="Helvetica,sans-Serif" font-size="10.00">../../../misc/preprocessor.h</text>
</a>
</g>
</g>
<!-- Node1&#45;&gt;Node5 -->
<g id="edge4" class="edge">
<title>Node1&#45;&gt;Node5</title>
<path fill="none" stroke="midnightblue" d="M287.37,-286.48C339.06,-282.42 418.69,-271.79 482,-244 548.5,-214.81 567.42,-196.4 601,-132 608.64,-117.34 613.62,-99.17 616.56,-85.77"/>
<polygon fill="midnightblue" stroke="midnightblue" points="620.02,-86.32 618.56,-75.82 613.16,-84.94 620.02,-86.32"/>
</g>
<!-- Node6 -->
<g id="node6" class="node">
<title>Node6</title>
<g id="a_node6"><a xlink:href="../../dd/d6a/triangle_8h.html" target="_top" xlink:title=" ">
<polygon fill="none" stroke="black" points="261.5,-224.5 261.5,-243.5 350.5,-243.5 350.5,-224.5 261.5,-224.5"/>
<text text-anchor="middle" x="306" y="-231.5" font-family="Helvetica,sans-Serif" font-size="10.00">../2D/triangle.h</text>
</a>
</g>
</g>
<!-- Node1&#45;&gt;Node6 -->
<g id="edge6" class="edge">
<title>Node1&#45;&gt;Node6</title>
<path fill="none" stroke="midnightblue" d="M245.57,-280.32C256.42,-272.18 272.88,-259.84 285.88,-250.09"/>
<polygon fill="midnightblue" stroke="midnightblue" points="288.32,-252.63 294.22,-243.83 284.12,-247.03 288.32,-252.63"/>
</g>
<!-- Node19 -->
<g id="node11" class="node">
<title>Node19</title>
<g id="a_node11"><a xlink:href="../../d7/d88/3_dshape_8h.html" target="_top" xlink:title=" ">
<polygon fill="none" stroke="black" points="104,-112.5 104,-131.5 172,-131.5 172,-112.5 104,-112.5"/>
<text text-anchor="middle" x="138" y="-119.5" font-family="Helvetica,sans-Serif" font-size="10.00">3Dshape.h</text>
</a>
</g>
</g>
<!-- Node1&#45;&gt;Node19 -->
<g id="edge24" class="edge">
<title>Node1&#45;&gt;Node19</title>
<path fill="none" stroke="midnightblue" d="M228.84,-280.08C213.6,-253.72 168.58,-175.88 148.21,-140.66"/>
<polygon fill="midnightblue" stroke="midnightblue" points="150.99,-138.47 142.96,-131.57 144.93,-141.98 150.99,-138.47"/>
</g>
<!-- Node5&#45;&gt;Node4 -->
<g id="edge5" class="edge">
<title>Node5&#45;&gt;Node4</title>
<path fill="none" stroke="midnightblue" d="M553.45,-56.44C472.76,-46.07 337.95,-28.74 260.22,-18.74"/>
<polygon fill="midnightblue" stroke="midnightblue" points="260.47,-15.25 250.11,-17.44 259.58,-22.19 260.47,-15.25"/>
</g>
<!-- Node6&#45;&gt;Node2 -->
<g id="edge7" class="edge">
<title>Node6&#45;&gt;Node2</title>
<path fill="none" stroke="midnightblue" d="M273.6,-224.49C255.09,-217.81 233.36,-206.46 222,-188 202.52,-156.36 208.52,-110.7 214.09,-85.48"/>
<polygon fill="midnightblue" stroke="midnightblue" points="217.5,-86.28 216.46,-75.74 210.7,-84.63 217.5,-86.28"/>
</g>
<!-- Node6&#45;&gt;Node3 -->
<g id="edge8" class="edge">
<title>Node6&#45;&gt;Node3</title>
<path fill="none" stroke="midnightblue" d="M350.77,-229.54C409.05,-222.34 508.7,-200.17 553,-132 569,-107.38 534.83,-89.39 503.49,-78.66"/>
<polygon fill="midnightblue" stroke="midnightblue" points="504.51,-75.31 493.92,-75.56 502.35,-81.97 504.51,-75.31"/>
</g>
<!-- Node6&#45;&gt;Node4 -->
<g id="edge9" class="edge">
<title>Node6&#45;&gt;Node4</title>
<path fill="none" stroke="midnightblue" d="M261.13,-225.93C210.67,-215.31 131.07,-189.91 95,-132 68.04,-88.73 133.52,-45.39 172.89,-24.26"/>
<polygon fill="midnightblue" stroke="midnightblue" points="174.54,-27.35 181.79,-19.62 171.3,-21.14 174.54,-27.35"/>
</g>
<!-- Node6&#45;&gt;Node5 -->
<g id="edge13" class="edge">
<title>Node6&#45;&gt;Node5</title>
<path fill="none" stroke="midnightblue" d="M350.75,-231.77C396.21,-228.72 467.25,-218.88 520,-188 562.96,-162.85 595.53,-111.99 610.66,-84.91"/>
<polygon fill="midnightblue" stroke="midnightblue" points="613.91,-86.26 615.59,-75.8 607.75,-82.93 613.91,-86.26"/>
</g>
<!-- Node7 -->
<g id="node7" class="node">
<title>Node7</title>
<g id="a_node7"><a xlink:href="../../d8/d23/2_dshape_8h.html" target="_top" xlink:title=" ">
<polygon fill="none" stroke="black" points="266,-112.5 266,-131.5 334,-131.5 334,-112.5 266,-112.5"/>
<text text-anchor="middle" x="300" y="-119.5" font-family="Helvetica,sans-Serif" font-size="10.00">2Dshape.h</text>
</a>
</g>
</g>
<!-- Node6&#45;&gt;Node7 -->
<g id="edge10" class="edge">
<title>Node6&#45;&gt;Node7</title>
<path fill="none" stroke="midnightblue" d="M305.53,-224.37C304.56,-206.62 302.33,-165.67 301.01,-141.6"/>
<polygon fill="midnightblue" stroke="midnightblue" points="304.51,-141.39 300.47,-131.59 297.52,-141.77 304.51,-141.39"/>
</g>
<!-- Node8 -->
<g id="node8" class="node">
<title>Node8</title>
<g id="a_node8"><a xlink:href="../../da/dac/angle_8h.html" target="_top" xlink:title=" ">
<polygon fill="none" stroke="black" points="335.5,-168.5 335.5,-187.5 388.5,-187.5 388.5,-168.5 335.5,-168.5"/>
<text text-anchor="middle" x="362" y="-175.5" font-family="Helvetica,sans-Serif" font-size="10.00">angle.h</text>
</a>
</g>
</g>
<!-- Node6&#45;&gt;Node8 -->
<g id="edge14" class="edge">
<title>Node6&#45;&gt;Node8</title>
<path fill="none" stroke="midnightblue" d="M315,-224.32C323.19,-216.42 335.51,-204.55 345.47,-194.94"/>
<polygon fill="midnightblue" stroke="midnightblue" points="348.07,-197.29 352.84,-187.83 343.21,-192.26 348.07,-197.29"/>
</g>
<!-- Node9 -->
<g id="node9" class="node">
<title>Node9</title>
<g id="a_node9"><a xlink:href="../../dc/d5c/math_functions_8h.html" target="_top" xlink:title=" ">
<polygon fill="none" stroke="red" points="428,-112.5 428,-131.5 544,-131.5 544,-112.5 428,-112.5"/>
<text text-anchor="middle" x="486" y="-119.5" font-family="Helvetica,sans-Serif" font-size="10.00">../../mathFunctions.h</text>
</a>
</g>
</g>
<!-- Node6&#45;&gt;Node9 -->
<g id="edge22" class="edge">
<title>Node6&#45;&gt;Node9</title>
<path fill="none" stroke="midnightblue" d="M326.29,-224.35C345.31,-215.95 374.29,-202.39 398,-188 423.16,-172.73 450.11,-152.12 467.46,-138.24"/>
<polygon fill="midnightblue" stroke="midnightblue" points="470.03,-140.67 475.6,-131.66 465.62,-135.23 470.03,-140.67"/>
</g>
<!-- Node13 -->
<g id="node10" class="node">
<title>Node13</title>
<g id="a_node10"><a xlink:title=" ">
<polygon fill="none" stroke="#bfbfbf" points="230.5,-168.5 230.5,-187.5 277.5,-187.5 277.5,-168.5 230.5,-168.5"/>
<text text-anchor="middle" x="254" y="-175.5" font-family="Helvetica,sans-Serif" font-size="10.00">cmath</text>
</a>
</g>
</g>
<!-- Node6&#45;&gt;Node13 -->
<g id="edge23" class="edge">
<title>Node6&#45;&gt;Node13</title>
<path fill="none" stroke="midnightblue" d="M297.41,-224.08C289.84,-216.22 278.62,-204.57 269.49,-195.08"/>
<polygon fill="midnightblue" stroke="midnightblue" points="271.88,-192.53 262.43,-187.75 266.84,-197.38 271.88,-192.53"/>
</g>
<!-- Node7&#45;&gt;Node2 -->
<g id="edge11" class="edge">
<title>Node7&#45;&gt;Node2</title>
<path fill="none" stroke="midnightblue" d="M286.99,-112.32C274.47,-103.98 255.32,-91.21 240.53,-81.35"/>
<polygon fill="midnightblue" stroke="midnightblue" points="242.24,-78.29 231.98,-75.65 238.36,-84.11 242.24,-78.29"/>
</g>
<!-- Node7&#45;&gt;Node3 -->
<g id="edge12" class="edge">
<title>Node7&#45;&gt;Node3</title>
<path fill="none" stroke="midnightblue" d="M325.35,-112.44C352.27,-103.36 395,-88.94 425.09,-78.78"/>
<polygon fill="midnightblue" stroke="midnightblue" points="426.41,-82.03 434.77,-75.52 424.17,-75.4 426.41,-82.03"/>
</g>
<!-- Node8&#45;&gt;Node2 -->
<g id="edge16" class="edge">
<title>Node8&#45;&gt;Node2</title>
<path fill="none" stroke="midnightblue" d="M335.28,-170.63C312.38,-164.08 279.6,-151.95 257,-132 242.49,-119.19 232.05,-99.45 225.83,-85.09"/>
<polygon fill="midnightblue" stroke="midnightblue" points="229.05,-83.71 222.05,-75.75 222.56,-86.34 229.05,-83.71"/>
</g>
<!-- Node8&#45;&gt;Node3 -->
<g id="edge15" class="edge">
<title>Node8&#45;&gt;Node3</title>
<path fill="none" stroke="midnightblue" d="M369.69,-168.12C380.59,-155.56 401.2,-131.92 419,-112 427.65,-102.33 437.43,-91.58 445.27,-83.02"/>
<polygon fill="midnightblue" stroke="midnightblue" points="447.91,-85.32 452.09,-75.58 442.75,-80.59 447.91,-85.32"/>
</g>
<!-- Node8&#45;&gt;Node4 -->
<g id="edge17" class="edge">
<title>Node8&#45;&gt;Node4</title>
<path fill="none" stroke="midnightblue" d="M360.93,-168.44C359,-155.44 354.07,-130.31 343,-112 316.96,-68.91 264.74,-39.3 231.13,-23.76"/>
<polygon fill="midnightblue" stroke="midnightblue" points="232.32,-20.46 221.77,-19.57 229.47,-26.85 232.32,-20.46"/>
</g>
<!-- Node8&#45;&gt;Node9 -->
<g id="edge18" class="edge">
<title>Node8&#45;&gt;Node9</title>
<path fill="none" stroke="midnightblue" d="M381.65,-168.44C401.96,-159.6 433.9,-145.69 457.1,-135.59"/>
<polygon fill="midnightblue" stroke="midnightblue" points="458.67,-138.72 466.44,-131.52 455.88,-132.3 458.67,-138.72"/>
</g>
<!-- Node9&#45;&gt;Node2 -->
<g id="edge19" class="edge">
<title>Node9&#45;&gt;Node2</title>
<path fill="none" stroke="midnightblue" d="M443.69,-112.44C396.92,-102.98 321.54,-87.74 271.15,-77.55"/>
<polygon fill="midnightblue" stroke="midnightblue" points="271.6,-74.07 261.11,-75.52 270.22,-80.93 271.6,-74.07"/>
</g>
<!-- Node9&#45;&gt;Node3 -->
<g id="edge20" class="edge">
<title>Node9&#45;&gt;Node3</title>
<path fill="none" stroke="midnightblue" d="M481.71,-112.08C478.15,-104.69 472.98,-93.95 468.58,-84.81"/>
<polygon fill="midnightblue" stroke="midnightblue" points="471.71,-83.24 464.21,-75.75 465.4,-86.28 471.71,-83.24"/>
</g>
<!-- Node9&#45;&gt;Node5 -->
<g id="edge21" class="edge">
<title>Node9&#45;&gt;Node5</title>
<path fill="none" stroke="midnightblue" d="M507.23,-112.44C529.38,-103.52 564.32,-89.44 589.44,-79.32"/>
<polygon fill="midnightblue" stroke="midnightblue" points="590.9,-82.5 598.87,-75.52 588.28,-76.01 590.9,-82.5"/>
</g>
<!-- Node19&#45;&gt;Node2 -->
<g id="edge25" class="edge">
<title>Node19&#45;&gt;Node2</title>
<path fill="none" stroke="midnightblue" d="M151.01,-112.32C163.53,-103.98 182.68,-91.21 197.47,-81.35"/>
<polygon fill="midnightblue" stroke="midnightblue" points="199.64,-84.11 206.02,-75.65 195.76,-78.29 199.64,-84.11"/>
</g>
<!-- Node19&#45;&gt;Node3 -->
<g id="edge26" class="edge">
<title>Node19&#45;&gt;Node3</title>
<path fill="none" stroke="midnightblue" d="M172.15,-115.27C227.89,-105.93 338.84,-87.32 405.54,-76.13"/>
<polygon fill="midnightblue" stroke="midnightblue" points="406.16,-79.58 415.45,-74.47 405,-72.67 406.16,-79.58"/>
</g>
</g>
</svg>
