<?xml version="1.0" encoding="UTF-8" standalone="no"?>
<!DOCTYPE svg PUBLIC "-//W3C//DTD SVG 1.1//EN"
 "http://www.w3.org/Graphics/SVG/1.1/DTD/svg11.dtd">
<!-- Generated by graphviz version 2.43.0 (0)
 -->
<!-- Title: ds::LinkedListModel&lt; ObjectType &gt; Pages: 1 -->
<svg width="418pt" height="88pt"
 viewBox="0.00 0.00 418.00 88.00" xmlns="http://www.w3.org/2000/svg" xmlns:xlink="http://www.w3.org/1999/xlink">
<g id="graph0" class="graph" transform="scale(1 1) rotate(0) translate(4 84)">
<title>ds::LinkedListModel&lt; ObjectType &gt;</title>
<!-- Node1 -->
<g id="node1" class="node">
<title>Node1</title>
<g id="a_node1"><a xlink:title=" ">
<polygon fill="#bfbfbf" stroke="black" points="0,-24.5 0,-54.5 113,-54.5 113,-24.5 0,-24.5"/>
<text text-anchor="start" x="8" y="-42.5" font-family="Helvetica,sans-Serif" font-size="10.00">ds::LinkedListModel</text>
<text text-anchor="middle" x="56.5" y="-31.5" font-family="Helvetica,sans-Serif" font-size="10.00">&lt; ObjectType &gt;</text>
</a>
</g>
</g>
<!-- Node2 -->
<g id="node2" class="node">
<title>Node2</title>
<g id="a_node2"><a xlink:href="../../df/d16/structds_1_1_linked_list_model.html" target="_top" xlink:title=" ">
<polygon fill="none" stroke="black" points="276,-49.5 276,-79.5 407,-79.5 407,-49.5 276,-49.5"/>
<text text-anchor="start" x="284" y="-67.5" font-family="Helvetica,sans-Serif" font-size="10.00">ds::LinkedListModel</text>
<text text-anchor="middle" x="341.5" y="-56.5" font-family="Helvetica,sans-Serif" font-size="10.00">&lt; music::NoteLength &gt;</text>
</a>
</g>
</g>
<!-- Node1&#45;&gt;Node2 -->
<g id="edge1" class="edge">
<title>Node1&#45;&gt;Node2</title>
<path fill="none" stroke="orange" stroke-dasharray="5,2" d="M123.22,-45.31C169.16,-49.36 230.2,-54.76 275.89,-58.79"/>
<polygon fill="orange" stroke="orange" points="123.34,-41.8 113.07,-44.41 122.73,-48.78 123.34,-41.8"/>
<text text-anchor="middle" x="193" y="-58.5" font-family="Helvetica,sans-Serif" font-size="10.00"> &lt; music::NoteLength &gt;</text>
</g>
<!-- Node3 -->
<g id="node3" class="node">
<title>Node3</title>
<g id="a_node3"><a xlink:href="../../df/d16/structds_1_1_linked_list_model.html" target="_top" xlink:title=" ">
<polygon fill="none" stroke="black" points="273,-0.5 273,-30.5 410,-30.5 410,-0.5 273,-0.5"/>
<text text-anchor="start" x="281" y="-18.5" font-family="Helvetica,sans-Serif" font-size="10.00">ds::LinkedListModel</text>
<text text-anchor="middle" x="341.5" y="-7.5" font-family="Helvetica,sans-Serif" font-size="10.00">&lt; ds::LinkedList::Node &gt;</text>
</a>
</g>
</g>
<!-- Node1&#45;&gt;Node3 -->
<g id="edge2" class="edge">
<title>Node1&#45;&gt;Node3</title>
<path fill="none" stroke="orange" stroke-dasharray="5,2" d="M123.33,-32.23C125.92,-31.98 128.48,-31.73 131,-31.5 178.4,-27.11 231.92,-23.04 272.99,-20.1"/>
<polygon fill="orange" stroke="orange" points="122.86,-28.76 113.26,-33.24 123.56,-35.72 122.86,-28.76"/>
<text text-anchor="middle" x="193" y="-34.5" font-family="Helvetica,sans-Serif" font-size="10.00"> &lt; ds::LinkedList::Node &gt;</text>
</g>
</g>
</svg>
