<?xml version="1.0" encoding="UTF-8" standalone="no"?>
<!DOCTYPE svg PUBLIC "-//W3C//DTD SVG 1.1//EN"
 "http://www.w3.org/Graphics/SVG/1.1/DTD/svg11.dtd">
<!-- Generated by graphviz version 2.43.0 (0)
 -->
<!-- Title: hexagon.h Pages: 1 -->
<svg width="515pt" height="207pt"
 viewBox="0.00 0.00 514.50 207.00" xmlns="http://www.w3.org/2000/svg" xmlns:xlink="http://www.w3.org/1999/xlink">
<g id="graph0" class="graph" transform="scale(1 1) rotate(0) translate(4 203)">
<title>hexagon.h</title>
<!-- Node1 -->
<g id="node1" class="node">
<title>Node1</title>
<g id="a_node1"><a xlink:title=" ">
<polygon fill="#bfbfbf" stroke="black" points="216,-179.5 216,-198.5 284,-198.5 284,-179.5 216,-179.5"/>
<text text-anchor="middle" x="250" y="-186.5" font-family="Helvetica,sans-Serif" font-size="10.00">hexagon.h</text>
</a>
</g>
</g>
<!-- Node2 -->
<g id="node2" class="node">
<title>Node2</title>
<g id="a_node2"><a xlink:href="../../da/d0b/limes__namespace_8h.html" target="_top" xlink:title=" ">
<polygon fill="none" stroke="black" points="0,-56.5 0,-75.5 114,-75.5 114,-56.5 0,-56.5"/>
<text text-anchor="middle" x="57" y="-63.5" font-family="Helvetica,sans-Serif" font-size="10.00">limes_namespace.h</text>
</a>
</g>
</g>
<!-- Node1&#45;&gt;Node2 -->
<g id="edge1" class="edge">
<title>Node1&#45;&gt;Node2</title>
<path fill="none" stroke="midnightblue" d="M215.82,-183.87C184.82,-178.68 139.19,-167.31 107,-143 87.07,-127.94 72.68,-102.48 64.59,-85.22"/>
<polygon fill="midnightblue" stroke="midnightblue" points="67.62,-83.42 60.38,-75.69 61.22,-86.26 67.62,-83.42"/>
</g>
<!-- Node3 -->
<g id="node3" class="node">
<title>Node3</title>
<g id="a_node3"><a xlink:title=" ">
<polygon fill="none" stroke="#bfbfbf" points="132.5,-56.5 132.5,-75.5 221.5,-75.5 221.5,-56.5 132.5,-56.5"/>
<text text-anchor="middle" x="177" y="-63.5" font-family="Helvetica,sans-Serif" font-size="10.00">limes_export.h</text>
</a>
</g>
</g>
<!-- Node1&#45;&gt;Node3 -->
<g id="edge2" class="edge">
<title>Node1&#45;&gt;Node3</title>
<path fill="none" stroke="midnightblue" d="M244.75,-179.3C232.81,-159.5 203.41,-110.78 187.55,-84.49"/>
<polygon fill="midnightblue" stroke="midnightblue" points="190.37,-82.38 182.2,-75.62 184.37,-85.99 190.37,-82.38"/>
</g>
<!-- Node4 -->
<g id="node4" class="node">
<title>Node4</title>
<g id="a_node4"><a xlink:title=" ">
<polygon fill="none" stroke="#bfbfbf" points="299,-0.5 299,-19.5 399,-19.5 399,-0.5 299,-0.5"/>
<text text-anchor="middle" x="349" y="-7.5" font-family="Helvetica,sans-Serif" font-size="10.00">limes_platform.h</text>
</a>
</g>
</g>
<!-- Node1&#45;&gt;Node4 -->
<g id="edge3" class="edge">
<title>Node1&#45;&gt;Node4</title>
<path fill="none" stroke="midnightblue" d="M248.81,-179.36C246.17,-156.84 242.04,-95.35 269,-56 279.14,-41.19 295.85,-30.71 311.37,-23.6"/>
<polygon fill="midnightblue" stroke="midnightblue" points="312.97,-26.73 320.82,-19.61 310.25,-20.28 312.97,-26.73"/>
</g>
<!-- Node5 -->
<g id="node5" class="node">
<title>Node5</title>
<g id="a_node5"><a xlink:href="../../d8/d23/2_dshape_8h.html" target="_top" xlink:title=" ">
<polygon fill="none" stroke="black" points="116,-118 116,-137 184,-137 184,-118 116,-118"/>
<text text-anchor="middle" x="150" y="-125" font-family="Helvetica,sans-Serif" font-size="10.00">2Dshape.h</text>
</a>
</g>
</g>
<!-- Node1&#45;&gt;Node5 -->
<g id="edge4" class="edge">
<title>Node1&#45;&gt;Node5</title>
<path fill="none" stroke="midnightblue" d="M235.67,-179.48C219.34,-169.75 192.4,-153.73 173.09,-142.24"/>
<polygon fill="midnightblue" stroke="midnightblue" points="174.68,-139.11 164.3,-137.01 171.11,-145.13 174.68,-139.11"/>
</g>
<!-- Node6 -->
<g id="node6" class="node">
<title>Node6</title>
<g id="a_node6"><a xlink:href="../../d3/d53/preprocessor_8h.html" target="_top" xlink:title=" ">
<polygon fill="none" stroke="black" points="278.5,-56.5 278.5,-75.5 419.5,-75.5 419.5,-56.5 278.5,-56.5"/>
<text text-anchor="middle" x="349" y="-63.5" font-family="Helvetica,sans-Serif" font-size="10.00">../../../misc/preprocessor.h</text>
</a>
</g>
</g>
<!-- Node1&#45;&gt;Node6 -->
<g id="edge7" class="edge">
<title>Node1&#45;&gt;Node6</title>
<path fill="none" stroke="midnightblue" d="M256.04,-179.34C266.14,-164.98 287.3,-135.52 307,-112 315.32,-102.07 325.18,-91.45 333.26,-83.02"/>
<polygon fill="midnightblue" stroke="midnightblue" points="335.9,-85.33 340.34,-75.71 330.87,-80.45 335.9,-85.33"/>
</g>
<!-- Node7 -->
<g id="node7" class="node">
<title>Node7</title>
<g id="a_node7"><a xlink:href="../../d0/d00/compiler__defs_8h.html" target="_top" xlink:title=" ">
<polygon fill="none" stroke="black" points="316.5,-112.5 316.5,-142.5 441.5,-142.5 441.5,-112.5 316.5,-112.5"/>
<text text-anchor="start" x="324.5" y="-130.5" font-family="Helvetica,sans-Serif" font-size="10.00">../../../system/compiler</text>
<text text-anchor="middle" x="379" y="-119.5" font-family="Helvetica,sans-Serif" font-size="10.00">_defs.h</text>
</a>
</g>
</g>
<!-- Node1&#45;&gt;Node7 -->
<g id="edge9" class="edge">
<title>Node1&#45;&gt;Node7</title>
<path fill="none" stroke="midnightblue" d="M268.48,-179.48C286.93,-170.96 315.87,-157.62 339.5,-146.72"/>
<polygon fill="midnightblue" stroke="midnightblue" points="340.98,-149.89 348.6,-142.52 338.05,-143.53 340.98,-149.89"/>
</g>
<!-- Node8 -->
<g id="node8" class="node">
<title>Node8</title>
<g id="a_node8"><a xlink:title=" ">
<polygon fill="none" stroke="#bfbfbf" points="459.5,-118 459.5,-137 506.5,-137 506.5,-118 459.5,-118"/>
<text text-anchor="middle" x="483" y="-125" font-family="Helvetica,sans-Serif" font-size="10.00">cmath</text>
</a>
</g>
</g>
<!-- Node1&#45;&gt;Node8 -->
<g id="edge12" class="edge">
<title>Node1&#45;&gt;Node8</title>
<path fill="none" stroke="midnightblue" d="M284.16,-182.39C324.41,-175.3 393.03,-161.73 450,-143 451.87,-142.38 453.78,-141.7 455.7,-140.97"/>
<polygon fill="midnightblue" stroke="midnightblue" points="457.17,-144.15 465.09,-137.12 454.51,-137.68 457.17,-144.15"/>
</g>
<!-- Node5&#45;&gt;Node2 -->
<g id="edge5" class="edge">
<title>Node5&#45;&gt;Node2</title>
<path fill="none" stroke="midnightblue" d="M136.68,-117.98C121.62,-108.34 96.88,-92.52 78.96,-81.05"/>
<polygon fill="midnightblue" stroke="midnightblue" points="80.61,-77.95 70.3,-75.51 76.84,-83.85 80.61,-77.95"/>
</g>
<!-- Node5&#45;&gt;Node3 -->
<g id="edge6" class="edge">
<title>Node5&#45;&gt;Node3</title>
<path fill="none" stroke="midnightblue" d="M153.87,-117.98C157.8,-109.32 164,-95.65 168.99,-84.65"/>
<polygon fill="midnightblue" stroke="midnightblue" points="172.19,-86.06 173.14,-75.51 165.82,-83.17 172.19,-86.06"/>
</g>
<!-- Node6&#45;&gt;Node4 -->
<g id="edge8" class="edge">
<title>Node6&#45;&gt;Node4</title>
<path fill="none" stroke="midnightblue" d="M349,-56.08C349,-49.01 349,-38.86 349,-29.99"/>
<polygon fill="midnightblue" stroke="midnightblue" points="352.5,-29.75 349,-19.75 345.5,-29.75 352.5,-29.75"/>
</g>
<!-- Node7&#45;&gt;Node4 -->
<g id="edge10" class="edge">
<title>Node7&#45;&gt;Node4</title>
<path fill="none" stroke="midnightblue" d="M400.25,-112.37C418.4,-98.44 439.83,-76.36 428,-56 419.26,-40.97 403.42,-30.54 388.21,-23.54"/>
<polygon fill="midnightblue" stroke="midnightblue" points="389.46,-20.27 378.88,-19.61 386.74,-26.72 389.46,-20.27"/>
</g>
<!-- Node7&#45;&gt;Node6 -->
<g id="edge11" class="edge">
<title>Node7&#45;&gt;Node6</title>
<path fill="none" stroke="midnightblue" d="M371.89,-112.4C367.71,-104.11 362.39,-93.55 357.93,-84.71"/>
<polygon fill="midnightblue" stroke="midnightblue" points="360.99,-83.01 353.37,-75.66 354.74,-86.16 360.99,-83.01"/>
</g>
</g>
</svg>
