<?xml version="1.0" encoding="UTF-8" standalone="no"?>
<!DOCTYPE svg PUBLIC "-//W3C//DTD SVG 1.1//EN"
 "http://www.w3.org/Graphics/SVG/1.1/DTD/svg11.dtd">
<!-- Generated by graphviz version 2.43.0 (0)
 -->
<!-- Title: files::FilesystemEntry Pages: 1 -->
<svg width="278pt" height="140pt"
 viewBox="0.00 0.00 277.50 140.00" xmlns="http://www.w3.org/2000/svg" xmlns:xlink="http://www.w3.org/1999/xlink">
<g id="graph0" class="graph" transform="scale(1 1) rotate(0) translate(4 136)">
<title>files::FilesystemEntry</title>
<!-- Node1 -->
<g id="node1" class="node">
<title>Node1</title>
<g id="a_node1"><a xlink:title="The base class for any kind of object in the filesystem.">
<polygon fill="#bfbfbf" stroke="black" points="75,-112.5 75,-131.5 197,-131.5 197,-112.5 75,-112.5"/>
<text text-anchor="middle" x="136" y="-119.5" font-family="Helvetica,sans-Serif" font-size="10.00">files::FilesystemEntry</text>
</a>
</g>
</g>
<!-- Node2 -->
<g id="node2" class="node">
<title>Node2</title>
<g id="a_node2"><a xlink:href="../../d5/d2a/classfiles_1_1_directory.html" target="_top" xlink:title="This class represents a directory on the filesystem.">
<polygon fill="none" stroke="black" points="0,-56.5 0,-75.5 88,-75.5 88,-56.5 0,-56.5"/>
<text text-anchor="middle" x="44" y="-63.5" font-family="Helvetica,sans-Serif" font-size="10.00">files::Directory</text>
</a>
</g>
</g>
<!-- Node1&#45;&gt;Node2 -->
<g id="edge1" class="edge">
<title>Node1&#45;&gt;Node2</title>
<path fill="none" stroke="midnightblue" d="M112.45,-107.18C95.52,-97.24 73.22,-84.15 58.74,-75.65"/>
<polygon fill="midnightblue" stroke="midnightblue" points="110.82,-110.28 121.22,-112.32 114.37,-104.24 110.82,-110.28"/>
</g>
<!-- Node3 -->
<g id="node3" class="node">
<title>Node3</title>
<g id="a_node3"><a xlink:href="../../df/dcc/classfiles_1_1_file.html" target="_top" xlink:title="This class represents a file on the filesystem.">
<polygon fill="none" stroke="black" points="106,-56.5 106,-75.5 166,-75.5 166,-56.5 106,-56.5"/>
<text text-anchor="middle" x="136" y="-63.5" font-family="Helvetica,sans-Serif" font-size="10.00">files::File</text>
</a>
</g>
</g>
<!-- Node1&#45;&gt;Node3 -->
<g id="edge2" class="edge">
<title>Node1&#45;&gt;Node3</title>
<path fill="none" stroke="midnightblue" d="M136,-101.8C136,-92.91 136,-82.78 136,-75.75"/>
<polygon fill="midnightblue" stroke="midnightblue" points="132.5,-102.08 136,-112.08 139.5,-102.08 132.5,-102.08"/>
</g>
<!-- Node5 -->
<g id="node5" class="node">
<title>Node5</title>
<g id="a_node5"><a xlink:href="../../de/d90/classfiles_1_1_sym_link.html" target="_top" xlink:title="This class represents a symbolic link on the filesystem.">
<polygon fill="none" stroke="black" points="184.5,-56.5 184.5,-75.5 269.5,-75.5 269.5,-56.5 184.5,-56.5"/>
<text text-anchor="middle" x="227" y="-63.5" font-family="Helvetica,sans-Serif" font-size="10.00">files::SymLink</text>
</a>
</g>
</g>
<!-- Node1&#45;&gt;Node5 -->
<g id="edge4" class="edge">
<title>Node1&#45;&gt;Node5</title>
<path fill="none" stroke="midnightblue" d="M159.29,-107.18C176.04,-97.24 198.1,-84.15 212.42,-75.65"/>
<polygon fill="midnightblue" stroke="midnightblue" points="157.43,-104.21 150.62,-112.32 161.01,-110.23 157.43,-104.21"/>
</g>
<!-- Node4 -->
<g id="node4" class="node">
<title>Node4</title>
<g id="a_node4"><a xlink:href="../../d5/db7/classfiles_1_1_temp_file.html" target="_top" xlink:title="Represents a temporary file.">
<polygon fill="none" stroke="black" points="93,-0.5 93,-19.5 179,-19.5 179,-0.5 93,-0.5"/>
<text text-anchor="middle" x="136" y="-7.5" font-family="Helvetica,sans-Serif" font-size="10.00">files::TempFile</text>
</a>
</g>
</g>
<!-- Node3&#45;&gt;Node4 -->
<g id="edge3" class="edge">
<title>Node3&#45;&gt;Node4</title>
<path fill="none" stroke="midnightblue" d="M136,-45.8C136,-36.91 136,-26.78 136,-19.75"/>
<polygon fill="midnightblue" stroke="midnightblue" points="132.5,-46.08 136,-56.08 139.5,-46.08 132.5,-46.08"/>
</g>
</g>
</svg>
