<?xml version="1.0" encoding="UTF-8" standalone="no"?>
<!DOCTYPE svg PUBLIC "-//W3C//DTD SVG 1.1//EN"
 "http://www.w3.org/Graphics/SVG/1.1/DTD/svg11.dtd">
<!-- Generated by graphviz version 2.43.0 (0)
 -->
<!-- Title: Dimensions.h Pages: 1 -->
<!--zoomable 364 -->
<svg id="main" version="1.1" xmlns="http://www.w3.org/2000/svg" xmlns:xlink="http://www.w3.org/1999/xlink" xml:space="preserve" onload="init(evt)">
<style type="text/css"><![CDATA[
.edge:hover path { stroke: red; }
.edge:hover polygon { stroke: red; fill: red; }
]]></style>
<script type="text/javascript"><![CDATA[
var edges = document.getElementsByTagName('g');
if (edges && edges.length) {
  for (var i=0;i<edges.length;i++) {
    if (edges[i].id.substr(0,4)=='edge') {
      edges[i].setAttribute('class','edge');
    }
  }
}
]]></script>
        <defs>
                <circle id="rim" cx="0" cy="0" r="7"/>
                <circle id="rim2" cx="0" cy="0" r="3.5"/>
                <g id="zoomPlus">
                        <use xlink:href="#rim" fill="#404040">
                                <set attributeName="fill" to="#808080" begin="zoomplus.mouseover" end="zoomplus.mouseout"/>
                        </use>
                        <path d="M-4,0h8M0,-4v8" fill="none" stroke="white" stroke-width="1.5" pointer-events="none"/>
                </g>
                <g id="zoomMin">
                        <use xlink:href="#rim" fill="#404040">
                                <set attributeName="fill" to="#808080" begin="zoomminus.mouseover" end="zoomminus.mouseout"/>
                        </use>
                        <path d="M-4,0h8" fill="none" stroke="white" stroke-width="1.5" pointer-events="none"/>
                </g>
                <g id="dirArrow">
                        <path fill="none" stroke="white" stroke-width="1.5" d="M0,-3.0v7 M-2.5,-0.5L0,-3.0L2.5,-0.5"/>
                </g>
               <g id="resetDef">
                       <use xlink:href="#rim2" fill="#404040">
                               <set attributeName="fill" to="#808080" begin="reset.mouseover" end="reset.mouseout"/>
                       </use>
               </g>
        </defs>

<script type="text/javascript">
var viewWidth = 1653;
var viewHeight = 364;
var sectionId = 'dynsection-1';
</script>
<script xlink:href="../../svgpan.js"/>
<svg id="graph" class="graph">
<g id="viewport">
<title>Dimensions.h</title>
<!-- Node1 -->
<g id="node1" class="node">
<title>Node1</title>
<g id="a_node1"><a xlink:title=" ">
<polygon fill="#bfbfbf" stroke="black" points="616.5,-336.5 616.5,-355.5 699.5,-355.5 699.5,-336.5 616.5,-336.5"/>
<text text-anchor="middle" x="658" y="-343.5" font-family="Helvetica,sans-Serif" font-size="10.00">Dimensions.h</text>
</a>
</g>
</g>
<!-- Node2 -->
<g id="node2" class="node">
<title>Node2</title>
<g id="a_node2"><a xlink:href="../../d8/d1d/limes__data__structures_8h.html" target="_top" xlink:title=" ">
<polygon fill="none" stroke="black" points="591,-280.5 591,-299.5 725,-299.5 725,-280.5 591,-280.5"/>
<text text-anchor="middle" x="658" y="-287.5" font-family="Helvetica,sans-Serif" font-size="10.00">limes_data_structures.h</text>
</a>
</g>
</g>
<!-- Node1&#45;&gt;Node2 -->
<g id="edge1" class="edge">
<title>Node1&#45;&gt;Node2</title>
<path fill="none" stroke="midnightblue" d="M658,-325.8C658,-316.91 658,-306.78 658,-299.75"/>
<polygon fill="midnightblue" stroke="midnightblue" points="654.5,-326.08 658,-336.08 661.5,-326.08 654.5,-326.08"/>
</g>
<!-- Node3 -->
<g id="node3" class="node">
<title>Node3</title>
<g id="a_node3"><a xlink:href="../../d2/d8d/limes_8h.html" target="_top" xlink:title=" ">
<polygon fill="none" stroke="black" points="771.5,-0.5 771.5,-19.5 824.5,-19.5 824.5,-0.5 771.5,-0.5"/>
<text text-anchor="middle" x="798" y="-7.5" font-family="Helvetica,sans-Serif" font-size="10.00">limes.h</text>
</a>
</g>
</g>
<!-- Node2&#45;&gt;Node3 -->
<g id="edge2" class="edge">
<title>Node2&#45;&gt;Node3</title>
<path fill="none" stroke="midnightblue" d="M580.56,-287.22C449.62,-283.47 190.29,-272.58 104,-244 52.26,-226.86 0,-233.51 0,-179 0,-179 0,-179 0,-121 0,-41.28 632.98,-16.31 771.45,-11.8"/>
<polygon fill="midnightblue" stroke="midnightblue" points="580.81,-290.73 590.91,-287.51 581.01,-283.73 580.81,-290.73"/>
</g>
<!-- Node4 -->
<g id="node4" class="node">
<title>Node4</title>
<g id="a_node4"><a xlink:href="../../d7/d56/_coeffecients_8h.html" target="_top" xlink:title=" ">
<polygon fill="none" stroke="black" points="145,-224.5 145,-243.5 231,-243.5 231,-224.5 145,-224.5"/>
<text text-anchor="middle" x="188" y="-231.5" font-family="Helvetica,sans-Serif" font-size="10.00">Coeffecients.h</text>
</a>
</g>
</g>
<!-- Node2&#45;&gt;Node4 -->
<g id="edge3" class="edge">
<title>Node2&#45;&gt;Node4</title>
<path fill="none" stroke="midnightblue" d="M580.9,-282.19C496.88,-274.43 358.6,-260.63 240,-244 237.1,-243.59 234.11,-243.15 231.1,-242.68"/>
<polygon fill="midnightblue" stroke="midnightblue" points="580.59,-285.68 590.87,-283.11 581.23,-278.71 580.59,-285.68"/>
</g>
<!-- Node5 -->
<g id="node5" class="node">
<title>Node5</title>
<g id="a_node5"><a xlink:href="../../da/d2d/_filter_8h.html" target="_top" xlink:title=" ">
<polygon fill="none" stroke="black" points="122,-168.5 122,-187.5 172,-187.5 172,-168.5 122,-168.5"/>
<text text-anchor="middle" x="147" y="-175.5" font-family="Helvetica,sans-Serif" font-size="10.00">Filter.h</text>
</a>
</g>
</g>
<!-- Node2&#45;&gt;Node5 -->
<g id="edge7" class="edge">
<title>Node2&#45;&gt;Node5</title>
<path fill="none" stroke="midnightblue" d="M580.81,-287.98C442.81,-285.35 165.43,-276.08 136,-244 121.76,-228.48 133.67,-201.69 141.5,-187.85"/>
<polygon fill="midnightblue" stroke="midnightblue" points="580.83,-291.48 590.9,-288.16 580.96,-284.48 580.83,-291.48"/>
</g>
<!-- Node7 -->
<g id="node7" class="node">
<title>Node7</title>
<g id="a_node7"><a xlink:href="../../dc/ddf/_pitch_detector_8h.html" target="_top" xlink:title=" ">
<polygon fill="none" stroke="black" points="249.5,-224.5 249.5,-243.5 340.5,-243.5 340.5,-224.5 249.5,-224.5"/>
<text text-anchor="middle" x="295" y="-231.5" font-family="Helvetica,sans-Serif" font-size="10.00">PitchDetector.h</text>
</a>
</g>
</g>
<!-- Node2&#45;&gt;Node7 -->
<g id="edge8" class="edge">
<title>Node2&#45;&gt;Node7</title>
<path fill="none" stroke="midnightblue" d="M590.52,-279.01C529.11,-269.91 435.97,-256.08 355,-244 350.31,-243.3 345.42,-242.57 340.54,-241.84"/>
<polygon fill="midnightblue" stroke="midnightblue" points="590.07,-282.48 600.47,-280.48 591.09,-275.55 590.07,-282.48"/>
</g>
<!-- Node8 -->
<g id="node8" class="node">
<title>Node8</title>
<g id="a_node8"><a xlink:href="../../d3/d19/analyzer_8h.html" target="_top" xlink:title=" ">
<polygon fill="none" stroke="black" points="261.5,-168.5 261.5,-187.5 328.5,-187.5 328.5,-168.5 261.5,-168.5"/>
<text text-anchor="middle" x="295" y="-175.5" font-family="Helvetica,sans-Serif" font-size="10.00">analyzer.h</text>
</a>
</g>
</g>
<!-- Node2&#45;&gt;Node8 -->
<g id="edge31" class="edge">
<title>Node2&#45;&gt;Node8</title>
<path fill="none" stroke="midnightblue" d="M580.75,-285.22C525.36,-280.36 449.92,-269.28 388,-244 353.9,-230.08 319.99,-201.81 304.19,-187.59"/>
<polygon fill="midnightblue" stroke="midnightblue" points="580.59,-288.72 590.84,-286.06 581.17,-281.74 580.59,-288.72"/>
</g>
<!-- Node9 -->
<g id="node9" class="node">
<title>Node9</title>
<g id="a_node9"><a xlink:href="../../d7/d4f/shifter_8h.html" target="_top" xlink:title=" ">
<polygon fill="none" stroke="black" points="266,-112.5 266,-131.5 322,-131.5 322,-112.5 266,-112.5"/>
<text text-anchor="middle" x="294" y="-119.5" font-family="Helvetica,sans-Serif" font-size="10.00">shifter.h</text>
</a>
</g>
</g>
<!-- Node2&#45;&gt;Node9 -->
<g id="edge34" class="edge">
<title>Node2&#45;&gt;Node9</title>
<path fill="none" stroke="midnightblue" d="M629.95,-276.21C558.82,-243.77 372.85,-158.96 312.91,-131.62"/>
<polygon fill="midnightblue" stroke="midnightblue" points="628.65,-279.46 639.2,-280.42 631.55,-273.09 628.65,-279.46"/>
</g>
<!-- Node10 -->
<g id="node10" class="node">
<title>Node10</title>
<g id="a_node10"><a xlink:href="../../d5/d33/_mono_stereo_converter_8h.html" target="_top" xlink:title=" ">
<polygon fill="none" stroke="black" points="340.5,-112.5 340.5,-131.5 471.5,-131.5 471.5,-112.5 340.5,-112.5"/>
<text text-anchor="middle" x="406" y="-119.5" font-family="Helvetica,sans-Serif" font-size="10.00">MonoStereoConverter.h</text>
</a>
</g>
</g>
<!-- Node2&#45;&gt;Node10 -->
<g id="edge14" class="edge">
<title>Node2&#45;&gt;Node10</title>
<path fill="none" stroke="midnightblue" d="M640.58,-273.25C606.33,-242.37 532.35,-176.14 519,-168 492.32,-151.73 458.72,-139.23 435.12,-131.58"/>
<polygon fill="midnightblue" stroke="midnightblue" points="638.61,-276.19 648.38,-280.29 643.3,-270.99 638.61,-276.19"/>
</g>
<!-- Node11 -->
<g id="node11" class="node">
<title>Node11</title>
<g id="a_node11"><a xlink:href="../../dd/d28/_circular_buffer_8h.html" target="_top" xlink:title=" ">
<polygon fill="none" stroke="black" points="490,-112.5 490,-131.5 582,-131.5 582,-112.5 490,-112.5"/>
<text text-anchor="middle" x="536" y="-119.5" font-family="Helvetica,sans-Serif" font-size="10.00">CircularBuffer.h</text>
</a>
</g>
</g>
<!-- Node2&#45;&gt;Node11 -->
<g id="edge16" class="edge">
<title>Node2&#45;&gt;Node11</title>
<path fill="none" stroke="midnightblue" d="M645.33,-271.76C619.48,-236.59 561.48,-157.68 542.3,-131.57"/>
<polygon fill="midnightblue" stroke="midnightblue" points="642.7,-274.09 651.44,-280.08 648.34,-269.94 642.7,-274.09"/>
</g>
<!-- Node12 -->
<g id="node12" class="node">
<title>Node12</title>
<g id="a_node12"><a xlink:href="../../d4/d5f/_perlin_noise_8h.html" target="_top" xlink:title=" ">
<polygon fill="none" stroke="black" points="600.5,-112.5 600.5,-131.5 681.5,-131.5 681.5,-112.5 600.5,-112.5"/>
<text text-anchor="middle" x="641" y="-119.5" font-family="Helvetica,sans-Serif" font-size="10.00">PerlinNoise.h</text>
</a>
</g>
</g>
<!-- Node2&#45;&gt;Node12 -->
<g id="edge18" class="edge">
<title>Node2&#45;&gt;Node12</title>
<path fill="none" stroke="midnightblue" d="M649.06,-271.2C645.48,-263.11 641.79,-253.3 640,-244 632.01,-202.54 637.19,-151.59 639.78,-131.61"/>
<polygon fill="midnightblue" stroke="midnightblue" points="645.94,-272.79 653.38,-280.34 652.27,-269.8 645.94,-272.79"/>
</g>
<!-- Node13 -->
<g id="node13" class="node">
<title>Node13</title>
<g id="a_node13"><a xlink:href="../../d5/d84/_sample_stream_8h.html" target="_top" xlink:title=" ">
<polygon fill="none" stroke="black" points="649,-224.5 649,-243.5 747,-243.5 747,-224.5 649,-224.5"/>
<text text-anchor="middle" x="698" y="-231.5" font-family="Helvetica,sans-Serif" font-size="10.00">SampleStream.h</text>
</a>
</g>
</g>
<!-- Node2&#45;&gt;Node13 -->
<g id="edge20" class="edge">
<title>Node2&#45;&gt;Node13</title>
<path fill="none" stroke="midnightblue" d="M670.7,-271.86C677.63,-262.5 685.91,-251.33 691.52,-243.75"/>
<polygon fill="midnightblue" stroke="midnightblue" points="667.75,-269.96 664.61,-280.08 673.37,-274.13 667.75,-269.96"/>
</g>
<!-- Node17 -->
<g id="node17" class="node">
<title>Node17</title>
<g id="a_node17"><a xlink:href="../../d7/ddb/_detunable_model_8h.html" target="_top" xlink:title=" ">
<polygon fill="none" stroke="black" points="28,-112.5 28,-131.5 134,-131.5 134,-112.5 28,-112.5"/>
<text text-anchor="middle" x="81" y="-119.5" font-family="Helvetica,sans-Serif" font-size="10.00">DetunableModel.h</text>
</a>
</g>
</g>
<!-- Node2&#45;&gt;Node17 -->
<g id="edge29" class="edge">
<title>Node2&#45;&gt;Node17</title>
<path fill="none" stroke="midnightblue" d="M580.61,-286.99C441.74,-282.72 161.35,-270.85 126,-244 89.05,-215.94 82.43,-154.15 81.25,-131.52"/>
<polygon fill="midnightblue" stroke="midnightblue" points="580.66,-290.49 590.76,-287.29 580.87,-283.49 580.66,-290.49"/>
</g>
<!-- Node18 -->
<g id="node18" class="node">
<title>Node18</title>
<g id="a_node18"><a xlink:href="../../dc/dad/_peak_finder_8h.html" target="_top" xlink:title=" ">
<polygon fill="none" stroke="black" points="397.5,-224.5 397.5,-243.5 476.5,-243.5 476.5,-224.5 397.5,-224.5"/>
<text text-anchor="middle" x="437" y="-231.5" font-family="Helvetica,sans-Serif" font-size="10.00">PeakFinder.h</text>
</a>
</g>
</g>
<!-- Node2&#45;&gt;Node18 -->
<g id="edge32" class="edge">
<title>Node2&#45;&gt;Node18</title>
<path fill="none" stroke="midnightblue" d="M613.08,-278.02C571.33,-267.82 510.02,-252.84 471.85,-243.52"/>
<polygon fill="midnightblue" stroke="midnightblue" points="612.44,-281.47 622.98,-280.44 614.1,-274.67 612.44,-281.47"/>
</g>
<!-- Node19 -->
<g id="node19" class="node">
<title>Node19</title>
<g id="a_node19"><a xlink:href="../../d7/d35/countries_8h.html" target="_top" xlink:title=" ">
<polygon fill="none" stroke="black" points="765.5,-224.5 765.5,-243.5 836.5,-243.5 836.5,-224.5 765.5,-224.5"/>
<text text-anchor="middle" x="801" y="-231.5" font-family="Helvetica,sans-Serif" font-size="10.00">countries.h</text>
</a>
</g>
</g>
<!-- Node2&#45;&gt;Node19 -->
<g id="edge35" class="edge">
<title>Node2&#45;&gt;Node19</title>
<path fill="none" stroke="midnightblue" d="M690.03,-276.91C716.91,-266.75 754.64,-252.51 778.45,-243.52"/>
<polygon fill="midnightblue" stroke="midnightblue" points="688.78,-273.64 680.66,-280.44 691.25,-280.19 688.78,-273.64"/>
</g>
<!-- Node21 -->
<g id="node21" class="node">
<title>Node21</title>
<g id="a_node21"><a xlink:href="../../d0/d0f/languages_8h.html" target="_top" xlink:title=" ">
<polygon fill="none" stroke="black" points="855,-224.5 855,-243.5 931,-243.5 931,-224.5 855,-224.5"/>
<text text-anchor="middle" x="893" y="-231.5" font-family="Helvetica,sans-Serif" font-size="10.00">languages.h</text>
</a>
</g>
</g>
<!-- Node2&#45;&gt;Node21 -->
<g id="edge38" class="edge">
<title>Node2&#45;&gt;Node21</title>
<path fill="none" stroke="midnightblue" d="M705.21,-278.15C749.61,-267.95 815.19,-252.88 855.94,-243.52"/>
<polygon fill="midnightblue" stroke="midnightblue" points="704.2,-274.79 695.24,-280.44 705.77,-281.62 704.2,-274.79"/>
</g>
<!-- Node22 -->
<g id="node22" class="node">
<title>Node22</title>
<g id="a_node22"><a xlink:href="../../d8/d57/_chord_8h.html" target="_top" xlink:title=" ">
<polygon fill="none" stroke="black" points="1088,-112.5 1088,-131.5 1142,-131.5 1142,-112.5 1088,-112.5"/>
<text text-anchor="middle" x="1115" y="-119.5" font-family="Helvetica,sans-Serif" font-size="10.00">Chord.h</text>
</a>
</g>
</g>
<!-- Node2&#45;&gt;Node22 -->
<g id="edge40" class="edge">
<title>Node2&#45;&gt;Node22</title>
<path fill="none" stroke="midnightblue" d="M735.52,-284.07C807.29,-278.19 907.63,-266.25 940,-244 972.17,-221.89 953.86,-192.8 984,-168 1014.36,-143.02 1059.38,-131.59 1087.94,-126.6"/>
<polygon fill="midnightblue" stroke="midnightblue" points="734.85,-280.61 725.16,-284.89 735.4,-287.59 734.85,-280.61"/>
</g>
<!-- Node24 -->
<g id="node24" class="node">
<title>Node24</title>
<g id="a_node24"><a xlink:href="../../d4/d81/_scale_8h.html" target="_top" xlink:title=" ">
<polygon fill="none" stroke="black" points="1193,-224.5 1193,-243.5 1245,-243.5 1245,-224.5 1193,-224.5"/>
<text text-anchor="middle" x="1219" y="-231.5" font-family="Helvetica,sans-Serif" font-size="10.00">Scale.h</text>
</a>
</g>
</g>
<!-- Node2&#45;&gt;Node24 -->
<g id="edge43" class="edge">
<title>Node2&#45;&gt;Node24</title>
<path fill="none" stroke="midnightblue" d="M735.31,-283.56C834.03,-276.28 1010.03,-262.14 1160,-244 1170.8,-242.69 1182.67,-240.94 1192.91,-239.34"/>
<polygon fill="midnightblue" stroke="midnightblue" points="734.84,-280.09 725.13,-284.31 735.36,-287.07 734.84,-280.09"/>
</g>
<!-- Node25 -->
<g id="node25" class="node">
<title>Node25</title>
<g id="a_node25"><a xlink:href="../../d3/d6f/_chromatic_8h.html" target="_top" xlink:title=" ">
<polygon fill="none" stroke="black" points="1181,-168.5 1181,-187.5 1257,-187.5 1257,-168.5 1181,-168.5"/>
<text text-anchor="middle" x="1219" y="-175.5" font-family="Helvetica,sans-Serif" font-size="10.00">Chromatic.h</text>
</a>
</g>
</g>
<!-- Node2&#45;&gt;Node25 -->
<g id="edge56" class="edge">
<title>Node2&#45;&gt;Node25</title>
<path fill="none" stroke="midnightblue" d="M735.48,-285.2C813.5,-280.15 936.9,-268.76 1041,-244 1100.85,-229.76 1168.24,-201.64 1200.22,-187.52"/>
<polygon fill="midnightblue" stroke="midnightblue" points="735.01,-281.73 725.25,-285.85 735.45,-288.71 735.01,-281.73"/>
</g>
<!-- Node26 -->
<g id="node26" class="node">
<title>Node26</title>
<g id="a_node26"><a xlink:href="../../dd/d47/_key_signature_8h.html" target="_top" xlink:title=" ">
<polygon fill="none" stroke="black" points="1389,-168.5 1389,-187.5 1479,-187.5 1479,-168.5 1389,-168.5"/>
<text text-anchor="middle" x="1434" y="-175.5" font-family="Helvetica,sans-Serif" font-size="10.00">KeySignature.h</text>
</a>
</g>
</g>
<!-- Node2&#45;&gt;Node26 -->
<g id="edge57" class="edge">
<title>Node2&#45;&gt;Node26</title>
<path fill="none" stroke="midnightblue" d="M735.25,-287.42C908.74,-283.41 1318.52,-271.16 1375,-244 1400.82,-231.58 1420.54,-202.35 1429.19,-187.69"/>
<polygon fill="midnightblue" stroke="midnightblue" points="735.09,-283.92 725.17,-287.65 735.25,-290.92 735.09,-283.92"/>
</g>
<!-- Node27 -->
<g id="node27" class="node">
<title>Node27</title>
<g id="a_node27"><a xlink:href="../../d8/daa/_mode_8h.html" target="_top" xlink:title=" ">
<polygon fill="none" stroke="black" points="1324.5,-112.5 1324.5,-131.5 1377.5,-131.5 1377.5,-112.5 1324.5,-112.5"/>
<text text-anchor="middle" x="1351" y="-119.5" font-family="Helvetica,sans-Serif" font-size="10.00">Mode.h</text>
</a>
</g>
</g>
<!-- Node2&#45;&gt;Node27 -->
<g id="edge58" class="edge">
<title>Node2&#45;&gt;Node27</title>
<path fill="none" stroke="midnightblue" d="M735.21,-288.86C874.46,-287.67 1161.76,-280.69 1254,-244 1290.7,-229.4 1299.16,-219.49 1323,-188 1336.5,-170.17 1344.95,-144.84 1348.72,-131.68"/>
<polygon fill="midnightblue" stroke="midnightblue" points="735.01,-285.36 725.04,-288.94 735.07,-292.36 735.01,-285.36"/>
</g>
<!-- Node28 -->
<g id="node28" class="node">
<title>Node28</title>
<g id="a_node28"><a xlink:href="../../d7/db9/_octatonic_8h.html" target="_top" xlink:title=" ">
<polygon fill="none" stroke="black" points="993,-168.5 993,-187.5 1065,-187.5 1065,-168.5 993,-168.5"/>
<text text-anchor="middle" x="1029" y="-175.5" font-family="Helvetica,sans-Serif" font-size="10.00">Octatonic.h</text>
</a>
</g>
</g>
<!-- Node2&#45;&gt;Node28 -->
<g id="edge59" class="edge">
<title>Node2&#45;&gt;Node28</title>
<path fill="none" stroke="midnightblue" d="M735.36,-284.86C816.85,-279.33 938.83,-267.38 979,-244 1001.89,-230.68 1017.91,-202.4 1024.96,-187.93"/>
<polygon fill="midnightblue" stroke="midnightblue" points="734.89,-281.38 725.14,-285.53 735.35,-288.37 734.89,-281.38"/>
</g>
<!-- Node29 -->
<g id="node29" class="node">
<title>Node29</title>
<g id="a_node29"><a xlink:href="../../d0/dce/_whole_tone_8h.html" target="_top" xlink:title=" ">
<polygon fill="none" stroke="black" points="1083.5,-168.5 1083.5,-187.5 1162.5,-187.5 1162.5,-168.5 1083.5,-168.5"/>
<text text-anchor="middle" x="1123" y="-175.5" font-family="Helvetica,sans-Serif" font-size="10.00">WholeTone.h</text>
</a>
</g>
</g>
<!-- Node2&#45;&gt;Node29 -->
<g id="edge60" class="edge">
<title>Node2&#45;&gt;Node29</title>
<path fill="none" stroke="midnightblue" d="M735.54,-287.07C806.87,-283.41 914.78,-273.03 1004,-244 1045.86,-230.38 1090.06,-201.97 1110.85,-187.65"/>
<polygon fill="midnightblue" stroke="midnightblue" points="735.11,-283.59 725.29,-287.57 735.45,-290.58 735.11,-283.59"/>
</g>
<!-- Node30 -->
<g id="node30" class="node">
<title>Node30</title>
<g id="a_node30"><a xlink:href="../../d5/d45/_note_length_8h.html" target="_top" xlink:title=" ">
<polygon fill="none" stroke="black" points="1507,-224.5 1507,-243.5 1589,-243.5 1589,-224.5 1507,-224.5"/>
<text text-anchor="middle" x="1548" y="-231.5" font-family="Helvetica,sans-Serif" font-size="10.00">NoteLength.h</text>
</a>
</g>
</g>
<!-- Node2&#45;&gt;Node30 -->
<g id="edge61" class="edge">
<title>Node2&#45;&gt;Node30</title>
<path fill="none" stroke="midnightblue" d="M735.38,-284.97C874.59,-277.62 1176.5,-261.19 1431,-244 1456.2,-242.3 1484.44,-240.13 1506.86,-238.35"/>
<polygon fill="midnightblue" stroke="midnightblue" points="735.04,-281.49 725.23,-285.51 735.41,-288.48 735.04,-281.49"/>
</g>
<!-- Node4&#45;&gt;Node5 -->
<g id="edge4" class="edge">
<title>Node4&#45;&gt;Node5</title>
<path fill="none" stroke="midnightblue" d="M174.98,-215.86C167.88,-206.5 159.4,-195.33 153.64,-187.75"/>
<polygon fill="midnightblue" stroke="midnightblue" points="172.39,-218.24 181.23,-224.08 177.97,-214 172.39,-218.24"/>
</g>
<!-- Node6 -->
<g id="node6" class="node">
<title>Node6</title>
<g id="a_node6"><a xlink:href="../../d6/d15/limes__audio_8h.html" target="_top" xlink:title=" ">
<polygon fill="none" stroke="black" points="493.5,-56.5 493.5,-75.5 578.5,-75.5 578.5,-56.5 493.5,-56.5"/>
<text text-anchor="middle" x="536" y="-63.5" font-family="Helvetica,sans-Serif" font-size="10.00">limes_audio.h</text>
</a>
</g>
</g>
<!-- Node5&#45;&gt;Node6 -->
<g id="edge5" class="edge">
<title>Node5&#45;&gt;Node6</title>
<path fill="none" stroke="midnightblue" d="M153.06,-158.25C158.97,-143.17 169.51,-122.78 186,-112 235.8,-79.43 411.54,-70.38 493.42,-67.91"/>
<polygon fill="midnightblue" stroke="midnightblue" points="149.62,-157.49 149.56,-168.08 156.21,-159.84 149.62,-157.49"/>
</g>
<!-- Node6&#45;&gt;Node3 -->
<g id="edge6" class="edge">
<title>Node6&#45;&gt;Node3</title>
<path fill="none" stroke="midnightblue" d="M587.47,-54.39C642.74,-43 728.42,-25.34 771.44,-16.47"/>
<polygon fill="midnightblue" stroke="midnightblue" points="586.6,-51 577.51,-56.44 588.02,-57.85 586.6,-51"/>
</g>
<!-- Node7&#45;&gt;Node6 -->
<g id="edge9" class="edge">
<title>Node7&#45;&gt;Node6</title>
<path fill="none" stroke="midnightblue" d="M275.03,-217.74C266.33,-209.89 256.99,-199.54 252,-188 238.58,-156.97 227.03,-137.69 249,-112 279.94,-75.83 421.27,-68.53 493.39,-67.2"/>
<polygon fill="midnightblue" stroke="midnightblue" points="272.8,-220.44 282.7,-224.22 277.32,-215.09 272.8,-220.44"/>
</g>
<!-- Node7&#45;&gt;Node8 -->
<g id="edge10" class="edge">
<title>Node7&#45;&gt;Node8</title>
<path fill="none" stroke="midnightblue" d="M295,-213.8C295,-204.91 295,-194.78 295,-187.75"/>
<polygon fill="midnightblue" stroke="midnightblue" points="291.5,-214.08 295,-224.08 298.5,-214.08 291.5,-214.08"/>
</g>
<!-- Node8&#45;&gt;Node6 -->
<g id="edge11" class="edge">
<title>Node8&#45;&gt;Node6</title>
<path fill="none" stroke="midnightblue" d="M275.78,-161.83C260.56,-148 243.86,-127.42 257,-112 286.86,-76.93 422.99,-69.1 493.45,-67.41"/>
<polygon fill="midnightblue" stroke="midnightblue" points="273.57,-164.54 283.44,-168.39 278.12,-159.22 273.57,-164.54"/>
</g>
<!-- Node8&#45;&gt;Node9 -->
<g id="edge12" class="edge">
<title>Node8&#45;&gt;Node9</title>
<path fill="none" stroke="midnightblue" d="M294.64,-157.8C294.48,-148.91 294.29,-138.78 294.16,-131.75"/>
<polygon fill="midnightblue" stroke="midnightblue" points="291.15,-158.15 294.83,-168.08 298.15,-158.02 291.15,-158.15"/>
</g>
<!-- Node9&#45;&gt;Node6 -->
<g id="edge13" class="edge">
<title>Node9&#45;&gt;Node6</title>
<path fill="none" stroke="midnightblue" d="M332.3,-111.74C394.83,-97.33 456.6,-83.94 495.87,-75.53"/>
<polygon fill="midnightblue" stroke="midnightblue" points="331.22,-108.39 322.27,-114.06 332.8,-115.21 331.22,-108.39"/>
</g>
<!-- Node10&#45;&gt;Node6 -->
<g id="edge15" class="edge">
<title>Node10&#45;&gt;Node6</title>
<path fill="none" stroke="midnightblue" d="M436.09,-108.5C460.46,-98.38 494.14,-84.39 515.5,-75.52"/>
<polygon fill="midnightblue" stroke="midnightblue" points="434.49,-105.38 426.6,-112.44 437.18,-111.84 434.49,-105.38"/>
</g>
<!-- Node11&#45;&gt;Node6 -->
<g id="edge17" class="edge">
<title>Node11&#45;&gt;Node6</title>
<path fill="none" stroke="midnightblue" d="M536,-101.8C536,-92.91 536,-82.78 536,-75.75"/>
<polygon fill="midnightblue" stroke="midnightblue" points="532.5,-102.08 536,-112.08 539.5,-102.08 532.5,-102.08"/>
</g>
<!-- Node12&#45;&gt;Node6 -->
<g id="edge19" class="edge">
<title>Node12&#45;&gt;Node6</title>
<path fill="none" stroke="midnightblue" d="M615.19,-107.73C595.75,-97.73 569.65,-84.31 552.83,-75.65"/>
<polygon fill="midnightblue" stroke="midnightblue" points="613.64,-110.86 624.13,-112.32 616.84,-104.64 613.64,-110.86"/>
</g>
<!-- Node13&#45;&gt;Node6 -->
<g id="edge21" class="edge">
<title>Node13&#45;&gt;Node6</title>
<path fill="none" stroke="midnightblue" d="M728.99,-220.58C750.08,-211.93 778.49,-199.85 803,-188 819.83,-179.87 822.48,-174.52 840,-168 911.79,-141.27 1054.5,-168.7 1003,-112 974.76,-80.91 688.9,-70.71 578.86,-67.92"/>
<polygon fill="midnightblue" stroke="midnightblue" points="727.51,-217.41 719.57,-224.42 730.15,-223.89 727.51,-217.41"/>
</g>
<!-- Node13&#45;&gt;Node9 -->
<g id="edge28" class="edge">
<title>Node13&#45;&gt;Node9</title>
<path fill="none" stroke="midnightblue" d="M668.02,-220.45C632.85,-206.11 572.53,-182.74 519,-168 436.98,-145.41 414.13,-150.06 331,-132 328.16,-131.38 325.2,-130.71 322.25,-130.02"/>
<polygon fill="midnightblue" stroke="midnightblue" points="667.09,-223.85 677.67,-224.41 669.75,-217.37 667.09,-223.85"/>
</g>
<!-- Node14 -->
<g id="node14" class="node">
<title>Node14</title>
<g id="a_node14"><a xlink:href="../../dc/da4/oscillator_8h.html" target="_top" xlink:title=" ">
<polygon fill="none" stroke="black" points="685,-168.5 685,-187.5 755,-187.5 755,-168.5 685,-168.5"/>
<text text-anchor="middle" x="720" y="-175.5" font-family="Helvetica,sans-Serif" font-size="10.00">oscillator.h</text>
</a>
</g>
</g>
<!-- Node13&#45;&gt;Node14 -->
<g id="edge22" class="edge">
<title>Node13&#45;&gt;Node14</title>
<path fill="none" stroke="midnightblue" d="M705.46,-214.69C709.17,-205.59 713.48,-195.01 716.43,-187.75"/>
<polygon fill="midnightblue" stroke="midnightblue" points="702.16,-213.5 701.63,-224.08 708.65,-216.14 702.16,-213.5"/>
</g>
<!-- Node16 -->
<g id="node16" class="node">
<title>Node16</title>
<g id="a_node16"><a xlink:href="../../d6/db1/_white_noise_generator_8h.html" target="_top" xlink:title=" ">
<polygon fill="none" stroke="black" points="864,-112.5 864,-131.5 994,-131.5 994,-112.5 864,-112.5"/>
<text text-anchor="middle" x="929" y="-119.5" font-family="Helvetica,sans-Serif" font-size="10.00">WhiteNoiseGenerator.h</text>
</a>
</g>
</g>
<!-- Node13&#45;&gt;Node16 -->
<g id="edge26" class="edge">
<title>Node13&#45;&gt;Node16</title>
<path fill="none" stroke="midnightblue" d="M719.02,-218.88C740.51,-204.82 775.16,-183.2 807,-168 838.37,-153.02 876.15,-139.78 901.27,-131.6"/>
<polygon fill="midnightblue" stroke="midnightblue" points="717.07,-215.96 710.66,-224.4 720.93,-221.81 717.07,-215.96"/>
</g>
<!-- Node14&#45;&gt;Node6 -->
<g id="edge23" class="edge">
<title>Node14&#45;&gt;Node6</title>
<path fill="none" stroke="midnightblue" d="M715.94,-158.53C711.81,-143.92 703.95,-124.03 690,-112 658.88,-85.18 612.5,-74.33 578.77,-69.94"/>
<polygon fill="midnightblue" stroke="midnightblue" points="712.61,-159.61 718.43,-168.46 719.4,-157.91 712.61,-159.61"/>
</g>
<!-- Node15 -->
<g id="node15" class="node">
<title>Node15</title>
<g id="a_node15"><a xlink:href="../../d8/dee/basic__oscillators_8h.html" target="_top" xlink:title=" ">
<polygon fill="none" stroke="black" points="738.5,-112.5 738.5,-131.5 845.5,-131.5 845.5,-112.5 738.5,-112.5"/>
<text text-anchor="middle" x="792" y="-119.5" font-family="Helvetica,sans-Serif" font-size="10.00">basic_oscillators.h</text>
</a>
</g>
</g>
<!-- Node14&#45;&gt;Node15 -->
<g id="edge24" class="edge">
<title>Node14&#45;&gt;Node15</title>
<path fill="none" stroke="midnightblue" d="M739.87,-162.1C752.82,-152.38 769.3,-140.03 780.22,-131.83"/>
<polygon fill="midnightblue" stroke="midnightblue" points="737.47,-159.52 731.57,-168.32 741.67,-165.12 737.47,-159.52"/>
</g>
<!-- Node15&#45;&gt;Node6 -->
<g id="edge25" class="edge">
<title>Node15&#45;&gt;Node6</title>
<path fill="none" stroke="midnightblue" d="M741.49,-110.35C693.11,-100.14 621.05,-84.94 576.37,-75.52"/>
<polygon fill="midnightblue" stroke="midnightblue" points="740.93,-113.8 751.44,-112.44 742.37,-106.95 740.93,-113.8"/>
</g>
<!-- Node16&#45;&gt;Node6 -->
<g id="edge27" class="edge">
<title>Node16&#45;&gt;Node6</title>
<path fill="none" stroke="midnightblue" d="M856.54,-111.04C775,-99.84 645.26,-82.01 578.6,-72.85"/>
<polygon fill="midnightblue" stroke="midnightblue" points="856.34,-114.55 866.73,-112.44 857.3,-107.61 856.34,-114.55"/>
</g>
<!-- Node17&#45;&gt;Node6 -->
<g id="edge30" class="edge">
<title>Node17&#45;&gt;Node6</title>
<path fill="none" stroke="midnightblue" d="M144.13,-112.49C145.43,-112.32 146.72,-112.16 148,-112 273.49,-96.3 422.06,-79.59 493.48,-71.68"/>
<polygon fill="midnightblue" stroke="midnightblue" points="143.49,-109.04 134.02,-113.79 144.38,-115.98 143.49,-109.04"/>
</g>
<!-- Node18&#45;&gt;Node8 -->
<g id="edge33" class="edge">
<title>Node18&#45;&gt;Node8</title>
<path fill="none" stroke="midnightblue" d="M404.84,-220.77C378.17,-210.63 340.93,-196.47 317.4,-187.52"/>
<polygon fill="midnightblue" stroke="midnightblue" points="403.91,-224.16 414.5,-224.44 406.4,-217.62 403.91,-224.16"/>
</g>
<!-- Node20 -->
<g id="node20" class="node">
<title>Node20</title>
<g id="a_node20"><a xlink:href="../../da/d18/limes__locale_8h.html" target="_top" xlink:title=" ">
<polygon fill="none" stroke="black" points="849.5,-168.5 849.5,-187.5 936.5,-187.5 936.5,-168.5 849.5,-168.5"/>
<text text-anchor="middle" x="893" y="-175.5" font-family="Helvetica,sans-Serif" font-size="10.00">limes_locale.h</text>
</a>
</g>
</g>
<!-- Node19&#45;&gt;Node20 -->
<g id="edge36" class="edge">
<title>Node19&#45;&gt;Node20</title>
<path fill="none" stroke="midnightblue" d="M824.55,-219.18C841.48,-209.24 863.78,-196.15 878.26,-187.65"/>
<polygon fill="midnightblue" stroke="midnightblue" points="822.63,-216.24 815.78,-224.32 826.18,-222.28 822.63,-216.24"/>
</g>
<!-- Node20&#45;&gt;Node3 -->
<g id="edge37" class="edge">
<title>Node20&#45;&gt;Node3</title>
<path fill="none" stroke="midnightblue" d="M946.56,-166.99C982.46,-159.06 1025.09,-146.87 1036,-132 1041.26,-124.83 1040.91,-119.41 1036,-112 987.93,-39.39 876.04,-18.83 824.66,-13.13"/>
<polygon fill="midnightblue" stroke="midnightblue" points="945.69,-163.59 936.64,-169.11 947.15,-170.44 945.69,-163.59"/>
</g>
<!-- Node21&#45;&gt;Node20 -->
<g id="edge39" class="edge">
<title>Node21&#45;&gt;Node20</title>
<path fill="none" stroke="midnightblue" d="M893,-213.8C893,-204.91 893,-194.78 893,-187.75"/>
<polygon fill="midnightblue" stroke="midnightblue" points="889.5,-214.08 893,-224.08 896.5,-214.08 889.5,-214.08"/>
</g>
<!-- Node23 -->
<g id="node23" class="node">
<title>Node23</title>
<g id="a_node23"><a xlink:href="../../d4/dbe/limes__music_8h.html" target="_top" xlink:title=" ">
<polygon fill="none" stroke="black" points="1202.5,-56.5 1202.5,-75.5 1289.5,-75.5 1289.5,-56.5 1202.5,-56.5"/>
<text text-anchor="middle" x="1246" y="-63.5" font-family="Helvetica,sans-Serif" font-size="10.00">limes_music.h</text>
</a>
</g>
</g>
<!-- Node22&#45;&gt;Node23 -->
<g id="edge41" class="edge">
<title>Node22&#45;&gt;Node23</title>
<path fill="none" stroke="midnightblue" d="M1145.32,-108.5C1169.88,-98.38 1203.82,-84.39 1225.34,-75.52"/>
<polygon fill="midnightblue" stroke="midnightblue" points="1143.67,-105.4 1135.76,-112.44 1146.34,-111.87 1143.67,-105.4"/>
</g>
<!-- Node23&#45;&gt;Node3 -->
<g id="edge42" class="edge">
<title>Node23&#45;&gt;Node3</title>
<path fill="none" stroke="midnightblue" d="M1192.09,-58.5C1095.52,-46.86 896.39,-22.86 824.57,-14.2"/>
<polygon fill="midnightblue" stroke="midnightblue" points="1191.88,-62 1202.23,-59.72 1192.72,-55.05 1191.88,-62"/>
</g>
<!-- Node24&#45;&gt;Node23 -->
<g id="edge55" class="edge">
<title>Node24&#45;&gt;Node23</title>
<path fill="none" stroke="midnightblue" d="M1241.17,-218.16C1250.72,-210.42 1260.85,-200.05 1266,-188 1282.89,-148.45 1260.67,-95.98 1250.55,-75.6"/>
<polygon fill="midnightblue" stroke="midnightblue" points="1238.96,-215.45 1233.08,-224.26 1243.17,-221.04 1238.96,-215.45"/>
</g>
<!-- Node24&#45;&gt;Node25 -->
<g id="edge44" class="edge">
<title>Node24&#45;&gt;Node25</title>
<path fill="none" stroke="midnightblue" d="M1219,-213.8C1219,-204.91 1219,-194.78 1219,-187.75"/>
<polygon fill="midnightblue" stroke="midnightblue" points="1215.5,-214.08 1219,-224.08 1222.5,-214.08 1215.5,-214.08"/>
</g>
<!-- Node24&#45;&gt;Node26 -->
<g id="edge46" class="edge">
<title>Node24&#45;&gt;Node26</title>
<path fill="none" stroke="midnightblue" d="M1255.07,-223.94C1295.47,-213.79 1360.44,-197.48 1399.98,-187.55"/>
<polygon fill="midnightblue" stroke="midnightblue" points="1254.21,-220.55 1245.36,-226.38 1255.91,-227.34 1254.21,-220.55"/>
</g>
<!-- Node24&#45;&gt;Node27 -->
<g id="edge50" class="edge">
<title>Node24&#45;&gt;Node27</title>
<path fill="none" stroke="midnightblue" d="M1248.46,-219.85C1264.38,-211.94 1283.81,-200.9 1299,-188 1319.04,-170.97 1336.87,-145.3 1345.5,-131.89"/>
<polygon fill="midnightblue" stroke="midnightblue" points="1246.57,-216.87 1239.08,-224.36 1249.61,-223.18 1246.57,-216.87"/>
</g>
<!-- Node24&#45;&gt;Node28 -->
<g id="edge51" class="edge">
<title>Node24&#45;&gt;Node28</title>
<path fill="none" stroke="midnightblue" d="M1182.94,-222.75C1147.08,-212.56 1092.7,-197.1 1059.09,-187.55"/>
<polygon fill="midnightblue" stroke="midnightblue" points="1182.4,-226.24 1192.98,-225.6 1184.32,-219.5 1182.4,-226.24"/>
</g>
<!-- Node24&#45;&gt;Node29 -->
<g id="edge53" class="edge">
<title>Node24&#45;&gt;Node29</title>
<path fill="none" stroke="midnightblue" d="M1194.43,-219.18C1176.76,-209.24 1153.49,-196.15 1138.39,-187.65"/>
<polygon fill="midnightblue" stroke="midnightblue" points="1193.14,-222.47 1203.58,-224.32 1196.58,-216.37 1193.14,-222.47"/>
</g>
<!-- Node25&#45;&gt;Node23 -->
<g id="edge45" class="edge">
<title>Node25&#45;&gt;Node23</title>
<path fill="none" stroke="midnightblue" d="M1223.58,-158.35C1229.49,-134.25 1239.54,-93.31 1243.89,-75.59"/>
<polygon fill="midnightblue" stroke="midnightblue" points="1220.1,-157.82 1221.12,-168.37 1226.9,-159.49 1220.1,-157.82"/>
</g>
<!-- Node26&#45;&gt;Node23 -->
<g id="edge49" class="edge">
<title>Node26&#45;&gt;Node23</title>
<path fill="none" stroke="midnightblue" d="M1425.1,-159.44C1416.84,-144.78 1403.22,-124.37 1386,-112 1357.38,-91.45 1318.94,-79.98 1289.57,-73.77"/>
<polygon fill="midnightblue" stroke="midnightblue" points="1422.14,-161.33 1429.95,-168.49 1428.32,-158.02 1422.14,-161.33"/>
</g>
<!-- Node26&#45;&gt;Node27 -->
<g id="edge47" class="edge">
<title>Node26&#45;&gt;Node27</title>
<path fill="none" stroke="midnightblue" d="M1411.9,-162.62C1396.74,-152.76 1377.12,-139.99 1364.3,-131.65"/>
<polygon fill="midnightblue" stroke="midnightblue" points="1410.37,-165.8 1420.66,-168.32 1414.19,-159.94 1410.37,-165.8"/>
</g>
<!-- Node27&#45;&gt;Node23 -->
<g id="edge48" class="edge">
<title>Node27&#45;&gt;Node23</title>
<path fill="none" stroke="midnightblue" d="M1325.19,-107.73C1305.75,-97.73 1279.65,-84.31 1262.83,-75.65"/>
<polygon fill="midnightblue" stroke="midnightblue" points="1323.64,-110.86 1334.13,-112.32 1326.84,-104.64 1323.64,-110.86"/>
</g>
<!-- Node28&#45;&gt;Node23 -->
<g id="edge52" class="edge">
<title>Node28&#45;&gt;Node23</title>
<path fill="none" stroke="midnightblue" d="M1067.87,-165.39C1092.36,-157.41 1124.29,-145.79 1151,-132 1168.05,-123.2 1212.96,-91.04 1234.35,-75.51"/>
<polygon fill="midnightblue" stroke="midnightblue" points="1066.66,-162.1 1058.2,-168.47 1068.79,-168.77 1066.66,-162.1"/>
</g>
<!-- Node29&#45;&gt;Node23 -->
<g id="edge54" class="edge">
<title>Node29&#45;&gt;Node23</title>
<path fill="none" stroke="midnightblue" d="M1144.62,-162.43C1156.61,-154.02 1171.57,-142.95 1184,-132 1205.06,-113.44 1227.16,-88.85 1238.42,-75.88"/>
<polygon fill="midnightblue" stroke="midnightblue" points="1142.35,-159.74 1136.12,-168.31 1146.33,-165.5 1142.35,-159.74"/>
</g>
<!-- Node30&#45;&gt;Node23 -->
<g id="edge62" class="edge">
<title>Node30&#45;&gt;Node23</title>
<path fill="none" stroke="midnightblue" d="M1534.29,-216.41C1522.63,-202.75 1505.1,-183.22 1488,-168 1456.39,-139.87 1449.15,-130.31 1411,-112 1371.92,-93.24 1323.75,-81.24 1289.57,-74.39"/>
<polygon fill="midnightblue" stroke="midnightblue" points="1531.62,-218.68 1540.74,-224.07 1536.98,-214.17 1531.62,-218.68"/>
</g>
<!-- Node31 -->
<g id="node31" class="node">
<title>Node31</title>
<g id="a_node31"><a xlink:href="../../d8/dd4/_note_length__impl_8h.html" target="_top" xlink:title=" ">
<polygon fill="none" stroke="black" points="1535.5,-168.5 1535.5,-187.5 1644.5,-187.5 1644.5,-168.5 1535.5,-168.5"/>
<text text-anchor="middle" x="1590" y="-175.5" font-family="Helvetica,sans-Serif" font-size="10.00">NoteLength_impl.h</text>
</a>
</g>
</g>
<!-- Node30&#45;&gt;Node31 -->
<g id="edge63" class="edge">
<title>Node30&#45;&gt;Node31</title>
<path fill="none" stroke="midnightblue" d="M1555.2,-215.57C1561.64,-206.27 1570.62,-195.25 1578.06,-187.75"/>
<polygon fill="midnightblue" stroke="midnightblue" points="1552.2,-213.77 1549.77,-224.08 1558.1,-217.53 1552.2,-213.77"/>
</g>
<!-- Node31&#45;&gt;Node30 -->
<g id="edge64" class="edge">
<title>Node31&#45;&gt;Node30</title>
<path fill="none" stroke="midnightblue" d="M1582.94,-196.23C1576.54,-205.49 1567.57,-216.53 1560.1,-224.08"/>
<polygon fill="midnightblue" stroke="midnightblue" points="1585.92,-198.07 1588.32,-187.75 1580.01,-194.32 1585.92,-198.07"/>
</g>
</g>
</svg>
        <g id="navigator" transform="translate(0 0)" fill="#404254">
                <rect fill="#f2f5e9" fill-opacity="0.5" stroke="#606060" stroke-width=".5" x="0" y="0" width="60" height="60"/>
                <use id="zoomplus" xlink:href="#zoomPlus" x="17" y="9" onmousedown="handleZoom(evt,'in')"/>
                <use id="zoomminus" xlink:href="#zoomMin" x="42" y="9" onmousedown="handleZoom(evt,'out')"/>
                <use id="reset" xlink:href="#resetDef" x="30" y="36" onmousedown="handleReset()"/>
                <g id="arrowUp" xlink:href="#dirArrow" transform="translate(30 24)" onmousedown="handlePan(0,-1)">
                  <use xlink:href="#rim" fill="#404040">
                        <set attributeName="fill" to="#808080" begin="arrowUp.mouseover" end="arrowUp.mouseout"/>
                  </use>
                  <path fill="none" stroke="white" stroke-width="1.5" d="M0,-3.0v7 M-2.5,-0.5L0,-3.0L2.5,-0.5"/>
                </g>
                <g id="arrowRight" xlink:href="#dirArrow" transform="rotate(90) translate(36 -43)" onmousedown="handlePan(1,0)">
                  <use xlink:href="#rim" fill="#404040">
                        <set attributeName="fill" to="#808080" begin="arrowRight.mouseover" end="arrowRight.mouseout"/>
                  </use>
                  <path fill="none" stroke="white" stroke-width="1.5" d="M0,-3.0v7 M-2.5,-0.5L0,-3.0L2.5,-0.5"/>
                </g>
                <g id="arrowDown" xlink:href="#dirArrow" transform="rotate(180) translate(-30 -48)" onmousedown="handlePan(0,1)">
                  <use xlink:href="#rim" fill="#404040">
                        <set attributeName="fill" to="#808080" begin="arrowDown.mouseover" end="arrowDown.mouseout"/>
                  </use>
                  <path fill="none" stroke="white" stroke-width="1.5" d="M0,-3.0v7 M-2.5,-0.5L0,-3.0L2.5,-0.5"/>
                </g>
                <g id="arrowLeft" xlink:href="#dirArrow" transform="rotate(270) translate(-36 17)" onmousedown="handlePan(-1,0)">
                  <use xlink:href="#rim" fill="#404040">
                        <set attributeName="fill" to="#808080" begin="arrowLeft.mouseover" end="arrowLeft.mouseout"/>
                  </use>
                  <path fill="none" stroke="white" stroke-width="1.5" d="M0,-3.0v7 M-2.5,-0.5L0,-3.0L2.5,-0.5"/>
                </g>
        </g>
        <svg viewBox="0 0 15 15" width="100%" height="30px" preserveAspectRatio="xMaxYMin meet">
         <g id="arrow_out" transform="scale(0.3 0.3)">
          <a xlink:href="_dimensions_8h__dep__incl_org.svg" target="_base">
           <rect id="button" ry="5" rx="5" y="6" x="6" height="38" width="38"
                fill="#f2f5e9" fill-opacity="0.5" stroke="#606060" stroke-width="1.0"/>
           <path id="arrow"
             d="M 11.500037,31.436501 C 11.940474,20.09759 22.043105,11.32322 32.158766,21.979434 L 37.068811,17.246167 C 37.068811,17.246167 37.088388,32 37.088388,32 L 22.160133,31.978069 C 22.160133,31.978069 26.997745,27.140456 26.997745,27.140456 C 18.528582,18.264221 13.291696,25.230495 11.500037,31.436501 z"
             style="fill:#404040;"/>
          </a>
         </g>
        </svg>
</svg>
