<?xml version="1.0" encoding="UTF-8" standalone="no"?>
<!DOCTYPE svg PUBLIC "-//W3C//DTD SVG 1.1//EN"
 "http://www.w3.org/Graphics/SVG/1.1/DTD/svg11.dtd">
<!-- Generated by graphviz version 2.43.0 (0)
 -->
<!-- Title: CFile.h Pages: 1 -->
<!--zoomable 431 -->
<svg id="main" version="1.1" xmlns="http://www.w3.org/2000/svg" xmlns:xlink="http://www.w3.org/1999/xlink" xml:space="preserve" onload="init(evt)">
<style type="text/css"><![CDATA[
.edge:hover path { stroke: red; }
.edge:hover polygon { stroke: red; fill: red; }
]]></style>
<script type="text/javascript"><![CDATA[
var edges = document.getElementsByTagName('g');
if (edges && edges.length) {
  for (var i=0;i<edges.length;i++) {
    if (edges[i].id.substr(0,4)=='edge') {
      edges[i].setAttribute('class','edge');
    }
  }
}
]]></script>
        <defs>
                <circle id="rim" cx="0" cy="0" r="7"/>
                <circle id="rim2" cx="0" cy="0" r="3.5"/>
                <g id="zoomPlus">
                        <use xlink:href="#rim" fill="#404040">
                                <set attributeName="fill" to="#808080" begin="zoomplus.mouseover" end="zoomplus.mouseout"/>
                        </use>
                        <path d="M-4,0h8M0,-4v8" fill="none" stroke="white" stroke-width="1.5" pointer-events="none"/>
                </g>
                <g id="zoomMin">
                        <use xlink:href="#rim" fill="#404040">
                                <set attributeName="fill" to="#808080" begin="zoomminus.mouseover" end="zoomminus.mouseout"/>
                        </use>
                        <path d="M-4,0h8" fill="none" stroke="white" stroke-width="1.5" pointer-events="none"/>
                </g>
                <g id="dirArrow">
                        <path fill="none" stroke="white" stroke-width="1.5" d="M0,-3.0v7 M-2.5,-0.5L0,-3.0L2.5,-0.5"/>
                </g>
               <g id="resetDef">
                       <use xlink:href="#rim2" fill="#404040">
                               <set attributeName="fill" to="#808080" begin="reset.mouseover" end="reset.mouseout"/>
                       </use>
               </g>
        </defs>

<script type="text/javascript">
var viewWidth = 1236;
var viewHeight = 431;
var sectionId = 'dynsection-0';
</script>
<script xlink:href="../../svgpan.js"/>
<svg id="graph" class="graph">
<g id="viewport">
<title>CFile.h</title>
<!-- Node1 -->
<g id="node1" class="node">
<title>Node1</title>
<g id="a_node1"><a xlink:title=" ">
<polygon fill="#bfbfbf" stroke="black" points="380,-403.5 380,-422.5 430,-422.5 430,-403.5 380,-403.5"/>
<text text-anchor="middle" x="405" y="-410.5" font-family="Helvetica,sans-Serif" font-size="10.00">CFile.h</text>
</a>
</g>
</g>
<!-- Node2 -->
<g id="node2" class="node">
<title>Node2</title>
<g id="a_node2"><a xlink:title=" ">
<polygon fill="none" stroke="#bfbfbf" points="511.5,-118 511.5,-137 600.5,-137 600.5,-118 511.5,-118"/>
<text text-anchor="middle" x="556" y="-125" font-family="Helvetica,sans-Serif" font-size="10.00">limes_export.h</text>
</a>
</g>
</g>
<!-- Node1&#45;&gt;Node2 -->
<g id="edge1" class="edge">
<title>Node1&#45;&gt;Node2</title>
<path fill="none" stroke="midnightblue" d="M413.74,-403.49C430.61,-386.12 466,-344.58 466,-302 466,-302 466,-302 466,-244 466,-199.92 507.29,-162.56 533.94,-143.05"/>
<polygon fill="midnightblue" stroke="midnightblue" points="536.18,-145.75 542.33,-137.13 532.14,-140.03 536.18,-145.75"/>
</g>
<!-- Node3 -->
<g id="node3" class="node">
<title>Node3</title>
<g id="a_node3"><a xlink:href="../../da/d0b/limes__namespace_8h.html" target="_top" xlink:title=" ">
<polygon fill="none" stroke="black" points="1095,-118 1095,-137 1209,-137 1209,-118 1095,-118"/>
<text text-anchor="middle" x="1152" y="-125" font-family="Helvetica,sans-Serif" font-size="10.00">limes_namespace.h</text>
</a>
</g>
</g>
<!-- Node1&#45;&gt;Node3 -->
<g id="edge2" class="edge">
<title>Node1&#45;&gt;Node3</title>
<path fill="none" stroke="midnightblue" d="M430.08,-411.35C568.01,-407.48 1228,-384.62 1228,-302 1228,-302 1228,-302 1228,-244 1228,-202.31 1193.02,-164.03 1170.52,-143.72"/>
<polygon fill="midnightblue" stroke="midnightblue" points="1172.73,-141 1162.89,-137.08 1168.14,-146.28 1172.73,-141"/>
</g>
<!-- Node4 -->
<g id="node4" class="node">
<title>Node4</title>
<g id="a_node4"><a xlink:title=" ">
<polygon fill="none" stroke="#bfbfbf" points="382,-347.5 382,-366.5 428,-366.5 428,-347.5 382,-347.5"/>
<text text-anchor="middle" x="405" y="-354.5" font-family="Helvetica,sans-Serif" font-size="10.00">cstdio</text>
</a>
</g>
</g>
<!-- Node1&#45;&gt;Node4 -->
<g id="edge3" class="edge">
<title>Node1&#45;&gt;Node4</title>
<path fill="none" stroke="midnightblue" d="M405,-403.08C405,-396.01 405,-385.86 405,-376.99"/>
<polygon fill="midnightblue" stroke="midnightblue" points="408.5,-376.75 405,-366.75 401.5,-376.75 408.5,-376.75"/>
</g>
<!-- Node5 -->
<g id="node5" class="node">
<title>Node5</title>
<g id="a_node5"><a xlink:href="../../d3/d53/preprocessor_8h.html" target="_top" xlink:title=" ">
<polygon fill="none" stroke="black" points="744.5,-56.5 744.5,-75.5 867.5,-75.5 867.5,-56.5 744.5,-56.5"/>
<text text-anchor="middle" x="806" y="-63.5" font-family="Helvetica,sans-Serif" font-size="10.00">../misc/preprocessor.h</text>
</a>
</g>
</g>
<!-- Node1&#45;&gt;Node5 -->
<g id="edge4" class="edge">
<title>Node1&#45;&gt;Node5</title>
<path fill="none" stroke="midnightblue" d="M379.97,-410.64C291.67,-405.18 0,-381.14 0,-302 0,-302 0,-302 0,-188 0,-127.48 55.71,-131.52 113,-112 226.3,-73.39 580.76,-67.6 734.11,-66.95"/>
<polygon fill="midnightblue" stroke="midnightblue" points="734.37,-70.45 744.36,-66.91 734.34,-63.45 734.37,-70.45"/>
</g>
<!-- Node7 -->
<g id="node7" class="node">
<title>Node7</title>
<g id="a_node7"><a xlink:href="../../d2/d83/_filesystem_entry_8h.html" target="_top" xlink:title=" ">
<polygon fill="none" stroke="black" points="240.5,-347.5 240.5,-366.5 343.5,-366.5 343.5,-347.5 240.5,-347.5"/>
<text text-anchor="middle" x="292" y="-354.5" font-family="Helvetica,sans-Serif" font-size="10.00">FilesystemEntry.h</text>
</a>
</g>
</g>
<!-- Node1&#45;&gt;Node7 -->
<g id="edge6" class="edge">
<title>Node1&#45;&gt;Node7</title>
<path fill="none" stroke="midnightblue" d="M387.09,-403.44C368.75,-394.68 339.99,-380.94 318.91,-370.86"/>
<polygon fill="midnightblue" stroke="midnightblue" points="320.35,-367.67 309.82,-366.52 317.33,-373.99 320.35,-367.67"/>
</g>
<!-- Node6 -->
<g id="node6" class="node">
<title>Node6</title>
<g id="a_node6"><a xlink:title=" ">
<polygon fill="none" stroke="#bfbfbf" points="801,-0.5 801,-19.5 901,-19.5 901,-0.5 801,-0.5"/>
<text text-anchor="middle" x="851" y="-7.5" font-family="Helvetica,sans-Serif" font-size="10.00">limes_platform.h</text>
</a>
</g>
</g>
<!-- Node5&#45;&gt;Node6 -->
<g id="edge5" class="edge">
<title>Node5&#45;&gt;Node6</title>
<path fill="none" stroke="midnightblue" d="M813.43,-56.08C819.85,-48.38 829.31,-37.03 837.12,-27.65"/>
<polygon fill="midnightblue" stroke="midnightblue" points="839.99,-29.67 843.71,-19.75 834.62,-25.19 839.99,-29.67"/>
</g>
<!-- Node7&#45;&gt;Node2 -->
<g id="edge8" class="edge">
<title>Node7&#45;&gt;Node2</title>
<path fill="none" stroke="midnightblue" d="M240.32,-356.21C170.16,-354.55 57.55,-343.91 95,-291 188.99,-158.21 400.75,-133.17 501.17,-128.97"/>
<polygon fill="midnightblue" stroke="midnightblue" points="501.54,-132.46 511.41,-128.6 501.28,-125.47 501.54,-132.46"/>
</g>
<!-- Node7&#45;&gt;Node3 -->
<g id="edge9" class="edge">
<title>Node7&#45;&gt;Node3</title>
<path fill="none" stroke="midnightblue" d="M343.83,-350.01C353.52,-348.95 363.56,-347.9 373,-347 659.93,-319.49 753.04,-375.27 1015,-255 1056.11,-236.12 1067.18,-230.13 1100,-199 1116.84,-183.03 1132.08,-161.05 1141.64,-145.9"/>
<polygon fill="midnightblue" stroke="midnightblue" points="1144.82,-147.42 1147.07,-137.06 1138.85,-143.76 1144.82,-147.42"/>
</g>
<!-- Node7&#45;&gt;Node5 -->
<g id="edge13" class="edge">
<title>Node7&#45;&gt;Node5</title>
<path fill="none" stroke="midnightblue" d="M240.29,-355.65C166.03,-352.11 38,-333.34 38,-246 38,-246 38,-246 38,-188 38,-117.92 543.44,-81.91 734.24,-70.82"/>
<polygon fill="midnightblue" stroke="midnightblue" points="734.67,-74.3 744.45,-70.23 734.27,-67.31 734.67,-74.3"/>
</g>
<!-- Node8 -->
<g id="node8" class="node">
<title>Node8</title>
<g id="a_node8"><a xlink:title=" ">
<polygon fill="none" stroke="#bfbfbf" points="104,-291.5 104,-310.5 162,-310.5 162,-291.5 104,-291.5"/>
<text text-anchor="middle" x="133" y="-298.5" font-family="Helvetica,sans-Serif" font-size="10.00">memory</text>
</a>
</g>
</g>
<!-- Node7&#45;&gt;Node8 -->
<g id="edge7" class="edge">
<title>Node7&#45;&gt;Node8</title>
<path fill="none" stroke="midnightblue" d="M266.81,-347.44C240.06,-338.36 197.6,-323.94 167.69,-313.78"/>
<polygon fill="midnightblue" stroke="midnightblue" points="168.67,-310.42 158.08,-310.52 166.42,-317.05 168.67,-310.42"/>
</g>
<!-- Node9 -->
<g id="node9" class="node">
<title>Node9</title>
<g id="a_node9"><a xlink:title=" ">
<polygon fill="none" stroke="#bfbfbf" points="180,-291.5 180,-310.5 230,-310.5 230,-291.5 180,-291.5"/>
<text text-anchor="middle" x="205" y="-298.5" font-family="Helvetica,sans-Serif" font-size="10.00">cstdint</text>
</a>
</g>
</g>
<!-- Node7&#45;&gt;Node9 -->
<g id="edge10" class="edge">
<title>Node7&#45;&gt;Node9</title>
<path fill="none" stroke="midnightblue" d="M278.02,-347.32C264.45,-338.9 243.62,-325.97 227.68,-316.07"/>
<polygon fill="midnightblue" stroke="midnightblue" points="229.29,-312.95 218.94,-310.65 225.59,-318.9 229.29,-312.95"/>
</g>
<!-- Node10 -->
<g id="node10" class="node">
<title>Node10</title>
<g id="a_node10"><a xlink:title=" ">
<polygon fill="none" stroke="#bfbfbf" points="248,-291.5 248,-310.5 316,-310.5 316,-291.5 248,-291.5"/>
<text text-anchor="middle" x="282" y="-298.5" font-family="Helvetica,sans-Serif" font-size="10.00">filesystem</text>
</a>
</g>
</g>
<!-- Node7&#45;&gt;Node10 -->
<g id="edge11" class="edge">
<title>Node7&#45;&gt;Node10</title>
<path fill="none" stroke="midnightblue" d="M290.35,-347.08C289.02,-339.93 287.12,-329.64 285.46,-320.69"/>
<polygon fill="midnightblue" stroke="midnightblue" points="288.88,-319.95 283.62,-310.75 282,-321.22 288.88,-319.95"/>
</g>
<!-- Node11 -->
<g id="node11" class="node">
<title>Node11</title>
<g id="a_node11"><a xlink:title=" ">
<polygon fill="none" stroke="#bfbfbf" points="570,-179.5 570,-198.5 614,-198.5 614,-179.5 570,-179.5"/>
<text text-anchor="middle" x="592" y="-186.5" font-family="Helvetica,sans-Serif" font-size="10.00">string</text>
</a>
</g>
</g>
<!-- Node7&#45;&gt;Node11 -->
<g id="edge12" class="edge">
<title>Node7&#45;&gt;Node11</title>
<path fill="none" stroke="midnightblue" d="M319.2,-347.41C343.39,-339.34 379.4,-326.25 409,-311 472.14,-278.48 540.39,-229.13 572.81,-204.73"/>
<polygon fill="midnightblue" stroke="midnightblue" points="575.11,-207.38 580.97,-198.54 570.88,-201.8 575.11,-207.38"/>
</g>
<!-- Node12 -->
<g id="node12" class="node">
<title>Node12</title>
<g id="a_node12"><a xlink:href="../../df/da8/_date_time_8h.html" target="_top" xlink:title=" ">
<polygon fill="none" stroke="black" points="702,-291.5 702,-310.5 810,-310.5 810,-291.5 702,-291.5"/>
<text text-anchor="middle" x="756" y="-298.5" font-family="Helvetica,sans-Serif" font-size="10.00">../time/DateTime.h</text>
</a>
</g>
</g>
<!-- Node7&#45;&gt;Node12 -->
<g id="edge14" class="edge">
<title>Node7&#45;&gt;Node12</title>
<path fill="none" stroke="midnightblue" d="M343.88,-349.96C429.24,-340.03 599.08,-320.26 691.86,-309.46"/>
<polygon fill="midnightblue" stroke="midnightblue" points="692.43,-312.92 701.96,-308.29 691.62,-305.97 692.43,-312.92"/>
</g>
<!-- Node43 -->
<g id="node18" class="node">
<title>Node43</title>
<g id="a_node18"><a xlink:title=" ">
<polygon fill="none" stroke="#bfbfbf" points="334.5,-291.5 334.5,-310.5 399.5,-310.5 399.5,-291.5 334.5,-291.5"/>
<text text-anchor="middle" x="367" y="-298.5" font-family="Helvetica,sans-Serif" font-size="10.00">functional</text>
</a>
</g>
</g>
<!-- Node7&#45;&gt;Node43 -->
<g id="edge43" class="edge">
<title>Node7&#45;&gt;Node43</title>
<path fill="none" stroke="midnightblue" d="M304.05,-347.32C315.46,-339.11 332.83,-326.6 346.43,-316.81"/>
<polygon fill="midnightblue" stroke="midnightblue" points="348.66,-319.52 354.73,-310.83 344.57,-313.84 348.66,-319.52"/>
</g>
<!-- Node12&#45;&gt;Node2 -->
<g id="edge15" class="edge">
<title>Node12&#45;&gt;Node2</title>
<path fill="none" stroke="midnightblue" d="M701.81,-293.4C652.24,-286.3 583.73,-273.5 564,-255 534.66,-227.5 543.13,-174.8 550.38,-146.89"/>
<polygon fill="midnightblue" stroke="midnightblue" points="553.77,-147.78 553.11,-137.21 547.03,-145.88 553.77,-147.78"/>
</g>
<!-- Node12&#45;&gt;Node3 -->
<g id="edge16" class="edge">
<title>Node12&#45;&gt;Node3</title>
<path fill="none" stroke="midnightblue" d="M810.11,-295.54C857.28,-290.2 926.76,-278.8 983,-255 1046.9,-227.96 1108.71,-171.74 1136.58,-144.28"/>
<polygon fill="midnightblue" stroke="midnightblue" points="1139.22,-146.59 1143.81,-137.04 1134.26,-141.64 1139.22,-146.59"/>
</g>
<!-- Node12&#45;&gt;Node11 -->
<g id="edge40" class="edge">
<title>Node12&#45;&gt;Node11</title>
<path fill="none" stroke="midnightblue" d="M743.13,-291.37C714.99,-272.49 647.74,-227.38 613.23,-204.24"/>
<polygon fill="midnightblue" stroke="midnightblue" points="615.06,-201.26 604.81,-198.59 611.16,-207.07 615.06,-201.26"/>
</g>
<!-- Node13 -->
<g id="node13" class="node">
<title>Node13</title>
<g id="a_node13"><a xlink:href="../../de/df7/time_8h.html" target="_top" xlink:title=" ">
<polygon fill="none" stroke="red" points="887,-235.5 887,-254.5 935,-254.5 935,-235.5 887,-235.5"/>
<text text-anchor="middle" x="911" y="-242.5" font-family="Helvetica,sans-Serif" font-size="10.00">time.h</text>
</a>
</g>
</g>
<!-- Node12&#45;&gt;Node13 -->
<g id="edge17" class="edge">
<title>Node12&#45;&gt;Node13</title>
<path fill="none" stroke="midnightblue" d="M780.56,-291.44C806.6,-282.37 847.91,-267.98 877.05,-257.83"/>
<polygon fill="midnightblue" stroke="midnightblue" points="878.52,-261.02 886.81,-254.43 876.22,-254.41 878.52,-261.02"/>
</g>
<!-- Node15 -->
<g id="node14" class="node">
<title>Node15</title>
<g id="a_node14"><a xlink:href="../../d0/d00/compiler__defs_8h.html" target="_top" xlink:title=" ">
<polygon fill="none" stroke="black" points="969.5,-112.5 969.5,-142.5 1076.5,-142.5 1076.5,-112.5 969.5,-112.5"/>
<text text-anchor="start" x="977.5" y="-130.5" font-family="Helvetica,sans-Serif" font-size="10.00">../system/compiler</text>
<text text-anchor="middle" x="1023" y="-119.5" font-family="Helvetica,sans-Serif" font-size="10.00">_defs.h</text>
</a>
</g>
</g>
<!-- Node12&#45;&gt;Node15 -->
<g id="edge42" class="edge">
<title>Node12&#45;&gt;Node15</title>
<path fill="none" stroke="midnightblue" d="M810.17,-291.95C848.57,-285.07 900.74,-273.33 944,-255 986.68,-236.91 1009.69,-239.64 1032,-199 1039.79,-184.81 1037.23,-166.66 1032.89,-152.32"/>
<polygon fill="midnightblue" stroke="midnightblue" points="1036.12,-150.97 1029.53,-142.67 1029.51,-153.27 1036.12,-150.97"/>
</g>
<!-- Node16 -->
<g id="node15" class="node">
<title>Node16</title>
<g id="a_node15"><a xlink:title=" ">
<polygon fill="none" stroke="#bfbfbf" points="786,-118 786,-137 830,-137 830,-118 786,-118"/>
<text text-anchor="middle" x="808" y="-125" font-family="Helvetica,sans-Serif" font-size="10.00">ctime</text>
</a>
</g>
</g>
<!-- Node12&#45;&gt;Node16 -->
<g id="edge39" class="edge">
<title>Node12&#45;&gt;Node16</title>
<path fill="none" stroke="midnightblue" d="M713.14,-291.46C642.36,-275.49 513.38,-237.34 561,-179 587.76,-146.21 715.05,-134.14 775.71,-130.2"/>
<polygon fill="midnightblue" stroke="midnightblue" points="776.11,-133.68 785.87,-129.58 775.68,-126.7 776.11,-133.68"/>
</g>
<!-- Node23 -->
<g id="node16" class="node">
<title>Node23</title>
<g id="a_node16"><a xlink:href="../../d5/dd4/time__utils_8h.html" target="_top" xlink:title=" ">
<polygon fill="none" stroke="red" points="822,-179.5 822,-198.5 896,-198.5 896,-179.5 822,-179.5"/>
<text text-anchor="middle" x="859" y="-186.5" font-family="Helvetica,sans-Serif" font-size="10.00">time_utils.h</text>
</a>
</g>
</g>
<!-- Node12&#45;&gt;Node23 -->
<g id="edge41" class="edge">
<title>Node12&#45;&gt;Node23</title>
<path fill="none" stroke="midnightblue" d="M764.08,-291.37C781.31,-272.97 821.85,-229.67 843.97,-206.05"/>
<polygon fill="midnightblue" stroke="midnightblue" points="846.68,-208.28 850.96,-198.59 841.57,-203.5 846.68,-208.28"/>
</g>
<!-- Node30 -->
<g id="node17" class="node">
<title>Node30</title>
<g id="a_node17"><a xlink:href="../../db/d96/date_8h.html" target="_top" xlink:title=" ">
<polygon fill="none" stroke="red" points="732.5,-235.5 732.5,-254.5 779.5,-254.5 779.5,-235.5 732.5,-235.5"/>
<text text-anchor="middle" x="756" y="-242.5" font-family="Helvetica,sans-Serif" font-size="10.00">date.h</text>
</a>
</g>
</g>
<!-- Node12&#45;&gt;Node30 -->
<g id="edge31" class="edge">
<title>Node12&#45;&gt;Node30</title>
<path fill="none" stroke="midnightblue" d="M756,-291.08C756,-284.01 756,-273.86 756,-264.99"/>
<polygon fill="midnightblue" stroke="midnightblue" points="759.5,-264.75 756,-254.75 752.5,-264.75 759.5,-264.75"/>
</g>
<!-- Node13&#45;&gt;Node2 -->
<g id="edge18" class="edge">
<title>Node13&#45;&gt;Node2</title>
<path fill="none" stroke="midnightblue" d="M886.88,-236.15C825.77,-216.27 664.59,-163.83 592.16,-140.26"/>
<polygon fill="midnightblue" stroke="midnightblue" points="593.14,-136.9 582.55,-137.14 590.97,-143.56 593.14,-136.9"/>
</g>
<!-- Node13&#45;&gt;Node3 -->
<g id="edge19" class="edge">
<title>Node13&#45;&gt;Node3</title>
<path fill="none" stroke="midnightblue" d="M935.16,-236.41C959.95,-228.29 999.41,-214.49 1032,-199 1067.84,-181.97 1107.07,-157.78 1130.6,-142.62"/>
<polygon fill="midnightblue" stroke="midnightblue" points="1132.62,-145.49 1139.1,-137.1 1128.8,-139.62 1132.62,-145.49"/>
</g>
<!-- Node13&#45;&gt;Node5 -->
<g id="edge20" class="edge">
<title>Node13&#45;&gt;Node5</title>
<path fill="none" stroke="midnightblue" d="M915.46,-235.23C921.34,-222.39 930.05,-197.96 922,-179 903.25,-134.82 857.58,-99.58 829.47,-81.13"/>
<polygon fill="midnightblue" stroke="midnightblue" points="831.32,-78.16 821.01,-75.73 827.56,-84.06 831.32,-78.16"/>
</g>
<!-- Node13&#45;&gt;Node11 -->
<g id="edge25" class="edge">
<title>Node13&#45;&gt;Node11</title>
<path fill="none" stroke="midnightblue" d="M886.76,-239.9C829.88,-230.27 687.83,-206.22 623.97,-195.41"/>
<polygon fill="midnightblue" stroke="midnightblue" points="624.51,-191.95 614.06,-193.74 623.34,-198.86 624.51,-191.95"/>
</g>
<!-- Node13&#45;&gt;Node15 -->
<g id="edge21" class="edge">
<title>Node13&#45;&gt;Node15</title>
<path fill="none" stroke="midnightblue" d="M935.24,-240.4C959.28,-235.46 995.16,-224.14 1014,-199 1023.73,-186.02 1025.84,-167.77 1025.59,-153.1"/>
<polygon fill="midnightblue" stroke="midnightblue" points="1029.06,-152.51 1025.02,-142.71 1022.07,-152.89 1029.06,-152.51"/>
</g>
<!-- Node13&#45;&gt;Node16 -->
<g id="edge24" class="edge">
<title>Node13&#45;&gt;Node16</title>
<path fill="none" stroke="midnightblue" d="M912.67,-235.14C914.68,-221.75 916.5,-196.12 905,-179 890.04,-156.72 862.03,-143.65 839.94,-136.41"/>
<polygon fill="midnightblue" stroke="midnightblue" points="840.86,-133.03 830.27,-133.48 838.83,-139.73 840.86,-133.03"/>
</g>
<!-- Node13&#45;&gt;Node23 -->
<g id="edge26" class="edge">
<title>Node13&#45;&gt;Node23</title>
<path fill="none" stroke="midnightblue" d="M902.41,-235.08C894.84,-227.22 883.62,-215.57 874.49,-206.08"/>
<polygon fill="midnightblue" stroke="midnightblue" points="876.88,-203.53 867.43,-198.75 871.84,-208.38 876.88,-203.53"/>
</g>
<!-- Node15&#45;&gt;Node5 -->
<g id="edge23" class="edge">
<title>Node15&#45;&gt;Node5</title>
<path fill="none" stroke="midnightblue" d="M971.85,-112.47C933.76,-102.03 882.43,-87.96 847.02,-78.25"/>
<polygon fill="midnightblue" stroke="midnightblue" points="847.59,-74.78 837.02,-75.51 845.74,-81.53 847.59,-74.78"/>
</g>
<!-- Node15&#45;&gt;Node6 -->
<g id="edge22" class="edge">
<title>Node15&#45;&gt;Node6</title>
<path fill="none" stroke="midnightblue" d="M1001.91,-112.34C968.95,-90.2 905.57,-47.64 872.41,-25.38"/>
<polygon fill="midnightblue" stroke="midnightblue" points="874.16,-22.34 863.91,-19.67 870.26,-28.15 874.16,-22.34"/>
</g>
<!-- Node23&#45;&gt;Node2 -->
<g id="edge27" class="edge">
<title>Node23&#45;&gt;Node2</title>
<path fill="none" stroke="midnightblue" d="M821.85,-180.7C768.56,-170.24 670.14,-150.91 609.15,-138.94"/>
<polygon fill="midnightblue" stroke="midnightblue" points="609.82,-135.5 599.33,-137.01 608.47,-142.37 609.82,-135.5"/>
</g>
<!-- Node23&#45;&gt;Node3 -->
<g id="edge28" class="edge">
<title>Node23&#45;&gt;Node3</title>
<path fill="none" stroke="midnightblue" d="M896.01,-180.91C940.98,-172.23 1019.14,-156.97 1086,-143 1091.74,-141.8 1097.75,-140.52 1103.71,-139.23"/>
<polygon fill="midnightblue" stroke="midnightblue" points="1104.61,-142.61 1113.64,-137.07 1103.12,-135.77 1104.61,-142.61"/>
</g>
<!-- Node23&#45;&gt;Node15 -->
<g id="edge30" class="edge">
<title>Node23&#45;&gt;Node15</title>
<path fill="none" stroke="midnightblue" d="M882.5,-179.48C906.47,-170.78 944.37,-157.03 974.77,-146"/>
<polygon fill="midnightblue" stroke="midnightblue" points="976.14,-149.22 984.35,-142.52 973.75,-142.64 976.14,-149.22"/>
</g>
<!-- Node23&#45;&gt;Node16 -->
<g id="edge29" class="edge">
<title>Node23&#45;&gt;Node16</title>
<path fill="none" stroke="midnightblue" d="M851.69,-179.48C843.97,-170.46 831.59,-156.02 821.98,-144.81"/>
<polygon fill="midnightblue" stroke="midnightblue" points="824.46,-142.32 815.29,-137.01 819.14,-146.88 824.46,-142.32"/>
</g>
<!-- Node30&#45;&gt;Node2 -->
<g id="edge32" class="edge">
<title>Node30&#45;&gt;Node2</title>
<path fill="none" stroke="midnightblue" d="M737.43,-235.43C719.02,-226.76 690.15,-212.72 666,-199 634.25,-180.96 598.93,-157.72 577.08,-142.97"/>
<polygon fill="midnightblue" stroke="midnightblue" points="578.84,-139.92 568.6,-137.2 574.9,-145.71 578.84,-139.92"/>
</g>
<!-- Node30&#45;&gt;Node3 -->
<g id="edge33" class="edge">
<title>Node30&#45;&gt;Node3</title>
<path fill="none" stroke="midnightblue" d="M779.59,-237.12C845.37,-217.93 1031.4,-163.68 1112.91,-139.9"/>
<polygon fill="midnightblue" stroke="midnightblue" points="1114.16,-143.18 1122.78,-137.02 1112.2,-136.46 1114.16,-143.18"/>
</g>
<!-- Node30&#45;&gt;Node5 -->
<g id="edge34" class="edge">
<title>Node30&#45;&gt;Node5</title>
<path fill="none" stroke="midnightblue" d="M756.16,-235.35C756.8,-213.78 760.1,-156.22 777,-112 780.81,-102.03 787.03,-91.96 792.74,-83.87"/>
<polygon fill="midnightblue" stroke="midnightblue" points="795.66,-85.82 798.81,-75.7 790.04,-81.64 795.66,-85.82"/>
</g>
<!-- Node30&#45;&gt;Node11 -->
<g id="edge36" class="edge">
<title>Node30&#45;&gt;Node11</title>
<path fill="none" stroke="midnightblue" d="M732.15,-236.15C703.54,-226.72 655.45,-210.89 623.72,-200.44"/>
<polygon fill="midnightblue" stroke="midnightblue" points="624.63,-197.06 614.04,-197.26 622.44,-203.71 624.63,-197.06"/>
</g>
<!-- Node30&#45;&gt;Node15 -->
<g id="edge38" class="edge">
<title>Node30&#45;&gt;Node15</title>
<path fill="none" stroke="midnightblue" d="M761.09,-235.32C769.84,-221.21 789.1,-193.44 813,-179 857.52,-152.11 915.44,-139.53 959.17,-133.65"/>
<polygon fill="midnightblue" stroke="midnightblue" points="959.64,-137.12 969.12,-132.4 958.76,-130.18 959.64,-137.12"/>
</g>
<!-- Node30&#45;&gt;Node16 -->
<g id="edge35" class="edge">
<title>Node30&#45;&gt;Node16</title>
<path fill="none" stroke="midnightblue" d="M758.7,-235.42C762.78,-222.82 770.97,-198.68 780,-179 785.15,-167.77 791.83,-155.66 797.37,-146.11"/>
<polygon fill="midnightblue" stroke="midnightblue" points="800.54,-147.62 802.62,-137.23 794.52,-144.05 800.54,-147.62"/>
</g>
<!-- Node30&#45;&gt;Node23 -->
<g id="edge37" class="edge">
<title>Node30&#45;&gt;Node23</title>
<path fill="none" stroke="midnightblue" d="M772.55,-235.32C788.99,-226.7 814.43,-213.36 833.47,-203.39"/>
<polygon fill="midnightblue" stroke="midnightblue" points="835.26,-206.4 842.49,-198.65 832.01,-200.2 835.26,-206.4"/>
</g>
</g>
</svg>
        <g id="navigator" transform="translate(0 0)" fill="#404254">
                <rect fill="#f2f5e9" fill-opacity="0.5" stroke="#606060" stroke-width=".5" x="0" y="0" width="60" height="60"/>
                <use id="zoomplus" xlink:href="#zoomPlus" x="17" y="9" onmousedown="handleZoom(evt,'in')"/>
                <use id="zoomminus" xlink:href="#zoomMin" x="42" y="9" onmousedown="handleZoom(evt,'out')"/>
                <use id="reset" xlink:href="#resetDef" x="30" y="36" onmousedown="handleReset()"/>
                <g id="arrowUp" xlink:href="#dirArrow" transform="translate(30 24)" onmousedown="handlePan(0,-1)">
                  <use xlink:href="#rim" fill="#404040">
                        <set attributeName="fill" to="#808080" begin="arrowUp.mouseover" end="arrowUp.mouseout"/>
                  </use>
                  <path fill="none" stroke="white" stroke-width="1.5" d="M0,-3.0v7 M-2.5,-0.5L0,-3.0L2.5,-0.5"/>
                </g>
                <g id="arrowRight" xlink:href="#dirArrow" transform="rotate(90) translate(36 -43)" onmousedown="handlePan(1,0)">
                  <use xlink:href="#rim" fill="#404040">
                        <set attributeName="fill" to="#808080" begin="arrowRight.mouseover" end="arrowRight.mouseout"/>
                  </use>
                  <path fill="none" stroke="white" stroke-width="1.5" d="M0,-3.0v7 M-2.5,-0.5L0,-3.0L2.5,-0.5"/>
                </g>
                <g id="arrowDown" xlink:href="#dirArrow" transform="rotate(180) translate(-30 -48)" onmousedown="handlePan(0,1)">
                  <use xlink:href="#rim" fill="#404040">
                        <set attributeName="fill" to="#808080" begin="arrowDown.mouseover" end="arrowDown.mouseout"/>
                  </use>
                  <path fill="none" stroke="white" stroke-width="1.5" d="M0,-3.0v7 M-2.5,-0.5L0,-3.0L2.5,-0.5"/>
                </g>
                <g id="arrowLeft" xlink:href="#dirArrow" transform="rotate(270) translate(-36 17)" onmousedown="handlePan(-1,0)">
                  <use xlink:href="#rim" fill="#404040">
                        <set attributeName="fill" to="#808080" begin="arrowLeft.mouseover" end="arrowLeft.mouseout"/>
                  </use>
                  <path fill="none" stroke="white" stroke-width="1.5" d="M0,-3.0v7 M-2.5,-0.5L0,-3.0L2.5,-0.5"/>
                </g>
        </g>
        <svg viewBox="0 0 15 15" width="100%" height="30px" preserveAspectRatio="xMaxYMin meet">
         <g id="arrow_out" transform="scale(0.3 0.3)">
          <a xlink:href="_c_file_8h__incl_org.svg" target="_base">
           <rect id="button" ry="5" rx="5" y="6" x="6" height="38" width="38"
                fill="#f2f5e9" fill-opacity="0.5" stroke="#606060" stroke-width="1.0"/>
           <path id="arrow"
             d="M 11.500037,31.436501 C 11.940474,20.09759 22.043105,11.32322 32.158766,21.979434 L 37.068811,17.246167 C 37.068811,17.246167 37.088388,32 37.088388,32 L 22.160133,31.978069 C 22.160133,31.978069 26.997745,27.140456 26.997745,27.140456 C 18.528582,18.264221 13.291696,25.230495 11.500037,31.436501 z"
             style="fill:#404040;"/>
          </a>
         </g>
        </svg>
</svg>
