<?xml version="1.0" encoding="UTF-8" standalone="no"?>
<!DOCTYPE svg PUBLIC "-//W3C//DTD SVG 1.1//EN"
 "http://www.w3.org/Graphics/SVG/1.1/DTD/svg11.dtd">
<!-- Generated by graphviz version 2.43.0 (0)
 -->
<!-- Title: threads::detail::is_rt_safe&lt; T, Tag1, Tag2 &gt; Pages: 1 -->
<!--zoomable 399 -->
<svg id="main" version="1.1" xmlns="http://www.w3.org/2000/svg" xmlns:xlink="http://www.w3.org/1999/xlink" xml:space="preserve" onload="init(evt)">
<style type="text/css"><![CDATA[
.edge:hover path { stroke: red; }
.edge:hover polygon { stroke: red; fill: red; }
]]></style>
<script type="text/javascript"><![CDATA[
var edges = document.getElementsByTagName('g');
if (edges && edges.length) {
  for (var i=0;i<edges.length;i++) {
    if (edges[i].id.substr(0,4)=='edge') {
      edges[i].setAttribute('class','edge');
    }
  }
}
]]></script>
        <defs>
                <circle id="rim" cx="0" cy="0" r="7"/>
                <circle id="rim2" cx="0" cy="0" r="3.5"/>
                <g id="zoomPlus">
                        <use xlink:href="#rim" fill="#404040">
                                <set attributeName="fill" to="#808080" begin="zoomplus.mouseover" end="zoomplus.mouseout"/>
                        </use>
                        <path d="M-4,0h8M0,-4v8" fill="none" stroke="white" stroke-width="1.5" pointer-events="none"/>
                </g>
                <g id="zoomMin">
                        <use xlink:href="#rim" fill="#404040">
                                <set attributeName="fill" to="#808080" begin="zoomminus.mouseover" end="zoomminus.mouseout"/>
                        </use>
                        <path d="M-4,0h8" fill="none" stroke="white" stroke-width="1.5" pointer-events="none"/>
                </g>
                <g id="dirArrow">
                        <path fill="none" stroke="white" stroke-width="1.5" d="M0,-3.0v7 M-2.5,-0.5L0,-3.0L2.5,-0.5"/>
                </g>
               <g id="resetDef">
                       <use xlink:href="#rim2" fill="#404040">
                               <set attributeName="fill" to="#808080" begin="reset.mouseover" end="reset.mouseout"/>
                       </use>
               </g>
        </defs>

<script type="text/javascript">
var viewWidth = 820;
var viewHeight = 399;
var sectionId = 'dynsection-0';
</script>
<script xlink:href="../../svgpan.js"/>
<svg id="graph" class="graph">
<g id="viewport">
<title>threads::detail::is_rt_safe&lt; T, Tag1, Tag2 &gt;</title>
<!-- Node1 -->
<g id="node1" class="node">
<title>Node1</title>
<g id="a_node1"><a xlink:title="Represents a query for realtime safety of the operation represented by Tag1 and Tag2 on the type T .">
<polygon fill="#bfbfbf" stroke="black" points="105,-126 105,-156 246,-156 246,-126 105,-126"/>
<text text-anchor="start" x="113" y="-144" font-family="Helvetica,sans-Serif" font-size="10.00">threads::detail::is</text>
<text text-anchor="middle" x="175.5" y="-133" font-family="Helvetica,sans-Serif" font-size="10.00">_rt_safe&lt; T, Tag1, Tag2 &gt;</text>
</a>
</g>
</g>
<!-- Node3 -->
<g id="node3" class="node">
<title>Node3</title>
<g id="a_node3"><a xlink:href="../../da/d8b/structthreads_1_1detail_1_1is__rt__safe.html" target="_top" xlink:title=" ">
<polygon fill="none" stroke="black" points="452.5,-271.5 452.5,-312.5 583.5,-312.5 583.5,-271.5 452.5,-271.5"/>
<text text-anchor="start" x="460.5" y="-300.5" font-family="Helvetica,sans-Serif" font-size="10.00">threads::detail::is</text>
<text text-anchor="start" x="460.5" y="-289.5" font-family="Helvetica,sans-Serif" font-size="10.00">_rt_safe&lt; T, move_tag,</text>
<text text-anchor="middle" x="518" y="-278.5" font-family="Helvetica,sans-Serif" font-size="10.00"> Tag &gt;</text>
</a>
</g>
</g>
<!-- Node1&#45;&gt;Node3 -->
<g id="edge2" class="edge">
<title>Node1&#45;&gt;Node3</title>
<path fill="none" stroke="orange" stroke-dasharray="5,2" d="M198.48,-163.63C215.16,-179.67 239.34,-200.62 264,-214 323.99,-246.55 399.52,-267.59 452.37,-279.51"/>
<polygon fill="orange" stroke="orange" points="200.52,-160.73 190.93,-156.21 195.61,-165.72 200.52,-160.73"/>
<text text-anchor="middle" x="330.5" y="-266" font-family="Helvetica,sans-Serif" font-size="10.00"> &lt; T, move_tag, Tag &gt;</text>
</g>
<!-- Node7 -->
<g id="node7" class="node">
<title>Node7</title>
<g id="a_node7"><a xlink:href="../../da/d8b/structthreads_1_1detail_1_1is__rt__safe.html" target="_top" xlink:title=" ">
<polygon fill="none" stroke="black" points="422.5,-180.5 422.5,-221.5 613.5,-221.5 613.5,-180.5 422.5,-180.5"/>
<text text-anchor="start" x="430.5" y="-209.5" font-family="Helvetica,sans-Serif" font-size="10.00">threads::detail::is</text>
<text text-anchor="start" x="430.5" y="-198.5" font-family="Helvetica,sans-Serif" font-size="10.00">_rt_safe&lt; T, detail</text>
<text text-anchor="middle" x="518" y="-187.5" font-family="Helvetica,sans-Serif" font-size="10.00">::copy_tag, detail::assignable_tag &gt;</text>
</a>
</g>
</g>
<!-- Node1&#45;&gt;Node7 -->
<g id="edge6" class="edge">
<title>Node1&#45;&gt;Node7</title>
<path fill="none" stroke="orange" stroke-dasharray="5,2" d="M232.33,-158.99C242.78,-161.96 253.67,-164.78 264,-167 315.89,-178.13 374.6,-186.28 422.38,-191.81"/>
<polygon fill="orange" stroke="orange" points="233.05,-155.56 222.47,-156.12 231.09,-162.28 233.05,-155.56"/>
<text text-anchor="start" x="269.5" y="-202" font-family="Helvetica,sans-Serif" font-size="10.00"> &lt; T, detail::copy_tag,</text>
<text text-anchor="middle" x="330.5" y="-191" font-family="Helvetica,sans-Serif" font-size="10.00"> detail::assignable_tag &gt;</text>
</g>
<!-- Node9 -->
<g id="node9" class="node">
<title>Node9</title>
<g id="a_node9"><a xlink:href="../../da/d8b/structthreads_1_1detail_1_1is__rt__safe.html" target="_top" xlink:title=" ">
<polygon fill="none" stroke="black" points="417,-120.5 417,-161.5 619,-161.5 619,-120.5 417,-120.5"/>
<text text-anchor="start" x="425" y="-149.5" font-family="Helvetica,sans-Serif" font-size="10.00">threads::detail::is</text>
<text text-anchor="start" x="425" y="-138.5" font-family="Helvetica,sans-Serif" font-size="10.00">_rt_safe&lt; T, detail</text>
<text text-anchor="middle" x="518" y="-127.5" font-family="Helvetica,sans-Serif" font-size="10.00">::copy_tag, detail::constructible_tag &gt;</text>
</a>
</g>
</g>
<!-- Node1&#45;&gt;Node9 -->
<g id="edge8" class="edge">
<title>Node1&#45;&gt;Node9</title>
<path fill="none" stroke="orange" stroke-dasharray="5,2" d="M256.24,-141C304.14,-141 365.52,-141 416.7,-141"/>
<polygon fill="orange" stroke="orange" points="256.23,-137.5 246.23,-141 256.23,-144.5 256.23,-137.5"/>
<text text-anchor="start" x="264" y="-155" font-family="Helvetica,sans-Serif" font-size="10.00"> &lt; T, detail::copy_tag,</text>
<text text-anchor="middle" x="330.5" y="-144" font-family="Helvetica,sans-Serif" font-size="10.00"> detail::constructible_tag &gt;</text>
</g>
<!-- Node11 -->
<g id="node11" class="node">
<title>Node11</title>
<g id="a_node11"><a xlink:href="../../da/d8b/structthreads_1_1detail_1_1is__rt__safe.html" target="_top" xlink:title=" ">
<polygon fill="none" stroke="black" points="415,-60.5 415,-101.5 621,-101.5 621,-60.5 415,-60.5"/>
<text text-anchor="start" x="423" y="-89.5" font-family="Helvetica,sans-Serif" font-size="10.00">threads::detail::is</text>
<text text-anchor="start" x="423" y="-78.5" font-family="Helvetica,sans-Serif" font-size="10.00">_rt_safe&lt; T, detail</text>
<text text-anchor="middle" x="518" y="-67.5" font-family="Helvetica,sans-Serif" font-size="10.00">::move_tag, detail::constructible_tag &gt;</text>
</a>
</g>
</g>
<!-- Node1&#45;&gt;Node11 -->
<g id="edge10" class="edge">
<title>Node1&#45;&gt;Node11</title>
<path fill="none" stroke="orange" stroke-dasharray="5,2" d="M232.33,-123.01C242.78,-120.04 253.67,-117.22 264,-115 313.18,-104.45 368.49,-96.58 414.82,-91.07"/>
<polygon fill="orange" stroke="orange" points="231.09,-119.72 222.47,-125.88 233.05,-126.44 231.09,-119.72"/>
<text text-anchor="start" x="264" y="-129" font-family="Helvetica,sans-Serif" font-size="10.00"> &lt; T, detail::move_tag,</text>
<text text-anchor="middle" x="330.5" y="-118" font-family="Helvetica,sans-Serif" font-size="10.00"> detail::constructible_tag &gt;</text>
</g>
<!-- Node13 -->
<g id="node13" class="node">
<title>Node13</title>
<g id="a_node13"><a xlink:href="../../da/d8b/structthreads_1_1detail_1_1is__rt__safe.html" target="_top" xlink:title=" ">
<polygon fill="none" stroke="black" points="420,-0.5 420,-41.5 616,-41.5 616,-0.5 420,-0.5"/>
<text text-anchor="start" x="428" y="-29.5" font-family="Helvetica,sans-Serif" font-size="10.00">threads::detail::is</text>
<text text-anchor="start" x="428" y="-18.5" font-family="Helvetica,sans-Serif" font-size="10.00">_rt_safe&lt; T, detail</text>
<text text-anchor="middle" x="518" y="-7.5" font-family="Helvetica,sans-Serif" font-size="10.00">::move_tag, detail::assignable_tag &gt;</text>
</a>
</g>
</g>
<!-- Node1&#45;&gt;Node13 -->
<g id="edge12" class="edge">
<title>Node1&#45;&gt;Node13</title>
<path fill="none" stroke="orange" stroke-dasharray="5,2" d="M197,-118.55C213.48,-101.95 238.07,-80.19 264,-68 312.52,-45.19 371.14,-33.44 419.73,-27.39"/>
<polygon fill="orange" stroke="orange" points="194.47,-116.14 190.03,-125.76 199.5,-121.01 194.47,-116.14"/>
<text text-anchor="start" x="269.5" y="-82" font-family="Helvetica,sans-Serif" font-size="10.00"> &lt; T, detail::move_tag,</text>
<text text-anchor="middle" x="330.5" y="-71" font-family="Helvetica,sans-Serif" font-size="10.00"> detail::assignable_tag &gt;</text>
</g>
<!-- Node2 -->
<g id="node2" class="node">
<title>Node2</title>
<g id="a_node2"><a xlink:title=" ">
<polygon fill="none" stroke="#bfbfbf" points="0,-131.5 0,-150.5 68,-150.5 68,-131.5 0,-131.5"/>
<text text-anchor="middle" x="34" y="-138.5" font-family="Helvetica,sans-Serif" font-size="10.00">false_type</text>
</a>
</g>
</g>
<!-- Node2&#45;&gt;Node1 -->
<g id="edge1" class="edge">
<title>Node2&#45;&gt;Node1</title>
<path fill="none" stroke="midnightblue" d="M78.1,-141C86.61,-141 95.75,-141 104.89,-141"/>
<polygon fill="midnightblue" stroke="midnightblue" points="78.06,-137.5 68.06,-141 78.06,-144.5 78.06,-137.5"/>
</g>
<!-- Node4 -->
<g id="node4" class="node">
<title>Node4</title>
<g id="a_node4"><a xlink:href="../../d2/d1b/structthreads_1_1detail_1_1is__rt__safe_3_01std_1_1set_3_01_t_01_4_00_01move__tag_00_01_tag_01_4.html" target="_top" xlink:title="Specialization of the is_rt_safe class template for move operations within a std::set .">
<polygon fill="none" stroke="black" points="672.5,-349.5 672.5,-390.5 797.5,-390.5 797.5,-349.5 672.5,-349.5"/>
<text text-anchor="start" x="680.5" y="-378.5" font-family="Helvetica,sans-Serif" font-size="10.00">threads::detail::is</text>
<text text-anchor="start" x="680.5" y="-367.5" font-family="Helvetica,sans-Serif" font-size="10.00">_rt_safe&lt; std::set&lt;</text>
<text text-anchor="middle" x="735" y="-356.5" font-family="Helvetica,sans-Serif" font-size="10.00"> T &gt;, move_tag, Tag &gt;</text>
</a>
</g>
</g>
<!-- Node3&#45;&gt;Node4 -->
<g id="edge3" class="edge">
<title>Node3&#45;&gt;Node4</title>
<path fill="none" stroke="midnightblue" d="M585.54,-316.14C614.93,-326.8 649.13,-339.21 677.29,-349.42"/>
<polygon fill="midnightblue" stroke="midnightblue" points="586.36,-312.72 575.77,-312.6 583.98,-319.3 586.36,-312.72"/>
</g>
<!-- Node5 -->
<g id="node5" class="node">
<title>Node5</title>
<g id="a_node5"><a xlink:href="../../de/d3c/structthreads_1_1detail_1_1is__rt__safe_3_01std_1_1unordered__set_3_01_t_01_4_00_01move__tag_00_01_tag_01_4.html" target="_top" xlink:title="Specialization of the is_rt_safe class template for move operations within a std::unordered_set .">
<polygon fill="none" stroke="black" points="658,-289.5 658,-330.5 812,-330.5 812,-289.5 658,-289.5"/>
<text text-anchor="start" x="666" y="-318.5" font-family="Helvetica,sans-Serif" font-size="10.00">threads::detail::is</text>
<text text-anchor="start" x="666" y="-307.5" font-family="Helvetica,sans-Serif" font-size="10.00">_rt_safe&lt; std::unordered</text>
<text text-anchor="middle" x="735" y="-296.5" font-family="Helvetica,sans-Serif" font-size="10.00">_set&lt; T &gt;, move_tag, Tag &gt;</text>
</a>
</g>
</g>
<!-- Node3&#45;&gt;Node5 -->
<g id="edge4" class="edge">
<title>Node3&#45;&gt;Node5</title>
<path fill="none" stroke="midnightblue" d="M593.55,-298.24C614.33,-299.98 636.93,-301.87 657.8,-303.62"/>
<polygon fill="midnightblue" stroke="midnightblue" points="593.76,-294.75 583.51,-297.4 593.18,-301.72 593.76,-294.75"/>
</g>
<!-- Node6 -->
<g id="node6" class="node">
<title>Node6</title>
<g id="a_node6"><a xlink:href="../../db/d71/structthreads_1_1detail_1_1is__rt__safe_3_01std_1_1vector_3_01_t_01_4_00_01move__tag_00_01_tag_01_4.html" target="_top" xlink:title="Specialization of the is_rt_safe class template for move operations within a std::vector .">
<polygon fill="none" stroke="black" points="668,-229.5 668,-270.5 802,-270.5 802,-229.5 668,-229.5"/>
<text text-anchor="start" x="676" y="-258.5" font-family="Helvetica,sans-Serif" font-size="10.00">threads::detail::is</text>
<text text-anchor="start" x="676" y="-247.5" font-family="Helvetica,sans-Serif" font-size="10.00">_rt_safe&lt; std::vector</text>
<text text-anchor="middle" x="735" y="-236.5" font-family="Helvetica,sans-Serif" font-size="10.00">&lt; T &gt;, move_tag, Tag &gt;</text>
</a>
</g>
</g>
<!-- Node3&#45;&gt;Node6 -->
<g id="edge5" class="edge">
<title>Node3&#45;&gt;Node6</title>
<path fill="none" stroke="midnightblue" d="M593.34,-277.48C617.5,-272.76 644.14,-267.55 667.68,-262.96"/>
<polygon fill="midnightblue" stroke="midnightblue" points="592.65,-274.05 583.51,-279.4 593.99,-280.92 592.65,-274.05"/>
</g>
<!-- Node8 -->
<g id="node8" class="node">
<title>Node8</title>
<g id="a_node8"><a xlink:href="../../da/d0a/structthreads_1_1is__realtime__copy__assignable.html" target="_top" xlink:title="A compile&#45;time boolean constant that evaluates to true if the type T is realtime&#45;safe copy assignable...">
<polygon fill="none" stroke="black" points="669.5,-180 669.5,-210 800.5,-210 800.5,-180 669.5,-180"/>
<text text-anchor="start" x="677.5" y="-198" font-family="Helvetica,sans-Serif" font-size="10.00">threads::is_realtime</text>
<text text-anchor="middle" x="735" y="-187" font-family="Helvetica,sans-Serif" font-size="10.00">_copy_assignable&lt; T &gt;</text>
</a>
</g>
</g>
<!-- Node7&#45;&gt;Node8 -->
<g id="edge7" class="edge">
<title>Node7&#45;&gt;Node8</title>
<path fill="none" stroke="midnightblue" d="M623.8,-198.08C639.32,-197.64 654.93,-197.21 669.31,-196.81"/>
<polygon fill="midnightblue" stroke="midnightblue" points="623.51,-194.58 613.62,-198.36 623.71,-201.58 623.51,-194.58"/>
</g>
<!-- Node10 -->
<g id="node10" class="node">
<title>Node10</title>
<g id="a_node10"><a xlink:href="../../d9/dcb/structthreads_1_1is__realtime__copy__constructable.html" target="_top" xlink:title="A compile&#45;time boolean constant that evaluates to true if the type T is realtime&#45;safe copy constructa...">
<polygon fill="none" stroke="black" points="662.5,-126 662.5,-156 807.5,-156 807.5,-126 662.5,-126"/>
<text text-anchor="start" x="670.5" y="-144" font-family="Helvetica,sans-Serif" font-size="10.00">threads::is_realtime</text>
<text text-anchor="middle" x="735" y="-133" font-family="Helvetica,sans-Serif" font-size="10.00">_copy_constructable&lt; T &gt;</text>
</a>
</g>
</g>
<!-- Node9&#45;&gt;Node10 -->
<g id="edge9" class="edge">
<title>Node9&#45;&gt;Node10</title>
<path fill="none" stroke="midnightblue" d="M629.51,-141C640.68,-141 651.8,-141 662.4,-141"/>
<polygon fill="midnightblue" stroke="midnightblue" points="629.26,-137.5 619.26,-141 629.26,-144.5 629.26,-137.5"/>
</g>
<!-- Node12 -->
<g id="node12" class="node">
<title>Node12</title>
<g id="a_node12"><a xlink:href="../../d4/d18/structthreads_1_1is__realtime__move__constructable.html" target="_top" xlink:title="A compile&#45;time boolean constant that evaluates to true if the type T is realtime&#45;safe move constructa...">
<polygon fill="none" stroke="black" points="660.5,-66 660.5,-96 809.5,-96 809.5,-66 660.5,-66"/>
<text text-anchor="start" x="668.5" y="-84" font-family="Helvetica,sans-Serif" font-size="10.00">threads::is_realtime</text>
<text text-anchor="middle" x="735" y="-73" font-family="Helvetica,sans-Serif" font-size="10.00">_move_constructable&lt; T &gt;</text>
</a>
</g>
</g>
<!-- Node11&#45;&gt;Node12 -->
<g id="edge11" class="edge">
<title>Node11&#45;&gt;Node12</title>
<path fill="none" stroke="midnightblue" d="M631.38,-81C641.19,-81 650.95,-81 660.33,-81"/>
<polygon fill="midnightblue" stroke="midnightblue" points="631.15,-77.5 621.15,-81 631.15,-84.5 631.15,-77.5"/>
</g>
<!-- Node14 -->
<g id="node14" class="node">
<title>Node14</title>
<g id="a_node14"><a xlink:href="../../d4/d56/structthreads_1_1is__realtime__move__assignable.html" target="_top" xlink:title="A compile&#45;time boolean constant that evaluates to true if the type T is realtime&#45;safe move assignable...">
<polygon fill="none" stroke="black" points="667,-6 667,-36 803,-36 803,-6 667,-6"/>
<text text-anchor="start" x="675" y="-24" font-family="Helvetica,sans-Serif" font-size="10.00">threads::is_realtime</text>
<text text-anchor="middle" x="735" y="-13" font-family="Helvetica,sans-Serif" font-size="10.00">_move_assignable&lt; T &gt;</text>
</a>
</g>
</g>
<!-- Node13&#45;&gt;Node14 -->
<g id="edge13" class="edge">
<title>Node13&#45;&gt;Node14</title>
<path fill="none" stroke="midnightblue" d="M626.19,-21C640.04,-21 653.89,-21 666.84,-21"/>
<polygon fill="midnightblue" stroke="midnightblue" points="626.12,-17.5 616.12,-21 626.12,-24.5 626.12,-17.5"/>
</g>
</g>
</svg>
        <g id="navigator" transform="translate(0 0)" fill="#404254">
                <rect fill="#f2f5e9" fill-opacity="0.5" stroke="#606060" stroke-width=".5" x="0" y="0" width="60" height="60"/>
                <use id="zoomplus" xlink:href="#zoomPlus" x="17" y="9" onmousedown="handleZoom(evt,'in')"/>
                <use id="zoomminus" xlink:href="#zoomMin" x="42" y="9" onmousedown="handleZoom(evt,'out')"/>
                <use id="reset" xlink:href="#resetDef" x="30" y="36" onmousedown="handleReset()"/>
                <g id="arrowUp" xlink:href="#dirArrow" transform="translate(30 24)" onmousedown="handlePan(0,-1)">
                  <use xlink:href="#rim" fill="#404040">
                        <set attributeName="fill" to="#808080" begin="arrowUp.mouseover" end="arrowUp.mouseout"/>
                  </use>
                  <path fill="none" stroke="white" stroke-width="1.5" d="M0,-3.0v7 M-2.5,-0.5L0,-3.0L2.5,-0.5"/>
                </g>
                <g id="arrowRight" xlink:href="#dirArrow" transform="rotate(90) translate(36 -43)" onmousedown="handlePan(1,0)">
                  <use xlink:href="#rim" fill="#404040">
                        <set attributeName="fill" to="#808080" begin="arrowRight.mouseover" end="arrowRight.mouseout"/>
                  </use>
                  <path fill="none" stroke="white" stroke-width="1.5" d="M0,-3.0v7 M-2.5,-0.5L0,-3.0L2.5,-0.5"/>
                </g>
                <g id="arrowDown" xlink:href="#dirArrow" transform="rotate(180) translate(-30 -48)" onmousedown="handlePan(0,1)">
                  <use xlink:href="#rim" fill="#404040">
                        <set attributeName="fill" to="#808080" begin="arrowDown.mouseover" end="arrowDown.mouseout"/>
                  </use>
                  <path fill="none" stroke="white" stroke-width="1.5" d="M0,-3.0v7 M-2.5,-0.5L0,-3.0L2.5,-0.5"/>
                </g>
                <g id="arrowLeft" xlink:href="#dirArrow" transform="rotate(270) translate(-36 17)" onmousedown="handlePan(-1,0)">
                  <use xlink:href="#rim" fill="#404040">
                        <set attributeName="fill" to="#808080" begin="arrowLeft.mouseover" end="arrowLeft.mouseout"/>
                  </use>
                  <path fill="none" stroke="white" stroke-width="1.5" d="M0,-3.0v7 M-2.5,-0.5L0,-3.0L2.5,-0.5"/>
                </g>
        </g>
        <svg viewBox="0 0 15 15" width="100%" height="30px" preserveAspectRatio="xMaxYMin meet">
         <g id="arrow_out" transform="scale(0.3 0.3)">
          <a xlink:href="structthreads_1_1detail_1_1is__rt__safe__inherit__graph_org.svg" target="_base">
           <rect id="button" ry="5" rx="5" y="6" x="6" height="38" width="38"
                fill="#f2f5e9" fill-opacity="0.5" stroke="#606060" stroke-width="1.0"/>
           <path id="arrow"
             d="M 11.500037,31.436501 C 11.940474,20.09759 22.043105,11.32322 32.158766,21.979434 L 37.068811,17.246167 C 37.068811,17.246167 37.088388,32 37.088388,32 L 22.160133,31.978069 C 22.160133,31.978069 26.997745,27.140456 26.997745,27.140456 C 18.528582,18.264221 13.291696,25.230495 11.500037,31.436501 z"
             style="fill:#404040;"/>
          </a>
         </g>
        </svg>
</svg>
