<?xml version="1.0" encoding="UTF-8" standalone="no"?>
<!DOCTYPE svg PUBLIC "-//W3C//DTD SVG 1.1//EN"
 "http://www.w3.org/Graphics/SVG/1.1/DTD/svg11.dtd">
<!-- Generated by graphviz version 2.43.0 (0)
 -->
<!-- Title: Scale.h Pages: 1 -->
<svg width="2010pt" height="420pt"
 viewBox="0.00 0.00 2009.50 420.00" xmlns="http://www.w3.org/2000/svg" xmlns:xlink="http://www.w3.org/1999/xlink">
<g id="graph0" class="graph" transform="scale(1 1) rotate(0) translate(4 416)">
<title>Scale.h</title>
<!-- Node1 -->
<g id="node1" class="node">
<title>Node1</title>
<g id="a_node1"><a xlink:title=" ">
<polygon fill="#bfbfbf" stroke="black" points="480,-392.5 480,-411.5 532,-411.5 532,-392.5 480,-392.5"/>
<text text-anchor="middle" x="506" y="-399.5" font-family="Helvetica,sans-Serif" font-size="10.00">Scale.h</text>
</a>
</g>
</g>
<!-- Node2 -->
<g id="node2" class="node">
<title>Node2</title>
<g id="a_node2"><a xlink:title=" ">
<polygon fill="none" stroke="#bfbfbf" points="737.5,-56.5 737.5,-75.5 826.5,-75.5 826.5,-56.5 737.5,-56.5"/>
<text text-anchor="middle" x="782" y="-63.5" font-family="Helvetica,sans-Serif" font-size="10.00">limes_export.h</text>
</a>
</g>
</g>
<!-- Node1&#45;&gt;Node2 -->
<g id="edge1" class="edge">
<title>Node1&#45;&gt;Node2</title>
<path fill="none" stroke="midnightblue" d="M506,-392.44C506,-373.94 506,-328.81 506,-291 506,-291 506,-291 506,-177 506,-129.82 646.92,-93.9 727.37,-77.24"/>
<polygon fill="midnightblue" stroke="midnightblue" points="728.25,-80.63 737.35,-75.21 726.85,-73.77 728.25,-80.63"/>
</g>
<!-- Node3 -->
<g id="node3" class="node">
<title>Node3</title>
<g id="a_node3"><a xlink:href="../../db/ddf/_pitch_8h.html" target="_top" xlink:title=" ">
<polygon fill="none" stroke="black" points="383.5,-224.5 383.5,-243.5 442.5,-243.5 442.5,-224.5 383.5,-224.5"/>
<text text-anchor="middle" x="413" y="-231.5" font-family="Helvetica,sans-Serif" font-size="10.00">../Pitch.h</text>
</a>
</g>
</g>
<!-- Node1&#45;&gt;Node3 -->
<g id="edge2" class="edge">
<title>Node1&#45;&gt;Node3</title>
<path fill="none" stroke="midnightblue" d="M501,-392.08C486.23,-365.72 442.62,-287.88 422.89,-252.66"/>
<polygon fill="midnightblue" stroke="midnightblue" points="425.74,-250.58 417.8,-243.57 419.63,-254 425.74,-250.58"/>
</g>
<!-- Node4 -->
<g id="node4" class="node">
<title>Node4</title>
<g id="a_node4"><a xlink:href="../../d4/dc3/_pitch_class_8h.html" target="_top" xlink:title=" ">
<polygon fill="none" stroke="black" points="288,-112.5 288,-131.5 364,-131.5 364,-112.5 288,-112.5"/>
<text text-anchor="middle" x="326" y="-119.5" font-family="Helvetica,sans-Serif" font-size="10.00">PitchClass.h</text>
</a>
</g>
</g>
<!-- Node1&#45;&gt;Node4 -->
<g id="edge19" class="edge">
<title>Node1&#45;&gt;Node4</title>
<path fill="none" stroke="midnightblue" d="M498.47,-392.42C490.57,-383.4 477.83,-368.77 467,-356 425.14,-306.66 407.01,-299.65 374,-244 353.81,-209.95 338.77,-165.84 331.29,-141.39"/>
<polygon fill="midnightblue" stroke="midnightblue" points="334.6,-140.23 328.4,-131.64 327.89,-142.22 334.6,-140.23"/>
</g>
<!-- Node6 -->
<g id="node6" class="node">
<title>Node6</title>
<g id="a_node6"><a xlink:href="../../da/d0b/limes__namespace_8h.html" target="_top" xlink:title=" ">
<polygon fill="none" stroke="black" points="1239,-56.5 1239,-75.5 1353,-75.5 1353,-56.5 1239,-56.5"/>
<text text-anchor="middle" x="1296" y="-63.5" font-family="Helvetica,sans-Serif" font-size="10.00">limes_namespace.h</text>
</a>
</g>
</g>
<!-- Node1&#45;&gt;Node6 -->
<g id="edge72" class="edge">
<title>Node1&#45;&gt;Node6</title>
<path fill="none" stroke="midnightblue" d="M532.23,-400.25C718.51,-394.73 1834,-358.85 1834,-291 1834,-291 1834,-291 1834,-177 1834,-137.68 1809.24,-129.44 1774,-112 1703.57,-77.14 1477.57,-69.22 1363.38,-67.47"/>
<polygon fill="midnightblue" stroke="midnightblue" points="1363.4,-63.97 1353.35,-67.32 1363.3,-70.96 1363.4,-63.97"/>
</g>
<!-- Node128 -->
<g id="node11" class="node">
<title>Node128</title>
<g id="a_node11"><a xlink:href="../../d8/d1d/limes__data__structures_8h_source.html" target="_top" xlink:title=" ">
<polygon fill="none" stroke="black" points="993,-336.5 993,-355.5 1127,-355.5 1127,-336.5 993,-336.5"/>
<text text-anchor="middle" x="1060" y="-343.5" font-family="Helvetica,sans-Serif" font-size="10.00">limes_data_structures.h</text>
</a>
</g>
</g>
<!-- Node1&#45;&gt;Node128 -->
<g id="edge20" class="edge">
<title>Node1&#45;&gt;Node128</title>
<path fill="none" stroke="midnightblue" d="M532.35,-398.43C612.64,-390.61 856.45,-366.84 982.57,-354.55"/>
<polygon fill="midnightblue" stroke="midnightblue" points="982.94,-358.03 992.56,-353.57 982.26,-351.06 982.94,-358.03"/>
</g>
<!-- Node3&#45;&gt;Node2 -->
<g id="edge16" class="edge">
<title>Node3&#45;&gt;Node2</title>
<path fill="none" stroke="midnightblue" d="M415.78,-224.49C423.63,-201.87 448.33,-140.11 492,-112 578.52,-56.31 620.64,-90.5 727.06,-76.02"/>
<polygon fill="midnightblue" stroke="midnightblue" points="727.84,-79.44 737.22,-74.51 726.81,-72.51 727.84,-79.44"/>
</g>
<!-- Node3&#45;&gt;Node4 -->
<g id="edge3" class="edge">
<title>Node3&#45;&gt;Node4</title>
<path fill="none" stroke="midnightblue" d="M406.17,-224.37C391.75,-206.14 357.97,-163.43 339.19,-139.68"/>
<polygon fill="midnightblue" stroke="midnightblue" points="341.74,-137.26 332.8,-131.59 336.25,-141.61 341.74,-137.26"/>
</g>
<!-- Node3&#45;&gt;Node6 -->
<g id="edge17" class="edge">
<title>Node3&#45;&gt;Node6</title>
<path fill="none" stroke="midnightblue" d="M442.58,-233.21C519.8,-233.14 733.33,-228.93 905,-188 994.27,-166.71 1009.31,-139.09 1097,-112 1144.11,-97.45 1198.83,-85.41 1238.95,-77.46"/>
<polygon fill="midnightblue" stroke="midnightblue" points="1239.68,-80.89 1248.82,-75.53 1238.33,-74.02 1239.68,-80.89"/>
</g>
<!-- Node7 -->
<g id="node7" class="node">
<title>Node7</title>
<g id="a_node7"><a xlink:href="../../d9/df8/limes__core_8h.html" target="_top" xlink:title=" ">
<polygon fill="none" stroke="red" points="466.5,-56.5 466.5,-75.5 545.5,-75.5 545.5,-56.5 466.5,-56.5"/>
<text text-anchor="middle" x="506" y="-63.5" font-family="Helvetica,sans-Serif" font-size="10.00">limes_core.h</text>
</a>
</g>
</g>
<!-- Node3&#45;&gt;Node7 -->
<g id="edge18" class="edge">
<title>Node3&#45;&gt;Node7</title>
<path fill="none" stroke="midnightblue" d="M383.28,-231.42C323.09,-227.64 189.61,-216.25 155,-188 127.76,-165.76 109.67,-138.31 133,-112 154.11,-88.19 359.77,-74.53 456.36,-69.38"/>
<polygon fill="midnightblue" stroke="midnightblue" points="456.67,-72.87 466.47,-68.85 456.3,-65.88 456.67,-72.87"/>
</g>
<!-- Node127 -->
<g id="node9" class="node">
<title>Node127</title>
<g id="a_node9"><a xlink:href="../../d5/d5b/_pitch_utils_8h.html" target="_top" xlink:title=" ">
<polygon fill="none" stroke="black" points="164,-168.5 164,-187.5 236,-187.5 236,-168.5 164,-168.5"/>
<text text-anchor="middle" x="200" y="-175.5" font-family="Helvetica,sans-Serif" font-size="10.00">PitchUtils.h</text>
</a>
</g>
</g>
<!-- Node3&#45;&gt;Node127 -->
<g id="edge9" class="edge">
<title>Node3&#45;&gt;Node127</title>
<path fill="none" stroke="midnightblue" d="M383.38,-225.49C347.06,-216.28 285.17,-200.59 243.46,-190.02"/>
<polygon fill="midnightblue" stroke="midnightblue" points="244.13,-186.58 233.57,-187.51 242.41,-193.36 244.13,-186.58"/>
</g>
<!-- Node4&#45;&gt;Node2 -->
<g id="edge5" class="edge">
<title>Node4&#45;&gt;Node2</title>
<path fill="none" stroke="midnightblue" d="M364.05,-117.43C433.84,-110.73 587.21,-95.31 727.19,-76.04"/>
<polygon fill="midnightblue" stroke="midnightblue" points="727.81,-79.49 737.24,-74.65 726.85,-72.56 727.81,-79.49"/>
</g>
<!-- Node5 -->
<g id="node5" class="node">
<title>Node5</title>
<g id="a_node5"><a xlink:title=" ">
<polygon fill="none" stroke="#bfbfbf" points="180,-56.5 180,-75.5 222,-75.5 222,-56.5 180,-56.5"/>
<text text-anchor="middle" x="201" y="-63.5" font-family="Helvetica,sans-Serif" font-size="10.00">array</text>
</a>
</g>
</g>
<!-- Node4&#45;&gt;Node5 -->
<g id="edge4" class="edge">
<title>Node4&#45;&gt;Node5</title>
<path fill="none" stroke="midnightblue" d="M306.19,-112.44C285.71,-103.6 253.52,-89.69 230.14,-79.59"/>
<polygon fill="midnightblue" stroke="midnightblue" points="231.28,-76.27 220.71,-75.52 228.51,-82.7 231.28,-76.27"/>
</g>
<!-- Node4&#45;&gt;Node6 -->
<g id="edge6" class="edge">
<title>Node4&#45;&gt;Node6</title>
<path fill="none" stroke="midnightblue" d="M364.03,-118.88C510.63,-110.72 1040.35,-81.23 1228.84,-70.74"/>
<polygon fill="midnightblue" stroke="midnightblue" points="1229.11,-74.23 1238.9,-70.18 1228.72,-67.24 1229.11,-74.23"/>
</g>
<!-- Node4&#45;&gt;Node7 -->
<g id="edge7" class="edge">
<title>Node4&#45;&gt;Node7</title>
<path fill="none" stroke="midnightblue" d="M354.52,-112.44C385.07,-103.28 433.71,-88.69 467.6,-78.52"/>
<polygon fill="midnightblue" stroke="midnightblue" points="469.04,-81.74 477.61,-75.52 467.03,-75.04 469.04,-81.74"/>
</g>
<!-- Node8 -->
<g id="node8" class="node">
<title>Node8</title>
<g id="a_node8"><a xlink:title=" ">
<polygon fill="none" stroke="#bfbfbf" points="668,-0.5 668,-19.5 768,-19.5 768,-0.5 668,-0.5"/>
<text text-anchor="middle" x="718" y="-7.5" font-family="Helvetica,sans-Serif" font-size="10.00">limes_platform.h</text>
</a>
</g>
</g>
<!-- Node7&#45;&gt;Node8 -->
<g id="edge8" class="edge">
<title>Node7&#45;&gt;Node8</title>
<path fill="none" stroke="midnightblue" d="M539.59,-56.44C576.19,-47.12 634.84,-32.18 674.83,-22"/>
<polygon fill="midnightblue" stroke="midnightblue" points="675.74,-25.38 684.57,-19.52 674.01,-18.59 675.74,-25.38"/>
</g>
<!-- Node127&#45;&gt;Node2 -->
<g id="edge14" class="edge">
<title>Node127&#45;&gt;Node2</title>
<path fill="none" stroke="midnightblue" d="M209.11,-168.3C226.28,-152.11 263.11,-118.42 279,-112 368.99,-75.61 613.25,-87.45 726.99,-75.91"/>
<polygon fill="midnightblue" stroke="midnightblue" points="727.71,-79.35 737.25,-74.76 726.93,-72.4 727.71,-79.35"/>
</g>
<!-- Node127&#45;&gt;Node4 -->
<g id="edge10" class="edge">
<title>Node127&#45;&gt;Node4</title>
<path fill="none" stroke="midnightblue" d="M219.97,-168.44C240.61,-159.6 273.06,-145.69 296.63,-135.59"/>
<polygon fill="midnightblue" stroke="midnightblue" points="298.32,-138.67 306.13,-131.52 295.56,-132.24 298.32,-138.67"/>
</g>
<!-- Node127&#45;&gt;Node5 -->
<g id="edge11" class="edge">
<title>Node127&#45;&gt;Node5</title>
<path fill="none" stroke="midnightblue" d="M178.41,-168.33C154.18,-157.21 119.88,-136.41 133,-112 141,-97.11 156.34,-86.31 170.43,-79.04"/>
<polygon fill="midnightblue" stroke="midnightblue" points="172.34,-82.01 179.87,-74.56 169.34,-75.68 172.34,-82.01"/>
</g>
<!-- Node127&#45;&gt;Node6 -->
<g id="edge15" class="edge">
<title>Node127&#45;&gt;Node6</title>
<path fill="none" stroke="midnightblue" d="M236.29,-176.93C340.98,-176.25 652.28,-170.86 907,-132 944.08,-126.34 952.18,-119.17 989,-112 1071.02,-96.02 1166.35,-82.89 1228.76,-75.01"/>
<polygon fill="midnightblue" stroke="midnightblue" points="1229.38,-78.46 1238.86,-73.75 1228.51,-71.52 1229.38,-78.46"/>
</g>
<!-- Node127&#45;&gt;Node7 -->
<g id="edge13" class="edge">
<title>Node127&#45;&gt;Node7</title>
<path fill="none" stroke="midnightblue" d="M203.56,-168.16C209.83,-153.82 224.26,-125.73 246,-112 280.19,-90.41 390.89,-77.2 456.3,-71.07"/>
<polygon fill="midnightblue" stroke="midnightblue" points="456.75,-74.55 466.39,-70.15 456.12,-67.58 456.75,-74.55"/>
</g>
<!-- Node70 -->
<g id="node10" class="node">
<title>Node70</title>
<g id="a_node10"><a xlink:title=" ">
<polygon fill="none" stroke="#bfbfbf" points="142,-112.5 142,-131.5 194,-131.5 194,-112.5 142,-112.5"/>
<text text-anchor="middle" x="168" y="-119.5" font-family="Helvetica,sans-Serif" font-size="10.00">cassert</text>
</a>
</g>
</g>
<!-- Node127&#45;&gt;Node70 -->
<g id="edge12" class="edge">
<title>Node127&#45;&gt;Node70</title>
<path fill="none" stroke="midnightblue" d="M194.72,-168.08C190.29,-160.61 183.84,-149.72 178.38,-140.52"/>
<polygon fill="midnightblue" stroke="midnightblue" points="181.29,-138.57 173.19,-131.75 175.27,-142.14 181.29,-138.57"/>
</g>
<!-- Node129 -->
<g id="node12" class="node">
<title>Node129</title>
<g id="a_node12"><a xlink:href="../../d6/d68/vector_8h_source.html" target="_top" xlink:title=" ">
<polygon fill="none" stroke="black" points="876.5,-224.5 876.5,-243.5 971.5,-243.5 971.5,-224.5 876.5,-224.5"/>
<text text-anchor="middle" x="924" y="-231.5" font-family="Helvetica,sans-Serif" font-size="10.00">vectors/vector.h</text>
</a>
</g>
</g>
<!-- Node128&#45;&gt;Node129 -->
<g id="edge21" class="edge">
<title>Node128&#45;&gt;Node129</title>
<path fill="none" stroke="midnightblue" d="M1049.33,-336.37C1026.29,-317.73 971.64,-273.53 942.71,-250.13"/>
<polygon fill="midnightblue" stroke="midnightblue" points="944.6,-247.16 934.62,-243.59 940.2,-252.6 944.6,-247.16"/>
</g>
<!-- Node134 -->
<g id="node16" class="node">
<title>Node134</title>
<g id="a_node16"><a xlink:href="../../d2/dd0/owned__vector_8h_source.html" target="_top" xlink:title=" ">
<polygon fill="none" stroke="black" points="1258,-168.5 1258,-187.5 1390,-187.5 1390,-168.5 1258,-168.5"/>
<text text-anchor="middle" x="1324" y="-175.5" font-family="Helvetica,sans-Serif" font-size="10.00">vectors/owned_vector.h</text>
</a>
</g>
</g>
<!-- Node128&#45;&gt;Node134 -->
<g id="edge35" class="edge">
<title>Node128&#45;&gt;Node134</title>
<path fill="none" stroke="midnightblue" d="M1121.56,-336.44C1149.6,-330.07 1181.84,-319.05 1206,-300 1236.83,-275.7 1223.49,-252 1251,-224 1263.84,-210.93 1281.2,-200.03 1295.77,-192.23"/>
<polygon fill="midnightblue" stroke="midnightblue" points="1297.57,-195.24 1304.87,-187.56 1294.37,-189.01 1297.57,-195.24"/>
</g>
<!-- Node135 -->
<g id="node19" class="node">
<title>Node135</title>
<g id="a_node19"><a xlink:href="../../d0/dd0/_dimensions_8h_source.html" target="_top" xlink:title=" ">
<polygon fill="none" stroke="black" points="1106,-112.5 1106,-131.5 1268,-131.5 1268,-112.5 1106,-112.5"/>
<text text-anchor="middle" x="1187" y="-119.5" font-family="Helvetica,sans-Serif" font-size="10.00">data_structures/Dimensions.h</text>
</a>
</g>
</g>
<!-- Node128&#45;&gt;Node135 -->
<g id="edge42" class="edge">
<title>Node128&#45;&gt;Node135</title>
<path fill="none" stroke="midnightblue" d="M1064.98,-336.3C1083.82,-303.36 1151.02,-185.9 1176.81,-140.81"/>
<polygon fill="midnightblue" stroke="midnightblue" points="1179.99,-142.3 1181.92,-131.88 1173.91,-138.83 1179.99,-142.3"/>
</g>
<!-- Node136 -->
<g id="node20" class="node">
<title>Node136</title>
<g id="a_node20"><a xlink:href="../../d1/d4c/_linked_list_model_8h_source.html" target="_top" xlink:title=" ">
<polygon fill="none" stroke="black" points="1532.5,-168.5 1532.5,-187.5 1689.5,-187.5 1689.5,-168.5 1532.5,-168.5"/>
<text text-anchor="middle" x="1611" y="-175.5" font-family="Helvetica,sans-Serif" font-size="10.00">linked_list/LinkedListModel.h</text>
</a>
</g>
</g>
<!-- Node128&#45;&gt;Node136 -->
<g id="edge47" class="edge">
<title>Node128&#45;&gt;Node136</title>
<path fill="none" stroke="midnightblue" d="M1109.96,-336.43C1153.42,-328.5 1217.91,-315.6 1273,-300 1388.93,-267.17 1522.51,-214.92 1580.98,-191.31"/>
<polygon fill="midnightblue" stroke="midnightblue" points="1582.4,-194.51 1590.36,-187.5 1579.77,-188.02 1582.4,-194.51"/>
</g>
<!-- Node138 -->
<g id="node22" class="node">
<title>Node138</title>
<g id="a_node22"><a xlink:href="../../de/dc6/_linked_list_8h.html" target="_top" xlink:title=" ">
<polygon fill="none" stroke="black" points="1259.5,-224.5 1259.5,-243.5 1386.5,-243.5 1386.5,-224.5 1259.5,-224.5"/>
<text text-anchor="middle" x="1323" y="-231.5" font-family="Helvetica,sans-Serif" font-size="10.00">linked_list/LinkedList.h</text>
</a>
</g>
</g>
<!-- Node128&#45;&gt;Node138 -->
<g id="edge52" class="edge">
<title>Node128&#45;&gt;Node138</title>
<path fill="none" stroke="midnightblue" d="M1124.63,-336.48C1161.08,-329.92 1206.65,-318.7 1244,-300 1268.92,-287.52 1292.98,-265.91 1307.86,-251.06"/>
<polygon fill="midnightblue" stroke="midnightblue" points="1310.66,-253.21 1315.14,-243.6 1305.65,-248.32 1310.66,-253.21"/>
</g>
<!-- Node140 -->
<g id="node24" class="node">
<title>Node140</title>
<g id="a_node24"><a xlink:href="../../d9/daa/_abstract_f_i_f_o_8h_source.html" target="_top" xlink:title=" ">
<polygon fill="none" stroke="black" points="648.5,-112.5 648.5,-131.5 755.5,-131.5 755.5,-112.5 648.5,-112.5"/>
<text text-anchor="middle" x="702" y="-119.5" font-family="Helvetica,sans-Serif" font-size="10.00">fifo/AbstractFIFO.h</text>
</a>
</g>
</g>
<!-- Node128&#45;&gt;Node140 -->
<g id="edge60" class="edge">
<title>Node128&#45;&gt;Node140</title>
<path fill="none" stroke="midnightblue" d="M1041.51,-336.39C1006.69,-319.93 929.38,-282.23 868,-244 812.35,-209.33 751.01,-162.05 720.86,-138.15"/>
<polygon fill="midnightblue" stroke="midnightblue" points="722.88,-135.29 712.88,-131.8 718.52,-140.76 722.88,-135.29"/>
</g>
<!-- Node141 -->
<g id="node26" class="node">
<title>Node141</title>
<g id="a_node26"><a xlink:href="../../dd/d35/_f_i_f_o_8h_source.html" target="_top" xlink:title=" ">
<polygon fill="none" stroke="black" points="668.5,-280.5 668.5,-299.5 735.5,-299.5 735.5,-280.5 668.5,-280.5"/>
<text text-anchor="middle" x="702" y="-287.5" font-family="Helvetica,sans-Serif" font-size="10.00">fifo/FIFO.h</text>
</a>
</g>
</g>
<!-- Node128&#45;&gt;Node141 -->
<g id="edge65" class="edge">
<title>Node128&#45;&gt;Node141</title>
<path fill="none" stroke="midnightblue" d="M1001.99,-336.47C941.36,-327.52 843.47,-312.98 759,-300 754.77,-299.35 750.36,-298.67 745.95,-297.98"/>
<polygon fill="midnightblue" stroke="midnightblue" points="746.17,-294.47 735.75,-296.38 745.09,-301.38 746.17,-294.47"/>
</g>
<!-- Node129&#45;&gt;Node6 -->
<g id="edge33" class="edge">
<title>Node129&#45;&gt;Node6</title>
<path fill="none" stroke="midnightblue" d="M971.75,-225.25C1057.83,-210.37 1234.05,-175.36 1277,-132 1289.01,-119.87 1293.51,-100.59 1295.15,-86.18"/>
<polygon fill="midnightblue" stroke="midnightblue" points="1298.67,-86.13 1295.95,-75.89 1291.69,-85.59 1298.67,-86.13"/>
</g>
<!-- Node129&#45;&gt;Node7 -->
<g id="edge34" class="edge">
<title>Node129&#45;&gt;Node7</title>
<path fill="none" stroke="midnightblue" d="M876.43,-231.28C760.9,-225.98 470.93,-205.45 416,-132 398.43,-108.5 433.59,-89.96 464.98,-78.8"/>
<polygon fill="midnightblue" stroke="midnightblue" points="466.18,-82.08 474.53,-75.57 463.94,-75.45 466.18,-82.08"/>
</g>
<!-- Node130 -->
<g id="node13" class="node">
<title>Node130</title>
<g id="a_node13"><a xlink:href="../../d5/d47/basic__vector_8h_source.html" target="_top" xlink:title=" ">
<polygon fill="none" stroke="red" points="812,-112.5 812,-131.5 898,-131.5 898,-112.5 812,-112.5"/>
<text text-anchor="middle" x="855" y="-119.5" font-family="Helvetica,sans-Serif" font-size="10.00">basic_vector.h</text>
</a>
</g>
</g>
<!-- Node129&#45;&gt;Node130 -->
<g id="edge22" class="edge">
<title>Node129&#45;&gt;Node130</title>
<path fill="none" stroke="midnightblue" d="M923.01,-224.39C921.19,-211.33 916.39,-186.12 905,-168 897.69,-156.38 886.55,-145.94 876.64,-138.05"/>
<polygon fill="midnightblue" stroke="midnightblue" points="878.46,-135.04 868.37,-131.81 874.24,-140.62 878.46,-135.04"/>
</g>
<!-- Node133 -->
<g id="node14" class="node">
<title>Node133</title>
<g id="a_node14"><a xlink:href="../../d2/d8d/scalar__vector_8h_source.html" target="_top" xlink:title=" ">
<polygon fill="none" stroke="red" points="806,-168.5 806,-187.5 896,-187.5 896,-168.5 806,-168.5"/>
<text text-anchor="middle" x="851" y="-175.5" font-family="Helvetica,sans-Serif" font-size="10.00">scalar_vector.h</text>
</a>
</g>
</g>
<!-- Node129&#45;&gt;Node133 -->
<g id="edge27" class="edge">
<title>Node129&#45;&gt;Node133</title>
<path fill="none" stroke="midnightblue" d="M912.27,-224.32C901.16,-216.11 884.26,-203.6 871.02,-193.81"/>
<polygon fill="midnightblue" stroke="midnightblue" points="873.06,-190.97 862.94,-187.83 868.9,-196.59 873.06,-190.97"/>
</g>
<!-- Node23 -->
<g id="node15" class="node">
<title>Node23</title>
<g id="a_node15"><a xlink:title=" ">
<polygon fill="none" stroke="#bfbfbf" points="1610,-56.5 1610,-75.5 1654,-75.5 1654,-56.5 1610,-56.5"/>
<text text-anchor="middle" x="1632" y="-63.5" font-family="Helvetica,sans-Serif" font-size="10.00">string</text>
</a>
</g>
</g>
<!-- Node129&#45;&gt;Node23 -->
<g id="edge32" class="edge">
<title>Node129&#45;&gt;Node23</title>
<path fill="none" stroke="midnightblue" d="M971.56,-231.16C1135.03,-224.72 1665.68,-202.77 1699,-188 1737.6,-170.89 1780.23,-146.58 1756,-112 1754.6,-110 1700.08,-90.71 1663.8,-78.04"/>
<polygon fill="midnightblue" stroke="midnightblue" points="1664.71,-74.65 1654.12,-74.67 1662.41,-81.26 1664.71,-74.65"/>
</g>
<!-- Node130&#45;&gt;Node2 -->
<g id="edge24" class="edge">
<title>Node130&#45;&gt;Node2</title>
<path fill="none" stroke="midnightblue" d="M843.27,-112.32C832.16,-104.11 815.26,-91.6 802.02,-81.81"/>
<polygon fill="midnightblue" stroke="midnightblue" points="804.06,-78.97 793.94,-75.83 799.9,-84.59 804.06,-78.97"/>
</g>
<!-- Node130&#45;&gt;Node6 -->
<g id="edge26" class="edge">
<title>Node130&#45;&gt;Node6</title>
<path fill="none" stroke="midnightblue" d="M898.09,-115.72C975.17,-106.29 1137.18,-86.45 1228.92,-75.21"/>
<polygon fill="midnightblue" stroke="midnightblue" points="1229.43,-78.68 1238.93,-73.99 1228.58,-71.73 1229.43,-78.68"/>
</g>
<!-- Node130&#45;&gt;Node7 -->
<g id="edge23" class="edge">
<title>Node130&#45;&gt;Node7</title>
<path fill="none" stroke="midnightblue" d="M811.86,-114.32C746.89,-104.27 624.28,-85.3 555.67,-74.69"/>
<polygon fill="midnightblue" stroke="midnightblue" points="555.97,-71.19 545.55,-73.12 554.9,-78.11 555.97,-71.19"/>
</g>
<!-- Node130&#45;&gt;Node8 -->
<g id="edge25" class="edge">
<title>Node130&#45;&gt;Node8</title>
<path fill="none" stroke="midnightblue" d="M854.82,-112.24C854.07,-98.52 850.67,-71.9 836,-56 820.72,-39.45 798.7,-28.94 777.82,-22.28"/>
<polygon fill="midnightblue" stroke="midnightblue" points="778.59,-18.86 768.01,-19.4 776.62,-25.57 778.59,-18.86"/>
</g>
<!-- Node133&#45;&gt;Node2 -->
<g id="edge30" class="edge">
<title>Node133&#45;&gt;Node2</title>
<path fill="none" stroke="midnightblue" d="M838.7,-168.34C827.88,-160.12 812.42,-146.86 803,-132 793.97,-117.76 788.49,-99.29 785.41,-85.67"/>
<polygon fill="midnightblue" stroke="midnightblue" points="788.78,-84.68 783.35,-75.58 781.92,-86.08 788.78,-84.68"/>
</g>
<!-- Node133&#45;&gt;Node6 -->
<g id="edge31" class="edge">
<title>Node133&#45;&gt;Node6</title>
<path fill="none" stroke="midnightblue" d="M876.01,-168.44C915.57,-155.1 995.15,-129.13 1064,-112 1120.94,-97.83 1186.66,-85.45 1233.58,-77.28"/>
<polygon fill="midnightblue" stroke="midnightblue" points="1234.34,-80.7 1243.6,-75.55 1233.15,-73.8 1234.34,-80.7"/>
</g>
<!-- Node133&#45;&gt;Node7 -->
<g id="edge29" class="edge">
<title>Node133&#45;&gt;Node7</title>
<path fill="none" stroke="midnightblue" d="M805.72,-174.03C755.41,-169.53 672.49,-158.48 606,-132 574.97,-119.64 543.34,-97.05 524.19,-82.03"/>
<polygon fill="midnightblue" stroke="midnightblue" points="526.31,-79.24 516.32,-75.73 521.93,-84.71 526.31,-79.24"/>
</g>
<!-- Node133&#45;&gt;Node130 -->
<g id="edge28" class="edge">
<title>Node133&#45;&gt;Node130</title>
<path fill="none" stroke="midnightblue" d="M851.66,-168.08C852.18,-161.01 852.94,-150.86 853.59,-141.99"/>
<polygon fill="midnightblue" stroke="midnightblue" points="857.1,-141.98 854.35,-131.75 850.12,-141.47 857.1,-141.98"/>
</g>
<!-- Node134&#45;&gt;Node2 -->
<g id="edge39" class="edge">
<title>Node134&#45;&gt;Node2</title>
<path fill="none" stroke="midnightblue" d="M1280.46,-168.47C1234.75,-159.5 1160.79,-144.9 1097,-132 1003.68,-113.12 894.93,-90.56 832.7,-77.59"/>
<polygon fill="midnightblue" stroke="midnightblue" points="833.26,-74.13 822.76,-75.52 831.83,-80.98 833.26,-74.13"/>
</g>
<!-- Node134&#45;&gt;Node6 -->
<g id="edge40" class="edge">
<title>Node134&#45;&gt;Node6</title>
<path fill="none" stroke="midnightblue" d="M1390.22,-175.17C1458.28,-170.87 1549.52,-156.88 1513,-112 1494.3,-89.02 1419.57,-77.4 1362.99,-71.8"/>
<polygon fill="midnightblue" stroke="midnightblue" points="1363.29,-68.31 1353.01,-70.85 1362.63,-75.28 1363.29,-68.31"/>
</g>
<!-- Node134&#45;&gt;Node7 -->
<g id="edge41" class="edge">
<title>Node134&#45;&gt;Node7</title>
<path fill="none" stroke="midnightblue" d="M1257.98,-176.06C1109.87,-173.4 755.06,-163.82 640,-132 621.22,-126.81 618.47,-120.61 601,-112 578.56,-100.93 552.91,-88.81 533.92,-79.94"/>
<polygon fill="midnightblue" stroke="midnightblue" points="535.19,-76.68 524.65,-75.62 532.24,-83.02 535.19,-76.68"/>
</g>
<!-- Node134&#45;&gt;Node130 -->
<g id="edge36" class="edge">
<title>Node134&#45;&gt;Node130</title>
<path fill="none" stroke="midnightblue" d="M1257.8,-169.38C1164.02,-158.58 994.34,-139.04 908.23,-129.13"/>
<polygon fill="midnightblue" stroke="midnightblue" points="908.48,-125.63 898.15,-127.97 907.68,-132.59 908.48,-125.63"/>
</g>
<!-- Node36 -->
<g id="node17" class="node">
<title>Node36</title>
<g id="a_node17"><a xlink:title=" ">
<polygon fill="none" stroke="#bfbfbf" points="1362,-112.5 1362,-131.5 1420,-131.5 1420,-112.5 1362,-112.5"/>
<text text-anchor="middle" x="1391" y="-119.5" font-family="Helvetica,sans-Serif" font-size="10.00">memory</text>
</a>
</g>
</g>
<!-- Node134&#45;&gt;Node36 -->
<g id="edge37" class="edge">
<title>Node134&#45;&gt;Node36</title>
<path fill="none" stroke="midnightblue" d="M1334.76,-168.32C1344.77,-160.26 1359.89,-148.08 1371.93,-138.37"/>
<polygon fill="midnightblue" stroke="midnightblue" points="1374.45,-140.83 1380.04,-131.83 1370.06,-135.38 1374.45,-140.83"/>
</g>
<!-- Node24 -->
<g id="node18" class="node">
<title>Node24</title>
<g id="a_node18"><a xlink:title=" ">
<polygon fill="none" stroke="#bfbfbf" points="1438.5,-112.5 1438.5,-131.5 1503.5,-131.5 1503.5,-112.5 1438.5,-112.5"/>
<text text-anchor="middle" x="1471" y="-119.5" font-family="Helvetica,sans-Serif" font-size="10.00">functional</text>
</a>
</g>
</g>
<!-- Node134&#45;&gt;Node24 -->
<g id="edge38" class="edge">
<title>Node134&#45;&gt;Node24</title>
<path fill="none" stroke="midnightblue" d="M1347.29,-168.44C1371.81,-159.44 1410.6,-145.19 1438.2,-135.05"/>
<polygon fill="midnightblue" stroke="midnightblue" points="1439.64,-138.25 1447.82,-131.52 1437.22,-131.68 1439.64,-138.25"/>
</g>
<!-- Node135&#45;&gt;Node2 -->
<g id="edge43" class="edge">
<title>Node135&#45;&gt;Node2</title>
<path fill="none" stroke="midnightblue" d="M1122.83,-112.44C1043.9,-101.92 911.27,-84.24 836.87,-74.32"/>
<polygon fill="midnightblue" stroke="midnightblue" points="837.15,-70.82 826.77,-72.97 836.22,-77.76 837.15,-70.82"/>
</g>
<!-- Node135&#45;&gt;Node6 -->
<g id="edge44" class="edge">
<title>Node135&#45;&gt;Node6</title>
<path fill="none" stroke="midnightblue" d="M1204.51,-112.32C1222.07,-103.62 1249.33,-90.12 1269.53,-80.11"/>
<polygon fill="midnightblue" stroke="midnightblue" points="1271.12,-83.23 1278.53,-75.65 1268.02,-76.96 1271.12,-83.23"/>
</g>
<!-- Node135&#45;&gt;Node7 -->
<g id="edge45" class="edge">
<title>Node135&#45;&gt;Node7</title>
<path fill="none" stroke="midnightblue" d="M1105.87,-114.57C963.45,-103.27 672.54,-80.21 555.96,-70.96"/>
<polygon fill="midnightblue" stroke="midnightblue" points="556.13,-67.46 545.88,-70.16 555.58,-74.44 556.13,-67.46"/>
</g>
<!-- Node135&#45;&gt;Node23 -->
<g id="edge46" class="edge">
<title>Node135&#45;&gt;Node23</title>
<path fill="none" stroke="midnightblue" d="M1257.51,-112.44C1355.18,-100.59 1527.7,-79.66 1599.37,-70.96"/>
<polygon fill="midnightblue" stroke="midnightblue" points="1600.08,-74.4 1609.59,-69.72 1599.24,-67.45 1600.08,-74.4"/>
</g>
<!-- Node136&#45;&gt;Node2 -->
<g id="edge48" class="edge">
<title>Node136&#45;&gt;Node2</title>
<path fill="none" stroke="midnightblue" d="M1601.89,-168.49C1585.57,-153.85 1549.58,-124.27 1513,-112 1449.52,-90.71 995.66,-73.99 836.77,-68.73"/>
<polygon fill="midnightblue" stroke="midnightblue" points="836.85,-65.23 826.74,-68.4 836.62,-72.23 836.85,-65.23"/>
</g>
<!-- Node136&#45;&gt;Node6 -->
<g id="edge49" class="edge">
<title>Node136&#45;&gt;Node6</title>
<path fill="none" stroke="midnightblue" d="M1664.96,-168.47C1710.8,-159.02 1765.32,-141.13 1739,-112 1714.32,-84.69 1481.18,-73.11 1363.41,-68.97"/>
<polygon fill="midnightblue" stroke="midnightblue" points="1363.53,-65.47 1353.41,-68.63 1363.29,-72.47 1363.53,-65.47"/>
</g>
<!-- Node137 -->
<g id="node21" class="node">
<title>Node137</title>
<g id="a_node21"><a xlink:href="../../d3/da1/_linked_list_model__impl_8h.html" target="_top" xlink:title=" ">
<polygon fill="none" stroke="red" points="1598.5,-112.5 1598.5,-131.5 1729.5,-131.5 1729.5,-112.5 1598.5,-112.5"/>
<text text-anchor="middle" x="1664" y="-119.5" font-family="Helvetica,sans-Serif" font-size="10.00">LinkedListModel_impl.h</text>
</a>
</g>
</g>
<!-- Node136&#45;&gt;Node137 -->
<g id="edge50" class="edge">
<title>Node136&#45;&gt;Node137</title>
<path fill="none" stroke="midnightblue" d="M1619.75,-168.08C1627.47,-160.22 1638.9,-148.57 1648.22,-139.08"/>
<polygon fill="midnightblue" stroke="midnightblue" points="1650.9,-141.34 1655.41,-131.75 1645.91,-136.44 1650.9,-141.34"/>
</g>
<!-- Node137&#45;&gt;Node6 -->
<g id="edge51" class="edge">
<title>Node137&#45;&gt;Node6</title>
<path fill="none" stroke="midnightblue" d="M1605.69,-112.44C1539.72,-102.76 1432.47,-87.03 1363.08,-76.84"/>
<polygon fill="midnightblue" stroke="midnightblue" points="1363.53,-73.37 1353.13,-75.38 1362.52,-80.3 1363.53,-73.37"/>
</g>
<!-- Node138&#45;&gt;Node2 -->
<g id="edge53" class="edge">
<title>Node138&#45;&gt;Node2</title>
<path fill="none" stroke="midnightblue" d="M1295.05,-224.42C1204.91,-196.76 921.75,-109.88 819.39,-78.47"/>
<polygon fill="midnightblue" stroke="midnightblue" points="820.37,-75.11 809.78,-75.52 818.31,-81.8 820.37,-75.11"/>
</g>
<!-- Node138&#45;&gt;Node6 -->
<g id="edge55" class="edge">
<title>Node138&#45;&gt;Node6</title>
<path fill="none" stroke="midnightblue" d="M1386.72,-230.33C1479.16,-225.62 1645.3,-213.8 1699,-188 1737.06,-169.72 1784.37,-143.28 1756,-112 1730.17,-83.52 1485.17,-72.46 1363.66,-68.7"/>
<polygon fill="midnightblue" stroke="midnightblue" points="1363.46,-65.19 1353.36,-68.39 1363.25,-72.19 1363.46,-65.19"/>
</g>
<!-- Node138&#45;&gt;Node7 -->
<g id="edge56" class="edge">
<title>Node138&#45;&gt;Node7</title>
<path fill="none" stroke="midnightblue" d="M1259.47,-230.65C1160.21,-226.29 962.57,-214.82 797,-188 691.87,-170.97 655.4,-186.67 564,-132 544.01,-120.04 527.08,-98.94 516.76,-84.03"/>
<polygon fill="midnightblue" stroke="midnightblue" points="519.67,-82.08 511.22,-75.68 513.83,-85.95 519.67,-82.08"/>
</g>
<!-- Node138&#45;&gt;Node134 -->
<g id="edge54" class="edge">
<title>Node138&#45;&gt;Node134</title>
<path fill="none" stroke="midnightblue" d="M1323.17,-224.08C1323.3,-217.01 1323.48,-206.86 1323.65,-197.99"/>
<polygon fill="midnightblue" stroke="midnightblue" points="1327.15,-197.81 1323.84,-187.75 1320.15,-197.68 1327.15,-197.81"/>
</g>
<!-- Node139 -->
<g id="node23" class="node">
<title>Node139</title>
<g id="a_node23"><a xlink:href="../../d5/dea/_linked_list__impl_8h.html" target="_top" xlink:title=" ">
<polygon fill="none" stroke="red" points="1900.5,-112.5 1900.5,-131.5 2001.5,-131.5 2001.5,-112.5 1900.5,-112.5"/>
<text text-anchor="middle" x="1951" y="-119.5" font-family="Helvetica,sans-Serif" font-size="10.00">LinkedList_impl.h</text>
</a>
</g>
</g>
<!-- Node138&#45;&gt;Node139 -->
<g id="edge57" class="edge">
<title>Node138&#45;&gt;Node139</title>
<path fill="none" stroke="midnightblue" d="M1386.86,-233.93C1481.08,-233.77 1662.18,-227.65 1810,-188 1853.78,-176.26 1900.89,-151.89 1928.06,-136.56"/>
<polygon fill="midnightblue" stroke="midnightblue" points="1929.87,-139.55 1936.8,-131.54 1926.38,-133.48 1929.87,-139.55"/>
</g>
<!-- Node139&#45;&gt;Node6 -->
<g id="edge59" class="edge">
<title>Node139&#45;&gt;Node6</title>
<path fill="none" stroke="midnightblue" d="M1900.45,-116.52C1883.75,-115.06 1865.08,-113.44 1848,-112 1673.22,-97.24 1467.23,-80.66 1363.27,-72.36"/>
<polygon fill="midnightblue" stroke="midnightblue" points="1363.47,-68.86 1353.22,-71.55 1362.91,-75.84 1363.47,-68.86"/>
</g>
<!-- Node139&#45;&gt;Node8 -->
<g id="edge58" class="edge">
<title>Node139&#45;&gt;Node8</title>
<path fill="none" stroke="midnightblue" d="M1921.05,-112.42C1869.05,-97.93 1758.49,-68.95 1663,-56 1331.4,-11.03 929.07,-9.14 778.62,-10.24"/>
<polygon fill="midnightblue" stroke="midnightblue" points="778.2,-6.74 768.23,-10.32 778.25,-13.74 778.2,-6.74"/>
</g>
<!-- Node140&#45;&gt;Node2 -->
<g id="edge62" class="edge">
<title>Node140&#45;&gt;Node2</title>
<path fill="none" stroke="midnightblue" d="M714.85,-112.32C727.22,-103.98 746.13,-91.21 760.74,-81.35"/>
<polygon fill="midnightblue" stroke="midnightblue" points="762.85,-84.15 769.18,-75.65 758.93,-78.35 762.85,-84.15"/>
</g>
<!-- Node140&#45;&gt;Node6 -->
<g id="edge63" class="edge">
<title>Node140&#45;&gt;Node6</title>
<path fill="none" stroke="midnightblue" d="M755.76,-116.11C864.4,-106.24 1109.84,-83.92 1228.82,-73.11"/>
<polygon fill="midnightblue" stroke="midnightblue" points="1229.25,-76.58 1238.89,-72.19 1228.62,-69.61 1229.25,-76.58"/>
</g>
<!-- Node140&#45;&gt;Node7 -->
<g id="edge64" class="edge">
<title>Node140&#45;&gt;Node7</title>
<path fill="none" stroke="midnightblue" d="M670.94,-112.44C637.4,-103.2 583.8,-88.44 546.86,-78.26"/>
<polygon fill="midnightblue" stroke="midnightblue" points="547.48,-74.8 536.91,-75.52 545.62,-81.55 547.48,-74.8"/>
</g>
<!-- Node26 -->
<g id="node25" class="node">
<title>Node26</title>
<g id="a_node25"><a xlink:title=" ">
<polygon fill="none" stroke="#bfbfbf" points="669,-56.5 669,-75.5 719,-75.5 719,-56.5 669,-56.5"/>
<text text-anchor="middle" x="694" y="-63.5" font-family="Helvetica,sans-Serif" font-size="10.00">atomic</text>
</a>
</g>
</g>
<!-- Node140&#45;&gt;Node26 -->
<g id="edge61" class="edge">
<title>Node140&#45;&gt;Node26</title>
<path fill="none" stroke="midnightblue" d="M700.68,-112.08C699.62,-104.93 698.09,-94.64 696.77,-85.69"/>
<polygon fill="midnightblue" stroke="midnightblue" points="700.22,-85.13 695.3,-75.75 693.3,-86.16 700.22,-85.13"/>
</g>
<!-- Node141&#45;&gt;Node2 -->
<g id="edge66" class="edge">
<title>Node141&#45;&gt;Node2</title>
<path fill="none" stroke="midnightblue" d="M693.87,-280.43C669.16,-253.33 599.03,-167.96 640,-112 650.68,-97.41 692.07,-85.33 727.43,-77.37"/>
<polygon fill="midnightblue" stroke="midnightblue" points="728.19,-80.79 737.21,-75.24 726.7,-73.95 728.19,-80.79"/>
</g>
<!-- Node141&#45;&gt;Node6 -->
<g id="edge70" class="edge">
<title>Node141&#45;&gt;Node6</title>
<path fill="none" stroke="midnightblue" d="M735.73,-286C816.71,-277.96 1027.55,-252.02 1191,-188 1215.81,-178.28 1283.25,-154.82 1297,-132 1305.37,-118.12 1304.03,-99.36 1301.25,-85.56"/>
<polygon fill="midnightblue" stroke="midnightblue" points="1304.62,-84.63 1298.86,-75.74 1297.82,-86.29 1304.62,-84.63"/>
</g>
<!-- Node141&#45;&gt;Node7 -->
<g id="edge71" class="edge">
<title>Node141&#45;&gt;Node7</title>
<path fill="none" stroke="midnightblue" d="M668.32,-287.92C557.71,-283.66 208.33,-264.28 132,-188 107.76,-163.78 96.21,-137.59 119,-112 141.08,-87.21 356.85,-73.98 456.28,-69.16"/>
<polygon fill="midnightblue" stroke="midnightblue" points="456.57,-72.65 466.39,-68.68 456.23,-65.65 456.57,-72.65"/>
</g>
<!-- Node141&#45;&gt;Node8 -->
<g id="edge67" class="edge">
<title>Node141&#45;&gt;Node8</title>
<path fill="none" stroke="midnightblue" d="M668.14,-287.32C527.91,-279.91 0,-247.47 0,-179 0,-179 0,-179 0,-121 0,-39.69 91.7,-73.95 171,-56 344.63,-16.69 556.18,-10.79 657.81,-10.47"/>
<polygon fill="midnightblue" stroke="midnightblue" points="657.89,-13.97 667.89,-10.46 657.88,-6.97 657.89,-13.97"/>
</g>
<!-- Node141&#45;&gt;Node129 -->
<g id="edge69" class="edge">
<title>Node141&#45;&gt;Node129</title>
<path fill="none" stroke="midnightblue" d="M735.72,-280.8C774.01,-271.48 836.66,-256.24 879.08,-245.93"/>
<polygon fill="midnightblue" stroke="midnightblue" points="879.97,-249.31 888.86,-243.55 878.32,-242.51 879.97,-249.31"/>
</g>
<!-- Node141&#45;&gt;Node140 -->
<g id="edge68" class="edge">
<title>Node141&#45;&gt;Node140</title>
<path fill="none" stroke="midnightblue" d="M702,-280.08C702,-253.95 702,-177.21 702,-141.58"/>
<polygon fill="midnightblue" stroke="midnightblue" points="705.5,-141.57 702,-131.57 698.5,-141.57 705.5,-141.57"/>
</g>
</g>
</svg>
