<?xml version="1.0" encoding="UTF-8" standalone="no"?>
<!DOCTYPE svg PUBLIC "-//W3C//DTD SVG 1.1//EN"
 "http://www.w3.org/Graphics/SVG/1.1/DTD/svg11.dtd">
<!-- Generated by graphviz version 2.43.0 (0)
 -->
<!-- Title: square.h Pages: 1 -->
<svg width="1386pt" height="476pt"
 viewBox="0.00 0.00 1385.50 476.00" xmlns="http://www.w3.org/2000/svg" xmlns:xlink="http://www.w3.org/1999/xlink">
<g id="graph0" class="graph" transform="scale(1 1) rotate(0) translate(4 472)">
<title>square.h</title>
<!-- Node1 -->
<g id="node1" class="node">
<title>Node1</title>
<g id="a_node1"><a xlink:title=" ">
<polygon fill="#bfbfbf" stroke="black" points="1126,-448.5 1126,-467.5 1185,-467.5 1185,-448.5 1126,-448.5"/>
<text text-anchor="middle" x="1155.5" y="-455.5" font-family="Helvetica,sans-Serif" font-size="10.00">square.h</text>
</a>
</g>
</g>
<!-- Node2 -->
<g id="node2" class="node">
<title>Node2</title>
<g id="a_node2"><a xlink:href="../../da/d0b/limes__namespace_8h.html" target="_top" xlink:title=" ">
<polygon fill="none" stroke="black" points="271.5,-56.5 271.5,-75.5 385.5,-75.5 385.5,-56.5 271.5,-56.5"/>
<text text-anchor="middle" x="328.5" y="-63.5" font-family="Helvetica,sans-Serif" font-size="10.00">limes_namespace.h</text>
</a>
</g>
</g>
<!-- Node1&#45;&gt;Node2 -->
<g id="edge1" class="edge">
<title>Node1&#45;&gt;Node2</title>
<path fill="none" stroke="midnightblue" d="M1125.57,-456.02C992.59,-451.28 455.39,-427.93 305.5,-356 215.26,-312.7 157.13,-265.08 181.5,-168 188.37,-140.61 190.33,-130.68 211.5,-112 229.75,-95.89 254.4,-85.27 276.36,-78.41"/>
<polygon fill="midnightblue" stroke="midnightblue" points="277.61,-81.69 286.23,-75.52 275.65,-74.97 277.61,-81.69"/>
</g>
<!-- Node3 -->
<g id="node3" class="node">
<title>Node3</title>
<g id="a_node3"><a xlink:title=" ">
<polygon fill="none" stroke="#bfbfbf" points="1086,-56.5 1086,-75.5 1175,-75.5 1175,-56.5 1086,-56.5"/>
<text text-anchor="middle" x="1130.5" y="-63.5" font-family="Helvetica,sans-Serif" font-size="10.00">limes_export.h</text>
</a>
</g>
</g>
<!-- Node1&#45;&gt;Node3 -->
<g id="edge2" class="edge">
<title>Node1&#45;&gt;Node3</title>
<path fill="none" stroke="midnightblue" d="M1185.06,-453.07C1237.08,-444.33 1339.5,-418.09 1339.5,-347 1339.5,-347 1339.5,-347 1339.5,-233 1339.5,-147.63 1231.24,-99.16 1170.56,-78.69"/>
<polygon fill="midnightblue" stroke="midnightblue" points="1171.48,-75.31 1160.89,-75.53 1169.31,-81.97 1171.48,-75.31"/>
</g>
<!-- Node4 -->
<g id="node4" class="node">
<title>Node4</title>
<g id="a_node4"><a xlink:title=" ">
<polygon fill="none" stroke="#bfbfbf" points="928.5,-0.5 928.5,-19.5 1028.5,-19.5 1028.5,-0.5 928.5,-0.5"/>
<text text-anchor="middle" x="978.5" y="-7.5" font-family="Helvetica,sans-Serif" font-size="10.00">limes_platform.h</text>
</a>
</g>
</g>
<!-- Node1&#45;&gt;Node4 -->
<g id="edge3" class="edge">
<title>Node1&#45;&gt;Node4</title>
<path fill="none" stroke="midnightblue" d="M1185.44,-455.67C1246.04,-451.2 1377.5,-431.74 1377.5,-347 1377.5,-347 1377.5,-347 1377.5,-121 1377.5,-51.58 1150.21,-24.29 1038.72,-15.08"/>
<polygon fill="midnightblue" stroke="midnightblue" points="1038.88,-11.58 1028.63,-14.27 1038.32,-18.56 1038.88,-11.58"/>
</g>
<!-- Node5 -->
<g id="node5" class="node">
<title>Node5</title>
<g id="a_node5"><a xlink:href="../../d8/d23/2_dshape_8h.html" target="_top" xlink:title=" ">
<polygon fill="none" stroke="black" points="1091.5,-280.5 1091.5,-299.5 1159.5,-299.5 1159.5,-280.5 1091.5,-280.5"/>
<text text-anchor="middle" x="1125.5" y="-287.5" font-family="Helvetica,sans-Serif" font-size="10.00">2Dshape.h</text>
</a>
</g>
</g>
<!-- Node1&#45;&gt;Node5 -->
<g id="edge4" class="edge">
<title>Node1&#45;&gt;Node5</title>
<path fill="none" stroke="midnightblue" d="M1156.99,-448.41C1158.48,-439.38 1160.65,-424.74 1161.5,-412 1162.09,-403.13 1163.01,-400.76 1161.5,-392 1156.28,-361.84 1142.91,-328.75 1134.02,-308.94"/>
<polygon fill="midnightblue" stroke="midnightblue" points="1137.1,-307.26 1129.73,-299.64 1130.74,-310.19 1137.1,-307.26"/>
</g>
<!-- Node6 -->
<g id="node6" class="node">
<title>Node6</title>
<g id="a_node6"><a xlink:href="../../d3/d53/preprocessor_8h.html" target="_top" xlink:title=" ">
<polygon fill="none" stroke="black" points="0,-56.5 0,-75.5 141,-75.5 141,-56.5 0,-56.5"/>
<text text-anchor="middle" x="70.5" y="-63.5" font-family="Helvetica,sans-Serif" font-size="10.00">../../../misc/preprocessor.h</text>
</a>
</g>
</g>
<!-- Node1&#45;&gt;Node6 -->
<g id="edge7" class="edge">
<title>Node1&#45;&gt;Node6</title>
<path fill="none" stroke="midnightblue" d="M1125.92,-457.36C945.92,-459.17 5.5,-463.08 5.5,-347 5.5,-347 5.5,-347 5.5,-177 5.5,-139.18 34.34,-102.94 53.59,-82.96"/>
<polygon fill="midnightblue" stroke="midnightblue" points="56.3,-85.2 60.91,-75.66 51.36,-80.24 56.3,-85.2"/>
</g>
<!-- Node7 -->
<g id="node7" class="node">
<title>Node7</title>
<g id="a_node7"><a xlink:href="../../db/dd0/rectangle_8h.html" target="_top" xlink:title=" ">
<polygon fill="none" stroke="black" points="1082,-392.5 1082,-411.5 1153,-411.5 1153,-392.5 1082,-392.5"/>
<text text-anchor="middle" x="1117.5" y="-399.5" font-family="Helvetica,sans-Serif" font-size="10.00">rectangle.h</text>
</a>
</g>
</g>
<!-- Node1&#45;&gt;Node7 -->
<g id="edge9" class="edge">
<title>Node1&#45;&gt;Node7</title>
<path fill="none" stroke="midnightblue" d="M1149.23,-448.08C1143.86,-440.46 1135.98,-429.26 1129.42,-419.94"/>
<polygon fill="midnightblue" stroke="midnightblue" points="1132.28,-417.91 1123.66,-411.75 1126.55,-421.94 1132.28,-417.91"/>
</g>
<!-- Node8 -->
<g id="node8" class="node">
<title>Node8</title>
<g id="a_node8"><a xlink:href="../../dd/d6a/triangle_8h.html" target="_top" xlink:title=" ">
<polygon fill="none" stroke="black" points="975,-336.5 975,-355.5 1038,-355.5 1038,-336.5 975,-336.5"/>
<text text-anchor="middle" x="1006.5" y="-343.5" font-family="Helvetica,sans-Serif" font-size="10.00">triangle.h</text>
</a>
</g>
</g>
<!-- Node1&#45;&gt;Node8 -->
<g id="edge51" class="edge">
<title>Node1&#45;&gt;Node8</title>
<path fill="none" stroke="midnightblue" d="M1136.13,-448.41C1118.7,-440.25 1092.79,-427.02 1072.5,-412 1053.02,-397.58 1033.6,-377.61 1020.92,-363.62"/>
<polygon fill="midnightblue" stroke="midnightblue" points="1023.22,-360.94 1013.96,-355.79 1017.99,-365.59 1023.22,-360.94"/>
</g>
<!-- Node11 -->
<g id="node11" class="node">
<title>Node11</title>
<g id="a_node11"><a xlink:title=" ">
<polygon fill="none" stroke="#bfbfbf" points="1112,-168.5 1112,-187.5 1159,-187.5 1159,-168.5 1112,-168.5"/>
<text text-anchor="middle" x="1135.5" y="-175.5" font-family="Helvetica,sans-Serif" font-size="10.00">cmath</text>
</a>
</g>
</g>
<!-- Node1&#45;&gt;Node11 -->
<g id="edge52" class="edge">
<title>Node1&#45;&gt;Node11</title>
<path fill="none" stroke="midnightblue" d="M1160.68,-448.39C1165.7,-439.59 1173.03,-425.35 1176.5,-412 1191.27,-355.11 1188.67,-338.63 1184.5,-280 1182.72,-254.92 1187.22,-246.74 1176.5,-224 1171.24,-212.84 1162.26,-202.51 1154.04,-194.56"/>
<polygon fill="midnightblue" stroke="midnightblue" points="1156.28,-191.87 1146.54,-187.73 1151.57,-197.05 1156.28,-191.87"/>
</g>
<!-- Node5&#45;&gt;Node2 -->
<g id="edge5" class="edge">
<title>Node5&#45;&gt;Node2</title>
<path fill="none" stroke="midnightblue" d="M1091.26,-287.86C993.32,-283.73 704.71,-265.34 480.5,-188 429.76,-170.5 413.72,-167.54 373.5,-132 358.27,-118.54 345.61,-98.91 337.63,-84.75"/>
<polygon fill="midnightblue" stroke="midnightblue" points="340.51,-82.71 332.69,-75.56 334.35,-86.03 340.51,-82.71"/>
</g>
<!-- Node5&#45;&gt;Node3 -->
<g id="edge6" class="edge">
<title>Node5&#45;&gt;Node3</title>
<path fill="none" stroke="midnightblue" d="M1130.43,-280.45C1139.89,-263.5 1160.29,-224.13 1167.5,-188 1171.08,-170.09 1167.57,-123.08 1163.5,-112 1159.67,-101.58 1152.66,-91.48 1146.08,-83.49"/>
<polygon fill="midnightblue" stroke="midnightblue" points="1148.51,-80.95 1139.29,-75.74 1143.25,-85.57 1148.51,-80.95"/>
</g>
<!-- Node6&#45;&gt;Node4 -->
<g id="edge8" class="edge">
<title>Node6&#45;&gt;Node4</title>
<path fill="none" stroke="midnightblue" d="M141.44,-57.22C146.19,-56.78 150.91,-56.37 155.5,-56 440.48,-33.14 781.93,-18.55 918.12,-13.25"/>
<polygon fill="midnightblue" stroke="midnightblue" points="918.48,-16.74 928.34,-12.85 918.21,-9.74 918.48,-16.74"/>
</g>
<!-- Node7&#45;&gt;Node2 -->
<g id="edge10" class="edge">
<title>Node7&#45;&gt;Node2</title>
<path fill="none" stroke="midnightblue" d="M1081.75,-400.38C916.37,-397.04 233.5,-377.99 233.5,-291 233.5,-291 233.5,-291 233.5,-233 233.5,-170.74 284.46,-110.64 311.73,-82.93"/>
<polygon fill="midnightblue" stroke="midnightblue" points="314.39,-85.22 319.04,-75.7 309.47,-80.24 314.39,-85.22"/>
</g>
<!-- Node7&#45;&gt;Node3 -->
<g id="edge11" class="edge">
<title>Node7&#45;&gt;Node3</title>
<path fill="none" stroke="midnightblue" d="M1129.75,-392.3C1140.54,-384.07 1155.97,-370.79 1165.5,-356 1179.74,-333.91 1180.22,-325.93 1184.5,-300 1198.11,-217.53 1215.16,-187.6 1179.5,-112 1173.78,-99.88 1163.19,-89.5 1153.3,-81.78"/>
<polygon fill="midnightblue" stroke="midnightblue" points="1155.09,-78.75 1144.94,-75.7 1150.97,-84.41 1155.09,-78.75"/>
</g>
<!-- Node7&#45;&gt;Node4 -->
<g id="edge12" class="edge">
<title>Node7&#45;&gt;Node4</title>
<path fill="none" stroke="midnightblue" d="M1153.41,-395.96C1206.96,-386.2 1301.5,-359.29 1301.5,-291 1301.5,-291 1301.5,-291 1301.5,-233 1301.5,-142.86 1275.36,-109.07 1202.5,-56 1176.87,-37.33 1095.86,-24.43 1038.66,-17.37"/>
<polygon fill="midnightblue" stroke="midnightblue" points="1038.98,-13.88 1028.63,-16.16 1038.14,-20.83 1038.98,-13.88"/>
</g>
<!-- Node7&#45;&gt;Node5 -->
<g id="edge13" class="edge">
<title>Node7&#45;&gt;Node5</title>
<path fill="none" stroke="midnightblue" d="M1118.13,-392.37C1119.42,-374.62 1122.4,-333.67 1124.15,-309.6"/>
<polygon fill="midnightblue" stroke="midnightblue" points="1127.64,-309.82 1124.88,-299.59 1120.66,-309.31 1127.64,-309.82"/>
</g>
<!-- Node7&#45;&gt;Node6 -->
<g id="edge14" class="edge">
<title>Node7&#45;&gt;Node6</title>
<path fill="none" stroke="midnightblue" d="M1081.73,-400.26C934.4,-397.04 378.89,-383.2 305.5,-356 201.97,-317.64 184.26,-279.52 122.5,-188 106.34,-164.05 100.97,-158.51 89.5,-132 82.93,-116.83 77.85,-98.71 74.6,-85.46"/>
<polygon fill="midnightblue" stroke="midnightblue" points="77.99,-84.59 72.31,-75.65 71.17,-86.18 77.99,-84.59"/>
</g>
<!-- Node7&#45;&gt;Node8 -->
<g id="edge15" class="edge">
<title>Node7&#45;&gt;Node8</title>
<path fill="none" stroke="midnightblue" d="M1099.67,-392.32C1081.78,-383.62 1054.02,-370.12 1033.45,-360.11"/>
<polygon fill="midnightblue" stroke="midnightblue" points="1034.81,-356.88 1024.29,-355.65 1031.75,-363.18 1034.81,-356.88"/>
</g>
<!-- Node7&#45;&gt;Node11 -->
<g id="edge50" class="edge">
<title>Node7&#45;&gt;Node11</title>
<path fill="none" stroke="midnightblue" d="M1123.65,-392.36C1135.19,-375.56 1159.72,-336.88 1168.5,-300 1177.33,-262.93 1158.67,-220 1145.97,-196.54"/>
<polygon fill="midnightblue" stroke="midnightblue" points="1148.97,-194.73 1140.99,-187.76 1142.88,-198.18 1148.97,-194.73"/>
</g>
<!-- Node8&#45;&gt;Node2 -->
<g id="edge16" class="edge">
<title>Node8&#45;&gt;Node2</title>
<path fill="none" stroke="midnightblue" d="M974.71,-344.1C824.77,-339.44 195.5,-315.1 195.5,-235 195.5,-235 195.5,-235 195.5,-177 195.5,-126.73 252.63,-95.1 292,-79.27"/>
<polygon fill="midnightblue" stroke="midnightblue" points="293.51,-82.45 301.59,-75.59 291,-75.91 293.51,-82.45"/>
</g>
<!-- Node8&#45;&gt;Node3 -->
<g id="edge17" class="edge">
<title>Node8&#45;&gt;Node3</title>
<path fill="none" stroke="midnightblue" d="M1006.28,-336.45C1006.14,-323.88 1006.64,-299.78 1011.5,-280 1024.87,-225.56 1036.55,-213.35 1069.5,-168 1081.91,-150.92 1089.08,-149.76 1100.5,-132 1110.05,-117.15 1118.24,-98.77 1123.64,-85.35"/>
<polygon fill="midnightblue" stroke="midnightblue" points="1126.98,-86.4 1127.34,-75.81 1120.46,-83.87 1126.98,-86.4"/>
</g>
<!-- Node8&#45;&gt;Node4 -->
<g id="edge18" class="edge">
<title>Node8&#45;&gt;Node4</title>
<path fill="none" stroke="midnightblue" d="M1010.87,-336.11C1017.07,-323.53 1028.88,-299.87 1039.5,-280 1066.43,-229.64 1069.45,-214.58 1102.5,-168 1138.05,-117.9 1222,-103.87 1183.5,-56 1165.59,-33.73 1092.63,-21.85 1038.83,-16"/>
<polygon fill="midnightblue" stroke="midnightblue" points="1039,-12.5 1028.69,-14.94 1038.27,-19.46 1039,-12.5"/>
</g>
<!-- Node8&#45;&gt;Node5 -->
<g id="edge19" class="edge">
<title>Node8&#45;&gt;Node5</title>
<path fill="none" stroke="midnightblue" d="M1025.36,-336.44C1044.77,-327.64 1075.23,-313.81 1097.46,-303.72"/>
<polygon fill="midnightblue" stroke="midnightblue" points="1099.07,-306.84 1106.73,-299.52 1096.18,-300.46 1099.07,-306.84"/>
</g>
<!-- Node8&#45;&gt;Node6 -->
<g id="edge20" class="edge">
<title>Node8&#45;&gt;Node6</title>
<path fill="none" stroke="midnightblue" d="M974.69,-345.2C851.88,-345.66 408.84,-344.16 276.5,-300 170.09,-264.49 100.72,-133.16 78.35,-84.92"/>
<polygon fill="midnightblue" stroke="midnightblue" points="81.5,-83.39 74.19,-75.72 75.12,-86.27 81.5,-83.39"/>
</g>
<!-- Node9 -->
<g id="node9" class="node">
<title>Node9</title>
<g id="a_node9"><a xlink:href="../../da/dac/angle_8h.html" target="_top" xlink:title=" ">
<polygon fill="none" stroke="black" points="821,-280.5 821,-299.5 874,-299.5 874,-280.5 821,-280.5"/>
<text text-anchor="middle" x="847.5" y="-287.5" font-family="Helvetica,sans-Serif" font-size="10.00">angle.h</text>
</a>
</g>
</g>
<!-- Node8&#45;&gt;Node9 -->
<g id="edge21" class="edge">
<title>Node8&#45;&gt;Node9</title>
<path fill="none" stroke="midnightblue" d="M981.31,-336.44C954.56,-327.36 912.1,-312.94 882.19,-302.78"/>
<polygon fill="midnightblue" stroke="midnightblue" points="883.17,-299.42 872.58,-299.52 880.92,-306.05 883.17,-299.42"/>
</g>
<!-- Node10 -->
<g id="node10" class="node">
<title>Node10</title>
<g id="a_node10"><a xlink:href="../../dd/dfb/math_helpers_8h.html" target="_top" xlink:title=" ">
<polygon fill="none" stroke="black" points="794,-224.5 794,-243.5 901,-243.5 901,-224.5 794,-224.5"/>
<text text-anchor="middle" x="847.5" y="-231.5" font-family="Helvetica,sans-Serif" font-size="10.00">../../mathHelpers.h</text>
</a>
</g>
</g>
<!-- Node8&#45;&gt;Node10 -->
<g id="edge48" class="edge">
<title>Node8&#45;&gt;Node10</title>
<path fill="none" stroke="midnightblue" d="M994.02,-336.37C966.86,-317.57 902.09,-272.77 868.51,-249.53"/>
<polygon fill="midnightblue" stroke="midnightblue" points="870.13,-246.4 859.92,-243.59 866.15,-252.16 870.13,-246.4"/>
</g>
<!-- Node8&#45;&gt;Node11 -->
<g id="edge49" class="edge">
<title>Node8&#45;&gt;Node11</title>
<path fill="none" stroke="midnightblue" d="M1013.44,-336.08C1034.09,-309.49 1095.45,-230.54 1122.47,-195.76"/>
<polygon fill="midnightblue" stroke="midnightblue" points="1125.47,-197.61 1128.84,-187.57 1119.94,-193.32 1125.47,-197.61"/>
</g>
<!-- Node9&#45;&gt;Node2 -->
<g id="edge23" class="edge">
<title>Node9&#45;&gt;Node2</title>
<path fill="none" stroke="midnightblue" d="M820.85,-288.69C720.19,-287.27 367.18,-279.73 333.5,-244 292.61,-200.62 310.8,-121.38 322.03,-85.52"/>
<polygon fill="midnightblue" stroke="midnightblue" points="325.4,-86.46 325.22,-75.86 318.76,-84.26 325.4,-86.46"/>
</g>
<!-- Node9&#45;&gt;Node3 -->
<g id="edge22" class="edge">
<title>Node9&#45;&gt;Node3</title>
<path fill="none" stroke="midnightblue" d="M861.19,-280.32C904.6,-252.71 1038.48,-166.67 1076.5,-132 1092.69,-117.24 1108.36,-97.59 1118.61,-83.77"/>
<polygon fill="midnightblue" stroke="midnightblue" points="1121.47,-85.79 1124.52,-75.64 1115.81,-81.68 1121.47,-85.79"/>
</g>
<!-- Node9&#45;&gt;Node4 -->
<g id="edge24" class="edge">
<title>Node9&#45;&gt;Node4</title>
<path fill="none" stroke="midnightblue" d="M820.97,-288.45C719.03,-286.12 356.27,-275.65 316.5,-244 248.48,-189.87 202.99,-119.37 262.5,-56 284.81,-32.24 749.53,-17.24 918.1,-12.57"/>
<polygon fill="midnightblue" stroke="midnightblue" points="918.39,-16.06 928.29,-12.29 918.2,-9.07 918.39,-16.06"/>
</g>
<!-- Node9&#45;&gt;Node10 -->
<g id="edge25" class="edge">
<title>Node9&#45;&gt;Node10</title>
<path fill="none" stroke="midnightblue" d="M847.5,-280.08C847.5,-273.01 847.5,-262.86 847.5,-253.99"/>
<polygon fill="midnightblue" stroke="midnightblue" points="851,-253.75 847.5,-243.75 844,-253.75 851,-253.75"/>
</g>
<!-- Node10&#45;&gt;Node2 -->
<g id="edge26" class="edge">
<title>Node10&#45;&gt;Node2</title>
<path fill="none" stroke="midnightblue" d="M793.78,-230.71C706.64,-224.9 531.44,-204.39 404.5,-132 381.09,-118.65 358.12,-97.58 343.67,-83.07"/>
<polygon fill="midnightblue" stroke="midnightblue" points="346.05,-80.5 336.57,-75.78 341.03,-85.38 346.05,-80.5"/>
</g>
<!-- Node10&#45;&gt;Node3 -->
<g id="edge29" class="edge">
<title>Node10&#45;&gt;Node3</title>
<path fill="none" stroke="midnightblue" d="M867.92,-224.41C905.1,-208.41 985.78,-172.02 1048.5,-132 1072.23,-116.86 1097.29,-96.22 1113.36,-82.3"/>
<polygon fill="midnightblue" stroke="midnightblue" points="1115.68,-84.92 1120.89,-75.7 1111.07,-79.66 1115.68,-84.92"/>
</g>
<!-- Node10&#45;&gt;Node6 -->
<g id="edge47" class="edge">
<title>Node10&#45;&gt;Node6</title>
<path fill="none" stroke="midnightblue" d="M793.87,-229.21C721.98,-223.5 590.65,-210.84 480.5,-188 338.16,-158.48 173.62,-103.3 104.18,-79.01"/>
<polygon fill="midnightblue" stroke="midnightblue" points="105.23,-75.67 94.64,-75.65 102.91,-82.27 105.23,-75.67"/>
</g>
<!-- Node10&#45;&gt;Node11 -->
<g id="edge27" class="edge">
<title>Node10&#45;&gt;Node11</title>
<path fill="none" stroke="midnightblue" d="M893.13,-224.44C951.15,-213.56 1049.98,-195.03 1101.69,-185.34"/>
<polygon fill="midnightblue" stroke="midnightblue" points="1102.5,-188.75 1111.68,-183.47 1101.21,-181.87 1102.5,-188.75"/>
</g>
<!-- Node12 -->
<g id="node12" class="node">
<title>Node12</title>
<g id="a_node12"><a xlink:title=" ">
<polygon fill="none" stroke="#bfbfbf" points="414,-112.5 414,-131.5 483,-131.5 483,-112.5 414,-112.5"/>
<text text-anchor="middle" x="448.5" y="-119.5" font-family="Helvetica,sans-Serif" font-size="10.00">type_traits</text>
</a>
</g>
</g>
<!-- Node10&#45;&gt;Node12 -->
<g id="edge28" class="edge">
<title>Node10&#45;&gt;Node12</title>
<path fill="none" stroke="midnightblue" d="M797.76,-224.45C754.1,-216.49 689.08,-203.54 633.5,-188 578.36,-172.59 515.82,-149.37 479.4,-135.26"/>
<polygon fill="midnightblue" stroke="midnightblue" points="480.44,-131.9 469.85,-131.53 477.9,-138.43 480.44,-131.9"/>
</g>
<!-- Node13 -->
<g id="node13" class="node">
<title>Node13</title>
<g id="a_node13"><a xlink:title=" ">
<polygon fill="none" stroke="#bfbfbf" points="815.5,-168.5 815.5,-187.5 879.5,-187.5 879.5,-168.5 815.5,-168.5"/>
<text text-anchor="middle" x="847.5" y="-175.5" font-family="Helvetica,sans-Serif" font-size="10.00">algorithm</text>
</a>
</g>
</g>
<!-- Node10&#45;&gt;Node13 -->
<g id="edge30" class="edge">
<title>Node10&#45;&gt;Node13</title>
<path fill="none" stroke="midnightblue" d="M847.5,-224.08C847.5,-217.01 847.5,-206.86 847.5,-197.99"/>
<polygon fill="midnightblue" stroke="midnightblue" points="851,-197.75 847.5,-187.75 844,-197.75 851,-197.75"/>
</g>
<!-- Node14 -->
<g id="node14" class="node">
<title>Node14</title>
<g id="a_node14"><a xlink:href="../../d5/dbb/limes__assert_8h.html" target="_top" xlink:title=" ">
<polygon fill="none" stroke="black" points="642.5,-168.5 642.5,-187.5 778.5,-187.5 778.5,-168.5 642.5,-168.5"/>
<text text-anchor="middle" x="710.5" y="-175.5" font-family="Helvetica,sans-Serif" font-size="10.00">../system/limes_assert.h</text>
</a>
</g>
</g>
<!-- Node10&#45;&gt;Node14 -->
<g id="edge31" class="edge">
<title>Node10&#45;&gt;Node14</title>
<path fill="none" stroke="midnightblue" d="M825.79,-224.44C803.15,-215.52 767.43,-201.44 741.75,-191.32"/>
<polygon fill="midnightblue" stroke="midnightblue" points="742.69,-187.93 732.11,-187.52 740.13,-194.44 742.69,-187.93"/>
</g>
<!-- Node18 -->
<g id="node18" class="node">
<title>Node18</title>
<g id="a_node18"><a xlink:href="../../d0/d00/compiler__defs_8h.html" target="_top" xlink:title=" ">
<polygon fill="none" stroke="black" points="874,-112.5 874,-131.5 969,-131.5 969,-112.5 874,-112.5"/>
<text text-anchor="middle" x="921.5" y="-119.5" font-family="Helvetica,sans-Serif" font-size="10.00">compiler_defs.h</text>
</a>
</g>
</g>
<!-- Node10&#45;&gt;Node18 -->
<g id="edge46" class="edge">
<title>Node10&#45;&gt;Node18</title>
<path fill="none" stroke="midnightblue" d="M856.75,-224.31C865.62,-215.66 879.01,-201.74 888.5,-188 898.71,-173.21 907.75,-154.82 913.78,-141.38"/>
<polygon fill="midnightblue" stroke="midnightblue" points="917.15,-142.4 917.92,-131.83 910.73,-139.61 917.15,-142.4"/>
</g>
<!-- Node14&#45;&gt;Node2 -->
<g id="edge33" class="edge">
<title>Node14&#45;&gt;Node2</title>
<path fill="none" stroke="midnightblue" d="M679.64,-168.46C650.6,-160.14 606.1,-146.63 568.5,-132 548.86,-124.36 545.44,-118.83 525.5,-112 480.77,-96.68 428.54,-85.02 389.1,-77.41"/>
<polygon fill="midnightblue" stroke="midnightblue" points="389.58,-73.94 379.11,-75.52 388.28,-80.82 389.58,-73.94"/>
</g>
<!-- Node14&#45;&gt;Node3 -->
<g id="edge32" class="edge">
<title>Node14&#45;&gt;Node3</title>
<path fill="none" stroke="midnightblue" d="M778.51,-169.64C853.64,-161.01 969.55,-146.1 1011.5,-132 1048.18,-119.68 1086.81,-96.38 1109.77,-81.29"/>
<polygon fill="midnightblue" stroke="midnightblue" points="1111.96,-84.04 1118.32,-75.56 1108.06,-78.22 1111.96,-84.04"/>
</g>
<!-- Node14&#45;&gt;Node4 -->
<g id="edge41" class="edge">
<title>Node14&#45;&gt;Node4</title>
<path fill="none" stroke="midnightblue" d="M778.58,-170.07C853.38,-161.75 964.67,-147.05 977.5,-132 1001.95,-103.33 992.63,-55.43 984.86,-29.33"/>
<polygon fill="midnightblue" stroke="midnightblue" points="988.12,-28.04 981.72,-19.59 981.46,-30.18 988.12,-28.04"/>
</g>
<!-- Node14&#45;&gt;Node6 -->
<g id="edge34" class="edge">
<title>Node14&#45;&gt;Node6</title>
<path fill="none" stroke="midnightblue" d="M657.79,-168.44C620.06,-161.3 568.54,-149.45 525.5,-132 509.25,-125.41 508.15,-117.5 491.5,-112 430.29,-91.78 255.3,-78.14 151.2,-71.56"/>
<polygon fill="midnightblue" stroke="midnightblue" points="151.24,-68.05 141.04,-70.92 150.8,-75.04 151.24,-68.05"/>
</g>
<!-- Node14&#45;&gt;Node12 -->
<g id="edge35" class="edge">
<title>Node14&#45;&gt;Node12</title>
<path fill="none" stroke="midnightblue" d="M668.99,-168.44C621.03,-158.56 542.42,-142.36 493.17,-132.21"/>
<polygon fill="midnightblue" stroke="midnightblue" points="493.63,-128.73 483.13,-130.14 492.21,-135.58 493.63,-128.73"/>
</g>
<!-- Node15 -->
<g id="node15" class="node">
<title>Node15</title>
<g id="a_node15"><a xlink:title=" ">
<polygon fill="none" stroke="#bfbfbf" points="578,-112.5 578,-131.5 623,-131.5 623,-112.5 578,-112.5"/>
<text text-anchor="middle" x="600.5" y="-119.5" font-family="Helvetica,sans-Serif" font-size="10.00">utility</text>
</a>
</g>
</g>
<!-- Node14&#45;&gt;Node15 -->
<g id="edge36" class="edge">
<title>Node14&#45;&gt;Node15</title>
<path fill="none" stroke="midnightblue" d="M692.83,-168.32C675.11,-159.62 647.6,-146.12 627.21,-136.11"/>
<polygon fill="midnightblue" stroke="midnightblue" points="628.65,-132.92 618.13,-131.65 625.56,-139.2 628.65,-132.92"/>
</g>
<!-- Node16 -->
<g id="node16" class="node">
<title>Node16</title>
<g id="a_node16"><a xlink:href="../../d1/d57/_ignore_unused_8h.html" target="_top" xlink:title=" ">
<polygon fill="none" stroke="black" points="641.5,-112.5 641.5,-131.5 769.5,-131.5 769.5,-112.5 641.5,-112.5"/>
<text text-anchor="middle" x="705.5" y="-119.5" font-family="Helvetica,sans-Serif" font-size="10.00">../misc/IgnoreUnused.h</text>
</a>
</g>
</g>
<!-- Node14&#45;&gt;Node16 -->
<g id="edge37" class="edge">
<title>Node14&#45;&gt;Node16</title>
<path fill="none" stroke="midnightblue" d="M709.67,-168.08C709.02,-161.01 708.08,-150.86 707.26,-141.99"/>
<polygon fill="midnightblue" stroke="midnightblue" points="710.72,-141.39 706.31,-131.75 703.75,-142.03 710.72,-141.39"/>
</g>
<!-- Node17 -->
<g id="node17" class="node">
<title>Node17</title>
<g id="a_node17"><a xlink:title=" ">
<polygon fill="none" stroke="#bfbfbf" points="787.5,-112.5 787.5,-131.5 855.5,-131.5 855.5,-112.5 787.5,-112.5"/>
<text text-anchor="middle" x="821.5" y="-119.5" font-family="Helvetica,sans-Serif" font-size="10.00">filesystem</text>
</a>
</g>
</g>
<!-- Node14&#45;&gt;Node17 -->
<g id="edge42" class="edge">
<title>Node14&#45;&gt;Node17</title>
<path fill="none" stroke="midnightblue" d="M728.33,-168.32C746.22,-159.62 773.98,-146.12 794.55,-136.11"/>
<polygon fill="midnightblue" stroke="midnightblue" points="796.25,-139.18 803.71,-131.65 793.19,-132.88 796.25,-139.18"/>
</g>
<!-- Node14&#45;&gt;Node18 -->
<g id="edge43" class="edge">
<title>Node14&#45;&gt;Node18</title>
<path fill="none" stroke="midnightblue" d="M743.93,-168.44C780.36,-159.12 838.73,-144.18 878.53,-134"/>
<polygon fill="midnightblue" stroke="midnightblue" points="879.4,-137.39 888.22,-131.52 877.67,-130.61 879.4,-137.39"/>
</g>
<!-- Node16&#45;&gt;Node2 -->
<g id="edge39" class="edge">
<title>Node16&#45;&gt;Node2</title>
<path fill="none" stroke="midnightblue" d="M645.76,-112.44C577.79,-102.71 467.02,-86.84 395.98,-76.67"/>
<polygon fill="midnightblue" stroke="midnightblue" points="396.19,-73.16 385.8,-75.21 395.2,-80.09 396.19,-73.16"/>
</g>
<!-- Node16&#45;&gt;Node3 -->
<g id="edge38" class="edge">
<title>Node16&#45;&gt;Node3</title>
<path fill="none" stroke="midnightblue" d="M769.59,-112.86C852.92,-102.27 997.07,-83.95 1075.62,-73.97"/>
<polygon fill="midnightblue" stroke="midnightblue" points="1076.31,-77.41 1085.79,-72.68 1075.43,-70.47 1076.31,-77.41"/>
</g>
<!-- Node16&#45;&gt;Node4 -->
<g id="edge40" class="edge">
<title>Node16&#45;&gt;Node4</title>
<path fill="none" stroke="midnightblue" d="M726.92,-112.37C775.06,-92.97 891.96,-45.87 947.81,-23.37"/>
<polygon fill="midnightblue" stroke="midnightblue" points="949.21,-26.58 957.18,-19.59 946.59,-20.08 949.21,-26.58"/>
</g>
<!-- Node18&#45;&gt;Node4 -->
<g id="edge44" class="edge">
<title>Node18&#45;&gt;Node4</title>
<path fill="none" stroke="midnightblue" d="M925.97,-112.37C935.3,-94.38 956.97,-52.55 969.37,-28.63"/>
<polygon fill="midnightblue" stroke="midnightblue" points="972.55,-30.08 974.05,-19.59 966.34,-26.86 972.55,-30.08"/>
</g>
<!-- Node18&#45;&gt;Node6 -->
<g id="edge45" class="edge">
<title>Node18&#45;&gt;Node6</title>
<path fill="none" stroke="midnightblue" d="M873.96,-113.13C870.76,-112.71 867.59,-112.33 864.5,-112 795.03,-104.57 339.09,-80.76 151.21,-71.11"/>
<polygon fill="midnightblue" stroke="midnightblue" points="151.28,-67.61 141.11,-70.6 150.92,-74.6 151.28,-67.61"/>
</g>
</g>
</svg>
