<?xml version="1.0" encoding="UTF-8" standalone="no"?>
<!DOCTYPE svg PUBLIC "-//W3C//DTD SVG 1.1//EN"
 "http://www.w3.org/Graphics/SVG/1.1/DTD/svg11.dtd">
<!-- Generated by graphviz version 2.43.0 (0)
 -->
<!-- Title: square.h Pages: 1 -->
<svg width="771pt" height="364pt"
 viewBox="0.00 0.00 771.00 364.00" xmlns="http://www.w3.org/2000/svg" xmlns:xlink="http://www.w3.org/1999/xlink">
<g id="graph0" class="graph" transform="scale(1 1) rotate(0) translate(4 360)">
<title>square.h</title>
<!-- Node1 -->
<g id="node1" class="node">
<title>Node1</title>
<g id="a_node1"><a xlink:title=" ">
<polygon fill="#bfbfbf" stroke="black" points="493.5,-336.5 493.5,-355.5 552.5,-355.5 552.5,-336.5 493.5,-336.5"/>
<text text-anchor="middle" x="523" y="-343.5" font-family="Helvetica,sans-Serif" font-size="10.00">square.h</text>
</a>
</g>
</g>
<!-- Node2 -->
<g id="node2" class="node">
<title>Node2</title>
<g id="a_node2"><a xlink:href="../../da/d0b/limes__namespace_8h.html" target="_top" xlink:title=" ">
<polygon fill="none" stroke="black" points="114,-56.5 114,-75.5 228,-75.5 228,-56.5 114,-56.5"/>
<text text-anchor="middle" x="171" y="-63.5" font-family="Helvetica,sans-Serif" font-size="10.00">limes_namespace.h</text>
</a>
</g>
</g>
<!-- Node1&#45;&gt;Node2 -->
<g id="edge1" class="edge">
<title>Node1&#45;&gt;Node2</title>
<path fill="none" stroke="midnightblue" d="M493.38,-345.14C382.75,-344.87 0,-336.6 0,-235 0,-235 0,-235 0,-177 0,-120.74 66.28,-91.9 116.31,-78.14"/>
<polygon fill="midnightblue" stroke="midnightblue" points="117.28,-81.5 126.07,-75.58 115.51,-74.73 117.28,-81.5"/>
</g>
<!-- Node3 -->
<g id="node3" class="node">
<title>Node3</title>
<g id="a_node3"><a xlink:title=" ">
<polygon fill="none" stroke="#bfbfbf" points="360.5,-56.5 360.5,-75.5 449.5,-75.5 449.5,-56.5 360.5,-56.5"/>
<text text-anchor="middle" x="405" y="-63.5" font-family="Helvetica,sans-Serif" font-size="10.00">limes_export.h</text>
</a>
</g>
</g>
<!-- Node1&#45;&gt;Node3 -->
<g id="edge2" class="edge">
<title>Node1&#45;&gt;Node3</title>
<path fill="none" stroke="midnightblue" d="M552.7,-339.22C599.96,-328.1 687,-298.94 687,-235 687,-235 687,-235 687,-177 687,-128.7 541.58,-93.04 459.6,-76.78"/>
<polygon fill="midnightblue" stroke="midnightblue" points="460.17,-73.33 449.68,-74.85 458.83,-80.2 460.17,-73.33"/>
</g>
<!-- Node4 -->
<g id="node4" class="node">
<title>Node4</title>
<g id="a_node4"><a xlink:title=" ">
<polygon fill="none" stroke="#bfbfbf" points="500,-0.5 500,-19.5 600,-19.5 600,-0.5 500,-0.5"/>
<text text-anchor="middle" x="550" y="-7.5" font-family="Helvetica,sans-Serif" font-size="10.00">limes_platform.h</text>
</a>
</g>
</g>
<!-- Node1&#45;&gt;Node4 -->
<g id="edge3" class="edge">
<title>Node1&#45;&gt;Node4</title>
<path fill="none" stroke="midnightblue" d="M552.91,-344.65C617.25,-342.17 763,-326.44 763,-235 763,-235 763,-235 763,-121 763,-51.91 673.43,-26.17 610.46,-16.61"/>
<polygon fill="midnightblue" stroke="midnightblue" points="610.6,-13.09 600.21,-15.16 609.62,-20.03 610.6,-13.09"/>
</g>
<!-- Node5 -->
<g id="node5" class="node">
<title>Node5</title>
<g id="a_node5"><a xlink:href="../../d8/d23/2_dshape_8h.html" target="_top" xlink:title=" ">
<polygon fill="none" stroke="black" points="104,-168.5 104,-187.5 172,-187.5 172,-168.5 104,-168.5"/>
<text text-anchor="middle" x="138" y="-175.5" font-family="Helvetica,sans-Serif" font-size="10.00">2Dshape.h</text>
</a>
</g>
</g>
<!-- Node1&#45;&gt;Node5 -->
<g id="edge4" class="edge">
<title>Node1&#45;&gt;Node5</title>
<path fill="none" stroke="midnightblue" d="M500.39,-336.43C456.28,-319.59 355.84,-280.63 273,-244 234.65,-227.04 191.07,-205.67 164.05,-192.16"/>
<polygon fill="midnightblue" stroke="midnightblue" points="165.39,-188.92 154.88,-187.57 162.25,-195.18 165.39,-188.92"/>
</g>
<!-- Node6 -->
<g id="node6" class="node">
<title>Node6</title>
<g id="a_node6"><a xlink:href="../../d3/d53/preprocessor_8h.html" target="_top" xlink:title=" ">
<polygon fill="none" stroke="black" points="479.5,-56.5 479.5,-75.5 620.5,-75.5 620.5,-56.5 479.5,-56.5"/>
<text text-anchor="middle" x="550" y="-63.5" font-family="Helvetica,sans-Serif" font-size="10.00">../../../misc/preprocessor.h</text>
</a>
</g>
</g>
<!-- Node1&#45;&gt;Node6 -->
<g id="edge7" class="edge">
<title>Node1&#45;&gt;Node6</title>
<path fill="none" stroke="midnightblue" d="M552.73,-345.54C591.57,-344.63 659.52,-337.3 701,-300 723.9,-279.41 725,-265.8 725,-235 725,-235 725,-235 725,-177 725,-146.2 723.46,-133.07 701,-112 681.8,-93.99 655.7,-83.17 630.6,-76.66"/>
<polygon fill="midnightblue" stroke="midnightblue" points="631.21,-73.21 620.67,-74.3 629.59,-80.02 631.21,-73.21"/>
</g>
<!-- Node7 -->
<g id="node7" class="node">
<title>Node7</title>
<g id="a_node7"><a xlink:href="../../db/dd0/rectangle_8h.html" target="_top" xlink:title=" ">
<polygon fill="none" stroke="black" points="442.5,-280.5 442.5,-299.5 513.5,-299.5 513.5,-280.5 442.5,-280.5"/>
<text text-anchor="middle" x="478" y="-287.5" font-family="Helvetica,sans-Serif" font-size="10.00">rectangle.h</text>
</a>
</g>
</g>
<!-- Node1&#45;&gt;Node7 -->
<g id="edge9" class="edge">
<title>Node1&#45;&gt;Node7</title>
<path fill="none" stroke="midnightblue" d="M515.57,-336.08C509.15,-328.38 499.69,-317.03 491.88,-307.65"/>
<polygon fill="midnightblue" stroke="midnightblue" points="494.38,-305.19 485.29,-299.75 489.01,-309.67 494.38,-305.19"/>
</g>
<!-- Node8 -->
<g id="node8" class="node">
<title>Node8</title>
<g id="a_node8"><a xlink:href="../../dd/d6a/triangle_8h.html" target="_top" xlink:title=" ">
<polygon fill="none" stroke="black" points="367.5,-224.5 367.5,-243.5 430.5,-243.5 430.5,-224.5 367.5,-224.5"/>
<text text-anchor="middle" x="399" y="-231.5" font-family="Helvetica,sans-Serif" font-size="10.00">triangle.h</text>
</a>
</g>
</g>
<!-- Node1&#45;&gt;Node8 -->
<g id="edge32" class="edge">
<title>Node1&#45;&gt;Node8</title>
<path fill="none" stroke="midnightblue" d="M496.25,-336.38C477.07,-329.13 451.61,-317.16 434,-300 420.54,-286.88 411.02,-267.47 405.34,-253.27"/>
<polygon fill="midnightblue" stroke="midnightblue" points="408.51,-251.77 401.74,-243.63 401.95,-254.22 408.51,-251.77"/>
</g>
<!-- Node14 -->
<g id="node11" class="node">
<title>Node14</title>
<g id="a_node11"><a xlink:title=" ">
<polygon fill="none" stroke="#bfbfbf" points="535.5,-168.5 535.5,-187.5 582.5,-187.5 582.5,-168.5 535.5,-168.5"/>
<text text-anchor="middle" x="559" y="-175.5" font-family="Helvetica,sans-Serif" font-size="10.00">cmath</text>
</a>
</g>
</g>
<!-- Node1&#45;&gt;Node14 -->
<g id="edge33" class="edge">
<title>Node1&#45;&gt;Node14</title>
<path fill="none" stroke="midnightblue" d="M524.94,-336.08C530.6,-309.95 547.24,-233.21 554.97,-197.58"/>
<polygon fill="midnightblue" stroke="midnightblue" points="558.44,-198.08 557.14,-187.57 551.6,-196.6 558.44,-198.08"/>
</g>
<!-- Node5&#45;&gt;Node2 -->
<g id="edge5" class="edge">
<title>Node5&#45;&gt;Node2</title>
<path fill="none" stroke="midnightblue" d="M136.33,-168.32C134.25,-155.6 131.68,-131.3 138,-112 141.49,-101.34 148.57,-91.12 155.29,-83.12"/>
<polygon fill="midnightblue" stroke="midnightblue" points="157.9,-85.44 161.98,-75.66 152.7,-80.76 157.9,-85.44"/>
</g>
<!-- Node5&#45;&gt;Node3 -->
<g id="edge6" class="edge">
<title>Node5&#45;&gt;Node3</title>
<path fill="none" stroke="midnightblue" d="M158.95,-168.37C205.94,-149.01 319.89,-102.06 374.64,-79.51"/>
<polygon fill="midnightblue" stroke="midnightblue" points="376.23,-82.64 384.15,-75.59 373.57,-76.16 376.23,-82.64"/>
</g>
<!-- Node6&#45;&gt;Node4 -->
<g id="edge8" class="edge">
<title>Node6&#45;&gt;Node4</title>
<path fill="none" stroke="midnightblue" d="M550,-56.08C550,-49.01 550,-38.86 550,-29.99"/>
<polygon fill="midnightblue" stroke="midnightblue" points="553.5,-29.75 550,-19.75 546.5,-29.75 553.5,-29.75"/>
</g>
<!-- Node7&#45;&gt;Node2 -->
<g id="edge10" class="edge">
<title>Node7&#45;&gt;Node2</title>
<path fill="none" stroke="midnightblue" d="M442.47,-285.23C355.6,-275.19 136.54,-244.62 95,-188 68.04,-151.25 118.92,-104.93 149.8,-81.7"/>
<polygon fill="midnightblue" stroke="midnightblue" points="151.89,-84.51 157.9,-75.79 147.76,-78.86 151.89,-84.51"/>
</g>
<!-- Node7&#45;&gt;Node3 -->
<g id="edge11" class="edge">
<title>Node7&#45;&gt;Node3</title>
<path fill="none" stroke="midnightblue" d="M480.33,-280.16C486.99,-252.98 503.63,-169 472,-112 464.21,-97.96 449.98,-87.48 436.62,-80.18"/>
<polygon fill="midnightblue" stroke="midnightblue" points="438.11,-77.01 427.61,-75.63 434.96,-83.26 438.11,-77.01"/>
</g>
<!-- Node7&#45;&gt;Node4 -->
<g id="edge12" class="edge">
<title>Node7&#45;&gt;Node4</title>
<path fill="none" stroke="midnightblue" d="M513.85,-282.57C563.99,-271.27 649,-242.72 649,-179 649,-179 649,-179 649,-121 649,-90.9 648.72,-79.57 630,-56 618.51,-41.53 601.02,-30.94 585.32,-23.68"/>
<polygon fill="midnightblue" stroke="midnightblue" points="586.41,-20.34 575.84,-19.59 583.63,-26.77 586.41,-20.34"/>
</g>
<!-- Node7&#45;&gt;Node5 -->
<g id="edge13" class="edge">
<title>Node7&#45;&gt;Node5</title>
<path fill="none" stroke="midnightblue" d="M451.6,-280.46C391.23,-260.93 242.98,-212.96 174.17,-190.7"/>
<polygon fill="midnightblue" stroke="midnightblue" points="175.21,-187.36 164.61,-187.61 173.05,-194.02 175.21,-187.36"/>
</g>
<!-- Node7&#45;&gt;Node6 -->
<g id="edge14" class="edge">
<title>Node7&#45;&gt;Node6</title>
<path fill="none" stroke="midnightblue" d="M494.94,-280.36C521.65,-265.63 572.5,-232.86 592,-188 607.8,-151.65 581.24,-107.27 563.65,-83.65"/>
<polygon fill="midnightblue" stroke="midnightblue" points="566.35,-81.43 557.45,-75.68 560.82,-85.72 566.35,-81.43"/>
</g>
<!-- Node7&#45;&gt;Node8 -->
<g id="edge15" class="edge">
<title>Node7&#45;&gt;Node8</title>
<path fill="none" stroke="midnightblue" d="M465.31,-280.32C453.1,-271.98 434.42,-259.21 420,-249.35"/>
<polygon fill="midnightblue" stroke="midnightblue" points="421.89,-246.41 411.66,-243.65 417.94,-252.19 421.89,-246.41"/>
</g>
<!-- Node7&#45;&gt;Node14 -->
<g id="edge31" class="edge">
<title>Node7&#45;&gt;Node14</title>
<path fill="none" stroke="midnightblue" d="M484.36,-280.37C497.78,-262.14 529.23,-219.43 546.72,-195.68"/>
<polygon fill="midnightblue" stroke="midnightblue" points="549.56,-197.72 552.67,-187.59 543.93,-193.57 549.56,-197.72"/>
</g>
<!-- Node8&#45;&gt;Node2 -->
<g id="edge16" class="edge">
<title>Node8&#45;&gt;Node2</title>
<path fill="none" stroke="midnightblue" d="M367.47,-226.99C339.74,-220.62 299.21,-208.56 269,-188 228.38,-160.35 196.03,-110.96 180.69,-84.64"/>
<polygon fill="midnightblue" stroke="midnightblue" points="183.64,-82.75 175.66,-75.78 177.56,-86.2 183.64,-82.75"/>
</g>
<!-- Node8&#45;&gt;Node3 -->
<g id="edge17" class="edge">
<title>Node8&#45;&gt;Node3</title>
<path fill="none" stroke="midnightblue" d="M406.19,-224.25C419.37,-207.57 447,-169.51 457,-132 459.29,-123.41 460.7,-120.08 457,-112 451.22,-99.36 439.95,-88.91 429.37,-81.27"/>
<polygon fill="midnightblue" stroke="midnightblue" points="431.04,-78.18 420.78,-75.53 427.15,-84 431.04,-78.18"/>
</g>
<!-- Node8&#45;&gt;Node4 -->
<g id="edge18" class="edge">
<title>Node8&#45;&gt;Node4</title>
<path fill="none" stroke="midnightblue" d="M367.26,-233.28C296.63,-233.16 129.94,-228.49 95,-188 71.48,-160.75 -13.09,-175.49 105,-56 131.53,-29.16 374.33,-17.14 489.68,-12.9"/>
<polygon fill="midnightblue" stroke="midnightblue" points="489.9,-16.4 499.77,-12.54 489.65,-9.4 489.9,-16.4"/>
</g>
<!-- Node8&#45;&gt;Node5 -->
<g id="edge19" class="edge">
<title>Node8&#45;&gt;Node5</title>
<path fill="none" stroke="midnightblue" d="M367.26,-226.43C321.02,-216.87 234.97,-199.06 182.45,-188.2"/>
<polygon fill="midnightblue" stroke="midnightblue" points="182.92,-184.72 172.42,-186.12 181.5,-191.57 182.92,-184.72"/>
</g>
<!-- Node8&#45;&gt;Node6 -->
<g id="edge20" class="edge">
<title>Node8&#45;&gt;Node6</title>
<path fill="none" stroke="midnightblue" d="M409.59,-224.49C420.22,-215.76 436.86,-201.57 450,-188 483.95,-152.93 519.35,-107.7 537.55,-83.7"/>
<polygon fill="midnightblue" stroke="midnightblue" points="540.42,-85.7 543.64,-75.6 534.83,-81.49 540.42,-85.7"/>
</g>
<!-- Node9 -->
<g id="node9" class="node">
<title>Node9</title>
<g id="a_node9"><a xlink:href="../../da/dac/angle_8h.html" target="_top" xlink:title=" ">
<polygon fill="none" stroke="black" points="277.5,-168.5 277.5,-187.5 330.5,-187.5 330.5,-168.5 277.5,-168.5"/>
<text text-anchor="middle" x="304" y="-175.5" font-family="Helvetica,sans-Serif" font-size="10.00">angle.h</text>
</a>
</g>
</g>
<!-- Node8&#45;&gt;Node9 -->
<g id="edge21" class="edge">
<title>Node8&#45;&gt;Node9</title>
<path fill="none" stroke="midnightblue" d="M383.74,-224.32C368.78,-215.82 345.75,-202.73 328.27,-192.8"/>
<polygon fill="midnightblue" stroke="midnightblue" points="329.65,-189.55 319.23,-187.65 326.19,-195.64 329.65,-189.55"/>
</g>
<!-- Node10 -->
<g id="node10" class="node">
<title>Node10</title>
<g id="a_node10"><a xlink:href="../../dc/d5c/math_functions_8h.html" target="_top" xlink:title=" ">
<polygon fill="none" stroke="red" points="332,-112.5 332,-131.5 448,-131.5 448,-112.5 332,-112.5"/>
<text text-anchor="middle" x="390" y="-119.5" font-family="Helvetica,sans-Serif" font-size="10.00">../../mathFunctions.h</text>
</a>
</g>
</g>
<!-- Node8&#45;&gt;Node10 -->
<g id="edge29" class="edge">
<title>Node8&#45;&gt;Node10</title>
<path fill="none" stroke="midnightblue" d="M398.29,-224.37C396.84,-206.62 393.49,-165.67 391.52,-141.6"/>
<polygon fill="midnightblue" stroke="midnightblue" points="395.01,-141.27 390.7,-131.59 388.03,-141.84 395.01,-141.27"/>
</g>
<!-- Node8&#45;&gt;Node14 -->
<g id="edge30" class="edge">
<title>Node8&#45;&gt;Node14</title>
<path fill="none" stroke="midnightblue" d="M424.35,-224.44C451.74,-215.2 495.51,-200.43 525.67,-190.25"/>
<polygon fill="midnightblue" stroke="midnightblue" points="526.98,-193.5 535.33,-186.99 524.74,-186.87 526.98,-193.5"/>
</g>
<!-- Node9&#45;&gt;Node2 -->
<g id="edge23" class="edge">
<title>Node9&#45;&gt;Node2</title>
<path fill="none" stroke="midnightblue" d="M293.56,-168.37C271.03,-149.73 217.59,-105.53 189.3,-82.13"/>
<polygon fill="midnightblue" stroke="midnightblue" points="191.32,-79.27 181.39,-75.59 186.86,-84.66 191.32,-79.27"/>
</g>
<!-- Node9&#45;&gt;Node3 -->
<g id="edge22" class="edge">
<title>Node9&#45;&gt;Node3</title>
<path fill="none" stroke="midnightblue" d="M304.45,-168.47C305.57,-155.07 309.45,-128.87 323,-112 334.7,-97.43 352.46,-86.86 368.46,-79.64"/>
<polygon fill="midnightblue" stroke="midnightblue" points="370.27,-82.68 378.13,-75.58 367.55,-76.23 370.27,-82.68"/>
</g>
<!-- Node9&#45;&gt;Node4 -->
<g id="edge24" class="edge">
<title>Node9&#45;&gt;Node4</title>
<path fill="none" stroke="midnightblue" d="M302.93,-168.24C301.72,-155.43 300.76,-131.02 308,-112 319.26,-82.42 325.25,-72.92 352,-56 393.42,-29.79 448.25,-18.78 489.71,-14.19"/>
<polygon fill="midnightblue" stroke="midnightblue" points="490.08,-17.67 499.68,-13.18 489.37,-10.7 490.08,-17.67"/>
</g>
<!-- Node9&#45;&gt;Node10 -->
<g id="edge25" class="edge">
<title>Node9&#45;&gt;Node10</title>
<path fill="none" stroke="midnightblue" d="M317.82,-168.32C331.23,-159.9 351.82,-146.97 367.59,-137.07"/>
<polygon fill="midnightblue" stroke="midnightblue" points="369.61,-139.94 376.22,-131.65 365.89,-134.01 369.61,-139.94"/>
</g>
<!-- Node10&#45;&gt;Node2 -->
<g id="edge26" class="edge">
<title>Node10&#45;&gt;Node2</title>
<path fill="none" stroke="midnightblue" d="M355.3,-112.44C317.42,-103.1 256.65,-88.12 215.34,-77.93"/>
<polygon fill="midnightblue" stroke="midnightblue" points="216.09,-74.51 205.54,-75.52 214.41,-81.31 216.09,-74.51"/>
</g>
<!-- Node10&#45;&gt;Node3 -->
<g id="edge27" class="edge">
<title>Node10&#45;&gt;Node3</title>
<path fill="none" stroke="midnightblue" d="M392.48,-112.08C394.49,-104.85 397.39,-94.41 399.89,-85.4"/>
<polygon fill="midnightblue" stroke="midnightblue" points="403.26,-86.32 402.57,-75.75 396.52,-84.45 403.26,-86.32"/>
</g>
<!-- Node10&#45;&gt;Node6 -->
<g id="edge28" class="edge">
<title>Node10&#45;&gt;Node6</title>
<path fill="none" stroke="midnightblue" d="M415.35,-112.44C442.27,-103.36 485,-88.94 515.09,-78.78"/>
<polygon fill="midnightblue" stroke="midnightblue" points="516.41,-82.03 524.77,-75.52 514.17,-75.4 516.41,-82.03"/>
</g>
</g>
</svg>
