<?xml version="1.0" encoding="UTF-8" standalone="no"?>
<!DOCTYPE svg PUBLIC "-//W3C//DTD SVG 1.1//EN"
 "http://www.w3.org/Graphics/SVG/1.1/DTD/svg11.dtd">
<!-- Generated by graphviz version 2.43.0 (0)
 -->
<!-- Title: square.h Pages: 1 -->
<!--zoomable 543 -->
<svg id="main" version="1.1" xmlns="http://www.w3.org/2000/svg" xmlns:xlink="http://www.w3.org/1999/xlink" xml:space="preserve" onload="init(evt)">
<style type="text/css"><![CDATA[
.edge:hover path { stroke: red; }
.edge:hover polygon { stroke: red; fill: red; }
]]></style>
<script type="text/javascript"><![CDATA[
var edges = document.getElementsByTagName('g');
if (edges && edges.length) {
  for (var i=0;i<edges.length;i++) {
    if (edges[i].id.substr(0,4)=='edge') {
      edges[i].setAttribute('class','edge');
    }
  }
}
]]></script>
        <defs>
                <circle id="rim" cx="0" cy="0" r="7"/>
                <circle id="rim2" cx="0" cy="0" r="3.5"/>
                <g id="zoomPlus">
                        <use xlink:href="#rim" fill="#404040">
                                <set attributeName="fill" to="#808080" begin="zoomplus.mouseover" end="zoomplus.mouseout"/>
                        </use>
                        <path d="M-4,0h8M0,-4v8" fill="none" stroke="white" stroke-width="1.5" pointer-events="none"/>
                </g>
                <g id="zoomMin">
                        <use xlink:href="#rim" fill="#404040">
                                <set attributeName="fill" to="#808080" begin="zoomminus.mouseover" end="zoomminus.mouseout"/>
                        </use>
                        <path d="M-4,0h8" fill="none" stroke="white" stroke-width="1.5" pointer-events="none"/>
                </g>
                <g id="dirArrow">
                        <path fill="none" stroke="white" stroke-width="1.5" d="M0,-3.0v7 M-2.5,-0.5L0,-3.0L2.5,-0.5"/>
                </g>
               <g id="resetDef">
                       <use xlink:href="#rim2" fill="#404040">
                               <set attributeName="fill" to="#808080" begin="reset.mouseover" end="reset.mouseout"/>
                       </use>
               </g>
        </defs>

<script type="text/javascript">
var viewWidth = 1440;
var viewHeight = 543;
var sectionId = 'dynsection-0';
</script>
<script xlink:href="../../svgpan.js"/>
<svg id="graph" class="graph">
<g id="viewport">
<title>square.h</title>
<!-- Node1 -->
<g id="node1" class="node">
<title>Node1</title>
<g id="a_node1"><a xlink:title=" ">
<polygon fill="#bfbfbf" stroke="black" points="1001.5,-515.5 1001.5,-534.5 1060.5,-534.5 1060.5,-515.5 1001.5,-515.5"/>
<text text-anchor="middle" x="1031" y="-522.5" font-family="Helvetica,sans-Serif" font-size="10.00">square.h</text>
</a>
</g>
</g>
<!-- Node2 -->
<g id="node2" class="node">
<title>Node2</title>
<g id="a_node2"><a xlink:href="../../da/d0b/limes__namespace_8h.html" target="_top" xlink:title=" ">
<polygon fill="none" stroke="black" points="517,-56.5 517,-75.5 631,-75.5 631,-56.5 517,-56.5"/>
<text text-anchor="middle" x="574" y="-63.5" font-family="Helvetica,sans-Serif" font-size="10.00">limes_namespace.h</text>
</a>
</g>
</g>
<!-- Node1&#45;&gt;Node2 -->
<g id="edge1" class="edge">
<title>Node1&#45;&gt;Node2</title>
<path fill="none" stroke="midnightblue" d="M1001.34,-523.43C849.04,-520.15 162,-500.54 162,-414 162,-414 162,-414 162,-356 162,-271.68 407.76,-192.53 476,-143 504.23,-122.51 535.98,-97.51 555.49,-81.92"/>
<polygon fill="midnightblue" stroke="midnightblue" points="557.68,-84.65 563.29,-75.66 553.3,-79.19 557.68,-84.65"/>
</g>
<!-- Node3 -->
<g id="node3" class="node">
<title>Node3</title>
<g id="a_node3"><a xlink:title=" ">
<polygon fill="none" stroke="#bfbfbf" points="98.5,-56.5 98.5,-75.5 187.5,-75.5 187.5,-56.5 98.5,-56.5"/>
<text text-anchor="middle" x="143" y="-63.5" font-family="Helvetica,sans-Serif" font-size="10.00">limes_export.h</text>
</a>
</g>
</g>
<!-- Node1&#45;&gt;Node3 -->
<g id="edge2" class="edge">
<title>Node1&#45;&gt;Node3</title>
<path fill="none" stroke="midnightblue" d="M1001.18,-524.33C863.59,-525.56 289.57,-527.66 118,-479 60.4,-462.66 0,-473.87 0,-414 0,-414 0,-414 0,-188 0,-131.73 65.32,-96.25 107.67,-79.16"/>
<polygon fill="midnightblue" stroke="midnightblue" points="109.05,-82.38 117.1,-75.5 106.51,-75.85 109.05,-82.38"/>
</g>
<!-- Node4 -->
<g id="node4" class="node">
<title>Node4</title>
<g id="a_node4"><a xlink:title=" ">
<polygon fill="none" stroke="#bfbfbf" points="1083,-0.5 1083,-19.5 1183,-19.5 1183,-0.5 1083,-0.5"/>
<text text-anchor="middle" x="1133" y="-7.5" font-family="Helvetica,sans-Serif" font-size="10.00">limes_platform.h</text>
</a>
</g>
</g>
<!-- Node1&#45;&gt;Node4 -->
<g id="edge3" class="edge">
<title>Node1&#45;&gt;Node4</title>
<path fill="none" stroke="midnightblue" d="M1060.81,-522.26C1153.75,-516.04 1432,-490.97 1432,-414 1432,-414 1432,-414 1432,-126.5 1432,-87.57 1413.03,-76.61 1380,-56 1349.57,-37.01 1256.17,-23.84 1193.35,-16.85"/>
<polygon fill="midnightblue" stroke="midnightblue" points="1193.48,-13.35 1183.16,-15.74 1192.72,-20.31 1193.48,-13.35"/>
</g>
<!-- Node5 -->
<g id="node5" class="node">
<title>Node5</title>
<g id="a_node5"><a xlink:href="../../d8/d23/2_dshape_8h.html" target="_top" xlink:title=" ">
<polygon fill="none" stroke="black" points="28,-347.5 28,-366.5 96,-366.5 96,-347.5 28,-347.5"/>
<text text-anchor="middle" x="62" y="-354.5" font-family="Helvetica,sans-Serif" font-size="10.00">2Dshape.h</text>
</a>
</g>
</g>
<!-- Node1&#45;&gt;Node5 -->
<g id="edge4" class="edge">
<title>Node1&#45;&gt;Node5</title>
<path fill="none" stroke="midnightblue" d="M1001.08,-524.01C855.39,-523.86 224.11,-520.77 148,-479 106.53,-456.24 80.32,-403.91 68.8,-376.12"/>
<polygon fill="midnightblue" stroke="midnightblue" points="72.04,-374.79 65.11,-366.78 65.53,-377.37 72.04,-374.79"/>
</g>
<!-- Node6 -->
<g id="node6" class="node">
<title>Node6</title>
<g id="a_node6"><a xlink:href="../../d3/d53/preprocessor_8h.html" target="_top" xlink:title=" ">
<polygon fill="none" stroke="black" points="1112.5,-56.5 1112.5,-75.5 1253.5,-75.5 1253.5,-56.5 1112.5,-56.5"/>
<text text-anchor="middle" x="1183" y="-63.5" font-family="Helvetica,sans-Serif" font-size="10.00">../../../misc/preprocessor.h</text>
</a>
</g>
</g>
<!-- Node1&#45;&gt;Node6 -->
<g id="edge7" class="edge">
<title>Node1&#45;&gt;Node6</title>
<path fill="none" stroke="midnightblue" d="M1060.7,-520.42C1140.93,-509.93 1356,-476.03 1356,-414 1356,-414 1356,-414 1356,-244 1356,-173.49 1320.31,-159.27 1268,-112 1252.78,-98.24 1232.58,-87.32 1215.7,-79.69"/>
<polygon fill="midnightblue" stroke="midnightblue" points="1216.77,-76.34 1206.2,-75.58 1213.99,-82.76 1216.77,-76.34"/>
</g>
<!-- Node7 -->
<g id="node7" class="node">
<title>Node7</title>
<g id="a_node7"><a xlink:href="../../db/dd0/rectangle_8h.html" target="_top" xlink:title=" ">
<polygon fill="none" stroke="black" points="1109.5,-459.5 1109.5,-478.5 1180.5,-478.5 1180.5,-459.5 1109.5,-459.5"/>
<text text-anchor="middle" x="1145" y="-466.5" font-family="Helvetica,sans-Serif" font-size="10.00">rectangle.h</text>
</a>
</g>
</g>
<!-- Node1&#45;&gt;Node7 -->
<g id="edge9" class="edge">
<title>Node1&#45;&gt;Node7</title>
<path fill="none" stroke="midnightblue" d="M1049.06,-515.44C1067.57,-506.68 1096.58,-492.94 1117.86,-482.86"/>
<polygon fill="midnightblue" stroke="midnightblue" points="1119.48,-485.96 1127.02,-478.52 1116.49,-479.63 1119.48,-485.96"/>
</g>
<!-- Node8 -->
<g id="node8" class="node">
<title>Node8</title>
<g id="a_node8"><a xlink:href="../../dd/d6a/triangle_8h.html" target="_top" xlink:title=" ">
<polygon fill="none" stroke="black" points="947.5,-403.5 947.5,-422.5 1010.5,-422.5 1010.5,-403.5 947.5,-403.5"/>
<text text-anchor="middle" x="979" y="-410.5" font-family="Helvetica,sans-Serif" font-size="10.00">triangle.h</text>
</a>
</g>
</g>
<!-- Node1&#45;&gt;Node8 -->
<g id="edge53" class="edge">
<title>Node1&#45;&gt;Node8</title>
<path fill="none" stroke="midnightblue" d="M1026.92,-515.37C1018.45,-497.46 998.82,-455.92 987.48,-431.95"/>
<polygon fill="midnightblue" stroke="midnightblue" points="990.5,-430.14 983.06,-422.59 984.17,-433.13 990.5,-430.14"/>
</g>
<!-- Node14 -->
<g id="node14" class="node">
<title>Node14</title>
<g id="a_node14"><a xlink:title=" ">
<polygon fill="none" stroke="#bfbfbf" points="1101.5,-179.5 1101.5,-198.5 1148.5,-198.5 1148.5,-179.5 1101.5,-179.5"/>
<text text-anchor="middle" x="1125" y="-186.5" font-family="Helvetica,sans-Serif" font-size="10.00">cmath</text>
</a>
</g>
</g>
<!-- Node1&#45;&gt;Node14 -->
<g id="edge54" class="edge">
<title>Node1&#45;&gt;Node14</title>
<path fill="none" stroke="midnightblue" d="M1060.6,-519.9C1102.15,-513.47 1174.43,-499.59 1190,-479 1254.85,-393.25 1170.43,-254.82 1137.29,-206.94"/>
<polygon fill="midnightblue" stroke="midnightblue" points="1140.04,-204.76 1131.41,-198.61 1134.32,-208.8 1140.04,-204.76"/>
</g>
<!-- Node5&#45;&gt;Node2 -->
<g id="edge5" class="edge">
<title>Node5&#45;&gt;Node2</title>
<path fill="none" stroke="midnightblue" d="M72.16,-347.36C87.82,-334.27 119.1,-309.02 148,-291 271.8,-213.82 316.33,-218.78 441,-143 461.13,-130.76 463.84,-124.2 484,-112 503.8,-100.02 527.21,-88.39 545.19,-79.95"/>
<polygon fill="midnightblue" stroke="midnightblue" points="546.96,-82.99 554.56,-75.61 544.01,-76.64 546.96,-82.99"/>
</g>
<!-- Node5&#45;&gt;Node3 -->
<g id="edge6" class="edge">
<title>Node5&#45;&gt;Node3</title>
<path fill="none" stroke="midnightblue" d="M60.17,-347.49C56.37,-329.07 48,-284.12 48,-246 48,-246 48,-246 48,-188 48,-152.58 50.4,-140.07 72,-112 82.59,-98.24 98.66,-87.56 112.84,-80.05"/>
<polygon fill="midnightblue" stroke="midnightblue" points="114.42,-83.18 121.81,-75.59 111.3,-76.91 114.42,-83.18"/>
</g>
<!-- Node6&#45;&gt;Node4 -->
<g id="edge8" class="edge">
<title>Node6&#45;&gt;Node4</title>
<path fill="none" stroke="midnightblue" d="M1174.74,-56.08C1167.54,-48.3 1156.89,-36.8 1148.15,-27.37"/>
<polygon fill="midnightblue" stroke="midnightblue" points="1150.47,-24.71 1141.1,-19.75 1145.33,-29.47 1150.47,-24.71"/>
</g>
<!-- Node7&#45;&gt;Node2 -->
<g id="edge10" class="edge">
<title>Node7&#45;&gt;Node2</title>
<path fill="none" stroke="midnightblue" d="M1148.92,-459.28C1168.47,-414.33 1250.53,-207.15 1147,-112 1110.45,-78.41 784.56,-69.85 641.19,-67.7"/>
<polygon fill="midnightblue" stroke="midnightblue" points="641.24,-64.2 631.19,-67.56 641.14,-71.2 641.24,-64.2"/>
</g>
<!-- Node7&#45;&gt;Node3 -->
<g id="edge11" class="edge">
<title>Node7&#45;&gt;Node3</title>
<path fill="none" stroke="midnightblue" d="M1109.46,-468.3C925.09,-468.93 86,-460.03 86,-246 86,-246 86,-246 86,-188 86,-147.59 112.34,-106.21 129.21,-83.85"/>
<polygon fill="midnightblue" stroke="midnightblue" points="132.15,-85.77 135.55,-75.74 126.63,-81.46 132.15,-85.77"/>
</g>
<!-- Node7&#45;&gt;Node4 -->
<g id="edge12" class="edge">
<title>Node7&#45;&gt;Node4</title>
<path fill="none" stroke="midnightblue" d="M1180.68,-461.47C1249.53,-446.6 1394,-403.31 1394,-302 1394,-302 1394,-302 1394,-126.5 1394,-39.13 1270.17,-17.32 1193.1,-12.21"/>
<polygon fill="midnightblue" stroke="midnightblue" points="1193.2,-8.71 1183.01,-11.62 1192.79,-15.7 1193.2,-8.71"/>
</g>
<!-- Node7&#45;&gt;Node5 -->
<g id="edge13" class="edge">
<title>Node7&#45;&gt;Node5</title>
<path fill="none" stroke="midnightblue" d="M1109.27,-467.83C961.44,-466.91 397.4,-460.9 224,-423 173.51,-411.96 118.4,-386.78 87.23,-371.2"/>
<polygon fill="midnightblue" stroke="midnightblue" points="88.48,-367.92 77.98,-366.51 85.32,-374.16 88.48,-367.92"/>
</g>
<!-- Node7&#45;&gt;Node6 -->
<g id="edge14" class="edge">
<title>Node7&#45;&gt;Node6</title>
<path fill="none" stroke="midnightblue" d="M1172.65,-459.42C1212.14,-445.23 1280,-412.87 1280,-358 1280,-358 1280,-358 1280,-188 1280,-140.87 1234.64,-101.62 1205.96,-81.51"/>
<polygon fill="midnightblue" stroke="midnightblue" points="1207.56,-78.36 1197.31,-75.66 1203.64,-84.16 1207.56,-78.36"/>
</g>
<!-- Node7&#45;&gt;Node8 -->
<g id="edge15" class="edge">
<title>Node7&#45;&gt;Node8</title>
<path fill="none" stroke="midnightblue" d="M1118.7,-459.44C1090.65,-450.32 1046.06,-435.81 1014.82,-425.65"/>
<polygon fill="midnightblue" stroke="midnightblue" points="1015.77,-422.28 1005.18,-422.52 1013.61,-428.94 1015.77,-422.28"/>
</g>
<!-- Node7&#45;&gt;Node14 -->
<g id="edge52" class="edge">
<title>Node7&#45;&gt;Node14</title>
<path fill="none" stroke="midnightblue" d="M1144.38,-459.38C1141.6,-420.78 1130.28,-263.45 1126.35,-208.81"/>
<polygon fill="midnightblue" stroke="midnightblue" points="1129.82,-208.25 1125.61,-198.52 1122.84,-208.75 1129.82,-208.25"/>
</g>
<!-- Node8&#45;&gt;Node2 -->
<g id="edge16" class="edge">
<title>Node8&#45;&gt;Node2</title>
<path fill="none" stroke="midnightblue" d="M973.3,-403.29C962.03,-385.2 938,-341.95 938,-302 938,-302 938,-302 938,-244 938,-182.02 1024.36,-158.16 983,-112 960.64,-87.04 751.32,-74.49 641.13,-69.57"/>
<polygon fill="midnightblue" stroke="midnightblue" points="641.25,-66.08 631.11,-69.13 640.95,-73.07 641.25,-66.08"/>
</g>
<!-- Node8&#45;&gt;Node3 -->
<g id="edge17" class="edge">
<title>Node8&#45;&gt;Node3</title>
<path fill="none" stroke="midnightblue" d="M947.48,-411.11C821.66,-407.03 356.38,-387.01 234,-311 162.4,-266.53 161.36,-225.88 146,-143 142.43,-123.76 141.99,-101.32 142.25,-85.84"/>
<polygon fill="midnightblue" stroke="midnightblue" points="145.76,-85.62 142.55,-75.52 138.76,-85.42 145.76,-85.62"/>
</g>
<!-- Node8&#45;&gt;Node4 -->
<g id="edge18" class="edge">
<title>Node8&#45;&gt;Node4</title>
<path fill="none" stroke="midnightblue" d="M1010.71,-403.98C1033.13,-397.07 1062.83,-385.27 1084,-367 1198.94,-267.78 1221.66,-222.11 1263,-76 1265.42,-67.45 1268.16,-63.24 1263,-56 1246.97,-33.49 1218.87,-22.13 1192.89,-16.45"/>
<polygon fill="midnightblue" stroke="midnightblue" points="1193.55,-13.01 1183.06,-14.54 1192.21,-19.88 1193.55,-13.01"/>
</g>
<!-- Node8&#45;&gt;Node5 -->
<g id="edge19" class="edge">
<title>Node8&#45;&gt;Node5</title>
<path fill="none" stroke="midnightblue" d="M947.26,-410.38C840.1,-404.87 481.86,-386.13 186,-367 159.54,-365.29 129.93,-363.15 106.28,-361.38"/>
<polygon fill="midnightblue" stroke="midnightblue" points="106.43,-357.89 96.2,-360.63 105.91,-364.87 106.43,-357.89"/>
</g>
<!-- Node8&#45;&gt;Node6 -->
<g id="edge20" class="edge">
<title>Node8&#45;&gt;Node6</title>
<path fill="none" stroke="midnightblue" d="M981.04,-403.13C989.19,-369.44 1022.48,-247.94 1093,-179 1120.3,-152.31 1147.97,-173.45 1171,-143 1183.44,-126.55 1185.24,-102.3 1184.71,-85.65"/>
<polygon fill="midnightblue" stroke="midnightblue" points="1188.19,-85.27 1184.07,-75.51 1181.21,-85.71 1188.19,-85.27"/>
</g>
<!-- Node9 -->
<g id="node9" class="node">
<title>Node9</title>
<g id="a_node9"><a xlink:href="../../da/dac/angle_8h.html" target="_top" xlink:title=" ">
<polygon fill="none" stroke="black" points="509.5,-347.5 509.5,-366.5 562.5,-366.5 562.5,-347.5 509.5,-347.5"/>
<text text-anchor="middle" x="536" y="-354.5" font-family="Helvetica,sans-Serif" font-size="10.00">angle.h</text>
</a>
</g>
</g>
<!-- Node8&#45;&gt;Node9 -->
<g id="edge21" class="edge">
<title>Node8&#45;&gt;Node9</title>
<path fill="none" stroke="midnightblue" d="M947.5,-408.16C867.7,-398.43 657.95,-372.87 572.76,-362.48"/>
<polygon fill="midnightblue" stroke="midnightblue" points="573.12,-359 562.77,-361.26 572.27,-365.95 573.12,-359"/>
</g>
<!-- Node10 -->
<g id="node10" class="node">
<title>Node10</title>
<g id="a_node10"><a xlink:href="../../dc/d5c/math_functions_8h.html" target="_top" xlink:title=" ">
<polygon fill="none" stroke="black" points="766,-291.5 766,-310.5 882,-310.5 882,-291.5 766,-291.5"/>
<text text-anchor="middle" x="824" y="-298.5" font-family="Helvetica,sans-Serif" font-size="10.00">../../mathFunctions.h</text>
</a>
</g>
</g>
<!-- Node8&#45;&gt;Node10 -->
<g id="edge50" class="edge">
<title>Node8&#45;&gt;Node10</title>
<path fill="none" stroke="midnightblue" d="M966.84,-403.37C940.35,-384.57 877.22,-339.77 844.48,-316.53"/>
<polygon fill="midnightblue" stroke="midnightblue" points="846.29,-313.52 836.11,-310.59 842.24,-319.23 846.29,-313.52"/>
</g>
<!-- Node8&#45;&gt;Node14 -->
<g id="edge51" class="edge">
<title>Node8&#45;&gt;Node14</title>
<path fill="none" stroke="midnightblue" d="M1007.69,-403.5C1026.66,-396.52 1050.75,-384.83 1066,-367 1076.65,-354.55 1107.34,-251.16 1119.72,-208.4"/>
<polygon fill="midnightblue" stroke="midnightblue" points="1123.11,-209.29 1122.51,-198.71 1116.38,-207.35 1123.11,-209.29"/>
</g>
<!-- Node9&#45;&gt;Node2 -->
<g id="edge23" class="edge">
<title>Node9&#45;&gt;Node2</title>
<path fill="none" stroke="midnightblue" d="M536,-347.44C536,-328.94 536,-283.81 536,-246 536,-246 536,-246 536,-188 536,-149.81 553.44,-107.83 564.69,-84.72"/>
<polygon fill="midnightblue" stroke="midnightblue" points="567.96,-86.02 569.34,-75.52 561.71,-82.86 567.96,-86.02"/>
</g>
<!-- Node9&#45;&gt;Node3 -->
<g id="edge22" class="edge">
<title>Node9&#45;&gt;Node3</title>
<path fill="none" stroke="midnightblue" d="M509.15,-354.27C448.45,-349.95 302.82,-337.09 262,-311 180.55,-258.95 153.23,-133.69 145.58,-85.94"/>
<polygon fill="midnightblue" stroke="midnightblue" points="149.01,-85.16 144.07,-75.79 142.08,-86.19 149.01,-85.16"/>
</g>
<!-- Node9&#45;&gt;Node4 -->
<g id="edge24" class="edge">
<title>Node9&#45;&gt;Node4</title>
<path fill="none" stroke="midnightblue" d="M509.29,-353.76C436.15,-346.01 238,-313.62 238,-190 238,-190 238,-190 238,-126.5 238,-42.09 872.23,-17.95 1072.9,-12.42"/>
<polygon fill="midnightblue" stroke="midnightblue" points="1073.06,-15.92 1082.96,-12.15 1072.87,-8.92 1073.06,-15.92"/>
</g>
<!-- Node9&#45;&gt;Node10 -->
<g id="edge25" class="edge">
<title>Node9&#45;&gt;Node10</title>
<path fill="none" stroke="midnightblue" d="M562.58,-351.02C609.21,-342.27 706.67,-324 768.52,-312.4"/>
<polygon fill="midnightblue" stroke="midnightblue" points="769.32,-315.81 778.5,-310.53 768.03,-308.93 769.32,-315.81"/>
</g>
<!-- Node10&#45;&gt;Node2 -->
<g id="edge26" class="edge">
<title>Node10&#45;&gt;Node2</title>
<path fill="none" stroke="midnightblue" d="M792.34,-291.45C748.35,-278.17 668.47,-248.8 618,-199 586.72,-168.13 577.67,-114.47 575.06,-86"/>
<polygon fill="midnightblue" stroke="midnightblue" points="578.54,-85.51 574.31,-75.8 571.55,-86.03 578.54,-85.51"/>
</g>
<!-- Node10&#45;&gt;Node3 -->
<g id="edge28" class="edge">
<title>Node10&#45;&gt;Node3</title>
<path fill="none" stroke="midnightblue" d="M765.7,-295.4C652.74,-284.33 399.16,-248.73 217,-143 190.96,-127.88 168,-101.08 154.8,-83.68"/>
<polygon fill="midnightblue" stroke="midnightblue" points="157.57,-81.53 148.83,-75.55 151.93,-85.68 157.57,-81.53"/>
</g>
<!-- Node10&#45;&gt;Node6 -->
<g id="edge32" class="edge">
<title>Node10&#45;&gt;Node6</title>
<path fill="none" stroke="midnightblue" d="M842.69,-291.35C861.58,-282.52 891.55,-268.26 917,-255 978.41,-223.02 990.28,-208.35 1053,-179 1093.52,-160.04 1114.18,-173.4 1147,-143 1163.69,-127.54 1173.41,-102.73 1178.45,-85.69"/>
<polygon fill="midnightblue" stroke="midnightblue" points="1181.89,-86.36 1181.11,-75.79 1175.13,-84.54 1181.89,-86.36"/>
</g>
<!-- Node11 -->
<g id="node11" class="node">
<title>Node11</title>
<g id="a_node11"><a xlink:title=" ">
<polygon fill="none" stroke="#bfbfbf" points="904.5,-118 904.5,-137 973.5,-137 973.5,-118 904.5,-118"/>
<text text-anchor="middle" x="939" y="-125" font-family="Helvetica,sans-Serif" font-size="10.00">type_traits</text>
</a>
</g>
</g>
<!-- Node10&#45;&gt;Node11 -->
<g id="edge27" class="edge">
<title>Node10&#45;&gt;Node11</title>
<path fill="none" stroke="midnightblue" d="M834.12,-291.4C843.82,-282.82 858.5,-268.95 869,-255 895.94,-219.22 919.33,-171.87 931.03,-146.46"/>
<polygon fill="midnightblue" stroke="midnightblue" points="934.25,-147.84 935.18,-137.29 927.87,-144.95 934.25,-147.84"/>
</g>
<!-- Node12 -->
<g id="node12" class="node">
<title>Node12</title>
<g id="a_node12"><a xlink:href="../../d0/d00/compiler__defs_8h.html" target="_top" xlink:title=" ">
<polygon fill="none" stroke="black" points="1030.5,-112.5 1030.5,-142.5 1137.5,-142.5 1137.5,-112.5 1030.5,-112.5"/>
<text text-anchor="start" x="1038.5" y="-130.5" font-family="Helvetica,sans-Serif" font-size="10.00">../system/compiler</text>
<text text-anchor="middle" x="1084" y="-119.5" font-family="Helvetica,sans-Serif" font-size="10.00">_defs.h</text>
</a>
</g>
</g>
<!-- Node10&#45;&gt;Node12 -->
<g id="edge29" class="edge">
<title>Node10&#45;&gt;Node12</title>
<path fill="none" stroke="midnightblue" d="M836.48,-291.33C865.48,-271.24 939.77,-220.06 1003,-179 1019,-168.61 1036.99,-157.35 1051.94,-148.11"/>
<polygon fill="midnightblue" stroke="midnightblue" points="1054.14,-150.87 1060.81,-142.64 1050.46,-144.91 1054.14,-150.87"/>
</g>
<!-- Node13 -->
<g id="node13" class="node">
<title>Node13</title>
<g id="a_node13"><a xlink:href="../../dc/d9b/math_functions__impl_8h.html" target="_top" xlink:title=" ">
<polygon fill="none" stroke="black" points="734.5,-235.5 734.5,-254.5 859.5,-254.5 859.5,-235.5 734.5,-235.5"/>
<text text-anchor="middle" x="797" y="-242.5" font-family="Helvetica,sans-Serif" font-size="10.00">mathFunctions_impl.h</text>
</a>
</g>
</g>
<!-- Node10&#45;&gt;Node13 -->
<g id="edge33" class="edge">
<title>Node10&#45;&gt;Node13</title>
<path fill="none" stroke="midnightblue" d="M819.54,-291.08C815.85,-283.69 810.48,-272.95 805.91,-263.81"/>
<polygon fill="midnightblue" stroke="midnightblue" points="808.98,-262.13 801.38,-254.75 802.72,-265.26 808.98,-262.13"/>
</g>
<!-- Node12&#45;&gt;Node4 -->
<g id="edge30" class="edge">
<title>Node12&#45;&gt;Node4</title>
<path fill="none" stroke="midnightblue" d="M1086.73,-112.29C1089.83,-97.74 1095.56,-74.67 1104,-56 1108.45,-46.15 1114.84,-35.97 1120.49,-27.79"/>
<polygon fill="midnightblue" stroke="midnightblue" points="1123.43,-29.69 1126.41,-19.52 1117.74,-25.61 1123.43,-29.69"/>
</g>
<!-- Node12&#45;&gt;Node6 -->
<g id="edge31" class="edge">
<title>Node12&#45;&gt;Node6</title>
<path fill="none" stroke="midnightblue" d="M1107.46,-112.4C1123.33,-102.86 1144.19,-90.32 1159.97,-80.84"/>
<polygon fill="midnightblue" stroke="midnightblue" points="1161.83,-83.81 1168.59,-75.66 1158.22,-77.81 1161.83,-83.81"/>
</g>
<!-- Node13&#45;&gt;Node2 -->
<g id="edge34" class="edge">
<title>Node13&#45;&gt;Node2</title>
<path fill="none" stroke="midnightblue" d="M734.35,-238.47C702.5,-232.85 664.93,-221.57 638,-199 619.41,-183.42 593.06,-117.95 580.78,-85.46"/>
<polygon fill="midnightblue" stroke="midnightblue" points="583.96,-83.97 577.19,-75.82 577.4,-86.41 583.96,-83.97"/>
</g>
<!-- Node13&#45;&gt;Node14 -->
<g id="edge35" class="edge">
<title>Node13&#45;&gt;Node14</title>
<path fill="none" stroke="midnightblue" d="M848.97,-235.44C916.82,-224.27 1033.68,-205.03 1091.12,-195.58"/>
<polygon fill="midnightblue" stroke="midnightblue" points="1091.83,-199.01 1101.13,-193.93 1090.7,-192.1 1091.83,-199.01"/>
</g>
<!-- Node15 -->
<g id="node15" class="node">
<title>Node15</title>
<g id="a_node15"><a xlink:title=" ">
<polygon fill="none" stroke="#bfbfbf" points="647,-179.5 647,-198.5 711,-198.5 711,-179.5 647,-179.5"/>
<text text-anchor="middle" x="679" y="-186.5" font-family="Helvetica,sans-Serif" font-size="10.00">algorithm</text>
</a>
</g>
</g>
<!-- Node13&#45;&gt;Node15 -->
<g id="edge36" class="edge">
<title>Node13&#45;&gt;Node15</title>
<path fill="none" stroke="midnightblue" d="M778.3,-235.44C759.06,-226.64 728.85,-212.81 706.8,-202.72"/>
<polygon fill="midnightblue" stroke="midnightblue" points="708.16,-199.5 697.61,-198.52 705.25,-205.86 708.16,-199.5"/>
</g>
<!-- Node16 -->
<g id="node16" class="node">
<title>Node16</title>
<g id="a_node16"><a xlink:href="../../d5/dbb/limes__assert_8h.html" target="_top" xlink:title=" ">
<polygon fill="none" stroke="black" points="729,-179.5 729,-198.5 865,-198.5 865,-179.5 729,-179.5"/>
<text text-anchor="middle" x="797" y="-186.5" font-family="Helvetica,sans-Serif" font-size="10.00">../system/limes_assert.h</text>
</a>
</g>
</g>
<!-- Node13&#45;&gt;Node16 -->
<g id="edge37" class="edge">
<title>Node13&#45;&gt;Node16</title>
<path fill="none" stroke="midnightblue" d="M797,-235.08C797,-228.01 797,-217.86 797,-208.99"/>
<polygon fill="midnightblue" stroke="midnightblue" points="800.5,-208.75 797,-198.75 793.5,-208.75 800.5,-208.75"/>
</g>
<!-- Node16&#45;&gt;Node2 -->
<g id="edge39" class="edge">
<title>Node16&#45;&gt;Node2</title>
<path fill="none" stroke="midnightblue" d="M763.63,-179.45C737.25,-171.92 699.99,-159.58 670,-143 653.68,-133.98 614.64,-101.62 591.68,-82.16"/>
<polygon fill="midnightblue" stroke="midnightblue" points="593.91,-79.45 584.03,-75.64 589.37,-84.78 593.91,-79.45"/>
</g>
<!-- Node16&#45;&gt;Node3 -->
<g id="edge38" class="edge">
<title>Node16&#45;&gt;Node3</title>
<path fill="none" stroke="midnightblue" d="M728.99,-179.93C725.95,-179.61 722.95,-179.3 720,-179 531.39,-159.99 477.49,-194.31 295,-143 245.75,-129.15 193.48,-99.2 164.88,-81.31"/>
<polygon fill="midnightblue" stroke="midnightblue" points="166.44,-78.15 156.13,-75.74 162.69,-84.06 166.44,-78.15"/>
</g>
<!-- Node16&#45;&gt;Node4 -->
<g id="edge47" class="edge">
<title>Node16&#45;&gt;Node4</title>
<path fill="none" stroke="midnightblue" d="M801.03,-179.4C808.76,-163.8 827.14,-130.69 852,-112 918.82,-61.76 1012.97,-34.73 1073.5,-21.62"/>
<polygon fill="midnightblue" stroke="midnightblue" points="1074.22,-25.04 1083.28,-19.55 1072.78,-18.19 1074.22,-25.04"/>
</g>
<!-- Node16&#45;&gt;Node6 -->
<g id="edge40" class="edge">
<title>Node16&#45;&gt;Node6</title>
<path fill="none" stroke="midnightblue" d="M807.71,-179.29C831.22,-160.25 886.04,-116.27 896,-112 961.95,-83.72 1043.23,-72.97 1102.44,-69.01"/>
<polygon fill="midnightblue" stroke="midnightblue" points="1102.73,-72.5 1112.49,-68.39 1102.29,-65.51 1102.73,-72.5"/>
</g>
<!-- Node16&#45;&gt;Node11 -->
<g id="edge41" class="edge">
<title>Node16&#45;&gt;Node11</title>
<path fill="none" stroke="midnightblue" d="M817.35,-179.48C841.39,-169.4 881.6,-152.55 909.16,-141"/>
<polygon fill="midnightblue" stroke="midnightblue" points="910.82,-144.1 918.69,-137.01 908.12,-137.65 910.82,-144.1"/>
</g>
<!-- Node16&#45;&gt;Node12 -->
<g id="edge49" class="edge">
<title>Node16&#45;&gt;Node12</title>
<path fill="none" stroke="midnightblue" d="M838.12,-179.48C885.76,-169.6 964.82,-153.21 1020.4,-141.69"/>
<polygon fill="midnightblue" stroke="midnightblue" points="1021.41,-145.05 1030.49,-139.59 1019.99,-138.2 1021.41,-145.05"/>
</g>
<!-- Node17 -->
<g id="node17" class="node">
<title>Node17</title>
<g id="a_node17"><a xlink:title=" ">
<polygon fill="none" stroke="#bfbfbf" points="678.5,-118 678.5,-137 723.5,-137 723.5,-118 678.5,-118"/>
<text text-anchor="middle" x="701" y="-125" font-family="Helvetica,sans-Serif" font-size="10.00">utility</text>
</a>
</g>
</g>
<!-- Node16&#45;&gt;Node17 -->
<g id="edge42" class="edge">
<title>Node16&#45;&gt;Node17</title>
<path fill="none" stroke="midnightblue" d="M783.25,-179.48C767.63,-169.8 741.94,-153.87 723.42,-142.39"/>
<polygon fill="midnightblue" stroke="midnightblue" points="725.07,-139.3 714.73,-137.01 721.38,-145.25 725.07,-139.3"/>
</g>
<!-- Node18 -->
<g id="node18" class="node">
<title>Node18</title>
<g id="a_node18"><a xlink:href="../../d1/d57/_ignore_unused_8h.html" target="_top" xlink:title=" ">
<polygon fill="none" stroke="black" points="304,-118 304,-137 432,-137 432,-118 304,-118"/>
<text text-anchor="middle" x="368" y="-125" font-family="Helvetica,sans-Serif" font-size="10.00">../misc/IgnoreUnused.h</text>
</a>
</g>
</g>
<!-- Node16&#45;&gt;Node18 -->
<g id="edge43" class="edge">
<title>Node16&#45;&gt;Node18</title>
<path fill="none" stroke="midnightblue" d="M735.53,-179.48C657.25,-168.62 522.21,-149.89 439.43,-138.41"/>
<polygon fill="midnightblue" stroke="midnightblue" points="439.74,-134.92 429.35,-137.01 438.78,-141.85 439.74,-134.92"/>
</g>
<!-- Node19 -->
<g id="node19" class="node">
<title>Node19</title>
<g id="a_node19"><a xlink:title=" ">
<polygon fill="none" stroke="#bfbfbf" points="742,-118 742,-137 810,-137 810,-118 742,-118"/>
<text text-anchor="middle" x="776" y="-125" font-family="Helvetica,sans-Serif" font-size="10.00">filesystem</text>
</a>
</g>
</g>
<!-- Node16&#45;&gt;Node19 -->
<g id="edge48" class="edge">
<title>Node16&#45;&gt;Node19</title>
<path fill="none" stroke="midnightblue" d="M793.99,-179.48C790.97,-170.9 786.21,-157.43 782.35,-146.48"/>
<polygon fill="midnightblue" stroke="midnightblue" points="785.63,-145.27 779,-137.01 779.03,-147.6 785.63,-145.27"/>
</g>
<!-- Node18&#45;&gt;Node2 -->
<g id="edge45" class="edge">
<title>Node18&#45;&gt;Node2</title>
<path fill="none" stroke="midnightblue" d="M397.51,-117.98C433.62,-107.55 494.85,-89.86 534.85,-78.31"/>
<polygon fill="midnightblue" stroke="midnightblue" points="535.9,-81.65 544.54,-75.51 533.96,-74.92 535.9,-81.65"/>
</g>
<!-- Node18&#45;&gt;Node3 -->
<g id="edge44" class="edge">
<title>Node18&#45;&gt;Node3</title>
<path fill="none" stroke="midnightblue" d="M335.76,-117.98C296.08,-107.48 228.6,-89.64 184.93,-78.09"/>
<polygon fill="midnightblue" stroke="midnightblue" points="185.74,-74.68 175.18,-75.51 183.95,-81.45 185.74,-74.68"/>
</g>
<!-- Node18&#45;&gt;Node4 -->
<g id="edge46" class="edge">
<title>Node18&#45;&gt;Node4</title>
<path fill="none" stroke="midnightblue" d="M380.8,-117.85C404.62,-102.26 457.89,-69.82 508,-56 613.15,-26.99 937.05,-15.82 1072.49,-12.34"/>
<polygon fill="midnightblue" stroke="midnightblue" points="1072.77,-15.83 1082.68,-12.08 1072.6,-8.83 1072.77,-15.83"/>
</g>
</g>
</svg>
        <g id="navigator" transform="translate(0 0)" fill="#404254">
                <rect fill="#f2f5e9" fill-opacity="0.5" stroke="#606060" stroke-width=".5" x="0" y="0" width="60" height="60"/>
                <use id="zoomplus" xlink:href="#zoomPlus" x="17" y="9" onmousedown="handleZoom(evt,'in')"/>
                <use id="zoomminus" xlink:href="#zoomMin" x="42" y="9" onmousedown="handleZoom(evt,'out')"/>
                <use id="reset" xlink:href="#resetDef" x="30" y="36" onmousedown="handleReset()"/>
                <g id="arrowUp" xlink:href="#dirArrow" transform="translate(30 24)" onmousedown="handlePan(0,-1)">
                  <use xlink:href="#rim" fill="#404040">
                        <set attributeName="fill" to="#808080" begin="arrowUp.mouseover" end="arrowUp.mouseout"/>
                  </use>
                  <path fill="none" stroke="white" stroke-width="1.5" d="M0,-3.0v7 M-2.5,-0.5L0,-3.0L2.5,-0.5"/>
                </g>
                <g id="arrowRight" xlink:href="#dirArrow" transform="rotate(90) translate(36 -43)" onmousedown="handlePan(1,0)">
                  <use xlink:href="#rim" fill="#404040">
                        <set attributeName="fill" to="#808080" begin="arrowRight.mouseover" end="arrowRight.mouseout"/>
                  </use>
                  <path fill="none" stroke="white" stroke-width="1.5" d="M0,-3.0v7 M-2.5,-0.5L0,-3.0L2.5,-0.5"/>
                </g>
                <g id="arrowDown" xlink:href="#dirArrow" transform="rotate(180) translate(-30 -48)" onmousedown="handlePan(0,1)">
                  <use xlink:href="#rim" fill="#404040">
                        <set attributeName="fill" to="#808080" begin="arrowDown.mouseover" end="arrowDown.mouseout"/>
                  </use>
                  <path fill="none" stroke="white" stroke-width="1.5" d="M0,-3.0v7 M-2.5,-0.5L0,-3.0L2.5,-0.5"/>
                </g>
                <g id="arrowLeft" xlink:href="#dirArrow" transform="rotate(270) translate(-36 17)" onmousedown="handlePan(-1,0)">
                  <use xlink:href="#rim" fill="#404040">
                        <set attributeName="fill" to="#808080" begin="arrowLeft.mouseover" end="arrowLeft.mouseout"/>
                  </use>
                  <path fill="none" stroke="white" stroke-width="1.5" d="M0,-3.0v7 M-2.5,-0.5L0,-3.0L2.5,-0.5"/>
                </g>
        </g>
        <svg viewBox="0 0 15 15" width="100%" height="30px" preserveAspectRatio="xMaxYMin meet">
         <g id="arrow_out" transform="scale(0.3 0.3)">
          <a xlink:href="square_8h__incl_org.svg" target="_base">
           <rect id="button" ry="5" rx="5" y="6" x="6" height="38" width="38"
                fill="#f2f5e9" fill-opacity="0.5" stroke="#606060" stroke-width="1.0"/>
           <path id="arrow"
             d="M 11.500037,31.436501 C 11.940474,20.09759 22.043105,11.32322 32.158766,21.979434 L 37.068811,17.246167 C 37.068811,17.246167 37.088388,32 37.088388,32 L 22.160133,31.978069 C 22.160133,31.978069 26.997745,27.140456 26.997745,27.140456 C 18.528582,18.264221 13.291696,25.230495 11.500037,31.436501 z"
             style="fill:#404040;"/>
          </a>
         </g>
        </svg>
</svg>
