<?xml version="1.0" encoding="UTF-8" standalone="no"?>
<!DOCTYPE svg PUBLIC "-//W3C//DTD SVG 1.1//EN"
 "http://www.w3.org/Graphics/SVG/1.1/DTD/svg11.dtd">
<!-- Generated by graphviz version 2.43.0 (0)
 -->
<!-- Title: cube.h Pages: 1 -->
<!--zoomable 364 -->
<svg id="main" version="1.1" xmlns="http://www.w3.org/2000/svg" xmlns:xlink="http://www.w3.org/1999/xlink" xml:space="preserve" onload="init(evt)">
<style type="text/css"><![CDATA[
.edge:hover path { stroke: red; }
.edge:hover polygon { stroke: red; fill: red; }
]]></style>
<script type="text/javascript"><![CDATA[
var edges = document.getElementsByTagName('g');
if (edges && edges.length) {
  for (var i=0;i<edges.length;i++) {
    if (edges[i].id.substr(0,4)=='edge') {
      edges[i].setAttribute('class','edge');
    }
  }
}
]]></script>
        <defs>
                <circle id="rim" cx="0" cy="0" r="7"/>
                <circle id="rim2" cx="0" cy="0" r="3.5"/>
                <g id="zoomPlus">
                        <use xlink:href="#rim" fill="#404040">
                                <set attributeName="fill" to="#808080" begin="zoomplus.mouseover" end="zoomplus.mouseout"/>
                        </use>
                        <path d="M-4,0h8M0,-4v8" fill="none" stroke="white" stroke-width="1.5" pointer-events="none"/>
                </g>
                <g id="zoomMin">
                        <use xlink:href="#rim" fill="#404040">
                                <set attributeName="fill" to="#808080" begin="zoomminus.mouseover" end="zoomminus.mouseout"/>
                        </use>
                        <path d="M-4,0h8" fill="none" stroke="white" stroke-width="1.5" pointer-events="none"/>
                </g>
                <g id="dirArrow">
                        <path fill="none" stroke="white" stroke-width="1.5" d="M0,-3.0v7 M-2.5,-0.5L0,-3.0L2.5,-0.5"/>
                </g>
               <g id="resetDef">
                       <use xlink:href="#rim2" fill="#404040">
                               <set attributeName="fill" to="#808080" begin="reset.mouseover" end="reset.mouseout"/>
                       </use>
               </g>
        </defs>

<script type="text/javascript">
var viewWidth = 1027;
var viewHeight = 364;
var sectionId = 'dynsection-0';
</script>
<script xlink:href="../../svgpan.js"/>
<svg id="graph" class="graph">
<g id="viewport">
<title>cube.h</title>
<!-- Node1 -->
<g id="node1" class="node">
<title>Node1</title>
<g id="a_node1"><a xlink:title=" ">
<polygon fill="#bfbfbf" stroke="black" points="614.5,-336.5 614.5,-355.5 663.5,-355.5 663.5,-336.5 614.5,-336.5"/>
<text text-anchor="middle" x="639" y="-343.5" font-family="Helvetica,sans-Serif" font-size="10.00">cube.h</text>
</a>
</g>
</g>
<!-- Node2 -->
<g id="node2" class="node">
<title>Node2</title>
<g id="a_node2"><a xlink:href="../../da/d0b/limes__namespace_8h.html" target="_top" xlink:title=" ">
<polygon fill="none" stroke="black" points="445,-0.5 445,-19.5 559,-19.5 559,-0.5 445,-0.5"/>
<text text-anchor="middle" x="502" y="-7.5" font-family="Helvetica,sans-Serif" font-size="10.00">limes_namespace.h</text>
</a>
</g>
</g>
<!-- Node1&#45;&gt;Node2 -->
<g id="edge1" class="edge">
<title>Node1&#45;&gt;Node2</title>
<path fill="none" stroke="midnightblue" d="M614.39,-341.54C527.68,-327.78 238,-268.01 171,-76 168.07,-67.61 165.15,-62.7 171,-56 204.53,-17.61 348.09,-10.72 434.75,-10.18"/>
<polygon fill="midnightblue" stroke="midnightblue" points="434.78,-13.68 444.77,-10.14 434.76,-6.68 434.78,-13.68"/>
</g>
<!-- Node3 -->
<g id="node3" class="node">
<title>Node3</title>
<g id="a_node3"><a xlink:title=" ">
<polygon fill="none" stroke="#bfbfbf" points="843.5,-0.5 843.5,-19.5 932.5,-19.5 932.5,-0.5 843.5,-0.5"/>
<text text-anchor="middle" x="888" y="-7.5" font-family="Helvetica,sans-Serif" font-size="10.00">limes_export.h</text>
</a>
</g>
</g>
<!-- Node1&#45;&gt;Node3 -->
<g id="edge2" class="edge">
<title>Node1&#45;&gt;Node3</title>
<path fill="none" stroke="midnightblue" d="M663.52,-345.12C715.09,-344.55 837.72,-338.84 931,-300 975.89,-281.31 1019,-283.62 1019,-235 1019,-235 1019,-235 1019,-121 1019,-71.04 962.42,-39.23 923.63,-23.3"/>
<polygon fill="midnightblue" stroke="midnightblue" points="924.78,-20 914.19,-19.59 922.22,-26.51 924.78,-20"/>
</g>
<!-- Node4 -->
<g id="node4" class="node">
<title>Node4</title>
<g id="a_node4"><a xlink:title=" ">
<polygon fill="none" stroke="#bfbfbf" points="151,-0.5 151,-19.5 251,-19.5 251,-0.5 151,-0.5"/>
<text text-anchor="middle" x="201" y="-7.5" font-family="Helvetica,sans-Serif" font-size="10.00">limes_platform.h</text>
</a>
</g>
</g>
<!-- Node1&#45;&gt;Node4 -->
<g id="edge3" class="edge">
<title>Node1&#45;&gt;Node4</title>
<path fill="none" stroke="midnightblue" d="M614.23,-344.44C507.59,-341.86 90.74,-329.92 41,-300 11.73,-282.39 0,-269.16 0,-235 0,-235 0,-235 0,-121 0,-56.13 81.55,-29.27 140.77,-18.32"/>
<polygon fill="midnightblue" stroke="midnightblue" points="141.55,-21.74 150.8,-16.57 140.35,-14.84 141.55,-21.74"/>
</g>
<!-- Node5 -->
<g id="node5" class="node">
<title>Node5</title>
<g id="a_node5"><a xlink:href="../../d3/d53/preprocessor_8h.html" target="_top" xlink:title=" ">
<polygon fill="none" stroke="black" points="180.5,-56.5 180.5,-75.5 321.5,-75.5 321.5,-56.5 180.5,-56.5"/>
<text text-anchor="middle" x="251" y="-63.5" font-family="Helvetica,sans-Serif" font-size="10.00">../../../misc/preprocessor.h</text>
</a>
</g>
</g>
<!-- Node1&#45;&gt;Node5 -->
<g id="edge4" class="edge">
<title>Node1&#45;&gt;Node5</title>
<path fill="none" stroke="midnightblue" d="M614.23,-344.62C509.54,-342.82 106.58,-333.71 62,-300 37.44,-281.43 38,-265.8 38,-235 38,-235 38,-235 38,-177 38,-115 110.11,-87.91 170.42,-76.1"/>
<polygon fill="midnightblue" stroke="midnightblue" points="171.17,-79.52 180.37,-74.26 169.9,-72.63 171.17,-79.52"/>
</g>
<!-- Node6 -->
<g id="node6" class="node">
<title>Node6</title>
<g id="a_node6"><a xlink:href="../../d7/d3c/square_8h.html" target="_top" xlink:title=" ">
<polygon fill="none" stroke="black" points="542,-224.5 542,-243.5 626,-243.5 626,-224.5 542,-224.5"/>
<text text-anchor="middle" x="584" y="-231.5" font-family="Helvetica,sans-Serif" font-size="10.00">../2D/square.h</text>
</a>
</g>
</g>
<!-- Node1&#45;&gt;Node6 -->
<g id="edge6" class="edge">
<title>Node1&#45;&gt;Node6</title>
<path fill="none" stroke="midnightblue" d="M634.68,-336.37C625.69,-318.38 604.78,-276.55 592.81,-252.63"/>
<polygon fill="midnightblue" stroke="midnightblue" points="595.9,-250.97 588.3,-243.59 589.64,-254.1 595.9,-250.97"/>
</g>
<!-- Node15 -->
<g id="node10" class="node">
<title>Node15</title>
<g id="a_node10"><a xlink:title=" ">
<polygon fill="none" stroke="#bfbfbf" points="692.5,-56.5 692.5,-75.5 739.5,-75.5 739.5,-56.5 692.5,-56.5"/>
<text text-anchor="middle" x="716" y="-63.5" font-family="Helvetica,sans-Serif" font-size="10.00">cmath</text>
</a>
</g>
</g>
<!-- Node1&#45;&gt;Node15 -->
<g id="edge41" class="edge">
<title>Node1&#45;&gt;Node15</title>
<path fill="none" stroke="midnightblue" d="M663.58,-341.67C704.02,-335.62 781.78,-321.45 798,-300 850.89,-230.07 766.99,-123.22 731.07,-83.03"/>
<polygon fill="midnightblue" stroke="midnightblue" points="733.52,-80.53 724.19,-75.5 728.35,-85.25 733.52,-80.53"/>
</g>
<!-- Node21 -->
<g id="node11" class="node">
<title>Node21</title>
<g id="a_node11"><a xlink:href="../../db/dba/rectangular__prism_8h.html" target="_top" xlink:title=" ">
<polygon fill="none" stroke="black" points="675,-280.5 675,-299.5 789,-299.5 789,-280.5 675,-280.5"/>
<text text-anchor="middle" x="732" y="-287.5" font-family="Helvetica,sans-Serif" font-size="10.00">rectangular_prism.h</text>
</a>
</g>
</g>
<!-- Node1&#45;&gt;Node21 -->
<g id="edge30" class="edge">
<title>Node1&#45;&gt;Node21</title>
<path fill="none" stroke="midnightblue" d="M653.94,-336.32C668.59,-327.82 691.13,-314.73 708.24,-304.8"/>
<polygon fill="midnightblue" stroke="midnightblue" points="710.2,-307.7 717.1,-299.65 706.69,-301.65 710.2,-307.7"/>
</g>
<!-- Node22 -->
<g id="node12" class="node">
<title>Node22</title>
<g id="a_node12"><a xlink:href="../../d7/d88/3_dshape_8h.html" target="_top" xlink:title=" ">
<polygon fill="none" stroke="black" points="923,-168.5 923,-187.5 991,-187.5 991,-168.5 923,-168.5"/>
<text text-anchor="middle" x="957" y="-175.5" font-family="Helvetica,sans-Serif" font-size="10.00">3Dshape.h</text>
</a>
</g>
</g>
<!-- Node1&#45;&gt;Node22 -->
<g id="edge40" class="edge">
<title>Node1&#45;&gt;Node22</title>
<path fill="none" stroke="midnightblue" d="M663.66,-343.93C722.96,-340.89 871.38,-330.37 909,-300 940.7,-274.41 951.55,-224.87 955.2,-197.79"/>
<polygon fill="midnightblue" stroke="midnightblue" points="958.7,-198.03 956.37,-187.7 951.75,-197.23 958.7,-198.03"/>
</g>
<!-- Node5&#45;&gt;Node4 -->
<g id="edge5" class="edge">
<title>Node5&#45;&gt;Node4</title>
<path fill="none" stroke="midnightblue" d="M242.74,-56.08C235.54,-48.3 224.89,-36.8 216.15,-27.37"/>
<polygon fill="midnightblue" stroke="midnightblue" points="218.47,-24.71 209.1,-19.75 213.33,-29.47 218.47,-24.71"/>
</g>
<!-- Node6&#45;&gt;Node2 -->
<g id="edge7" class="edge">
<title>Node6&#45;&gt;Node2</title>
<path fill="none" stroke="midnightblue" d="M541.89,-231.38C509.83,-227.73 467.36,-217.21 444,-188 407.21,-141.99 425.43,-106.36 456,-56 462.84,-44.74 473.13,-34.31 482.25,-26.33"/>
<polygon fill="midnightblue" stroke="midnightblue" points="484.72,-28.82 490.16,-19.73 480.24,-23.45 484.72,-28.82"/>
</g>
<!-- Node6&#45;&gt;Node3 -->
<g id="edge8" class="edge">
<title>Node6&#45;&gt;Node3</title>
<path fill="none" stroke="midnightblue" d="M599.87,-224.43C639.85,-202.49 747.16,-141.37 826,-76 844.09,-61 862.37,-41.13 874.35,-27.33"/>
<polygon fill="midnightblue" stroke="midnightblue" points="877.1,-29.49 880.93,-19.61 871.78,-24.95 877.1,-29.49"/>
</g>
<!-- Node6&#45;&gt;Node4 -->
<g id="edge9" class="edge">
<title>Node6&#45;&gt;Node4</title>
<path fill="none" stroke="midnightblue" d="M541.86,-232.82C485.99,-231.12 385.46,-222.91 308,-188 236.3,-155.68 204.69,-147.06 171,-76 163.23,-59.6 174.08,-40.76 184.84,-27.6"/>
<polygon fill="midnightblue" stroke="midnightblue" points="187.69,-29.66 191.7,-19.86 182.45,-25.02 187.69,-29.66"/>
</g>
<!-- Node6&#45;&gt;Node5 -->
<g id="edge13" class="edge">
<title>Node6&#45;&gt;Node5</title>
<path fill="none" stroke="midnightblue" d="M541.97,-229.25C480.44,-223.11 369.5,-209.42 336,-188 296.67,-162.85 270.32,-112.37 258.36,-85.24"/>
<polygon fill="midnightblue" stroke="midnightblue" points="261.48,-83.63 254.36,-75.78 255.03,-86.36 261.48,-83.63"/>
</g>
<!-- Node7 -->
<g id="node7" class="node">
<title>Node7</title>
<g id="a_node7"><a xlink:href="../../d8/d23/2_dshape_8h.html" target="_top" xlink:title=" ">
<polygon fill="none" stroke="black" points="568,-56.5 568,-75.5 636,-75.5 636,-56.5 568,-56.5"/>
<text text-anchor="middle" x="602" y="-63.5" font-family="Helvetica,sans-Serif" font-size="10.00">2Dshape.h</text>
</a>
</g>
</g>
<!-- Node6&#45;&gt;Node7 -->
<g id="edge10" class="edge">
<title>Node6&#45;&gt;Node7</title>
<path fill="none" stroke="midnightblue" d="M584.97,-224.08C587.8,-197.95 596.12,-121.21 599.99,-85.58"/>
<polygon fill="midnightblue" stroke="midnightblue" points="603.47,-85.89 601.07,-75.57 596.51,-85.13 603.47,-85.89"/>
</g>
<!-- Node8 -->
<g id="node8" class="node">
<title>Node8</title>
<g id="a_node8"><a xlink:href="../../db/dd0/rectangle_8h.html" target="_top" xlink:title=" ">
<polygon fill="none" stroke="black" points="453.5,-168.5 453.5,-187.5 524.5,-187.5 524.5,-168.5 453.5,-168.5"/>
<text text-anchor="middle" x="489" y="-175.5" font-family="Helvetica,sans-Serif" font-size="10.00">rectangle.h</text>
</a>
</g>
</g>
<!-- Node6&#45;&gt;Node8 -->
<g id="edge14" class="edge">
<title>Node6&#45;&gt;Node8</title>
<path fill="none" stroke="midnightblue" d="M568.74,-224.32C553.78,-215.82 530.75,-202.73 513.27,-192.8"/>
<polygon fill="midnightblue" stroke="midnightblue" points="514.65,-189.55 504.23,-187.65 511.19,-195.64 514.65,-189.55"/>
</g>
<!-- Node9 -->
<g id="node9" class="node">
<title>Node9</title>
<g id="a_node9"><a xlink:href="../../dd/d6a/triangle_8h.html" target="_top" xlink:title=" ">
<polygon fill="none" stroke="red" points="454.5,-112.5 454.5,-131.5 517.5,-131.5 517.5,-112.5 454.5,-112.5"/>
<text text-anchor="middle" x="486" y="-119.5" font-family="Helvetica,sans-Serif" font-size="10.00">triangle.h</text>
</a>
</g>
</g>
<!-- Node6&#45;&gt;Node9 -->
<g id="edge28" class="edge">
<title>Node6&#45;&gt;Node9</title>
<path fill="none" stroke="midnightblue" d="M577.77,-224.27C568.51,-211.49 550.34,-187.13 533,-168 523.61,-157.64 512.32,-146.78 503.15,-138.33"/>
<polygon fill="midnightblue" stroke="midnightblue" points="505.5,-135.73 495.75,-131.59 500.79,-140.91 505.5,-135.73"/>
</g>
<!-- Node6&#45;&gt;Node15 -->
<g id="edge29" class="edge">
<title>Node6&#45;&gt;Node15</title>
<path fill="none" stroke="midnightblue" d="M591.1,-224.08C612.23,-197.49 675.02,-118.54 702.67,-83.76"/>
<polygon fill="midnightblue" stroke="midnightblue" points="705.7,-85.57 709.19,-75.57 700.22,-81.22 705.7,-85.57"/>
</g>
<!-- Node7&#45;&gt;Node2 -->
<g id="edge11" class="edge">
<title>Node7&#45;&gt;Node2</title>
<path fill="none" stroke="midnightblue" d="M585.93,-56.32C570.04,-47.74 545.49,-34.49 527.04,-24.52"/>
<polygon fill="midnightblue" stroke="midnightblue" points="528.49,-21.33 518.03,-19.65 525.16,-27.49 528.49,-21.33"/>
</g>
<!-- Node7&#45;&gt;Node3 -->
<g id="edge12" class="edge">
<title>Node7&#45;&gt;Node3</title>
<path fill="none" stroke="midnightblue" d="M636.21,-58.54C685.03,-49.32 775.18,-32.3 833.31,-21.33"/>
<polygon fill="midnightblue" stroke="midnightblue" points="834.25,-24.71 843.42,-19.42 832.95,-17.83 834.25,-24.71"/>
</g>
<!-- Node8&#45;&gt;Node2 -->
<g id="edge15" class="edge">
<title>Node8&#45;&gt;Node2</title>
<path fill="none" stroke="midnightblue" d="M476.22,-168.37C465.61,-160.36 451.27,-147.38 445,-132 441.64,-123.77 442.74,-120.6 445,-112 453.49,-79.7 474.9,-46.86 488.93,-27.73"/>
<polygon fill="midnightblue" stroke="midnightblue" points="491.91,-29.6 495.14,-19.51 486.32,-25.39 491.91,-29.6"/>
</g>
<!-- Node8&#45;&gt;Node3 -->
<g id="edge16" class="edge">
<title>Node8&#45;&gt;Node3</title>
<path fill="none" stroke="midnightblue" d="M502.52,-168.43C545.1,-141.49 674.15,-60.01 684,-56 732.57,-36.25 791.35,-24.45 833.31,-17.93"/>
<polygon fill="midnightblue" stroke="midnightblue" points="833.96,-21.37 843.33,-16.42 832.92,-14.45 833.96,-21.37"/>
</g>
<!-- Node8&#45;&gt;Node4 -->
<g id="edge17" class="edge">
<title>Node8&#45;&gt;Node4</title>
<path fill="none" stroke="midnightblue" d="M479.7,-168.2C456.29,-146.44 392.33,-89.5 330,-56 302.89,-41.43 270.11,-30.07 244.38,-22.41"/>
<polygon fill="midnightblue" stroke="midnightblue" points="245.12,-18.97 234.54,-19.55 243.17,-25.7 245.12,-18.97"/>
</g>
<!-- Node8&#45;&gt;Node5 -->
<g id="edge19" class="edge">
<title>Node8&#45;&gt;Node5</title>
<path fill="none" stroke="midnightblue" d="M464.88,-168.47C441.38,-159.94 404.8,-146.11 374,-132 338.72,-115.84 299.27,-94.36 274.79,-80.6"/>
<polygon fill="midnightblue" stroke="midnightblue" points="276.3,-77.44 265.87,-75.56 272.86,-83.53 276.3,-77.44"/>
</g>
<!-- Node8&#45;&gt;Node7 -->
<g id="edge18" class="edge">
<title>Node8&#45;&gt;Node7</title>
<path fill="none" stroke="midnightblue" d="M497.87,-168.37C516.85,-149.89 561.64,-106.29 585.83,-82.74"/>
<polygon fill="midnightblue" stroke="midnightblue" points="588.45,-85.07 593.17,-75.59 583.57,-80.06 588.45,-85.07"/>
</g>
<!-- Node8&#45;&gt;Node9 -->
<g id="edge20" class="edge">
<title>Node8&#45;&gt;Node9</title>
<path fill="none" stroke="midnightblue" d="M488.5,-168.08C488.11,-161.01 487.55,-150.86 487.05,-141.99"/>
<polygon fill="midnightblue" stroke="midnightblue" points="490.54,-141.54 486.49,-131.75 483.55,-141.93 490.54,-141.54"/>
</g>
<!-- Node8&#45;&gt;Node15 -->
<g id="edge27" class="edge">
<title>Node8&#45;&gt;Node15</title>
<path fill="none" stroke="midnightblue" d="M511.87,-168.42C534.15,-159.86 568.84,-146 598,-132 631.73,-115.81 669.38,-94.47 692.88,-80.74"/>
<polygon fill="midnightblue" stroke="midnightblue" points="694.89,-83.62 701.74,-75.54 691.35,-77.59 694.89,-83.62"/>
</g>
<!-- Node9&#45;&gt;Node2 -->
<g id="edge21" class="edge">
<title>Node9&#45;&gt;Node2</title>
<path fill="none" stroke="midnightblue" d="M487.26,-112.37C489.84,-94.62 495.79,-53.67 499.29,-29.6"/>
<polygon fill="midnightblue" stroke="midnightblue" points="502.77,-29.99 500.75,-19.59 495.85,-28.98 502.77,-29.99"/>
</g>
<!-- Node9&#45;&gt;Node3 -->
<g id="edge22" class="edge">
<title>Node9&#45;&gt;Node3</title>
<path fill="none" stroke="midnightblue" d="M492.96,-112.04C504.79,-97.54 530.33,-69.21 559,-56 606.54,-34.1 752.19,-20.62 832.83,-14.64"/>
<polygon fill="midnightblue" stroke="midnightblue" points="833.56,-18.1 843.28,-13.88 833.06,-11.12 833.56,-18.1"/>
</g>
<!-- Node9&#45;&gt;Node4 -->
<g id="edge23" class="edge">
<title>Node9&#45;&gt;Node4</title>
<path fill="none" stroke="midnightblue" d="M477.56,-112.35C463.32,-98.29 433.04,-70.59 402,-56 357.4,-35.03 302.56,-23.6 261.44,-17.51"/>
<polygon fill="midnightblue" stroke="midnightblue" points="261.69,-14.01 251.3,-16.08 260.71,-20.94 261.69,-14.01"/>
</g>
<!-- Node9&#45;&gt;Node5 -->
<g id="edge25" class="edge">
<title>Node9&#45;&gt;Node5</title>
<path fill="none" stroke="midnightblue" d="M454.31,-113.72C414.16,-104.49 344.61,-88.51 298.2,-77.85"/>
<polygon fill="midnightblue" stroke="midnightblue" points="298.91,-74.42 288.38,-75.59 297.34,-81.24 298.91,-74.42"/>
</g>
<!-- Node9&#45;&gt;Node7 -->
<g id="edge24" class="edge">
<title>Node9&#45;&gt;Node7</title>
<path fill="none" stroke="midnightblue" d="M504.38,-112.44C523.22,-103.68 552.73,-89.94 574.38,-79.86"/>
<polygon fill="midnightblue" stroke="midnightblue" points="576.12,-82.91 583.71,-75.52 573.16,-76.56 576.12,-82.91"/>
</g>
<!-- Node9&#45;&gt;Node15 -->
<g id="edge26" class="edge">
<title>Node9&#45;&gt;Node15</title>
<path fill="none" stroke="midnightblue" d="M517.98,-113.49C561.29,-103.32 638.24,-85.26 682.38,-74.89"/>
<polygon fill="midnightblue" stroke="midnightblue" points="683.39,-78.25 692.33,-72.56 681.79,-71.44 683.39,-78.25"/>
</g>
<!-- Node21&#45;&gt;Node2 -->
<g id="edge31" class="edge">
<title>Node21&#45;&gt;Node2</title>
<path fill="none" stroke="midnightblue" d="M736.53,-280.08C753.01,-246.23 805.9,-124.2 749,-56 726.5,-29.04 634.47,-18.19 569.35,-13.85"/>
<polygon fill="midnightblue" stroke="midnightblue" points="569.35,-10.34 559.15,-13.21 568.91,-17.33 569.35,-10.34"/>
</g>
<!-- Node21&#45;&gt;Node3 -->
<g id="edge32" class="edge">
<title>Node21&#45;&gt;Node3</title>
<path fill="none" stroke="midnightblue" d="M749.06,-280.4C763.07,-272.59 782.56,-259.86 795,-244 848.68,-175.57 875.2,-72.12 884.27,-29.93"/>
<polygon fill="midnightblue" stroke="midnightblue" points="887.74,-30.44 886.33,-19.94 880.88,-29.02 887.74,-30.44"/>
</g>
<!-- Node21&#45;&gt;Node4 -->
<g id="edge33" class="edge">
<title>Node21&#45;&gt;Node4</title>
<path fill="none" stroke="midnightblue" d="M674.82,-287.7C602.95,-284.75 476.45,-275.14 373,-244 281.33,-216.4 247.24,-207.99 189,-132 167.45,-103.89 153.28,-89.43 165,-56 168.79,-45.21 176.37,-35.08 183.6,-27.18"/>
<polygon fill="midnightblue" stroke="midnightblue" points="186.33,-29.4 190.84,-19.81 181.33,-24.49 186.33,-29.4"/>
</g>
<!-- Node21&#45;&gt;Node5 -->
<g id="edge34" class="edge">
<title>Node21&#45;&gt;Node5</title>
<path fill="none" stroke="midnightblue" d="M674.74,-287.98C588.14,-283.82 421.88,-265.45 308,-188 273.07,-164.24 259,-113.14 253.78,-85.56"/>
<polygon fill="midnightblue" stroke="midnightblue" points="257.22,-84.91 252.1,-75.63 250.32,-86.08 257.22,-84.91"/>
</g>
<!-- Node21&#45;&gt;Node6 -->
<g id="edge35" class="edge">
<title>Node21&#45;&gt;Node6</title>
<path fill="none" stroke="midnightblue" d="M708.55,-280.44C683.87,-271.44 644.81,-257.19 617.02,-247.05"/>
<polygon fill="midnightblue" stroke="midnightblue" points="617.94,-243.66 607.34,-243.52 615.54,-250.23 617.94,-243.66"/>
</g>
<!-- Node21&#45;&gt;Node15 -->
<g id="edge39" class="edge">
<title>Node21&#45;&gt;Node15</title>
<path fill="none" stroke="midnightblue" d="M731.37,-280.3C729.02,-247.63 720.68,-131.87 717.37,-85.96"/>
<polygon fill="midnightblue" stroke="midnightblue" points="720.85,-85.61 716.64,-75.88 713.87,-86.11 720.85,-85.61"/>
</g>
<!-- Node21&#45;&gt;Node22 -->
<g id="edge36" class="edge">
<title>Node21&#45;&gt;Node22</title>
<path fill="none" stroke="midnightblue" d="M752.29,-280.41C772.81,-271.62 805.36,-257.39 833,-244 867.96,-227.07 907.58,-205.95 932.43,-192.47"/>
<polygon fill="midnightblue" stroke="midnightblue" points="934.39,-195.39 941.5,-187.53 931.05,-189.24 934.39,-195.39"/>
</g>
<!-- Node22&#45;&gt;Node2 -->
<g id="edge37" class="edge">
<title>Node22&#45;&gt;Node2</title>
<path fill="none" stroke="midnightblue" d="M950.81,-168.41C933.83,-145.6 883.93,-83.41 826,-56 781.82,-35.1 650.56,-21.96 569.3,-15.59"/>
<polygon fill="midnightblue" stroke="midnightblue" points="569.4,-12.09 559.16,-14.81 568.87,-19.07 569.4,-12.09"/>
</g>
<!-- Node22&#45;&gt;Node3 -->
<g id="edge38" class="edge">
<title>Node22&#45;&gt;Node3</title>
<path fill="none" stroke="midnightblue" d="M957.76,-168.45C959.21,-147.75 960.59,-93.82 940,-56 933.31,-43.71 921.85,-33.24 911.39,-25.51"/>
<polygon fill="midnightblue" stroke="midnightblue" points="913.17,-22.48 902.96,-19.67 909.19,-28.24 913.17,-22.48"/>
</g>
</g>
</svg>
        <g id="navigator" transform="translate(0 0)" fill="#404254">
                <rect fill="#f2f5e9" fill-opacity="0.5" stroke="#606060" stroke-width=".5" x="0" y="0" width="60" height="60"/>
                <use id="zoomplus" xlink:href="#zoomPlus" x="17" y="9" onmousedown="handleZoom(evt,'in')"/>
                <use id="zoomminus" xlink:href="#zoomMin" x="42" y="9" onmousedown="handleZoom(evt,'out')"/>
                <use id="reset" xlink:href="#resetDef" x="30" y="36" onmousedown="handleReset()"/>
                <g id="arrowUp" xlink:href="#dirArrow" transform="translate(30 24)" onmousedown="handlePan(0,-1)">
                  <use xlink:href="#rim" fill="#404040">
                        <set attributeName="fill" to="#808080" begin="arrowUp.mouseover" end="arrowUp.mouseout"/>
                  </use>
                  <path fill="none" stroke="white" stroke-width="1.5" d="M0,-3.0v7 M-2.5,-0.5L0,-3.0L2.5,-0.5"/>
                </g>
                <g id="arrowRight" xlink:href="#dirArrow" transform="rotate(90) translate(36 -43)" onmousedown="handlePan(1,0)">
                  <use xlink:href="#rim" fill="#404040">
                        <set attributeName="fill" to="#808080" begin="arrowRight.mouseover" end="arrowRight.mouseout"/>
                  </use>
                  <path fill="none" stroke="white" stroke-width="1.5" d="M0,-3.0v7 M-2.5,-0.5L0,-3.0L2.5,-0.5"/>
                </g>
                <g id="arrowDown" xlink:href="#dirArrow" transform="rotate(180) translate(-30 -48)" onmousedown="handlePan(0,1)">
                  <use xlink:href="#rim" fill="#404040">
                        <set attributeName="fill" to="#808080" begin="arrowDown.mouseover" end="arrowDown.mouseout"/>
                  </use>
                  <path fill="none" stroke="white" stroke-width="1.5" d="M0,-3.0v7 M-2.5,-0.5L0,-3.0L2.5,-0.5"/>
                </g>
                <g id="arrowLeft" xlink:href="#dirArrow" transform="rotate(270) translate(-36 17)" onmousedown="handlePan(-1,0)">
                  <use xlink:href="#rim" fill="#404040">
                        <set attributeName="fill" to="#808080" begin="arrowLeft.mouseover" end="arrowLeft.mouseout"/>
                  </use>
                  <path fill="none" stroke="white" stroke-width="1.5" d="M0,-3.0v7 M-2.5,-0.5L0,-3.0L2.5,-0.5"/>
                </g>
        </g>
        <svg viewBox="0 0 15 15" width="100%" height="30px" preserveAspectRatio="xMaxYMin meet">
         <g id="arrow_out" transform="scale(0.3 0.3)">
          <a xlink:href="cube_8h__incl_org.svg" target="_base">
           <rect id="button" ry="5" rx="5" y="6" x="6" height="38" width="38"
                fill="#f2f5e9" fill-opacity="0.5" stroke="#606060" stroke-width="1.0"/>
           <path id="arrow"
             d="M 11.500037,31.436501 C 11.940474,20.09759 22.043105,11.32322 32.158766,21.979434 L 37.068811,17.246167 C 37.068811,17.246167 37.088388,32 37.088388,32 L 22.160133,31.978069 C 22.160133,31.978069 26.997745,27.140456 26.997745,27.140456 C 18.528582,18.264221 13.291696,25.230495 11.500037,31.436501 z"
             style="fill:#404040;"/>
          </a>
         </g>
        </svg>
</svg>
