<?xml version="1.0" encoding="UTF-8" standalone="no"?>
<!DOCTYPE svg PUBLIC "-//W3C//DTD SVG 1.1//EN"
 "http://www.w3.org/Graphics/SVG/1.1/DTD/svg11.dtd">
<!-- Generated by graphviz version 2.43.0 (0)
 -->
<!-- Title: cube.h Pages: 1 -->
<svg width="1988pt" height="655pt"
 viewBox="0.00 0.00 1988.00 655.00" xmlns="http://www.w3.org/2000/svg" xmlns:xlink="http://www.w3.org/1999/xlink">
<g id="graph0" class="graph" transform="scale(1 1) rotate(0) translate(4 651)">
<title>cube.h</title>
<!-- Node1 -->
<g id="node1" class="node">
<title>Node1</title>
<g id="a_node1"><a xlink:title=" ">
<polygon fill="#bfbfbf" stroke="black" points="1757.5,-627.5 1757.5,-646.5 1806.5,-646.5 1806.5,-627.5 1757.5,-627.5"/>
<text text-anchor="middle" x="1782" y="-634.5" font-family="Helvetica,sans-Serif" font-size="10.00">cube.h</text>
</a>
</g>
</g>
<!-- Node2 -->
<g id="node2" class="node">
<title>Node2</title>
<g id="a_node2"><a xlink:href="../../da/d0b/limes__namespace_8h.html" target="_top" xlink:title=" ">
<polygon fill="none" stroke="black" points="954,-56.5 954,-75.5 1068,-75.5 1068,-56.5 954,-56.5"/>
<text text-anchor="middle" x="1011" y="-63.5" font-family="Helvetica,sans-Serif" font-size="10.00">limes_namespace.h</text>
</a>
</g>
</g>
<!-- Node1&#45;&gt;Node2 -->
<g id="edge1" class="edge">
<title>Node1&#45;&gt;Node2</title>
<path fill="none" stroke="midnightblue" d="M1788.37,-627.23C1794.26,-618.53 1802.61,-604.57 1806,-591 1808.16,-582.38 1807.29,-579.79 1806,-571 1791.62,-473.2 1742,-456.85 1742,-358 1742,-358 1742,-358 1742,-188 1742,-121.08 1259.03,-83.01 1078.24,-71.1"/>
<polygon fill="midnightblue" stroke="midnightblue" points="1078.26,-67.59 1068.06,-70.43 1077.81,-74.58 1078.26,-67.59"/>
</g>
<!-- Node3 -->
<g id="node3" class="node">
<title>Node3</title>
<g id="a_node3"><a xlink:title=" ">
<polygon fill="none" stroke="#bfbfbf" points="1415.5,-56.5 1415.5,-75.5 1504.5,-75.5 1504.5,-56.5 1415.5,-56.5"/>
<text text-anchor="middle" x="1460" y="-63.5" font-family="Helvetica,sans-Serif" font-size="10.00">limes_export.h</text>
</a>
</g>
</g>
<!-- Node1&#45;&gt;Node3 -->
<g id="edge2" class="edge">
<title>Node1&#45;&gt;Node3</title>
<path fill="none" stroke="midnightblue" d="M1806.65,-631.03C1851.53,-620.39 1942,-590.89 1942,-526 1942,-526 1942,-526 1942,-188 1942,-136.99 1902.61,-132.73 1856,-112 1796.2,-85.41 1608.57,-73.54 1514.66,-69.16"/>
<polygon fill="midnightblue" stroke="midnightblue" points="1514.66,-65.66 1504.51,-68.7 1514.34,-72.65 1514.66,-65.66"/>
</g>
<!-- Node4 -->
<g id="node4" class="node">
<title>Node4</title>
<g id="a_node4"><a xlink:title=" ">
<polygon fill="none" stroke="#bfbfbf" points="540,-0.5 540,-19.5 640,-19.5 640,-0.5 540,-0.5"/>
<text text-anchor="middle" x="590" y="-7.5" font-family="Helvetica,sans-Serif" font-size="10.00">limes_platform.h</text>
</a>
</g>
</g>
<!-- Node1&#45;&gt;Node4 -->
<g id="edge3" class="edge">
<title>Node1&#45;&gt;Node4</title>
<path fill="none" stroke="midnightblue" d="M1806.68,-633.75C1859.75,-627.43 1980,-604.45 1980,-526 1980,-526 1980,-526 1980,-126.5 1980,39.16 1778.52,-75.35 1614,-56 1249.76,-13.15 808.3,-10.13 650.03,-10.58"/>
<polygon fill="midnightblue" stroke="midnightblue" points="650.01,-7.08 640.02,-10.61 650.04,-14.08 650.01,-7.08"/>
</g>
<!-- Node5 -->
<g id="node5" class="node">
<title>Node5</title>
<g id="a_node5"><a xlink:href="../../d3/d53/preprocessor_8h.html" target="_top" xlink:title=" ">
<polygon fill="none" stroke="black" points="195.5,-56.5 195.5,-75.5 336.5,-75.5 336.5,-56.5 195.5,-56.5"/>
<text text-anchor="middle" x="266" y="-63.5" font-family="Helvetica,sans-Serif" font-size="10.00">../../../misc/preprocessor.h</text>
</a>
</g>
</g>
<!-- Node1&#45;&gt;Node5 -->
<g id="edge4" class="edge">
<title>Node1&#45;&gt;Node5</title>
<path fill="none" stroke="midnightblue" d="M1757.35,-635.78C1545.37,-633.77 38,-616.26 38,-526 38,-526 38,-526 38,-356 38,-232.06 83,-197.21 173,-112 188.57,-97.26 209.87,-86.48 228.16,-79.17"/>
<polygon fill="midnightblue" stroke="midnightblue" points="229.57,-82.37 237.68,-75.56 227.09,-75.83 229.57,-82.37"/>
</g>
<!-- Node6 -->
<g id="node6" class="node">
<title>Node6</title>
<g id="a_node6"><a xlink:href="../../d7/d3c/square_8h.html" target="_top" xlink:title=" ">
<polygon fill="none" stroke="black" points="1369,-515.5 1369,-534.5 1453,-534.5 1453,-515.5 1369,-515.5"/>
<text text-anchor="middle" x="1411" y="-522.5" font-family="Helvetica,sans-Serif" font-size="10.00">../2D/square.h</text>
</a>
</g>
</g>
<!-- Node1&#45;&gt;Node6 -->
<g id="edge6" class="edge">
<title>Node1&#45;&gt;Node6</title>
<path fill="none" stroke="midnightblue" d="M1757.37,-628.7C1694.18,-609.96 1525.92,-560.07 1449.6,-537.44"/>
<polygon fill="midnightblue" stroke="midnightblue" points="1450.48,-534.05 1439.89,-534.57 1448.49,-540.77 1450.48,-534.05"/>
</g>
<!-- Node15 -->
<g id="node15" class="node">
<title>Node15</title>
<g id="a_node15"><a xlink:title=" ">
<polygon fill="none" stroke="#bfbfbf" points="1525.5,-179.5 1525.5,-198.5 1572.5,-198.5 1572.5,-179.5 1525.5,-179.5"/>
<text text-anchor="middle" x="1549" y="-186.5" font-family="Helvetica,sans-Serif" font-size="10.00">cmath</text>
</a>
</g>
</g>
<!-- Node1&#45;&gt;Node15 -->
<g id="edge71" class="edge">
<title>Node1&#45;&gt;Node15</title>
<path fill="none" stroke="midnightblue" d="M1757.22,-633.16C1731.78,-628.81 1693.26,-617.93 1674,-591 1642.64,-547.17 1666,-523.9 1666,-470 1666,-470 1666,-470 1666,-356 1666,-289.65 1602.78,-231.15 1569.28,-204.81"/>
<polygon fill="midnightblue" stroke="midnightblue" points="1571.15,-201.83 1561.08,-198.53 1566.9,-207.39 1571.15,-201.83"/>
</g>
<!-- Node21 -->
<g id="node21" class="node">
<title>Node21</title>
<g id="a_node21"><a xlink:href="../../db/dba/rectangular__prism_8h.html" target="_top" xlink:title=" ">
<polygon fill="none" stroke="black" points="1683,-571.5 1683,-590.5 1797,-590.5 1797,-571.5 1683,-571.5"/>
<text text-anchor="middle" x="1740" y="-578.5" font-family="Helvetica,sans-Serif" font-size="10.00">rectangular_prism.h</text>
</a>
</g>
</g>
<!-- Node1&#45;&gt;Node21 -->
<g id="edge60" class="edge">
<title>Node1&#45;&gt;Node21</title>
<path fill="none" stroke="midnightblue" d="M1775.06,-627.08C1769.07,-619.38 1760.25,-608.03 1752.95,-598.65"/>
<polygon fill="midnightblue" stroke="midnightblue" points="1755.71,-596.5 1746.81,-590.75 1750.18,-600.79 1755.71,-596.5"/>
</g>
<!-- Node22 -->
<g id="node22" class="node">
<title>Node22</title>
<g id="a_node22"><a xlink:href="../../d7/d88/3_dshape_8h.html" target="_top" xlink:title=" ">
<polygon fill="none" stroke="black" points="1808,-459.5 1808,-478.5 1876,-478.5 1876,-459.5 1808,-459.5"/>
<text text-anchor="middle" x="1842" y="-466.5" font-family="Helvetica,sans-Serif" font-size="10.00">3Dshape.h</text>
</a>
</g>
</g>
<!-- Node1&#45;&gt;Node22 -->
<g id="edge70" class="edge">
<title>Node1&#45;&gt;Node22</title>
<path fill="none" stroke="midnightblue" d="M1799.69,-627.49C1813.15,-619.95 1830.71,-607.58 1839,-591 1855.54,-557.91 1850.75,-513.11 1846.15,-488.36"/>
<polygon fill="midnightblue" stroke="midnightblue" points="1849.56,-487.6 1844.12,-478.51 1842.71,-489.01 1849.56,-487.6"/>
</g>
<!-- Node5&#45;&gt;Node4 -->
<g id="edge5" class="edge">
<title>Node5&#45;&gt;Node4</title>
<path fill="none" stroke="midnightblue" d="M317.34,-56.44C375.15,-46.81 468.96,-31.17 530.08,-20.99"/>
<polygon fill="midnightblue" stroke="midnightblue" points="530.68,-24.44 539.97,-19.34 529.53,-17.53 530.68,-24.44"/>
</g>
<!-- Node6&#45;&gt;Node2 -->
<g id="edge7" class="edge">
<title>Node6&#45;&gt;Node2</title>
<path fill="none" stroke="midnightblue" d="M1368.8,-521.98C1216.25,-514.22 694.21,-483.74 540,-423 500.96,-407.62 486.15,-402.63 464,-367 402.19,-267.58 428.77,-170.8 530,-112 598.55,-72.18 828.16,-66.63 943.57,-66.45"/>
<polygon fill="midnightblue" stroke="midnightblue" points="943.7,-69.95 953.7,-66.45 943.7,-62.95 943.7,-69.95"/>
</g>
<!-- Node6&#45;&gt;Node3 -->
<g id="edge8" class="edge">
<title>Node6&#45;&gt;Node3</title>
<path fill="none" stroke="midnightblue" d="M1453.24,-517.54C1480.21,-511.53 1514.4,-500.16 1538,-479 1558.57,-460.55 1557.83,-449.68 1565,-423 1593.21,-318.02 1625.74,-278.52 1582,-179 1562.17,-133.87 1514.18,-98.96 1484.65,-80.81"/>
<polygon fill="midnightblue" stroke="midnightblue" points="1486.15,-77.63 1475.76,-75.52 1482.56,-83.65 1486.15,-77.63"/>
</g>
<!-- Node6&#45;&gt;Node4 -->
<g id="edge9" class="edge">
<title>Node6&#45;&gt;Node4</title>
<path fill="none" stroke="midnightblue" d="M1368.53,-524.54C1228.36,-525.81 767.86,-525.89 391,-479 249.14,-461.35 76,-556.95 76,-414 76,-414 76,-414 76,-356 76,-274.86 0,-271.14 0,-190 0,-190 0,-190 0,-126.5 0,-19.41 379.08,-9.79 529.52,-10.19"/>
<polygon fill="midnightblue" stroke="midnightblue" points="529.94,-13.69 539.95,-10.23 529.97,-6.69 529.94,-13.69"/>
</g>
<!-- Node6&#45;&gt;Node5 -->
<g id="edge13" class="edge">
<title>Node6&#45;&gt;Node5</title>
<path fill="none" stroke="midnightblue" d="M1368.97,-522.46C1154.27,-514.35 190,-474.53 190,-414 190,-414 190,-414 190,-188 190,-144.48 225.7,-103.77 248.16,-82.47"/>
<polygon fill="midnightblue" stroke="midnightblue" points="250.73,-84.86 255.75,-75.53 246.01,-79.7 250.73,-84.86"/>
</g>
<!-- Node7 -->
<g id="node7" class="node">
<title>Node7</title>
<g id="a_node7"><a xlink:href="../../d8/d23/2_dshape_8h.html" target="_top" xlink:title=" ">
<polygon fill="none" stroke="black" points="1390,-347.5 1390,-366.5 1458,-366.5 1458,-347.5 1390,-347.5"/>
<text text-anchor="middle" x="1424" y="-354.5" font-family="Helvetica,sans-Serif" font-size="10.00">2Dshape.h</text>
</a>
</g>
</g>
<!-- Node6&#45;&gt;Node7 -->
<g id="edge10" class="edge">
<title>Node6&#45;&gt;Node7</title>
<path fill="none" stroke="midnightblue" d="M1411.7,-515.08C1413.75,-488.95 1419.75,-412.21 1422.55,-376.58"/>
<polygon fill="midnightblue" stroke="midnightblue" points="1426.04,-376.81 1423.33,-366.57 1419.06,-376.26 1426.04,-376.81"/>
</g>
<!-- Node8 -->
<g id="node8" class="node">
<title>Node8</title>
<g id="a_node8"><a xlink:href="../../db/dd0/rectangle_8h.html" target="_top" xlink:title=" ">
<polygon fill="none" stroke="black" points="1315.5,-459.5 1315.5,-478.5 1386.5,-478.5 1386.5,-459.5 1315.5,-459.5"/>
<text text-anchor="middle" x="1351" y="-466.5" font-family="Helvetica,sans-Serif" font-size="10.00">rectangle.h</text>
</a>
</g>
</g>
<!-- Node6&#45;&gt;Node8 -->
<g id="edge14" class="edge">
<title>Node6&#45;&gt;Node8</title>
<path fill="none" stroke="midnightblue" d="M1401.36,-515.32C1392.49,-507.34 1379.13,-495.31 1368.39,-485.65"/>
<polygon fill="midnightblue" stroke="midnightblue" points="1370.59,-482.92 1360.82,-478.83 1365.91,-488.13 1370.59,-482.92"/>
</g>
<!-- Node9 -->
<g id="node9" class="node">
<title>Node9</title>
<g id="a_node9"><a xlink:href="../../dd/d6a/triangle_8h.html" target="_top" xlink:title=" ">
<polygon fill="none" stroke="black" points="1200.5,-403.5 1200.5,-422.5 1263.5,-422.5 1263.5,-403.5 1200.5,-403.5"/>
<text text-anchor="middle" x="1232" y="-410.5" font-family="Helvetica,sans-Serif" font-size="10.00">triangle.h</text>
</a>
</g>
</g>
<!-- Node6&#45;&gt;Node9 -->
<g id="edge58" class="edge">
<title>Node6&#45;&gt;Node9</title>
<path fill="none" stroke="midnightblue" d="M1384.84,-515.41C1362.88,-507.59 1331.16,-494.87 1306,-479 1283.76,-464.97 1261.53,-444.33 1247.33,-430.09"/>
<polygon fill="midnightblue" stroke="midnightblue" points="1249.45,-427.25 1239.95,-422.55 1244.44,-432.15 1249.45,-427.25"/>
</g>
<!-- Node6&#45;&gt;Node15 -->
<g id="edge59" class="edge">
<title>Node6&#45;&gt;Node15</title>
<path fill="none" stroke="midnightblue" d="M1440.9,-515.45C1482.29,-501.56 1552,-469.89 1552,-414 1552,-414 1552,-414 1552,-300 1552,-267.94 1550.71,-230.63 1549.82,-208.74"/>
<polygon fill="midnightblue" stroke="midnightblue" points="1553.31,-208.4 1549.39,-198.56 1546.32,-208.69 1553.31,-208.4"/>
</g>
<!-- Node7&#45;&gt;Node2 -->
<g id="edge11" class="edge">
<title>Node7&#45;&gt;Node2</title>
<path fill="none" stroke="midnightblue" d="M1418.66,-347.18C1396.53,-311.48 1308.1,-176.5 1198,-112 1161.66,-90.71 1115.73,-79.47 1078.48,-73.56"/>
<polygon fill="midnightblue" stroke="midnightblue" points="1078.63,-70.04 1068.22,-72.02 1077.6,-76.96 1078.63,-70.04"/>
</g>
<!-- Node7&#45;&gt;Node3 -->
<g id="edge12" class="edge">
<title>Node7&#45;&gt;Node3</title>
<path fill="none" stroke="midnightblue" d="M1426.84,-347.2C1435.99,-318.34 1464.65,-223.75 1474,-143 1475.58,-129.31 1476.07,-125.62 1474,-112 1472.63,-103 1469.81,-93.33 1467.05,-85.26"/>
<polygon fill="midnightblue" stroke="midnightblue" points="1470.31,-83.98 1463.6,-75.78 1463.73,-86.37 1470.31,-83.98"/>
</g>
<!-- Node8&#45;&gt;Node2 -->
<g id="edge15" class="edge">
<title>Node8&#45;&gt;Node2</title>
<path fill="none" stroke="midnightblue" d="M1315.29,-467.37C1150.1,-464.02 468,-444.9 468,-358 468,-358 468,-358 468,-300 468,-202.74 495.45,-160.06 580,-112 640.45,-77.64 838.31,-69.44 943.63,-67.53"/>
<polygon fill="midnightblue" stroke="midnightblue" points="943.89,-71.03 953.83,-67.36 943.78,-64.03 943.89,-71.03"/>
</g>
<!-- Node8&#45;&gt;Node3 -->
<g id="edge16" class="edge">
<title>Node8&#45;&gt;Node3</title>
<path fill="none" stroke="midnightblue" d="M1352.44,-459.47C1355.42,-441.02 1362,-396 1362,-358 1362,-358 1362,-358 1362,-300 1362,-223.42 1404.38,-214.03 1433,-143 1440.83,-123.56 1448.74,-100.87 1453.95,-85.38"/>
<polygon fill="midnightblue" stroke="midnightblue" points="1457.39,-86.11 1457.23,-75.52 1450.75,-83.9 1457.39,-86.11"/>
</g>
<!-- Node8&#45;&gt;Node4 -->
<g id="edge17" class="edge">
<title>Node8&#45;&gt;Node4</title>
<path fill="none" stroke="midnightblue" d="M1315.14,-467.38C1169.33,-464.69 620.68,-452.77 450,-423 365.79,-408.31 341.91,-406.31 266,-367 209.04,-337.51 38,-254.14 38,-190 38,-190 38,-190 38,-126.5 38,-27.04 385.66,-12.7 529.17,-11.02"/>
<polygon fill="midnightblue" stroke="midnightblue" points="529.59,-14.52 539.55,-10.92 529.52,-7.52 529.59,-14.52"/>
</g>
<!-- Node8&#45;&gt;Node5 -->
<g id="edge19" class="edge">
<title>Node8&#45;&gt;Node5</title>
<path fill="none" stroke="midnightblue" d="M1315.3,-468.18C1178.57,-468.52 688.49,-466.62 540,-423 387.04,-378.06 228,-405.43 228,-246 228,-246 228,-246 228,-188 228,-149.81 245.44,-107.83 256.69,-84.72"/>
<polygon fill="midnightblue" stroke="midnightblue" points="259.96,-86.02 261.34,-75.52 253.71,-82.86 259.96,-86.02"/>
</g>
<!-- Node8&#45;&gt;Node7 -->
<g id="edge18" class="edge">
<title>Node8&#45;&gt;Node7</title>
<path fill="none" stroke="midnightblue" d="M1356.73,-459.37C1368.78,-441.22 1396.92,-398.8 1412.72,-374.99"/>
<polygon fill="midnightblue" stroke="midnightblue" points="1415.69,-376.86 1418.3,-366.59 1409.85,-372.99 1415.69,-376.86"/>
</g>
<!-- Node8&#45;&gt;Node9 -->
<g id="edge20" class="edge">
<title>Node8&#45;&gt;Node9</title>
<path fill="none" stroke="midnightblue" d="M1332.14,-459.44C1312.73,-450.64 1282.27,-436.81 1260.04,-426.72"/>
<polygon fill="midnightblue" stroke="midnightblue" points="1261.32,-423.46 1250.77,-422.52 1258.43,-429.84 1261.32,-423.46"/>
</g>
<!-- Node8&#45;&gt;Node15 -->
<g id="edge57" class="edge">
<title>Node8&#45;&gt;Node15</title>
<path fill="none" stroke="midnightblue" d="M1386.77,-460.61C1434.75,-448.38 1514,-418.94 1514,-358 1514,-358 1514,-358 1514,-300 1514,-266.07 1529.31,-228.91 1539.68,-207.63"/>
<polygon fill="midnightblue" stroke="midnightblue" points="1542.88,-209.05 1544.28,-198.54 1536.64,-205.88 1542.88,-209.05"/>
</g>
<!-- Node9&#45;&gt;Node2 -->
<g id="edge21" class="edge">
<title>Node9&#45;&gt;Node2</title>
<path fill="none" stroke="midnightblue" d="M1200.2,-410.32C1064.89,-402.78 544,-369.36 544,-302 544,-302 544,-302 544,-188 544,-106.45 814.2,-78.96 943.55,-70.46"/>
<polygon fill="midnightblue" stroke="midnightblue" points="943.98,-73.94 953.74,-69.81 943.53,-66.96 943.98,-73.94"/>
</g>
<!-- Node9&#45;&gt;Node3 -->
<g id="edge22" class="edge">
<title>Node9&#45;&gt;Node3</title>
<path fill="none" stroke="midnightblue" d="M1237.77,-403.14C1254.65,-377.24 1305.45,-299.36 1348,-235 1384.45,-179.85 1427.98,-114.78 1448.38,-84.34"/>
<polygon fill="midnightblue" stroke="midnightblue" points="1451.49,-85.98 1454.15,-75.73 1445.67,-82.09 1451.49,-85.98"/>
</g>
<!-- Node9&#45;&gt;Node4 -->
<g id="edge23" class="edge">
<title>Node9&#45;&gt;Node4</title>
<path fill="none" stroke="midnightblue" d="M1200.41,-411.17C1086.14,-407.95 694.66,-395.08 573,-367 363.31,-318.6 267.79,-275.05 186,-76 182.62,-67.78 180.07,-62.62 186,-56 208.51,-30.84 423.04,-18.15 529.99,-13.35"/>
<polygon fill="midnightblue" stroke="midnightblue" points="530.16,-16.84 539.99,-12.91 529.85,-9.85 530.16,-16.84"/>
</g>
<!-- Node9&#45;&gt;Node5 -->
<g id="edge25" class="edge">
<title>Node9&#45;&gt;Node5</title>
<path fill="none" stroke="midnightblue" d="M1200.22,-411.39C1093.15,-409.04 746.32,-399.1 640,-367 463.55,-313.73 396.64,-294.03 291,-143 278.84,-125.61 272.29,-101.92 268.99,-85.63"/>
<polygon fill="midnightblue" stroke="midnightblue" points="272.41,-84.92 267.19,-75.71 265.53,-86.17 272.41,-84.92"/>
</g>
<!-- Node9&#45;&gt;Node7 -->
<g id="edge24" class="edge">
<title>Node9&#45;&gt;Node7</title>
<path fill="none" stroke="midnightblue" d="M1262.42,-403.44C1295.28,-394.2 1347.78,-379.44 1383.97,-369.26"/>
<polygon fill="midnightblue" stroke="midnightblue" points="1385.04,-372.59 1393.72,-366.52 1383.15,-365.85 1385.04,-372.59"/>
</g>
<!-- Node10 -->
<g id="node10" class="node">
<title>Node10</title>
<g id="a_node10"><a xlink:href="../../da/dac/angle_8h.html" target="_top" xlink:title=" ">
<polygon fill="none" stroke="black" points="1183.5,-347.5 1183.5,-366.5 1236.5,-366.5 1236.5,-347.5 1183.5,-347.5"/>
<text text-anchor="middle" x="1210" y="-354.5" font-family="Helvetica,sans-Serif" font-size="10.00">angle.h</text>
</a>
</g>
</g>
<!-- Node9&#45;&gt;Node10 -->
<g id="edge26" class="edge">
<title>Node9&#45;&gt;Node10</title>
<path fill="none" stroke="midnightblue" d="M1228.37,-403.08C1225.39,-395.77 1221.07,-385.18 1217.38,-376.1"/>
<polygon fill="midnightblue" stroke="midnightblue" points="1220.58,-374.69 1213.57,-366.75 1214.1,-377.33 1220.58,-374.69"/>
</g>
<!-- Node11 -->
<g id="node11" class="node">
<title>Node11</title>
<g id="a_node11"><a xlink:href="../../dc/d5c/math_functions_8h.html" target="_top" xlink:title=" ">
<polygon fill="none" stroke="black" points="1006,-291.5 1006,-310.5 1122,-310.5 1122,-291.5 1006,-291.5"/>
<text text-anchor="middle" x="1064" y="-298.5" font-family="Helvetica,sans-Serif" font-size="10.00">../../mathFunctions.h</text>
</a>
</g>
</g>
<!-- Node9&#45;&gt;Node11 -->
<g id="edge55" class="edge">
<title>Node9&#45;&gt;Node11</title>
<path fill="none" stroke="midnightblue" d="M1218.82,-403.37C1189.99,-384.49 1121.1,-339.38 1085.74,-316.24"/>
<polygon fill="midnightblue" stroke="midnightblue" points="1087.4,-313.14 1077.12,-310.59 1083.57,-319 1087.4,-313.14"/>
</g>
<!-- Node9&#45;&gt;Node15 -->
<g id="edge56" class="edge">
<title>Node9&#45;&gt;Node15</title>
<path fill="none" stroke="midnightblue" d="M1245.38,-403.34C1259.16,-394.37 1281.21,-379.89 1300,-367 1385.97,-308.02 1486.73,-235.25 1528.88,-204.65"/>
<polygon fill="midnightblue" stroke="midnightblue" points="1531.15,-207.33 1537.18,-198.62 1527.03,-201.66 1531.15,-207.33"/>
</g>
<!-- Node10&#45;&gt;Node2 -->
<g id="edge28" class="edge">
<title>Node10&#45;&gt;Node2</title>
<path fill="none" stroke="midnightblue" d="M1206.7,-347.17C1203.48,-338.19 1198.68,-323.81 1196,-311 1177.81,-223.9 1231.72,-179.73 1174,-112 1161.05,-96.81 1115.87,-85.06 1076.35,-77.38"/>
<polygon fill="midnightblue" stroke="midnightblue" points="1076.93,-73.93 1066.45,-75.52 1075.63,-80.81 1076.93,-73.93"/>
</g>
<!-- Node10&#45;&gt;Node3 -->
<g id="edge27" class="edge">
<title>Node10&#45;&gt;Node3</title>
<path fill="none" stroke="midnightblue" d="M1216.08,-347.26C1234.44,-321.01 1291.28,-240.92 1344,-179 1370.69,-147.64 1378.17,-140.39 1408,-112 1418.81,-101.71 1431.46,-90.74 1441.58,-82.21"/>
<polygon fill="midnightblue" stroke="midnightblue" points="1443.96,-84.78 1449.38,-75.68 1439.47,-79.41 1443.96,-84.78"/>
</g>
<!-- Node10&#45;&gt;Node4 -->
<g id="edge29" class="edge">
<title>Node10&#45;&gt;Node4</title>
<path fill="none" stroke="midnightblue" d="M1212.92,-347.12C1223.77,-312.27 1258.1,-183.37 1198,-112 1128.4,-29.36 790.26,-14.25 650.56,-11.55"/>
<polygon fill="midnightblue" stroke="midnightblue" points="650.52,-8.05 640.46,-11.37 650.39,-15.05 650.52,-8.05"/>
</g>
<!-- Node10&#45;&gt;Node11 -->
<g id="edge30" class="edge">
<title>Node10&#45;&gt;Node11</title>
<path fill="none" stroke="midnightblue" d="M1186.87,-347.44C1162.52,-338.44 1123.99,-324.19 1096.58,-314.05"/>
<polygon fill="midnightblue" stroke="midnightblue" points="1097.62,-310.7 1087.03,-310.52 1095.19,-317.27 1097.62,-310.7"/>
</g>
<!-- Node11&#45;&gt;Node2 -->
<g id="edge31" class="edge">
<title>Node11&#45;&gt;Node2</title>
<path fill="none" stroke="midnightblue" d="M1005.66,-296.62C915.92,-287.86 747.04,-256.33 677,-143 669.76,-131.28 667.93,-122.37 677,-112 710.94,-73.18 856.5,-66.48 943.87,-66.08"/>
<polygon fill="midnightblue" stroke="midnightblue" points="943.97,-69.58 953.96,-66.06 943.95,-62.58 943.97,-69.58"/>
</g>
<!-- Node11&#45;&gt;Node3 -->
<g id="edge33" class="edge">
<title>Node11&#45;&gt;Node3</title>
<path fill="none" stroke="midnightblue" d="M1077.17,-291.33C1119.17,-263.82 1253.92,-176.52 1370,-112 1390.61,-100.54 1414.51,-88.66 1432.5,-79.98"/>
<polygon fill="midnightblue" stroke="midnightblue" points="1434.32,-82.99 1441.83,-75.51 1431.3,-76.67 1434.32,-82.99"/>
</g>
<!-- Node11&#45;&gt;Node5 -->
<g id="edge37" class="edge">
<title>Node11&#45;&gt;Node5</title>
<path fill="none" stroke="midnightblue" d="M1005.88,-298.33C884.99,-294.35 610.27,-282.49 521,-255 424.37,-225.24 398.94,-209.74 323,-143 303.53,-125.89 286.48,-101.14 276.22,-84.59"/>
<polygon fill="midnightblue" stroke="midnightblue" points="279.15,-82.67 271,-75.91 273.16,-86.28 279.15,-82.67"/>
</g>
<!-- Node12 -->
<g id="node12" class="node">
<title>Node12</title>
<g id="a_node12"><a xlink:title=" ">
<polygon fill="none" stroke="#bfbfbf" points="1096.5,-118 1096.5,-137 1165.5,-137 1165.5,-118 1096.5,-118"/>
<text text-anchor="middle" x="1131" y="-125" font-family="Helvetica,sans-Serif" font-size="10.00">type_traits</text>
</a>
</g>
</g>
<!-- Node11&#45;&gt;Node12 -->
<g id="edge32" class="edge">
<title>Node11&#45;&gt;Node12</title>
<path fill="none" stroke="midnightblue" d="M1078.41,-291.21C1090.06,-283.28 1105.82,-270.49 1114,-255 1132.3,-220.33 1133.43,-173.17 1132.38,-147.34"/>
<polygon fill="midnightblue" stroke="midnightblue" points="1135.86,-146.87 1131.79,-137.09 1128.87,-147.27 1135.86,-146.87"/>
</g>
<!-- Node13 -->
<g id="node13" class="node">
<title>Node13</title>
<g id="a_node13"><a xlink:href="../../d0/d00/compiler__defs_8h.html" target="_top" xlink:title=" ">
<polygon fill="none" stroke="black" points="332.5,-112.5 332.5,-142.5 439.5,-142.5 439.5,-112.5 332.5,-112.5"/>
<text text-anchor="start" x="340.5" y="-130.5" font-family="Helvetica,sans-Serif" font-size="10.00">../system/compiler</text>
<text text-anchor="middle" x="386" y="-119.5" font-family="Helvetica,sans-Serif" font-size="10.00">_defs.h</text>
</a>
</g>
</g>
<!-- Node11&#45;&gt;Node13 -->
<g id="edge34" class="edge">
<title>Node11&#45;&gt;Node13</title>
<path fill="none" stroke="midnightblue" d="M1005.99,-298.45C892.91,-294.82 647.12,-283.79 568,-255 503.33,-231.47 440.19,-179.08 408.01,-149.63"/>
<polygon fill="midnightblue" stroke="midnightblue" points="410.22,-146.91 400.51,-142.67 405.46,-152.04 410.22,-146.91"/>
</g>
<!-- Node14 -->
<g id="node14" class="node">
<title>Node14</title>
<g id="a_node14"><a xlink:href="../../dc/d9b/math_functions__impl_8h.html" target="_top" xlink:title=" ">
<polygon fill="none" stroke="black" points="980.5,-235.5 980.5,-254.5 1105.5,-254.5 1105.5,-235.5 980.5,-235.5"/>
<text text-anchor="middle" x="1043" y="-242.5" font-family="Helvetica,sans-Serif" font-size="10.00">mathFunctions_impl.h</text>
</a>
</g>
</g>
<!-- Node11&#45;&gt;Node14 -->
<g id="edge38" class="edge">
<title>Node11&#45;&gt;Node14</title>
<path fill="none" stroke="midnightblue" d="M1060.53,-291.08C1057.69,-283.77 1053.57,-273.18 1050.04,-264.1"/>
<polygon fill="midnightblue" stroke="midnightblue" points="1053.29,-262.8 1046.4,-254.75 1046.77,-265.34 1053.29,-262.8"/>
</g>
<!-- Node13&#45;&gt;Node4 -->
<g id="edge35" class="edge">
<title>Node13&#45;&gt;Node4</title>
<path fill="none" stroke="midnightblue" d="M411.01,-112.34C450.54,-89.96 526.94,-46.7 565.9,-24.65"/>
<polygon fill="midnightblue" stroke="midnightblue" points="567.97,-27.49 574.95,-19.52 564.52,-21.4 567.97,-27.49"/>
</g>
<!-- Node13&#45;&gt;Node5 -->
<g id="edge36" class="edge">
<title>Node13&#45;&gt;Node5</title>
<path fill="none" stroke="midnightblue" d="M357.56,-112.4C337.88,-102.64 311.86,-89.74 292.59,-80.18"/>
<polygon fill="midnightblue" stroke="midnightblue" points="293.98,-76.96 283.46,-75.66 290.87,-83.24 293.98,-76.96"/>
</g>
<!-- Node14&#45;&gt;Node2 -->
<g id="edge39" class="edge">
<title>Node14&#45;&gt;Node2</title>
<path fill="none" stroke="midnightblue" d="M1040.95,-235.4C1038.82,-226.37 1035.47,-211.73 1033,-199 1025.2,-158.85 1017.72,-111.5 1013.82,-85.84"/>
<polygon fill="midnightblue" stroke="midnightblue" points="1017.23,-85.04 1012.28,-75.68 1010.31,-86.09 1017.23,-85.04"/>
</g>
<!-- Node14&#45;&gt;Node15 -->
<g id="edge40" class="edge">
<title>Node14&#45;&gt;Node15</title>
<path fill="none" stroke="midnightblue" d="M1105.55,-237.32C1213.7,-225.78 1432.05,-202.48 1515.52,-193.57"/>
<polygon fill="midnightblue" stroke="midnightblue" points="1515.89,-197.05 1525.47,-192.51 1515.15,-190.09 1515.89,-197.05"/>
</g>
<!-- Node16 -->
<g id="node16" class="node">
<title>Node16</title>
<g id="a_node16"><a xlink:title=" ">
<polygon fill="none" stroke="#bfbfbf" points="1042,-179.5 1042,-198.5 1106,-198.5 1106,-179.5 1042,-179.5"/>
<text text-anchor="middle" x="1074" y="-186.5" font-family="Helvetica,sans-Serif" font-size="10.00">algorithm</text>
</a>
</g>
</g>
<!-- Node14&#45;&gt;Node16 -->
<g id="edge41" class="edge">
<title>Node14&#45;&gt;Node16</title>
<path fill="none" stroke="midnightblue" d="M1048.12,-235.08C1052.41,-227.61 1058.66,-216.72 1063.94,-207.52"/>
<polygon fill="midnightblue" stroke="midnightblue" points="1067.03,-209.17 1068.98,-198.75 1060.96,-205.68 1067.03,-209.17"/>
</g>
<!-- Node17 -->
<g id="node17" class="node">
<title>Node17</title>
<g id="a_node17"><a xlink:href="../../d5/dbb/limes__assert_8h.html" target="_top" xlink:title=" ">
<polygon fill="none" stroke="black" points="798,-179.5 798,-198.5 934,-198.5 934,-179.5 798,-179.5"/>
<text text-anchor="middle" x="866" y="-186.5" font-family="Helvetica,sans-Serif" font-size="10.00">../system/limes_assert.h</text>
</a>
</g>
</g>
<!-- Node14&#45;&gt;Node17 -->
<g id="edge42" class="edge">
<title>Node14&#45;&gt;Node17</title>
<path fill="none" stroke="midnightblue" d="M1014.95,-235.44C984.92,-226.28 937.09,-211.69 903.76,-201.52"/>
<polygon fill="midnightblue" stroke="midnightblue" points="904.5,-198.09 893.91,-198.52 902.46,-204.78 904.5,-198.09"/>
</g>
<!-- Node17&#45;&gt;Node2 -->
<g id="edge44" class="edge">
<title>Node17&#45;&gt;Node2</title>
<path fill="none" stroke="midnightblue" d="M903.07,-179.43C925.53,-172.67 953.51,-161.25 973,-143 989.78,-127.28 1000.21,-102.53 1005.81,-85.58"/>
<polygon fill="midnightblue" stroke="midnightblue" points="1009.24,-86.32 1008.8,-75.73 1002.55,-84.28 1009.24,-86.32"/>
</g>
<!-- Node17&#45;&gt;Node3 -->
<g id="edge43" class="edge">
<title>Node17&#45;&gt;Node3</title>
<path fill="none" stroke="midnightblue" d="M891.32,-179.42C917.91,-170.4 960.92,-155.78 998,-143 1037.6,-129.35 1046.19,-121.45 1087,-112 1198.14,-86.26 1331.52,-74.68 1404.87,-69.94"/>
<polygon fill="midnightblue" stroke="midnightblue" points="1405.49,-73.4 1415.25,-69.28 1405.05,-66.42 1405.49,-73.4"/>
</g>
<!-- Node17&#45;&gt;Node4 -->
<g id="edge52" class="edge">
<title>Node17&#45;&gt;Node4</title>
<path fill="none" stroke="midnightblue" d="M797.57,-184.01C759.25,-178.93 712.23,-167.67 677,-143 635.53,-113.96 608.66,-58.25 596.87,-29.37"/>
<polygon fill="midnightblue" stroke="midnightblue" points="600,-27.76 593.1,-19.73 593.48,-30.32 600,-27.76"/>
</g>
<!-- Node17&#45;&gt;Node5 -->
<g id="edge45" class="edge">
<title>Node17&#45;&gt;Node5</title>
<path fill="none" stroke="midnightblue" d="M823.81,-179.49C716.89,-157.93 435.52,-101.19 318.36,-77.56"/>
<polygon fill="midnightblue" stroke="midnightblue" points="319.04,-74.13 308.54,-75.58 317.66,-80.99 319.04,-74.13"/>
</g>
<!-- Node17&#45;&gt;Node12 -->
<g id="edge46" class="edge">
<title>Node17&#45;&gt;Node12</title>
<path fill="none" stroke="midnightblue" d="M912.6,-179.44C956.52,-171.1 1024.05,-157.58 1082,-143 1085.86,-142.03 1089.87,-140.95 1093.86,-139.84"/>
<polygon fill="midnightblue" stroke="midnightblue" points="1094.99,-143.15 1103.64,-137.03 1093.06,-136.43 1094.99,-143.15"/>
</g>
<!-- Node17&#45;&gt;Node13 -->
<g id="edge54" class="edge">
<title>Node17&#45;&gt;Node13</title>
<path fill="none" stroke="midnightblue" d="M797.99,-179.57C705.23,-168.07 540.25,-147.62 449.75,-136.4"/>
<polygon fill="midnightblue" stroke="midnightblue" points="449.99,-132.9 439.63,-135.15 449.13,-139.85 449.99,-132.9"/>
</g>
<!-- Node18 -->
<g id="node18" class="node">
<title>Node18</title>
<g id="a_node18"><a xlink:title=" ">
<polygon fill="none" stroke="#bfbfbf" points="686.5,-118 686.5,-137 731.5,-137 731.5,-118 686.5,-118"/>
<text text-anchor="middle" x="709" y="-125" font-family="Helvetica,sans-Serif" font-size="10.00">utility</text>
</a>
</g>
</g>
<!-- Node17&#45;&gt;Node18 -->
<g id="edge47" class="edge">
<title>Node17&#45;&gt;Node18</title>
<path fill="none" stroke="midnightblue" d="M840.4,-179.45C814.97,-170.81 774.98,-156.79 741,-143 739.59,-142.43 738.14,-141.83 736.69,-141.21"/>
<polygon fill="midnightblue" stroke="midnightblue" points="737.73,-137.85 727.17,-137.04 734.92,-144.26 737.73,-137.85"/>
</g>
<!-- Node19 -->
<g id="node19" class="node">
<title>Node19</title>
<g id="a_node19"><a xlink:href="../../d1/d57/_ignore_unused_8h.html" target="_top" xlink:title=" ">
<polygon fill="none" stroke="black" points="750,-118 750,-137 878,-137 878,-118 750,-118"/>
<text text-anchor="middle" x="814" y="-125" font-family="Helvetica,sans-Serif" font-size="10.00">../misc/IgnoreUnused.h</text>
</a>
</g>
</g>
<!-- Node17&#45;&gt;Node19 -->
<g id="edge48" class="edge">
<title>Node17&#45;&gt;Node19</title>
<path fill="none" stroke="midnightblue" d="M858.55,-179.48C850.67,-170.46 838.06,-156.02 828.26,-144.81"/>
<polygon fill="midnightblue" stroke="midnightblue" points="830.65,-142.24 821.44,-137.01 825.38,-146.84 830.65,-142.24"/>
</g>
<!-- Node20 -->
<g id="node20" class="node">
<title>Node20</title>
<g id="a_node20"><a xlink:title=" ">
<polygon fill="none" stroke="#bfbfbf" points="896,-118 896,-137 964,-137 964,-118 896,-118"/>
<text text-anchor="middle" x="930" y="-125" font-family="Helvetica,sans-Serif" font-size="10.00">filesystem</text>
</a>
</g>
</g>
<!-- Node17&#45;&gt;Node20 -->
<g id="edge53" class="edge">
<title>Node17&#45;&gt;Node20</title>
<path fill="none" stroke="midnightblue" d="M875.17,-179.48C885.15,-170.2 901.31,-155.17 913.51,-143.83"/>
<polygon fill="midnightblue" stroke="midnightblue" points="915.91,-146.38 920.85,-137.01 911.14,-141.25 915.91,-146.38"/>
</g>
<!-- Node19&#45;&gt;Node2 -->
<g id="edge50" class="edge">
<title>Node19&#45;&gt;Node2</title>
<path fill="none" stroke="midnightblue" d="M842.23,-117.98C876.6,-107.59 934.81,-90.01 973.08,-78.45"/>
<polygon fill="midnightblue" stroke="midnightblue" points="974.27,-81.75 982.83,-75.51 972.24,-75.05 974.27,-81.75"/>
</g>
<!-- Node19&#45;&gt;Node3 -->
<g id="edge49" class="edge">
<title>Node19&#45;&gt;Node3</title>
<path fill="none" stroke="midnightblue" d="M852.5,-117.97C863.59,-115.75 875.74,-113.56 887,-112 1076.22,-85.87 1302.85,-73.66 1405.14,-69.16"/>
<polygon fill="midnightblue" stroke="midnightblue" points="1405.39,-72.65 1415.23,-68.72 1405.09,-65.66 1405.39,-72.65"/>
</g>
<!-- Node19&#45;&gt;Node4 -->
<g id="edge51" class="edge">
<title>Node19&#45;&gt;Node4</title>
<path fill="none" stroke="midnightblue" d="M797.16,-117.82C758.31,-97.79 662.19,-48.22 615.83,-24.32"/>
<polygon fill="midnightblue" stroke="midnightblue" points="617.22,-21.1 606.73,-19.62 614.01,-27.32 617.22,-21.1"/>
</g>
<!-- Node21&#45;&gt;Node2 -->
<g id="edge61" class="edge">
<title>Node21&#45;&gt;Node2</title>
<path fill="none" stroke="midnightblue" d="M1735.14,-571.47C1725.32,-553.39 1704,-509.59 1704,-470 1704,-470 1704,-470 1704,-300 1704,-223.63 1649.47,-214.77 1582,-179 1415.82,-90.9 1189.33,-71.71 1078.16,-67.79"/>
<polygon fill="midnightblue" stroke="midnightblue" points="1078.19,-64.29 1068.09,-67.47 1077.97,-71.28 1078.19,-64.29"/>
</g>
<!-- Node21&#45;&gt;Node3 -->
<g id="edge62" class="edge">
<title>Node21&#45;&gt;Node3</title>
<path fill="none" stroke="midnightblue" d="M1742.75,-571.22C1751.79,-541.55 1780,-442.2 1780,-358 1780,-358 1780,-358 1780,-300 1780,-215.77 1814.85,-172.27 1756,-112 1723.44,-78.65 1591.27,-69.94 1515,-67.72"/>
<polygon fill="midnightblue" stroke="midnightblue" points="1514.72,-64.21 1504.63,-67.45 1514.53,-71.21 1514.72,-64.21"/>
</g>
<!-- Node21&#45;&gt;Node4 -->
<g id="edge63" class="edge">
<title>Node21&#45;&gt;Node4</title>
<path fill="none" stroke="midnightblue" d="M1752.47,-571.39C1765.57,-562.35 1786.75,-547.7 1805,-535 1840.62,-510.2 1859.7,-514.27 1885,-479 1902.54,-454.54 1904,-444.1 1904,-414 1904,-414 1904,-414 1904,-126.5 1904,-107.76 2005.69,-108.06 1514,-56 1189.58,-21.65 798.26,-13.48 650.45,-11.57"/>
<polygon fill="midnightblue" stroke="midnightblue" points="650.28,-8.07 640.23,-11.44 650.19,-15.07 650.28,-8.07"/>
</g>
<!-- Node21&#45;&gt;Node5 -->
<g id="edge64" class="edge">
<title>Node21&#45;&gt;Node5</title>
<path fill="none" stroke="midnightblue" d="M1682.61,-579.18C1393.88,-574.71 114,-550.33 114,-470 114,-470 114,-470 114,-356 114,-241.16 128.84,-202.91 199,-112 209.29,-98.66 224.7,-87.92 238.15,-80.29"/>
<polygon fill="midnightblue" stroke="midnightblue" points="239.9,-83.32 247.05,-75.5 236.59,-77.15 239.9,-83.32"/>
</g>
<!-- Node21&#45;&gt;Node6 -->
<g id="edge65" class="edge">
<title>Node21&#45;&gt;Node6</title>
<path fill="none" stroke="midnightblue" d="M1687.87,-571.44C1626.34,-561.34 1524.63,-544.65 1463.11,-534.55"/>
<polygon fill="midnightblue" stroke="midnightblue" points="1463.66,-531.1 1453.22,-532.93 1462.52,-538 1463.66,-531.1"/>
</g>
<!-- Node21&#45;&gt;Node15 -->
<g id="edge69" class="edge">
<title>Node21&#45;&gt;Node15</title>
<path fill="none" stroke="midnightblue" d="M1719.98,-571.44C1687.76,-556.17 1628,-520.97 1628,-470 1628,-470 1628,-470 1628,-412 1628,-331.98 1581.88,-244.63 1560.11,-207.87"/>
<polygon fill="midnightblue" stroke="midnightblue" points="1562.85,-205.64 1554.68,-198.9 1556.86,-209.26 1562.85,-205.64"/>
</g>
<!-- Node21&#45;&gt;Node22 -->
<g id="edge66" class="edge">
<title>Node21&#45;&gt;Node22</title>
<path fill="none" stroke="midnightblue" d="M1748,-571.37C1765.06,-552.97 1805.21,-509.67 1827.12,-486.05"/>
<polygon fill="midnightblue" stroke="midnightblue" points="1829.8,-488.3 1834.03,-478.59 1824.67,-483.54 1829.8,-488.3"/>
</g>
<!-- Node22&#45;&gt;Node2 -->
<g id="edge67" class="edge">
<title>Node22&#45;&gt;Node2</title>
<path fill="none" stroke="midnightblue" d="M1838.76,-459.3C1832.21,-440.89 1818,-396.51 1818,-358 1818,-358 1818,-358 1818,-300 1818,-212.02 1825.71,-165.68 1756,-112 1729.38,-91.5 1256.58,-74.67 1078.29,-69.03"/>
<polygon fill="midnightblue" stroke="midnightblue" points="1078.35,-65.53 1068.25,-68.71 1078.13,-72.52 1078.35,-65.53"/>
</g>
<!-- Node22&#45;&gt;Node3 -->
<g id="edge68" class="edge">
<title>Node22&#45;&gt;Node3</title>
<path fill="none" stroke="midnightblue" d="M1843.83,-459.49C1847.63,-441.07 1856,-396.12 1856,-358 1856,-358 1856,-358 1856,-188 1856,-152.58 1859.26,-134.62 1832,-112 1784.94,-72.95 1606.37,-66.99 1514.83,-66.57"/>
<polygon fill="midnightblue" stroke="midnightblue" points="1514.66,-63.07 1504.65,-66.55 1514.64,-70.07 1514.66,-63.07"/>
</g>
</g>
</svg>
