<?xml version="1.0" encoding="UTF-8" standalone="no"?>
<!DOCTYPE svg PUBLIC "-//W3C//DTD SVG 1.1//EN"
 "http://www.w3.org/Graphics/SVG/1.1/DTD/svg11.dtd">
<!-- Generated by graphviz version 2.43.0 (0)
 -->
<!-- Title: Interval.h Pages: 1 -->
<!--zoomable 252 -->
<svg id="main" version="1.1" xmlns="http://www.w3.org/2000/svg" xmlns:xlink="http://www.w3.org/1999/xlink" xml:space="preserve" onload="init(evt)">
<style type="text/css"><![CDATA[
.edge:hover path { stroke: red; }
.edge:hover polygon { stroke: red; fill: red; }
]]></style>
<script type="text/javascript"><![CDATA[
var edges = document.getElementsByTagName('g');
if (edges && edges.length) {
  for (var i=0;i<edges.length;i++) {
    if (edges[i].id.substr(0,4)=='edge') {
      edges[i].setAttribute('class','edge');
    }
  }
}
]]></script>
        <defs>
                <circle id="rim" cx="0" cy="0" r="7"/>
                <circle id="rim2" cx="0" cy="0" r="3.5"/>
                <g id="zoomPlus">
                        <use xlink:href="#rim" fill="#404040">
                                <set attributeName="fill" to="#808080" begin="zoomplus.mouseover" end="zoomplus.mouseout"/>
                        </use>
                        <path d="M-4,0h8M0,-4v8" fill="none" stroke="white" stroke-width="1.5" pointer-events="none"/>
                </g>
                <g id="zoomMin">
                        <use xlink:href="#rim" fill="#404040">
                                <set attributeName="fill" to="#808080" begin="zoomminus.mouseover" end="zoomminus.mouseout"/>
                        </use>
                        <path d="M-4,0h8" fill="none" stroke="white" stroke-width="1.5" pointer-events="none"/>
                </g>
                <g id="dirArrow">
                        <path fill="none" stroke="white" stroke-width="1.5" d="M0,-3.0v7 M-2.5,-0.5L0,-3.0L2.5,-0.5"/>
                </g>
               <g id="resetDef">
                       <use xlink:href="#rim2" fill="#404040">
                               <set attributeName="fill" to="#808080" begin="reset.mouseover" end="reset.mouseout"/>
                       </use>
               </g>
        </defs>

<script type="text/javascript">
var viewWidth = 685;
var viewHeight = 252;
var sectionId = 'dynsection-0';
</script>
<script xlink:href="../../svgpan.js"/>
<svg id="graph" class="graph">
<g id="viewport">
<title>Interval.h</title>
<!-- Node1 -->
<g id="node1" class="node">
<title>Node1</title>
<g id="a_node1"><a xlink:title=" ">
<polygon fill="#bfbfbf" stroke="black" points="422,-224.5 422,-243.5 485,-243.5 485,-224.5 422,-224.5"/>
<text text-anchor="middle" x="453.5" y="-231.5" font-family="Helvetica,sans-Serif" font-size="10.00">Interval.h</text>
</a>
</g>
</g>
<!-- Node2 -->
<g id="node2" class="node">
<title>Node2</title>
<g id="a_node2"><a xlink:title=" ">
<polygon fill="none" stroke="#bfbfbf" points="0,-0.5 0,-19.5 89,-19.5 89,-0.5 0,-0.5"/>
<text text-anchor="middle" x="44.5" y="-7.5" font-family="Helvetica,sans-Serif" font-size="10.00">limes_export.h</text>
</a>
</g>
</g>
<!-- Node1&#45;&gt;Node2 -->
<g id="edge1" class="edge">
<title>Node1&#45;&gt;Node2</title>
<path fill="none" stroke="midnightblue" d="M421.63,-229.07C359.94,-220.25 221.73,-194.56 124.5,-132 94.37,-112.61 85.67,-106.27 66.5,-76 57.44,-61.69 51.65,-43.22 48.3,-29.63"/>
<polygon fill="midnightblue" stroke="midnightblue" points="51.65,-28.55 46.04,-19.56 44.82,-30.09 51.65,-28.55"/>
</g>
<!-- Node3 -->
<g id="node3" class="node">
<title>Node3</title>
<g id="a_node3"><a xlink:title=" ">
<polygon fill="none" stroke="#bfbfbf" points="630,-168.5 630,-187.5 677,-187.5 677,-168.5 630,-168.5"/>
<text text-anchor="middle" x="653.5" y="-175.5" font-family="Helvetica,sans-Serif" font-size="10.00">vector</text>
</a>
</g>
</g>
<!-- Node1&#45;&gt;Node3 -->
<g id="edge2" class="edge">
<title>Node1&#45;&gt;Node3</title>
<path fill="none" stroke="midnightblue" d="M485.19,-224.44C521.94,-214.52 582.26,-198.23 619.83,-188.09"/>
<polygon fill="midnightblue" stroke="midnightblue" points="621.04,-191.39 629.79,-185.4 619.22,-184.63 621.04,-191.39"/>
</g>
<!-- Node4 -->
<g id="node4" class="node">
<title>Node4</title>
<g id="a_node4"><a xlink:href="../../db/ddf/_pitch_8h.html" target="_top" xlink:title=" ">
<polygon fill="none" stroke="black" points="276,-168.5 276,-187.5 335,-187.5 335,-168.5 276,-168.5"/>
<text text-anchor="middle" x="305.5" y="-175.5" font-family="Helvetica,sans-Serif" font-size="10.00">../Pitch.h</text>
</a>
</g>
</g>
<!-- Node1&#45;&gt;Node4 -->
<g id="edge3" class="edge">
<title>Node1&#45;&gt;Node4</title>
<path fill="none" stroke="midnightblue" d="M430.05,-224.44C405.37,-215.44 366.31,-201.19 338.52,-191.05"/>
<polygon fill="midnightblue" stroke="midnightblue" points="339.44,-187.66 328.84,-187.52 337.04,-194.23 339.44,-187.66"/>
</g>
<!-- Node7 -->
<g id="node7" class="node">
<title>Node7</title>
<g id="a_node7"><a xlink:href="../../da/d0b/limes__namespace_8h.html" target="_top" xlink:title=" ">
<polygon fill="none" stroke="black" points="283.5,-0.5 283.5,-19.5 397.5,-19.5 397.5,-0.5 283.5,-0.5"/>
<text text-anchor="middle" x="340.5" y="-7.5" font-family="Helvetica,sans-Serif" font-size="10.00">limes_namespace.h</text>
</a>
</g>
</g>
<!-- Node1&#45;&gt;Node7 -->
<g id="edge20" class="edge">
<title>Node1&#45;&gt;Node7</title>
<path fill="none" stroke="midnightblue" d="M449.07,-224.3C432.3,-191.36 372.52,-73.9 349.56,-28.81"/>
<polygon fill="midnightblue" stroke="midnightblue" points="352.68,-27.21 345.02,-19.88 346.44,-30.38 352.68,-27.21"/>
</g>
<!-- Node8 -->
<g id="node8" class="node">
<title>Node8</title>
<g id="a_node8"><a xlink:href="../../d9/df8/limes__core_8h.html" target="_top" xlink:title=" ">
<polygon fill="none" stroke="red" points="416,-0.5 416,-19.5 495,-19.5 495,-0.5 416,-0.5"/>
<text text-anchor="middle" x="455.5" y="-7.5" font-family="Helvetica,sans-Serif" font-size="10.00">limes_core.h</text>
</a>
</g>
</g>
<!-- Node1&#45;&gt;Node8 -->
<g id="edge19" class="edge">
<title>Node1&#45;&gt;Node8</title>
<path fill="none" stroke="midnightblue" d="M468.65,-224.41C511.7,-198.91 628.69,-121.37 582.5,-56 565.01,-31.24 532.68,-20.02 505.02,-14.97"/>
<polygon fill="midnightblue" stroke="midnightblue" points="505.51,-11.51 495.08,-13.38 504.4,-18.42 505.51,-11.51"/>
</g>
<!-- Node128 -->
<g id="node11" class="node">
<title>Node128</title>
<g id="a_node11"><a xlink:href="../../d6/dfa/_interval__impl_8h.html" target="_top" xlink:title=" ">
<polygon fill="none" stroke="black" points="483.5,-56.5 483.5,-75.5 573.5,-75.5 573.5,-56.5 483.5,-56.5"/>
<text text-anchor="middle" x="528.5" y="-63.5" font-family="Helvetica,sans-Serif" font-size="10.00">Interval_impl.h</text>
</a>
</g>
</g>
<!-- Node1&#45;&gt;Node128 -->
<g id="edge21" class="edge">
<title>Node1&#45;&gt;Node128</title>
<path fill="none" stroke="midnightblue" d="M457.53,-224.08C469.39,-197.83 504.31,-120.55 520.31,-85.12"/>
<polygon fill="midnightblue" stroke="midnightblue" points="523.7,-86.12 524.63,-75.57 517.32,-83.24 523.7,-86.12"/>
</g>
<!-- Node4&#45;&gt;Node2 -->
<g id="edge16" class="edge">
<title>Node4&#45;&gt;Node2</title>
<path fill="none" stroke="midnightblue" d="M275.86,-170.37C246.6,-163.18 201.06,-150.24 164.5,-132 125.99,-112.79 115.1,-107.24 85.5,-76 72.06,-61.82 60.58,-42.59 53.21,-28.73"/>
<polygon fill="midnightblue" stroke="midnightblue" points="56.28,-27.04 48.61,-19.74 50.05,-30.23 56.28,-27.04"/>
</g>
<!-- Node5 -->
<g id="node5" class="node">
<title>Node5</title>
<g id="a_node5"><a xlink:href="../../d4/dc3/_pitch_class_8h.html" target="_top" xlink:title=" ">
<polygon fill="none" stroke="black" points="237.5,-56.5 237.5,-75.5 313.5,-75.5 313.5,-56.5 237.5,-56.5"/>
<text text-anchor="middle" x="275.5" y="-63.5" font-family="Helvetica,sans-Serif" font-size="10.00">PitchClass.h</text>
</a>
</g>
</g>
<!-- Node4&#45;&gt;Node5 -->
<g id="edge4" class="edge">
<title>Node4&#45;&gt;Node5</title>
<path fill="none" stroke="midnightblue" d="M303.15,-168.37C298.28,-150.54 287.04,-109.3 280.48,-85.27"/>
<polygon fill="midnightblue" stroke="midnightblue" points="283.85,-84.32 277.84,-75.59 277.1,-86.16 283.85,-84.32"/>
</g>
<!-- Node4&#45;&gt;Node7 -->
<g id="edge17" class="edge">
<title>Node4&#45;&gt;Node7</title>
<path fill="none" stroke="midnightblue" d="M307.38,-168.08C312.89,-141.95 329.07,-65.21 336.58,-29.58"/>
<polygon fill="midnightblue" stroke="midnightblue" points="340.06,-30.08 338.69,-19.57 333.21,-28.63 340.06,-30.08"/>
</g>
<!-- Node4&#45;&gt;Node8 -->
<g id="edge18" class="edge">
<title>Node4&#45;&gt;Node8</title>
<path fill="none" stroke="midnightblue" d="M313.56,-168.08C337.69,-141.38 409.54,-61.87 440.75,-27.32"/>
<polygon fill="midnightblue" stroke="midnightblue" points="443.65,-29.33 447.76,-19.57 438.46,-24.64 443.65,-29.33"/>
</g>
<!-- Node127 -->
<g id="node9" class="node">
<title>Node127</title>
<g id="a_node9"><a xlink:href="../../d5/d5b/_pitch_utils_8h.html" target="_top" xlink:title=" ">
<polygon fill="none" stroke="black" points="173.5,-112.5 173.5,-131.5 245.5,-131.5 245.5,-112.5 173.5,-112.5"/>
<text text-anchor="middle" x="209.5" y="-119.5" font-family="Helvetica,sans-Serif" font-size="10.00">PitchUtils.h</text>
</a>
</g>
</g>
<!-- Node4&#45;&gt;Node127 -->
<g id="edge9" class="edge">
<title>Node4&#45;&gt;Node127</title>
<path fill="none" stroke="midnightblue" d="M290.08,-168.32C274.96,-159.82 251.68,-146.73 234.03,-136.8"/>
<polygon fill="midnightblue" stroke="midnightblue" points="235.32,-133.51 224.89,-131.65 231.89,-139.61 235.32,-133.51"/>
</g>
<!-- Node5&#45;&gt;Node2 -->
<g id="edge6" class="edge">
<title>Node5&#45;&gt;Node2</title>
<path fill="none" stroke="midnightblue" d="M238.9,-56.44C198.77,-47.06 134.3,-31.99 90.72,-21.8"/>
<polygon fill="midnightblue" stroke="midnightblue" points="91.47,-18.38 80.93,-19.52 89.87,-25.2 91.47,-18.38"/>
</g>
<!-- Node6 -->
<g id="node6" class="node">
<title>Node6</title>
<g id="a_node6"><a xlink:title=" ">
<polygon fill="none" stroke="#bfbfbf" points="174.5,-0.5 174.5,-19.5 216.5,-19.5 216.5,-0.5 174.5,-0.5"/>
<text text-anchor="middle" x="195.5" y="-7.5" font-family="Helvetica,sans-Serif" font-size="10.00">array</text>
</a>
</g>
</g>
<!-- Node5&#45;&gt;Node6 -->
<g id="edge5" class="edge">
<title>Node5&#45;&gt;Node6</title>
<path fill="none" stroke="midnightblue" d="M262.65,-56.32C250.28,-47.98 231.37,-35.21 216.76,-25.35"/>
<polygon fill="midnightblue" stroke="midnightblue" points="218.57,-22.35 208.32,-19.65 214.65,-28.15 218.57,-22.35"/>
</g>
<!-- Node5&#45;&gt;Node7 -->
<g id="edge7" class="edge">
<title>Node5&#45;&gt;Node7</title>
<path fill="none" stroke="midnightblue" d="M285.94,-56.32C295.65,-48.26 310.32,-36.08 322,-26.37"/>
<polygon fill="midnightblue" stroke="midnightblue" points="324.41,-28.92 329.87,-19.83 319.94,-23.53 324.41,-28.92"/>
</g>
<!-- Node5&#45;&gt;Node8 -->
<g id="edge8" class="edge">
<title>Node5&#45;&gt;Node8</title>
<path fill="none" stroke="midnightblue" d="M304.02,-56.44C334.57,-47.28 383.21,-32.69 417.1,-22.52"/>
<polygon fill="midnightblue" stroke="midnightblue" points="418.54,-25.74 427.11,-19.52 416.53,-19.04 418.54,-25.74"/>
</g>
<!-- Node127&#45;&gt;Node2 -->
<g id="edge14" class="edge">
<title>Node127&#45;&gt;Node2</title>
<path fill="none" stroke="midnightblue" d="M185.9,-112.38C165.76,-104.47 136.49,-91.62 113.5,-76 92.79,-61.93 72.33,-41.62 59.13,-27.47"/>
<polygon fill="midnightblue" stroke="midnightblue" points="61.58,-24.96 52.25,-19.93 56.41,-29.68 61.58,-24.96"/>
</g>
<!-- Node127&#45;&gt;Node5 -->
<g id="edge10" class="edge">
<title>Node127&#45;&gt;Node5</title>
<path fill="none" stroke="midnightblue" d="M220.1,-112.32C229.96,-104.26 244.85,-92.08 256.72,-82.37"/>
<polygon fill="midnightblue" stroke="midnightblue" points="259.18,-84.88 264.7,-75.83 254.75,-79.46 259.18,-84.88"/>
</g>
<!-- Node127&#45;&gt;Node6 -->
<g id="edge11" class="edge">
<title>Node127&#45;&gt;Node6</title>
<path fill="none" stroke="midnightblue" d="M173.25,-112.5C154.01,-105.95 132.02,-94.73 120.5,-76 106.19,-52.73 138.37,-33.36 164.94,-21.97"/>
<polygon fill="midnightblue" stroke="midnightblue" points="166.43,-25.15 174.38,-18.15 163.8,-18.66 166.43,-25.15"/>
</g>
<!-- Node127&#45;&gt;Node7 -->
<g id="edge15" class="edge">
<title>Node127&#45;&gt;Node7</title>
<path fill="none" stroke="midnightblue" d="M209.71,-112.27C210.51,-98.59 213.97,-72.03 228.5,-56 243.26,-39.72 264.71,-29.23 284.91,-22.52"/>
<polygon fill="midnightblue" stroke="midnightblue" points="286.15,-25.8 294.68,-19.51 284.09,-19.1 286.15,-25.8"/>
</g>
<!-- Node127&#45;&gt;Node8 -->
<g id="edge13" class="edge">
<title>Node127&#45;&gt;Node8</title>
<path fill="none" stroke="midnightblue" d="M232.65,-112.37C255.64,-103.66 291.8,-89.59 322.5,-76 360.38,-59.23 403.29,-37.81 429.88,-24.24"/>
<polygon fill="midnightblue" stroke="midnightblue" points="431.59,-27.29 438.89,-19.62 428.4,-21.06 431.59,-27.29"/>
</g>
<!-- Node70 -->
<g id="node10" class="node">
<title>Node70</title>
<g id="a_node10"><a xlink:title=" ">
<polygon fill="none" stroke="#bfbfbf" points="129.5,-56.5 129.5,-75.5 181.5,-75.5 181.5,-56.5 129.5,-56.5"/>
<text text-anchor="middle" x="155.5" y="-63.5" font-family="Helvetica,sans-Serif" font-size="10.00">cassert</text>
</a>
</g>
</g>
<!-- Node127&#45;&gt;Node70 -->
<g id="edge12" class="edge">
<title>Node127&#45;&gt;Node70</title>
<path fill="none" stroke="midnightblue" d="M200.58,-112.08C192.72,-104.22 181.07,-92.57 171.58,-83.08"/>
<polygon fill="midnightblue" stroke="midnightblue" points="173.8,-80.35 164.25,-75.75 168.85,-85.3 173.8,-80.35"/>
</g>
<!-- Node128&#45;&gt;Node7 -->
<g id="edge23" class="edge">
<title>Node128&#45;&gt;Node7</title>
<path fill="none" stroke="midnightblue" d="M498.71,-56.44C466.67,-47.24 415.57,-32.56 380.15,-22.39"/>
<polygon fill="midnightblue" stroke="midnightblue" points="380.73,-18.91 370.15,-19.52 378.79,-25.64 380.73,-18.91"/>
</g>
<!-- Node128&#45;&gt;Node8 -->
<g id="edge22" class="edge">
<title>Node128&#45;&gt;Node8</title>
<path fill="none" stroke="midnightblue" d="M516.77,-56.32C505.66,-48.11 488.76,-35.6 475.52,-25.81"/>
<polygon fill="midnightblue" stroke="midnightblue" points="477.56,-22.97 467.44,-19.83 473.4,-28.59 477.56,-22.97"/>
</g>
</g>
</svg>
        <g id="navigator" transform="translate(0 0)" fill="#404254">
                <rect fill="#f2f5e9" fill-opacity="0.5" stroke="#606060" stroke-width=".5" x="0" y="0" width="60" height="60"/>
                <use id="zoomplus" xlink:href="#zoomPlus" x="17" y="9" onmousedown="handleZoom(evt,'in')"/>
                <use id="zoomminus" xlink:href="#zoomMin" x="42" y="9" onmousedown="handleZoom(evt,'out')"/>
                <use id="reset" xlink:href="#resetDef" x="30" y="36" onmousedown="handleReset()"/>
                <g id="arrowUp" xlink:href="#dirArrow" transform="translate(30 24)" onmousedown="handlePan(0,-1)">
                  <use xlink:href="#rim" fill="#404040">
                        <set attributeName="fill" to="#808080" begin="arrowUp.mouseover" end="arrowUp.mouseout"/>
                  </use>
                  <path fill="none" stroke="white" stroke-width="1.5" d="M0,-3.0v7 M-2.5,-0.5L0,-3.0L2.5,-0.5"/>
                </g>
                <g id="arrowRight" xlink:href="#dirArrow" transform="rotate(90) translate(36 -43)" onmousedown="handlePan(1,0)">
                  <use xlink:href="#rim" fill="#404040">
                        <set attributeName="fill" to="#808080" begin="arrowRight.mouseover" end="arrowRight.mouseout"/>
                  </use>
                  <path fill="none" stroke="white" stroke-width="1.5" d="M0,-3.0v7 M-2.5,-0.5L0,-3.0L2.5,-0.5"/>
                </g>
                <g id="arrowDown" xlink:href="#dirArrow" transform="rotate(180) translate(-30 -48)" onmousedown="handlePan(0,1)">
                  <use xlink:href="#rim" fill="#404040">
                        <set attributeName="fill" to="#808080" begin="arrowDown.mouseover" end="arrowDown.mouseout"/>
                  </use>
                  <path fill="none" stroke="white" stroke-width="1.5" d="M0,-3.0v7 M-2.5,-0.5L0,-3.0L2.5,-0.5"/>
                </g>
                <g id="arrowLeft" xlink:href="#dirArrow" transform="rotate(270) translate(-36 17)" onmousedown="handlePan(-1,0)">
                  <use xlink:href="#rim" fill="#404040">
                        <set attributeName="fill" to="#808080" begin="arrowLeft.mouseover" end="arrowLeft.mouseout"/>
                  </use>
                  <path fill="none" stroke="white" stroke-width="1.5" d="M0,-3.0v7 M-2.5,-0.5L0,-3.0L2.5,-0.5"/>
                </g>
        </g>
        <svg viewBox="0 0 15 15" width="100%" height="30px" preserveAspectRatio="xMaxYMin meet">
         <g id="arrow_out" transform="scale(0.3 0.3)">
          <a xlink:href="_interval_8h__incl_org.svg" target="_base">
           <rect id="button" ry="5" rx="5" y="6" x="6" height="38" width="38"
                fill="#f2f5e9" fill-opacity="0.5" stroke="#606060" stroke-width="1.0"/>
           <path id="arrow"
             d="M 11.500037,31.436501 C 11.940474,20.09759 22.043105,11.32322 32.158766,21.979434 L 37.068811,17.246167 C 37.068811,17.246167 37.088388,32 37.088388,32 L 22.160133,31.978069 C 22.160133,31.978069 26.997745,27.140456 26.997745,27.140456 C 18.528582,18.264221 13.291696,25.230495 11.500037,31.436501 z"
             style="fill:#404040;"/>
          </a>
         </g>
        </svg>
</svg>
