<?xml version="1.0" encoding="UTF-8" standalone="no"?>
<!DOCTYPE svg PUBLIC "-//W3C//DTD SVG 1.1//EN"
 "http://www.w3.org/Graphics/SVG/1.1/DTD/svg11.dtd">
<!-- Generated by graphviz version 2.43.0 (0)
 -->
<!-- Title: limes::threads::detail::is_rt_safe&lt; T, Tag1, Tag2 &gt; Pages: 1 -->
<svg width="841pt" height="399pt"
 viewBox="0.00 0.00 841.00 399.00" xmlns="http://www.w3.org/2000/svg" xmlns:xlink="http://www.w3.org/1999/xlink">
<g id="graph0" class="graph" transform="scale(1 1) rotate(0) translate(4 395)">
<title>limes::threads::detail::is_rt_safe&lt; T, Tag1, Tag2 &gt;</title>
<!-- Node1 -->
<g id="node1" class="node">
<title>Node1</title>
<g id="a_node1"><a xlink:title="Represents a query for realtime safety of the operation represented by Tag1 and Tag2 on the type T .">
<polygon fill="#bfbfbf" stroke="black" points="105,-120.5 105,-161.5 225,-161.5 225,-120.5 105,-120.5"/>
<text text-anchor="start" x="113" y="-149.5" font-family="Helvetica,sans-Serif" font-size="10.00">limes::threads::detail</text>
<text text-anchor="start" x="113" y="-138.5" font-family="Helvetica,sans-Serif" font-size="10.00">::is_rt_safe&lt; T, Tag1,</text>
<text text-anchor="middle" x="165" y="-127.5" font-family="Helvetica,sans-Serif" font-size="10.00"> Tag2 &gt;</text>
</a>
</g>
</g>
<!-- Node3 -->
<g id="node3" class="node">
<title>Node3</title>
<g id="a_node3"><a xlink:href="../../d8/d3f/structlimes_1_1threads_1_1detail_1_1is__rt__safe.html" target="_top" xlink:title=" ">
<polygon fill="none" stroke="black" points="436.5,-271.5 436.5,-312.5 557.5,-312.5 557.5,-271.5 436.5,-271.5"/>
<text text-anchor="start" x="444.5" y="-300.5" font-family="Helvetica,sans-Serif" font-size="10.00">limes::threads::detail</text>
<text text-anchor="start" x="444.5" y="-289.5" font-family="Helvetica,sans-Serif" font-size="10.00">::is_rt_safe&lt; T, move</text>
<text text-anchor="middle" x="497" y="-278.5" font-family="Helvetica,sans-Serif" font-size="10.00">_tag, Tag &gt;</text>
</a>
</g>
</g>
<!-- Node1&#45;&gt;Node3 -->
<g id="edge2" class="edge">
<title>Node1&#45;&gt;Node3</title>
<path fill="none" stroke="orange" stroke-dasharray="5,2" d="M189.52,-169.4C203.62,-184.82 222.71,-203.1 243,-215 303.89,-250.72 382.9,-271.3 436.3,-282.05"/>
<polygon fill="orange" stroke="orange" points="191.88,-166.79 182.62,-161.65 186.65,-171.45 191.88,-166.79"/>
<text text-anchor="middle" x="309.5" y="-270" font-family="Helvetica,sans-Serif" font-size="10.00"> &lt; T, move_tag, Tag &gt;</text>
</g>
<!-- Node7 -->
<g id="node7" class="node">
<title>Node7</title>
<g id="a_node7"><a xlink:href="../../d8/d3f/structlimes_1_1threads_1_1detail_1_1is__rt__safe.html" target="_top" xlink:title=" ">
<polygon fill="none" stroke="black" points="401.5,-180.5 401.5,-221.5 592.5,-221.5 592.5,-180.5 401.5,-180.5"/>
<text text-anchor="start" x="409.5" y="-209.5" font-family="Helvetica,sans-Serif" font-size="10.00">limes::threads::detail</text>
<text text-anchor="start" x="409.5" y="-198.5" font-family="Helvetica,sans-Serif" font-size="10.00">::is_rt_safe&lt; T, detail</text>
<text text-anchor="middle" x="497" y="-187.5" font-family="Helvetica,sans-Serif" font-size="10.00">::copy_tag, detail::assignable_tag &gt;</text>
</a>
</g>
</g>
<!-- Node1&#45;&gt;Node7 -->
<g id="edge6" class="edge">
<title>Node1&#45;&gt;Node7</title>
<path fill="none" stroke="orange" stroke-dasharray="5,2" d="M232.66,-164.37C236.14,-165.32 239.6,-166.21 243,-167 294.68,-179.08 353.37,-187.3 401.2,-192.62"/>
<polygon fill="orange" stroke="orange" points="233.41,-160.95 222.83,-161.55 231.48,-167.68 233.41,-160.95"/>
<text text-anchor="start" x="248.5" y="-203" font-family="Helvetica,sans-Serif" font-size="10.00"> &lt; T, detail::copy_tag,</text>
<text text-anchor="middle" x="309.5" y="-192" font-family="Helvetica,sans-Serif" font-size="10.00"> detail::assignable_tag &gt;</text>
</g>
<!-- Node9 -->
<g id="node9" class="node">
<title>Node9</title>
<g id="a_node9"><a xlink:href="../../d8/d3f/structlimes_1_1threads_1_1detail_1_1is__rt__safe.html" target="_top" xlink:title=" ">
<polygon fill="none" stroke="black" points="394,-120.5 394,-161.5 600,-161.5 600,-120.5 394,-120.5"/>
<text text-anchor="start" x="402" y="-149.5" font-family="Helvetica,sans-Serif" font-size="10.00">limes::threads::detail</text>
<text text-anchor="start" x="402" y="-138.5" font-family="Helvetica,sans-Serif" font-size="10.00">::is_rt_safe&lt; T, detail</text>
<text text-anchor="middle" x="497" y="-127.5" font-family="Helvetica,sans-Serif" font-size="10.00">::move_tag, detail::constructible_tag &gt;</text>
</a>
</g>
</g>
<!-- Node1&#45;&gt;Node9 -->
<g id="edge8" class="edge">
<title>Node1&#45;&gt;Node9</title>
<path fill="none" stroke="orange" stroke-dasharray="5,2" d="M235.52,-141C281.41,-141 342.31,-141 393.69,-141"/>
<polygon fill="orange" stroke="orange" points="235.38,-137.5 225.38,-141 235.38,-144.5 235.38,-137.5"/>
<text text-anchor="start" x="243" y="-155" font-family="Helvetica,sans-Serif" font-size="10.00"> &lt; T, detail::move_tag,</text>
<text text-anchor="middle" x="309.5" y="-144" font-family="Helvetica,sans-Serif" font-size="10.00"> detail::constructible_tag &gt;</text>
</g>
<!-- Node11 -->
<g id="node11" class="node">
<title>Node11</title>
<g id="a_node11"><a xlink:href="../../d8/d3f/structlimes_1_1threads_1_1detail_1_1is__rt__safe.html" target="_top" xlink:title=" ">
<polygon fill="none" stroke="black" points="396,-60.5 396,-101.5 598,-101.5 598,-60.5 396,-60.5"/>
<text text-anchor="start" x="404" y="-89.5" font-family="Helvetica,sans-Serif" font-size="10.00">limes::threads::detail</text>
<text text-anchor="start" x="404" y="-78.5" font-family="Helvetica,sans-Serif" font-size="10.00">::is_rt_safe&lt; T, detail</text>
<text text-anchor="middle" x="497" y="-67.5" font-family="Helvetica,sans-Serif" font-size="10.00">::copy_tag, detail::constructible_tag &gt;</text>
</a>
</g>
</g>
<!-- Node1&#45;&gt;Node11 -->
<g id="edge10" class="edge">
<title>Node1&#45;&gt;Node11</title>
<path fill="none" stroke="orange" stroke-dasharray="5,2" d="M232.66,-117.63C236.14,-116.68 239.6,-115.79 243,-115 292.74,-103.37 348.97,-95.33 395.77,-89.99"/>
<polygon fill="orange" stroke="orange" points="231.48,-114.32 222.83,-120.45 233.41,-121.05 231.48,-114.32"/>
<text text-anchor="start" x="243" y="-129" font-family="Helvetica,sans-Serif" font-size="10.00"> &lt; T, detail::copy_tag,</text>
<text text-anchor="middle" x="309.5" y="-118" font-family="Helvetica,sans-Serif" font-size="10.00"> detail::constructible_tag &gt;</text>
</g>
<!-- Node13 -->
<g id="node13" class="node">
<title>Node13</title>
<g id="a_node13"><a xlink:href="../../d8/d3f/structlimes_1_1threads_1_1detail_1_1is__rt__safe.html" target="_top" xlink:title=" ">
<polygon fill="none" stroke="black" points="399,-0.5 399,-41.5 595,-41.5 595,-0.5 399,-0.5"/>
<text text-anchor="start" x="407" y="-29.5" font-family="Helvetica,sans-Serif" font-size="10.00">limes::threads::detail</text>
<text text-anchor="start" x="407" y="-18.5" font-family="Helvetica,sans-Serif" font-size="10.00">::is_rt_safe&lt; T, detail</text>
<text text-anchor="middle" x="497" y="-7.5" font-family="Helvetica,sans-Serif" font-size="10.00">::move_tag, detail::assignable_tag &gt;</text>
</a>
</g>
</g>
<!-- Node1&#45;&gt;Node13 -->
<g id="edge12" class="edge">
<title>Node1&#45;&gt;Node13</title>
<path fill="none" stroke="orange" stroke-dasharray="5,2" d="M188.46,-112.32C202.44,-96.47 221.77,-77.85 243,-67 291,-42.46 350,-30.83 398.95,-25.4"/>
<polygon fill="orange" stroke="orange" points="185.48,-110.42 181.65,-120.3 190.81,-114.96 185.48,-110.42"/>
<text text-anchor="start" x="248.5" y="-81" font-family="Helvetica,sans-Serif" font-size="10.00"> &lt; T, detail::move_tag,</text>
<text text-anchor="middle" x="309.5" y="-70" font-family="Helvetica,sans-Serif" font-size="10.00"> detail::assignable_tag &gt;</text>
</g>
<!-- Node2 -->
<g id="node2" class="node">
<title>Node2</title>
<g id="a_node2"><a xlink:title=" ">
<polygon fill="none" stroke="#bfbfbf" points="0,-131.5 0,-150.5 68,-150.5 68,-131.5 0,-131.5"/>
<text text-anchor="middle" x="34" y="-138.5" font-family="Helvetica,sans-Serif" font-size="10.00">false_type</text>
</a>
</g>
</g>
<!-- Node2&#45;&gt;Node1 -->
<g id="edge1" class="edge">
<title>Node2&#45;&gt;Node1</title>
<path fill="none" stroke="midnightblue" d="M78.3,-141C86.83,-141 95.91,-141 104.86,-141"/>
<polygon fill="midnightblue" stroke="midnightblue" points="78.22,-137.5 68.22,-141 78.22,-144.5 78.22,-137.5"/>
</g>
<!-- Node4 -->
<g id="node4" class="node">
<title>Node4</title>
<g id="a_node4"><a xlink:href="../../d6/d80/structlimes_1_1threads_1_1detail_1_1is__rt__safe_3_01std_1_1set_3_01_t_01_4_00_01move__tag_00_01_tag_01_4.html" target="_top" xlink:title="Specialization of the is_rt_safe class template for move operations within a std::set .">
<polygon fill="none" stroke="black" points="668,-349.5 668,-390.5 802,-390.5 802,-349.5 668,-349.5"/>
<text text-anchor="start" x="676" y="-378.5" font-family="Helvetica,sans-Serif" font-size="10.00">limes::threads::detail</text>
<text text-anchor="start" x="676" y="-367.5" font-family="Helvetica,sans-Serif" font-size="10.00">::is_rt_safe&lt; std::set</text>
<text text-anchor="middle" x="735" y="-356.5" font-family="Helvetica,sans-Serif" font-size="10.00">&lt; T &gt;, move_tag, Tag &gt;</text>
</a>
</g>
</g>
<!-- Node3&#45;&gt;Node4 -->
<g id="edge3" class="edge">
<title>Node3&#45;&gt;Node4</title>
<path fill="none" stroke="midnightblue" d="M565.55,-315.82C588.2,-323.68 613.65,-332.36 637,-340 646.97,-343.26 657.54,-346.63 667.9,-349.87"/>
<polygon fill="midnightblue" stroke="midnightblue" points="566.61,-312.49 556.02,-312.51 564.32,-319.1 566.61,-312.49"/>
</g>
<!-- Node5 -->
<g id="node5" class="node">
<title>Node5</title>
<g id="a_node5"><a xlink:href="../../d7/dcc/structlimes_1_1threads_1_1detail_1_1is__rt__safe_3_01std_1_1unordered__set_3_01_t_01_4_00_01move__tag_00_01_tag_01_4.html" target="_top" xlink:title="Specialization of the is_rt_safe class template for move operations within a std::unordered_set .">
<polygon fill="none" stroke="black" points="658,-289.5 658,-330.5 812,-330.5 812,-289.5 658,-289.5"/>
<text text-anchor="start" x="666" y="-318.5" font-family="Helvetica,sans-Serif" font-size="10.00">limes::threads::detail</text>
<text text-anchor="start" x="666" y="-307.5" font-family="Helvetica,sans-Serif" font-size="10.00">::is_rt_safe&lt; std::unordered</text>
<text text-anchor="middle" x="735" y="-296.5" font-family="Helvetica,sans-Serif" font-size="10.00">_set&lt; T &gt;, move_tag, Tag &gt;</text>
</a>
</g>
</g>
<!-- Node3&#45;&gt;Node5 -->
<g id="edge4" class="edge">
<title>Node3&#45;&gt;Node5</title>
<path fill="none" stroke="midnightblue" d="M567.78,-297.32C596.13,-299.48 628.96,-301.99 657.92,-304.2"/>
<polygon fill="midnightblue" stroke="midnightblue" points="567.79,-293.81 557.55,-296.54 567.26,-300.79 567.79,-293.81"/>
</g>
<!-- Node6 -->
<g id="node6" class="node">
<title>Node6</title>
<g id="a_node6"><a xlink:href="../../dc/d36/structlimes_1_1threads_1_1detail_1_1is__rt__safe_3_01std_1_1vector_3_01_t_01_4_00_01move__tag_00_01_tag_01_4.html" target="_top" xlink:title="Specialization of the is_rt_safe class template for move operations within a std::vector .">
<polygon fill="none" stroke="black" points="668,-229.5 668,-270.5 802,-270.5 802,-229.5 668,-229.5"/>
<text text-anchor="start" x="676" y="-258.5" font-family="Helvetica,sans-Serif" font-size="10.00">limes::threads::detail</text>
<text text-anchor="start" x="676" y="-247.5" font-family="Helvetica,sans-Serif" font-size="10.00">::is_rt_safe&lt; std::vector</text>
<text text-anchor="middle" x="735" y="-236.5" font-family="Helvetica,sans-Serif" font-size="10.00">&lt; T &gt;, move_tag, Tag &gt;</text>
</a>
</g>
</g>
<!-- Node3&#45;&gt;Node6 -->
<g id="edge5" class="edge">
<title>Node3&#45;&gt;Node6</title>
<path fill="none" stroke="midnightblue" d="M567.62,-279.61C599.28,-273.97 636.57,-267.34 667.81,-261.78"/>
<polygon fill="midnightblue" stroke="midnightblue" points="566.78,-276.2 557.55,-281.4 568.01,-283.1 566.78,-276.2"/>
</g>
<!-- Node8 -->
<g id="node8" class="node">
<title>Node8</title>
<g id="a_node8"><a xlink:href="../../d5/dd1/structlimes_1_1threads_1_1is__realtime__copy__assignable.html" target="_top" xlink:title="A compile&#45;time boolean constant that evaluates to true if the type T is realtime&#45;safe copy assignable...">
<polygon fill="none" stroke="black" points="646,-180 646,-210 824,-210 824,-180 646,-180"/>
<text text-anchor="start" x="654" y="-198" font-family="Helvetica,sans-Serif" font-size="10.00">limes::threads::is</text>
<text text-anchor="middle" x="735" y="-187" font-family="Helvetica,sans-Serif" font-size="10.00">_realtime_copy_assignable&lt; T &gt;</text>
</a>
</g>
</g>
<!-- Node7&#45;&gt;Node8 -->
<g id="edge7" class="edge">
<title>Node7&#45;&gt;Node8</title>
<path fill="none" stroke="midnightblue" d="M602.99,-198.33C617.31,-197.97 631.88,-197.6 645.85,-197.24"/>
<polygon fill="midnightblue" stroke="midnightblue" points="602.54,-194.84 592.63,-198.59 602.72,-201.84 602.54,-194.84"/>
</g>
<!-- Node10 -->
<g id="node10" class="node">
<title>Node10</title>
<g id="a_node10"><a xlink:href="../../d3/d0b/structlimes_1_1threads_1_1is__realtime__move__constructable.html" target="_top" xlink:title="A compile&#45;time boolean constant that evaluates to true if the type T is realtime&#45;safe move constructa...">
<polygon fill="none" stroke="black" points="637,-126 637,-156 833,-156 833,-126 637,-126"/>
<text text-anchor="start" x="645" y="-144" font-family="Helvetica,sans-Serif" font-size="10.00">limes::threads::is</text>
<text text-anchor="middle" x="735" y="-133" font-family="Helvetica,sans-Serif" font-size="10.00">_realtime_move_constructable&lt; T &gt;</text>
</a>
</g>
</g>
<!-- Node9&#45;&gt;Node10 -->
<g id="edge9" class="edge">
<title>Node9&#45;&gt;Node10</title>
<path fill="none" stroke="midnightblue" d="M610.2,-141C619.13,-141 628.11,-141 636.92,-141"/>
<polygon fill="midnightblue" stroke="midnightblue" points="610.14,-137.5 600.14,-141 610.14,-144.5 610.14,-137.5"/>
</g>
<!-- Node12 -->
<g id="node12" class="node">
<title>Node12</title>
<g id="a_node12"><a xlink:href="../../dd/dcc/structlimes_1_1threads_1_1is__realtime__copy__constructable.html" target="_top" xlink:title="A compile&#45;time boolean constant that evaluates to true if the type T is realtime&#45;safe copy constructa...">
<polygon fill="none" stroke="black" points="639.5,-66 639.5,-96 830.5,-96 830.5,-66 639.5,-66"/>
<text text-anchor="start" x="647.5" y="-84" font-family="Helvetica,sans-Serif" font-size="10.00">limes::threads::is</text>
<text text-anchor="middle" x="735" y="-73" font-family="Helvetica,sans-Serif" font-size="10.00">_realtime_copy_constructable&lt; T &gt;</text>
</a>
</g>
</g>
<!-- Node11&#45;&gt;Node12 -->
<g id="edge11" class="edge">
<title>Node11&#45;&gt;Node12</title>
<path fill="none" stroke="midnightblue" d="M608.41,-81C618.76,-81 629.2,-81 639.39,-81"/>
<polygon fill="midnightblue" stroke="midnightblue" points="608.09,-77.5 598.09,-81 608.09,-84.5 608.09,-77.5"/>
</g>
<!-- Node14 -->
<g id="node14" class="node">
<title>Node14</title>
<g id="a_node14"><a xlink:href="../../d4/d52/structlimes_1_1threads_1_1is__realtime__move__assignable.html" target="_top" xlink:title="A compile&#45;time boolean constant that evaluates to true if the type T is realtime&#45;safe move assignable...">
<polygon fill="none" stroke="black" points="644,-6 644,-36 826,-36 826,-6 644,-6"/>
<text text-anchor="start" x="652" y="-24" font-family="Helvetica,sans-Serif" font-size="10.00">limes::threads::is</text>
<text text-anchor="middle" x="735" y="-13" font-family="Helvetica,sans-Serif" font-size="10.00">_realtime_move_assignable&lt; T &gt;</text>
</a>
</g>
</g>
<!-- Node13&#45;&gt;Node14 -->
<g id="edge13" class="edge">
<title>Node13&#45;&gt;Node14</title>
<path fill="none" stroke="midnightblue" d="M605.29,-21C618.17,-21 631.21,-21 643.81,-21"/>
<polygon fill="midnightblue" stroke="midnightblue" points="605.01,-17.5 595.01,-21 605.01,-24.5 605.01,-17.5"/>
</g>
</g>
</svg>
