<?xml version="1.0" encoding="UTF-8" standalone="no"?>
<!DOCTYPE svg PUBLIC "-//W3C//DTD SVG 1.1//EN"
 "http://www.w3.org/Graphics/SVG/1.1/DTD/svg11.dtd">
<!-- Generated by graphviz version 2.43.0 (0)
 -->
<!-- Title: triangle.h Pages: 1 -->
<svg width="785pt" height="319pt"
 viewBox="0.00 0.00 784.50 319.00" xmlns="http://www.w3.org/2000/svg" xmlns:xlink="http://www.w3.org/1999/xlink">
<g id="graph0" class="graph" transform="scale(1 1) rotate(0) translate(4 315)">
<title>triangle.h</title>
<!-- Node1 -->
<g id="node1" class="node">
<title>Node1</title>
<g id="a_node1"><a xlink:title=" ">
<polygon fill="#bfbfbf" stroke="black" points="168.5,-291.5 168.5,-310.5 231.5,-310.5 231.5,-291.5 168.5,-291.5"/>
<text text-anchor="middle" x="200" y="-298.5" font-family="Helvetica,sans-Serif" font-size="10.00">triangle.h</text>
</a>
</g>
</g>
<!-- Node2 -->
<g id="node2" class="node">
<title>Node2</title>
<g id="a_node2"><a xlink:href="../../da/d0b/limes__namespace_8h.html" target="_top" xlink:title=" ">
<polygon fill="none" stroke="black" points="134,-56.5 134,-75.5 248,-75.5 248,-56.5 134,-56.5"/>
<text text-anchor="middle" x="191" y="-63.5" font-family="Helvetica,sans-Serif" font-size="10.00">limes_namespace.h</text>
</a>
</g>
</g>
<!-- Node1&#45;&gt;Node2 -->
<g id="edge1" class="edge">
<title>Node1&#45;&gt;Node2</title>
<path fill="none" stroke="midnightblue" d="M175.74,-291.46C141.63,-277.95 80.97,-248.01 57,-199 40.3,-164.86 87.75,-119.58 96,-112 112.14,-97.18 134.04,-86.36 152.74,-79.05"/>
<polygon fill="midnightblue" stroke="midnightblue" points="154.03,-82.31 162.18,-75.55 151.59,-75.74 154.03,-82.31"/>
</g>
<!-- Node3 -->
<g id="node3" class="node">
<title>Node3</title>
<g id="a_node3"><a xlink:title=" ">
<polygon fill="none" stroke="#bfbfbf" points="120.5,-118 120.5,-137 209.5,-137 209.5,-118 120.5,-118"/>
<text text-anchor="middle" x="165" y="-125" font-family="Helvetica,sans-Serif" font-size="10.00">limes_export.h</text>
</a>
</g>
</g>
<!-- Node1&#45;&gt;Node3 -->
<g id="edge2" class="edge">
<title>Node1&#45;&gt;Node3</title>
<path fill="none" stroke="midnightblue" d="M198.22,-291.26C192.76,-264.54 176.23,-183.52 168.75,-146.86"/>
<polygon fill="midnightblue" stroke="midnightblue" points="172.17,-146.12 166.74,-137.02 165.31,-147.52 172.17,-146.12"/>
</g>
<!-- Node4 -->
<g id="node4" class="node">
<title>Node4</title>
<g id="a_node4"><a xlink:title=" ">
<polygon fill="none" stroke="#bfbfbf" points="371,-0.5 371,-19.5 471,-19.5 471,-0.5 371,-0.5"/>
<text text-anchor="middle" x="421" y="-7.5" font-family="Helvetica,sans-Serif" font-size="10.00">limes_platform.h</text>
</a>
</g>
</g>
<!-- Node1&#45;&gt;Node4 -->
<g id="edge3" class="edge">
<title>Node1&#45;&gt;Node4</title>
<path fill="none" stroke="midnightblue" d="M168.31,-297.02C111.91,-289.79 0,-265.89 0,-190 0,-190 0,-190 0,-126.5 0,-52.65 243.94,-24.31 360.45,-14.98"/>
<polygon fill="midnightblue" stroke="midnightblue" points="360.94,-18.45 370.64,-14.19 360.39,-11.47 360.94,-18.45"/>
</g>
<!-- Node5 -->
<g id="node5" class="node">
<title>Node5</title>
<g id="a_node5"><a xlink:href="../../d8/d23/2_dshape_8h.html" target="_top" xlink:title=" ">
<polygon fill="none" stroke="black" points="66,-179.5 66,-198.5 134,-198.5 134,-179.5 66,-179.5"/>
<text text-anchor="middle" x="100" y="-186.5" font-family="Helvetica,sans-Serif" font-size="10.00">2Dshape.h</text>
</a>
</g>
</g>
<!-- Node1&#45;&gt;Node5 -->
<g id="edge4" class="edge">
<title>Node1&#45;&gt;Node5</title>
<path fill="none" stroke="midnightblue" d="M188.61,-291.35C177.62,-282.74 160.81,-268.84 148,-255 134.06,-239.94 120.39,-220.88 111.22,-207.29"/>
<polygon fill="midnightblue" stroke="midnightblue" points="114.09,-205.29 105.64,-198.89 108.25,-209.15 114.09,-205.29"/>
</g>
<!-- Node6 -->
<g id="node6" class="node">
<title>Node6</title>
<g id="a_node6"><a xlink:href="../../d3/d53/preprocessor_8h.html" target="_top" xlink:title=" ">
<polygon fill="none" stroke="black" points="635.5,-56.5 635.5,-75.5 776.5,-75.5 776.5,-56.5 635.5,-56.5"/>
<text text-anchor="middle" x="706" y="-63.5" font-family="Helvetica,sans-Serif" font-size="10.00">../../../misc/preprocessor.h</text>
</a>
</g>
</g>
<!-- Node1&#45;&gt;Node6 -->
<g id="edge7" class="edge">
<title>Node1&#45;&gt;Node6</title>
<path fill="none" stroke="midnightblue" d="M231.71,-296.06C338.94,-282 684.68,-230.43 745,-143 758.54,-123.38 739.71,-98.45 723.82,-82.6"/>
<polygon fill="midnightblue" stroke="midnightblue" points="726.08,-79.93 716.4,-75.61 721.28,-85.02 726.08,-79.93"/>
</g>
<!-- Node7 -->
<g id="node7" class="node">
<title>Node7</title>
<g id="a_node7"><a xlink:href="../../da/dac/angle_8h.html" target="_top" xlink:title=" ">
<polygon fill="none" stroke="black" points="211.5,-235.5 211.5,-254.5 264.5,-254.5 264.5,-235.5 211.5,-235.5"/>
<text text-anchor="middle" x="238" y="-242.5" font-family="Helvetica,sans-Serif" font-size="10.00">angle.h</text>
</a>
</g>
</g>
<!-- Node1&#45;&gt;Node7 -->
<g id="edge9" class="edge">
<title>Node1&#45;&gt;Node7</title>
<path fill="none" stroke="midnightblue" d="M206.27,-291.08C211.64,-283.46 219.52,-272.26 226.08,-262.94"/>
<polygon fill="midnightblue" stroke="midnightblue" points="228.95,-264.94 231.84,-254.75 223.22,-260.91 228.95,-264.94"/>
</g>
<!-- Node8 -->
<g id="node8" class="node">
<title>Node8</title>
<g id="a_node8"><a xlink:href="../../dc/d5c/math_functions_8h.html" target="_top" xlink:title=" ">
<polygon fill="none" stroke="black" points="326,-179.5 326,-198.5 442,-198.5 442,-179.5 326,-179.5"/>
<text text-anchor="middle" x="384" y="-186.5" font-family="Helvetica,sans-Serif" font-size="10.00">../../mathFunctions.h</text>
</a>
</g>
</g>
<!-- Node1&#45;&gt;Node8 -->
<g id="edge24" class="edge">
<title>Node1&#45;&gt;Node8</title>
<path fill="none" stroke="midnightblue" d="M214.44,-291.37C246.15,-272.41 322.11,-227 360.68,-203.94"/>
<polygon fill="midnightblue" stroke="midnightblue" points="362.84,-206.73 369.63,-198.59 359.25,-200.72 362.84,-206.73"/>
</g>
<!-- Node12 -->
<g id="node12" class="node">
<title>Node12</title>
<g id="a_node12"><a xlink:title=" ">
<polygon fill="none" stroke="#bfbfbf" points="429.5,-56.5 429.5,-75.5 476.5,-75.5 476.5,-56.5 429.5,-56.5"/>
<text text-anchor="middle" x="453" y="-63.5" font-family="Helvetica,sans-Serif" font-size="10.00">cmath</text>
</a>
</g>
</g>
<!-- Node1&#45;&gt;Node12 -->
<g id="edge25" class="edge">
<title>Node1&#45;&gt;Node12</title>
<path fill="none" stroke="midnightblue" d="M231.7,-297.78C305.99,-290.66 490.61,-261.27 564,-143 571.26,-131.29 571.7,-123.43 564,-112 546.95,-86.69 512.96,-75.61 487.06,-70.76"/>
<polygon fill="midnightblue" stroke="midnightblue" points="487.32,-67.26 476.88,-69.09 486.19,-74.16 487.32,-67.26"/>
</g>
<!-- Node5&#45;&gt;Node2 -->
<g id="edge5" class="edge">
<title>Node5&#45;&gt;Node2</title>
<path fill="none" stroke="midnightblue" d="M98.92,-179.14C97.54,-163.97 96.83,-132.67 111,-112 121.15,-97.2 137.85,-86.71 153.38,-79.61"/>
<polygon fill="midnightblue" stroke="midnightblue" points="154.98,-82.73 162.82,-75.61 152.25,-76.28 154.98,-82.73"/>
</g>
<!-- Node5&#45;&gt;Node3 -->
<g id="edge6" class="edge">
<title>Node5&#45;&gt;Node3</title>
<path fill="none" stroke="midnightblue" d="M109.31,-179.48C119.45,-170.2 135.86,-155.17 148.25,-143.83"/>
<polygon fill="midnightblue" stroke="midnightblue" points="150.69,-146.34 155.7,-137.01 145.96,-141.18 150.69,-146.34"/>
</g>
<!-- Node6&#45;&gt;Node4 -->
<g id="edge8" class="edge">
<title>Node6&#45;&gt;Node4</title>
<path fill="none" stroke="midnightblue" d="M660.84,-56.44C610.71,-46.94 529.78,-31.61 475.99,-21.42"/>
<polygon fill="midnightblue" stroke="midnightblue" points="476.42,-17.94 465.95,-19.52 475.12,-24.82 476.42,-17.94"/>
</g>
<!-- Node7&#45;&gt;Node2 -->
<g id="edge11" class="edge">
<title>Node7&#45;&gt;Node2</title>
<path fill="none" stroke="midnightblue" d="M237.84,-235.38C237.2,-213.9 234.01,-156.49 218,-112 214.5,-102.26 208.79,-92.31 203.52,-84.25"/>
<polygon fill="midnightblue" stroke="midnightblue" points="206.25,-82.04 197.7,-75.78 200.48,-86 206.25,-82.04"/>
</g>
<!-- Node7&#45;&gt;Node3 -->
<g id="edge10" class="edge">
<title>Node7&#45;&gt;Node3</title>
<path fill="none" stroke="midnightblue" d="M232.51,-235.32C220.52,-216.34 191.77,-170.85 175.93,-145.79"/>
<polygon fill="midnightblue" stroke="midnightblue" points="178.85,-143.87 170.55,-137.28 172.93,-147.61 178.85,-143.87"/>
</g>
<!-- Node7&#45;&gt;Node4 -->
<g id="edge12" class="edge">
<title>Node7&#45;&gt;Node4</title>
<path fill="none" stroke="midnightblue" d="M243.83,-235.48C258.46,-214.23 298.11,-157.31 334,-112 358.39,-81.21 388.69,-46.84 406.33,-27.18"/>
<polygon fill="midnightblue" stroke="midnightblue" points="408.97,-29.48 413.07,-19.71 403.77,-24.8 408.97,-29.48"/>
</g>
<!-- Node7&#45;&gt;Node8 -->
<g id="edge13" class="edge">
<title>Node7&#45;&gt;Node8</title>
<path fill="none" stroke="midnightblue" d="M261.13,-235.44C285.48,-226.44 324.01,-212.19 351.42,-202.05"/>
<polygon fill="midnightblue" stroke="midnightblue" points="352.81,-205.27 360.97,-198.52 350.38,-198.7 352.81,-205.27"/>
</g>
<!-- Node8&#45;&gt;Node2 -->
<g id="edge14" class="edge">
<title>Node8&#45;&gt;Node2</title>
<path fill="none" stroke="midnightblue" d="M370.43,-179.49C337.63,-158.93 253.8,-106.38 213.42,-81.05"/>
<polygon fill="midnightblue" stroke="midnightblue" points="215.15,-78.01 204.81,-75.66 211.43,-83.94 215.15,-78.01"/>
</g>
<!-- Node8&#45;&gt;Node3 -->
<g id="edge16" class="edge">
<title>Node8&#45;&gt;Node3</title>
<path fill="none" stroke="midnightblue" d="M352.62,-179.48C314.08,-169 248.59,-151.21 206.08,-139.66"/>
<polygon fill="midnightblue" stroke="midnightblue" points="206.89,-136.25 196.32,-137.01 205.05,-143.01 206.89,-136.25"/>
</g>
<!-- Node8&#45;&gt;Node6 -->
<g id="edge20" class="edge">
<title>Node8&#45;&gt;Node6</title>
<path fill="none" stroke="midnightblue" d="M442.2,-184.52C535.37,-178.34 709.48,-164.11 728,-143 742.53,-126.45 730.23,-100.82 719.01,-83.98"/>
<polygon fill="midnightblue" stroke="midnightblue" points="721.72,-81.75 713.07,-75.64 716.02,-85.81 721.72,-81.75"/>
</g>
<!-- Node9 -->
<g id="node9" class="node">
<title>Node9</title>
<g id="a_node9"><a xlink:title=" ">
<polygon fill="none" stroke="#bfbfbf" points="485.5,-118 485.5,-137 554.5,-137 554.5,-118 485.5,-118"/>
<text text-anchor="middle" x="520" y="-125" font-family="Helvetica,sans-Serif" font-size="10.00">type_traits</text>
</a>
</g>
</g>
<!-- Node8&#45;&gt;Node9 -->
<g id="edge15" class="edge">
<title>Node8&#45;&gt;Node9</title>
<path fill="none" stroke="midnightblue" d="M403.49,-179.48C426.41,-169.45 464.69,-152.7 491.08,-141.15"/>
<polygon fill="midnightblue" stroke="midnightblue" points="492.79,-144.22 500.55,-137.01 489.99,-137.81 492.79,-144.22"/>
</g>
<!-- Node10 -->
<g id="node10" class="node">
<title>Node10</title>
<g id="a_node10"><a xlink:href="../../d0/d00/compiler__defs_8h.html" target="_top" xlink:title=" ">
<polygon fill="none" stroke="black" points="611.5,-112.5 611.5,-142.5 718.5,-142.5 718.5,-112.5 611.5,-112.5"/>
<text text-anchor="start" x="619.5" y="-130.5" font-family="Helvetica,sans-Serif" font-size="10.00">../system/compiler</text>
<text text-anchor="middle" x="665" y="-119.5" font-family="Helvetica,sans-Serif" font-size="10.00">_defs.h</text>
</a>
</g>
</g>
<!-- Node8&#45;&gt;Node10 -->
<g id="edge17" class="edge">
<title>Node8&#45;&gt;Node10</title>
<path fill="none" stroke="midnightblue" d="M424.26,-179.48C470.55,-169.67 547.12,-153.46 601.47,-141.95"/>
<polygon fill="midnightblue" stroke="midnightblue" points="602.29,-145.36 611.35,-139.86 600.84,-138.51 602.29,-145.36"/>
</g>
<!-- Node11 -->
<g id="node11" class="node">
<title>Node11</title>
<g id="a_node11"><a xlink:href="../../dc/d9b/math_functions__impl_8h.html" target="_top" xlink:title=" ">
<polygon fill="none" stroke="red" points="342.5,-118 342.5,-137 467.5,-137 467.5,-118 342.5,-118"/>
<text text-anchor="middle" x="405" y="-125" font-family="Helvetica,sans-Serif" font-size="10.00">mathFunctions_impl.h</text>
</a>
</g>
</g>
<!-- Node8&#45;&gt;Node11 -->
<g id="edge21" class="edge">
<title>Node8&#45;&gt;Node11</title>
<path fill="none" stroke="midnightblue" d="M387.01,-179.48C390.03,-170.9 394.79,-157.43 398.65,-146.48"/>
<polygon fill="midnightblue" stroke="midnightblue" points="401.97,-147.6 402,-137.01 395.37,-145.27 401.97,-147.6"/>
</g>
<!-- Node10&#45;&gt;Node4 -->
<g id="edge18" class="edge">
<title>Node10&#45;&gt;Node4</title>
<path fill="none" stroke="midnightblue" d="M635.08,-112.34C587.2,-89.67 494.09,-45.6 448.07,-23.82"/>
<polygon fill="midnightblue" stroke="midnightblue" points="449.54,-20.64 439,-19.52 446.54,-26.96 449.54,-20.64"/>
</g>
<!-- Node10&#45;&gt;Node6 -->
<g id="edge19" class="edge">
<title>Node10&#45;&gt;Node6</title>
<path fill="none" stroke="midnightblue" d="M674.72,-112.4C680.55,-103.93 688.02,-93.1 694.19,-84.14"/>
<polygon fill="midnightblue" stroke="midnightblue" points="697.24,-85.88 700.03,-75.66 691.48,-81.91 697.24,-85.88"/>
</g>
<!-- Node11&#45;&gt;Node2 -->
<g id="edge22" class="edge">
<title>Node11&#45;&gt;Node2</title>
<path fill="none" stroke="midnightblue" d="M374.34,-117.98C336.76,-107.53 272.96,-89.79 231.4,-78.23"/>
<polygon fill="midnightblue" stroke="midnightblue" points="232.18,-74.82 221.6,-75.51 230.3,-81.56 232.18,-74.82"/>
</g>
<!-- Node11&#45;&gt;Node12 -->
<g id="edge23" class="edge">
<title>Node11&#45;&gt;Node12</title>
<path fill="none" stroke="midnightblue" d="M411.88,-117.98C419.15,-108.96 430.8,-94.52 439.84,-83.31"/>
<polygon fill="midnightblue" stroke="midnightblue" points="442.58,-85.49 446.14,-75.51 437.13,-81.09 442.58,-85.49"/>
</g>
</g>
</svg>
