<?xml version="1.0" encoding="UTF-8" standalone="no"?>
<!DOCTYPE svg PUBLIC "-//W3C//DTD SVG 1.1//EN"
 "http://www.w3.org/Graphics/SVG/1.1/DTD/svg11.dtd">
<!-- Generated by graphviz version 2.43.0 (0)
 -->
<!-- Title: triangle.h Pages: 1 -->
<svg width="1048pt" height="364pt"
 viewBox="0.00 0.00 1047.53 364.00" xmlns="http://www.w3.org/2000/svg" xmlns:xlink="http://www.w3.org/1999/xlink">
<g id="graph0" class="graph" transform="scale(1 1) rotate(0) translate(4 360)">
<title>triangle.h</title>
<!-- Node1 -->
<g id="node1" class="node">
<title>Node1</title>
<g id="a_node1"><a xlink:title=" ">
<polygon fill="#bfbfbf" stroke="black" points="226.03,-336.5 226.03,-355.5 289.03,-355.5 289.03,-336.5 226.03,-336.5"/>
<text text-anchor="middle" x="257.53" y="-343.5" font-family="Helvetica,sans-Serif" font-size="10.00">triangle.h</text>
</a>
</g>
</g>
<!-- Node2 -->
<g id="node2" class="node">
<title>Node2</title>
<g id="a_node2"><a xlink:href="../../da/d0b/limes__namespace_8h.html" target="_top" xlink:title=" ">
<polygon fill="none" stroke="black" points="90.53,-56.5 90.53,-75.5 204.53,-75.5 204.53,-56.5 90.53,-56.5"/>
<text text-anchor="middle" x="147.53" y="-63.5" font-family="Helvetica,sans-Serif" font-size="10.00">limes_namespace.h</text>
</a>
</g>
</g>
<!-- Node1&#45;&gt;Node2 -->
<g id="edge1" class="edge">
<title>Node1&#45;&gt;Node2</title>
<path fill="none" stroke="midnightblue" d="M225.74,-343.41C169.82,-339.88 57.47,-329.23 33.53,-300 -19.53,-235.23 -4.46,-179.16 45.53,-112 57.53,-95.87 76.59,-85.42 95,-78.7"/>
<polygon fill="midnightblue" stroke="midnightblue" points="96.16,-82 104.53,-75.51 93.94,-75.36 96.16,-82"/>
</g>
<!-- Node3 -->
<g id="node3" class="node">
<title>Node3</title>
<g id="a_node3"><a xlink:title=" ">
<polygon fill="none" stroke="#bfbfbf" points="232.03,-56.5 232.03,-75.5 321.03,-75.5 321.03,-56.5 232.03,-56.5"/>
<text text-anchor="middle" x="276.53" y="-63.5" font-family="Helvetica,sans-Serif" font-size="10.00">limes_export.h</text>
</a>
</g>
</g>
<!-- Node1&#45;&gt;Node3 -->
<g id="edge2" class="edge">
<title>Node1&#45;&gt;Node3</title>
<path fill="none" stroke="midnightblue" d="M254.96,-336.25C249.78,-317.74 238.53,-273.18 238.53,-235 238.53,-235 238.53,-235 238.53,-177 238.53,-142.81 255.13,-105.76 266.38,-84.57"/>
<polygon fill="midnightblue" stroke="midnightblue" points="269.47,-86.22 271.24,-75.77 263.35,-82.83 269.47,-86.22"/>
</g>
<!-- Node4 -->
<g id="node4" class="node">
<title>Node4</title>
<g id="a_node4"><a xlink:title=" ">
<polygon fill="none" stroke="#bfbfbf" points="610.53,-0.5 610.53,-19.5 710.53,-19.5 710.53,-0.5 610.53,-0.5"/>
<text text-anchor="middle" x="660.53" y="-7.5" font-family="Helvetica,sans-Serif" font-size="10.00">limes_platform.h</text>
</a>
</g>
</g>
<!-- Node1&#45;&gt;Node4 -->
<g id="edge3" class="edge">
<title>Node1&#45;&gt;Node4</title>
<path fill="none" stroke="midnightblue" d="M289.23,-344.02C399.44,-340.4 765.39,-326.61 879.53,-300 954.28,-282.57 1039.53,-311.76 1039.53,-235 1039.53,-235 1039.53,-235 1039.53,-121 1039.53,-55.46 827.83,-26.44 720.87,-15.96"/>
<polygon fill="midnightblue" stroke="midnightblue" points="721.14,-12.48 710.86,-15.01 720.48,-19.44 721.14,-12.48"/>
</g>
<!-- Node5 -->
<g id="node5" class="node">
<title>Node5</title>
<g id="a_node5"><a xlink:href="../../d8/d23/2_dshape_8h.html" target="_top" xlink:title=" ">
<polygon fill="none" stroke="black" points="66.53,-112.5 66.53,-131.5 134.53,-131.5 134.53,-112.5 66.53,-112.5"/>
<text text-anchor="middle" x="100.53" y="-119.5" font-family="Helvetica,sans-Serif" font-size="10.00">2Dshape.h</text>
</a>
</g>
</g>
<!-- Node1&#45;&gt;Node5 -->
<g id="edge4" class="edge">
<title>Node1&#45;&gt;Node5</title>
<path fill="none" stroke="midnightblue" d="M251.15,-336.41C244.46,-327.39 233.67,-312.76 224.53,-300 182.73,-241.69 134.19,-171.73 112.3,-140.06"/>
<polygon fill="midnightblue" stroke="midnightblue" points="114.96,-137.76 106.4,-131.52 109.2,-141.74 114.96,-137.76"/>
</g>
<!-- Node6 -->
<g id="node6" class="node">
<title>Node6</title>
<g id="a_node6"><a xlink:href="../../d3/d53/preprocessor_8h.html" target="_top" xlink:title=" ">
<polygon fill="none" stroke="black" points="767.03,-56.5 767.03,-75.5 908.03,-75.5 908.03,-56.5 767.03,-56.5"/>
<text text-anchor="middle" x="837.53" y="-63.5" font-family="Helvetica,sans-Serif" font-size="10.00">../../../misc/preprocessor.h</text>
</a>
</g>
</g>
<!-- Node1&#45;&gt;Node6 -->
<g id="edge7" class="edge">
<title>Node1&#45;&gt;Node6</title>
<path fill="none" stroke="midnightblue" d="M289.5,-343.7C431.9,-337.5 1001.53,-308.12 1001.53,-235 1001.53,-235 1001.53,-235 1001.53,-177 1001.53,-121.67 936.35,-92.39 888.18,-78.3"/>
<polygon fill="midnightblue" stroke="midnightblue" points="889.06,-74.91 878.49,-75.6 887.18,-81.65 889.06,-74.91"/>
</g>
<!-- Node7 -->
<g id="node7" class="node">
<title>Node7</title>
<g id="a_node7"><a xlink:href="../../da/dac/angle_8h.html" target="_top" xlink:title=" ">
<polygon fill="none" stroke="black" points="43.03,-280.5 43.03,-299.5 96.03,-299.5 96.03,-280.5 43.03,-280.5"/>
<text text-anchor="middle" x="69.53" y="-287.5" font-family="Helvetica,sans-Serif" font-size="10.00">angle.h</text>
</a>
</g>
</g>
<!-- Node1&#45;&gt;Node7 -->
<g id="edge9" class="edge">
<title>Node1&#45;&gt;Node7</title>
<path fill="none" stroke="midnightblue" d="M227.74,-336.44C194.76,-326.97 141.57,-311.69 106.09,-301.5"/>
<polygon fill="midnightblue" stroke="midnightblue" points="106.72,-298.04 96.14,-298.64 104.78,-304.77 106.72,-298.04"/>
</g>
<!-- Node8 -->
<g id="node8" class="node">
<title>Node8</title>
<g id="a_node8"><a xlink:href="../../dd/dfb/math_helpers_8h.html" target="_top" xlink:title=" ">
<polygon fill="none" stroke="black" points="590.03,-224.5 590.03,-243.5 697.03,-243.5 697.03,-224.5 590.03,-224.5"/>
<text text-anchor="middle" x="643.53" y="-231.5" font-family="Helvetica,sans-Serif" font-size="10.00">../../mathHelpers.h</text>
</a>
</g>
</g>
<!-- Node1&#45;&gt;Node8 -->
<g id="edge36" class="edge">
<title>Node1&#45;&gt;Node8</title>
<path fill="none" stroke="midnightblue" d="M287.49,-336.46C356.41,-316.82 526.15,-268.45 603.71,-246.35"/>
<polygon fill="midnightblue" stroke="midnightblue" points="604.92,-249.64 613.58,-243.53 603,-242.91 604.92,-249.64"/>
</g>
<!-- Node9 -->
<g id="node9" class="node">
<title>Node9</title>
<g id="a_node9"><a xlink:title=" ">
<polygon fill="none" stroke="#bfbfbf" points="926.03,-168.5 926.03,-187.5 973.03,-187.5 973.03,-168.5 926.03,-168.5"/>
<text text-anchor="middle" x="949.53" y="-175.5" font-family="Helvetica,sans-Serif" font-size="10.00">cmath</text>
</a>
</g>
</g>
<!-- Node1&#45;&gt;Node9 -->
<g id="edge37" class="edge">
<title>Node1&#45;&gt;Node9</title>
<path fill="none" stroke="midnightblue" d="M289.12,-338.27C329.74,-329.58 402.45,-313.93 464.53,-300 572.25,-275.83 599.41,-270.71 706.53,-244 781.57,-225.29 869.09,-201.36 915.9,-188.38"/>
<polygon fill="midnightblue" stroke="midnightblue" points="917.1,-191.68 925.8,-185.63 915.23,-184.94 917.1,-191.68"/>
</g>
<!-- Node5&#45;&gt;Node2 -->
<g id="edge5" class="edge">
<title>Node5&#45;&gt;Node2</title>
<path fill="none" stroke="midnightblue" d="M108.29,-112.08C115.06,-104.3 125.07,-92.8 133.28,-83.37"/>
<polygon fill="midnightblue" stroke="midnightblue" points="135.99,-85.59 139.91,-75.75 130.71,-81 135.99,-85.59"/>
</g>
<!-- Node5&#45;&gt;Node3 -->
<g id="edge6" class="edge">
<title>Node5&#45;&gt;Node3</title>
<path fill="none" stroke="midnightblue" d="M128.42,-112.44C158.28,-103.28 205.84,-88.69 238.98,-78.52"/>
<polygon fill="midnightblue" stroke="midnightblue" points="240.24,-81.8 248.77,-75.52 238.18,-75.1 240.24,-81.8"/>
</g>
<!-- Node6&#45;&gt;Node4 -->
<g id="edge8" class="edge">
<title>Node6&#45;&gt;Node4</title>
<path fill="none" stroke="midnightblue" d="M809.48,-56.44C779.45,-47.28 731.61,-32.69 698.28,-22.52"/>
<polygon fill="midnightblue" stroke="midnightblue" points="699.03,-19.09 688.44,-19.52 696.99,-25.78 699.03,-19.09"/>
</g>
<!-- Node7&#45;&gt;Node2 -->
<g id="edge11" class="edge">
<title>Node7&#45;&gt;Node2</title>
<path fill="none" stroke="midnightblue" d="M65.71,-280.42C54.25,-253.28 23.04,-167.81 57.53,-112 67.2,-96.35 84.15,-85.96 100.75,-79.15"/>
<polygon fill="midnightblue" stroke="midnightblue" points="102.28,-82.32 110.43,-75.54 99.83,-75.76 102.28,-82.32"/>
</g>
<!-- Node7&#45;&gt;Node3 -->
<g id="edge10" class="edge">
<title>Node7&#45;&gt;Node3</title>
<path fill="none" stroke="midnightblue" d="M76.55,-280.15C97.74,-253.6 163.41,-172.76 224.53,-112 235.11,-101.48 247.76,-90.5 257.93,-82.03"/>
<polygon fill="midnightblue" stroke="midnightblue" points="260.29,-84.61 265.79,-75.56 255.84,-79.21 260.29,-84.61"/>
</g>
<!-- Node7&#45;&gt;Node4 -->
<g id="edge12" class="edge">
<title>Node7&#45;&gt;Node4</title>
<path fill="none" stroke="midnightblue" d="M63.22,-280.18C57.32,-271.45 48.79,-257.46 44.53,-244 18.8,-162.82 8.42,-99.67 81.53,-56 125.28,-29.86 461.1,-16.94 600.34,-12.66"/>
<polygon fill="midnightblue" stroke="midnightblue" points="600.52,-16.16 610.41,-12.36 600.31,-9.16 600.52,-16.16"/>
</g>
<!-- Node7&#45;&gt;Node8 -->
<g id="edge13" class="edge">
<title>Node7&#45;&gt;Node8</title>
<path fill="none" stroke="midnightblue" d="M96.06,-286.5C182.06,-278.41 454.74,-252.76 579.77,-241"/>
<polygon fill="midnightblue" stroke="midnightblue" points="580.33,-244.46 589.96,-240.04 579.67,-237.49 580.33,-244.46"/>
</g>
<!-- Node8&#45;&gt;Node2 -->
<g id="edge14" class="edge">
<title>Node8&#45;&gt;Node2</title>
<path fill="none" stroke="midnightblue" d="M589.96,-226.9C539.15,-220.27 461.06,-207.88 395.53,-188 335.72,-169.86 322.68,-159.45 266.53,-132 232.73,-115.48 194.77,-94.26 171,-80.64"/>
<polygon fill="midnightblue" stroke="midnightblue" points="172.74,-77.61 162.33,-75.65 169.25,-83.67 172.74,-77.61"/>
</g>
<!-- Node8&#45;&gt;Node3 -->
<g id="edge17" class="edge">
<title>Node8&#45;&gt;Node3</title>
<path fill="none" stroke="midnightblue" d="M589.85,-224.5C524.86,-212.29 414.1,-185.13 333.53,-132 314.61,-119.53 298.19,-99.17 287.89,-84.56"/>
<polygon fill="midnightblue" stroke="midnightblue" points="290.55,-82.24 282.05,-75.93 284.76,-86.17 290.55,-82.24"/>
</g>
<!-- Node8&#45;&gt;Node6 -->
<g id="edge35" class="edge">
<title>Node8&#45;&gt;Node6</title>
<path fill="none" stroke="midnightblue" d="M697.21,-232.98C767.85,-229.66 889.48,-211.88 944.53,-132 962.51,-105.91 925.31,-88.45 889.94,-78.26"/>
<polygon fill="midnightblue" stroke="midnightblue" points="890.63,-74.82 880.06,-75.58 888.8,-81.58 890.63,-74.82"/>
</g>
<!-- Node8&#45;&gt;Node9 -->
<g id="edge15" class="edge">
<title>Node8&#45;&gt;Node9</title>
<path fill="none" stroke="midnightblue" d="M697.11,-225.07C751.35,-216.8 837.54,-202.96 911.53,-188 912.98,-187.71 914.46,-187.4 915.96,-187.08"/>
<polygon fill="midnightblue" stroke="midnightblue" points="916.87,-190.46 925.86,-184.86 915.34,-183.63 916.87,-190.46"/>
</g>
<!-- Node10 -->
<g id="node10" class="node">
<title>Node10</title>
<g id="a_node10"><a xlink:title=" ">
<polygon fill="none" stroke="#bfbfbf" points="866.03,-112.5 866.03,-131.5 935.03,-131.5 935.03,-112.5 866.03,-112.5"/>
<text text-anchor="middle" x="900.53" y="-119.5" font-family="Helvetica,sans-Serif" font-size="10.00">type_traits</text>
</a>
</g>
</g>
<!-- Node8&#45;&gt;Node10 -->
<g id="edge16" class="edge">
<title>Node8&#45;&gt;Node10</title>
<path fill="none" stroke="midnightblue" d="M667.91,-224.42C692.12,-215.74 730.19,-201.7 762.53,-188 802.01,-171.27 846.75,-149.7 874.3,-136.11"/>
<polygon fill="midnightblue" stroke="midnightblue" points="875.89,-139.23 883.3,-131.65 872.78,-132.95 875.89,-139.23"/>
</g>
<!-- Node11 -->
<g id="node11" class="node">
<title>Node11</title>
<g id="a_node11"><a xlink:title=" ">
<polygon fill="none" stroke="#bfbfbf" points="670.53,-168.5 670.53,-187.5 734.53,-187.5 734.53,-168.5 670.53,-168.5"/>
<text text-anchor="middle" x="702.53" y="-175.5" font-family="Helvetica,sans-Serif" font-size="10.00">algorithm</text>
</a>
</g>
</g>
<!-- Node8&#45;&gt;Node11 -->
<g id="edge18" class="edge">
<title>Node8&#45;&gt;Node11</title>
<path fill="none" stroke="midnightblue" d="M653.01,-224.32C661.73,-216.34 674.87,-204.31 685.43,-194.65"/>
<polygon fill="midnightblue" stroke="midnightblue" points="687.86,-197.17 692.88,-187.83 683.14,-192 687.86,-197.17"/>
</g>
<!-- Node12 -->
<g id="node12" class="node">
<title>Node12</title>
<g id="a_node12"><a xlink:href="../../d5/dbb/limes__assert_8h.html" target="_top" xlink:title=" ">
<polygon fill="none" stroke="black" points="516.53,-168.5 516.53,-187.5 652.53,-187.5 652.53,-168.5 516.53,-168.5"/>
<text text-anchor="middle" x="584.53" y="-175.5" font-family="Helvetica,sans-Serif" font-size="10.00">../system/limes_assert.h</text>
</a>
</g>
</g>
<!-- Node8&#45;&gt;Node12 -->
<g id="edge19" class="edge">
<title>Node8&#45;&gt;Node12</title>
<path fill="none" stroke="midnightblue" d="M634.05,-224.32C625.33,-216.34 612.18,-204.31 601.63,-194.65"/>
<polygon fill="midnightblue" stroke="midnightblue" points="603.92,-192 594.18,-187.83 599.19,-197.17 603.92,-192"/>
</g>
<!-- Node16 -->
<g id="node16" class="node">
<title>Node16</title>
<g id="a_node16"><a xlink:href="../../d0/d00/compiler__defs_8h.html" target="_top" xlink:title=" ">
<polygon fill="none" stroke="black" points="714.03,-112.5 714.03,-131.5 809.03,-131.5 809.03,-112.5 714.03,-112.5"/>
<text text-anchor="middle" x="761.53" y="-119.5" font-family="Helvetica,sans-Serif" font-size="10.00">compiler_defs.h</text>
</a>
</g>
</g>
<!-- Node8&#45;&gt;Node16 -->
<g id="edge34" class="edge">
<title>Node8&#45;&gt;Node16</title>
<path fill="none" stroke="midnightblue" d="M681.63,-224.37C702.66,-217.75 727.66,-206.5 743.53,-188 754.6,-175.1 758.9,-155.92 760.55,-141.74"/>
<polygon fill="midnightblue" stroke="midnightblue" points="764.05,-141.91 761.39,-131.65 757.07,-141.33 764.05,-141.91"/>
</g>
<!-- Node12&#45;&gt;Node2 -->
<g id="edge21" class="edge">
<title>Node12&#45;&gt;Node2</title>
<path fill="none" stroke="midnightblue" d="M521,-168.46C469.89,-160.91 396.47,-148.53 333.53,-132 277.58,-117.31 214.39,-93.66 177.93,-79.31"/>
<polygon fill="midnightblue" stroke="midnightblue" points="178.97,-75.95 168.39,-75.52 176.39,-82.46 178.97,-75.95"/>
</g>
<!-- Node12&#45;&gt;Node3 -->
<g id="edge20" class="edge">
<title>Node12&#45;&gt;Node3</title>
<path fill="none" stroke="midnightblue" d="M584.73,-168.31C584.54,-154.2 581.96,-126.43 565.53,-112 531.59,-82.21 405.28,-72.09 331.35,-68.69"/>
<polygon fill="midnightblue" stroke="midnightblue" points="331.43,-65.19 321.28,-68.25 331.12,-72.18 331.43,-65.19"/>
</g>
<!-- Node12&#45;&gt;Node4 -->
<g id="edge29" class="edge">
<title>Node12&#45;&gt;Node4</title>
<path fill="none" stroke="midnightblue" d="M588.61,-168.08C600.68,-141.72 636.32,-63.88 652.44,-28.66"/>
<polygon fill="midnightblue" stroke="midnightblue" points="655.62,-30.12 656.6,-19.57 649.26,-27.2 655.62,-30.12"/>
</g>
<!-- Node12&#45;&gt;Node6 -->
<g id="edge22" class="edge">
<title>Node12&#45;&gt;Node6</title>
<path fill="none" stroke="midnightblue" d="M646.54,-168.47C711.49,-159 805.85,-143.54 818.53,-132 831.42,-120.27 835.75,-100.34 837.11,-85.63"/>
<polygon fill="midnightblue" stroke="midnightblue" points="840.61,-85.8 837.67,-75.62 833.62,-85.41 840.61,-85.8"/>
</g>
<!-- Node12&#45;&gt;Node10 -->
<g id="edge23" class="edge">
<title>Node12&#45;&gt;Node10</title>
<path fill="none" stroke="midnightblue" d="M636.5,-168.47C690.33,-159.58 776.88,-145.15 851.53,-132 852.99,-131.74 854.48,-131.48 855.98,-131.21"/>
<polygon fill="midnightblue" stroke="midnightblue" points="856.78,-134.62 866.01,-129.41 855.54,-127.73 856.78,-134.62"/>
</g>
<!-- Node13 -->
<g id="node13" class="node">
<title>Node13</title>
<g id="a_node13"><a xlink:title=" ">
<polygon fill="none" stroke="#bfbfbf" points="651.03,-112.5 651.03,-131.5 696.03,-131.5 696.03,-112.5 651.03,-112.5"/>
<text text-anchor="middle" x="673.53" y="-119.5" font-family="Helvetica,sans-Serif" font-size="10.00">utility</text>
</a>
</g>
</g>
<!-- Node12&#45;&gt;Node13 -->
<g id="edge24" class="edge">
<title>Node12&#45;&gt;Node13</title>
<path fill="none" stroke="midnightblue" d="M598.83,-168.32C612.71,-159.9 634.02,-146.97 650.33,-137.07"/>
<polygon fill="midnightblue" stroke="midnightblue" points="652.53,-139.83 659.26,-131.65 648.9,-133.85 652.53,-139.83"/>
</g>
<!-- Node14 -->
<g id="node14" class="node">
<title>Node14</title>
<g id="a_node14"><a xlink:href="../../d1/d57/_ignore_unused_8h.html" target="_top" xlink:title=" ">
<polygon fill="none" stroke="black" points="342.53,-112.5 342.53,-131.5 470.53,-131.5 470.53,-112.5 342.53,-112.5"/>
<text text-anchor="middle" x="406.53" y="-119.5" font-family="Helvetica,sans-Serif" font-size="10.00">../misc/IgnoreUnused.h</text>
</a>
</g>
</g>
<!-- Node12&#45;&gt;Node14 -->
<g id="edge25" class="edge">
<title>Node12&#45;&gt;Node14</title>
<path fill="none" stroke="midnightblue" d="M556.32,-168.44C526.12,-159.28 478.02,-144.69 444.5,-134.52"/>
<polygon fill="midnightblue" stroke="midnightblue" points="445.19,-131.07 434.6,-131.52 443.15,-137.77 445.19,-131.07"/>
</g>
<!-- Node15 -->
<g id="node15" class="node">
<title>Node15</title>
<g id="a_node15"><a xlink:title=" ">
<polygon fill="none" stroke="#bfbfbf" points="488.53,-112.5 488.53,-131.5 556.53,-131.5 556.53,-112.5 488.53,-112.5"/>
<text text-anchor="middle" x="522.53" y="-119.5" font-family="Helvetica,sans-Serif" font-size="10.00">filesystem</text>
</a>
</g>
</g>
<!-- Node12&#45;&gt;Node15 -->
<g id="edge30" class="edge">
<title>Node12&#45;&gt;Node15</title>
<path fill="none" stroke="midnightblue" d="M574.57,-168.32C565.4,-160.34 551.59,-148.31 540.5,-138.65"/>
<polygon fill="midnightblue" stroke="midnightblue" points="542.51,-135.76 532.67,-131.83 537.91,-141.04 542.51,-135.76"/>
</g>
<!-- Node12&#45;&gt;Node16 -->
<g id="edge31" class="edge">
<title>Node12&#45;&gt;Node16</title>
<path fill="none" stroke="midnightblue" d="M612.57,-168.44C642.61,-159.28 690.44,-144.69 723.77,-134.52"/>
<polygon fill="midnightblue" stroke="midnightblue" points="725.07,-137.78 733.61,-131.52 723.03,-131.09 725.07,-137.78"/>
</g>
<!-- Node14&#45;&gt;Node2 -->
<g id="edge27" class="edge">
<title>Node14&#45;&gt;Node2</title>
<path fill="none" stroke="midnightblue" d="M365.49,-112.44C320.21,-103 247.3,-87.8 198.42,-77.61"/>
<polygon fill="midnightblue" stroke="midnightblue" points="198.88,-74.13 188.37,-75.52 197.45,-80.98 198.88,-74.13"/>
</g>
<!-- Node14&#45;&gt;Node3 -->
<g id="edge26" class="edge">
<title>Node14&#45;&gt;Node3</title>
<path fill="none" stroke="midnightblue" d="M385.93,-112.44C364.53,-103.56 330.85,-89.56 306.5,-79.45"/>
<polygon fill="midnightblue" stroke="midnightblue" points="307.61,-76.12 297.03,-75.52 304.92,-82.58 307.61,-76.12"/>
</g>
<!-- Node14&#45;&gt;Node4 -->
<g id="edge28" class="edge">
<title>Node14&#45;&gt;Node4</title>
<path fill="none" stroke="midnightblue" d="M426.46,-112.37C471.06,-93.05 579.11,-46.26 631.32,-23.65"/>
<polygon fill="midnightblue" stroke="midnightblue" points="632.9,-26.78 640.69,-19.59 630.12,-20.35 632.9,-26.78"/>
</g>
<!-- Node16&#45;&gt;Node4 -->
<g id="edge32" class="edge">
<title>Node16&#45;&gt;Node4</title>
<path fill="none" stroke="midnightblue" d="M753.6,-112.37C736.71,-93.97 696.95,-50.67 675.27,-27.05"/>
<polygon fill="midnightblue" stroke="midnightblue" points="677.76,-24.59 668.42,-19.59 672.6,-29.32 677.76,-24.59"/>
</g>
<!-- Node16&#45;&gt;Node6 -->
<g id="edge33" class="edge">
<title>Node16&#45;&gt;Node6</title>
<path fill="none" stroke="midnightblue" d="M773.74,-112.32C785.3,-104.11 802.9,-91.6 816.69,-81.81"/>
<polygon fill="midnightblue" stroke="midnightblue" points="818.97,-84.48 825.09,-75.83 814.92,-78.77 818.97,-84.48"/>
</g>
</g>
</svg>
