<?xml version="1.0" encoding="UTF-8" standalone="no"?>
<!DOCTYPE svg PUBLIC "-//W3C//DTD SVG 1.1//EN"
 "http://www.w3.org/Graphics/SVG/1.1/DTD/svg11.dtd">
<!-- Generated by graphviz version 2.43.0 (0)
 -->
<!-- Title: triangle.h Pages: 1 -->
<!--zoomable 319 -->
<svg id="main" version="1.1" xmlns="http://www.w3.org/2000/svg" xmlns:xlink="http://www.w3.org/1999/xlink" xml:space="preserve" onload="init(evt)">
<style type="text/css"><![CDATA[
.edge:hover path { stroke: red; }
.edge:hover polygon { stroke: red; fill: red; }
]]></style>
<script type="text/javascript"><![CDATA[
var edges = document.getElementsByTagName('g');
if (edges && edges.length) {
  for (var i=0;i<edges.length;i++) {
    if (edges[i].id.substr(0,4)=='edge') {
      edges[i].setAttribute('class','edge');
    }
  }
}
]]></script>
        <defs>
                <circle id="rim" cx="0" cy="0" r="7"/>
                <circle id="rim2" cx="0" cy="0" r="3.5"/>
                <g id="zoomPlus">
                        <use xlink:href="#rim" fill="#404040">
                                <set attributeName="fill" to="#808080" begin="zoomplus.mouseover" end="zoomplus.mouseout"/>
                        </use>
                        <path d="M-4,0h8M0,-4v8" fill="none" stroke="white" stroke-width="1.5" pointer-events="none"/>
                </g>
                <g id="zoomMin">
                        <use xlink:href="#rim" fill="#404040">
                                <set attributeName="fill" to="#808080" begin="zoomminus.mouseover" end="zoomminus.mouseout"/>
                        </use>
                        <path d="M-4,0h8" fill="none" stroke="white" stroke-width="1.5" pointer-events="none"/>
                </g>
                <g id="dirArrow">
                        <path fill="none" stroke="white" stroke-width="1.5" d="M0,-3.0v7 M-2.5,-0.5L0,-3.0L2.5,-0.5"/>
                </g>
               <g id="resetDef">
                       <use xlink:href="#rim2" fill="#404040">
                               <set attributeName="fill" to="#808080" begin="reset.mouseover" end="reset.mouseout"/>
                       </use>
               </g>
        </defs>

<script type="text/javascript">
var viewWidth = 1079;
var viewHeight = 319;
var sectionId = 'dynsection-0';
</script>
<script xlink:href="../../svgpan.js"/>
<svg id="graph" class="graph">
<g id="viewport">
<title>triangle.h</title>
<!-- Node1 -->
<g id="node1" class="node">
<title>Node1</title>
<g id="a_node1"><a xlink:title=" ">
<polygon fill="#bfbfbf" stroke="black" points="652.15,-291.5 652.15,-310.5 715.15,-310.5 715.15,-291.5 652.15,-291.5"/>
<text text-anchor="middle" x="683.65" y="-298.5" font-family="Helvetica,sans-Serif" font-size="10.00">triangle.h</text>
</a>
</g>
</g>
<!-- Node2 -->
<g id="node2" class="node">
<title>Node2</title>
<g id="a_node2"><a xlink:href="../../da/d0b/limes__namespace_8h.html" target="_top" xlink:title=" ">
<polygon fill="none" stroke="black" points="75.65,-0.5 75.65,-19.5 189.65,-19.5 189.65,-0.5 75.65,-0.5"/>
<text text-anchor="middle" x="132.65" y="-7.5" font-family="Helvetica,sans-Serif" font-size="10.00">limes_namespace.h</text>
</a>
</g>
</g>
<!-- Node1&#45;&gt;Node2 -->
<g id="edge1" class="edge">
<title>Node1&#45;&gt;Node2</title>
<path fill="none" stroke="midnightblue" d="M651.83,-299.13C548.61,-296.04 223.97,-284.19 123.65,-255 64.28,-237.72 0.65,-251.83 0.65,-190 0.65,-190 0.65,-190 0.65,-126.5 0.65,-94.05 -1.94,-80.24 19.65,-56 34.19,-39.67 55.45,-29.19 75.63,-22.49"/>
<polygon fill="midnightblue" stroke="midnightblue" points="76.87,-25.77 85.41,-19.5 74.82,-19.08 76.87,-25.77"/>
</g>
<!-- Node3 -->
<g id="node3" class="node">
<title>Node3</title>
<g id="a_node3"><a xlink:title=" ">
<polygon fill="none" stroke="#bfbfbf" points="216.15,-0.5 216.15,-19.5 305.15,-19.5 305.15,-0.5 216.15,-0.5"/>
<text text-anchor="middle" x="260.65" y="-7.5" font-family="Helvetica,sans-Serif" font-size="10.00">limes_export.h</text>
</a>
</g>
</g>
<!-- Node1&#45;&gt;Node3 -->
<g id="edge2" class="edge">
<title>Node1&#45;&gt;Node3</title>
<path fill="none" stroke="midnightblue" d="M651.84,-300.11C538.72,-299.64 162.65,-290.53 162.65,-190 162.65,-190 162.65,-190 162.65,-126.5 162.65,-80.94 207.53,-44.15 236.55,-25.12"/>
<polygon fill="midnightblue" stroke="midnightblue" points="238.74,-27.87 245.33,-19.58 235.01,-21.95 238.74,-27.87"/>
</g>
<!-- Node4 -->
<g id="node4" class="node">
<title>Node4</title>
<g id="a_node4"><a xlink:title=" ">
<polygon fill="none" stroke="#bfbfbf" points="811.65,-0.5 811.65,-19.5 911.65,-19.5 911.65,-0.5 811.65,-0.5"/>
<text text-anchor="middle" x="861.65" y="-7.5" font-family="Helvetica,sans-Serif" font-size="10.00">limes_platform.h</text>
</a>
</g>
</g>
<!-- Node1&#45;&gt;Node4 -->
<g id="edge3" class="edge">
<title>Node1&#45;&gt;Node4</title>
<path fill="none" stroke="midnightblue" d="M715.32,-297.83C807.74,-290.63 1070.65,-263.69 1070.65,-190 1070.65,-190 1070.65,-190 1070.65,-126.5 1070.65,-57.97 983.51,-29.79 921.76,-18.42"/>
<polygon fill="midnightblue" stroke="midnightblue" points="922.16,-14.93 911.71,-16.67 920.96,-21.83 922.16,-14.93"/>
</g>
<!-- Node5 -->
<g id="node5" class="node">
<title>Node5</title>
<g id="a_node5"><a xlink:href="../../d8/d23/2_dshape_8h.html" target="_top" xlink:title=" ">
<polygon fill="none" stroke="black" points="28.65,-56.5 28.65,-75.5 96.65,-75.5 96.65,-56.5 28.65,-56.5"/>
<text text-anchor="middle" x="62.65" y="-63.5" font-family="Helvetica,sans-Serif" font-size="10.00">2Dshape.h</text>
</a>
</g>
</g>
<!-- Node1&#45;&gt;Node5 -->
<g id="edge4" class="edge">
<title>Node1&#45;&gt;Node5</title>
<path fill="none" stroke="midnightblue" d="M651.94,-299.18C543.2,-296.11 189.87,-283.98 148.65,-255 90.66,-214.23 70.96,-124.47 64.98,-85.58"/>
<polygon fill="midnightblue" stroke="midnightblue" points="68.44,-85.06 63.59,-75.64 61.51,-86.03 68.44,-85.06"/>
</g>
<!-- Node6 -->
<g id="node6" class="node">
<title>Node6</title>
<g id="a_node6"><a xlink:href="../../d3/d53/preprocessor_8h.html" target="_top" xlink:title=" ">
<polygon fill="none" stroke="black" points="841.15,-56.5 841.15,-75.5 982.15,-75.5 982.15,-56.5 841.15,-56.5"/>
<text text-anchor="middle" x="911.65" y="-63.5" font-family="Helvetica,sans-Serif" font-size="10.00">../../../misc/preprocessor.h</text>
</a>
</g>
</g>
<!-- Node1&#45;&gt;Node6 -->
<g id="edge7" class="edge">
<title>Node1&#45;&gt;Node6</title>
<path fill="none" stroke="midnightblue" d="M715.35,-296.15C784.4,-285.86 947.48,-250.71 1013.65,-143 1020.86,-131.26 1021.17,-123.54 1013.65,-112 1003.17,-95.92 985.51,-85.55 967.8,-78.87"/>
<polygon fill="midnightblue" stroke="midnightblue" points="968.6,-75.45 958,-75.53 966.34,-82.07 968.6,-75.45"/>
</g>
<!-- Node7 -->
<g id="node7" class="node">
<title>Node7</title>
<g id="a_node7"><a xlink:href="../../da/dac/angle_8h.html" target="_top" xlink:title=" ">
<polygon fill="none" stroke="black" points="616.15,-235.5 616.15,-254.5 669.15,-254.5 669.15,-235.5 616.15,-235.5"/>
<text text-anchor="middle" x="642.65" y="-242.5" font-family="Helvetica,sans-Serif" font-size="10.00">angle.h</text>
</a>
</g>
</g>
<!-- Node1&#45;&gt;Node7 -->
<g id="edge9" class="edge">
<title>Node1&#45;&gt;Node7</title>
<path fill="none" stroke="midnightblue" d="M676.87,-291.08C671.08,-283.46 662.59,-272.26 655.51,-262.94"/>
<polygon fill="midnightblue" stroke="midnightblue" points="658.12,-260.6 649.29,-254.75 652.55,-264.83 658.12,-260.6"/>
</g>
<!-- Node8 -->
<g id="node8" class="node">
<title>Node8</title>
<g id="a_node8"><a xlink:href="../../dd/dfb/math_helpers_8h.html" target="_top" xlink:title=" ">
<polygon fill="none" stroke="black" points="671.15,-179.5 671.15,-198.5 778.15,-198.5 778.15,-179.5 671.15,-179.5"/>
<text text-anchor="middle" x="724.65" y="-186.5" font-family="Helvetica,sans-Serif" font-size="10.00">../../mathHelpers.h</text>
</a>
</g>
</g>
<!-- Node1&#45;&gt;Node8 -->
<g id="edge35" class="edge">
<title>Node1&#45;&gt;Node8</title>
<path fill="none" stroke="midnightblue" d="M686.86,-291.37C693.51,-273.54 708.88,-232.3 717.83,-208.27"/>
<polygon fill="midnightblue" stroke="midnightblue" points="721.23,-209.18 721.44,-198.59 714.67,-206.74 721.23,-209.18"/>
</g>
<!-- Node9 -->
<g id="node9" class="node">
<title>Node9</title>
<g id="a_node9"><a xlink:title=" ">
<polygon fill="none" stroke="#bfbfbf" points="957.15,-118 957.15,-137 1004.15,-137 1004.15,-118 957.15,-118"/>
<text text-anchor="middle" x="980.65" y="-125" font-family="Helvetica,sans-Serif" font-size="10.00">cmath</text>
</a>
</g>
</g>
<!-- Node1&#45;&gt;Node9 -->
<g id="edge36" class="edge">
<title>Node1&#45;&gt;Node9</title>
<path fill="none" stroke="midnightblue" d="M698.37,-291.5C746.27,-263.84 897.92,-176.27 956.88,-142.22"/>
<polygon fill="midnightblue" stroke="midnightblue" points="958.92,-145.09 965.83,-137.06 955.42,-139.03 958.92,-145.09"/>
</g>
<!-- Node5&#45;&gt;Node2 -->
<g id="edge5" class="edge">
<title>Node5&#45;&gt;Node2</title>
<path fill="none" stroke="midnightblue" d="M73.89,-56.32C84.44,-48.18 100.45,-35.84 113.09,-26.09"/>
<polygon fill="midnightblue" stroke="midnightblue" points="115.41,-28.71 121.19,-19.83 111.14,-23.17 115.41,-28.71"/>
</g>
<!-- Node5&#45;&gt;Node3 -->
<g id="edge6" class="edge">
<title>Node5&#45;&gt;Node3</title>
<path fill="none" stroke="midnightblue" d="M94.02,-56.44C127.91,-47.2 182.05,-32.44 219.37,-22.26"/>
<polygon fill="midnightblue" stroke="midnightblue" points="220.69,-25.52 229.42,-19.52 218.85,-18.77 220.69,-25.52"/>
</g>
<!-- Node6&#45;&gt;Node4 -->
<g id="edge8" class="edge">
<title>Node6&#45;&gt;Node4</title>
<path fill="none" stroke="midnightblue" d="M903.39,-56.08C896.18,-48.3 885.54,-36.8 876.8,-27.37"/>
<polygon fill="midnightblue" stroke="midnightblue" points="879.11,-24.71 869.75,-19.75 873.97,-29.47 879.11,-24.71"/>
</g>
<!-- Node7&#45;&gt;Node2 -->
<g id="edge11" class="edge">
<title>Node7&#45;&gt;Node2</title>
<path fill="none" stroke="midnightblue" d="M615.88,-238.43C579.85,-230.71 513.86,-215.8 458.65,-199 316.84,-155.85 244.63,-188.95 148.65,-76 137.72,-63.14 134.04,-43.96 132.9,-29.77"/>
<polygon fill="midnightblue" stroke="midnightblue" points="136.39,-29.5 132.44,-19.67 129.4,-29.81 136.39,-29.5"/>
</g>
<!-- Node7&#45;&gt;Node3 -->
<g id="edge10" class="edge">
<title>Node7&#45;&gt;Node3</title>
<path fill="none" stroke="midnightblue" d="M615.9,-236.19C568.3,-221.68 466.55,-187.92 388.65,-143 346.97,-118.97 336.22,-111.4 303.65,-76 290.23,-61.42 278.09,-42.25 270.16,-28.51"/>
<polygon fill="midnightblue" stroke="midnightblue" points="273.11,-26.62 265.17,-19.61 267.01,-30.05 273.11,-26.62"/>
</g>
<!-- Node7&#45;&gt;Node4 -->
<g id="edge12" class="edge">
<title>Node7&#45;&gt;Node4</title>
<path fill="none" stroke="midnightblue" d="M644.14,-235.12C646.59,-222.15 652.27,-197.55 662.65,-179 682.02,-144.38 690.21,-136.21 721.65,-112 749.99,-90.17 764.39,-96.59 793.65,-76 813.96,-61.7 834.15,-41.44 847.18,-27.35"/>
<polygon fill="midnightblue" stroke="midnightblue" points="849.85,-29.62 853.98,-19.87 844.67,-24.92 849.85,-29.62"/>
</g>
<!-- Node7&#45;&gt;Node8 -->
<g id="edge13" class="edge">
<title>Node7&#45;&gt;Node8</title>
<path fill="none" stroke="midnightblue" d="M655.82,-235.32C668.49,-226.98 687.88,-214.21 702.85,-204.35"/>
<polygon fill="midnightblue" stroke="midnightblue" points="705.08,-207.08 711.5,-198.65 701.23,-201.23 705.08,-207.08"/>
</g>
<!-- Node8&#45;&gt;Node2 -->
<g id="edge14" class="edge">
<title>Node8&#45;&gt;Node2</title>
<path fill="none" stroke="midnightblue" d="M671.05,-186.45C603.69,-183.24 485.21,-173.36 388.65,-143 295.76,-113.8 196.07,-52.66 153.67,-25.05"/>
<polygon fill="midnightblue" stroke="midnightblue" points="155.56,-22.11 145.28,-19.54 151.72,-27.96 155.56,-22.11"/>
</g>
<!-- Node8&#45;&gt;Node3 -->
<g id="edge17" class="edge">
<title>Node8&#45;&gt;Node3</title>
<path fill="none" stroke="midnightblue" d="M671.01,-182.71C619.28,-176.62 539.24,-164.55 472.65,-143 407.4,-121.89 390.7,-114.06 333.65,-76 312.17,-61.67 290.44,-41.42 276.34,-27.34"/>
<polygon fill="midnightblue" stroke="midnightblue" points="278.49,-24.53 268.98,-19.86 273.49,-29.44 278.49,-24.53"/>
</g>
<!-- Node8&#45;&gt;Node6 -->
<g id="edge34" class="edge">
<title>Node8&#45;&gt;Node6</title>
<path fill="none" stroke="midnightblue" d="M723.78,-179.4C722.72,-163.78 722.89,-130.66 740.65,-112 755.06,-96.85 802.58,-85.08 843.88,-77.38"/>
<polygon fill="midnightblue" stroke="midnightblue" points="844.72,-80.78 853.94,-75.56 843.48,-73.89 844.72,-80.78"/>
</g>
<!-- Node8&#45;&gt;Node9 -->
<g id="edge15" class="edge">
<title>Node8&#45;&gt;Node9</title>
<path fill="none" stroke="midnightblue" d="M778.47,-180.7C824.4,-173.65 891.83,-161.32 948.65,-143 950.52,-142.4 952.43,-141.71 954.33,-140.98"/>
<polygon fill="midnightblue" stroke="midnightblue" points="955.8,-144.17 963.66,-137.06 953.08,-137.71 955.8,-144.17"/>
</g>
<!-- Node10 -->
<g id="node10" class="node">
<title>Node10</title>
<g id="a_node10"><a xlink:title=" ">
<polygon fill="none" stroke="#bfbfbf" points="715.15,-56.5 715.15,-75.5 784.15,-75.5 784.15,-56.5 715.15,-56.5"/>
<text text-anchor="middle" x="749.65" y="-63.5" font-family="Helvetica,sans-Serif" font-size="10.00">type_traits</text>
</a>
</g>
</g>
<!-- Node8&#45;&gt;Node10 -->
<g id="edge16" class="edge">
<title>Node8&#45;&gt;Node10</title>
<path fill="none" stroke="midnightblue" d="M719.46,-179.31C711.58,-164.91 698.42,-135.4 707.65,-112 712.16,-100.55 721.11,-90.29 729.6,-82.47"/>
<polygon fill="midnightblue" stroke="midnightblue" points="732.11,-84.93 737.43,-75.76 727.56,-79.61 732.11,-84.93"/>
</g>
<!-- Node11 -->
<g id="node11" class="node">
<title>Node11</title>
<g id="a_node11"><a xlink:title=" ">
<polygon fill="none" stroke="#bfbfbf" points="749.65,-118 749.65,-137 813.65,-137 813.65,-118 749.65,-118"/>
<text text-anchor="middle" x="781.65" y="-125" font-family="Helvetica,sans-Serif" font-size="10.00">algorithm</text>
</a>
</g>
</g>
<!-- Node8&#45;&gt;Node11 -->
<g id="edge18" class="edge">
<title>Node8&#45;&gt;Node11</title>
<path fill="none" stroke="midnightblue" d="M732.81,-179.48C741.53,-170.37 755.55,-155.74 766.33,-144.48"/>
<polygon fill="midnightblue" stroke="midnightblue" points="769.1,-146.65 773.49,-137.01 764.05,-141.81 769.1,-146.65"/>
</g>
<!-- Node12 -->
<g id="node12" class="node">
<title>Node12</title>
<g id="a_node12"><a xlink:href="../../d5/dbb/limes__assert_8h.html" target="_top" xlink:title=" ">
<polygon fill="none" stroke="black" points="481.65,-118 481.65,-137 617.65,-137 617.65,-118 481.65,-118"/>
<text text-anchor="middle" x="549.65" y="-125" font-family="Helvetica,sans-Serif" font-size="10.00">../system/limes_assert.h</text>
</a>
</g>
</g>
<!-- Node8&#45;&gt;Node12 -->
<g id="edge19" class="edge">
<title>Node8&#45;&gt;Node12</title>
<path fill="none" stroke="midnightblue" d="M699.57,-179.48C669.29,-169.18 618.2,-151.81 584.2,-140.25"/>
<polygon fill="midnightblue" stroke="midnightblue" points="585.27,-136.91 574.67,-137.01 583.01,-143.54 585.27,-136.91"/>
</g>
<!-- Node16 -->
<g id="node16" class="node">
<title>Node16</title>
<g id="a_node16"><a xlink:href="../../d0/d00/compiler__defs_8h.html" target="_top" xlink:title=" ">
<polygon fill="none" stroke="black" points="832.15,-112.5 832.15,-142.5 939.15,-142.5 939.15,-112.5 832.15,-112.5"/>
<text text-anchor="start" x="840.15" y="-130.5" font-family="Helvetica,sans-Serif" font-size="10.00">../system/compiler</text>
<text text-anchor="middle" x="885.65" y="-119.5" font-family="Helvetica,sans-Serif" font-size="10.00">_defs.h</text>
</a>
</g>
</g>
<!-- Node8&#45;&gt;Node16 -->
<g id="edge31" class="edge">
<title>Node8&#45;&gt;Node16</title>
<path fill="none" stroke="midnightblue" d="M747.71,-179.48C771.25,-170.78 808.46,-157.03 838.3,-146"/>
<polygon fill="midnightblue" stroke="midnightblue" points="839.53,-149.27 847.7,-142.52 837.11,-142.71 839.53,-149.27"/>
</g>
<!-- Node12&#45;&gt;Node2 -->
<g id="edge21" class="edge">
<title>Node12&#45;&gt;Node2</title>
<path fill="none" stroke="midnightblue" d="M508.38,-117.92C464.72,-108.59 393.94,-92.77 333.65,-76 274.2,-59.47 206.07,-36.59 166.35,-22.85"/>
<polygon fill="midnightblue" stroke="midnightblue" points="167.49,-19.54 156.89,-19.56 165.19,-26.15 167.49,-19.54"/>
</g>
<!-- Node12&#45;&gt;Node3 -->
<g id="edge20" class="edge">
<title>Node12&#45;&gt;Node3</title>
<path fill="none" stroke="midnightblue" d="M543.83,-117.97C533.07,-102.87 508.47,-71.59 479.65,-56 428.23,-28.19 361.51,-17.53 315.29,-13.46"/>
<polygon fill="midnightblue" stroke="midnightblue" points="315.42,-9.96 305.17,-12.65 314.86,-16.94 315.42,-9.96"/>
</g>
<!-- Node12&#45;&gt;Node4 -->
<g id="edge29" class="edge">
<title>Node12&#45;&gt;Node4</title>
<path fill="none" stroke="midnightblue" d="M570.73,-117.99C594.49,-108.29 634.16,-91.73 667.65,-76 685.28,-67.72 688.54,-63.19 706.65,-56 742.24,-41.86 784.02,-29.99 815.23,-21.99"/>
<polygon fill="midnightblue" stroke="midnightblue" points="816.13,-25.38 824.97,-19.54 814.42,-18.59 816.13,-25.38"/>
</g>
<!-- Node12&#45;&gt;Node6 -->
<g id="edge22" class="edge">
<title>Node12&#45;&gt;Node6</title>
<path fill="none" stroke="midnightblue" d="M601.51,-117.98C667.1,-107.19 779.9,-88.65 849.87,-77.15"/>
<polygon fill="midnightblue" stroke="midnightblue" points="850.58,-80.58 859.88,-75.51 849.44,-73.68 850.58,-80.58"/>
</g>
<!-- Node12&#45;&gt;Node10 -->
<g id="edge23" class="edge">
<title>Node12&#45;&gt;Node10</title>
<path fill="none" stroke="midnightblue" d="M578.3,-117.98C613.2,-107.59 672.3,-90.01 711.15,-78.45"/>
<polygon fill="midnightblue" stroke="midnightblue" points="712.46,-81.72 721.04,-75.51 710.46,-75.01 712.46,-81.72"/>
</g>
<!-- Node13 -->
<g id="node13" class="node">
<title>Node13</title>
<g id="a_node13"><a xlink:title=" ">
<polygon fill="none" stroke="#bfbfbf" points="527.15,-56.5 527.15,-75.5 572.15,-75.5 572.15,-56.5 527.15,-56.5"/>
<text text-anchor="middle" x="549.65" y="-63.5" font-family="Helvetica,sans-Serif" font-size="10.00">utility</text>
</a>
</g>
</g>
<!-- Node12&#45;&gt;Node13 -->
<g id="edge24" class="edge">
<title>Node12&#45;&gt;Node13</title>
<path fill="none" stroke="midnightblue" d="M549.65,-117.98C549.65,-109.58 549.65,-96.48 549.65,-85.66"/>
<polygon fill="midnightblue" stroke="midnightblue" points="553.15,-85.51 549.65,-75.51 546.15,-85.51 553.15,-85.51"/>
</g>
<!-- Node14 -->
<g id="node14" class="node">
<title>Node14</title>
<g id="a_node14"><a xlink:href="../../d1/d57/_ignore_unused_8h.html" target="_top" xlink:title=" ">
<polygon fill="none" stroke="black" points="342.65,-56.5 342.65,-75.5 470.65,-75.5 470.65,-56.5 342.65,-56.5"/>
<text text-anchor="middle" x="406.65" y="-63.5" font-family="Helvetica,sans-Serif" font-size="10.00">../misc/IgnoreUnused.h</text>
</a>
</g>
</g>
<!-- Node12&#45;&gt;Node14 -->
<g id="edge25" class="edge">
<title>Node12&#45;&gt;Node14</title>
<path fill="none" stroke="midnightblue" d="M529.16,-117.98C504.84,-107.86 464.1,-90.9 436.33,-79.35"/>
<polygon fill="midnightblue" stroke="midnightblue" points="437.67,-76.12 427.1,-75.51 434.98,-82.58 437.67,-76.12"/>
</g>
<!-- Node15 -->
<g id="node15" class="node">
<title>Node15</title>
<g id="a_node15"><a xlink:title=" ">
<polygon fill="none" stroke="#bfbfbf" points="590.65,-56.5 590.65,-75.5 658.65,-75.5 658.65,-56.5 590.65,-56.5"/>
<text text-anchor="middle" x="624.65" y="-63.5" font-family="Helvetica,sans-Serif" font-size="10.00">filesystem</text>
</a>
</g>
</g>
<!-- Node12&#45;&gt;Node15 -->
<g id="edge30" class="edge">
<title>Node12&#45;&gt;Node15</title>
<path fill="none" stroke="midnightblue" d="M560.39,-117.98C572.2,-108.61 591.39,-93.38 605.73,-82.01"/>
<polygon fill="midnightblue" stroke="midnightblue" points="608.26,-84.47 613.92,-75.51 603.91,-78.98 608.26,-84.47"/>
</g>
<!-- Node14&#45;&gt;Node2 -->
<g id="edge27" class="edge">
<title>Node14&#45;&gt;Node2</title>
<path fill="none" stroke="midnightblue" d="M363.23,-56.44C315.13,-46.96 237.55,-31.67 185.84,-21.48"/>
<polygon fill="midnightblue" stroke="midnightblue" points="186.35,-18.02 175.86,-19.52 184.99,-24.88 186.35,-18.02"/>
</g>
<!-- Node14&#45;&gt;Node3 -->
<g id="edge26" class="edge">
<title>Node14&#45;&gt;Node3</title>
<path fill="none" stroke="midnightblue" d="M383.51,-56.44C359.16,-47.44 320.64,-33.19 293.22,-23.05"/>
<polygon fill="midnightblue" stroke="midnightblue" points="294.26,-19.7 283.67,-19.52 291.84,-26.27 294.26,-19.7"/>
</g>
<!-- Node14&#45;&gt;Node4 -->
<g id="edge28" class="edge">
<title>Node14&#45;&gt;Node4</title>
<path fill="none" stroke="midnightblue" d="M470.87,-57.38C558.79,-46.94 715.47,-28.35 801.31,-18.16"/>
<polygon fill="midnightblue" stroke="midnightblue" points="801.9,-21.62 811.42,-16.96 801.07,-14.66 801.9,-21.62"/>
</g>
<!-- Node16&#45;&gt;Node4 -->
<g id="edge32" class="edge">
<title>Node16&#45;&gt;Node4</title>
<path fill="none" stroke="midnightblue" d="M939.36,-112.71C974.26,-100.99 1010.11,-81.93 991.65,-56 975.61,-33.49 947.51,-22.13 921.53,-16.45"/>
<polygon fill="midnightblue" stroke="midnightblue" points="922.19,-13.01 911.71,-14.54 920.85,-19.88 922.19,-13.01"/>
</g>
<!-- Node16&#45;&gt;Node6 -->
<g id="edge33" class="edge">
<title>Node16&#45;&gt;Node6</title>
<path fill="none" stroke="midnightblue" d="M891.81,-112.4C895.39,-104.2 899.94,-93.78 903.78,-84.99"/>
<polygon fill="midnightblue" stroke="midnightblue" points="907.06,-86.22 907.86,-75.66 900.65,-83.42 907.06,-86.22"/>
</g>
</g>
</svg>
        <g id="navigator" transform="translate(0 0)" fill="#404254">
                <rect fill="#f2f5e9" fill-opacity="0.5" stroke="#606060" stroke-width=".5" x="0" y="0" width="60" height="60"/>
                <use id="zoomplus" xlink:href="#zoomPlus" x="17" y="9" onmousedown="handleZoom(evt,'in')"/>
                <use id="zoomminus" xlink:href="#zoomMin" x="42" y="9" onmousedown="handleZoom(evt,'out')"/>
                <use id="reset" xlink:href="#resetDef" x="30" y="36" onmousedown="handleReset()"/>
                <g id="arrowUp" xlink:href="#dirArrow" transform="translate(30 24)" onmousedown="handlePan(0,-1)">
                  <use xlink:href="#rim" fill="#404040">
                        <set attributeName="fill" to="#808080" begin="arrowUp.mouseover" end="arrowUp.mouseout"/>
                  </use>
                  <path fill="none" stroke="white" stroke-width="1.5" d="M0,-3.0v7 M-2.5,-0.5L0,-3.0L2.5,-0.5"/>
                </g>
                <g id="arrowRight" xlink:href="#dirArrow" transform="rotate(90) translate(36 -43)" onmousedown="handlePan(1,0)">
                  <use xlink:href="#rim" fill="#404040">
                        <set attributeName="fill" to="#808080" begin="arrowRight.mouseover" end="arrowRight.mouseout"/>
                  </use>
                  <path fill="none" stroke="white" stroke-width="1.5" d="M0,-3.0v7 M-2.5,-0.5L0,-3.0L2.5,-0.5"/>
                </g>
                <g id="arrowDown" xlink:href="#dirArrow" transform="rotate(180) translate(-30 -48)" onmousedown="handlePan(0,1)">
                  <use xlink:href="#rim" fill="#404040">
                        <set attributeName="fill" to="#808080" begin="arrowDown.mouseover" end="arrowDown.mouseout"/>
                  </use>
                  <path fill="none" stroke="white" stroke-width="1.5" d="M0,-3.0v7 M-2.5,-0.5L0,-3.0L2.5,-0.5"/>
                </g>
                <g id="arrowLeft" xlink:href="#dirArrow" transform="rotate(270) translate(-36 17)" onmousedown="handlePan(-1,0)">
                  <use xlink:href="#rim" fill="#404040">
                        <set attributeName="fill" to="#808080" begin="arrowLeft.mouseover" end="arrowLeft.mouseout"/>
                  </use>
                  <path fill="none" stroke="white" stroke-width="1.5" d="M0,-3.0v7 M-2.5,-0.5L0,-3.0L2.5,-0.5"/>
                </g>
        </g>
        <svg viewBox="0 0 15 15" width="100%" height="30px" preserveAspectRatio="xMaxYMin meet">
         <g id="arrow_out" transform="scale(0.3 0.3)">
          <a xlink:href="triangle_8h__incl_org.svg" target="_base">
           <rect id="button" ry="5" rx="5" y="6" x="6" height="38" width="38"
                fill="#f2f5e9" fill-opacity="0.5" stroke="#606060" stroke-width="1.0"/>
           <path id="arrow"
             d="M 11.500037,31.436501 C 11.940474,20.09759 22.043105,11.32322 32.158766,21.979434 L 37.068811,17.246167 C 37.068811,17.246167 37.088388,32 37.088388,32 L 22.160133,31.978069 C 22.160133,31.978069 26.997745,27.140456 26.997745,27.140456 C 18.528582,18.264221 13.291696,25.230495 11.500037,31.436501 z"
             style="fill:#404040;"/>
          </a>
         </g>
        </svg>
</svg>
