<?xml version="1.0" encoding="UTF-8" standalone="no"?>
<!DOCTYPE svg PUBLIC "-//W3C//DTD SVG 1.1//EN"
 "http://www.w3.org/Graphics/SVG/1.1/DTD/svg11.dtd">
<!-- Generated by graphviz version 2.43.0 (0)
 -->
<!-- Title: Misc.h Pages: 1 -->
<svg width="911pt" height="252pt"
 viewBox="0.00 0.00 910.90 252.00" xmlns="http://www.w3.org/2000/svg" xmlns:xlink="http://www.w3.org/1999/xlink">
<g id="graph0" class="graph" transform="scale(1 1) rotate(0) translate(4 248)">
<title>Misc.h</title>
<!-- Node1 -->
<g id="node1" class="node">
<title>Node1</title>
<g id="a_node1"><a xlink:title=" ">
<polygon fill="#bfbfbf" stroke="black" points="353.4,-224.5 353.4,-243.5 401.4,-243.5 401.4,-224.5 353.4,-224.5"/>
<text text-anchor="middle" x="377.4" y="-231.5" font-family="Helvetica,sans-Serif" font-size="10.00">Misc.h</text>
</a>
</g>
</g>
<!-- Node2 -->
<g id="node2" class="node">
<title>Node2</title>
<g id="a_node2"><a xlink:href="../../d7/d56/_coeffecients_8h.html" target="_top" xlink:title=" ">
<polygon fill="none" stroke="black" points="63.4,-168.5 63.4,-187.5 149.4,-187.5 149.4,-168.5 63.4,-168.5"/>
<text text-anchor="middle" x="106.4" y="-175.5" font-family="Helvetica,sans-Serif" font-size="10.00">Coeffecients.h</text>
</a>
</g>
</g>
<!-- Node1&#45;&gt;Node2 -->
<g id="edge1" class="edge">
<title>Node1&#45;&gt;Node2</title>
<path fill="none" stroke="midnightblue" d="M343.52,-226.25C294.33,-216.45 203.17,-198.28 149.33,-187.56"/>
<polygon fill="midnightblue" stroke="midnightblue" points="342.86,-229.69 353.35,-228.21 344.23,-222.82 342.86,-229.69"/>
</g>
<!-- Node3 -->
<g id="node3" class="node">
<title>Node3</title>
<g id="a_node3"><a xlink:href="../../da/d2d/_filter_8h.html" target="_top" xlink:title=" ">
<polygon fill="none" stroke="black" points="10.4,-112.5 10.4,-131.5 60.4,-131.5 60.4,-112.5 10.4,-112.5"/>
<text text-anchor="middle" x="35.4" y="-119.5" font-family="Helvetica,sans-Serif" font-size="10.00">Filter.h</text>
</a>
</g>
</g>
<!-- Node1&#45;&gt;Node3 -->
<g id="edge4" class="edge">
<title>Node1&#45;&gt;Node3</title>
<path fill="none" stroke="midnightblue" d="M343.06,-232.78C268.91,-231.6 97.08,-224.86 54.4,-188 37.85,-173.71 35.32,-145.87 35.17,-131.72"/>
<polygon fill="midnightblue" stroke="midnightblue" points="343.22,-236.28 353.26,-232.92 343.31,-229.28 343.22,-236.28"/>
</g>
<!-- Node4 -->
<g id="node4" class="node">
<title>Node4</title>
<g id="a_node4"><a xlink:href="../../d6/d15/limes__audio_8h.html" target="_top" xlink:title=" ">
<polygon fill="none" stroke="red" points="384.9,-0.5 384.9,-19.5 469.9,-19.5 469.9,-0.5 384.9,-0.5"/>
<text text-anchor="middle" x="427.4" y="-7.5" font-family="Helvetica,sans-Serif" font-size="10.00">limes_audio.h</text>
</a>
</g>
</g>
<!-- Node1&#45;&gt;Node4 -->
<g id="edge5" class="edge">
<title>Node1&#45;&gt;Node4</title>
<path fill="none" stroke="midnightblue" d="M342.69,-231.99C266.75,-229.22 88.64,-219.46 38.4,-188 6.56,-168.06 -3.19,-149.29 1.4,-112 4.53,-86.54 -3.93,-72.86 15.4,-56 42.85,-32.05 284.66,-17.83 384.53,-12.94"/>
<polygon fill="midnightblue" stroke="midnightblue" points="343.01,-235.51 353.13,-232.35 343.25,-228.51 343.01,-235.51"/>
</g>
<!-- Node6 -->
<g id="node5" class="node">
<title>Node6</title>
<g id="a_node5"><a xlink:href="../../d5/d33/_mono_stereo_converter_8h.html" target="_top" xlink:title=" ">
<polygon fill="none" stroke="black" points="34.9,-56.5 34.9,-75.5 165.9,-75.5 165.9,-56.5 34.9,-56.5"/>
<text text-anchor="middle" x="100.4" y="-63.5" font-family="Helvetica,sans-Serif" font-size="10.00">MonoStereoConverter.h</text>
</a>
</g>
</g>
<!-- Node1&#45;&gt;Node6 -->
<g id="edge6" class="edge">
<title>Node1&#45;&gt;Node6</title>
<path fill="none" stroke="midnightblue" d="M343.5,-222.77C319.52,-214.87 287.03,-202.8 260.4,-188 198.3,-153.48 133.57,-97.14 109.84,-75.68"/>
<polygon fill="midnightblue" stroke="midnightblue" points="342.63,-226.17 353.22,-225.9 344.77,-219.5 342.63,-226.17"/>
</g>
<!-- Node7 -->
<g id="node6" class="node">
<title>Node7</title>
<g id="a_node6"><a xlink:href="../../dd/d28/_circular_buffer_8h_source.html" target="_top" xlink:title=" ">
<polygon fill="none" stroke="black" points="184.4,-56.5 184.4,-75.5 276.4,-75.5 276.4,-56.5 184.4,-56.5"/>
<text text-anchor="middle" x="230.4" y="-63.5" font-family="Helvetica,sans-Serif" font-size="10.00">CircularBuffer.h</text>
</a>
</g>
</g>
<!-- Node1&#45;&gt;Node7 -->
<g id="edge8" class="edge">
<title>Node1&#45;&gt;Node7</title>
<path fill="none" stroke="midnightblue" d="M345.13,-220.32C311,-205 258.78,-175.73 234.4,-132 224.38,-114.03 226.58,-88.76 228.7,-75.65"/>
<polygon fill="midnightblue" stroke="midnightblue" points="344.1,-223.68 354.67,-224.44 346.88,-217.26 344.1,-223.68"/>
</g>
<!-- Node8 -->
<g id="node7" class="node">
<title>Node8</title>
<g id="a_node7"><a xlink:href="../../d4/d5f/_perlin_noise_8h_source.html" target="_top" xlink:title=" ">
<polygon fill="none" stroke="black" points="243.9,-112.5 243.9,-131.5 324.9,-131.5 324.9,-112.5 243.9,-112.5"/>
<text text-anchor="middle" x="284.4" y="-119.5" font-family="Helvetica,sans-Serif" font-size="10.00">PerlinNoise.h</text>
</a>
</g>
</g>
<!-- Node1&#45;&gt;Node8 -->
<g id="edge10" class="edge">
<title>Node1&#45;&gt;Node8</title>
<path fill="none" stroke="midnightblue" d="M363.52,-216.59C343.47,-192.87 307.12,-149.87 291.66,-131.59"/>
<polygon fill="midnightblue" stroke="midnightblue" points="360.97,-218.99 370.1,-224.37 366.32,-214.47 360.97,-218.99"/>
</g>
<!-- Node9 -->
<g id="node8" class="node">
<title>Node9</title>
<g id="a_node8"><a xlink:href="../../d5/d84/_sample_stream_8h.html" target="_top" xlink:title=" ">
<polygon fill="none" stroke="black" points="430.4,-168.5 430.4,-187.5 528.4,-187.5 528.4,-168.5 430.4,-168.5"/>
<text text-anchor="middle" x="479.4" y="-175.5" font-family="Helvetica,sans-Serif" font-size="10.00">SampleStream.h</text>
</a>
</g>
</g>
<!-- Node1&#45;&gt;Node9 -->
<g id="edge12" class="edge">
<title>Node1&#45;&gt;Node9</title>
<path fill="none" stroke="midnightblue" d="M402.73,-219.59C421.59,-209.61 446.78,-196.27 463.05,-187.65"/>
<polygon fill="midnightblue" stroke="midnightblue" points="400.99,-216.55 393.79,-224.32 404.26,-222.74 400.99,-216.55"/>
</g>
<!-- Node10 -->
<g id="node9" class="node">
<title>Node10</title>
<g id="a_node9"><a xlink:href="../../dc/da4/oscillator_8h.html" target="_top" xlink:title=" ">
<polygon fill="none" stroke="black" points="381.4,-112.5 381.4,-131.5 451.4,-131.5 451.4,-112.5 381.4,-112.5"/>
<text text-anchor="middle" x="416.4" y="-119.5" font-family="Helvetica,sans-Serif" font-size="10.00">oscillator.h</text>
</a>
</g>
</g>
<!-- Node1&#45;&gt;Node10 -->
<g id="edge22" class="edge">
<title>Node1&#45;&gt;Node10</title>
<path fill="none" stroke="midnightblue" d="M383.9,-214.67C392.42,-190.62 407.04,-149.39 413.35,-131.59"/>
<polygon fill="midnightblue" stroke="midnightblue" points="380.5,-213.77 380.46,-224.37 387.1,-216.11 380.5,-213.77"/>
</g>
<!-- Node11 -->
<g id="node10" class="node">
<title>Node11</title>
<g id="a_node10"><a xlink:href="../../d8/dee/basic__oscillators_8h.html" target="_top" xlink:title=" ">
<polygon fill="none" stroke="black" points="332.9,-56.5 332.9,-75.5 439.9,-75.5 439.9,-56.5 332.9,-56.5"/>
<text text-anchor="middle" x="386.4" y="-63.5" font-family="Helvetica,sans-Serif" font-size="10.00">basic_oscillators.h</text>
</a>
</g>
</g>
<!-- Node1&#45;&gt;Node11 -->
<g id="edge24" class="edge">
<title>Node1&#45;&gt;Node11</title>
<path fill="none" stroke="midnightblue" d="M374.42,-214.32C371.13,-190.45 366.94,-147.9 372.4,-112 374.37,-99.06 379.34,-84.72 382.8,-75.78"/>
<polygon fill="midnightblue" stroke="midnightblue" points="370.99,-215.05 375.93,-224.43 377.92,-214.02 370.99,-215.05"/>
</g>
<!-- Node12 -->
<g id="node11" class="node">
<title>Node12</title>
<g id="a_node11"><a xlink:href="../../d6/db1/_white_noise_generator_8h.html" target="_top" xlink:title=" ">
<polygon fill="none" stroke="black" points="545.4,-112.5 545.4,-131.5 675.4,-131.5 675.4,-112.5 545.4,-112.5"/>
<text text-anchor="middle" x="610.4" y="-119.5" font-family="Helvetica,sans-Serif" font-size="10.00">WhiteNoiseGenerator.h</text>
</a>
</g>
</g>
<!-- Node1&#45;&gt;Node12 -->
<g id="edge23" class="edge">
<title>Node1&#45;&gt;Node12</title>
<path fill="none" stroke="midnightblue" d="M411.69,-227.98C445.3,-222.02 497.2,-210 537.4,-188 565.09,-172.84 591.08,-145.4 603.22,-131.52"/>
<polygon fill="midnightblue" stroke="midnightblue" points="410.74,-224.59 401.46,-229.71 411.9,-231.5 410.74,-224.59"/>
</g>
<!-- Node13 -->
<g id="node12" class="node">
<title>Node13</title>
<g id="a_node12"><a xlink:href="../../d7/d4f/shifter_8h.html" target="_top" xlink:title=" ">
<polygon fill="none" stroke="black" points="640.4,-56.5 640.4,-75.5 696.4,-75.5 696.4,-56.5 640.4,-56.5"/>
<text text-anchor="middle" x="668.4" y="-63.5" font-family="Helvetica,sans-Serif" font-size="10.00">shifter.h</text>
</a>
</g>
</g>
<!-- Node1&#45;&gt;Node13 -->
<g id="edge33" class="edge">
<title>Node1&#45;&gt;Node13</title>
<path fill="none" stroke="midnightblue" d="M411.62,-227.27C485.26,-214.11 654.53,-179.23 684.4,-132 695.7,-114.12 682.85,-88.81 674.47,-75.67"/>
<polygon fill="midnightblue" stroke="midnightblue" points="410.72,-223.87 401.47,-229.05 411.93,-230.77 410.72,-223.87"/>
</g>
<!-- Node14 -->
<g id="node13" class="node">
<title>Node14</title>
<g id="a_node13"><a xlink:href="../../dc/ddf/_pitch_detector_8h.html" target="_top" xlink:title=" ">
<polygon fill="none" stroke="black" points="811.9,-168.5 811.9,-187.5 902.9,-187.5 902.9,-168.5 811.9,-168.5"/>
<text text-anchor="middle" x="857.4" y="-175.5" font-family="Helvetica,sans-Serif" font-size="10.00">PitchDetector.h</text>
</a>
</g>
</g>
<!-- Node1&#45;&gt;Node14 -->
<g id="edge25" class="edge">
<title>Node1&#45;&gt;Node14</title>
<path fill="none" stroke="midnightblue" d="M411.84,-230.07C484.41,-223.73 658.31,-207.74 803.4,-188 806.13,-187.63 808.94,-187.23 811.76,-186.8"/>
<polygon fill="midnightblue" stroke="midnightblue" points="411.14,-226.61 401.48,-230.97 411.75,-233.59 411.14,-226.61"/>
</g>
<!-- Node15 -->
<g id="node14" class="node">
<title>Node15</title>
<g id="a_node14"><a xlink:href="../../d3/d19/analyzer_8h.html" target="_top" xlink:title=" ">
<polygon fill="none" stroke="black" points="731.9,-112.5 731.9,-131.5 798.9,-131.5 798.9,-112.5 731.9,-112.5"/>
<text text-anchor="middle" x="765.4" y="-119.5" font-family="Helvetica,sans-Serif" font-size="10.00">analyzer.h</text>
</a>
</g>
</g>
<!-- Node1&#45;&gt;Node15 -->
<g id="edge32" class="edge">
<title>Node1&#45;&gt;Node15</title>
<path fill="none" stroke="midnightblue" d="M411.68,-232.03C466.38,-229.52 576.03,-220.49 662.4,-188 699.41,-174.08 737.31,-145.81 755.05,-131.59"/>
<polygon fill="midnightblue" stroke="midnightblue" points="411.35,-228.54 401.5,-232.45 411.63,-235.54 411.35,-228.54"/>
</g>
<!-- Node16 -->
<g id="node15" class="node">
<title>Node16</title>
<g id="a_node15"><a xlink:href="../../dc/dad/_peak_finder_8h.html" target="_top" xlink:title=" ">
<polygon fill="none" stroke="black" points="714.9,-168.5 714.9,-187.5 793.9,-187.5 793.9,-168.5 714.9,-168.5"/>
<text text-anchor="middle" x="754.4" y="-175.5" font-family="Helvetica,sans-Serif" font-size="10.00">PeakFinder.h</text>
</a>
</g>
</g>
<!-- Node1&#45;&gt;Node16 -->
<g id="edge30" class="edge">
<title>Node1&#45;&gt;Node16</title>
<path fill="none" stroke="midnightblue" d="M412.01,-228.49C471.18,-220.7 595.55,-204.04 700.4,-188 705,-187.3 709.82,-186.53 714.61,-185.76"/>
<polygon fill="midnightblue" stroke="midnightblue" points="411.2,-225.06 401.74,-229.83 412.11,-232 411.2,-225.06"/>
</g>
<!-- Node2&#45;&gt;Node3 -->
<g id="edge2" class="edge">
<title>Node2&#45;&gt;Node3</title>
<path fill="none" stroke="midnightblue" d="M86.81,-162.1C74.03,-152.38 57.79,-140.03 47.01,-131.83"/>
<polygon fill="midnightblue" stroke="midnightblue" points="84.91,-165.06 94.99,-168.32 89.15,-159.48 84.91,-165.06"/>
</g>
<!-- Node3&#45;&gt;Node4 -->
<g id="edge3" class="edge">
<title>Node3&#45;&gt;Node4</title>
<path fill="none" stroke="midnightblue" d="M25.55,-102.8C19.24,-88.37 14.13,-68.6 25.4,-56 49.07,-29.53 286.25,-16.8 384.81,-12.62"/>
<polygon fill="midnightblue" stroke="midnightblue" points="22.61,-104.74 30.15,-112.18 28.9,-101.66 22.61,-104.74"/>
</g>
<!-- Node6&#45;&gt;Node4 -->
<g id="edge7" class="edge">
<title>Node6&#45;&gt;Node4</title>
<path fill="none" stroke="midnightblue" d="M162.34,-54.77C227.39,-44.03 327.96,-27.42 384.68,-18.05"/>
<polygon fill="midnightblue" stroke="midnightblue" points="161.51,-51.36 152.21,-56.44 162.65,-58.27 161.51,-51.36"/>
</g>
<!-- Node7&#45;&gt;Node4 -->
<g id="edge9" class="edge">
<title>Node7&#45;&gt;Node4</title>
<path fill="none" stroke="midnightblue" d="M271.63,-53.7C308.81,-43.51 362.67,-28.74 396.33,-19.52"/>
<polygon fill="midnightblue" stroke="midnightblue" points="270.33,-50.42 261.61,-56.44 272.18,-57.18 270.33,-50.42"/>
</g>
<!-- Node8&#45;&gt;Node4 -->
<g id="edge11" class="edge">
<title>Node8&#45;&gt;Node4</title>
<path fill="none" stroke="midnightblue" d="M291.53,-102.93C297.99,-88.57 308.74,-68.84 323.4,-56 343.67,-38.24 372.03,-26.6 394.02,-19.62"/>
<polygon fill="midnightblue" stroke="midnightblue" points="288.26,-101.68 287.6,-112.25 294.71,-104.4 288.26,-101.68"/>
</g>
<!-- Node9&#45;&gt;Node4 -->
<g id="edge13" class="edge">
<title>Node9&#45;&gt;Node4</title>
<path fill="none" stroke="midnightblue" d="M479.98,-158.31C480.07,-133.82 477.89,-89.99 463.4,-56 457.28,-41.64 445.25,-28.07 436.78,-19.66"/>
<polygon fill="midnightblue" stroke="midnightblue" points="476.48,-158.32 479.8,-168.38 483.48,-158.44 476.48,-158.32"/>
</g>
<!-- Node9&#45;&gt;Node10 -->
<g id="edge14" class="edge">
<title>Node9&#45;&gt;Node10</title>
<path fill="none" stroke="midnightblue" d="M461.36,-161.54C450.13,-151.91 436.08,-139.87 426.71,-131.83"/>
<polygon fill="midnightblue" stroke="midnightblue" points="459.41,-164.47 469.28,-168.32 463.96,-159.16 459.41,-164.47"/>
</g>
<!-- Node9&#45;&gt;Node12 -->
<g id="edge18" class="edge">
<title>Node9&#45;&gt;Node12</title>
<path fill="none" stroke="midnightblue" d="M509.72,-164.5C534.27,-154.38 568.22,-140.39 589.74,-131.52"/>
<polygon fill="midnightblue" stroke="midnightblue" points="508.07,-161.4 500.16,-168.44 510.74,-167.87 508.07,-161.4"/>
</g>
<!-- Node9&#45;&gt;Node13 -->
<g id="edge20" class="edge">
<title>Node9&#45;&gt;Node13</title>
<path fill="none" stroke="midnightblue" d="M490.81,-159.51C501.13,-144.94 517.57,-124.6 536.4,-112 568.59,-90.46 612.11,-78.26 640.22,-72.15"/>
<polygon fill="midnightblue" stroke="midnightblue" points="487.68,-157.88 484.94,-168.11 493.47,-161.82 487.68,-157.88"/>
</g>
<!-- Node10&#45;&gt;Node4 -->
<g id="edge15" class="edge">
<title>Node10&#45;&gt;Node4</title>
<path fill="none" stroke="midnightblue" d="M431.85,-104.55C438.3,-96.57 445.06,-86.46 448.4,-76 454.82,-55.89 442.16,-32.32 433.85,-19.83"/>
<polygon fill="midnightblue" stroke="midnightblue" points="429.05,-102.44 425.15,-112.29 434.34,-107.02 429.05,-102.44"/>
</g>
<!-- Node10&#45;&gt;Node11 -->
<g id="edge16" class="edge">
<title>Node10&#45;&gt;Node11</title>
<path fill="none" stroke="midnightblue" d="M406.55,-103.27C401.42,-94.05 395.38,-83.17 391.26,-75.75"/>
<polygon fill="midnightblue" stroke="midnightblue" points="403.53,-105.04 411.44,-112.08 409.65,-101.64 403.53,-105.04"/>
</g>
<!-- Node11&#45;&gt;Node4 -->
<g id="edge17" class="edge">
<title>Node11&#45;&gt;Node4</title>
<path fill="none" stroke="midnightblue" d="M399.42,-47.86C406.52,-38.5 415,-27.33 420.75,-19.75"/>
<polygon fill="midnightblue" stroke="midnightblue" points="396.43,-46 393.17,-56.08 402,-50.24 396.43,-46"/>
</g>
<!-- Node12&#45;&gt;Node4 -->
<g id="edge19" class="edge">
<title>Node12&#45;&gt;Node4</title>
<path fill="none" stroke="midnightblue" d="M591.89,-106.16C574.13,-92.28 546.28,-71.45 520.4,-56 496.22,-41.57 466.72,-27.91 447.52,-19.51"/>
<polygon fill="midnightblue" stroke="midnightblue" points="589.72,-108.9 599.74,-112.35 594.06,-103.41 589.72,-108.9"/>
</g>
<!-- Node13&#45;&gt;Node4 -->
<g id="edge21" class="edge">
<title>Node13&#45;&gt;Node4</title>
<path fill="none" stroke="midnightblue" d="M630.32,-56.47C585.28,-46.38 510.74,-29.67 465.63,-19.57"/>
<polygon fill="midnightblue" stroke="midnightblue" points="629.76,-59.93 640.28,-58.7 631.29,-53.1 629.76,-59.93"/>
</g>
<!-- Node14&#45;&gt;Node4 -->
<g id="edge26" class="edge">
<title>Node14&#45;&gt;Node4</title>
<path fill="none" stroke="midnightblue" d="M846.54,-159.85C837.34,-146.06 823.3,-126.65 808.4,-112 778.22,-82.34 770.57,-72 731.4,-56 643.36,-20.03 530.54,-12.33 470.13,-10.98"/>
<polygon fill="midnightblue" stroke="midnightblue" points="843.69,-161.9 852.08,-168.37 849.56,-158.08 843.69,-161.9"/>
</g>
<!-- Node14&#45;&gt;Node15 -->
<g id="edge27" class="edge">
<title>Node14&#45;&gt;Node15</title>
<path fill="none" stroke="midnightblue" d="M833.85,-163.18C816.92,-153.24 794.62,-140.15 780.14,-131.65"/>
<polygon fill="midnightblue" stroke="midnightblue" points="832.22,-166.28 842.62,-168.32 835.77,-160.24 832.22,-166.28"/>
</g>
<!-- Node15&#45;&gt;Node4 -->
<g id="edge28" class="edge">
<title>Node15&#45;&gt;Node4</title>
<path fill="none" stroke="midnightblue" d="M754.34,-103.61C743.72,-88.45 726.24,-67.19 705.4,-56 665.45,-34.54 537.43,-20.55 469.95,-14.48"/>
<polygon fill="midnightblue" stroke="midnightblue" points="751.57,-105.75 760.04,-112.11 757.38,-101.85 751.57,-105.75"/>
</g>
<!-- Node15&#45;&gt;Node13 -->
<g id="edge29" class="edge">
<title>Node15&#45;&gt;Node13</title>
<path fill="none" stroke="midnightblue" d="M741.06,-107.45C723.16,-97.48 699.35,-84.23 683.94,-75.65"/>
<polygon fill="midnightblue" stroke="midnightblue" points="739.37,-110.52 749.81,-112.32 742.78,-104.4 739.37,-110.52"/>
</g>
<!-- Node16&#45;&gt;Node15 -->
<g id="edge31" class="edge">
<title>Node16&#45;&gt;Node15</title>
<path fill="none" stroke="midnightblue" d="M758.25,-158.1C760.07,-149.14 762.17,-138.86 763.62,-131.75"/>
<polygon fill="midnightblue" stroke="midnightblue" points="754.78,-157.59 756.22,-168.08 761.64,-158.98 754.78,-157.59"/>
</g>
</g>
</svg>
