<?xml version="1.0" encoding="UTF-8" standalone="no"?>
<!DOCTYPE svg PUBLIC "-//W3C//DTD SVG 1.1//EN"
 "http://www.w3.org/Graphics/SVG/1.1/DTD/svg11.dtd">
<!-- Generated by graphviz version 2.43.0 (0)
 -->
<!-- Title: fallback_impl.h Pages: 1 -->
<svg width="199pt" height="84pt"
 viewBox="0.00 0.00 199.00 84.00" xmlns="http://www.w3.org/2000/svg" xmlns:xlink="http://www.w3.org/1999/xlink">
<g id="graph0" class="graph" transform="scale(1 1) rotate(0) translate(4 80)">
<title>fallback_impl.h</title>
<!-- Node1 -->
<g id="node1" class="node">
<title>Node1</title>
<g id="a_node1"><a xlink:title=" ">
<polygon fill="#bfbfbf" stroke="black" points="57.5,-56.5 57.5,-75.5 149.5,-75.5 149.5,-56.5 57.5,-56.5"/>
<text text-anchor="middle" x="103.5" y="-63.5" font-family="Helvetica,sans-Serif" font-size="10.00">fallback_impl.h</text>
</a>
</g>
</g>
<!-- Node2 -->
<g id="node2" class="node">
<title>Node2</title>
<g id="a_node2"><a xlink:href="../../d6/d1a/fallback_8h.html" target="_top" xlink:title=" ">
<polygon fill="none" stroke="black" points="0,-0.5 0,-19.5 65,-19.5 65,-0.5 0,-0.5"/>
<text text-anchor="middle" x="32.5" y="-7.5" font-family="Helvetica,sans-Serif" font-size="10.00">fallback.h</text>
</a>
</g>
</g>
<!-- Node1&#45;&gt;Node2 -->
<g id="edge1" class="edge">
<title>Node1&#45;&gt;Node2</title>
<path fill="none" stroke="midnightblue" d="M83.91,-50.1C71.13,-40.38 54.89,-28.03 44.11,-19.83"/>
<polygon fill="midnightblue" stroke="midnightblue" points="82.01,-53.06 92.09,-56.32 86.25,-47.48 82.01,-53.06"/>
</g>
<!-- Node3 -->
<g id="node3" class="node">
<title>Node3</title>
<g id="a_node3"><a xlink:href="../../d3/d88/ipp_8h.html" target="_top" xlink:title=" ">
<polygon fill="none" stroke="black" points="83,-0.5 83,-19.5 124,-19.5 124,-0.5 83,-0.5"/>
<text text-anchor="middle" x="103.5" y="-7.5" font-family="Helvetica,sans-Serif" font-size="10.00">ipp.h</text>
</a>
</g>
</g>
<!-- Node1&#45;&gt;Node3 -->
<g id="edge2" class="edge">
<title>Node1&#45;&gt;Node3</title>
<path fill="none" stroke="midnightblue" d="M103.5,-45.8C103.5,-36.91 103.5,-26.78 103.5,-19.75"/>
<polygon fill="midnightblue" stroke="midnightblue" points="100,-46.08 103.5,-56.08 107,-46.08 100,-46.08"/>
</g>
<!-- Node4 -->
<g id="node4" class="node">
<title>Node4</title>
<g id="a_node4"><a xlink:href="../../d2/d36/vdsp_8h.html" target="_top" xlink:title=" ">
<polygon fill="none" stroke="black" points="142,-0.5 142,-19.5 191,-19.5 191,-0.5 142,-0.5"/>
<text text-anchor="middle" x="166.5" y="-7.5" font-family="Helvetica,sans-Serif" font-size="10.00">vdsp.h</text>
</a>
</g>
</g>
<!-- Node1&#45;&gt;Node4 -->
<g id="edge3" class="edge">
<title>Node1&#45;&gt;Node4</title>
<path fill="none" stroke="midnightblue" d="M121.54,-49.54C132.77,-39.91 146.82,-27.87 156.19,-19.83"/>
<polygon fill="midnightblue" stroke="midnightblue" points="118.94,-47.16 113.62,-56.32 123.49,-52.47 118.94,-47.16"/>
</g>
</g>
</svg>
