<?xml version="1.0" encoding="UTF-8" standalone="no"?>
<!DOCTYPE svg PUBLIC "-//W3C//DTD SVG 1.1//EN"
 "http://www.w3.org/Graphics/SVG/1.1/DTD/svg11.dtd">
<!-- Generated by graphviz version 2.43.0 (0)
 -->
<!-- Title: mathFunctions.h Pages: 1 -->
<!--zoomable 308 -->
<svg id="main" version="1.1" xmlns="http://www.w3.org/2000/svg" xmlns:xlink="http://www.w3.org/1999/xlink" xml:space="preserve" onload="init(evt)">
<style type="text/css"><![CDATA[
.edge:hover path { stroke: red; }
.edge:hover polygon { stroke: red; fill: red; }
]]></style>
<script type="text/javascript"><![CDATA[
var edges = document.getElementsByTagName('g');
if (edges && edges.length) {
  for (var i=0;i<edges.length;i++) {
    if (edges[i].id.substr(0,4)=='edge') {
      edges[i].setAttribute('class','edge');
    }
  }
}
]]></script>
        <defs>
                <circle id="rim" cx="0" cy="0" r="7"/>
                <circle id="rim2" cx="0" cy="0" r="3.5"/>
                <g id="zoomPlus">
                        <use xlink:href="#rim" fill="#404040">
                                <set attributeName="fill" to="#808080" begin="zoomplus.mouseover" end="zoomplus.mouseout"/>
                        </use>
                        <path d="M-4,0h8M0,-4v8" fill="none" stroke="white" stroke-width="1.5" pointer-events="none"/>
                </g>
                <g id="zoomMin">
                        <use xlink:href="#rim" fill="#404040">
                                <set attributeName="fill" to="#808080" begin="zoomminus.mouseover" end="zoomminus.mouseout"/>
                        </use>
                        <path d="M-4,0h8" fill="none" stroke="white" stroke-width="1.5" pointer-events="none"/>
                </g>
                <g id="dirArrow">
                        <path fill="none" stroke="white" stroke-width="1.5" d="M0,-3.0v7 M-2.5,-0.5L0,-3.0L2.5,-0.5"/>
                </g>
               <g id="resetDef">
                       <use xlink:href="#rim2" fill="#404040">
                               <set attributeName="fill" to="#808080" begin="reset.mouseover" end="reset.mouseout"/>
                       </use>
               </g>
        </defs>

<script type="text/javascript">
var viewWidth = 939;
var viewHeight = 308;
var sectionId = 'dynsection-1';
</script>
<script xlink:href="../../svgpan.js"/>
<svg id="graph" class="graph">
<g id="viewport">
<title>mathFunctions.h</title>
<!-- Node1 -->
<g id="node1" class="node">
<title>Node1</title>
<g id="a_node1"><a xlink:title=" ">
<polygon fill="#bfbfbf" stroke="black" points="371,-280.5 371,-299.5 469,-299.5 469,-280.5 371,-280.5"/>
<text text-anchor="middle" x="420" y="-287.5" font-family="Helvetica,sans-Serif" font-size="10.00">mathFunctions.h</text>
</a>
</g>
</g>
<!-- Node2 -->
<g id="node2" class="node">
<title>Node2</title>
<g id="a_node2"><a xlink:href="../../d2/d38/year__impl_8h.html" target="_top" xlink:title=" ">
<polygon fill="none" stroke="black" points="66,-224.5 66,-243.5 140,-243.5 140,-224.5 66,-224.5"/>
<text text-anchor="middle" x="103" y="-231.5" font-family="Helvetica,sans-Serif" font-size="10.00">year_impl.h</text>
</a>
</g>
</g>
<!-- Node1&#45;&gt;Node2 -->
<g id="edge1" class="edge">
<title>Node1&#45;&gt;Node2</title>
<path fill="none" stroke="midnightblue" d="M360.78,-278.91C296.18,-267.91 194.75,-250.63 140.39,-241.37"/>
<polygon fill="midnightblue" stroke="midnightblue" points="360.37,-282.39 370.82,-280.62 361.55,-275.49 360.37,-282.39"/>
</g>
<!-- Node11 -->
<g id="node6" class="node">
<title>Node11</title>
<g id="a_node6"><a xlink:href="../../d9/df8/limes__core_8h.html" target="_top" xlink:title=" ">
<polygon fill="none" stroke="red" points="396.5,-0.5 396.5,-19.5 475.5,-19.5 475.5,-0.5 396.5,-0.5"/>
<text text-anchor="middle" x="436" y="-7.5" font-family="Helvetica,sans-Serif" font-size="10.00">limes_core.h</text>
</a>
</g>
</g>
<!-- Node1&#45;&gt;Node11 -->
<g id="edge14" class="edge">
<title>Node1&#45;&gt;Node11</title>
<path fill="none" stroke="midnightblue" d="M360.46,-286.73C271.36,-282.48 108.28,-271.16 57,-244 23.05,-226.02 0,-217.42 0,-179 0,-179 0,-179 0,-121 0,-39.71 288.52,-17.88 396.15,-12.57"/>
<polygon fill="midnightblue" stroke="midnightblue" points="360.54,-290.23 370.69,-287.2 360.86,-283.24 360.54,-290.23"/>
</g>
<!-- Node79 -->
<g id="node7" class="node">
<title>Node79</title>
<g id="a_node7"><a xlink:href="../../da/d19/month__impl_8h.html" target="_top" xlink:title=" ">
<polygon fill="none" stroke="black" points="217,-224.5 217,-243.5 301,-243.5 301,-224.5 217,-224.5"/>
<text text-anchor="middle" x="259" y="-231.5" font-family="Helvetica,sans-Serif" font-size="10.00">month_impl.h</text>
</a>
</g>
</g>
<!-- Node1&#45;&gt;Node79 -->
<g id="edge9" class="edge">
<title>Node1&#45;&gt;Node79</title>
<path fill="none" stroke="midnightblue" d="M384.74,-277.17C354.42,-267 311.43,-252.59 284.39,-243.52"/>
<polygon fill="midnightblue" stroke="midnightblue" points="383.9,-280.58 394.49,-280.44 386.12,-273.95 383.9,-280.58"/>
</g>
<!-- Node81 -->
<g id="node9" class="node">
<title>Node81</title>
<g id="a_node9"><a xlink:href="../../d3/de1/_fraction_8h.html" target="_top" xlink:title=" ">
<polygon fill="none" stroke="black" points="829.5,-224.5 829.5,-243.5 894.5,-243.5 894.5,-224.5 829.5,-224.5"/>
<text text-anchor="middle" x="862" y="-231.5" font-family="Helvetica,sans-Serif" font-size="10.00">Fraction.h</text>
</a>
</g>
</g>
<!-- Node1&#45;&gt;Node81 -->
<g id="edge15" class="edge">
<title>Node1&#45;&gt;Node81</title>
<path fill="none" stroke="midnightblue" d="M479.42,-282.59C554.61,-274.34 688.06,-259.25 802,-244 810.87,-242.81 820.47,-241.42 829.33,-240.09"/>
<polygon fill="midnightblue" stroke="midnightblue" points="478.77,-279.14 469.21,-283.71 479.53,-286.1 478.77,-279.14"/>
</g>
<!-- Node83 -->
<g id="node11" class="node">
<title>Node83</title>
<g id="a_node11"><a xlink:href="../../d0/d80/_random_8h.html" target="_top" xlink:title=" ">
<polygon fill="none" stroke="black" points="243,-168.5 243,-187.5 309,-187.5 309,-168.5 243,-168.5"/>
<text text-anchor="middle" x="276" y="-175.5" font-family="Helvetica,sans-Serif" font-size="10.00">Random.h</text>
</a>
</g>
</g>
<!-- Node1&#45;&gt;Node83 -->
<g id="edge19" class="edge">
<title>Node1&#45;&gt;Node83</title>
<path fill="none" stroke="midnightblue" d="M399.38,-274.37C387.24,-265.67 371.64,-254.35 358,-244 331.95,-224.24 301.99,-200.13 286.5,-187.56"/>
<polygon fill="midnightblue" stroke="midnightblue" points="397.36,-277.23 407.53,-280.19 401.43,-271.53 397.36,-277.23"/>
</g>
<!-- Node84 -->
<g id="node12" class="node">
<title>Node84</title>
<g id="a_node12"><a xlink:href="../../da/dac/angle_8h.html" target="_top" xlink:title=" ">
<polygon fill="none" stroke="black" points="366.5,-224.5 366.5,-243.5 419.5,-243.5 419.5,-224.5 366.5,-224.5"/>
<text text-anchor="middle" x="393" y="-231.5" font-family="Helvetica,sans-Serif" font-size="10.00">angle.h</text>
</a>
</g>
</g>
<!-- Node1&#45;&gt;Node84 -->
<g id="edge21" class="edge">
<title>Node1&#45;&gt;Node84</title>
<path fill="none" stroke="midnightblue" d="M410.99,-270.98C406.41,-261.82 401.05,-251.09 397.38,-243.75"/>
<polygon fill="midnightblue" stroke="midnightblue" points="407.94,-272.7 415.54,-280.08 414.2,-269.57 407.94,-272.7"/>
</g>
<!-- Node85 -->
<g id="node13" class="node">
<title>Node85</title>
<g id="a_node13"><a xlink:href="../../dd/d6a/triangle_8h.html" target="_top" xlink:title=" ">
<polygon fill="none" stroke="black" points="416.5,-168.5 416.5,-187.5 479.5,-187.5 479.5,-168.5 416.5,-168.5"/>
<text text-anchor="middle" x="448" y="-175.5" font-family="Helvetica,sans-Serif" font-size="10.00">triangle.h</text>
</a>
</g>
</g>
<!-- Node1&#45;&gt;Node85 -->
<g id="edge43" class="edge">
<title>Node1&#45;&gt;Node85</title>
<path fill="none" stroke="midnightblue" d="M424.66,-270.67C430.79,-246.62 441.28,-205.39 445.81,-187.59"/>
<polygon fill="midnightblue" stroke="midnightblue" points="421.27,-269.81 422.2,-280.37 428.06,-271.54 421.27,-269.81"/>
</g>
<!-- Node92 -->
<g id="node18" class="node">
<title>Node92</title>
<g id="a_node18"><a xlink:href="../../d3/db6/circle_8h.html" target="_top" xlink:title=" ">
<polygon fill="none" stroke="black" points="670,-112.5 670,-131.5 722,-131.5 722,-112.5 670,-112.5"/>
<text text-anchor="middle" x="696" y="-119.5" font-family="Helvetica,sans-Serif" font-size="10.00">circle.h</text>
</a>
</g>
</g>
<!-- Node1&#45;&gt;Node92 -->
<g id="edge35" class="edge">
<title>Node1&#45;&gt;Node92</title>
<path fill="none" stroke="midnightblue" d="M443.18,-275.06C498.46,-241.81 636.8,-158.6 681.69,-131.61"/>
<polygon fill="midnightblue" stroke="midnightblue" points="441.22,-272.16 434.45,-280.31 444.82,-278.15 441.22,-272.16"/>
</g>
<!-- Node94 -->
<g id="node20" class="node">
<title>Node94</title>
<g id="a_node20"><a xlink:href="../../d0/d67/cylinder_8h.html" target="_top" xlink:title=" ">
<polygon fill="none" stroke="black" points="724,-56.5 724,-75.5 788,-75.5 788,-56.5 724,-56.5"/>
<text text-anchor="middle" x="756" y="-63.5" font-family="Helvetica,sans-Serif" font-size="10.00">cylinder.h</text>
</a>
</g>
</g>
<!-- Node1&#45;&gt;Node94 -->
<g id="edge44" class="edge">
<title>Node1&#45;&gt;Node94</title>
<path fill="none" stroke="midnightblue" d="M465.3,-277.74C532.49,-258.79 658.39,-214.28 731,-132 745.72,-115.32 752.19,-89.04 754.67,-75.57"/>
<polygon fill="midnightblue" stroke="midnightblue" points="464.15,-274.43 455.44,-280.46 466.01,-281.18 464.15,-274.43"/>
</g>
<!-- Node95 -->
<g id="node21" class="node">
<title>Node95</title>
<g id="a_node21"><a xlink:href="../../d5/d4a/sphere_8h.html" target="_top" xlink:title=" ">
<polygon fill="none" stroke="black" points="806.5,-56.5 806.5,-75.5 865.5,-75.5 865.5,-56.5 806.5,-56.5"/>
<text text-anchor="middle" x="836" y="-63.5" font-family="Helvetica,sans-Serif" font-size="10.00">sphere.h</text>
</a>
</g>
</g>
<!-- Node1&#45;&gt;Node95 -->
<g id="edge45" class="edge">
<title>Node1&#45;&gt;Node95</title>
<path fill="none" stroke="midnightblue" d="M479.34,-278.49C514.62,-271.15 559.8,-259.81 598,-244 700.29,-201.66 798.64,-105.59 827.51,-75.91"/>
<polygon fill="midnightblue" stroke="midnightblue" points="478.3,-275.13 469.19,-280.55 479.69,-281.99 478.3,-275.13"/>
</g>
<!-- Node3 -->
<g id="node3" class="node">
<title>Node3</title>
<g id="a_node3"><a xlink:href="../../d5/d98/year_8h.html" target="_top" xlink:title=" ">
<polygon fill="none" stroke="black" points="77.5,-168.5 77.5,-187.5 124.5,-187.5 124.5,-168.5 77.5,-168.5"/>
<text text-anchor="middle" x="101" y="-175.5" font-family="Helvetica,sans-Serif" font-size="10.00">year.h</text>
</a>
</g>
</g>
<!-- Node2&#45;&gt;Node3 -->
<g id="edge2" class="edge">
<title>Node2&#45;&gt;Node3</title>
<path fill="none" stroke="midnightblue" d="M102.29,-213.8C101.96,-204.91 101.58,-194.78 101.32,-187.75"/>
<polygon fill="midnightblue" stroke="midnightblue" points="98.8,-214.22 102.67,-224.08 105.8,-213.96 98.8,-214.22"/>
</g>
<!-- Node4 -->
<g id="node4" class="node">
<title>Node4</title>
<g id="a_node4"><a xlink:href="../../d0/ddc/weekday_8h.html" target="_top" xlink:title=" ">
<polygon fill="none" stroke="black" points="104,-112.5 104,-131.5 172,-131.5 172,-112.5 104,-112.5"/>
<text text-anchor="middle" x="138" y="-119.5" font-family="Helvetica,sans-Serif" font-size="10.00">weekday.h</text>
</a>
</g>
</g>
<!-- Node3&#45;&gt;Node4 -->
<g id="edge3" class="edge">
<title>Node3&#45;&gt;Node4</title>
<path fill="none" stroke="midnightblue" d="M112.95,-159.57C119.31,-150.27 126.87,-139.25 132,-131.75"/>
<polygon fill="midnightblue" stroke="midnightblue" points="109.87,-157.86 107.11,-168.08 115.65,-161.81 109.87,-157.86"/>
</g>
<!-- Node5 -->
<g id="node5" class="node">
<title>Node5</title>
<g id="a_node5"><a xlink:href="../../db/d96/date_8h.html" target="_top" xlink:title=" ">
<polygon fill="none" stroke="red" points="162.5,-56.5 162.5,-75.5 209.5,-75.5 209.5,-56.5 162.5,-56.5"/>
<text text-anchor="middle" x="186" y="-63.5" font-family="Helvetica,sans-Serif" font-size="10.00">date.h</text>
</a>
</g>
</g>
<!-- Node3&#45;&gt;Node5 -->
<g id="edge7" class="edge">
<title>Node3&#45;&gt;Node5</title>
<path fill="none" stroke="midnightblue" d="M93.58,-158.41C89.35,-144.59 86.41,-125.83 95,-112 109.6,-88.49 140.52,-76.89 162.25,-71.44"/>
<polygon fill="midnightblue" stroke="midnightblue" points="90.42,-159.98 97.06,-168.24 97.02,-157.64 90.42,-159.98"/>
</g>
<!-- Node3&#45;&gt;Node11 -->
<g id="edge8" class="edge">
<title>Node3&#45;&gt;Node11</title>
<path fill="none" stroke="midnightblue" d="M91.33,-159.32C85.37,-146 79.93,-127.46 86,-112 98.41,-80.39 107.97,-71.87 138,-56 182.12,-32.68 325.94,-19.13 396.39,-13.74"/>
<polygon fill="midnightblue" stroke="midnightblue" points="88.23,-160.94 95.8,-168.35 94.5,-157.83 88.23,-160.94"/>
</g>
<!-- Node4&#45;&gt;Node5 -->
<g id="edge4" class="edge">
<title>Node4&#45;&gt;Node5</title>
<path fill="none" stroke="midnightblue" d="M152.73,-104.43C161.14,-94.97 171.35,-83.48 178.22,-75.75"/>
<polygon fill="midnightblue" stroke="midnightblue" points="149.95,-102.28 145.93,-112.08 155.19,-106.93 149.95,-102.28"/>
</g>
<!-- Node4&#45;&gt;Node11 -->
<g id="edge6" class="edge">
<title>Node4&#45;&gt;Node11</title>
<path fill="none" stroke="midnightblue" d="M137.06,-102.36C137.4,-87.65 140.45,-67.71 153,-56 187.6,-23.71 327.07,-14.56 396.43,-11.99"/>
<polygon fill="midnightblue" stroke="midnightblue" points="133.56,-102.43 137.22,-112.37 140.56,-102.32 133.56,-102.43"/>
</g>
<!-- Node5&#45;&gt;Node11 -->
<g id="edge5" class="edge">
<title>Node5&#45;&gt;Node11</title>
<path fill="none" stroke="midnightblue" d="M219.58,-57C221.08,-56.66 222.55,-56.32 224,-56 284.02,-42.52 353.85,-27.91 396.48,-19.1"/>
<polygon fill="midnightblue" stroke="midnightblue" points="218.65,-53.63 209.7,-59.3 220.23,-60.44 218.65,-53.63"/>
</g>
<!-- Node80 -->
<g id="node8" class="node">
<title>Node80</title>
<g id="a_node8"><a xlink:href="../../d7/d38/month_8h.html" target="_top" xlink:title=" ">
<polygon fill="none" stroke="black" points="167.5,-168.5 167.5,-187.5 224.5,-187.5 224.5,-168.5 167.5,-168.5"/>
<text text-anchor="middle" x="196" y="-175.5" font-family="Helvetica,sans-Serif" font-size="10.00">month.h</text>
</a>
</g>
</g>
<!-- Node79&#45;&gt;Node80 -->
<g id="edge10" class="edge">
<title>Node79&#45;&gt;Node80</title>
<path fill="none" stroke="midnightblue" d="M240.96,-217.54C229.73,-207.91 215.68,-195.87 206.31,-187.83"/>
<polygon fill="midnightblue" stroke="midnightblue" points="239.01,-220.47 248.88,-224.32 243.56,-215.16 239.01,-220.47"/>
</g>
<!-- Node80&#45;&gt;Node4 -->
<g id="edge11" class="edge">
<title>Node80&#45;&gt;Node4</title>
<path fill="none" stroke="midnightblue" d="M179.09,-161.25C168.8,-151.67 156.03,-139.79 147.49,-131.83"/>
<polygon fill="midnightblue" stroke="midnightblue" points="176.98,-164.07 186.68,-168.32 181.75,-158.95 176.98,-164.07"/>
</g>
<!-- Node80&#45;&gt;Node5 -->
<g id="edge12" class="edge">
<title>Node80&#45;&gt;Node5</title>
<path fill="none" stroke="midnightblue" d="M194.3,-158.35C192.11,-134.25 188.39,-93.31 186.78,-75.59"/>
<polygon fill="midnightblue" stroke="midnightblue" points="190.82,-158.73 195.22,-168.37 197.8,-158.09 190.82,-158.73"/>
</g>
<!-- Node80&#45;&gt;Node11 -->
<g id="edge13" class="edge">
<title>Node80&#45;&gt;Node11</title>
<path fill="none" stroke="midnightblue" d="M204.16,-159.29C217.24,-132.85 245.41,-83.25 284,-56 317.61,-32.26 363.8,-20.9 396.42,-15.56"/>
<polygon fill="midnightblue" stroke="midnightblue" points="200.92,-157.96 199.76,-168.49 207.23,-160.98 200.92,-157.96"/>
</g>
<!-- Node81&#45;&gt;Node11 -->
<g id="edge16" class="edge">
<title>Node81&#45;&gt;Node11</title>
<path fill="none" stroke="midnightblue" d="M887.86,-218.95C899.01,-211.38 910.87,-200.93 917,-188 938.2,-143.26 942.68,-108.21 875,-56 843.72,-31.87 577.89,-17.41 475.75,-12.7"/>
<polygon fill="midnightblue" stroke="midnightblue" points="885.81,-216.1 879.2,-224.39 889.53,-222.03 885.81,-216.1"/>
</g>
<!-- Node82 -->
<g id="node10" class="node">
<title>Node82</title>
<g id="a_node10"><a xlink:href="../../d3/db2/_fraction__impl_8h.html" target="_top" xlink:title=" ">
<polygon fill="none" stroke="black" points="816,-168.5 816,-187.5 908,-187.5 908,-168.5 816,-168.5"/>
<text text-anchor="middle" x="862" y="-175.5" font-family="Helvetica,sans-Serif" font-size="10.00">Fraction_impl.h</text>
</a>
</g>
</g>
<!-- Node81&#45;&gt;Node82 -->
<g id="edge17" class="edge">
<title>Node81&#45;&gt;Node82</title>
<path fill="none" stroke="midnightblue" d="M855.53,-214.1C854.9,-205.14 855.34,-194.86 856.87,-187.75"/>
<polygon fill="midnightblue" stroke="midnightblue" points="852.07,-214.62 856.83,-224.08 859.01,-213.71 852.07,-214.62"/>
</g>
<!-- Node82&#45;&gt;Node81 -->
<g id="edge18" class="edge">
<title>Node82&#45;&gt;Node81</title>
<path fill="none" stroke="midnightblue" d="M868.46,-197.69C869.11,-206.64 868.68,-216.93 867.17,-224.08"/>
<polygon fill="midnightblue" stroke="midnightblue" points="871.92,-197.2 867.13,-187.75 864.98,-198.13 871.92,-197.2"/>
</g>
<!-- Node83&#45;&gt;Node11 -->
<g id="edge20" class="edge">
<title>Node83&#45;&gt;Node11</title>
<path fill="none" stroke="midnightblue" d="M274.31,-158.36C273.01,-132.21 274.68,-84.66 300,-56 324.2,-28.6 365.45,-17.83 396.19,-13.63"/>
<polygon fill="midnightblue" stroke="midnightblue" points="270.83,-158.69 275.02,-168.42 277.81,-158.2 270.83,-158.69"/>
</g>
<!-- Node84&#45;&gt;Node11 -->
<g id="edge22" class="edge">
<title>Node84&#45;&gt;Node11</title>
<path fill="none" stroke="midnightblue" d="M378.34,-216.46C351.09,-183.63 298.42,-108.84 333,-56 347,-34.61 373.64,-23.33 396.32,-17.41"/>
<polygon fill="midnightblue" stroke="midnightblue" points="375.8,-218.88 384.95,-224.21 381.12,-214.33 375.8,-218.88"/>
</g>
<!-- Node84&#45;&gt;Node85 -->
<g id="edge23" class="edge">
<title>Node84&#45;&gt;Node85</title>
<path fill="none" stroke="midnightblue" d="M409.29,-217C419.04,-207.43 431.05,-195.64 439.09,-187.75"/>
<polygon fill="midnightblue" stroke="midnightblue" points="406.77,-214.58 402.08,-224.08 411.67,-219.57 406.77,-214.58"/>
</g>
<!-- Node85&#45;&gt;Node11 -->
<g id="edge31" class="edge">
<title>Node85&#45;&gt;Node11</title>
<path fill="none" stroke="midnightblue" d="M489.75,-177.17C549.25,-175.6 648.56,-165.18 623,-112 595.75,-55.3 521.85,-29.32 475.52,-18.3"/>
<polygon fill="midnightblue" stroke="midnightblue" points="489.43,-173.68 479.5,-177.37 489.57,-180.68 489.43,-173.68"/>
</g>
<!-- Node86 -->
<g id="node14" class="node">
<title>Node86</title>
<g id="a_node14"><a xlink:href="../../db/dd0/rectangle_8h.html" target="_top" xlink:title=" ">
<polygon fill="none" stroke="black" points="380.5,-112.5 380.5,-131.5 451.5,-131.5 451.5,-112.5 380.5,-112.5"/>
<text text-anchor="middle" x="416" y="-119.5" font-family="Helvetica,sans-Serif" font-size="10.00">rectangle.h</text>
</a>
</g>
</g>
<!-- Node85&#45;&gt;Node86 -->
<g id="edge24" class="edge">
<title>Node85&#45;&gt;Node86</title>
<path fill="none" stroke="midnightblue" d="M437.5,-159.27C432.03,-150.05 425.58,-139.17 421.19,-131.75"/>
<polygon fill="midnightblue" stroke="midnightblue" points="434.61,-161.26 442.72,-168.08 440.63,-157.7 434.61,-161.26"/>
</g>
<!-- Node87 -->
<g id="node15" class="node">
<title>Node87</title>
<g id="a_node15"><a xlink:href="../../d7/d3c/square_8h.html" target="_top" xlink:title=" ">
<polygon fill="none" stroke="red" points="464.5,-56.5 464.5,-75.5 523.5,-75.5 523.5,-56.5 464.5,-56.5"/>
<text text-anchor="middle" x="494" y="-63.5" font-family="Helvetica,sans-Serif" font-size="10.00">square.h</text>
</a>
</g>
</g>
<!-- Node85&#45;&gt;Node87 -->
<g id="edge30" class="edge">
<title>Node85&#45;&gt;Node87</title>
<path fill="none" stroke="midnightblue" d="M455.53,-159C465.56,-135 482.93,-93.47 490.41,-75.59"/>
<polygon fill="midnightblue" stroke="midnightblue" points="452.24,-157.79 451.61,-168.37 458.7,-160.49 452.24,-157.79"/>
</g>
<!-- Node90 -->
<g id="node16" class="node">
<title>Node90</title>
<g id="a_node16"><a xlink:href="../../dd/d7d/pyramid_8h.html" target="_top" xlink:title=" ">
<polygon fill="none" stroke="black" points="342,-56.5 342,-75.5 408,-75.5 408,-56.5 342,-56.5"/>
<text text-anchor="middle" x="375" y="-63.5" font-family="Helvetica,sans-Serif" font-size="10.00">pyramid.h</text>
</a>
</g>
</g>
<!-- Node85&#45;&gt;Node90 -->
<g id="edge32" class="edge">
<title>Node85&#45;&gt;Node90</title>
<path fill="none" stroke="midnightblue" d="M410.43,-164.54C395.39,-157.5 379.62,-147.01 371,-132 360.76,-114.15 367.1,-88.83 371.62,-75.68"/>
<polygon fill="midnightblue" stroke="midnightblue" points="409.06,-167.76 419.63,-168.49 411.82,-161.33 409.06,-167.76"/>
</g>
<!-- Node91 -->
<g id="node17" class="node">
<title>Node91</title>
<g id="a_node17"><a xlink:href="../../df/dc4/triangular__prism_8h.html" target="_top" xlink:title=" ">
<polygon fill="none" stroke="black" points="508,-112.5 508,-131.5 614,-131.5 614,-112.5 508,-112.5"/>
<text text-anchor="middle" x="561" y="-119.5" font-family="Helvetica,sans-Serif" font-size="10.00">triangular_prism.h</text>
</a>
</g>
</g>
<!-- Node85&#45;&gt;Node91 -->
<g id="edge33" class="edge">
<title>Node85&#45;&gt;Node91</title>
<path fill="none" stroke="midnightblue" d="M475,-164.1C496.11,-154.01 524.86,-140.27 543.18,-131.52"/>
<polygon fill="midnightblue" stroke="midnightblue" points="473.42,-160.97 465.91,-168.44 476.44,-167.29 473.42,-160.97"/>
</g>
<!-- Node86&#45;&gt;Node11 -->
<g id="edge25" class="edge">
<title>Node86&#45;&gt;Node11</title>
<path fill="none" stroke="midnightblue" d="M419.39,-102.35C423.77,-78.25 431.22,-37.31 434.44,-19.59"/>
<polygon fill="midnightblue" stroke="midnightblue" points="415.91,-101.9 417.57,-112.37 422.8,-103.16 415.91,-101.9"/>
</g>
<!-- Node86&#45;&gt;Node87 -->
<g id="edge26" class="edge">
<title>Node86&#45;&gt;Node87</title>
<path fill="none" stroke="midnightblue" d="M436.77,-106.62C451.02,-96.76 469.46,-83.99 481.5,-75.65"/>
<polygon fill="midnightblue" stroke="midnightblue" points="434.76,-103.75 428.53,-112.32 438.75,-109.51 434.76,-103.75"/>
</g>
<!-- Node86&#45;&gt;Node90 -->
<g id="edge28" class="edge">
<title>Node86&#45;&gt;Node90</title>
<path fill="none" stroke="midnightblue" d="M402.98,-103.86C395.88,-94.5 387.4,-83.33 381.64,-75.75"/>
<polygon fill="midnightblue" stroke="midnightblue" points="400.39,-106.24 409.23,-112.08 405.97,-102 400.39,-106.24"/>
</g>
<!-- Node87&#45;&gt;Node11 -->
<g id="edge27" class="edge">
<title>Node87&#45;&gt;Node11</title>
<path fill="none" stroke="midnightblue" d="M477.09,-49.25C466.8,-39.67 454.03,-27.79 445.49,-19.83"/>
<polygon fill="midnightblue" stroke="midnightblue" points="474.98,-52.07 484.68,-56.32 479.75,-46.95 474.98,-52.07"/>
</g>
<!-- Node90&#45;&gt;Node11 -->
<g id="edge29" class="edge">
<title>Node90&#45;&gt;Node11</title>
<path fill="none" stroke="midnightblue" d="M392.47,-49.54C403.34,-39.91 416.94,-27.87 426.02,-19.83"/>
<polygon fill="midnightblue" stroke="midnightblue" points="389.97,-47.07 384.8,-56.32 394.61,-52.32 389.97,-47.07"/>
</g>
<!-- Node91&#45;&gt;Node11 -->
<g id="edge34" class="edge">
<title>Node91&#45;&gt;Node11</title>
<path fill="none" stroke="midnightblue" d="M556.79,-102.19C552.77,-87.98 545.44,-68.79 533,-56 515.53,-38.04 489.51,-26.5 468.81,-19.62"/>
<polygon fill="midnightblue" stroke="midnightblue" points="553.51,-103.47 559.34,-112.31 560.29,-101.76 553.51,-103.47"/>
</g>
<!-- Node92&#45;&gt;Node11 -->
<g id="edge36" class="edge">
<title>Node92&#45;&gt;Node11</title>
<path fill="none" stroke="midnightblue" d="M678.51,-105.76C660.82,-91.07 632.15,-69.2 604,-56 562.31,-36.45 510.67,-24.23 475.73,-17.53"/>
<polygon fill="midnightblue" stroke="midnightblue" points="676.36,-108.53 686.25,-112.32 680.88,-103.18 676.36,-108.53"/>
</g>
<!-- Node93 -->
<g id="node19" class="node">
<title>Node93</title>
<g id="a_node19"><a xlink:href="../../db/df0/cone_8h.html" target="_top" xlink:title=" ">
<polygon fill="none" stroke="black" points="656.5,-56.5 656.5,-75.5 705.5,-75.5 705.5,-56.5 656.5,-56.5"/>
<text text-anchor="middle" x="681" y="-63.5" font-family="Helvetica,sans-Serif" font-size="10.00">cone.h</text>
</a>
</g>
</g>
<!-- Node92&#45;&gt;Node93 -->
<g id="edge37" class="edge">
<title>Node92&#45;&gt;Node93</title>
<path fill="none" stroke="midnightblue" d="M690.83,-102.4C688.32,-93.36 685.43,-82.94 683.43,-75.75"/>
<polygon fill="midnightblue" stroke="midnightblue" points="687.47,-103.38 693.52,-112.08 694.22,-101.51 687.47,-103.38"/>
</g>
<!-- Node92&#45;&gt;Node94 -->
<g id="edge39" class="edge">
<title>Node92&#45;&gt;Node94</title>
<path fill="none" stroke="midnightblue" d="M713.18,-105.54C723.88,-95.91 737.26,-83.87 746.18,-75.83"/>
<polygon fill="midnightblue" stroke="midnightblue" points="710.73,-103.03 705.64,-112.32 715.41,-108.24 710.73,-103.03"/>
</g>
<!-- Node92&#45;&gt;Node95 -->
<g id="edge41" class="edge">
<title>Node92&#45;&gt;Node95</title>
<path fill="none" stroke="midnightblue" d="M727.7,-108.77C754,-98.63 790.72,-84.47 813.92,-75.52"/>
<polygon fill="midnightblue" stroke="midnightblue" points="726.25,-105.58 718.18,-112.44 728.77,-112.11 726.25,-105.58"/>
</g>
<!-- Node93&#45;&gt;Node11 -->
<g id="edge38" class="edge">
<title>Node93&#45;&gt;Node11</title>
<path fill="none" stroke="midnightblue" d="M646.4,-56.99C644.91,-56.66 643.44,-56.32 642,-56 584.14,-43 517.01,-28.44 475.52,-19.49"/>
<polygon fill="midnightblue" stroke="midnightblue" points="645.72,-60.43 656.25,-59.24 647.28,-53.6 645.72,-60.43"/>
</g>
<!-- Node94&#45;&gt;Node11 -->
<g id="edge40" class="edge">
<title>Node94&#45;&gt;Node11</title>
<path fill="none" stroke="midnightblue" d="M713.91,-55.88C623.19,-38.8 528.2,-24.36 475.86,-16.71"/>
<polygon fill="midnightblue" stroke="midnightblue" points="713.33,-59.33 723.81,-57.75 714.63,-52.45 713.33,-59.33"/>
</g>
<!-- Node95&#45;&gt;Node11 -->
<g id="edge42" class="edge">
<title>Node95&#45;&gt;Node11</title>
<path fill="none" stroke="midnightblue" d="M796.32,-56.05C673.76,-34.69 540.67,-20.79 475.73,-14.6"/>
<polygon fill="midnightblue" stroke="midnightblue" points="795.8,-59.51 806.25,-57.8 797.01,-52.62 795.8,-59.51"/>
</g>
</g>
</svg>
        <g id="navigator" transform="translate(0 0)" fill="#404254">
                <rect fill="#f2f5e9" fill-opacity="0.5" stroke="#606060" stroke-width=".5" x="0" y="0" width="60" height="60"/>
                <use id="zoomplus" xlink:href="#zoomPlus" x="17" y="9" onmousedown="handleZoom(evt,'in')"/>
                <use id="zoomminus" xlink:href="#zoomMin" x="42" y="9" onmousedown="handleZoom(evt,'out')"/>
                <use id="reset" xlink:href="#resetDef" x="30" y="36" onmousedown="handleReset()"/>
                <g id="arrowUp" xlink:href="#dirArrow" transform="translate(30 24)" onmousedown="handlePan(0,-1)">
                  <use xlink:href="#rim" fill="#404040">
                        <set attributeName="fill" to="#808080" begin="arrowUp.mouseover" end="arrowUp.mouseout"/>
                  </use>
                  <path fill="none" stroke="white" stroke-width="1.5" d="M0,-3.0v7 M-2.5,-0.5L0,-3.0L2.5,-0.5"/>
                </g>
                <g id="arrowRight" xlink:href="#dirArrow" transform="rotate(90) translate(36 -43)" onmousedown="handlePan(1,0)">
                  <use xlink:href="#rim" fill="#404040">
                        <set attributeName="fill" to="#808080" begin="arrowRight.mouseover" end="arrowRight.mouseout"/>
                  </use>
                  <path fill="none" stroke="white" stroke-width="1.5" d="M0,-3.0v7 M-2.5,-0.5L0,-3.0L2.5,-0.5"/>
                </g>
                <g id="arrowDown" xlink:href="#dirArrow" transform="rotate(180) translate(-30 -48)" onmousedown="handlePan(0,1)">
                  <use xlink:href="#rim" fill="#404040">
                        <set attributeName="fill" to="#808080" begin="arrowDown.mouseover" end="arrowDown.mouseout"/>
                  </use>
                  <path fill="none" stroke="white" stroke-width="1.5" d="M0,-3.0v7 M-2.5,-0.5L0,-3.0L2.5,-0.5"/>
                </g>
                <g id="arrowLeft" xlink:href="#dirArrow" transform="rotate(270) translate(-36 17)" onmousedown="handlePan(-1,0)">
                  <use xlink:href="#rim" fill="#404040">
                        <set attributeName="fill" to="#808080" begin="arrowLeft.mouseover" end="arrowLeft.mouseout"/>
                  </use>
                  <path fill="none" stroke="white" stroke-width="1.5" d="M0,-3.0v7 M-2.5,-0.5L0,-3.0L2.5,-0.5"/>
                </g>
        </g>
        <svg viewBox="0 0 15 15" width="100%" height="30px" preserveAspectRatio="xMaxYMin meet">
         <g id="arrow_out" transform="scale(0.3 0.3)">
          <a xlink:href="math_functions_8h__dep__incl_org.svg" target="_base">
           <rect id="button" ry="5" rx="5" y="6" x="6" height="38" width="38"
                fill="#f2f5e9" fill-opacity="0.5" stroke="#606060" stroke-width="1.0"/>
           <path id="arrow"
             d="M 11.500037,31.436501 C 11.940474,20.09759 22.043105,11.32322 32.158766,21.979434 L 37.068811,17.246167 C 37.068811,17.246167 37.088388,32 37.088388,32 L 22.160133,31.978069 C 22.160133,31.978069 26.997745,27.140456 26.997745,27.140456 C 18.528582,18.264221 13.291696,25.230495 11.500037,31.436501 z"
             style="fill:#404040;"/>
          </a>
         </g>
        </svg>
</svg>
